<?xml version="1.0" encoding="UTF-8"?>
<!--Generator: Apple Native CoreSVG 175.5-->
<!DOCTYPE svg
PUBLIC "-//W3C//DTD SVG 1.1//EN"
       "http://www.w3.org/Graphics/SVG/1.1/DTD/svg11.dtd">
<svg version="1.1" xmlns="http://www.w3.org/2000/svg" xmlns:xlink="http://www.w3.org/1999/xlink" width="11.6992" height="12.0669">
 <g>
  <rect height="12.0669" opacity="0" width="11.6992" x="0" y="0"/>
  <path d="M5.85091 12.0669C6.20638 12.0669 6.40316 11.832 6.40316 11.394L6.40316 7.75049C6.40316 6.22705 8.09164 4.01807 9.65316 3.02148L10.161 2.69141C10.3387 2.5835 10.4339 2.38672 10.4339 2.19629C10.4339 1.88525 10.2181 1.66943 9.89437 1.66943C9.73568 1.66943 9.56429 1.72656 9.41195 1.82812L9.07552 2.05029C7.53304 3.07861 6.05404 5.02734 5.85726 6.01123L5.83822 6.01123C5.64144 5.021 4.16879 3.07861 2.62631 2.05029L2.28988 1.82812C2.13119 1.72656 1.96615 1.66943 1.80111 1.66943C1.47738 1.66943 1.26791 1.9043 1.26791 2.18994C1.26791 2.38037 1.36312 2.5835 1.54086 2.69141L2.04867 3.02148C3.60384 4.01807 5.29867 6.22705 5.29867 7.75049L5.29867 11.394C5.29867 11.832 5.49545 12.0669 5.85091 12.0669ZM1.48373 3.7959L3.26107 1.4917C3.53402 1.13623 3.36263 0.850586 2.93734 0.831543L0.468102 0.723633C0.112634 0.70459-0.0777961 0.939453 0.030114 1.28857L0.760095 3.64355C0.887048 4.0625 1.20443 4.15771 1.48373 3.7959ZM10.1419 3.78955C10.4085 4.15771 10.7323 4.0752 10.8656 3.6626L11.6654 1.32666C11.7796 0.983887 11.5955 0.742676 11.2464 0.749023L8.77084 0.787109C8.34554 0.793457 8.16781 1.07275 8.42806 1.43457Z" fill="#000000" fill-opacity="0.85"/>
 </g>
</svg>
