<?xml version="1.0" encoding="UTF-8"?>
<!--Generator: Apple Native CoreSVG 175-->
<!DOCTYPE svg
PUBLIC "-//W3C//DTD SVG 1.1//EN"
       "http://www.w3.org/Graphics/SVG/1.1/DTD/svg11.dtd">
<svg version="1.1" xmlns="http://www.w3.org/2000/svg" xmlns:xlink="http://www.w3.org/1999/xlink" width="3300" height="2200">
 <!--glyph: "uni1000DC.medium", point size: 100.0, font version: "17.1d1e1", template writer version: "65.1"-->
 <g id="Notes">
  <rect height="2200" id="artboard" style="fill:white;opacity:1" width="3300" x="0" y="0"/>
  <line style="fill:none;stroke:black;opacity:1;stroke-width:0.5;" x1="263" x2="3036" y1="292" y2="292"/>
  <text style="stroke:none;fill:black;font-family:sans-serif;font-size:13;font-weight:bold;" transform="matrix(1 0 0 1 263 322)">Weight/Scale Variations</text>
  <text style="stroke:none;fill:black;font-family:sans-serif;font-size:13;text-anchor:middle;" transform="matrix(1 0 0 1 559.711 322)">Ultralight</text>
  <text style="stroke:none;fill:black;font-family:sans-serif;font-size:13;text-anchor:middle;" transform="matrix(1 0 0 1 856.422 322)">Thin</text>
  <text style="stroke:none;fill:black;font-family:sans-serif;font-size:13;text-anchor:middle;" transform="matrix(1 0 0 1 1153.13 322)">Light</text>
  <text style="stroke:none;fill:black;font-family:sans-serif;font-size:13;text-anchor:middle;" transform="matrix(1 0 0 1 1449.84 322)">Regular</text>
  <text style="stroke:none;fill:black;font-family:sans-serif;font-size:13;text-anchor:middle;" transform="matrix(1 0 0 1 1746.56 322)">Medium</text>
  <text style="stroke:none;fill:black;font-family:sans-serif;font-size:13;text-anchor:middle;" transform="matrix(1 0 0 1 2043.27 322)">Semibold</text>
  <text style="stroke:none;fill:black;font-family:sans-serif;font-size:13;text-anchor:middle;" transform="matrix(1 0 0 1 2339.98 322)">Bold</text>
  <text style="stroke:none;fill:black;font-family:sans-serif;font-size:13;text-anchor:middle;" transform="matrix(1 0 0 1 2636.69 322)">Heavy</text>
  <text style="stroke:none;fill:black;font-family:sans-serif;font-size:13;text-anchor:middle;" transform="matrix(1 0 0 1 2933.4 322)">Black</text>
  <line style="fill:none;stroke:black;opacity:1;stroke-width:0.5;" x1="263" x2="3036" y1="1903" y2="1903"/>
  <g transform="matrix(1 0 0 1 263 1933)">
   <path d="M9.24805 0.830078Q10.8691 0.830078 12.2949 0.214844Q13.7207-0.400391 14.8096-1.49414Q15.8984-2.58789 16.5186-4.01367Q17.1387-5.43945 17.1387-7.05078Q17.1387-8.66211 16.5186-10.0879Q15.8984-11.5137 14.8047-12.6074Q13.7109-13.7012 12.2852-14.3164Q10.8594-14.9316 9.23828-14.9316Q7.62695-14.9316 6.20117-14.3164Q4.77539-13.7012 3.69141-12.6074Q2.60742-11.5137 1.9873-10.0879Q1.36719-8.66211 1.36719-7.05078Q1.36719-5.43945 1.9873-4.01367Q2.60742-2.58789 3.69629-1.49414Q4.78516-0.400391 6.21094 0.214844Q7.63672 0.830078 9.24805 0.830078ZM9.24805-0.654297Q7.91992-0.654297 6.7627-1.14746Q5.60547-1.64062 4.73145-2.51953Q3.85742-3.39844 3.36426-4.56055Q2.87109-5.72266 2.87109-7.05078Q2.87109-8.37891 3.35938-9.54102Q3.84766-10.7031 4.72168-11.582Q5.5957-12.4609 6.75293-12.9541Q7.91016-13.4473 9.23828-13.4473Q10.5762-13.4473 11.7334-12.9541Q12.8906-12.4609 13.7695-11.582Q14.6484-10.7031 15.1465-9.54102Q15.6445-8.37891 15.6445-7.05078Q15.6445-5.72266 15.1514-4.56055Q14.6582-3.39844 13.7842-2.51953Q12.9102-1.64062 11.748-1.14746Q10.5859-0.654297 9.24805-0.654297ZM5.6543-7.05078Q5.6543-6.72852 5.85938-6.52832Q6.06445-6.32812 6.40625-6.32812L8.51562-6.32812L8.51562-4.20898Q8.51562-3.88672 8.71094-3.67676Q8.90625-3.4668 9.23828-3.4668Q9.56055-3.4668 9.77051-3.67676Q9.98047-3.88672 9.98047-4.20898L9.98047-6.32812L12.0898-6.32812Q12.4219-6.32812 12.627-6.52832Q12.832-6.72852 12.832-7.05078Q12.832-7.38281 12.627-7.58789Q12.4219-7.79297 12.0898-7.79297L9.98047-7.79297L9.98047-9.90234Q9.98047-10.2344 9.77051-10.4443Q9.56055-10.6543 9.23828-10.6543Q8.90625-10.6543 8.71094-10.4443Q8.51562-10.2344 8.51562-9.90234L8.51562-7.79297L6.40625-7.79297Q6.06445-7.79297 5.85938-7.58789Q5.6543-7.38281 5.6543-7.05078Z"/>
  </g>
  <g transform="matrix(1 0 0 1 281.867 1933)">
   <path d="M11.709 2.91016Q13.75 2.91016 15.5518 2.12891Q17.3535 1.34766 18.7305-0.0292969Q20.1074-1.40625 20.8887-3.20801Q21.6699-5.00977 21.6699-7.05078Q21.6699-9.0918 20.8887-10.8936Q20.1074-12.6953 18.7305-14.0723Q17.3535-15.4492 15.5469-16.2305Q13.7402-17.0117 11.6992-17.0117Q9.6582-17.0117 7.85645-16.2305Q6.05469-15.4492 4.68262-14.0723Q3.31055-12.6953 2.5293-10.8936Q1.74805-9.0918 1.74805-7.05078Q1.74805-5.00977 2.5293-3.20801Q3.31055-1.40625 4.6875-0.0292969Q6.06445 1.34766 7.86621 2.12891Q9.66797 2.91016 11.709 2.91016ZM11.709 1.25Q9.98047 1.25 8.47656 0.605469Q6.97266-0.0390625 5.83496-1.17676Q4.69727-2.31445 4.05762-3.81836Q3.41797-5.32227 3.41797-7.05078Q3.41797-8.7793 4.05762-10.2832Q4.69727-11.7871 5.83008-12.9297Q6.96289-14.0723 8.4668-14.7119Q9.9707-15.3516 11.6992-15.3516Q13.4277-15.3516 14.9316-14.7119Q16.4355-14.0723 17.5781-12.9297Q18.7207-11.7871 19.3652-10.2832Q20.0098-8.7793 20.0098-7.05078Q20.0098-5.32227 19.3701-3.81836Q18.7305-2.31445 17.5928-1.17676Q16.4551-0.0390625 14.9463 0.605469Q13.4375 1.25 11.709 1.25ZM7.17773-7.05078Q7.17773-6.69922 7.41211-6.47461Q7.64648-6.25 8.01758-6.25L10.8887-6.25L10.8887-3.36914Q10.8887-2.99805 11.1133-2.76855Q11.3379-2.53906 11.6895-2.53906Q12.0605-2.53906 12.29-2.76855Q12.5195-2.99805 12.5195-3.36914L12.5195-6.25L15.4004-6.25Q15.7715-6.25 16.001-6.47461Q16.2305-6.69922 16.2305-7.05078Q16.2305-7.42188 16.001-7.65137Q15.7715-7.88086 15.4004-7.88086L12.5195-7.88086L12.5195-10.752Q12.5195-11.1328 12.29-11.3623Q12.0605-11.5918 11.6895-11.5918Q11.3379-11.5918 11.1133-11.3574Q10.8887-11.123 10.8887-10.752L10.8887-7.88086L8.01758-7.88086Q7.63672-7.88086 7.40723-7.65137Q7.17773-7.42188 7.17773-7.05078Z"/>
  </g>
  <g transform="matrix(1 0 0 1 305.646 1933)">
   <path d="M14.9707 5.66406Q17.0605 5.66406 18.96 5.01465Q20.8594 4.36523 22.4512 3.19336Q24.043 2.02148 25.2197 0.429688Q26.3965-1.16211 27.0459-3.06641Q27.6953-4.9707 27.6953-7.05078Q27.6953-9.14062 27.0459-11.04Q26.3965-12.9395 25.2197-14.5312Q24.043-16.123 22.4512-17.2998Q20.8594-18.4766 18.9551-19.126Q17.0508-19.7754 14.9609-19.7754Q12.8711-19.7754 10.9717-19.126Q9.07227-18.4766 7.48535-17.2998Q5.89844-16.123 4.72168-14.5312Q3.54492-12.9395 2.90039-11.04Q2.25586-9.14062 2.25586-7.05078Q2.25586-4.9707 2.90527-3.06641Q3.55469-1.16211 4.72656 0.429688Q5.89844 2.02148 7.49023 3.19336Q9.08203 4.36523 10.9814 5.01465Q12.8809 5.66406 14.9707 5.66406ZM14.9707 3.84766Q13.1641 3.84766 11.5283 3.2959Q9.89258 2.74414 8.53516 1.74805Q7.17773 0.751953 6.17676-0.610352Q5.17578-1.97266 4.62891-3.6084Q4.08203-5.24414 4.08203-7.05078Q4.08203-8.86719 4.62891-10.5029Q5.17578-12.1387 6.17188-13.501Q7.16797-14.8633 8.52539-15.8594Q9.88281-16.8555 11.5186-17.4023Q13.1543-17.9492 14.9609-17.9492Q16.7773-17.9492 18.4131-17.4023Q20.0488-16.8555 21.4111-15.8594Q22.7734-14.8633 23.7695-13.501Q24.7656-12.1387 25.3174-10.5029Q25.8691-8.86719 25.8691-7.05078Q25.8789-5.24414 25.332-3.6084Q24.7852-1.97266 23.7842-0.610352Q22.7832 0.751953 21.4209 1.74805Q20.0586 2.74414 18.4229 3.2959Q16.7871 3.84766 14.9707 3.84766ZM9.19922-7.05078Q9.19922-6.66992 9.45801-6.4209Q9.7168-6.17188 10.1172-6.17188L14.0625-6.17188L14.0625-2.2168Q14.0625-1.81641 14.3115-1.55762Q14.5605-1.29883 14.9512-1.29883Q15.3516-1.29883 15.6104-1.55273Q15.8691-1.80664 15.8691-2.2168L15.8691-6.17188L19.8242-6.17188Q20.2246-6.17188 20.4785-6.4209Q20.7324-6.66992 20.7324-7.05078Q20.7324-7.46094 20.4785-7.71484Q20.2246-7.96875 19.8242-7.96875L15.8691-7.96875L15.8691-11.9141Q15.8691-12.3242 15.6104-12.583Q15.3516-12.8418 14.9512-12.8418Q14.5605-12.8418 14.3115-12.583Q14.0625-12.3242 14.0625-11.9141L14.0625-7.96875L10.1172-7.96875Q9.70703-7.96875 9.45312-7.71484Q9.19922-7.46094 9.19922-7.05078Z"/>
  </g>
  <text style="stroke:none;fill:black;font-family:sans-serif;font-size:13;font-weight:bold;" transform="matrix(1 0 0 1 263 1953)">Design Variations</text>
  <text style="stroke:none;fill:black;font-family:sans-serif;font-size:13;" transform="matrix(1 0 0 1 263 1971)">Symbols are supported in up to nine weights and three scales.</text>
  <text style="stroke:none;fill:black;font-family:sans-serif;font-size:13;" transform="matrix(1 0 0 1 263 1989)">For optimal layout with text and other symbols, vertically align</text>
  <text style="stroke:none;fill:black;font-family:sans-serif;font-size:13;" transform="matrix(1 0 0 1 263 2007)">symbols with the adjacent text.</text>
  <line style="fill:none;stroke:#00AEEF;stroke-width:0.5;opacity:1.0;" x1="776" x2="776" y1="1919" y2="1933"/>
  <g transform="matrix(1 0 0 1 776 1933)">
   <path d="M3.31055 0.15625Q3.70117 0.15625 3.91602-0.00976562Q4.13086-0.175781 4.26758-0.585938L5.52734-4.0332L11.2891-4.0332L12.5488-0.585938Q12.6855-0.175781 12.9004-0.00976562Q13.1152 0.15625 13.4961 0.15625Q13.8867 0.15625 14.1162-0.0585938Q14.3457-0.273438 14.3457-0.644531Q14.3457-0.869141 14.2383-1.17188L9.6582-13.3691Q9.48242-13.8184 9.17969-14.043Q8.87695-14.2676 8.4082-14.2676Q7.5-14.2676 7.17773-13.3789L2.59766-1.16211Q2.49023-0.859375 2.49023-0.634766Q2.49023-0.263672 2.70996-0.0537109Q2.92969 0.15625 3.31055 0.15625ZM6.00586-5.51758L8.37891-12.0898L8.42773-12.0898L10.8008-5.51758Z"/>
  </g>
  <line style="fill:none;stroke:#00AEEF;stroke-width:0.5;opacity:1.0;" x1="793.197" x2="793.197" y1="1919" y2="1933"/>
  <text style="stroke:none;fill:black;font-family:sans-serif;font-size:13;font-weight:bold;" transform="matrix(1 0 0 1 776 1953)">Margins</text>
  <text style="stroke:none;fill:black;font-family:sans-serif;font-size:13;" transform="matrix(1 0 0 1 776 1971)">Leading and trailing margins on the left and right side of each symbol</text>
  <text style="stroke:none;fill:black;font-family:sans-serif;font-size:13;" transform="matrix(1 0 0 1 776 1989)">can be adjusted by modifying the x-location of the margin guidelines.</text>
  <text style="stroke:none;fill:black;font-family:sans-serif;font-size:13;" transform="matrix(1 0 0 1 776 2007)">Modifications are automatically applied proportionally to all</text>
  <text style="stroke:none;fill:black;font-family:sans-serif;font-size:13;" transform="matrix(1 0 0 1 776 2025)">scales and weights.</text>
  <g transform="matrix(1 0 0 1 1289 1933)">
   <path d="M2.8418 1.86523L4.54102 3.57422Q5.18555 4.22852 5.90332 4.17969Q6.62109 4.13086 7.31445 3.35938L18.0078-8.42773L17.041-9.4043L6.42578 2.27539Q6.16211 2.57812 5.89355 2.61719Q5.625 2.65625 5.27344 2.30469L4.10156 1.14258Q3.75 0.791016 3.79395 0.522461Q3.83789 0.253906 4.14062-0.0195312L15.6152-10.8203L14.6387-11.7871L3.04688-0.898438Q2.30469-0.214844 2.25098 0.498047Q2.19727 1.21094 2.8418 1.86523ZM9.25781-16.3281Q8.94531-16.0254 8.90625-15.6348Q8.86719-15.2441 9.04297-14.9512Q9.21875-14.6777 9.55566-14.541Q9.89258-14.4043 10.3809-14.5215Q11.4746-14.7754 12.5977-14.7314Q13.7207-14.6875 14.7949-13.9844L14.209-12.5293Q13.9551-11.9043 14.0674-11.4404Q14.1797-10.9766 14.5801-10.5664L16.875-8.25195Q17.2363-7.88086 17.5781-7.82227Q17.9199-7.76367 18.3398-7.8418L19.4043-8.03711L20.0684-7.36328L20.0293-6.80664Q20-6.43555 20.1221-6.12305Q20.2441-5.81055 20.6055-5.44922L21.3672-4.70703Q21.7285-4.3457 22.1533-4.33105Q22.5781-4.31641 22.9297-4.66797L25.8398-7.58789Q26.1914-7.93945 26.1816-8.35449Q26.1719-8.76953 25.8105-9.13086L25.0391-9.89258Q24.6875-10.2539 24.3799-10.3857Q24.0723-10.5176 23.7109-10.4883L23.1348-10.4395L22.4902-11.0742L22.7344-12.1973Q22.832-12.6172 22.6953-12.9834Q22.5586-13.3496 22.1191-13.7891L19.9219-15.9766Q18.6719-17.2168 17.2607-17.8369Q15.8496-18.457 14.4189-18.4814Q12.9883-18.5059 11.665-17.959Q10.3418-17.4121 9.25781-16.3281ZM10.752-15.957Q11.6602-16.6211 12.7002-16.9043Q13.7402-17.1875 14.8047-17.085Q15.8691-16.9824 16.8701-16.5137Q17.8711-16.0449 18.7012-15.2051L21.1328-12.793Q21.3086-12.6172 21.3525-12.4512Q21.3965-12.2852 21.3379-12.0312L21.0156-10.5469L22.5195-9.0625L23.5059-9.12109Q23.6914-9.13086 23.7891-9.09668Q23.8867-9.0625 24.0332-8.91602L24.6094-8.33984L22.168-5.89844L21.5918-6.47461Q21.4453-6.62109 21.4062-6.71875Q21.3672-6.81641 21.377-7.01172L21.4453-7.98828L19.9512-9.47266L18.4277-9.21875Q18.1836-9.16992 18.042-9.2041Q17.9004-9.23828 17.7148-9.41406L15.7129-11.416Q15.5176-11.5918 15.4932-11.7529Q15.4688-11.9141 15.5859-12.1875L16.4648-14.2773Q15.293-15.3711 13.8281-15.791Q12.3633-16.2109 10.8398-15.7617Q10.7227-15.7324 10.6885-15.8057Q10.6543-15.8789 10.752-15.957Z"/>
  </g>
  <text style="stroke:none;fill:black;font-family:sans-serif;font-size:13;font-weight:bold;" transform="matrix(1 0 0 1 1289 1953)">Exporting</text>
  <text style="stroke:none;fill:black;font-family:sans-serif;font-size:13;" transform="matrix(1 0 0 1 1289 1971)">Symbols should be outlined when exporting to ensure the</text>
  <text style="stroke:none;fill:black;font-family:sans-serif;font-size:13;" transform="matrix(1 0 0 1 1289 1989)">design is preserved when submitting to Xcode.</text>
  <text id="template-version" style="stroke:none;fill:black;font-family:sans-serif;font-size:13;text-anchor:end;" transform="matrix(1 0 0 1 3036 1933)">Template v.2.0</text>
  <text style="stroke:none;fill:black;font-family:sans-serif;font-size:13;text-anchor:end;" transform="matrix(1 0 0 1 3036 1951)">Requires Xcode 12 or greater</text>
  <text id="descriptive-name" style="stroke:none;fill:black;font-family:sans-serif;font-size:13;text-anchor:end;" transform="matrix(1 0 0 1 3036 1969)">Generated from plus.square</text>
  <text style="stroke:none;fill:black;font-family:sans-serif;font-size:13;text-anchor:end;" transform="matrix(1 0 0 1 3036 1987)">Typeset at 100 points</text>
  <text style="stroke:none;fill:black;font-family:sans-serif;font-size:13;" transform="matrix(1 0 0 1 263 726)">Small</text>
  <text style="stroke:none;fill:black;font-family:sans-serif;font-size:13;" transform="matrix(1 0 0 1 263 1156)">Medium</text>
  <text style="stroke:none;fill:black;font-family:sans-serif;font-size:13;" transform="matrix(1 0 0 1 263 1586)">Large</text>
 </g>
 <g id="Guides">
  <g id="H-reference" style="fill:#27AAE1;stroke:none;" transform="matrix(1 0 0 1 339 696)">
   <path d="M0.993347 0L3.6377 0L29.3282-67.1326L30.0301-67.1326L30.0301-70.459L28.1227-70.459ZM11.6882-24.4797L46.9818-24.4797L46.2311-26.7288L12.4382-26.7288ZM55.1193 0L57.7637 0L30.6381-70.459L29.4327-70.459L29.4327-67.1326Z"/>
  </g>
  <line id="Baseline-S" style="fill:none;stroke:#27AAE1;opacity:1;stroke-width:0.5;" x1="263" x2="3036" y1="696" y2="696"/>
  <line id="Capline-S" style="fill:none;stroke:#27AAE1;opacity:1;stroke-width:0.5;" x1="263" x2="3036" y1="625.541" y2="625.541"/>
  <g id="H-reference" style="fill:#27AAE1;stroke:none;" transform="matrix(1 0 0 1 339 1126)">
   <path d="M0.993347 0L3.6377 0L29.3282-67.1326L30.0301-67.1326L30.0301-70.459L28.1227-70.459ZM11.6882-24.4797L46.9818-24.4797L46.2311-26.7288L12.4382-26.7288ZM55.1193 0L57.7637 0L30.6381-70.459L29.4327-70.459L29.4327-67.1326Z"/>
  </g>
  <line id="Baseline-M" style="fill:none;stroke:#27AAE1;opacity:1;stroke-width:0.5;" x1="263" x2="3036" y1="1126" y2="1126"/>
  <line id="Capline-M" style="fill:none;stroke:#27AAE1;opacity:1;stroke-width:0.5;" x1="263" x2="3036" y1="1055.54" y2="1055.54"/>
  <g id="H-reference" style="fill:#27AAE1;stroke:none;" transform="matrix(1 0 0 1 339 1556)">
   <path d="M0.993347 0L3.6377 0L29.3282-67.1326L30.0301-67.1326L30.0301-70.459L28.1227-70.459ZM11.6882-24.4797L46.9818-24.4797L46.2311-26.7288L12.4382-26.7288ZM55.1193 0L57.7637 0L30.6381-70.459L29.4327-70.459L29.4327-67.1326Z"/>
  </g>
  <line id="Baseline-L" style="fill:none;stroke:#27AAE1;opacity:1;stroke-width:0.5;" x1="263" x2="3036" y1="1556" y2="1556"/>
  <line id="Capline-L" style="fill:none;stroke:#27AAE1;opacity:1;stroke-width:0.5;" x1="263" x2="3036" y1="1485.54" y2="1485.54"/>
  <line id="left-margin" style="fill:none;stroke:#00AEEF;stroke-width:0.5;opacity:1.0;" x1="1392.45" x2="1392.45" y1="1030.79" y2="1150.12"/>
  <line id="right-margin" style="fill:none;stroke:#00AEEF;stroke-width:0.5;opacity:1.0;" x1="1507.24" x2="1507.24" y1="1030.79" y2="1150.12"/>
 </g>
 <g id="Symbols">
  <g id="Black-L" transform="matrix(1 0 0 1 2855.72 1556)">
   <path d="M39.8559 26.4225L115.512 26.4225Q126.881 26.4225 133.083 20.23Q139.284 14.0375 139.284 2.71277L139.284-73.0901Q139.284-84.4148 133.083-90.6066Q126.881-96.7985 115.512-96.7985L39.8559-96.7985Q28.5079-96.7985 22.2959-90.6073Q16.084-84.4161 16.084-73.0901L16.084 2.71277Q16.084 14.0401 22.2959 20.2313Q28.5079 26.4225 39.8559 26.4225ZM42.5866 6.42133Q39.3787 6.42133 37.7216 4.87256Q36.0645 3.3238 36.0645-0.121591L36.0645-70.2544Q36.0645-73.7375 37.7216-75.2674Q39.3787-76.7973 42.5866-76.7973L112.782-76.7973Q116.045-76.7973 117.675-75.2674Q119.304-73.7375 119.304-70.2544L119.304-0.121591Q119.304 3.3238 117.675 4.87256Q116.045 6.42133 112.782 6.42133ZM48.833-35.2697Q48.833-31.829 51.0587-29.5261Q53.2844-27.2232 56.7094-27.2232L69.6273-27.2232L69.6273-14.2846Q69.6273-10.9023 71.9198-8.66626Q74.2124-6.43022 77.6725-6.43022Q81.1157-6.43022 83.4394-8.66561Q85.763-10.901 85.763-14.2846L85.763-27.2232L98.6809-27.2232Q102.085-27.2232 104.311-29.5261Q106.537-31.829 106.537-35.2697Q106.537-38.7324 104.311-41.0463Q102.085-43.3602 98.6809-43.3602L85.763-43.3602L85.763-56.2781Q85.763-59.6824 83.4394-61.9178Q81.1157-64.1532 77.6725-64.1532Q74.2124-64.1532 71.9198-61.9172Q69.6273-59.6811 69.6273-56.2781L69.6273-43.3602L56.7094-43.3602Q53.2831-43.3602 51.058-41.0463Q48.833-38.7324 48.833-35.2697Z"/>
  </g>
  <g id="Heavy-L" transform="matrix(1 0 0 1 2559.92 1556)">
   <path d="M38.8328 25.5158L114.704 25.5158Q125.682 25.5158 131.567 19.6396Q137.452 13.7633 137.452 2.85629L137.452-73.2288Q137.452-84.1358 131.567-90.0091Q125.682-95.8823 114.704-95.8823L38.8328-95.8823Q27.8839-95.8823 21.984-90.0121Q16.084-84.1419 16.084-73.2288L16.084 2.85629Q16.084 13.7754 21.984 19.6456Q27.8839 25.5158 38.8328 25.5158ZM40.957 7.98818Q37.3499 7.98818 35.4659 6.20086Q33.5818 4.41354 33.5818 0.583243L33.5818-70.9497Q33.5818-74.7949 35.4659-76.5748Q37.3499-78.3547 40.957-78.3547L112.579-78.3547Q116.219-78.3547 118.087-76.5748Q119.954-74.7949 119.954-70.9497L119.954 0.583243Q119.954 4.41354 118.087 6.20086Q116.219 7.98818 112.579 7.98818ZM47.8749-35.2697Q47.8749-32.136 49.9031-30.0557Q51.9313-27.9754 55.086-27.9754L69.459-27.9754L69.459-13.5727Q69.459-10.4836 71.5244-8.44044Q73.5898-6.39733 76.7472-6.39733Q79.893-6.39733 82.0031-8.43743Q84.1131-10.4775 84.1131-13.5727L84.1131-27.9754L98.4861-27.9754Q101.611-27.9754 103.639-30.0557Q105.667-32.136 105.667-35.2697Q105.667-38.4392 103.639-40.5374Q101.611-42.6356 98.4861-42.6356L84.1131-42.6356L84.1131-57.0086Q84.1131-60.1335 82.0031-62.1736Q79.893-64.2137 76.7472-64.2137Q73.5898-64.2137 71.5244-62.1706Q69.459-60.1274 69.459-57.0086L69.459-42.6356L55.086-42.6356Q51.9253-42.6356 49.9001-40.5374Q47.8749-38.4392 47.8749-35.2697Z"/>
  </g>
  <g id="Bold-L" transform="matrix(1 0 0 1 2264.35 1556)">
   <path d="M37.5443 24.3864L113.709 24.3864Q124.174 24.3864 129.672 18.8927Q135.17 13.3991 135.17 3.03698L135.17-73.4013Q135.17-83.7634 129.672-89.2499Q124.174-94.7365 113.709-94.7365L37.5443-94.7365Q27.1168-94.7365 21.6004-89.257Q16.084-83.7776 16.084-73.4013L16.084 3.03698Q16.084 13.4275 21.6004 18.9069Q27.1168 24.3864 37.5443 24.3864ZM38.9901 9.91361Q34.8616 9.91361 32.6907 7.82346Q30.5198 5.73331 30.5198 1.40624L30.5198-71.7564Q30.5198-76.0756 32.6907-78.1697Q34.8616-80.2637 38.9901-80.2637L112.264-80.2637Q116.393-80.2637 118.564-78.1697Q120.734-76.0756 120.734-71.7564L120.734 1.40624Q120.734 5.73331 118.564 7.82346Q116.393 9.91361 112.264 9.91361ZM46.757-35.2697Q46.757-32.5484 48.5241-30.756Q50.2911-28.9636 53.0714-28.9636L69.3024-28.9636L69.3024-12.6957Q69.3024-10.0036 71.0763-8.21806Q72.8502-6.43248 75.5942-6.43248Q78.3439-6.43248 80.1733-8.21095Q82.0027-9.98941 82.0027-12.6957L82.0027-28.9636L98.2336-28.9636Q100.977-28.9636 102.744-30.756Q104.511-32.5484 104.511-35.2697Q104.511-38.0422 102.744-39.8602Q100.977-41.6782 98.2336-41.6782L82.0027-41.6782L82.0027-57.9091Q82.0027-60.6524 80.1733-62.4309Q78.3439-64.2094 75.5942-64.2094Q72.8502-64.2094 71.0763-62.4238Q69.3024-60.6382 69.3024-57.9091L69.3024-41.6782L53.0714-41.6782Q50.2769-41.6782 48.5169-39.8602Q46.757-38.0422 46.757-35.2697Z"/>
  </g>
  <g id="Semibold-L" transform="matrix(1 0 0 1 1968.43 1556)">
   <path d="M36.6561 23.6077L113.024 23.6077Q123.134 23.6077 128.365 18.3778Q133.596 13.1479 133.596 3.16154L133.596-73.5202Q133.596-83.5066 128.365-88.7266Q123.134-93.9466 113.024-93.9466L36.6561-93.9466Q26.588-93.9466 21.336-88.7365Q16.084-83.5265 16.084-73.5202L16.084 3.16154Q16.084 13.1877 21.336 18.3977Q26.588 23.6077 36.6561 23.6077ZM37.6342 11.241Q33.1463 11.241 30.7775 8.94207Q28.4088 6.64315 28.4088 1.97361L28.4088-72.3124Q28.4088-76.9586 30.7775-79.2692Q33.1463-81.5798 37.6342-81.5798L112.046-81.5798Q116.513-81.5798 118.892-79.2692Q121.272-76.9586 121.272-72.3124L121.272 1.97361Q121.272 6.64315 118.892 8.94207Q116.513 11.241 112.046 11.241ZM45.9863-35.2697Q45.9863-32.8328 47.5734-31.2388Q49.1604-29.6449 51.6826-29.6449L69.1944-29.6449L69.1944-12.0911Q69.1944-9.67278 70.7673-8.06475Q72.3403-6.45671 74.7993-6.45671Q77.276-6.45671 78.9119-8.05481Q80.5478-9.65291 80.5478-12.0911L80.5478-29.6449L98.0596-29.6449Q100.54-29.6449 102.127-31.2388Q103.714-32.8328 103.714-35.2697Q103.714-37.7685 102.127-39.3933Q100.54-41.0182 98.0596-41.0182L80.5478-41.0182L80.5478-58.53Q80.5478-61.0102 78.9119-62.6083Q77.276-64.2064 74.7993-64.2064Q72.3403-64.2064 70.7673-62.5983Q69.1944-60.9903 69.1944-58.53L69.1944-41.0182L51.6826-41.0182Q49.1405-41.0182 47.5634-39.3933Q45.9863-37.7685 45.9863-35.2697Z"/>
  </g>
  <g id="Medium-L" transform="matrix(1 0 0 1 1672.31 1556)">
   <path d="M35.9826 23.0174L112.505 23.0174Q122.346 23.0174 127.375 17.9874Q132.403 12.9575 132.403 3.25599L132.403-73.6104Q132.403-83.3119 127.375-88.3298Q122.346-93.3476 112.505-93.3476L35.9826-93.3476Q26.187-93.3476 21.1355-88.3419Q16.084-83.3361 16.084-73.6104L16.084 3.25599Q16.084 13.0058 21.1355 18.0116Q26.187 23.0174 35.9826 23.0174ZM36.606 12.2475Q31.8456 12.2475 29.3269 9.79025Q26.8081 7.33303 26.8081 2.40381L26.8081-72.7341Q26.8081-77.628 29.3269-80.1029Q31.8456-82.5777 36.606-82.5777L111.881-82.5777Q116.604-82.5777 119.141-80.1029Q121.679-77.628 121.679-72.7341L121.679 2.40381Q121.679 7.33303 119.141 9.79025Q116.604 12.2475 111.881 12.2475ZM45.402-35.2697Q45.402-33.0484 46.8525-31.6049Q48.303-30.1615 50.6295-30.1615L69.1125-30.1615L69.1125-11.6327Q69.1125-9.42191 70.5331-7.9485Q71.9536-6.47509 74.1966-6.47509Q76.4662-6.47509 77.9554-7.93642Q79.4446-9.39776 79.4446-11.6327L79.4446-30.1615L97.9276-30.1615Q100.208-30.1615 101.659-31.6049Q103.109-33.0484 103.109-35.2697Q103.109-37.561 101.659-39.0393Q100.208-40.5177 97.9276-40.5177L79.4446-40.5177L79.4446-59.0007Q79.4446-61.2815 77.9554-62.7428Q76.4662-64.2041 74.1966-64.2041Q71.9536-64.2041 70.5331-62.7307Q69.1125-61.2573 69.1125-59.0007L69.1125-40.5177L50.6295-40.5177Q48.2789-40.5177 46.8404-39.0393Q45.402-37.561 45.402-35.2697Z"/>
  </g>
  <g id="Regular-L" transform="matrix(1 0 0 1 1376.38 1556)">
   <path d="M35.1041 22.2473L111.827 22.2473Q121.318 22.2473 126.082 17.4782Q130.847 12.7092 130.847 3.37919L130.847-73.728Q130.847-83.058 126.082-87.8122Q121.318-92.5664 111.827-92.5664L35.1041-92.5664Q25.664-92.5664 20.874-87.8271Q16.084-83.0877 16.084-73.728L16.084 3.37919Q16.084 12.7686 20.874 17.508Q25.664 22.2473 35.1041 22.2473ZM35.265 13.5603Q30.1491 13.5603 27.4347 10.8966Q24.7203 8.23287 24.7203 2.96494L24.7203-73.284Q24.7203-78.5013 27.4347-81.1903Q30.1491-83.8794 35.265-83.8794L111.666-83.8794Q116.722-83.8794 119.467-81.1903Q122.211-78.5013 122.211-73.284L122.211 2.96494Q122.211 8.23287 119.467 10.8966Q116.722 13.5603 111.666 13.5603ZM44.6398-35.2697Q44.6398-33.3296 45.9122-32.0824Q47.1847-30.8353 49.2559-30.8353L69.0057-30.8353L69.0057-11.0348Q69.0057-9.09469 70.2275-7.79687Q71.4493-6.49906 73.4104-6.49906Q75.41-6.49906 76.7078-7.78201Q78.0057-9.06495 78.0057-11.0348L78.0057-30.8353L97.7554-30.8353Q99.776-30.8353 101.048-32.0824Q102.321-33.3296 102.321-35.2697Q102.321-37.2903 101.048-38.5776Q99.776-39.8649 97.7554-39.8649L78.0057-39.8649L78.0057-59.6147Q78.0057-61.6353 76.7078-62.9182Q75.41-64.2012 73.4104-64.2012Q71.4493-64.2012 70.2275-62.9034Q69.0057-61.6056 69.0057-59.6147L69.0057-39.8649L49.2559-39.8649Q47.155-39.8649 45.8974-38.5776Q44.6398-37.2903 44.6398-35.2697Z"/>
  </g>
  <g id="Light-L" transform="matrix(1 0 0 1 1080.5 1556)">
   <path d="M34.078 21.4264L111.191 21.4264Q120.127 21.4264 124.656 16.8626Q129.185 12.2987 129.185 3.52284L129.185-73.8511Q129.185-82.627 124.656-87.1657Q120.127-91.7045 111.191-91.7045L34.078-91.7045Q25.1715-91.7045 20.6277-87.1909Q16.084-82.6773 16.084-73.8511L16.084 3.52284Q16.084 12.3992 20.6277 16.9128Q25.1715 21.4264 34.078 21.4264ZM34.2389 14.7916Q28.5894 14.7916 25.639 11.8714Q22.6887 8.95114 22.6887 3.21121L22.6887-73.4893Q22.6887-79.199 25.639-82.1343Q28.5894-85.0696 34.2389-85.0696L111.03-85.0696Q116.579-85.0696 119.579-82.1343Q122.58-79.199 122.58-73.4893L122.58 3.21121Q122.58 8.95114 119.579 11.8714Q116.579 14.7916 111.03 14.7916ZM44.3114-35.2697Q44.3114-33.8221 45.2966-32.852Q46.2817-31.8819 47.8399-31.8819L69.2315-31.8819L69.2315-10.4602Q69.2315-9.01261 70.1865-8.01235Q71.1415-7.0121 72.569-7.0121Q74.1171-7.0121 75.1174-7.98722Q76.1176-8.96234 76.1176-10.4602L76.1176-31.8819L97.5092-31.8819Q99.0372-31.8819 100.022-32.852Q101.008-33.8221 101.008-35.2697Q101.008-36.7977 100.022-37.808Q99.0372-38.8183 97.5092-38.8183L76.1176-38.8183L76.1176-60.2099Q76.1176-61.7379 75.1174-62.713Q74.1171-63.6881 72.569-63.6881Q71.1415-63.6881 70.1865-62.6879Q69.2315-61.6876 69.2315-60.2099L69.2315-38.8183L47.8399-38.8183Q46.2315-38.8183 45.2714-37.808Q44.3114-36.7977 44.3114-35.2697Z"/>
  </g>
  <g id="Thin-L" transform="matrix(1 0 0 1 784.884 1556)">
   <path d="M32.7209 20.3407L110.349 20.3407Q118.553 20.3407 122.77 16.0483Q126.986 11.7559 126.986 3.71284L126.986-74.014Q126.986-82.057 122.77-86.3108Q118.553-90.5645 110.349-90.5645L32.7209-90.5645Q24.5201-90.5645 20.302-86.3495Q16.084-82.1344 16.084-74.014L16.084 3.71284Q16.084 11.9107 20.302 16.1257Q24.5201 20.3407 32.7209 20.3407ZM32.8818 16.4201Q26.5266 16.4201 23.2641 13.1606Q20.0016 9.9011 20.0016 3.53691L20.0016-73.7607Q20.0016-80.1218 23.2641-83.3829Q26.5266-86.6439 32.8818-86.6439L110.188-86.6439Q116.389-86.6439 119.729-83.3829Q123.069-80.1218 123.069-73.7607L123.069 3.53691Q123.069 9.9011 119.729 13.1606Q116.389 16.4201 110.188 16.4201ZM43.8771-35.2697Q43.8771-34.4735 44.4823-33.8698Q45.0875-33.2662 45.9671-33.2662L69.53-33.2662L69.53-9.70023Q69.53-8.90404 70.1322-8.29735Q70.7344-7.69065 71.4562-7.69065Q72.4072-7.69065 73.0139-8.25864Q73.6206-8.82663 73.6206-9.70023L73.6206-33.2662L97.1835-33.2662Q98.0601-33.2662 98.6653-33.8698Q99.2705-34.4735 99.2705-35.2697Q99.2705-36.1463 98.6653-36.7902Q98.0601-37.4341 97.1835-37.4341L73.6206-37.4341L73.6206-60.997Q73.6206-61.8736 73.0139-62.4416Q72.4072-63.0096 71.4562-63.0096Q70.7344-63.0096 70.1322-62.4029Q69.53-61.7962 69.53-60.997L69.53-37.4341L45.9671-37.4341Q45.0101-37.4341 44.4436-36.7902Q43.8771-36.1463 43.8771-35.2697Z"/>
  </g>
  <g id="Ultralight-L" transform="matrix(1 0 0 1 488.735 1556)">
   <path d="M32.0258 19.7847L109.918 19.7847Q117.747 19.7847 121.803 15.6313Q125.86 11.4778 125.86 3.81015L125.86-74.0974Q125.86-81.7651 121.803-85.8729Q117.747-89.9806 109.918-89.9806L32.0258-89.9806Q24.1864-89.9806 20.1352-85.9185Q16.084-81.8564 16.084-74.0974L16.084 3.81015Q16.084 11.6604 20.1352 15.7226Q24.1864 19.7847 32.0258 19.7847ZM32.1867 17.2542Q25.4701 17.2542 22.0477 13.8209Q18.6253 10.3877 18.6253 3.70373L18.6253-73.8997Q18.6253-80.5945 22.0477-84.0223Q25.4701-87.4502 32.1867-87.4502L109.757-87.4502Q116.291-87.4502 119.805-84.0223Q123.319-80.5945 123.319-73.8997L123.319 3.70373Q123.319 10.3877 119.805 13.8209Q116.291 17.2542 109.757 17.2542ZM43.6547-35.2697Q43.6547-34.8072 44.0653-34.3912Q44.4758-33.9752 45.0079-33.9752L69.683-33.9752L69.683-9.31098Q69.683-8.84843 70.1044-8.44332Q70.5258-8.0382 70.8862-8.0382Q71.5314-8.0382 71.9365-8.39766Q72.3416-8.75713 72.3416-9.31098L72.3416-33.9752L97.0167-33.9752Q97.5596-33.9752 97.9702-34.3912Q98.3807-34.8072 98.3807-35.2697Q98.3807-35.8127 97.9702-36.2689Q97.5596-36.7251 97.0167-36.7251L72.3416-36.7251L72.3416-61.4001Q72.3416-61.9431 71.9365-62.3026Q71.5314-62.662 70.8862-62.662Q70.5258-62.662 70.1044-62.2569Q69.683-61.8518 69.683-61.4001L69.683-36.7251L45.0079-36.7251Q44.3845-36.7251 44.0196-36.2689Q43.6547-35.8127 43.6547-35.2697Z"/>
  </g>
  <g id="Black-M" transform="matrix(1 0 0 1 2872.54 1126)">
   <path d="M31.6183 13.203L90.1012 13.203Q99.1693 13.203 104.214 8.16134Q109.259 3.11973 109.259-5.93791L109.259-64.4591Q109.259-73.5167 104.214-78.5585Q99.1693-83.6003 90.1012-83.6003L31.6183-83.6003Q22.5558-83.6003 17.5084-78.5583Q12.4609-73.5164 12.4609-64.4591L12.4609-5.93791Q12.4609 3.11912 17.5084 8.16104Q22.5558 13.203 31.6183 13.203ZM34.2552-4.14063Q32.0406-4.14063 30.9198-5.17025Q29.799-6.19988 29.799-8.60232L29.799-61.795Q29.799-64.249 30.9198-65.2528Q32.0406-66.2567 34.2552-66.2567L87.4644-66.2567Q89.7367-66.2567 90.8286-65.2528Q91.9206-64.249 91.9206-61.795L91.9206-8.60232Q91.9206-6.19988 90.8286-5.17025Q89.7367-4.14063 87.4644-4.14063ZM38.612-35.2606Q38.612-32.3979 40.467-30.46Q42.3221-28.522 45.1384-28.522L54.1184-28.522L54.1184-19.5365Q54.1184-16.7309 56.0536-14.8731Q57.9888-13.0153 60.8573-13.0153Q63.7194-13.0153 65.6629-14.8733Q67.6064-16.7312 67.6064-19.5365L67.6064-28.522L76.5863-28.522Q79.3972-28.522 81.2522-30.46Q83.1073-32.3979 83.1073-35.2606Q83.1073-38.1286 81.2522-40.0691Q79.3972-42.0097 76.5863-42.0097L67.6064-42.0097L67.6064-50.9896Q67.6064-53.8005 65.6629-55.6584Q63.7194-57.5164 60.8573-57.5164Q57.9888-57.5164 56.0536-55.6586Q54.1184-53.8008 54.1184-50.9896L54.1184-42.0097L45.1384-42.0097Q42.3224-42.0097 40.4672-40.0691Q38.612-38.1286 38.612-35.2606Z"/>
  </g>
  <g id="Heavy-M" transform="matrix(1 0 0 1 2576.65 1126)">
   <path d="M30.7128 12.3923L89.3692 12.3923Q98.107 12.3923 102.864 7.64094Q107.621 2.88957 107.621-5.81086L107.621-64.5834Q107.621-73.2838 102.864-78.0339Q98.107-82.7841 89.3692-82.7841L30.7128-82.7841Q21.9913-82.7841 17.2261-78.0352Q12.4609-73.2862 12.4609-64.5834L12.4609-5.81086Q12.4609 2.89446 17.2261 7.64338Q21.9913 12.3923 30.7128 12.3923ZM32.7568-2.72252Q30.2012-2.72252 28.8804-3.96168Q27.5595-5.20084 27.5595-7.93601L27.5595-62.4558Q27.5595-65.2183 28.8804-66.4438Q30.2012-67.6693 32.7568-67.6693L87.3253-67.6693Q89.9196-67.6693 91.221-66.4438Q92.5225-65.2183 92.5225-62.4558L92.5225-7.93601Q92.5225-5.20084 91.221-3.96168Q89.9196-2.72252 87.3253-2.72252ZM37.7056-35.2606Q37.7056-32.6526 39.3942-30.9067Q41.0827-29.1608 43.6821-29.1608L53.933-29.1608L53.933-18.8936Q53.933-16.3292 55.6708-14.6325Q57.4086-12.9358 60.0305-12.9358Q62.6434-12.9358 64.4055-14.6313Q66.1677-16.3267 66.1677-18.8936L66.1677-29.1608L76.4186-29.1608Q79.0017-29.1608 80.6903-30.9067Q82.3789-32.6526 82.3789-35.2606Q82.3789-37.8874 80.6903-39.6426Q79.0017-41.3979 76.4186-41.3979L66.1677-41.3979L66.1677-51.6488Q66.1677-54.2319 64.4055-55.9274Q62.6434-57.6229 60.0305-57.6229Q57.4086-57.6229 55.6708-55.9262Q53.933-54.2295 53.933-51.6488L53.933-41.3979L43.6821-41.3979Q41.0803-41.3979 39.3929-39.6426Q37.7056-37.8874 37.7056-35.2606Z"/>
  </g>
  <g id="Bold-M" transform="matrix(1 0 0 1 2280.85 1126)">
   <path d="M29.6999 11.4855L88.5504 11.4855Q96.9187 11.4855 101.354 7.05878Q105.789 2.6321 105.789-5.66875L105.789-64.7224Q105.789-73.0233 101.354-77.4472Q96.9187-81.8711 88.5504-81.8711L29.6999-81.8711Q21.3597-81.8711 16.9103-77.4499Q12.4609-73.0288 12.4609-64.7224L12.4609-5.66875Q12.4609 2.64314 16.9103 7.0643Q21.3597 11.4855 29.6999 11.4855ZM31.0806-1.13616Q28.1436-1.13616 26.5989-2.60972Q25.0543-4.08328 25.0543-7.19066L25.0543-63.195Q25.0543-66.3027 26.5989-67.7761Q28.1436-69.2495 31.0806-69.2495L87.1696-69.2495Q90.1241-69.2495 91.66-67.7761Q93.1959-66.3027 93.1959-63.195L93.1959-7.19066Q93.1959-4.08328 91.66-2.60972Q90.1241-1.13616 87.1696-1.13616ZM36.6917-35.2606Q36.6917-32.9374 38.194-31.4064Q39.6963-29.8754 42.053-29.8754L53.7257-29.8754L53.7257-18.1744Q53.7257-15.8797 55.2426-14.3633Q56.7595-12.8469 59.1055-12.8469Q61.4397-12.8469 62.999-14.3605Q64.5583-15.8742 64.5583-18.1744L64.5583-29.8754L76.231-29.8754Q78.5594-29.8754 80.0617-31.4064Q81.564-32.9374 81.564-35.2606Q81.564-37.6176 80.0617-39.1655Q78.5594-40.7134 76.231-40.7134L64.5583-40.7134L64.5583-52.3861Q64.5583-54.7146 62.999-56.2283Q61.4397-57.7419 59.1055-57.7419Q56.7595-57.7419 55.2426-56.2255Q53.7257-54.7091 53.7257-52.3861L53.7257-40.7134L42.053-40.7134Q39.6908-40.7134 38.1912-39.1655Q36.6917-37.6176 36.6917-35.2606Z"/>
  </g>
  <g id="Semibold-M" transform="matrix(1 0 0 1 1984.77 1126)">
   <path d="M29.0015 10.8603L87.9858 10.8603Q96.0995 10.8603 100.313 6.65745Q104.526 2.45461 104.526-5.57077L104.526-64.8183Q104.526-72.8436 100.313-77.0427Q96.0995-81.2417 87.9858-81.2417L29.0015-81.2417Q20.9244-81.2417 16.6926-77.0465Q12.4609-72.8513 12.4609-64.8183L12.4609-5.57077Q12.4609 2.46989 16.6926 6.66509Q20.9244 10.8603 29.0015 10.8603ZM29.925-0.0425279Q26.725-0.0425279 25.0262-1.67768Q23.3273-3.31284 23.3273-6.67681L23.3273-63.7046Q23.3273-67.0502 25.0262-68.6945Q26.725-70.3389 29.925-70.3389L87.0623-70.3389Q90.2652-70.3389 91.9626-68.6945Q93.6601-67.0502 93.6601-63.7046L93.6601-6.67681Q93.6601-3.31284 91.9626-1.67768Q90.2652-0.0425279 87.0623-0.0425279ZM35.9927-35.2606Q35.9927-33.1338 37.3666-31.7509Q38.7405-30.368 40.9299-30.368L53.5828-30.368L53.5828-17.6786Q53.5828-15.5699 54.9474-14.1777Q56.312-12.7856 58.4678-12.7856Q60.6099-12.7856 62.0293-14.1739Q63.4487-15.5623 63.4487-17.6786L63.4487-30.368L76.1016-30.368Q78.2545-30.368 79.6284-31.7509Q81.0023-33.1338 81.0023-35.2606Q81.0023-37.4317 79.6284-38.8366Q78.2545-40.2416 76.1016-40.2416L63.4487-40.2416L63.4487-52.8945Q63.4487-55.0473 62.0293-56.4357Q60.6099-57.824 58.4678-57.824Q56.312-57.824 54.9474-56.4318Q53.5828-55.0397 53.5828-52.8945L53.5828-40.2416L40.9299-40.2416Q38.7329-40.2416 37.3628-38.8366Q35.9927-37.4317 35.9927-35.2606Z"/>
  </g>
  <g id="Medium-M" transform="matrix(1 0 0 1 1688.54 1126)">
   <path d="M28.472 10.3863L87.5578 10.3863Q95.4783 10.3863 99.5236 6.35315Q103.569 2.32003 103.569-5.49648L103.569-64.8909Q103.569-72.7075 99.5236-76.736Q95.4783-80.7644 87.5578-80.7644L28.472-80.7644Q20.5942-80.7644 16.5276-76.7406Q12.4609-72.7167 12.4609-64.8909L12.4609-5.49648Q12.4609 2.33852 16.5276 6.36239Q20.5942 10.3863 28.472 10.3863ZM29.0488 0.786706Q25.6495 0.786706 23.8336-0.970977Q22.0177-2.72866 22.0177-6.28719L22.0177-64.091Q22.0177-67.617 23.8336-69.391Q25.6495-71.1649 29.0488-71.1649L86.981-71.1649Q90.3721-71.1649 92.1921-69.391Q94.0121-67.617 94.0121-64.091L94.0121-6.28719Q94.0121-2.72866 92.1921-0.970977Q90.3721 0.786706 86.981 0.786706ZM35.4627-35.2606Q35.4627-33.2827 36.7393-32.0121Q38.0158-30.7415 40.0783-30.7415L53.4744-30.7415L53.4744-17.3027Q53.4744-15.335 54.7236-14.037Q55.9728-12.7391 57.9843-12.7391Q59.9807-12.7391 61.2941-14.0324Q62.6075-15.3257 62.6075-17.3027L62.6075-30.7415L76.0035-30.7415Q78.0232-30.7415 79.2998-32.0121Q80.5764-33.2827 80.5764-35.2606Q80.5764-37.2906 79.2998-38.5872Q78.0232-39.8838 76.0035-39.8838L62.6075-39.8838L62.6075-53.2799Q62.6075-55.2996 61.2941-56.5929Q59.9807-57.8863 57.9843-57.8863Q55.9728-57.8863 54.7236-56.5883Q53.4744-55.2904 53.4744-53.2799L53.4744-39.8838L40.0783-39.8838Q38.0066-39.8838 36.7346-38.5872Q35.4627-37.2906 35.4627-35.2606Z"/>
  </g>
  <g id="Regular-M" transform="matrix(1 0 0 1 1392.45 1126)">
   <path d="M27.7814 9.76797L86.9995 9.76797Q94.6681 9.76797 98.494 5.95622Q102.32 2.14448 102.32-5.39959L102.32-64.9857Q102.32-72.5298 98.494-76.3359Q94.6681-80.142 86.9995-80.142L27.7814-80.142Q20.1637-80.142 16.3123-76.3416Q12.4609-72.5412 12.4609-64.9857L12.4609-5.39959Q12.4609 2.16717 16.3123 5.96757Q20.1637 9.76797 27.7814 9.76797ZM27.906 1.86832Q24.2465 1.86832 22.2781-0.0491846Q20.3096-1.96668 20.3096-5.77899L20.3096-64.595Q20.3096-68.3563 22.2781-70.2993Q24.2465-72.2423 27.906-72.2423L86.8749-72.2423Q90.5116-72.2423 92.4914-70.2993Q94.4712-68.3563 94.4712-64.595L94.4712-5.77899Q94.4712-1.96668 92.4914-0.0491846Q90.5116 1.86832 86.8749 1.86832ZM34.7714-35.2606Q34.7714-33.4769 35.921-32.3528Q37.0705-31.2287 38.9676-31.2287L53.333-31.2287L53.333-16.8123Q53.333-15.0285 54.4316-13.8535Q55.5302-12.6785 57.3536-12.6785Q59.1601-12.6785 60.3351-13.8478Q61.5101-15.0172 61.5101-16.8123L61.5101-31.2287L75.8756-31.2287Q77.7216-31.2287 78.8712-32.3528Q80.0208-33.4769 80.0208-35.2606Q80.0208-37.1067 78.8712-38.262Q77.7216-39.4172 75.8756-39.4172L61.5101-39.4172L61.5101-53.7826Q61.5101-55.6287 60.3351-56.7981Q59.1601-57.9674 57.3536-57.9674Q55.5302-57.9674 54.4316-56.7924Q53.333-55.6174 53.333-53.7826L53.333-39.4172L38.9676-39.4172Q37.0592-39.4172 35.9153-38.262Q34.7714-37.1067 34.7714-35.2606Z"/>
  </g>
  <g id="Light-M" transform="matrix(1 0 0 1 1096.49 1126)">
   <path d="M26.8614 9.03201L86.4291 9.03201Q93.601 9.03201 97.2153 5.40425Q100.83 1.7765 100.83-5.27079L100.83-65.0961Q100.83-72.1434 97.2153-75.7563Q93.601-79.3692 86.4291-79.3692L26.8614-79.3692Q19.7221-79.3692 16.0915-75.7712Q12.4609-72.1732 12.4609-65.0961L12.4609-5.27079Q12.4609 1.83599 16.0915 5.434Q19.7221 9.03201 26.8614 9.03201ZM26.986 2.97226Q22.8482 2.97226 20.6682 0.824768Q18.4881-1.32272 18.4881-5.55821L18.4881-64.779Q18.4881-68.9819 20.6682-71.1457Q22.8482-73.3094 26.986-73.3094L86.3045-73.3094Q90.3828-73.3094 92.5926-71.1457Q94.8024-68.9819 94.8024-64.779L94.8024-5.55821Q94.8024-1.32272 92.5926 0.824768Q90.3828 2.97226 86.3045 2.97226ZM34.477-35.2606Q34.477-33.9185 35.369-33.0428Q36.261-32.1671 37.698-32.1671L53.5354-32.1671L53.5354-16.2971Q53.5354-14.9549 54.3948-14.0467Q55.2542-13.1384 56.5992-13.1384Q58.0009-13.1384 58.9092-14.0318Q59.8174-14.9252 59.8174-16.2971L59.8174-32.1671L75.6548-32.1671Q77.0593-32.1671 77.9513-33.0428Q78.8432-33.9185 78.8432-35.2606Q78.8432-36.6651 77.9513-37.572Q77.0593-38.4788 75.6548-38.4788L59.8174-38.4788L59.8174-54.3162Q59.8174-55.7207 58.9092-56.6141Q58.0009-57.5075 56.5992-57.5075Q55.2542-57.5075 54.3948-56.5992Q53.5354-55.6909 53.5354-54.3162L53.5354-38.4788L37.698-38.4788Q36.2312-38.4788 35.3541-37.572Q34.477-36.6651 34.477-35.2606Z"/>
  </g>
  <g id="Thin-M" transform="matrix(1 0 0 1 800.76 1126)">
   <path d="M25.6447 8.05864L85.6747 8.05864Q92.1896 8.05864 95.5241 4.67423Q98.8585 1.28982 98.8585-5.10045L98.8585-65.2421Q98.8585-71.6324 95.5241-74.9898Q92.1896-78.3472 85.6747-78.3472L25.6447-78.3472Q19.1381-78.3472 15.7995-75.0168Q12.4609-71.6865 12.4609-65.2421L12.4609-5.10045Q12.4609 1.39797 15.7995 4.72831Q19.1381 8.05864 25.6447 8.05864ZM25.7693 4.43231Q20.9988 4.43231 18.5389 1.98064Q16.079-0.471023 16.079-5.2662L16.079-65.0223Q16.079-69.8093 18.5389-72.2651Q20.9988-74.7208 25.7693-74.7208L85.5501-74.7208Q90.2125-74.7208 92.7264-72.2651Q95.2404-69.8093 95.2404-65.0223L95.2404-5.2662Q95.2404-0.471023 92.7264 1.98064Q90.2125 4.43231 85.5501 4.43231ZM34.0877-35.2606Q34.0877-34.5025 34.639-33.9553Q35.1903-33.4081 36.019-33.4081L53.8031-33.4081L53.8031-15.6158Q53.8031-14.8576 54.3461-14.3022Q54.8892-13.7468 55.6015-13.7468Q56.4679-13.7468 57.0233-14.2752Q57.5787-14.8035 57.5787-15.6158L57.5787-33.4081L75.3628-33.4081Q76.1833-33.4081 76.7346-33.9553Q77.2859-34.5025 77.2859-35.2606Q77.2859-36.0811 76.7346-36.6595Q76.1833-37.2378 75.3628-37.2378L57.5787-37.2378L57.5787-55.0219Q57.5787-55.8424 57.0233-56.3707Q56.4679-56.8991 55.6015-56.8991Q54.8892-56.8991 54.3461-56.3437Q53.8031-55.7883 53.8031-55.0219L53.8031-37.2378L36.019-37.2378Q35.1362-37.2378 34.6119-36.6595Q34.0877-36.0811 34.0877-35.2606Z"/>
  </g>
  <g id="Ultralight-M" transform="matrix(1 0 0 1 504.553 1126)">
   <path d="M25.0215 7.56009L85.2884 7.56009Q91.4667 7.56009 94.6578 4.30031Q97.8489 1.04054 97.8489-5.01321L97.8489-65.3169Q97.8489-71.3707 94.6578-74.5972Q91.4667-77.8237 85.2884-77.8237L25.0215-77.8237Q18.8389-77.8237 15.6499-74.6305Q12.4609-71.4372 12.4609-65.3169L12.4609-5.01321Q12.4609 1.17363 15.6499 4.36686Q18.8389 7.56009 25.0215 7.56009ZM25.1461 5.18014Q20.0516 5.18014 17.4483 2.57267Q14.8451-0.034789 14.8451-5.11663L14.8451-65.147Q14.8451-70.233 17.4483-72.8384Q20.0516-75.4437 25.1461-75.4437L85.1638-75.4437Q90.1252-75.4437 92.795-72.8384Q95.4648-70.233 95.4648-65.147L95.4648-5.11663Q95.4648-0.034789 92.795 2.57267Q90.1252 5.18014 85.1638 5.18014ZM33.8883-35.2606Q33.8883-34.8016 34.2651-34.4227Q34.6419-34.0438 35.159-34.0438L53.9402-34.0438L53.9402-15.2668Q53.9402-14.8078 54.3212-14.4331Q54.7023-14.0584 55.0905-14.0584Q55.6826-14.0584 56.0573-14.3998Q56.432-14.7412 56.432-15.2668L56.432-34.0438L75.2132-34.0438Q75.7346-34.0438 76.1114-34.4227Q76.4882-34.8016 76.4882-35.2606Q76.4882-35.782 76.1114-36.1921Q75.7346-36.6021 75.2132-36.6021L56.432-36.6021L56.432-55.3833Q56.432-55.9047 56.0573-56.2461Q55.6826-56.5875 55.0905-56.5875Q54.7023-56.5875 54.3212-56.2128Q53.9402-55.8381 53.9402-55.3833L53.9402-36.6021L35.159-36.6021Q34.5753-36.6021 34.2318-36.1921Q33.8883-35.782 33.8883-35.2606Z"/>
  </g>
  <g id="Black-S" transform="matrix(1 0 0 1 2885.5 696)">
   <path d="M25 2.92969L70.8008 2.92969Q77.9785 2.92969 82.0068-1.09863Q86.0352-5.12695 86.0352-12.3047L86.0352-58.1055Q86.0352-65.2832 82.0068-69.3115Q77.9785-73.3398 70.8008-73.3398L25-73.3398Q17.8223-73.3398 13.7939-69.3115Q9.76562-65.2832 9.76562-58.1055L9.76562-12.3047Q9.76562-5.12695 13.7939-1.09863Q17.8223 2.92969 25 2.92969ZM27.2461-11.2305Q25.5859-11.2305 24.7559-11.9873Q23.9258-12.7441 23.9258-14.5508L23.9258-55.8594Q23.9258-57.7148 24.7559-58.4473Q25.5859-59.1797 27.2461-59.1797L68.5547-59.1797Q70.2637-59.1797 71.0693-58.4473Q71.875-57.7148 71.875-55.8594L71.875-14.5508Q71.875-12.7441 71.0693-11.9873Q70.2637-11.2305 68.5547-11.2305ZM30.5176-35.2539Q30.5176-32.959 32.0068-31.3965Q33.4961-29.834 35.7422-29.834L42.4805-29.834L42.4805-23.0957Q42.4805-20.8496 44.043-19.3604Q45.6055-17.8711 47.9004-17.8711Q50.1953-17.8711 51.7578-19.3604Q53.3203-20.8496 53.3203-23.0957L53.3203-29.834L60.0586-29.834Q62.3047-29.834 63.7939-31.3965Q65.2832-32.959 65.2832-35.2539Q65.2832-37.5488 63.7939-39.1113Q62.3047-40.6738 60.0586-40.6738L53.3203-40.6738L53.3203-47.4121Q53.3203-49.6582 51.7578-51.1475Q50.1953-52.6367 47.9004-52.6367Q45.6055-52.6367 44.043-51.1475Q42.4805-49.6582 42.4805-47.4121L42.4805-40.6738L35.7422-40.6738Q33.4961-40.6738 32.0068-39.1113Q30.5176-37.5488 30.5176-35.2539Z"/>
  </g>
  <g id="Heavy-S" transform="matrix(1 0 0 1 2589.39 696)">
   <path d="M24.3431 2.33042L70.2476 2.33042Q77.2064 2.33042 81.0157-1.47318Q84.8251-5.27677 84.8251-12.2125L84.8251-58.1977Q84.8251-65.1334 81.0157-68.937Q77.2064-72.7406 70.2476-72.7406L24.3431-72.7406Q17.3959-72.7406 13.5807-68.937Q9.76562-65.1334 9.76562-58.1977L9.76562-12.2125Q9.76562-5.27677 13.5807-1.47318Q17.3959 2.33042 24.3431 2.33042ZM26.0821-10.1587Q24.1915-10.1587 23.2173-11.0653Q22.2432-11.972 22.2432-14.0091L22.2432-56.401Q22.2432-58.4639 23.2173-59.3577Q24.1915-60.2515 26.0821-60.2515L68.5086-60.2515Q70.4365-60.2515 71.392-59.3577Q72.3475-58.4639 72.3475-56.401L72.3475-14.0091Q72.3475-11.972 71.392-11.0653Q70.4365-10.1587 68.5086-10.1587ZM29.78-35.2539Q29.78-33.1203 31.1598-31.6904Q32.5396-30.2604 34.6589-30.2604L42.2961-30.2604L42.2961-22.6117Q42.2961-20.5154 43.7203-19.1299Q45.1445-17.7443 47.2896-17.7443Q49.4232-17.7443 50.8647-19.1299Q52.3062-20.5154 52.3062-22.6117L52.3062-30.2604L59.9433-30.2604Q62.0511-30.2604 63.4309-31.6904Q64.8107-33.1203 64.8107-35.2539Q64.8107-37.399 63.4309-38.8347Q62.0511-40.2705 59.9433-40.2705L52.3062-40.2705L52.3062-47.9077Q52.3062-50.0155 50.8647-51.401Q49.4232-52.7865 47.2896-52.7865Q45.1445-52.7865 43.7203-51.401Q42.2961-50.0155 42.2961-47.9077L42.2961-40.2705L34.6589-40.2705Q32.5396-40.2705 31.1598-38.8347Q29.78-37.399 29.78-35.2539Z"/>
  </g>
  <g id="Bold-S" transform="matrix(1 0 0 1 2293.36 696)">
   <path d="M23.6084 1.66016L69.6289 1.66016Q76.3428 1.66016 79.9072-1.89209Q83.4717-5.44434 83.4717-12.1094L83.4717-58.3008Q83.4717-64.9658 79.9072-68.5181Q76.3428-72.0703 69.6289-72.0703L23.6084-72.0703Q16.9189-72.0703 13.3423-68.5181Q9.76562-64.9658 9.76562-58.3008L9.76562-12.1094Q9.76562-5.44434 13.3423-1.89209Q16.9189 1.66016 23.6084 1.66016ZM24.7803-8.95996Q22.6318-8.95996 21.4966-10.0342Q20.3613-11.1084 20.3613-13.4033L20.3613-57.0068Q20.3613-59.3018 21.4966-60.376Q22.6318-61.4502 24.7803-61.4502L68.457-61.4502Q70.6299-61.4502 71.7529-60.376Q72.876-59.3018 72.876-57.0068L72.876-13.4033Q72.876-11.1084 71.7529-10.0342Q70.6299-8.95996 68.457-8.95996ZM28.9551-35.2539Q28.9551-33.3008 30.2124-32.019Q31.4697-30.7373 33.4473-30.7373L42.0898-30.7373L42.0898-22.0703Q42.0898-20.1416 43.3594-18.8721Q44.6289-17.6025 46.6064-17.6025Q48.5596-17.6025 49.8657-18.8721Q51.1719-20.1416 51.1719-22.0703L51.1719-30.7373L59.8145-30.7373Q61.7676-30.7373 63.0249-32.019Q64.2822-33.3008 64.2822-35.2539Q64.2822-37.2314 63.0249-38.5254Q61.7676-39.8193 59.8145-39.8193L51.1719-39.8193L51.1719-48.4619Q51.1719-50.415 49.8657-51.6846Q48.5596-52.9541 46.6064-52.9541Q44.6289-52.9541 43.3594-51.6846Q42.0898-50.415 42.0898-48.4619L42.0898-39.8193L33.4473-39.8193Q31.4697-39.8193 30.2124-38.5254Q28.9551-37.2314 28.9551-35.2539Z"/>
  </g>
  <g id="Semibold-S" transform="matrix(1 0 0 1 1997.11 696)">
   <path d="M23.1019 1.19805L69.2023 1.19805Q75.7474 1.19805 79.143-2.18091Q82.5386-5.55986 82.5386-12.0383L82.5386-58.3719Q82.5386-64.8503 79.143-68.2292Q75.7474-71.6082 69.2023-71.6082L23.1019-71.6082Q16.5901-71.6082 13.1779-68.2292Q9.76562-64.8503 9.76562-58.3719L9.76562-12.0383Q9.76562-5.55986 13.1779-2.18091Q16.5901 1.19805 23.1019 1.19805ZM23.8827-8.1335Q21.5565-8.1335 20.3102-9.32324Q19.0639-10.513 19.0639-12.9856L19.0639-57.4245Q19.0639-59.8794 20.3102-61.078Q21.5565-62.2767 23.8827-62.2767L68.4215-62.2767Q70.7632-62.2767 72.0018-61.078Q73.2403-59.8794 73.2403-57.4245L73.2403-12.9856Q73.2403-10.513 72.0018-9.32324Q70.7632-8.1335 68.4215-8.1335ZM28.3863-35.2539Q28.3863-33.4252 29.5592-32.2457Q30.7321-31.0661 32.6119-31.0661L41.9477-31.0661L41.9477-21.6971Q41.9477-19.8839 43.1105-18.6943Q44.2734-17.5048 46.1354-17.5048Q47.9642-17.5048 49.177-18.6943Q50.3898-19.8839 50.3898-21.6971L50.3898-31.0661L59.7256-31.0661Q61.5721-31.0661 62.745-32.2457Q63.9179-33.4252 63.9179-35.2539Q63.9179-37.1159 62.745-38.3121Q61.5721-39.5083 59.7256-39.5083L50.3898-39.5083L50.3898-48.844Q50.3898-50.6905 49.177-51.8801Q47.9642-53.0696 46.1354-53.0696Q44.2734-53.0696 43.1105-51.8801Q41.9477-50.6905 41.9477-48.844L41.9477-39.5083L32.6119-39.5083Q30.7321-39.5083 29.5592-38.3121Q28.3863-37.1159 28.3863-35.2539Z"/>
  </g>
  <g id="Medium-S" transform="matrix(1 0 0 1 1700.76 696)">
   <path d="M22.7178 0.847656L68.8789 0.847656Q75.2959 0.847656 78.5635-2.3999Q81.8311-5.64746 81.8311-11.9844L81.8311-58.4258Q81.8311-64.7627 78.5635-68.0103Q75.2959-71.2578 68.8789-71.2578L22.7178-71.2578Q16.3408-71.2578 13.0532-68.0103Q9.76562-64.7627 9.76562-58.4258L9.76562-11.9844Q9.76562-5.64746 13.0532-2.3999Q16.3408 0.847656 22.7178 0.847656ZM23.2021-7.50684Q20.7412-7.50684 19.4106-8.78418Q18.0801-10.0615 18.0801-12.6689L18.0801-57.7412Q18.0801-60.3174 19.4106-61.6104Q20.7412-62.9033 23.2021-62.9033L68.3945-62.9033Q70.8643-62.9033 72.1904-61.6104Q73.5166-60.3174 73.5166-57.7412L73.5166-12.6689Q73.5166-10.0615 72.1904-8.78418Q70.8643-7.50684 68.3945-7.50684ZM27.9551-35.2539Q27.9551-33.5195 29.064-32.4175Q30.1729-31.3154 31.9785-31.3154L41.8398-31.3154L41.8398-21.4141Q41.8398-19.6885 42.9219-18.5596Q44.0039-17.4307 45.7783-17.4307Q47.5127-17.4307 48.6548-18.5596Q49.7969-19.6885 49.7969-21.4141L49.7969-31.3154L59.6582-31.3154Q61.4238-31.3154 62.5327-32.4175Q63.6416-33.5195 63.6416-35.2539Q63.6416-37.0283 62.5327-38.1504Q61.4238-39.2725 59.6582-39.2725L49.7969-39.2725L49.7969-49.1338Q49.7969-50.8994 48.6548-52.0283Q47.5127-53.1572 45.7783-53.1572Q44.0039-53.1572 42.9219-52.0283Q41.8398-50.8994 41.8398-49.1338L41.8398-39.2725L31.9785-39.2725Q30.1729-39.2725 29.064-38.1504Q27.9551-37.0283 27.9551-35.2539Z"/>
  </g>
  <g id="Regular-S" transform="matrix(1 0 0 1 1404.51 696)">
   <path d="M22.2168 0.390625L68.457 0.390625Q74.707 0.390625 77.8076-2.68555Q80.9082-5.76172 80.9082-11.9141L80.9082-58.4961Q80.9082-64.6484 77.8076-67.7246Q74.707-70.8008 68.457-70.8008L22.2168-70.8008Q16.0156-70.8008 12.8906-67.7246Q9.76562-64.6484 9.76562-58.4961L9.76562-11.9141Q9.76562-5.76172 12.8906-2.68555Q16.0156 0.390625 22.2168 0.390625ZM22.3145-6.68945Q19.6777-6.68945 18.2373-8.08105Q16.7969-9.47266 16.7969-12.2559L16.7969-58.1543Q16.7969-60.8887 18.2373-62.3047Q19.6777-63.7207 22.3145-63.7207L68.3594-63.7207Q70.9961-63.7207 72.4365-62.3047Q73.877-60.8887 73.877-58.1543L73.877-12.2559Q73.877-9.47266 72.4365-8.08105Q70.9961-6.68945 68.3594-6.68945ZM27.3926-35.2539Q27.3926-33.6426 28.418-32.6416Q29.4434-31.6406 31.1523-31.6406L41.6992-31.6406L41.6992-21.0449Q41.6992-19.4336 42.6758-18.3838Q43.6523-17.334 45.3125-17.334Q46.9238-17.334 47.9736-18.3838Q49.0234-19.4336 49.0234-21.0449L49.0234-31.6406L59.5703-31.6406Q61.2305-31.6406 62.2559-32.6416Q63.2812-33.6426 63.2812-35.2539Q63.2812-36.9141 62.2559-37.9395Q61.2305-38.9648 59.5703-38.9648L49.0234-38.9648L49.0234-49.5117Q49.0234-51.1719 47.9736-52.2217Q46.9238-53.2715 45.3125-53.2715Q43.6523-53.2715 42.6758-52.2217Q41.6992-51.1719 41.6992-49.5117L41.6992-38.9648L31.1523-38.9648Q29.4434-38.9648 28.418-37.9395Q27.3926-36.9141 27.3926-35.2539Z"/>
  </g>
  <g id="Light-S" transform="matrix(1 0 0 1 1108.45 696)">
   <path d="M21.403-0.260417L67.9525-0.260417Q73.763-0.260417 76.6764-3.17383Q79.5898-6.08724 79.5898-11.8001L79.5898-58.5938Q79.5898-64.3066 76.6764-67.2119Q73.763-70.1172 67.9525-70.1172L21.403-70.1172Q15.625-70.1172 12.6953-67.2201Q9.76562-64.3229 9.76562-58.5938L9.76562-11.8001Q9.76562-6.05469 12.6953-3.15755Q15.625-0.260417 21.403-0.260417ZM21.5007-5.71289Q18.4408-5.71289 16.8132-7.30794Q15.1855-8.90299 15.1855-12.0605L15.1855-58.3171Q15.1855-61.4421 16.8132-63.0534Q18.4408-64.6647 21.5007-64.6647L67.8548-64.6647Q70.8822-64.6647 72.526-63.0534Q74.1699-61.4421 74.1699-58.3171L74.1699-12.0605Q74.1699-8.90299 72.526-7.30794Q70.8822-5.71289 67.8548-5.71289ZM27.1322-35.2539Q27.1322-34.0332 27.9297-33.252Q28.7272-32.4707 30.0293-32.4707L41.8783-32.4707L41.8783-20.5892Q41.8783-19.3685 42.6432-18.5547Q43.4082-17.7409 44.6452-17.7409Q45.8984-17.7409 46.7122-18.5465Q47.526-19.3522 47.526-20.5892L47.526-32.4707L59.375-32.4707Q60.6445-32.4707 61.4421-33.252Q62.2396-34.0332 62.2396-35.2539Q62.2396-36.5234 61.4421-37.3291Q60.6445-38.1348 59.375-38.1348L47.526-38.1348L47.526-49.9837Q47.526-51.2533 46.7122-52.0589Q45.8984-52.8646 44.6452-52.8646Q43.4082-52.8646 42.6432-52.0508Q41.8783-51.237 41.8783-49.9837L41.8783-38.1348L30.0293-38.1348Q28.7109-38.1348 27.9215-37.3291Q27.1322-36.5234 27.1322-35.2539Z"/>
  </g>
  <g id="Thin-S" transform="matrix(1 0 0 1 812.615 696)">
   <path d="M20.3267-1.12147L67.2852-1.12147Q72.5145-1.12147 75.1803-3.81962Q77.8462-6.51777 77.8462-11.6494L77.8462-58.7229Q77.8462-63.8546 75.1803-66.5338Q72.5145-69.2131 67.2852-69.2131L20.3267-69.2131Q15.1084-69.2131 12.437-66.5527Q9.76562-63.8924 9.76562-58.7229L9.76562-11.6494Q9.76562-6.44216 12.437-3.78182Q15.1084-1.12147 20.3267-1.12147ZM20.4243-4.42131Q16.8048-4.42131 14.9296-6.28544Q13.0544-8.14957 13.0544-11.8022L13.0544-58.5323Q13.0544-62.174 14.9296-64.0436Q16.8048-65.9132 20.4243-65.9132L67.1875-65.9132Q70.7315-65.9132 72.6444-64.0436Q74.5574-62.174 74.5574-58.5323L74.5574-11.8022Q74.5574-8.14957 72.6444-6.28544Q70.7315-4.42131 67.1875-4.42131ZM26.7877-35.2539Q26.7877-34.5498 27.2839-34.0592Q27.7801-33.5685 28.544-33.5685L42.115-33.5685L42.115-19.9865Q42.115-19.2824 42.6002-18.7807Q43.0853-18.279 43.7626-18.279Q44.5423-18.279 45.0439-18.7618Q45.5456-19.2446 45.5456-19.9865L45.5456-33.5685L59.1167-33.5685Q59.8696-33.5685 60.3657-34.0592Q60.8619-34.5498 60.8619-35.2539Q60.8619-36.0068 60.3657-36.5219Q59.8696-37.0369 59.1167-37.0369L45.5456-37.0369L45.5456-50.608Q45.5456-51.3609 45.0439-51.8437Q44.5423-52.3264 43.7626-52.3264Q43.0853-52.3264 42.6002-51.8248Q42.115-51.3231 42.115-50.608L42.115-37.0369L28.544-37.0369Q27.7423-37.0369 27.265-36.5219Q26.7877-36.0068 26.7877-35.2539Z"/>
  </g>
  <g id="Ultralight-S" transform="matrix(1 0 0 1 516.35 696)">
   <path d="M19.7754-1.5625L66.9434-1.5625Q71.875-1.5625 74.4141-4.15039Q76.9531-6.73828 76.9531-11.5723L76.9531-58.7891Q76.9531-63.623 74.4141-66.1865Q71.875-68.75 66.9434-68.75L19.7754-68.75Q14.8438-68.75 12.3047-66.2109Q9.76562-63.6719 9.76562-58.7891L9.76562-11.5723Q9.76562-6.64062 12.3047-4.10156Q14.8438-1.5625 19.7754-1.5625ZM19.873-3.75977Q15.9668-3.75977 13.9648-5.76172Q11.9629-7.76367 11.9629-11.6699L11.9629-58.6426Q11.9629-62.5488 13.9648-64.5508Q15.9668-66.5527 19.873-66.5527L66.8457-66.5527Q70.6543-66.5527 72.7051-64.5508Q74.7559-62.5488 74.7559-58.6426L74.7559-11.6699Q74.7559-7.76367 72.7051-5.76172Q70.6543-3.75977 66.8457-3.75977ZM26.6113-35.2539Q26.6113-34.8145 26.9531-34.4727Q27.2949-34.1309 27.7832-34.1309L42.2363-34.1309L42.2363-19.6777Q42.2363-19.2383 42.5781-18.8965Q42.9199-18.5547 43.3105-18.5547Q43.8477-18.5547 44.1895-18.8721Q44.5312-19.1895 44.5312-19.6777L44.5312-34.1309L58.9844-34.1309Q59.4727-34.1309 59.8145-34.4727Q60.1562-34.8145 60.1562-35.2539Q60.1562-35.7422 59.8145-36.1084Q59.4727-36.4746 58.9844-36.4746L44.5312-36.4746L44.5312-50.9277Q44.5312-51.416 44.1895-51.7334Q43.8477-52.0508 43.3105-52.0508Q42.9199-52.0508 42.5781-51.709Q42.2363-51.3672 42.2363-50.9277L42.2363-36.4746L27.7832-36.4746Q27.2461-36.4746 26.9287-36.1084Q26.6113-35.7422 26.6113-35.2539Z"/>
  </g>
 </g>
</svg>
