<?xml version="1.0" encoding="UTF-8"?>
<!--Generator: Apple Native CoreSVG 149-->
<!DOCTYPE svg
PUBLIC "-//W3C//DTD SVG 1.1//EN"
       "http://www.w3.org/Graphics/SVG/1.1/DTD/svg11.dtd">
<svg version="1.1" xmlns="http://www.w3.org/2000/svg" xmlns:xlink="http://www.w3.org/1999/xlink" width="3300" height="2200">
 <!--glyph: "uni100660.medium", point size: 100.000000, font version: "Version 16.0d18e1", template writer version: "8"-->
 <g id="Notes">
  <rect height="2200" id="artboard" style="fill:white;opacity:1" width="3300" x="0" y="0"/>
  <line id="" style="fill:none;stroke:black;opacity:1;stroke-width:0.5;" x1="263" x2="3036" y1="292" y2="292"/>
  <text style="stroke:none;fill:black;font-family:-apple-system,&quot;SF Pro Display&quot;,&quot;SF Pro Text&quot;,Helvetica,sans-serif;font-weight:bold;" transform="matrix(1 0 0 1 263 322)">Weight/Scale Variations</text>
  <text style="stroke:none;fill:black;font-family:-apple-system,&quot;SF Pro Display&quot;,&quot;SF Pro Text&quot;,Helvetica,sans-serif;text-anchor:middle;" transform="matrix(1 0 0 1 559.711 322)">Ultralight</text>
  <text style="stroke:none;fill:black;font-family:-apple-system,&quot;SF Pro Display&quot;,&quot;SF Pro Text&quot;,Helvetica,sans-serif;text-anchor:middle;" transform="matrix(1 0 0 1 856.422 322)">Thin</text>
  <text style="stroke:none;fill:black;font-family:-apple-system,&quot;SF Pro Display&quot;,&quot;SF Pro Text&quot;,Helvetica,sans-serif;text-anchor:middle;" transform="matrix(1 0 0 1 1153.13 322)">Light</text>
  <text style="stroke:none;fill:black;font-family:-apple-system,&quot;SF Pro Display&quot;,&quot;SF Pro Text&quot;,Helvetica,sans-serif;text-anchor:middle;" transform="matrix(1 0 0 1 1449.84 322)">Regular</text>
  <text style="stroke:none;fill:black;font-family:-apple-system,&quot;SF Pro Display&quot;,&quot;SF Pro Text&quot;,Helvetica,sans-serif;text-anchor:middle;" transform="matrix(1 0 0 1 1746.56 322)">Medium</text>
  <text style="stroke:none;fill:black;font-family:-apple-system,&quot;SF Pro Display&quot;,&quot;SF Pro Text&quot;,Helvetica,sans-serif;text-anchor:middle;" transform="matrix(1 0 0 1 2043.27 322)">Semibold</text>
  <text style="stroke:none;fill:black;font-family:-apple-system,&quot;SF Pro Display&quot;,&quot;SF Pro Text&quot;,Helvetica,sans-serif;text-anchor:middle;" transform="matrix(1 0 0 1 2339.98 322)">Bold</text>
  <text style="stroke:none;fill:black;font-family:-apple-system,&quot;SF Pro Display&quot;,&quot;SF Pro Text&quot;,Helvetica,sans-serif;text-anchor:middle;" transform="matrix(1 0 0 1 2636.69 322)">Heavy</text>
  <text style="stroke:none;fill:black;font-family:-apple-system,&quot;SF Pro Display&quot;,&quot;SF Pro Text&quot;,Helvetica,sans-serif;text-anchor:middle;" transform="matrix(1 0 0 1 2933.4 322)">Black</text>
  <line id="" style="fill:none;stroke:black;opacity:1;stroke-width:0.5;" x1="263" x2="3036" y1="1903" y2="1903"/>
  <g id="" transform="matrix(1 0 0 1 263 1933)">
   <path d="M9.24805 0.830078C13.5547 0.830078 17.1387-2.74414 17.1387-7.05078C17.1387-11.3574 13.5449-14.9316 9.23828-14.9316C4.94141-14.9316 1.36719-11.3574 1.36719-7.05078C1.36719-2.74414 4.95117 0.830078 9.24805 0.830078ZM9.24805-0.654297C5.70312-0.654297 2.87109-3.49609 2.87109-7.05078C2.87109-10.6055 5.69336-13.4473 9.23828-13.4473C12.793-13.4473 15.6348-10.6055 15.6445-7.05078C15.6543-3.49609 12.8027-0.654297 9.24805-0.654297ZM6.39648-6.31836L8.50586-6.31836L8.50586-4.19922C8.50586-3.75977 8.79883-3.45703 9.22852-3.45703C9.67773-3.45703 9.9707-3.75977 9.9707-4.19922L9.9707-6.31836L12.0996-6.31836C12.5391-6.31836 12.8418-6.61133 12.8418-7.04102C12.8418-7.48047 12.5391-7.7832 12.0996-7.7832L9.9707-7.7832L9.9707-9.89258C9.9707-10.3418 9.67773-10.6445 9.22852-10.6445C8.79883-10.6445 8.50586-10.3418 8.50586-9.89258L8.50586-7.7832L6.39648-7.7832C5.94727-7.7832 5.64453-7.48047 5.64453-7.04102C5.64453-6.61133 5.94727-6.31836 6.39648-6.31836Z"/>
  </g>
  <g id="" transform="matrix(1 0 0 1 281.506 1933)">
   <path d="M11.709 2.91016C17.1582 2.91016 21.6699-1.61133 21.6699-7.05078C21.6699-12.5 17.1484-17.0117 11.6992-17.0117C6.25977-17.0117 1.74805-12.5 1.74805-7.05078C1.74805-1.61133 6.26953 2.91016 11.709 2.91016ZM11.709 1.25C7.09961 1.25 3.41797-2.44141 3.41797-7.05078C3.41797-11.6602 7.08984-15.3516 11.6992-15.3516C16.3086-15.3516 20-11.6602 20.0098-7.05078C20.0195-2.44141 16.3184 1.25 11.709 1.25ZM7.98828-6.23047L10.8789-6.23047L10.8789-3.32031C10.8789-2.83203 11.2109-2.5 11.6895-2.5C12.1777-2.5 12.5195-2.83203 12.5195-3.32031L12.5195-6.23047L15.4297-6.23047C15.918-6.23047 16.25-6.5625 16.25-7.04102C16.25-7.5293 15.918-7.87109 15.4297-7.87109L12.5195-7.87109L12.5195-10.7617C12.5195-11.2695 12.1777-11.6016 11.6895-11.6016C11.2109-11.6016 10.8789-11.2598 10.8789-10.7617L10.8789-7.87109L7.98828-7.87109C7.48047-7.87109 7.14844-7.5293 7.14844-7.04102C7.14844-6.5625 7.49023-6.23047 7.98828-6.23047Z"/>
  </g>
  <g id="" transform="matrix(1 0 0 1 304.924 1933)">
   <path d="M14.9707 5.66406C21.9336 5.66406 27.6953-0.0976562 27.6953-7.05078C27.6953-14.0137 21.9238-19.7754 14.9609-19.7754C8.00781-19.7754 2.25586-14.0137 2.25586-7.05078C2.25586-0.0976562 8.01758 5.66406 14.9707 5.66406ZM14.9707 3.84766C8.93555 3.84766 4.08203-1.01562 4.08203-7.05078C4.08203-13.0957 8.92578-17.9492 14.9609-17.9492C21.0059-17.9492 25.8594-13.0957 25.8691-7.05078C25.8789-1.01562 21.0156 3.84766 14.9707 3.84766ZM10.0586-6.14258L14.0625-6.14258L14.0625-2.12891C14.0625-1.5918 14.4336-1.2207 14.9512-1.2207C15.4883-1.2207 15.8594-1.5918 15.8594-2.12891L15.8594-6.14258L19.8828-6.14258C20.4102-6.14258 20.791-6.51367 20.791-7.03125C20.791-7.56836 20.4199-7.94922 19.8828-7.94922L15.8594-7.94922L15.8594-11.9531C15.8594-12.5098 15.4883-12.8809 14.9512-12.8809C14.4336-12.8809 14.0625-12.5 14.0625-11.9531L14.0625-7.94922L10.0586-7.94922C9.50195-7.94922 9.13086-7.56836 9.13086-7.03125C9.13086-6.51367 9.51172-6.14258 10.0586-6.14258Z"/>
  </g>
  <text style="stroke:none;fill:black;font-family:-apple-system,&quot;SF Pro Display&quot;,&quot;SF Pro Text&quot;,Helvetica,sans-serif;font-weight:bold;" transform="matrix(1 0 0 1 263 1953)">Design Variations</text>
  <text style="stroke:none;fill:black;font-family:-apple-system,&quot;SF Pro Display&quot;,&quot;SF Pro Text&quot;,Helvetica,sans-serif;" transform="matrix(1 0 0 1 263 1971)">Symbols are supported in up to nine weights and three scales.</text>
  <text style="stroke:none;fill:black;font-family:-apple-system,&quot;SF Pro Display&quot;,&quot;SF Pro Text&quot;,Helvetica,sans-serif;" transform="matrix(1 0 0 1 263 1989)">For optimal layout with text and other symbols, vertically align</text>
  <text style="stroke:none;fill:black;font-family:-apple-system,&quot;SF Pro Display&quot;,&quot;SF Pro Text&quot;,Helvetica,sans-serif;" transform="matrix(1 0 0 1 263 2007)">symbols with the adjacent text.</text>
  <line id="" style="fill:none;stroke:#00AEEF;stroke-width:0.5;opacity:1.0;" x1="776" x2="776" y1="1919" y2="1933"/>
  <g id="" transform="matrix(1 0 0 1 776 1933)">
   <path d="M3.31055 0.126953C3.82812 0.126953 4.08203-0.0683594 4.26758-0.605469L5.52734-4.0625L11.2891-4.0625L12.5488-0.605469C12.7344-0.0683594 12.9883 0.126953 13.4961 0.126953C14.0137 0.126953 14.3457-0.185547 14.3457-0.673828C14.3457-0.839844 14.3164-0.986328 14.2383-1.20117L9.6582-13.3887C9.43359-13.9941 9.0332-14.2871 8.4082-14.2871C7.80273-14.2871 7.39258-13.9941 7.17773-13.3984L2.59766-1.19141C2.51953-0.976562 2.49023-0.830078 2.49023-0.664062C2.49023-0.175781 2.80273 0.126953 3.31055 0.126953ZM6.00586-5.53711L8.37891-12.1094L8.42773-12.1094L10.8008-5.53711Z"/>
  </g>
  <line id="" style="fill:none;stroke:#00AEEF;stroke-width:0.5;opacity:1.0;" x1="792.836" x2="792.836" y1="1919" y2="1933"/>
  <text style="stroke:none;fill:black;font-family:-apple-system,&quot;SF Pro Display&quot;,&quot;SF Pro Text&quot;,Helvetica,sans-serif;font-weight:bold;" transform="matrix(1 0 0 1 776 1953)">Margins</text>
  <text style="stroke:none;fill:black;font-family:-apple-system,&quot;SF Pro Display&quot;,&quot;SF Pro Text&quot;,Helvetica,sans-serif;" transform="matrix(1 0 0 1 776 1971)">Leading and trailing margins on the left and right side of each symbol</text>
  <text style="stroke:none;fill:black;font-family:-apple-system,&quot;SF Pro Display&quot;,&quot;SF Pro Text&quot;,Helvetica,sans-serif;" transform="matrix(1 0 0 1 776 1989)">can be adjusted by modifying the x-location of the margin guidelines.</text>
  <text style="stroke:none;fill:black;font-family:-apple-system,&quot;SF Pro Display&quot;,&quot;SF Pro Text&quot;,Helvetica,sans-serif;" transform="matrix(1 0 0 1 776 2007)">Modifications are automatically applied proportionally to all</text>
  <text style="stroke:none;fill:black;font-family:-apple-system,&quot;SF Pro Display&quot;,&quot;SF Pro Text&quot;,Helvetica,sans-serif;" transform="matrix(1 0 0 1 776 2025)">scales and weights.</text>
  <g id="" transform="matrix(1 0 0 1 1289 1933)">
   <path d="M2.8418 1.86523L4.54102 3.57422C5.40039 4.44336 6.38672 4.38477 7.31445 3.35938L17.4902-7.85156C17.7539-7.76367 18.0273-7.7832 18.3398-7.8418L19.4043-8.03711L20.0684-7.36328L20.0293-6.80664C19.9902-6.30859 20.1172-5.92773 20.6055-5.44922L21.3672-4.70703C21.8457-4.22852 22.4609-4.19922 22.9297-4.66797L25.8398-7.58789C26.3086-8.05664 26.2891-8.65234 25.8105-9.13086L25.0391-9.89258C24.5605-10.3711 24.1895-10.5273 23.7109-10.4883L23.1348-10.4395L22.4902-11.0742L22.7344-12.1973C22.8613-12.7637 22.7051-13.2031 22.1191-13.7891L19.9219-15.9766C16.582-19.2969 12.1484-19.2188 9.25781-16.3281C8.83789-15.918 8.80859-15.3418 9.04297-14.9512C9.27734-14.5898 9.73633-14.3555 10.3809-14.5215C11.8457-14.8633 13.3691-14.9219 14.7949-13.9844L14.209-12.5293C14.0137-12.0508 13.9844-11.6504 14.1113-11.2891L3.04688-0.898438C2.06055 0.0195312 1.98242 0.996094 2.8418 1.86523ZM10.752-15.957C13.1836-17.7344 16.4746-17.4316 18.7012-15.2051L21.1328-12.793C21.3672-12.5586 21.4062-12.373 21.3379-12.0312L21.0156-10.5469L22.5195-9.0625L23.5059-9.12109C23.7598-9.13086 23.8379-9.11133 24.0332-8.91602L24.6094-8.33984L22.168-5.89844L21.5918-6.47461C21.3965-6.66992 21.3672-6.74805 21.377-7.01172L21.4453-7.98828L19.9512-9.47266L18.4277-9.21875C18.1055-9.15039 17.959-9.17969 17.7148-9.41406L15.7129-11.416C15.459-11.6504 15.4297-11.8164 15.5859-12.1875L16.4648-14.2773C14.9023-15.7324 12.8711-16.3574 10.8398-15.7617C10.6836-15.7227 10.625-15.8496 10.752-15.957ZM5.27344 2.30469L4.10156 1.14258C3.63281 0.683594 3.74023 0.341797 4.14062-0.0195312L14.9512-10.1953L16.416-8.71094L6.42578 2.27539C6.07422 2.67578 5.74219 2.77344 5.27344 2.30469Z"/>
  </g>
  <text style="stroke:none;fill:black;font-family:-apple-system,&quot;SF Pro Display&quot;,&quot;SF Pro Text&quot;,Helvetica,sans-serif;font-weight:bold;" transform="matrix(1 0 0 1 1289 1953)">Exporting</text>
  <text style="stroke:none;fill:black;font-family:-apple-system,&quot;SF Pro Display&quot;,&quot;SF Pro Text&quot;,Helvetica,sans-serif;" transform="matrix(1 0 0 1 1289 1971)">Symbols should be outlined when exporting to ensure the</text>
  <text style="stroke:none;fill:black;font-family:-apple-system,&quot;SF Pro Display&quot;,&quot;SF Pro Text&quot;,Helvetica,sans-serif;" transform="matrix(1 0 0 1 1289 1989)">design is preserved when submitting to Xcode.</text>
  <text id="template-version" style="stroke:none;fill:black;font-family:-apple-system,&quot;SF Pro Display&quot;,&quot;SF Pro Text&quot;,Helvetica,sans-serif;text-anchor:end;" transform="matrix(1 0 0 1 3036 1933)">Template v.2.0</text>
  <text style="stroke:none;fill:black;font-family:-apple-system,&quot;SF Pro Display&quot;,&quot;SF Pro Text&quot;,Helvetica,sans-serif;text-anchor:end;" transform="matrix(1 0 0 1 3036 1951)">Requires Xcode 12 or greater</text>
  <text style="stroke:none;fill:black;font-family:-apple-system,&quot;SF Pro Display&quot;,&quot;SF Pro Text&quot;,Helvetica,sans-serif;text-anchor:end;" transform="matrix(1 0 0 1 3036 1969)">Generated from arrow.triangle.branch</text>
  <text style="stroke:none;fill:black;font-family:-apple-system,&quot;SF Pro Display&quot;,&quot;SF Pro Text&quot;,Helvetica,sans-serif;text-anchor:end;" transform="matrix(1 0 0 1 3036 1987)">Typeset at 100 points</text>
  <text style="stroke:none;fill:black;font-family:-apple-system,&quot;SF Pro Display&quot;,&quot;SF Pro Text&quot;,Helvetica,sans-serif;" transform="matrix(1 0 0 1 263 726)">Small</text>
  <text style="stroke:none;fill:black;font-family:-apple-system,&quot;SF Pro Display&quot;,&quot;SF Pro Text&quot;,Helvetica,sans-serif;" transform="matrix(1 0 0 1 263 1156)">Medium</text>
  <text style="stroke:none;fill:black;font-family:-apple-system,&quot;SF Pro Display&quot;,&quot;SF Pro Text&quot;,Helvetica,sans-serif;" transform="matrix(1 0 0 1 263 1586)">Large</text>
 </g>
 <g id="Guides">
  <g id="H-reference" style="fill:#27AAE1;stroke:none;" transform="matrix(1 0 0 1 339 696)">
   <path d="M0.976562 0L3.66211 0L12.9883-24.4629L45.752-24.4629L55.127 0L57.7637 0L30.6152-70.459L28.125-70.459ZM29.3457-67.1387L29.4434-67.1387L44.873-26.709L13.8672-26.709Z"/>
  </g>
  <line id="Baseline-S" style="fill:none;stroke:#27AAE1;opacity:1;stroke-width:0.5;" x1="263" x2="3036" y1="696" y2="696"/>
  <line id="Capline-S" style="fill:none;stroke:#27AAE1;opacity:1;stroke-width:0.5;" x1="263" x2="3036" y1="625.541" y2="625.541"/>
  <g id="H-reference" style="fill:#27AAE1;stroke:none;" transform="matrix(1 0 0 1 339 1126)">
   <path d="M0.976562 0L3.66211 0L12.9883-24.4629L45.752-24.4629L55.127 0L57.7637 0L30.6152-70.459L28.125-70.459ZM29.3457-67.1387L29.4434-67.1387L44.873-26.709L13.8672-26.709Z"/>
  </g>
  <line id="Baseline-M" style="fill:none;stroke:#27AAE1;opacity:1;stroke-width:0.5;" x1="263" x2="3036" y1="1126" y2="1126"/>
  <line id="Capline-M" style="fill:none;stroke:#27AAE1;opacity:1;stroke-width:0.5;" x1="263" x2="3036" y1="1055.54" y2="1055.54"/>
  <g id="H-reference" style="fill:#27AAE1;stroke:none;" transform="matrix(1 0 0 1 339 1556)">
   <path d="M0.976562 0L3.66211 0L12.9883-24.4629L45.752-24.4629L55.127 0L57.7637 0L30.6152-70.459L28.125-70.459ZM29.3457-67.1387L29.4434-67.1387L44.873-26.709L13.8672-26.709Z"/>
  </g>
  <line id="Baseline-L" style="fill:none;stroke:#27AAE1;opacity:1;stroke-width:0.5;" x1="263" x2="3036" y1="1556" y2="1556"/>
  <line id="Capline-L" style="fill:none;stroke:#27AAE1;opacity:1;stroke-width:0.5;" x1="263" x2="3036" y1="1485.54" y2="1485.54"/>
  <line id="left-margin" style="fill:none;stroke:#00AEEF;stroke-width:0.5;opacity:1.0;" x1="1392.32" x2="1392.32" y1="1030.79" y2="1150.12"/>
  <line id="right-margin" style="fill:none;stroke:#00AEEF;stroke-width:0.5;opacity:1.0;" x1="1507.36" x2="1507.36" y1="1030.79" y2="1150.12"/>
 </g>
 <g id="Symbols">
  <g id="Black-L" transform="matrix(1 0 0 1 2850.44 1556)">
   <path d="M35.498-50.293L42.9199-59.7656L45.8496-57.9102C56.4453-51.123 73.9258-32.5684 73.9258-18.3594L73.9258 13.5254C73.9258 19.873 77.0996 23.3398 82.959 23.3398C88.7695 23.3398 91.9922 19.873 91.9922 13.5254L91.9922-18.3594C91.9922-32.5684 109.375-51.123 120.068-57.9102L122.607-59.4727L129.15-50.4883C132.715-45.459 138.086-47.2656 140.088-53.5645L149.414-82.9102C150.977-87.8906 148.047-92.0898 142.773-92.1387L111.963-92.2363C105.273-92.2852 102.148-87.6953 105.664-82.8125L111.816-74.3164L110.547-73.4863C101.318-67.4316 87.207-53.418 83.1055-42.4805L82.8125-42.4805C78.6133-53.4668 64.5508-67.4316 55.3711-73.4863L54.248-74.2188L60.1562-81.8359C63.8184-86.5234 60.8398-91.2598 54.1504-91.4551L23.3887-92.3828C18.1152-92.5781 14.9902-88.4277 16.4062-83.4473L24.707-53.8086C26.4648-47.4609 31.7383-45.5078 35.498-50.293Z"/>
  </g>
  <g id="Heavy-L" transform="matrix(1 0 0 1 2556.05 1556)">
   <path d="M34.2285-52.0508L41.3574-61.1816L43.4082-59.8145C55.4688-52.1484 72.6074-32.7148 72.6074-18.4082L72.6074 14.8438C72.6074 20.5078 75.4395 23.6328 80.6152 23.6328C85.791 23.6328 88.623 20.5078 88.623 14.8438L88.623-18.4082C88.623-32.7148 105.713-52.1484 117.822-59.8145L119.58-60.9375L125.928-52.1973C129.199-47.6074 133.984-49.1699 135.791-54.834L144.775-82.666C146.24-87.1582 143.604-90.8691 138.818-90.918L109.57-90.918C103.564-90.918 100.781-86.8164 104.053-82.3242L110.01-74.0723L109.424-73.6816C98.4863-66.4551 84.3262-51.123 80.7617-40.3809L80.5176-40.3809C76.8555-51.1719 62.7441-66.4551 51.8555-73.6816L51.3184-74.0234L57.1289-81.4453C60.498-85.8398 57.8613-90.0391 51.8555-90.1855L22.6562-91.1621C17.8711-91.3086 15.0879-87.6465 16.4062-83.1543L24.4629-55.0293C26.0742-49.3164 30.7617-47.6074 34.2285-52.0508Z"/>
  </g>
  <g id="Bold-L" transform="matrix(1 0 0 1 2261.95 1556)">
   <path d="M32.8125-54.0039L39.5508-62.7441L40.7715-61.9629C54.3457-53.2715 71.1914-32.9102 71.1914-18.457L71.1914 16.2598C71.1914 21.2402 73.6328 23.9746 78.0273 23.9746C82.4219 23.9746 84.8633 21.2402 84.8633 16.2598L84.8633-18.457C84.8633-32.9102 101.66-53.2715 115.332-61.9629L116.211-62.5488L122.314-54.1504C125.293-50 129.395-51.2695 131.006-56.25L139.6-82.3242C140.918-86.377 138.623-89.5508 134.375-89.502L106.934-89.3555C101.66-89.3555 99.3164-85.8398 102.246-81.7871L108.057-73.7793C95.3125-65.3809 81.1035-48.584 78.1738-38.0859L77.8809-38.0859C74.9023-48.5352 60.791-65.2832 48.0957-73.7793L53.7598-81.0547C56.7871-85.0098 54.541-88.623 49.2676-88.8184L21.8262-89.7461C17.5781-89.8926 15.1855-86.7676 16.4062-82.7637L24.2188-56.4453C25.6348-51.3672 29.6875-50 32.8125-54.0039Z"/>
  </g>
  <g id="Semibold-L" transform="matrix(1 0 0 1 1967.02 1556)">
   <path d="M31.8359-55.3711L38.3301-63.8184L38.916-63.4766C53.6133-54.0039 70.2148-33.0566 70.2148-18.5059L70.2148 17.2852C70.2148 21.7773 72.3633 24.1699 76.2207 24.1699C80.127 24.1699 82.2754 21.7773 82.2754 17.2852L82.2754-18.5059C82.2754-33.0566 98.8281-54.0039 113.574-63.4766L113.867-63.6719L119.873-55.4688C122.607-51.6602 126.27-52.7344 127.734-57.2266L136.035-82.1289C137.256-85.791 135.205-88.5742 131.348-88.5742L105.078-88.3301C100.342-88.3301 98.291-85.1562 100.977-81.4453L106.641-73.584C92.7734-64.1602 78.8574-46.6309 76.3672-36.4746L76.123-36.4746C73.584-46.6797 59.7168-64.1602 45.8496-73.584L51.416-80.8105C54.1992-84.4238 52.2461-87.6953 47.5098-87.8418L21.2402-88.7695C17.4316-88.916 15.2832-86.1816 16.4062-82.5195L24.0234-57.373C25.3418-52.832 28.9551-51.6602 31.8359-55.3711Z"/>
  </g>
  <g id="Medium-L" transform="matrix(1 0 0 1 1671.68 1556)">
   <path d="M31.0547-56.3965L37.4023-64.6484L37.5-64.5996C53.0273-54.5898 69.4336-33.1543 69.4336-18.5547L69.4336 18.0664C69.4336 22.168 71.3867 24.3652 74.9023 24.3652C78.3691 24.3652 80.3223 22.168 80.3223 18.0664L80.3223-18.5547C80.3223-33.1055 96.6309-54.4922 112.109-64.502L117.969-56.4453C120.557-52.9297 123.828-53.8086 125.244-57.959L133.301-81.9824C134.473-85.4004 132.617-87.8906 129.053-87.8418L103.711-87.5488C99.3652-87.5 97.5098-84.6191 100.049-81.1523L105.615-73.4375C90.918-63.3301 77.1484-45.2637 75-35.3027L74.7559-35.3027C72.5586-45.2637 58.8379-63.2812 44.1406-73.4375L49.6094-80.6152C52.2461-84.0332 50.4883-86.9629 46.1426-87.1094L20.8008-88.0371C17.2852-88.1836 15.332-85.7422 16.4062-82.3242L23.877-58.1055C25.1465-53.9062 28.418-52.9297 31.0547-56.3965Z"/>
  </g>
  <g id="Regular-L" transform="matrix(1 0 0 1 1376.75 1556)">
   <path d="M30.0781-57.7148L36.1816-65.7227C52.5879-54.8828 68.457-33.1543 68.457-18.5547L68.457 19.043C68.457 22.6562 70.1172 24.6094 73.0957 24.6094C76.0742 24.6094 77.7344 22.6562 77.7344 19.043L77.7344-18.5547C77.7344-33.1055 93.5059-54.7363 109.814-65.5762L115.527-57.7637C117.871-54.541 120.752-55.2734 121.973-58.9355L129.785-81.7871C130.811-84.8145 129.199-86.9629 126.025-86.9141L101.855-86.4746C98.0469-86.4746 96.4844-83.9355 98.8281-80.7617L104.248-73.2422C88.5254-62.207 74.9512-43.4082 73.1934-33.6914L72.998-33.6914C71.1914-43.457 57.666-62.207 41.9434-73.2422L47.3145-80.3223C49.707-83.4473 48.2422-85.9863 44.4336-86.1328L20.2637-87.1094C17.0898-87.2559 15.4297-85.1562 16.4062-82.0312L23.6816-59.082C24.8535-55.3223 27.6855-54.541 30.0781-57.7148Z"/>
  </g>
  <g id="Light-L" transform="matrix(1 0 0 1 1081.5 1556)">
   <path d="M29.0527-58.1055L35.498-66.6992C53.2715-54.7852 68.1641-33.0566 68.1641-19.0918L68.1641 20.459C68.1641 23.0957 69.3848 24.5117 71.6309 24.5117C73.877 24.5117 75.0977 23.0957 75.0977 20.459L75.0977-19.0918C75.0977-33.0566 89.9414-54.7363 107.617-66.6016L113.818-58.1055C115.723-55.4688 118.115-56.0059 119.189-59.1797L126.855-81.4941C127.783-84.082 126.416-85.8887 123.73-85.8398L100.098-85.4004C96.7773-85.3516 95.5566-83.252 97.4609-80.6641L103.418-72.4121C86.4746-60.498 73.291-41.3574 71.7773-31.3477L71.4844-31.3477C69.9219-41.3574 56.7871-60.5469 39.7949-72.4121L45.752-80.3711C47.7051-82.959 46.4844-85.1074 43.2129-85.2051L19.5801-85.9375C16.8945-86.0352 15.5273-84.2773 16.3574-81.6895L23.7305-59.2285C24.707-56.0547 27.0996-55.5176 29.0527-58.1055Z"/>
  </g>
  <g id="Thin-L" transform="matrix(1 0 0 1 786.744 1556)">
   <path d="M27.6855-58.5938L34.5703-68.0176C54.0527-54.7363 67.7246-33.0078 67.7246-19.7266L67.7246 22.3145C67.7246 23.6816 68.457 24.4141 69.6777 24.4141C70.8984 24.4141 71.6309 23.6816 71.6309 22.3145L71.6309-19.7266C71.6309-33.0078 85.3027-54.7363 104.736-67.9688L111.572-58.5938C112.891-56.7383 114.697-57.0312 115.527-59.4238L122.998-81.1035C123.682-83.1543 122.754-84.4238 120.654-84.375L97.7051-83.9844C95.1172-83.9355 94.3359-82.3242 95.6543-80.4688L102.344-71.2891C83.6914-58.252 71.1426-38.5742 69.8242-28.2227L69.5312-28.2227C68.2129-38.5742 55.6641-58.252 37.0117-71.2891L43.7012-80.4199C45.0195-82.2266 44.2383-83.8867 41.6504-83.9355L18.75-84.4238C16.6016-84.4727 15.6738-83.2031 16.3086-81.1523L23.7305-59.4727C24.5605-57.0312 26.3672-56.7383 27.6855-58.5938Z"/>
  </g>
  <g id="Ultralight-L" transform="matrix(1 0 0 1 491.034 1556)">
   <path d="M27.002-58.8379L34.1309-68.6523C54.4434-54.7363 67.5293-33.0078 67.5293-20.0684L67.5293 23.2422C67.5293 23.9746 67.9688 24.3652 68.6523 24.3652C69.3848 24.3652 69.8242 23.9746 69.8242 23.2422L69.8242-20.0684C69.8242-33.0078 82.9102-54.7363 103.271-68.7012L110.4-58.8379C111.426-57.373 112.939-57.5195 113.623-59.5703L121.045-80.957C121.631-82.666 120.85-83.6914 119.043-83.6426L96.4844-83.252C94.2871-83.2031 93.7012-81.8359 94.7266-80.4199L101.758-70.752C82.2754-57.0801 70.0195-37.1582 68.8477-26.6113L68.5059-26.6113C67.334-37.1582 55.0781-57.0801 35.5957-70.752L42.627-80.4688C43.6523-81.8848 43.0664-83.252 40.8691-83.3008L18.2617-83.6426C16.4551-83.6426 15.7227-82.6172 16.3086-80.9082L23.7793-59.5703C24.4629-57.5195 25.9766-57.373 27.002-58.8379Z"/>
  </g>
  <g id="Black-M" transform="matrix(1 0 0 1 2866.75 1126)">
   <path d="M28.7109-44.7266L35.0586-52.8809L38.1836-50.8789C45.3125-46.3379 58.8379-32.959 58.8379-22.3633L58.8379 1.5625C58.8379 6.83594 61.6211 9.7168 66.6504 9.7168C71.6797 9.7168 74.4629 6.83594 74.4629 1.5625L74.4629-22.3633C74.4629-32.959 87.8418-46.3379 95.1172-50.8789L97.9004-52.6367L103.516-44.9219C106.445-40.8203 111.182-42.4316 112.842-47.8516L120.508-72.4121C121.826-76.6113 119.238-80.3223 114.697-80.4199L89.0137-80.6641C83.252-80.7617 80.4688-76.709 83.3496-72.7051L88.623-65.3809L86.8652-64.2578C81.2012-60.5957 70.6055-51.3184 66.7969-42.3828L66.5039-42.3828C62.5977-51.3184 52.0508-60.5957 46.4355-64.2578L44.8242-65.332L49.9023-71.8262C52.8809-75.6836 50.2441-79.834 44.4824-79.9805L18.75-80.6152C14.2578-80.7129 11.5234-77.0508 12.7441-72.8516L19.4824-48.0469C20.9961-42.5781 25.5859-40.8203 28.7109-44.7266Z"/>
  </g>
  <g id="Heavy-M" transform="matrix(1 0 0 1 2572.19 1126)">
   <path d="M27.5879-46.582L33.4961-54.1504L35.8398-52.6367C44.1406-47.3633 57.5195-33.1055 57.5195-22.3145L57.5195 2.58789C57.5195 7.42188 60.0098 10.0586 64.502 10.0586C68.9941 10.0586 71.4355 7.42188 71.4355 2.58789L71.4355-22.3145C71.4355-33.1055 84.7656-47.3633 93.1152-52.6367L95.166-53.9551L100.439-46.7285C103.174-42.8711 107.373-44.2871 108.887-49.1699L116.211-72.2168C117.432-76.0254 115.088-79.2969 111.035-79.3457L86.8652-79.4922C81.6895-79.4922 79.248-75.9277 81.9336-72.2168L86.9141-65.3809L85.791-64.6484C78.6621-59.9609 67.9199-49.3652 64.5996-40.7227L64.3555-40.7227C61.0352-49.3652 50.293-59.9609 43.2129-64.6484L42.1875-65.2832L46.9727-71.4355C49.8047-75.0488 47.4609-78.7109 42.2363-78.8574L18.1152-79.541C14.0625-79.6387 11.6211-76.416 12.7441-72.6074L19.2383-49.3652C20.6055-44.4336 24.707-42.8711 27.5879-46.582Z"/>
  </g>
  <g id="Bold-M" transform="matrix(1 0 0 1 2277.89 1126)">
   <path d="M26.3184-48.584L31.7383-55.5664L33.252-54.6387C42.7734-48.5352 56.0547-33.3496 56.0547-22.2168L56.0547 3.80859C56.0547 8.10547 58.2031 10.4492 62.0605 10.4492C65.9668 10.4492 68.1152 8.10547 68.1152 3.80859L68.1152-22.2168C68.1152-33.3496 81.2988-48.5352 90.918-54.6387L92.1387-55.4199L97.0215-48.7305C99.5117-45.2148 103.125-46.3867 104.492-50.6836L111.377-71.9238C112.5-75.3418 110.498-78.125 106.885-78.1738L84.5215-78.125C79.9805-78.125 77.8809-75.0488 80.3711-71.6309L84.9609-65.2832L84.5703-65.0391C75.8301-59.2773 64.8438-47.1191 62.1582-38.8672L61.9629-38.8672C59.2285-47.168 48.291-59.2773 39.5508-65.0391L39.2578-65.2344L43.75-70.9961C46.2891-74.3164 44.3359-77.4902 39.7949-77.5879L17.4316-78.3203C13.8184-78.4668 11.7188-75.7324 12.7441-72.3145L18.9453-50.8301C20.166-46.4844 23.6816-45.2148 26.3184-48.584Z"/>
  </g>
  <g id="Semibold-M" transform="matrix(1 0 0 1 1982.84 1126)">
   <path d="M25.4395-50L30.5664-56.5918L31.4453-56.0059C41.8457-49.3164 55.0293-33.4473 55.0293-22.168L55.0293 4.58984C55.0293 8.54492 56.9336 10.6934 60.4004 10.6934C63.8672 10.6934 65.8203 8.54492 65.8203 4.58984L65.8203-22.168C65.8203-33.4473 78.9062-49.3164 89.4043-56.0059L90.0391-56.4453L94.6289-50.0977C96.9727-46.8262 100.195-47.8027 101.416-51.709L108.057-71.7773C109.082-74.9023 107.275-77.3438 104.004-77.3438L82.8613-77.1973C78.8086-77.1973 76.9531-74.4629 79.248-71.2891L83.6426-65.2832C73.877-58.7891 62.7441-45.6055 60.498-37.5977L60.3027-37.5977C58.0566-45.6055 47.0703-58.6426 37.2559-65.2344L41.5039-70.7031C43.8965-73.7793 42.1387-76.6113 38.0859-76.7578L16.9434-77.5391C13.6719-77.6367 11.8164-75.2441 12.7441-72.0703L18.7012-51.8066C19.873-47.9004 22.998-46.8262 25.4395-50Z"/>
  </g>
  <g id="Medium-M" transform="matrix(1 0 0 1 1687.4 1126)">
   <path d="M24.8047-51.0742L29.6387-57.3242L30.0293-57.0801C41.1621-49.9512 54.248-33.5938 54.248-22.1191L54.248 5.22461C54.248 8.93555 56.0059 10.8887 59.1309 10.8887C62.3047 10.8887 64.0625 8.93555 64.0625 5.22461L64.0625-22.1191C64.0625-33.5938 77.1484-49.9512 88.2812-57.0801L88.4766-57.1777L92.8711-51.123C95.0684-48.0469 97.9492-48.877 99.1211-52.4414L105.518-71.6309C106.494-74.5605 104.883-76.7578 101.855-76.709L81.5918-76.5137C77.8809-76.4648 76.2695-73.9746 78.418-70.9961L82.6172-65.2344C72.0215-58.0078 61.1328-44.3359 59.2285-36.6699L59.082-36.6699C57.1289-44.3848 46.2891-57.959 35.7422-65.1855L39.7949-70.459C42.0898-73.3887 40.5273-75.9277 36.7676-76.0742L16.5527-76.9043C13.5254-77.002 11.8652-74.8535 12.7441-71.9238L18.5547-52.5879C19.6289-48.9746 22.4609-48.0469 24.8047-51.0742Z"/>
  </g>
  <g id="Regular-M" transform="matrix(1 0 0 1 1392.32 1126)">
   <path d="M23.9258-52.4414L28.418-58.3008C40.2344-50.7324 53.2715-33.7402 53.2715-22.0215L53.2715 6.00586C53.2715 9.375 54.7852 11.1816 57.5195 11.1816C60.2539 11.1816 61.7676 9.375 61.7676 6.00586L61.7676-22.0215C61.7676-33.5938 74.5117-50.3906 86.377-58.1543L90.5273-52.4902C92.5781-49.6582 95.0684-50.293 96.0938-53.4668L102.246-71.4355C103.125-74.0723 101.709-75.9277 99.0234-75.8789L79.9805-75.5859C76.709-75.5371 75.3418-73.3887 77.3438-70.6055L81.2988-65.1855C69.8242-57.1289 59.0332-42.7734 57.5684-35.4004L57.4219-35.4004C55.957-42.8223 45.2148-57.1289 33.7402-65.1855L37.5977-70.166C39.6973-72.9004 38.3789-75.0977 35.1074-75.2441L16.1133-76.0742C13.3789-76.2207 11.9141-74.4141 12.7441-71.7285L18.3594-53.6133C19.3359-50.3906 21.7773-49.6582 23.9258-52.4414Z"/>
  </g>
  <g id="Light-M" transform="matrix(1 0 0 1 1096.96 1126)">
   <path d="M56.2012 11.1328C58.252 11.1328 59.375 9.76562 59.375 7.27539L59.375-22.5098C59.375-33.5449 71.2891-50.3418 84.4238-59.082L88.9648-52.7832C90.6738-50.4883 92.7246-50.9766 93.6035-53.6621L99.6582-71.1914C100.391-73.4375 99.2188-74.9512 96.9238-74.9512L78.3691-74.6094C75.5859-74.5605 74.5117-72.7539 76.123-70.459L80.5664-64.4043C67.9199-55.5664 57.5684-40.8691 56.2988-33.3008L56.1035-33.3008C54.7852-40.918 44.4336-55.6152 31.8359-64.4531L36.1816-70.2148C37.8906-72.4121 36.8164-74.2676 34.0332-74.3652L15.4785-75.0488C13.1836-75.1465 12.0117-73.6328 12.6953-71.3867L18.4082-53.7598C19.2383-51.0742 21.2891-50.5371 22.998-52.7832L27.832-59.1797C41.0156-50.4395 52.9785-33.5938 52.9785-22.5098L52.9785 7.27539C52.9785 9.76562 54.1016 11.1328 56.2012 11.1328Z"/>
  </g>
  <g id="Thin-M" transform="matrix(1 0 0 1 801.979 1126)">
   <path d="M54.4434 11.0352C55.6152 11.0352 56.25 10.3027 56.25 8.93555L56.25-23.0957C56.25-33.4961 67.0898-50.3418 81.7871-60.3027L86.9629-53.2227C88.1348-51.6113 89.6484-51.9043 90.332-53.9551L96.1914-70.8984C96.7773-72.5586 95.9473-73.6816 94.1895-73.6328L76.2207-73.3398C74.1211-73.291 73.3887-71.9238 74.5117-70.3125L79.541-63.4277C65.4785-53.5645 55.6152-38.4277 54.541-30.4688L54.2969-30.4688C53.2227-38.4277 43.4082-53.5645 29.2969-63.4277L34.3262-70.2637C35.498-71.8262 34.7656-73.1934 32.6172-73.2422L14.6973-73.6816C12.9395-73.7305 12.1094-72.6562 12.6953-70.9473L18.4082-53.9551C19.0918-51.9043 20.6055-51.6113 21.7773-53.2227L27.002-60.3516C41.748-50.3418 52.5879-33.5449 52.5879-23.0957L52.5879 8.93555C52.5879 10.3027 53.2715 11.0352 54.4434 11.0352Z"/>
  </g>
  <g id="Ultralight-M" transform="matrix(1 0 0 1 506.171 1126)">
   <path d="M53.5156 10.9863C54.248 10.9863 54.6387 10.5469 54.6387 9.81445L54.6387-23.3887C54.6387-33.4961 64.9902-50.3418 80.4688-60.9375L85.9375-53.418C86.8164-52.1973 88.0859-52.3438 88.6719-54.0527L94.3848-70.7031C94.873-72.1191 94.2383-72.998 92.7734-72.998L75.1465-72.6562C73.3398-72.6562 72.8027-71.4844 73.7305-70.2637L79.0527-62.9395C64.209-52.5391 54.6387-37.1582 53.6621-29.0527L53.418-29.0527C52.4414-37.1582 42.8711-52.5391 28.0273-62.9395L33.3496-70.2637C34.2773-71.4844 33.7402-72.6562 31.9336-72.6562L14.3066-72.998C12.793-72.998 12.1582-72.1191 12.6465-70.7031L18.4082-54.0527C18.9941-52.3438 20.2637-52.1973 21.1426-53.4668L26.6113-60.9375C42.0898-50.3418 52.3926-33.4961 52.3926-23.3887L52.3926 9.81445C52.3926 10.5469 52.832 10.9863 53.5156 10.9863Z"/>
  </g>
  <g id="Black-S" transform="matrix(1 0 0 1 2881.32 696)">
   <path d="M22.4121-42.8223L27.3438-49.1211L29.7363-47.6074C35.4004-43.9941 45.9961-33.4473 45.9961-25.1465L45.9961-6.34766C45.9961-2.24609 48.1445 0 52.0508 0C55.957 0 58.1055-2.24609 58.1055-6.34766L58.1055-25.1465C58.1055-33.4473 68.6035-43.9941 74.3652-47.6074L76.5137-48.9746L80.8594-42.9688C83.1543-39.7461 86.8164-41.0156 88.1348-45.2148L94.0918-64.3555C95.1172-67.627 93.1152-70.5078 89.5996-70.5566L69.5801-70.752C65.0879-70.8008 62.9395-67.6758 65.1855-64.5508L69.3359-58.8867L67.9688-58.0078C63.4277-55.0781 55.127-47.7051 52.1484-40.7227L51.9531-40.7227C48.9258-47.7051 40.625-55.0781 36.1328-58.0078L34.9121-58.7891L38.8672-63.8672C41.2109-66.8945 39.1602-70.1172 34.668-70.2148L14.6484-70.7031C11.1328-70.8008 9.0332-67.9688 9.96094-64.6973L15.2344-45.3613C16.4062-41.1133 19.9707-39.7461 22.4121-42.8223Z"/>
  </g>
  <g id="Heavy-S" transform="matrix(1 0 0 1 2586.13 696)">
   <path d="M21.6797-44.1895L26.2207-50L28.0762-48.8281C34.4727-44.7754 45.0195-33.5938 45.0195-25.0488L45.0195-5.66406C45.0195-1.80664 46.9727 0.292969 50.5859 0.292969C54.1504 0.292969 56.1035-1.80664 56.1035-5.66406L56.1035-25.0488C56.1035-33.5938 66.6016-44.7754 73.0469-48.8281L74.6582-49.8535L78.7109-44.2871C80.8594-41.2598 84.1797-42.3828 85.4004-46.1914L91.1133-64.209C92.0898-67.2363 90.2344-69.8242 87.0117-69.873L68.1641-69.9219C64.0625-69.9707 62.1094-67.1387 64.2578-64.1602L68.0664-58.9355L67.2363-58.3984C61.7188-54.7852 53.2227-46.3867 50.6348-39.6973L50.4883-39.6973C47.8516-46.4355 39.3555-54.7852 33.8867-58.3984L33.1543-58.8867L36.8164-63.5742C39.0625-66.4551 37.207-69.3359 33.1055-69.4336L14.2578-70.0195C11.0352-70.1172 9.08203-67.5781 9.96094-64.5508L15.0391-46.3379C16.1133-42.4805 19.3359-41.2598 21.6797-44.1895Z"/>
  </g>
  <g id="Bold-S" transform="matrix(1 0 0 1 2291.1 696)">
   <path d="M48.877 0.585938C52.0508 0.585938 53.8086-1.36719 53.8086-4.93164L53.8086-24.9023C53.8086-33.7402 64.3555-45.6543 71.582-50.2441L72.5586-50.8789L76.2695-45.8008C78.3203-42.9199 81.2012-43.8477 82.3242-47.3145L87.7441-64.0625C88.623-66.7969 87.0117-69.043 84.082-69.043L66.5039-69.043C62.8906-69.043 61.1816-66.5527 63.1836-63.7695L66.6504-58.9844L66.4062-58.7891C59.7656-54.4434 51.0742-44.9707 48.9258-38.5742L48.7793-38.5742C46.6309-44.9707 37.9395-54.4434 31.3477-58.7891L31.1523-58.9355L34.4727-63.2324C36.5723-65.918 34.9609-68.5059 31.3477-68.6035L13.7695-69.2383C10.8398-69.3359 9.17969-67.1387 9.96094-64.3555L14.7949-47.4609C15.8203-43.9453 18.6523-42.9199 20.8008-45.7031L24.9512-51.0254L26.1719-50.2441C33.3496-45.6543 43.9453-33.7402 43.9453-24.9023L43.9453-4.93164C43.9453-1.36719 45.7031 0.585938 48.877 0.585938Z"/>
  </g>
  <g id="Semibold-S" transform="matrix(1 0 0 1 1995.56 696)">
   <path d="M47.7051 0.78125C50.6348 0.78125 52.2461-1.02539 52.2461-4.39453L52.2461-24.8047C52.2461-33.8379 62.793-46.2402 70.5566-51.1719L71.1426-51.5625L74.5605-46.8262C76.5137-44.0918 79.1504-44.9219 80.1758-48.0957L85.4004-63.916C86.2793-66.5039 84.7656-68.5059 82.0801-68.5059L65.3809-68.4082C62.0605-68.4082 60.5469-66.1621 62.4512-63.4766L65.7227-59.0332C58.4473-54.1992 49.5605-43.9453 47.7539-37.7441L47.6562-37.7441C45.8008-43.9453 37.0605-54.0527 29.7363-58.9844L32.9102-62.9883C34.9121-65.5762 33.4473-67.8711 30.127-68.0176L13.4277-68.7012C10.7422-68.7988 9.17969-66.7969 9.96094-64.209L14.6484-48.1934C15.5762-44.9707 18.1641-44.0918 20.2148-46.7285L24.0723-51.709L24.8535-51.1719C32.6172-46.2402 43.1641-33.8379 43.1641-24.8047L43.1641-4.39453C43.1641-1.02539 44.7754 0.78125 47.7051 0.78125Z"/>
  </g>
  <g id="Medium-S" transform="matrix(1 0 0 1 1699.73 696)">
   <path d="M46.8262 0.976562C49.5605 0.976562 51.0742-0.78125 51.0742-4.00391L51.0742-24.7559C51.0742-33.9355 61.5723-46.6797 69.7754-51.9043L70.0195-52.0996L73.291-47.6074C75.1953-44.9707 77.5879-45.7031 78.5645-48.6816L83.6426-63.8184C84.4727-66.2598 83.1055-68.1152 80.5664-68.1152L64.5508-67.9199C61.4258-67.9199 60.0586-65.8203 61.9141-63.2812L64.9902-59.0332C57.1289-53.6621 48.4375-43.1152 46.875-37.1582L46.7773-37.1582C45.166-43.1152 36.5234-53.6133 28.7109-58.9844L31.6895-62.793C33.6426-65.332 32.2754-67.4316 29.1992-67.5781L13.1836-68.2617C10.6445-68.3594 9.22852-66.6016 9.96094-64.1113L14.502-48.7793C15.3809-45.8008 17.7734-44.9707 19.7754-47.5098L23.3887-52.1973L23.877-51.9043C32.0312-46.6797 42.5781-33.9355 42.5781-24.7559L42.5781-4.00391C42.5781-0.78125 44.0918 0.976562 46.8262 0.976562Z"/>
  </g>
  <g id="Regular-S" transform="matrix(1 0 0 1 1404.17 696)">
   <path d="M45.6543 1.17188C48.1445 1.17188 49.5117-0.488281 49.5117-3.51562L49.5117-24.6582C49.5117-33.9844 59.9121-47.1191 68.6035-52.7832L71.6309-48.584C73.4375-46.0938 75.5859-46.7285 76.4648-49.4141L81.3477-63.7207C82.1289-65.9668 80.8594-67.627 78.5645-67.5781L63.4277-67.334C60.6445-67.2852 59.375-65.4297 61.1816-62.9883L64.0137-59.0332C55.5664-53.125 46.9238-42.041 45.7031-36.377L45.6055-36.377C44.3848-42.0898 35.791-53.125 27.3438-59.0332L30.0781-62.5977C31.9336-64.9902 30.7617-66.8457 27.9785-66.9922L12.8906-67.7246C10.5469-67.8711 9.27734-66.2598 9.96094-64.0137L14.3555-49.5605C15.1855-46.8262 17.2852-46.1426 19.1406-48.5352L22.5586-52.8809L22.6074-52.8809C31.2988-47.3145 41.8457-34.0332 41.8457-24.6582L41.8457-3.51562C41.8457-0.488281 43.2129 1.17188 45.6543 1.17188Z"/>
  </g>
  <g id="Light-S" transform="matrix(1 0 0 1 1108.63 696)">
   <path d="M44.4824 1.12305C46.3867 1.12305 47.4121-0.146484 47.4121-2.39258L47.4121-25.0977C47.4121-33.9355 57.0801-47.0703 66.8457-53.5645L70.2637-48.877C71.7285-46.875 73.4863-47.3145 74.2676-49.6094L79.0527-63.5254C79.6875-65.4297 78.6621-66.748 76.709-66.6992L62.0117-66.4551C59.6191-66.4062 58.6426-64.8926 60.1074-62.8906L63.3789-58.3984C53.9062-51.7578 45.6543-40.3809 44.5801-34.5215L44.4336-34.5215C43.3594-40.4297 35.0586-51.7578 25.6348-58.3984L28.8574-62.5977C30.3711-64.5508 29.3945-66.1133 27.0508-66.2109L12.3535-66.7969C10.4004-66.8945 9.32617-65.625 9.91211-63.6719L14.3555-49.707C15.0879-47.3633 16.8457-46.875 18.3594-48.8281L22.0215-53.6621C31.8848-47.168 41.6016-33.9844 41.6016-25.0977L41.6016-2.39258C41.6016-0.146484 42.627 1.12305 44.4824 1.12305Z"/>
  </g>
  <g id="Thin-S" transform="matrix(1 0 0 1 813.478 696)">
   <path d="M42.9688 1.02539C44.043 1.02539 44.6289 0.341797 44.6289-0.927734L44.6289-25.5859C44.6289-33.8867 53.3203-47.0703 64.5508-54.6387L68.5059-49.2676C69.4824-47.8516 70.8008-48.0957 71.3867-49.8535L75.9766-63.2324C76.4648-64.6484 75.7812-65.5762 74.2676-65.5762L60.1074-65.332C58.3008-65.2832 57.666-64.1113 58.6914-62.7441L62.5-57.5195C51.709-49.9512 43.8965-38.1836 43.0176-32.0312L42.8711-32.0312C41.9922-38.2324 34.1797-50 23.3887-57.5195L27.1973-62.6465C28.2227-64.0137 27.5879-65.1855 25.8301-65.2344L11.6699-65.625C10.1562-65.6738 9.42383-64.6973 9.91211-63.2812L14.4043-49.8535C14.9414-48.1445 16.2598-47.8516 17.2852-49.2188L21.2891-54.6875C32.5195-47.0703 41.2598-33.8867 41.2598-25.5859L41.2598-0.927734C41.2598 0.341797 41.8457 1.02539 42.9688 1.02539Z"/>
  </g>
  <g id="Ultralight-S" transform="matrix(1 0 0 1 517.548 696)">
   <path d="M42.1387 0.976562C42.8223 0.976562 43.2129 0.585938 43.2129-0.195312L43.2129-25.8789C43.2129-33.8867 51.4648-47.0703 63.3789-55.2246L67.5781-49.4629C68.3594-48.3887 69.3848-48.5352 69.873-49.9512L74.4141-63.0859C74.8047-64.2578 74.2676-64.9902 72.998-64.9902L59.1309-64.7461C57.6172-64.6973 57.1777-63.7695 57.959-62.6953L62.0117-57.0801C50.6348-49.0723 43.0176-37.0605 42.2363-30.7617L42.041-30.7617C41.2598-37.0605 33.6914-49.0723 22.2656-57.0801L26.3672-62.6953C27.1484-63.7207 26.6602-64.6973 25.1953-64.6973L11.2793-64.9902C10.0586-65.0391 9.47266-64.2578 9.91211-63.0859L14.4043-49.9512C14.8926-48.5352 15.918-48.3887 16.6992-49.4141L20.8984-55.2246C32.8613-47.0703 41.0645-33.8867 41.0645-25.8789L41.0645-0.195312C41.0645 0.585938 41.4551 0.976562 42.1387 0.976562Z"/>
  </g>
 </g>
</svg>
