<?xml version="1.0" encoding="UTF-8"?>
<!--Generator: Apple Native CoreSVG 175-->
<!DOCTYPE svg
PUBLIC "-//W3C//DTD SVG 1.1//EN"
       "http://www.w3.org/Graphics/SVG/1.1/DTD/svg11.dtd">
<svg version="1.1" xmlns="http://www.w3.org/2000/svg" xmlns:xlink="http://www.w3.org/1999/xlink" width="3300" height="2200">
 <!--glyph: "uni100CAE.medium", point size: 100.0, font version: "17.3d3e1", template writer version: "65.1"-->
 <g id="Notes">
  <rect height="2200" id="artboard" style="fill:white;opacity:1" width="3300" x="0" y="0"/>
  <line style="fill:none;stroke:black;opacity:1;stroke-width:0.5;" x1="263" x2="3036" y1="292" y2="292"/>
  <text style="stroke:none;fill:black;font-family:sans-serif;font-size:13;font-weight:bold;" transform="matrix(1 0 0 1 263 322)">Weight/Scale Variations</text>
  <text style="stroke:none;fill:black;font-family:sans-serif;font-size:13;text-anchor:middle;" transform="matrix(1 0 0 1 559.711 322)">Ultralight</text>
  <text style="stroke:none;fill:black;font-family:sans-serif;font-size:13;text-anchor:middle;" transform="matrix(1 0 0 1 856.422 322)">Thin</text>
  <text style="stroke:none;fill:black;font-family:sans-serif;font-size:13;text-anchor:middle;" transform="matrix(1 0 0 1 1153.13 322)">Light</text>
  <text style="stroke:none;fill:black;font-family:sans-serif;font-size:13;text-anchor:middle;" transform="matrix(1 0 0 1 1449.84 322)">Regular</text>
  <text style="stroke:none;fill:black;font-family:sans-serif;font-size:13;text-anchor:middle;" transform="matrix(1 0 0 1 1746.56 322)">Medium</text>
  <text style="stroke:none;fill:black;font-family:sans-serif;font-size:13;text-anchor:middle;" transform="matrix(1 0 0 1 2043.27 322)">Semibold</text>
  <text style="stroke:none;fill:black;font-family:sans-serif;font-size:13;text-anchor:middle;" transform="matrix(1 0 0 1 2339.98 322)">Bold</text>
  <text style="stroke:none;fill:black;font-family:sans-serif;font-size:13;text-anchor:middle;" transform="matrix(1 0 0 1 2636.69 322)">Heavy</text>
  <text style="stroke:none;fill:black;font-family:sans-serif;font-size:13;text-anchor:middle;" transform="matrix(1 0 0 1 2933.4 322)">Black</text>
  <line style="fill:none;stroke:black;opacity:1;stroke-width:0.5;" x1="263" x2="3036" y1="1903" y2="1903"/>
  <g transform="matrix(1 0 0 1 263 1933)">
   <path d="M9.24805 0.830078Q10.8691 0.830078 12.2949 0.214844Q13.7207-0.400391 14.8096-1.49414Q15.8984-2.58789 16.5186-4.01367Q17.1387-5.43945 17.1387-7.05078Q17.1387-8.66211 16.5186-10.0879Q15.8984-11.5137 14.8047-12.6074Q13.7109-13.7012 12.2852-14.3164Q10.8594-14.9316 9.23828-14.9316Q7.62695-14.9316 6.20117-14.3164Q4.77539-13.7012 3.69141-12.6074Q2.60742-11.5137 1.9873-10.0879Q1.36719-8.66211 1.36719-7.05078Q1.36719-5.43945 1.9873-4.01367Q2.60742-2.58789 3.69629-1.49414Q4.78516-0.400391 6.21094 0.214844Q7.63672 0.830078 9.24805 0.830078ZM9.24805-0.654297Q7.91992-0.654297 6.7627-1.14746Q5.60547-1.64062 4.73145-2.51953Q3.85742-3.39844 3.36426-4.56055Q2.87109-5.72266 2.87109-7.05078Q2.87109-8.37891 3.35938-9.54102Q3.84766-10.7031 4.72168-11.582Q5.5957-12.4609 6.75293-12.9541Q7.91016-13.4473 9.23828-13.4473Q10.5762-13.4473 11.7334-12.9541Q12.8906-12.4609 13.7695-11.582Q14.6484-10.7031 15.1465-9.54102Q15.6445-8.37891 15.6445-7.05078Q15.6445-5.72266 15.1514-4.56055Q14.6582-3.39844 13.7842-2.51953Q12.9102-1.64062 11.748-1.14746Q10.5859-0.654297 9.24805-0.654297ZM5.6543-7.05078Q5.6543-6.72852 5.85938-6.52832Q6.06445-6.32812 6.40625-6.32812L8.51562-6.32812L8.51562-4.20898Q8.51562-3.88672 8.71094-3.67676Q8.90625-3.4668 9.23828-3.4668Q9.56055-3.4668 9.77051-3.67676Q9.98047-3.88672 9.98047-4.20898L9.98047-6.32812L12.0898-6.32812Q12.4219-6.32812 12.627-6.52832Q12.832-6.72852 12.832-7.05078Q12.832-7.38281 12.627-7.58789Q12.4219-7.79297 12.0898-7.79297L9.98047-7.79297L9.98047-9.90234Q9.98047-10.2344 9.77051-10.4443Q9.56055-10.6543 9.23828-10.6543Q8.90625-10.6543 8.71094-10.4443Q8.51562-10.2344 8.51562-9.90234L8.51562-7.79297L6.40625-7.79297Q6.06445-7.79297 5.85938-7.58789Q5.6543-7.38281 5.6543-7.05078Z"/>
  </g>
  <g transform="matrix(1 0 0 1 281.867 1933)">
   <path d="M11.709 2.91016Q13.75 2.91016 15.5518 2.12891Q17.3535 1.34766 18.7305-0.0292969Q20.1074-1.40625 20.8887-3.20801Q21.6699-5.00977 21.6699-7.05078Q21.6699-9.0918 20.8887-10.8936Q20.1074-12.6953 18.7305-14.0723Q17.3535-15.4492 15.5469-16.2305Q13.7402-17.0117 11.6992-17.0117Q9.6582-17.0117 7.85645-16.2305Q6.05469-15.4492 4.68262-14.0723Q3.31055-12.6953 2.5293-10.8936Q1.74805-9.0918 1.74805-7.05078Q1.74805-5.00977 2.5293-3.20801Q3.31055-1.40625 4.6875-0.0292969Q6.06445 1.34766 7.86621 2.12891Q9.66797 2.91016 11.709 2.91016ZM11.709 1.25Q9.98047 1.25 8.47656 0.605469Q6.97266-0.0390625 5.83496-1.17676Q4.69727-2.31445 4.05762-3.81836Q3.41797-5.32227 3.41797-7.05078Q3.41797-8.7793 4.05762-10.2832Q4.69727-11.7871 5.83008-12.9297Q6.96289-14.0723 8.4668-14.7119Q9.9707-15.3516 11.6992-15.3516Q13.4277-15.3516 14.9316-14.7119Q16.4355-14.0723 17.5781-12.9297Q18.7207-11.7871 19.3652-10.2832Q20.0098-8.7793 20.0098-7.05078Q20.0098-5.32227 19.3701-3.81836Q18.7305-2.31445 17.5928-1.17676Q16.4551-0.0390625 14.9463 0.605469Q13.4375 1.25 11.709 1.25ZM7.17773-7.05078Q7.17773-6.69922 7.41211-6.47461Q7.64648-6.25 8.01758-6.25L10.8887-6.25L10.8887-3.36914Q10.8887-2.99805 11.1133-2.76855Q11.3379-2.53906 11.6895-2.53906Q12.0605-2.53906 12.29-2.76855Q12.5195-2.99805 12.5195-3.36914L12.5195-6.25L15.4004-6.25Q15.7715-6.25 16.001-6.47461Q16.2305-6.69922 16.2305-7.05078Q16.2305-7.42188 16.001-7.65137Q15.7715-7.88086 15.4004-7.88086L12.5195-7.88086L12.5195-10.752Q12.5195-11.1328 12.29-11.3623Q12.0605-11.5918 11.6895-11.5918Q11.3379-11.5918 11.1133-11.3574Q10.8887-11.123 10.8887-10.752L10.8887-7.88086L8.01758-7.88086Q7.63672-7.88086 7.40723-7.65137Q7.17773-7.42188 7.17773-7.05078Z"/>
  </g>
  <g transform="matrix(1 0 0 1 305.646 1933)">
   <path d="M14.9707 5.66406Q17.0605 5.66406 18.96 5.01465Q20.8594 4.36523 22.4512 3.19336Q24.043 2.02148 25.2197 0.429688Q26.3965-1.16211 27.0459-3.06641Q27.6953-4.9707 27.6953-7.05078Q27.6953-9.14062 27.0459-11.04Q26.3965-12.9395 25.2197-14.5312Q24.043-16.123 22.4512-17.2998Q20.8594-18.4766 18.9551-19.126Q17.0508-19.7754 14.9609-19.7754Q12.8711-19.7754 10.9717-19.126Q9.07227-18.4766 7.48535-17.2998Q5.89844-16.123 4.72168-14.5312Q3.54492-12.9395 2.90039-11.04Q2.25586-9.14062 2.25586-7.05078Q2.25586-4.9707 2.90527-3.06641Q3.55469-1.16211 4.72656 0.429688Q5.89844 2.02148 7.49023 3.19336Q9.08203 4.36523 10.9814 5.01465Q12.8809 5.66406 14.9707 5.66406ZM14.9707 3.84766Q13.1641 3.84766 11.5283 3.2959Q9.89258 2.74414 8.53516 1.74805Q7.17773 0.751953 6.17676-0.610352Q5.17578-1.97266 4.62891-3.6084Q4.08203-5.24414 4.08203-7.05078Q4.08203-8.86719 4.62891-10.5029Q5.17578-12.1387 6.17188-13.501Q7.16797-14.8633 8.52539-15.8594Q9.88281-16.8555 11.5186-17.4023Q13.1543-17.9492 14.9609-17.9492Q16.7773-17.9492 18.4131-17.4023Q20.0488-16.8555 21.4111-15.8594Q22.7734-14.8633 23.7695-13.501Q24.7656-12.1387 25.3174-10.5029Q25.8691-8.86719 25.8691-7.05078Q25.8789-5.24414 25.332-3.6084Q24.7852-1.97266 23.7842-0.610352Q22.7832 0.751953 21.4209 1.74805Q20.0586 2.74414 18.4229 3.2959Q16.7871 3.84766 14.9707 3.84766ZM9.19922-7.05078Q9.19922-6.66992 9.45801-6.4209Q9.7168-6.17188 10.1172-6.17188L14.0625-6.17188L14.0625-2.2168Q14.0625-1.81641 14.3115-1.55762Q14.5605-1.29883 14.9512-1.29883Q15.3516-1.29883 15.6104-1.55273Q15.8691-1.80664 15.8691-2.2168L15.8691-6.17188L19.8242-6.17188Q20.2246-6.17188 20.4785-6.4209Q20.7324-6.66992 20.7324-7.05078Q20.7324-7.46094 20.4785-7.71484Q20.2246-7.96875 19.8242-7.96875L15.8691-7.96875L15.8691-11.9141Q15.8691-12.3242 15.6104-12.583Q15.3516-12.8418 14.9512-12.8418Q14.5605-12.8418 14.3115-12.583Q14.0625-12.3242 14.0625-11.9141L14.0625-7.96875L10.1172-7.96875Q9.70703-7.96875 9.45312-7.71484Q9.19922-7.46094 9.19922-7.05078Z"/>
  </g>
  <text style="stroke:none;fill:black;font-family:sans-serif;font-size:13;font-weight:bold;" transform="matrix(1 0 0 1 263 1953)">Design Variations</text>
  <text style="stroke:none;fill:black;font-family:sans-serif;font-size:13;" transform="matrix(1 0 0 1 263 1971)">Symbols are supported in up to nine weights and three scales.</text>
  <text style="stroke:none;fill:black;font-family:sans-serif;font-size:13;" transform="matrix(1 0 0 1 263 1989)">For optimal layout with text and other symbols, vertically align</text>
  <text style="stroke:none;fill:black;font-family:sans-serif;font-size:13;" transform="matrix(1 0 0 1 263 2007)">symbols with the adjacent text.</text>
  <line style="fill:none;stroke:#00AEEF;stroke-width:0.5;opacity:1.0;" x1="776" x2="776" y1="1919" y2="1933"/>
  <g transform="matrix(1 0 0 1 776 1933)">
   <path d="M3.31055 0.15625Q3.70117 0.15625 3.91602-0.00976562Q4.13086-0.175781 4.26758-0.585938L5.52734-4.0332L11.2891-4.0332L12.5488-0.585938Q12.6855-0.175781 12.9004-0.00976562Q13.1152 0.15625 13.4961 0.15625Q13.8867 0.15625 14.1162-0.0585938Q14.3457-0.273438 14.3457-0.644531Q14.3457-0.869141 14.2383-1.17188L9.6582-13.3691Q9.48242-13.8184 9.17969-14.043Q8.87695-14.2676 8.4082-14.2676Q7.5-14.2676 7.17773-13.3789L2.59766-1.16211Q2.49023-0.859375 2.49023-0.634766Q2.49023-0.263672 2.70996-0.0537109Q2.92969 0.15625 3.31055 0.15625ZM6.00586-5.51758L8.37891-12.0898L8.42773-12.0898L10.8008-5.51758Z"/>
  </g>
  <line style="fill:none;stroke:#00AEEF;stroke-width:0.5;opacity:1.0;" x1="793.197" x2="793.197" y1="1919" y2="1933"/>
  <text style="stroke:none;fill:black;font-family:sans-serif;font-size:13;font-weight:bold;" transform="matrix(1 0 0 1 776 1953)">Margins</text>
  <text style="stroke:none;fill:black;font-family:sans-serif;font-size:13;" transform="matrix(1 0 0 1 776 1971)">Leading and trailing margins on the left and right side of each symbol</text>
  <text style="stroke:none;fill:black;font-family:sans-serif;font-size:13;" transform="matrix(1 0 0 1 776 1989)">can be adjusted by modifying the x-location of the margin guidelines.</text>
  <text style="stroke:none;fill:black;font-family:sans-serif;font-size:13;" transform="matrix(1 0 0 1 776 2007)">Modifications are automatically applied proportionally to all</text>
  <text style="stroke:none;fill:black;font-family:sans-serif;font-size:13;" transform="matrix(1 0 0 1 776 2025)">scales and weights.</text>
  <g transform="matrix(1 0 0 1 1289 1933)">
   <path d="M2.8418 1.86523L4.54102 3.57422Q5.18555 4.22852 5.90332 4.17969Q6.62109 4.13086 7.31445 3.35938L18.0078-8.42773L17.041-9.4043L6.42578 2.27539Q6.16211 2.57812 5.89355 2.61719Q5.625 2.65625 5.27344 2.30469L4.10156 1.14258Q3.75 0.791016 3.79395 0.522461Q3.83789 0.253906 4.14062-0.0195312L15.6152-10.8203L14.6387-11.7871L3.04688-0.898438Q2.30469-0.214844 2.25098 0.498047Q2.19727 1.21094 2.8418 1.86523ZM9.25781-16.3281Q8.94531-16.0254 8.90625-15.6348Q8.86719-15.2441 9.04297-14.9512Q9.21875-14.6777 9.55566-14.541Q9.89258-14.4043 10.3809-14.5215Q11.4746-14.7754 12.5977-14.7314Q13.7207-14.6875 14.7949-13.9844L14.209-12.5293Q13.9551-11.9043 14.0674-11.4404Q14.1797-10.9766 14.5801-10.5664L16.875-8.25195Q17.2363-7.88086 17.5781-7.82227Q17.9199-7.76367 18.3398-7.8418L19.4043-8.03711L20.0684-7.36328L20.0293-6.80664Q20-6.43555 20.1221-6.12305Q20.2441-5.81055 20.6055-5.44922L21.3672-4.70703Q21.7285-4.3457 22.1533-4.33105Q22.5781-4.31641 22.9297-4.66797L25.8398-7.58789Q26.1914-7.93945 26.1816-8.35449Q26.1719-8.76953 25.8105-9.13086L25.0391-9.89258Q24.6875-10.2539 24.3799-10.3857Q24.0723-10.5176 23.7109-10.4883L23.1348-10.4395L22.4902-11.0742L22.7344-12.1973Q22.832-12.6172 22.6953-12.9834Q22.5586-13.3496 22.1191-13.7891L19.9219-15.9766Q18.6719-17.2168 17.2607-17.8369Q15.8496-18.457 14.4189-18.4814Q12.9883-18.5059 11.665-17.959Q10.3418-17.4121 9.25781-16.3281ZM10.752-15.957Q11.6602-16.6211 12.7002-16.9043Q13.7402-17.1875 14.8047-17.085Q15.8691-16.9824 16.8701-16.5137Q17.8711-16.0449 18.7012-15.2051L21.1328-12.793Q21.3086-12.6172 21.3525-12.4512Q21.3965-12.2852 21.3379-12.0312L21.0156-10.5469L22.5195-9.0625L23.5059-9.12109Q23.6914-9.13086 23.7891-9.09668Q23.8867-9.0625 24.0332-8.91602L24.6094-8.33984L22.168-5.89844L21.5918-6.47461Q21.4453-6.62109 21.4062-6.71875Q21.3672-6.81641 21.377-7.01172L21.4453-7.98828L19.9512-9.47266L18.4277-9.21875Q18.1836-9.16992 18.042-9.2041Q17.9004-9.23828 17.7148-9.41406L15.7129-11.416Q15.5176-11.5918 15.4932-11.7529Q15.4688-11.9141 15.5859-12.1875L16.4648-14.2773Q15.293-15.3711 13.8281-15.791Q12.3633-16.2109 10.8398-15.7617Q10.7227-15.7324 10.6885-15.8057Q10.6543-15.8789 10.752-15.957Z"/>
  </g>
  <text style="stroke:none;fill:black;font-family:sans-serif;font-size:13;font-weight:bold;" transform="matrix(1 0 0 1 1289 1953)">Exporting</text>
  <text style="stroke:none;fill:black;font-family:sans-serif;font-size:13;" transform="matrix(1 0 0 1 1289 1971)">Symbols should be outlined when exporting to ensure the</text>
  <text style="stroke:none;fill:black;font-family:sans-serif;font-size:13;" transform="matrix(1 0 0 1 1289 1989)">design is preserved when submitting to Xcode.</text>
  <text id="template-version" style="stroke:none;fill:black;font-family:sans-serif;font-size:13;text-anchor:end;" transform="matrix(1 0 0 1 3036 1933)">Template v.3.0</text>
  <text style="stroke:none;fill:black;font-family:sans-serif;font-size:13;text-anchor:end;" transform="matrix(1 0 0 1 3036 1951)">Requires Xcode 13 or greater</text>
  <text id="descriptive-name" style="stroke:none;fill:black;font-family:sans-serif;font-size:13;text-anchor:end;" transform="matrix(1 0 0 1 3036 1969)">Generated from hands.sparkles</text>
  <text style="stroke:none;fill:black;font-family:sans-serif;font-size:13;text-anchor:end;" transform="matrix(1 0 0 1 3036 1987)">Typeset at 100 points</text>
  <text style="stroke:none;fill:black;font-family:sans-serif;font-size:13;" transform="matrix(1 0 0 1 263 726)">Small</text>
  <text style="stroke:none;fill:black;font-family:sans-serif;font-size:13;" transform="matrix(1 0 0 1 263 1156)">Medium</text>
  <text style="stroke:none;fill:black;font-family:sans-serif;font-size:13;" transform="matrix(1 0 0 1 263 1586)">Large</text>
 </g>
 <g id="Guides">
  <g id="H-reference" style="fill:#27AAE1;stroke:none;" transform="matrix(1 0 0 1 339 696)">
   <path d="M0.993347 0L3.6377 0L29.3282-67.1326L30.0301-67.1326L30.0301-70.459L28.1227-70.459ZM11.6882-24.4797L46.9818-24.4797L46.2311-26.7288L12.4382-26.7288ZM55.1193 0L57.7637 0L30.6381-70.459L29.4327-70.459L29.4327-67.1326Z"/>
  </g>
  <line id="Baseline-S" style="fill:none;stroke:#27AAE1;opacity:1;stroke-width:0.5;" x1="263" x2="3036" y1="696" y2="696"/>
  <line id="Capline-S" style="fill:none;stroke:#27AAE1;opacity:1;stroke-width:0.5;" x1="263" x2="3036" y1="625.541" y2="625.541"/>
  <g id="H-reference" style="fill:#27AAE1;stroke:none;" transform="matrix(1 0 0 1 339 1126)">
   <path d="M0.993347 0L3.6377 0L29.3282-67.1326L30.0301-67.1326L30.0301-70.459L28.1227-70.459ZM11.6882-24.4797L46.9818-24.4797L46.2311-26.7288L12.4382-26.7288ZM55.1193 0L57.7637 0L30.6381-70.459L29.4327-70.459L29.4327-67.1326Z"/>
  </g>
  <line id="Baseline-M" style="fill:none;stroke:#27AAE1;opacity:1;stroke-width:0.5;" x1="263" x2="3036" y1="1126" y2="1126"/>
  <line id="Capline-M" style="fill:none;stroke:#27AAE1;opacity:1;stroke-width:0.5;" x1="263" x2="3036" y1="1055.54" y2="1055.54"/>
  <g id="H-reference" style="fill:#27AAE1;stroke:none;" transform="matrix(1 0 0 1 339 1556)">
   <path d="M0.993347 0L3.6377 0L29.3282-67.1326L30.0301-67.1326L30.0301-70.459L28.1227-70.459ZM11.6882-24.4797L46.9818-24.4797L46.2311-26.7288L12.4382-26.7288ZM55.1193 0L57.7637 0L30.6381-70.459L29.4327-70.459L29.4327-67.1326Z"/>
  </g>
  <line id="Baseline-L" style="fill:none;stroke:#27AAE1;opacity:1;stroke-width:0.5;" x1="263" x2="3036" y1="1556" y2="1556"/>
  <line id="Capline-L" style="fill:none;stroke:#27AAE1;opacity:1;stroke-width:0.5;" x1="263" x2="3036" y1="1485.54" y2="1485.54"/>
  <line id="left-margin-Ultralight-S" style="fill:none;stroke:#00AEEF;stroke-width:0.5;opacity:1.0;" x1="509.636" x2="509.636" y1="600.785" y2="720.121"/>
  <line id="right-margin-Ultralight-S" style="fill:none;stroke:#00AEEF;stroke-width:0.5;opacity:1.0;" x1="609.786" x2="609.786" y1="600.785" y2="720.121"/>
  <line id="left-margin-Regular-S" style="fill:none;stroke:#00AEEF;stroke-width:0.5;opacity:1.0;" x1="1395.21" x2="1395.21" y1="600.785" y2="720.121"/>
  <line id="right-margin-Regular-S" style="fill:none;stroke:#00AEEF;stroke-width:0.5;opacity:1.0;" x1="1504.48" x2="1504.48" y1="600.785" y2="720.121"/>
  <line id="left-margin-Black-S" style="fill:none;stroke:#00AEEF;stroke-width:0.5;opacity:1.0;" x1="2870.09" x2="2870.09" y1="600.785" y2="720.121"/>
  <line id="right-margin-Black-S" style="fill:none;stroke:#00AEEF;stroke-width:0.5;opacity:1.0;" x1="2996.71" x2="2996.71" y1="600.785" y2="720.121"/>
 </g>
 <g id="Symbols">
  <g id="Black-S" transform="matrix(1 0 0 1 2870.09 696)">
   <path d="M83.3496-67.041Q85.0586-67.041 85.2051-68.7988Q85.5469-71.8262 85.9375-73.5352Q86.3281-75.2441 87.207-76.123Q88.0859-77.002 89.8682-77.4658Q91.6504-77.9297 94.7754-78.3691Q96.5332-78.6133 96.5332-80.2246Q96.5332-81.7383 94.9707-81.9824Q91.748-82.666 89.917-83.1543Q88.0859-83.6426 87.207-84.4727Q86.3281-85.3027 85.9375-86.9629Q85.5469-88.623 85.2051-91.6504Q85.0586-93.3105 83.3496-93.3105Q81.7383-93.3105 81.5918-91.6992Q81.2012-88.5742 80.7861-86.792Q80.3711-85.0098 79.5166-84.1309Q78.6621-83.252 76.8555-82.8369Q75.0488-82.4219 71.875-81.9824Q70.2637-81.8359 70.2637-80.2246Q70.2637-78.6621 71.8262-78.3691Q75.0488-77.6855 76.8555-77.1729Q78.6621-76.6602 79.541-75.8301Q80.4199-75 80.8105-73.3398Q81.2012-71.6797 81.5918-68.6523Q81.7383-67.041 83.3496-67.041ZM52.1973-76.8555Q53.1738-76.8555 53.3203-77.9297Q53.6621-80.4688 54.0283-81.5674Q54.3945-82.666 55.5176-83.0566Q56.6406-83.4473 59.2285-83.8867Q60.4004-84.1309 60.4004-85.0098Q60.4004-85.9863 59.375-86.1328Q56.6895-86.7188 55.5176-87.1338Q54.3457-87.5488 53.9795-88.5986Q53.6133-89.6484 53.3203-92.0898Q53.1738-93.1641 52.1973-93.1641Q51.1719-93.1641 51.0742-92.1387Q50.7324-89.5508 50.3662-88.4033Q50-87.2559 48.877-86.8896Q47.7539-86.5234 45.0684-86.1328Q43.9941-86.0352 43.9941-85.0098Q43.9941-84.1309 45.0195-83.8867Q47.7051-83.3496 48.8525-82.9346Q50-82.5195 50.3662-81.4453Q50.7324-80.3711 51.0742-77.8809Q51.1719-76.8555 52.1973-76.8555ZM21.7773 19.3359Q23.291 19.3359 23.4375 17.7734Q23.8281 14.9902 24.1943 13.4277Q24.5605 11.8652 25.3174 11.084Q26.0742 10.3027 27.6855 9.91211Q29.2969 9.52148 32.1777 9.0332Q33.8379 8.74023 33.8379 7.32422Q33.8379 6.00586 32.373 5.66406Q29.3945 5.07812 27.7344 4.63867Q26.0742 4.19922 25.2686 3.41797Q24.4629 2.63672 24.1211 1.14746Q23.7793-0.341797 23.4375-3.02734Q23.291-4.63867 21.7773-4.63867Q20.3613-4.63867 20.1172-3.07617Q19.7754-0.244141 19.4092 1.36719Q19.043 2.97852 18.2617 3.75977Q17.4805 4.54102 15.8447 4.90723Q14.209 5.27344 11.2793 5.66406Q9.76562 5.9082 9.76562 7.32422Q9.76562 8.69141 11.2305 9.0332Q14.209 9.61914 15.8447 10.0586Q17.4805 10.498 18.2373 11.2793Q18.9941 12.0605 19.3604 13.5986Q19.7266 15.1367 20.1172 17.8711Q20.3613 19.3359 21.7773 19.3359ZM91.0645 5.61523Q100.244-3.56445 101.831-14.624Q103.418-25.6836 97.4609-38.3301L88.3301-57.666Q87.1582-60.2539 85.2051-62.1582Q82.1777-65.2344 77.9785-65.4053Q73.7793-65.5762 70.459-62.2559Q68.8477-60.6445 68.1152-58.3496Q67.3828-56.0547 68.1152-53.9062L68.1152-53.7598Q68.1641-53.6133 68.1152-53.5156Q67.9688-53.418 67.8223-53.5156L51.123-70.2637Q47.6562-73.7305 43.1641-73.6084Q38.6719-73.4863 35.1074-69.9219Q34.6191-69.4336 34.1797-68.8721Q33.7402-68.3105 33.3496-67.6758Q30.4688-68.6035 27.5879-67.8223Q24.707-67.041 22.2656-64.5996Q19.9707-62.3047 19.1895-59.3994Q18.4082-56.4941 19.2383-53.6621Q18.2129-53.0273 17.334-52.1484Q13.9648-48.7793 13.8428-44.5312Q13.7207-40.2832 16.8457-37.1582L17.1387-36.9141Q16.748-36.6211 16.3818-36.3525Q16.0156-36.084 15.6738-35.7422Q12.3047-32.373 12.3291-27.9053Q12.3535-23.4375 15.6738-20.1172L41.3574 5.56641Q48.877 13.0859 57.5439 15.6006Q66.2109 18.1152 74.8779 15.625Q83.5449 13.1348 91.0645 5.61523ZM82.2754-2.73438Q77.1484 2.39258 71.4111 4.07715Q65.6738 5.76172 59.8877 4.00391Q54.1016 2.24609 48.7793-3.07617L24.8047-27.0996Q24.5117-27.3926 24.5117-27.8076Q24.5117-28.2227 24.8047-28.5645Q25.0977-28.8574 25.5127-28.8574Q25.9277-28.8574 26.2695-28.5645L40.6738-14.1113Q42.0898-12.6953 44.1162-12.6953Q46.1426-12.6953 47.5586-14.1602Q48.9746-15.5762 48.9746-17.5781Q48.9746-19.5801 47.5586-20.9961L25.6348-42.9199Q25.3418-43.2129 25.3418-43.6279Q25.3418-44.043 25.6348-44.3359Q25.9277-44.6777 26.3428-44.6777Q26.7578-44.6777 27.0996-44.3359L47.4609-23.9746Q48.877-22.5586 50.8789-22.583Q52.8809-22.6074 54.3457-24.0234Q55.7617-25.4395 55.7617-27.4414Q55.7617-29.4434 54.3457-30.8594L30.1758-54.9805Q29.8828-55.3223 29.8828-55.7373Q29.8828-56.1523 30.1758-56.4453Q30.5176-56.7383 30.9326-56.7383Q31.3477-56.7383 31.6406-56.4453L53.9062-34.1797Q55.3223-32.7637 57.3486-32.7637Q59.375-32.7637 60.791-34.1797Q62.207-35.6445 62.207-37.6221Q62.207-39.5996 60.791-41.0645L42.2852-59.5703Q41.9434-59.8633 41.9434-60.2539Q41.9434-60.6445 42.2363-60.9863Q42.5293-61.2793 42.9688-61.3037Q43.4082-61.3281 43.7012-60.9863L72.2168-32.5195Q74.1211-30.6152 76.3184-30.8594Q78.5156-31.1035 79.9805-32.6172Q81.1523-33.8379 81.6406-35.6201Q82.1289-37.4023 81.3965-39.2578L76.416-52.0508Q76.2207-52.6367 76.4404-53.0518Q76.6602-53.4668 77.002-53.6133Q77.3926-53.7598 77.8076-53.6133Q78.2227-53.4668 78.418-53.0273L87.1094-33.3984Q91.3086-24.0234 90.2344-16.8213Q89.1602-9.61914 82.2754-2.73438ZM52.6855-70.8984Q52.2461-70.5078 51.8311-70.0684Q51.416-69.6289 50.9766-69.2383L59.1309-58.6426Q58.6914-59.7656 58.667-60.5713Q58.6426-61.377 59.1309-61.7676Q59.668-62.207 60.376-62.1826Q61.084-62.1582 61.6699-61.5723L71.0938-52.1973L78.8574-61.084L68.7012-71.2402Q65.2344-74.707 60.8398-74.5361Q56.4453-74.3652 52.6855-70.8984ZM105.713 5.61523Q114.893-3.56445 116.479-14.624Q118.066-25.6836 112.109-38.3301L102.979-57.666Q101.465-60.9375 98.6816-63.208Q95.8984-65.4785 92.2852-65.3809Q91.0645-65.3809 89.0137-64.6973Q86.9629-64.0137 85.3271-62.1338Q83.6914-60.2539 83.6914-56.543Q83.6914-56.3477 83.6914-56.1768Q83.6914-56.0059 83.6914-55.8105L91.0645-51.6602Q90.918-52.0996 90.918-52.5879Q90.918-53.125 91.2354-53.418Q91.5527-53.7109 92.0898-53.7109Q92.7734-53.7109 93.0664-53.0273L101.758-33.3984Q105.908-24.0234 104.858-16.8213Q103.809-9.61914 96.9238-2.73438Q89.8926 4.29688 81.8848 4.88281L68.3594 14.1602Q77.7344 18.2617 87.5244 16.1133Q97.3145 13.9648 105.713 5.61523Z"/>
  </g>
  <g id="Regular-S" transform="matrix(1 0 0 1 1395.21 696)">
   <path d="M68.7012-63.623Q69.9219-63.623 69.9707-64.8926Q70.3613-68.1641 70.8252-70.0684Q71.2891-71.9727 72.2656-72.9492Q73.2422-73.9258 75.1953-74.4385Q77.1484-74.9512 80.5176-75.4883Q81.8359-75.6348 81.8359-76.7578Q81.8359-77.7832 80.7129-77.9785Q77.2949-78.6133 75.3174-79.126Q73.3398-79.6387 72.3145-80.5908Q71.2891-81.543 70.8252-83.3984Q70.3613-85.2539 69.9707-88.5742Q69.9219-89.7949 68.7012-89.7949Q67.5781-89.7949 67.4805-88.623Q67.041-85.2051 66.6016-83.2764Q66.1621-81.3477 65.1611-80.3711Q64.1602-79.3945 62.1826-78.9062Q60.2051-78.418 56.7383-77.9785Q55.6152-77.8809 55.6152-76.7578Q55.6152-75.6348 56.7383-75.4883Q60.2051-74.8047 62.1826-74.2676Q64.1602-73.7305 65.1367-72.7783Q66.1133-71.8262 66.5771-69.9707Q67.041-68.1152 67.4805-64.7949Q67.5781-63.623 68.7012-63.623ZM42.9688-74.1211Q43.7988-74.1211 43.9941-75Q44.5312-77.7344 44.9707-78.9307Q45.4102-80.127 46.582-80.5664Q47.7539-81.0059 50.4883-81.543Q51.3672-81.7383 51.3672-82.5195Q51.3672-83.3008 50.4883-83.5449Q47.7539-84.082 46.582-84.5215Q45.4102-84.9609 44.9707-86.1328Q44.5312-87.3047 43.9941-90.0391Q43.75-90.918 42.9688-90.918Q42.1387-90.918 41.9922-90.0391Q41.4062-87.3047 40.9668-86.1328Q40.5273-84.9609 39.3555-84.5215Q38.1836-84.082 35.4492-83.5449Q34.5215-83.3008 34.5215-82.5195Q34.5215-81.7383 35.4492-81.543Q38.1836-80.957 39.3555-80.5176Q40.5273-80.0781 40.9668-78.9062Q41.4062-77.7344 41.9922-75Q42.1387-74.1211 42.9688-74.1211ZM20.9961 12.9395Q21.9238 12.9395 22.0703 11.9629Q22.6562 9.13086 23.0713 7.51953Q23.4863 5.9082 24.292 5.10254Q25.0977 4.29688 26.7334 3.83301Q28.3691 3.36914 31.2988 2.7832Q32.3242 2.53906 32.3242 1.66016Q32.3242 0.732422 31.2988 0.585938Q28.3691 0 26.7578-0.488281Q25.1465-0.976562 24.3408-1.78223Q23.5352-2.58789 23.0957-4.19922Q22.6562-5.81055 22.0703-8.64258Q21.9238-9.61914 20.9961-9.61914Q20.166-9.61914 19.9219-8.64258Q19.3359-5.81055 18.9209-4.19922Q18.5059-2.58789 17.7246-1.78223Q16.9434-0.976562 15.332-0.488281Q13.7207 0 10.7422 0.585938Q9.76562 0.732422 9.76562 1.66016Q9.76562 2.53906 10.7422 2.7832Q13.7207 3.36914 15.332 3.83301Q16.9434 4.29688 17.7246 5.10254Q18.5059 5.9082 18.9453 7.51953Q19.3848 9.13086 19.9219 11.9629Q20.166 12.9395 20.9961 12.9395ZM80.9082 1.66016Q88.2324-5.66406 89.3799-14.7461Q90.5273-23.8281 85.4492-34.5215L77.002-52.3438Q76.0254-54.3457 74.7559-55.6152Q72.4609-57.8613 69.5557-57.7881Q66.6504-57.7148 64.502-55.5664Q63.0371-54.1016 62.6709-52.0508Q62.3047-50 63.2324-47.7051L65.2344-42.7734Q65.332-42.5293 65.1855-42.3828Q64.9902-42.1875 64.7461-42.4316L43.8477-63.2812Q41.4062-65.7227 38.5498-65.7471Q35.6934-65.7715 33.3008-63.3789Q32.4707-62.5488 32.0068-61.5479Q31.543-60.5469 31.4941-59.4727Q29.0527-61.2793 26.5381-61.1328Q24.0234-60.9863 21.9727-58.9355Q19.9707-56.9336 19.8486-54.4189Q19.7266-51.9043 21.3867-49.5117Q19.3359-49.4629 17.8223-47.9004Q15.625-45.7031 15.6982-42.9688Q15.7715-40.2344 18.0664-37.9883L20.8984-35.1562Q19.7754-35.1562 18.7012-34.668Q17.627-34.1797 16.748-33.3008Q14.5508-31.1035 14.6484-28.2471Q14.7461-25.3906 17.0898-23.0469L40.5273 0.390625Q46.875 6.73828 53.9795 8.98438Q61.084 11.2305 68.042 9.39941Q75 7.56836 80.9082 1.66016ZM76.5137-2.44141Q71.6309 2.39258 66.1621 3.80859Q60.6934 5.22461 55.0537 3.22266Q49.4141 1.2207 43.9941-4.19922L21.582-26.6113Q20.8008-27.3926 20.8008-28.3447Q20.8008-29.2969 21.5332-30.0781Q22.3145-30.8105 23.291-30.835Q24.2676-30.8594 25.0488-30.0781L39.0137-16.1133Q39.7949-15.332 40.8936-15.3809Q41.9922-15.4297 42.7246-16.2109Q43.5059-16.9434 43.5791-18.0664Q43.6523-19.1895 42.8711-19.9707L22.0703-40.7715Q21.2891-41.5527 21.2891-42.5049Q21.2891-43.457 22.0215-44.2383Q22.8027-44.9707 23.7793-44.9951Q24.7559-45.0195 25.4883-44.2383L44.9219-24.8047Q45.752-24.0234 46.8262-24.0723Q47.9004-24.1211 48.6816-24.9023Q49.4141-25.6836 49.5117-26.7822Q49.6094-27.8809 48.8281-28.6621L25.9277-51.5137Q25.1953-52.2949 25.1953-53.2715Q25.1953-54.248 25.9277-54.9805Q26.6602-55.7129 27.6611-55.7373Q28.6621-55.7617 29.3945-54.9805L52.2461-32.1289Q53.0273-31.3477 54.126-31.3965Q55.2246-31.4453 55.957-32.2266Q56.7383-33.0078 56.8115-34.1064Q56.8848-35.2051 56.1523-35.9863L36.7188-55.4199Q35.9375-56.2012 35.9375-57.1533Q35.9375-58.1055 36.6699-58.8867Q37.4512-59.6191 38.4277-59.6191Q39.4043-59.6191 40.1367-58.8867L66.9434-32.0801Q68.0176-31.0059 69.1895-30.957Q70.3613-30.9082 71.2402-31.7871Q72.0215-32.5684 72.2656-33.6426Q72.5098-34.7168 71.875-36.3281L67.1875-49.0234Q66.748-50.1953 67.1143-51.0742Q67.4805-51.9531 68.4082-52.3438Q69.3848-52.832 70.2148-52.3926Q71.0449-51.9531 71.6797-50.6836L80.4199-32.0801Q85.0098-22.3145 83.5693-15.21Q82.1289-8.10547 76.5137-2.44141ZM43.2129-66.8457Q42.3828-66.0156 41.9434-64.9902Q41.5039-63.9648 41.4062-62.9395L46.6309-58.8867Q45.8496-59.6191 45.8496-60.5957Q45.8496-61.5723 46.6309-62.3047Q47.3633-63.0859 48.3398-63.0859Q49.3164-63.0859 50.0977-62.3047L63.0859-49.2676L66.748-53.8086L53.7598-66.748Q51.3184-69.1895 48.4619-69.2139Q45.6055-69.2383 43.2129-66.8457ZM90.8203-1.80664Q98.1445-9.13086 99.292-18.1885Q100.439-27.2461 95.3613-37.9395L86.9141-55.8105Q85.6445-58.4961 83.667-59.8877Q81.6895-61.2793 79.1992-61.2793Q78.0273-61.2793 76.3916-60.6445Q74.7559-60.0098 73.4863-58.4961Q72.2168-56.9824 72.2168-54.2969Q72.2168-54.0039 72.2168-53.6865Q72.2168-53.3691 72.2656-53.0273L77.2949-51.6113Q76.9531-52.3926 76.9531-53.1738Q76.9531-53.9551 77.6123-54.6631Q78.2715-55.3711 79.3457-55.3711Q81.0059-55.3711 81.8359-53.5645L90.332-35.5469Q94.9219-25.7812 93.5059-18.6523Q92.0898-11.5234 86.4258-5.95703Q81.9824-1.46484 77.0508 0.0488281L70.8984 6.73828Q76.2207 6.93359 81.2988 4.78516Q86.377 2.63672 90.8203-1.80664Z"/>
  </g>
  <g id="Ultralight-S" transform="matrix(1 0 0 1 509.636 696)">
   <path d="M60.3912-56.5392Q60.8398-56.5392 60.9344-56.9458Q61.5067-60.6262 61.993-62.6213Q62.4794-64.6164 63.4789-65.593Q64.4783-66.5695 66.5222-67.1047Q68.5661-67.6399 72.2984-68.4044Q72.7997-68.4601 72.7997-68.8568Q72.7997-69.2917 72.3122-69.3962Q68.576-70.1218 66.5306-70.657Q64.4852-71.1922 63.4823-72.1672Q62.4794-73.1422 61.993-75.1339Q61.5067-77.1255 60.9344-80.764Q60.8398-81.2576 60.3912-81.2576Q59.9945-81.2576 59.8969-80.7671Q59.3216-77.1225 58.8367-75.1255Q58.3519-73.1285 57.3734-72.1745Q56.395-71.2204 54.3266-70.6642Q52.2583-70.108 48.5191-69.3962Q48.0316-69.2986 48.0316-68.8568Q48.0316-68.4601 48.5191-68.4044Q52.2583-67.63 54.3266-67.0929Q56.395-66.5558 57.3715-65.5807Q58.3481-64.6057 58.8348-62.5916Q59.3216-60.5774 59.8969-56.9389Q59.9945-56.5392 60.3912-56.5392ZM35.3401-66.0385Q35.6247-66.0385 35.6842-66.3269Q36.1305-69.606 36.6833-71.143Q37.236-72.6799 38.7714-73.3009Q40.3069-73.922 43.8133-74.5041Q44.1925-74.5636 44.1925-74.8451Q44.1925-75.1724 43.8133-75.235Q40.3519-75.9537 38.9305-76.6201Q37.5092-77.2865 37.0014-78.7762Q36.4937-80.2658 35.6842-83.4091Q35.6216-83.6975 35.3401-83.6975Q35.0998-83.6975 35.0449-83.4091Q34.2316-80.2658 33.7467-78.7762Q33.2619-77.2865 31.8401-76.6201Q30.4184-75.9537 26.9119-75.235Q26.5297-75.1724 26.5297-74.8451Q26.5297-74.5636 26.9119-74.5041Q30.4184-73.7823 31.9534-73.1613Q33.4885-72.5403 34.0191-71.0732Q34.5497-69.606 35.0449-66.3269Q35.0998-66.0385 35.3401-66.0385ZM19.5885 10.26Q19.8807 10.26 19.9814 9.96475Q20.3407 7.22351 20.7329 5.61218Q21.125 4.00085 21.9536 3.12729Q22.7821 2.25372 24.4404 1.78986Q26.0986 1.32599 29.0283 0.830841Q29.4182 0.76828 29.4182 0.388336Q29.4182 0.0968933 29.0283 0.0411987Q26.1444-0.544739 24.5785-1.07841Q23.0125-1.61209 22.2523-2.48604Q21.492-3.35999 21.0751-4.90303Q20.6581-6.44608 19.9814-9.09653Q19.8807-9.39178 19.5885-9.39178Q19.3031-9.39178 19.2406-9.09653Q18.5638-6.44608 18.1488-4.90303Q17.7338-3.35999 16.9979-2.48604Q16.2621-1.61209 14.6961-1.07841Q13.1302-0.544739 10.1974 0.0411987Q9.76562 0.0968933 9.76562 0.388336Q9.76562 0.76828 10.1974 0.830841Q13.1302 1.41678 14.7869 1.90315Q16.4436 2.38953 17.2478 3.21808Q18.0519 4.04663 18.4231 5.63507Q18.7943 7.22351 19.2406 9.96475Q19.3031 10.26 19.5885 10.26ZM73.597 1.06964Q79.9225-5.25513 81.0471-13.0657Q82.1716-20.8763 78.093-29.3449L68.692-49.0288Q68.0336-50.3952 67.0815-51.3466Q65.4221-53.0022 63.1981-52.9972Q60.9741-52.9922 59.2346-51.2527Q58.0872-50.1053 57.8117-48.3044Q57.5363-46.5034 58.419-44.3901L63.3728-32.9193Q63.5155-32.5844 63.369-32.3929Q63.1287-32.1976 62.9295-32.4417L37.5359-57.8323Q35.4576-59.8648 33.2142-59.9121Q30.9708-59.9594 29.3045-58.2474Q28.4744-57.4173 28.0334-56.3709Q27.5925-55.3246 27.7252-54.1145Q25.7378-55.9662 23.4501-56.1604Q21.1624-56.3545 19.2932-54.5311Q17.4728-52.6649 17.6006-50.2411Q17.7284-47.8172 19.5251-45.9244Q17.202-46.1479 15.4152-44.3581Q13.7177-42.6605 13.7684-40.4259Q13.8191-38.1912 15.8417-36.1717L19.6724-32.2952Q18.4586-32.4318 17.4068-31.966Q16.3551-31.5002 15.522-30.6671Q13.8245-29.0146 13.8767-26.7712Q13.929-24.5277 16.0004-22.5021L38.3934-0.063324Q44.5595 6.05698 50.8465 7.82623Q57.1335 9.59549 62.9787 7.71904Q68.824 5.84259 73.597 1.06964ZM72.1542-0.398254Q67.7254 4.02756 62.3703 5.71594Q57.0152 7.40433 51.2619 5.72014Q45.5086 4.03595 39.9071-1.61057L17.495-23.9777Q16.169-25.3036 16.0099-26.778Q15.8508-28.2524 17.038-29.4876Q18.2732-30.674 19.8399-30.6076Q21.4066-30.5412 22.7333-29.2152L35.9261-16.0225Q36.4799-15.4686 36.9202-15.4945Q37.3604-15.5205 37.6839-15.802Q37.9662-16.0805 37.9711-16.5451Q37.9761-17.0097 37.4222-17.5636L17.3477-37.5931Q16.0217-38.9641 15.8401-40.416Q15.6586-41.8678 16.89-43.103Q18.0801-44.3352 19.6468-44.2688Q21.2135-44.2024 22.5822-42.8307L41.2437-24.1692Q41.8015-23.6145 42.2626-23.6179Q42.7238-23.6214 43.0054-23.9037Q43.3289-24.1852 43.3132-24.6479Q43.2976-25.1106 42.7429-25.6653L21.0686-47.3358Q19.7464-48.6618 19.6102-50.2972Q19.474-51.9325 20.7054-53.1639Q21.8468-54.3053 23.4154-54.1027Q24.984-53.9001 26.3069-52.5734L48.0232-30.8571Q48.3955-30.4848 48.8583-30.352Q49.321-30.2193 49.736-30.6374Q50.1083-31.0097 50-31.4953Q49.8917-31.9809 49.5224-32.3532L30.8151-51.0605Q29.4441-52.4323 29.3758-53.9745Q29.3076-55.5168 30.5397-56.7528Q31.7749-57.9842 33.2283-57.8026Q34.6817-57.621 36.0046-56.2981L61.8576-30.4451Q62.6137-29.734 63.4678-29.7764Q64.3219-29.8187 64.9284-30.4703Q65.4823-31.0242 65.6132-31.7352Q65.744-32.4463 65.3816-33.2855L60.2852-45.2087Q59.5276-47.0169 59.9167-48.418Q60.3058-49.8192 61.7783-50.5272Q63.2545-51.2428 64.5615-50.5535Q65.8684-49.8642 66.7297-48.1407L76.1971-28.4927Q79.924-20.7703 78.915-13.4617Q77.906-6.15311 72.1542-0.398254ZM38.3995-61.7142Q37.5237-60.8841 37.1071-59.8133Q36.6905-58.7425 36.8202-57.5356L39.8651-54.5273Q38.5841-55.8952 38.4933-57.4394Q38.4026-58.9836 39.6378-60.2158Q40.8241-61.451 42.2775-61.2694Q43.7309-61.0878 45.1027-59.7618L58.091-46.8155L58.6197-49.2676L46.6301-61.2991Q44.5976-63.3316 42.3771-63.356Q40.1566-63.3804 38.3995-61.7142ZM82.692-2.39716Q89.0625-8.67691 90.1646-16.5085Q91.2666-24.3401 87.1872-32.8537L77.787-52.4506Q76.8806-54.364 75.3117-55.3013Q73.7427-56.2386 72.1153-56.2386Q70.4895-56.2386 69.1944-55.5359Q67.8993-54.8332 67.1291-53.569Q66.3589-52.3048 66.3589-50.6187Q66.3589-50.235 66.4272-49.8268Q66.4955-49.4186 66.5894-49.0311L68.9392-48.5237Q68.4158-49.6223 68.4158-50.5402Q68.4158-52.0935 69.3703-53.0964Q70.3247-54.0993 72.1252-54.0993Q74.5575-54.0993 75.7965-51.5663L85.2913-31.9595Q89.0182-24.2371 88.0112-16.9266Q87.0041-9.61609 81.2943-3.8681Q75.8972 1.53198 69.4221 2.77328L66.2666 5.19409Q70.7718 5.16281 74.9416 3.15056Q79.1115 1.13831 82.692-2.39716Z"/>
  </g>
 </g>
</svg>
