<?xml version="1.0" encoding="UTF-8"?>
<!--Generator: Apple Native CoreSVG 175-->
<!DOCTYPE svg
PUBLIC "-//W3C//DTD SVG 1.1//EN"
       "http://www.w3.org/Graphics/SVG/1.1/DTD/svg11.dtd">
<svg version="1.1" xmlns="http://www.w3.org/2000/svg" xmlns:xlink="http://www.w3.org/1999/xlink" width="3300" height="2200">
 <!--glyph: "uni100249.medium", point size: 100.0, font version: "17.3d3e1", template writer version: "65.1"-->
 <g id="Notes">
  <rect height="2200" id="artboard" style="fill:white;opacity:1" width="3300" x="0" y="0"/>
  <line style="fill:none;stroke:black;opacity:1;stroke-width:0.5;" x1="263" x2="3036" y1="292" y2="292"/>
  <text style="stroke:none;fill:black;font-family:sans-serif;font-size:13;font-weight:bold;" transform="matrix(1 0 0 1 263 322)">Weight/Scale Variations</text>
  <text style="stroke:none;fill:black;font-family:sans-serif;font-size:13;text-anchor:middle;" transform="matrix(1 0 0 1 559.711 322)">Ultralight</text>
  <text style="stroke:none;fill:black;font-family:sans-serif;font-size:13;text-anchor:middle;" transform="matrix(1 0 0 1 856.422 322)">Thin</text>
  <text style="stroke:none;fill:black;font-family:sans-serif;font-size:13;text-anchor:middle;" transform="matrix(1 0 0 1 1153.13 322)">Light</text>
  <text style="stroke:none;fill:black;font-family:sans-serif;font-size:13;text-anchor:middle;" transform="matrix(1 0 0 1 1449.84 322)">Regular</text>
  <text style="stroke:none;fill:black;font-family:sans-serif;font-size:13;text-anchor:middle;" transform="matrix(1 0 0 1 1746.56 322)">Medium</text>
  <text style="stroke:none;fill:black;font-family:sans-serif;font-size:13;text-anchor:middle;" transform="matrix(1 0 0 1 2043.27 322)">Semibold</text>
  <text style="stroke:none;fill:black;font-family:sans-serif;font-size:13;text-anchor:middle;" transform="matrix(1 0 0 1 2339.98 322)">Bold</text>
  <text style="stroke:none;fill:black;font-family:sans-serif;font-size:13;text-anchor:middle;" transform="matrix(1 0 0 1 2636.69 322)">Heavy</text>
  <text style="stroke:none;fill:black;font-family:sans-serif;font-size:13;text-anchor:middle;" transform="matrix(1 0 0 1 2933.4 322)">Black</text>
  <line style="fill:none;stroke:black;opacity:1;stroke-width:0.5;" x1="263" x2="3036" y1="1903" y2="1903"/>
  <g transform="matrix(1 0 0 1 263 1933)">
   <path d="M9.24805 0.830078Q10.8691 0.830078 12.2949 0.214844Q13.7207-0.400391 14.8096-1.49414Q15.8984-2.58789 16.5186-4.01367Q17.1387-5.43945 17.1387-7.05078Q17.1387-8.66211 16.5186-10.0879Q15.8984-11.5137 14.8047-12.6074Q13.7109-13.7012 12.2852-14.3164Q10.8594-14.9316 9.23828-14.9316Q7.62695-14.9316 6.20117-14.3164Q4.77539-13.7012 3.69141-12.6074Q2.60742-11.5137 1.9873-10.0879Q1.36719-8.66211 1.36719-7.05078Q1.36719-5.43945 1.9873-4.01367Q2.60742-2.58789 3.69629-1.49414Q4.78516-0.400391 6.21094 0.214844Q7.63672 0.830078 9.24805 0.830078ZM9.24805-0.654297Q7.91992-0.654297 6.7627-1.14746Q5.60547-1.64062 4.73145-2.51953Q3.85742-3.39844 3.36426-4.56055Q2.87109-5.72266 2.87109-7.05078Q2.87109-8.37891 3.35938-9.54102Q3.84766-10.7031 4.72168-11.582Q5.5957-12.4609 6.75293-12.9541Q7.91016-13.4473 9.23828-13.4473Q10.5762-13.4473 11.7334-12.9541Q12.8906-12.4609 13.7695-11.582Q14.6484-10.7031 15.1465-9.54102Q15.6445-8.37891 15.6445-7.05078Q15.6445-5.72266 15.1514-4.56055Q14.6582-3.39844 13.7842-2.51953Q12.9102-1.64062 11.748-1.14746Q10.5859-0.654297 9.24805-0.654297ZM5.6543-7.05078Q5.6543-6.72852 5.85938-6.52832Q6.06445-6.32812 6.40625-6.32812L8.51562-6.32812L8.51562-4.20898Q8.51562-3.88672 8.71094-3.67676Q8.90625-3.4668 9.23828-3.4668Q9.56055-3.4668 9.77051-3.67676Q9.98047-3.88672 9.98047-4.20898L9.98047-6.32812L12.0898-6.32812Q12.4219-6.32812 12.627-6.52832Q12.832-6.72852 12.832-7.05078Q12.832-7.38281 12.627-7.58789Q12.4219-7.79297 12.0898-7.79297L9.98047-7.79297L9.98047-9.90234Q9.98047-10.2344 9.77051-10.4443Q9.56055-10.6543 9.23828-10.6543Q8.90625-10.6543 8.71094-10.4443Q8.51562-10.2344 8.51562-9.90234L8.51562-7.79297L6.40625-7.79297Q6.06445-7.79297 5.85938-7.58789Q5.6543-7.38281 5.6543-7.05078Z"/>
  </g>
  <g transform="matrix(1 0 0 1 281.867 1933)">
   <path d="M11.709 2.91016Q13.75 2.91016 15.5518 2.12891Q17.3535 1.34766 18.7305-0.0292969Q20.1074-1.40625 20.8887-3.20801Q21.6699-5.00977 21.6699-7.05078Q21.6699-9.0918 20.8887-10.8936Q20.1074-12.6953 18.7305-14.0723Q17.3535-15.4492 15.5469-16.2305Q13.7402-17.0117 11.6992-17.0117Q9.6582-17.0117 7.85645-16.2305Q6.05469-15.4492 4.68262-14.0723Q3.31055-12.6953 2.5293-10.8936Q1.74805-9.0918 1.74805-7.05078Q1.74805-5.00977 2.5293-3.20801Q3.31055-1.40625 4.6875-0.0292969Q6.06445 1.34766 7.86621 2.12891Q9.66797 2.91016 11.709 2.91016ZM11.709 1.25Q9.98047 1.25 8.47656 0.605469Q6.97266-0.0390625 5.83496-1.17676Q4.69727-2.31445 4.05762-3.81836Q3.41797-5.32227 3.41797-7.05078Q3.41797-8.7793 4.05762-10.2832Q4.69727-11.7871 5.83008-12.9297Q6.96289-14.0723 8.4668-14.7119Q9.9707-15.3516 11.6992-15.3516Q13.4277-15.3516 14.9316-14.7119Q16.4355-14.0723 17.5781-12.9297Q18.7207-11.7871 19.3652-10.2832Q20.0098-8.7793 20.0098-7.05078Q20.0098-5.32227 19.3701-3.81836Q18.7305-2.31445 17.5928-1.17676Q16.4551-0.0390625 14.9463 0.605469Q13.4375 1.25 11.709 1.25ZM7.17773-7.05078Q7.17773-6.69922 7.41211-6.47461Q7.64648-6.25 8.01758-6.25L10.8887-6.25L10.8887-3.36914Q10.8887-2.99805 11.1133-2.76855Q11.3379-2.53906 11.6895-2.53906Q12.0605-2.53906 12.29-2.76855Q12.5195-2.99805 12.5195-3.36914L12.5195-6.25L15.4004-6.25Q15.7715-6.25 16.001-6.47461Q16.2305-6.69922 16.2305-7.05078Q16.2305-7.42188 16.001-7.65137Q15.7715-7.88086 15.4004-7.88086L12.5195-7.88086L12.5195-10.752Q12.5195-11.1328 12.29-11.3623Q12.0605-11.5918 11.6895-11.5918Q11.3379-11.5918 11.1133-11.3574Q10.8887-11.123 10.8887-10.752L10.8887-7.88086L8.01758-7.88086Q7.63672-7.88086 7.40723-7.65137Q7.17773-7.42188 7.17773-7.05078Z"/>
  </g>
  <g transform="matrix(1 0 0 1 305.646 1933)">
   <path d="M14.9707 5.66406Q17.0605 5.66406 18.96 5.01465Q20.8594 4.36523 22.4512 3.19336Q24.043 2.02148 25.2197 0.429688Q26.3965-1.16211 27.0459-3.06641Q27.6953-4.9707 27.6953-7.05078Q27.6953-9.14062 27.0459-11.04Q26.3965-12.9395 25.2197-14.5312Q24.043-16.123 22.4512-17.2998Q20.8594-18.4766 18.9551-19.126Q17.0508-19.7754 14.9609-19.7754Q12.8711-19.7754 10.9717-19.126Q9.07227-18.4766 7.48535-17.2998Q5.89844-16.123 4.72168-14.5312Q3.54492-12.9395 2.90039-11.04Q2.25586-9.14062 2.25586-7.05078Q2.25586-4.9707 2.90527-3.06641Q3.55469-1.16211 4.72656 0.429688Q5.89844 2.02148 7.49023 3.19336Q9.08203 4.36523 10.9814 5.01465Q12.8809 5.66406 14.9707 5.66406ZM14.9707 3.84766Q13.1641 3.84766 11.5283 3.2959Q9.89258 2.74414 8.53516 1.74805Q7.17773 0.751953 6.17676-0.610352Q5.17578-1.97266 4.62891-3.6084Q4.08203-5.24414 4.08203-7.05078Q4.08203-8.86719 4.62891-10.5029Q5.17578-12.1387 6.17188-13.501Q7.16797-14.8633 8.52539-15.8594Q9.88281-16.8555 11.5186-17.4023Q13.1543-17.9492 14.9609-17.9492Q16.7773-17.9492 18.4131-17.4023Q20.0488-16.8555 21.4111-15.8594Q22.7734-14.8633 23.7695-13.501Q24.7656-12.1387 25.3174-10.5029Q25.8691-8.86719 25.8691-7.05078Q25.8789-5.24414 25.332-3.6084Q24.7852-1.97266 23.7842-0.610352Q22.7832 0.751953 21.4209 1.74805Q20.0586 2.74414 18.4229 3.2959Q16.7871 3.84766 14.9707 3.84766ZM9.19922-7.05078Q9.19922-6.66992 9.45801-6.4209Q9.7168-6.17188 10.1172-6.17188L14.0625-6.17188L14.0625-2.2168Q14.0625-1.81641 14.3115-1.55762Q14.5605-1.29883 14.9512-1.29883Q15.3516-1.29883 15.6104-1.55273Q15.8691-1.80664 15.8691-2.2168L15.8691-6.17188L19.8242-6.17188Q20.2246-6.17188 20.4785-6.4209Q20.7324-6.66992 20.7324-7.05078Q20.7324-7.46094 20.4785-7.71484Q20.2246-7.96875 19.8242-7.96875L15.8691-7.96875L15.8691-11.9141Q15.8691-12.3242 15.6104-12.583Q15.3516-12.8418 14.9512-12.8418Q14.5605-12.8418 14.3115-12.583Q14.0625-12.3242 14.0625-11.9141L14.0625-7.96875L10.1172-7.96875Q9.70703-7.96875 9.45312-7.71484Q9.19922-7.46094 9.19922-7.05078Z"/>
  </g>
  <text style="stroke:none;fill:black;font-family:sans-serif;font-size:13;font-weight:bold;" transform="matrix(1 0 0 1 263 1953)">Design Variations</text>
  <text style="stroke:none;fill:black;font-family:sans-serif;font-size:13;" transform="matrix(1 0 0 1 263 1971)">Symbols are supported in up to nine weights and three scales.</text>
  <text style="stroke:none;fill:black;font-family:sans-serif;font-size:13;" transform="matrix(1 0 0 1 263 1989)">For optimal layout with text and other symbols, vertically align</text>
  <text style="stroke:none;fill:black;font-family:sans-serif;font-size:13;" transform="matrix(1 0 0 1 263 2007)">symbols with the adjacent text.</text>
  <line style="fill:none;stroke:#00AEEF;stroke-width:0.5;opacity:1.0;" x1="776" x2="776" y1="1919" y2="1933"/>
  <g transform="matrix(1 0 0 1 776 1933)">
   <path d="M3.31055 0.15625Q3.70117 0.15625 3.91602-0.00976562Q4.13086-0.175781 4.26758-0.585938L5.52734-4.0332L11.2891-4.0332L12.5488-0.585938Q12.6855-0.175781 12.9004-0.00976562Q13.1152 0.15625 13.4961 0.15625Q13.8867 0.15625 14.1162-0.0585938Q14.3457-0.273438 14.3457-0.644531Q14.3457-0.869141 14.2383-1.17188L9.6582-13.3691Q9.48242-13.8184 9.17969-14.043Q8.87695-14.2676 8.4082-14.2676Q7.5-14.2676 7.17773-13.3789L2.59766-1.16211Q2.49023-0.859375 2.49023-0.634766Q2.49023-0.263672 2.70996-0.0537109Q2.92969 0.15625 3.31055 0.15625ZM6.00586-5.51758L8.37891-12.0898L8.42773-12.0898L10.8008-5.51758Z"/>
  </g>
  <line style="fill:none;stroke:#00AEEF;stroke-width:0.5;opacity:1.0;" x1="793.197" x2="793.197" y1="1919" y2="1933"/>
  <text style="stroke:none;fill:black;font-family:sans-serif;font-size:13;font-weight:bold;" transform="matrix(1 0 0 1 776 1953)">Margins</text>
  <text style="stroke:none;fill:black;font-family:sans-serif;font-size:13;" transform="matrix(1 0 0 1 776 1971)">Leading and trailing margins on the left and right side of each symbol</text>
  <text style="stroke:none;fill:black;font-family:sans-serif;font-size:13;" transform="matrix(1 0 0 1 776 1989)">can be adjusted by modifying the x-location of the margin guidelines.</text>
  <text style="stroke:none;fill:black;font-family:sans-serif;font-size:13;" transform="matrix(1 0 0 1 776 2007)">Modifications are automatically applied proportionally to all</text>
  <text style="stroke:none;fill:black;font-family:sans-serif;font-size:13;" transform="matrix(1 0 0 1 776 2025)">scales and weights.</text>
  <g transform="matrix(1 0 0 1 1289 1933)">
   <path d="M2.8418 1.86523L4.54102 3.57422Q5.18555 4.22852 5.90332 4.17969Q6.62109 4.13086 7.31445 3.35938L18.0078-8.42773L17.041-9.4043L6.42578 2.27539Q6.16211 2.57812 5.89355 2.61719Q5.625 2.65625 5.27344 2.30469L4.10156 1.14258Q3.75 0.791016 3.79395 0.522461Q3.83789 0.253906 4.14062-0.0195312L15.6152-10.8203L14.6387-11.7871L3.04688-0.898438Q2.30469-0.214844 2.25098 0.498047Q2.19727 1.21094 2.8418 1.86523ZM9.25781-16.3281Q8.94531-16.0254 8.90625-15.6348Q8.86719-15.2441 9.04297-14.9512Q9.21875-14.6777 9.55566-14.541Q9.89258-14.4043 10.3809-14.5215Q11.4746-14.7754 12.5977-14.7314Q13.7207-14.6875 14.7949-13.9844L14.209-12.5293Q13.9551-11.9043 14.0674-11.4404Q14.1797-10.9766 14.5801-10.5664L16.875-8.25195Q17.2363-7.88086 17.5781-7.82227Q17.9199-7.76367 18.3398-7.8418L19.4043-8.03711L20.0684-7.36328L20.0293-6.80664Q20-6.43555 20.1221-6.12305Q20.2441-5.81055 20.6055-5.44922L21.3672-4.70703Q21.7285-4.3457 22.1533-4.33105Q22.5781-4.31641 22.9297-4.66797L25.8398-7.58789Q26.1914-7.93945 26.1816-8.35449Q26.1719-8.76953 25.8105-9.13086L25.0391-9.89258Q24.6875-10.2539 24.3799-10.3857Q24.0723-10.5176 23.7109-10.4883L23.1348-10.4395L22.4902-11.0742L22.7344-12.1973Q22.832-12.6172 22.6953-12.9834Q22.5586-13.3496 22.1191-13.7891L19.9219-15.9766Q18.6719-17.2168 17.2607-17.8369Q15.8496-18.457 14.4189-18.4814Q12.9883-18.5059 11.665-17.959Q10.3418-17.4121 9.25781-16.3281ZM10.752-15.957Q11.6602-16.6211 12.7002-16.9043Q13.7402-17.1875 14.8047-17.085Q15.8691-16.9824 16.8701-16.5137Q17.8711-16.0449 18.7012-15.2051L21.1328-12.793Q21.3086-12.6172 21.3525-12.4512Q21.3965-12.2852 21.3379-12.0312L21.0156-10.5469L22.5195-9.0625L23.5059-9.12109Q23.6914-9.13086 23.7891-9.09668Q23.8867-9.0625 24.0332-8.91602L24.6094-8.33984L22.168-5.89844L21.5918-6.47461Q21.4453-6.62109 21.4062-6.71875Q21.3672-6.81641 21.377-7.01172L21.4453-7.98828L19.9512-9.47266L18.4277-9.21875Q18.1836-9.16992 18.042-9.2041Q17.9004-9.23828 17.7148-9.41406L15.7129-11.416Q15.5176-11.5918 15.4932-11.7529Q15.4688-11.9141 15.5859-12.1875L16.4648-14.2773Q15.293-15.3711 13.8281-15.791Q12.3633-16.2109 10.8398-15.7617Q10.7227-15.7324 10.6885-15.8057Q10.6543-15.8789 10.752-15.957Z"/>
  </g>
  <text style="stroke:none;fill:black;font-family:sans-serif;font-size:13;font-weight:bold;" transform="matrix(1 0 0 1 1289 1953)">Exporting</text>
  <text style="stroke:none;fill:black;font-family:sans-serif;font-size:13;" transform="matrix(1 0 0 1 1289 1971)">Symbols should be outlined when exporting to ensure the</text>
  <text style="stroke:none;fill:black;font-family:sans-serif;font-size:13;" transform="matrix(1 0 0 1 1289 1989)">design is preserved when submitting to Xcode.</text>
  <text id="template-version" style="stroke:none;fill:black;font-family:sans-serif;font-size:13;text-anchor:end;" transform="matrix(1 0 0 1 3036 1933)">Template v.3.0</text>
  <text style="stroke:none;fill:black;font-family:sans-serif;font-size:13;text-anchor:end;" transform="matrix(1 0 0 1 3036 1951)">Requires Xcode 13 or greater</text>
  <text id="descriptive-name" style="stroke:none;fill:black;font-family:sans-serif;font-size:13;text-anchor:end;" transform="matrix(1 0 0 1 3036 1969)">Generated from calendar</text>
  <text style="stroke:none;fill:black;font-family:sans-serif;font-size:13;text-anchor:end;" transform="matrix(1 0 0 1 3036 1987)">Typeset at 100 points</text>
  <text style="stroke:none;fill:black;font-family:sans-serif;font-size:13;" transform="matrix(1 0 0 1 263 726)">Small</text>
  <text style="stroke:none;fill:black;font-family:sans-serif;font-size:13;" transform="matrix(1 0 0 1 263 1156)">Medium</text>
  <text style="stroke:none;fill:black;font-family:sans-serif;font-size:13;" transform="matrix(1 0 0 1 263 1586)">Large</text>
 </g>
 <g id="Guides">
  <g id="H-reference" style="fill:#27AAE1;stroke:none;" transform="matrix(1 0 0 1 339 696)">
   <path d="M0.993347 0L3.6377 0L29.3282-67.1326L30.0301-67.1326L30.0301-70.459L28.1227-70.459ZM11.6882-24.4797L46.9818-24.4797L46.2311-26.7288L12.4382-26.7288ZM55.1193 0L57.7637 0L30.6381-70.459L29.4327-70.459L29.4327-67.1326Z"/>
  </g>
  <line id="Baseline-S" style="fill:none;stroke:#27AAE1;opacity:1;stroke-width:0.5;" x1="263" x2="3036" y1="696" y2="696"/>
  <line id="Capline-S" style="fill:none;stroke:#27AAE1;opacity:1;stroke-width:0.5;" x1="263" x2="3036" y1="625.541" y2="625.541"/>
  <g id="H-reference" style="fill:#27AAE1;stroke:none;" transform="matrix(1 0 0 1 339 1126)">
   <path d="M0.993347 0L3.6377 0L29.3282-67.1326L30.0301-67.1326L30.0301-70.459L28.1227-70.459ZM11.6882-24.4797L46.9818-24.4797L46.2311-26.7288L12.4382-26.7288ZM55.1193 0L57.7637 0L30.6381-70.459L29.4327-70.459L29.4327-67.1326Z"/>
  </g>
  <line id="Baseline-M" style="fill:none;stroke:#27AAE1;opacity:1;stroke-width:0.5;" x1="263" x2="3036" y1="1126" y2="1126"/>
  <line id="Capline-M" style="fill:none;stroke:#27AAE1;opacity:1;stroke-width:0.5;" x1="263" x2="3036" y1="1055.54" y2="1055.54"/>
  <g id="H-reference" style="fill:#27AAE1;stroke:none;" transform="matrix(1 0 0 1 339 1556)">
   <path d="M0.993347 0L3.6377 0L29.3282-67.1326L30.0301-67.1326L30.0301-70.459L28.1227-70.459ZM11.6882-24.4797L46.9818-24.4797L46.2311-26.7288L12.4382-26.7288ZM55.1193 0L57.7637 0L30.6381-70.459L29.4327-70.459L29.4327-67.1326Z"/>
  </g>
  <line id="Baseline-L" style="fill:none;stroke:#27AAE1;opacity:1;stroke-width:0.5;" x1="263" x2="3036" y1="1556" y2="1556"/>
  <line id="Capline-L" style="fill:none;stroke:#27AAE1;opacity:1;stroke-width:0.5;" x1="263" x2="3036" y1="1485.54" y2="1485.54"/>
  <line id="left-margin-Ultralight-S" style="fill:none;stroke:#00AEEF;stroke-width:0.5;opacity:1.0;" x1="512.504" x2="512.504" y1="600.785" y2="720.121"/>
  <line id="right-margin-Ultralight-S" style="fill:none;stroke:#00AEEF;stroke-width:0.5;opacity:1.0;" x1="606.918" x2="606.918" y1="600.785" y2="720.121"/>
  <line id="left-margin-Regular-S" style="fill:none;stroke:#00AEEF;stroke-width:0.5;opacity:1.0;" x1="1401.8" x2="1401.8" y1="600.785" y2="720.121"/>
  <line id="right-margin-Regular-S" style="fill:none;stroke:#00AEEF;stroke-width:0.5;opacity:1.0;" x1="1497.89" x2="1497.89" y1="600.785" y2="720.121"/>
  <line id="left-margin-Black-S" style="fill:none;stroke:#00AEEF;stroke-width:0.5;opacity:1.0;" x1="2881.11" x2="2881.11" y1="600.785" y2="720.121"/>
  <line id="right-margin-Black-S" style="fill:none;stroke:#00AEEF;stroke-width:0.5;opacity:1.0;" x1="2985.69" x2="2985.69" y1="600.785" y2="720.121"/>
 </g>
 <g id="Symbols">
  <g id="Black-S" transform="matrix(1 0 0 1 2881.11 696)">
   <path d="M25 2.92969L79.5898 2.92969Q86.7676 2.92969 90.7959-1.09863Q94.8242-5.12695 94.8242-12.3047L94.8242-58.1055Q94.8242-65.2832 90.7959-69.3115Q86.7676-73.3398 79.5898-73.3398L25-73.3398Q17.8223-73.3398 13.7939-69.3115Q9.76562-65.2832 9.76562-58.1055L9.76562-12.3047Q9.76562-5.12695 13.7939-1.09863Q17.8223 2.92969 25 2.92969ZM27.2461-11.2305Q25.5859-11.2305 24.7559-11.9873Q23.9258-12.7441 23.9258-14.5508L23.9258-46.0938Q23.9258-47.9492 24.7559-48.6816Q25.5859-49.4141 27.2461-49.4141L77.3438-49.4141Q79.0527-49.4141 79.8584-48.6816Q80.6641-47.9492 80.6641-46.0938L80.6641-14.5508Q80.6641-12.7441 79.8584-11.9873Q79.0527-11.2305 77.3438-11.2305ZM45.4102-38.5742L47.6562-38.5742Q48.7793-38.5742 49.2188-39.0137Q49.6582-39.4531 49.6582-40.5273L49.6582-42.7734Q49.6582-43.8965 49.2188-44.3115Q48.7793-44.7266 47.6562-44.7266L45.4102-44.7266Q44.3359-44.7266 43.8721-44.3115Q43.4082-43.8965 43.4082-42.7734L43.4082-40.5273Q43.4082-39.4531 43.8721-39.0137Q44.3359-38.5742 45.4102-38.5742ZM56.9336-38.5742L59.1797-38.5742Q60.3027-38.5742 60.7422-39.0137Q61.1816-39.4531 61.1816-40.5273L61.1816-42.7734Q61.1816-43.8965 60.7422-44.3115Q60.3027-44.7266 59.1797-44.7266L56.9336-44.7266Q55.8594-44.7266 55.3955-44.3115Q54.9316-43.8965 54.9316-42.7734L54.9316-40.5273Q54.9316-39.4531 55.3955-39.0137Q55.8594-38.5742 56.9336-38.5742ZM68.457-38.5742L70.7031-38.5742Q71.8262-38.5742 72.2656-39.0137Q72.7051-39.4531 72.7051-40.5273L72.7051-42.7734Q72.7051-43.8965 72.2656-44.3115Q71.8262-44.7266 70.7031-44.7266L68.457-44.7266Q67.3828-44.7266 66.9189-44.3115Q66.4551-43.8965 66.4551-42.7734L66.4551-40.5273Q66.4551-39.4531 66.9189-39.0137Q67.3828-38.5742 68.457-38.5742ZM33.8867-27.2461L36.1328-27.2461Q37.2559-27.2461 37.6953-27.6855Q38.1348-28.125 38.1348-29.1992L38.1348-31.4453Q38.1348-32.5684 37.6953-32.9834Q37.2559-33.3984 36.1328-33.3984L33.8867-33.3984Q32.8125-33.3984 32.3486-32.9834Q31.8848-32.5684 31.8848-31.4453L31.8848-29.1992Q31.8848-28.125 32.3486-27.6855Q32.8125-27.2461 33.8867-27.2461ZM45.4102-27.2461L47.6562-27.2461Q48.7793-27.2461 49.2188-27.6855Q49.6582-28.125 49.6582-29.1992L49.6582-31.4453Q49.6582-32.5684 49.2188-32.9834Q48.7793-33.3984 47.6562-33.3984L45.4102-33.3984Q44.3359-33.3984 43.8721-32.9834Q43.4082-32.5684 43.4082-31.4453L43.4082-29.1992Q43.4082-28.125 43.8721-27.6855Q44.3359-27.2461 45.4102-27.2461ZM56.9336-27.2461L59.1797-27.2461Q60.3027-27.2461 60.7422-27.6855Q61.1816-28.125 61.1816-29.1992L61.1816-31.4453Q61.1816-32.5684 60.7422-32.9834Q60.3027-33.3984 59.1797-33.3984L56.9336-33.3984Q55.8594-33.3984 55.3955-32.9834Q54.9316-32.5684 54.9316-31.4453L54.9316-29.1992Q54.9316-28.125 55.3955-27.6855Q55.8594-27.2461 56.9336-27.2461ZM68.457-27.2461L70.7031-27.2461Q71.8262-27.2461 72.2656-27.6855Q72.7051-28.125 72.7051-29.1992L72.7051-31.4453Q72.7051-32.5684 72.2656-32.9834Q71.8262-33.3984 70.7031-33.3984L68.457-33.3984Q67.3828-33.3984 66.9189-32.9834Q66.4551-32.5684 66.4551-31.4453L66.4551-29.1992Q66.4551-28.125 66.9189-27.6855Q67.3828-27.2461 68.457-27.2461ZM33.8867-15.918L36.1328-15.918Q37.2559-15.918 37.6953-16.3574Q38.1348-16.7969 38.1348-17.8711L38.1348-20.1172Q38.1348-21.2402 37.6953-21.6553Q37.2559-22.0703 36.1328-22.0703L33.8867-22.0703Q32.8125-22.0703 32.3486-21.6553Q31.8848-21.2402 31.8848-20.1172L31.8848-17.8711Q31.8848-16.7969 32.3486-16.3574Q32.8125-15.918 33.8867-15.918ZM45.4102-15.918L47.6562-15.918Q48.7793-15.918 49.2188-16.3574Q49.6582-16.7969 49.6582-17.8711L49.6582-20.1172Q49.6582-21.2402 49.2188-21.6553Q48.7793-22.0703 47.6562-22.0703L45.4102-22.0703Q44.3359-22.0703 43.8721-21.6553Q43.4082-21.2402 43.4082-20.1172L43.4082-17.8711Q43.4082-16.7969 43.8721-16.3574Q44.3359-15.918 45.4102-15.918ZM56.9336-15.918L59.1797-15.918Q60.3027-15.918 60.7422-16.3574Q61.1816-16.7969 61.1816-17.8711L61.1816-20.1172Q61.1816-21.2402 60.7422-21.6553Q60.3027-22.0703 59.1797-22.0703L56.9336-22.0703Q55.8594-22.0703 55.3955-21.6553Q54.9316-21.2402 54.9316-20.1172L54.9316-17.8711Q54.9316-16.7969 55.3955-16.3574Q55.8594-15.918 56.9336-15.918Z"/>
  </g>
  <g id="Regular-S" transform="matrix(1 0 0 1 1401.8 696)">
   <path d="M22.2168 0.390625L73.877 0.390625Q80.127 0.390625 83.2275-2.68555Q86.3281-5.76172 86.3281-11.9141L86.3281-58.4961Q86.3281-64.6484 83.2275-67.7246Q80.127-70.8008 73.877-70.8008L22.2168-70.8008Q16.0156-70.8008 12.8906-67.7246Q9.76562-64.6484 9.76562-58.4961L9.76562-11.9141Q9.76562-5.76172 12.8906-2.68555Q16.0156 0.390625 22.2168 0.390625ZM21.5332-6.68945Q19.2871-6.68945 18.042-7.88574Q16.7969-9.08203 16.7969-11.4746L16.7969-48.1934Q16.7969-50.5859 18.042-51.7822Q19.2871-52.9785 21.5332-52.9785L74.5117-52.9785Q76.8066-52.9785 78.0518-51.7822Q79.2969-50.5859 79.2969-48.1934L79.2969-11.4746Q79.2969-9.08203 78.0518-7.88574Q76.8066-6.68945 74.5117-6.68945ZM40.625-39.1602L42.8711-39.1602Q43.9453-39.1602 44.3848-39.5752Q44.8242-39.9902 44.8242-41.0645L44.8242-43.3105Q44.8242-44.3848 44.3848-44.7998Q43.9453-45.2148 42.8711-45.2148L40.625-45.2148Q39.5508-45.2148 39.1113-44.7998Q38.6719-44.3848 38.6719-43.3105L38.6719-41.0645Q38.6719-39.9902 39.1113-39.5752Q39.5508-39.1602 40.625-39.1602ZM53.1738-39.1602L55.4199-39.1602Q56.4941-39.1602 56.9336-39.5752Q57.373-39.9902 57.373-41.0645L57.373-43.3105Q57.373-44.3848 56.9336-44.7998Q56.4941-45.2148 55.4199-45.2148L53.1738-45.2148Q52.0996-45.2148 51.6602-44.7998Q51.2207-44.3848 51.2207-43.3105L51.2207-41.0645Q51.2207-39.9902 51.6602-39.5752Q52.0996-39.1602 53.1738-39.1602ZM65.7227-39.1602L67.9688-39.1602Q69.043-39.1602 69.4824-39.5752Q69.9219-39.9902 69.9219-41.0645L69.9219-43.3105Q69.9219-44.3848 69.4824-44.7998Q69.043-45.2148 67.9688-45.2148L65.7227-45.2148Q64.6484-45.2148 64.209-44.7998Q63.7695-44.3848 63.7695-43.3105L63.7695-41.0645Q63.7695-39.9902 64.209-39.5752Q64.6484-39.1602 65.7227-39.1602ZM28.0762-26.8066L30.3223-26.8066Q31.3965-26.8066 31.8359-27.2217Q32.2754-27.6367 32.2754-28.7109L32.2754-30.957Q32.2754-32.0312 31.8359-32.4463Q31.3965-32.8613 30.3223-32.8613L28.0762-32.8613Q27.002-32.8613 26.5625-32.4463Q26.123-32.0312 26.123-30.957L26.123-28.7109Q26.123-27.6367 26.5625-27.2217Q27.002-26.8066 28.0762-26.8066ZM40.625-26.8066L42.8711-26.8066Q43.9453-26.8066 44.3848-27.2217Q44.8242-27.6367 44.8242-28.7109L44.8242-30.957Q44.8242-32.0312 44.3848-32.4463Q43.9453-32.8613 42.8711-32.8613L40.625-32.8613Q39.5508-32.8613 39.1113-32.4463Q38.6719-32.0312 38.6719-30.957L38.6719-28.7109Q38.6719-27.6367 39.1113-27.2217Q39.5508-26.8066 40.625-26.8066ZM53.1738-26.8066L55.4199-26.8066Q56.4941-26.8066 56.9336-27.2217Q57.373-27.6367 57.373-28.7109L57.373-30.957Q57.373-32.0312 56.9336-32.4463Q56.4941-32.8613 55.4199-32.8613L53.1738-32.8613Q52.0996-32.8613 51.6602-32.4463Q51.2207-32.0312 51.2207-30.957L51.2207-28.7109Q51.2207-27.6367 51.6602-27.2217Q52.0996-26.8066 53.1738-26.8066ZM65.7227-26.8066L67.9688-26.8066Q69.043-26.8066 69.4824-27.2217Q69.9219-27.6367 69.9219-28.7109L69.9219-30.957Q69.9219-32.0312 69.4824-32.4463Q69.043-32.8613 67.9688-32.8613L65.7227-32.8613Q64.6484-32.8613 64.209-32.4463Q63.7695-32.0312 63.7695-30.957L63.7695-28.7109Q63.7695-27.6367 64.209-27.2217Q64.6484-26.8066 65.7227-26.8066ZM28.0762-14.4531L30.3223-14.4531Q31.3965-14.4531 31.8359-14.8682Q32.2754-15.2832 32.2754-16.3574L32.2754-18.6035Q32.2754-19.6777 31.8359-20.0928Q31.3965-20.5078 30.3223-20.5078L28.0762-20.5078Q27.002-20.5078 26.5625-20.0928Q26.123-19.6777 26.123-18.6035L26.123-16.3574Q26.123-15.2832 26.5625-14.8682Q27.002-14.4531 28.0762-14.4531ZM40.625-14.4531L42.8711-14.4531Q43.9453-14.4531 44.3848-14.8682Q44.8242-15.2832 44.8242-16.3574L44.8242-18.6035Q44.8242-19.6777 44.3848-20.0928Q43.9453-20.5078 42.8711-20.5078L40.625-20.5078Q39.5508-20.5078 39.1113-20.0928Q38.6719-19.6777 38.6719-18.6035L38.6719-16.3574Q38.6719-15.2832 39.1113-14.8682Q39.5508-14.4531 40.625-14.4531ZM53.1738-14.4531L55.4199-14.4531Q56.4941-14.4531 56.9336-14.8682Q57.373-15.2832 57.373-16.3574L57.373-18.6035Q57.373-19.6777 56.9336-20.0928Q56.4941-20.5078 55.4199-20.5078L53.1738-20.5078Q52.0996-20.5078 51.6602-20.0928Q51.2207-19.6777 51.2207-18.6035L51.2207-16.3574Q51.2207-15.2832 51.6602-14.8682Q52.0996-14.4531 53.1738-14.4531Z"/>
  </g>
  <g id="Ultralight-S" transform="matrix(1 0 0 1 512.504 696)">
   <path d="M19.7754-1.5625L74.6582-1.5625Q79.5898-1.5625 82.1289-4.15039Q84.668-6.73828 84.668-11.5723L84.668-58.7891Q84.668-63.623 82.1289-66.1865Q79.5898-68.75 74.6582-68.75L19.7754-68.75Q14.8438-68.75 12.3047-66.2109Q9.76562-63.6719 9.76562-58.7891L9.76562-11.5723Q9.76562-6.64062 12.3047-4.10156Q14.8438-1.5625 19.7754-1.5625ZM19.8242-3.75977Q15.918-3.75977 13.9404-5.7373Q11.9629-7.71484 11.9629-11.6211L11.9629-44.6777Q11.9629-48.584 13.9404-50.5859Q15.918-52.5879 19.8242-52.5879L74.6094-52.5879Q78.3691-52.5879 80.4199-50.5859Q82.4707-48.584 82.4707-44.6777L82.4707-11.6211Q82.4707-7.71484 80.4199-5.7373Q78.3691-3.75977 74.6094-3.75977ZM39.3555-39.2578L41.6016-39.2578Q42.334-39.2578 42.5049-39.4287Q42.6758-39.5996 42.6758-40.2832L42.6758-42.5293Q42.6758-43.2129 42.5049-43.3838Q42.334-43.5547 41.6016-43.5547L39.3555-43.5547Q38.623-43.5547 38.4521-43.3838Q38.2812-43.2129 38.2812-42.5293L38.2812-40.2832Q38.2812-39.5996 38.4521-39.4287Q38.623-39.2578 39.3555-39.2578ZM52.7832-39.2578L55.0293-39.2578Q55.7129-39.2578 55.9082-39.4287Q56.1035-39.5996 56.1035-40.2832L56.1035-42.5293Q56.1035-43.2129 55.9082-43.3838Q55.7129-43.5547 55.0293-43.5547L52.7832-43.5547Q52.0508-43.5547 51.8799-43.3838Q51.709-43.2129 51.709-42.5293L51.709-40.2832Q51.709-39.5996 51.8799-39.4287Q52.0508-39.2578 52.7832-39.2578ZM66.2109-39.2578L68.457-39.2578Q69.1895-39.2578 69.3604-39.4287Q69.5312-39.5996 69.5312-40.2832L69.5312-42.5293Q69.5312-43.2129 69.3604-43.3838Q69.1895-43.5547 68.457-43.5547L66.2109-43.5547Q65.5273-43.5547 65.332-43.3838Q65.1367-43.2129 65.1367-42.5293L65.1367-40.2832Q65.1367-39.5996 65.332-39.4287Q65.5273-39.2578 66.2109-39.2578ZM25.9277-26.0254L28.1738-26.0254Q28.9062-26.0254 29.0771-26.1963Q29.248-26.3672 29.248-27.0508L29.248-29.2969Q29.248-29.9805 29.0771-30.1514Q28.9062-30.3223 28.1738-30.3223L25.9277-30.3223Q25.2441-30.3223 25.0488-30.1514Q24.8535-29.9805 24.8535-29.2969L24.8535-27.0508Q24.8535-26.3672 25.0488-26.1963Q25.2441-26.0254 25.9277-26.0254ZM39.3555-26.0254L41.6016-26.0254Q42.334-26.0254 42.5049-26.1963Q42.6758-26.3672 42.6758-27.0508L42.6758-29.2969Q42.6758-29.9805 42.5049-30.1514Q42.334-30.3223 41.6016-30.3223L39.3555-30.3223Q38.623-30.3223 38.4521-30.1514Q38.2812-29.9805 38.2812-29.2969L38.2812-27.0508Q38.2812-26.3672 38.4521-26.1963Q38.623-26.0254 39.3555-26.0254ZM52.7832-26.0254L55.0293-26.0254Q55.7129-26.0254 55.9082-26.1963Q56.1035-26.3672 56.1035-27.0508L56.1035-29.2969Q56.1035-29.9805 55.9082-30.1514Q55.7129-30.3223 55.0293-30.3223L52.7832-30.3223Q52.0508-30.3223 51.8799-30.1514Q51.709-29.9805 51.709-29.2969L51.709-27.0508Q51.709-26.3672 51.8799-26.1963Q52.0508-26.0254 52.7832-26.0254ZM66.2109-26.0254L68.457-26.0254Q69.1895-26.0254 69.3604-26.1963Q69.5312-26.3672 69.5312-27.0508L69.5312-29.2969Q69.5312-29.9805 69.3604-30.1514Q69.1895-30.3223 68.457-30.3223L66.2109-30.3223Q65.5273-30.3223 65.332-30.1514Q65.1367-29.9805 65.1367-29.2969L65.1367-27.0508Q65.1367-26.3672 65.332-26.1963Q65.5273-26.0254 66.2109-26.0254ZM25.9277-12.793L28.1738-12.793Q28.9062-12.793 29.0771-12.9639Q29.248-13.1348 29.248-13.8184L29.248-16.0645Q29.248-16.748 29.0771-16.9189Q28.9062-17.0898 28.1738-17.0898L25.9277-17.0898Q25.2441-17.0898 25.0488-16.9189Q24.8535-16.748 24.8535-16.0645L24.8535-13.8184Q24.8535-13.1348 25.0488-12.9639Q25.2441-12.793 25.9277-12.793ZM39.3555-12.793L41.6016-12.793Q42.334-12.793 42.5049-12.9639Q42.6758-13.1348 42.6758-13.8184L42.6758-16.0645Q42.6758-16.748 42.5049-16.9189Q42.334-17.0898 41.6016-17.0898L39.3555-17.0898Q38.623-17.0898 38.4521-16.9189Q38.2812-16.748 38.2812-16.0645L38.2812-13.8184Q38.2812-13.1348 38.4521-12.9639Q38.623-12.793 39.3555-12.793ZM52.7832-12.793L55.0293-12.793Q55.7129-12.793 55.9082-12.9639Q56.1035-13.1348 56.1035-13.8184L56.1035-16.0645Q56.1035-16.748 55.9082-16.9189Q55.7129-17.0898 55.0293-17.0898L52.7832-17.0898Q52.0508-17.0898 51.8799-16.9189Q51.709-16.748 51.709-16.0645L51.709-13.8184Q51.709-13.1348 51.8799-12.9639Q52.0508-12.793 52.7832-12.793Z"/>
  </g>
 </g>
</svg>
