<?xml version="1.0" encoding="UTF-8"?>
<!--Generator: Apple Native CoreSVG 175.5-->
<!DOCTYPE svg
PUBLIC "-//W3C//DTD SVG 1.1//EN"
       "http://www.w3.org/Graphics/SVG/1.1/DTD/svg11.dtd">
<svg version="1.1" xmlns="http://www.w3.org/2000/svg" xmlns:xlink="http://www.w3.org/1999/xlink" width="13.584" height="13.5776">
 <g>
  <rect height="13.5776" opacity="0" width="13.584" x="0" y="0"/>
  <path d="M6.15088 13.5713L7.43311 13.5713C7.92188 13.5713 8.29639 13.2729 8.41064 12.8032L8.68359 11.6162L8.88672 11.5464L9.92139 12.1812C10.334 12.4414 10.8101 12.3779 11.1592 12.0288L12.0479 11.1465C12.397 10.7974 12.4604 10.3149 12.2002 9.90869L11.5527 8.88037L11.6289 8.68994L12.8159 8.41064C13.2793 8.29639 13.584 7.91553 13.584 7.43311L13.584 6.17627C13.584 5.69385 13.2856 5.31299 12.8159 5.19873L11.6416 4.91309L11.5591 4.70996L12.2065 3.68164C12.4668 3.27539 12.4033 2.79932 12.0542 2.44385L11.1655 1.55518C10.8228 1.2124 10.3467 1.14893 9.93408 1.40283L8.89941 2.0376L8.68359 1.95508L8.41064 0.768066C8.29639 0.29834 7.92188 0 7.43311 0L6.15088 0C5.66211 0 5.2876 0.29834 5.17334 0.768066L4.89404 1.95508L4.67822 2.0376L3.6499 1.40283C3.2373 1.14893 2.75488 1.2124 2.41211 1.55518L1.52979 2.44385C1.18066 2.79932 1.11084 3.27539 1.37744 3.68164L2.01855 4.70996L1.94238 4.91309L0.768066 5.19873C0.29834 5.31299 0 5.69385 0 6.17627L0 7.43311C0 7.91553 0.304688 8.29639 0.768066 8.41064L1.95508 8.68994L2.0249 8.88037L1.38379 9.90869C1.11719 10.3149 1.18701 10.7974 1.53613 11.1465L2.41846 12.0288C2.76758 12.3779 3.25 12.4414 3.6626 12.1812L4.69092 11.5464L4.89404 11.6162L5.17334 12.8032C5.2876 13.2729 5.66211 13.5713 6.15088 13.5713ZM6.25244 12.5811C6.14453 12.5811 6.0874 12.5366 6.06836 12.4351L5.6875 10.8608C5.30029 10.7656 4.93848 10.6133 4.66553 10.4419L3.28174 11.2925C3.20557 11.3496 3.12305 11.3369 3.04688 11.2607L2.29785 10.5117C2.22803 10.4419 2.22168 10.3657 2.27246 10.2769L3.12305 8.90576C2.97705 8.63916 2.81201 8.27734 2.71045 7.89014L1.13623 7.51562C1.03467 7.49658 0.990234 7.43945 0.990234 7.33154L0.990234 6.27148C0.990234 6.15723 1.02832 6.10645 1.13623 6.0874L2.7041 5.70654C2.80566 5.29395 2.99609 4.91943 3.11035 4.68457L2.26611 3.31348C2.20898 3.21826 2.21533 3.14209 2.28516 3.06592L3.04053 2.32959C3.1167 2.25342 3.18652 2.24072 3.28174 2.29785L4.65283 3.12939C4.92578 2.97705 5.31299 2.81836 5.69385 2.71045L6.06836 1.13623C6.0874 1.03467 6.14453 0.990234 6.25244 0.990234L7.33154 0.990234C7.43945 0.990234 7.49658 1.03467 7.50928 1.13623L7.89648 2.72314C8.29004 2.82471 8.63281 2.9834 8.91846 3.13574L10.2959 2.29785C10.3975 2.24072 10.4609 2.25342 10.5435 2.32959L11.2925 3.06592C11.3687 3.14209 11.3687 3.21826 11.3115 3.31348L10.4673 4.68457C10.5879 4.91943 10.772 5.29395 10.8735 5.70654L12.4478 6.0874C12.5493 6.10645 12.5938 6.15723 12.5938 6.27148L12.5938 7.33154C12.5938 7.43945 12.543 7.49658 12.4478 7.51562L10.8672 7.89014C10.7656 8.27734 10.6069 8.63916 10.4546 8.90576L11.3052 10.2769C11.356 10.3657 11.356 10.4419 11.2798 10.5117L10.5371 11.2607C10.4546 11.3369 10.3784 11.3496 10.2959 11.2925L8.91211 10.4419C8.63916 10.6133 8.28369 10.7656 7.89648 10.8608L7.50928 12.4351C7.49658 12.5366 7.43945 12.5811 7.33154 12.5811ZM6.79199 9.21045C8.11865 9.21045 9.21045 8.11865 9.21045 6.78564C9.21045 5.46533 8.11865 4.37354 6.79199 4.37354C5.46533 4.37354 4.36719 5.46533 4.36719 6.78564C4.36719 8.1123 5.45898 9.21045 6.79199 9.21045ZM6.79199 8.22656C6.00488 8.22656 5.35742 7.5791 5.35742 6.78564C5.35742 6.00488 6.00488 5.35742 6.79199 5.35742C7.56641 5.35742 8.21387 6.00488 8.21387 6.78564C8.21387 7.57275 7.56641 8.22656 6.79199 8.22656Z" fill="#000000" fill-opacity="0.85"/>
 </g>
</svg>
