<?xml version="1.0" encoding="UTF-8"?>
<!--Generator: Apple Native CoreSVG 175-->
<!DOCTYPE svg
PUBLIC "-//W3C//DTD SVG 1.1//EN"
       "http://www.w3.org/Graphics/SVG/1.1/DTD/svg11.dtd">
<svg version="1.1" xmlns="http://www.w3.org/2000/svg" xmlns:xlink="http://www.w3.org/1999/xlink" width="3300" height="2200">
 <!--glyph: "uni1001ED.medium", point size: 100.0, font version: "17.1d1e1", template writer version: "65.1"-->
 <g id="Notes">
  <rect height="2200" id="artboard" style="fill:white;opacity:1" width="3300" x="0" y="0"/>
  <line style="fill:none;stroke:black;opacity:1;stroke-width:0.5;" x1="263" x2="3036" y1="292" y2="292"/>
  <text style="stroke:none;fill:black;font-family:sans-serif;font-size:13;font-weight:bold;" transform="matrix(1 0 0 1 263 322)">Weight/Scale Variations</text>
  <text style="stroke:none;fill:black;font-family:sans-serif;font-size:13;text-anchor:middle;" transform="matrix(1 0 0 1 559.711 322)">Ultralight</text>
  <text style="stroke:none;fill:black;font-family:sans-serif;font-size:13;text-anchor:middle;" transform="matrix(1 0 0 1 856.422 322)">Thin</text>
  <text style="stroke:none;fill:black;font-family:sans-serif;font-size:13;text-anchor:middle;" transform="matrix(1 0 0 1 1153.13 322)">Light</text>
  <text style="stroke:none;fill:black;font-family:sans-serif;font-size:13;text-anchor:middle;" transform="matrix(1 0 0 1 1449.84 322)">Regular</text>
  <text style="stroke:none;fill:black;font-family:sans-serif;font-size:13;text-anchor:middle;" transform="matrix(1 0 0 1 1746.56 322)">Medium</text>
  <text style="stroke:none;fill:black;font-family:sans-serif;font-size:13;text-anchor:middle;" transform="matrix(1 0 0 1 2043.27 322)">Semibold</text>
  <text style="stroke:none;fill:black;font-family:sans-serif;font-size:13;text-anchor:middle;" transform="matrix(1 0 0 1 2339.98 322)">Bold</text>
  <text style="stroke:none;fill:black;font-family:sans-serif;font-size:13;text-anchor:middle;" transform="matrix(1 0 0 1 2636.69 322)">Heavy</text>
  <text style="stroke:none;fill:black;font-family:sans-serif;font-size:13;text-anchor:middle;" transform="matrix(1 0 0 1 2933.4 322)">Black</text>
  <line style="fill:none;stroke:black;opacity:1;stroke-width:0.5;" x1="263" x2="3036" y1="1903" y2="1903"/>
  <g transform="matrix(1 0 0 1 263 1933)">
   <path d="M9.24805 0.830078Q10.8691 0.830078 12.2949 0.214844Q13.7207-0.400391 14.8096-1.49414Q15.8984-2.58789 16.5186-4.01367Q17.1387-5.43945 17.1387-7.05078Q17.1387-8.66211 16.5186-10.0879Q15.8984-11.5137 14.8047-12.6074Q13.7109-13.7012 12.2852-14.3164Q10.8594-14.9316 9.23828-14.9316Q7.62695-14.9316 6.20117-14.3164Q4.77539-13.7012 3.69141-12.6074Q2.60742-11.5137 1.9873-10.0879Q1.36719-8.66211 1.36719-7.05078Q1.36719-5.43945 1.9873-4.01367Q2.60742-2.58789 3.69629-1.49414Q4.78516-0.400391 6.21094 0.214844Q7.63672 0.830078 9.24805 0.830078ZM9.24805-0.654297Q7.91992-0.654297 6.7627-1.14746Q5.60547-1.64062 4.73145-2.51953Q3.85742-3.39844 3.36426-4.56055Q2.87109-5.72266 2.87109-7.05078Q2.87109-8.37891 3.35938-9.54102Q3.84766-10.7031 4.72168-11.582Q5.5957-12.4609 6.75293-12.9541Q7.91016-13.4473 9.23828-13.4473Q10.5762-13.4473 11.7334-12.9541Q12.8906-12.4609 13.7695-11.582Q14.6484-10.7031 15.1465-9.54102Q15.6445-8.37891 15.6445-7.05078Q15.6445-5.72266 15.1514-4.56055Q14.6582-3.39844 13.7842-2.51953Q12.9102-1.64062 11.748-1.14746Q10.5859-0.654297 9.24805-0.654297ZM5.6543-7.05078Q5.6543-6.72852 5.85938-6.52832Q6.06445-6.32812 6.40625-6.32812L8.51562-6.32812L8.51562-4.20898Q8.51562-3.88672 8.71094-3.67676Q8.90625-3.4668 9.23828-3.4668Q9.56055-3.4668 9.77051-3.67676Q9.98047-3.88672 9.98047-4.20898L9.98047-6.32812L12.0898-6.32812Q12.4219-6.32812 12.627-6.52832Q12.832-6.72852 12.832-7.05078Q12.832-7.38281 12.627-7.58789Q12.4219-7.79297 12.0898-7.79297L9.98047-7.79297L9.98047-9.90234Q9.98047-10.2344 9.77051-10.4443Q9.56055-10.6543 9.23828-10.6543Q8.90625-10.6543 8.71094-10.4443Q8.51562-10.2344 8.51562-9.90234L8.51562-7.79297L6.40625-7.79297Q6.06445-7.79297 5.85938-7.58789Q5.6543-7.38281 5.6543-7.05078Z"/>
  </g>
  <g transform="matrix(1 0 0 1 281.867 1933)">
   <path d="M11.709 2.91016Q13.75 2.91016 15.5518 2.12891Q17.3535 1.34766 18.7305-0.0292969Q20.1074-1.40625 20.8887-3.20801Q21.6699-5.00977 21.6699-7.05078Q21.6699-9.0918 20.8887-10.8936Q20.1074-12.6953 18.7305-14.0723Q17.3535-15.4492 15.5469-16.2305Q13.7402-17.0117 11.6992-17.0117Q9.6582-17.0117 7.85645-16.2305Q6.05469-15.4492 4.68262-14.0723Q3.31055-12.6953 2.5293-10.8936Q1.74805-9.0918 1.74805-7.05078Q1.74805-5.00977 2.5293-3.20801Q3.31055-1.40625 4.6875-0.0292969Q6.06445 1.34766 7.86621 2.12891Q9.66797 2.91016 11.709 2.91016ZM11.709 1.25Q9.98047 1.25 8.47656 0.605469Q6.97266-0.0390625 5.83496-1.17676Q4.69727-2.31445 4.05762-3.81836Q3.41797-5.32227 3.41797-7.05078Q3.41797-8.7793 4.05762-10.2832Q4.69727-11.7871 5.83008-12.9297Q6.96289-14.0723 8.4668-14.7119Q9.9707-15.3516 11.6992-15.3516Q13.4277-15.3516 14.9316-14.7119Q16.4355-14.0723 17.5781-12.9297Q18.7207-11.7871 19.3652-10.2832Q20.0098-8.7793 20.0098-7.05078Q20.0098-5.32227 19.3701-3.81836Q18.7305-2.31445 17.5928-1.17676Q16.4551-0.0390625 14.9463 0.605469Q13.4375 1.25 11.709 1.25ZM7.17773-7.05078Q7.17773-6.69922 7.41211-6.47461Q7.64648-6.25 8.01758-6.25L10.8887-6.25L10.8887-3.36914Q10.8887-2.99805 11.1133-2.76855Q11.3379-2.53906 11.6895-2.53906Q12.0605-2.53906 12.29-2.76855Q12.5195-2.99805 12.5195-3.36914L12.5195-6.25L15.4004-6.25Q15.7715-6.25 16.001-6.47461Q16.2305-6.69922 16.2305-7.05078Q16.2305-7.42188 16.001-7.65137Q15.7715-7.88086 15.4004-7.88086L12.5195-7.88086L12.5195-10.752Q12.5195-11.1328 12.29-11.3623Q12.0605-11.5918 11.6895-11.5918Q11.3379-11.5918 11.1133-11.3574Q10.8887-11.123 10.8887-10.752L10.8887-7.88086L8.01758-7.88086Q7.63672-7.88086 7.40723-7.65137Q7.17773-7.42188 7.17773-7.05078Z"/>
  </g>
  <g transform="matrix(1 0 0 1 305.646 1933)">
   <path d="M14.9707 5.66406Q17.0605 5.66406 18.96 5.01465Q20.8594 4.36523 22.4512 3.19336Q24.043 2.02148 25.2197 0.429688Q26.3965-1.16211 27.0459-3.06641Q27.6953-4.9707 27.6953-7.05078Q27.6953-9.14062 27.0459-11.04Q26.3965-12.9395 25.2197-14.5312Q24.043-16.123 22.4512-17.2998Q20.8594-18.4766 18.9551-19.126Q17.0508-19.7754 14.9609-19.7754Q12.8711-19.7754 10.9717-19.126Q9.07227-18.4766 7.48535-17.2998Q5.89844-16.123 4.72168-14.5312Q3.54492-12.9395 2.90039-11.04Q2.25586-9.14062 2.25586-7.05078Q2.25586-4.9707 2.90527-3.06641Q3.55469-1.16211 4.72656 0.429688Q5.89844 2.02148 7.49023 3.19336Q9.08203 4.36523 10.9814 5.01465Q12.8809 5.66406 14.9707 5.66406ZM14.9707 3.84766Q13.1641 3.84766 11.5283 3.2959Q9.89258 2.74414 8.53516 1.74805Q7.17773 0.751953 6.17676-0.610352Q5.17578-1.97266 4.62891-3.6084Q4.08203-5.24414 4.08203-7.05078Q4.08203-8.86719 4.62891-10.5029Q5.17578-12.1387 6.17188-13.501Q7.16797-14.8633 8.52539-15.8594Q9.88281-16.8555 11.5186-17.4023Q13.1543-17.9492 14.9609-17.9492Q16.7773-17.9492 18.4131-17.4023Q20.0488-16.8555 21.4111-15.8594Q22.7734-14.8633 23.7695-13.501Q24.7656-12.1387 25.3174-10.5029Q25.8691-8.86719 25.8691-7.05078Q25.8789-5.24414 25.332-3.6084Q24.7852-1.97266 23.7842-0.610352Q22.7832 0.751953 21.4209 1.74805Q20.0586 2.74414 18.4229 3.2959Q16.7871 3.84766 14.9707 3.84766ZM9.19922-7.05078Q9.19922-6.66992 9.45801-6.4209Q9.7168-6.17188 10.1172-6.17188L14.0625-6.17188L14.0625-2.2168Q14.0625-1.81641 14.3115-1.55762Q14.5605-1.29883 14.9512-1.29883Q15.3516-1.29883 15.6104-1.55273Q15.8691-1.80664 15.8691-2.2168L15.8691-6.17188L19.8242-6.17188Q20.2246-6.17188 20.4785-6.4209Q20.7324-6.66992 20.7324-7.05078Q20.7324-7.46094 20.4785-7.71484Q20.2246-7.96875 19.8242-7.96875L15.8691-7.96875L15.8691-11.9141Q15.8691-12.3242 15.6104-12.583Q15.3516-12.8418 14.9512-12.8418Q14.5605-12.8418 14.3115-12.583Q14.0625-12.3242 14.0625-11.9141L14.0625-7.96875L10.1172-7.96875Q9.70703-7.96875 9.45312-7.71484Q9.19922-7.46094 9.19922-7.05078Z"/>
  </g>
  <text style="stroke:none;fill:black;font-family:sans-serif;font-size:13;font-weight:bold;" transform="matrix(1 0 0 1 263 1953)">Design Variations</text>
  <text style="stroke:none;fill:black;font-family:sans-serif;font-size:13;" transform="matrix(1 0 0 1 263 1971)">Symbols are supported in up to nine weights and three scales.</text>
  <text style="stroke:none;fill:black;font-family:sans-serif;font-size:13;" transform="matrix(1 0 0 1 263 1989)">For optimal layout with text and other symbols, vertically align</text>
  <text style="stroke:none;fill:black;font-family:sans-serif;font-size:13;" transform="matrix(1 0 0 1 263 2007)">symbols with the adjacent text.</text>
  <line style="fill:none;stroke:#00AEEF;stroke-width:0.5;opacity:1.0;" x1="776" x2="776" y1="1919" y2="1933"/>
  <g transform="matrix(1 0 0 1 776 1933)">
   <path d="M3.31055 0.15625Q3.70117 0.15625 3.91602-0.00976562Q4.13086-0.175781 4.26758-0.585938L5.52734-4.0332L11.2891-4.0332L12.5488-0.585938Q12.6855-0.175781 12.9004-0.00976562Q13.1152 0.15625 13.4961 0.15625Q13.8867 0.15625 14.1162-0.0585938Q14.3457-0.273438 14.3457-0.644531Q14.3457-0.869141 14.2383-1.17188L9.6582-13.3691Q9.48242-13.8184 9.17969-14.043Q8.87695-14.2676 8.4082-14.2676Q7.5-14.2676 7.17773-13.3789L2.59766-1.16211Q2.49023-0.859375 2.49023-0.634766Q2.49023-0.263672 2.70996-0.0537109Q2.92969 0.15625 3.31055 0.15625ZM6.00586-5.51758L8.37891-12.0898L8.42773-12.0898L10.8008-5.51758Z"/>
  </g>
  <line style="fill:none;stroke:#00AEEF;stroke-width:0.5;opacity:1.0;" x1="793.197" x2="793.197" y1="1919" y2="1933"/>
  <text style="stroke:none;fill:black;font-family:sans-serif;font-size:13;font-weight:bold;" transform="matrix(1 0 0 1 776 1953)">Margins</text>
  <text style="stroke:none;fill:black;font-family:sans-serif;font-size:13;" transform="matrix(1 0 0 1 776 1971)">Leading and trailing margins on the left and right side of each symbol</text>
  <text style="stroke:none;fill:black;font-family:sans-serif;font-size:13;" transform="matrix(1 0 0 1 776 1989)">can be adjusted by modifying the x-location of the margin guidelines.</text>
  <text style="stroke:none;fill:black;font-family:sans-serif;font-size:13;" transform="matrix(1 0 0 1 776 2007)">Modifications are automatically applied proportionally to all</text>
  <text style="stroke:none;fill:black;font-family:sans-serif;font-size:13;" transform="matrix(1 0 0 1 776 2025)">scales and weights.</text>
  <g transform="matrix(1 0 0 1 1289 1933)">
   <path d="M2.8418 1.86523L4.54102 3.57422Q5.18555 4.22852 5.90332 4.17969Q6.62109 4.13086 7.31445 3.35938L18.0078-8.42773L17.041-9.4043L6.42578 2.27539Q6.16211 2.57812 5.89355 2.61719Q5.625 2.65625 5.27344 2.30469L4.10156 1.14258Q3.75 0.791016 3.79395 0.522461Q3.83789 0.253906 4.14062-0.0195312L15.6152-10.8203L14.6387-11.7871L3.04688-0.898438Q2.30469-0.214844 2.25098 0.498047Q2.19727 1.21094 2.8418 1.86523ZM9.25781-16.3281Q8.94531-16.0254 8.90625-15.6348Q8.86719-15.2441 9.04297-14.9512Q9.21875-14.6777 9.55566-14.541Q9.89258-14.4043 10.3809-14.5215Q11.4746-14.7754 12.5977-14.7314Q13.7207-14.6875 14.7949-13.9844L14.209-12.5293Q13.9551-11.9043 14.0674-11.4404Q14.1797-10.9766 14.5801-10.5664L16.875-8.25195Q17.2363-7.88086 17.5781-7.82227Q17.9199-7.76367 18.3398-7.8418L19.4043-8.03711L20.0684-7.36328L20.0293-6.80664Q20-6.43555 20.1221-6.12305Q20.2441-5.81055 20.6055-5.44922L21.3672-4.70703Q21.7285-4.3457 22.1533-4.33105Q22.5781-4.31641 22.9297-4.66797L25.8398-7.58789Q26.1914-7.93945 26.1816-8.35449Q26.1719-8.76953 25.8105-9.13086L25.0391-9.89258Q24.6875-10.2539 24.3799-10.3857Q24.0723-10.5176 23.7109-10.4883L23.1348-10.4395L22.4902-11.0742L22.7344-12.1973Q22.832-12.6172 22.6953-12.9834Q22.5586-13.3496 22.1191-13.7891L19.9219-15.9766Q18.6719-17.2168 17.2607-17.8369Q15.8496-18.457 14.4189-18.4814Q12.9883-18.5059 11.665-17.959Q10.3418-17.4121 9.25781-16.3281ZM10.752-15.957Q11.6602-16.6211 12.7002-16.9043Q13.7402-17.1875 14.8047-17.085Q15.8691-16.9824 16.8701-16.5137Q17.8711-16.0449 18.7012-15.2051L21.1328-12.793Q21.3086-12.6172 21.3525-12.4512Q21.3965-12.2852 21.3379-12.0312L21.0156-10.5469L22.5195-9.0625L23.5059-9.12109Q23.6914-9.13086 23.7891-9.09668Q23.8867-9.0625 24.0332-8.91602L24.6094-8.33984L22.168-5.89844L21.5918-6.47461Q21.4453-6.62109 21.4062-6.71875Q21.3672-6.81641 21.377-7.01172L21.4453-7.98828L19.9512-9.47266L18.4277-9.21875Q18.1836-9.16992 18.042-9.2041Q17.9004-9.23828 17.7148-9.41406L15.7129-11.416Q15.5176-11.5918 15.4932-11.7529Q15.4688-11.9141 15.5859-12.1875L16.4648-14.2773Q15.293-15.3711 13.8281-15.791Q12.3633-16.2109 10.8398-15.7617Q10.7227-15.7324 10.6885-15.8057Q10.6543-15.8789 10.752-15.957Z"/>
  </g>
  <text style="stroke:none;fill:black;font-family:sans-serif;font-size:13;font-weight:bold;" transform="matrix(1 0 0 1 1289 1953)">Exporting</text>
  <text style="stroke:none;fill:black;font-family:sans-serif;font-size:13;" transform="matrix(1 0 0 1 1289 1971)">Symbols should be outlined when exporting to ensure the</text>
  <text style="stroke:none;fill:black;font-family:sans-serif;font-size:13;" transform="matrix(1 0 0 1 1289 1989)">design is preserved when submitting to Xcode.</text>
  <text id="template-version" style="stroke:none;fill:black;font-family:sans-serif;font-size:13;text-anchor:end;" transform="matrix(1 0 0 1 3036 1933)">Template v.2.0</text>
  <text style="stroke:none;fill:black;font-family:sans-serif;font-size:13;text-anchor:end;" transform="matrix(1 0 0 1 3036 1951)">Requires Xcode 12 or greater</text>
  <text id="descriptive-name" style="stroke:none;fill:black;font-family:sans-serif;font-size:13;text-anchor:end;" transform="matrix(1 0 0 1 3036 1969)">Generated from light.min</text>
  <text style="stroke:none;fill:black;font-family:sans-serif;font-size:13;text-anchor:end;" transform="matrix(1 0 0 1 3036 1987)">Typeset at 100 points</text>
  <text style="stroke:none;fill:black;font-family:sans-serif;font-size:13;" transform="matrix(1 0 0 1 263 726)">Small</text>
  <text style="stroke:none;fill:black;font-family:sans-serif;font-size:13;" transform="matrix(1 0 0 1 263 1156)">Medium</text>
  <text style="stroke:none;fill:black;font-family:sans-serif;font-size:13;" transform="matrix(1 0 0 1 263 1586)">Large</text>
 </g>
 <g id="Guides">
  <g id="H-reference" style="fill:#27AAE1;stroke:none;" transform="matrix(1 0 0 1 339 696)">
   <path d="M0.976562 0L3.66211 0L29.3457-67.1387L30.0293-67.1387L30.0293-70.459L28.125-70.459ZM11.6699-24.4629L46.9727-24.4629L46.2402-26.709L12.4512-26.709ZM55.127 0L57.7637 0L30.6152-70.459L29.4434-70.459L29.4434-67.1387Z"/>
  </g>
  <line id="Baseline-S" style="fill:none;stroke:#27AAE1;opacity:1;stroke-width:0.5;" x1="263" x2="3036" y1="696" y2="696"/>
  <line id="Capline-S" style="fill:none;stroke:#27AAE1;opacity:1;stroke-width:0.5;" x1="263" x2="3036" y1="625.541" y2="625.541"/>
  <g id="H-reference" style="fill:#27AAE1;stroke:none;" transform="matrix(1 0 0 1 339 1126)">
   <path d="M0.976562 0L3.66211 0L29.3457-67.1387L30.0293-67.1387L30.0293-70.459L28.125-70.459ZM11.6699-24.4629L46.9727-24.4629L46.2402-26.709L12.4512-26.709ZM55.127 0L57.7637 0L30.6152-70.459L29.4434-70.459L29.4434-67.1387Z"/>
  </g>
  <line id="Baseline-M" style="fill:none;stroke:#27AAE1;opacity:1;stroke-width:0.5;" x1="263" x2="3036" y1="1126" y2="1126"/>
  <line id="Capline-M" style="fill:none;stroke:#27AAE1;opacity:1;stroke-width:0.5;" x1="263" x2="3036" y1="1055.54" y2="1055.54"/>
  <g id="H-reference" style="fill:#27AAE1;stroke:none;" transform="matrix(1 0 0 1 339 1556)">
   <path d="M0.976562 0L3.66211 0L29.3457-67.1387L30.0293-67.1387L30.0293-70.459L28.125-70.459ZM11.6699-24.4629L46.9727-24.4629L46.2402-26.709L12.4512-26.709ZM55.127 0L57.7637 0L30.6152-70.459L29.4434-70.459L29.4434-67.1387Z"/>
  </g>
  <line id="Baseline-L" style="fill:none;stroke:#27AAE1;opacity:1;stroke-width:0.5;" x1="263" x2="3036" y1="1556" y2="1556"/>
  <line id="Capline-L" style="fill:none;stroke:#27AAE1;opacity:1;stroke-width:0.5;" x1="263" x2="3036" y1="1485.54" y2="1485.54"/>
  <line id="left-margin" style="fill:none;stroke:#00AEEF;stroke-width:0.5;opacity:1.0;" x1="1382.91" x2="1382.91" y1="1030.79" y2="1150.12"/>
  <line id="right-margin" style="fill:none;stroke:#00AEEF;stroke-width:0.5;opacity:1.0;" x1="1516.77" x2="1516.77" y1="1030.79" y2="1150.12"/>
 </g>
 <g id="Symbols">
  <g id="Black-L" transform="matrix(1 0 0 1 2839.88 1556)">
   <path d="M22.3458 13.9473Q26.7605 13.9473 30.1368 10.582Q33.5132 7.21666 33.5132 2.88107Q33.5132-1.92177 30.3996-5.06448Q27.2861-8.20719 22.3458-8.20719Q17.835-8.20719 14.5469-4.97687Q11.2588-1.74655 11.2588 2.88107Q11.2588 7.27506 14.6053 10.6112Q17.9518 13.9473 22.3458 13.9473ZM42.0361-34.9151Q46.4313-34.9151 49.7967-38.2616Q53.162-41.608 53.162-45.9436Q53.162-50.8062 50.0303-53.9184Q46.8986-57.0306 42.0361-57.0306Q37.4461-57.0306 34.1872-53.8016Q30.9284-50.5725 30.9284-45.9436Q30.9284-41.5496 34.2749-38.2324Q37.6213-34.9151 42.0361-34.9151ZM93.5215-57.393Q97.9142-57.393 101.261-60.6999Q104.609-64.0068 104.609-68.5397Q104.609-73.1089 101.378-76.3677Q98.1479-79.6266 93.5215-79.6266Q88.7187-79.6266 85.5766-76.4846Q82.4346-73.3425 82.4346-68.5397Q82.4346-64.1237 85.8103-60.7583Q89.186-57.393 93.5215-57.393ZM145.103-34.9151Q149.497-34.9151 152.873-38.2616Q156.248-41.608 156.248-45.9436Q156.248-50.8062 153.106-53.9184Q149.964-57.0306 145.103-57.0306Q140.513-57.0306 137.264-53.8016Q134.016-50.5725 134.016-45.9436Q134.016-41.5496 137.352-38.2324Q140.688-34.9151 145.103-34.9151ZM164.697 13.9473Q169.5 13.9473 172.642 10.8156Q175.784 7.68391 175.784 2.88107Q175.784-1.47524 172.409-4.85158Q169.033-8.22791 164.697-8.22791Q160.164-8.22791 156.847-4.88078Q153.53-1.53365 153.53 2.88107Q153.53 7.50869 156.789 10.728Q160.048 13.9473 164.697 13.9473ZM68.0466 15.0063L118.968 15.0063Q123.751 15.0063 127.197 11.5315Q130.643 8.0567 130.643 3.27267Q130.643-1.56976 127.197-5.00501Q123.751-8.44027 118.968-8.44027L68.0466-8.44027Q63.2431-8.44027 59.7865-4.99465Q56.3299-1.54903 56.3299 3.27267Q56.3299 8.0567 59.7968 11.5315Q63.2638 15.0063 68.0466 15.0063Z"/>
  </g>
  <g id="Heavy-L" transform="matrix(1 0 0 1 2545.07 1556)">
   <path d="M21.5769 12.4773Q25.7179 12.4773 28.8466 9.36645Q31.9754 6.2556 31.9754 2.18898Q31.9754-2.23463 29.0474-5.18489Q26.1195-8.13514 21.5769-8.13514Q17.3764-8.13514 14.3176-5.11795Q11.2588-2.10076 11.2588 2.18898Q11.2588 6.30022 14.3622 9.38876Q17.4656 12.4773 21.5769 12.4773ZM40.6138-35.5621Q44.7311-35.5621 47.8419-38.6655Q50.9527-41.7689 50.9527-45.8356Q50.9527-50.3098 48.0204-53.2317Q45.088-56.1536 40.6138-56.1536Q36.3389-56.1536 33.3024-53.1425Q30.2659-50.1313 30.2659-45.8356Q30.2659-41.7243 33.3693-38.6432Q36.4728-35.5621 40.6138-35.5621ZM91.6213-57.7992Q95.7265-57.7992 98.833-60.8654Q101.939-63.9317 101.939-68.168Q101.939-72.4131 98.9222-75.4496Q95.905-78.486 91.6213-78.486Q87.1977-78.486 84.2505-75.5388Q81.3032-72.5916 81.3032-68.168Q81.3032-64.0209 84.429-60.9101Q87.5547-57.7992 91.6213-57.7992ZM142.782-35.5621Q146.893-35.5621 150.019-38.6655Q153.144-41.7689 153.144-45.8356Q153.144-50.3098 150.197-53.2317Q147.25-56.1536 142.782-56.1536Q138.507-56.1536 135.485-53.1425Q132.464-50.1313 132.464-45.8356Q132.464-41.7243 135.552-38.6432Q138.641-35.5621 142.782-35.5621ZM161.666 12.4773Q166.089 12.4773 169.037 9.54494Q171.984 6.61258 171.984 2.18898Q171.984-1.90741 168.858-5.03616Q165.732-8.1649 161.666-8.1649Q157.429-8.1649 154.348-5.05847Q151.267-1.95203 151.267 2.18898Q151.267 6.47871 154.304 9.47801Q157.34 12.4773 161.666 12.4773ZM66.1459 12.8447L116.978 12.8447Q121.132 12.8447 124.13 9.82729Q127.128 6.80989 127.128 2.64985Q127.128-1.55482 124.13-4.53503Q121.132-7.51524 116.978-7.51524L66.1459-7.51524Q61.9621-7.51524 58.9491-4.52015Q55.9361-1.52506 55.9361 2.64985Q55.9361 6.80989 58.964 9.82729Q61.9919 12.8447 66.1459 12.8447Z"/>
  </g>
  <g id="Bold-L" transform="matrix(1 0 0 1 2250.87 1556)">
   <path d="M20.6016 10.7523Q24.3875 10.7523 27.2062 7.95921Q30.0249 5.16613 30.0249 1.44643Q30.0249-2.5069 27.3376-5.20877Q24.6504-7.91064 20.6016-7.91064Q16.7943-7.91064 14.0266-5.16497Q11.2588-2.41929 11.2588 1.44643Q11.2588 5.19534 14.0558 7.97381Q16.8527 10.7523 20.6016 10.7523ZM38.804-36.1852Q42.5671-36.1852 45.3602-38.9821Q48.1533-41.7791 48.1533-45.4988Q48.1533-49.4956 45.477-52.1686Q42.8008-54.8417 38.804-54.8417Q34.9305-54.8417 32.1773-52.1102Q29.4242-49.3788 29.4242-45.4988Q29.4242-41.7499 32.2211-38.9675Q35.0181-36.1852 38.804-36.1852ZM89.1042-58.032Q92.8389-58.032 95.643-60.7959Q98.4471-63.5598 98.4471-67.4183Q98.4471-71.2548 95.7014-74.008Q92.9557-76.7611 89.1042-76.7611Q85.1509-76.7611 82.4562-74.0664Q79.7614-71.3716 79.7614-67.4183Q79.7614-63.6182 82.573-60.8251Q85.3845-58.032 89.1042-58.032ZM139.656-36.1852Q143.405-36.1852 146.216-38.9821Q149.028-41.7791 149.028-45.4988Q149.028-49.4956 146.333-52.1686Q143.638-54.8417 139.656-54.8417Q135.782-54.8417 133.047-52.1102Q130.313-49.3788 130.313-45.4988Q130.313-41.7499 133.091-38.9675Q135.87-36.1852 139.656-36.1852ZM157.607 10.7523Q161.56 10.7523 164.255 8.07602Q166.95 5.39976 166.95 1.44643Q166.95-2.31027 164.138-5.12895Q161.327-7.94763 157.607-7.94763Q153.748-7.94763 150.966-5.14355Q148.184-2.33947 148.184 1.44643Q148.184 5.31215 150.937 8.03222Q153.69 10.7523 157.607 10.7523ZM63.6197 10.3863L114.388 10.3863Q117.767 10.3863 120.218 7.92806Q122.669 5.46984 122.669 2.07688Q122.669-1.34527 120.218-3.77041Q117.767-6.19554 114.388-6.19554L63.6197-6.19554Q60.204-6.19554 57.7347-3.75191Q55.2655-1.30828 55.2655 2.07688Q55.2655 5.46984 57.7532 7.92806Q60.2409 10.3863 63.6197 10.3863Z"/>
  </g>
  <g id="Semibold-L" transform="matrix(1 0 0 1 1955.9 1556)">
   <path d="M19.9293 9.56307Q23.4704 9.56307 26.0753 6.98907Q28.6803 4.41506 28.6803 0.934521Q28.6803-2.69461 26.1589-5.22524Q23.6376-7.75588 19.9293-7.75588Q16.3931-7.75588 13.8259-5.19738Q11.2588-2.63889 11.2588 0.934521Q11.2588 4.43363 13.8445 6.99835Q16.4302 9.56307 19.9293 9.56307ZM37.5563-36.6147Q41.0753-36.6147 43.6493-39.2004Q46.2233-41.7861 46.2233-45.2667Q46.2233-48.9342 43.7236-51.4357Q41.2239-53.9372 37.5563-53.9372Q33.9595-53.9372 31.4017-51.3986Q28.8438-48.8599 28.8438-45.2667Q28.8438-41.7676 31.4296-39.1911Q34.0153-36.6147 37.5563-36.6147ZM87.369-58.1925Q90.8482-58.1925 93.4439-60.748Q96.0395-63.3034 96.0395-66.9015Q96.0395-70.4563 93.481-73.0142Q90.9225-75.572 87.369-75.572Q83.7399-75.572 81.2192-73.0513Q78.6985-70.5306 78.6985-66.9015Q78.6985-63.3405 81.2935-60.7665Q83.8884-58.1925 87.369-58.1925ZM137.501-36.6147Q141-36.6147 143.595-39.2004Q146.19-41.7861 146.19-45.2667Q146.19-48.9342 143.669-51.4357Q141.148-53.9372 137.501-53.9372Q133.904-53.9372 131.367-51.3986Q128.83-48.8599 128.83-45.2667Q128.83-41.7676 131.395-39.1911Q133.959-36.6147 137.501-36.6147ZM154.809 9.56307Q158.438 9.56307 160.958 7.06336Q163.479 4.56365 163.479 0.934521Q163.479-2.58799 160.884-5.19292Q158.289-7.79785 154.809-7.79785Q151.211-7.79785 148.634-5.20221Q146.058-2.60657 146.058 0.934521Q146.058 4.50793 148.616 7.0355Q151.173 9.56307 154.809 9.56307ZM61.8781 8.69148L112.603 8.69148Q115.447 8.69148 117.521 6.61875Q119.594 4.54601 119.594 1.68188Q119.594-1.20081 117.521-3.24328Q115.447-5.28574 112.603-5.28574L61.8781-5.28574Q58.9919-5.28574 56.8975-3.22229Q54.8031-1.15884 54.8031 1.68188Q54.8031 4.54601 56.9185 6.61875Q59.0338 8.69148 61.8781 8.69148Z"/>
  </g>
  <g id="Medium-L" transform="matrix(1 0 0 1 1660.5 1556)">
   <path d="M19.4195 8.66136Q22.775 8.66136 25.2178 6.25346Q27.6607 3.84557 27.6607 0.546371Q27.6607-2.83693 25.2652-5.23773Q22.8696-7.63853 19.4195-7.63853Q16.0888-7.63853 13.6738-5.22196Q11.2588-2.80539 11.2588 0.546371Q11.2588 3.85608 13.6843 6.25872Q16.1098 8.66136 19.4195 8.66136ZM36.6103-36.9404Q39.9442-36.9404 42.3521-39.3659Q44.76-41.7914 44.76-45.0906Q44.76-48.5086 42.3941-50.88Q40.0283-53.2514 36.6103-53.2514Q33.2233-53.2514 30.8136-50.859Q28.4038-48.4666 28.4038-45.0906Q28.4038-41.7809 30.8294-39.3607Q33.2549-36.9404 36.6103-36.9404ZM86.0532-58.3142Q89.3388-58.3142 91.7764-60.7116Q94.214-63.109 94.214-66.5096Q94.214-69.8509 91.7974-72.2606Q89.3808-74.6704 86.0532-74.6704Q82.6699-74.6704 80.2812-72.2816Q77.8925-69.8929 77.8925-66.5096Q77.8925-63.13 80.3233-60.7221Q82.754-58.3142 86.0532-58.3142ZM135.866-36.9404Q139.176-36.9404 141.607-39.3659Q144.038-41.7914 144.038-45.0906Q144.038-48.5086 141.649-50.88Q139.26-53.2514 135.866-53.2514Q132.479-53.2514 130.093-50.859Q127.706-48.4666 127.706-45.0906Q127.706-41.7809 130.108-39.3607Q132.511-36.9404 135.866-36.9404ZM152.687 8.66136Q156.07 8.66136 158.459 6.29552Q160.848 3.92967 160.848 0.546371Q160.848-2.79858 158.417-5.24143Q155.986-7.68428 152.687-7.68428Q149.286-7.68428 146.866-5.24668Q144.446-2.80909 144.446 0.546371Q144.446 3.89813 146.856 6.27975Q149.265 8.66136 152.687 8.66136ZM60.5576 7.4064L111.25 7.4064Q113.689 7.4064 115.476 5.62597Q117.263 3.84553 117.263 1.38238Q117.263-1.09128 115.476-2.84359Q113.689-4.59589 111.25-4.59589L60.5576-4.59589Q58.0728-4.59589 56.2627-2.82071Q54.4526-1.04553 54.4526 1.38238Q54.4526 3.84553 56.2856 5.62597Q58.1186 7.4064 60.5576 7.4064Z"/>
  </g>
  <g id="Regular-L" transform="matrix(1 0 0 1 1365.51 1556)">
   <path d="M18.7546 7.48522Q21.8679 7.48522 24.0994 5.29398Q26.3308 3.10275 26.3308 0.0400883Q26.3308-3.02257 24.0994-5.25401Q21.8679-7.48546 18.7546-7.48546Q15.6919-7.48546 13.4754-5.25401Q11.2588-3.02257 11.2588 0.0400883Q11.2588 3.10275 13.4754 5.29398Q15.6919 7.48522 18.7546 7.48522ZM35.3764-37.3652Q38.4688-37.3652 40.66-39.5818Q42.8513-41.7984 42.8513-44.861Q42.8513-47.9534 40.66-50.1551Q38.4688-52.3568 35.3764-52.3568Q32.2631-52.3568 30.0465-50.1551Q27.8299-47.9534 27.8299-44.861Q27.8299-41.7984 30.0465-39.5818Q32.2631-37.3652 35.3764-37.3652ZM84.337-58.4729Q87.37-58.4729 89.6014-60.6642Q91.8329-62.8554 91.8329-65.9985Q91.8329-69.0612 89.6014-71.2777Q87.37-73.4943 84.337-73.4943Q81.2744-73.4943 79.0578-71.2777Q76.8412-69.0612 76.8412-65.9985Q76.8412-62.8554 79.0578-60.6642Q81.2744-58.4729 84.337-58.4729ZM133.735-37.3652Q136.798-37.3652 139.014-39.5818Q141.231-41.7984 141.231-44.861Q141.231-47.9534 139.014-50.1551Q136.798-52.3568 133.735-52.3568Q130.622-52.3568 128.43-50.1551Q126.239-47.9534 126.239-44.861Q126.239-41.7984 128.43-39.5818Q130.622-37.3652 133.735-37.3652ZM149.919 7.48522Q152.982 7.48522 155.199 5.29398Q157.415 3.10275 157.415 0.0400883Q157.415-3.07325 155.199-5.3047Q152.982-7.53614 149.919-7.53614Q146.776-7.53614 144.56-5.3047Q142.343-3.07325 142.343 0.0400883Q142.343 3.10275 144.56 5.29398Q146.776 7.48522 149.919 7.48522ZM58.8351 5.73022L109.484 5.73022Q111.395 5.73022 112.809 4.33104Q114.223 2.93185 114.223 0.991723Q114.223-0.948408 112.809-2.32225Q111.395-3.69609 109.484-3.69609L58.8351-3.69609Q56.8741-3.69609 55.4347-2.29691Q53.9953-0.897727 53.9953 0.991723Q53.9953 2.93185 55.46 4.33104Q56.9247 5.73022 58.8351 5.73022Z"/>
  </g>
  <g id="Light-L" transform="matrix(1 0 0 1 1071.59 1556)">
   <path d="M17.9337 6.9106Q20.6982 6.9106 22.6936 4.95537Q24.6891 3.00014 24.6891 0.26583Q24.6891-2.46848 22.6936-4.46392Q20.6982-6.45936 17.9337-6.45936Q15.1994-6.45936 13.2291-4.46392Q11.2588-2.46848 11.2588 0.26583Q11.2588 3.00014 13.2291 4.95537Q15.1994 6.9106 17.9337 6.9106ZM33.8167-36.647Q36.6013-36.647 38.5565-38.6173Q40.5118-40.5876 40.5118-43.3219Q40.5118-46.1065 38.5565-48.0516Q36.6013-49.9968 33.8167-49.9968Q31.0523-49.9968 29.0819-48.0516Q27.1116-46.1065 27.1116-43.3219Q27.1116-40.5876 29.0819-38.6173Q31.0523-36.647 33.8167-36.647ZM81.5461-56.8928Q84.2301-56.8928 86.2255-58.848Q88.221-60.8032 88.221-63.6179Q88.221-66.3523 86.2255-68.3226Q84.2301-70.2929 81.5461-70.2929Q78.8118-70.2929 76.8414-68.3226Q74.8711-66.3523 74.8711-63.6179Q74.8711-60.8032 76.8414-58.848Q78.8118-56.8928 81.5461-56.8928ZM129.959-36.647Q132.693-36.647 134.664-38.6173Q136.634-40.5876 136.634-43.3219Q136.634-46.1065 134.664-48.0516Q132.693-49.9968 129.959-49.9968Q127.194-49.9968 125.239-48.0516Q123.284-46.1065 123.284-43.3219Q123.284-40.5876 125.239-38.6173Q127.194-36.647 129.959-36.647ZM145.158 6.9106Q147.893 6.9106 149.863 4.95537Q151.833 3.00014 151.833 0.26583Q151.833-2.49864 149.863-4.49408Q147.893-6.48952 145.158-6.48952Q142.344-6.48952 140.373-4.49408Q138.403-2.49864 138.403 0.26583Q138.403 3.00014 140.373 4.95537Q142.344 6.9106 145.158 6.9106ZM55.9826 5.44291L106.898 5.44291Q108.296 5.44291 109.381 4.38234Q110.467 3.32177 110.467 1.87417Q110.467 0.426564 109.381-0.618926Q108.296-1.66442 106.898-1.66442L55.9826-1.66442Q54.5551-1.66442 53.4543-0.603846Q52.3535 0.456723 52.3535 1.87417Q52.3535 3.32177 53.4694 4.38234Q54.5852 5.44291 55.9826 5.44291Z"/>
  </g>
  <g id="Thin-L" transform="matrix(1 0 0 1 778.567 1556)">
   <path d="M16.848 6.15063Q19.1511 6.15063 20.8344 4.50753Q22.5177 2.86443 22.5177 0.564391Q22.5177-1.73564 20.8344-3.41895Q19.1511-5.10226 16.848-5.10226Q14.548-5.10226 12.9034-3.41895Q11.2588-1.73564 11.2588 0.564391Q11.2588 2.86443 12.9034 4.50753Q14.548 6.15063 16.848 6.15063ZM31.7539-35.697Q34.1314-35.697 35.7745-37.3416Q37.4176-38.9862 37.4176-41.2862Q37.4176-43.6637 35.7745-45.2696Q34.1314-46.8755 31.7539-46.8755Q29.4509-46.8755 27.8063-45.2696Q26.1617-43.6637 26.1617-41.2862Q26.1617-38.9862 27.8063-37.3416Q29.4509-35.697 31.7539-35.697ZM77.8548-54.8028Q80.0774-54.8028 81.7607-56.4459Q83.444-58.089 83.444-60.4695Q83.444-62.7695 81.7607-64.4141Q80.0774-66.0587 77.8548-66.0587Q75.5547-66.0587 73.9101-64.4141Q72.2655-62.7695 72.2655-60.4695Q72.2655-58.089 73.9101-56.4459Q75.5547-54.8028 77.8548-54.8028ZM124.965-35.697Q127.265-35.697 128.909-37.3416Q130.554-38.9862 130.554-41.2862Q130.554-43.6637 128.909-45.2696Q127.265-46.8755 124.965-46.8755Q122.662-46.8755 121.019-45.2696Q119.376-43.6637 119.376-41.2862Q119.376-38.9862 121.019-37.3416Q122.662-35.697 124.965-35.697ZM138.861 6.15063Q141.162 6.15063 142.806 4.50753Q144.451 2.86443 144.451 0.564391Q144.451-1.73866 142.806-3.42197Q141.162-5.10528 138.861-5.10528Q136.481-5.10528 134.836-3.42197Q133.192-1.73866 133.192 0.564391Q133.192 2.86443 134.836 4.50753Q136.481 6.15063 138.861 6.15063ZM52.2099 5.06292L103.479 5.06292Q104.197 5.06292 104.849 4.4502Q105.5 3.83747 105.5 3.04127Q105.5 2.24507 104.849 1.63386Q104.197 1.02264 103.479 1.02264L52.2099 1.02264Q51.488 1.02264 50.8351 1.63537Q50.1822 2.24809 50.1822 3.04127Q50.1822 3.83747 50.8366 4.4502Q51.4911 5.06292 52.2099 5.06292Z"/>
  </g>
  <g id="Ultralight-L" transform="matrix(1 0 0 1 483.747 1556)">
   <path d="M16.292 5.76137Q18.3587 5.76137 19.8821 4.27814Q21.4056 2.79492 21.4056 0.717313Q21.4056-1.36029 19.8821-2.88373Q18.3587-4.40716 16.292-4.40716Q14.2144-4.40716 12.7366-2.88373Q11.2588-1.36029 11.2588 0.717313Q11.2588 2.79492 12.7366 4.27814Q14.2144 5.76137 16.292 5.76137ZM30.6974-35.2104Q32.8663-35.2104 34.3495-36.6882Q35.8327-38.166 35.8327-40.2436Q35.8327-42.4125 34.3495-43.8446Q32.8663-45.2768 30.6974-45.2768Q28.6307-45.2768 27.1529-43.8446Q25.6751-42.4125 25.6751-40.2436Q25.6751-38.166 27.1529-36.6882Q28.6307-35.2104 30.6974-35.2104ZM75.9641-53.7324Q77.9504-53.7324 79.4738-55.2156Q80.9973-56.6988 80.9973-58.8568Q80.9973-60.9345 79.4738-62.4122Q77.9504-63.89 75.9641-63.89Q73.8865-63.89 72.4087-62.4122Q70.9309-60.9345 70.9309-58.8568Q70.9309-56.6988 72.4087-55.2156Q73.8865-53.7324 75.9641-53.7324ZM122.407-35.2104Q124.484-35.2104 125.962-36.6882Q127.44-38.166 127.44-40.2436Q127.44-42.4125 125.962-43.8446Q124.484-45.2768 122.407-45.2768Q120.34-45.2768 118.857-43.8446Q117.374-42.4125 117.374-40.2436Q117.374-38.166 118.857-36.6882Q120.34-35.2104 122.407-35.2104ZM135.636 5.76137Q137.714 5.76137 139.192 4.27814Q140.669 2.79492 140.669 0.717313Q140.669-1.34941 139.192-2.87284Q137.714-4.39628 135.636-4.39628Q133.478-4.39628 132-2.87284Q130.523-1.34941 130.523 0.717313Q130.523 2.79492 132 4.27814Q133.478 5.76137 135.636 5.76137ZM50.2775 4.86829L101.727 4.86829Q102.098 4.86829 102.527 4.48495Q102.956 4.10161 102.956 3.63906Q102.956 3.17651 102.527 2.78772Q102.098 2.39893 101.727 2.39893L50.2775 2.39893Q49.9171 2.39893 49.4936 2.78228Q49.07 3.16562 49.07 3.63906Q49.07 4.10161 49.4881 4.48495Q49.9062 4.86829 50.2775 4.86829Z"/>
  </g>
  <g id="Black-M" transform="matrix(1 0 0 1 2859.69 1126)">
   <path d="M17.8618 4.05536Q21.47 4.05536 24.2666 1.26137Q27.0632-1.53263 27.0632-5.07825Q27.0632-9.08065 24.5236-11.6489Q21.9839-14.2171 17.8618-14.2171Q14.1449-14.2171 11.4338-11.5632Q8.72266-8.90936 8.72266-5.07825Q8.72266-1.47553 11.4909 1.28992Q14.2591 4.05536 17.8618 4.05536ZM33.5781-34.3325Q37.1806-34.3325 39.9746-37.1007Q42.7686-39.8689 42.7686-43.4145Q42.7686-47.4737 40.2029-50.0137Q37.6373-52.5537 33.5781-52.5537Q29.7986-52.5537 27.1161-49.8995Q24.4335-47.2453 24.4335-43.4145Q24.4335-39.8118 27.2017-37.0722Q29.9699-34.3325 33.5781-34.3325ZM73.71-51.8373Q77.313-51.8373 80.0811-54.5742Q82.8491-57.3111 82.8491-61.0332Q82.8491-64.8072 80.1953-67.4898Q77.5414-70.1723 73.71-70.1723Q69.7076-70.1723 67.1393-67.604Q64.5709-65.0356 64.5709-61.0332Q64.5709-57.4253 67.3676-54.6313Q70.1644-51.8373 73.71-51.8373ZM113.901-34.3325Q117.503-34.3325 120.3-37.1007Q123.097-39.8689 123.097-43.4145Q123.097-47.4737 120.528-50.0137Q117.96-52.5537 113.901-52.5537Q110.121-52.5537 107.441-49.8995Q104.761-47.2453 104.761-43.4145Q104.761-39.8118 107.527-37.0722Q110.292-34.3325 113.901-34.3325ZM129.558 4.05536Q133.561 4.05536 136.129 1.48976Q138.697-1.07585 138.697-5.07825Q138.697-8.62939 135.901-11.426Q133.104-14.2226 129.558-14.2226Q125.836-14.2226 123.096-11.4545Q120.357-8.68648 120.357-5.07825Q120.357-1.24714 123.039 1.40411Q125.722 4.05536 129.558 4.05536ZM53.9655 5.50918L93.5301 5.50918Q97.7063 5.50918 100.717 2.46984Q103.728-0.569487 103.728-4.74541Q103.728-8.97843 100.717-11.9865Q97.7063-14.9945 93.5301-14.9945L53.9655-14.9945Q49.7838-14.9945 46.7704-11.9837Q43.757-8.97292 43.757-4.74541Q43.757-0.569487 46.7732 2.46984Q49.7893 5.50918 53.9655 5.50918Z"/>
  </g>
  <g id="Heavy-M" transform="matrix(1 0 0 1 2564.58 1126)">
   <path d="M17.1859 2.67133Q20.5587 2.67133 23.1351 0.10434Q25.7114-2.46265 25.7114-5.77564Q25.7114-9.43761 23.3314-11.8395Q20.9513-14.2413 17.1859-14.2413Q13.742-14.2413 11.2323-11.774Q8.72266-9.30674 8.72266-5.77564Q8.72266-2.41903 11.276 0.126151Q13.8293 2.67133 17.1859 2.67133ZM32.3316-35.0313Q35.6907-35.0313 38.2577-37.5846Q40.8247-40.1379 40.8247-43.4509Q40.8247-47.1589 38.4322-49.5365Q36.0397-51.9141 32.3316-51.9141Q28.8279-51.9141 26.3401-49.4493Q23.8522-46.9844 23.8522-43.4509Q23.8522-40.0943 26.4055-37.5628Q28.9588-35.0313 32.3316-35.0313ZM72.1099-52.3802Q75.4641-52.3802 78.0186-54.9035Q80.5731-57.4269 80.5731-60.8894Q80.5731-64.3769 78.1058-66.8648Q75.6386-69.3527 72.1099-69.3527Q68.4479-69.3527 66.0473-66.952Q63.6467-64.5514 63.6467-60.8894Q63.6467-57.5141 66.2218-54.9472Q68.7969-52.3802 72.1099-52.3802ZM111.98-35.0313Q115.336-35.0313 117.912-37.5846Q120.487-40.1379 120.487-43.4509Q120.487-47.1589 118.086-49.5365Q115.685-51.9141 111.98-51.9141Q108.476-51.9141 105.996-49.4493Q103.517-46.9844 103.517-43.4509Q103.517-40.0943 106.062-37.5628Q108.607-35.0313 111.98-35.0313ZM127.034 2.67133Q130.696 2.67133 133.097 0.278826Q135.497-2.11368 135.497-5.77564Q135.497-9.10487 132.922-11.6812Q130.347-14.2575 127.034-14.2575Q123.571-14.2575 121.04-11.703Q118.508-9.14849 118.508-5.77564Q118.508-2.24455 120.996 0.213394Q123.484 2.67133 127.034 2.67133ZM52.3707 3.42253L91.8227 3.42253Q95.4316 3.42253 98.0345 0.799113Q100.637-1.8243 100.637-5.43568Q100.637-9.09067 98.0345-11.6842Q95.4316-14.2776 91.8227-14.2776L52.3707-14.2776Q48.7455-14.2776 46.1346-11.676Q43.5236-9.07443 43.5236-5.43568Q43.5236-1.8243 46.1427 0.799113Q48.7617 3.42253 52.3707 3.42253Z"/>
  </g>
  <g id="Bold-M" transform="matrix(1 0 0 1 2269.66 1126)">
   <path d="M16.4298 1.1231Q19.5393 1.1231 21.8692-1.18996Q24.1992-3.50303 24.1992-6.55578Q24.1992-9.83692 21.9977-12.0527Q19.7962-14.2684 16.4298-14.2684Q13.2914-14.2684 11.007-12.0098Q8.72266-9.75127 8.72266-6.55578Q8.72266-3.47448 11.0356-1.17569Q13.3485 1.1231 16.4298 1.1231ZM30.9372-35.813Q34.0241-35.813 36.3371-38.1259Q38.6502-40.4388 38.6502-43.4915Q38.6502-46.8067 36.4513-49.0027Q34.2525-51.1986 30.9372-51.1986Q27.7421-51.1986 25.472-48.9456Q23.2019-46.6925 23.2019-43.4915Q23.2019-40.4102 25.5148-38.1116Q27.8277-35.813 30.9372-35.813ZM70.32-52.9875Q73.3957-52.9875 75.7114-55.272Q78.0271-57.5565 78.0271-60.7286Q78.0271-63.8956 75.7685-66.1657Q73.5099-68.4357 70.32-68.4357Q67.0388-68.4357 64.8258-66.2228Q62.6128-64.0098 62.6128-60.7286Q62.6128-57.6136 64.94-55.3005Q67.2672-52.9875 70.32-52.9875ZM109.831-35.813Q112.913-35.813 115.24-38.1259Q117.567-40.4388 117.567-43.4915Q117.567-46.8067 115.354-49.0027Q113.141-51.1986 109.831-51.1986Q106.636-51.1986 104.38-48.9456Q102.124-46.6925 102.124-43.4915Q102.124-40.4102 104.423-38.1116Q106.722-35.813 109.831-35.813ZM124.21 1.1231Q127.491 1.1231 129.704-1.07577Q131.917-3.27464 131.917-6.55578Q131.917-9.63677 129.59-11.9667Q127.263-14.2966 124.21-14.2966Q121.038-14.2966 118.739-11.981Q116.441-9.66532 116.441-6.55578Q116.441-3.36028 118.711-1.11859Q120.981 1.1231 124.21 1.1231ZM50.5866 1.08831L89.9128 1.08831Q92.8871 1.08831 95.0337-1.06984Q97.1804-3.22799 97.1804-6.20783Q97.1804-9.21623 95.0337-11.346Q92.8871-13.4757 89.9128-13.4757L50.5866-13.4757Q47.584-13.4757 45.4232-11.3319Q43.2625-9.18799 43.2625-6.20783Q43.2625-3.22799 45.4374-1.06984Q47.6122 1.08831 50.5866 1.08831Z"/>
  </g>
  <g id="Semibold-M" transform="matrix(1 0 0 1 1974.18 1126)">
   <path d="M15.9085 0.0557506Q18.8365 0.0557506 20.9966-2.08225Q23.1567-4.22025 23.1567-7.0936Q23.1567-10.1122 21.0783-12.1996Q18.9999-14.2871 15.9085-14.2871Q12.9807-14.2871 10.8517-12.1724Q8.72266-10.0577 8.72266-7.0936Q8.72266-4.20209 10.8698-2.07317Q13.017 0.0557506 15.9085 0.0557506ZM29.976-36.3519Q32.8751-36.3519 35.0131-38.499Q37.1511-40.6462 37.1511-43.5196Q37.1511-46.564 35.0857-48.6347Q33.0204-50.7054 29.976-50.7054Q26.9935-50.7054 24.8735-48.5984Q22.7536-46.4913 22.7536-43.5196Q22.7536-40.6281 24.9008-38.49Q27.0479-36.3519 29.976-36.3519ZM69.086-53.4061Q71.9698-53.4061 74.1208-55.526Q76.2718-57.6458 76.2718-60.6178Q76.2718-63.5638 74.1571-65.6837Q72.0425-67.8036 69.086-67.8036Q66.0674-67.8036 63.9837-65.72Q61.9001-63.6364 61.9001-60.6178Q61.9001-57.6821 64.0564-55.5441Q66.2126-53.4061 69.086-53.4061ZM108.35-36.3519Q111.241-36.3519 113.398-38.499Q115.554-40.6462 115.554-43.5196Q115.554-46.564 113.47-48.6347Q111.387-50.7054 108.35-50.7054Q105.367-50.7054 103.266-48.5984Q101.164-46.4913 101.164-43.5196Q101.164-40.6281 103.293-38.49Q105.422-36.3519 108.35-36.3519ZM122.263 0.0557506Q125.282 0.0557506 127.366-2.00962Q129.449-4.075 129.449-7.0936Q129.449-10.0035 127.293-12.1635Q125.137-14.3236 122.263-14.3236Q119.291-14.3236 117.153-12.1726Q115.015-10.0216 115.015-7.0936Q115.015-4.12947 117.135-2.03686Q119.255 0.0557506 122.263 0.0557506ZM49.3566-0.520891L88.5961-0.520891Q91.1329-0.520891 92.9651-2.35829Q94.7972-4.19568 94.7972-6.74016Q94.7972-9.30279 92.9651-11.1129Q91.1329-12.9229 88.5961-12.9229L49.3566-12.9229Q46.7833-12.9229 44.9329-11.0946Q43.0825-9.26628 43.0825-6.74016Q43.0825-4.19568 44.9511-2.35829Q46.8198-0.520891 49.3566-0.520891Z"/>
  </g>
  <g id="Medium-M" transform="matrix(1 0 0 1 1678.41 1126)">
   <path d="M15.5133-0.753555Q18.3036-0.753555 20.3349-2.75882Q22.3662-4.76408 22.3662-7.5014Q22.3662-10.3209 20.3812-12.3111Q18.3961-14.3013 15.5133-14.3013Q12.7451-14.3013 10.7339-12.2957Q8.72266-10.2901 8.72266-7.5014Q8.72266-4.7538 10.7442-2.75368Q12.7657-0.753555 15.5133-0.753555ZM29.2471-36.7605Q32.0039-36.7605 34.0092-38.782Q36.0144-40.8035 36.0144-43.5408Q36.0144-46.3799 34.0503-48.3557Q32.0861-50.3314 29.2471-50.3314Q26.4259-50.3314 24.4198-48.3351Q22.4137-46.3388 22.4137-43.5408Q22.4137-40.7932 24.4352-38.7768Q26.4567-36.7605 29.2471-36.7605ZM68.1503-53.7236Q70.8887-53.7236 72.9148-55.7186Q74.9409-57.7135 74.9409-60.5337Q74.9409-63.3121 72.9354-65.3182Q70.9298-67.3243 68.1503-67.3243Q65.3308-67.3243 63.3452-65.3388Q61.3597-63.3533 61.3597-60.5337Q61.3597-57.7341 63.3863-55.7288Q65.413-53.7236 68.1503-53.7236ZM107.227-36.7605Q109.974-36.7605 112.001-38.782Q114.028-40.8035 114.028-43.5408Q114.028-46.3799 112.042-48.3557Q110.057-50.3314 107.227-50.3314Q104.406-50.3314 102.421-48.3351Q100.436-46.3388 100.436-43.5408Q100.436-40.7932 102.436-38.7768Q104.436-36.7605 107.227-36.7605ZM120.787-0.753555Q123.607-0.753555 125.592-2.71771Q127.578-4.68186 127.578-7.5014Q127.578-10.2815 125.551-12.3128Q123.525-14.344 120.787-14.344Q117.967-14.344 115.951-12.3179Q113.934-10.2918 113.934-7.5014Q113.934-4.71269 115.941-2.73313Q117.947-0.753555 120.787-0.753555ZM48.424-1.74105L87.5977-1.74105Q89.8028-1.74105 91.3965-3.33524Q92.9902-4.92943 92.9902-7.14379Q92.9902-9.36842 91.3965-10.9361Q89.8028-12.5037 87.5977-12.5037L48.424-12.5037Q46.1761-12.5037 44.5611-10.9147Q42.946-9.32564 42.946-7.14379Q42.946-4.92943 44.5824-3.33524Q46.2189-1.74105 48.424-1.74105Z"/>
  </g>
  <g id="Regular-M" transform="matrix(1 0 0 1 1382.91 1126)">
   <path d="M14.9978-1.80917Q17.6086-1.80917 19.4719-3.6413Q21.3352-5.47343 21.3352-8.03331Q21.3352-10.5932 19.4719-12.4565Q17.6086-14.3197 14.9978-14.3197Q12.4379-14.3197 10.5803-12.4565Q8.72266-10.5932 8.72266-8.03331Q8.72266-5.47343 10.5803-3.6413Q12.4379-1.80917 14.9978-1.80917ZM28.2964-37.2934Q30.8676-37.2934 32.6997-39.151Q34.5318-41.0087 34.5318-43.5685Q34.5318-46.1398 32.6997-47.9917Q30.8676-49.8436 28.2964-49.8436Q25.6855-49.8436 23.8279-47.9917Q21.9703-46.1398 21.9703-43.5685Q21.9703-41.0087 23.8279-39.151Q25.6855-37.2934 28.2964-37.2934ZM66.9299-54.1376Q69.4784-54.1376 71.3417-55.9698Q73.205-57.8019 73.205-60.4241Q73.205-62.984 71.3417-64.8416Q69.4784-66.6992 66.9299-66.6992Q64.37-66.6992 62.5124-64.8416Q60.6548-62.984 60.6548-60.4241Q60.6548-57.8019 62.5124-55.9698Q64.37-54.1376 66.9299-54.1376ZM105.762-37.2934Q108.322-37.2934 110.179-39.151Q112.037-41.0087 112.037-43.5685Q112.037-46.1398 110.179-47.9917Q108.322-49.8436 105.762-49.8436Q103.151-49.8436 101.319-47.9917Q99.4868-46.1398 99.4868-43.5685Q99.4868-41.0087 101.319-39.151Q103.151-37.2934 105.762-37.2934ZM118.862-1.80917Q121.422-1.80917 123.28-3.6413Q125.137-5.47343 125.137-8.03331Q125.137-10.6441 123.28-12.5074Q121.422-14.3707 118.862-14.3707Q116.24-14.3707 114.382-12.5074Q112.525-10.6441 112.525-8.03331Q112.525-5.47343 114.382-3.6413Q116.24-1.80917 118.862-1.80917ZM47.2076-3.33256L86.2955-3.33256Q88.0679-3.33256 89.3506-4.60953Q90.6332-5.88649 90.6332-7.67026Q90.6332-9.45403 89.3506-10.7055Q88.0679-11.957 86.2955-11.957L47.2076-11.957Q45.3842-11.957 44.0761-10.68Q42.768-9.40307 42.768-7.67026Q42.768-5.88649 44.1016-4.60953Q45.4352-3.33256 47.2076-3.33256Z"/>
  </g>
  <g id="Light-M" transform="matrix(1 0 0 1 1088.71 1126)">
   <path d="M14.2618-2.32434Q16.5598-2.32434 18.2115-3.94488Q19.8632-5.56542 19.8632-7.83092Q19.8632-10.0964 18.2115-11.7481Q16.5598-13.3998 14.2618-13.3998Q11.9963-13.3998 10.3595-11.7481Q8.72266-10.0964 8.72266-7.83092Q8.72266-5.56542 10.3595-3.94488Q11.9963-2.32434 14.2618-2.32434ZM26.898-36.6495Q29.1933-36.6495 30.8138-38.2863Q32.4343-39.9231 32.4343-42.1886Q32.4343-44.4839 30.8138-46.1058Q29.1933-47.7277 26.898-47.7277Q24.6-47.7277 22.9632-46.1058Q21.3263-44.4839 21.3263-42.1886Q21.3263-39.9231 22.9632-38.2863Q24.6-36.6495 26.898-36.6495ZM64.4276-52.7209Q66.6634-52.7209 68.3151-54.3415Q69.9668-55.962 69.9668-58.2898Q69.9668-60.5553 68.3151-62.1921Q66.6634-63.8289 64.4276-63.8289Q62.1621-63.8289 60.5253-62.1921Q58.8885-60.5553 58.8885-58.2898Q58.8885-55.962 60.5253-54.3415Q62.1621-52.7209 64.4276-52.7209ZM102.376-36.6495Q104.642-36.6495 106.279-38.2863Q107.916-39.9231 107.916-42.1886Q107.916-44.4839 106.279-46.1058Q104.642-47.7277 102.376-47.7277Q100.078-47.7277 98.4579-46.1058Q96.8373-44.4839 96.8373-42.1886Q96.8373-39.9231 98.4579-38.2863Q100.078-36.6495 102.376-36.6495ZM114.593-2.32434Q116.859-2.32434 118.496-3.94488Q120.133-5.56542 120.133-7.83092Q120.133-10.129 118.496-11.7807Q116.859-13.4324 114.593-13.4324Q112.266-13.4324 110.629-11.7807Q108.992-10.129 108.992-7.83092Q108.992-5.56542 110.629-3.94488Q112.266-2.32434 114.593-2.32434ZM44.6501-3.59015L83.9772-3.59015Q85.2897-3.59015 86.2779-4.56353Q87.2662-5.53691 87.2662-6.8791Q87.2662-8.22129 86.2779-9.17839Q85.2897-10.1355 83.9772-10.1355L44.6501-10.1355Q43.3051-10.1355 42.3006-9.16211Q41.296-8.18873 41.296-6.8791Q41.296-5.53691 42.3169-4.56353Q43.3377-3.59015 44.6501-3.59015Z"/>
  </g>
  <g id="Thin-M" transform="matrix(1 0 0 1 795.304 1126)">
   <path d="M13.2884-3.0057Q15.1728-3.0057 16.5446-4.3464Q17.9165-5.68709 17.9165-7.56324Q17.9165-9.43939 16.5446-10.8112Q15.1728-12.1831 13.2884-12.1831Q11.4123-12.1831 10.0675-10.8112Q8.72266-9.43939 8.72266-7.56324Q8.72266-5.68709 10.0675-4.3464Q11.4123-3.0057 13.2884-3.0057ZM25.0486-35.7978Q26.9789-35.7978 28.3196-37.1426Q29.6603-38.4874 29.6603-40.3635Q29.6603-42.2938 28.3196-43.6115Q26.9789-44.9293 25.0486-44.9293Q23.1643-44.9293 21.8194-43.6115Q20.4746-42.2938 20.4746-40.3635Q20.4746-38.4874 21.8194-37.1426Q23.1643-35.7978 25.0486-35.7978ZM61.1182-50.8472Q62.9403-50.8472 64.3121-52.1879Q65.6839-53.5286 65.6839-55.467Q65.6839-57.3432 64.3121-58.688Q62.9403-60.0328 61.1182-60.0328Q59.242-60.0328 57.8972-58.688Q56.5524-57.3432 56.5524-55.467Q56.5524-53.5286 57.8972-52.1879Q59.242-50.8472 61.1182-50.8472ZM97.899-35.7978Q99.7751-35.7978 101.12-37.1426Q102.465-38.4874 102.465-40.3635Q102.465-42.2938 101.12-43.6115Q99.7751-44.9293 97.899-44.9293Q96.0146-44.9293 94.6739-43.6115Q93.3332-42.2938 93.3332-40.3635Q93.3332-38.4874 94.6739-37.1426Q96.0146-35.7978 97.899-35.7978ZM108.948-3.0057Q110.824-3.0057 112.169-4.3464Q113.514-5.68709 113.514-7.56324Q113.514-9.44762 112.169-10.8195Q110.824-12.1913 108.948-12.1913Q107.009-12.1913 105.665-10.8195Q104.32-9.44762 104.32-7.56324Q104.32-5.68709 105.665-4.3464Q107.009-3.0057 108.948-3.0057ZM41.2677-3.93083L80.9111-3.93083Q81.6152-3.93083 82.2141-4.50269Q82.813-5.07456 82.813-5.83273Q82.813-6.5909 82.2141-7.15866Q81.6152-7.72641 80.9111-7.72641L41.2677-7.72641Q40.5553-7.72641 39.9523-7.15454Q39.3493-6.58268 39.3493-5.83273Q39.3493-5.07456 39.9564-4.50269Q40.5636-3.93083 41.2677-3.93083Z"/>
  </g>
  <g id="Ultralight-M" transform="matrix(1 0 0 1 500.288 1126)">
   <path d="M12.7899-3.35469Q14.4624-3.35469 15.6909-4.55205Q16.9194-5.74941 16.9194-7.42614Q16.9194-9.10287 15.6909-10.3314Q14.4624-11.5599 12.7899-11.5599Q11.1131-11.5599 9.9179-10.3314Q8.72266-9.10287 8.72266-7.42614Q8.72266-5.74941 9.9179-4.55205Q11.1131-3.35469 12.7899-3.35469ZM24.1014-35.3615Q25.8447-35.3615 27.042-36.5568Q28.2394-37.752 28.2394-39.4288Q28.2394-41.172 27.042-42.334Q25.8447-43.496 24.1014-43.496Q22.4289-43.496 21.2336-42.334Q20.0384-41.172 20.0384-39.4288Q20.0384-37.752 21.2336-36.5568Q22.4289-35.3615 24.1014-35.3615ZM59.4231-49.8875Q61.0333-49.8875 62.2618-51.0848Q63.4903-52.2822 63.4903-54.0212Q63.4903-55.698 62.2618-56.8932Q61.0333-58.0884 59.4231-58.0884Q57.7464-58.0884 56.5511-56.8932Q55.3559-55.698 55.3559-54.0212Q55.3559-52.2822 56.5511-51.0848Q57.7464-49.8875 59.4231-49.8875ZM95.6056-35.3615Q97.2824-35.3615 98.4776-36.5568Q99.6728-37.752 99.6728-39.4288Q99.6728-41.172 98.4776-42.334Q97.2824-43.496 95.6056-43.496Q93.9331-43.496 92.7358-42.334Q91.5384-41.172 91.5384-39.4288Q91.5384-37.752 92.7358-36.5568Q93.9331-35.3615 95.6056-35.3615ZM106.056-3.35469Q107.733-3.35469 108.928-4.55205Q110.124-5.74941 110.124-7.42614Q110.124-9.09863 108.928-10.3271Q107.733-11.5557 106.056-11.5557Q104.317-11.5557 103.122-10.3271Q101.927-9.09863 101.927-7.42614Q101.927-5.74941 103.122-4.55205Q104.317-3.35469 106.056-3.35469ZM39.5352-4.10532L79.3407-4.10532Q79.7332-4.10532 80.1327-4.47153Q80.5321-4.83775 80.5321-5.29679Q80.5321-5.75583 80.1327-6.12416Q79.7332-6.49249 79.3407-6.49249L39.5352-6.49249Q39.1469-6.49249 38.7496-6.12628Q38.3522-5.76006 38.3522-5.29679Q38.3522-4.83775 38.7474-4.47153Q39.1427-4.10532 39.5352-4.10532Z"/>
  </g>
  <g id="Black-S" transform="matrix(1 0 0 1 2875.29 696)">
   <path d="M14.1602-4.05273Q17.041-4.05273 19.2871-6.29883Q21.5332-8.54492 21.5332-11.377Q21.5332-14.5996 19.5068-16.6504Q17.4805-18.7012 14.1602-18.7012Q11.1816-18.7012 9.00879-16.5771Q6.83594-14.4531 6.83594-11.377Q6.83594-8.49609 9.05762-6.27441Q11.2793-4.05273 14.1602-4.05273ZM26.6113-34.2773Q29.4922-34.2773 31.7383-36.499Q33.9844-38.7207 33.9844-41.5527Q33.9844-44.8242 31.9336-46.8506Q29.8828-48.877 26.6113-48.877Q23.584-48.877 21.4355-46.7529Q19.2871-44.6289 19.2871-41.5527Q19.2871-38.6719 21.5088-36.4746Q23.7305-34.2773 26.6113-34.2773ZM58.1055-47.998Q60.9863-47.998 63.208-50.1953Q65.4297-52.3926 65.4297-55.3711Q65.4297-58.3984 63.3057-60.5469Q61.1816-62.6953 58.1055-62.6953Q54.8828-62.6953 52.832-60.6445Q50.7812-58.5938 50.7812-55.3711Q50.7812-52.4902 53.0273-50.2441Q55.2734-47.998 58.1055-47.998ZM89.6484-34.2773Q92.5293-34.2773 94.7754-36.499Q97.0215-38.7207 97.0215-41.5527Q97.0215-44.8242 94.9707-46.8506Q92.9199-48.877 89.6484-48.877Q86.6211-48.877 84.4727-46.7529Q82.3242-44.6289 82.3242-41.5527Q82.3242-38.6719 84.5459-36.4746Q86.7676-34.2773 89.6484-34.2773ZM102.051-4.05273Q105.273-4.05273 107.324-6.10352Q109.375-8.1543 109.375-11.377Q109.375-14.209 107.129-16.4551Q104.883-18.7012 102.051-18.7012Q99.0723-18.7012 96.875-16.4795Q94.6777-14.2578 94.6777-11.377Q94.6777-8.30078 96.8262-6.17676Q98.9746-4.05273 102.051-4.05273ZM42.627-2.68555L73.6816-2.68555Q77.0996-2.68555 79.5654-5.17578Q82.0312-7.66602 82.0312-11.084Q82.0312-14.5508 79.5654-17.0166Q77.0996-19.4824 73.6816-19.4824L42.627-19.4824Q39.209-19.4824 36.7432-17.0166Q34.2773-14.5508 34.2773-11.084Q34.2773-7.66602 36.7432-5.17578Q39.209-2.68555 42.627-2.68555Z"/>
  </g>
  <g id="Heavy-S" transform="matrix(1 0 0 1 2579.63 696)">
   <path d="M13.6761-5.17061Q16.3956-5.17061 18.4804-7.2496Q20.5651-9.32859 20.5651-11.9993Q20.5651-14.9684 18.6483-16.9039Q16.7314-18.8395 13.6761-18.8395Q10.8935-18.8395 8.86473-16.848Q6.83594-14.8565 6.83594-11.9993Q6.83594-9.29128 8.90204-7.23094Q10.9681-5.17061 13.6761-5.17061ZM25.7239-34.9573Q28.4319-34.9573 30.5109-37.0234Q32.5899-39.0895 32.5899-41.7602Q32.5899-44.7666 30.6601-46.6835Q28.7304-48.6004 25.7239-48.6004Q22.8925-48.6004 20.8824-46.6089Q18.8722-44.6174 18.8722-41.7602Q18.8722-39.0522 20.9383-37.0047Q23.0044-34.9573 25.7239-34.9573ZM57.0567-48.6434Q59.7647-48.6434 61.8308-50.6851Q63.8969-52.7268 63.8969-55.5209Q63.8969-58.3408 61.9054-60.351Q59.9139-62.3611 57.0567-62.3611Q54.0876-62.3611 52.1521-60.4256Q50.2166-58.49 50.2166-55.5209Q50.2166-52.8014 52.3013-50.7224Q54.3861-48.6434 57.0567-48.6434ZM88.4384-34.9573Q91.1464-34.9573 93.2311-37.0234Q95.3159-39.0895 95.3159-41.7602Q95.3159-44.7666 93.3803-46.6835Q91.4448-48.6004 88.4384-48.6004Q85.6069-48.6004 83.6026-46.6089Q81.5982-44.6174 81.5982-41.7602Q81.5982-39.0522 83.6585-37.0047Q85.7189-34.9573 88.4384-34.9573ZM100.437-5.17061Q103.406-5.17061 105.342-7.10038Q107.278-9.03016 107.278-11.9993Q107.278-14.6815 105.193-16.7662Q103.108-18.851 100.437-18.851Q97.6432-18.851 95.5958-16.7849Q93.5483-14.7188 93.5483-11.9993Q93.5483-9.14207 95.5585-7.15634Q97.5686-5.17061 100.437-5.17061ZM41.5898-4.43727L72.5177-4.43727Q75.5092-4.43727 77.6639-6.61058Q79.8186-8.78389 79.8186-11.7755Q79.8186-14.8043 77.6639-16.9532Q75.5092-19.1021 72.5177-19.1021L41.5898-19.1021Q38.5867-19.1021 36.4262-16.9475Q34.2658-14.7928 34.2658-11.7755Q34.2658-8.78389 36.432-6.61058Q38.5982-4.43727 41.5898-4.43727Z"/>
  </g>
  <g id="Bold-S" transform="matrix(1 0 0 1 2284.09 696)">
   <path d="M13.1348-6.4209Q15.6738-6.4209 17.5781-8.31299Q19.4824-10.2051 19.4824-12.6953Q19.4824-15.3809 17.688-17.1875Q15.8936-18.9941 13.1348-18.9941Q10.5713-18.9941 8.70361-17.1509Q6.83594-15.3076 6.83594-12.6953Q6.83594-10.1807 8.72803-8.30078Q10.6201-6.4209 13.1348-6.4209ZM24.7314-35.7178Q27.2461-35.7178 29.1382-37.6099Q31.0303-39.502 31.0303-41.9922Q31.0303-44.7021 29.2358-46.4966Q27.4414-48.291 24.7314-48.291Q22.1191-48.291 20.2637-46.4478Q18.4082-44.6045 18.4082-41.9922Q18.4082-39.4775 20.3003-37.5977Q22.1924-35.7178 24.7314-35.7178ZM55.8838-49.3652Q58.3984-49.3652 60.2905-51.2329Q62.1826-53.1006 62.1826-55.6885Q62.1826-58.2764 60.3394-60.1318Q58.4961-61.9873 55.8838-61.9873Q53.1982-61.9873 51.3916-60.1807Q49.585-58.374 49.585-55.6885Q49.585-53.1494 51.4893-51.2573Q53.3936-49.3652 55.8838-49.3652ZM87.085-35.7178Q89.5996-35.7178 91.5039-37.6099Q93.4082-39.502 93.4082-41.9922Q93.4082-44.7021 91.6016-46.4966Q89.7949-48.291 87.085-48.291Q84.4727-48.291 82.6294-46.4478Q80.7861-44.6045 80.7861-41.9922Q80.7861-39.4775 82.666-37.5977Q84.5459-35.7178 87.085-35.7178ZM98.6328-6.4209Q101.318-6.4209 103.125-8.21533Q104.932-10.0098 104.932-12.6953Q104.932-15.21 103.027-17.1143Q101.123-19.0186 98.6328-19.0186Q96.0449-19.0186 94.165-17.1265Q92.2852-15.2344 92.2852-12.6953Q92.2852-10.083 94.1406-8.25195Q95.9961-6.4209 98.6328-6.4209ZM40.4297-6.39648L71.2158-6.39648Q73.7305-6.39648 75.5371-8.21533Q77.3438-10.0342 77.3438-12.5488Q77.3438-15.0879 75.5371-16.8823Q73.7305-18.6768 71.2158-18.6768L40.4297-18.6768Q37.8906-18.6768 36.0718-16.8701Q34.2529-15.0635 34.2529-12.5488Q34.2529-10.0342 36.084-8.21533Q37.915-6.39648 40.4297-6.39648Z"/>
  </g>
  <g id="Semibold-S" transform="matrix(1 0 0 1 1988.19 696)">
   <path d="M12.7615-7.28291Q15.1762-7.28291 16.9561-9.04614Q18.7359-10.8094 18.7359-13.1752Q18.7359-15.6652 17.0259-17.383Q15.3159-19.1008 12.7615-19.1008Q10.3491-19.1008 8.59253-17.3597Q6.83594-15.6187 6.83594-13.1752Q6.83594-10.7938 8.60806-9.03838Q10.3802-7.28291 12.7615-7.28291ZM24.0472-36.2421Q26.4285-36.2421 28.1917-38.0142Q29.955-39.7863 29.955-42.1521Q29.955-44.6577 28.2539-46.3677Q26.5527-48.0777 24.0472-48.0777Q21.5859-48.0777 19.8371-46.3367Q18.0883-44.5956 18.0883-42.1521Q18.0883-39.7708 19.8604-38.0064Q21.6325-36.2421 24.0472-36.2421ZM55.0751-49.8629Q57.4564-49.8629 59.2286-51.6106Q61.0007-53.3583 61.0007-55.804Q61.0007-58.2319 59.2596-59.9808Q57.5186-61.7296 55.0751-61.7296Q52.5851-61.7296 50.8673-60.0118Q49.1495-58.294 49.1495-55.804Q49.1495-53.3894 50.9294-51.6261Q52.7093-49.8629 55.0751-49.8629ZM86.1519-36.2421Q88.5332-36.2421 90.3131-38.0142Q92.093-39.7863 92.093-42.1521Q92.093-44.6577 90.3752-46.3677Q88.6574-48.0777 86.1519-48.0777Q83.6906-48.0777 81.9584-46.3367Q80.2263-44.5956 80.2263-42.1521Q80.2263-39.7708 81.9817-38.0064Q83.7372-36.2421 86.1519-36.2421ZM97.3887-7.28291Q99.8787-7.28291 101.596-8.98403Q103.314-10.6852 103.314-13.1752Q103.314-15.5743 101.534-17.3542Q99.7545-19.1341 97.3887-19.1341Q94.943-19.1341 93.1786-17.362Q91.4143-15.5898 91.4143-13.1752Q91.4143-10.7317 93.1631-9.00732Q94.9119-7.28291 97.3887-7.28291ZM39.6299-7.74727L70.3183-7.74727Q72.5041-7.74727 74.0708-9.32173Q75.6375-10.8962 75.6375-13.082Q75.6375-15.2834 74.0708-16.8334Q72.5041-18.3835 70.3183-18.3835L39.6299-18.3835Q37.4107-18.3835 35.8274-16.8168Q34.244-15.2501 34.244-13.082Q34.244-10.8962 35.844-9.32173Q37.444-7.74727 39.6299-7.74727Z"/>
  </g>
  <g id="Medium-S" transform="matrix(1 0 0 1 1692.09 696)">
   <path d="M12.4785-7.93652Q14.7988-7.93652 16.4844-9.60205Q18.1699-11.2676 18.1699-13.5391Q18.1699-15.8809 16.5239-17.5312Q14.8779-19.1816 12.4785-19.1816Q10.1807-19.1816 8.5083-17.5181Q6.83594-15.8545 6.83594-13.5391Q6.83594-11.2588 8.51709-9.59766Q10.1982-7.93652 12.4785-7.93652ZM23.5283-36.6396Q25.8086-36.6396 27.4741-38.3208Q29.1396-40.002 29.1396-42.2734Q29.1396-44.624 27.5093-46.27Q25.8789-47.916 23.5283-47.916Q21.1816-47.916 19.5137-46.2524Q17.8457-44.5889 17.8457-42.2734Q17.8457-39.9932 19.5269-38.3164Q21.208-36.6396 23.5283-36.6396ZM54.4619-50.2402Q56.7422-50.2402 58.4233-51.897Q60.1045-53.5537 60.1045-55.8916Q60.1045-58.1982 58.4409-59.8662Q56.7773-61.5342 54.4619-61.5342Q52.1201-61.5342 50.4697-59.8838Q48.8193-58.2334 48.8193-55.8916Q48.8193-53.5713 50.5049-51.9058Q52.1904-50.2402 54.4619-50.2402ZM85.4443-36.6396Q87.7246-36.6396 89.4102-38.3208Q91.0957-40.002 91.0957-42.2734Q91.0957-44.624 89.4453-46.27Q87.7949-47.916 85.4443-47.916Q83.0977-47.916 81.4497-46.2524Q79.8018-44.5889 79.8018-42.2734Q79.8018-39.9932 81.4629-38.3164Q83.124-36.6396 85.4443-36.6396ZM96.4453-7.93652Q98.7871-7.93652 100.438-9.56689Q102.088-11.1973 102.088-13.5391Q102.088-15.8506 100.402-17.5361Q98.7168-19.2217 96.4453-19.2217Q94.1074-19.2217 92.4307-17.5405Q90.7539-15.8594 90.7539-13.5391Q90.7539-11.2236 92.4219-9.58008Q94.0898-7.93652 96.4453-7.93652ZM39.0234-8.77148L69.6377-8.77148Q71.5742-8.77148 72.959-10.1606Q74.3438-11.5498 74.3438-13.4863Q74.3438-15.4316 72.959-16.7964Q71.5742-18.1611 69.6377-18.1611L39.0234-18.1611Q37.0469-18.1611 35.6421-16.7764Q34.2373-15.3916 34.2373-13.4863Q34.2373-11.5498 35.6621-10.1606Q37.0869-8.77148 39.0234-8.77148Z"/>
  </g>
  <g id="Regular-S" transform="matrix(1 0 0 1 1396.18 696)">
   <path d="M12.1094-8.78906Q14.3066-8.78906 15.8691-10.3271Q17.4316-11.8652 17.4316-14.0137Q17.4316-16.1621 15.8691-17.7246Q14.3066-19.2871 12.1094-19.2871Q9.96094-19.2871 8.39844-17.7246Q6.83594-16.1621 6.83594-14.0137Q6.83594-11.8652 8.39844-10.3271Q9.96094-8.78906 12.1094-8.78906ZM22.8516-37.1582Q25-37.1582 26.5381-38.7207Q28.0762-40.2832 28.0762-42.4316Q28.0762-44.5801 26.5381-46.1426Q25-47.7051 22.8516-47.7051Q20.6543-47.7051 19.0918-46.1426Q17.5293-44.5801 17.5293-42.4316Q17.5293-40.2832 19.0918-38.7207Q20.6543-37.1582 22.8516-37.1582ZM53.6621-50.7324Q55.8105-50.7324 57.373-52.2705Q58.9355-53.8086 58.9355-56.0059Q58.9355-58.1543 57.373-59.7168Q55.8105-61.2793 53.6621-61.2793Q51.5137-61.2793 49.9512-59.7168Q48.3887-58.1543 48.3887-56.0059Q48.3887-53.8086 49.9512-52.2705Q51.5137-50.7324 53.6621-50.7324ZM84.5215-37.1582Q86.6699-37.1582 88.2324-38.7207Q89.7949-40.2832 89.7949-42.4316Q89.7949-44.5801 88.2324-46.1426Q86.6699-47.7051 84.5215-47.7051Q82.3242-47.7051 80.7861-46.1426Q79.248-44.5801 79.248-42.4316Q79.248-40.2832 80.7861-38.7207Q82.3242-37.1582 84.5215-37.1582ZM95.2148-8.78906Q97.3633-8.78906 98.9258-10.3271Q100.488-11.8652 100.488-14.0137Q100.488-16.2109 98.9258-17.7734Q97.3633-19.3359 95.2148-19.3359Q93.0176-19.3359 91.4551-17.7734Q89.8926-16.2109 89.8926-14.0137Q89.8926-11.8652 91.4551-10.3271Q93.0176-8.78906 95.2148-8.78906ZM38.2324-10.1074L68.75-10.1074Q70.3613-10.1074 71.5088-11.2549Q72.6562-12.4023 72.6562-14.0137Q72.6562-15.625 71.5088-16.748Q70.3613-17.8711 68.75-17.8711L38.2324-17.8711Q36.5723-17.8711 35.4004-16.7236Q34.2285-15.5762 34.2285-14.0137Q34.2285-12.4023 35.4248-11.2549Q36.6211-10.1074 38.2324-10.1074Z"/>
  </g>
  <g id="Light-S" transform="matrix(1 0 0 1 1101.68 696)">
   <path d="M11.4583-9.24479Q13.3789-9.24479 14.7542-10.5957Q16.1296-11.9466 16.1296-13.8346Q16.1296-15.7227 14.7542-17.098Q13.3789-18.4733 11.4583-18.4733Q9.57031-18.4733 8.20312-17.098Q6.83594-15.7227 6.83594-13.8346Q6.83594-11.9466 8.20312-10.5957Q9.57031-9.24479 11.4583-9.24479ZM21.6146-36.5885Q23.5189-36.5885 24.8698-37.9557Q26.2207-39.3229 26.2207-41.2109Q26.2207-43.1152 24.8698-44.4743Q23.5189-45.8333 21.6146-45.8333Q19.694-45.8333 18.3268-44.4743Q16.9596-43.1152 16.9596-41.2109Q16.9596-39.3229 18.3268-37.9557Q19.694-36.5885 21.6146-36.5885ZM51.4486-49.4792Q53.3203-49.4792 54.6956-50.8301Q56.071-52.181 56.071-54.1178Q56.071-56.0059 54.6956-57.373Q53.3203-58.7402 51.4486-58.7402Q49.5605-58.7402 48.1934-57.373Q46.8262-56.0059 46.8262-54.1178Q46.8262-52.181 48.1934-50.8301Q49.5605-49.4792 51.4486-49.4792ZM81.5267-36.5885Q83.4147-36.5885 84.7819-37.9557Q86.1491-39.3229 86.1491-41.2109Q86.1491-43.1152 84.7819-44.4743Q83.4147-45.8333 81.5267-45.8333Q79.6061-45.8333 78.2552-44.4743Q76.9043-43.1152 76.9043-41.2109Q76.9043-39.3229 78.2552-37.9557Q79.6061-36.5885 81.5267-36.5885ZM91.4388-9.24479Q93.3268-9.24479 94.694-10.5957Q96.0612-11.9466 96.0612-13.8346Q96.0612-15.7552 94.694-17.1305Q93.3268-18.5059 91.4388-18.5059Q89.502-18.5059 88.1348-17.1305Q86.7676-15.7552 86.7676-13.8346Q86.7676-11.9466 88.1348-10.5957Q89.502-9.24479 91.4388-9.24479ZM35.9701-10.3353L66.6992-10.3353Q67.9036-10.3353 68.7907-11.2142Q69.6777-12.0931 69.6777-13.3138Q69.6777-14.5345 68.7907-15.3971Q67.9036-16.2598 66.6992-16.2598L35.9701-16.2598Q34.7331-16.2598 33.8298-15.3809Q32.9264-14.502 32.9264-13.3138Q32.9264-12.0931 33.846-11.2142Q34.7656-10.3353 35.9701-10.3353Z"/>
  </g>
  <g id="Thin-S" transform="matrix(1 0 0 1 807.901 696)">
   <path d="M10.5973-9.84753Q12.1519-9.84753 13.2797-10.9509Q14.4074-12.0542 14.4074-13.5978Q14.4074-15.1414 13.2797-16.2692Q12.1519-17.397 10.5973-17.397Q9.05368-17.397 7.94481-16.2692Q6.83594-15.1414 6.83594-13.5978Q6.83594-12.0542 7.94481-10.9509Q9.05368-9.84753 10.5973-9.84753ZM19.9786-35.8351Q21.56-35.8351 22.6633-36.944Q23.7667-38.0529 23.7667-39.5965Q23.7667-41.1779 22.6633-42.2678Q21.56-43.3578 19.9786-43.3578Q18.424-43.3578 17.3151-42.2678Q16.2062-41.1779 16.2062-39.5965Q16.2062-38.0529 17.3151-36.944Q18.424-35.8351 19.9786-35.8351ZM48.521-47.8216Q50.0268-47.8216 51.1545-48.925Q52.2823-50.0284 52.2823-51.6208Q52.2823-53.1644 51.1545-54.2732Q50.0268-55.3821 48.521-55.3821Q46.9774-55.3821 45.8685-54.2732Q44.7596-53.1644 44.7596-51.6208Q44.7596-50.0284 45.8685-48.925Q46.9774-47.8216 48.521-47.8216ZM77.5658-35.8351Q79.1094-35.8351 80.2183-36.944Q81.3272-38.0529 81.3272-39.5965Q81.3272-41.1779 80.2183-42.2678Q79.1094-43.3578 77.5658-43.3578Q76.0112-43.3578 74.9079-42.2678Q73.8045-41.1779 73.8045-39.5965Q73.8045-38.0529 74.9079-36.944Q76.0112-35.8351 77.5658-35.8351ZM86.4447-9.84753Q87.9883-9.84753 89.0972-10.9509Q90.206-12.0542 90.206-13.5978Q90.206-15.1525 89.0972-16.2802Q87.9883-17.408 86.4447-17.408Q84.8523-17.408 83.7434-16.2802Q82.6345-15.1525 82.6345-13.5978Q82.6345-12.0542 83.7434-10.9509Q84.8523-9.84753 86.4447-9.84753ZM32.9779-10.6367L63.9869-10.6367Q64.6532-10.6367 65.1958-11.1604Q65.7384-11.6841 65.7384-12.3882Q65.7384-13.0922 65.1958-13.6104Q64.6532-14.1287 63.9869-14.1287L32.9779-14.1287Q32.3006-14.1287 31.7525-13.6049Q31.2043-13.0812 31.2043-12.3882Q31.2043-11.6841 31.758-11.1604Q32.3116-10.6367 32.9779-10.6367Z"/>
  </g>
  <g id="Ultralight-S" transform="matrix(1 0 0 1 512.69 696)">
   <path d="M10.1562-10.1562Q11.5234-10.1562 12.5244-11.1328Q13.5254-12.1094 13.5254-13.4766Q13.5254-14.8438 12.5244-15.8447Q11.5234-16.8457 10.1562-16.8457Q8.78906-16.8457 7.8125-15.8447Q6.83594-14.8438 6.83594-13.4766Q6.83594-12.1094 7.8125-11.1328Q8.78906-10.1562 10.1562-10.1562ZM19.1406-35.4492Q20.5566-35.4492 21.5332-36.4258Q22.5098-37.4023 22.5098-38.7695Q22.5098-40.1855 21.5332-41.1377Q20.5566-42.0898 19.1406-42.0898Q17.7734-42.0898 16.7969-41.1377Q15.8203-40.1855 15.8203-38.7695Q15.8203-37.4023 16.7969-36.4258Q17.7734-35.4492 19.1406-35.4492ZM47.0215-46.9727Q48.3398-46.9727 49.3408-47.9492Q50.3418-48.9258 50.3418-50.3418Q50.3418-51.709 49.3408-52.6855Q48.3398-53.6621 47.0215-53.6621Q45.6543-53.6621 44.6777-52.6855Q43.7012-51.709 43.7012-50.3418Q43.7012-48.9258 44.6777-47.9492Q45.6543-46.9727 47.0215-46.9727ZM75.5371-35.4492Q76.9043-35.4492 77.8809-36.4258Q78.8574-37.4023 78.8574-38.7695Q78.8574-40.1855 77.8809-41.1377Q76.9043-42.0898 75.5371-42.0898Q74.1699-42.0898 73.1934-41.1377Q72.2168-40.1855 72.2168-38.7695Q72.2168-37.4023 73.1934-36.4258Q74.1699-35.4492 75.5371-35.4492ZM83.8867-10.1562Q85.2539-10.1562 86.2305-11.1328Q87.207-12.1094 87.207-13.4766Q87.207-14.8438 86.2305-15.8447Q85.2539-16.8457 83.8867-16.8457Q82.4707-16.8457 81.4941-15.8447Q80.5176-14.8438 80.5176-13.4766Q80.5176-12.1094 81.4941-11.1328Q82.4707-10.1562 83.8867-10.1562ZM31.4453-10.791L62.5977-10.791Q62.9883-10.791 63.3545-11.1328Q63.7207-11.4746 63.7207-11.9141Q63.7207-12.3535 63.3545-12.6953Q62.9883-13.0371 62.5977-13.0371L31.4453-13.0371Q31.0547-13.0371 30.6885-12.6953Q30.3223-12.3535 30.3223-11.9141Q30.3223-11.4746 30.6885-11.1328Q31.0547-10.791 31.4453-10.791Z"/>
  </g>
 </g>
</svg>
