<?xml version="1.0" encoding="UTF-8"?>
<!--Generator: Apple Native CoreSVG 175.5-->
<!DOCTYPE svg
PUBLIC "-//W3C//DTD SVG 1.1//EN"
       "http://www.w3.org/Graphics/SVG/1.1/DTD/svg11.dtd">
<svg version="1.1" xmlns="http://www.w3.org/2000/svg" xmlns:xlink="http://www.w3.org/1999/xlink" width="6.8999" height="12.1558">
 <g>
  <rect height="12.1558" opacity="0" width="6.8999" x="0" y="0"/>
  <path d="M3.14209 8.68359C3.58643 8.68359 3.78955 8.37891 3.78955 7.97266C3.78955 7.90283 3.78955 7.82666 3.78955 7.75684C3.80225 6.91895 4.10059 6.56982 5.11621 5.87158C6.20801 5.13525 6.8999 4.28467 6.8999 3.05957C6.8999 1.15527 5.35107 0.0634766 3.42139 0.0634766C1.98682 0.0634766 0.72998 0.742676 0.19043 1.96777C0.0571289 2.26611 0 2.55811 0 2.79932C0 3.16113 0.209473 3.41504 0.59668 3.41504C0.92041 3.41504 1.13623 3.22461 1.23145 2.91357C1.55518 1.70752 2.35498 1.25049 3.37695 1.25049C4.61475 1.25049 5.58594 1.94873 5.58594 3.05322C5.58594 3.96094 5.021 4.46875 4.2085 5.04004C3.21191 5.73193 2.48193 6.47461 2.48193 7.5918C2.48193 7.7251 2.48193 7.8584 2.48193 7.9917C2.48193 8.39795 2.7041 8.68359 3.14209 8.68359ZM3.14209 12.1558C3.6499 12.1558 4.0498 11.7495 4.0498 11.2544C4.0498 10.7529 3.6499 10.353 3.14209 10.353C2.64697 10.353 2.24072 10.7529 2.24072 11.2544C2.24072 11.7495 2.64697 12.1558 3.14209 12.1558Z" fill="#000000" fill-opacity="0.85"/>
 </g>
</svg>
