<?xml version="1.0" encoding="UTF-8"?>
<!--Generator: Apple Native CoreSVG 175.5-->
<!DOCTYPE svg
PUBLIC "-//W3C//DTD SVG 1.1//EN"
       "http://www.w3.org/Graphics/SVG/1.1/DTD/svg11.dtd">
<svg version="1.1" xmlns="http://www.w3.org/2000/svg" xmlns:xlink="http://www.w3.org/1999/xlink" width="12.6509" height="11.6987">
 <g>
  <rect height="11.6987" opacity="0" width="12.6509" x="0" y="0"/>
  <path d="M1.99316 11.6987L10.6641 11.6987C11.9907 11.6987 12.6509 11.0386 12.6509 9.73096L12.6509 1.98047C12.6509 0.672852 11.9907 0.0126953 10.6641 0.0126953L1.99316 0.0126953C0.666504 0.0126953 0 0.666504 0 1.98047L0 9.73096C0 11.0449 0.666504 11.6987 1.99316 11.6987ZM1.89795 10.6768C1.33301 10.6768 1.02197 10.3784 1.02197 9.78809L1.02197 3.80225C1.02197 3.21826 1.33301 2.91357 1.89795 2.91357L10.7466 2.91357C11.3115 2.91357 11.6289 3.21826 11.6289 3.80225L11.6289 9.78809C11.6289 10.3784 11.3115 10.6768 10.7466 10.6768ZM5.09082 5.19238L5.46533 5.19238C5.6875 5.19238 5.75732 5.12891 5.75732 4.90674L5.75732 4.53223C5.75732 4.31006 5.6875 4.24023 5.46533 4.24023L5.09082 4.24023C4.86865 4.24023 4.79248 4.31006 4.79248 4.53223L4.79248 4.90674C4.79248 5.12891 4.86865 5.19238 5.09082 5.19238ZM7.19824 5.19238L7.57275 5.19238C7.79492 5.19238 7.87109 5.12891 7.87109 4.90674L7.87109 4.53223C7.87109 4.31006 7.79492 4.24023 7.57275 4.24023L7.19824 4.24023C6.97607 4.24023 6.8999 4.31006 6.8999 4.53223L6.8999 4.90674C6.8999 5.12891 6.97607 5.19238 7.19824 5.19238ZM9.30566 5.19238L9.68018 5.19238C9.90234 5.19238 9.97852 5.12891 9.97852 4.90674L9.97852 4.53223C9.97852 4.31006 9.90234 4.24023 9.68018 4.24023L9.30566 4.24023C9.0835 4.24023 9.01367 4.31006 9.01367 4.53223L9.01367 4.90674C9.01367 5.12891 9.0835 5.19238 9.30566 5.19238ZM2.9834 7.26807L3.35156 7.26807C3.58008 7.26807 3.6499 7.20459 3.6499 6.98242L3.6499 6.60791C3.6499 6.38574 3.58008 6.32227 3.35156 6.32227L2.9834 6.32227C2.75488 6.32227 2.68506 6.38574 2.68506 6.60791L2.68506 6.98242C2.68506 7.20459 2.75488 7.26807 2.9834 7.26807ZM5.09082 7.26807L5.46533 7.26807C5.6875 7.26807 5.75732 7.20459 5.75732 6.98242L5.75732 6.60791C5.75732 6.38574 5.6875 6.32227 5.46533 6.32227L5.09082 6.32227C4.86865 6.32227 4.79248 6.38574 4.79248 6.60791L4.79248 6.98242C4.79248 7.20459 4.86865 7.26807 5.09082 7.26807ZM7.19824 7.26807L7.57275 7.26807C7.79492 7.26807 7.87109 7.20459 7.87109 6.98242L7.87109 6.60791C7.87109 6.38574 7.79492 6.32227 7.57275 6.32227L7.19824 6.32227C6.97607 6.32227 6.8999 6.38574 6.8999 6.60791L6.8999 6.98242C6.8999 7.20459 6.97607 7.26807 7.19824 7.26807ZM9.30566 7.26807L9.68018 7.26807C9.90234 7.26807 9.97852 7.20459 9.97852 6.98242L9.97852 6.60791C9.97852 6.38574 9.90234 6.32227 9.68018 6.32227L9.30566 6.32227C9.0835 6.32227 9.01367 6.38574 9.01367 6.60791L9.01367 6.98242C9.01367 7.20459 9.0835 7.26807 9.30566 7.26807ZM2.9834 9.3501L3.35156 9.3501C3.58008 9.3501 3.6499 9.28027 3.6499 9.05811L3.6499 8.68359C3.6499 8.46143 3.58008 8.39795 3.35156 8.39795L2.9834 8.39795C2.75488 8.39795 2.68506 8.46143 2.68506 8.68359L2.68506 9.05811C2.68506 9.28027 2.75488 9.3501 2.9834 9.3501ZM5.09082 9.3501L5.46533 9.3501C5.6875 9.3501 5.75732 9.28027 5.75732 9.05811L5.75732 8.68359C5.75732 8.46143 5.6875 8.39795 5.46533 8.39795L5.09082 8.39795C4.86865 8.39795 4.79248 8.46143 4.79248 8.68359L4.79248 9.05811C4.79248 9.28027 4.86865 9.3501 5.09082 9.3501ZM7.19824 9.3501L7.57275 9.3501C7.79492 9.3501 7.87109 9.28027 7.87109 9.05811L7.87109 8.68359C7.87109 8.46143 7.79492 8.39795 7.57275 8.39795L7.19824 8.39795C6.97607 8.39795 6.8999 8.46143 6.8999 8.68359L6.8999 9.05811C6.8999 9.28027 6.97607 9.3501 7.19824 9.3501Z" fill="#000000" fill-opacity="0.85"/>
 </g>
</svg>
