<?xml version="1.0" encoding="UTF-8"?>
<!--Generator: Apple Native CoreSVG 175.5-->
<!DOCTYPE svg
PUBLIC "-//W3C//DTD SVG 1.1//EN"
       "http://www.w3.org/Graphics/SVG/1.1/DTD/svg11.dtd">
<svg version="1.1" xmlns="http://www.w3.org/2000/svg" xmlns:xlink="http://www.w3.org/1999/xlink" width="12.9492" height="13.6919">
 <g>
  <rect height="13.6919" opacity="0" width="12.9492" x="0" y="0"/>
  <path d="M6.47461 13.3174C10.0166 13.3174 12.9492 10.3784 12.9492 6.84277C12.9492 4.89404 12.0605 3.20557 10.8418 2.09473C10.2832 1.58691 9.56592 2.34229 10.1182 2.86914C11.1973 3.85303 11.8638 5.26221 11.8701 6.84277C11.8765 9.83887 9.4707 12.2383 6.47461 12.2383C3.47852 12.2383 1.08545 9.83887 1.08545 6.84277C1.0918 5.24951 1.7583 3.84668 2.83105 2.86279C3.38965 2.32959 2.66602 1.58057 2.10742 2.08838C0.882324 3.19922 0 4.89404 0 6.84277C0 10.3784 2.93896 13.3174 6.47461 13.3174ZM6.47461 6.7793C6.7793 6.7793 6.98877 6.55713 6.98877 6.23975L6.98877 0.539551C6.98877 0.21582 6.7793 0 6.47461 0C6.16992 0 5.9668 0.21582 5.9668 0.539551L5.9668 6.23975C5.9668 6.55713 6.16992 6.7793 6.47461 6.7793Z" fill="#000000" fill-opacity="0.85"/>
 </g>
</svg>
