<?xml version="1.0" encoding="UTF-8"?>
<!--Generator: Apple Native CoreSVG 175-->
<!DOCTYPE svg
PUBLIC "-//W3C//DTD SVG 1.1//EN"
       "http://www.w3.org/Graphics/SVG/1.1/DTD/svg11.dtd">
<svg version="1.1" xmlns="http://www.w3.org/2000/svg" xmlns:xlink="http://www.w3.org/1999/xlink" width="3300" height="2200">
 <!--glyph: "uni100289.medium", point size: 100.0, font version: "17.1d1e1", template writer version: "65.1"-->
 <g id="Notes">
  <rect height="2200" id="artboard" style="fill:white;opacity:1" width="3300" x="0" y="0"/>
  <line style="fill:none;stroke:black;opacity:1;stroke-width:0.5;" x1="263" x2="3036" y1="292" y2="292"/>
  <text style="stroke:none;fill:black;font-family:sans-serif;font-size:13;font-weight:bold;" transform="matrix(1 0 0 1 263 322)">Weight/Scale Variations</text>
  <text style="stroke:none;fill:black;font-family:sans-serif;font-size:13;text-anchor:middle;" transform="matrix(1 0 0 1 559.711 322)">Ultralight</text>
  <text style="stroke:none;fill:black;font-family:sans-serif;font-size:13;text-anchor:middle;" transform="matrix(1 0 0 1 856.422 322)">Thin</text>
  <text style="stroke:none;fill:black;font-family:sans-serif;font-size:13;text-anchor:middle;" transform="matrix(1 0 0 1 1153.13 322)">Light</text>
  <text style="stroke:none;fill:black;font-family:sans-serif;font-size:13;text-anchor:middle;" transform="matrix(1 0 0 1 1449.84 322)">Regular</text>
  <text style="stroke:none;fill:black;font-family:sans-serif;font-size:13;text-anchor:middle;" transform="matrix(1 0 0 1 1746.56 322)">Medium</text>
  <text style="stroke:none;fill:black;font-family:sans-serif;font-size:13;text-anchor:middle;" transform="matrix(1 0 0 1 2043.27 322)">Semibold</text>
  <text style="stroke:none;fill:black;font-family:sans-serif;font-size:13;text-anchor:middle;" transform="matrix(1 0 0 1 2339.98 322)">Bold</text>
  <text style="stroke:none;fill:black;font-family:sans-serif;font-size:13;text-anchor:middle;" transform="matrix(1 0 0 1 2636.69 322)">Heavy</text>
  <text style="stroke:none;fill:black;font-family:sans-serif;font-size:13;text-anchor:middle;" transform="matrix(1 0 0 1 2933.4 322)">Black</text>
  <line style="fill:none;stroke:black;opacity:1;stroke-width:0.5;" x1="263" x2="3036" y1="1903" y2="1903"/>
  <g transform="matrix(1 0 0 1 263 1933)">
   <path d="M9.24805 0.830078Q10.8691 0.830078 12.2949 0.214844Q13.7207-0.400391 14.8096-1.49414Q15.8984-2.58789 16.5186-4.01367Q17.1387-5.43945 17.1387-7.05078Q17.1387-8.66211 16.5186-10.0879Q15.8984-11.5137 14.8047-12.6074Q13.7109-13.7012 12.2852-14.3164Q10.8594-14.9316 9.23828-14.9316Q7.62695-14.9316 6.20117-14.3164Q4.77539-13.7012 3.69141-12.6074Q2.60742-11.5137 1.9873-10.0879Q1.36719-8.66211 1.36719-7.05078Q1.36719-5.43945 1.9873-4.01367Q2.60742-2.58789 3.69629-1.49414Q4.78516-0.400391 6.21094 0.214844Q7.63672 0.830078 9.24805 0.830078ZM9.24805-0.654297Q7.91992-0.654297 6.7627-1.14746Q5.60547-1.64062 4.73145-2.51953Q3.85742-3.39844 3.36426-4.56055Q2.87109-5.72266 2.87109-7.05078Q2.87109-8.37891 3.35938-9.54102Q3.84766-10.7031 4.72168-11.582Q5.5957-12.4609 6.75293-12.9541Q7.91016-13.4473 9.23828-13.4473Q10.5762-13.4473 11.7334-12.9541Q12.8906-12.4609 13.7695-11.582Q14.6484-10.7031 15.1465-9.54102Q15.6445-8.37891 15.6445-7.05078Q15.6445-5.72266 15.1514-4.56055Q14.6582-3.39844 13.7842-2.51953Q12.9102-1.64062 11.748-1.14746Q10.5859-0.654297 9.24805-0.654297ZM5.6543-7.05078Q5.6543-6.72852 5.85938-6.52832Q6.06445-6.32812 6.40625-6.32812L8.51562-6.32812L8.51562-4.20898Q8.51562-3.88672 8.71094-3.67676Q8.90625-3.4668 9.23828-3.4668Q9.56055-3.4668 9.77051-3.67676Q9.98047-3.88672 9.98047-4.20898L9.98047-6.32812L12.0898-6.32812Q12.4219-6.32812 12.627-6.52832Q12.832-6.72852 12.832-7.05078Q12.832-7.38281 12.627-7.58789Q12.4219-7.79297 12.0898-7.79297L9.98047-7.79297L9.98047-9.90234Q9.98047-10.2344 9.77051-10.4443Q9.56055-10.6543 9.23828-10.6543Q8.90625-10.6543 8.71094-10.4443Q8.51562-10.2344 8.51562-9.90234L8.51562-7.79297L6.40625-7.79297Q6.06445-7.79297 5.85938-7.58789Q5.6543-7.38281 5.6543-7.05078Z"/>
  </g>
  <g transform="matrix(1 0 0 1 281.867 1933)">
   <path d="M11.709 2.91016Q13.75 2.91016 15.5518 2.12891Q17.3535 1.34766 18.7305-0.0292969Q20.1074-1.40625 20.8887-3.20801Q21.6699-5.00977 21.6699-7.05078Q21.6699-9.0918 20.8887-10.8936Q20.1074-12.6953 18.7305-14.0723Q17.3535-15.4492 15.5469-16.2305Q13.7402-17.0117 11.6992-17.0117Q9.6582-17.0117 7.85645-16.2305Q6.05469-15.4492 4.68262-14.0723Q3.31055-12.6953 2.5293-10.8936Q1.74805-9.0918 1.74805-7.05078Q1.74805-5.00977 2.5293-3.20801Q3.31055-1.40625 4.6875-0.0292969Q6.06445 1.34766 7.86621 2.12891Q9.66797 2.91016 11.709 2.91016ZM11.709 1.25Q9.98047 1.25 8.47656 0.605469Q6.97266-0.0390625 5.83496-1.17676Q4.69727-2.31445 4.05762-3.81836Q3.41797-5.32227 3.41797-7.05078Q3.41797-8.7793 4.05762-10.2832Q4.69727-11.7871 5.83008-12.9297Q6.96289-14.0723 8.4668-14.7119Q9.9707-15.3516 11.6992-15.3516Q13.4277-15.3516 14.9316-14.7119Q16.4355-14.0723 17.5781-12.9297Q18.7207-11.7871 19.3652-10.2832Q20.0098-8.7793 20.0098-7.05078Q20.0098-5.32227 19.3701-3.81836Q18.7305-2.31445 17.5928-1.17676Q16.4551-0.0390625 14.9463 0.605469Q13.4375 1.25 11.709 1.25ZM7.17773-7.05078Q7.17773-6.69922 7.41211-6.47461Q7.64648-6.25 8.01758-6.25L10.8887-6.25L10.8887-3.36914Q10.8887-2.99805 11.1133-2.76855Q11.3379-2.53906 11.6895-2.53906Q12.0605-2.53906 12.29-2.76855Q12.5195-2.99805 12.5195-3.36914L12.5195-6.25L15.4004-6.25Q15.7715-6.25 16.001-6.47461Q16.2305-6.69922 16.2305-7.05078Q16.2305-7.42188 16.001-7.65137Q15.7715-7.88086 15.4004-7.88086L12.5195-7.88086L12.5195-10.752Q12.5195-11.1328 12.29-11.3623Q12.0605-11.5918 11.6895-11.5918Q11.3379-11.5918 11.1133-11.3574Q10.8887-11.123 10.8887-10.752L10.8887-7.88086L8.01758-7.88086Q7.63672-7.88086 7.40723-7.65137Q7.17773-7.42188 7.17773-7.05078Z"/>
  </g>
  <g transform="matrix(1 0 0 1 305.646 1933)">
   <path d="M14.9707 5.66406Q17.0605 5.66406 18.96 5.01465Q20.8594 4.36523 22.4512 3.19336Q24.043 2.02148 25.2197 0.429688Q26.3965-1.16211 27.0459-3.06641Q27.6953-4.9707 27.6953-7.05078Q27.6953-9.14062 27.0459-11.04Q26.3965-12.9395 25.2197-14.5312Q24.043-16.123 22.4512-17.2998Q20.8594-18.4766 18.9551-19.126Q17.0508-19.7754 14.9609-19.7754Q12.8711-19.7754 10.9717-19.126Q9.07227-18.4766 7.48535-17.2998Q5.89844-16.123 4.72168-14.5312Q3.54492-12.9395 2.90039-11.04Q2.25586-9.14062 2.25586-7.05078Q2.25586-4.9707 2.90527-3.06641Q3.55469-1.16211 4.72656 0.429688Q5.89844 2.02148 7.49023 3.19336Q9.08203 4.36523 10.9814 5.01465Q12.8809 5.66406 14.9707 5.66406ZM14.9707 3.84766Q13.1641 3.84766 11.5283 3.2959Q9.89258 2.74414 8.53516 1.74805Q7.17773 0.751953 6.17676-0.610352Q5.17578-1.97266 4.62891-3.6084Q4.08203-5.24414 4.08203-7.05078Q4.08203-8.86719 4.62891-10.5029Q5.17578-12.1387 6.17188-13.501Q7.16797-14.8633 8.52539-15.8594Q9.88281-16.8555 11.5186-17.4023Q13.1543-17.9492 14.9609-17.9492Q16.7773-17.9492 18.4131-17.4023Q20.0488-16.8555 21.4111-15.8594Q22.7734-14.8633 23.7695-13.501Q24.7656-12.1387 25.3174-10.5029Q25.8691-8.86719 25.8691-7.05078Q25.8789-5.24414 25.332-3.6084Q24.7852-1.97266 23.7842-0.610352Q22.7832 0.751953 21.4209 1.74805Q20.0586 2.74414 18.4229 3.2959Q16.7871 3.84766 14.9707 3.84766ZM9.19922-7.05078Q9.19922-6.66992 9.45801-6.4209Q9.7168-6.17188 10.1172-6.17188L14.0625-6.17188L14.0625-2.2168Q14.0625-1.81641 14.3115-1.55762Q14.5605-1.29883 14.9512-1.29883Q15.3516-1.29883 15.6104-1.55273Q15.8691-1.80664 15.8691-2.2168L15.8691-6.17188L19.8242-6.17188Q20.2246-6.17188 20.4785-6.4209Q20.7324-6.66992 20.7324-7.05078Q20.7324-7.46094 20.4785-7.71484Q20.2246-7.96875 19.8242-7.96875L15.8691-7.96875L15.8691-11.9141Q15.8691-12.3242 15.6104-12.583Q15.3516-12.8418 14.9512-12.8418Q14.5605-12.8418 14.3115-12.583Q14.0625-12.3242 14.0625-11.9141L14.0625-7.96875L10.1172-7.96875Q9.70703-7.96875 9.45312-7.71484Q9.19922-7.46094 9.19922-7.05078Z"/>
  </g>
  <text style="stroke:none;fill:black;font-family:sans-serif;font-size:13;font-weight:bold;" transform="matrix(1 0 0 1 263 1953)">Design Variations</text>
  <text style="stroke:none;fill:black;font-family:sans-serif;font-size:13;" transform="matrix(1 0 0 1 263 1971)">Symbols are supported in up to nine weights and three scales.</text>
  <text style="stroke:none;fill:black;font-family:sans-serif;font-size:13;" transform="matrix(1 0 0 1 263 1989)">For optimal layout with text and other symbols, vertically align</text>
  <text style="stroke:none;fill:black;font-family:sans-serif;font-size:13;" transform="matrix(1 0 0 1 263 2007)">symbols with the adjacent text.</text>
  <line style="fill:none;stroke:#00AEEF;stroke-width:0.5;opacity:1.0;" x1="776" x2="776" y1="1919" y2="1933"/>
  <g transform="matrix(1 0 0 1 776 1933)">
   <path d="M3.31055 0.15625Q3.70117 0.15625 3.91602-0.00976562Q4.13086-0.175781 4.26758-0.585938L5.52734-4.0332L11.2891-4.0332L12.5488-0.585938Q12.6855-0.175781 12.9004-0.00976562Q13.1152 0.15625 13.4961 0.15625Q13.8867 0.15625 14.1162-0.0585938Q14.3457-0.273438 14.3457-0.644531Q14.3457-0.869141 14.2383-1.17188L9.6582-13.3691Q9.48242-13.8184 9.17969-14.043Q8.87695-14.2676 8.4082-14.2676Q7.5-14.2676 7.17773-13.3789L2.59766-1.16211Q2.49023-0.859375 2.49023-0.634766Q2.49023-0.263672 2.70996-0.0537109Q2.92969 0.15625 3.31055 0.15625ZM6.00586-5.51758L8.37891-12.0898L8.42773-12.0898L10.8008-5.51758Z"/>
  </g>
  <line style="fill:none;stroke:#00AEEF;stroke-width:0.5;opacity:1.0;" x1="793.197" x2="793.197" y1="1919" y2="1933"/>
  <text style="stroke:none;fill:black;font-family:sans-serif;font-size:13;font-weight:bold;" transform="matrix(1 0 0 1 776 1953)">Margins</text>
  <text style="stroke:none;fill:black;font-family:sans-serif;font-size:13;" transform="matrix(1 0 0 1 776 1971)">Leading and trailing margins on the left and right side of each symbol</text>
  <text style="stroke:none;fill:black;font-family:sans-serif;font-size:13;" transform="matrix(1 0 0 1 776 1989)">can be adjusted by modifying the x-location of the margin guidelines.</text>
  <text style="stroke:none;fill:black;font-family:sans-serif;font-size:13;" transform="matrix(1 0 0 1 776 2007)">Modifications are automatically applied proportionally to all</text>
  <text style="stroke:none;fill:black;font-family:sans-serif;font-size:13;" transform="matrix(1 0 0 1 776 2025)">scales and weights.</text>
  <g transform="matrix(1 0 0 1 1289 1933)">
   <path d="M2.8418 1.86523L4.54102 3.57422Q5.18555 4.22852 5.90332 4.17969Q6.62109 4.13086 7.31445 3.35938L18.0078-8.42773L17.041-9.4043L6.42578 2.27539Q6.16211 2.57812 5.89355 2.61719Q5.625 2.65625 5.27344 2.30469L4.10156 1.14258Q3.75 0.791016 3.79395 0.522461Q3.83789 0.253906 4.14062-0.0195312L15.6152-10.8203L14.6387-11.7871L3.04688-0.898438Q2.30469-0.214844 2.25098 0.498047Q2.19727 1.21094 2.8418 1.86523ZM9.25781-16.3281Q8.94531-16.0254 8.90625-15.6348Q8.86719-15.2441 9.04297-14.9512Q9.21875-14.6777 9.55566-14.541Q9.89258-14.4043 10.3809-14.5215Q11.4746-14.7754 12.5977-14.7314Q13.7207-14.6875 14.7949-13.9844L14.209-12.5293Q13.9551-11.9043 14.0674-11.4404Q14.1797-10.9766 14.5801-10.5664L16.875-8.25195Q17.2363-7.88086 17.5781-7.82227Q17.9199-7.76367 18.3398-7.8418L19.4043-8.03711L20.0684-7.36328L20.0293-6.80664Q20-6.43555 20.1221-6.12305Q20.2441-5.81055 20.6055-5.44922L21.3672-4.70703Q21.7285-4.3457 22.1533-4.33105Q22.5781-4.31641 22.9297-4.66797L25.8398-7.58789Q26.1914-7.93945 26.1816-8.35449Q26.1719-8.76953 25.8105-9.13086L25.0391-9.89258Q24.6875-10.2539 24.3799-10.3857Q24.0723-10.5176 23.7109-10.4883L23.1348-10.4395L22.4902-11.0742L22.7344-12.1973Q22.832-12.6172 22.6953-12.9834Q22.5586-13.3496 22.1191-13.7891L19.9219-15.9766Q18.6719-17.2168 17.2607-17.8369Q15.8496-18.457 14.4189-18.4814Q12.9883-18.5059 11.665-17.959Q10.3418-17.4121 9.25781-16.3281ZM10.752-15.957Q11.6602-16.6211 12.7002-16.9043Q13.7402-17.1875 14.8047-17.085Q15.8691-16.9824 16.8701-16.5137Q17.8711-16.0449 18.7012-15.2051L21.1328-12.793Q21.3086-12.6172 21.3525-12.4512Q21.3965-12.2852 21.3379-12.0312L21.0156-10.5469L22.5195-9.0625L23.5059-9.12109Q23.6914-9.13086 23.7891-9.09668Q23.8867-9.0625 24.0332-8.91602L24.6094-8.33984L22.168-5.89844L21.5918-6.47461Q21.4453-6.62109 21.4062-6.71875Q21.3672-6.81641 21.377-7.01172L21.4453-7.98828L19.9512-9.47266L18.4277-9.21875Q18.1836-9.16992 18.042-9.2041Q17.9004-9.23828 17.7148-9.41406L15.7129-11.416Q15.5176-11.5918 15.4932-11.7529Q15.4688-11.9141 15.5859-12.1875L16.4648-14.2773Q15.293-15.3711 13.8281-15.791Q12.3633-16.2109 10.8398-15.7617Q10.7227-15.7324 10.6885-15.8057Q10.6543-15.8789 10.752-15.957Z"/>
  </g>
  <text style="stroke:none;fill:black;font-family:sans-serif;font-size:13;font-weight:bold;" transform="matrix(1 0 0 1 1289 1953)">Exporting</text>
  <text style="stroke:none;fill:black;font-family:sans-serif;font-size:13;" transform="matrix(1 0 0 1 1289 1971)">Symbols should be outlined when exporting to ensure the</text>
  <text style="stroke:none;fill:black;font-family:sans-serif;font-size:13;" transform="matrix(1 0 0 1 1289 1989)">design is preserved when submitting to Xcode.</text>
  <text id="template-version" style="stroke:none;fill:black;font-family:sans-serif;font-size:13;text-anchor:end;" transform="matrix(1 0 0 1 3036 1933)">Template v.2.0</text>
  <text style="stroke:none;fill:black;font-family:sans-serif;font-size:13;text-anchor:end;" transform="matrix(1 0 0 1 3036 1951)">Requires Xcode 12 or greater</text>
  <text id="descriptive-name" style="stroke:none;fill:black;font-family:sans-serif;font-size:13;text-anchor:end;" transform="matrix(1 0 0 1 3036 1969)">Generated from backward</text>
  <text style="stroke:none;fill:black;font-family:sans-serif;font-size:13;text-anchor:end;" transform="matrix(1 0 0 1 3036 1987)">Typeset at 100 points</text>
  <text style="stroke:none;fill:black;font-family:sans-serif;font-size:13;" transform="matrix(1 0 0 1 263 726)">Small</text>
  <text style="stroke:none;fill:black;font-family:sans-serif;font-size:13;" transform="matrix(1 0 0 1 263 1156)">Medium</text>
  <text style="stroke:none;fill:black;font-family:sans-serif;font-size:13;" transform="matrix(1 0 0 1 263 1586)">Large</text>
 </g>
 <g id="Guides">
  <g id="H-reference" style="fill:#27AAE1;stroke:none;" transform="matrix(1 0 0 1 339 696)">
   <path d="M0.976562 0L3.66211 0L29.3457-67.1387L30.0293-67.1387L30.0293-70.459L28.125-70.459ZM11.6699-24.4629L46.9727-24.4629L46.2402-26.709L12.4512-26.709ZM55.127 0L57.7637 0L30.6152-70.459L29.4434-70.459L29.4434-67.1387Z"/>
  </g>
  <line id="Baseline-S" style="fill:none;stroke:#27AAE1;opacity:1;stroke-width:0.5;" x1="263" x2="3036" y1="696" y2="696"/>
  <line id="Capline-S" style="fill:none;stroke:#27AAE1;opacity:1;stroke-width:0.5;" x1="263" x2="3036" y1="625.541" y2="625.541"/>
  <g id="H-reference" style="fill:#27AAE1;stroke:none;" transform="matrix(1 0 0 1 339 1126)">
   <path d="M0.976562 0L3.66211 0L29.3457-67.1387L30.0293-67.1387L30.0293-70.459L28.125-70.459ZM11.6699-24.4629L46.9727-24.4629L46.2402-26.709L12.4512-26.709ZM55.127 0L57.7637 0L30.6152-70.459L29.4434-70.459L29.4434-67.1387Z"/>
  </g>
  <line id="Baseline-M" style="fill:none;stroke:#27AAE1;opacity:1;stroke-width:0.5;" x1="263" x2="3036" y1="1126" y2="1126"/>
  <line id="Capline-M" style="fill:none;stroke:#27AAE1;opacity:1;stroke-width:0.5;" x1="263" x2="3036" y1="1055.54" y2="1055.54"/>
  <g id="H-reference" style="fill:#27AAE1;stroke:none;" transform="matrix(1 0 0 1 339 1556)">
   <path d="M0.976562 0L3.66211 0L29.3457-67.1387L30.0293-67.1387L30.0293-70.459L28.125-70.459ZM11.6699-24.4629L46.9727-24.4629L46.2402-26.709L12.4512-26.709ZM55.127 0L57.7637 0L30.6152-70.459L29.4434-70.459L29.4434-67.1387Z"/>
  </g>
  <line id="Baseline-L" style="fill:none;stroke:#27AAE1;opacity:1;stroke-width:0.5;" x1="263" x2="3036" y1="1556" y2="1556"/>
  <line id="Capline-L" style="fill:none;stroke:#27AAE1;opacity:1;stroke-width:0.5;" x1="263" x2="3036" y1="1485.54" y2="1485.54"/>
  <line id="left-margin" style="fill:none;stroke:#00AEEF;stroke-width:0.5;opacity:1.0;" x1="1375.78" x2="1375.78" y1="1030.79" y2="1150.12"/>
  <line id="right-margin" style="fill:none;stroke:#00AEEF;stroke-width:0.5;opacity:1.0;" x1="1523.91" x2="1523.91" y1="1030.79" y2="1150.12"/>
 </g>
 <g id="Symbols">
  <g id="Black-L" transform="matrix(1 0 0 1 2826.01 1556)">
   <path d="M86.6715 18.5872Q92.2437 18.5872 96.2708 14.6076Q100.298 10.6279 100.298 3.41091L100.298-75.2847Q100.298-82.5796 96.3292-86.5301Q92.3605-90.4805 86.7883-90.4805Q84.1833-90.4805 81.7501-89.8384Q79.3169-89.1964 76.8313-87.7667L11.2337-49.4723Q6.867-46.9101 4.2377-43.8024Q1.6084-40.6947 1.6084-36.0641Q1.6084-31.4335 4.32595-28.1493Q7.0435-24.8651 11.2337-22.4015L76.8313 15.8722Q79.2572 17.3238 81.691 17.9555Q84.1249 18.5872 86.6715 18.5872ZM79.9759-4.90839Q79.7879-4.90839 79.5766-4.9719Q79.3653-5.03541 79.1501-5.165L27.4481-35.2151Q26.9856-35.5171 26.9856-36.0057Q26.9856-36.4918 27.4481-36.7366L79.1501-66.7283Q79.3665-66.9163 79.5772-66.9499Q79.7879-66.9836 79.9174-66.9836Q80.2739-66.9836 80.443-66.7899Q80.612-66.5961 80.612-66.258L80.612-5.63654Q80.612-5.29717 80.443-5.10278Q80.2739-4.90839 79.9759-4.90839ZM185.038 18.5872Q190.61 18.5872 194.648 14.6076Q198.686 10.6279 198.686 3.41091L198.686-75.2847Q198.686-82.5796 194.707-86.5301Q190.727-90.4805 185.155-90.4805Q182.552-90.4805 180.118-89.8384Q177.683-89.1964 175.199-87.7667L109.624-49.4723Q105.236-46.9101 102.606-43.8024Q99.9762-40.6947 99.9762-36.0641Q99.9762-31.4335 102.694-28.1493Q105.411-24.8651 109.624-22.4015L175.199 15.8722Q177.625 17.3238 180.059 17.9555Q182.494 18.5872 185.038 18.5872ZM178.344-4.90839Q178.156-4.90839 177.945-4.9719Q177.734-5.03541 177.518-5.165L125.816-35.2151Q125.374-35.5171 125.374-36.0057Q125.374-36.4918 125.816-36.7366L177.518-66.7283Q177.736-66.9163 177.946-66.9499Q178.156-66.9836 178.285-66.9836Q178.64-66.9836 178.82-66.7899Q179.001-66.5961 179.001-66.258L179.001-5.63654Q179.001-5.29717 178.82-5.10278Q178.64-4.90839 178.344-4.90839Z"/>
  </g>
  <g id="Heavy-L" transform="matrix(1 0 0 1 2532.24 1556)">
   <path d="M84.8802 17.499Q89.9853 17.499 93.6707 13.8271Q97.3561 10.1551 97.3561 3.4328L97.3561-74.9297Q97.3561-81.7204 93.7153-85.37Q90.0746-89.0196 84.9695-89.0196Q82.5313-89.0196 80.2851-88.3823Q78.0389-87.745 75.702-86.4085L10.386-48.2087Q6.30811-45.8095 3.95825-42.9087Q1.6084-40.0079 1.6084-35.8526Q1.6084-31.6973 4.02821-28.6566Q6.44801-25.6159 10.386-23.2882L75.702 14.8818Q77.9883 16.2541 80.2375 16.8766Q82.4867 17.499 84.8802 17.499ZM79.1736-3.0098Q78.9528-3.0098 78.6902-3.09184Q78.4276-3.17388 78.1469-3.35004L24.3838-34.7575Q23.6851-35.1753 23.6851-35.808Q23.6851-36.4285 24.3838-36.8078L78.1469-68.1706Q78.4336-68.3914 78.6932-68.4481Q78.9528-68.5048 79.129-68.5048Q79.5734-68.5048 79.8334-68.2436Q80.0934-67.9824 80.0934-67.4623L80.0934-4.06436Q80.0934-3.53827 79.8334-3.27403Q79.5734-3.0098 79.1736-3.0098ZM180.3 17.499Q185.405 17.499 189.109 13.8271Q192.812 10.1551 192.812 3.4328L192.812-74.9297Q192.812-81.7204 189.153-85.37Q185.495-89.0196 180.389-89.0196Q177.963-89.0196 175.711-88.3823Q173.459-87.745 171.128-86.4085L105.848-48.2087Q101.74-45.8095 99.3873-42.9087Q97.0344-40.0079 97.0344-35.8526Q97.0344-31.6973 99.4542-28.6566Q101.874-25.6159 105.848-23.2882L171.128 14.8818Q173.414 16.2541 175.667 16.8766Q177.919 17.499 180.3 17.499ZM174.6-3.0098Q174.379-3.0098 174.119-3.09184Q173.86-3.17388 173.573-3.35004L119.81-34.7575Q119.141-35.1753 119.141-35.808Q119.141-36.4285 119.81-36.8078L173.573-68.1706Q173.866-68.3914 174.122-68.4481Q174.379-68.5048 174.555-68.5048Q174.993-68.5048 175.271-68.2436Q175.549-67.9824 175.549-67.4623L175.549-4.06436Q175.549-3.53827 175.271-3.27403Q174.993-3.0098 174.6-3.0098Z"/>
  </g>
  <g id="Bold-L" transform="matrix(1 0 0 1 2239.1 1556)">
   <path d="M82.7182 16.1234Q87.2432 16.1234 90.5147 12.8359Q93.7861 9.54849 93.7861 3.43714L93.7861-74.5096Q93.7861-80.6729 90.5439-83.9457Q87.3016-87.2185 82.7766-87.2185Q80.5509-87.2185 78.5312-86.5894Q76.5115-85.9603 74.3726-84.751L9.30811-46.6225Q5.62823-44.4459 3.61831-41.8226Q1.6084-39.1994 1.6084-35.6131Q1.6084-32.0268 3.66923-29.3017Q5.73007-26.5767 9.30811-24.4499L74.3726 13.6416Q76.468 14.9021 78.4949 15.5127Q80.5217 16.1234 82.7182 16.1234ZM78.2244-0.695995Q77.9554-0.695995 77.621-0.801648Q77.2866-0.9073 76.9095-1.14706L20.6192-34.1937Q19.6218-34.7614 19.6218-35.5839Q19.6218-36.3779 20.6192-36.9307L76.9095-69.9481Q77.3008-70.2171 77.6281-70.301Q77.9554-70.385 78.1952-70.385Q78.7494-70.385 79.1371-70.0324Q79.5248-69.6799 79.5248-68.9045L79.5248-2.20492Q79.5248-1.41527 79.1371-1.05563Q78.7494-0.695995 78.2244-0.695995ZM174.56 16.1234Q179.085 16.1234 182.382 12.8359Q185.679 9.54849 185.679 3.43714L185.679-74.5096Q185.679-80.6729 182.411-83.9457Q179.143-87.2185 174.618-87.2185Q172.421-87.2185 170.387-86.5894Q168.353-85.9603 166.229-84.751L101.215-46.6225Q97.4985-44.4459 95.4815-41.8226Q93.4645-39.1994 93.4645-35.6131Q93.4645-32.0268 95.5253-29.3017Q97.5861-26.5767 101.215-24.4499L166.229 13.6416Q168.324 14.9021 170.358 15.5127Q172.392 16.1234 174.56 16.1234ZM170.08-0.695995Q169.811-0.695995 169.484-0.801648Q169.157-0.9073 168.766-1.14706L112.475-34.1937Q111.515-34.7614 111.515-35.5839Q111.515-36.3779 112.475-36.9307L168.766-69.9481Q169.171-70.2171 169.491-70.301Q169.811-70.385 170.051-70.385Q170.591-70.385 171.005-70.0324Q171.418-69.6799 171.418-68.9045L171.418-2.20492Q171.418-1.41527 171.005-1.05563Q170.591-0.695995 170.08-0.695995Z"/>
  </g>
  <g id="Semibold-L" transform="matrix(1 0 0 1 1944.84 1556)">
   <path d="M81.2277 15.175Q85.3527 15.175 88.3389 12.1526Q91.325 9.13029 91.325 3.44014L91.325-74.2199Q91.325-79.9507 88.3575-82.9638Q85.3899-85.9768 81.2649-85.9768Q79.1856-85.9768 77.322-85.3534Q75.4585-84.7299 73.4561-83.6083L8.56503-45.529Q5.15953-43.5058 3.38396-41.0739Q1.6084-38.642 1.6084-35.448Q1.6084-32.254 3.42176-29.7465Q5.23512-27.239 8.56503-25.2508L73.4561 12.7865Q75.42 13.97 77.2935 14.5725Q79.1671 15.175 81.2277 15.175ZM77.57 0.899127Q77.2678 0.899127 76.8839 0.777198Q76.5 0.655269 76.0565 0.371665L18.0238-33.8051Q16.8205-34.4761 16.8205-35.4294Q16.8205-36.343 18.0238-37.0154L76.0565-71.1735Q76.5199-71.4757 76.8938-71.5784Q77.2678-71.6811 77.5514-71.6811Q78.1814-71.6811 78.6571-71.2656Q79.1329-70.8502 79.1329-69.8987L79.1329-0.92303Q79.1329 0.0483161 78.6571 0.473722Q78.1814 0.899127 77.57 0.899127ZM170.603 15.175Q174.728 15.175 177.745 12.1526Q180.762 9.13029 180.762 3.44014L180.762-74.2199Q180.762-79.9507 177.763-82.9638Q174.765-85.9768 170.64-85.9768Q168.6-85.9768 166.717-85.3534Q164.834-84.7299 162.851-83.6083L98.0218-45.529Q94.5743-43.5058 92.7888-41.0739Q91.0033-38.642 91.0033-35.448Q91.0033-32.254 92.8167-29.7465Q94.6301-27.239 98.0218-25.2508L162.851 12.7865Q164.815 13.97 166.698 14.5725Q168.582 15.175 170.603 15.175ZM166.965 0.899127Q166.663 0.899127 166.289 0.777198Q165.915 0.655269 165.451 0.371665L107.419-33.8051Q106.257-34.4761 106.257-35.4294Q106.257-36.343 107.419-37.0154L165.451-71.1735Q165.935-71.4757 166.299-71.5784Q166.663-71.6811 166.946-71.6811Q167.556-71.6811 168.063-71.2656Q168.57-70.8502 168.57-69.8987L168.57-0.92303Q168.57 0.0483161 168.063 0.473722Q167.556 0.899127 166.965 0.899127Z"/>
  </g>
  <g id="Medium-L" transform="matrix(1 0 0 1 1650 1556)">
   <path d="M80.0976 14.4559Q83.9193 14.4559 86.6891 11.6345Q89.4589 8.81318 89.4589 3.44241L89.4589-74.0003Q89.4589-79.4031 86.6996-82.2192Q83.9404-85.0354 80.1186-85.0354Q78.1504-85.0354 76.4052-84.4161Q74.66-83.7969 72.7612-82.7418L8.0016-44.6998Q4.80414-42.793 3.20627-40.5062Q1.6084-38.2193 1.6084-35.3228Q1.6084-32.4263 3.23411-30.0838Q4.85983-27.7412 8.0016-25.858L72.7612 12.1382Q74.6253 13.2632 76.3826 13.8596Q78.1399 14.4559 80.0976 14.4559ZM77.0738 2.10862Q76.7464 2.10862 76.325 1.97434Q75.9036 1.84007 75.4097 1.52322L16.056-33.5104Q14.6965-34.2597 14.6965-35.3123Q14.6965-36.3166 16.056-37.0796L75.4097-72.1027Q75.9277-72.43 76.3371-72.547Q76.7464-72.6639 77.0633-72.6639Q77.7507-72.6639 78.2932-72.2007Q78.8356-71.7375 78.8356-70.6526L78.8356 0.0489516Q78.8356 1.15807 78.2932 1.63334Q77.7507 2.10862 77.0738 2.10862ZM167.602 14.4559Q171.424 14.4559 174.229 11.6345Q177.033 8.81318 177.033 3.44241L177.033-74.0003Q177.033-79.4031 174.239-82.2192Q171.445-85.0354 167.623-85.0354Q165.703-85.0354 163.934-84.4161Q162.165-83.7969 160.29-82.7418L95.6003-44.6998Q92.3571-42.793 90.7472-40.5062Q89.1372-38.2193 89.1372-35.3228Q89.1372-32.4263 90.7629-30.0838Q92.3887-27.7412 95.6003-25.858L160.29 12.1382Q162.154 13.2632 163.924 13.8596Q165.693 14.4559 167.602 14.4559ZM164.603 2.10862Q164.275 2.10862 163.866 1.97434Q163.457 1.84007 162.939 1.52322L103.585-33.5104Q102.271-34.2597 102.271-35.3123Q102.271-36.3166 103.585-37.0796L162.939-72.1027Q163.481-72.43 163.878-72.547Q164.275-72.6639 164.592-72.6639Q165.255-72.6639 165.833-72.2007Q166.41-71.7375 166.41-70.6526L166.41 0.0489516Q166.41 1.15807 165.833 1.63334Q165.255 2.10862 164.603 2.10862Z"/>
  </g>
  <g id="Regular-L" transform="matrix(1 0 0 1 1355.72 1556)">
   <path d="M78.6235 13.518Q82.0497 13.518 84.5373 10.9588Q87.0248 8.39957 87.0248 3.44537L87.0248-73.7138Q87.0248-78.6889 84.5373-81.2481Q82.0497-83.8073 78.6235-83.8073Q76.8002-83.8073 75.2094-83.1937Q73.6186-82.5801 71.8548-81.6117L7.2667-43.6183Q4.34058-41.8633 2.97449-39.7657Q1.6084-37.6681 1.6084-35.1595Q1.6084-32.651 2.98936-30.5237Q4.37032-28.3963 7.2667-26.6501L71.8548 11.2926Q73.5888 12.3414 75.1945 12.9297Q76.8002 13.518 78.6235 13.518ZM76.4266 3.68621Q76.0664 3.68621 75.596 3.53584Q75.1256 3.38547 74.566 3.02526L13.4892-33.126Q11.926-33.9775 11.926-35.1595Q11.926-36.2821 13.4892-37.1633L74.566-73.3146Q75.1553-73.6748 75.6109-73.8103Q76.0664-73.9458 76.4266-73.9458Q77.1889-73.9458 77.8184-73.4204Q78.448-72.8949 78.448-71.6358L78.448 1.31675Q78.448 2.60557 77.8184 3.14589Q77.1889 3.68621 76.4266 3.68621ZM163.688 13.518Q167.115 13.518 169.642 10.9588Q172.17 8.39957 172.17 3.44537L172.17-73.7138Q172.17-78.6889 169.642-81.2481Q167.115-83.8073 163.688-83.8073Q161.925-83.8073 160.304-83.1937Q158.684-82.5801 156.95-81.6117L92.4419-43.6183Q89.4651-41.8633 88.0841-39.7657Q86.7031-37.6681 86.7031-35.1595Q86.7031-32.651 88.0841-30.5237Q89.4651-28.3963 92.4419-26.6501L156.95 11.2926Q158.684 12.3414 160.304 12.9297Q161.925 13.518 163.688 13.518ZM161.521 3.68621Q161.161 3.68621 160.706 3.53584Q160.25 3.38547 159.661 3.02526L98.5839-33.126Q97.0715-33.9775 97.0715-35.1595Q97.0715-36.2821 98.5839-37.1633L159.661-73.3146Q160.28-73.6748 160.72-73.8103Q161.161-73.9458 161.521-73.9458Q162.254-73.9458 162.924-73.4204Q163.593-72.8949 163.593-71.6358L163.593 1.31675Q163.593 2.60557 162.924 3.14589Q162.254 3.68621 161.521 3.68621Z"/>
  </g>
  <g id="Light-L" transform="matrix(1 0 0 1 1061.01 1556)">
   <path d="M77.4948 12.3893Q80.5105 12.3893 82.7724 10.1174Q85.0342 7.84548 85.0342 3.30172L85.0342-73.5496Q85.0342-78.0733 82.7724-80.3452Q80.5105-82.617 77.4948-82.617Q75.8562-82.617 74.3885-82.0239Q72.9208-81.4308 71.3828-80.6266L6.34321-42.387Q3.95066-40.9193 2.77953-39.15Q1.6084-37.3808 1.6084-35.139Q1.6084-32.8973 2.80466-31.0778Q4.00093-29.2582 6.34321-27.8609L71.3828 10.3486Q72.8706 11.2332 74.3634 11.8112Q75.8562 12.3893 77.4948 12.3893ZM76.0572 5.04066Q75.6149 5.04066 75.0419 4.86977Q74.4689 4.69888 73.7451 4.25658L11.0881-32.7566Q9.27869-33.7518 9.27869-35.139Q9.27869-36.4257 11.0881-37.4712L73.7451-74.4844Q74.5192-74.9267 75.067-75.0724Q75.6149-75.2182 76.0572-75.2182Q76.9016-75.2182 77.7158-74.5799Q78.53-73.9415 78.53-72.3131L78.53 2.03502Q78.53 3.71375 77.7158 4.37721Q76.9016 5.04066 76.0572 5.04066ZM160.549 12.3893Q163.564 12.3893 165.866 10.1174Q168.168 7.84548 168.168 3.30172L168.168-73.5496Q168.168-78.0733 165.866-80.3452Q163.564-82.617 160.549-82.617Q159.011-82.617 157.493-82.0239Q155.975-81.4308 154.487-80.6266L89.5277-42.387Q87.105-40.9193 85.9088-39.15Q84.7125-37.3808 84.7125-35.139Q84.7125-32.8973 85.9088-31.0778Q87.105-29.2582 89.5277-27.8609L154.487 10.3486Q155.975 11.2332 157.493 11.8112Q159.011 12.3893 160.549 12.3893ZM159.161 5.04066Q158.719 5.04066 158.171 4.86977Q157.623 4.69888 156.849 4.25658L94.1922-32.7566Q92.413-33.7518 92.413-35.139Q92.413-36.4257 94.1922-37.4712L156.849-74.4844Q157.674-74.9267 158.196-75.0724Q158.719-75.2182 159.161-75.2182Q159.955-75.2182 160.81-74.5799Q161.664-73.9415 161.664-72.3131L161.664 2.03502Q161.664 3.71375 160.81 4.37721Q159.955 5.04066 159.161 5.04066Z"/>
  </g>
  <g id="Thin-L" transform="matrix(1 0 0 1 766.942 1556)">
   <path d="M76.0019 10.8965Q78.4749 10.8965 80.4382 9.00455Q82.4014 7.11265 82.4014 3.11172L82.4014-73.3325Q82.4014-77.259 80.4382-79.1509Q78.4749-81.0428 76.0019-81.0428Q74.6076-81.0428 73.3028-80.4769Q71.998-79.9109 70.7585-79.3238L5.12182-40.7585Q3.43497-39.6708 2.52168-38.3358Q1.6084-37.0008 1.6084-35.1119Q1.6084-33.223 2.56038-31.8106Q3.51237-30.3982 5.12182-29.4623L70.7585 9.10006Q71.9206 9.76755 73.2641 10.332Q74.6076 10.8965 76.0019 10.8965ZM75.5686 6.83203Q75.0178 6.83203 74.3091 6.634Q73.6004 6.43596 72.6595 5.88509L7.91251-32.2681Q5.77738-33.4532 5.77738-35.1119Q5.77738-36.6157 7.91251-37.8783L72.6595-76.0314Q73.6778-76.5823 74.3478-76.7417Q75.0178-76.901 75.5686-76.901Q76.5216-76.901 77.5801-76.1134Q78.6386-75.3258 78.6386-73.2088L78.6386 2.98499Q78.6386 5.17942 77.5801 6.00572Q76.5216 6.83203 75.5686 6.83203ZM156.396 10.8965Q158.869 10.8965 160.872 9.00455Q162.876 7.11265 162.876 3.11172L162.876-73.3325Q162.876-77.259 160.872-79.1509Q158.869-81.0428 156.396-81.0428Q155.156-81.0428 153.774-80.4769Q152.392-79.9109 151.23-79.3238L85.6736-40.7585Q83.9837-39.6708 83.0317-38.3358Q82.0797-37.0008 82.0797-35.1119Q82.0797-33.223 83.0317-31.8106Q83.9837-30.3982 85.6736-29.4623L151.23 9.10006Q152.392 9.76755 153.774 10.332Q155.156 10.8965 156.396 10.8965ZM156.04 6.83203Q155.489 6.83203 154.819 6.634Q154.149 6.43596 153.131 5.88509L88.3839-32.2681Q86.2517-33.4532 86.2517-35.1119Q86.2517-36.6157 88.3839-37.8783L153.131-76.0314Q154.227-76.5823 154.858-76.7417Q155.489-76.901 156.04-76.901Q156.916-76.901 158.014-76.1134Q159.113-75.3258 159.113-73.2088L159.113 2.98499Q159.113 5.17942 158.014 6.00572Q156.916 6.83203 156.04 6.83203Z"/>
  </g>
  <g id="Ultralight-L" transform="matrix(1 0 0 1 471.587 1556)">
   <path d="M75.2373 10.1318Q77.4322 10.1318 79.2426 8.43457Q81.0529 6.73729 81.0529 3.01441L81.0529-73.2212Q81.0529-76.8419 79.2426-78.5392Q77.4322-80.2365 75.2373-80.2365Q73.9682-80.2365 72.7467-79.6844Q71.5253-79.1324 70.4388-78.6565L4.49623-39.9243Q3.17083-39.0313 2.38961-37.9187Q1.6084-36.8061 1.6084-35.098Q1.6084-33.3898 2.43527-32.1859Q3.26213-30.9821 4.49623-30.2825L70.4388 8.46056Q71.434 9.01685 72.7011 9.57435Q73.9682 10.1318 75.2373 10.1318ZM75.3184 7.74956Q74.7119 7.74956 73.9337 7.53762Q73.1555 7.32569 72.1034 6.71921L6.28598-32.0178Q3.98403-33.3003 3.98403-35.098Q3.98403-36.713 6.28598-38.0868L72.1034-76.8239Q73.2468-77.4303 73.9794-77.5966Q74.7119-77.7629 75.3184-77.7629Q76.327-77.7629 77.5106-76.8988Q78.6942-76.0348 78.6942-73.6675L78.6942 3.47156Q78.6942 5.93012 77.5106 6.83984Q76.327 7.74956 75.3184 7.74956ZM154.269 10.1318Q156.464 10.1318 158.314 8.43457Q160.165 6.73729 160.165 3.01441L160.165-73.2212Q160.165-76.8419 158.314-78.5392Q156.464-80.2365 154.269-80.2365Q153.182-80.2365 151.87-79.6844Q150.557-79.1324 149.562-78.6565L83.6995-39.9243Q82.385-39.0313 81.5581-37.9187Q80.7313-36.8061 80.7313-35.098Q80.7313-33.3898 81.5581-32.1859Q82.385-30.9821 83.6995-30.2825L149.562 8.46056Q150.557 9.01685 151.87 9.57435Q153.182 10.1318 154.269 10.1318ZM154.441 7.74956Q153.835 7.74956 153.102 7.53762Q152.37 7.32569 151.226 6.71921L85.4088-32.0178Q83.096-33.3003 83.096-35.098Q83.096-36.713 85.4088-38.0868L151.226-76.8239Q152.461-77.4303 153.148-77.5966Q153.835-77.7629 154.441-77.7629Q155.359-77.7629 156.582-76.8988Q157.806-76.0348 157.806-73.6675L157.806 3.47156Q157.806 5.93012 156.582 6.83984Q155.359 7.74956 154.441 7.74956Z"/>
  </g>
  <g id="Black-M" transform="matrix(1 0 0 1 2847.95 1126)">
   <path d="M68.5345 7.24692Q73.1974 7.24692 76.5805 3.9382Q79.9635 0.629474 79.9635-5.33143L79.9635-66.5449Q79.9635-72.5687 76.6376-75.8488Q73.3116-79.129 68.6487-79.129Q66.5122-79.129 64.483-78.6303Q62.4539-78.1315 60.431-76.9661L9.30673-47.1831Q5.74764-45.097 3.49687-42.5559Q1.24609-40.0149 1.24609-36.0551Q1.24609-32.0953 3.58236-29.3833Q5.91863-26.6712 9.30673-24.6931L60.431 5.08435Q62.3971 6.25494 64.4261 6.75093Q66.4551 7.24692 68.5345 7.24692ZM62.6001-13.1867Q62.4715-13.1867 62.338-13.2227Q62.2045-13.2588 62.0719-13.3303L23.5734-35.5616Q23.3848-35.7154 23.3848-35.998Q23.3848-36.2812 23.5734-36.3776L62.0719-58.5518Q62.2042-58.6804 62.3378-58.6881Q62.4715-58.6957 62.543-58.6957Q62.7547-58.6957 62.8325-58.5883Q62.9103-58.4809 62.9103-58.3253L62.9103-13.5565Q62.9103-13.4012 62.8325-13.2939Q62.7547-13.1867 62.6001-13.1867ZM147.003 7.24692Q151.666 7.24692 155.052 3.9382Q158.437 0.629474 158.437-5.33143L158.437-66.5449Q158.437-72.5687 155.109-75.8488Q151.78-79.129 147.117-79.129Q144.98-79.129 142.951-78.6303Q140.922-78.1315 138.899-76.9661L87.7801-47.1831Q84.2155-45.097 81.9649-42.5559Q79.7143-40.0149 79.7143-36.0551Q79.7143-32.0953 82.0506-29.3833Q84.3868-26.6712 87.7801-24.6931L138.899 5.08435Q140.865 6.25494 142.894 6.75093Q144.923 7.24692 147.003 7.24692ZM141.068-13.1867Q140.94-13.1867 140.806-13.2227Q140.672-13.2588 140.54-13.3303L102.042-35.5616Q101.858-35.7154 101.858-35.998Q101.858-36.2812 102.042-36.3776L140.54-58.5518Q140.672-58.6804 140.806-58.6881Q140.94-58.6957 141.011-58.6957Q141.223-58.6957 141.304-58.5883Q141.384-58.4809 141.384-58.3253L141.384-13.5565Q141.384-13.4012 141.304-13.2939Q141.223-13.1867 141.068-13.1867Z"/>
  </g>
  <g id="Heavy-M" transform="matrix(1 0 0 1 2553.93 1126)">
   <path d="M66.8876 6.28722Q71.1317 6.28722 74.2015 3.2528Q77.2714 0.218374 77.2714-5.29678L77.2714-66.2129Q77.2714-71.7855 74.2452-74.7981Q71.219-77.8107 66.9748-77.8107Q64.9843-77.8107 63.1267-77.3147Q61.269-76.8187 59.3706-75.7292L8.56317-46.0615Q5.23727-44.1081 3.24168-41.7391Q1.24609-39.3701 1.24609-35.8502Q1.24609-32.3304 3.30834-29.828Q5.37058-27.3257 8.56317-25.4482L59.3706 4.20329Q61.2229 5.31147 63.0818 5.79935Q64.9407 6.28722 66.8876 6.28722ZM61.8499-11.4556Q61.6968-11.4556 61.5226-11.5079Q61.3484-11.5602 61.1669-11.6696L20.7994-35.1483Q20.4025-35.4021 20.4025-35.8066Q20.4025-36.2062 20.7994-36.4188L61.1669-59.8539Q61.3509-60.007 61.5239-60.0362Q61.6968-60.0655 61.8063-60.0655Q62.0964-60.0655 62.2461-59.9025Q62.3958-59.7395 62.3958-59.4401L62.3958-12.0858Q62.3958-11.784 62.2461-11.6198Q62.0964-11.4556 61.8499-11.4556ZM142.661 6.28722Q146.905 6.28722 149.985 3.2528Q153.064 0.218374 153.064-5.29678L153.064-66.2129Q153.064-71.7855 150.028-74.7981Q146.993-77.8107 142.748-77.8107Q140.763-77.8107 138.903-77.3147Q137.043-76.8187 135.147-75.7292L84.3579-46.0615Q81.0158-44.1081 79.019-41.7391Q77.0222-39.3701 77.0222-35.8502Q77.0222-32.3304 79.0844-29.828Q81.1466-27.3257 84.3579-25.4482L135.147 4.20329Q136.999 5.31147 138.859 5.79935Q140.719 6.28722 142.661 6.28722ZM137.626-11.4556Q137.473-11.4556 137.3-11.5079Q137.127-11.5602 136.943-11.6696L96.5754-35.1483Q96.1948-35.4021 96.1948-35.8066Q96.1948-36.2062 96.5754-36.4188L136.943-59.8539Q137.129-60.007 137.301-60.0362Q137.473-60.0655 137.582-60.0655Q137.87-60.0655 138.029-59.9025Q138.188-59.7395 138.188-59.4401L138.188-12.0858Q138.188-11.784 138.029-11.6198Q137.87-11.4556 137.626-11.4556Z"/>
  </g>
  <g id="Bold-M" transform="matrix(1 0 0 1 2260.22 1126)">
   <path d="M65.0453 5.21366Q68.8209 5.21366 71.5404 2.48608Q74.2598-0.2415 74.2598-5.25801L74.2598-65.8416Q74.2598-70.9094 71.5689-73.6227Q68.878-76.336 65.1024-76.336Q63.2752-76.336 61.6093-75.8431Q59.9435-75.3502 58.1844-74.3456L7.7314-44.8067Q4.66634-43.002 2.95621-40.8253Q1.24609-38.6487 1.24609-35.621Q1.24609-32.5934 3.0018-30.3256Q4.7575-28.0578 7.7314-26.2929L58.1844 3.21771Q59.9094 4.25606 61.578 4.73486Q63.2467 5.21366 65.0453 5.21366ZM61.0107-9.51918Q60.8303-9.51918 60.6106-9.58961Q60.3908-9.66004 60.1545-9.81194L17.6962-34.686Q17.0665-35.0518 17.0665-35.5925Q17.0665-36.1222 17.6962-36.4649L60.1545-61.3104Q60.3963-61.4909 60.6133-61.5443Q60.8303-61.5977 60.9822-61.5977Q61.36-61.5977 61.5901-61.3726Q61.8202-61.1475 61.8202-60.6872L61.8202-10.4407Q61.8202-9.97488 61.5901-9.74703Q61.36-9.51918 61.0107-9.51918ZM137.804 5.21366Q141.58 5.21366 144.316 2.48608Q147.053-0.2415 147.053-5.25801L147.053-65.8416Q147.053-70.9094 144.345-73.6227Q141.637-76.336 137.861-76.336Q136.045-76.336 134.374-75.8431Q132.702-75.3502 130.949-74.3456L80.5297-44.8067Q77.4364-43.002 75.7235-40.8253Q74.0106-38.6487 74.0106-35.621Q74.0106-32.5934 75.7663-30.3256Q77.522-28.0578 80.5297-26.2929L130.949 3.21771Q132.674 4.25606 134.345 4.73486Q136.017 5.21366 137.804 5.21366ZM133.775-9.51918Q133.595-9.51918 133.378-9.58961Q133.161-9.66004 132.919-9.81194L90.4607-34.686Q89.8592-35.0518 89.8592-35.5925Q89.8592-36.1222 90.4607-36.4649L132.919-61.3104Q133.166-61.4909 133.381-61.5443Q133.595-61.5977 133.747-61.5977Q134.119-61.5977 134.366-61.3726Q134.613-61.1475 134.613-60.6872L134.613-10.4407Q134.613-9.97488 134.366-9.74703Q134.119-9.51918 133.775-9.51918Z"/>
  </g>
  <g id="Semibold-M" transform="matrix(1 0 0 1 1965.58 1126)">
   <path d="M63.7752 4.47355Q67.2279 4.47355 69.7058 1.95751Q72.1837-0.558535 72.1837-5.23129L72.1837-65.5857Q72.1837-70.3055 69.7239-72.8124Q67.2642-75.3194 63.8115-75.3194Q62.097-75.3194 60.5633-74.8286Q59.0297-74.3378 57.3667-73.3917L7.15798-43.9417Q4.27274-42.2394 2.75942-40.1954Q1.24609-38.1514 1.24609-35.463Q1.24609-32.7747 2.79047-30.6686Q4.33485-28.5625 7.15798-26.8752L57.3667 2.53825Q59.0039 3.52847 60.5413 4.00101Q62.0788 4.47355 63.7752 4.47355ZM60.4322-8.18422Q60.2329-8.18422 59.9818-8.26716Q59.7307-8.3501 59.4566-8.53126L15.5568-34.3672Q14.7666-34.8102 14.7666-35.4449Q14.7666-36.0643 15.5568-36.4967L59.4566-62.3146Q59.7383-62.5139 59.9856-62.5839Q60.2329-62.654 60.414-62.654Q60.8523-62.654 61.1378-62.386Q61.4234-62.1181 61.4234-61.5469L61.4234-9.30653Q61.4234-8.72771 61.1378-8.45596Q60.8523-8.18422 60.4322-8.18422ZM134.456 4.47355Q137.909 4.47355 140.409 1.95751Q142.909-0.558535 142.909-5.23129L142.909-65.5857Q142.909-70.3055 140.427-72.8124Q137.945-75.3194 134.492-75.3194Q132.793-75.3194 131.252-74.8286Q129.71-74.3378 128.055-73.3917L77.8905-43.9417Q74.9688-42.2394 73.4516-40.1954Q71.9345-38.1514 71.9345-35.463Q71.9345-32.7747 73.4788-30.6686Q75.0232-28.5625 77.8905-26.8752L128.055 2.53825Q129.692 3.52847 131.234 4.00101Q132.775 4.47355 134.456 4.47355ZM131.121-8.18422Q130.921-8.18422 130.674-8.26716Q130.427-8.3501 130.145-8.53126L86.2452-34.3672Q85.4915-34.8102 85.4915-35.4449Q85.4915-36.0643 86.2452-36.4967L130.145-62.3146Q130.434-62.5139 130.678-62.5839Q130.921-62.654 131.102-62.654Q131.533-62.654 131.841-62.386Q132.148-62.1181 132.148-61.5469L132.148-9.30653Q132.148-8.72771 131.841-8.45596Q131.533-8.18422 131.121-8.18422Z"/>
  </g>
  <g id="Medium-M" transform="matrix(1 0 0 1 1670.44 1126)">
   <path d="M62.8122 3.91238Q66.02 3.91238 68.3147 1.55673Q70.6095-0.798924 70.6095-5.21102L70.6095-65.3916Q70.6095-69.8475 68.325-72.198Q66.0405-74.5485 62.8328-74.5485Q61.2036-74.5485 59.7702-74.0593Q58.3368-73.5701 56.7466-72.6685L6.72318-43.2858Q3.9743-41.6611 2.6102-39.7177Q1.24609-37.7743 1.24609-35.3433Q1.24609-32.9122 2.63024-30.9287Q4.01438-28.9452 6.72318-27.3168L56.7466 2.02306Q58.3172 2.97678 59.7553 3.44458Q61.1933 3.91238 62.8122 3.91238ZM59.9935-7.17199Q59.7799-7.17199 59.505-7.26442Q59.2301-7.35685 58.9274-7.5602L13.9347-34.1256Q13.0228-34.6271 13.0228-35.333Q13.0228-36.0204 13.9347-36.5209L58.9274-63.0759Q59.2393-63.2896 59.5096-63.3722Q59.7799-63.4549 59.9833-63.4549Q60.4673-63.4549 60.7949-63.1545Q61.1226-62.8541 61.1226-62.1988L61.1226-8.44657Q61.1226-7.78205 60.7949-7.47702Q60.4673-7.17199 59.9935-7.17199ZM131.917 3.91238Q135.125 3.91238 137.446 1.55673Q139.766-0.798924 139.766-5.21102L139.766-65.3916Q139.766-69.8475 137.456-72.198Q135.145-74.5485 131.938-74.5485Q130.327-74.5485 128.884-74.0593Q127.442-73.5701 125.861-72.6685L75.8894-43.2858Q73.0977-41.6611 71.729-39.7177Q70.3603-37.7743 70.3603-35.3433Q70.3603-32.9122 71.7444-30.9287Q73.1285-28.9452 75.8894-27.3168L125.861 2.02306Q127.431 2.97678 128.874 3.44458Q130.317 3.91238 131.917 3.91238ZM129.108-7.17199Q128.894-7.17199 128.624-7.26442Q128.354-7.35685 128.042-7.5602L83.0489-34.1256Q82.1797-34.6271 82.1797-35.333Q82.1797-36.0204 83.0489-36.5209L128.042-63.0759Q128.363-63.2896 128.628-63.3722Q128.894-63.4549 129.097-63.4549Q129.572-63.4549 129.926-63.1545Q130.28-62.8541 130.28-62.1988L130.28-8.44657Q130.28-7.78205 129.926-7.47702Q129.572-7.17199 129.108-7.17199Z"/>
  </g>
  <g id="Regular-M" transform="matrix(1 0 0 1 1375.78 1126)">
   <path d="M61.5561 3.1804Q64.4444 3.1804 66.5003 1.03396Q68.5561-1.11248 68.5561-5.18459L68.5561-65.1384Q68.5561-69.2502 66.5003-71.3966Q64.4444-73.543 61.5561-73.543Q60.0383-73.543 58.7356-73.056Q57.433-72.5689 55.9379-71.7251L6.15606-42.4303Q3.58503-40.9069 2.41556-39.0947Q1.24609-37.2825 1.24609-35.187Q1.24609-33.0915 2.42123-31.2679Q3.59637-29.4444 6.15606-27.8927L55.9379 1.35107Q57.4217 2.25718 58.73 2.71879Q60.0383 3.1804 61.5561 3.1804ZM59.4214-5.8517Q59.1891-5.8517 58.8831-5.9565Q58.5772-6.0613 58.2372-6.2936L11.8189-33.8103Q10.7482-34.3882 10.7482-35.187Q10.7482-35.9631 11.8189-36.5523L58.2372-64.069Q58.5885-64.3013 58.8888-64.4005Q59.1891-64.4996 59.4214-64.4996Q59.9652-64.4996 60.3477-64.1568Q60.7301-63.8141 60.7301-63.0491L60.7301-7.32489Q60.7301-6.54858 60.3477-6.20014Q59.9652-5.8517 59.4214-5.8517ZM128.606 3.1804Q131.494 3.1804 133.581 1.03396Q135.668-1.11248 135.668-5.18459L135.668-65.1384Q135.668-69.2502 133.581-71.3966Q131.494-73.543 128.606-73.543Q127.11-73.543 125.796-73.056Q124.482-72.5689 122.999-71.7251L73.2792-42.4303Q70.6572-40.9069 69.4821-39.0947Q68.3069-37.2825 68.3069-35.187Q68.3069-33.0915 69.4821-31.2679Q70.6572-29.4444 73.2792-27.8927L122.999 1.35107Q124.482 2.25718 125.796 2.71879Q127.11 3.1804 128.606 3.1804ZM126.482-5.8517Q126.25-5.8517 125.95-5.9565Q125.649-6.0613 125.298-6.2936L78.8797-33.8103Q77.86-34.3882 77.86-35.187Q77.86-35.9631 78.8797-36.5523L125.298-64.069Q125.661-64.3013 125.955-64.4005Q126.25-64.4996 126.482-64.4996Q127.015-64.4996 127.428-64.1568Q127.842-63.8141 127.842-63.0491L127.842-7.32489Q127.842-6.54858 127.428-6.20014Q127.015-5.8517 126.482-5.8517Z"/>
  </g>
  <g id="Light-M" transform="matrix(1 0 0 1 1080.86 1126)">
   <path d="M60.5441 2.16846Q63.0645 2.16846 64.918 0.279605Q66.7714-1.60925 66.7714-5.31339L66.7714-64.9912Q66.7714-68.6982 64.918-70.5871Q63.0645-72.4759 60.5441-72.4759Q59.1919-72.4759 57.9997-72.0072Q56.8074-71.5385 55.5147-70.8419L5.32811-41.3264Q3.23544-40.0606 2.24077-38.5427Q1.24609-37.0249 1.24609-35.1686Q1.24609-33.3123 2.25564-31.7647Q3.26519-30.2171 5.32811-28.9783L55.5147 0.504712Q56.7777 1.26363 57.9848 1.71605Q59.1919 2.16846 60.5441 2.16846ZM59.0902-4.63736Q58.7843-4.63736 58.3864-4.76057Q57.9884-4.88377 57.5012-5.18966L9.66621-33.4792Q8.3747-34.1858 8.3747-35.1686Q8.3747-36.0919 9.66621-36.8283L57.5012-65.1178Q58.0182-65.4237 58.4012-65.532Q58.7843-65.6403 59.0902-65.6403Q59.7076-65.6403 60.2557-65.1964Q60.8037-64.7524 60.8037-63.6563L60.8037-6.68092Q60.8037-5.55504 60.2557-5.0962Q59.7076-4.63736 59.0902-4.63736ZM125.791 2.16846Q128.311 2.16846 130.196 0.279605Q132.08-1.60925 132.08-5.31339L132.08-64.9912Q132.08-68.6982 130.196-70.5871Q128.311-72.4759 125.791-72.4759Q124.498-72.4759 123.276-72.0072Q122.054-71.5385 120.791-70.8419L70.6665-41.3264Q68.5413-40.0606 67.5318-38.5427Q66.5222-37.0249 66.5222-35.1686Q66.5222-33.3123 67.5318-31.7647Q68.5413-30.2171 70.6665-28.9783L120.791 0.504712Q122.054 1.26363 123.276 1.71605Q124.498 2.16846 125.791 2.16846ZM124.366-4.63736Q124.06-4.63736 123.677-4.76057Q123.294-4.88377 122.777-5.18966L74.9423-33.4792Q73.6834-34.1858 73.6834-35.1686Q73.6834-36.0919 74.9423-36.8283L122.777-65.1178Q123.324-65.4237 123.692-65.532Q124.06-65.6403 124.366-65.6403Q124.954-65.6403 125.533-65.1964Q126.112-64.7524 126.112-63.6563L126.112-6.68092Q126.112-5.55504 125.533-5.0962Q124.954-4.63736 124.366-4.63736Z"/>
  </g>
  <g id="Thin-M" transform="matrix(1 0 0 1 786.524 1126)">
   <path d="M59.2058 0.830079Q61.2394 0.830079 62.8252-0.718096Q64.411-2.26627 64.411-5.48373L64.411-64.7966Q64.411-67.9682 62.8252-69.5163Q61.2394-71.0645 59.2058-71.0645Q58.0725-71.0645 57.0263-70.6202Q55.9801-70.1758 54.955-69.6739L4.23307-39.8663Q2.7731-38.9412 2.00959-37.8127Q1.24609-36.6842 1.24609-35.1443Q1.24609-33.6043 2.03663-32.4217Q2.82717-31.2392 4.23307-30.414L54.955-0.61466Q55.926-0.0504127 56.9993 0.389833Q58.0725 0.830079 59.2058 0.830079ZM58.6522-3.03131Q58.2489-3.03131 57.7293-3.17885Q57.2097-3.32638 56.5279-3.72961L6.81911-33.0411Q5.2356-33.9181 5.2356-35.1443Q5.2356-36.2622 6.81911-37.1933L56.5279-66.5048Q57.2638-66.9081 57.7564-67.0286Q58.2489-67.1491 58.6522-67.1491Q59.3669-67.1491 60.134-66.5713Q60.9011-65.9935 60.9011-64.4593L60.9011-5.82923Q60.9011-4.24099 60.134-3.63615Q59.3669-3.03131 58.6522-3.03131ZM122.067 0.830079Q124.101 0.830079 125.718-0.718096Q127.335-2.26627 127.335-5.48373L127.335-64.7966Q127.335-67.9682 125.718-69.5163Q124.101-71.0645 122.067-71.0645Q121.042-71.0645 119.942-70.6202Q118.842-70.1758 117.871-69.6739L67.2111-39.8663Q65.7429-38.9412 64.9524-37.8127Q64.1618-36.6842 64.1618-35.1443Q64.1618-33.6043 64.9524-32.4217Q65.7429-31.2392 67.2111-30.414L117.871-0.61466Q118.842-0.0504127 119.942 0.389833Q121.042 0.830079 122.067 0.830079ZM121.568-3.03131Q121.165-3.03131 120.672-3.17885Q120.18-3.32638 119.444-3.72961L69.7348-33.0411Q68.1595-33.9181 68.1595-35.1443Q68.1595-36.2622 69.7348-37.1933L119.444-66.5048Q120.234-66.9081 120.699-67.0286Q121.165-67.1491 121.568-67.1491Q122.229-67.1491 123.027-66.5713Q123.825-65.9935 123.825-64.4593L123.825-5.82923Q123.825-4.24099 123.027-3.63615Q122.229-3.03131 121.568-3.03131Z"/>
  </g>
  <g id="Ultralight-M" transform="matrix(1 0 0 1 491.028 1126)">
   <path d="M58.5203 0.144568Q60.3046 0.144568 61.7533-1.22911Q63.202-2.60279 63.202-5.57097L63.202-64.6969Q63.202-67.5943 61.7533-68.9679Q60.3046-70.3416 58.5203-70.3416Q57.4992-70.3416 56.5278-69.9097Q55.5563-69.4778 54.6684-69.0756L3.6722-39.1185Q2.53628-38.3679 1.89119-37.4388Q1.24609-36.5097 1.24609-35.1318Q1.24609-33.7539 1.92446-32.7583Q2.60282-31.7626 3.6722-31.1493L54.6684-1.188Q55.4898-0.72346 56.4945-0.289446Q57.4992 0.144568 58.5203 0.144568ZM58.4278-2.2087Q57.9747-2.2087 57.3928-2.3687Q56.8109-2.5287 56.0293-2.98178L5.36084-32.8168Q3.62776-33.781 3.62776-35.1318Q3.62776-36.3495 5.36084-37.3803L56.0293-67.2153Q56.8774-67.6684 57.4261-67.7951Q57.9747-67.9218 58.4278-67.9218Q59.1924-67.9218 60.0717-67.2755Q60.9509-66.6291 60.9509-64.8706L60.9509-5.39299Q60.9509-3.56795 60.0717-2.88832Q59.1924-2.2087 58.4278-2.2087ZM120.16 0.144568Q121.945 0.144568 123.425-1.22911Q124.905-2.60279 124.905-5.57097L124.905-64.6969Q124.905-67.5943 123.425-68.9679Q121.945-70.3416 120.16-70.3416Q119.272-70.3416 118.234-69.9097Q117.196-69.4778 116.375-69.0756L65.4412-39.1185Q64.3095-38.3679 63.6312-37.4388Q62.9528-36.5097 62.9528-35.1318Q62.9528-33.7539 63.6312-32.7583Q64.3095-31.7626 65.4412-31.1493L116.375-1.188Q117.196-0.72346 118.234-0.289446Q119.272 0.144568 120.16 0.144568ZM120.135-2.2087Q119.681-2.2087 119.133-2.3687Q118.584-2.5287 117.736-2.98178L67.0676-32.8168Q65.3302-33.781 65.3302-35.1318Q65.3302-36.3495 67.0676-37.3803L117.736-67.2153Q118.651-67.6684 119.166-67.7951Q119.681-67.9218 120.135-67.9218Q120.833-67.9218 121.743-67.2755Q122.653-66.6291 122.653-64.8706L122.653-5.39299Q122.653-3.56795 121.743-2.88832Q120.833-2.2087 120.135-2.2087Z"/>
  </g>
  <g id="Black-S" transform="matrix(1 0 0 1 2865.72 696)">
   <path d="M54.1504-1.70898Q57.9102-1.70898 60.6445-4.37012Q63.3789-7.03125 63.3789-11.8164L63.3789-59.8633Q63.3789-64.6973 60.6934-67.334Q58.0078-69.9707 54.248-69.9707Q52.5391-69.9707 50.9033-69.5801Q49.2676-69.1895 47.6562-68.2617L7.4707-44.873Q4.63867-43.2129 2.80762-41.1865Q0.976562-39.1602 0.976562-35.9375Q0.976562-32.7148 2.88086-30.542Q4.78516-28.3691 7.4707-26.8066L47.6562-3.41797Q49.2188-2.49023 50.8545-2.09961Q52.4902-1.70898 54.1504-1.70898ZM49.2676-18.4082Q49.1699-18.4082 49.0723-18.4326Q48.9746-18.457 48.877-18.5059L19.1895-35.5957Q19.0918-35.6934 19.0918-35.8887Q19.0918-36.084 19.1895-36.1328L48.877-53.1738Q48.9746-53.2715 49.0723-53.2715Q49.1699-53.2715 49.2188-53.2715Q49.3652-53.2715 49.4141-53.1982Q49.4629-53.125 49.4629-53.0273L49.4629-18.6523Q49.4629-18.5547 49.4141-18.4814Q49.3652-18.4082 49.2676-18.4082ZM116.357-1.70898Q120.117-1.70898 122.852-4.37012Q125.586-7.03125 125.586-11.8164L125.586-59.8633Q125.586-64.6973 122.9-67.334Q120.215-69.9707 116.455-69.9707Q114.746-69.9707 113.11-69.5801Q111.475-69.1895 109.863-68.2617L69.6777-44.873Q66.8457-43.2129 65.0146-41.1865Q63.1836-39.1602 63.1836-35.9375Q63.1836-32.7148 65.0879-30.542Q66.9922-28.3691 69.6777-26.8066L109.863-3.41797Q111.426-2.49023 113.062-2.09961Q114.697-1.70898 116.357-1.70898ZM111.475-18.4082Q111.377-18.4082 111.279-18.4326Q111.182-18.457 111.084-18.5059L81.3965-35.5957Q81.2988-35.6934 81.2988-35.8887Q81.2988-36.084 81.3965-36.1328L111.084-53.1738Q111.182-53.2715 111.279-53.2715Q111.377-53.2715 111.426-53.2715Q111.572-53.2715 111.621-53.1982Q111.67-53.125 111.67-53.0273L111.67-18.6523Q111.67-18.5547 111.621-18.4814Q111.572-18.4082 111.475-18.4082Z"/>
  </g>
  <g id="Heavy-S" transform="matrix(1 0 0 1 2571.08 696)">
   <path d="M52.8712-2.40045Q56.3198-2.40045 58.8121-4.85991Q61.3045-7.31936 61.3045-11.7703L61.3045-59.5982Q61.3045-64.098 58.8494-66.5388Q56.3944-68.9796 52.9458-68.9796Q51.3405-68.9796 49.8373-68.589Q48.3341-68.1983 46.8034-67.3167L6.94058-44.0548Q4.24684-42.4753 2.6117-40.5584Q0.976562-38.6416 0.976562-35.7646Q0.976562-32.8877 2.66766-30.8589Q4.35875-28.8301 6.94058-27.3137L46.8034-4.06334Q48.2968-3.17018 49.8-2.78532Q51.3032-2.40045 52.8712-2.40045ZM48.6683-17.0829Q48.5591-17.0829 48.4384-17.1188Q48.3177-17.1548 48.197-17.2266L17.092-35.2845Q16.8445-35.4513 16.8445-35.7273Q16.8445-36.0033 17.092-36.1328L48.197-54.1534Q48.3177-54.2626 48.4384-54.2799Q48.5591-54.2972 48.631-54.2972Q48.8351-54.2972 48.9243-54.1893Q49.0134-54.0815 49.0134-53.9032L49.0134-17.4768Q49.0134-17.2985 48.9243-17.1907Q48.8351-17.0829 48.6683-17.0829ZM113.004-2.40045Q116.452-2.40045 118.951-4.85991Q121.449-7.31936 121.449-11.7703L121.449-59.5982Q121.449-64.098 118.988-66.5388Q116.527-68.9796 113.078-68.9796Q111.473-68.9796 109.97-68.589Q108.467-68.1983 106.936-67.3167L67.0847-44.0548Q64.3795-42.4753 62.7443-40.5584Q61.1092-38.6416 61.1092-35.7646Q61.1092-32.8877 62.8003-30.8589Q64.4914-28.8301 67.0847-27.3137L106.936-4.06334Q108.429-3.17018 109.933-2.78532Q111.436-2.40045 113.004-2.40045ZM108.801-17.0829Q108.692-17.0829 108.571-17.1188Q108.45-17.1548 108.33-17.2266L77.2246-35.2845Q76.9887-35.4513 76.9887-35.7273Q76.9887-36.0033 77.2246-36.1328L108.33-54.1534Q108.45-54.2626 108.571-54.2799Q108.692-54.2972 108.764-54.2972Q108.968-54.2972 109.063-54.1893Q109.158-54.0815 109.158-53.9032L109.158-17.4768Q109.158-17.2985 109.063-17.1907Q108.968-17.0829 108.801-17.0829Z"/>
  </g>
  <g id="Bold-S" transform="matrix(1 0 0 1 2276.68 696)">
   <path d="M51.4404-3.17383Q54.541-3.17383 56.7627-5.40771Q58.9844-7.6416 58.9844-11.7188L58.9844-59.3018Q58.9844-63.4277 56.7871-65.6494Q54.5898-67.8711 51.4893-67.8711Q50-67.8711 48.645-67.4805Q47.29-67.0898 45.8496-66.2598L6.34766-43.1396Q3.80859-41.6504 2.39258-39.856Q0.976562-38.0615 0.976562-35.5713Q0.976562-33.0811 2.4292-31.2134Q3.88184-29.3457 6.34766-27.8809L45.8496-4.78516Q47.2656-3.93066 48.6206-3.55225Q49.9756-3.17383 51.4404-3.17383ZM47.998-15.6006Q47.876-15.6006 47.7295-15.6494Q47.583-15.6982 47.4365-15.7959L14.7461-34.9365Q14.3311-35.1807 14.3311-35.5469Q14.3311-35.9131 14.7461-36.1328L47.4365-55.249Q47.583-55.3711 47.7295-55.4077Q47.876-55.4443 47.9736-55.4443Q48.2422-55.4443 48.3765-55.2979Q48.5107-55.1514 48.5107-54.8828L48.5107-16.1621Q48.5107-15.8936 48.3765-15.7471Q48.2422-15.6006 47.998-15.6006ZM109.253-3.17383Q112.354-3.17383 114.587-5.40771Q116.821-7.6416 116.821-11.7188L116.821-59.3018Q116.821-63.4277 114.612-65.6494Q112.402-67.8711 109.302-67.8711Q107.812-67.8711 106.458-67.4805Q105.103-67.0898 103.662-66.2598L64.1846-43.1396Q61.6211-41.6504 60.2051-39.856Q58.7891-38.0615 58.7891-35.5713Q58.7891-33.0811 60.2417-31.2134Q61.6943-29.3457 64.1846-27.8809L103.662-4.78516Q105.078-3.93066 106.433-3.55225Q107.788-3.17383 109.253-3.17383ZM105.811-15.6006Q105.688-15.6006 105.542-15.6494Q105.396-15.6982 105.249-15.7959L72.5586-34.9365Q72.168-35.1807 72.168-35.5469Q72.168-35.9131 72.5586-36.1328L105.249-55.249Q105.396-55.3711 105.542-55.4077Q105.688-55.4443 105.786-55.4443Q106.055-55.4443 106.201-55.2979Q106.348-55.1514 106.348-54.8828L106.348-16.1621Q106.348-15.8936 106.201-15.7471Q106.055-15.6006 105.811-15.6006Z"/>
  </g>
  <g id="Semibold-S" transform="matrix(1 0 0 1 1981.57 696)">
   <path d="M50.454-3.70703Q53.3146-3.70703 55.3497-5.7854Q57.3848-7.86377 57.3848-11.6832L57.3848-59.0974Q57.3848-62.9656 55.3652-65.0362Q53.3457-67.1068 50.4851-67.1068Q49.0758-67.1068 47.823-66.7162Q46.5702-66.3256 45.192-65.5311L5.93887-42.5087Q3.50645-41.0816 2.2415-39.3716Q0.976562-37.6616 0.976562-35.438Q0.976562-33.2144 2.26479-31.4578Q3.55303-29.7012 5.93887-28.2719L45.192-5.28281Q46.5547-4.45498 47.8075-4.08101Q49.0603-3.70703 50.454-3.70703ZM47.5359-14.5786Q47.405-14.5786 47.2407-14.6363Q47.0765-14.694 46.9122-14.8095L13.1287-34.6966Q12.5981-34.994 12.5981-35.4225Q12.5981-35.8509 13.1287-36.1328L46.9122-56.0044Q47.0765-56.1354 47.2407-56.1853Q47.405-56.2353 47.5204-56.2353Q47.8334-56.2353 47.9988-56.0621Q48.1642-55.889 48.1642-55.5582L48.1642-15.2557Q48.1642-14.9249 47.9988-14.7518Q47.8334-14.5786 47.5359-14.5786ZM106.667-3.70703Q109.528-3.70703 111.579-5.7854Q113.631-7.86377 113.631-11.6832L113.631-59.0974Q113.631-62.9656 111.595-65.0362Q109.559-67.1068 106.698-67.1068Q105.289-67.1068 104.036-66.7162Q102.783-66.3256 101.405-65.5311L62.1851-42.5087Q59.7193-41.0816 58.4544-39.3716Q57.1895-37.6616 57.1895-35.438Q57.1895-33.2144 58.4777-31.4578Q59.7659-29.7012 62.1851-28.2719L101.405-5.28281Q102.768-4.45498 104.02-4.08101Q105.273-3.70703 106.667-3.70703ZM103.749-14.5786Q103.618-14.5786 103.454-14.6363Q103.289-14.694 103.125-14.8095L69.3416-34.6966Q68.8443-34.994 68.8443-35.4225Q68.8443-35.8509 69.3416-36.1328L103.125-56.0044Q103.289-56.1354 103.454-56.1853Q103.618-56.2353 103.733-56.2353Q104.046-56.2353 104.228-56.0621Q104.41-55.889 104.41-55.5582L104.41-15.2557Q104.41-14.9249 104.228-14.7518Q104.046-14.5786 103.749-14.5786Z"/>
  </g>
  <g id="Medium-S" transform="matrix(1 0 0 1 1686.07 696)">
   <path d="M49.7061-4.11133Q52.3848-4.11133 54.2783-6.07178Q56.1719-8.03223 56.1719-11.6562L56.1719-58.9424Q56.1719-62.6152 54.2871-64.5713Q52.4023-66.5273 49.7236-66.5273Q48.375-66.5273 47.1997-66.1367Q46.0244-65.7461 44.6934-64.9785L5.62891-42.0303Q3.27734-40.6504 2.12695-39.0044Q0.976562-37.3584 0.976562-35.3369Q0.976562-33.3154 2.14014-31.6431Q3.30371-29.9707 5.62891-28.5684L44.6934-5.66016Q46.0156-4.85254 47.1909-4.48193Q48.3662-4.11133 49.7061-4.11133ZM47.1855-13.8037Q47.0479-13.8037 46.8701-13.8682Q46.6924-13.9326 46.5146-14.0615L11.9023-34.5146Q11.2842-34.8525 11.2842-35.3281Q11.2842-35.8037 11.9023-36.1328L46.5146-56.5771Q46.6924-56.7148 46.8701-56.7749Q47.0479-56.835 47.1768-56.835Q47.5234-56.835 47.7124-56.6416Q47.9014-56.4482 47.9014-56.0703L47.9014-14.5684Q47.9014-14.1904 47.7124-13.9971Q47.5234-13.8037 47.1855-13.8037ZM104.706-4.11133Q107.385-4.11133 109.298-6.07178Q111.212-8.03223 111.212-11.6562L111.212-58.9424Q111.212-62.6152 109.307-64.5713Q107.402-66.5273 104.724-66.5273Q103.375-66.5273 102.2-66.1367Q101.024-65.7461 99.6934-64.9785L60.6689-42.0303Q58.2773-40.6504 57.127-39.0044Q55.9766-37.3584 55.9766-35.3369Q55.9766-33.3154 57.1401-31.6431Q58.3037-29.9707 60.6689-28.5684L99.6934-5.66016Q101.016-4.85254 102.191-4.48193Q103.366-4.11133 104.706-4.11133ZM102.186-13.8037Q102.048-13.8037 101.87-13.8682Q101.692-13.9326 101.515-14.0615L66.9023-34.5146Q66.3242-34.8525 66.3242-35.3281Q66.3242-35.8037 66.9023-36.1328L101.515-56.5771Q101.692-56.7148 101.87-56.7749Q102.048-56.835 102.177-56.835Q102.523-56.835 102.732-56.6416Q102.941-56.4482 102.941-56.0703L102.941-14.5684Q102.941-14.1904 102.732-13.9971Q102.523-13.8037 102.186-13.8037Z"/>
  </g>
  <g id="Regular-S" transform="matrix(1 0 0 1 1390.93 696)">
   <path d="M48.7305-4.63867Q51.1719-4.63867 52.8809-6.44531Q54.5898-8.25195 54.5898-11.6211L54.5898-58.7402Q54.5898-62.1582 52.8809-63.9648Q51.1719-65.7715 48.7305-65.7715Q47.4609-65.7715 46.3867-65.3809Q45.3125-64.9902 44.043-64.2578L5.22461-41.4062Q2.97852-40.0879 1.97754-38.5254Q0.976562-36.9629 0.976562-35.2051Q0.976562-33.4473 1.97754-31.8848Q2.97852-30.3223 5.22461-28.9551L44.043-6.15234Q45.3125-5.37109 46.3867-5.00488Q47.4609-4.63867 48.7305-4.63867ZM46.7285-12.793Q46.582-12.793 46.3867-12.8662Q46.1914-12.9395 45.9961-13.0859L10.3027-34.2773Q9.57031-34.668 9.57031-35.2051Q9.57031-35.7422 10.3027-36.1328L45.9961-57.3242Q46.1914-57.4707 46.3867-57.5439Q46.582-57.6172 46.7285-57.6172Q47.1191-57.6172 47.3389-57.3975Q47.5586-57.1777 47.5586-56.7383L47.5586-13.6719Q47.5586-13.2324 47.3389-13.0127Q47.1191-12.793 46.7285-12.793ZM102.148-4.63867Q104.59-4.63867 106.323-6.44531Q108.057-8.25195 108.057-11.6211L108.057-58.7402Q108.057-62.1582 106.323-63.9648Q104.59-65.7715 102.148-65.7715Q100.879-65.7715 99.8047-65.3809Q98.7305-64.9902 97.4609-64.2578L58.6914-41.4062Q56.3965-40.0879 55.3955-38.5254Q54.3945-36.9629 54.3945-35.2051Q54.3945-33.4473 55.3955-31.8848Q56.3965-30.3223 58.6914-28.9551L97.4609-6.15234Q98.7305-5.37109 99.8047-5.00488Q100.879-4.63867 102.148-4.63867ZM100.146-12.793Q100-12.793 99.8047-12.8662Q99.6094-12.9395 99.4141-13.0859L63.7207-34.2773Q63.0371-34.668 63.0371-35.2051Q63.0371-35.7422 63.7207-36.1328L99.4141-57.3242Q99.6094-57.4707 99.8047-57.5439Q100-57.6172 100.146-57.6172Q100.537-57.6172 100.781-57.3975Q101.025-57.1777 101.025-56.7383L101.025-13.6719Q101.025-13.2324 100.781-13.0127Q100.537-12.793 100.146-12.793Z"/>
  </g>
  <g id="Light-S" transform="matrix(1 0 0 1 1095.81 696)">
   <path d="M47.8353-5.53385Q49.9512-5.53385 51.4811-7.11263Q53.0111-8.69141 53.0111-11.735L53.0111-58.61Q53.0111-61.6699 51.4811-63.2487Q49.9512-64.8275 47.8353-64.8275Q46.7122-64.8275 45.7357-64.4531Q44.7591-64.0788 43.6686-63.4766L4.49219-40.4297Q2.66927-39.3392 1.82292-38.0371Q0.976562-36.735 0.976562-35.1888Q0.976562-33.6426 1.83105-32.3242Q2.68555-31.0059 4.49219-29.9154L43.6686-6.90104Q44.7428-6.25 45.7275-5.89193Q46.7122-5.53385 47.8353-5.53385ZM46.4355-11.7188Q46.224-11.7188 45.9473-11.8083Q45.6706-11.8978 45.3451-12.1094L8.39844-33.9844Q7.4707-34.4889 7.4707-35.1888Q7.4707-35.8561 8.39844-36.377L45.3451-58.252Q45.6868-58.4635 45.9554-58.5449Q46.224-58.6263 46.4355-58.6263Q46.8913-58.6263 47.2575-58.3171Q47.6237-58.0078 47.6237-57.2754L47.6237-13.1022Q47.6237-12.3535 47.2575-12.0361Q46.8913-11.7188 46.4355-11.7188ZM99.6582-5.53385Q101.774-5.53385 103.328-7.11263Q104.883-8.69141 104.883-11.735L104.883-58.61Q104.883-61.6699 103.328-63.2487Q101.774-64.8275 99.6582-64.8275Q98.5677-64.8275 97.5749-64.4531Q96.582-64.0788 95.5078-63.4766L56.3802-40.4297Q54.5247-39.3392 53.6702-38.0371Q52.8158-36.735 52.8158-35.1888Q52.8158-33.6426 53.6702-32.3242Q54.5247-31.0059 56.3802-29.9154L95.5078-6.90104Q96.582-6.25 97.5749-5.89193Q98.5677-5.53385 99.6582-5.53385ZM98.2747-11.7188Q98.0632-11.7188 97.7946-11.8083Q97.526-11.8978 97.1842-12.1094L60.2376-33.9844Q59.3424-34.4889 59.3424-35.1888Q59.3424-35.8561 60.2376-36.377L97.1842-58.252Q97.5423-58.4635 97.8027-58.5449Q98.0632-58.6263 98.2747-58.6263Q98.7142-58.6263 99.1048-58.3171Q99.4954-58.0078 99.4954-57.2754L99.4954-13.1022Q99.4954-12.3535 99.1048-12.0361Q98.7142-11.7188 98.2747-11.7188Z"/>
  </g>
  <g id="Thin-S" transform="matrix(1 0 0 1 801.197 696)">
   <path d="M46.6513-6.7178Q48.3367-6.7178 49.6299-7.99521Q50.923-9.27262 50.923-11.8857L50.923-58.4378Q50.923-61.0241 49.6299-62.3015Q48.3367-63.5789 46.6513-63.5789Q45.722-63.5789 44.8746-63.2261Q44.0272-62.8733 43.1735-62.4433L3.5235-39.1381Q2.26027-38.349 1.61842-37.3913Q0.976562-36.4337 0.976562-35.1673Q0.976562-33.9009 1.63732-32.9054Q2.29807-31.91 3.5235-31.1854L43.1735-7.89126Q43.9894-7.41242 44.8557-7.06511Q45.722-6.7178 46.6513-6.7178ZM46.0481-10.298Q45.7504-10.298 45.3661-10.4091Q44.9817-10.5201 44.484-10.8178L5.87985-33.5969Q4.6938-34.2521 4.6938-35.1673Q4.6938-36.0068 5.87985-36.6998L44.484-59.479Q45.0195-59.7767 45.385-59.8688Q45.7504-59.9609 46.0481-59.9609Q46.5899-59.9609 47.1499-59.5333Q47.7098-59.1057 47.7098-57.9858L47.7098-12.3488Q47.7098-11.1911 47.1499-10.7446Q46.5899-10.298 46.0481-10.298ZM96.3647-6.7178Q98.05-6.7178 99.3676-7.99521Q100.685-9.27262 100.685-11.8857L100.685-58.4378Q100.685-61.0241 99.3676-62.3015Q98.05-63.5789 96.3647-63.5789Q95.511-63.5789 94.6258-63.2261Q93.7405-62.8733 92.9246-62.4433L53.3235-39.1381Q52.0492-38.349 51.3885-37.3913Q50.7277-36.4337 50.7277-35.1673Q50.7277-33.9009 51.3885-32.9054Q52.0492-31.91 53.3235-31.1854L92.9246-7.89126Q93.7405-7.41242 94.6258-7.06511Q95.511-6.7178 96.3647-6.7178ZM95.7992-10.298Q95.5015-10.298 95.1361-10.4091Q94.7707-10.5201 94.2351-10.8178L55.631-33.5969Q54.456-34.2521 54.456-35.1673Q54.456-36.0068 55.631-36.6998L94.2351-59.479Q94.8085-59.7767 95.155-59.8688Q95.5015-59.9609 95.7992-59.9609Q96.3032-59.9609 96.8876-59.5333Q97.472-59.1057 97.472-57.9858L97.472-12.3488Q97.472-11.1911 96.8876-10.7446Q96.3032-10.298 95.7992-10.298Z"/>
  </g>
  <g id="Ultralight-S" transform="matrix(1 0 0 1 505.561 696)">
   <path d="M46.0449-7.32422Q47.5098-7.32422 48.6816-8.44727Q49.8535-9.57031 49.8535-11.9629L49.8535-58.3496Q49.8535-60.6934 48.6816-61.8164Q47.5098-62.9395 46.0449-62.9395Q45.2148-62.9395 44.4336-62.5977Q43.6523-62.2559 42.9199-61.9141L3.02734-38.4766Q2.05078-37.8418 1.51367-37.0605Q0.976562-36.2793 0.976562-35.1562Q0.976562-34.0332 1.53809-33.2031Q2.09961-32.373 3.02734-31.8359L42.9199-8.39844Q43.6035-8.00781 44.4092-7.66602Q45.2148-7.32422 46.0449-7.32422ZM45.8496-9.57031Q45.5078-9.57031 45.0684-9.69238Q44.6289-9.81445 44.043-10.1562L4.58984-33.3984Q3.27148-34.1309 3.27148-35.1562Q3.27148-36.084 4.58984-36.8652L44.043-60.1074Q44.6777-60.4492 45.0928-60.5469Q45.5078-60.6445 45.8496-60.6445Q46.4355-60.6445 47.0947-60.1562Q47.7539-59.668 47.7539-58.3496L47.7539-11.9629Q47.7539-10.5957 47.0947-10.083Q46.4355-9.57031 45.8496-9.57031ZM94.6777-7.32422Q96.1426-7.32422 97.3389-8.44727Q98.5352-9.57031 98.5352-11.9629L98.5352-58.3496Q98.5352-60.6934 97.3389-61.8164Q96.1426-62.9395 94.6777-62.9395Q93.9453-62.9395 93.1152-62.5977Q92.2852-62.2559 91.6016-61.9141L51.7578-38.4766Q50.7812-37.8418 50.2197-37.0605Q49.6582-36.2793 49.6582-35.1562Q49.6582-34.0332 50.2197-33.2031Q50.7812-32.373 51.7578-31.8359L91.6016-8.39844Q92.2852-8.00781 93.1152-7.66602Q93.9453-7.32422 94.6777-7.32422ZM94.5312-9.57031Q94.1895-9.57031 93.7744-9.69238Q93.3594-9.81445 92.7246-10.1562L53.2715-33.3984Q51.9531-34.1309 51.9531-35.1562Q51.9531-36.084 53.2715-36.8652L92.7246-60.1074Q93.4082-60.4492 93.7988-60.5469Q94.1895-60.6445 94.5312-60.6445Q95.0684-60.6445 95.752-60.1562Q96.4355-59.668 96.4355-58.3496L96.4355-11.9629Q96.4355-10.5957 95.752-10.083Q95.0684-9.57031 94.5312-9.57031Z"/>
  </g>
 </g>
</svg>
