<?xml version="1.0" encoding="UTF-8"?>
<!--Generator: Apple Native CoreSVG 175-->
<!DOCTYPE svg
PUBLIC "-//W3C//DTD SVG 1.1//EN"
       "http://www.w3.org/Graphics/SVG/1.1/DTD/svg11.dtd">
<svg version="1.1" xmlns="http://www.w3.org/2000/svg" xmlns:xlink="http://www.w3.org/1999/xlink" width="3300" height="2200">
 <!--glyph: "uni100289.medium", point size: 100.0, font version: "17.1d1e1", template writer version: "65.1"-->
 <g id="Notes">
  <rect height="2200" id="artboard" style="fill:white;opacity:1" width="3300" x="0" y="0"/>
  <line style="fill:none;stroke:black;opacity:1;stroke-width:0.5;" x1="263" x2="3036" y1="292" y2="292"/>
  <text style="stroke:none;fill:black;font-family:sans-serif;font-size:13;font-weight:bold;" transform="matrix(1 0 0 1 263 322)">Weight/Scale Variations</text>
  <text style="stroke:none;fill:black;font-family:sans-serif;font-size:13;text-anchor:middle;" transform="matrix(1 0 0 1 559.711 322)">Ultralight</text>
  <text style="stroke:none;fill:black;font-family:sans-serif;font-size:13;text-anchor:middle;" transform="matrix(1 0 0 1 856.422 322)">Thin</text>
  <text style="stroke:none;fill:black;font-family:sans-serif;font-size:13;text-anchor:middle;" transform="matrix(1 0 0 1 1153.13 322)">Light</text>
  <text style="stroke:none;fill:black;font-family:sans-serif;font-size:13;text-anchor:middle;" transform="matrix(1 0 0 1 1449.84 322)">Regular</text>
  <text style="stroke:none;fill:black;font-family:sans-serif;font-size:13;text-anchor:middle;" transform="matrix(1 0 0 1 1746.56 322)">Medium</text>
  <text style="stroke:none;fill:black;font-family:sans-serif;font-size:13;text-anchor:middle;" transform="matrix(1 0 0 1 2043.27 322)">Semibold</text>
  <text style="stroke:none;fill:black;font-family:sans-serif;font-size:13;text-anchor:middle;" transform="matrix(1 0 0 1 2339.98 322)">Bold</text>
  <text style="stroke:none;fill:black;font-family:sans-serif;font-size:13;text-anchor:middle;" transform="matrix(1 0 0 1 2636.69 322)">Heavy</text>
  <text style="stroke:none;fill:black;font-family:sans-serif;font-size:13;text-anchor:middle;" transform="matrix(1 0 0 1 2933.4 322)">Black</text>
  <line style="fill:none;stroke:black;opacity:1;stroke-width:0.5;" x1="263" x2="3036" y1="1903" y2="1903"/>
  <g transform="matrix(1 0 0 1 263 1933)">
   <path d="M9.24805 0.830078Q10.8691 0.830078 12.2949 0.214844Q13.7207-0.400391 14.8096-1.49414Q15.8984-2.58789 16.5186-4.01367Q17.1387-5.43945 17.1387-7.05078Q17.1387-8.66211 16.5186-10.0879Q15.8984-11.5137 14.8047-12.6074Q13.7109-13.7012 12.2852-14.3164Q10.8594-14.9316 9.23828-14.9316Q7.62695-14.9316 6.20117-14.3164Q4.77539-13.7012 3.69141-12.6074Q2.60742-11.5137 1.9873-10.0879Q1.36719-8.66211 1.36719-7.05078Q1.36719-5.43945 1.9873-4.01367Q2.60742-2.58789 3.69629-1.49414Q4.78516-0.400391 6.21094 0.214844Q7.63672 0.830078 9.24805 0.830078ZM9.24805-0.654297Q7.91992-0.654297 6.7627-1.14746Q5.60547-1.64062 4.73145-2.51953Q3.85742-3.39844 3.36426-4.56055Q2.87109-5.72266 2.87109-7.05078Q2.87109-8.37891 3.35938-9.54102Q3.84766-10.7031 4.72168-11.582Q5.5957-12.4609 6.75293-12.9541Q7.91016-13.4473 9.23828-13.4473Q10.5762-13.4473 11.7334-12.9541Q12.8906-12.4609 13.7695-11.582Q14.6484-10.7031 15.1465-9.54102Q15.6445-8.37891 15.6445-7.05078Q15.6445-5.72266 15.1514-4.56055Q14.6582-3.39844 13.7842-2.51953Q12.9102-1.64062 11.748-1.14746Q10.5859-0.654297 9.24805-0.654297ZM5.6543-7.05078Q5.6543-6.72852 5.85938-6.52832Q6.06445-6.32812 6.40625-6.32812L8.51562-6.32812L8.51562-4.20898Q8.51562-3.88672 8.71094-3.67676Q8.90625-3.4668 9.23828-3.4668Q9.56055-3.4668 9.77051-3.67676Q9.98047-3.88672 9.98047-4.20898L9.98047-6.32812L12.0898-6.32812Q12.4219-6.32812 12.627-6.52832Q12.832-6.72852 12.832-7.05078Q12.832-7.38281 12.627-7.58789Q12.4219-7.79297 12.0898-7.79297L9.98047-7.79297L9.98047-9.90234Q9.98047-10.2344 9.77051-10.4443Q9.56055-10.6543 9.23828-10.6543Q8.90625-10.6543 8.71094-10.4443Q8.51562-10.2344 8.51562-9.90234L8.51562-7.79297L6.40625-7.79297Q6.06445-7.79297 5.85938-7.58789Q5.6543-7.38281 5.6543-7.05078Z"/>
  </g>
  <g transform="matrix(1 0 0 1 281.867 1933)">
   <path d="M11.709 2.91016Q13.75 2.91016 15.5518 2.12891Q17.3535 1.34766 18.7305-0.0292969Q20.1074-1.40625 20.8887-3.20801Q21.6699-5.00977 21.6699-7.05078Q21.6699-9.0918 20.8887-10.8936Q20.1074-12.6953 18.7305-14.0723Q17.3535-15.4492 15.5469-16.2305Q13.7402-17.0117 11.6992-17.0117Q9.6582-17.0117 7.85645-16.2305Q6.05469-15.4492 4.68262-14.0723Q3.31055-12.6953 2.5293-10.8936Q1.74805-9.0918 1.74805-7.05078Q1.74805-5.00977 2.5293-3.20801Q3.31055-1.40625 4.6875-0.0292969Q6.06445 1.34766 7.86621 2.12891Q9.66797 2.91016 11.709 2.91016ZM11.709 1.25Q9.98047 1.25 8.47656 0.605469Q6.97266-0.0390625 5.83496-1.17676Q4.69727-2.31445 4.05762-3.81836Q3.41797-5.32227 3.41797-7.05078Q3.41797-8.7793 4.05762-10.2832Q4.69727-11.7871 5.83008-12.9297Q6.96289-14.0723 8.4668-14.7119Q9.9707-15.3516 11.6992-15.3516Q13.4277-15.3516 14.9316-14.7119Q16.4355-14.0723 17.5781-12.9297Q18.7207-11.7871 19.3652-10.2832Q20.0098-8.7793 20.0098-7.05078Q20.0098-5.32227 19.3701-3.81836Q18.7305-2.31445 17.5928-1.17676Q16.4551-0.0390625 14.9463 0.605469Q13.4375 1.25 11.709 1.25ZM7.17773-7.05078Q7.17773-6.69922 7.41211-6.47461Q7.64648-6.25 8.01758-6.25L10.8887-6.25L10.8887-3.36914Q10.8887-2.99805 11.1133-2.76855Q11.3379-2.53906 11.6895-2.53906Q12.0605-2.53906 12.29-2.76855Q12.5195-2.99805 12.5195-3.36914L12.5195-6.25L15.4004-6.25Q15.7715-6.25 16.001-6.47461Q16.2305-6.69922 16.2305-7.05078Q16.2305-7.42188 16.001-7.65137Q15.7715-7.88086 15.4004-7.88086L12.5195-7.88086L12.5195-10.752Q12.5195-11.1328 12.29-11.3623Q12.0605-11.5918 11.6895-11.5918Q11.3379-11.5918 11.1133-11.3574Q10.8887-11.123 10.8887-10.752L10.8887-7.88086L8.01758-7.88086Q7.63672-7.88086 7.40723-7.65137Q7.17773-7.42188 7.17773-7.05078Z"/>
  </g>
  <g transform="matrix(1 0 0 1 305.646 1933)">
   <path d="M14.9707 5.66406Q17.0605 5.66406 18.96 5.01465Q20.8594 4.36523 22.4512 3.19336Q24.043 2.02148 25.2197 0.429688Q26.3965-1.16211 27.0459-3.06641Q27.6953-4.9707 27.6953-7.05078Q27.6953-9.14062 27.0459-11.04Q26.3965-12.9395 25.2197-14.5312Q24.043-16.123 22.4512-17.2998Q20.8594-18.4766 18.9551-19.126Q17.0508-19.7754 14.9609-19.7754Q12.8711-19.7754 10.9717-19.126Q9.07227-18.4766 7.48535-17.2998Q5.89844-16.123 4.72168-14.5312Q3.54492-12.9395 2.90039-11.04Q2.25586-9.14062 2.25586-7.05078Q2.25586-4.9707 2.90527-3.06641Q3.55469-1.16211 4.72656 0.429688Q5.89844 2.02148 7.49023 3.19336Q9.08203 4.36523 10.9814 5.01465Q12.8809 5.66406 14.9707 5.66406ZM14.9707 3.84766Q13.1641 3.84766 11.5283 3.2959Q9.89258 2.74414 8.53516 1.74805Q7.17773 0.751953 6.17676-0.610352Q5.17578-1.97266 4.62891-3.6084Q4.08203-5.24414 4.08203-7.05078Q4.08203-8.86719 4.62891-10.5029Q5.17578-12.1387 6.17188-13.501Q7.16797-14.8633 8.52539-15.8594Q9.88281-16.8555 11.5186-17.4023Q13.1543-17.9492 14.9609-17.9492Q16.7773-17.9492 18.4131-17.4023Q20.0488-16.8555 21.4111-15.8594Q22.7734-14.8633 23.7695-13.501Q24.7656-12.1387 25.3174-10.5029Q25.8691-8.86719 25.8691-7.05078Q25.8789-5.24414 25.332-3.6084Q24.7852-1.97266 23.7842-0.610352Q22.7832 0.751953 21.4209 1.74805Q20.0586 2.74414 18.4229 3.2959Q16.7871 3.84766 14.9707 3.84766ZM9.19922-7.05078Q9.19922-6.66992 9.45801-6.4209Q9.7168-6.17188 10.1172-6.17188L14.0625-6.17188L14.0625-2.2168Q14.0625-1.81641 14.3115-1.55762Q14.5605-1.29883 14.9512-1.29883Q15.3516-1.29883 15.6104-1.55273Q15.8691-1.80664 15.8691-2.2168L15.8691-6.17188L19.8242-6.17188Q20.2246-6.17188 20.4785-6.4209Q20.7324-6.66992 20.7324-7.05078Q20.7324-7.46094 20.4785-7.71484Q20.2246-7.96875 19.8242-7.96875L15.8691-7.96875L15.8691-11.9141Q15.8691-12.3242 15.6104-12.583Q15.3516-12.8418 14.9512-12.8418Q14.5605-12.8418 14.3115-12.583Q14.0625-12.3242 14.0625-11.9141L14.0625-7.96875L10.1172-7.96875Q9.70703-7.96875 9.45312-7.71484Q9.19922-7.46094 9.19922-7.05078Z"/>
  </g>
  <text style="stroke:none;fill:black;font-family:sans-serif;font-size:13;font-weight:bold;" transform="matrix(1 0 0 1 263 1953)">Design Variations</text>
  <text style="stroke:none;fill:black;font-family:sans-serif;font-size:13;" transform="matrix(1 0 0 1 263 1971)">Symbols are supported in up to nine weights and three scales.</text>
  <text style="stroke:none;fill:black;font-family:sans-serif;font-size:13;" transform="matrix(1 0 0 1 263 1989)">For optimal layout with text and other symbols, vertically align</text>
  <text style="stroke:none;fill:black;font-family:sans-serif;font-size:13;" transform="matrix(1 0 0 1 263 2007)">symbols with the adjacent text.</text>
  <line style="fill:none;stroke:#00AEEF;stroke-width:0.5;opacity:1.0;" x1="776" x2="776" y1="1919" y2="1933"/>
  <g transform="matrix(1 0 0 1 776 1933)">
   <path d="M3.31055 0.15625Q3.70117 0.15625 3.91602-0.00976562Q4.13086-0.175781 4.26758-0.585938L5.52734-4.0332L11.2891-4.0332L12.5488-0.585938Q12.6855-0.175781 12.9004-0.00976562Q13.1152 0.15625 13.4961 0.15625Q13.8867 0.15625 14.1162-0.0585938Q14.3457-0.273438 14.3457-0.644531Q14.3457-0.869141 14.2383-1.17188L9.6582-13.3691Q9.48242-13.8184 9.17969-14.043Q8.87695-14.2676 8.4082-14.2676Q7.5-14.2676 7.17773-13.3789L2.59766-1.16211Q2.49023-0.859375 2.49023-0.634766Q2.49023-0.263672 2.70996-0.0537109Q2.92969 0.15625 3.31055 0.15625ZM6.00586-5.51758L8.37891-12.0898L8.42773-12.0898L10.8008-5.51758Z"/>
  </g>
  <line style="fill:none;stroke:#00AEEF;stroke-width:0.5;opacity:1.0;" x1="793.197" x2="793.197" y1="1919" y2="1933"/>
  <text style="stroke:none;fill:black;font-family:sans-serif;font-size:13;font-weight:bold;" transform="matrix(1 0 0 1 776 1953)">Margins</text>
  <text style="stroke:none;fill:black;font-family:sans-serif;font-size:13;" transform="matrix(1 0 0 1 776 1971)">Leading and trailing margins on the left and right side of each symbol</text>
  <text style="stroke:none;fill:black;font-family:sans-serif;font-size:13;" transform="matrix(1 0 0 1 776 1989)">can be adjusted by modifying the x-location of the margin guidelines.</text>
  <text style="stroke:none;fill:black;font-family:sans-serif;font-size:13;" transform="matrix(1 0 0 1 776 2007)">Modifications are automatically applied proportionally to all</text>
  <text style="stroke:none;fill:black;font-family:sans-serif;font-size:13;" transform="matrix(1 0 0 1 776 2025)">scales and weights.</text>
  <g transform="matrix(1 0 0 1 1289 1933)">
   <path d="M2.8418 1.86523L4.54102 3.57422Q5.18555 4.22852 5.90332 4.17969Q6.62109 4.13086 7.31445 3.35938L18.0078-8.42773L17.041-9.4043L6.42578 2.27539Q6.16211 2.57812 5.89355 2.61719Q5.625 2.65625 5.27344 2.30469L4.10156 1.14258Q3.75 0.791016 3.79395 0.522461Q3.83789 0.253906 4.14062-0.0195312L15.6152-10.8203L14.6387-11.7871L3.04688-0.898438Q2.30469-0.214844 2.25098 0.498047Q2.19727 1.21094 2.8418 1.86523ZM9.25781-16.3281Q8.94531-16.0254 8.90625-15.6348Q8.86719-15.2441 9.04297-14.9512Q9.21875-14.6777 9.55566-14.541Q9.89258-14.4043 10.3809-14.5215Q11.4746-14.7754 12.5977-14.7314Q13.7207-14.6875 14.7949-13.9844L14.209-12.5293Q13.9551-11.9043 14.0674-11.4404Q14.1797-10.9766 14.5801-10.5664L16.875-8.25195Q17.2363-7.88086 17.5781-7.82227Q17.9199-7.76367 18.3398-7.8418L19.4043-8.03711L20.0684-7.36328L20.0293-6.80664Q20-6.43555 20.1221-6.12305Q20.2441-5.81055 20.6055-5.44922L21.3672-4.70703Q21.7285-4.3457 22.1533-4.33105Q22.5781-4.31641 22.9297-4.66797L25.8398-7.58789Q26.1914-7.93945 26.1816-8.35449Q26.1719-8.76953 25.8105-9.13086L25.0391-9.89258Q24.6875-10.2539 24.3799-10.3857Q24.0723-10.5176 23.7109-10.4883L23.1348-10.4395L22.4902-11.0742L22.7344-12.1973Q22.832-12.6172 22.6953-12.9834Q22.5586-13.3496 22.1191-13.7891L19.9219-15.9766Q18.6719-17.2168 17.2607-17.8369Q15.8496-18.457 14.4189-18.4814Q12.9883-18.5059 11.665-17.959Q10.3418-17.4121 9.25781-16.3281ZM10.752-15.957Q11.6602-16.6211 12.7002-16.9043Q13.7402-17.1875 14.8047-17.085Q15.8691-16.9824 16.8701-16.5137Q17.8711-16.0449 18.7012-15.2051L21.1328-12.793Q21.3086-12.6172 21.3525-12.4512Q21.3965-12.2852 21.3379-12.0312L21.0156-10.5469L22.5195-9.0625L23.5059-9.12109Q23.6914-9.13086 23.7891-9.09668Q23.8867-9.0625 24.0332-8.91602L24.6094-8.33984L22.168-5.89844L21.5918-6.47461Q21.4453-6.62109 21.4062-6.71875Q21.3672-6.81641 21.377-7.01172L21.4453-7.98828L19.9512-9.47266L18.4277-9.21875Q18.1836-9.16992 18.042-9.2041Q17.9004-9.23828 17.7148-9.41406L15.7129-11.416Q15.5176-11.5918 15.4932-11.7529Q15.4688-11.9141 15.5859-12.1875L16.4648-14.2773Q15.293-15.3711 13.8281-15.791Q12.3633-16.2109 10.8398-15.7617Q10.7227-15.7324 10.6885-15.8057Q10.6543-15.8789 10.752-15.957Z"/>
  </g>
  <text style="stroke:none;fill:black;font-family:sans-serif;font-size:13;font-weight:bold;" transform="matrix(1 0 0 1 1289 1953)">Exporting</text>
  <text style="stroke:none;fill:black;font-family:sans-serif;font-size:13;" transform="matrix(1 0 0 1 1289 1971)">Symbols should be outlined when exporting to ensure the</text>
  <text style="stroke:none;fill:black;font-family:sans-serif;font-size:13;" transform="matrix(1 0 0 1 1289 1989)">design is preserved when submitting to Xcode.</text>
  <text id="template-version" style="stroke:none;fill:black;font-family:sans-serif;font-size:13;text-anchor:end;" transform="matrix(1 0 0 1 3036 1933)">Template v.3.0</text>
  <text style="stroke:none;fill:black;font-family:sans-serif;font-size:13;text-anchor:end;" transform="matrix(1 0 0 1 3036 1951)">Requires Xcode 13 or greater</text>
  <text id="descriptive-name" style="stroke:none;fill:black;font-family:sans-serif;font-size:13;text-anchor:end;" transform="matrix(1 0 0 1 3036 1969)">Generated from backward</text>
  <text style="stroke:none;fill:black;font-family:sans-serif;font-size:13;text-anchor:end;" transform="matrix(1 0 0 1 3036 1987)">Typeset at 100 points</text>
  <text style="stroke:none;fill:black;font-family:sans-serif;font-size:13;" transform="matrix(1 0 0 1 263 726)">Small</text>
  <text style="stroke:none;fill:black;font-family:sans-serif;font-size:13;" transform="matrix(1 0 0 1 263 1156)">Medium</text>
  <text style="stroke:none;fill:black;font-family:sans-serif;font-size:13;" transform="matrix(1 0 0 1 263 1586)">Large</text>
 </g>
 <g id="Guides">
  <g id="H-reference" style="fill:#27AAE1;stroke:none;" transform="matrix(1 0 0 1 339 696)">
   <path d="M0.993347 0L3.6377 0L29.3282-67.1326L30.0301-67.1326L30.0301-70.459L28.1227-70.459ZM11.6882-24.4797L46.9818-24.4797L46.2311-26.7288L12.4382-26.7288ZM55.1193 0L57.7637 0L30.6381-70.459L29.4327-70.459L29.4327-67.1326Z"/>
  </g>
  <line id="Baseline-S" style="fill:none;stroke:#27AAE1;opacity:1;stroke-width:0.5;" x1="263" x2="3036" y1="696" y2="696"/>
  <line id="Capline-S" style="fill:none;stroke:#27AAE1;opacity:1;stroke-width:0.5;" x1="263" x2="3036" y1="625.541" y2="625.541"/>
  <g id="H-reference" style="fill:#27AAE1;stroke:none;" transform="matrix(1 0 0 1 339 1126)">
   <path d="M0.993347 0L3.6377 0L29.3282-67.1326L30.0301-67.1326L30.0301-70.459L28.1227-70.459ZM11.6882-24.4797L46.9818-24.4797L46.2311-26.7288L12.4382-26.7288ZM55.1193 0L57.7637 0L30.6381-70.459L29.4327-70.459L29.4327-67.1326Z"/>
  </g>
  <line id="Baseline-M" style="fill:none;stroke:#27AAE1;opacity:1;stroke-width:0.5;" x1="263" x2="3036" y1="1126" y2="1126"/>
  <line id="Capline-M" style="fill:none;stroke:#27AAE1;opacity:1;stroke-width:0.5;" x1="263" x2="3036" y1="1055.54" y2="1055.54"/>
  <g id="H-reference" style="fill:#27AAE1;stroke:none;" transform="matrix(1 0 0 1 339 1556)">
   <path d="M0.993347 0L3.6377 0L29.3282-67.1326L30.0301-67.1326L30.0301-70.459L28.1227-70.459ZM11.6882-24.4797L46.9818-24.4797L46.2311-26.7288L12.4382-26.7288ZM55.1193 0L57.7637 0L30.6381-70.459L29.4327-70.459L29.4327-67.1326Z"/>
  </g>
  <line id="Baseline-L" style="fill:none;stroke:#27AAE1;opacity:1;stroke-width:0.5;" x1="263" x2="3036" y1="1556" y2="1556"/>
  <line id="Capline-L" style="fill:none;stroke:#27AAE1;opacity:1;stroke-width:0.5;" x1="263" x2="3036" y1="1485.54" y2="1485.54"/>
  <line id="left-margin-Regular-M" style="fill:none;stroke:#00AEEF;stroke-width:0.5;opacity:1.0;" x1="1375.78" x2="1375.78" y1="1030.79" y2="1150.12"/>
  <line id="right-margin-Regular-M" style="fill:none;stroke:#00AEEF;stroke-width:0.5;opacity:1.0;" x1="1523.91" x2="1523.91" y1="1030.79" y2="1150.12"/>
 </g>
 <g id="Symbols">
  <g id="Black-L" transform="matrix(1 0 0 1 2826.02 1556)">
   <path d="M86.6716 18.5874Q92.2433 18.5874 96.2708 14.6077Q100.298 10.628 100.298 3.41153L100.298-75.2843Q100.298-82.5799 96.3292-86.5304Q92.3601-90.4809 86.7884-90.4809Q84.1838-90.4809 81.7501-89.8388Q79.3164-89.1966 76.8309-87.7663L11.2342-49.4717Q6.86752-46.9107 4.23796-43.8027Q1.6084-40.6947 1.6084-36.0642Q1.6084-31.4336 4.32616-28.1492Q7.04392-24.8649 11.2342-22.401L76.8309 15.8727Q79.2567 17.3239 81.6911 17.9556Q84.1254 18.5874 86.6716 18.5874ZM79.9763-4.90835Q79.7875-4.90835 79.5766-4.97177Q79.3657-5.03519 79.1501-5.16562L27.4479-35.2155Q26.9853-35.5168 26.9853-36.0058Q26.9853-36.4923 27.4479-36.7364L79.1501-66.7279Q79.3669-66.9168 79.5772-66.9504Q79.7875-66.984 79.9179-66.984Q80.274-66.984 80.4428-66.7902Q80.6116-66.5963 80.6116-66.2574L80.6116-5.6361Q80.6116-5.29725 80.4428-5.1028Q80.274-4.90835 79.9763-4.90835ZM185.039 18.5874Q190.61 18.5874 194.648 14.6077Q198.686 10.628 198.686 3.41153L198.686-75.2843Q198.686-82.5799 194.707-86.5304Q190.727-90.4809 185.155-90.4809Q182.552-90.4809 180.118-89.8388Q177.683-89.1966 175.199-87.7663L109.623-49.4717Q105.236-46.9107 102.606-43.8027Q99.9766-40.6947 99.9766-36.0642Q99.9766-31.4336 102.694-28.1492Q105.411-24.8649 109.623-22.401L175.199 15.8727Q177.625 17.3239 180.059 17.9556Q182.494 18.5874 185.039 18.5874ZM178.343-4.90835Q178.156-4.90835 177.945-4.97177Q177.734-5.03519 177.518-5.16562L125.816-35.2155Q125.374-35.5168 125.374-36.0058Q125.374-36.4923 125.816-36.7364L177.518-66.7279Q177.735-66.9168 177.945-66.9504Q178.156-66.984 178.285-66.984Q178.641-66.984 178.821-66.7902Q179.001-66.5963 179.001-66.2574L179.001-5.6361Q179.001-5.29725 178.821-5.1028Q178.641-4.90835 178.343-4.90835Z"/>
  </g>
  <g id="Heavy-L" transform="matrix(1 0 0 1 2532.24 1556)">
   <path d="M84.881 17.4997Q89.9834 17.4997 93.6706 13.8275Q97.3578 10.1553 97.3578 3.43572L97.3578-74.9275Q97.3578-81.7218 93.7152-85.3718Q90.0726-89.0217 84.9702-89.0217Q82.5339-89.0217 80.2852-88.384Q78.0365-87.7462 75.7005-86.4063L10.3881-48.206Q6.31056-45.8121 3.95948-42.9102Q1.6084-40.0082 1.6084-35.853Q1.6084-31.6978 4.0292-28.6564Q6.44999-25.6149 10.3881-23.2858L75.7005 14.8844Q77.9862 16.2545 80.2377 16.8771Q82.4893 17.4997 84.881 17.4997ZM79.1756-3.00961Q78.9509-3.00961 78.6904-3.09123Q78.4299-3.17285 78.147-3.35296L24.3827-34.7595Q23.6835-35.1744 23.6835-35.8083Q23.6835-36.4311 24.3827-36.807L78.147-68.169Q78.4355-68.3936 78.6932-68.4502Q78.9509-68.5067 79.131-68.5067Q79.5737-68.5067 79.8327-68.245Q80.0917-67.9833 80.0917-67.4596L80.0917-4.06229Q80.0917-3.53864 79.8327-3.27413Q79.5737-3.00961 79.1756-3.00961ZM180.303 17.4997Q185.405 17.4997 189.108 13.8275Q192.81 10.1553 192.81 3.43572L192.81-74.9275Q192.81-81.7218 189.152-85.3718Q185.495-89.0217 180.392-89.0217Q177.962-89.0217 175.71-88.384Q173.459-87.7462 171.128-86.4063L105.846-48.206Q101.738-45.8121 99.3872-42.9102Q97.0361-40.0082 97.0361-35.853Q97.0361-31.6978 99.4541-28.6564Q101.872-25.6149 105.846-23.2858L171.128 14.8844Q173.414 16.2545 175.665 16.8771Q177.917 17.4997 180.303 17.4997ZM174.598-3.00961Q174.379-3.00961 174.118-3.09123Q173.858-3.17285 173.575-3.35296L119.81-34.7595Q119.141-35.1744 119.141-35.8083Q119.141-36.4311 119.81-36.807L173.575-68.169Q173.863-68.3936 174.121-68.4502Q174.379-68.5067 174.553-68.5067Q174.996-68.5067 175.273-68.245Q175.55-67.9833 175.55-67.4596L175.55-4.06229Q175.55-3.53864 175.273-3.27413Q174.996-3.00961 174.598-3.00961Z"/>
  </g>
  <g id="Bold-L" transform="matrix(1 0 0 1 2239.1 1556)">
   <path d="M82.72 16.1251Q87.2385 16.1251 90.5143 12.837Q93.7901 9.54894 93.7901 3.44404L93.7901-74.5042Q93.7901-80.6762 90.5435-83.9498Q87.2969-87.2234 82.7784-87.2234Q80.5571-87.2234 78.5314-86.5933Q76.5057-85.9631 74.3691-84.7458L9.31322-46.616Q5.63401-44.4521 3.6212-41.8261Q1.6084-39.2 1.6084-35.614Q1.6084-32.0282 3.67157-29.3013Q5.73474-26.5744 9.31322-24.4441L74.3691 13.6478Q76.4631 14.903 78.4955 15.514Q80.5279 16.1251 82.72 16.1251ZM78.229-0.69555Q77.951-0.69555 77.6214-0.800203Q77.2919-0.904855 76.9097-1.15395L20.6167-34.1984Q19.618-34.7592 19.618-35.5848Q19.618-36.3841 20.6167-36.9289L76.9097-69.9443Q77.3053-70.2224 77.6281-70.3059Q77.951-70.3894 78.1998-70.3894Q78.7501-70.3894 79.1355-70.0358Q79.5208-69.6821 79.5208-68.898L79.5208-2.20003Q79.5208-1.41616 79.1355-1.05585Q78.7501-0.69555 78.229-0.69555ZM174.567 16.1251Q179.085 16.1251 182.38 12.837Q185.675 9.54894 185.675 3.44404L185.675-74.5042Q185.675-80.6762 182.409-83.9498Q179.144-87.2234 174.625-87.2234Q172.417-87.2234 170.385-86.5933Q168.352-85.9631 166.229-84.7458L101.211-46.616Q97.4941-44.4521 95.4813-41.8261Q93.4685-39.2 93.4685-35.614Q93.4685-32.0282 95.5251-29.3013Q97.5817-26.5744 101.211-24.4441L166.229 13.6478Q168.323 14.903 170.356 15.514Q172.388 16.1251 174.567 16.1251ZM170.076-0.69555Q169.811-0.69555 169.482-0.800203Q169.152-0.904855 168.77-1.15395L112.477-34.1984Q111.516-34.7592 111.516-35.5848Q111.516-36.3841 112.477-36.9289L168.77-69.9443Q169.165-70.2224 169.488-70.3059Q169.811-70.3894 170.047-70.3894Q170.597-70.3894 171.008-70.0358Q171.419-69.6821 171.419-68.898L171.419-2.20003Q171.419-1.41616 171.008-1.05585Q170.597-0.69555 170.076-0.69555Z"/>
  </g>
  <g id="Semibold-L" transform="matrix(1 0 0 1 1944.85 1556)">
   <path d="M81.2302 15.1775Q85.3462 15.1775 88.3384 12.1542Q91.3306 9.13091 91.3306 3.44976L91.3306-74.2124Q91.3306-79.9554 88.357-82.9695Q85.3834-85.9837 81.2674-85.9837Q79.1943-85.9837 77.3224-85.3588Q75.4504-84.7339 73.4512-83.6011L8.57218-45.52Q5.1676-43.5145 3.388-41.0787Q1.6084-38.6429 1.6084-35.4493Q1.6084-32.2559 3.42502-29.7459Q5.24164-27.2359 8.57218-25.2427L73.4512 12.7952Q75.4132 13.9712 77.2945 14.5744Q79.1758 15.1775 81.2302 15.1775ZM77.5765 0.899748Q77.2616 0.899748 76.8845 0.779216Q76.5075 0.658684 76.0568 0.362039L18.0204-33.8116Q16.8152-34.473 16.8152-35.4307Q16.8152-36.3517 18.0204-37.0129L76.0568-71.1682Q76.5261-71.4831 76.8938-71.5852Q77.2616-71.6873 77.5579-71.6873Q78.1823-71.6873 78.6548-71.2703Q79.1273-70.8533 79.1273-69.8897L79.1273-0.916199Q79.1273 0.047074 78.6548 0.473411Q78.1823 0.899748 77.5765 0.899748ZM170.612 15.1775Q174.728 15.1775 177.742 12.1542Q180.756 9.13091 180.756 3.44976L180.756-74.2124Q180.756-79.9554 177.761-82.9695Q174.765-85.9837 170.65-85.9837Q168.595-85.9837 166.714-85.3588Q164.832-84.7339 162.852-83.6011L98.0162-45.52Q94.5681-43.5145 92.7885-41.0787Q91.0089-38.6429 91.0089-35.4493Q91.0089-32.2559 92.8164-29.7459Q94.6239-27.2359 98.0162-25.2427L162.852 12.7952Q164.814 13.9712 166.695 14.5744Q168.576 15.1775 170.612 15.1775ZM166.959 0.899748Q166.662 0.899748 166.285 0.779216Q165.908 0.658684 165.457 0.362039L107.421-33.8116Q106.259-34.473 106.259-35.4307Q106.259-36.3517 107.421-37.0129L165.457-71.1682Q165.927-71.4831 166.294-71.5852Q166.662-71.6873 166.94-71.6873Q167.565-71.6873 168.068-71.2703Q168.571-70.8533 168.571-69.8897L168.571-0.916199Q168.571 0.047074 168.068 0.473411Q167.565 0.899748 166.959 0.899748Z"/>
  </g>
  <g id="Medium-L" transform="matrix(1 0 0 1 1650 1556)">
   <path d="M80.1006 14.4589Q83.9114 14.4589 86.6886 11.6364Q89.4657 8.81394 89.4657 3.45411L89.4657-73.9912Q89.4657-79.4088 86.6991-82.2262Q83.9324-85.0437 80.1216-85.0437Q78.161-85.0437 76.4056-84.4227Q74.6502-83.8018 72.7552-82.7331L8.01028-44.6889Q4.81395-42.8036 3.21117-40.512Q1.6084-38.2205 1.6084-35.3243Q1.6084-32.4286 3.23808-30.083Q4.86776-27.7375 8.01028-25.8482L72.7552 12.1488Q74.617 13.2648 76.3838 13.8618Q78.1505 14.4589 80.1006 14.4589ZM77.0817 2.10937Q76.7389 2.10937 76.3257 1.9768Q75.9126 1.84423 75.4101 1.51152L16.0518-33.5183Q14.6901-34.256 14.6901-35.3138Q14.6901-36.3271 16.0518-37.0766L75.4101-72.0963Q75.9353-72.4391 76.3371-72.5553Q76.7389-72.6715 77.0712-72.6715Q77.7518-72.6715 78.2903-72.2064Q78.8288-71.7413 78.8288-70.6416L78.8288 0.0572545Q78.8288 1.15656 78.2903 1.63296Q77.7518 2.10937 77.0817 2.10937ZM167.614 14.4589Q171.424 14.4589 174.225 11.6364Q177.026 8.81394 177.026 3.45411L177.026-73.9912Q177.026-79.4088 174.236-82.2262Q171.445-85.0437 167.635-85.0437Q165.697-85.0437 163.93-84.4227Q162.163-83.8018 160.291-82.7331L95.5935-44.6889Q92.3496-42.8036 90.7468-40.512Q89.144-38.2205 89.144-35.3243Q89.144-32.4286 90.7626-30.083Q92.3811-27.7375 95.5935-25.8482L160.291 12.1488Q162.153 13.2648 163.919 13.8618Q165.686 14.4589 167.614 14.4589ZM164.595 2.10937Q164.274 2.10937 163.861 1.9768Q163.448 1.84423 162.946 1.51152L103.587-33.5183Q102.273-34.256 102.273-35.3138Q102.273-36.3271 103.587-37.0766L162.946-72.0963Q163.471-72.4391 163.873-72.5553Q164.274-72.6715 164.585-72.6715Q165.265-72.6715 165.839-72.2064Q166.412-71.7413 166.412-70.6416L166.412 0.0572545Q166.412 1.15656 165.839 1.63296Q165.265 2.10937 164.595 2.10937Z"/>
  </g>
  <g id="Regular-L" transform="matrix(1 0 0 1 1355.72 1556)">
   <path d="M78.6272 13.5217Q82.0399 13.5217 84.5366 10.9611Q87.0332 8.4005 87.0332 3.45977L87.0332-73.7026Q87.0332-78.6959 84.5366-81.2567Q82.0399-83.8175 78.6272-83.8175Q76.8132-83.8175 75.2098-83.2018Q73.6065-82.5861 71.8473-81.601L7.27738-43.6048Q4.35266-41.8763 2.98053-39.7729Q1.6084-37.6695 1.6084-35.1614Q1.6084-32.6538 2.99424-30.5227Q4.38008-28.3917 7.27738-26.638L71.8473 11.3056Q73.5786 12.3433 75.1959 12.9325Q76.8132 13.5217 78.6272 13.5217ZM76.4363 3.68714Q76.0571 3.68714 75.5969 3.53886Q75.1368 3.39058 74.5665 3.01085L13.4841-33.1358Q11.9181-33.9729 11.9181-35.1614Q11.9181-36.2951 13.4841-37.1596L74.5665-73.3067Q75.1646-73.686 75.6109-73.8205Q76.0571-73.9551 76.4363-73.9551Q77.1903-73.9551 77.8149-73.4273Q78.4396-72.8996 78.4396-71.6224L78.4396 1.32698Q78.4396 2.60371 77.8149 3.14542Q77.1903 3.68714 76.4363 3.68714ZM163.703 13.5217Q167.115 13.5217 169.638 10.9611Q172.161 8.4005 172.161 3.45977L172.161-73.7026Q172.161-78.6959 169.638-81.2567Q167.115-83.8175 163.703-83.8175Q161.916-83.8175 160.299-83.2018Q158.682-82.5861 156.95-81.601L92.4335-43.6048Q89.4558-41.8763 88.0836-39.7729Q86.7115-37.6695 86.7115-35.1614Q86.7115-32.6538 88.0836-30.5227Q89.4558-28.3917 92.4335-26.638L156.95 11.3056Q158.682 12.3433 160.299 12.9325Q161.916 13.5217 163.703 13.5217ZM161.512 3.68714Q161.16 3.68714 160.7 3.53886Q160.24 3.39058 159.67 3.01085L98.5872-33.1358Q97.0738-33.9729 97.0738-35.1614Q97.0738-36.2951 98.5872-37.1596L159.67-73.3067Q160.268-73.686 160.714-73.8205Q161.16-73.9551 161.512-73.9551Q162.266-73.9551 162.931-73.4273Q163.596-72.8996 163.596-71.6224L163.596 1.32698Q163.596 2.60371 162.931 3.14542Q162.266 3.68714 161.512 3.68714Z"/>
  </g>
  <g id="Light-L" transform="matrix(1 0 0 1 1061.01 1556)">
   <path d="M77.501 12.3955Q80.494 12.3955 82.7712 10.1213Q85.0483 7.84705 85.0483 3.32606L85.0483-73.5308Q85.0483-78.085 82.7712-80.3597Q80.494-82.6343 77.501-82.6343Q75.8782-82.6343 74.3893-82.0377Q72.9004-81.4411 71.3702-80.6086L6.36127-42.3642Q3.97108-40.9413 2.78974-39.1622Q1.6084-37.3831 1.6084-35.1422Q1.6084-32.902 2.81291-31.0762Q4.01742-29.2504 6.36127-27.8405L71.3702 10.3706Q72.8533 11.2364 74.3657 11.816Q75.8782 12.3955 77.501 12.3955ZM76.0737 5.04223Q75.5992 5.04223 75.0435 4.87487Q74.4878 4.70752 73.7459 4.23223L11.0795-32.7731Q9.26534-33.7439 9.26534-35.1422Q9.26534-36.4477 11.0795-37.4649L73.7459-74.471Q74.5349-74.9455 75.067-75.0897Q75.5992-75.2339 76.0737-75.2339Q76.9039-75.2339 77.7099-74.5916Q78.5159-73.9494 78.5159-72.2903L78.5159 2.0523Q78.5159 3.71061 77.7099 4.37642Q76.9039 5.04223 76.0737 5.04223ZM160.573 12.3955Q163.565 12.3955 165.859 10.1213Q168.154 7.84705 168.154 3.32606L168.154-73.5308Q168.154-78.085 165.859-80.3597Q163.565-82.6343 160.573-82.6343Q158.996-82.6343 157.484-82.0377Q155.972-81.4411 154.488-80.6086L89.5136-42.3642Q87.0893-40.9413 85.908-39.1622Q84.7267-37.3831 84.7267-35.1422Q84.7267-32.902 85.908-31.0762Q87.0893-29.2504 89.5136-27.8405L154.488 10.3706Q155.972 11.2364 157.484 11.816Q158.996 12.3955 160.573 12.3955ZM159.146 5.04223Q158.717 5.04223 158.162 4.87487Q157.606 4.70752 156.864 4.23223L94.1977-32.7731Q92.4169-33.7439 92.4169-35.1422Q92.4169-36.4477 94.1977-37.4649L156.864-74.471Q157.653-74.9455 158.185-75.0897Q158.717-75.2339 159.146-75.2339Q159.976-75.2339 160.822-74.5916Q161.668-73.9494 161.668-72.2903L161.668 2.0523Q161.668 3.71061 160.822 4.37642Q159.976 5.04223 159.146 5.04223Z"/>
  </g>
  <g id="Thin-L" transform="matrix(1 0 0 1 766.954 1556)">
   <path d="M76.0116 10.9061Q78.4495 10.9061 80.4363 9.0106Q82.4232 7.11507 82.4232 3.14921L82.4232-73.3034Q82.4232-77.2771 80.4363-79.1733Q78.4495-81.0694 76.0116-81.0694Q74.6415-81.0694 73.304-80.498Q71.9666-79.9266 70.7392-79.296L5.14964-40.7234Q3.46641-39.7046 2.53741-38.3545Q1.6084-37.0044 1.6084-35.1167Q1.6084-33.2303 2.57308-31.8082Q3.53777-30.3861 5.14964-29.4308L70.7392 9.13392Q71.894 9.77239 73.2678 10.3393Q74.6415 10.9061 76.0116 10.9061ZM75.594 6.83445Q74.9936 6.83445 74.3115 6.64186Q73.6294 6.44927 72.6607 5.8476L7.89921-32.2935Q5.75682-33.4411 5.75682-35.1167Q5.75682-36.6496 7.89921-37.8686L72.6607-76.0109Q73.702-76.6113 74.3478-76.7683Q74.9936-76.9252 75.594-76.9252Q76.5252-76.9252 77.571-76.1315Q78.6168-75.3379 78.6168-73.1737L78.6168 3.0116Q78.6168 5.17458 77.571 6.00451Q76.5252 6.83445 75.594 6.83445ZM156.433 10.9061Q158.87 10.9061 160.861 9.0106Q162.853 7.11507 162.853 3.14921L162.853-73.3034Q162.853-77.2771 160.861-79.1733Q158.87-81.0694 156.433-81.0694Q155.135-81.0694 153.761-80.498Q152.387-79.9266 151.232-79.296L85.6518-40.7234Q83.9595-39.7046 83.0305-38.3545Q82.1015-37.0044 82.1015-35.1167Q82.1015-33.2303 83.0305-31.8082Q83.9595-30.3861 85.6518-29.4308L151.232 9.13392Q152.387 9.77239 153.761 10.3393Q155.135 10.9061 156.433 10.9061ZM156.016 6.83445Q155.487 6.83445 154.805 6.64186Q154.123 6.44927 153.154 5.8476L88.3923-32.2935Q86.2578-33.4411 86.2578-35.1167Q86.2578-36.6496 88.3923-37.8686L153.154-76.0109Q154.195-76.6113 154.841-76.7683Q155.487-76.9252 156.016-76.9252Q156.947-76.9252 158.033-76.1315Q159.119-75.3379 159.119-73.1737L159.119 3.0116Q159.119 5.17458 158.033 6.00451Q156.947 6.83445 156.016 6.83445Z"/>
  </g>
  <g id="Ultralight-L" transform="matrix(1 0 0 1 471.6 1556)">
   <path d="M75.2487 10.1433Q77.4023 10.1433 79.2404 8.4417Q81.0786 6.74015 81.0786 3.05863L81.0786-73.187Q81.0786-76.8633 79.2404-78.5656Q77.4023-80.2679 75.2487-80.2679Q74.0081-80.2679 72.7482-79.7094Q71.4882-79.1509 70.4159-78.6237L4.52904-39.883Q3.20792-39.0712 2.40816-37.9408Q1.6084-36.8104 1.6084-35.1037Q1.6084-33.3984 2.45025-32.1831Q3.29209-30.9678 4.52904-30.2454L70.4159 8.50051Q71.4026 9.02255 72.7054 9.5829Q74.0081 10.1433 75.2487 10.1433ZM75.3483 7.75241Q74.6834 7.75241 73.9366 7.5469Q73.1897 7.34138 72.1048 6.67499L6.27029-32.0478Q3.95977-33.286 3.95977-35.1037Q3.95977-36.753 6.27029-38.0754L72.1048-76.7996Q73.2753-77.4646 73.9794-77.628Q74.6834-77.7914 75.3483-77.7914Q76.3312-77.7914 77.4999-76.9202Q78.6685-76.049 78.6685-73.6261L78.6685 3.50295Q78.6685 5.92442 77.4999 6.83841Q76.3312 7.75241 75.3483 7.75241ZM154.313 10.1433Q156.465 10.1433 158.302 8.4417Q160.138 6.74015 160.138 3.05863L160.138-73.187Q160.138-76.8633 158.302-78.5656Q156.465-80.2679 154.313-80.2679Q153.157-80.2679 151.854-79.7094Q150.551-79.1509 149.564-78.6237L83.6738-39.883Q82.3565-39.0712 81.5567-37.9408Q80.7569-36.8104 80.7569-35.1037Q80.7569-33.3984 81.5567-32.1831Q82.3565-30.9678 83.6738-30.2454L149.564 8.50051Q150.551 9.02255 151.854 9.5829Q153.157 10.1433 154.313 10.1433ZM154.413 7.75241Q153.832 7.75241 153.085 7.5469Q152.338 7.34138 151.253 6.67499L85.4188-32.0478Q83.1031-33.286 83.1031-35.1037Q83.1031-36.753 85.4188-38.0754L151.253-76.7996Q152.424-77.4646 153.128-77.628Q153.832-77.7914 154.413-77.7914Q155.396-77.7914 156.604-76.9202Q157.813-76.049 157.813-73.6261L157.813 3.50295Q157.813 5.92442 156.604 6.83841Q155.396 7.75241 154.413 7.75241Z"/>
  </g>
  <g id="Black-M" transform="matrix(1 0 0 1 2847.95 1126)">
   <path d="M68.5345 7.24688Q73.1975 7.24688 76.5805 3.93817Q79.9634 0.629465 79.9634-5.33158L79.9634-66.545Q79.9634-72.5686 76.6376-75.8488Q73.3117-79.1289 68.6487-79.1289Q66.512-79.1289 64.483-78.6302Q62.454-78.1315 60.431-76.9662L9.30662-47.1833Q5.74752-45.0968 3.49681-42.5559Q1.24609-40.0149 1.24609-36.0551Q1.24609-32.0952 3.58231-29.3833Q5.91853-26.6713 9.30662-24.6933L60.431 5.08421Q62.3972 6.25493 64.4261 6.7509Q66.4549 7.24688 68.5345 7.24688ZM62.6-13.1867Q62.4716-13.1867 62.338-13.2227Q62.2044-13.2588 62.0719-13.3301L23.5735-35.5615Q23.3849-35.7154 23.3849-35.998Q23.3849-36.2811 23.5735-36.3776L62.0719-58.5519Q62.2041-58.6803 62.3378-58.688Q62.4716-58.6956 62.5429-58.6956Q62.7547-58.6956 62.8325-58.5883Q62.9104-58.4809 62.9104-58.3255L62.9104-13.5566Q62.9104-13.4011 62.8325-13.2939Q62.7547-13.1867 62.6-13.1867ZM147.003 7.24688Q151.666 7.24688 155.052 3.93817Q158.437 0.629465 158.437-5.33158L158.437-66.545Q158.437-72.5686 155.109-75.8488Q151.78-79.1289 147.117-79.1289Q144.98-79.1289 142.951-78.6302Q140.922-78.1315 138.899-76.9662L87.7802-47.1833Q84.2156-45.0968 81.9649-42.5559Q79.7142-40.0149 79.7142-36.0551Q79.7142-32.0952 82.0506-29.3833Q84.3869-26.6713 87.7802-24.6933L138.899 5.08421Q140.865 6.25493 142.894 6.7509Q144.923 7.24688 147.003 7.24688ZM141.068-13.1867Q140.94-13.1867 140.806-13.2227Q140.672-13.2588 140.54-13.3301L102.042-35.5615Q101.858-35.7154 101.858-35.998Q101.858-36.2811 102.042-36.3776L140.54-58.5519Q140.672-58.6803 140.806-58.688Q140.94-58.6956 141.011-58.6956Q141.223-58.6956 141.304-58.5883Q141.384-58.4809 141.384-58.3255L141.384-13.5566Q141.384-13.4011 141.304-13.2939Q141.223-13.1867 141.068-13.1867Z"/>
  </g>
  <g id="Heavy-M" transform="matrix(1 0 0 1 2553.93 1126)">
   <path d="M66.8879 6.28752Q71.1309 6.28752 74.2015 3.25299Q77.2721 0.218451 77.2721-5.29559L77.2721-66.212Q77.2721-71.7861 74.2451-74.7988Q71.2182-77.8116 66.9752-77.8116Q64.9854-77.8116 63.1267-77.3154Q61.268-76.8192 59.37-75.7284L8.56405-46.0604Q5.23826-44.1092 3.24218-41.7397Q1.24609-39.3702 1.24609-35.8504Q1.24609-32.3306 3.30874-29.828Q5.37138-27.3253 8.56405-25.4472L59.37 4.20436Q61.2221 5.31162 63.0819 5.79957Q64.9418 6.28752 66.8879 6.28752ZM61.8507-11.4555Q61.6961-11.4555 61.5227-11.5076Q61.3493-11.5597 61.1669-11.6708L20.7989-35.1491Q20.4019-35.4018 20.4019-35.8068Q20.4019-36.2072 20.7989-36.4185L61.1669-59.8532Q61.3516-60.0079 61.5239-60.037Q61.6961-60.0662 61.8071-60.0662Q62.0965-60.0662 62.2458-59.9031Q62.3951-59.7399 62.3951-59.439L62.3951-12.085Q62.3951-11.7841 62.2458-11.6198Q62.0965-11.4555 61.8507-11.4555ZM142.662 6.28752Q146.905 6.28752 149.984 3.25299Q153.063 0.218451 153.063-5.29559L153.063-66.212Q153.063-71.7861 150.028-74.7988Q146.993-77.8116 142.75-77.8116Q140.762-77.8116 138.902-77.3154Q137.042-76.8192 135.147-75.7284L84.3572-46.0604Q81.015-44.1092 79.0189-41.7397Q77.0228-39.3702 77.0228-35.8504Q77.0228-32.3306 79.0844-29.828Q81.1459-27.3253 84.3572-25.4472L135.147 4.20436Q136.999 5.31162 138.859 5.79957Q140.719 6.28752 142.662 6.28752ZM137.625-11.4555Q137.473-11.4555 137.299-11.5076Q137.126-11.5597 136.944-11.6708L96.5757-35.1491Q96.195-35.4018 96.195-35.8068Q96.195-36.2072 96.5757-36.4185L136.944-59.8532Q137.128-60.0079 137.301-60.037Q137.473-60.0662 137.582-60.0662Q137.871-60.0662 138.03-59.9031Q138.188-59.7399 138.188-59.439L138.188-12.085Q138.188-11.7841 138.03-11.6198Q137.871-11.4555 137.625-11.4555Z"/>
  </g>
  <g id="Bold-M" transform="matrix(1 0 0 1 2260.22 1126)">
   <path d="M65.046 5.21435Q68.8191 5.21435 71.5402 2.48651Q74.2614-0.241328 74.2614-5.25534L74.2614-65.8396Q74.2614-70.9107 71.5688-73.6243Q68.8762-76.3379 65.1031-76.3379Q63.2776-76.3379 61.6094-75.8446Q59.9412-75.3513 58.183-74.3436L7.73338-44.8042Q4.66858-43.0044 2.95734-40.8267Q1.24609-38.6489 1.24609-35.6214Q1.24609-32.5939 3.0027-30.3254Q4.75931-28.0569 7.73338-26.2907L58.183 3.22012Q59.9075 4.25641 61.5783 4.73538Q63.2491 5.21435 65.046 5.21435ZM61.0125-9.51901Q60.8285-9.51901 60.6107-9.58905Q60.3929-9.65909 60.1546-9.81461L17.6952-34.6878Q17.065-35.0509 17.065-35.5928Q17.065-36.1246 17.6952-36.4642L60.1546-61.309Q60.3981-61.493 60.6133-61.5462Q60.8285-61.5994 60.984-61.5994Q61.3602-61.5994 61.5894-61.3739Q61.8187-61.1484 61.8187-60.6847L61.8187-10.4388Q61.8187-9.97522 61.5894-9.74711Q61.3602-9.51901 61.0125-9.51901ZM137.807 5.21435Q141.58 5.21435 144.315 2.48651Q147.051-0.241328 147.051-5.25534L147.051-65.8396Q147.051-70.9107 144.344-73.6243Q141.637-76.3379 137.864-76.3379Q136.044-76.3379 134.373-75.8446Q132.702-75.3513 130.949-74.3436L80.5281-44.8042Q77.4346-43.0044 75.7234-40.8267Q74.0122-38.6489 74.0122-35.6214Q74.0122-32.5939 75.7662-30.3254Q77.5203-28.0569 80.5281-26.2907L130.949 3.22012Q132.674 4.25641 134.344 4.73538Q136.015 5.21435 137.807 5.21435ZM133.774-9.51901Q133.595-9.51901 133.377-9.58905Q133.159-9.65909 132.921-9.81461L90.4613-34.6878Q89.8597-35.0509 89.8597-35.5928Q89.8597-36.1246 90.4613-36.4642L132.921-61.309Q133.164-61.493 133.379-61.5462Q133.595-61.5994 133.745-61.5994Q134.121-61.5994 134.367-61.3739Q134.613-61.1484 134.613-60.6847L134.613-10.4388Q134.613-9.97522 134.367-9.74711Q134.121-9.51901 133.774-9.51901Z"/>
  </g>
  <g id="Semibold-M" transform="matrix(1 0 0 1 1965.58 1126)">
   <path d="M63.7762 4.47451Q67.2254 4.47451 69.7056 1.95811Q72.1858-0.558296 72.1858-5.22759L72.1858-65.5828Q72.1858-70.3072 69.7238-72.8146Q67.2617-75.322 63.8125-75.322Q62.1003-75.322 60.5634-74.8307Q59.0266-74.3393 57.3648-73.389L7.16072-43.9383Q4.27584-42.2427 2.76097-40.1972Q1.24609-38.1517 1.24609-35.4635Q1.24609-32.7754 2.79172-30.6684Q4.33736-28.5613 7.16072-26.8721L57.3648 2.54159Q59.0012 3.52895 60.5417 4.00173Q62.0822 4.47451 63.7762 4.47451ZM60.4347-8.18398Q60.2305-8.18398 59.982-8.26638Q59.7335-8.34878 59.4567-8.53496L15.5555-34.3698Q14.7646-34.809 14.7646-35.4454Q14.7646-36.0676 15.5555-36.4958L59.4567-62.3125Q59.7407-62.5168 59.9856-62.5866Q60.2305-62.6564 60.4165-62.6564Q60.8526-62.6564 61.137-62.3878Q61.4213-62.1193 61.4213-61.5435L61.4213-9.3039Q61.4213-8.72818 61.137-8.45608Q60.8526-8.18398 60.4347-8.18398ZM134.46 4.47451Q137.909 4.47451 140.408 1.95811Q142.906-0.558296 142.906-5.22759L142.906-65.5828Q142.906-70.3072 140.426-72.8146Q137.945-75.322 134.496-75.322Q132.791-75.322 131.25-74.8307Q129.71-74.3393 128.055-73.389L77.8884-43.9383Q74.9664-42.2427 73.4515-40.1972Q71.9366-38.1517 71.9366-35.4635Q71.9366-32.7754 73.4787-30.6684Q75.0208-28.5613 77.8884-26.8721L128.055 2.54159Q129.692 3.52895 131.232 4.00173Q132.773 4.47451 134.46 4.47451ZM131.118-8.18398Q130.921-8.18398 130.673-8.26638Q130.424-8.34878 130.147-8.53496L86.246-34.3698Q85.4921-34.809 85.4921-35.4454Q85.4921-36.0676 86.246-36.4958L130.147-62.3125Q130.431-62.5168 130.676-62.5866Q130.921-62.6564 131.1-62.6564Q131.536-62.6564 131.843-62.3878Q132.149-62.1193 132.149-61.5435L132.149-9.3039Q132.149-8.72818 131.843-8.45608Q131.536-8.18398 131.118-8.18398Z"/>
  </g>
  <g id="Medium-M" transform="matrix(1 0 0 1 1670.44 1126)">
   <path d="M62.8134 3.91353Q66.0169 3.91353 68.3145 1.55745Q70.6121-0.798635 70.6121-5.20654L70.6121-65.3881Q70.6121-69.8497 68.3248-72.2007Q66.0375-74.5517 62.8339-74.5517Q61.2076-74.5517 59.7703-74.0619Q58.333-73.572 56.7443-72.6651L6.72651-43.2816Q3.97805-41.6652 2.61207-39.72Q1.24609-37.7747 1.24609-35.3438Q1.24609-32.9131 2.63175-30.9284Q4.01741-28.9438 6.72651-27.313L56.7443 2.0271Q58.3141 2.97735 59.7557 3.44544Q61.1973 3.91353 62.8134 3.91353ZM59.9966-7.1717Q59.777-7.1717 59.5053-7.26348Q59.2336-7.35526 58.9276-7.56468L13.9331-34.1286Q13.0203-34.6256 13.0203-35.3336Q13.0203-36.0244 13.9331-36.5197L58.9276-63.0735Q59.2422-63.293 59.5096-63.3754Q59.777-63.4578 59.9863-63.4578Q60.4677-63.4578 60.7939-63.1567Q61.12-62.8555 61.12-62.1946L61.12-8.44339Q61.12-7.78263 60.7939-7.47717Q60.4677-7.1717 59.9966-7.1717ZM131.922 3.91353Q135.125 3.91353 137.444 1.55745Q139.764-0.798635 139.764-5.20654L139.764-65.3881Q139.764-69.8497 137.455-72.2007Q135.146-74.5517 131.942-74.5517Q130.324-74.5517 128.883-74.0619Q127.441-73.572 125.861-72.6651L75.8868-43.2816Q73.0948-41.6652 71.7288-39.72Q70.3629-37.7747 70.3629-35.3438Q70.3629-32.9131 71.7443-30.9284Q73.1256-28.9438 75.8868-27.313L125.861 2.0271Q127.431 2.97735 128.872 3.44544Q130.314 3.91353 131.922 3.91353ZM129.105-7.1717Q128.894-7.1717 128.622-7.26348Q128.35-7.35526 128.044-7.56468L83.0499-34.1286Q82.1804-34.6256 82.1804-35.3336Q82.1804-36.0244 83.0499-36.5197L128.044-63.0735Q128.359-63.293 128.626-63.3754Q128.894-63.4578 129.095-63.4578Q129.576-63.4578 129.928-63.1567Q130.28-62.8555 130.28-62.1946L130.28-8.44339Q130.28-7.78263 129.928-7.47717Q129.576-7.1717 129.105-7.1717Z"/>
  </g>
  <g id="Regular-M" transform="matrix(1 0 0 1 1375.78 1126)">
   <path d="M61.5575 3.18182Q64.4407 3.18182 66.5 1.03485Q68.5593-1.11212 68.5593-5.1791L68.5593-65.1342Q68.5593-69.2528 66.5-71.3999Q64.4407-73.5469 61.5575-73.5469Q60.0432-73.5469 58.7358-73.0591Q57.4284-72.5712 55.9351-71.721L6.16014-42.4252Q3.58963-40.9119 2.41786-39.0974Q1.24609-37.283 1.24609-35.1877Q1.24609-33.0926 2.42309-31.2676Q3.60009-29.4426 6.16014-27.8881L55.9351 1.35603Q57.4178 2.25789 58.7305 2.71985Q60.0432 3.18182 61.5575 3.18182ZM59.4251-5.85134Q59.1855-5.85134 58.8835-5.95535Q58.5814-6.05935 58.2374-6.29909L11.8169-33.8141Q10.7452-34.3864 10.7452-35.1877Q10.7452-35.9681 11.8169-36.5509L58.2374-64.066Q58.5921-64.3056 58.8888-64.4044Q59.1855-64.5031 59.4251-64.5031Q59.9657-64.5031 60.3463-64.1595Q60.727-63.8158 60.727-63.044L60.727-7.32099Q60.727-6.54929 60.3463-6.20032Q59.9657-5.85134 59.4251-5.85134ZM128.611 3.18182Q131.494 3.18182 133.579 1.03485Q135.665-1.11212 135.665-5.1791L135.665-65.1342Q135.665-69.2528 133.579-71.3999Q131.494-73.5469 128.611-73.5469Q127.107-73.5469 125.795-73.0591Q124.482-72.5712 122.999-71.721L73.276-42.4252Q70.6537-40.9119 69.4819-39.0974Q68.3101-37.283 68.3101-35.1877Q68.3101-33.0926 69.4819-31.2676Q70.6537-29.4426 73.276-27.8881L122.999 1.35603Q124.482 2.25789 125.795 2.71985Q127.107 3.18182 128.611 3.18182ZM126.479-5.85134Q126.25-5.85134 125.948-5.95535Q125.645-6.05935 125.301-6.29909L78.881-33.8141Q77.8609-34.3864 77.8609-35.1877Q77.8609-35.9681 78.881-36.5509L125.301-64.066Q125.656-64.3056 125.953-64.4044Q126.25-64.5031 126.479-64.5031Q127.019-64.5031 127.431-64.1595Q127.843-63.8158 127.843-63.044L127.843-7.32099Q127.843-6.54929 127.431-6.20032Q127.019-5.85134 126.479-5.85134Z"/>
  </g>
  <g id="Light-M" transform="matrix(1 0 0 1 1080.87 1126)">
   <path d="M60.5479 2.17218Q63.0547 2.17218 64.9173 0.281929Q66.7798-1.60832 66.7798-5.29898L66.7798-64.9801Q66.7798-68.7052 64.9173-70.5956Q63.0547-72.4861 60.5479-72.4861Q59.2049-72.4861 58.0001-72.0153Q56.7954-71.5446 55.5073-70.8312L5.3388-41.3129Q3.24753-40.0736 2.24681-38.5499Q1.24609-37.0263 1.24609-35.1705Q1.24609-33.3151 2.26052-31.7638Q3.27495-30.2125 5.3388-28.9662L55.5073 0.517725Q56.7675 1.26549 57.9862 1.71883Q59.2049 2.17218 60.5479 2.17218ZM59.0999-4.63644Q58.775-4.63644 58.3873-4.75755Q57.9996-4.87866 57.5017-5.20407L9.66109-33.4889Q8.3668-34.1812 8.3668-35.1705Q8.3668-36.1049 9.66109-36.8246L57.5017-65.1099Q58.0275-65.4348 58.4012-65.5422Q58.775-65.6496 59.0999-65.6496Q59.709-65.6496 60.2522-65.2033Q60.7954-64.7571 60.7954-63.6428L60.7954-6.6707Q60.7954-5.5569 60.2522-5.09667Q59.709-4.63644 59.0999-4.63644ZM125.805 2.17218Q128.311 2.17218 130.191 0.281929Q132.071-1.60832 132.071-5.29898L132.071-64.9801Q132.071-68.7052 130.191-70.5956Q128.311-72.4861 125.805-72.4861Q124.489-72.4861 123.271-72.0153Q122.052-71.5446 120.792-70.8312L70.6582-41.3129Q68.532-40.0736 67.5313-38.5499Q66.5306-37.0263 66.5306-35.1705Q66.5306-33.3151 67.5313-31.7638Q68.532-30.2125 70.6582-28.9662L120.792 0.517725Q122.052 1.26549 123.271 1.71883Q124.489 2.17218 125.805 2.17218ZM124.357-4.63644Q124.059-4.63644 123.672-4.75755Q123.284-4.87866 122.786-5.20407L74.9456-33.4889Q73.6857-34.1812 73.6857-35.1705Q73.6857-36.1049 74.9456-36.8246L122.786-65.1099Q123.312-65.4348 123.686-65.5422Q124.059-65.6496 124.357-65.6496Q124.966-65.6496 125.54-65.2033Q126.115-64.7571 126.115-63.6428L126.115-6.6707Q126.115-5.5569 125.54-5.09667Q124.966-4.63644 124.357-4.63644Z"/>
  </g>
  <g id="Thin-M" transform="matrix(1 0 0 1 786.532 1126)">
   <path d="M59.2125 0.836839Q61.2217 0.836839 62.824-0.713871Q64.4262-2.26458 64.4262-5.45753L64.4262-64.7763Q64.4262-67.9808 62.824-69.532Q61.2217-71.0831 59.2125-71.0831Q58.0962-71.0831 57.0272-70.635Q55.9581-70.1868 54.9415-69.6544L4.25251-39.8418Q2.79506-38.9649 2.02058-37.8258Q1.24609-36.6867 1.24609-35.1476Q1.24609-33.6094 2.04551-32.42Q2.84492-31.2307 4.25251-30.392L54.9415-0.591001Q55.9074-0.0470328 57.0018 0.394903Q58.0962 0.836839 59.2125 0.836839ZM58.6699-3.02962Q58.232-3.02962 57.731-3.17335Q57.23-3.31709 56.5287-3.7558L6.80981-33.0589Q5.22123-33.9097 5.22123-35.1476Q5.22123-36.2859 6.80981-37.1865L56.5287-66.4905Q57.2807-66.9283 57.7564-67.0471Q58.232-67.166 58.6699-67.166Q59.3695-67.166 60.1277-66.5839Q60.8859-66.0019 60.8859-64.4348L60.8859-5.81064Q60.8859-4.24437 60.1277-3.637Q59.3695-3.02962 58.6699-3.02962ZM122.094 0.836839Q124.102 0.836839 125.71-0.713871Q127.319-2.26458 127.319-5.45753L127.319-64.7763Q127.319-67.9808 125.71-69.532Q124.102-71.0831 122.094-71.0831Q121.027-71.0831 119.933-70.635Q118.838-70.1868 117.872-69.6544L67.1959-39.8418Q65.726-38.9649 64.9515-37.8258Q64.177-36.6867 64.177-35.1476Q64.177-33.6094 64.9515-32.42Q65.726-31.2307 67.1959-30.392L117.872-0.591001Q118.838-0.0470328 119.933 0.394903Q121.027 0.836839 122.094 0.836839ZM121.551-3.02962Q121.163-3.02962 120.662-3.17335Q120.161-3.31709 119.46-3.7558L69.7407-33.0589Q68.1638-33.9097 68.1638-35.1476Q68.1638-36.2859 69.7407-37.1865L119.46-66.4905Q120.212-66.9283 120.687-67.0471Q121.163-67.166 121.551-67.166Q122.251-67.166 123.04-66.5839Q123.829-66.0019 123.829-64.4348L123.829-5.81064Q123.829-4.24437 123.04-3.637Q122.251-3.02962 121.551-3.02962Z"/>
  </g>
  <g id="Ultralight-M" transform="matrix(1 0 0 1 491.038 1126)">
   <path d="M58.5286 0.152886Q60.2828 0.152886 61.7518-1.22391Q63.2208-2.60072 63.2208-5.53874L63.2208-64.6719Q63.2208-67.6099 61.7518-68.9872Q60.2828-70.3645 58.5286-70.3645Q57.5283-70.3645 56.5288-69.9279Q55.5293-69.4913 54.6517-69.0517L3.69611-39.0883Q2.56332-38.397 1.9047-37.4549Q1.24609-36.5128 1.24609-35.136Q1.24609-33.7601 1.93538-32.7562Q2.62466-31.7523 3.69611-31.1223L54.6517-1.15888Q55.4669-0.719301 56.4976-0.283208Q57.5283 0.152886 58.5286 0.152886ZM58.4497-2.20662Q57.9539-2.20662 57.3949-2.36194Q56.8358-2.51726 56.0304-3.01401L5.3494-32.8386Q3.61009-33.7706 3.61009-35.136Q3.61009-36.3786 5.3494-37.3719L56.0304-67.1976Q56.8982-67.6933 57.4261-67.818Q57.9539-67.9426 58.4497-67.9426Q59.1956-67.9426 60.0639-67.2911Q60.9322-66.6395 60.9322-64.8405L60.9322-5.37012Q60.9322-3.57211 60.0639-2.88936Q59.1956-2.20662 58.4497-2.20662ZM120.193 0.152886Q121.946 0.152886 123.415-1.22391Q124.885-2.60072 124.885-5.53874L124.885-64.6719Q124.885-67.6099 123.415-68.9872Q121.946-70.3645 120.193-70.3645Q119.254-70.3645 118.223-69.9279Q117.192-69.4913 116.377-69.0517L65.4225-39.0883Q64.2888-38.397 63.6301-37.4549Q62.9715-36.5128 62.9715-35.136Q62.9715-33.7601 63.6301-32.7562Q64.2888-31.7523 65.4225-31.1223L116.377-1.15888Q117.192-0.719301 118.223-0.283208Q119.254 0.152886 120.193 0.152886ZM120.114-2.20662Q119.679-2.20662 119.12-2.36194Q118.561-2.51726 117.756-3.01401L67.0748-32.8386Q65.3354-33.7706 65.3354-35.136Q65.3354-36.3786 67.0748-37.3719L117.756-67.1976Q118.624-67.6933 119.152-67.818Q119.679-67.9426 120.114-67.9426Q120.86-67.9426 121.759-67.2911Q122.659-66.6395 122.659-64.8405L122.659-5.37012Q122.659-3.57211 121.759-2.88936Q120.86-2.20662 120.114-2.20662Z"/>
  </g>
  <g id="Black-S" transform="matrix(1 0 0 1 2865.72 696)">
   <path d="M54.1504-1.70898Q57.9102-1.70898 60.6445-4.37012Q63.3789-7.03125 63.3789-11.8164L63.3789-59.8633Q63.3789-64.6973 60.6934-67.334Q58.0078-69.9707 54.248-69.9707Q52.5391-69.9707 50.9033-69.5801Q49.2676-69.1895 47.6562-68.2617L7.4707-44.873Q4.63867-43.2129 2.80762-41.1865Q0.976562-39.1602 0.976562-35.9375Q0.976562-32.7148 2.88086-30.542Q4.78516-28.3691 7.4707-26.8066L47.6562-3.41797Q49.2188-2.49023 50.8545-2.09961Q52.4902-1.70898 54.1504-1.70898ZM49.2676-18.4082Q49.1699-18.4082 49.0723-18.4326Q48.9746-18.457 48.877-18.5059L19.1895-35.5957Q19.0918-35.6934 19.0918-35.8887Q19.0918-36.084 19.1895-36.1328L48.877-53.1738Q48.9746-53.2715 49.0723-53.2715Q49.1699-53.2715 49.2188-53.2715Q49.3652-53.2715 49.4141-53.1982Q49.4629-53.125 49.4629-53.0273L49.4629-18.6523Q49.4629-18.5547 49.4141-18.4814Q49.3652-18.4082 49.2676-18.4082ZM116.357-1.70898Q120.117-1.70898 122.852-4.37012Q125.586-7.03125 125.586-11.8164L125.586-59.8633Q125.586-64.6973 122.9-67.334Q120.215-69.9707 116.455-69.9707Q114.746-69.9707 113.11-69.5801Q111.475-69.1895 109.863-68.2617L69.6777-44.873Q66.8457-43.2129 65.0146-41.1865Q63.1836-39.1602 63.1836-35.9375Q63.1836-32.7148 65.0879-30.542Q66.9922-28.3691 69.6777-26.8066L109.863-3.41797Q111.426-2.49023 113.062-2.09961Q114.697-1.70898 116.357-1.70898ZM111.475-18.4082Q111.377-18.4082 111.279-18.4326Q111.182-18.457 111.084-18.5059L81.3965-35.5957Q81.2988-35.6934 81.2988-35.8887Q81.2988-36.084 81.3965-36.1328L111.084-53.1738Q111.182-53.2715 111.279-53.2715Q111.377-53.2715 111.426-53.2715Q111.572-53.2715 111.621-53.1982Q111.67-53.125 111.67-53.0273L111.67-18.6523Q111.67-18.5547 111.621-18.4814Q111.572-18.4082 111.475-18.4082Z"/>
  </g>
  <g id="Heavy-S" transform="matrix(1 0 0 1 2571.08 696)">
   <path d="M52.8712-2.40045Q56.3198-2.40045 58.8121-4.85991Q61.3045-7.31936 61.3045-11.7703L61.3045-59.5982Q61.3045-64.098 58.8494-66.5388Q56.3944-68.9796 52.9458-68.9796Q51.3405-68.9796 49.8373-68.589Q48.3341-68.1983 46.8034-67.3167L6.94058-44.0548Q4.24684-42.4753 2.6117-40.5584Q0.976562-38.6416 0.976562-35.7646Q0.976562-32.8877 2.66766-30.8589Q4.35875-28.8301 6.94058-27.3137L46.8034-4.06334Q48.2968-3.17018 49.8-2.78532Q51.3032-2.40045 52.8712-2.40045ZM48.6683-17.0829Q48.5591-17.0829 48.4384-17.1188Q48.3177-17.1548 48.197-17.2266L17.092-35.2845Q16.8445-35.4513 16.8445-35.7273Q16.8445-36.0033 17.092-36.1328L48.197-54.1534Q48.3177-54.2626 48.4384-54.2799Q48.5591-54.2972 48.631-54.2972Q48.8351-54.2972 48.9243-54.1893Q49.0134-54.0815 49.0134-53.9032L49.0134-17.4768Q49.0134-17.2985 48.9243-17.1907Q48.8351-17.0829 48.6683-17.0829ZM113.004-2.40045Q116.452-2.40045 118.951-4.85991Q121.449-7.31936 121.449-11.7703L121.449-59.5982Q121.449-64.098 118.988-66.5388Q116.527-68.9796 113.078-68.9796Q111.473-68.9796 109.97-68.589Q108.467-68.1983 106.936-67.3167L67.0847-44.0548Q64.3795-42.4753 62.7443-40.5584Q61.1092-38.6416 61.1092-35.7646Q61.1092-32.8877 62.8003-30.8589Q64.4914-28.8301 67.0847-27.3137L106.936-4.06334Q108.429-3.17018 109.933-2.78532Q111.436-2.40045 113.004-2.40045ZM108.801-17.0829Q108.692-17.0829 108.571-17.1188Q108.45-17.1548 108.33-17.2266L77.2246-35.2845Q76.9887-35.4513 76.9887-35.7273Q76.9887-36.0033 77.2246-36.1328L108.33-54.1534Q108.45-54.2626 108.571-54.2799Q108.692-54.2972 108.764-54.2972Q108.968-54.2972 109.063-54.1893Q109.158-54.0815 109.158-53.9032L109.158-17.4768Q109.158-17.2985 109.063-17.1907Q108.968-17.0829 108.801-17.0829Z"/>
  </g>
  <g id="Bold-S" transform="matrix(1 0 0 1 2276.68 696)">
   <path d="M51.4404-3.17383Q54.541-3.17383 56.7627-5.40771Q58.9844-7.6416 58.9844-11.7188L58.9844-59.3018Q58.9844-63.4277 56.7871-65.6494Q54.5898-67.8711 51.4893-67.8711Q50-67.8711 48.645-67.4805Q47.29-67.0898 45.8496-66.2598L6.34766-43.1396Q3.80859-41.6504 2.39258-39.856Q0.976562-38.0615 0.976562-35.5713Q0.976562-33.0811 2.4292-31.2134Q3.88184-29.3457 6.34766-27.8809L45.8496-4.78516Q47.2656-3.93066 48.6206-3.55225Q49.9756-3.17383 51.4404-3.17383ZM47.998-15.6006Q47.876-15.6006 47.7295-15.6494Q47.583-15.6982 47.4365-15.7959L14.7461-34.9365Q14.3311-35.1807 14.3311-35.5469Q14.3311-35.9131 14.7461-36.1328L47.4365-55.249Q47.583-55.3711 47.7295-55.4077Q47.876-55.4443 47.9736-55.4443Q48.2422-55.4443 48.3765-55.2979Q48.5107-55.1514 48.5107-54.8828L48.5107-16.1621Q48.5107-15.8936 48.3765-15.7471Q48.2422-15.6006 47.998-15.6006ZM109.253-3.17383Q112.354-3.17383 114.587-5.40771Q116.821-7.6416 116.821-11.7188L116.821-59.3018Q116.821-63.4277 114.612-65.6494Q112.402-67.8711 109.302-67.8711Q107.812-67.8711 106.458-67.4805Q105.103-67.0898 103.662-66.2598L64.1846-43.1396Q61.6211-41.6504 60.2051-39.856Q58.7891-38.0615 58.7891-35.5713Q58.7891-33.0811 60.2417-31.2134Q61.6943-29.3457 64.1846-27.8809L103.662-4.78516Q105.078-3.93066 106.433-3.55225Q107.788-3.17383 109.253-3.17383ZM105.811-15.6006Q105.688-15.6006 105.542-15.6494Q105.396-15.6982 105.249-15.7959L72.5586-34.9365Q72.168-35.1807 72.168-35.5469Q72.168-35.9131 72.5586-36.1328L105.249-55.249Q105.396-55.3711 105.542-55.4077Q105.688-55.4443 105.786-55.4443Q106.055-55.4443 106.201-55.2979Q106.348-55.1514 106.348-54.8828L106.348-16.1621Q106.348-15.8936 106.201-15.7471Q106.055-15.6006 105.811-15.6006Z"/>
  </g>
  <g id="Semibold-S" transform="matrix(1 0 0 1 1981.57 696)">
   <path d="M50.454-3.70703Q53.3146-3.70703 55.3497-5.7854Q57.3848-7.86377 57.3848-11.6832L57.3848-59.0974Q57.3848-62.9656 55.3652-65.0362Q53.3457-67.1068 50.4851-67.1068Q49.0758-67.1068 47.823-66.7162Q46.5702-66.3256 45.192-65.5311L5.93887-42.5087Q3.50645-41.0816 2.2415-39.3716Q0.976562-37.6616 0.976562-35.438Q0.976562-33.2144 2.26479-31.4578Q3.55303-29.7012 5.93887-28.2719L45.192-5.28281Q46.5547-4.45498 47.8075-4.08101Q49.0603-3.70703 50.454-3.70703ZM47.5359-14.5786Q47.405-14.5786 47.2407-14.6363Q47.0765-14.694 46.9122-14.8095L13.1287-34.6966Q12.5981-34.994 12.5981-35.4225Q12.5981-35.8509 13.1287-36.1328L46.9122-56.0044Q47.0765-56.1354 47.2407-56.1853Q47.405-56.2353 47.5204-56.2353Q47.8334-56.2353 47.9988-56.0621Q48.1642-55.889 48.1642-55.5582L48.1642-15.2557Q48.1642-14.9249 47.9988-14.7518Q47.8334-14.5786 47.5359-14.5786ZM106.667-3.70703Q109.528-3.70703 111.579-5.7854Q113.631-7.86377 113.631-11.6832L113.631-59.0974Q113.631-62.9656 111.595-65.0362Q109.559-67.1068 106.698-67.1068Q105.289-67.1068 104.036-66.7162Q102.783-66.3256 101.405-65.5311L62.1851-42.5087Q59.7193-41.0816 58.4544-39.3716Q57.1895-37.6616 57.1895-35.438Q57.1895-33.2144 58.4777-31.4578Q59.7659-29.7012 62.1851-28.2719L101.405-5.28281Q102.768-4.45498 104.02-4.08101Q105.273-3.70703 106.667-3.70703ZM103.749-14.5786Q103.618-14.5786 103.454-14.6363Q103.289-14.694 103.125-14.8095L69.3416-34.6966Q68.8443-34.994 68.8443-35.4225Q68.8443-35.8509 69.3416-36.1328L103.125-56.0044Q103.289-56.1354 103.454-56.1853Q103.618-56.2353 103.733-56.2353Q104.046-56.2353 104.228-56.0621Q104.41-55.889 104.41-55.5582L104.41-15.2557Q104.41-14.9249 104.228-14.7518Q104.046-14.5786 103.749-14.5786Z"/>
  </g>
  <g id="Medium-S" transform="matrix(1 0 0 1 1686.07 696)">
   <path d="M49.7061-4.11133Q52.3848-4.11133 54.2783-6.07178Q56.1719-8.03223 56.1719-11.6562L56.1719-58.9424Q56.1719-62.6152 54.2871-64.5713Q52.4023-66.5273 49.7236-66.5273Q48.375-66.5273 47.1997-66.1367Q46.0244-65.7461 44.6934-64.9785L5.62891-42.0303Q3.27734-40.6504 2.12695-39.0044Q0.976562-37.3584 0.976562-35.3369Q0.976562-33.3154 2.14014-31.6431Q3.30371-29.9707 5.62891-28.5684L44.6934-5.66016Q46.0156-4.85254 47.1909-4.48193Q48.3662-4.11133 49.7061-4.11133ZM47.1855-13.8037Q47.0479-13.8037 46.8701-13.8682Q46.6924-13.9326 46.5146-14.0615L11.9023-34.5146Q11.2842-34.8525 11.2842-35.3281Q11.2842-35.8037 11.9023-36.1328L46.5146-56.5771Q46.6924-56.7148 46.8701-56.7749Q47.0479-56.835 47.1768-56.835Q47.5234-56.835 47.7124-56.6416Q47.9014-56.4482 47.9014-56.0703L47.9014-14.5684Q47.9014-14.1904 47.7124-13.9971Q47.5234-13.8037 47.1855-13.8037ZM104.706-4.11133Q107.385-4.11133 109.298-6.07178Q111.212-8.03223 111.212-11.6562L111.212-58.9424Q111.212-62.6152 109.307-64.5713Q107.402-66.5273 104.724-66.5273Q103.375-66.5273 102.2-66.1367Q101.024-65.7461 99.6934-64.9785L60.6689-42.0303Q58.2773-40.6504 57.127-39.0044Q55.9766-37.3584 55.9766-35.3369Q55.9766-33.3154 57.1401-31.6431Q58.3037-29.9707 60.6689-28.5684L99.6934-5.66016Q101.016-4.85254 102.191-4.48193Q103.366-4.11133 104.706-4.11133ZM102.186-13.8037Q102.048-13.8037 101.87-13.8682Q101.692-13.9326 101.515-14.0615L66.9023-34.5146Q66.3242-34.8525 66.3242-35.3281Q66.3242-35.8037 66.9023-36.1328L101.515-56.5771Q101.692-56.7148 101.87-56.7749Q102.048-56.835 102.177-56.835Q102.523-56.835 102.732-56.6416Q102.941-56.4482 102.941-56.0703L102.941-14.5684Q102.941-14.1904 102.732-13.9971Q102.523-13.8037 102.186-13.8037Z"/>
  </g>
  <g id="Regular-S" transform="matrix(1 0 0 1 1390.93 696)">
   <path d="M48.7305-4.63867Q51.1719-4.63867 52.8809-6.44531Q54.5898-8.25195 54.5898-11.6211L54.5898-58.7402Q54.5898-62.1582 52.8809-63.9648Q51.1719-65.7715 48.7305-65.7715Q47.4609-65.7715 46.3867-65.3809Q45.3125-64.9902 44.043-64.2578L5.22461-41.4062Q2.97852-40.0879 1.97754-38.5254Q0.976562-36.9629 0.976562-35.2051Q0.976562-33.4473 1.97754-31.8848Q2.97852-30.3223 5.22461-28.9551L44.043-6.15234Q45.3125-5.37109 46.3867-5.00488Q47.4609-4.63867 48.7305-4.63867ZM46.7285-12.793Q46.582-12.793 46.3867-12.8662Q46.1914-12.9395 45.9961-13.0859L10.3027-34.2773Q9.57031-34.668 9.57031-35.2051Q9.57031-35.7422 10.3027-36.1328L45.9961-57.3242Q46.1914-57.4707 46.3867-57.5439Q46.582-57.6172 46.7285-57.6172Q47.1191-57.6172 47.3389-57.3975Q47.5586-57.1777 47.5586-56.7383L47.5586-13.6719Q47.5586-13.2324 47.3389-13.0127Q47.1191-12.793 46.7285-12.793ZM102.148-4.63867Q104.59-4.63867 106.323-6.44531Q108.057-8.25195 108.057-11.6211L108.057-58.7402Q108.057-62.1582 106.323-63.9648Q104.59-65.7715 102.148-65.7715Q100.879-65.7715 99.8047-65.3809Q98.7305-64.9902 97.4609-64.2578L58.6914-41.4062Q56.3965-40.0879 55.3955-38.5254Q54.3945-36.9629 54.3945-35.2051Q54.3945-33.4473 55.3955-31.8848Q56.3965-30.3223 58.6914-28.9551L97.4609-6.15234Q98.7305-5.37109 99.8047-5.00488Q100.879-4.63867 102.148-4.63867ZM100.146-12.793Q100-12.793 99.8047-12.8662Q99.6094-12.9395 99.4141-13.0859L63.7207-34.2773Q63.0371-34.668 63.0371-35.2051Q63.0371-35.7422 63.7207-36.1328L99.4141-57.3242Q99.6094-57.4707 99.8047-57.5439Q100-57.6172 100.146-57.6172Q100.537-57.6172 100.781-57.3975Q101.025-57.1777 101.025-56.7383L101.025-13.6719Q101.025-13.2324 100.781-13.0127Q100.537-12.793 100.146-12.793Z"/>
  </g>
  <g id="Light-S" transform="matrix(1 0 0 1 1095.81 696)">
   <path d="M47.8373-5.53182Q49.9458-5.53182 51.4807-7.11136Q53.0156-8.6909 53.0156-11.7271L53.0156-58.6039Q53.0156-61.6737 51.4807-63.2534Q49.9458-64.8331 47.8373-64.8331Q46.7194-64.8331 45.7359-64.4576Q44.7525-64.0821 43.6646-63.4707L4.49804-40.4223Q2.67588-39.3463 1.82622-38.0411Q0.976562-36.7358 0.976562-35.1898Q0.976562-33.6441 1.83372-32.3237Q2.69089-31.0033 4.49804-29.9088L43.6646-6.89392Q44.7372-6.24898 45.7283-5.8904Q46.7194-5.53182 47.8373-5.53182ZM46.4409-11.7182Q46.2189-11.7182 45.9478-11.8066Q45.6767-11.895 45.3453-12.1173L8.39564-33.9897Q7.46638-34.4864 7.46638-35.1898Q7.46638-35.8632 8.39564-36.3749L45.3453-58.2476Q45.6919-58.4696 45.9554-58.5505Q46.2189-58.6314 46.4409-58.6314Q46.892-58.6314 47.2556-58.3209Q47.6191-58.0104 47.6191-57.268L47.6191-13.0966Q47.6191-12.3545 47.2556-12.0364Q46.892-11.7182 46.4409-11.7182ZM99.6661-5.53182Q101.774-5.53182 103.326-7.11136Q104.878-8.6909 104.878-11.7271L104.878-58.6039Q104.878-61.6737 103.326-63.2534Q101.774-64.8331 99.6661-64.8331Q98.5631-64.8331 97.5721-64.4576Q96.581-64.0821 95.5083-63.4707L56.3756-40.4223Q54.5197-39.3463 53.67-38.0411Q52.8203-36.7358 52.8203-35.1898Q52.8203-33.6441 53.67-32.3237Q54.5197-31.0033 56.3756-29.9088L95.5083-6.89392Q96.581-6.24898 97.5721-5.8904Q98.5631-5.53182 99.6661-5.53182ZM98.2697-11.7182Q98.0626-11.7182 97.7915-11.8066Q97.5204-11.895 97.1891-12.1173L60.2394-33.9897Q59.3437-34.4864 59.3437-35.1898Q59.3437-35.8632 60.2394-36.3749L97.1891-58.2476Q97.5357-58.4696 97.7992-58.5505Q98.0626-58.6314 98.2697-58.6314Q98.7208-58.6314 99.1088-58.3209Q99.4967-58.0104 99.4967-57.268L99.4967-13.0966Q99.4967-12.3545 99.1088-12.0364Q98.7208-11.7182 98.2697-11.7182Z"/>
  </g>
  <g id="Thin-S" transform="matrix(1 0 0 1 801.202 696)">
   <path d="M46.6561-6.71308Q48.3243-6.71308 49.629-7.99226Q50.9336-9.27144 50.9336-11.8674L50.9336-58.4236Q50.9336-61.033 49.629-62.3125Q48.3243-63.5919 46.6561-63.5919Q45.7386-63.5919 44.8752-63.2365Q44.0119-62.881 43.1641-62.4297L3.53709-39.121Q2.27563-38.3655 1.62609-37.4005Q0.976562-36.4354 0.976562-35.1696Q0.976562-33.9044 1.64352-32.9042Q2.31048-31.9041 3.53709-31.1701L43.1641-7.87472Q43.9764-7.41006 44.8575-7.06157Q45.7386-6.71308 46.6561-6.71308ZM46.0605-10.2968Q45.7386-10.2968 45.3672-10.4052Q44.9959-10.5136 44.4846-10.8361L5.87335-33.6093Q4.68376-34.2462 4.68376-35.1696Q4.68376-36.0233 5.87335-36.6951L44.4846-59.4689Q45.0313-59.7908 45.385-59.8818Q45.7386-59.9728 46.0605-59.9728Q46.5917-59.9728 47.1454-59.5422Q47.6992-59.1116 47.6992-57.9686L47.6992-12.3358Q47.6992-11.1935 47.1454-10.7451Q46.5917-10.2968 46.0605-10.2968ZM96.383-6.71308Q98.0506-6.71308 99.3623-7.99226Q100.674-9.27144 100.674-11.8674L100.674-58.4236Q100.674-61.033 99.3623-62.3125Q98.0506-63.5919 96.383-63.5919Q95.5003-63.5919 94.6193-63.2365Q93.7382-62.881 92.9258-62.4297L53.3128-39.121Q52.0374-38.3655 51.3879-37.4005Q50.7383-36.4354 50.7383-35.1696Q50.7383-33.9044 51.3879-32.9042Q52.0374-31.9041 53.3128-31.1701L92.9258-7.87472Q93.7382-7.41006 94.6193-7.06157Q95.5003-6.71308 96.383-6.71308ZM95.7874-10.2968Q95.5003-10.2968 95.129-10.4052Q94.7577-10.5136 94.2464-10.8361L55.6351-33.6093Q54.4589-34.2462 54.4589-35.1696Q54.4589-36.0233 55.6351-36.6951L94.2464-59.4689Q94.7931-59.7908 95.1467-59.8818Q95.5003-59.9728 95.7874-59.9728Q96.3186-59.9728 96.8968-59.5422Q97.4749-59.1116 97.4749-57.9686L97.4749-12.3358Q97.4749-11.1935 96.8968-10.7451Q96.3186-10.2968 95.7874-10.2968Z"/>
  </g>
  <g id="Ultralight-S" transform="matrix(1 0 0 1 505.568 696)">
   <path d="M46.051-7.31812Q47.4937-7.31812 48.6805-8.44345Q49.8672-9.56879 49.8672-11.9392L49.8672-58.3313Q49.8672-60.7048 48.6805-61.8305Q47.4937-62.9562 46.051-62.9562Q45.2362-62.9562 44.4344-62.611Q43.6325-62.2658 42.9077-61.8965L3.04489-38.4544Q2.07062-37.8632 1.52359-37.0724Q0.976562-36.2816 0.976562-35.1593Q0.976562-34.0378 1.5461-33.2016Q2.11563-32.3654 3.04489-31.8161L42.9077-8.37708Q43.5867-8.00476 44.4115-7.66144Q45.2362-7.31812 46.051-7.31812ZM45.8656-9.56879Q45.4926-9.56879 45.0699-9.68742Q44.6472-9.80606 44.0437-10.1799L4.58145-33.4145Q3.25851-34.1232 3.25851-35.1593Q3.25851-36.1053 4.58145-36.8591L44.0437-60.0945Q44.693-60.4675 45.0928-60.5637Q45.4926-60.6598 45.8656-60.6598Q46.4378-60.6598 47.089-60.1677Q47.7402-59.6756 47.7402-58.3275L47.7402-11.9461Q47.7402-10.5988 47.089-10.0838Q46.4378-9.56879 45.8656-9.56879ZM94.7014-7.31812Q96.1433-7.31812 97.332-8.44345Q98.5207-9.56879 98.5207-11.9392L98.5207-58.3313Q98.5207-60.7048 97.332-61.8305Q96.1433-62.9562 94.7014-62.9562Q93.9316-62.9562 93.1068-62.611Q92.2821-62.2658 91.6031-61.8965L51.7441-38.4544Q50.766-37.8632 50.219-37.0724Q49.6719-36.2816 49.6719-35.1593Q49.6719-34.0378 50.219-33.2016Q50.766-32.3654 51.7441-31.8161L91.6031-8.37708Q92.2821-8.00476 93.1068-7.66144Q93.9316-7.31812 94.7014-7.31812ZM94.516-9.56879Q94.1879-9.56879 93.7653-9.68742Q93.3426-9.80606 92.7391-10.1799L53.2768-33.4145Q51.9569-34.1232 51.9569-35.1593Q51.9569-36.1053 53.2768-36.8591L92.7391-60.0945Q93.3884-60.4675 93.7881-60.5637Q94.1879-60.6598 94.516-60.6598Q95.0882-60.6598 95.7638-60.1677Q96.4394-59.6756 96.4394-58.3275L96.4394-11.9461Q96.4394-10.5988 95.7638-10.0838Q95.0882-9.56879 94.516-9.56879Z"/>
  </g>
 </g>
</svg>
