<?xml version="1.0" encoding="UTF-8"?>
<!--Generator: Apple Native CoreSVG 175.5-->
<!DOCTYPE svg
PUBLIC "-//W3C//DTD SVG 1.1//EN"
       "http://www.w3.org/Graphics/SVG/1.1/DTD/svg11.dtd">
<svg version="1.1" xmlns="http://www.w3.org/2000/svg" xmlns:xlink="http://www.w3.org/1999/xlink" width="17.4814" height="9.98486">
 <g>
  <rect height="9.98486" opacity="0" width="17.4814" x="0" y="0"/>
  <path d="M0.914062 9.98486C1.17432 9.98486 1.39014 9.90234 1.64404 9.75L8.1123 5.94141C8.56299 5.6748 8.75977 5.36377 8.75977 4.99561C8.75977 4.63379 8.56299 4.32275 8.1123 4.05615L1.64404 0.247559C1.38379 0.0952148 1.17432 0.0126953 0.914062 0.0126953C0.418945 0.0126953 0 0.393555 0 1.09814L0 8.89941C0 9.604 0.418945 9.98486 0.914062 9.98486ZM1.19336 8.81055C1.09814 8.81055 1.02197 8.75342 1.02197 8.62012L1.02197 1.37744C1.02197 1.24414 1.09814 1.18701 1.19336 1.18701C1.23779 1.18701 1.28223 1.20605 1.3457 1.23779L7.38232 4.81787C7.47119 4.86865 7.52197 4.91309 7.52197 4.99561C7.52197 5.08447 7.47119 5.12891 7.38232 5.17969L1.3457 8.75977C1.28857 8.79785 1.23779 8.81055 1.19336 8.81055ZM9.63574 9.98486C9.896 9.98486 10.1118 9.90234 10.3657 9.75L16.8403 5.94141C17.2847 5.6748 17.4814 5.36377 17.4814 4.99561C17.4814 4.63379 17.2847 4.32275 16.8403 4.05615L10.3657 0.247559C10.1118 0.0952148 9.896 0.0126953 9.63574 0.0126953C9.14062 0.0126953 8.72168 0.393555 8.72168 1.09814L8.72168 8.89941C8.72168 9.604 9.14062 9.98486 9.63574 9.98486ZM9.91504 8.81055C9.81982 8.81055 9.74365 8.75342 9.74365 8.62012L9.74365 1.37744C9.74365 1.24414 9.81982 1.18701 9.91504 1.18701C9.95947 1.18701 10.0039 1.20605 10.0674 1.23779L16.104 4.81787C16.1929 4.86865 16.2437 4.91309 16.2437 4.99561C16.2437 5.08447 16.1929 5.12891 16.104 5.17969L10.0674 8.75977C10.0103 8.79785 9.95947 8.81055 9.91504 8.81055Z" fill="#000000" fill-opacity="0.85"/>
 </g>
</svg>
