<?xml version="1.0" encoding="UTF-8"?>
<!--Generator: Apple Native CoreSVG 175.5-->
<!DOCTYPE svg
PUBLIC "-//W3C//DTD SVG 1.1//EN"
       "http://www.w3.org/Graphics/SVG/1.1/DTD/svg11.dtd">
<svg version="1.1" xmlns="http://www.w3.org/2000/svg" xmlns:xlink="http://www.w3.org/1999/xlink" width="7.43945" height="11.686">
 <g>
  <rect height="11.686" opacity="0" width="7.43945" x="0" y="0"/>
  <path d="M1.03467 11.6733L6.40479 11.6733C7.0459 11.6733 7.43945 11.3115 7.43945 10.6323L7.43945 10.5054C7.43945 8.97559 5.8208 7.35059 4.93213 6.46826C4.53223 6.06836 4.50049 5.62402 4.93213 5.19238C5.8208 4.31641 7.43945 2.69775 7.43945 1.15527L7.43945 1.04736C7.43945 0.368164 7.0459 0 6.40479 0L1.03467 0C0.393555 0 0 0.368164 0 1.04736L0 1.15527C0 2.69775 1.625 4.31641 2.50732 5.19238C2.91357 5.59229 2.94531 6.03662 2.50732 6.46826C1.625 7.35059 0 8.97559 0 10.5054L0 10.6323C0 11.3115 0.393555 11.6733 1.03467 11.6733ZM1.52344 10.8101C1.25049 10.8101 1.18701 10.4927 1.37109 10.3213L3.41504 8.37256C3.61182 8.19482 3.84033 8.20117 4.02441 8.37256L6.06836 10.3213C6.25244 10.4927 6.18896 10.8101 5.91602 10.8101Z" fill="#000000" fill-opacity="0.85"/>
 </g>
</svg>
