<?xml version="1.0" encoding="UTF-8"?>
<!--Generator: Apple Native CoreSVG 175.5-->
<!DOCTYPE svg
PUBLIC "-//W3C//DTD SVG 1.1//EN"
       "http://www.w3.org/Graphics/SVG/1.1/DTD/svg11.dtd">
<svg version="1.1" xmlns="http://www.w3.org/2000/svg" xmlns:xlink="http://www.w3.org/1999/xlink" width="14.9678" height="11.686">
 <g>
  <rect height="11.686" opacity="0" width="14.9678" x="0" y="0"/>
  <path d="M1.99316 11.686L12.9746 11.686C14.3076 11.686 14.9678 11.0322 14.9678 9.72461L14.9678 1.96777C14.9678 0.660156 14.3076 0 12.9746 0L1.99316 0C0.666504 0 0 0.660156 0 1.96777L0 9.72461C0 11.0322 0.666504 11.686 1.99316 11.686ZM2.00586 10.6641C1.37109 10.6641 1.02197 10.3276 1.02197 9.66748L1.02197 2.0249C1.02197 1.36475 1.37109 1.02197 2.00586 1.02197L12.9619 1.02197C13.5903 1.02197 13.9458 1.36475 13.9458 2.0249L13.9458 9.66748C13.9458 10.3276 13.5903 10.6641 12.9619 10.6641Z" fill="#000000" fill-opacity="0.85"/>
 </g>
</svg>
