<?xml version="1.0" encoding="UTF-8"?>
<!--Generator: Apple Native CoreSVG 175.5-->
<!DOCTYPE svg
PUBLIC "-//W3C//DTD SVG 1.1//EN"
       "http://www.w3.org/Graphics/SVG/1.1/DTD/svg11.dtd">
<svg version="1.1" xmlns="http://www.w3.org/2000/svg" xmlns:xlink="http://www.w3.org/1999/xlink" width="15.1392" height="8.70264">
 <g>
  <rect height="8.70264" opacity="0" width="15.1392" x="0" y="0"/>
  <path d="M0.8125 8.70264C1.26953 8.70264 1.64404 8.33447 1.64404 7.88379C1.64404 7.43945 1.26953 7.07129 0.8125 7.07129C0.368164 7.07129 0 7.43945 0 7.88379C0 8.32812 0.368164 8.70264 0.8125 8.70264ZM2.53906 4.08154C2.98975 4.08154 3.35791 3.71338 3.35791 3.26904C3.35791 2.81836 2.98975 2.4502 2.53906 2.4502C2.09473 2.4502 1.72021 2.81836 1.72021 3.26904C1.72021 3.71338 2.09473 4.08154 2.53906 4.08154ZM7.56641 1.89795C8.01074 1.89795 8.38525 1.52344 8.38525 1.07275C8.38525 0.628418 8.01074 0.260254 7.56641 0.260254C7.12842 0.260254 6.75391 0.628418 6.75391 1.07275C6.75391 1.52344 7.12842 1.89795 7.56641 1.89795ZM12.6191 4.08154C13.0635 4.08154 13.4316 3.71338 13.4316 3.26904C13.4316 2.81836 13.0635 2.4502 12.6191 2.4502C12.1685 2.4502 11.8003 2.81836 11.8003 3.26904C11.8003 3.71338 12.1685 4.08154 12.6191 4.08154ZM14.3267 8.70264C14.771 8.70264 15.1392 8.32812 15.1392 7.88379C15.1392 7.43311 14.771 7.06494 14.3267 7.06494C13.8633 7.06494 13.4951 7.43311 13.4951 7.88379C13.4951 8.32812 13.8633 8.70264 14.3267 8.70264ZM5.00195 8.49951L10.0864 8.49951C10.3911 8.49951 10.6514 8.23926 10.6514 7.94092C10.6514 7.62988 10.3911 7.37598 10.0864 7.37598L5.00195 7.37598C4.69092 7.37598 4.43066 7.63623 4.43066 7.94092C4.43066 8.23926 4.69727 8.49951 5.00195 8.49951Z" fill="#000000" fill-opacity="0.85"/>
 </g>
</svg>
