<?xml version="1.0" encoding="UTF-8"?>
<!--Generator: Apple Native CoreSVG 175-->
<!DOCTYPE svg
PUBLIC "-//W3C//DTD SVG 1.1//EN"
       "http://www.w3.org/Graphics/SVG/1.1/DTD/svg11.dtd">
<svg version="1.1" xmlns="http://www.w3.org/2000/svg" xmlns:xlink="http://www.w3.org/1999/xlink" width="3300" height="2200">
 <!--glyph: "uni1002B0.medium", point size: 100.0, font version: "17.1d1e1", template writer version: "65.1"-->
 <g id="Notes">
  <rect height="2200" id="artboard" style="fill:white;opacity:1" width="3300" x="0" y="0"/>
  <line style="fill:none;stroke:black;opacity:1;stroke-width:0.5;" x1="263" x2="3036" y1="292" y2="292"/>
  <text style="stroke:none;fill:black;font-family:sans-serif;font-size:13;font-weight:bold;" transform="matrix(1 0 0 1 263 322)">Weight/Scale Variations</text>
  <text style="stroke:none;fill:black;font-family:sans-serif;font-size:13;text-anchor:middle;" transform="matrix(1 0 0 1 559.711 322)">Ultralight</text>
  <text style="stroke:none;fill:black;font-family:sans-serif;font-size:13;text-anchor:middle;" transform="matrix(1 0 0 1 856.422 322)">Thin</text>
  <text style="stroke:none;fill:black;font-family:sans-serif;font-size:13;text-anchor:middle;" transform="matrix(1 0 0 1 1153.13 322)">Light</text>
  <text style="stroke:none;fill:black;font-family:sans-serif;font-size:13;text-anchor:middle;" transform="matrix(1 0 0 1 1449.84 322)">Regular</text>
  <text style="stroke:none;fill:black;font-family:sans-serif;font-size:13;text-anchor:middle;" transform="matrix(1 0 0 1 1746.56 322)">Medium</text>
  <text style="stroke:none;fill:black;font-family:sans-serif;font-size:13;text-anchor:middle;" transform="matrix(1 0 0 1 2043.27 322)">Semibold</text>
  <text style="stroke:none;fill:black;font-family:sans-serif;font-size:13;text-anchor:middle;" transform="matrix(1 0 0 1 2339.98 322)">Bold</text>
  <text style="stroke:none;fill:black;font-family:sans-serif;font-size:13;text-anchor:middle;" transform="matrix(1 0 0 1 2636.69 322)">Heavy</text>
  <text style="stroke:none;fill:black;font-family:sans-serif;font-size:13;text-anchor:middle;" transform="matrix(1 0 0 1 2933.4 322)">Black</text>
  <line style="fill:none;stroke:black;opacity:1;stroke-width:0.5;" x1="263" x2="3036" y1="1903" y2="1903"/>
  <g transform="matrix(1 0 0 1 263 1933)">
   <path d="M9.24805 0.830078Q10.8691 0.830078 12.2949 0.214844Q13.7207-0.400391 14.8096-1.49414Q15.8984-2.58789 16.5186-4.01367Q17.1387-5.43945 17.1387-7.05078Q17.1387-8.66211 16.5186-10.0879Q15.8984-11.5137 14.8047-12.6074Q13.7109-13.7012 12.2852-14.3164Q10.8594-14.9316 9.23828-14.9316Q7.62695-14.9316 6.20117-14.3164Q4.77539-13.7012 3.69141-12.6074Q2.60742-11.5137 1.9873-10.0879Q1.36719-8.66211 1.36719-7.05078Q1.36719-5.43945 1.9873-4.01367Q2.60742-2.58789 3.69629-1.49414Q4.78516-0.400391 6.21094 0.214844Q7.63672 0.830078 9.24805 0.830078ZM9.24805-0.654297Q7.91992-0.654297 6.7627-1.14746Q5.60547-1.64062 4.73145-2.51953Q3.85742-3.39844 3.36426-4.56055Q2.87109-5.72266 2.87109-7.05078Q2.87109-8.37891 3.35938-9.54102Q3.84766-10.7031 4.72168-11.582Q5.5957-12.4609 6.75293-12.9541Q7.91016-13.4473 9.23828-13.4473Q10.5762-13.4473 11.7334-12.9541Q12.8906-12.4609 13.7695-11.582Q14.6484-10.7031 15.1465-9.54102Q15.6445-8.37891 15.6445-7.05078Q15.6445-5.72266 15.1514-4.56055Q14.6582-3.39844 13.7842-2.51953Q12.9102-1.64062 11.748-1.14746Q10.5859-0.654297 9.24805-0.654297ZM5.6543-7.05078Q5.6543-6.72852 5.85938-6.52832Q6.06445-6.32812 6.40625-6.32812L8.51562-6.32812L8.51562-4.20898Q8.51562-3.88672 8.71094-3.67676Q8.90625-3.4668 9.23828-3.4668Q9.56055-3.4668 9.77051-3.67676Q9.98047-3.88672 9.98047-4.20898L9.98047-6.32812L12.0898-6.32812Q12.4219-6.32812 12.627-6.52832Q12.832-6.72852 12.832-7.05078Q12.832-7.38281 12.627-7.58789Q12.4219-7.79297 12.0898-7.79297L9.98047-7.79297L9.98047-9.90234Q9.98047-10.2344 9.77051-10.4443Q9.56055-10.6543 9.23828-10.6543Q8.90625-10.6543 8.71094-10.4443Q8.51562-10.2344 8.51562-9.90234L8.51562-7.79297L6.40625-7.79297Q6.06445-7.79297 5.85938-7.58789Q5.6543-7.38281 5.6543-7.05078Z"/>
  </g>
  <g transform="matrix(1 0 0 1 281.867 1933)">
   <path d="M11.709 2.91016Q13.75 2.91016 15.5518 2.12891Q17.3535 1.34766 18.7305-0.0292969Q20.1074-1.40625 20.8887-3.20801Q21.6699-5.00977 21.6699-7.05078Q21.6699-9.0918 20.8887-10.8936Q20.1074-12.6953 18.7305-14.0723Q17.3535-15.4492 15.5469-16.2305Q13.7402-17.0117 11.6992-17.0117Q9.6582-17.0117 7.85645-16.2305Q6.05469-15.4492 4.68262-14.0723Q3.31055-12.6953 2.5293-10.8936Q1.74805-9.0918 1.74805-7.05078Q1.74805-5.00977 2.5293-3.20801Q3.31055-1.40625 4.6875-0.0292969Q6.06445 1.34766 7.86621 2.12891Q9.66797 2.91016 11.709 2.91016ZM11.709 1.25Q9.98047 1.25 8.47656 0.605469Q6.97266-0.0390625 5.83496-1.17676Q4.69727-2.31445 4.05762-3.81836Q3.41797-5.32227 3.41797-7.05078Q3.41797-8.7793 4.05762-10.2832Q4.69727-11.7871 5.83008-12.9297Q6.96289-14.0723 8.4668-14.7119Q9.9707-15.3516 11.6992-15.3516Q13.4277-15.3516 14.9316-14.7119Q16.4355-14.0723 17.5781-12.9297Q18.7207-11.7871 19.3652-10.2832Q20.0098-8.7793 20.0098-7.05078Q20.0098-5.32227 19.3701-3.81836Q18.7305-2.31445 17.5928-1.17676Q16.4551-0.0390625 14.9463 0.605469Q13.4375 1.25 11.709 1.25ZM7.17773-7.05078Q7.17773-6.69922 7.41211-6.47461Q7.64648-6.25 8.01758-6.25L10.8887-6.25L10.8887-3.36914Q10.8887-2.99805 11.1133-2.76855Q11.3379-2.53906 11.6895-2.53906Q12.0605-2.53906 12.29-2.76855Q12.5195-2.99805 12.5195-3.36914L12.5195-6.25L15.4004-6.25Q15.7715-6.25 16.001-6.47461Q16.2305-6.69922 16.2305-7.05078Q16.2305-7.42188 16.001-7.65137Q15.7715-7.88086 15.4004-7.88086L12.5195-7.88086L12.5195-10.752Q12.5195-11.1328 12.29-11.3623Q12.0605-11.5918 11.6895-11.5918Q11.3379-11.5918 11.1133-11.3574Q10.8887-11.123 10.8887-10.752L10.8887-7.88086L8.01758-7.88086Q7.63672-7.88086 7.40723-7.65137Q7.17773-7.42188 7.17773-7.05078Z"/>
  </g>
  <g transform="matrix(1 0 0 1 305.646 1933)">
   <path d="M14.9707 5.66406Q17.0605 5.66406 18.96 5.01465Q20.8594 4.36523 22.4512 3.19336Q24.043 2.02148 25.2197 0.429688Q26.3965-1.16211 27.0459-3.06641Q27.6953-4.9707 27.6953-7.05078Q27.6953-9.14062 27.0459-11.04Q26.3965-12.9395 25.2197-14.5312Q24.043-16.123 22.4512-17.2998Q20.8594-18.4766 18.9551-19.126Q17.0508-19.7754 14.9609-19.7754Q12.8711-19.7754 10.9717-19.126Q9.07227-18.4766 7.48535-17.2998Q5.89844-16.123 4.72168-14.5312Q3.54492-12.9395 2.90039-11.04Q2.25586-9.14062 2.25586-7.05078Q2.25586-4.9707 2.90527-3.06641Q3.55469-1.16211 4.72656 0.429688Q5.89844 2.02148 7.49023 3.19336Q9.08203 4.36523 10.9814 5.01465Q12.8809 5.66406 14.9707 5.66406ZM14.9707 3.84766Q13.1641 3.84766 11.5283 3.2959Q9.89258 2.74414 8.53516 1.74805Q7.17773 0.751953 6.17676-0.610352Q5.17578-1.97266 4.62891-3.6084Q4.08203-5.24414 4.08203-7.05078Q4.08203-8.86719 4.62891-10.5029Q5.17578-12.1387 6.17188-13.501Q7.16797-14.8633 8.52539-15.8594Q9.88281-16.8555 11.5186-17.4023Q13.1543-17.9492 14.9609-17.9492Q16.7773-17.9492 18.4131-17.4023Q20.0488-16.8555 21.4111-15.8594Q22.7734-14.8633 23.7695-13.501Q24.7656-12.1387 25.3174-10.5029Q25.8691-8.86719 25.8691-7.05078Q25.8789-5.24414 25.332-3.6084Q24.7852-1.97266 23.7842-0.610352Q22.7832 0.751953 21.4209 1.74805Q20.0586 2.74414 18.4229 3.2959Q16.7871 3.84766 14.9707 3.84766ZM9.19922-7.05078Q9.19922-6.66992 9.45801-6.4209Q9.7168-6.17188 10.1172-6.17188L14.0625-6.17188L14.0625-2.2168Q14.0625-1.81641 14.3115-1.55762Q14.5605-1.29883 14.9512-1.29883Q15.3516-1.29883 15.6104-1.55273Q15.8691-1.80664 15.8691-2.2168L15.8691-6.17188L19.8242-6.17188Q20.2246-6.17188 20.4785-6.4209Q20.7324-6.66992 20.7324-7.05078Q20.7324-7.46094 20.4785-7.71484Q20.2246-7.96875 19.8242-7.96875L15.8691-7.96875L15.8691-11.9141Q15.8691-12.3242 15.6104-12.583Q15.3516-12.8418 14.9512-12.8418Q14.5605-12.8418 14.3115-12.583Q14.0625-12.3242 14.0625-11.9141L14.0625-7.96875L10.1172-7.96875Q9.70703-7.96875 9.45312-7.71484Q9.19922-7.46094 9.19922-7.05078Z"/>
  </g>
  <text style="stroke:none;fill:black;font-family:sans-serif;font-size:13;font-weight:bold;" transform="matrix(1 0 0 1 263 1953)">Design Variations</text>
  <text style="stroke:none;fill:black;font-family:sans-serif;font-size:13;" transform="matrix(1 0 0 1 263 1971)">Symbols are supported in up to nine weights and three scales.</text>
  <text style="stroke:none;fill:black;font-family:sans-serif;font-size:13;" transform="matrix(1 0 0 1 263 1989)">For optimal layout with text and other symbols, vertically align</text>
  <text style="stroke:none;fill:black;font-family:sans-serif;font-size:13;" transform="matrix(1 0 0 1 263 2007)">symbols with the adjacent text.</text>
  <line style="fill:none;stroke:#00AEEF;stroke-width:0.5;opacity:1.0;" x1="776" x2="776" y1="1919" y2="1933"/>
  <g transform="matrix(1 0 0 1 776 1933)">
   <path d="M3.31055 0.15625Q3.70117 0.15625 3.91602-0.00976562Q4.13086-0.175781 4.26758-0.585938L5.52734-4.0332L11.2891-4.0332L12.5488-0.585938Q12.6855-0.175781 12.9004-0.00976562Q13.1152 0.15625 13.4961 0.15625Q13.8867 0.15625 14.1162-0.0585938Q14.3457-0.273438 14.3457-0.644531Q14.3457-0.869141 14.2383-1.17188L9.6582-13.3691Q9.48242-13.8184 9.17969-14.043Q8.87695-14.2676 8.4082-14.2676Q7.5-14.2676 7.17773-13.3789L2.59766-1.16211Q2.49023-0.859375 2.49023-0.634766Q2.49023-0.263672 2.70996-0.0537109Q2.92969 0.15625 3.31055 0.15625ZM6.00586-5.51758L8.37891-12.0898L8.42773-12.0898L10.8008-5.51758Z"/>
  </g>
  <line style="fill:none;stroke:#00AEEF;stroke-width:0.5;opacity:1.0;" x1="793.197" x2="793.197" y1="1919" y2="1933"/>
  <text style="stroke:none;fill:black;font-family:sans-serif;font-size:13;font-weight:bold;" transform="matrix(1 0 0 1 776 1953)">Margins</text>
  <text style="stroke:none;fill:black;font-family:sans-serif;font-size:13;" transform="matrix(1 0 0 1 776 1971)">Leading and trailing margins on the left and right side of each symbol</text>
  <text style="stroke:none;fill:black;font-family:sans-serif;font-size:13;" transform="matrix(1 0 0 1 776 1989)">can be adjusted by modifying the x-location of the margin guidelines.</text>
  <text style="stroke:none;fill:black;font-family:sans-serif;font-size:13;" transform="matrix(1 0 0 1 776 2007)">Modifications are automatically applied proportionally to all</text>
  <text style="stroke:none;fill:black;font-family:sans-serif;font-size:13;" transform="matrix(1 0 0 1 776 2025)">scales and weights.</text>
  <g transform="matrix(1 0 0 1 1289 1933)">
   <path d="M2.8418 1.86523L4.54102 3.57422Q5.18555 4.22852 5.90332 4.17969Q6.62109 4.13086 7.31445 3.35938L18.0078-8.42773L17.041-9.4043L6.42578 2.27539Q6.16211 2.57812 5.89355 2.61719Q5.625 2.65625 5.27344 2.30469L4.10156 1.14258Q3.75 0.791016 3.79395 0.522461Q3.83789 0.253906 4.14062-0.0195312L15.6152-10.8203L14.6387-11.7871L3.04688-0.898438Q2.30469-0.214844 2.25098 0.498047Q2.19727 1.21094 2.8418 1.86523ZM9.25781-16.3281Q8.94531-16.0254 8.90625-15.6348Q8.86719-15.2441 9.04297-14.9512Q9.21875-14.6777 9.55566-14.541Q9.89258-14.4043 10.3809-14.5215Q11.4746-14.7754 12.5977-14.7314Q13.7207-14.6875 14.7949-13.9844L14.209-12.5293Q13.9551-11.9043 14.0674-11.4404Q14.1797-10.9766 14.5801-10.5664L16.875-8.25195Q17.2363-7.88086 17.5781-7.82227Q17.9199-7.76367 18.3398-7.8418L19.4043-8.03711L20.0684-7.36328L20.0293-6.80664Q20-6.43555 20.1221-6.12305Q20.2441-5.81055 20.6055-5.44922L21.3672-4.70703Q21.7285-4.3457 22.1533-4.33105Q22.5781-4.31641 22.9297-4.66797L25.8398-7.58789Q26.1914-7.93945 26.1816-8.35449Q26.1719-8.76953 25.8105-9.13086L25.0391-9.89258Q24.6875-10.2539 24.3799-10.3857Q24.0723-10.5176 23.7109-10.4883L23.1348-10.4395L22.4902-11.0742L22.7344-12.1973Q22.832-12.6172 22.6953-12.9834Q22.5586-13.3496 22.1191-13.7891L19.9219-15.9766Q18.6719-17.2168 17.2607-17.8369Q15.8496-18.457 14.4189-18.4814Q12.9883-18.5059 11.665-17.959Q10.3418-17.4121 9.25781-16.3281ZM10.752-15.957Q11.6602-16.6211 12.7002-16.9043Q13.7402-17.1875 14.8047-17.085Q15.8691-16.9824 16.8701-16.5137Q17.8711-16.0449 18.7012-15.2051L21.1328-12.793Q21.3086-12.6172 21.3525-12.4512Q21.3965-12.2852 21.3379-12.0312L21.0156-10.5469L22.5195-9.0625L23.5059-9.12109Q23.6914-9.13086 23.7891-9.09668Q23.8867-9.0625 24.0332-8.91602L24.6094-8.33984L22.168-5.89844L21.5918-6.47461Q21.4453-6.62109 21.4062-6.71875Q21.3672-6.81641 21.377-7.01172L21.4453-7.98828L19.9512-9.47266L18.4277-9.21875Q18.1836-9.16992 18.042-9.2041Q17.9004-9.23828 17.7148-9.41406L15.7129-11.416Q15.5176-11.5918 15.4932-11.7529Q15.4688-11.9141 15.5859-12.1875L16.4648-14.2773Q15.293-15.3711 13.8281-15.791Q12.3633-16.2109 10.8398-15.7617Q10.7227-15.7324 10.6885-15.8057Q10.6543-15.8789 10.752-15.957Z"/>
  </g>
  <text style="stroke:none;fill:black;font-family:sans-serif;font-size:13;font-weight:bold;" transform="matrix(1 0 0 1 1289 1953)">Exporting</text>
  <text style="stroke:none;fill:black;font-family:sans-serif;font-size:13;" transform="matrix(1 0 0 1 1289 1971)">Symbols should be outlined when exporting to ensure the</text>
  <text style="stroke:none;fill:black;font-family:sans-serif;font-size:13;" transform="matrix(1 0 0 1 1289 1989)">design is preserved when submitting to Xcode.</text>
  <text id="template-version" style="stroke:none;fill:black;font-family:sans-serif;font-size:13;text-anchor:end;" transform="matrix(1 0 0 1 3036 1933)">Template v.3.0</text>
  <text style="stroke:none;fill:black;font-family:sans-serif;font-size:13;text-anchor:end;" transform="matrix(1 0 0 1 3036 1951)">Requires Xcode 13 or greater</text>
  <text id="descriptive-name" style="stroke:none;fill:black;font-family:sans-serif;font-size:13;text-anchor:end;" transform="matrix(1 0 0 1 3036 1969)">Generated from mic</text>
  <text style="stroke:none;fill:black;font-family:sans-serif;font-size:13;text-anchor:end;" transform="matrix(1 0 0 1 3036 1987)">Typeset at 100 points</text>
  <text style="stroke:none;fill:black;font-family:sans-serif;font-size:13;" transform="matrix(1 0 0 1 263 726)">Small</text>
  <text style="stroke:none;fill:black;font-family:sans-serif;font-size:13;" transform="matrix(1 0 0 1 263 1156)">Medium</text>
  <text style="stroke:none;fill:black;font-family:sans-serif;font-size:13;" transform="matrix(1 0 0 1 263 1586)">Large</text>
 </g>
 <g id="Guides">
  <g id="H-reference" style="fill:#27AAE1;stroke:none;" transform="matrix(1 0 0 1 339 696)">
   <path d="M0.993347 0L3.6377 0L29.3282-67.1326L30.0301-67.1326L30.0301-70.459L28.1227-70.459ZM11.6882-24.4797L46.9818-24.4797L46.2311-26.7288L12.4382-26.7288ZM55.1193 0L57.7637 0L30.6381-70.459L29.4327-70.459L29.4327-67.1326Z"/>
  </g>
  <line id="Baseline-S" style="fill:none;stroke:#27AAE1;opacity:1;stroke-width:0.5;" x1="263" x2="3036" y1="696" y2="696"/>
  <line id="Capline-S" style="fill:none;stroke:#27AAE1;opacity:1;stroke-width:0.5;" x1="263" x2="3036" y1="625.541" y2="625.541"/>
  <g id="H-reference" style="fill:#27AAE1;stroke:none;" transform="matrix(1 0 0 1 339 1126)">
   <path d="M0.993347 0L3.6377 0L29.3282-67.1326L30.0301-67.1326L30.0301-70.459L28.1227-70.459ZM11.6882-24.4797L46.9818-24.4797L46.2311-26.7288L12.4382-26.7288ZM55.1193 0L57.7637 0L30.6381-70.459L29.4327-70.459L29.4327-67.1326Z"/>
  </g>
  <line id="Baseline-M" style="fill:none;stroke:#27AAE1;opacity:1;stroke-width:0.5;" x1="263" x2="3036" y1="1126" y2="1126"/>
  <line id="Capline-M" style="fill:none;stroke:#27AAE1;opacity:1;stroke-width:0.5;" x1="263" x2="3036" y1="1055.54" y2="1055.54"/>
  <g id="H-reference" style="fill:#27AAE1;stroke:none;" transform="matrix(1 0 0 1 339 1556)">
   <path d="M0.993347 0L3.6377 0L29.3282-67.1326L30.0301-67.1326L30.0301-70.459L28.1227-70.459ZM11.6882-24.4797L46.9818-24.4797L46.2311-26.7288L12.4382-26.7288ZM55.1193 0L57.7637 0L30.6381-70.459L29.4327-70.459L29.4327-67.1326Z"/>
  </g>
  <line id="Baseline-L" style="fill:none;stroke:#27AAE1;opacity:1;stroke-width:0.5;" x1="263" x2="3036" y1="1556" y2="1556"/>
  <line id="Capline-L" style="fill:none;stroke:#27AAE1;opacity:1;stroke-width:0.5;" x1="263" x2="3036" y1="1485.54" y2="1485.54"/>
  <line id="left-margin-Regular-M" style="fill:none;stroke:#00AEEF;stroke-width:0.5;opacity:1.0;" x1="1400.1" x2="1400.1" y1="1030.79" y2="1150.12"/>
  <line id="right-margin-Regular-M" style="fill:none;stroke:#00AEEF;stroke-width:0.5;opacity:1.0;" x1="1499.59" x2="1499.59" y1="1030.79" y2="1150.12"/>
 </g>
 <g id="Symbols">
  <g id="Black-L" transform="matrix(1 0 0 1 2858.37 1556)">
   <path d="M17.6326-41.7568Q17.6326-26.7029 23.9124-15.4313Q30.1923-4.15963 41.0747 2.64338Q51.9572 9.44639 65.7664 11.2236L65.7664 18.1605L43.5551 18.1605Q39.5178 18.1605 36.466 21.0261Q33.4142 23.8917 33.4142 27.9301Q33.4142 31.931 36.466 34.8258Q39.5178 37.7206 43.5551 37.7206L106.507 37.7206Q110.546 37.7206 113.587 34.8258Q116.627 31.931 116.627 27.9301Q116.627 23.8917 113.587 21.0261Q110.546 18.1605 106.507 18.1605L84.2752 18.1605L84.2752 11.2236Q98.0856 9.44639 108.978 2.64338Q119.871-4.15963 126.151-15.4313Q132.431-26.7029 132.431-41.7568L132.431-53.2423Q132.431-57.3016 129.496-60.0211Q126.561-62.7407 122.465-62.7407Q118.369-62.7407 115.386-60.0211Q112.404-57.3016 112.404-53.2423L112.404-42.3489Q112.404-31.6383 107.464-23.7325Q102.523-15.8267 94.071-11.5082Q85.6186-7.18971 75.0312-7.18971Q64.445-7.18971 55.9926-11.5082Q47.5402-15.8267 42.6-23.7325Q37.6599-31.6383 37.6599-42.3489L37.6599-53.2423Q37.6599-57.3016 34.6775-60.0211Q31.6951-62.7407 27.5774-62.7407Q23.4806-62.7407 20.5566-60.0211Q17.6326-57.3016 17.6326-53.2423ZM46.8806-46.2168Q46.8806-37.5143 50.5573-30.8745Q54.2339-24.2347 60.5884-20.4988Q66.9429-16.763 75.0312-16.763Q83.1207-16.763 89.4642-20.4988Q95.8077-24.2347 99.4953-30.8745Q103.183-37.5143 103.183-46.2168L103.183-84.1794Q103.183-92.8234 99.4953-99.4632Q95.8077-106.103 89.4642-109.868Q83.1207-113.633 75.0312-113.633Q66.9429-113.633 60.5884-109.868Q54.2339-106.103 50.5573-99.4632Q46.8806-92.8234 46.8806-84.1794ZM67.1403-45.3407L67.1403-85.0555Q67.1403-89.0012 69.1132-92.0264Q71.0861-95.0517 75.0312-95.0517Q78.9567-95.0517 80.9394-92.0556Q82.9221-89.0596 82.9221-85.0555L82.9221-45.3407Q82.9221-41.3365 80.9394-38.3405Q78.9567-35.3445 75.0312-35.3445Q71.0861-35.3445 69.1132-38.3405Q67.1403-41.3365 67.1403-45.3407Z"/>
  </g>
  <g id="Heavy-L" transform="matrix(1 0 0 1 2564.34 1556)">
   <path d="M17.965-41.4551Q17.965-27.0729 23.954-16.2259Q29.9429-5.37893 40.3879 1.16186Q50.8328 7.70265 64.2064 9.29341L64.2064 18.2225L41.6546 18.2225Q38.1374 18.2225 35.492 20.7161Q32.8466 23.2098 32.8466 26.7325Q32.8466 30.2408 35.492 32.7568Q38.1374 35.2728 41.6546 35.2728L103.036 35.2728Q106.558 35.2728 109.186 32.7568Q111.813 30.2408 111.813 26.7325Q111.813 23.2098 109.186 20.7161Q106.558 18.2225 103.036 18.2225L80.4535 18.2225L80.4535 9.29341Q93.8327 7.70265 104.293 1.16186Q114.753-5.37893 120.742-16.2259Q126.731-27.0729 126.731-41.4551L126.731-53.2107Q126.731-56.7637 124.175-59.1458Q121.618-61.5278 118.057-61.5278Q114.489-61.5278 111.906-59.1458Q109.323-56.7637 109.323-53.2107L109.323-41.9932Q109.323-31.2952 104.505-23.3525Q99.6874-15.4098 91.3391-11.0524Q82.9909-6.69507 72.3451-6.69507Q61.7048-6.69507 53.3566-11.0524Q45.0083-15.4098 40.1903-23.3525Q35.3723-31.2952 35.3723-41.9932L35.3723-53.2107Q35.3723-56.7637 32.7894-59.1458Q30.2065-61.5278 26.6089-61.5278Q23.0415-61.5278 20.5033-59.1458Q17.965-56.7637 17.965-53.2107ZM45.5164-45.4173Q45.5164-37.0832 48.9948-30.7145Q52.4732-24.3458 58.529-20.7583Q64.5849-17.1707 72.3451-17.1707Q80.1109-17.1707 86.1488-20.7583Q92.1867-24.3458 95.683-30.7145Q99.1793-37.0832 99.1793-45.4173L99.1793-83.8278Q99.1793-92.1172 95.683-98.4859Q92.1867-104.855 86.1488-108.465Q80.1109-112.074 72.3451-112.074Q64.5849-112.074 58.529-108.465Q52.4732-104.855 48.9948-98.4859Q45.5164-92.1172 45.5164-83.8278ZM63.0965-44.7479L63.0965-84.4971Q63.0965-89.1768 65.4835-92.4933Q67.8704-95.8097 72.3451-95.8097Q76.795-95.8097 79.1943-92.5156Q81.5936-89.2214 81.5936-84.4971L81.5936-44.7479Q81.5936-40.0236 79.1943-36.7296Q76.795-33.4355 72.3451-33.4355Q67.8704-33.4355 65.4835-36.7296Q63.0965-40.0236 63.0965-44.7479Z"/>
  </g>
  <g id="Bold-L" transform="matrix(1 0 0 1 2270.86 1556)">
   <path d="M18.3127-41.0936Q18.3127-27.5189 23.9629-17.1871Q29.6131-6.85533 39.5499-0.637297Q49.4867 5.58073 62.3596 6.93347L62.3596 18.3962L39.2958 18.3962Q36.4166 18.3962 34.2633 20.4363Q32.11 22.4764 32.11 25.3687Q32.11 28.2699 34.2633 30.3246Q36.4166 32.3793 39.2958 32.3793L98.9189 32.3793Q101.811 32.3793 103.939 30.3246Q106.067 28.2699 106.067 25.3687Q106.067 22.4764 103.939 20.4363Q101.811 18.3962 98.9189 18.3962L75.8171 18.3962L75.8171 6.93347Q88.7032 5.58073 98.659-0.637297Q108.615-6.85533 114.265-17.1871Q119.915-27.5189 119.915-41.0936L119.915-53.0978Q119.915-56.0282 117.82-57.9952Q115.725-59.9622 112.817-59.9622Q109.895-59.9622 107.797-57.9952Q105.698-56.0282 105.698-53.0978L105.698-41.5551Q105.698-30.8874 101.012-22.906Q96.3248-14.9247 88.081-10.5212Q79.8373-6.11764 69.1074-6.11764Q58.3906-6.11764 50.1468-10.5212Q41.903-14.9247 37.2163-22.906Q32.5295-30.8874 32.5295-41.5551L32.5295-53.0978Q32.5295-56.0282 30.431-57.9952Q28.3325-59.9622 25.3729-59.9622Q22.4513-59.9622 20.382-57.9952Q18.3127-56.0282 18.3127-53.0978ZM43.9153-44.523Q43.9153-36.6573 47.1478-30.6265Q50.3804-24.5958 56.0674-21.189Q61.7545-17.7821 69.1074-17.7821Q76.4736-17.7821 82.1349-21.189Q87.7963-24.5958 91.0544-30.6265Q94.3126-36.6573 94.3126-44.523L94.3126-83.5389Q94.3126-91.3754 91.0544-97.4061Q87.7963-103.437 82.1349-106.858Q76.4736-110.28 69.1074-110.28Q61.7545-110.28 56.0674-106.858Q50.3804-103.437 47.1478-97.4061Q43.9153-91.3754 43.9153-83.5389ZM58.2357-44.0849L58.2357-83.9769Q58.2357-89.4964 61.1113-93.1814Q63.9869-96.8665 69.1074-96.8665Q74.2028-96.8665 77.0909-93.196Q79.979-89.5256 79.979-83.9769L79.979-44.0849Q79.979-38.5363 77.0909-34.8659Q74.2028-31.1956 69.1074-31.1956Q63.9869-31.1956 61.1113-34.8659Q58.2357-38.5363 58.2357-44.0849Z"/>
  </g>
  <g id="Semibold-L" transform="matrix(1 0 0 1 1976.38 1556)">
   <path d="M18.5524-40.8443Q18.5524-27.8264 23.9691-17.8498Q29.3858-7.87315 38.9723-1.87762Q48.5587 4.1179 61.0864 5.30654L61.0864 18.5159L37.6697 18.5159Q35.2303 18.5159 33.4162 20.2433Q31.6021 21.9708 31.6021 24.4285Q31.6021 26.9111 33.4162 28.6478Q35.2303 30.3846 37.6697 30.3846L96.081 30.3846Q98.5387 30.3846 100.322 28.6478Q102.105 26.9111 102.105 24.4285Q102.105 21.9708 100.322 20.2433Q98.5387 18.5159 96.081 18.5159L72.6207 18.5159L72.6207 5.30654Q85.167 4.1179 94.7751-1.87762Q104.383-7.87315 109.8-17.8498Q115.217-27.8264 115.217-40.8443L115.217-53.0199Q115.217-55.5212 113.44-57.202Q111.663-58.8828 109.205-58.8828Q106.728-58.8828 104.964-57.202Q103.199-55.5212 103.199-53.0199L103.199-41.2531Q103.199-30.6063 98.603-22.5983Q94.0067-14.5903 85.8349-10.1549Q77.6632-5.71956 66.8753-5.71956Q56.1058-5.71956 47.934-10.1549Q39.7623-14.5903 35.166-22.5983Q30.5697-30.6063 30.5697-41.2531L30.5697-53.0199Q30.5697-55.5212 28.8051-57.202Q27.0406-58.8828 24.5207-58.8828Q22.0445-58.8828 20.2985-57.202Q18.5524-55.5212 18.5524-53.0199ZM42.8115-43.9064Q42.8115-36.3636 45.8746-30.5659Q48.9376-24.7682 54.3704-21.4859Q59.8032-18.2036 66.8753-18.2036Q73.9661-18.2036 79.3678-21.4859Q84.7695-24.7682 87.8635-30.5659Q90.9575-36.3636 90.9575-43.9064L90.9575-83.3397Q90.9575-90.864 87.8635-96.6617Q84.7695-102.459 79.3678-105.751Q73.9661-109.043 66.8753-109.043Q59.8032-109.043 54.3704-105.751Q48.9376-102.459 45.8746-96.6617Q42.8115-90.864 42.8115-83.3397ZM54.8847-43.6278L54.8847-83.6183Q54.8847-89.7167 58.0972-93.6559Q61.3096-97.595 66.8753-97.595Q72.4158-97.595 75.6409-93.6651Q78.8659-89.7353 78.8659-83.6183L78.8659-43.6278Q78.8659-37.5109 75.6409-33.5812Q72.4158-29.6515 66.8753-29.6515Q61.3096-29.6515 58.0972-33.5812Q54.8847-37.5109 54.8847-43.6278Z"/>
  </g>
  <g id="Medium-L" transform="matrix(1 0 0 1 1681.36 1556)">
   <path d="M18.7342-40.6553Q18.7342-28.0596 23.9738-18.3522Q29.2134-8.6449 38.5342-2.81809Q47.8551 3.00871 60.121 4.07294L60.121 18.6067L36.4367 18.6067Q34.3308 18.6067 32.7739 20.097Q31.2171 21.5874 31.2171 23.7156Q31.2171 25.8809 32.7739 27.3765Q34.3308 28.8721 36.4367 28.8721L93.9291 28.8721Q96.0573 28.8721 97.5792 27.3765Q99.1011 25.8809 99.1011 23.7156Q99.1011 21.5874 97.5792 20.097Q96.0573 18.6067 93.9291 18.6067L70.1971 18.6067L70.1971 4.07294Q82.4857 3.00871 91.8302-2.81809Q101.175-8.6449 106.414-18.3522Q111.654-28.0596 111.654-40.6553L111.654-52.9609Q111.654-55.1367 110.118-56.6006Q108.582-58.0644 106.466-58.0644Q104.327-58.0644 102.816-56.6006Q101.304-55.1367 101.304-52.9609L101.304-41.0241Q101.304-30.3931 96.7766-22.3649Q92.249-14.3367 84.1318-9.87719Q76.0147-5.41772 65.1829-5.41772Q54.3733-5.41772 46.2562-9.87719Q38.1391-14.3367 33.6114-22.3649Q29.0837-30.3931 29.0837-41.0241L29.0837-52.9609Q29.0837-55.1367 27.5723-56.6006Q26.061-58.0644 23.8746-58.0644Q21.736-58.0644 20.2351-56.6006Q18.7342-55.1367 18.7342-52.9609ZM41.9746-43.4389Q41.9746-36.141 44.9091-30.5199Q47.8437-24.8989 53.0836-21.711Q58.3236-18.5232 65.1829-18.5232Q72.0648-18.5232 77.2696-21.711Q82.4745-24.8989 85.444-30.5199Q88.4135-36.141 88.4135-43.4389L88.4135-83.1887Q88.4135-90.4762 85.444-96.0972Q82.4745-101.718 77.2696-104.911Q72.0648-108.104 65.1829-108.104Q58.3236-108.104 53.0836-104.911Q47.8437-101.718 44.9091-96.0972Q41.9746-90.4762 41.9746-83.1887ZM52.3439-43.2812L52.3439-83.3464Q52.3439-89.8837 55.8117-94.0156Q59.2796-98.1474 65.1829-98.1474Q71.0608-98.1474 74.5414-94.0208Q78.0219-89.8943 78.0219-83.3464L78.0219-43.2812Q78.0219-36.7334 74.5414-32.607Q71.0608-28.4806 65.1829-28.4806Q59.2796-28.4806 55.8117-32.607Q52.3439-36.7334 52.3439-43.2812Z"/>
  </g>
  <g id="Regular-L" transform="matrix(1 0 0 1 1386.86 1556)">
   <path d="M18.9713-40.4088Q18.9713-28.3637 23.9799-19.0076Q28.9886-9.65153 37.9629-4.04479Q46.9373 1.56195 58.8618 2.46389L58.8618 18.7251L34.8284 18.7251Q33.1575 18.7251 31.9361 19.9062Q30.7148 21.0873 30.7148 22.7857Q30.7148 24.537 31.9361 25.7181Q33.1575 26.8993 34.8284 26.8993L91.1223 26.8993Q92.8207 26.8993 94.0018 25.7181Q95.1829 24.537 95.1829 22.7857Q95.1829 21.0873 94.0018 19.9062Q92.8207 18.7251 91.1223 18.7251L67.0359 18.7251L67.0359 2.46389Q78.9883 1.56195 87.989-4.04479Q96.9896-9.65153 101.998-19.0076Q107.007-28.3637 107.007-40.4088L107.007-52.8839Q107.007-54.6352 105.786-55.8161Q104.564-56.997 102.893-56.997Q101.195-56.997 100.014-55.8161Q98.8327-54.6352 98.8327-52.8839L98.8327-40.7254Q98.8327-30.115 94.3945-22.0605Q89.9563-14.0059 81.9104-9.51496Q73.8645-5.02401 62.9754-5.02401Q52.1136-5.02401 44.0677-9.51496Q36.0218-14.0059 31.5837-22.0605Q27.1455-30.115 27.1455-40.7254L27.1455-52.8839Q27.1455-54.6352 25.9644-55.8161Q24.7832-56.997 23.0319-56.997Q21.3335-56.997 20.1524-55.8161Q18.9713-54.6352 18.9713-52.8839ZM40.8829-42.8292Q40.8829-35.8505 43.6498-30.4599Q46.4168-25.0693 51.4053-22.0047Q56.3938-18.9401 62.9754-18.9401Q69.5848-18.9401 74.5329-22.0047Q79.481-25.0693 82.2881-30.4599Q85.0952-35.8505 85.0952-42.8292L85.0952-82.9917Q85.0952-89.9704 82.2881-95.361Q79.481-100.752 74.5329-103.816Q69.5848-106.881 62.9754-106.881Q56.3938-106.881 51.4053-103.816Q46.4168-100.752 43.6498-95.361Q40.8829-89.9704 40.8829-82.9917ZM49.0297-42.8292L49.0297-82.9917Q49.0297-90.1016 52.8307-94.4848Q56.6317-98.868 62.9754-98.868Q69.2934-98.868 73.1072-94.4848Q76.921-90.1016 76.921-82.9917L76.921-42.8292Q76.921-35.7193 73.1072-31.3364Q69.2934-26.9534 62.9754-26.9534Q56.6317-26.9534 52.8307-31.3364Q49.0297-35.7193 49.0297-42.8292Z"/>
  </g>
  <g id="Light-L" transform="matrix(1 0 0 1 1091.8 1556)">
   <path d="M18.7994-40.2369Q18.7994-28.5926 23.7127-19.5229Q28.6259-10.4532 37.4667-5.0563Q46.3075 0.340572 58.1364 1.03249L58.1364 19.4693L33.168 19.4693Q31.8979 19.4693 30.9437 20.3834Q29.9895 21.2974 29.9895 22.6138Q29.9895 23.9643 30.9437 24.8784Q31.8979 25.7924 33.168 25.7924L89.462 25.7924Q90.7784 25.7924 91.6924 24.8784Q92.6064 23.9643 92.6064 22.6138Q92.6064 21.2974 91.6924 20.3834Q90.7784 19.4693 89.462 19.4693L64.4595 19.4693L64.4595 1.03249Q76.3356 0.340572 85.193-5.0563Q94.0504-10.4532 98.9637-19.5229Q103.877-28.5926 103.877-40.2369L103.877-52.3304Q103.877-53.6809 102.923-54.5945Q101.968-55.5082 100.698-55.5082Q99.3819-55.5082 98.4679-54.5945Q97.5539-53.6809 97.5539-52.3304L97.5539-40.4391Q97.5539-29.9432 93.0775-21.9077Q88.6012-13.8722 80.4694-9.36217Q72.3375-4.85214 61.315-4.85214Q50.3388-4.85214 42.207-9.36217Q34.0751-13.8722 29.5988-21.9077Q25.1225-29.9432 25.1225-40.4391L25.1225-52.3304Q25.1225-53.6809 24.2084-54.5945Q23.2944-55.5082 21.9439-55.5082Q20.6275-55.5082 19.7134-54.5945Q18.7994-53.6809 18.7994-52.3304ZM40.3484-42.8292Q40.3484-36.2514 42.9436-31.1088Q45.5388-25.9662 50.2793-23.0066Q55.0198-20.047 61.315-20.047Q67.6574-20.047 72.3572-23.0066Q77.0571-25.9662 79.6925-31.1088Q82.328-36.2514 82.328-42.8292L82.328-83.736Q82.328-90.3138 79.6925-95.4564Q77.0571-100.599 72.3572-103.559Q67.6574-106.518 61.315-106.518Q55.0198-106.518 50.2793-103.559Q45.5388-100.599 42.9436-95.4564Q40.3484-90.3138 40.3484-83.736ZM46.6251-42.8292L46.6251-83.736Q46.6251-90.9796 50.6073-95.6682Q54.5895-100.357 61.315-100.357Q68.0528-100.357 72.0289-95.6682Q76.0049-90.9796 76.0049-83.736L76.0049-42.8292Q76.0049-35.5856 72.0289-30.8974Q68.0528-26.2092 61.315-26.2092Q54.5895-26.2092 50.6073-30.8974Q46.6251-35.5856 46.6251-42.8292Z"/>
  </g>
  <g id="Thin-L" transform="matrix(1 0 0 1 797.267 1556)">
   <path d="M18.5721-40.0096Q18.5721-28.8954 23.3592-20.2044Q28.1463-11.5134 36.8104-6.3941Q45.4746-1.2748 57.1771-0.860666L57.1771 20.4537L30.9721 20.4537Q30.2321 20.4537 29.6311 21.0144Q29.0302 21.5751 29.0302 22.3865Q29.0302 23.2069 29.6311 23.7677Q30.2321 24.3284 30.9721 24.3284L87.266 24.3284Q88.0774 24.3284 88.6381 23.7677Q89.1989 23.2069 89.1989 22.3865Q89.1989 21.5751 88.6381 21.0144Q88.0774 20.4537 87.266 20.4537L61.0519 20.4537L61.0519-0.860666Q72.827-1.2748 81.4951-6.3941Q90.1632-11.5134 94.9503-20.2044Q99.7373-28.8954 99.7373-40.0096L99.7373-51.5984Q99.7373-52.4188 99.1364-52.979Q98.5354-53.5391 97.7954-53.5391Q96.9841-53.5391 96.4233-52.979Q95.8626-52.4188 95.8626-51.5984L95.8626-40.0603Q95.8626-29.7158 91.3358-21.7056Q86.809-13.6954 78.5635-9.16009Q70.318-4.62483 59.119-4.62483Q47.9914-4.62483 39.746-9.16009Q31.5005-13.6954 26.9737-21.7056Q22.4469-29.7158 22.4469-40.0603L22.4469-51.5984Q22.4469-52.4188 21.8861-52.979Q21.3254-53.5391 20.505-53.5391Q19.6936-53.5391 19.1329-52.979Q18.5721-52.4188 18.5721-51.5984ZM39.6414-42.8292Q39.6414-36.7815 42.0095-31.9669Q44.3776-27.1524 48.7901-24.3317Q53.2025-21.511 59.119-21.511Q65.1081-21.511 69.4798-24.3317Q73.8514-27.1524 76.2597-31.9669Q78.668-36.7815 78.668-42.8292L78.668-84.7203Q78.668-90.768 76.2597-95.5826Q73.8514-100.397 69.4798-103.218Q65.1081-106.039 59.119-106.039Q53.2025-106.039 48.7901-103.218Q44.3776-100.397 42.0095-95.5826Q39.6414-90.768 39.6414-84.7203ZM43.4448-42.8292L43.4448-84.7203Q43.4448-92.1407 47.6666-97.2333Q51.8884-102.326 59.119-102.326Q66.412-102.326 70.6026-97.2333Q74.7933-92.1407 74.7933-84.7203L74.7933-42.8292Q74.7933-35.4087 70.6026-30.3168Q66.412-25.2249 59.119-25.2249Q51.8884-25.2249 47.6666-30.3168Q43.4448-35.4087 43.4448-42.8292Z"/>
  </g>
  <g id="Ultralight-L" transform="matrix(1 0 0 1 501.675 1556)">
   <path d="M18.4557-39.8932Q18.4557-29.0505 23.1781-20.5535Q27.9006-12.0564 36.4743-7.07932Q45.0479-2.10218 56.6858-1.83033L56.6858 20.9578L29.8473 20.9578Q29.3789 20.9578 28.9588 21.3376Q28.5388 21.7174 28.5388 22.2701Q28.5388 22.819 28.9588 23.1988Q29.3789 23.5786 29.8473 23.5786L86.1413 23.5786Q86.6939 23.5786 87.0737 23.1988Q87.4535 22.819 87.4535 22.2701Q87.4535 21.7174 87.0737 21.3376Q86.6939 20.9578 86.1413 20.9578L59.3065 20.9578L59.3065-1.83033Q71.03-2.10218 79.6011-7.07932Q88.1722-12.0564 92.8946-20.5535Q97.6171-29.0505 97.6171-39.8932L97.6171-51.2235Q97.6171-51.7724 97.1971-52.1515Q96.777-52.5306 96.3086-52.5306Q95.7559-52.5306 95.3761-52.1515Q94.9963-51.7724 94.9963-51.2235L94.9963-39.8664Q94.9963-29.5994 90.4437-21.6021Q85.891-13.6048 77.5873-9.05659Q69.2836-4.5084 57.9943-4.5084Q46.7891-4.5084 38.4854-9.05659Q30.1817-13.6048 25.6291-21.6021Q21.0764-29.5994 21.0764-39.8664L21.0764-51.2235Q21.0764-51.7724 20.6966-52.1515Q20.3168-52.5306 19.7679-52.5306Q19.2153-52.5306 18.8355-52.1515Q18.4557-51.7724 18.4557-51.2235ZM39.2793-42.8292Q39.2793-37.053 41.5311-32.4065Q43.7829-27.7599 48.0273-25.0104Q52.2717-22.2608 57.9943-22.2608Q63.8024-22.2608 68.0059-25.0104Q72.2094-27.7599 74.5014-32.4065Q76.7934-37.053 76.7934-42.8292L76.7934-85.2245Q76.7934-91.0007 74.5014-95.6472Q72.2094-100.294 68.0059-103.043Q63.8024-105.793 57.9943-105.793Q52.2717-105.793 48.0273-103.043Q43.7829-100.294 41.5311-95.6472Q39.2793-91.0007 39.2793-85.2245ZM41.8159-42.8292L41.8159-85.2245Q41.8159-92.7355 46.1604-98.0349Q50.5049-103.334 57.9943-103.334Q65.5716-103.334 69.8721-98.0349Q74.1727-92.7355 74.1727-85.2245L74.1727-42.8292Q74.1727-35.3182 69.8721-30.0194Q65.5716-24.7207 57.9943-24.7207Q50.5049-24.7207 46.1604-30.0194Q41.8159-35.3182 41.8159-42.8292Z"/>
  </g>
  <g id="Black-M" transform="matrix(1 0 0 1 2873.19 1126)">
   <path d="M13.3518-40.5224Q13.3518-28.3366 18.4541-19.2778Q23.5564-10.2191 32.3454-4.75157Q41.1345 0.715934 52.1945 2.22458L52.1945 6.18157L35.1523 6.18157Q31.6318 6.18157 28.9544 8.68514Q26.2769 11.1887 26.2769 14.7089Q26.2769 18.1775 28.9544 20.7096Q31.6318 23.2417 35.1523 23.2417L85.2746 23.2417Q88.7947 23.2417 91.4696 20.7096Q94.1445 18.1775 94.1445 14.7089Q94.1445 11.1887 91.4696 8.68514Q88.7947 6.18157 85.2746 6.18157L68.2269 6.18157L68.2269 2.22458Q79.2866 0.715934 88.0784-4.75157Q96.8702-10.2191 101.973-19.2778Q107.075-28.3366 107.075-40.5224L107.075-49.137Q107.075-52.6626 104.512-55.0235Q101.948-57.3843 98.3707-57.3843Q94.7934-57.3843 92.1757-55.0235Q89.5579-52.6626 89.5579-49.137L89.5579-41.0122Q89.5579-32.7187 85.6204-26.6281Q81.683-20.5375 75.0334-17.2226Q68.3838-13.9077 60.2134-13.9077Q52.0428-13.9077 45.3932-17.2226Q38.7436-20.5375 34.8061-26.6281Q30.8687-32.7187 30.8687-41.0122L30.8687-49.137Q30.8687-52.6626 28.2509-55.0235Q25.6331-57.3843 22.0504-57.3843Q18.4731-57.3843 15.9124-55.0235Q13.3518-52.6626 13.3518-49.137ZM37.4204-44.4289Q37.4204-37.4244 40.416-32.0809Q43.4116-26.7374 48.5577-23.7298Q53.7038-20.7222 60.2134-20.7222Q66.7227-20.7222 71.8663-23.7298Q77.0098-26.7374 80.008-32.0809Q83.0061-37.4244 83.0061-44.4289L83.0061-73.556Q83.0061-80.5034 80.008-85.8469Q77.0098-91.1903 71.8663-94.2265Q66.7227-97.2626 60.2134-97.2626Q53.7038-97.2626 48.5577-94.2265Q43.4116-91.1903 40.416-85.8469Q37.4204-80.5034 37.4204-73.556ZM55.166-43.5724L55.166-74.4124Q55.166-76.8567 56.3631-78.9916Q57.5602-81.1265 60.2134-81.1265Q62.8608-81.1265 64.0609-79.0201Q65.2609-76.9138 65.2609-74.4124L65.2609-43.5724Q65.2609-41.071 64.0609-38.9647Q62.8608-36.8584 60.2134-36.8584Q57.5602-36.8584 56.3631-38.9647Q55.166-41.071 55.166-43.5724Z"/>
  </g>
  <g id="Heavy-M" transform="matrix(1 0 0 1 2578.95 1126)">
   <path d="M13.6926-40.2434Q13.6926-28.6772 18.5193-20.0071Q23.3461-11.3371 31.7197-6.10654Q40.0934-0.876016 50.7364 0.469748L50.7364 6.17348L33.4476 6.17348Q30.3986 6.17348 28.0938 8.33809Q25.789 10.5027 25.789 13.554Q25.789 16.5781 28.0938 18.7645Q30.3986 20.9509 33.4476 20.9509L82.0338 20.9509Q85.0851 20.9509 87.3806 18.7645Q89.676 16.5781 89.676 13.554Q89.676 10.5027 87.3806 8.33809Q85.0851 6.17348 82.0338 6.17348L64.7286 6.17348L64.7286 0.469748Q75.3739-0.876016 83.7557-6.10654Q92.1376-11.3371 96.9644-20.0071Q101.791-28.6772 101.791-40.2434L101.791-49.1571Q101.791-52.2249 99.5735-54.2804Q97.356-56.3359 94.2633-56.3359Q91.1684-56.3359 88.9165-54.2804Q86.6647-52.2249 86.6647-49.1571L86.6647-40.6908Q86.6647-32.3993 82.8501-26.2708Q79.0356-20.1423 72.4957-16.7912Q65.9559-13.44 57.7407-13.44Q49.5278-13.44 42.9879-16.7912Q36.4481-20.1423 32.6335-26.2708Q28.819-32.3993 28.819-40.6908L28.819-49.1571Q28.819-52.2249 26.5671-54.2804Q24.3153-56.3359 21.2039-56.3359Q18.109-56.3359 15.9008-54.2804Q13.6926-52.2249 13.6926-49.1571ZM36.1361-43.6473Q36.1361-36.966 38.9537-31.8646Q41.7713-26.7633 46.6484-23.891Q51.5255-21.0187 57.7407-21.0187Q63.9582-21.0187 68.8259-23.891Q73.6937-26.7633 76.5206-31.8646Q79.3476-36.966 79.3476-43.6473L79.3476-73.1437Q79.3476-79.7814 76.5206-84.8827Q73.6937-89.9841 68.8259-92.8782Q63.9582-95.7723 57.7407-95.7723Q51.5255-95.7723 46.6484-92.8782Q41.7713-89.9841 38.9537-84.8827Q36.1361-79.7814 36.1361-73.1437ZM51.4347-42.993L51.4347-73.798Q51.4347-76.9474 53.02-79.3388Q54.6052-81.7302 57.7407-81.7302Q60.8621-81.7302 62.4544-79.3606Q64.0467-76.991 64.0467-73.798L64.0467-42.993Q64.0467-39.8 62.4544-37.4304Q60.8621-35.0609 57.7407-35.0609Q54.6052-35.0609 53.02-37.4304Q51.4347-39.8 51.4347-42.993Z"/>
  </g>
  <g id="Bold-M" transform="matrix(1 0 0 1 2285 1126)">
   <path d="M14.0738-39.9312Q14.0738-29.0582 18.5923-20.823Q23.1108-12.5877 31.0198-7.62228Q38.9288-2.65684 49.1052-1.49329L49.1052 6.16443L31.5407 6.16443Q29.019 6.16443 27.1311 7.94985Q25.2431 9.73527 25.2431 12.2621Q25.2431 14.789 27.1311 16.5887Q29.019 18.3884 31.5407 18.3884L78.4085 18.3884Q80.9353 18.3884 82.8064 16.5887Q84.6774 14.789 84.6774 12.2621Q84.6774 9.73527 82.8064 7.94985Q80.9353 6.16443 78.4085 6.16443L60.8153 6.16443L60.8153-1.49329Q70.9969-2.65684 78.9202-7.62228Q86.8435-12.5877 91.362-20.823Q95.8805-29.0582 95.8805-39.9312L95.8805-49.1797Q95.8805-51.7352 94.0497-53.4492Q92.2188-55.1632 89.6686-55.1632Q87.1132-55.1632 85.2707-53.4492Q83.4282-51.7352 83.4282-49.1797L83.4282-40.3314Q83.4282-32.0419 79.7511-25.871Q76.0741-19.7002 69.657-16.3085Q63.2399-12.9169 54.9746-12.9169Q46.7144-12.9169 40.2973-16.3085Q33.8803-19.7002 30.2032-25.871Q26.5261-32.0419 26.5261-40.3314L26.5261-49.1797Q26.5261-51.7352 24.6836-53.4492Q22.8411-55.1632 20.2571-55.1632Q17.7017-55.1632 15.8878-53.4492Q14.0738-51.7352 14.0738-49.1797ZM34.6994-42.7731Q34.6994-36.4533 37.3179-31.6227Q39.9365-26.7922 44.5126-24.0713Q49.0887-21.3504 54.9746-21.3504Q60.8657-21.3504 65.4249-24.0713Q69.9841-26.7922 72.6195-31.6227Q75.2549-36.4533 75.2549-42.7731L75.2549-72.6824Q75.2549-78.9736 72.6195-83.8042Q69.9841-88.6348 65.4249-91.3699Q60.8657-94.105 54.9746-94.105Q49.0887-94.105 44.5126-91.3699Q39.9365-88.6348 37.3179-83.8042Q34.6994-78.9736 34.6994-72.6824ZM47.2608-42.3449L47.2608-73.1106Q47.2608-77.0488 49.2801-79.7272Q51.2995-82.4055 54.9746-82.4055Q58.6262-82.4055 60.6573-79.7414Q62.6884-77.0774 62.6884-73.1106L62.6884-42.3449Q62.6884-38.3781 60.6573-35.7141Q58.6262-33.0501 54.9746-33.0501Q51.2995-33.0501 49.2801-35.7141Q47.2608-38.3781 47.2608-42.3449Z"/>
  </g>
  <g id="Semibold-M" transform="matrix(1 0 0 1 1990.2 1126)">
   <path d="M14.3366-39.716Q14.3366-29.3209 18.6426-21.3854Q22.9487-13.4499 30.5373-8.66722Q38.1259-3.88453 47.9808-2.84659L47.9808 6.15819L30.2261 6.15819Q28.068 6.15819 26.4674 7.68221Q24.8668 9.20622 24.8668 11.3714Q24.8668 13.5556 26.4674 15.0887Q28.068 16.6218 30.2261 16.6218L75.9093 16.6218Q78.0745 16.6218 79.6529 15.0887Q81.2314 13.5556 81.2314 11.3714Q81.2314 9.20622 79.6529 7.68221Q78.0745 6.15819 75.9093 6.15819L58.1175 6.15819L58.1175-2.84659Q67.9795-3.88453 75.5866-8.66722Q83.1937-13.4499 87.4998-21.3854Q91.8058-29.3209 91.8058-39.716L91.8058-49.1953Q91.8058-51.3976 90.2416-52.8761Q88.6773-54.3547 86.501-54.3547Q84.3177-54.3547 82.7573-52.8761Q81.197-51.3976 81.197-49.1953L81.197-40.0836Q81.197-31.7955 77.6147-25.5955Q74.0324-19.3954 67.7-15.9758Q61.3676-12.5562 53.0677-12.5562Q44.7749-12.5562 38.4424-15.9758Q32.11-19.3954 28.5277-25.5955Q24.9454-31.7955 24.9454-40.0836L24.9454-49.1953Q24.9454-51.3976 23.3851-52.8761Q21.8248-54.3547 19.6043-54.3547Q17.4209-54.3547 15.8788-52.8761Q14.3366-51.3976 14.3366-49.1953ZM33.7089-42.1704Q33.7089-36.0998 36.1902-31.456Q38.6715-26.8121 43.0402-24.1956Q47.4088-21.5791 53.0677-21.5791Q58.7337-21.5791 63.0802-24.1956Q67.4268-26.8121 69.9301-31.456Q72.4335-36.0998 72.4335-42.1704L72.4335-72.3644Q72.4335-78.4168 69.9301-83.0607Q67.4268-87.7045 63.0802-90.3301Q58.7337-92.9557 53.0677-92.9557Q47.4088-92.9557 43.0402-90.3301Q38.6715-87.7045 36.1902-83.0607Q33.7089-78.4168 33.7089-72.3644ZM44.3833-41.898L44.3833-72.6368Q44.3833-77.1188 46.7019-79.9949Q49.0206-82.871 53.0677-82.871Q57.0847-82.871 59.4184-80.004Q61.7521-77.1369 61.7521-72.6368L61.7521-41.898Q61.7521-37.3979 59.4184-34.5309Q57.0847-31.6639 53.0677-31.6639Q49.0206-31.6639 46.7019-34.5309Q44.3833-37.3979 44.3833-41.898Z"/>
  </g>
  <g id="Medium-M" transform="matrix(1 0 0 1 1694.93 1126)">
   <path d="M14.5359-39.5529Q14.5359-29.52 18.6808-21.8118Q22.8257-14.1036 30.1714-9.45953Q37.5172-4.81542 47.1281-3.87272L47.1281 6.15346L29.2293 6.15346Q27.3468 6.15346 25.9642 7.47926Q24.5815 8.80507 24.5815 10.6961Q24.5815 12.6203 25.9642 13.9513Q27.3468 15.2822 29.2293 15.2822L74.0142 15.2822Q75.9052 15.2822 77.2619 13.9513Q78.6185 12.6203 78.6185 10.6961Q78.6185 8.80507 77.2619 7.47926Q75.9052 6.15346 74.0142 6.15346L56.0719 6.15346L56.0719-3.87272Q65.6916-4.81542 73.059-9.45953Q80.4264-14.1036 84.5713-21.8118Q88.7162-29.52 88.7162-39.5529L88.7162-49.2071Q88.7162-51.1416 87.3541-52.4416Q85.992-53.7417 84.0992-53.7417Q82.1979-53.7417 80.8516-52.4416Q79.5052-51.1416 79.5052-49.2071L79.5052-39.8957Q79.5052-31.6087 75.9948-25.3865Q72.4843-19.1643 66.2161-15.7235Q59.9479-12.2827 51.6218-12.2827Q43.3042-12.2827 37.036-15.7235Q30.7678-19.1643 27.2573-25.3865Q23.7469-31.6087 23.7469-39.8957L23.7469-49.2071Q23.7469-51.1416 22.4005-52.4416Q21.0542-53.7417 19.1093-53.7417Q17.208-53.7417 15.872-52.4416Q14.5359-51.1416 14.5359-49.2071ZM32.9579-41.7134Q32.9579-35.8318 35.3351-31.3295Q37.7124-26.8272 41.9237-24.2898Q46.135-21.7525 51.6218-21.7525Q57.1172-21.7525 61.3024-24.2898Q65.4877-26.8272 67.8909-31.3295Q70.2942-35.8318 70.2942-41.7134L70.2942-72.1233Q70.2942-77.9946 67.8909-82.4969Q65.4877-86.9992 61.3024-89.5417Q57.1172-92.0842 51.6218-92.0842Q46.135-92.0842 41.9237-89.5417Q37.7124-86.9992 35.3351-82.4969Q32.9579-77.9946 32.9579-72.1233ZM42.2015-41.5592L42.2015-72.2775Q42.2015-77.1718 44.747-80.1979Q47.2926-83.224 51.6218-83.224Q55.916-83.224 58.479-80.203Q61.0421-77.1821 61.0421-72.2775L61.0421-41.5592Q61.0421-36.6546 58.479-33.6337Q55.916-30.6128 51.6218-30.6128Q47.2926-30.6128 44.747-33.6337Q42.2015-36.6546 42.2015-41.5592Z"/>
  </g>
  <g id="Regular-M" transform="matrix(1 0 0 1 1400.1 1126)">
   <path d="M14.7958-39.34Q14.7958-29.7798 18.7306-22.3681Q22.6653-14.9564 29.6942-10.493Q36.7231-6.02962 46.016-5.21116L46.016 6.14728L27.9292 6.14728Q26.4062 6.14728 25.3078 7.21456Q24.2094 8.28183 24.2094 9.81524Q24.2094 11.4005 25.3078 12.4678Q26.4062 13.535 27.9292 13.535L71.5424 13.535Q73.0758 13.535 74.1431 12.4678Q75.2104 11.4005 75.2104 9.81524Q75.2104 8.28183 74.1431 7.21456Q73.0758 6.14728 71.5424 6.14728L53.4038 6.14728L53.4038-5.21116Q62.7073-6.02962 69.762-10.493Q76.8167-14.9564 80.7515-22.3681Q84.6863-29.7798 84.6863-39.34L84.6863-49.2224Q84.6863-50.8077 83.5878-51.8749Q82.4894-52.9421 80.9665-52.9421Q79.4331-52.9421 78.3658-51.8749Q77.2985-50.8077 77.2985-49.2224L77.2985-39.6506Q77.2985-31.365 73.8818-25.114Q70.4651-18.8629 64.2806-15.3944Q58.0961-11.926 49.7358-11.926Q41.386-11.926 35.2015-15.3944Q29.017-18.8629 25.6003-25.114Q22.1836-31.365 22.1836-39.6506L22.1836-49.2224Q22.1836-50.8077 21.1163-51.8749Q20.049-52.9421 18.4638-52.9421Q16.9304-52.9421 15.8631-51.8749Q14.7958-50.8077 14.7958-49.2224ZM31.9783-41.1173Q31.9783-35.4822 34.2198-31.1646Q36.4613-26.8469 40.4675-24.4128Q44.4736-21.9786 49.7358-21.9786Q55.0086-21.9786 58.9835-24.4128Q62.9585-26.8469 65.2311-31.1646Q67.5038-35.4822 67.5038-41.1173L67.5038-71.8088Q67.5038-77.4439 65.2311-81.7615Q62.9585-86.0792 58.9835-88.5133Q55.0086-90.9475 49.7358-90.9475Q44.4736-90.9475 40.4675-88.5133Q36.4613-86.0792 34.2198-81.7615Q31.9783-77.4439 31.9783-71.8088ZM39.3556-41.1173L39.3556-71.8088Q39.3556-77.2409 42.1972-80.4627Q45.0387-83.6845 49.7358-83.6845Q54.3915-83.6845 57.2537-80.4627Q60.116-77.2409 60.116-71.8088L60.116-41.1173Q60.116-35.6852 57.2537-32.4635Q54.3915-29.2418 49.7358-29.2418Q45.0387-29.2418 42.1972-32.4635Q39.3556-35.6852 39.3556-41.1173Z"/>
  </g>
  <g id="Light-M" transform="matrix(1 0 0 1 1104.87 1126)">
   <path d="M14.6417-39.186Q14.6417-29.9851 18.4909-22.8301Q22.3402-15.6751 29.2493-11.3999Q36.1585-7.12464 45.3657-6.49449L45.3657 6.81454L26.4406 6.81454Q25.277 6.81454 24.418 7.64234Q23.5591 8.47014 23.5591 9.66115Q23.5591 10.887 24.418 11.7148Q25.277 12.5426 26.4406 12.5426L70.0539 12.5426Q71.2449 12.5426 72.0727 11.7148Q72.9005 10.887 72.9005 9.66115Q72.9005 8.47014 72.0727 7.64234Q71.2449 6.81454 70.0539 6.81454L51.0938 6.81454L51.0938-6.49449Q60.3289-7.12464 67.2553-11.3999Q74.1817-15.6751 78.0309-22.8301Q81.8801-29.9851 81.8801-39.186L81.8801-48.7263Q81.8801-49.9521 81.0212-50.7797Q80.1622-51.6073 78.9986-51.6073Q77.8076-51.6073 76.9798-50.7797Q76.152-49.9521 76.152-48.7263L76.152-39.3939Q76.152-31.211 72.7011-24.977Q69.2502-18.743 62.9886-15.2575Q56.7271-11.7719 48.2472-11.7719Q39.7948-11.7719 33.5332-15.2575Q27.2716-18.743 23.8207-24.977Q20.3698-31.211 20.3698-39.3939L20.3698-48.7263Q20.3698-49.9521 19.542-50.7797Q18.7142-51.6073 17.4883-51.6073Q16.2973-51.6073 15.4695-50.7797Q14.6417-49.9521 14.6417-48.7263ZM31.4991-41.1173Q31.4991-35.8416 33.5866-31.7463Q35.6742-27.651 39.458-25.311Q43.2417-22.971 48.2472-22.971Q53.2806-22.971 57.033-25.311Q60.7854-27.651 62.9041-31.7463Q65.0228-35.8416 65.0228-41.1173L65.0228-72.4761Q65.0228-77.7518 62.9041-81.8471Q60.7854-85.9424 57.033-88.2823Q53.2806-90.6223 48.2472-90.6223Q43.2417-90.6223 39.458-88.2823Q35.6742-85.9424 33.5866-81.8471Q31.4991-77.7518 31.4991-72.4761ZM37.1998-41.1173L37.1998-72.4761Q37.1998-78.0281 40.2038-81.5237Q43.2078-85.0193 48.2472-85.0193Q53.2792-85.0193 56.2869-81.5237Q59.2947-78.0281 59.2947-72.4761L59.2947-41.1173Q59.2947-35.5653 56.2869-32.0699Q53.2792-28.5745 48.2472-28.5745Q43.2078-28.5745 40.2038-32.0699Q37.1998-35.5653 37.1998-41.1173Z"/>
  </g>
  <g id="Thin-M" transform="matrix(1 0 0 1 810.119 1126)">
   <path d="M14.4379-38.9822Q14.4379-30.2565 18.174-23.4411Q21.9102-16.6256 28.661-12.5993Q35.4118-8.57291 44.5057-8.1918L44.5057 7.69703L24.4718 7.69703Q23.7835 7.69703 23.2412 8.20811Q22.699 8.71918 22.699 9.45735Q22.699 10.208 23.2412 10.719Q23.7835 11.2301 24.4718 11.2301L68.0851 11.2301Q68.8232 11.2301 69.3343 10.719Q69.8454 10.208 69.8454 9.45735Q69.8454 8.71918 69.3343 8.20811Q68.8232 7.69703 68.0851 7.69703L48.0387 7.69703L48.0387-8.1918Q57.1833-8.57291 63.9399-12.5993Q70.6966-16.6256 74.4327-23.4411Q78.1688-30.2565 78.1688-38.9822L78.1688-48.07Q78.1688-48.8206 77.6266-49.3313Q77.0843-49.8419 76.396-49.8419Q75.6579-49.8419 75.1468-49.3313Q74.6357-48.8206 74.6357-48.07L74.6357-39.0543Q74.6357-31.0072 71.1395-24.7958Q67.6434-18.5845 61.2799-15.0763Q54.9165-11.5681 46.2784-11.5681Q37.6902-11.5681 31.3268-15.0763Q24.9633-18.5845 21.4672-24.7958Q17.971-31.0072 17.971-39.0543L17.971-48.07Q17.971-48.8206 17.4599-49.3313Q16.9488-49.8419 16.1982-49.8419Q15.4601-49.8419 14.949-49.3313Q14.4379-48.8206 14.4379-48.07ZM30.8653-41.1173Q30.8653-36.3169 32.7492-32.5157Q34.6331-28.7145 38.1228-26.499Q41.6125-24.2836 46.2784-24.2836Q50.9951-24.2836 54.4532-26.499Q57.9113-28.7145 59.8264-32.5157Q61.7415-36.3169 61.7415-41.1173L61.7415-73.3586Q61.7415-78.159 59.8264-81.9602Q57.9113-85.7614 54.4532-87.9768Q50.9951-90.1923 46.2784-90.1923Q41.6125-90.1923 38.1228-87.9768Q34.6331-85.7614 32.7492-81.9602Q30.8653-78.159 30.8653-73.3586ZM34.3485-41.1173L34.3485-73.3586Q34.3485-79.0691 37.5673-82.9269Q40.7861-86.7846 46.2784-86.7846Q51.8081-86.7846 55.0082-82.9269Q58.2084-79.0691 58.2084-73.3586L58.2084-41.1173Q58.2084-35.4067 55.0082-31.5494Q51.8081-27.692 46.2784-27.692Q40.7861-27.692 37.5673-31.5494Q34.3485-35.4067 34.3485-41.1173Z"/>
  </g>
  <g id="Ultralight-M" transform="matrix(1 0 0 1 514.41 1126)">
   <path d="M14.3335-38.8778Q14.3335-30.3956 18.0117-23.754Q21.6899-17.1125 28.3596-13.2136Q35.0293-9.3147 44.0651-9.06115L44.0651 8.14904L23.4634 8.14904Q23.0185 8.14904 22.6385 8.49789Q22.2585 8.84674 22.2585 9.35296Q22.2585 9.86014 22.6385 10.209Q23.0185 10.5578 23.4634 10.5578L67.0767 10.5578Q67.5829 10.5578 67.9317 10.209Q68.2806 9.86014 68.2806 9.35296Q68.2806 8.84674 67.9317 8.49789Q67.5829 8.14904 67.0767 8.14904L46.4739 8.14904L46.4739-9.06115Q55.5722-9.3147 62.2418-13.2136Q68.9115-17.1125 72.5897-23.754Q76.2679-30.3956 76.2679-38.8778L76.2679-47.7339Q76.2679-48.241 75.8879-48.5894Q75.5079-48.9377 75.063-48.9377Q74.5568-48.9377 74.2079-48.5894Q73.8591-48.241 73.8591-47.7339L73.8591-38.8804Q73.8591-30.9028 70.3397-24.703Q66.8204-18.5033 60.4047-14.9835Q53.9891-11.4637 45.27-11.4637Q36.6123-11.4637 30.1967-14.9835Q23.781-18.5033 20.2617-24.703Q16.7423-30.9028 16.7423-38.8804L16.7423-47.7339Q16.7423-48.241 16.3935-48.5894Q16.0446-48.9377 15.5375-48.9377Q15.0312-48.9377 14.6824-48.5894Q14.3335-48.241 14.3335-47.7339ZM30.5406-41.1173Q30.5406-36.5603 32.3203-32.9097Q34.0999-29.2592 37.439-27.1075Q40.778-24.9558 45.27-24.9558Q49.8244-24.9558 53.1318-27.1075Q56.4392-29.2592 58.25-32.9097Q60.0608-36.5603 60.0608-41.1173L60.0608-73.8106Q60.0608-78.3675 58.25-82.0181Q56.4392-85.6687 53.1318-87.8203Q49.8244-89.972 45.27-89.972Q40.778-89.972 37.439-87.8203Q34.0999-85.6687 32.3203-82.0181Q30.5406-78.3675 30.5406-73.8106ZM32.8881-41.1173L32.8881-73.8106Q32.8881-79.6023 36.2169-83.6456Q39.5458-87.6889 45.27-87.6889Q51.0547-87.6889 54.3533-83.6456Q57.652-79.6023 57.652-73.8106L57.652-41.1173Q57.652-35.3255 54.3533-31.2828Q51.0547-27.24 45.27-27.24Q39.5458-27.24 36.2169-31.2828Q32.8881-35.3255 32.8881-41.1173Z"/>
  </g>
  <g id="Black-S" transform="matrix(1 0 0 1 2885.55 696)">
   <path d="M10.3516-39.4531Q10.3516-29.7363 14.4287-22.5342Q18.5059-15.332 25.5127-10.9863Q32.5195-6.64062 41.3086-5.41992L41.3086-2.73438L27.9785-2.73438Q25.0977-2.73438 22.9004-0.683594Q20.7031 1.36719 20.7031 4.24805Q20.7031 7.08008 22.9004 9.15527Q25.0977 11.2305 27.9785 11.2305L67.7246 11.2305Q70.6055 11.2305 72.8027 9.15527Q75 7.08008 75 4.24805Q75 1.36719 72.8027-0.683594Q70.6055-2.73438 67.7246-2.73438L54.3945-2.73438L54.3945-5.41992Q63.1836-6.64062 70.1904-10.9863Q77.1973-15.332 81.2744-22.5342Q85.3516-29.7363 85.3516-39.4531L85.3516-46.0938Q85.3516-48.9746 83.252-50.9033Q81.1523-52.832 78.2227-52.832Q75.293-52.832 73.1445-50.9033Q70.9961-48.9746 70.9961-46.0938L70.9961-39.8438Q70.9961-33.3496 67.8711-28.5889Q64.7461-23.8281 59.4971-21.2402Q54.248-18.6523 47.8516-18.6523Q41.4551-18.6523 36.2061-21.2402Q30.957-23.8281 27.832-28.5889Q24.707-33.3496 24.707-39.8438L24.707-46.0938Q24.707-48.9746 22.5586-50.9033Q20.4102-52.832 17.4805-52.832Q14.5508-52.832 12.4512-50.9033Q10.3516-48.9746 10.3516-46.0938ZM29.6875-42.6758Q29.6875-37.1094 32.0801-32.8613Q34.4727-28.6133 38.5742-26.2207Q42.6758-23.8281 47.8516-23.8281Q53.0273-23.8281 57.1289-26.2207Q61.2305-28.6133 63.623-32.8613Q66.0156-37.1094 66.0156-42.6758L66.0156-65.4297Q66.0156-70.9473 63.623-75.1953Q61.2305-79.4434 57.1289-81.8604Q53.0273-84.2773 47.8516-84.2773Q42.6758-84.2773 38.5742-81.8604Q34.4727-79.4434 32.0801-75.1953Q29.6875-70.9473 29.6875-65.4297ZM44.2383-41.9434L44.2383-66.1621Q44.2383-67.8711 45.0684-69.4824Q45.8984-71.0938 47.8516-71.0938Q49.8047-71.0938 50.6348-69.5068Q51.4648-67.9199 51.4648-66.1621L51.4648-41.9434Q51.4648-40.1855 50.6348-38.5986Q49.8047-37.0117 47.8516-37.0117Q45.8984-37.0117 45.0684-38.5986Q44.2383-40.1855 44.2383-41.9434Z"/>
  </g>
  <g id="Heavy-S" transform="matrix(1 0 0 1 2590.76 696)">
   <path d="M10.6627-39.2342Q10.6627-30.0014 14.5151-23.0989Q18.3676-16.1964 25.0344-12.0293Q31.7013-7.86222 40.1446-6.75676L40.1446-2.82657L26.7108-2.82657Q24.1872-2.82657 22.2781-1.03509Q20.3689 0.756391 20.3689 3.27999Q20.3689 5.77781 22.2781 7.58795Q24.1872 9.39808 26.7108 9.39808L65.1431 9.39808Q67.6667 9.39808 69.5701 7.58795Q71.4735 5.77781 71.4735 3.27999Q71.4735 0.756391 69.5701-1.03509Q67.6667-2.82657 65.1431-2.82657L51.6978-2.82657L51.6978-6.75676Q60.1411-7.86222 66.8138-12.0293Q73.4864-16.1964 77.3388-23.0989Q81.1912-30.0014 81.1912-39.2342L81.1912-46.1744Q81.1912-48.7095 79.3567-50.4078Q77.5221-52.106 74.9612-52.106Q72.4003-52.106 70.5342-50.4078Q68.6682-48.7095 68.6682-46.1744L68.6682-39.6017Q68.6682-33.0961 65.6526-28.3008Q62.6371-23.5054 57.4918-20.8887Q52.3465-18.272 45.927-18.272Q39.5074-18.272 34.3621-20.8887Q29.2168-23.5054 26.2013-28.3008Q23.1858-33.0961 23.1858-39.6017L23.1858-46.1744Q23.1858-48.7095 21.3197-50.4078Q19.4536-52.106 16.8812-52.106Q14.3203-52.106 12.4915-50.4078Q10.6627-48.7095 10.6627-46.1744ZM28.6503-42.0074Q28.6503-36.6714 30.9103-32.602Q33.1704-28.5326 37.0703-26.2438Q40.9702-23.9549 45.927-23.9549Q50.8838-23.9549 54.7779-26.2438Q58.672-28.5326 60.9378-32.602Q63.2037-36.6714 63.2037-42.0074L63.2037-64.9918Q63.2037-70.2904 60.9378-74.3598Q58.672-78.4292 54.7779-80.7367Q50.8838-83.0442 45.927-83.0442Q40.9702-83.0442 37.0703-80.7367Q33.1704-78.4292 30.9103-74.3598Q28.6503-70.2904 28.6503-64.9918ZM41.3226-41.4478L41.3226-65.5513Q41.3226-67.848 42.4638-69.6438Q43.6051-71.4395 45.927-71.4395Q48.2374-71.4395 49.3844-69.6624Q50.5314-67.8853 50.5314-65.5513L50.5314-41.4478Q50.5314-39.1138 49.3844-37.3367Q48.2374-35.5596 45.927-35.5596Q43.6051-35.5596 42.4638-37.3367Q41.3226-39.1138 41.3226-41.4478Z"/>
  </g>
  <g id="Bold-S" transform="matrix(1 0 0 1 2296.2 696)">
   <path d="M11.0107-38.9893Q11.0107-30.2979 14.6118-23.7305Q18.2129-17.1631 24.4995-13.1958Q30.7861-9.22852 38.8428-8.25195L38.8428-2.92969L25.293-2.92969Q23.1689-2.92969 21.582-1.42822Q19.9951 0.0732422 19.9951 2.19727Q19.9951 4.32129 21.582 5.83496Q23.1689 7.34863 25.293 7.34863L62.2559 7.34863Q64.3799 7.34863 65.9546 5.83496Q67.5293 4.32129 67.5293 2.19727Q67.5293 0.0732422 65.9546-1.42822Q64.3799-2.92969 62.2559-2.92969L48.6816-2.92969L48.6816-8.25195Q56.7383-9.22852 63.0371-13.1958Q69.3359-17.1631 72.937-23.7305Q76.5381-30.2979 76.5381-38.9893L76.5381-46.2646Q76.5381-48.4131 75-49.8535Q73.4619-51.2939 71.3135-51.2939Q69.165-51.2939 67.6147-49.8535Q66.0645-48.4131 66.0645-46.2646L66.0645-39.3311Q66.0645-32.8125 63.1714-27.9785Q60.2783-23.1445 55.249-20.4956Q50.2197-17.8467 43.7744-17.8467Q37.3291-17.8467 32.2998-20.4956Q27.2705-23.1445 24.3774-27.9785Q21.4844-32.8125 21.4844-39.3311L21.4844-46.2646Q21.4844-48.4131 19.9341-49.8535Q18.3838-51.2939 16.2109-51.2939Q14.0625-51.2939 12.5366-49.8535Q11.0107-48.4131 11.0107-46.2646ZM27.4902-41.2598Q27.4902-36.1816 29.6021-32.312Q31.7139-28.4424 35.3882-26.2695Q39.0625-24.0967 43.7744-24.0967Q48.4863-24.0967 52.1484-26.2695Q55.8105-28.4424 57.9346-32.312Q60.0586-36.1816 60.0586-41.2598L60.0586-64.502Q60.0586-69.5557 57.9346-73.4253Q55.8105-77.2949 52.1484-79.48Q48.4863-81.665 43.7744-81.665Q39.0625-81.665 35.3882-79.48Q31.7139-77.2949 29.6021-73.4253Q27.4902-69.5557 27.4902-64.502ZM38.0615-40.8936L38.0615-64.8682Q38.0615-67.8223 39.5508-69.8242Q41.04-71.8262 43.7744-71.8262Q46.4844-71.8262 47.9858-69.8364Q49.4873-67.8467 49.4873-64.8682L49.4873-40.8936Q49.4873-37.915 47.9858-35.9253Q46.4844-33.9355 43.7744-33.9355Q41.04-33.9355 39.5508-35.9253Q38.0615-37.915 38.0615-40.8936Z"/>
  </g>
  <g id="Semibold-S" transform="matrix(1 0 0 1 2000.98 696)">
   <path d="M11.2507-38.8204Q11.2507-30.5022 14.6785-24.1659Q18.1062-17.8296 24.1307-14Q30.1552-10.1705 37.9452-9.28281L37.9452-3.00078L24.3154-3.00078Q22.4669-3.00078 21.1021-1.69927Q19.7374-0.397754 19.7374 1.45078Q19.7374 3.31709 21.1021 4.62637Q22.4669 5.93564 24.3154 5.93564L60.2652 5.93564Q62.1138 5.93564 63.4619 4.62637Q64.81 3.31709 64.81 1.45078Q64.81-0.397754 63.4619-1.69927Q62.1138-3.00078 60.2652-3.00078L46.6021-3.00078L46.6021-9.28281Q54.3922-10.1705 60.4333-14Q66.4744-17.8296 69.9022-24.1659Q73.33-30.5022 73.33-38.8204L73.33-46.3269Q73.33-48.2087 71.9963-49.4714Q70.6626-50.7341 68.7985-50.7341Q66.9345-50.7341 65.6019-49.4714Q64.2693-48.2087 64.2693-46.3269L64.2693-39.1444Q64.2693-32.617 61.4607-27.7563Q58.6521-22.8957 53.7027-20.2246Q48.7534-17.5534 42.2903-17.5534Q35.8272-17.5534 30.8779-20.2246Q25.9286-22.8957 23.12-27.7563Q20.3113-32.617 20.3113-39.1444L20.3113-46.3269Q20.3113-48.2087 18.9788-49.4714Q17.6462-50.7341 15.7488-50.7341Q13.8848-50.7341 12.5677-49.4714Q11.2507-48.2087 11.2507-46.3269ZM26.6904-40.7443Q26.6904-35.8439 28.7-32.1121Q30.7097-28.3802 34.2285-26.2873Q37.7473-24.1944 42.2903-24.1944Q46.8334-24.1944 50.3355-26.2873Q53.8377-28.3802 55.864-32.1121Q57.8902-35.8439 57.8902-40.7443L57.8902-64.1643Q57.8902-69.0491 55.864-72.781Q53.8377-76.5129 50.3355-78.6135Q46.8334-80.7142 42.2903-80.7142Q37.7473-80.7142 34.2285-78.6135Q30.7097-76.5129 28.7-72.781Q26.6904-69.0491 26.6904-64.1643ZM35.8132-40.5114L35.8132-64.3972Q35.8132-67.8045 37.5424-69.9486Q39.2716-72.0928 42.2903-72.0928Q45.2758-72.0928 47.0216-69.9564Q48.7675-67.82 48.7675-64.3972L48.7675-40.5114Q48.7675-37.0886 47.0216-34.9522Q45.2758-32.8158 42.2903-32.8158Q39.2716-32.8158 37.5424-34.9522Q35.8132-37.0886 35.8132-40.5114Z"/>
  </g>
  <g id="Medium-S" transform="matrix(1 0 0 1 1705.39 696)">
   <path d="M11.4326-38.6924Q11.4326-30.6572 14.729-24.4961Q18.0254-18.335 23.8511-14.6099Q29.6768-10.8848 37.2646-10.0645L37.2646-3.05469L23.5742-3.05469Q21.9346-3.05469 20.7383-1.90479Q19.542-0.754883 19.542 0.884766Q19.542 2.55566 20.7383 3.70996Q21.9346 4.86426 23.5742 4.86426L58.7559 4.86426Q60.3955 4.86426 61.5718 3.70996Q62.748 2.55566 62.748 0.884766Q62.748-0.754883 61.5718-1.90479Q60.3955-3.05469 58.7559-3.05469L45.0254-3.05469L45.0254-10.0645Q52.6133-10.8848 58.459-14.6099Q64.3047-18.335 67.6011-24.4961Q70.8975-30.6572 70.8975-38.6924L70.8975-46.374Q70.8975-48.0537 69.7188-49.1816Q68.54-50.3096 66.8916-50.3096Q65.2432-50.3096 64.0757-49.1816Q62.9082-48.0537 62.9082-46.374L62.9082-39.0029Q62.9082-32.4688 60.1636-27.5879Q57.4189-22.707 52.5303-20.019Q47.6416-17.3311 41.165-17.3311Q34.6885-17.3311 29.7998-20.019Q24.9111-22.707 22.1665-27.5879Q19.4219-32.4688 19.4219-39.0029L19.4219-46.374Q19.4219-48.0537 18.2544-49.1816Q17.0869-50.3096 15.3984-50.3096Q13.75-50.3096 12.5913-49.1816Q11.4326-48.0537 11.4326-46.374ZM26.084-40.3535Q26.084-35.5879 28.0161-31.9604Q29.9482-28.333 33.3491-26.3008Q36.75-24.2686 41.165-24.2686Q45.5801-24.2686 48.9609-26.3008Q52.3418-28.333 54.2939-31.9604Q56.2461-35.5879 56.2461-40.3535L56.2461-63.9082Q56.2461-68.665 54.2939-72.2925Q52.3418-75.9199 48.9609-77.9565Q45.5801-79.9932 41.165-79.9932Q36.75-79.9932 33.3491-77.9565Q29.9482-75.9199 28.0161-72.2925Q26.084-68.665 26.084-63.9082ZM34.1084-40.2217L34.1084-64.04Q34.1084-67.791 36.0195-70.043Q37.9307-72.2949 41.165-72.2949Q44.3594-72.2949 46.2905-70.0474Q48.2217-67.7998 48.2217-64.04L48.2217-40.2217Q48.2217-36.4619 46.2905-34.2144Q44.3594-31.9668 41.165-31.9668Q37.9307-31.9668 36.0195-34.2144Q34.1084-36.4619 34.1084-40.2217Z"/>
  </g>
  <g id="Regular-S" transform="matrix(1 0 0 1 1410.15 696)">
   <path d="M11.6699-38.5254Q11.6699-30.8594 14.7949-24.9268Q17.9199-18.9941 23.4863-15.4053Q29.0527-11.8164 36.377-11.084L36.377-3.125L22.6074-3.125Q21.2402-3.125 20.2637-2.17285Q19.2871-1.2207 19.2871 0.146484Q19.2871 1.5625 20.2637 2.51465Q21.2402 3.4668 22.6074 3.4668L56.7871 3.4668Q58.1543 3.4668 59.1064 2.51465Q60.0586 1.5625 60.0586 0.146484Q60.0586-1.2207 59.1064-2.17285Q58.1543-3.125 56.7871-3.125L42.9688-3.125L42.9688-11.084Q50.293-11.8164 55.8838-15.4053Q61.4746-18.9941 64.5996-24.9268Q67.7246-30.8594 67.7246-38.5254L67.7246-46.4355Q67.7246-47.8516 66.748-48.8037Q65.7715-49.7559 64.4043-49.7559Q63.0371-49.7559 62.085-48.8037Q61.1328-47.8516 61.1328-46.4355L61.1328-38.8184Q61.1328-32.2754 58.4717-27.3682Q55.8105-22.4609 51.001-19.751Q46.1914-17.041 39.6973-17.041Q33.2031-17.041 28.3936-19.751Q23.584-22.4609 20.9229-27.3682Q18.2617-32.2754 18.2617-38.8184L18.2617-46.4355Q18.2617-47.8516 17.3096-48.8037Q16.3574-49.7559 14.9414-49.7559Q13.5742-49.7559 12.6221-48.8037Q11.6699-47.8516 11.6699-46.4355ZM25.293-39.8438Q25.293-35.2539 27.124-31.7627Q28.9551-28.2715 32.2021-26.3184Q35.4492-24.3652 39.6973-24.3652Q43.9453-24.3652 47.168-26.3184Q50.3906-28.2715 52.2461-31.7627Q54.1016-35.2539 54.1016-39.8438L54.1016-63.5742Q54.1016-68.1641 52.2461-71.6553Q50.3906-75.1465 47.168-77.0996Q43.9453-79.0527 39.6973-79.0527Q35.4492-79.0527 32.2021-77.0996Q28.9551-75.1465 27.124-71.6553Q25.293-68.1641 25.293-63.5742ZM31.8848-39.8438L31.8848-63.5742Q31.8848-67.7734 34.0332-70.166Q36.1816-72.5586 39.6973-72.5586Q43.1641-72.5586 45.3369-70.166Q47.5098-67.7734 47.5098-63.5742L47.5098-39.8438Q47.5098-35.6445 45.3369-33.252Q43.1641-30.8594 39.6973-30.8594Q36.1816-30.8594 34.0332-33.252Q31.8848-35.6445 31.8848-39.8438Z"/>
  </g>
  <g id="Light-S" transform="matrix(1 0 0 1 1114.75 696)">
   <path d="M11.5336-38.3891Q11.5336-31.041 14.583-25.3354Q17.6323-19.6299 23.0928-16.2075Q28.5533-12.7851 35.8017-12.2192L35.8017-2.53474L21.2906-2.53474Q20.2413-2.53474 19.4766-1.79443Q18.7119-1.05413 18.7119 0.0101725Q18.7119 1.1083 19.4766 1.8486Q20.2413 2.58891 21.2906 2.58891L55.4703 2.58891Q56.5346 2.58891 57.2749 1.8486Q58.0152 1.1083 58.0152 0.0101725Q58.0152-1.05413 57.2749-1.79443Q56.5346-2.53474 55.4703-2.53474L40.9253-2.53474L40.9253-12.2192Q48.189-12.7851 53.6663-16.2075Q59.1436-19.6299 62.1929-25.3354Q65.2423-31.041 65.2423-38.3891L65.2423-45.9966Q65.2423-47.0947 64.4775-47.8349Q63.7128-48.5751 62.6635-48.5751Q61.5992-48.5751 60.8589-47.8349Q60.1186-47.0947 60.1186-45.9966L60.1186-38.5913Q60.1186-32.1391 57.4272-27.247Q54.7358-22.3549 49.8581-19.6298Q44.9804-16.9047 38.3804-16.9047Q31.7955-16.9047 26.9178-19.6298Q22.04-22.3549 19.3487-27.247Q16.6573-32.1391 16.6573-38.5913L16.6573-45.9966Q16.6573-47.0947 15.917-47.8349Q15.1766-48.5751 14.0785-48.5751Q13.0142-48.5751 12.2739-47.8349Q11.5336-47.0947 11.5336-45.9966ZM24.869-39.8438Q24.869-35.5718 26.5639-32.2773Q28.2588-28.9828 31.3091-27.113Q34.3595-25.2431 38.3804-25.2431Q42.4166-25.2431 45.4425-27.113Q48.4683-28.9828 50.1876-32.2773Q51.9068-35.5718 51.9068-39.8438L51.9068-64.1645Q51.9068-68.4364 50.1876-71.7309Q48.4683-75.0254 45.4425-76.8953Q42.4166-78.7651 38.3804-78.7651Q34.3595-78.7651 31.3091-76.8953Q28.2588-75.0254 26.5639-71.7309Q24.869-68.4364 24.869-64.1645ZM29.9777-39.8438L29.9777-64.1645Q29.9777-68.4697 32.2698-71.1046Q34.5619-73.7394 38.3804-73.7394Q42.1801-73.7394 44.4817-71.1046Q46.7832-68.4697 46.7832-64.1645L46.7832-39.8438Q46.7832-35.5385 44.4817-32.9038Q42.1801-30.2691 38.3804-30.2691Q34.5619-30.2691 32.2698-32.9038Q29.9777-35.5385 29.9777-39.8438Z"/>
  </g>
  <g id="Thin-S" transform="matrix(1 0 0 1 819.766 696)">
   <path d="M11.3533-38.2088Q11.3533-31.2811 14.3026-25.876Q17.2519-20.4708 22.5723-17.2685Q27.8927-14.0662 35.0409-13.7207L35.0409-1.75407L19.549-1.75407Q18.9201-1.75407 18.4356-1.29395Q17.951-0.833819 17.951-0.170111Q17.951 0.507576 18.4356 0.967703Q18.9201 1.42783 19.549 1.42783L53.7287 1.42783Q54.3924 1.42783 54.8525 0.967703Q55.3126 0.507576 55.3126-0.170111Q55.3126-0.833819 54.8525-1.29395Q54.3924-1.75407 53.7287-1.75407L38.2228-1.75407L38.2228-13.7207Q45.4064-14.0662 50.7335-17.2685Q56.0606-20.4708 59.0099-25.876Q61.9591-31.2811 61.9591-38.2088L61.9591-45.4161Q61.9591-46.0938 61.4746-46.5536Q60.9901-47.0134 60.3612-47.0134Q59.6975-47.0134 59.2374-46.5536Q58.7772-46.0938 58.7772-45.4161L58.7772-38.2909Q58.7772-31.9588 56.0458-27.0867Q53.3144-22.2146 48.3465-19.4695Q43.3787-16.7244 36.6388-16.7244Q29.9338-16.7244 24.9659-19.4695Q19.9981-22.2146 17.2666-27.0867Q14.5352-31.9588 14.5352-38.2909L14.5352-45.4161Q14.5352-46.0938 14.0751-46.5536Q13.615-47.0134 12.9373-47.0134Q12.2736-47.0134 11.8135-46.5536Q11.3533-46.0938 11.3533-45.4161ZM24.3083-39.8438Q24.3083-35.9922 25.8231-32.9579Q27.3378-29.9236 30.128-28.1639Q32.9182-26.4042 36.6388-26.4042Q40.3948-26.4042 43.1603-28.1639Q45.9258-29.9236 47.465-32.9579Q49.0041-35.9922 49.0041-39.8438L49.0041-64.9451Q49.0041-68.7967 47.465-71.831Q45.9258-74.8653 43.1603-76.625Q40.3948-78.3847 36.6388-78.3847Q32.9182-78.3847 30.128-76.625Q27.3378-74.8653 25.8231-71.831Q24.3083-68.7967 24.3083-64.9451ZM27.4554-39.8438L27.4554-64.9451Q27.4554-69.3907 29.9375-72.3459Q32.4197-75.301 36.6388-75.301Q40.8788-75.301 43.3505-72.3459Q45.8222-69.3907 45.8222-64.9451L45.8222-39.8438Q45.8222-35.3982 43.3505-32.4433Q40.8788-29.4884 36.6388-29.4884Q32.4197-29.4884 29.9375-32.4433Q27.4554-35.3982 27.4554-39.8438Z"/>
  </g>
  <g id="Ultralight-S" transform="matrix(1 0 0 1 523.942 696)">
   <path d="M11.261-38.1165Q11.261-31.4041 14.159-26.1528Q17.057-20.9015 22.3057-17.812Q27.5543-14.7224 34.6512-14.4897L34.6512-1.35422L18.6569-1.35422Q18.2434-1.35422 17.9024-1.0376Q17.5613-0.720978 17.5613-0.262451Q17.5613 0.19989 17.9024 0.51651Q18.2434 0.83313 18.6569 0.83313L52.8366 0.83313Q53.2951 0.83313 53.6118 0.51651Q53.9284 0.19989 53.9284-0.262451Q53.9284-0.720978 53.6118-1.0376Q53.2951-1.35422 52.8366-1.35422L36.8385-1.35422L36.8385-14.4897Q43.9812-14.7224 49.2313-17.812Q54.4815-20.9015 57.3795-26.1528Q60.2776-31.4041 60.2776-38.1165L60.2776-45.1187Q60.2776-45.5811 59.9365-45.8973Q59.5955-46.2135 59.182-46.2135Q58.7234-46.2135 58.4068-45.8973Q58.0902-45.5811 58.0902-45.1187L58.0902-38.1371Q58.0902-31.8665 55.3383-27.0046Q52.5864-22.1428 47.5723-19.3874Q42.5583-16.6321 35.7468-16.6321Q28.9803-16.6321 23.9662-19.3874Q18.9522-22.1428 16.2003-27.0046Q13.4483-31.8665 13.4483-38.1371L13.4483-45.1187Q13.4483-45.5811 13.1317-45.8973Q12.8151-46.2135 12.3528-46.2135Q11.8942-46.2135 11.5776-45.8973Q11.261-45.5811 11.261-45.1187ZM24.0211-39.8438Q24.0211-36.2076 25.4436-33.3065Q26.8661-30.4054 29.5231-28.7022Q32.18-26.9989 35.7468-26.9989Q39.3593-26.9989 41.9914-28.7022Q44.6236-30.4054 46.0705-33.3065Q47.5174-36.2076 47.5174-39.8438L47.5174-65.345Q47.5174-68.9812 46.0705-71.8822Q44.6236-74.7833 41.9914-76.4866Q39.3593-78.1898 35.7468-78.1898Q32.18-78.1898 29.5231-76.4866Q26.8661-74.7833 25.4436-71.8822Q24.0211-68.9812 24.0211-65.345ZM26.1635-39.8438L26.1635-65.345Q26.1635-69.8624 28.743-72.9816Q31.3225-76.1009 35.7468-76.1009Q40.2122-76.1009 42.7711-72.9816Q45.33-69.8624 45.33-65.345L45.33-39.8438Q45.33-35.3264 42.7711-32.2075Q40.2122-29.0886 35.7468-29.0886Q31.3225-29.0886 28.743-32.2075Q26.1635-35.3264 26.1635-39.8438Z"/>
  </g>
 </g>
</svg>
