<?xml version="1.0" encoding="UTF-8"?>
<!--Generator: Apple Native CoreSVG 175-->
<!DOCTYPE svg
PUBLIC "-//W3C//DTD SVG 1.1//EN"
       "http://www.w3.org/Graphics/SVG/1.1/DTD/svg11.dtd">
<svg version="1.1" xmlns="http://www.w3.org/2000/svg" xmlns:xlink="http://www.w3.org/1999/xlink" width="3300" height="2200">
 <!--glyph: "uni1002B0.medium", point size: 100.0, font version: "17.1d1e1", template writer version: "65.1"-->
 <g id="Notes">
  <rect height="2200" id="artboard" style="fill:white;opacity:1" width="3300" x="0" y="0"/>
  <line style="fill:none;stroke:black;opacity:1;stroke-width:0.5;" x1="263" x2="3036" y1="292" y2="292"/>
  <text style="stroke:none;fill:black;font-family:sans-serif;font-size:13;font-weight:bold;" transform="matrix(1 0 0 1 263 322)">Weight/Scale Variations</text>
  <text style="stroke:none;fill:black;font-family:sans-serif;font-size:13;text-anchor:middle;" transform="matrix(1 0 0 1 559.711 322)">Ultralight</text>
  <text style="stroke:none;fill:black;font-family:sans-serif;font-size:13;text-anchor:middle;" transform="matrix(1 0 0 1 856.422 322)">Thin</text>
  <text style="stroke:none;fill:black;font-family:sans-serif;font-size:13;text-anchor:middle;" transform="matrix(1 0 0 1 1153.13 322)">Light</text>
  <text style="stroke:none;fill:black;font-family:sans-serif;font-size:13;text-anchor:middle;" transform="matrix(1 0 0 1 1449.84 322)">Regular</text>
  <text style="stroke:none;fill:black;font-family:sans-serif;font-size:13;text-anchor:middle;" transform="matrix(1 0 0 1 1746.56 322)">Medium</text>
  <text style="stroke:none;fill:black;font-family:sans-serif;font-size:13;text-anchor:middle;" transform="matrix(1 0 0 1 2043.27 322)">Semibold</text>
  <text style="stroke:none;fill:black;font-family:sans-serif;font-size:13;text-anchor:middle;" transform="matrix(1 0 0 1 2339.98 322)">Bold</text>
  <text style="stroke:none;fill:black;font-family:sans-serif;font-size:13;text-anchor:middle;" transform="matrix(1 0 0 1 2636.69 322)">Heavy</text>
  <text style="stroke:none;fill:black;font-family:sans-serif;font-size:13;text-anchor:middle;" transform="matrix(1 0 0 1 2933.4 322)">Black</text>
  <line style="fill:none;stroke:black;opacity:1;stroke-width:0.5;" x1="263" x2="3036" y1="1903" y2="1903"/>
  <g transform="matrix(1 0 0 1 263 1933)">
   <path d="M9.24805 0.830078Q10.8691 0.830078 12.2949 0.214844Q13.7207-0.400391 14.8096-1.49414Q15.8984-2.58789 16.5186-4.01367Q17.1387-5.43945 17.1387-7.05078Q17.1387-8.66211 16.5186-10.0879Q15.8984-11.5137 14.8047-12.6074Q13.7109-13.7012 12.2852-14.3164Q10.8594-14.9316 9.23828-14.9316Q7.62695-14.9316 6.20117-14.3164Q4.77539-13.7012 3.69141-12.6074Q2.60742-11.5137 1.9873-10.0879Q1.36719-8.66211 1.36719-7.05078Q1.36719-5.43945 1.9873-4.01367Q2.60742-2.58789 3.69629-1.49414Q4.78516-0.400391 6.21094 0.214844Q7.63672 0.830078 9.24805 0.830078ZM9.24805-0.654297Q7.91992-0.654297 6.7627-1.14746Q5.60547-1.64062 4.73145-2.51953Q3.85742-3.39844 3.36426-4.56055Q2.87109-5.72266 2.87109-7.05078Q2.87109-8.37891 3.35938-9.54102Q3.84766-10.7031 4.72168-11.582Q5.5957-12.4609 6.75293-12.9541Q7.91016-13.4473 9.23828-13.4473Q10.5762-13.4473 11.7334-12.9541Q12.8906-12.4609 13.7695-11.582Q14.6484-10.7031 15.1465-9.54102Q15.6445-8.37891 15.6445-7.05078Q15.6445-5.72266 15.1514-4.56055Q14.6582-3.39844 13.7842-2.51953Q12.9102-1.64062 11.748-1.14746Q10.5859-0.654297 9.24805-0.654297ZM5.6543-7.05078Q5.6543-6.72852 5.85938-6.52832Q6.06445-6.32812 6.40625-6.32812L8.51562-6.32812L8.51562-4.20898Q8.51562-3.88672 8.71094-3.67676Q8.90625-3.4668 9.23828-3.4668Q9.56055-3.4668 9.77051-3.67676Q9.98047-3.88672 9.98047-4.20898L9.98047-6.32812L12.0898-6.32812Q12.4219-6.32812 12.627-6.52832Q12.832-6.72852 12.832-7.05078Q12.832-7.38281 12.627-7.58789Q12.4219-7.79297 12.0898-7.79297L9.98047-7.79297L9.98047-9.90234Q9.98047-10.2344 9.77051-10.4443Q9.56055-10.6543 9.23828-10.6543Q8.90625-10.6543 8.71094-10.4443Q8.51562-10.2344 8.51562-9.90234L8.51562-7.79297L6.40625-7.79297Q6.06445-7.79297 5.85938-7.58789Q5.6543-7.38281 5.6543-7.05078Z"/>
  </g>
  <g transform="matrix(1 0 0 1 281.867 1933)">
   <path d="M11.709 2.91016Q13.75 2.91016 15.5518 2.12891Q17.3535 1.34766 18.7305-0.0292969Q20.1074-1.40625 20.8887-3.20801Q21.6699-5.00977 21.6699-7.05078Q21.6699-9.0918 20.8887-10.8936Q20.1074-12.6953 18.7305-14.0723Q17.3535-15.4492 15.5469-16.2305Q13.7402-17.0117 11.6992-17.0117Q9.6582-17.0117 7.85645-16.2305Q6.05469-15.4492 4.68262-14.0723Q3.31055-12.6953 2.5293-10.8936Q1.74805-9.0918 1.74805-7.05078Q1.74805-5.00977 2.5293-3.20801Q3.31055-1.40625 4.6875-0.0292969Q6.06445 1.34766 7.86621 2.12891Q9.66797 2.91016 11.709 2.91016ZM11.709 1.25Q9.98047 1.25 8.47656 0.605469Q6.97266-0.0390625 5.83496-1.17676Q4.69727-2.31445 4.05762-3.81836Q3.41797-5.32227 3.41797-7.05078Q3.41797-8.7793 4.05762-10.2832Q4.69727-11.7871 5.83008-12.9297Q6.96289-14.0723 8.4668-14.7119Q9.9707-15.3516 11.6992-15.3516Q13.4277-15.3516 14.9316-14.7119Q16.4355-14.0723 17.5781-12.9297Q18.7207-11.7871 19.3652-10.2832Q20.0098-8.7793 20.0098-7.05078Q20.0098-5.32227 19.3701-3.81836Q18.7305-2.31445 17.5928-1.17676Q16.4551-0.0390625 14.9463 0.605469Q13.4375 1.25 11.709 1.25ZM7.17773-7.05078Q7.17773-6.69922 7.41211-6.47461Q7.64648-6.25 8.01758-6.25L10.8887-6.25L10.8887-3.36914Q10.8887-2.99805 11.1133-2.76855Q11.3379-2.53906 11.6895-2.53906Q12.0605-2.53906 12.29-2.76855Q12.5195-2.99805 12.5195-3.36914L12.5195-6.25L15.4004-6.25Q15.7715-6.25 16.001-6.47461Q16.2305-6.69922 16.2305-7.05078Q16.2305-7.42188 16.001-7.65137Q15.7715-7.88086 15.4004-7.88086L12.5195-7.88086L12.5195-10.752Q12.5195-11.1328 12.29-11.3623Q12.0605-11.5918 11.6895-11.5918Q11.3379-11.5918 11.1133-11.3574Q10.8887-11.123 10.8887-10.752L10.8887-7.88086L8.01758-7.88086Q7.63672-7.88086 7.40723-7.65137Q7.17773-7.42188 7.17773-7.05078Z"/>
  </g>
  <g transform="matrix(1 0 0 1 305.646 1933)">
   <path d="M14.9707 5.66406Q17.0605 5.66406 18.96 5.01465Q20.8594 4.36523 22.4512 3.19336Q24.043 2.02148 25.2197 0.429688Q26.3965-1.16211 27.0459-3.06641Q27.6953-4.9707 27.6953-7.05078Q27.6953-9.14062 27.0459-11.04Q26.3965-12.9395 25.2197-14.5312Q24.043-16.123 22.4512-17.2998Q20.8594-18.4766 18.9551-19.126Q17.0508-19.7754 14.9609-19.7754Q12.8711-19.7754 10.9717-19.126Q9.07227-18.4766 7.48535-17.2998Q5.89844-16.123 4.72168-14.5312Q3.54492-12.9395 2.90039-11.04Q2.25586-9.14062 2.25586-7.05078Q2.25586-4.9707 2.90527-3.06641Q3.55469-1.16211 4.72656 0.429688Q5.89844 2.02148 7.49023 3.19336Q9.08203 4.36523 10.9814 5.01465Q12.8809 5.66406 14.9707 5.66406ZM14.9707 3.84766Q13.1641 3.84766 11.5283 3.2959Q9.89258 2.74414 8.53516 1.74805Q7.17773 0.751953 6.17676-0.610352Q5.17578-1.97266 4.62891-3.6084Q4.08203-5.24414 4.08203-7.05078Q4.08203-8.86719 4.62891-10.5029Q5.17578-12.1387 6.17188-13.501Q7.16797-14.8633 8.52539-15.8594Q9.88281-16.8555 11.5186-17.4023Q13.1543-17.9492 14.9609-17.9492Q16.7773-17.9492 18.4131-17.4023Q20.0488-16.8555 21.4111-15.8594Q22.7734-14.8633 23.7695-13.501Q24.7656-12.1387 25.3174-10.5029Q25.8691-8.86719 25.8691-7.05078Q25.8789-5.24414 25.332-3.6084Q24.7852-1.97266 23.7842-0.610352Q22.7832 0.751953 21.4209 1.74805Q20.0586 2.74414 18.4229 3.2959Q16.7871 3.84766 14.9707 3.84766ZM9.19922-7.05078Q9.19922-6.66992 9.45801-6.4209Q9.7168-6.17188 10.1172-6.17188L14.0625-6.17188L14.0625-2.2168Q14.0625-1.81641 14.3115-1.55762Q14.5605-1.29883 14.9512-1.29883Q15.3516-1.29883 15.6104-1.55273Q15.8691-1.80664 15.8691-2.2168L15.8691-6.17188L19.8242-6.17188Q20.2246-6.17188 20.4785-6.4209Q20.7324-6.66992 20.7324-7.05078Q20.7324-7.46094 20.4785-7.71484Q20.2246-7.96875 19.8242-7.96875L15.8691-7.96875L15.8691-11.9141Q15.8691-12.3242 15.6104-12.583Q15.3516-12.8418 14.9512-12.8418Q14.5605-12.8418 14.3115-12.583Q14.0625-12.3242 14.0625-11.9141L14.0625-7.96875L10.1172-7.96875Q9.70703-7.96875 9.45312-7.71484Q9.19922-7.46094 9.19922-7.05078Z"/>
  </g>
  <text style="stroke:none;fill:black;font-family:sans-serif;font-size:13;font-weight:bold;" transform="matrix(1 0 0 1 263 1953)">Design Variations</text>
  <text style="stroke:none;fill:black;font-family:sans-serif;font-size:13;" transform="matrix(1 0 0 1 263 1971)">Symbols are supported in up to nine weights and three scales.</text>
  <text style="stroke:none;fill:black;font-family:sans-serif;font-size:13;" transform="matrix(1 0 0 1 263 1989)">For optimal layout with text and other symbols, vertically align</text>
  <text style="stroke:none;fill:black;font-family:sans-serif;font-size:13;" transform="matrix(1 0 0 1 263 2007)">symbols with the adjacent text.</text>
  <line style="fill:none;stroke:#00AEEF;stroke-width:0.5;opacity:1.0;" x1="776" x2="776" y1="1919" y2="1933"/>
  <g transform="matrix(1 0 0 1 776 1933)">
   <path d="M3.31055 0.15625Q3.70117 0.15625 3.91602-0.00976562Q4.13086-0.175781 4.26758-0.585938L5.52734-4.0332L11.2891-4.0332L12.5488-0.585938Q12.6855-0.175781 12.9004-0.00976562Q13.1152 0.15625 13.4961 0.15625Q13.8867 0.15625 14.1162-0.0585938Q14.3457-0.273438 14.3457-0.644531Q14.3457-0.869141 14.2383-1.17188L9.6582-13.3691Q9.48242-13.8184 9.17969-14.043Q8.87695-14.2676 8.4082-14.2676Q7.5-14.2676 7.17773-13.3789L2.59766-1.16211Q2.49023-0.859375 2.49023-0.634766Q2.49023-0.263672 2.70996-0.0537109Q2.92969 0.15625 3.31055 0.15625ZM6.00586-5.51758L8.37891-12.0898L8.42773-12.0898L10.8008-5.51758Z"/>
  </g>
  <line style="fill:none;stroke:#00AEEF;stroke-width:0.5;opacity:1.0;" x1="793.197" x2="793.197" y1="1919" y2="1933"/>
  <text style="stroke:none;fill:black;font-family:sans-serif;font-size:13;font-weight:bold;" transform="matrix(1 0 0 1 776 1953)">Margins</text>
  <text style="stroke:none;fill:black;font-family:sans-serif;font-size:13;" transform="matrix(1 0 0 1 776 1971)">Leading and trailing margins on the left and right side of each symbol</text>
  <text style="stroke:none;fill:black;font-family:sans-serif;font-size:13;" transform="matrix(1 0 0 1 776 1989)">can be adjusted by modifying the x-location of the margin guidelines.</text>
  <text style="stroke:none;fill:black;font-family:sans-serif;font-size:13;" transform="matrix(1 0 0 1 776 2007)">Modifications are automatically applied proportionally to all</text>
  <text style="stroke:none;fill:black;font-family:sans-serif;font-size:13;" transform="matrix(1 0 0 1 776 2025)">scales and weights.</text>
  <g transform="matrix(1 0 0 1 1289 1933)">
   <path d="M2.8418 1.86523L4.54102 3.57422Q5.18555 4.22852 5.90332 4.17969Q6.62109 4.13086 7.31445 3.35938L18.0078-8.42773L17.041-9.4043L6.42578 2.27539Q6.16211 2.57812 5.89355 2.61719Q5.625 2.65625 5.27344 2.30469L4.10156 1.14258Q3.75 0.791016 3.79395 0.522461Q3.83789 0.253906 4.14062-0.0195312L15.6152-10.8203L14.6387-11.7871L3.04688-0.898438Q2.30469-0.214844 2.25098 0.498047Q2.19727 1.21094 2.8418 1.86523ZM9.25781-16.3281Q8.94531-16.0254 8.90625-15.6348Q8.86719-15.2441 9.04297-14.9512Q9.21875-14.6777 9.55566-14.541Q9.89258-14.4043 10.3809-14.5215Q11.4746-14.7754 12.5977-14.7314Q13.7207-14.6875 14.7949-13.9844L14.209-12.5293Q13.9551-11.9043 14.0674-11.4404Q14.1797-10.9766 14.5801-10.5664L16.875-8.25195Q17.2363-7.88086 17.5781-7.82227Q17.9199-7.76367 18.3398-7.8418L19.4043-8.03711L20.0684-7.36328L20.0293-6.80664Q20-6.43555 20.1221-6.12305Q20.2441-5.81055 20.6055-5.44922L21.3672-4.70703Q21.7285-4.3457 22.1533-4.33105Q22.5781-4.31641 22.9297-4.66797L25.8398-7.58789Q26.1914-7.93945 26.1816-8.35449Q26.1719-8.76953 25.8105-9.13086L25.0391-9.89258Q24.6875-10.2539 24.3799-10.3857Q24.0723-10.5176 23.7109-10.4883L23.1348-10.4395L22.4902-11.0742L22.7344-12.1973Q22.832-12.6172 22.6953-12.9834Q22.5586-13.3496 22.1191-13.7891L19.9219-15.9766Q18.6719-17.2168 17.2607-17.8369Q15.8496-18.457 14.4189-18.4814Q12.9883-18.5059 11.665-17.959Q10.3418-17.4121 9.25781-16.3281ZM10.752-15.957Q11.6602-16.6211 12.7002-16.9043Q13.7402-17.1875 14.8047-17.085Q15.8691-16.9824 16.8701-16.5137Q17.8711-16.0449 18.7012-15.2051L21.1328-12.793Q21.3086-12.6172 21.3525-12.4512Q21.3965-12.2852 21.3379-12.0312L21.0156-10.5469L22.5195-9.0625L23.5059-9.12109Q23.6914-9.13086 23.7891-9.09668Q23.8867-9.0625 24.0332-8.91602L24.6094-8.33984L22.168-5.89844L21.5918-6.47461Q21.4453-6.62109 21.4062-6.71875Q21.3672-6.81641 21.377-7.01172L21.4453-7.98828L19.9512-9.47266L18.4277-9.21875Q18.1836-9.16992 18.042-9.2041Q17.9004-9.23828 17.7148-9.41406L15.7129-11.416Q15.5176-11.5918 15.4932-11.7529Q15.4688-11.9141 15.5859-12.1875L16.4648-14.2773Q15.293-15.3711 13.8281-15.791Q12.3633-16.2109 10.8398-15.7617Q10.7227-15.7324 10.6885-15.8057Q10.6543-15.8789 10.752-15.957Z"/>
  </g>
  <text style="stroke:none;fill:black;font-family:sans-serif;font-size:13;font-weight:bold;" transform="matrix(1 0 0 1 1289 1953)">Exporting</text>
  <text style="stroke:none;fill:black;font-family:sans-serif;font-size:13;" transform="matrix(1 0 0 1 1289 1971)">Symbols should be outlined when exporting to ensure the</text>
  <text style="stroke:none;fill:black;font-family:sans-serif;font-size:13;" transform="matrix(1 0 0 1 1289 1989)">design is preserved when submitting to Xcode.</text>
  <text id="template-version" style="stroke:none;fill:black;font-family:sans-serif;font-size:13;text-anchor:end;" transform="matrix(1 0 0 1 3036 1933)">Template v.2.0</text>
  <text style="stroke:none;fill:black;font-family:sans-serif;font-size:13;text-anchor:end;" transform="matrix(1 0 0 1 3036 1951)">Requires Xcode 12 or greater</text>
  <text id="descriptive-name" style="stroke:none;fill:black;font-family:sans-serif;font-size:13;text-anchor:end;" transform="matrix(1 0 0 1 3036 1969)">Generated from mic</text>
  <text style="stroke:none;fill:black;font-family:sans-serif;font-size:13;text-anchor:end;" transform="matrix(1 0 0 1 3036 1987)">Typeset at 100 points</text>
  <text style="stroke:none;fill:black;font-family:sans-serif;font-size:13;" transform="matrix(1 0 0 1 263 726)">Small</text>
  <text style="stroke:none;fill:black;font-family:sans-serif;font-size:13;" transform="matrix(1 0 0 1 263 1156)">Medium</text>
  <text style="stroke:none;fill:black;font-family:sans-serif;font-size:13;" transform="matrix(1 0 0 1 263 1586)">Large</text>
 </g>
 <g id="Guides">
  <g id="H-reference" style="fill:#27AAE1;stroke:none;" transform="matrix(1 0 0 1 339 696)">
   <path d="M0.976562 0L3.66211 0L29.3457-67.1387L30.0293-67.1387L30.0293-70.459L28.125-70.459ZM11.6699-24.4629L46.9727-24.4629L46.2402-26.709L12.4512-26.709ZM55.127 0L57.7637 0L30.6152-70.459L29.4434-70.459L29.4434-67.1387Z"/>
  </g>
  <line id="Baseline-S" style="fill:none;stroke:#27AAE1;opacity:1;stroke-width:0.5;" x1="263" x2="3036" y1="696" y2="696"/>
  <line id="Capline-S" style="fill:none;stroke:#27AAE1;opacity:1;stroke-width:0.5;" x1="263" x2="3036" y1="625.541" y2="625.541"/>
  <g id="H-reference" style="fill:#27AAE1;stroke:none;" transform="matrix(1 0 0 1 339 1126)">
   <path d="M0.976562 0L3.66211 0L29.3457-67.1387L30.0293-67.1387L30.0293-70.459L28.125-70.459ZM11.6699-24.4629L46.9727-24.4629L46.2402-26.709L12.4512-26.709ZM55.127 0L57.7637 0L30.6152-70.459L29.4434-70.459L29.4434-67.1387Z"/>
  </g>
  <line id="Baseline-M" style="fill:none;stroke:#27AAE1;opacity:1;stroke-width:0.5;" x1="263" x2="3036" y1="1126" y2="1126"/>
  <line id="Capline-M" style="fill:none;stroke:#27AAE1;opacity:1;stroke-width:0.5;" x1="263" x2="3036" y1="1055.54" y2="1055.54"/>
  <g id="H-reference" style="fill:#27AAE1;stroke:none;" transform="matrix(1 0 0 1 339 1556)">
   <path d="M0.976562 0L3.66211 0L29.3457-67.1387L30.0293-67.1387L30.0293-70.459L28.125-70.459ZM11.6699-24.4629L46.9727-24.4629L46.2402-26.709L12.4512-26.709ZM55.127 0L57.7637 0L30.6152-70.459L29.4434-70.459L29.4434-67.1387Z"/>
  </g>
  <line id="Baseline-L" style="fill:none;stroke:#27AAE1;opacity:1;stroke-width:0.5;" x1="263" x2="3036" y1="1556" y2="1556"/>
  <line id="Capline-L" style="fill:none;stroke:#27AAE1;opacity:1;stroke-width:0.5;" x1="263" x2="3036" y1="1485.54" y2="1485.54"/>
  <line id="left-margin" style="fill:none;stroke:#00AEEF;stroke-width:0.5;opacity:1.0;" x1="1400.1" x2="1400.1" y1="1030.79" y2="1150.12"/>
  <line id="right-margin" style="fill:none;stroke:#00AEEF;stroke-width:0.5;opacity:1.0;" x1="1499.58" x2="1499.58" y1="1030.79" y2="1150.12"/>
 </g>
 <g id="Symbols">
  <g id="Black-L" transform="matrix(1 0 0 1 2858.37 1556)">
   <path d="M17.6331-41.7573Q17.6331-26.7027 23.9125-15.4311Q30.1918-4.15955 41.0743 2.64311Q51.9568 9.44577 65.7669 11.2233L65.7669 18.1602L43.5549 18.1602Q39.5183 18.1602 36.4665 21.0258Q33.4146 23.8914 33.4146 27.9306Q33.4146 31.9308 36.4665 34.8257Q39.5183 37.7205 43.5549 37.7205L106.507 37.7205Q110.545 37.7205 113.586 34.8257Q116.627 31.9308 116.627 27.9306Q116.627 23.8914 113.586 21.0258Q110.545 18.1602 106.507 18.1602L84.2746 18.1602L84.2746 11.2233Q98.0859 9.44577 108.979 2.64311Q119.872-4.15955 126.151-15.4311Q132.43-26.7027 132.43-41.7573L132.43-53.2423Q132.43-57.3022 129.496-60.0212Q126.562-62.7401 122.465-62.7401Q118.369-62.7401 115.387-60.0212Q112.404-57.3022 112.404-53.2423L112.404-42.3489Q112.404-31.6387 107.464-23.7324Q102.523-15.8261 94.0713-11.5081Q85.6191-7.1902 75.0311-7.1902Q64.4456-7.1902 55.9928-11.5081Q47.54-15.8261 42.5997-23.7324Q37.6594-31.6387 37.6594-42.3489L37.6594-53.2423Q37.6594-57.3022 34.6769-60.0212Q31.6945-62.7401 27.5775-62.7401Q23.4811-62.7401 20.5571-60.0212Q17.6331-57.3022 17.6331-53.2423ZM46.8807-46.2168Q46.8807-37.5149 50.5572-30.875Q54.2336-24.2351 60.5882-20.4991Q66.9428-16.7631 75.0311-16.7631Q83.1206-16.7631 89.4642-20.4991Q95.8078-24.2351 99.4953-30.875Q103.183-37.5149 103.183-46.2168L103.183-84.179Q103.183-92.8238 99.4953-99.4637Q95.8078-106.104 89.4642-109.868Q83.1206-113.633 75.0311-113.633Q66.9428-113.633 60.5882-109.868Q54.2336-106.104 50.5572-99.4637Q46.8807-92.8238 46.8807-84.179ZM67.1406-45.3407L67.1406-85.0551Q67.1406-89.0015 69.113-92.0269Q71.0854-95.0522 75.0311-95.0522Q78.9573-95.0522 80.9395-92.0561Q82.9216-89.0599 82.9216-85.0551L82.9216-45.3407Q82.9216-41.3359 80.9395-38.3403Q78.9573-35.3448 75.0311-35.3448Q71.0854-35.3448 69.113-38.3403Q67.1406-41.3359 67.1406-45.3407Z"/>
  </g>
  <g id="Heavy-L" transform="matrix(1 0 0 1 2564.34 1556)">
   <path d="M17.9673-41.4574Q17.9673-27.072 23.9541-16.2253Q29.9409-5.37855 40.386 1.16059Q50.831 7.69973 64.2085 9.2919L64.2085 18.2209L41.654 18.2209Q38.1397 18.2209 35.4942 20.7146Q32.8487 23.2083 32.8487 26.7348Q32.8487 30.2403 35.4942 32.7563Q38.1397 35.2724 41.654 35.2724L103.035 35.2724Q106.555 35.2724 109.183 32.7563Q111.811 30.2403 111.811 26.7348Q111.811 23.2083 109.183 20.7146Q106.555 18.2209 103.035 18.2209L80.4508 18.2209L80.4508 9.2919Q93.8343 7.69973 104.294 1.16059Q114.754-5.37855 120.741-16.2253Q126.728-27.072 126.728-41.4574L126.728-53.2105Q126.728-56.7667 124.175-59.1459Q121.621-61.5251 118.056-61.5251Q114.491-61.5251 111.908-59.1459Q109.325-56.7667 109.325-53.2105L109.325-41.9929Q109.325-31.2975 104.506-23.3522Q99.6876-15.4069 91.3405-11.0521Q82.9934-6.69733 72.3445-6.69733Q61.7077-6.69733 53.3576-11.0521Q45.0075-15.4069 40.1886-23.3522Q35.3697-31.2975 35.3697-41.9929L35.3697-53.2105Q35.3697-56.7667 32.7867-59.1459Q30.2038-61.5251 26.609-61.5251Q23.044-61.5251 20.5056-59.1459Q17.9673-56.7667 17.9673-53.2105ZM45.5166-45.4173Q45.5166-37.0861 48.9942-30.7168Q52.4718-24.3476 58.5282-20.7593Q64.5846-17.1711 72.3445-17.1711Q80.1104-17.1711 86.1489-20.7593Q92.1874-24.3476 95.6829-30.7168Q99.1784-37.0861 99.1784-45.4173L99.1784-83.8262Q99.1784-92.1188 95.6829-98.4881Q92.1874-104.857 86.1489-108.465Q80.1104-112.072 72.3445-112.072Q64.5846-112.072 58.5282-108.465Q52.4718-104.857 48.9942-98.4881Q45.5166-92.1188 45.5166-83.8262ZM63.0976-44.7479L63.0976-84.4955Q63.0976-89.1781 65.4825-92.4953Q67.8675-95.8124 72.3445-95.8124Q76.7978-95.8124 79.1946-92.5176Q81.5914-89.2228 81.5914-84.4955L81.5914-44.7479Q81.5914-40.0207 79.1946-36.7289Q76.7978-33.4371 72.3445-33.4371Q67.8675-33.4371 65.4825-36.7289Q63.0976-40.0207 63.0976-44.7479Z"/>
  </g>
  <g id="Bold-L" transform="matrix(1 0 0 1 2270.86 1556)">
   <path d="M18.3181-41.0989Q18.3181-27.5167 23.9633-17.1856Q29.6085-6.85444 39.5454-0.640297Q49.4823 5.57384 62.3645 6.92991L62.3645 18.3924L39.2945 18.3924Q36.4219 18.3924 34.2684 20.4327Q32.1149 22.473 32.1149 25.374Q32.1149 28.2686 34.2684 30.3235Q36.4219 32.3784 39.2945 32.3784L98.9176 32.3784Q101.804 32.3784 103.932 30.3235Q106.06 28.2686 106.06 25.374Q106.06 22.473 103.932 20.4327Q101.804 18.3924 98.9176 18.3924L75.8106 18.3924L75.8106 6.92991Q88.707 5.57384 98.6624-0.640297Q108.618-6.85444 114.263-17.1856Q119.908-27.5167 119.908-41.0989L119.908-53.0973Q119.908-56.0353 117.82-57.9955Q115.732-59.9557 112.816-59.9557Q109.9-59.9557 107.802-57.9955Q105.703-56.0353 105.703-53.0973L105.703-41.5545Q105.703-30.8928 101.014-22.9053Q96.3253-14.9178 88.0842-10.5204Q79.8431-6.12297 69.106-6.12297Q58.3975-6.12297 50.1493-10.5204Q41.901-14.9178 37.2123-22.9053Q32.5235-30.8928 32.5235-41.5545L32.5235-53.0973Q32.5235-56.0353 30.4248-57.9955Q28.326-59.9557 25.3731-59.9557Q22.4571-59.9557 20.3876-57.9955Q18.3181-56.0353 18.3181-53.0973ZM43.9159-44.523Q43.9159-36.6639 47.1466-30.632Q50.3773-24.6 56.0655-21.1915Q61.7538-17.783 69.106-17.783Q76.4725-17.783 82.1352-21.1915Q87.7978-24.6 91.0541-30.632Q94.3104-36.6639 94.3104-44.523L94.3104-83.5351Q94.3104-91.3792 91.0541-97.4111Q87.7978-103.443 82.1352-106.859Q76.4725-110.275 69.106-110.275Q61.7538-110.275 56.0655-106.859Q50.3773-103.443 47.1466-97.4111Q43.9159-91.3792 43.9159-83.5351ZM58.2382-44.0849L58.2382-83.9732Q58.2382-89.4995 61.1091-93.1862Q63.98-96.8729 69.106-96.8729Q74.2093-96.8729 77.0916-93.2008Q79.9739-89.5287 79.9739-83.9732L79.9739-44.0849Q79.9739-38.5294 77.0916-34.8644Q74.2093-31.1994 69.106-31.1994Q63.98-31.1994 61.1091-34.8644Q58.2382-38.5294 58.2382-44.0849Z"/>
  </g>
  <g id="Semibold-L" transform="matrix(1 0 0 1 1976.38 1556)">
   <path d="M18.5599-40.8517Q18.5599-27.8233 23.9696-17.8476Q29.3793-7.8719 38.9659-1.88182Q48.5525 4.10827 61.0932 5.30158L61.0932 18.5106L37.6678 18.5106Q35.2377 18.5106 33.4233 20.2384Q31.609 21.9661 31.609 24.4359Q31.609 26.9093 33.4233 28.6463Q35.2377 30.3833 37.6678 30.3833L96.0791 30.3833Q98.5291 30.3833 100.313 28.6463Q102.096 26.9093 102.096 24.4359Q102.096 21.9661 100.313 20.2384Q98.5291 18.5106 96.0791 18.5106L72.6117 18.5106L72.6117 5.30158Q85.1723 4.10827 94.7799-1.88182Q104.387-7.8719 109.797-17.8476Q115.207-27.8233 115.207-40.8517L115.207-53.0193Q115.207-55.5311 113.44-57.2025Q111.672-58.8738 109.204-58.8738Q106.735-58.8738 104.97-57.2025Q103.205-55.5311 103.205-53.0193L103.205-41.2522Q103.205-30.6137 98.6064-22.5972Q94.0073-14.5806 85.8393-10.1538Q77.6713-5.72701 66.8735-5.72701Q56.1154-5.72701 47.9374-10.1538Q39.7595-14.5806 35.1604-22.5972Q30.5613-30.6137 30.5613-41.2522L30.5613-53.0193Q30.5613-55.5311 28.7964-57.2025Q27.0316-58.8738 24.5211-58.8738Q22.0525-58.8738 20.3062-57.2025Q18.5599-55.5311 18.5599-53.0193ZM42.8124-43.9064Q42.8124-36.3729 45.8728-30.5735Q48.9333-24.7741 54.3678-21.4895Q59.8022-18.2049 66.8735-18.2049Q73.9645-18.2049 79.3681-21.4895Q84.7717-24.7741 87.863-30.5735Q90.9544-36.3729 90.9544-43.9064L90.9544-83.3345Q90.9544-90.8692 87.863-96.6687Q84.7717-102.468 79.3681-105.752Q73.9645-109.036 66.8735-109.036Q59.8022-109.036 54.3678-105.752Q48.9333-102.468 45.8728-96.6687Q42.8124-90.8692 42.8124-83.3345ZM54.8882-43.6278L54.8882-83.6131Q54.8882-89.721 58.0941-93.6625Q61.3-97.604 66.8735-97.604Q72.4248-97.604 75.6418-93.6718Q78.8588-89.7396 78.8588-83.6131L78.8588-43.6278Q78.8588-37.5013 75.6418-33.579Q72.4248-29.6567 66.8735-29.6567Q61.3-29.6567 58.0941-33.579Q54.8882-37.5013 54.8882-43.6278Z"/>
  </g>
  <g id="Medium-L" transform="matrix(1 0 0 1 1681.36 1556)">
   <path d="M18.7433-40.6644Q18.7433-28.0558 23.9744-18.3496Q29.2055-8.64339 38.5265-2.82319Q47.8475 2.99701 60.1293 4.0669L60.1293 18.6003L36.4344 18.6003Q34.3398 18.6003 32.7826 20.091Q31.2254 21.5817 31.2254 23.7246Q31.2254 25.8786 32.7826 27.3746Q34.3398 28.8706 36.4344 28.8706L93.9268 28.8706Q96.0456 28.8706 97.5679 27.3746Q99.0901 25.8786 99.0901 23.7246Q99.0901 21.5817 97.5679 20.091Q96.0456 18.6003 93.9268 18.6003L70.1862 18.6003L70.1862 4.0669Q82.4921 2.99701 91.836-2.82319Q101.18-8.64339 106.411-18.3496Q111.642-28.0558 111.642-40.6644L111.642-52.9601Q111.642-55.1488 110.118-56.6011Q108.594-58.0535 106.465-58.0535Q104.335-58.0535 102.824-56.6011Q101.312-55.1488 101.312-52.9601L101.312-41.023Q101.312-30.4021 96.7808-22.3636Q92.2497-14.325 84.1371-9.87587Q76.0245-5.42677 65.1806-5.42677Q54.385-5.42677 46.2603-9.87587Q38.1357-14.325 33.6046-22.3636Q29.0735-30.4021 29.0735-41.023L29.0735-52.9601Q29.0735-55.1488 27.5618-56.6011Q26.05-58.0535 23.875-58.0535Q21.7458-58.0535 20.2445-56.6011Q18.7433-55.1488 18.7433-52.9601ZM41.9757-43.4389Q41.9757-36.1523 44.907-30.5292Q47.8384-24.906 53.0804-21.7154Q58.3225-18.5247 65.1806-18.5247Q72.0629-18.5247 77.27-21.7154Q82.4771-24.906 85.4434-30.5292Q88.4097-36.1523 88.4097-43.4389L88.4097-83.1823Q88.4097-90.4826 85.4434-96.1057Q82.4771-101.729 77.27-104.913Q72.0629-108.097 65.1806-108.097Q58.3225-108.097 53.0804-104.913Q47.8384-101.729 44.907-96.1057Q41.9757-90.4826 41.9757-83.1823ZM52.348-43.2812L52.348-83.34Q52.348-89.889 55.8079-94.0237Q59.2679-98.1584 65.1806-98.1584Q71.0718-98.1584 74.5425-94.029Q78.0132-89.8995 78.0132-83.34L78.0132-43.2812Q78.0132-36.7217 74.5425-32.6044Q71.0718-28.487 65.1806-28.487Q59.2679-28.487 55.8079-32.6044Q52.348-36.7217 52.348-43.2812Z"/>
  </g>
  <g id="Regular-L" transform="matrix(1 0 0 1 1386.86 1556)">
   <path d="M18.9825-40.4199Q18.9825-28.359 23.9806-19.0044Q28.9788-9.64967 37.9534-4.05106Q46.928 1.54755 58.872 2.45646L58.872 18.7172L34.8256 18.7172Q33.1686 18.7172 31.9468 19.8988Q30.725 21.0804 30.725 22.7968Q30.725 24.5342 31.9468 25.7158Q33.1686 26.8974 34.8256 26.8974L91.1195 26.8974Q92.8063 26.8974 93.9879 25.7158Q95.1694 24.5342 95.1694 22.7968Q95.1694 21.0804 93.9879 19.8988Q92.8063 18.7172 91.1195 18.7172L67.0225 18.7172L67.0225 2.45646Q78.9962 1.54755 87.9962-4.05106Q96.9961-9.64967 101.994-19.0044Q106.992-28.359 106.992-40.4199L106.992-52.8829Q106.992-54.6501 105.786-55.8168Q104.579-56.9835 102.892-56.9835Q101.205-56.9835 100.024-55.8168Q98.8419-54.6501 98.8419-52.8829L98.8419-40.724Q98.8419-30.1262 94.3996-22.0588Q89.9572-13.9915 81.9169-9.51334Q73.8766-5.03516 62.9726-5.03516Q52.128-5.03516 44.0728-9.51334Q36.0177-13.9915 31.5753-22.0588Q27.1329-30.1262 27.1329-40.724L27.1329-52.8829Q27.1329-54.6501 25.9513-55.8168Q24.7698-56.9835 23.0324-56.9835Q21.3456-56.9835 20.164-55.8168Q18.9825-54.6501 18.9825-52.8829ZM40.8843-42.8292Q40.8843-35.8645 43.6473-30.4713Q46.4103-25.0782 51.4013-22.01Q56.3924-18.9419 62.9726-18.9419Q69.5825-18.9419 74.5334-22.01Q79.4842-25.0782 82.2874-30.4713Q85.0906-35.8645 85.0906-42.8292L85.0906-82.9838Q85.0906-89.9783 82.2874-95.3714Q79.4842-100.765 74.5334-103.818Q69.5825-106.871 62.9726-106.871Q56.3924-106.871 51.4013-103.818Q46.4103-100.765 43.6473-95.3714Q40.8843-89.9783 40.8843-82.9838ZM49.0348-42.8292L49.0348-82.9838Q49.0348-90.1081 52.826-94.4948Q56.6173-98.8814 62.9726-98.8814Q69.3069-98.8814 73.1086-94.4948Q76.9103-90.1081 76.9103-82.9838L76.9103-42.8292Q76.9103-35.7049 73.1086-31.3331Q69.3069-26.9613 62.9726-26.9613Q56.6173-26.9613 52.826-31.3331Q49.0348-35.7049 49.0348-42.8292Z"/>
  </g>
  <g id="Light-L" transform="matrix(1 0 0 1 1091.8 1556)">
   <path d="M18.8183-40.2558Q18.8183-28.5848 23.7138-19.5174Q28.6094-10.45 37.4506-5.0669Q46.2918 0.316227 58.1537 1.01992L58.1537 19.456L33.1633 19.456Q31.9168 19.456 30.9618 20.3708Q30.0067 21.2856 30.0067 22.6327Q30.0067 23.9596 30.9618 24.8744Q31.9168 25.7892 33.1633 25.7892L89.4573 25.7892Q90.7541 25.7892 91.6689 24.8744Q92.5837 23.9596 92.5837 22.6327Q92.5837 21.2856 91.6689 20.3708Q90.7541 19.456 89.4573 19.456L64.4367 19.456L64.4367 1.01992Q76.3489 0.316227 85.2052-5.0669Q94.0614-10.45 98.957-19.5174Q103.853-28.5848 103.853-40.2558L103.853-52.3288Q103.853-53.7061 102.923-54.5957Q101.993-55.4854 100.696-55.4854Q99.3992-55.4854 98.4844-54.5957Q97.5696-53.7061 97.5696-52.3288L97.5696-40.4367Q97.5696-29.962 93.0862-21.9049Q88.6028-13.8479 80.4804-9.35942Q72.358-4.87099 61.3103-4.87099Q50.3631-4.87099 42.2156-9.35942Q34.0681-13.8479 29.5847-21.9049Q25.1013-29.962 25.1013-40.4367L25.1013-52.3288Q25.1013-53.7061 24.1865-54.5957Q23.2717-55.4854 21.9447-55.4854Q20.6479-55.4854 19.7331-54.5957Q18.8183-53.7061 18.8183-52.3288ZM40.3507-42.8292Q40.3507-36.2749 42.9393-31.128Q45.5278-25.9811 50.2726-23.0156Q55.0174-20.0501 61.3103-20.0501Q67.6534-20.0501 72.358-23.0156Q77.0626-25.9811 79.6914-31.128Q82.3201-36.2749 82.3201-42.8292L82.3201-83.7226Q82.3201-90.3272 79.6914-95.4741Q77.0626-100.621 72.358-103.561Q67.6534-106.502 61.3103-106.502Q55.0174-106.502 50.2726-103.561Q45.5278-100.621 42.9393-95.4741Q40.3507-90.3272 40.3507-83.7226ZM46.6337-42.8292L46.6337-83.7226Q46.6337-90.9906 50.5994-95.6851Q54.5651-100.38 61.3103-100.38Q68.0756-100.38 72.0312-95.6851Q75.9869-90.9906 75.9869-83.7226L75.9869-42.8292Q75.9869-35.5612 72.0312-30.8919Q68.0756-26.2225 61.3103-26.2225Q54.5651-26.2225 50.5994-30.8919Q46.6337-35.5612 46.6337-42.8292Z"/>
  </g>
  <g id="Thin-L" transform="matrix(1 0 0 1 797.272 1556)">
   <path d="M18.6011-40.0386Q18.6011-28.8833 23.361-20.196Q28.1209-11.5086 36.7856-6.41043Q45.4504-1.31229 57.2038-0.880016L57.2038 20.4331L30.9648 20.4331Q30.2611 20.4331 29.6589 20.9951Q29.0568 21.557 29.0568 22.4155Q29.0568 23.1996 29.6589 23.7616Q30.2611 24.3236 30.9648 24.3236L87.2588 24.3236Q88.0399 24.3236 88.6018 23.7616Q89.1638 23.1996 89.1638 22.4155Q89.1638 21.557 88.6018 20.9951Q88.0399 20.4331 87.2588 20.4331L61.0168 20.4331L61.0168-0.880016Q72.8476-1.31229 81.5139-6.41043Q90.1801-11.5086 94.94-20.196Q99.6998-28.8833 99.6998-40.0386L99.6998-51.596Q99.6998-52.4575 99.1364-52.9808Q98.5729-53.504 97.7918-53.504Q97.0107-53.504 96.4487-52.9808Q95.8868-52.4575 95.8868-51.596L95.8868-40.0567Q95.8868-29.7449 91.3491-21.7014Q86.8114-13.6579 78.5804-9.15586Q70.3495-4.65385 59.1118-4.65385Q48.0289-4.65385 39.7593-9.15586Q31.4896-13.6579 26.9519-21.7014Q22.4142-29.7449 22.4142-40.0567L22.4142-51.596Q22.4142-52.4575 21.8522-52.9808Q21.2903-53.504 20.5062-53.504Q19.7251-53.504 19.1631-52.9808Q18.6011-52.4575 18.6011-51.596ZM39.6451-42.8292Q39.6451-36.8178 42.0029-31.9966Q44.3607-27.1754 48.7798-24.3456Q53.1989-21.5158 59.1118-21.5158Q65.1021-21.5158 69.481-24.3456Q73.8599-27.1754 76.2579-31.9966Q78.6559-36.8178 78.6559-42.8292L78.6559-84.6997Q78.6559-90.7886 76.2579-95.6098Q73.8599-100.431 69.481-103.222Q65.1021-106.013 59.1118-106.013Q53.1989-106.013 48.7798-103.222Q44.3607-100.431 42.0029-95.6098Q39.6451-90.7886 39.6451-84.6997ZM43.4581-42.8292L43.4581-84.6997Q43.4581-92.1577 47.6545-97.2593Q51.8509-102.361 59.1118-102.361Q66.4471-102.361 70.6063-97.2593Q74.7655-92.1577 74.7655-84.6997L74.7655-42.8292Q74.7655-35.3712 70.6063-30.3083Q66.4471-25.2454 59.1118-25.2454Q51.8509-25.2454 47.6545-30.3083Q43.4581-35.3712 43.4581-42.8292Z"/>
  </g>
  <g id="Ultralight-L" transform="matrix(1 0 0 1 501.68 1556)">
   <path d="M18.4899-39.9274Q18.4899-29.0363 23.1803-20.5435Q27.8706-12.0507 36.445-7.09858Q45.0194-2.14641 56.7172-1.85315L56.7172 20.9336L29.8388 20.9336Q29.4131 20.9336 28.9917 21.3148Q28.5702 21.696 28.5702 22.3043Q28.5702 22.8104 28.9917 23.1916Q29.4131 23.5729 29.8388 23.5729L86.1327 23.5729Q86.6497 23.5729 87.0309 23.1916Q87.4121 22.8104 87.4121 22.3043Q87.4121 21.696 87.0309 21.3148Q86.6497 20.9336 86.1327 20.9336L59.2652 20.9336L59.2652-1.85315Q71.0542-2.14641 79.6232-7.09858Q88.1921-12.0507 92.8825-20.5435Q97.5728-29.0363 97.5728-39.9274L97.5728-51.2206Q97.5728-51.818 97.1971-52.1536Q96.8213-52.4892 96.3043-52.4892Q95.7873-52.4892 95.4061-52.1536Q95.0249-51.818 95.0249-51.2206L95.0249-39.8621Q95.0249-29.6337 90.4594-21.5971Q85.8939-13.5606 77.6073-9.05159Q69.3207-4.54264 57.9857-4.54264Q46.8334-4.54264 38.5011-9.05159Q30.1689-13.5606 25.6034-21.5971Q21.0379-29.6337 21.0379-39.8621L21.0379-51.2206Q21.0379-51.818 20.6567-52.1536Q20.2754-52.4892 19.7694-52.4892Q19.2524-52.4892 18.8712-52.1536Q18.4899-51.818 18.4899-51.2206ZM39.2836-42.8292Q39.2836-37.0958 41.5233-32.4414Q43.7629-27.7871 48.0152-25.0268Q52.2675-22.2665 57.9857-22.2665Q63.7953-22.2665 68.0074-25.0268Q72.2194-27.7871 74.4993-32.4414Q76.7792-37.0958 76.7792-42.8292L76.7792-85.2002Q76.7792-91.0249 74.4993-95.6793Q72.2194-100.334 68.0074-103.048Q63.7953-105.763 57.9857-105.763Q52.2675-105.763 48.0152-103.048Q43.7629-100.334 41.5233-95.6793Q39.2836-91.0249 39.2836-85.2002ZM41.8316-42.8292L41.8316-85.2002Q41.8316-92.7555 46.1461-98.0656Q50.4607-103.376 57.9857-103.376Q65.6129-103.376 69.8764-98.0656Q74.1399-92.7555 74.1399-85.2002L74.1399-42.8292Q74.1399-35.2739 69.8764-30.0094Q65.6129-24.7449 57.9857-24.7449Q50.4607-24.7449 46.1461-30.0094Q41.8316-35.2739 41.8316-42.8292Z"/>
  </g>
  <g id="Black-M" transform="matrix(1 0 0 1 2873.19 1126)">
   <path d="M13.3517-40.5223Q13.3517-28.3367 18.4541-19.2779Q23.5565-10.2191 32.3455-4.7515Q41.1346 0.716081 52.1944 2.22466L52.1944 6.18165L35.1523 6.18165Q31.6317 6.18165 28.9543 8.68522Q26.2768 11.1888 26.2768 14.7088Q26.2768 18.1775 28.9543 20.7096Q31.6317 23.2417 35.1523 23.2417L85.2746 23.2417Q88.7949 23.2417 91.4697 20.7096Q94.1446 18.1775 94.1446 14.7088Q94.1446 11.1888 91.4697 8.68522Q88.7949 6.18165 85.2746 6.18165L68.227 6.18165L68.227 2.22466Q79.2865 0.716081 88.0783-4.7515Q96.8702-10.2191 101.973-19.2779Q107.075-28.3367 107.075-40.5223L107.075-49.137Q107.075-52.6625 104.512-55.0234Q101.948-57.3844 98.3707-57.3844Q94.7933-57.3844 92.1756-55.0234Q89.5578-52.6625 89.5578-49.137L89.5578-41.0122Q89.5578-32.7186 85.6204-26.6281Q81.683-20.5376 75.0333-17.2226Q68.3837-13.9076 60.2135-13.9076Q52.0426-13.9076 45.3931-17.2226Q38.7436-20.5376 34.8062-26.6281Q30.8688-32.7186 30.8688-41.0122L30.8688-49.137Q30.8688-52.6625 28.251-55.0234Q25.6333-57.3844 22.0504-57.3844Q18.473-57.3844 15.9123-55.0234Q13.3517-52.6625 13.3517-49.137ZM37.4204-44.4289Q37.4204-37.4242 40.416-32.0808Q43.4117-26.7374 48.5578-23.7298Q53.7039-20.7222 60.2135-20.7222Q66.7228-20.7222 71.8662-23.7298Q77.0097-26.7374 80.008-32.0808Q83.0062-37.4242 83.0062-44.4289L83.0062-73.5561Q83.0062-80.5033 80.008-85.8468Q77.0097-91.1902 71.8662-94.2265Q66.7228-97.2627 60.2135-97.2627Q53.7039-97.2627 48.5578-94.2265Q43.4117-91.1902 40.416-85.8468Q37.4204-80.5033 37.4204-73.5561ZM55.1659-43.5724L55.1659-74.4125Q55.1659-76.8567 56.3632-78.9915Q57.5604-81.1263 60.2135-81.1263Q62.8607-81.1263 64.0608-79.02Q65.261-76.9138 65.261-74.4125L65.261-43.5724Q65.261-41.0712 64.0608-38.9647Q62.8607-36.8583 60.2135-36.8583Q57.5604-36.8583 56.3632-38.9647Q55.1659-41.0712 55.1659-43.5724Z"/>
  </g>
  <g id="Heavy-M" transform="matrix(1 0 0 1 2578.95 1126)">
   <path d="M13.6935-40.2443Q13.6935-28.6768 18.5194-20.0069Q23.3453-11.3369 31.719-6.10706Q40.0926-0.877201 50.7372 0.469136L50.7372 6.17283L33.4474 6.17283Q30.3995 6.17283 28.0947 8.33747Q25.7898 10.5021 25.7898 13.5549Q25.7898 16.5779 28.0947 18.7643Q30.3995 20.9508 33.4474 20.9508L82.0336 20.9508Q85.0839 20.9508 87.3794 18.7643Q89.6749 16.5779 89.6749 13.5549Q89.6749 10.5021 87.3794 8.33747Q85.0839 6.17283 82.0336 6.17283L64.7275 6.17283L64.7275 0.469136Q75.3745-0.877201 83.7563-6.10706Q92.1381-11.3369 96.964-20.0069Q101.79-28.6768 101.79-40.2443L101.79-49.1571Q101.79-52.2261 99.5735-54.2805Q97.3572-56.3348 94.2632-56.3348Q91.1692-56.3348 88.9173-54.2805Q86.6654-52.2261 86.6654-49.1571L86.6654-40.6907Q86.6654-32.4002 82.8505-26.2706Q79.0356-20.1411 72.4963-16.791Q65.9569-13.4409 57.7405-13.4409Q49.529-13.4409 42.9884-16.791Q36.4478-20.1411 32.6329-26.2706Q28.818-32.4002 28.818-40.6907L28.818-49.1571Q28.818-52.2261 26.5661-54.2805Q24.3142-56.3348 21.204-56.3348Q18.11-56.3348 15.9017-54.2805Q13.6935-52.2261 13.6935-49.1571ZM36.1362-43.6473Q36.1362-36.9672 38.9535-31.8656Q41.7708-26.764 46.6481-23.8914Q51.5254-21.0189 57.7405-21.0189Q63.958-21.0189 68.826-23.8914Q73.6939-26.764 76.5206-31.8656Q79.3472-36.9672 79.3472-43.6473L79.3472-73.143Q79.3472-79.782 76.5206-84.8836Q73.6939-89.9852 68.826-92.8783Q63.958-95.7715 57.7405-95.7715Q51.5254-95.7715 46.6481-92.8783Q41.7708-89.9852 38.9535-84.8836Q36.1362-79.782 36.1362-73.143ZM51.4352-42.993L51.4352-73.7973Q51.4352-76.9479 53.0196-79.3396Q54.604-81.7313 57.7405-81.7313Q60.8632-81.7313 62.4545-79.3614Q64.0458-76.9916 64.0458-73.7973L64.0458-42.993Q64.0458-39.7988 62.4545-37.4302Q60.8632-35.0615 57.7405-35.0615Q54.604-35.0615 53.0196-37.4302Q51.4352-39.7988 51.4352-42.993Z"/>
  </g>
  <g id="Bold-M" transform="matrix(1 0 0 1 2285 1126)">
   <path d="M14.0759-39.9333Q14.0759-29.0573 18.5924-20.8224Q23.109-12.5874 31.0181-7.62344Q38.9271-2.65952 49.1071-1.49467L49.1071 6.16296L31.5402 6.16296Q29.0211 6.16296 27.1331 7.94847Q25.245 9.73398 25.245 12.2641Q25.245 14.7885 27.1331 16.5882Q29.0211 18.388 31.5402 18.388L78.408 18.388Q80.9326 18.388 82.8038 16.5882Q84.6749 14.7885 84.6749 12.2641Q84.6749 9.73398 82.8038 7.94847Q80.9326 6.16296 78.408 6.16296L60.8128 6.16296L60.8128-1.49467Q70.9984-2.65952 78.9215-7.62344Q86.8447-12.5874 91.3613-20.8224Q95.8779-29.0573 95.8779-39.9333L95.8779-49.1795Q95.8779-51.7379 94.0497-53.4493Q92.2215-55.1607 89.6683-55.1607Q87.1151-55.1607 85.2725-53.4493Q83.4299-51.7379 83.4299-49.1795L83.4299-40.3311Q83.4299-32.044 79.7521-25.8707Q76.0742-19.6975 69.6582-16.3082Q63.2422-12.9189 54.9741-12.9189Q46.7171-12.9189 40.2983-16.3082Q33.8795-19.6975 30.2016-25.8707Q26.5238-32.044 26.5238-40.3311L26.5238-49.1795Q26.5238-51.7379 24.6812-53.4493Q22.8386-55.1607 20.2572-55.1607Q17.704-55.1607 15.8899-53.4493Q14.0759-51.7379 14.0759-49.1795ZM34.6996-42.7731Q34.6996-36.4559 37.3174-31.6248Q39.9352-26.7938 44.5119-24.0723Q49.0885-21.3508 54.9741-21.3508Q60.8653-21.3508 65.425-24.0723Q69.9847-26.7938 72.6194-31.6248Q75.2541-36.4559 75.2541-42.7731L75.2541-72.6809Q75.2541-78.9751 72.6194-83.8061Q69.9847-88.6372 65.425-91.3702Q60.8653-94.1032 54.9741-94.1032Q49.0885-94.1032 44.5119-91.3702Q39.9352-88.6372 37.3174-83.8061Q34.6996-78.9751 34.6996-72.6809ZM47.2618-42.3449L47.2618-73.1092Q47.2618-77.05 49.2793-79.729Q51.2968-82.408 54.9741-82.408Q58.6287-82.408 60.6576-79.7433Q62.6864-77.0786 62.6864-73.1092L62.6864-42.3449Q62.6864-38.3754 60.6576-35.7135Q58.6287-33.0516 54.9741-33.0516Q51.2968-33.0516 49.2793-35.7135Q47.2618-38.3754 47.2618-42.3449Z"/>
  </g>
  <g id="Semibold-M" transform="matrix(1 0 0 1 1990.2 1126)">
   <path d="M14.3395-39.7189Q14.3395-29.3197 18.6428-21.3845Q22.9462-13.4494 30.5349-8.66883Q38.1235-3.88823 47.9834-2.8485L47.9834 6.15616L30.2254 6.15616Q28.0708 6.15616 26.4702 7.68029Q24.8695 9.20443 24.8695 11.3743Q24.8695 13.5549 26.4702 15.0881Q28.0708 16.6213 30.2254 16.6213L75.9085 16.6213Q78.0708 16.6213 79.6494 15.0881Q81.228 13.5549 81.228 11.3743Q81.228 9.20443 79.6494 7.68029Q78.0708 6.15616 75.9085 6.15616L58.1141 6.15616L58.1141-2.8485Q67.9815-3.88823 75.5885-8.66883Q83.1954-13.4494 87.4988-21.3845Q91.8021-29.3197 91.8021-39.7189L91.8021-49.195Q91.8021-51.4014 90.2416-52.8763Q88.681-54.3512 86.5007-54.3512Q84.3203-54.3512 82.7598-52.8763Q81.1994-51.4014 81.1994-49.195L81.1994-40.0832Q81.1994-31.7984 77.616-25.595Q74.0326-19.3917 67.7017-15.9754Q61.3707-12.559 53.067-12.559Q44.7786-12.559 38.4438-15.9754Q32.109-19.3917 28.5256-25.595Q24.9422-31.7984 24.9422-40.0832L24.9422-49.195Q24.9422-51.4014 23.3818-52.8763Q21.8213-54.3512 19.6044-54.3512Q17.4241-54.3512 15.8818-52.8763Q14.3395-51.4014 14.3395-49.195ZM33.7093-42.1704Q33.7093-36.1034 36.1895-31.4589Q38.6698-26.8144 43.0391-24.197Q47.4085-21.5796 53.067-21.5796Q58.7331-21.5796 63.0804-24.197Q67.4276-26.8144 69.93-31.4589Q72.4323-36.1034 72.4323-42.1704L72.4323-72.3624Q72.4323-78.4188 69.93-83.0633Q67.4276-87.7079 63.0804-90.3305Q58.7331-92.9532 53.067-92.9532Q47.4085-92.9532 43.0391-90.3305Q38.6698-87.7079 36.1895-83.0633Q33.7093-78.4188 33.7093-72.3624ZM44.3846-41.898L44.3846-72.6347Q44.3846-77.1204 46.7008-79.9975Q49.0169-82.8745 53.067-82.8745Q57.0882-82.8745 59.4188-80.0065Q61.7493-77.1386 61.7493-72.6347L61.7493-41.898Q61.7493-37.3942 59.4188-34.53Q57.0882-31.6659 53.067-31.6659Q49.0169-31.6659 46.7008-34.53Q44.3846-37.3942 44.3846-41.898Z"/>
  </g>
  <g id="Medium-M" transform="matrix(1 0 0 1 1694.93 1126)">
   <path d="M14.5393-39.5563Q14.5393-29.5186 18.681-21.8108Q22.8227-14.1031 30.1685-9.46148Q37.5143-4.8199 47.1313-3.87504L47.1313 6.151L29.2285 6.151Q27.3503 6.151 25.9675 7.47695Q24.5847 8.80291 24.5847 10.6996Q24.5847 12.6195 25.9675 13.9506Q27.3503 15.2817 29.2285 15.2817L74.0134 15.2817Q75.9008 15.2817 77.2576 13.9506Q78.6143 12.6195 78.6143 10.6996Q78.6143 8.80291 77.2576 7.47695Q75.9008 6.151 74.0134 6.151L56.0677 6.151L56.0677-3.87504Q65.694-4.8199 73.0612-9.46148Q80.4284-14.1031 84.5701-21.8108Q88.7117-29.5186 88.7117-39.5563L88.7117-49.2068Q88.7117-51.1462 87.3541-52.4418Q85.9965-53.7375 84.0988-53.7375Q82.2011-53.7375 80.8546-52.4418Q79.5081-51.1462 79.5081-49.2068L79.5081-39.8952Q79.5081-31.6122 75.9964-25.386Q72.4846-19.1598 66.2181-15.723Q59.9516-12.2862 51.6209-12.2862Q43.3087-12.2862 37.0376-15.723Q30.7664-19.1598 27.2547-25.386Q23.743-31.6122 23.743-39.8952L23.743-49.2068Q23.743-51.1462 22.3965-52.4418Q21.05-53.7375 19.1095-53.7375Q17.2118-53.7375 15.8756-52.4418Q14.5393-51.1462 14.5393-49.2068ZM32.9583-41.7134Q32.9583-35.8362 35.3343-31.333Q37.7103-26.8299 41.9225-24.2915Q46.1346-21.7531 51.6209-21.7531Q57.1165-21.7531 61.3026-24.2915Q65.4887-26.8299 67.8907-31.333Q70.2927-35.8362 70.2927-41.7134L70.2927-72.1208Q70.2927-77.997 67.8907-82.5001Q65.4887-87.0032 61.3026-89.5422Q57.1165-92.0812 51.6209-92.0812Q46.1346-92.0812 41.9225-89.5422Q37.7103-87.0032 35.3343-82.5001Q32.9583-77.997 32.9583-72.1208ZM42.2031-41.5592L42.2031-72.275Q42.2031-77.1738 44.7456-80.201Q47.2881-83.2282 51.6209-83.2282Q55.9202-83.2282 58.4795-80.2062Q61.0387-77.1841 61.0387-72.275L61.0387-41.5592Q61.0387-36.6501 58.4795-33.6327Q55.9202-30.6152 51.6209-30.6152Q47.2881-30.6152 44.7456-33.6327Q42.2031-36.6501 42.2031-41.5592Z"/>
  </g>
  <g id="Regular-M" transform="matrix(1 0 0 1 1400.1 1126)">
   <path d="M14.8001-39.3443Q14.8001-29.778 18.7308-22.3668Q22.6616-14.9556 29.6906-10.4954Q36.7196-6.03511 46.0199-5.21399L46.0199 6.14427L27.9281 6.14427Q26.4105 6.14427 25.3119 7.21172Q24.2133 8.27918 24.2133 9.81949Q24.2133 11.3994 25.3119 12.4669Q26.4105 13.5343 27.9281 13.5343L71.5414 13.5343Q73.0704 13.5343 74.1378 12.4669Q75.2053 11.3994 75.2053 9.81949Q75.2053 8.27918 74.1378 7.21172Q73.0704 6.14427 71.5414 6.14427L53.3986 6.14427L53.3986-5.21399Q62.7103-6.03511 69.7648-10.4954Q76.8192-14.9556 80.75-22.3668Q84.6808-29.778 84.6808-39.3443L84.6808-49.2221Q84.6808-50.8134 83.5878-51.8752Q82.4949-52.9369 80.9659-52.9369Q79.437-52.9369 78.3695-51.8752Q77.3021-50.8134 77.3021-49.2221L77.3021-39.6501Q77.3021-31.3693 73.8838-25.1133Q70.4655-18.8574 64.2831-15.3938Q58.1007-11.9302 49.7347-11.9302Q41.3915-11.9302 35.2034-15.3938Q29.0154-18.8574 25.5971-25.1133Q22.1788-31.3693 22.1788-39.6501L22.1788-49.2221Q22.1788-50.8134 21.1113-51.8752Q20.0439-52.9369 18.4639-52.9369Q16.935-52.9369 15.8675-51.8752Q14.8001-50.8134 14.8001-49.2221ZM31.9789-41.1173Q31.9789-35.4876 34.2188-31.1689Q36.4588-26.8503 40.466-24.4148Q44.4731-21.9793 49.7347-21.9793Q55.0078-21.9793 58.9837-24.4148Q62.9597-26.8503 65.2308-31.1689Q67.502-35.4876 67.502-41.1173L67.502-71.8058Q67.502-77.4469 65.2308-81.7655Q62.9597-86.0842 58.9837-88.5139Q55.0078-90.9437 49.7347-90.9437Q44.4731-90.9437 40.466-88.5139Q36.4588-86.0842 34.2188-81.7655Q31.9789-77.4469 31.9789-71.8058ZM39.3576-41.1173L39.3576-71.8058Q39.3576-77.2434 42.1954-80.4665Q45.0332-83.6896 49.7347-83.6896Q54.3966-83.6896 57.2543-80.4665Q60.1119-77.2434 60.1119-71.8058L60.1119-41.1173Q60.1119-35.6797 57.2543-32.4622Q54.3966-29.2448 49.7347-29.2448Q45.0332-29.2448 42.1954-32.4622Q39.3576-35.6797 39.3576-41.1173Z"/>
  </g>
  <g id="Light-M" transform="matrix(1 0 0 1 1104.87 1126)">
   <path d="M14.6529-39.1971Q14.6529-29.9804 18.4916-22.8268Q22.3304-15.6732 29.2398-11.4061Q36.1492-7.13905 45.3759-6.50192L45.3759 6.80663L26.4378 6.80663Q25.2881 6.80663 24.4287 7.6349Q23.5693 8.46317 23.5693 9.6723Q23.5693 10.8842 24.4287 11.7125Q25.2881 12.5408 26.4378 12.5408L70.0511 12.5408Q71.2305 12.5408 72.0587 11.7125Q72.887 10.8842 72.887 9.6723Q72.887 8.46317 72.0587 7.6349Q71.2305 6.80663 70.0511 6.80663L51.0803 6.80663L51.0803-6.50192Q60.3368-7.13905 67.2625-11.4061Q74.1882-15.6732 78.0269-22.8268Q81.8657-29.9804 81.8657-39.1971L81.8657-48.7253Q81.8657-49.967 81.0212-50.7804Q80.1766-51.5938 78.9972-51.5938Q77.8179-51.5938 76.9896-50.7804Q76.1613-49.967 76.1613-48.7253L76.1613-39.3925Q76.1613-31.2221 72.7062-24.9754Q69.2511-18.7286 62.9951-15.2558Q56.7392-11.783 48.2444-11.783Q39.8092-11.783 33.5383-15.2558Q27.2675-18.7286 23.8124-24.9754Q20.3573-31.2221 20.3573-39.3925L20.3573-48.7253Q20.3573-49.967 19.529-50.7804Q18.7007-51.5938 17.4888-51.5938Q16.3094-51.5938 15.4811-50.7804Q14.6529-49.967 14.6529-48.7253ZM31.5005-41.1173Q31.5005-35.8555 33.5841-31.7577Q35.6677-27.6598 39.454-25.3164Q43.2403-22.9729 48.2444-22.9729Q53.2783-22.9729 57.0334-25.3164Q60.7886-27.6598 62.9034-31.7577Q65.0181-35.8555 65.0181-41.1173L65.0181-72.4682Q65.0181-77.7597 62.9034-81.8575Q60.7886-85.9554 57.0334-88.284Q53.2783-90.6126 48.2444-90.6126Q43.2403-90.6126 39.454-88.284Q35.6677-85.9554 33.5841-81.8575Q31.5005-77.7597 31.5005-72.4682ZM37.2049-41.1173L37.2049-72.4682Q37.2049-78.0346 40.1991-81.5337Q43.1933-85.0328 48.2444-85.0328Q53.2927-85.0328 56.2883-81.5337Q59.284-78.0346 59.284-72.4682L59.284-41.1173Q59.284-35.5509 56.2883-32.0667Q53.2927-28.5824 48.2444-28.5824Q43.1933-28.5824 40.1991-32.0667Q37.2049-35.5509 37.2049-41.1173Z"/>
  </g>
  <g id="Thin-M" transform="matrix(1 0 0 1 810.122 1126)">
   <path d="M14.4582-39.0024Q14.4582-30.2481 18.1753-23.4352Q21.8924-16.6222 28.6436-12.6107Q35.3949-8.5991 44.5242-8.20532L44.5242 7.68266L24.4667 7.68266Q23.8038 7.68266 23.2607 8.19459Q22.7176 8.70651 22.7176 9.47763Q22.7176 10.2029 23.2607 10.7148Q23.8038 11.2267 24.4667 11.2267L68.08 11.2267Q68.797 11.2267 69.309 10.7148Q69.8209 10.2029 69.8209 9.47763Q69.8209 8.70651 69.309 8.19459Q68.797 7.68266 68.08 7.68266L48.0142 7.68266L48.0142-8.20532Q57.1977-8.5991 63.953-12.6107Q70.7084-16.6222 74.4255-23.4352Q78.1426-30.2481 78.1426-39.0024L78.1426-48.0683Q78.1426-48.8476 77.6266-49.3325Q77.1105-49.8174 76.3935-49.8174Q75.6764-49.8174 75.1645-49.3325Q74.6526-48.8476 74.6526-48.0683L74.6526-39.0518Q74.6526-31.0274 71.1488-24.7928Q67.6451-18.5583 61.2918-15.0733Q54.9384-11.5884 46.2734-11.5884Q37.7164-11.5884 31.3361-15.0733Q24.9557-18.5583 21.4519-24.7928Q17.9482-31.0274 17.9482-39.0518L17.9482-48.0683Q17.9482-48.8476 17.4363-49.3325Q16.9243-49.8174 16.1991-49.8174Q15.482-49.8174 14.9701-49.3325Q14.4582-48.8476 14.4582-48.0683ZM30.8678-41.1173Q30.8678-36.3422 32.7445-32.5364Q34.6213-28.7305 38.1156-26.5087Q41.6099-24.2869 46.2734-24.2869Q50.9908-24.2869 54.454-26.5087Q57.9172-28.7305 59.8251-32.5364Q61.733-36.3422 61.733-41.1173L61.733-73.3442Q61.733-78.1733 59.8251-81.9792Q57.9172-85.785 54.454-87.9798Q50.9908-90.1745 46.2734-90.1745Q41.6099-90.1745 38.1156-87.9798Q34.6213-85.785 32.7445-81.9792Q30.8678-78.1733 30.8678-73.3442ZM34.3578-41.1173L34.3578-73.3442Q34.3578-79.0809 37.5589-82.945Q40.7599-86.8092 46.2734-86.8092Q51.8326-86.8092 55.0108-82.945Q58.1889-79.0809 58.1889-73.3442L58.1889-41.1173Q58.1889-35.3805 55.0108-31.5435Q51.8326-27.7064 46.2734-27.7064Q40.7599-27.7064 37.5589-31.5435Q34.3578-35.3805 34.3578-41.1173Z"/>
  </g>
  <g id="Ultralight-M" transform="matrix(1 0 0 1 514.414 1126)">
   <path d="M14.3585-38.9027Q14.3585-30.3852 18.0133-23.7468Q21.6681-17.1083 28.3383-13.2276Q35.0085-9.34693 44.088-9.07779L44.088 8.13136L23.4571 8.13136Q23.0435 8.13136 22.6624 8.48125Q22.2814 8.83115 22.2814 9.37792Q22.2814 9.85391 22.6624 10.2038Q23.0435 10.5537 23.4571 10.5537L67.0704 10.5537Q67.5507 10.5537 67.9005 10.2038Q68.2504 9.85391 68.2504 9.37792Q68.2504 8.83115 67.9005 8.48125Q67.5507 8.13136 67.0704 8.13136L46.4438 8.13136L46.4438-9.07779Q55.5899-9.34693 62.258-13.2276Q68.9261-17.1083 72.5808-23.7468Q76.2356-30.3852 76.2356-38.9027L76.2356-47.7318Q76.2356-48.2743 75.8879-48.5909Q75.5401-48.9075 75.0599-48.9075Q74.5796-48.9075 74.2297-48.5909Q73.8798-48.2743 73.8798-47.7318L73.8798-38.8773Q73.8798-30.9277 70.3512-24.6994Q66.8225-18.471 60.4193-14.9798Q54.0161-11.4887 45.2638-11.4887Q36.6445-11.4887 30.2081-14.9798Q23.7716-18.471 20.243-24.6994Q16.7143-30.9277 16.7143-38.8773L16.7143-47.7318Q16.7143-48.2743 16.3644-48.5909Q16.0145-48.9075 15.5385-48.9075Q15.0583-48.9075 14.7084-48.5909Q14.3585-48.2743 14.3585-47.7318ZM30.5437-41.1173Q30.5437-36.5915 32.3145-32.9352Q34.0854-29.2789 37.4301-27.1195Q40.7749-24.96 45.2638-24.96Q49.8192-24.96 53.1328-27.1195Q56.4464-29.2789 58.2484-32.9352Q60.0504-36.5915 60.0504-41.1173L60.0504-73.7929Q60.0504-78.3852 58.2484-82.0415Q56.4464-85.6978 53.1328-87.824Q49.8192-89.9502 45.2638-89.9502Q40.7749-89.9502 37.4301-87.824Q34.0854-85.6978 32.3145-82.0415Q30.5437-78.3852 30.5437-73.7929ZM32.8995-41.1173L32.8995-73.7929Q32.8995-79.6169 36.2065-83.6679Q39.5135-87.719 45.2638-87.719Q51.0848-87.719 54.3564-83.6679Q57.6281-79.6169 57.6281-73.7929L57.6281-41.1173Q57.6281-35.2933 54.3564-31.2755Q51.0848-27.2577 45.2638-27.2577Q39.5135-27.2577 36.2065-31.2755Q32.8995-35.2933 32.8995-41.1173Z"/>
  </g>
  <g id="Black-S" transform="matrix(1 0 0 1 2885.55 696)">
   <path d="M10.3516-39.4531Q10.3516-29.7363 14.4287-22.5342Q18.5059-15.332 25.5127-10.9863Q32.5195-6.64062 41.3086-5.41992L41.3086-2.73438L27.9785-2.73438Q25.0977-2.73438 22.9004-0.683594Q20.7031 1.36719 20.7031 4.24805Q20.7031 7.08008 22.9004 9.15527Q25.0977 11.2305 27.9785 11.2305L67.7246 11.2305Q70.6055 11.2305 72.8027 9.15527Q75 7.08008 75 4.24805Q75 1.36719 72.8027-0.683594Q70.6055-2.73438 67.7246-2.73438L54.3945-2.73438L54.3945-5.41992Q63.1836-6.64062 70.1904-10.9863Q77.1973-15.332 81.2744-22.5342Q85.3516-29.7363 85.3516-39.4531L85.3516-46.0938Q85.3516-48.9746 83.252-50.9033Q81.1523-52.832 78.2227-52.832Q75.293-52.832 73.1445-50.9033Q70.9961-48.9746 70.9961-46.0938L70.9961-39.8438Q70.9961-33.3496 67.8711-28.5889Q64.7461-23.8281 59.4971-21.2402Q54.248-18.6523 47.8516-18.6523Q41.4551-18.6523 36.2061-21.2402Q30.957-23.8281 27.832-28.5889Q24.707-33.3496 24.707-39.8438L24.707-46.0938Q24.707-48.9746 22.5586-50.9033Q20.4102-52.832 17.4805-52.832Q14.5508-52.832 12.4512-50.9033Q10.3516-48.9746 10.3516-46.0938ZM29.6875-42.6758Q29.6875-37.1094 32.0801-32.8613Q34.4727-28.6133 38.5742-26.2207Q42.6758-23.8281 47.8516-23.8281Q53.0273-23.8281 57.1289-26.2207Q61.2305-28.6133 63.623-32.8613Q66.0156-37.1094 66.0156-42.6758L66.0156-65.4297Q66.0156-70.9473 63.623-75.1953Q61.2305-79.4434 57.1289-81.8604Q53.0273-84.2773 47.8516-84.2773Q42.6758-84.2773 38.5742-81.8604Q34.4727-79.4434 32.0801-75.1953Q29.6875-70.9473 29.6875-65.4297ZM44.2383-41.9434L44.2383-66.1621Q44.2383-67.8711 45.0684-69.4824Q45.8984-71.0938 47.8516-71.0938Q49.8047-71.0938 50.6348-69.5068Q51.4648-67.9199 51.4648-66.1621L51.4648-41.9434Q51.4648-40.1855 50.6348-38.5986Q49.8047-37.0117 47.8516-37.0117Q45.8984-37.0117 45.0684-38.5986Q44.2383-40.1855 44.2383-41.9434Z"/>
  </g>
  <g id="Heavy-S" transform="matrix(1 0 0 1 2590.76 696)">
   <path d="M10.6627-39.2342Q10.6627-30.0014 14.5151-23.0989Q18.3676-16.1964 25.0344-12.0293Q31.7013-7.86222 40.1446-6.75676L40.1446-2.82657L26.7108-2.82657Q24.1872-2.82657 22.2781-1.03509Q20.3689 0.756391 20.3689 3.27999Q20.3689 5.77781 22.2781 7.58795Q24.1872 9.39808 26.7108 9.39808L65.1431 9.39808Q67.6667 9.39808 69.5701 7.58795Q71.4735 5.77781 71.4735 3.27999Q71.4735 0.756391 69.5701-1.03509Q67.6667-2.82657 65.1431-2.82657L51.6978-2.82657L51.6978-6.75676Q60.1411-7.86222 66.8138-12.0293Q73.4864-16.1964 77.3388-23.0989Q81.1912-30.0014 81.1912-39.2342L81.1912-46.1744Q81.1912-48.7095 79.3567-50.4078Q77.5221-52.106 74.9612-52.106Q72.4003-52.106 70.5342-50.4078Q68.6682-48.7095 68.6682-46.1744L68.6682-39.6017Q68.6682-33.0961 65.6526-28.3008Q62.6371-23.5054 57.4918-20.8887Q52.3465-18.272 45.927-18.272Q39.5074-18.272 34.3621-20.8887Q29.2168-23.5054 26.2013-28.3008Q23.1858-33.0961 23.1858-39.6017L23.1858-46.1744Q23.1858-48.7095 21.3197-50.4078Q19.4536-52.106 16.8812-52.106Q14.3203-52.106 12.4915-50.4078Q10.6627-48.7095 10.6627-46.1744ZM28.6503-42.0074Q28.6503-36.6714 30.9103-32.602Q33.1704-28.5326 37.0703-26.2438Q40.9702-23.9549 45.927-23.9549Q50.8838-23.9549 54.7779-26.2438Q58.672-28.5326 60.9378-32.602Q63.2037-36.6714 63.2037-42.0074L63.2037-64.9918Q63.2037-70.2904 60.9378-74.3598Q58.672-78.4292 54.7779-80.7367Q50.8838-83.0442 45.927-83.0442Q40.9702-83.0442 37.0703-80.7367Q33.1704-78.4292 30.9103-74.3598Q28.6503-70.2904 28.6503-64.9918ZM41.3226-41.4478L41.3226-65.5513Q41.3226-67.848 42.4638-69.6438Q43.6051-71.4395 45.927-71.4395Q48.2374-71.4395 49.3844-69.6624Q50.5314-67.8853 50.5314-65.5513L50.5314-41.4478Q50.5314-39.1138 49.3844-37.3367Q48.2374-35.5596 45.927-35.5596Q43.6051-35.5596 42.4638-37.3367Q41.3226-39.1138 41.3226-41.4478Z"/>
  </g>
  <g id="Bold-S" transform="matrix(1 0 0 1 2296.2 696)">
   <path d="M11.0107-38.9893Q11.0107-30.2979 14.6118-23.7305Q18.2129-17.1631 24.4995-13.1958Q30.7861-9.22852 38.8428-8.25195L38.8428-2.92969L25.293-2.92969Q23.1689-2.92969 21.582-1.42822Q19.9951 0.0732422 19.9951 2.19727Q19.9951 4.32129 21.582 5.83496Q23.1689 7.34863 25.293 7.34863L62.2559 7.34863Q64.3799 7.34863 65.9546 5.83496Q67.5293 4.32129 67.5293 2.19727Q67.5293 0.0732422 65.9546-1.42822Q64.3799-2.92969 62.2559-2.92969L48.6816-2.92969L48.6816-8.25195Q56.7383-9.22852 63.0371-13.1958Q69.3359-17.1631 72.937-23.7305Q76.5381-30.2979 76.5381-38.9893L76.5381-46.2646Q76.5381-48.4131 75-49.8535Q73.4619-51.2939 71.3135-51.2939Q69.165-51.2939 67.6147-49.8535Q66.0645-48.4131 66.0645-46.2646L66.0645-39.3311Q66.0645-32.8125 63.1714-27.9785Q60.2783-23.1445 55.249-20.4956Q50.2197-17.8467 43.7744-17.8467Q37.3291-17.8467 32.2998-20.4956Q27.2705-23.1445 24.3774-27.9785Q21.4844-32.8125 21.4844-39.3311L21.4844-46.2646Q21.4844-48.4131 19.9341-49.8535Q18.3838-51.2939 16.2109-51.2939Q14.0625-51.2939 12.5366-49.8535Q11.0107-48.4131 11.0107-46.2646ZM27.4902-41.2598Q27.4902-36.1816 29.6021-32.312Q31.7139-28.4424 35.3882-26.2695Q39.0625-24.0967 43.7744-24.0967Q48.4863-24.0967 52.1484-26.2695Q55.8105-28.4424 57.9346-32.312Q60.0586-36.1816 60.0586-41.2598L60.0586-64.502Q60.0586-69.5557 57.9346-73.4253Q55.8105-77.2949 52.1484-79.48Q48.4863-81.665 43.7744-81.665Q39.0625-81.665 35.3882-79.48Q31.7139-77.2949 29.6021-73.4253Q27.4902-69.5557 27.4902-64.502ZM38.0615-40.8936L38.0615-64.8682Q38.0615-67.8223 39.5508-69.8242Q41.04-71.8262 43.7744-71.8262Q46.4844-71.8262 47.9858-69.8364Q49.4873-67.8467 49.4873-64.8682L49.4873-40.8936Q49.4873-37.915 47.9858-35.9253Q46.4844-33.9355 43.7744-33.9355Q41.04-33.9355 39.5508-35.9253Q38.0615-37.915 38.0615-40.8936Z"/>
  </g>
  <g id="Semibold-S" transform="matrix(1 0 0 1 2000.98 696)">
   <path d="M11.2507-38.8204Q11.2507-30.5022 14.6785-24.1659Q18.1062-17.8296 24.1307-14Q30.1552-10.1705 37.9452-9.28281L37.9452-3.00078L24.3154-3.00078Q22.4669-3.00078 21.1021-1.69927Q19.7374-0.397754 19.7374 1.45078Q19.7374 3.31709 21.1021 4.62637Q22.4669 5.93564 24.3154 5.93564L60.2652 5.93564Q62.1138 5.93564 63.4619 4.62637Q64.81 3.31709 64.81 1.45078Q64.81-0.397754 63.4619-1.69927Q62.1138-3.00078 60.2652-3.00078L46.6021-3.00078L46.6021-9.28281Q54.3922-10.1705 60.4333-14Q66.4744-17.8296 69.9022-24.1659Q73.33-30.5022 73.33-38.8204L73.33-46.3269Q73.33-48.2087 71.9963-49.4714Q70.6626-50.7341 68.7985-50.7341Q66.9345-50.7341 65.6019-49.4714Q64.2693-48.2087 64.2693-46.3269L64.2693-39.1444Q64.2693-32.617 61.4607-27.7563Q58.6521-22.8957 53.7027-20.2246Q48.7534-17.5534 42.2903-17.5534Q35.8272-17.5534 30.8779-20.2246Q25.9286-22.8957 23.12-27.7563Q20.3113-32.617 20.3113-39.1444L20.3113-46.3269Q20.3113-48.2087 18.9788-49.4714Q17.6462-50.7341 15.7488-50.7341Q13.8848-50.7341 12.5677-49.4714Q11.2507-48.2087 11.2507-46.3269ZM26.6904-40.7443Q26.6904-35.8439 28.7-32.1121Q30.7097-28.3802 34.2285-26.2873Q37.7473-24.1944 42.2903-24.1944Q46.8334-24.1944 50.3355-26.2873Q53.8377-28.3802 55.864-32.1121Q57.8902-35.8439 57.8902-40.7443L57.8902-64.1643Q57.8902-69.0491 55.864-72.781Q53.8377-76.5129 50.3355-78.6135Q46.8334-80.7142 42.2903-80.7142Q37.7473-80.7142 34.2285-78.6135Q30.7097-76.5129 28.7-72.781Q26.6904-69.0491 26.6904-64.1643ZM35.8132-40.5114L35.8132-64.3972Q35.8132-67.8045 37.5424-69.9486Q39.2716-72.0928 42.2903-72.0928Q45.2758-72.0928 47.0216-69.9564Q48.7675-67.82 48.7675-64.3972L48.7675-40.5114Q48.7675-37.0886 47.0216-34.9522Q45.2758-32.8158 42.2903-32.8158Q39.2716-32.8158 37.5424-34.9522Q35.8132-37.0886 35.8132-40.5114Z"/>
  </g>
  <g id="Medium-S" transform="matrix(1 0 0 1 1705.39 696)">
   <path d="M11.4326-38.6924Q11.4326-30.6572 14.729-24.4961Q18.0254-18.335 23.8511-14.6099Q29.6768-10.8848 37.2646-10.0645L37.2646-3.05469L23.5742-3.05469Q21.9346-3.05469 20.7383-1.90479Q19.542-0.754883 19.542 0.884766Q19.542 2.55566 20.7383 3.70996Q21.9346 4.86426 23.5742 4.86426L58.7559 4.86426Q60.3955 4.86426 61.5718 3.70996Q62.748 2.55566 62.748 0.884766Q62.748-0.754883 61.5718-1.90479Q60.3955-3.05469 58.7559-3.05469L45.0254-3.05469L45.0254-10.0645Q52.6133-10.8848 58.459-14.6099Q64.3047-18.335 67.6011-24.4961Q70.8975-30.6572 70.8975-38.6924L70.8975-46.374Q70.8975-48.0537 69.7188-49.1816Q68.54-50.3096 66.8916-50.3096Q65.2432-50.3096 64.0757-49.1816Q62.9082-48.0537 62.9082-46.374L62.9082-39.0029Q62.9082-32.4688 60.1636-27.5879Q57.4189-22.707 52.5303-20.019Q47.6416-17.3311 41.165-17.3311Q34.6885-17.3311 29.7998-20.019Q24.9111-22.707 22.1665-27.5879Q19.4219-32.4688 19.4219-39.0029L19.4219-46.374Q19.4219-48.0537 18.2544-49.1816Q17.0869-50.3096 15.3984-50.3096Q13.75-50.3096 12.5913-49.1816Q11.4326-48.0537 11.4326-46.374ZM26.084-40.3535Q26.084-35.5879 28.0161-31.9604Q29.9482-28.333 33.3491-26.3008Q36.75-24.2686 41.165-24.2686Q45.5801-24.2686 48.9609-26.3008Q52.3418-28.333 54.2939-31.9604Q56.2461-35.5879 56.2461-40.3535L56.2461-63.9082Q56.2461-68.665 54.2939-72.2925Q52.3418-75.9199 48.9609-77.9565Q45.5801-79.9932 41.165-79.9932Q36.75-79.9932 33.3491-77.9565Q29.9482-75.9199 28.0161-72.2925Q26.084-68.665 26.084-63.9082ZM34.1084-40.2217L34.1084-64.04Q34.1084-67.791 36.0195-70.043Q37.9307-72.2949 41.165-72.2949Q44.3594-72.2949 46.2905-70.0474Q48.2217-67.7998 48.2217-64.04L48.2217-40.2217Q48.2217-36.4619 46.2905-34.2144Q44.3594-31.9668 41.165-31.9668Q37.9307-31.9668 36.0195-34.2144Q34.1084-36.4619 34.1084-40.2217Z"/>
  </g>
  <g id="Regular-S" transform="matrix(1 0 0 1 1410.15 696)">
   <path d="M11.6699-38.5254Q11.6699-30.8594 14.7949-24.9268Q17.9199-18.9941 23.4863-15.4053Q29.0527-11.8164 36.377-11.084L36.377-3.125L22.6074-3.125Q21.2402-3.125 20.2637-2.17285Q19.2871-1.2207 19.2871 0.146484Q19.2871 1.5625 20.2637 2.51465Q21.2402 3.4668 22.6074 3.4668L56.7871 3.4668Q58.1543 3.4668 59.1064 2.51465Q60.0586 1.5625 60.0586 0.146484Q60.0586-1.2207 59.1064-2.17285Q58.1543-3.125 56.7871-3.125L42.9688-3.125L42.9688-11.084Q50.293-11.8164 55.8838-15.4053Q61.4746-18.9941 64.5996-24.9268Q67.7246-30.8594 67.7246-38.5254L67.7246-46.4355Q67.7246-47.8516 66.748-48.8037Q65.7715-49.7559 64.4043-49.7559Q63.0371-49.7559 62.085-48.8037Q61.1328-47.8516 61.1328-46.4355L61.1328-38.8184Q61.1328-32.2754 58.4717-27.3682Q55.8105-22.4609 51.001-19.751Q46.1914-17.041 39.6973-17.041Q33.2031-17.041 28.3936-19.751Q23.584-22.4609 20.9229-27.3682Q18.2617-32.2754 18.2617-38.8184L18.2617-46.4355Q18.2617-47.8516 17.3096-48.8037Q16.3574-49.7559 14.9414-49.7559Q13.5742-49.7559 12.6221-48.8037Q11.6699-47.8516 11.6699-46.4355ZM25.293-39.8438Q25.293-35.2539 27.124-31.7627Q28.9551-28.2715 32.2021-26.3184Q35.4492-24.3652 39.6973-24.3652Q43.9453-24.3652 47.168-26.3184Q50.3906-28.2715 52.2461-31.7627Q54.1016-35.2539 54.1016-39.8438L54.1016-63.5742Q54.1016-68.1641 52.2461-71.6553Q50.3906-75.1465 47.168-77.0996Q43.9453-79.0527 39.6973-79.0527Q35.4492-79.0527 32.2021-77.0996Q28.9551-75.1465 27.124-71.6553Q25.293-68.1641 25.293-63.5742ZM31.8848-39.8438L31.8848-63.5742Q31.8848-67.7734 34.0332-70.166Q36.1816-72.5586 39.6973-72.5586Q43.1641-72.5586 45.3369-70.166Q47.5098-67.7734 47.5098-63.5742L47.5098-39.8438Q47.5098-35.6445 45.3369-33.252Q43.1641-30.8594 39.6973-30.8594Q36.1816-30.8594 34.0332-33.252Q31.8848-35.6445 31.8848-39.8438Z"/>
  </g>
  <g id="Light-S" transform="matrix(1 0 0 1 1114.75 696)">
   <path d="M11.5397-38.3952Q11.5397-31.0384 14.5833-25.3337Q17.627-19.6289 23.0876-16.2109Q28.5482-12.793 35.8073-12.2233L35.8073-2.53906L21.2891-2.53906Q20.2474-2.53906 19.4824-1.7985Q18.7174-1.05794 18.7174 0.016276Q18.7174 1.10677 19.4824 1.84733Q20.2474 2.58789 21.2891 2.58789L55.4688 2.58789Q56.5267 2.58789 57.2673 1.84733Q58.0078 1.10677 58.0078 0.016276Q58.0078-1.05794 57.2673-1.7985Q56.5267-2.53906 55.4688-2.53906L40.918-2.53906L40.918-12.2233Q48.1934-12.793 53.6702-16.2109Q59.1471-19.6289 62.1908-25.3337Q65.2344-31.0384 65.2344-38.3952L65.2344-45.9961Q65.2344-47.1029 64.4775-47.8353Q63.7207-48.5677 62.6628-48.5677Q61.6048-48.5677 60.8643-47.8353Q60.1237-47.1029 60.1237-45.9961L60.1237-38.5905Q60.1237-32.1452 57.43-27.2461Q54.7363-22.347 49.8617-19.6289Q44.987-16.9108 38.3789-16.9108Q31.8034-16.9108 26.9206-19.6289Q22.0378-22.347 19.3441-27.2461Q16.6504-32.1452 16.6504-38.5905L16.6504-45.9961Q16.6504-47.1029 15.9098-47.8353Q15.1693-48.5677 14.0788-48.5677Q13.0208-48.5677 12.2803-47.8353Q11.5397-47.1029 11.5397-45.9961ZM24.8698-39.8438Q24.8698-35.5794 26.5625-32.2835Q28.2552-28.9876 31.307-27.1159Q34.3587-25.2441 38.3789-25.2441Q42.4154-25.2441 45.4427-27.1159Q48.4701-28.9876 50.1872-32.2835Q51.9043-35.5794 51.9043-39.8438L51.9043-64.1602Q51.9043-68.4408 50.1872-71.7367Q48.4701-75.0326 45.4427-76.8962Q42.4154-78.7598 38.3789-78.7598Q34.3587-78.7598 31.307-76.8962Q28.2552-75.0326 26.5625-71.7367Q24.8698-68.4408 24.8698-64.1602ZM29.9805-39.8438L29.9805-64.1602Q29.9805-68.4733 32.2673-71.11Q34.554-73.7467 38.3789-73.7467Q42.1875-73.7467 44.4824-71.11Q46.7773-68.4733 46.7773-64.1602L46.7773-39.8438Q46.7773-35.5306 44.4824-32.902Q42.1875-30.2734 38.3789-30.2734Q34.554-30.2734 32.2673-32.902Q29.9805-35.5306 29.9805-39.8438Z"/>
  </g>
  <g id="Thin-S" transform="matrix(1 0 0 1 819.768 696)">
   <path d="M11.3675-38.223Q11.3675-31.2752 14.3035-25.8718Q17.2395-20.4684 22.5602-17.2765Q27.8809-14.0846 35.0539-13.7302L35.0539-1.76411L19.5454-1.76411Q18.9343-1.76411 18.4492-1.3034Q17.964-0.842679 17.964-0.155935Q17.964 0.504032 18.4492 0.964749Q18.9343 1.42547 19.5454 1.42547L53.7251 1.42547Q54.3741 1.42547 54.8348 0.964749Q55.2955 0.504032 55.2955-0.155935Q55.2955-0.842679 54.8348-1.3034Q54.3741-1.76411 53.7251-1.76411L38.2056-1.76411L38.2056-13.7302Q45.4165-14.0846 50.7427-17.2765Q56.0689-20.4684 59.0049-25.8718Q61.9408-31.2752 61.9408-38.223L61.9408-45.4149Q61.9408-46.1127 61.4746-46.5545Q61.0084-46.9963 60.3594-46.9963Q59.7105-46.9963 59.2498-46.5545Q58.7891-46.1127 58.7891-45.4149L58.7891-38.2891Q58.7891-31.973 56.0523-27.0846Q53.3156-22.1963 48.3548-19.4675Q43.394-16.7386 36.6353-16.7386Q29.9521-16.7386 24.9724-19.4675Q19.9928-22.1963 17.256-27.0846Q14.5193-31.973 14.5193-38.2891L14.5193-45.4149Q14.5193-46.1127 14.0586-46.5545Q13.5978-46.9963 12.9379-46.9963Q12.2889-46.9963 11.8282-46.5545Q11.3675-46.1127 11.3675-45.4149ZM24.3101-39.8438Q24.3101-36.01 25.8198-32.9724Q27.3296-29.9348 30.123-28.1707Q32.9165-26.4066 36.6353-26.4066Q40.3919-26.4066 43.1609-28.1707Q45.9299-29.9348 47.4641-32.9724Q48.9982-36.01 48.9982-39.8438L48.9982-64.9351Q48.9982-68.8067 47.4641-71.8443Q45.9299-74.8819 43.1609-76.6271Q40.3919-78.3723 36.6353-78.3723Q32.9165-78.3723 30.123-76.6271Q27.3296-74.8819 25.8198-71.8443Q24.3101-68.8067 24.3101-64.9351ZM27.4619-39.8438L27.4619-64.9351Q27.4619-69.3989 29.9316-72.3586Q32.4014-75.3182 36.6353-75.3182Q40.8959-75.3182 43.3523-72.3586Q45.8087-69.3989 45.8087-64.9351L45.8087-39.8438Q45.8087-35.3799 43.3523-32.4392Q40.8959-29.4985 36.6353-29.4985Q32.4014-29.4985 29.9316-32.4392Q27.4619-35.3799 27.4619-39.8438Z"/>
  </g>
  <g id="Ultralight-S" transform="matrix(1 0 0 1 523.945 696)">
   <path d="M11.2793-38.1348Q11.2793-31.3965 14.1602-26.1475Q17.041-20.8984 22.29-17.8223Q27.5391-14.7461 34.668-14.502L34.668-1.36719L18.6523-1.36719Q18.2617-1.36719 17.9199-1.0498Q17.5781-0.732422 17.5781-0.244141Q17.5781 0.195312 17.9199 0.512695Q18.2617 0.830078 18.6523 0.830078L52.832 0.830078Q53.2715 0.830078 53.5889 0.512695Q53.9062 0.195312 53.9062-0.244141Q53.9062-0.732422 53.5889-1.0498Q53.2715-1.36719 52.832-1.36719L36.8164-1.36719L36.8164-14.502Q43.9941-14.7461 49.2432-17.8223Q54.4922-20.8984 57.373-26.1475Q60.2539-31.3965 60.2539-38.1348L60.2539-45.1172Q60.2539-45.6055 59.9365-45.8984Q59.6191-46.1914 59.1797-46.1914Q58.7402-46.1914 58.4229-45.8984Q58.1055-45.6055 58.1055-45.1172L58.1055-38.1348Q58.1055-31.8848 55.3467-27.002Q52.5879-22.1191 47.583-19.3848Q42.5781-16.6504 35.7422-16.6504Q29.0039-16.6504 23.9746-19.3848Q18.9453-22.1191 16.1865-27.002Q13.4277-31.8848 13.4277-38.1348L13.4277-45.1172Q13.4277-45.6055 13.1104-45.8984Q12.793-46.1914 12.3535-46.1914Q11.9141-46.1914 11.5967-45.8984Q11.2793-45.6055 11.2793-45.1172ZM24.0234-39.8438Q24.0234-36.2305 25.4395-33.3252Q26.8555-30.4199 29.5166-28.7109Q32.1777-27.002 35.7422-27.002Q39.3555-27.002 41.9922-28.7109Q44.6289-30.4199 46.0693-33.3252Q47.5098-36.2305 47.5098-39.8438L47.5098-65.332Q47.5098-68.9941 46.0693-71.8994Q44.6289-74.8047 41.9922-76.4893Q39.3555-78.1738 35.7422-78.1738Q32.1777-78.1738 29.5166-76.4893Q26.8555-74.8047 25.4395-71.8994Q24.0234-68.9941 24.0234-65.332ZM26.1719-39.8438L26.1719-65.332Q26.1719-69.873 28.7354-72.998Q31.2988-76.123 35.7422-76.123Q40.2344-76.123 42.7734-72.998Q45.3125-69.873 45.3125-65.332L45.3125-39.8438Q45.3125-35.3027 42.7734-32.2021Q40.2344-29.1016 35.7422-29.1016Q31.2988-29.1016 28.7354-32.2021Q26.1719-35.3027 26.1719-39.8438Z"/>
  </g>
 </g>
</svg>
