<?xml version="1.0" encoding="UTF-8"?>
<svg width="3300px" height="2200px" viewBox="0 0 3300 2200" version="1.1" xmlns="http://www.w3.org/2000/svg" xmlns:xlink="http://www.w3.org/1999/xlink">
    <title>mf.menubar.arrow.left.and.right.rectangle.v2</title>
    <g id="mf.menubar.arrow.left.and.right.rectangle.v2" stroke="none" fill="none" fill-rule="evenodd" stroke-width="1">
        <g id="Group">
            <g id="Notes">
                <rect id="artboard" fill="#FFFFFF" fill-rule="nonzero" x="0" y="0" width="3300" height="2200"></rect>
                <line x1="263" y1="292" x2="3036" y2="292" id="Path" stroke="#000000" stroke-width="0.5"></line>
                <text id="Weight/Scale-Variations" fill="#000000" fill-rule="nonzero" font-family="Helvetica" font-size="13" font-weight="normal">
                    <tspan x="263" y="322">Weight/Scale Variations</tspan>
                </text>
                <text id="Ultralight" fill="#000000" fill-rule="nonzero" font-family="Helvetica" font-size="13" font-weight="normal">
                    <tspan x="533.711" y="322">Ultralight</tspan>
                </text>
                <text id="Thin" fill="#000000" fill-rule="nonzero" font-family="Helvetica" font-size="13" font-weight="normal">
                    <tspan x="843.422" y="322">Thin</tspan>
                </text>
                <text id="Light" fill="#000000" fill-rule="nonzero" font-family="Helvetica" font-size="13" font-weight="normal">
                    <tspan x="1138.63" y="322">Light</tspan>
                </text>
                <text id="Regular" fill="#000000" fill-rule="nonzero" font-family="Helvetica" font-size="13" font-weight="normal">
                    <tspan x="1426.84" y="322">Regular</tspan>
                </text>
                <text id="Medium" fill="#000000" fill-rule="nonzero" font-family="Helvetica" font-size="13" font-weight="normal">
                    <tspan x="1723.06" y="322">Medium</tspan>
                </text>
                <text id="Semibold" fill="#000000" fill-rule="nonzero" font-family="Helvetica" font-size="13" font-weight="normal">
                    <tspan x="2015.77" y="322">Semibold</tspan>
                </text>
                <text id="Bold" fill="#000000" fill-rule="nonzero" font-family="Helvetica" font-size="13" font-weight="normal">
                    <tspan x="2326.48" y="322">Bold</tspan>
                </text>
                <text id="Heavy" fill="#000000" fill-rule="nonzero" font-family="Helvetica" font-size="13" font-weight="normal">
                    <tspan x="2618.19" y="322">Heavy</tspan>
                </text>
                <text id="Black" fill="#000000" fill-rule="nonzero" font-family="Helvetica" font-size="13" font-weight="normal">
                    <tspan x="2917.4" y="322">Black</tspan>
                </text>
                <line x1="263" y1="1903" x2="3036" y2="1903" id="Path" stroke="#000000" stroke-width="0.5"></line>
                <g id="Group" transform="translate(263, 1933)" fill="#000000" fill-rule="nonzero">
                    <path d="M9.24804,0.830078 C13.6035,0.830078 17.13866,-2.695322 17.13866,-7.050782 C17.13866,-11.406242 13.6035,-14.931642 9.24804,-14.931642 C4.90234,-14.931642 1.36718,-11.406242 1.36718,-7.050782 C1.36718,-2.695322 4.90234,0.830078 9.24804,0.830078 Z M9.24804,-0.654298 C5.71288,-0.654298 2.86132,-3.515618 2.86132,-7.050778 C2.86132,-10.585938 5.71288,-13.447258 9.24804,-13.447258 C12.7832,-13.447258 15.64452,-10.585938 15.64452,-7.050778 C15.64452,-3.515618 12.7832,-0.654298 9.24804,-0.654298 Z M9.970696,-4.208978 L9.970696,-9.902338 C9.970696,-10.351556 9.677728,-10.654292 9.228508,-10.654292 C8.79882,-10.654292 8.505852,-10.351558 8.505852,-9.902338 L8.505852,-4.208978 C8.505852,-3.769524 8.79882,-3.46679 9.228508,-3.46679 C9.677726,-3.46679 9.970696,-3.769524 9.970696,-4.208978 L9.970696,-4.208978 Z M6.406236,-6.328118 L12.089836,-6.328118 C12.52929,-6.328118 12.832024,-6.621086 12.832024,-7.050774 C12.832024,-7.490228 12.52929,-7.792962 12.089836,-7.792962 L6.406236,-7.792962 C5.957018,-7.792962 5.654282,-7.490228 5.654282,-7.050774 C5.654282,-6.621086 5.957016,-6.328118 6.406236,-6.328118 Z" id="Shape"></path>
                </g>
                <g id="Group" transform="translate(281.506, 1933)" fill="#000000" fill-rule="nonzero">
                    <path d="M11.70898,2.91016 C17.20702,2.91016 21.66992,-1.55274 21.66992,-7.05078 C21.66992,-12.54882 17.20702,-17.01172 11.70898,-17.01172 C6.21094,-17.01172 1.74804,-12.54882 1.74804,-7.05078 C1.74804,-1.55274 6.21094,2.91016 11.70898,2.91016 Z M11.70898,1.250004 C7.11914,1.250004 3.4082,-2.460936 3.4082,-7.050776 C3.4082,-11.640616 7.11914,-15.351556 11.70898,-15.351556 C16.29882,-15.351556 20.00976,-11.640616 20.00976,-7.050776 C20.00976,-2.460936 16.29882,1.250004 11.70898,1.250004 Z M12.519526,-3.369136 L12.519526,-10.751956 C12.519526,-11.250002 12.17773,-11.5918 11.689448,-11.5918 C11.210932,-11.5918 10.878902,-11.250004 10.878902,-10.751956 L10.878902,-3.369136 C10.878902,-2.880854 11.210934,-2.539058 11.689448,-2.539058 C12.17773,-2.539058 12.519526,-2.87109 12.519526,-3.369136 L12.519526,-3.369136 Z M8.007806,-6.249996 L15.400386,-6.249996 C15.888668,-6.249996 16.230464,-6.572262 16.230464,-7.050778 C16.230464,-7.53906 15.888668,-7.880856 15.400386,-7.880856 L8.007806,-7.880856 C7.50976,-7.880856 7.177728,-7.53906 7.177728,-7.050778 C7.177728,-6.572262 7.50976,-6.249996 8.007806,-6.249996 L8.007806,-6.249996 Z" id="Shape"></path>
                </g>
                <g id="Group" transform="translate(304.924, 1933)" fill="#000000" fill-rule="nonzero">
                    <path d="M14.9707,5.66406 C21.99218,5.66406 27.6953,-0.0293 27.6953,-7.05078 C27.6953,-14.07226 21.99218,-19.77538 14.9707,-19.77538 C7.94922,-19.77538 2.25586,-14.07226 2.25586,-7.05078 C2.25586,-0.0293 7.94922,5.66406 14.9707,5.66406 Z M14.9707,3.847654 C8.9453,3.847654 4.07226,-1.025386 4.07226,-7.050786 C4.07226,-13.076186 8.9453,-17.949226 14.9707,-17.949226 C20.9961,-17.949226 25.86914,-13.076186 25.86914,-7.050786 C25.86914,-1.025386 20.9961,3.847654 14.9707,3.847654 Z M15.859372,-2.216806 L15.859372,-11.914066 C15.859372,-12.460942 15.488278,-12.8418 14.951168,-12.8418 C14.43359,-12.8418 14.062496,-12.46094 14.062496,-11.914066 L14.062496,-2.216806 C14.062496,-1.679696 14.43359,-1.298838 14.951168,-1.298838 C15.488278,-1.298838 15.859372,-1.669932 15.859372,-2.216806 L15.859372,-2.216806 Z M10.117192,-6.171886 L19.814452,-6.171886 C20.351562,-6.171886 20.73242,-6.533214 20.73242,-7.050792 C20.73242,-7.597668 20.361326,-7.96876 19.814452,-7.96876 L10.117192,-7.96876 C9.570316,-7.96876 9.199224,-7.597666 9.199224,-7.050792 C9.199224,-6.533214 9.570318,-6.171886 10.117192,-6.171886 Z" id="Shape"></path>
                </g>
                <text id="Design-Variations" fill="#000000" fill-rule="nonzero" font-family="Helvetica" font-size="13" font-weight="normal">
                    <tspan x="263" y="1953">Design Variations</tspan>
                </text>
                <text id="Symbols-are-supported-in-up-to-nine-weights-and-three-scales." fill="#000000" fill-rule="nonzero" font-family="Helvetica" font-size="13" font-weight="normal">
                    <tspan x="263" y="1971">Symbols are supported in up to nine weights and three scales.</tspan>
                </text>
                <text id="For-optimal-layout-with-text-and-other-symbols,-vertically-align" fill="#000000" fill-rule="nonzero" font-family="Helvetica" font-size="13" font-weight="normal">
                    <tspan x="263" y="1989">For optimal layout with text and other symbols, vertically align</tspan>
                </text>
                <text id="symbols-with-the-adjacent-text." fill="#000000" fill-rule="nonzero" font-family="Helvetica" font-size="13" font-weight="normal">
                    <tspan x="263" y="2007">symbols with the adjacent text.</tspan>
                </text>
                <line x1="776" y1="1919" x2="776" y2="1933" id="Path" stroke="#00AEEF" stroke-width="0.5"></line>
                <g id="Group" transform="translate(776, 1933)" fill="#000000" fill-rule="nonzero">
                    <path d="M3.31054,0.156258 C3.828118,0.156258 4.082024,-0.0390624 4.267572,-0.585938 L8.378892,-12.089838 L8.4277202,-12.089838 L12.5488202,-0.585938 C12.734367,-0.039062 12.9882742,0.156258 13.4960862,0.156258 C14.0136642,0.156258 14.3456962,-0.15625 14.3456962,-0.644532 C14.3456962,-0.8105476 14.3163994,-0.966798 14.2382744,-1.171876 L9.6581944,-13.369136 C9.4335844,-13.96484 9.0331944,-14.267574 8.4081944,-14.267574 C7.8027264,-14.267574 7.3925704,-13.974606 7.1777264,-13.378902 L2.5976464,-1.162102 C2.5195214,-0.957024 2.4902246,-0.800774 2.4902246,-0.634758 C2.4902246,-0.146476 2.8027246,0.156258 3.3105366,0.156258 L3.31054,0.156258 Z M5.35156,-4.03321 L11.48438,-4.03321 C11.88477,-4.03321 12.216802,-4.365242 12.216802,-4.765632 C12.216802,-5.175788 11.88477,-5.498054 11.48438,-5.498054 L5.35156,-5.498054 C4.95117,-5.498054 4.619138,-5.175788 4.619138,-4.765632 C4.619138,-4.365242 4.95117,-4.03321 5.35156,-4.03321 Z" id="Shape"></path>
                </g>
                <line x1="792.836" y1="1919" x2="792.836" y2="1933" id="Path" stroke="#00AEEF" stroke-width="0.5"></line>
                <text id="Margins" fill="#000000" fill-rule="nonzero" font-family="Helvetica" font-size="13" font-weight="normal">
                    <tspan x="776" y="1953">Margins</tspan>
                </text>
                <text id="Leading-and-trailing-margins-on-the-left-and-right-side-of-each-symbol" fill="#000000" fill-rule="nonzero" font-family="Helvetica" font-size="13" font-weight="normal">
                    <tspan x="776" y="1971">Leading and trailing margins on the left and right side of each symbol</tspan>
                </text>
                <text id="can-be-adjusted-by-modifying-the-x-location-of-the-margin-guidelines." fill="#000000" fill-rule="nonzero" font-family="Helvetica" font-size="13" font-weight="normal">
                    <tspan x="776" y="1989">can be adjusted by modifying the x-location of the margin guidelines.</tspan>
                </text>
                <text id="Modifications-are-automatically-applied-proportionally-to-all" fill="#000000" fill-rule="nonzero" font-family="Helvetica" font-size="13" font-weight="normal">
                    <tspan x="776" y="2007">Modifications are automatically applied proportionally to all</tspan>
                </text>
                <text id="scales-and-weights." fill="#000000" fill-rule="nonzero" font-family="Helvetica" font-size="13" font-weight="normal">
                    <tspan x="776" y="2025">scales and weights.</tspan>
                </text>
                <g id="Group" transform="translate(1289, 1933)" fill="#000000" fill-rule="nonzero">
                    <path d="M2.8418,2.62696 L4.414066,4.199226 C5.273442,5.078132 6.2793,5.019538 7.187506,3.994148 L19.326186,-9.648432 L18.349624,-10.624994 L6.298844,2.910166 C5.937516,3.30079 5.605484,3.398448 5.136734,2.92969724 L4.101578,1.90430724 C3.642594,1.44532324 3.74025,1.11329124 4.1406404,0.74219724 L17.6367404,-11.6894428 L16.6601784,-12.6562388 L3.0468984,-0.13669876 C2.0508044,0.78126924 1.9824444,1.75783324 2.8418204,2.62698124 L2.8418,2.62696 Z M11.8164,-16.86522 C11.406244,-16.46483 11.367182,-15.888658 11.601556,-15.507798 C11.826166,-15.14647 12.294916,-14.90233 12.919916,-15.05858 C14.091792,-15.390612 15.439456,-15.537096 16.699216,-14.8730332 L16.162106,-13.4472512 C15.83984,-12.6464692 16.0156216,-12.0702972 16.503902,-11.5624852 L18.554682,-9.5019452 C19.023432,-9.0234292 19.462886,-9.0136632 19.970698,-9.1113212 L20.85937,-9.2578056 L21.376948,-8.7499936 L21.3378856,-8.3007756 C21.3183544,-7.8417916 21.4453074,-7.4413996 21.8945256,-7.0019476 L22.5683536,-6.3378856 C23.0273376,-5.8789016 23.6718696,-5.8398396 24.1308536,-6.2988232 L26.7285136,-8.9062432 C27.1874976,-9.3749932 27.1582016,-9.9804612 26.6894512,-10.4394472 L26.0058572,-11.1230412 C25.5664032,-11.5624952 25.1953112,-11.7285092 24.7363252,-11.6992132 L24.2675752,-11.650385 L23.7792932,-12.138667 L23.9843712,-13.076167 C24.1113244,-13.623043 23.935543,-14.072261 23.4081992,-14.599605 L21.1523392,-16.835925 C18.5644392,-19.404285 14.0331992,-19.042965 11.8163992,-16.8652218 L11.8164,-16.86522 Z M13.232416,-16.455064 C14.990228,-17.73436 18.427736,-17.587876 19.970696,-16.06444 L22.431636,-13.62304 C22.636714,-13.417962 22.675776,-13.261712 22.6171828,-12.958978 L22.3242148,-11.630854 L23.6718708,-10.292964 L24.5507768,-10.3417922 C24.7753868,-10.3515578 24.8535108,-10.3320266 25.0195268,-10.166011 L25.5273388,-9.667965 L23.3593788,-7.500005 L22.8613328,-7.998051 C22.6953172,-8.1738322 22.6660204,-8.242191 22.675786,-8.476567 L22.7343798,-9.345707 L21.3964898,-10.693363 L20.0293018,-10.458987 C19.7460978,-10.4003932 19.6191458,-10.4199246 19.3945358,-10.6347682 L17.6074258,-12.4121122 C17.3925818,-12.6171902 17.3730498,-12.7539082 17.5097696,-13.0859402 L18.4277376,-15.3808602 C17.2070336,-16.6503922 15.0195376,-16.8847662 13.3105576,-16.2988282 C13.173896,-16.25 13.1250108,-16.3769532 13.2324326,-16.4550782 L13.232416,-16.455064 Z" id="Shape"></path>
                </g>
                <text id="Exporting" fill="#000000" fill-rule="nonzero" font-family="Helvetica" font-size="13" font-weight="normal">
                    <tspan x="1289" y="1953">Exporting</tspan>
                </text>
                <text id="Symbols-should-be-outlined-when-exporting-to-ensure-the" fill="#000000" fill-rule="nonzero" font-family="Helvetica" font-size="13" font-weight="normal">
                    <tspan x="1289" y="1971">Symbols should be outlined when exporting to ensure the</tspan>
                </text>
                <text id="design-is-preserved-when-submitting-to-Xcode." fill="#000000" fill-rule="nonzero" font-family="Helvetica" font-size="13" font-weight="normal">
                    <tspan x="1289" y="1989">design is preserved when submitting to Xcode.</tspan>
                </text>
                <text id="template-version" fill="#000000" fill-rule="nonzero" font-family="Helvetica" font-size="13" font-weight="normal">
                    <tspan x="2952" y="1933">Template v.4.0</tspan>
                </text>
                <text id="Requires-Xcode-14-or-greater" fill="#000000" fill-rule="nonzero" font-family="Helvetica" font-size="13" font-weight="normal">
                    <tspan x="2865" y="1951">Requires Xcode 14 or greater</tspan>
                </text>
                <text id="descriptive-name" fill="#000000" fill-rule="nonzero" font-family="Helvetica" font-size="13" font-weight="normal">
                    <tspan x="2833" y="1969">Generated from menubar.rectangle</tspan>
                </text>
                <text id="Typeset-at-100.0-points" fill="#000000" fill-rule="nonzero" font-family="Helvetica" font-size="13" font-weight="normal">
                    <tspan x="2901" y="1987">Typeset at 100.0 points</tspan>
                </text>
                <text id="Small" fill="#000000" fill-rule="nonzero" font-family="Helvetica" font-size="13" font-weight="normal">
                    <tspan x="263" y="726">Small</tspan>
                </text>
                <text id="Medium" fill="#000000" fill-rule="nonzero" font-family="Helvetica" font-size="13" font-weight="normal">
                    <tspan x="263" y="1156">Medium</tspan>
                </text>
                <text id="Large" fill="#000000" fill-rule="nonzero" font-family="Helvetica" font-size="13" font-weight="normal">
                    <tspan x="263" y="1586">Large</tspan>
                </text>
            </g>
            <g id="Guides">
                <g id="H-reference" transform="translate(339, 696)" fill="#27AAE1" fill-rule="nonzero">
                    <path d="M0.993654,0 L3.63775,0 L29.3281,-67.1323 L30.0303,-67.1323 L30.0303,-70.459 L28.1226,-70.459 L0.993654,0 Z M11.6885,-24.4799 L46.9815,-24.4799 L46.2315,-26.7285 L12.4385,-26.7285 L11.6885,-24.4799 Z M55.1196,0 L57.7637,0 L30.6382,-70.459 L29.4326,-70.459 L29.4326,-67.1323 L55.1196,0 Z" id="Shape"></path>
                </g>
                <line x1="263" y1="696" x2="3036" y2="696" id="Baseline-S" stroke="#27AAE1" stroke-width="0.5"></line>
                <line x1="263" y1="625.541" x2="3036" y2="625.541" id="Capline-S" stroke="#27AAE1" stroke-width="0.5"></line>
                <g id="H-reference" transform="translate(339, 1126)" fill="#27AAE1" fill-rule="nonzero">
                    <path d="M0.993654,0 L3.63775,0 L29.3281,-67.1323 L30.0303,-67.1323 L30.0303,-70.459 L28.1226,-70.459 L0.993654,0 Z M11.6885,-24.4799 L46.9815,-24.4799 L46.2315,-26.7285 L12.4385,-26.7285 L11.6885,-24.4799 Z M55.1196,0 L57.7637,0 L30.6382,-70.459 L29.4326,-70.459 L29.4326,-67.1323 L55.1196,0 Z" id="Shape"></path>
                </g>
                <line x1="263" y1="1126" x2="3036" y2="1126" id="Baseline-M" stroke="#27AAE1" stroke-width="0.5"></line>
                <line x1="263" y1="1055.54" x2="3036" y2="1055.54" id="Capline-M" stroke="#27AAE1" stroke-width="0.5"></line>
                <g id="H-reference" transform="translate(339, 1556)" fill="#27AAE1" fill-rule="nonzero">
                    <path d="M0.993654,0 L3.63775,0 L29.3281,-67.1323 L30.0303,-67.1323 L30.0303,-70.459 L28.1226,-70.459 L0.993654,0 Z M11.6885,-24.4799 L46.9815,-24.4799 L46.2315,-26.7285 L12.4385,-26.7285 L11.6885,-24.4799 Z M55.1196,0 L57.7637,0 L30.6382,-70.459 L29.4326,-70.459 L29.4326,-67.1323 L55.1196,0 Z" id="Shape"></path>
                </g>
                <line x1="263" y1="1556" x2="3036" y2="1556" id="Baseline-L" stroke="#27AAE1" stroke-width="0.5"></line>
                <line x1="263" y1="1485.54" x2="3036" y2="1485.54" id="Capline-L" stroke="#27AAE1" stroke-width="0.5"></line>
                <line x1="2989.45" y1="600.785" x2="2989.45" y2="720.121" id="right-margin-Black-S" stroke="#00AEEF" stroke-width="0.5"></line>
                <line x1="2877.35" y1="600.785" x2="2877.35" y2="720.121" id="left-margin-Black-S" stroke="#00AEEF" stroke-width="0.5"></line>
                <line x1="1504.9" y1="600.785" x2="1504.9" y2="720.121" id="right-margin-Regular-S" stroke="#00AEEF" stroke-width="0.5"></line>
                <line x1="1394.79" y1="600.785" x2="1394.79" y2="720.121" id="left-margin-Regular-S" stroke="#00AEEF" stroke-width="0.5"></line>
                <line x1="613.72" y1="600.785" x2="613.72" y2="720.121" id="right-margin-Ultralight-S" stroke="#00AEEF" stroke-width="0.5"></line>
                <line x1="505.702" y1="600.785" x2="505.702" y2="720.121" id="left-margin-Ultralight-S" stroke="#00AEEF" stroke-width="0.5"></line>
            </g>
            <g id="Symbols" fill="#007AFF" fill-rule="nonzero">
                <g id="Black-S" transform="translate(2877.35, 696)">
                    <path d="M27.9297,2.92969 L84.1797,2.92969 C95.3613,2.92969 102.344,-4.05273 102.344,-15.2344 L102.344,-55.1758 C102.344,-66.3574 95.3613,-73.3398 84.1797,-73.3398 L27.9297,-73.3398 C16.748,-73.3398 9.76562,-66.3574 9.76562,-55.1758 L9.76562,-15.2344 C9.76562,-4.05273 16.748,2.92969 27.9297,2.92969 Z M30.1758,-11.2305 C26.3184,-11.2305 23.9258,-13.623 23.9258,-17.4805 L23.9258,-52.9297 C23.9258,-56.7871 26.3184,-59.1797 30.1758,-59.1797 L81.9336,-59.1797 C85.791,-59.1797 88.1836,-56.7871 88.1836,-52.9297 L88.1836,-17.4805 C88.1836,-13.623 85.791,-11.2305 81.9336,-11.2305 L30.1758,-11.2305 Z M15.625,-53.5156 L15.625,-44.2383 L96.4844,-44.2383 L96.4844,-53.5156 L15.625,-53.5156 Z M36.48847,-27.68555 L41.95727,-22.80275 L45.22877,-20.41015 C46.05887,-19.72655 46.64477,-18.45705 46.64477,-17.23635 C46.64477,-14.64845 44.54517,-12.59765 41.95727,-12.59765 C40.73657,-12.59765 39.71117,-13.03715 38.88107,-13.91605 L29.21317,-24.02345 C28.09007,-25.24415 27.55297,-26.36725 27.55297,-27.68555 C27.55297,-29.00395 28.09007,-30.12695 29.21317,-31.34765 L38.88107,-41.45505 C39.71117,-42.33405 40.73657,-42.77345 41.95727,-42.77345 C44.54517,-42.77345 46.64477,-40.72265 46.64477,-38.13475 C46.64477,-36.91405 46.05887,-35.64455 45.22877,-34.96095 L41.95727,-32.56835 L36.48847,-27.68555 Z M40.29317,-23.33985 C37.85177,-23.53515 35.84987,-25.34185 35.84987,-27.73435 C35.84987,-30.12695 37.85177,-31.98245 40.29317,-32.12895 L48.78927,-32.71485 C56.1407843,-32.8755929 61.6558258,-32.8755929 65.3343945,-32.71485 C66.7413369,-32.6533707 68.8482971,-32.5085283 71.6552752,-32.2803229 C74.5849752,-32.2803229 76.537838,-29.8293123 76.55687,-27.68555 C76.575902,-25.5417877 74.8022617,-23.0882749 71.8725617,-23.0882749 C68.9007517,-22.8002583 66.7213626,-22.65625 65.3343945,-22.65625 C61.6384232,-22.65625 56.1233816,-22.65625 48.78927,-22.65625 L40.29317,-23.33985 Z M75.70927,-27.68555 L70.24047,-32.56835 L66.96897,-34.96095 C66.13887,-35.64455 65.55297,-36.91405 65.55297,-38.13475 C65.55297,-40.72265 67.65257,-42.77345 70.24047,-42.77345 C71.46117,-42.77345 72.48657,-42.33395 73.31667,-41.45505 L82.98457,-31.34765 C84.10767,-30.12695 84.64477,-29.00385 84.64477,-27.68555 C84.64477,-26.36715 84.10767,-25.24415 82.98457,-24.02345 L73.31667,-13.91605 C72.48657,-13.03705 71.46117,-12.59765 70.24047,-12.59765 C67.65257,-12.59765 65.55297,-14.64845 65.55297,-17.23635 C65.55297,-18.45705 66.13887,-19.72655 66.96897,-20.41015 L70.24047,-22.80275 L75.70927,-27.68555 Z" id="Shape" transform="translate(56.0548, -35.2051) scale(-1, 1) translate(-56.0548, 35.2051)"></path>
                </g>
                <g id="Regular-S" transform="translate(1394.79, 696)">
                    <path d="M26.6113,0.390625 L84.668,0.390625 C94.6777,0.390625 100.342,-5.66406 100.342,-16.5039 L100.342,-53.9062 C100.342,-64.7461 94.6777,-70.8008 84.668,-70.8008 L26.6113,-70.8008 C15.8203,-70.8008 9.76562,-64.7461 9.76562,-53.9062 L9.76562,-16.5039 C9.76562,-5.66406 15.8203,0.390625 26.6113,0.390625 Z M26.6113,-6.68945 C20.3613,-6.68945 16.7969,-10.2051 16.7969,-16.5039 L16.7969,-53.9062 C16.7969,-60.2051 20.3613,-63.7207 26.6113,-63.7207 L83.4961,-63.7207 C89.7949,-63.7207 93.3105,-60.2051 93.3105,-53.9062 L93.3105,-16.5039 C93.3105,-10.2051 89.7949,-6.68945 83.4961,-6.68945 L26.6113,-6.68945 Z M14.502,-57.3242 L14.502,-51.2207 L95.6543,-51.2207 L95.6543,-57.3242 L14.502,-57.3242 Z M33.88592,-28.8379 L39.69652,-23.418 L43.87232,-19.2422 C44.55582,-18.6074 44.89762,-17.7285 44.89762,-16.8984 C44.89762,-15.043 43.62812,-13.7246 41.87032,-13.7246 C40.89372,-13.7246 40.16132,-14.0664 39.52662,-14.75 L29.00312,-26.2988 C28.12422,-27.2265 27.83122,-27.959 27.83122,-28.8379 C27.83122,-29.7656 28.12422,-30.4492 29.00312,-31.3769 L39.52662,-42.9258 C40.16132,-43.6582 40.89372,-44 41.87032,-44 C43.62812,-44 44.89762,-42.6816 44.89762,-40.8262 C44.89762,-39.9961 44.55582,-39.1172 43.87232,-38.4336 L39.69652,-34.3066 L33.88592,-28.8379 Z M36.71602,-25.7129 C34.95822,-25.7617 33.54222,-27.1289 33.54222,-28.8379 C33.54222,-30.5957 34.95822,-31.9629 36.71602,-32.0117 L45.30982,-32.3047 C54.9859029,-32.3128817 62.242965,-32.3190305 67.0810065,-32.3231464 C68.6555272,-32.3244527 71.0143204,-32.2206373 74.157386,-32.0117 C75.964086,-32.0117 77.5355497,-30.3611186 77.5355497,-28.8623 C77.5355497,-27.3634814 75.964086,-25.7129 74.157386,-25.7129 C71.1019595,-25.4987114 68.8088958,-25.3909699 67.2781946,-25.3896756 C62.3963336,-25.3855477 55.0735421,-25.3793558 45.30982,-25.3711 L36.71602,-25.7129 Z M76.84292,-28.8867 L71.03232,-34.3066 L66.85652,-38.4824 C66.17302,-39.1172 65.83122,-39.9961 65.83122,-40.8262 C65.83122,-42.6816 67.10072,-44 68.85852,-44 C69.83512,-44 70.56752,-43.6582 71.20222,-42.9746 L81.72572,-31.4258 C82.60462,-30.4981 82.89762,-29.7656 82.89762,-28.8867 C82.89762,-27.959 82.60462,-27.2754 81.72572,-26.3477 L71.20222,-14.7988 C70.56752,-14.0664 69.83512,-13.7246 68.85852,-13.7246 C67.10072,-13.7246 65.83122,-15.043 65.83122,-16.8984 C65.83122,-17.7285 66.17302,-18.6074 66.85652,-19.291 L71.03232,-23.418 L76.84292,-28.8867 Z" id="Shape" transform="translate(55.0538, -35.2051) scale(-1, 1) translate(-55.0538, 35.2051)"></path>
                </g>
                <g id="Ultralight-S" transform="translate(505.702, 696)">
                    <path d="M22.7515,-1.65282 L85.3037,-1.65282 C93.27,-1.65282 98.2529,-6.61767 98.2529,-14.6421 L98.2529,-55.8589 C98.2529,-63.8833 93.27,-68.8482 85.3037,-68.8482 L22.7515,-68.8482 C14.7305,-68.8482 9.76562,-63.8833 9.76562,-55.8589 L9.76562,-14.6421 C9.76562,-6.61767 14.7305,-1.65282 22.7515,-1.65282 Z M22.8423,-3.87405 C16.1382,-3.87405 11.9834,-8.02541 11.9834,-14.7329 L11.9834,-55.7681 C11.9834,-62.4756 16.1382,-66.6269 22.8423,-66.6269 L85.1763,-66.6269 C91.8838,-66.6269 96.0351,-62.4756 96.0351,-55.7681 L96.0351,-14.7329 C96.0351,-8.02541 91.8838,-3.87405 85.1763,-3.87405 L22.8423,-3.87405 Z M11.0508,-58.4595 L11.0508,-56.2612 L96.9712,-56.2612 L96.9712,-58.4595 L11.0508,-58.4595 Z M31.07402,-29.9277 L39.34642,-21.052291 L41.37622,-18.7436 C41.60572,-18.5176 41.72052,-18.2744 41.72052,-17.9438 C41.72052,-17.269 41.26832,-16.8134 40.64572,-16.8134 C40.07792,-16.8134 39.75412,-17.2007 39.34642,-17.6118 L29.00662,-29.0688 C28.80882,-29.3154 28.65212,-29.5937 28.65212,-29.9277 C28.65212,-30.2197 28.76342,-30.4492 29.00662,-30.7412 L39.34642,-42.1982 C39.75412,-42.6128 40.07792,-43 40.64572,-43 C41.26832,-43 41.72052,-42.5444 41.72052,-41.8696 C41.72052,-41.539 41.60572,-41.2959 41.37622,-41.0664 L39.34642,-38.7504205 L31.07402,-29.9277 Z M31.4876642,-28.937 C30.8900476,-28.9404 30.37042,-29.354 30.37042,-29.9277 C30.37042,-30.4595 30.8900476,-30.873 31.4876642,-30.8765 L41.4001447,-30.9878 C52.7623439,-30.9878 61.2839933,-30.9878 66.9650928,-30.9878 C69.003015,-30.9878 72.0598983,-30.9878 76.1357426,-30.9878 C76.7881989,-30.9878 77.37042,-30.5151 77.37042,-29.9277 C77.37042,-29.2983 76.7881989,-28.8222 76.1357426,-28.8222 C72.0218373,-28.8222 68.9364083,-28.8222 66.8794557,-28.8222 C61.2173866,-28.8222 52.7242829,-28.8222 41.4001447,-28.8222 L31.4876642,-28.937 Z M76.29862,-29.8857 L68.02622,-38.761109 L65.99642,-41.0698 C65.76692,-41.2958 65.65212,-41.539 65.65212,-41.8696 C65.65212,-42.5444 66.10432,-43 66.72692,-43 C67.29472,-43 67.61852,-42.6127 68.02622,-42.2016 L78.36602,-30.7446 C78.56382,-30.498 78.72052,-30.2197 78.72052,-29.8857 C78.72052,-29.5937 78.60922,-29.3642 78.36602,-29.0722 L68.02622,-17.6152 C67.61852,-17.2006 67.29472,-16.8134 66.72692,-16.8134 C66.10432,-16.8134 65.65212,-17.269 65.65212,-17.9438 C65.65212,-18.2744 65.76692,-18.5175 65.99642,-18.747 L68.02622,-21.0629795 L76.29862,-29.8857 Z" id="Shape" transform="translate(54.0093, -35.2505) scale(-1, 1) translate(-54.0093, 35.2505)"></path>
                </g>
            </g>
        </g>
    </g>
</svg>