<?xml version="1.0" encoding="UTF-8"?>
<svg width="1024px" height="1024px" viewBox="0 0 1024 1024" version="1.1" xmlns="http://www.w3.org/2000/svg" xmlns:xlink="http://www.w3.org/1999/xlink">
    <title>2 - Layer</title>
    <g id="Icon-Composer" stroke="none" stroke-width="1" fill="none" fill-rule="evenodd">
        <g id="2---Layer" fill="#FFFFFF">
            <path d="M511.5,138.024316 C716.660355,138.024316 882.975684,304.339645 882.975684,509.5 C882.975684,714.660355 716.660355,880.975684 511.5,880.975684 C306.339645,880.975684 140.024316,714.660355 140.024316,509.5 C140.024316,304.339645 306.339645,138.024316 511.5,138.024316 Z M510.927926,228.155968 L507.490885,228.181228 L504.096206,228.256785 C393.893545,231.542794 351.245622,314.794304 351.373592,424.924123 C351.394069,442.546097 351.406161,463.036329 351.411319,483.786659 L351.412158,487.450651 C351.412286,488.06159 351.412408,488.67262 351.412524,489.283677 L351.41315,492.949797 C351.413243,493.560691 351.413329,494.171479 351.413411,494.782094 L351.413521,520.144018 C351.413447,520.736778 351.413368,521.328436 351.413284,521.918926 L351.412389,527.19999 C351.407563,551.680999 351.393719,573.749547 351.373592,588.489253 C351.24301,684.119692 417.735961,762.49189 511.721848,762.18582 C605.707736,761.87975 672.466596,684.119692 672.466596,588.489253 L672.466596,420.924123 C672.466596,311.98164 626.20376,228.155968 510.927926,228.155968 Z M511.609568,308.546757 C529.490071,308.234651 543.217349,321.288156 543.503864,337.702575 L545.040723,425.749163 C545.327237,442.163583 530.064492,455.72311 512.183988,456.035215 C494.303485,456.347321 479.576207,443.293816 479.289692,426.879397 L479.752833,338.832809 C479.466318,322.418389 493.729064,308.858862 511.609568,308.546757 Z" id="Combined-Shape"></path>
        </g>
    </g>
</svg>