<?xml version="1.0" encoding="UTF-8"?>
<!--Generator: Apple Native CoreSVG 175.5-->
<!DOCTYPE svg
PUBLIC "-//W3C//DTD SVG 1.1//EN"
       "http://www.w3.org/Graphics/SVG/1.1/DTD/svg11.dtd">
<svg version="1.1" xmlns="http://www.w3.org/2000/svg" xmlns:xlink="http://www.w3.org/1999/xlink" width="12.7715" height="12.8667">
 <g>
  <rect height="12.8667" opacity="0" width="12.7715" x="0" y="0"/>
  <path d="M9.97217 8.62012C6.47461 8.62012 4.30371 6.5127 4.30371 3.12939C4.30371 2.16455 4.4624 1.31396 4.69727 0.856934C4.79248 0.672852 4.81152 0.583984 4.81152 0.457031C4.81152 0.247559 4.61475 0 4.34814 0C4.29736 0 4.17676 0.019043 3.99902 0.0888672C1.65039 1.04102 0 3.5166 0 6.18262C0 10.0356 2.79932 12.8413 6.65234 12.8413C9.41357 12.8413 11.6543 11.394 12.6826 9.02002C12.7588 8.85498 12.7715 8.71533 12.7715 8.64551C12.7715 8.38525 12.5493 8.20752 12.3525 8.20752C12.251 8.20752 12.1748 8.21387 12.0225 8.271C11.5083 8.48047 10.7339 8.62012 9.97217 8.62012ZM0.996582 6.13818C0.996582 4.16406 2.0249 2.28516 3.66895 1.25049C3.46582 1.84082 3.35791 2.49463 3.35791 3.21826C3.35791 7.18555 5.77637 9.54688 9.82617 9.54688C10.48 9.54688 11.0322 9.4707 11.5591 9.28662C10.5942 10.8799 8.73438 11.8511 6.69043 11.8511C3.396 11.8511 0.996582 9.45166 0.996582 6.13818Z" fill="#000000" fill-opacity="0.85"/>
 </g>
</svg>
