<?xml version="1.0" encoding="UTF-8"?>
<!--Generator: Apple Native CoreSVG 175.5-->
<!DOCTYPE svg
PUBLIC "-//W3C//DTD SVG 1.1//EN"
       "http://www.w3.org/Graphics/SVG/1.1/DTD/svg11.dtd">
<svg version="1.1" xmlns="http://www.w3.org/2000/svg" xmlns:xlink="http://www.w3.org/1999/xlink" width="16.3389" height="10.4927">
 <g>
  <rect height="10.4927" opacity="0" width="16.3389" x="0" y="0"/>
  <path d="M11.6035 10.4927C11.9019 10.4927 12.1431 10.2642 12.1431 9.96582L12.1431 0.539551C12.1431 0.241211 11.9019 0.00634766 11.6035 0.00634766C11.3052 0.00634766 11.0576 0.241211 11.0576 0.539551L11.0576 9.96582C11.0576 10.2642 11.3052 10.4927 11.6035 10.4927ZM15.793 10.4927C16.0977 10.4927 16.3389 10.2642 16.3389 9.96582L16.3389 0.539551C16.3389 0.241211 16.0977 0.00634766 15.793 0.00634766C15.4946 0.00634766 15.2534 0.241211 15.2534 0.539551L15.2534 9.96582C15.2534 10.2642 15.4946 10.4927 15.793 10.4927ZM0.914062 10.2388C1.17432 10.2388 1.38379 10.1562 1.64404 10.0039L8.1123 6.19531C8.56299 5.92871 8.75342 5.61133 8.75342 5.24951C8.75342 4.8877 8.56299 4.57031 8.1123 4.30371L1.64404 0.495117C1.38379 0.342773 1.17432 0.260254 0.914062 0.260254C0.412598 0.260254 0 0.641113 0 1.35205L0 9.14697C0 9.85791 0.412598 10.2388 0.914062 10.2388ZM1.19336 9.06445C1.09814 9.06445 1.01562 9.00098 1.01562 8.87402L1.01562 1.625C1.01562 1.49805 1.09814 1.43457 1.19336 1.43457C1.23145 1.43457 1.28223 1.45361 1.3457 1.4917L7.38232 5.07178C7.47119 5.12256 7.51562 5.16064 7.51562 5.24951C7.51562 5.33203 7.46484 5.37646 7.38232 5.42725L1.3457 9.00732C1.28223 9.04541 1.23145 9.06445 1.19336 9.06445Z" fill="#000000" fill-opacity="0.85"/>
 </g>
</svg>
