<?xml version="1.0" encoding="UTF-8"?>
<!--Generator: Apple Native CoreSVG 175-->
<!DOCTYPE svg
PUBLIC "-//W3C//DTD SVG 1.1//EN"
       "http://www.w3.org/Graphics/SVG/1.1/DTD/svg11.dtd">
<svg version="1.1" xmlns="http://www.w3.org/2000/svg" xmlns:xlink="http://www.w3.org/1999/xlink" width="3300" height="2200">
 <!--glyph: "uni1010B6.medium", point size: 100.0, font version: "17.3d3e1", template writer version: "65.1"-->
 <g id="Notes">
  <rect height="2200" id="artboard" style="fill:white;opacity:1" width="3300" x="0" y="0"/>
  <line style="fill:none;stroke:black;opacity:1;stroke-width:0.5;" x1="263" x2="3036" y1="292" y2="292"/>
  <text style="stroke:none;fill:black;font-family:sans-serif;font-size:13;font-weight:bold;" transform="matrix(1 0 0 1 263 322)">Weight/Scale Variations</text>
  <text style="stroke:none;fill:black;font-family:sans-serif;font-size:13;text-anchor:middle;" transform="matrix(1 0 0 1 559.711 322)">Ultralight</text>
  <text style="stroke:none;fill:black;font-family:sans-serif;font-size:13;text-anchor:middle;" transform="matrix(1 0 0 1 856.422 322)">Thin</text>
  <text style="stroke:none;fill:black;font-family:sans-serif;font-size:13;text-anchor:middle;" transform="matrix(1 0 0 1 1153.13 322)">Light</text>
  <text style="stroke:none;fill:black;font-family:sans-serif;font-size:13;text-anchor:middle;" transform="matrix(1 0 0 1 1449.84 322)">Regular</text>
  <text style="stroke:none;fill:black;font-family:sans-serif;font-size:13;text-anchor:middle;" transform="matrix(1 0 0 1 1746.56 322)">Medium</text>
  <text style="stroke:none;fill:black;font-family:sans-serif;font-size:13;text-anchor:middle;" transform="matrix(1 0 0 1 2043.27 322)">Semibold</text>
  <text style="stroke:none;fill:black;font-family:sans-serif;font-size:13;text-anchor:middle;" transform="matrix(1 0 0 1 2339.98 322)">Bold</text>
  <text style="stroke:none;fill:black;font-family:sans-serif;font-size:13;text-anchor:middle;" transform="matrix(1 0 0 1 2636.69 322)">Heavy</text>
  <text style="stroke:none;fill:black;font-family:sans-serif;font-size:13;text-anchor:middle;" transform="matrix(1 0 0 1 2933.4 322)">Black</text>
  <line style="fill:none;stroke:black;opacity:1;stroke-width:0.5;" x1="263" x2="3036" y1="1903" y2="1903"/>
  <g transform="matrix(1 0 0 1 263 1933)">
   <path d="M9.24805 0.830078Q10.8691 0.830078 12.2949 0.214844Q13.7207-0.400391 14.8096-1.49414Q15.8984-2.58789 16.5186-4.01367Q17.1387-5.43945 17.1387-7.05078Q17.1387-8.66211 16.5186-10.0879Q15.8984-11.5137 14.8047-12.6074Q13.7109-13.7012 12.2852-14.3164Q10.8594-14.9316 9.23828-14.9316Q7.62695-14.9316 6.20117-14.3164Q4.77539-13.7012 3.69141-12.6074Q2.60742-11.5137 1.9873-10.0879Q1.36719-8.66211 1.36719-7.05078Q1.36719-5.43945 1.9873-4.01367Q2.60742-2.58789 3.69629-1.49414Q4.78516-0.400391 6.21094 0.214844Q7.63672 0.830078 9.24805 0.830078ZM9.24805-0.654297Q7.91992-0.654297 6.7627-1.14746Q5.60547-1.64062 4.73145-2.51953Q3.85742-3.39844 3.36426-4.56055Q2.87109-5.72266 2.87109-7.05078Q2.87109-8.37891 3.35938-9.54102Q3.84766-10.7031 4.72168-11.582Q5.5957-12.4609 6.75293-12.9541Q7.91016-13.4473 9.23828-13.4473Q10.5762-13.4473 11.7334-12.9541Q12.8906-12.4609 13.7695-11.582Q14.6484-10.7031 15.1465-9.54102Q15.6445-8.37891 15.6445-7.05078Q15.6445-5.72266 15.1514-4.56055Q14.6582-3.39844 13.7842-2.51953Q12.9102-1.64062 11.748-1.14746Q10.5859-0.654297 9.24805-0.654297ZM5.6543-7.05078Q5.6543-6.72852 5.85938-6.52832Q6.06445-6.32812 6.40625-6.32812L8.51562-6.32812L8.51562-4.20898Q8.51562-3.88672 8.71094-3.67676Q8.90625-3.4668 9.23828-3.4668Q9.56055-3.4668 9.77051-3.67676Q9.98047-3.88672 9.98047-4.20898L9.98047-6.32812L12.0898-6.32812Q12.4219-6.32812 12.627-6.52832Q12.832-6.72852 12.832-7.05078Q12.832-7.38281 12.627-7.58789Q12.4219-7.79297 12.0898-7.79297L9.98047-7.79297L9.98047-9.90234Q9.98047-10.2344 9.77051-10.4443Q9.56055-10.6543 9.23828-10.6543Q8.90625-10.6543 8.71094-10.4443Q8.51562-10.2344 8.51562-9.90234L8.51562-7.79297L6.40625-7.79297Q6.06445-7.79297 5.85938-7.58789Q5.6543-7.38281 5.6543-7.05078Z"/>
  </g>
  <g transform="matrix(1 0 0 1 281.867 1933)">
   <path d="M11.709 2.91016Q13.75 2.91016 15.5518 2.12891Q17.3535 1.34766 18.7305-0.0292969Q20.1074-1.40625 20.8887-3.20801Q21.6699-5.00977 21.6699-7.05078Q21.6699-9.0918 20.8887-10.8936Q20.1074-12.6953 18.7305-14.0723Q17.3535-15.4492 15.5469-16.2305Q13.7402-17.0117 11.6992-17.0117Q9.6582-17.0117 7.85645-16.2305Q6.05469-15.4492 4.68262-14.0723Q3.31055-12.6953 2.5293-10.8936Q1.74805-9.0918 1.74805-7.05078Q1.74805-5.00977 2.5293-3.20801Q3.31055-1.40625 4.6875-0.0292969Q6.06445 1.34766 7.86621 2.12891Q9.66797 2.91016 11.709 2.91016ZM11.709 1.25Q9.98047 1.25 8.47656 0.605469Q6.97266-0.0390625 5.83496-1.17676Q4.69727-2.31445 4.05762-3.81836Q3.41797-5.32227 3.41797-7.05078Q3.41797-8.7793 4.05762-10.2832Q4.69727-11.7871 5.83008-12.9297Q6.96289-14.0723 8.4668-14.7119Q9.9707-15.3516 11.6992-15.3516Q13.4277-15.3516 14.9316-14.7119Q16.4355-14.0723 17.5781-12.9297Q18.7207-11.7871 19.3652-10.2832Q20.0098-8.7793 20.0098-7.05078Q20.0098-5.32227 19.3701-3.81836Q18.7305-2.31445 17.5928-1.17676Q16.4551-0.0390625 14.9463 0.605469Q13.4375 1.25 11.709 1.25ZM7.17773-7.05078Q7.17773-6.69922 7.41211-6.47461Q7.64648-6.25 8.01758-6.25L10.8887-6.25L10.8887-3.36914Q10.8887-2.99805 11.1133-2.76855Q11.3379-2.53906 11.6895-2.53906Q12.0605-2.53906 12.29-2.76855Q12.5195-2.99805 12.5195-3.36914L12.5195-6.25L15.4004-6.25Q15.7715-6.25 16.001-6.47461Q16.2305-6.69922 16.2305-7.05078Q16.2305-7.42188 16.001-7.65137Q15.7715-7.88086 15.4004-7.88086L12.5195-7.88086L12.5195-10.752Q12.5195-11.1328 12.29-11.3623Q12.0605-11.5918 11.6895-11.5918Q11.3379-11.5918 11.1133-11.3574Q10.8887-11.123 10.8887-10.752L10.8887-7.88086L8.01758-7.88086Q7.63672-7.88086 7.40723-7.65137Q7.17773-7.42188 7.17773-7.05078Z"/>
  </g>
  <g transform="matrix(1 0 0 1 305.646 1933)">
   <path d="M14.9707 5.66406Q17.0605 5.66406 18.96 5.01465Q20.8594 4.36523 22.4512 3.19336Q24.043 2.02148 25.2197 0.429688Q26.3965-1.16211 27.0459-3.06641Q27.6953-4.9707 27.6953-7.05078Q27.6953-9.14062 27.0459-11.04Q26.3965-12.9395 25.2197-14.5312Q24.043-16.123 22.4512-17.2998Q20.8594-18.4766 18.9551-19.126Q17.0508-19.7754 14.9609-19.7754Q12.8711-19.7754 10.9717-19.126Q9.07227-18.4766 7.48535-17.2998Q5.89844-16.123 4.72168-14.5312Q3.54492-12.9395 2.90039-11.04Q2.25586-9.14062 2.25586-7.05078Q2.25586-4.9707 2.90527-3.06641Q3.55469-1.16211 4.72656 0.429688Q5.89844 2.02148 7.49023 3.19336Q9.08203 4.36523 10.9814 5.01465Q12.8809 5.66406 14.9707 5.66406ZM14.9707 3.84766Q13.1641 3.84766 11.5283 3.2959Q9.89258 2.74414 8.53516 1.74805Q7.17773 0.751953 6.17676-0.610352Q5.17578-1.97266 4.62891-3.6084Q4.08203-5.24414 4.08203-7.05078Q4.08203-8.86719 4.62891-10.5029Q5.17578-12.1387 6.17188-13.501Q7.16797-14.8633 8.52539-15.8594Q9.88281-16.8555 11.5186-17.4023Q13.1543-17.9492 14.9609-17.9492Q16.7773-17.9492 18.4131-17.4023Q20.0488-16.8555 21.4111-15.8594Q22.7734-14.8633 23.7695-13.501Q24.7656-12.1387 25.3174-10.5029Q25.8691-8.86719 25.8691-7.05078Q25.8789-5.24414 25.332-3.6084Q24.7852-1.97266 23.7842-0.610352Q22.7832 0.751953 21.4209 1.74805Q20.0586 2.74414 18.4229 3.2959Q16.7871 3.84766 14.9707 3.84766ZM9.19922-7.05078Q9.19922-6.66992 9.45801-6.4209Q9.7168-6.17188 10.1172-6.17188L14.0625-6.17188L14.0625-2.2168Q14.0625-1.81641 14.3115-1.55762Q14.5605-1.29883 14.9512-1.29883Q15.3516-1.29883 15.6104-1.55273Q15.8691-1.80664 15.8691-2.2168L15.8691-6.17188L19.8242-6.17188Q20.2246-6.17188 20.4785-6.4209Q20.7324-6.66992 20.7324-7.05078Q20.7324-7.46094 20.4785-7.71484Q20.2246-7.96875 19.8242-7.96875L15.8691-7.96875L15.8691-11.9141Q15.8691-12.3242 15.6104-12.583Q15.3516-12.8418 14.9512-12.8418Q14.5605-12.8418 14.3115-12.583Q14.0625-12.3242 14.0625-11.9141L14.0625-7.96875L10.1172-7.96875Q9.70703-7.96875 9.45312-7.71484Q9.19922-7.46094 9.19922-7.05078Z"/>
  </g>
  <text style="stroke:none;fill:black;font-family:sans-serif;font-size:13;font-weight:bold;" transform="matrix(1 0 0 1 263 1953)">Design Variations</text>
  <text style="stroke:none;fill:black;font-family:sans-serif;font-size:13;" transform="matrix(1 0 0 1 263 1971)">Symbols are supported in up to nine weights and three scales.</text>
  <text style="stroke:none;fill:black;font-family:sans-serif;font-size:13;" transform="matrix(1 0 0 1 263 1989)">For optimal layout with text and other symbols, vertically align</text>
  <text style="stroke:none;fill:black;font-family:sans-serif;font-size:13;" transform="matrix(1 0 0 1 263 2007)">symbols with the adjacent text.</text>
  <line style="fill:none;stroke:#00AEEF;stroke-width:0.5;opacity:1.0;" x1="776" x2="776" y1="1919" y2="1933"/>
  <g transform="matrix(1 0 0 1 776 1933)">
   <path d="M3.31055 0.15625Q3.70117 0.15625 3.91602-0.00976562Q4.13086-0.175781 4.26758-0.585938L5.52734-4.0332L11.2891-4.0332L12.5488-0.585938Q12.6855-0.175781 12.9004-0.00976562Q13.1152 0.15625 13.4961 0.15625Q13.8867 0.15625 14.1162-0.0585938Q14.3457-0.273438 14.3457-0.644531Q14.3457-0.869141 14.2383-1.17188L9.6582-13.3691Q9.48242-13.8184 9.17969-14.043Q8.87695-14.2676 8.4082-14.2676Q7.5-14.2676 7.17773-13.3789L2.59766-1.16211Q2.49023-0.859375 2.49023-0.634766Q2.49023-0.263672 2.70996-0.0537109Q2.92969 0.15625 3.31055 0.15625ZM6.00586-5.51758L8.37891-12.0898L8.42773-12.0898L10.8008-5.51758Z"/>
  </g>
  <line style="fill:none;stroke:#00AEEF;stroke-width:0.5;opacity:1.0;" x1="793.197" x2="793.197" y1="1919" y2="1933"/>
  <text style="stroke:none;fill:black;font-family:sans-serif;font-size:13;font-weight:bold;" transform="matrix(1 0 0 1 776 1953)">Margins</text>
  <text style="stroke:none;fill:black;font-family:sans-serif;font-size:13;" transform="matrix(1 0 0 1 776 1971)">Leading and trailing margins on the left and right side of each symbol</text>
  <text style="stroke:none;fill:black;font-family:sans-serif;font-size:13;" transform="matrix(1 0 0 1 776 1989)">can be adjusted by modifying the x-location of the margin guidelines.</text>
  <text style="stroke:none;fill:black;font-family:sans-serif;font-size:13;" transform="matrix(1 0 0 1 776 2007)">Modifications are automatically applied proportionally to all</text>
  <text style="stroke:none;fill:black;font-family:sans-serif;font-size:13;" transform="matrix(1 0 0 1 776 2025)">scales and weights.</text>
  <g transform="matrix(1 0 0 1 1289 1933)">
   <path d="M2.8418 1.86523L4.54102 3.57422Q5.18555 4.22852 5.90332 4.17969Q6.62109 4.13086 7.31445 3.35938L18.0078-8.42773L17.041-9.4043L6.42578 2.27539Q6.16211 2.57812 5.89355 2.61719Q5.625 2.65625 5.27344 2.30469L4.10156 1.14258Q3.75 0.791016 3.79395 0.522461Q3.83789 0.253906 4.14062-0.0195312L15.6152-10.8203L14.6387-11.7871L3.04688-0.898438Q2.30469-0.214844 2.25098 0.498047Q2.19727 1.21094 2.8418 1.86523ZM9.25781-16.3281Q8.94531-16.0254 8.90625-15.6348Q8.86719-15.2441 9.04297-14.9512Q9.21875-14.6777 9.55566-14.541Q9.89258-14.4043 10.3809-14.5215Q11.4746-14.7754 12.5977-14.7314Q13.7207-14.6875 14.7949-13.9844L14.209-12.5293Q13.9551-11.9043 14.0674-11.4404Q14.1797-10.9766 14.5801-10.5664L16.875-8.25195Q17.2363-7.88086 17.5781-7.82227Q17.9199-7.76367 18.3398-7.8418L19.4043-8.03711L20.0684-7.36328L20.0293-6.80664Q20-6.43555 20.1221-6.12305Q20.2441-5.81055 20.6055-5.44922L21.3672-4.70703Q21.7285-4.3457 22.1533-4.33105Q22.5781-4.31641 22.9297-4.66797L25.8398-7.58789Q26.1914-7.93945 26.1816-8.35449Q26.1719-8.76953 25.8105-9.13086L25.0391-9.89258Q24.6875-10.2539 24.3799-10.3857Q24.0723-10.5176 23.7109-10.4883L23.1348-10.4395L22.4902-11.0742L22.7344-12.1973Q22.832-12.6172 22.6953-12.9834Q22.5586-13.3496 22.1191-13.7891L19.9219-15.9766Q18.6719-17.2168 17.2607-17.8369Q15.8496-18.457 14.4189-18.4814Q12.9883-18.5059 11.665-17.959Q10.3418-17.4121 9.25781-16.3281ZM10.752-15.957Q11.6602-16.6211 12.7002-16.9043Q13.7402-17.1875 14.8047-17.085Q15.8691-16.9824 16.8701-16.5137Q17.8711-16.0449 18.7012-15.2051L21.1328-12.793Q21.3086-12.6172 21.3525-12.4512Q21.3965-12.2852 21.3379-12.0312L21.0156-10.5469L22.5195-9.0625L23.5059-9.12109Q23.6914-9.13086 23.7891-9.09668Q23.8867-9.0625 24.0332-8.91602L24.6094-8.33984L22.168-5.89844L21.5918-6.47461Q21.4453-6.62109 21.4062-6.71875Q21.3672-6.81641 21.377-7.01172L21.4453-7.98828L19.9512-9.47266L18.4277-9.21875Q18.1836-9.16992 18.042-9.2041Q17.9004-9.23828 17.7148-9.41406L15.7129-11.416Q15.5176-11.5918 15.4932-11.7529Q15.4688-11.9141 15.5859-12.1875L16.4648-14.2773Q15.293-15.3711 13.8281-15.791Q12.3633-16.2109 10.8398-15.7617Q10.7227-15.7324 10.6885-15.8057Q10.6543-15.8789 10.752-15.957Z"/>
  </g>
  <text style="stroke:none;fill:black;font-family:sans-serif;font-size:13;font-weight:bold;" transform="matrix(1 0 0 1 1289 1953)">Exporting</text>
  <text style="stroke:none;fill:black;font-family:sans-serif;font-size:13;" transform="matrix(1 0 0 1 1289 1971)">Symbols should be outlined when exporting to ensure the</text>
  <text style="stroke:none;fill:black;font-family:sans-serif;font-size:13;" transform="matrix(1 0 0 1 1289 1989)">design is preserved when submitting to Xcode.</text>
  <text id="template-version" style="stroke:none;fill:black;font-family:sans-serif;font-size:13;text-anchor:end;" transform="matrix(1 0 0 1 3036 1933)">Template v.3.0</text>
  <text style="stroke:none;fill:black;font-family:sans-serif;font-size:13;text-anchor:end;" transform="matrix(1 0 0 1 3036 1951)">Requires Xcode 13 or greater</text>
  <text id="descriptive-name" style="stroke:none;fill:black;font-family:sans-serif;font-size:13;text-anchor:end;" transform="matrix(1 0 0 1 3036 1969)">Generated from testtube.2</text>
  <text style="stroke:none;fill:black;font-family:sans-serif;font-size:13;text-anchor:end;" transform="matrix(1 0 0 1 3036 1987)">Typeset at 100 points</text>
  <text style="stroke:none;fill:black;font-family:sans-serif;font-size:13;" transform="matrix(1 0 0 1 263 726)">Small</text>
  <text style="stroke:none;fill:black;font-family:sans-serif;font-size:13;" transform="matrix(1 0 0 1 263 1156)">Medium</text>
  <text style="stroke:none;fill:black;font-family:sans-serif;font-size:13;" transform="matrix(1 0 0 1 263 1586)">Large</text>
 </g>
 <g id="Guides">
  <g id="H-reference" style="fill:#27AAE1;stroke:none;" transform="matrix(1 0 0 1 339 696)">
   <path d="M0.993347 0L3.6377 0L29.3282-67.1326L30.0301-67.1326L30.0301-70.459L28.1227-70.459ZM11.6882-24.4797L46.9818-24.4797L46.2311-26.7288L12.4382-26.7288ZM55.1193 0L57.7637 0L30.6381-70.459L29.4327-70.459L29.4327-67.1326Z"/>
  </g>
  <line id="Baseline-S" style="fill:none;stroke:#27AAE1;opacity:1;stroke-width:0.5;" x1="263" x2="3036" y1="696" y2="696"/>
  <line id="Capline-S" style="fill:none;stroke:#27AAE1;opacity:1;stroke-width:0.5;" x1="263" x2="3036" y1="625.541" y2="625.541"/>
  <g id="H-reference" style="fill:#27AAE1;stroke:none;" transform="matrix(1 0 0 1 339 1126)">
   <path d="M0.993347 0L3.6377 0L29.3282-67.1326L30.0301-67.1326L30.0301-70.459L28.1227-70.459ZM11.6882-24.4797L46.9818-24.4797L46.2311-26.7288L12.4382-26.7288ZM55.1193 0L57.7637 0L30.6381-70.459L29.4327-70.459L29.4327-67.1326Z"/>
  </g>
  <line id="Baseline-M" style="fill:none;stroke:#27AAE1;opacity:1;stroke-width:0.5;" x1="263" x2="3036" y1="1126" y2="1126"/>
  <line id="Capline-M" style="fill:none;stroke:#27AAE1;opacity:1;stroke-width:0.5;" x1="263" x2="3036" y1="1055.54" y2="1055.54"/>
  <g id="H-reference" style="fill:#27AAE1;stroke:none;" transform="matrix(1 0 0 1 339 1556)">
   <path d="M0.993347 0L3.6377 0L29.3282-67.1326L30.0301-67.1326L30.0301-70.459L28.1227-70.459ZM11.6882-24.4797L46.9818-24.4797L46.2311-26.7288L12.4382-26.7288ZM55.1193 0L57.7637 0L30.6381-70.459L29.4327-70.459L29.4327-67.1326Z"/>
  </g>
  <line id="Baseline-L" style="fill:none;stroke:#27AAE1;opacity:1;stroke-width:0.5;" x1="263" x2="3036" y1="1556" y2="1556"/>
  <line id="Capline-L" style="fill:none;stroke:#27AAE1;opacity:1;stroke-width:0.5;" x1="263" x2="3036" y1="1485.54" y2="1485.54"/>
  <line id="left-margin-Ultralight-S" style="fill:none;stroke:#00AEEF;stroke-width:0.5;opacity:1.0;" x1="518.406" x2="518.406" y1="600.785" y2="720.121"/>
  <line id="right-margin-Ultralight-S" style="fill:none;stroke:#00AEEF;stroke-width:0.5;opacity:1.0;" x1="601.016" x2="601.016" y1="600.785" y2="720.121"/>
  <line id="left-margin-Regular-S" style="fill:none;stroke:#00AEEF;stroke-width:0.5;opacity:1.0;" x1="1399.19" x2="1399.19" y1="600.785" y2="720.121"/>
  <line id="right-margin-Regular-S" style="fill:none;stroke:#00AEEF;stroke-width:0.5;opacity:1.0;" x1="1500.5" x2="1500.5" y1="600.785" y2="720.121"/>
  <line id="left-margin-Black-S" style="fill:none;stroke:#00AEEF;stroke-width:0.5;opacity:1.0;" x1="2873.19" x2="2873.19" y1="600.785" y2="720.121"/>
  <line id="right-margin-Black-S" style="fill:none;stroke:#00AEEF;stroke-width:0.5;opacity:1.0;" x1="2993.61" x2="2993.61" y1="600.785" y2="720.121"/>
 </g>
 <g id="Symbols">
  <g id="Black-S" transform="matrix(1 0 0 1 2873.19 696)">
   <path d="M15.7715-68.7012L50.9277-68.7012Q53.3691-68.7012 55.1514-70.4834Q56.9336-72.2656 56.9336-74.707Q56.9336-77.1484 55.1758-78.9062Q53.418-80.6641 50.9277-80.6641L15.7715-80.6641Q13.2324-80.6641 11.499-78.9551Q9.76562-77.2461 9.76562-74.707Q9.76562-72.168 11.499-70.4346Q13.2324-68.7012 15.7715-68.7012ZM33.3008 10.0098Q42.334 10.0098 47.3877 5.07812Q52.4414 0.146484 52.4414-8.64258L52.4414-76.7578L40.8691-76.7578L40.8691-8.64258Q40.8691-5.27344 38.8672-3.36914Q36.8652-1.46484 33.3008-1.46484Q29.7363-1.46484 27.71-3.36914Q25.6836-5.27344 25.6836-8.64258L25.6836-76.7578L14.0625-76.7578L14.0625-8.64258Q14.0625 0.146484 19.1406 5.07812Q24.2188 10.0098 33.3008 10.0098ZM43.3105-60.0098L23.2422-60.0098L23.2422-8.64258Q23.2422-4.24805 25.9766-1.63574Q28.7109 0.976562 33.3008 0.976562Q37.8418 0.976562 40.5762-1.63574Q43.3105-4.24805 43.3105-8.64258ZM25.6836-45.6543L25.6836-51.5625L31.7871-51.5625Q33.0566-51.5625 33.9111-50.7324Q34.7656-49.9023 34.7656-48.6816Q34.7656-47.4121 33.9111-46.5332Q33.0566-45.6543 31.7871-45.6543ZM25.6836-33.2031L25.6836-39.1602L31.7871-39.1602Q33.0566-39.1602 33.9111-38.3301Q34.7656-37.5 34.7656-36.2305Q34.7656-34.9609 33.9111-34.082Q33.0566-33.2031 31.7871-33.2031ZM25.6836-20.752L25.6836-26.6602L31.7871-26.6602Q33.0566-26.6602 33.9111-25.7812Q34.7656-24.9023 34.7656-23.6328Q34.7656-22.4121 33.9111-21.582Q33.0566-20.752 31.7871-20.752ZM69.4824-68.7012L104.639-68.7012Q107.08-68.7012 108.862-70.4834Q110.645-72.2656 110.645-74.707Q110.645-77.1484 108.887-78.9062Q107.129-80.6641 104.639-80.6641L69.4824-80.6641Q66.9434-80.6641 65.21-78.9551Q63.4766-77.2461 63.4766-74.707Q63.4766-72.168 65.21-70.4346Q66.9434-68.7012 69.4824-68.7012ZM87.0117 10.0098Q96.0449 10.0098 101.099 5.07812Q106.152 0.146484 106.152-8.64258L106.152-76.7578L94.5801-76.7578L94.5801-8.64258Q94.5801-5.27344 92.5781-3.36914Q90.5762-1.46484 87.0117-1.46484Q83.4473-1.46484 81.4209-3.36914Q79.3945-5.27344 79.3945-8.64258L79.3945-76.7578L67.7734-76.7578L67.7734-8.64258Q67.7734 0.146484 72.8516 5.07812Q77.9297 10.0098 87.0117 10.0098ZM97.0215-14.2578L76.9531-14.2578L76.9531-8.64258Q76.9531-4.24805 79.6875-1.63574Q82.4219 0.976562 87.0117 0.976562Q91.5527 0.976562 94.2871-1.63574Q97.0215-4.24805 97.0215-8.64258ZM77.4414-45.6543L85.498-45.6543Q86.7676-45.6543 87.6221-46.5332Q88.4766-47.4121 88.4766-48.6816Q88.4766-49.9023 87.6221-50.7324Q86.7676-51.5625 85.498-51.5625L77.4414-51.5625ZM77.4414-33.2031L85.498-33.2031Q86.7676-33.2031 87.6221-34.082Q88.4766-34.9609 88.4766-36.2305Q88.4766-37.5 87.6221-38.3301Q86.7676-39.1602 85.498-39.1602L77.4414-39.1602ZM77.4414-20.752L85.498-20.752Q86.7676-20.752 87.6221-21.582Q88.4766-22.4121 88.4766-23.6328Q88.4766-24.9023 87.6221-25.7812Q86.7676-26.6602 85.498-26.6602L77.4414-26.6602Z"/>
  </g>
  <g id="Regular-S" transform="matrix(1 0 0 1 1399.19 696)">
   <path d="M13.4766-68.9453L44.0918-68.9453Q45.6055-68.9453 46.7041-70.0439Q47.8027-71.1426 47.8027-72.6562Q47.8027-74.1699 46.7041-75.2441Q45.6055-76.3184 44.0918-76.3184L13.4766-76.3184Q11.8164-76.3184 10.791-75.2441Q9.76562-74.1699 9.76562-72.6562Q9.76562-71.1426 10.791-70.0439Q11.8164-68.9453 13.4766-68.9453ZM28.8574 5.66406Q35.6934 5.66406 39.8682 1.48926Q44.043-2.68555 44.043-9.52148L44.043-72.7051L37.0605-72.7051L37.0605-9.52148Q37.0605-5.81055 34.79-3.54004Q32.5195-1.26953 28.8574-1.26953Q25.0977-1.26953 22.8271-3.54004Q20.5566-5.81055 20.5566-9.52148L20.5566-72.7051L13.5254-72.7051L13.5254-9.52148Q13.5254-2.68555 17.7246 1.48926Q21.9238 5.66406 28.8574 5.66406ZM38.9648-58.7402L18.6523-58.7402L18.6523-9.52148Q18.6523-5.0293 21.4844-2.19727Q24.3164 0.634766 28.8574 0.634766Q33.3008 0.634766 36.1328-2.19727Q38.9648-5.0293 38.9648-9.52148ZM20.5566-46.3379L20.5566-51.3672L28.9062-51.3672Q29.9316-51.3672 30.6885-50.6348Q31.4453-49.9023 31.4453-48.9258Q31.4453-47.8027 30.7373-47.0703Q30.0293-46.3379 28.9551-46.3379ZM20.5566-33.9844L20.5566-39.0137L28.9551-39.0137Q29.9805-39.0137 30.7129-38.2812Q31.4453-37.5488 31.4453-36.5234Q31.4453-35.4492 30.7373-34.7168Q30.0293-33.9844 28.9551-33.9844ZM20.5566-21.6309L20.5566-26.6113L28.9062-26.6113Q29.9316-26.6113 30.6641-25.8789Q31.3965-25.1465 31.3965-24.1699Q31.4453-23.0469 30.7373-22.3389Q30.0293-21.6309 28.9062-21.6309ZM57.1777-68.9453L87.8418-68.9453Q89.3555-68.9453 90.4541-70.0439Q91.5527-71.1426 91.5527-72.6562Q91.5527-74.1699 90.4541-75.2441Q89.3555-76.3184 87.8418-76.3184L57.1777-76.3184Q55.5176-76.3184 54.4922-75.2441Q53.4668-74.1699 53.4668-72.6562Q53.4668-71.1426 54.4922-70.0439Q55.5176-68.9453 57.1777-68.9453ZM72.5586 5.66406Q79.3945 5.66406 83.5693 1.48926Q87.7441-2.68555 87.7441-9.52148L87.7441-72.7051L80.7617-72.7051L80.7617-9.52148Q80.7617-5.81055 78.4912-3.54004Q76.2207-1.26953 72.5586-1.26953Q68.8477-1.26953 66.5771-3.54004Q64.3066-5.81055 64.3066-9.52148L64.3066-72.7051L57.2266-72.7051L57.2266-9.52148Q57.2266-2.68555 61.4502 1.48926Q65.6738 5.66406 72.5586 5.66406ZM82.666-14.3066L62.4023-14.3066L62.4023-9.52148Q62.4023-5.0293 65.2344-2.19727Q68.0664 0.634766 72.5586 0.634766Q77.0508 0.634766 79.8584-2.19727Q82.666-5.0293 82.666-9.52148ZM62.4023-46.3379L72.6562-46.3379Q73.7305-46.3379 74.4629-47.0703Q75.1953-47.8027 75.1953-48.9258Q75.1953-49.9023 74.4385-50.6348Q73.6816-51.3672 72.6562-51.3672L62.4023-51.3672ZM62.4023-33.9844L72.6562-33.9844Q73.7305-33.9844 74.4629-34.7168Q75.1953-35.4492 75.1953-36.5234Q75.1953-37.5488 74.4629-38.2812Q73.7305-39.0137 72.6562-39.0137L62.4023-39.0137ZM62.4023-21.6309L72.6562-21.6309Q73.7793-21.6309 74.4629-22.3389Q75.1465-23.0469 75.1465-24.1699Q75.1465-25.1465 74.4141-25.8789Q73.6816-26.6113 72.6562-26.6113L62.4023-26.6113Z"/>
  </g>
  <g id="Ultralight-S" transform="matrix(1 0 0 1 518.406 696)">
   <path d="M10.8879-68.9911L36.0542-68.9911Q36.5234-68.9911 36.85-69.3176Q37.1765-69.6442 37.1765-70.1134Q37.1765-70.5826 36.85-70.9076Q36.5234-71.2326 36.0542-71.2326L10.8879-71.2326Q10.4088-71.2326 10.0872-70.9076Q9.76562-70.5826 9.76562-70.1134Q9.76562-69.6442 10.0872-69.3176Q10.4088-68.9911 10.8879-68.9911ZM23.4085 0.759888Q28.5637 0.759888 31.7169-2.39334Q34.8701-5.54657 34.8701-10.7025L34.8701-69.7083L32.6561-69.7083L32.6561-10.7025Q32.6561-6.53687 30.1128-3.99399Q27.5696-1.45111 23.4085-1.45111Q19.2398-1.45111 16.674-3.99399Q14.1083-6.53687 14.1083-10.7025L14.1083-69.7083L11.8904-69.7083L11.8904-10.7025Q11.8904-5.54657 15.0681-2.39334Q18.2457 0.759888 23.4085 0.759888ZM33.6517-59.4215L13.0669-59.4215L13.0669-10.7025Q13.0669-6.11877 15.9443-3.28674Q18.8217-0.454712 23.4085-0.454712Q27.9877-0.454712 30.8197-3.28674Q33.6517-6.11877 33.6517-10.7025ZM14.1083-46.7468L14.1083-48.8693L22.3671-48.8693Q22.802-48.8693 23.1049-48.5458Q23.4077-48.2224 23.4077-47.7905Q23.4077-47.3938 23.1083-47.0703Q22.8088-46.7468 22.3709-46.7468ZM14.1083-34.0752L14.1083-36.1984L22.3709-36.1984Q22.8058-36.1984 23.1068-35.8746Q23.4077-35.5507 23.4077-35.1158Q23.4077-34.6771 23.1083-34.3761Q22.8088-34.0752 22.3709-34.0752ZM14.1083-21.4035L14.1083-23.5237L22.3671-23.5237Q22.802-23.5237 23.1033-23.1998Q23.4047-22.876 23.4047-22.4442Q23.4077-22.0024 23.1083-21.703Q22.8088-21.4035 22.3671-21.4035ZM46.5515-68.9911L71.7216-68.9911Q72.1909-68.9911 72.5174-69.3176Q72.8439-69.6442 72.8439-70.1134Q72.8439-70.5826 72.5174-70.9076Q72.1909-71.2326 71.7216-71.2326L46.5515-71.2326Q46.0724-71.2326 45.7508-70.9076Q45.4292-70.5826 45.4292-70.1134Q45.4292-69.6442 45.7508-69.3176Q46.0724-68.9911 46.5515-68.9911ZM59.1171 0.759888Q64.2273 0.759888 67.3805-2.39334Q70.5338-5.54657 70.5338-10.7025L70.5338-69.7083L68.3197-69.7083L68.3197-10.7025Q68.3197-6.53687 65.7764-3.99399Q63.2332-1.45111 59.1171-1.45111Q54.9072-1.45111 52.3415-3.99399Q49.7757-6.53687 49.7757-10.7025L49.7757-69.7083L47.554-69.7083L47.554-10.7025Q47.554-5.54657 50.7332-2.39334Q53.9124 0.759888 59.1171 0.759888ZM69.3611-11.7638L48.7343-11.7638L48.7343-10.7025Q48.7343-6.11877 51.6117-3.28674Q54.4891-0.454712 59.1171-0.454712Q63.6551-0.454712 66.5081-3.28674Q69.3611-6.11877 69.3611-10.7025ZM49.4148-46.7468L58.0345-46.7468Q58.4724-46.7468 58.7738-47.0703Q59.0752-47.3938 59.0752-47.7905Q59.0752-48.2224 58.7723-48.5458Q58.4694-48.8693 58.0345-48.8693L49.4148-48.8693ZM49.4148-34.0752L58.0345-34.0752Q58.4724-34.0752 58.7738-34.3761Q59.0752-34.6771 59.0752-35.1158Q59.0752-35.5507 58.7738-35.8746Q58.4724-36.1984 58.0345-36.1984L49.4148-36.1984ZM49.4148-21.4035L58.0345-21.4035Q58.4763-21.4035 58.7738-21.703Q59.0714-22.0024 59.0714-22.4442Q59.0714-22.876 58.7704-23.1998Q58.4694-23.5237 58.0345-23.5237L49.4148-23.5237Z"/>
  </g>
 </g>
</svg>
