<?xml version="1.0" encoding="UTF-8"?>
<!--Generator: Apple Native CoreSVG 175-->
<!DOCTYPE svg
PUBLIC "-//W3C//DTD SVG 1.1//EN"
       "http://www.w3.org/Graphics/SVG/1.1/DTD/svg11.dtd">
<svg version="1.1" xmlns="http://www.w3.org/2000/svg" xmlns:xlink="http://www.w3.org/1999/xlink" width="3300" height="2200">
 <!--glyph: "uni1001AB.medium", point size: 100.0, font version: "17.1d1e1", template writer version: "65.1"-->
 <g id="Notes">
  <rect height="2200" id="artboard" style="fill:white;opacity:1" width="3300" x="0" y="0"/>
  <line style="fill:none;stroke:black;opacity:1;stroke-width:0.5;" x1="263" x2="3036" y1="292" y2="292"/>
  <text style="stroke:none;fill:black;font-family:sans-serif;font-size:13;font-weight:bold;" transform="matrix(1 0 0 1 263 322)">Weight/Scale Variations</text>
  <text style="stroke:none;fill:black;font-family:sans-serif;font-size:13;text-anchor:middle;" transform="matrix(1 0 0 1 559.711 322)">Ultralight</text>
  <text style="stroke:none;fill:black;font-family:sans-serif;font-size:13;text-anchor:middle;" transform="matrix(1 0 0 1 856.422 322)">Thin</text>
  <text style="stroke:none;fill:black;font-family:sans-serif;font-size:13;text-anchor:middle;" transform="matrix(1 0 0 1 1153.13 322)">Light</text>
  <text style="stroke:none;fill:black;font-family:sans-serif;font-size:13;text-anchor:middle;" transform="matrix(1 0 0 1 1449.84 322)">Regular</text>
  <text style="stroke:none;fill:black;font-family:sans-serif;font-size:13;text-anchor:middle;" transform="matrix(1 0 0 1 1746.56 322)">Medium</text>
  <text style="stroke:none;fill:black;font-family:sans-serif;font-size:13;text-anchor:middle;" transform="matrix(1 0 0 1 2043.27 322)">Semibold</text>
  <text style="stroke:none;fill:black;font-family:sans-serif;font-size:13;text-anchor:middle;" transform="matrix(1 0 0 1 2339.98 322)">Bold</text>
  <text style="stroke:none;fill:black;font-family:sans-serif;font-size:13;text-anchor:middle;" transform="matrix(1 0 0 1 2636.69 322)">Heavy</text>
  <text style="stroke:none;fill:black;font-family:sans-serif;font-size:13;text-anchor:middle;" transform="matrix(1 0 0 1 2933.4 322)">Black</text>
  <line style="fill:none;stroke:black;opacity:1;stroke-width:0.5;" x1="263" x2="3036" y1="1903" y2="1903"/>
  <g transform="matrix(1 0 0 1 263 1933)">
   <path d="M9.24805 0.830078Q10.8691 0.830078 12.2949 0.214844Q13.7207-0.400391 14.8096-1.49414Q15.8984-2.58789 16.5186-4.01367Q17.1387-5.43945 17.1387-7.05078Q17.1387-8.66211 16.5186-10.0879Q15.8984-11.5137 14.8047-12.6074Q13.7109-13.7012 12.2852-14.3164Q10.8594-14.9316 9.23828-14.9316Q7.62695-14.9316 6.20117-14.3164Q4.77539-13.7012 3.69141-12.6074Q2.60742-11.5137 1.9873-10.0879Q1.36719-8.66211 1.36719-7.05078Q1.36719-5.43945 1.9873-4.01367Q2.60742-2.58789 3.69629-1.49414Q4.78516-0.400391 6.21094 0.214844Q7.63672 0.830078 9.24805 0.830078ZM9.24805-0.654297Q7.91992-0.654297 6.7627-1.14746Q5.60547-1.64062 4.73145-2.51953Q3.85742-3.39844 3.36426-4.56055Q2.87109-5.72266 2.87109-7.05078Q2.87109-8.37891 3.35938-9.54102Q3.84766-10.7031 4.72168-11.582Q5.5957-12.4609 6.75293-12.9541Q7.91016-13.4473 9.23828-13.4473Q10.5762-13.4473 11.7334-12.9541Q12.8906-12.4609 13.7695-11.582Q14.6484-10.7031 15.1465-9.54102Q15.6445-8.37891 15.6445-7.05078Q15.6445-5.72266 15.1514-4.56055Q14.6582-3.39844 13.7842-2.51953Q12.9102-1.64062 11.748-1.14746Q10.5859-0.654297 9.24805-0.654297ZM5.6543-7.05078Q5.6543-6.72852 5.85938-6.52832Q6.06445-6.32812 6.40625-6.32812L8.51562-6.32812L8.51562-4.20898Q8.51562-3.88672 8.71094-3.67676Q8.90625-3.4668 9.23828-3.4668Q9.56055-3.4668 9.77051-3.67676Q9.98047-3.88672 9.98047-4.20898L9.98047-6.32812L12.0898-6.32812Q12.4219-6.32812 12.627-6.52832Q12.832-6.72852 12.832-7.05078Q12.832-7.38281 12.627-7.58789Q12.4219-7.79297 12.0898-7.79297L9.98047-7.79297L9.98047-9.90234Q9.98047-10.2344 9.77051-10.4443Q9.56055-10.6543 9.23828-10.6543Q8.90625-10.6543 8.71094-10.4443Q8.51562-10.2344 8.51562-9.90234L8.51562-7.79297L6.40625-7.79297Q6.06445-7.79297 5.85938-7.58789Q5.6543-7.38281 5.6543-7.05078Z"/>
  </g>
  <g transform="matrix(1 0 0 1 281.867 1933)">
   <path d="M11.709 2.91016Q13.75 2.91016 15.5518 2.12891Q17.3535 1.34766 18.7305-0.0292969Q20.1074-1.40625 20.8887-3.20801Q21.6699-5.00977 21.6699-7.05078Q21.6699-9.0918 20.8887-10.8936Q20.1074-12.6953 18.7305-14.0723Q17.3535-15.4492 15.5469-16.2305Q13.7402-17.0117 11.6992-17.0117Q9.6582-17.0117 7.85645-16.2305Q6.05469-15.4492 4.68262-14.0723Q3.31055-12.6953 2.5293-10.8936Q1.74805-9.0918 1.74805-7.05078Q1.74805-5.00977 2.5293-3.20801Q3.31055-1.40625 4.6875-0.0292969Q6.06445 1.34766 7.86621 2.12891Q9.66797 2.91016 11.709 2.91016ZM11.709 1.25Q9.98047 1.25 8.47656 0.605469Q6.97266-0.0390625 5.83496-1.17676Q4.69727-2.31445 4.05762-3.81836Q3.41797-5.32227 3.41797-7.05078Q3.41797-8.7793 4.05762-10.2832Q4.69727-11.7871 5.83008-12.9297Q6.96289-14.0723 8.4668-14.7119Q9.9707-15.3516 11.6992-15.3516Q13.4277-15.3516 14.9316-14.7119Q16.4355-14.0723 17.5781-12.9297Q18.7207-11.7871 19.3652-10.2832Q20.0098-8.7793 20.0098-7.05078Q20.0098-5.32227 19.3701-3.81836Q18.7305-2.31445 17.5928-1.17676Q16.4551-0.0390625 14.9463 0.605469Q13.4375 1.25 11.709 1.25ZM7.17773-7.05078Q7.17773-6.69922 7.41211-6.47461Q7.64648-6.25 8.01758-6.25L10.8887-6.25L10.8887-3.36914Q10.8887-2.99805 11.1133-2.76855Q11.3379-2.53906 11.6895-2.53906Q12.0605-2.53906 12.29-2.76855Q12.5195-2.99805 12.5195-3.36914L12.5195-6.25L15.4004-6.25Q15.7715-6.25 16.001-6.47461Q16.2305-6.69922 16.2305-7.05078Q16.2305-7.42188 16.001-7.65137Q15.7715-7.88086 15.4004-7.88086L12.5195-7.88086L12.5195-10.752Q12.5195-11.1328 12.29-11.3623Q12.0605-11.5918 11.6895-11.5918Q11.3379-11.5918 11.1133-11.3574Q10.8887-11.123 10.8887-10.752L10.8887-7.88086L8.01758-7.88086Q7.63672-7.88086 7.40723-7.65137Q7.17773-7.42188 7.17773-7.05078Z"/>
  </g>
  <g transform="matrix(1 0 0 1 305.646 1933)">
   <path d="M14.9707 5.66406Q17.0605 5.66406 18.96 5.01465Q20.8594 4.36523 22.4512 3.19336Q24.043 2.02148 25.2197 0.429688Q26.3965-1.16211 27.0459-3.06641Q27.6953-4.9707 27.6953-7.05078Q27.6953-9.14062 27.0459-11.04Q26.3965-12.9395 25.2197-14.5312Q24.043-16.123 22.4512-17.2998Q20.8594-18.4766 18.9551-19.126Q17.0508-19.7754 14.9609-19.7754Q12.8711-19.7754 10.9717-19.126Q9.07227-18.4766 7.48535-17.2998Q5.89844-16.123 4.72168-14.5312Q3.54492-12.9395 2.90039-11.04Q2.25586-9.14062 2.25586-7.05078Q2.25586-4.9707 2.90527-3.06641Q3.55469-1.16211 4.72656 0.429688Q5.89844 2.02148 7.49023 3.19336Q9.08203 4.36523 10.9814 5.01465Q12.8809 5.66406 14.9707 5.66406ZM14.9707 3.84766Q13.1641 3.84766 11.5283 3.2959Q9.89258 2.74414 8.53516 1.74805Q7.17773 0.751953 6.17676-0.610352Q5.17578-1.97266 4.62891-3.6084Q4.08203-5.24414 4.08203-7.05078Q4.08203-8.86719 4.62891-10.5029Q5.17578-12.1387 6.17188-13.501Q7.16797-14.8633 8.52539-15.8594Q9.88281-16.8555 11.5186-17.4023Q13.1543-17.9492 14.9609-17.9492Q16.7773-17.9492 18.4131-17.4023Q20.0488-16.8555 21.4111-15.8594Q22.7734-14.8633 23.7695-13.501Q24.7656-12.1387 25.3174-10.5029Q25.8691-8.86719 25.8691-7.05078Q25.8789-5.24414 25.332-3.6084Q24.7852-1.97266 23.7842-0.610352Q22.7832 0.751953 21.4209 1.74805Q20.0586 2.74414 18.4229 3.2959Q16.7871 3.84766 14.9707 3.84766ZM9.19922-7.05078Q9.19922-6.66992 9.45801-6.4209Q9.7168-6.17188 10.1172-6.17188L14.0625-6.17188L14.0625-2.2168Q14.0625-1.81641 14.3115-1.55762Q14.5605-1.29883 14.9512-1.29883Q15.3516-1.29883 15.6104-1.55273Q15.8691-1.80664 15.8691-2.2168L15.8691-6.17188L19.8242-6.17188Q20.2246-6.17188 20.4785-6.4209Q20.7324-6.66992 20.7324-7.05078Q20.7324-7.46094 20.4785-7.71484Q20.2246-7.96875 19.8242-7.96875L15.8691-7.96875L15.8691-11.9141Q15.8691-12.3242 15.6104-12.583Q15.3516-12.8418 14.9512-12.8418Q14.5605-12.8418 14.3115-12.583Q14.0625-12.3242 14.0625-11.9141L14.0625-7.96875L10.1172-7.96875Q9.70703-7.96875 9.45312-7.71484Q9.19922-7.46094 9.19922-7.05078Z"/>
  </g>
  <text style="stroke:none;fill:black;font-family:sans-serif;font-size:13;font-weight:bold;" transform="matrix(1 0 0 1 263 1953)">Design Variations</text>
  <text style="stroke:none;fill:black;font-family:sans-serif;font-size:13;" transform="matrix(1 0 0 1 263 1971)">Symbols are supported in up to nine weights and three scales.</text>
  <text style="stroke:none;fill:black;font-family:sans-serif;font-size:13;" transform="matrix(1 0 0 1 263 1989)">For optimal layout with text and other symbols, vertically align</text>
  <text style="stroke:none;fill:black;font-family:sans-serif;font-size:13;" transform="matrix(1 0 0 1 263 2007)">symbols with the adjacent text.</text>
  <line style="fill:none;stroke:#00AEEF;stroke-width:0.5;opacity:1.0;" x1="776" x2="776" y1="1919" y2="1933"/>
  <g transform="matrix(1 0 0 1 776 1933)">
   <path d="M3.31055 0.15625Q3.70117 0.15625 3.91602-0.00976562Q4.13086-0.175781 4.26758-0.585938L5.52734-4.0332L11.2891-4.0332L12.5488-0.585938Q12.6855-0.175781 12.9004-0.00976562Q13.1152 0.15625 13.4961 0.15625Q13.8867 0.15625 14.1162-0.0585938Q14.3457-0.273438 14.3457-0.644531Q14.3457-0.869141 14.2383-1.17188L9.6582-13.3691Q9.48242-13.8184 9.17969-14.043Q8.87695-14.2676 8.4082-14.2676Q7.5-14.2676 7.17773-13.3789L2.59766-1.16211Q2.49023-0.859375 2.49023-0.634766Q2.49023-0.263672 2.70996-0.0537109Q2.92969 0.15625 3.31055 0.15625ZM6.00586-5.51758L8.37891-12.0898L8.42773-12.0898L10.8008-5.51758Z"/>
  </g>
  <line style="fill:none;stroke:#00AEEF;stroke-width:0.5;opacity:1.0;" x1="793.197" x2="793.197" y1="1919" y2="1933"/>
  <text style="stroke:none;fill:black;font-family:sans-serif;font-size:13;font-weight:bold;" transform="matrix(1 0 0 1 776 1953)">Margins</text>
  <text style="stroke:none;fill:black;font-family:sans-serif;font-size:13;" transform="matrix(1 0 0 1 776 1971)">Leading and trailing margins on the left and right side of each symbol</text>
  <text style="stroke:none;fill:black;font-family:sans-serif;font-size:13;" transform="matrix(1 0 0 1 776 1989)">can be adjusted by modifying the x-location of the margin guidelines.</text>
  <text style="stroke:none;fill:black;font-family:sans-serif;font-size:13;" transform="matrix(1 0 0 1 776 2007)">Modifications are automatically applied proportionally to all</text>
  <text style="stroke:none;fill:black;font-family:sans-serif;font-size:13;" transform="matrix(1 0 0 1 776 2025)">scales and weights.</text>
  <g transform="matrix(1 0 0 1 1289 1933)">
   <path d="M2.8418 1.86523L4.54102 3.57422Q5.18555 4.22852 5.90332 4.17969Q6.62109 4.13086 7.31445 3.35938L18.0078-8.42773L17.041-9.4043L6.42578 2.27539Q6.16211 2.57812 5.89355 2.61719Q5.625 2.65625 5.27344 2.30469L4.10156 1.14258Q3.75 0.791016 3.79395 0.522461Q3.83789 0.253906 4.14062-0.0195312L15.6152-10.8203L14.6387-11.7871L3.04688-0.898438Q2.30469-0.214844 2.25098 0.498047Q2.19727 1.21094 2.8418 1.86523ZM9.25781-16.3281Q8.94531-16.0254 8.90625-15.6348Q8.86719-15.2441 9.04297-14.9512Q9.21875-14.6777 9.55566-14.541Q9.89258-14.4043 10.3809-14.5215Q11.4746-14.7754 12.5977-14.7314Q13.7207-14.6875 14.7949-13.9844L14.209-12.5293Q13.9551-11.9043 14.0674-11.4404Q14.1797-10.9766 14.5801-10.5664L16.875-8.25195Q17.2363-7.88086 17.5781-7.82227Q17.9199-7.76367 18.3398-7.8418L19.4043-8.03711L20.0684-7.36328L20.0293-6.80664Q20-6.43555 20.1221-6.12305Q20.2441-5.81055 20.6055-5.44922L21.3672-4.70703Q21.7285-4.3457 22.1533-4.33105Q22.5781-4.31641 22.9297-4.66797L25.8398-7.58789Q26.1914-7.93945 26.1816-8.35449Q26.1719-8.76953 25.8105-9.13086L25.0391-9.89258Q24.6875-10.2539 24.3799-10.3857Q24.0723-10.5176 23.7109-10.4883L23.1348-10.4395L22.4902-11.0742L22.7344-12.1973Q22.832-12.6172 22.6953-12.9834Q22.5586-13.3496 22.1191-13.7891L19.9219-15.9766Q18.6719-17.2168 17.2607-17.8369Q15.8496-18.457 14.4189-18.4814Q12.9883-18.5059 11.665-17.959Q10.3418-17.4121 9.25781-16.3281ZM10.752-15.957Q11.6602-16.6211 12.7002-16.9043Q13.7402-17.1875 14.8047-17.085Q15.8691-16.9824 16.8701-16.5137Q17.8711-16.0449 18.7012-15.2051L21.1328-12.793Q21.3086-12.6172 21.3525-12.4512Q21.3965-12.2852 21.3379-12.0312L21.0156-10.5469L22.5195-9.0625L23.5059-9.12109Q23.6914-9.13086 23.7891-9.09668Q23.8867-9.0625 24.0332-8.91602L24.6094-8.33984L22.168-5.89844L21.5918-6.47461Q21.4453-6.62109 21.4062-6.71875Q21.3672-6.81641 21.377-7.01172L21.4453-7.98828L19.9512-9.47266L18.4277-9.21875Q18.1836-9.16992 18.042-9.2041Q17.9004-9.23828 17.7148-9.41406L15.7129-11.416Q15.5176-11.5918 15.4932-11.7529Q15.4688-11.9141 15.5859-12.1875L16.4648-14.2773Q15.293-15.3711 13.8281-15.791Q12.3633-16.2109 10.8398-15.7617Q10.7227-15.7324 10.6885-15.8057Q10.6543-15.8789 10.752-15.957Z"/>
  </g>
  <text style="stroke:none;fill:black;font-family:sans-serif;font-size:13;font-weight:bold;" transform="matrix(1 0 0 1 1289 1953)">Exporting</text>
  <text style="stroke:none;fill:black;font-family:sans-serif;font-size:13;" transform="matrix(1 0 0 1 1289 1971)">Symbols should be outlined when exporting to ensure the</text>
  <text style="stroke:none;fill:black;font-family:sans-serif;font-size:13;" transform="matrix(1 0 0 1 1289 1989)">design is preserved when submitting to Xcode.</text>
  <text id="template-version" style="stroke:none;fill:black;font-family:sans-serif;font-size:13;text-anchor:end;" transform="matrix(1 0 0 1 3036 1933)">Template v.3.0</text>
  <text style="stroke:none;fill:black;font-family:sans-serif;font-size:13;text-anchor:end;" transform="matrix(1 0 0 1 3036 1951)">Requires Xcode 13 or greater</text>
  <text id="descriptive-name" style="stroke:none;fill:black;font-family:sans-serif;font-size:13;text-anchor:end;" transform="matrix(1 0 0 1 3036 1969)">Generated from sun.min</text>
  <text style="stroke:none;fill:black;font-family:sans-serif;font-size:13;text-anchor:end;" transform="matrix(1 0 0 1 3036 1987)">Typeset at 100 points</text>
  <text style="stroke:none;fill:black;font-family:sans-serif;font-size:13;" transform="matrix(1 0 0 1 263 726)">Small</text>
  <text style="stroke:none;fill:black;font-family:sans-serif;font-size:13;" transform="matrix(1 0 0 1 263 1156)">Medium</text>
  <text style="stroke:none;fill:black;font-family:sans-serif;font-size:13;" transform="matrix(1 0 0 1 263 1586)">Large</text>
 </g>
 <g id="Guides">
  <g id="H-reference" style="fill:#27AAE1;stroke:none;" transform="matrix(1 0 0 1 339 696)">
   <path d="M0.993347 0L3.6377 0L29.3282-67.1326L30.0301-67.1326L30.0301-70.459L28.1227-70.459ZM11.6882-24.4797L46.9818-24.4797L46.2311-26.7288L12.4382-26.7288ZM55.1193 0L57.7637 0L30.6381-70.459L29.4327-70.459L29.4327-67.1326Z"/>
  </g>
  <line id="Baseline-S" style="fill:none;stroke:#27AAE1;opacity:1;stroke-width:0.5;" x1="263" x2="3036" y1="696" y2="696"/>
  <line id="Capline-S" style="fill:none;stroke:#27AAE1;opacity:1;stroke-width:0.5;" x1="263" x2="3036" y1="625.541" y2="625.541"/>
  <g id="H-reference" style="fill:#27AAE1;stroke:none;" transform="matrix(1 0 0 1 339 1126)">
   <path d="M0.993347 0L3.6377 0L29.3282-67.1326L30.0301-67.1326L30.0301-70.459L28.1227-70.459ZM11.6882-24.4797L46.9818-24.4797L46.2311-26.7288L12.4382-26.7288ZM55.1193 0L57.7637 0L30.6381-70.459L29.4327-70.459L29.4327-67.1326Z"/>
  </g>
  <line id="Baseline-M" style="fill:none;stroke:#27AAE1;opacity:1;stroke-width:0.5;" x1="263" x2="3036" y1="1126" y2="1126"/>
  <line id="Capline-M" style="fill:none;stroke:#27AAE1;opacity:1;stroke-width:0.5;" x1="263" x2="3036" y1="1055.54" y2="1055.54"/>
  <g id="H-reference" style="fill:#27AAE1;stroke:none;" transform="matrix(1 0 0 1 339 1556)">
   <path d="M0.993347 0L3.6377 0L29.3282-67.1326L30.0301-67.1326L30.0301-70.459L28.1227-70.459ZM11.6882-24.4797L46.9818-24.4797L46.2311-26.7288L12.4382-26.7288ZM55.1193 0L57.7637 0L30.6381-70.459L29.4327-70.459L29.4327-67.1326Z"/>
  </g>
  <line id="Baseline-L" style="fill:none;stroke:#27AAE1;opacity:1;stroke-width:0.5;" x1="263" x2="3036" y1="1556" y2="1556"/>
  <line id="Capline-L" style="fill:none;stroke:#27AAE1;opacity:1;stroke-width:0.5;" x1="263" x2="3036" y1="1485.54" y2="1485.54"/>
  <line id="left-margin-Regular-M" style="fill:none;stroke:#00AEEF;stroke-width:0.5;opacity:1.0;" x1="1392.16" x2="1392.16" y1="1030.79" y2="1150.12"/>
  <line id="right-margin-Regular-M" style="fill:none;stroke:#00AEEF;stroke-width:0.5;opacity:1.0;" x1="1507.53" x2="1507.53" y1="1030.79" y2="1150.12"/>
 </g>
 <g id="Symbols">
  <g id="Black-L" transform="matrix(1 0 0 1 2854.48 1556)">
   <path d="M78.9245 0.499328Q88.7116 0.499328 96.8382-4.36505Q104.965-9.22942 109.829-17.356Q114.693-25.4825 114.693-35.2697Q114.693-45.0569 109.829-53.1834Q104.965-61.31 96.8382-66.1744Q88.7116-71.0387 78.9245-71.0387Q69.1373-71.0387 61.0107-66.1744Q52.8842-61.31 48.0198-53.1834Q43.1554-45.0569 43.1554-35.2697Q43.1554-25.4241 47.9906-17.2976Q52.8258-9.17101 60.9523-4.33584Q69.0789 0.499328 78.9245 0.499328ZM78.9245-18.1846Q74.3-18.1846 70.4105-20.5254Q66.521-22.8663 64.1802-26.7558Q61.8393-30.6452 61.8393-35.2697Q61.8393-39.9526 64.1802-43.8024Q66.521-47.6523 70.4105-50.0035Q74.3-52.3548 78.9245-52.3548Q83.6073-52.3548 87.4676-50.014Q91.3279-47.6731 93.6687-43.8128Q96.0095-39.9526 96.0095-35.2697Q96.0095-30.6452 93.6687-26.7558Q91.3279-22.8663 87.4676-20.5254Q83.6073-18.1846 78.9245-18.1846ZM20.7311-25.7974Q24.6892-25.7974 27.4463-28.5837Q30.2033-31.37 30.2033-35.2697Q30.2033-39.2278 27.4463-41.9849Q24.6892-44.742 20.7311-44.742Q16.8313-44.742 14.0451-41.9849Q11.2588-39.2278 11.2588-35.2697Q11.2588-31.37 14.0451-28.5837Q16.8313-25.7974 20.7311-25.7974ZM37.7732-66.9487Q41.7313-66.9487 44.4884-69.7349Q47.2455-72.5212 47.2455-76.4209Q47.2455-80.3999 44.4884-83.1466Q41.7313-85.8932 37.7732-85.8932Q33.8527-85.8932 31.0768-83.1466Q28.3009-80.3999 28.3009-76.4209Q28.3009-72.5212 31.0768-69.7349Q33.8527-66.9487 37.7732-66.9487ZM78.9245-83.9896Q82.8826-83.9896 85.6397-86.7759Q88.3967-89.5622 88.3967-93.4631Q88.3967-97.4212 85.6397-100.178Q82.8826-102.935 78.9245-102.935Q75.0247-102.935 72.2385-100.178Q69.4522-97.4212 69.4522-93.4631Q69.4522-89.5622 72.2385-86.7759Q75.0247-83.9896 78.9245-83.9896ZM120.076-66.9487Q124.055-66.9487 126.801-69.7349Q129.548-72.5212 129.548-76.4209Q129.548-80.3999 126.801-83.1466Q124.055-85.8932 120.076-85.8932Q116.175-85.8932 113.388-83.1466Q110.602-80.3999 110.602-76.4209Q110.602-72.5212 113.388-69.7349Q116.175-66.9487 120.076-66.9487ZM137.117-25.7974Q141.097-25.7974 143.843-28.5837Q146.59-31.37 146.59-35.2697Q146.59-39.2278 143.843-41.9849Q141.097-44.742 137.117-44.742Q133.217-44.742 130.431-41.9849Q127.644-39.2278 127.644-35.2697Q127.644-31.37 130.431-28.5837Q133.217-25.7974 137.117-25.7974ZM120.076 15.3538Q124.055 15.3538 126.801 12.5779Q129.548 9.80207 129.548 5.88154Q129.548 1.92341 126.801-0.833665Q124.055-3.59074 120.076-3.59074Q116.175-3.59074 113.388-0.833665Q110.602 1.92341 110.602 5.88154Q110.602 9.80207 113.388 12.5779Q116.175 15.3538 120.076 15.3538ZM78.9245 32.396Q82.8826 32.396 85.6397 29.6097Q88.3967 26.8234 88.3967 22.9237Q88.3967 18.9643 85.6397 16.2073Q82.8826 13.4502 78.9245 13.4502Q75.0247 13.4502 72.2385 16.2073Q69.4522 18.9643 69.4522 22.9237Q69.4522 26.8234 72.2385 29.6097Q75.0247 32.396 78.9245 32.396ZM37.7732 15.3538Q41.7313 15.3538 44.4884 12.5779Q47.2455 9.80207 47.2455 5.88154Q47.2455 1.92341 44.4884-0.833665Q41.7313-3.59074 37.7732-3.59074Q33.8527-3.59074 31.0768-0.833665Q28.3009 1.92341 28.3009 5.88154Q28.3009 9.80207 31.0768 12.5779Q33.8527 15.3538 37.7732 15.3538Z"/>
  </g>
  <g id="Heavy-L" transform="matrix(1 0 0 1 2558.9 1556)">
   <path d="M77.79-0.443222Q87.313-0.443222 95.2256-5.18239Q103.138-9.92156 107.877-17.8342Q112.616-25.7467 112.616-35.2697Q112.616-44.7927 107.877-52.7053Q103.138-60.6178 95.2256-65.357Q87.313-70.0962 77.79-70.0962Q68.267-70.0962 60.3545-65.357Q52.4419-60.6178 47.7027-52.7053Q42.9635-44.7927 42.9635-35.2697Q42.9635-25.7021 47.6804-17.7895Q52.3972-9.87694 60.3098-5.16008Q68.2224-0.443222 77.79-0.443222ZM77.79-16.8242Q72.7867-16.8242 68.5867-19.3453Q64.3867-21.8664 61.8656-26.0664Q59.3444-30.2664 59.3444-35.2697Q59.3444-40.3176 61.8656-44.4802Q64.3867-48.6427 68.5867-51.179Q72.7867-53.7152 77.79-53.7152Q82.8379-53.7152 87.0156-51.1941Q91.1933-48.673 93.7144-44.4953Q96.2355-40.3176 96.2355-35.2697Q96.2355-30.2664 93.7144-26.0664Q91.1933-21.8664 87.0156-19.3453Q82.8379-16.8242 77.79-16.8242ZM20.1817-26.3468Q23.8944-26.3468 26.4995-28.9742Q29.1046-31.6016 29.1046-35.2697Q29.1046-38.9824 26.4995-41.5875Q23.8944-44.1926 20.1817-44.1926Q16.5137-44.1926 13.8862-41.5875Q11.2588-38.9824 11.2588-35.2697Q11.2588-31.6016 13.8862-28.9742Q16.5137-26.3468 20.1817-26.3468ZM37.0501-67.0867Q40.7628-67.0867 43.3679-69.7141Q45.9731-72.3415 45.9731-76.0096Q45.9731-79.7524 43.3679-82.3425Q40.7628-84.9325 37.0501-84.9325Q33.3518-84.9325 30.7395-82.3425Q28.1272-79.7524 28.1272-76.0096Q28.1272-72.3415 30.7395-69.7141Q33.3518-67.0867 37.0501-67.0867ZM77.79-83.9495Q81.5027-83.9495 84.1078-86.5769Q86.7129-89.2043 86.7129-92.878Q86.7129-96.5907 84.1078-99.1958Q81.5027-101.801 77.79-101.801Q74.1219-101.801 71.4945-99.1958Q68.8671-96.5907 68.8671-92.878Q68.8671-89.2043 71.4945-86.5769Q74.1219-83.9495 77.79-83.9495ZM118.53-67.0867Q122.273-67.0867 124.863-69.7141Q127.453-72.3415 127.453-76.0096Q127.453-79.7524 124.863-82.3425Q122.273-84.9325 118.53-84.9325Q114.856-84.9325 112.229-82.3425Q109.601-79.7524 109.601-76.0096Q109.601-72.3415 112.229-69.7141Q114.856-67.0867 118.53-67.0867ZM135.393-26.3468Q139.141-26.3468 141.731-28.9742Q144.321-31.6016 144.321-35.2697Q144.321-38.9824 141.731-41.5875Q139.141-44.1926 135.393-44.1926Q131.725-44.1926 129.097-41.5875Q126.47-38.9824 126.47-35.2697Q126.47-31.6016 129.097-28.9742Q131.725-26.3468 135.393-26.3468ZM118.53 14.3931Q122.273 14.3931 124.863 11.7807Q127.453 9.16837 127.453 5.47017Q127.453 1.7575 124.863-0.847628Q122.273-3.45275 118.53-3.45275Q114.856-3.45275 112.229-0.847628Q109.601 1.7575 109.601 5.47017Q109.601 9.16837 112.229 11.7807Q114.856 14.3931 118.53 14.3931ZM77.79 31.2615Q81.5027 31.2615 84.1078 28.6341Q86.7129 26.0066 86.7129 22.3386Q86.7129 18.6202 84.1078 16.0152Q81.5027 13.4101 77.79 13.4101Q74.1219 13.4101 71.4945 16.0152Q68.8671 18.6202 68.8671 22.3386Q68.8671 26.0066 71.4945 28.6341Q74.1219 31.2615 77.79 31.2615ZM37.0501 14.3931Q40.7628 14.3931 43.3679 11.7807Q45.9731 9.16837 45.9731 5.47017Q45.9731 1.7575 43.3679-0.847628Q40.7628-3.45275 37.0501-3.45275Q33.3518-3.45275 30.7395-0.847628Q28.1272 1.7575 28.1272 5.47017Q28.1272 9.16837 30.7395 11.7807Q33.3518 14.3931 37.0501 14.3931Z"/>
  </g>
  <g id="Bold-L" transform="matrix(1 0 0 1 2263.6 1556)">
   <path d="M76.3764-1.62608Q85.569-1.62608 93.2128-6.20779Q100.857-10.7895 105.438-18.4333Q110.02-26.0771 110.02-35.2697Q110.02-44.4623 105.438-52.1061Q100.857-59.7499 93.2128-64.3316Q85.569-68.9133 76.3764-68.9133Q67.1838-68.9133 59.54-64.3316Q51.8962-59.7499 47.3145-52.1061Q42.7328-44.4623 42.7328-35.2697Q42.7328-26.0479 47.2999-18.4041Q51.867-10.7603 59.5108-6.19318Q67.1546-1.62608 76.3764-1.62608ZM76.3764-15.1712Q70.9119-15.1712 66.3351-17.9114Q61.7583-20.6516 59.018-25.2284Q56.2777-29.8051 56.2777-35.2697Q56.2777-40.7635 59.018-45.3066Q61.7583-49.8497 66.3351-52.609Q70.9119-55.3682 76.3764-55.3682Q81.8702-55.3682 86.4324-52.628Q90.9945-49.8878 93.7347-45.3256Q96.4749-40.7635 96.4749-35.2697Q96.4749-29.8051 93.7347-25.2284Q90.9945-20.6516 86.4324-17.9114Q81.8702-15.1712 76.3764-15.1712ZM19.4682-27.0603Q22.8661-27.0603 25.2718-29.4806Q27.6775-31.901 27.6775-35.2697Q27.6775-38.6676 25.2718-41.0734Q22.8661-43.4791 19.4682-43.4791Q16.0994-43.4791 13.6791-41.0734Q11.2588-38.6676 11.2588-35.2697Q11.2588-31.901 13.6791-29.4806Q16.0994-27.0603 19.4682-27.0603ZM36.1288-67.3079Q39.5268-67.3079 41.9325-69.7282Q44.3382-72.1486 44.3382-75.5173Q44.3382-78.9531 41.9325-81.3399Q39.5268-83.7267 36.1288-83.7267Q32.722-83.7267 30.3207-81.3399Q27.9194-78.9531 27.9194-75.5173Q27.9194-72.1486 30.3207-69.7282Q32.722-67.3079 36.1288-67.3079ZM76.3764-83.9555Q79.7744-83.9555 82.1801-86.3757Q84.5858-88.7959 84.5858-92.178Q84.5858-95.5759 82.1801-97.9816Q79.7744-100.387 76.3764-100.387Q73.0077-100.387 70.5874-97.9816Q68.167-95.5759 68.167-92.178Q68.167-88.7959 70.5874-86.3757Q73.0077-83.9555 76.3764-83.9555ZM116.624-67.3079Q120.06-67.3079 122.447-69.7282Q124.833-72.1486 124.833-75.5173Q124.833-78.9531 122.447-81.3399Q120.06-83.7267 116.624-83.7267Q113.242-83.7267 110.822-81.3399Q108.401-78.9531 108.401-75.5173Q108.401-72.1486 110.822-69.7282Q113.242-67.3079 116.624-67.3079ZM133.272-27.0603Q136.721-27.0603 139.107-29.4806Q141.494-31.901 141.494-35.2697Q141.494-38.6676 139.107-41.0734Q136.721-43.4791 133.272-43.4791Q129.903-43.4791 127.482-41.0734Q125.062-38.6676 125.062-35.2697Q125.062-31.901 127.482-29.4806Q129.903-27.0603 133.272-27.0603ZM116.624 13.1873Q120.06 13.1873 122.447 10.7859Q124.833 8.38451 124.833 4.9779Q124.833 1.57995 122.447-0.825765Q120.06-3.23148 116.624-3.23148Q113.242-3.23148 110.822-0.825765Q108.401 1.57995 108.401 4.9779Q108.401 8.38451 110.822 10.7859Q113.242 13.1873 116.624 13.1873ZM76.3764 29.8479Q79.7744 29.8479 82.1801 27.4276Q84.5858 25.0073 84.5858 21.6386Q84.5858 18.2273 82.1801 15.8217Q79.7744 13.4161 76.3764 13.4161Q73.0077 13.4161 70.5874 15.8217Q68.167 18.2273 68.167 21.6386Q68.167 25.0073 70.5874 27.4276Q73.0077 29.8479 76.3764 29.8479ZM36.1288 13.1873Q39.5268 13.1873 41.9325 10.7859Q44.3382 8.38451 44.3382 4.9779Q44.3382 1.57995 41.9325-0.825765Q39.5268-3.23148 36.1288-3.23148Q32.722-3.23148 30.3207-0.825765Q27.9194 1.57995 27.9194 4.9779Q27.9194 8.38451 30.3207 10.7859Q32.722 13.1873 36.1288 13.1873Z"/>
  </g>
  <g id="Semibold-L" transform="matrix(1 0 0 1 1967.86 1556)">
   <path d="M75.4019-2.44154Q84.3668-2.44154 91.8253-6.91469Q99.2838-11.3878 103.757-18.8463Q108.23-26.3048 108.23-35.2697Q108.23-44.2346 103.757-51.6931Q99.2838-59.1516 91.8253-63.6247Q84.3668-68.0979 75.4019-68.0979Q66.437-68.0979 58.9785-63.6247Q51.52-59.1516 47.0469-51.6931Q42.5737-44.2346 42.5737-35.2697Q42.5737-26.2863 47.0376-18.8278Q51.5015-11.3693 58.96-6.9054Q66.4185-2.44154 75.4019-2.44154ZM75.4019-14.0316Q69.6194-14.0316 64.7828-16.9229Q59.9463-19.8141 57.0549-24.6506Q54.1635-29.4872 54.1635-35.2697Q54.1635-41.0708 57.0549-45.8763Q59.9463-50.6818 64.7828-53.5948Q69.6194-56.5078 75.4019-56.5078Q81.203-56.5078 86.0303-53.6165Q90.8575-50.7253 93.7488-45.8981Q96.64-41.0708 96.64-35.2697Q96.64-29.4872 93.7488-24.6506Q90.8575-19.8141 86.0303-16.9229Q81.203-14.0316 75.4019-14.0316ZM18.9763-27.5522Q22.1572-27.5522 24.4255-29.8298Q26.6937-32.1073 26.6937-35.2697Q26.6937-38.4507 24.4255-40.7189Q22.1572-42.9872 18.9763-42.9872Q15.8139-42.9872 13.5363-40.7189Q11.2588-38.4507 11.2588-35.2697Q11.2588-32.1073 13.5363-29.8298Q15.8139-27.5522 18.9763-27.5522ZM35.4937-67.4605Q38.6747-67.4605 40.9429-69.738Q43.2112-72.0155 43.2112-75.1779Q43.2112-78.4021 40.9429-80.6487Q38.6747-82.8954 35.4937-82.8954Q32.2878-82.8954 30.032-80.6487Q27.7762-78.4021 27.7762-75.1779Q27.7762-72.0155 30.032-69.738Q32.2878-67.4605 35.4937-67.4605ZM75.4019-83.9596Q78.5829-83.9596 80.8511-86.237Q83.1194-88.5143 83.1194-91.6954Q83.1194-94.8763 80.8511-97.1446Q78.5829-99.4128 75.4019-99.4128Q72.2395-99.4128 69.962-97.1446Q67.6845-94.8763 67.6845-91.6954Q67.6845-88.5143 69.962-86.237Q72.2395-83.9596 75.4019-83.9596ZM115.31-67.4605Q118.534-67.4605 120.781-69.738Q123.027-72.0155 123.027-75.1779Q123.027-78.4021 120.781-80.6487Q118.534-82.8954 115.31-82.8954Q112.129-82.8954 109.852-80.6487Q107.574-78.4021 107.574-75.1779Q107.574-72.0155 109.852-69.738Q112.129-67.4605 115.31-67.4605ZM131.809-27.5522Q135.052-27.5522 137.299-29.8298Q139.545-32.1073 139.545-35.2697Q139.545-38.4507 137.299-40.7189Q135.052-42.9872 131.809-42.9872Q128.647-42.9872 126.369-40.7189Q124.092-38.4507 124.092-35.2697Q124.092-32.1073 126.369-29.8298Q128.647-27.5522 131.809-27.5522ZM115.31 12.356Q118.534 12.356 120.781 10.1001Q123.027 7.84413 123.027 4.63852Q123.027 1.45756 120.781-0.810692Q118.534-3.07894 115.31-3.07894Q112.129-3.07894 109.852-0.810692Q107.574 1.45756 107.574 4.63852Q107.574 7.84413 109.852 10.1001Q112.129 12.356 115.31 12.356ZM75.4019 28.8734Q78.5829 28.8734 80.8511 26.5959Q83.1194 24.3184 83.1194 21.156Q83.1194 17.9564 80.8511 15.6883Q78.5829 13.4202 75.4019 13.4202Q72.2395 13.4202 69.962 15.6883Q67.6845 17.9564 67.6845 21.156Q67.6845 24.3184 69.962 26.5959Q72.2395 28.8734 75.4019 28.8734ZM35.4937 12.356Q38.6747 12.356 40.9429 10.1001Q43.2112 7.84413 43.2112 4.63852Q43.2112 1.45756 40.9429-0.810692Q38.6747-3.07894 35.4937-3.07894Q32.2878-3.07894 30.032-0.810692Q27.7762 1.45756 27.7762 4.63852Q27.7762 7.84413 30.032 10.1001Q32.2878 12.356 35.4937 12.356Z"/>
  </g>
  <g id="Medium-L" transform="matrix(1 0 0 1 1671.89 1556)">
   <path d="M74.663-3.05985Q83.4552-3.05985 90.7732-7.45069Q98.0912-11.8415 102.482-19.1595Q106.873-26.4775 106.873-35.2697Q106.873-44.0619 102.482-51.3799Q98.0912-58.6979 90.7732-63.0887Q83.4552-67.4796 74.663-67.4796Q65.8708-67.4796 58.5528-63.0887Q51.2348-58.6979 46.844-51.3799Q42.4531-44.0619 42.4531-35.2697Q42.4531-26.467 46.8387-19.149Q51.2243-11.831 58.5423-7.44543Q65.8603-3.05985 74.663-3.05985ZM74.663-13.1676Q68.6393-13.1676 63.6059-16.1733Q58.5724-19.1791 55.5664-24.2126Q52.5605-29.2461 52.5605-35.2697Q52.5605-41.3039 55.5664-46.3083Q58.5724-51.3127 63.6059-54.3423Q68.6393-57.3718 74.663-57.3718Q80.6972-57.3718 85.7254-54.3661Q90.7536-51.3603 93.7594-46.3321Q96.7651-41.3039 96.7651-35.2697Q96.7651-29.2461 93.7594-24.2126Q90.7536-19.1791 85.7254-16.1733Q80.6972-13.1676 74.663-13.1676ZM18.6033-27.9252Q21.6197-27.9252 23.7837-30.0945Q25.9477-32.2638 25.9477-35.2697Q25.9477-38.2861 23.7837-40.4502Q21.6197-42.6142 18.6033-42.6142Q15.5973-42.6142 13.4281-40.4502Q11.2588-38.2861 11.2588-35.2697Q11.2588-32.2638 13.4281-30.0945Q15.5973-27.9252 18.6033-27.9252ZM35.0121-67.5761Q38.0285-67.5761 40.1926-69.7454Q42.3566-71.9147 42.3566-74.9206Q42.3566-77.9843 40.1926-80.1247Q38.0285-82.2651 35.0121-82.2651Q31.9585-82.2651 29.8131-80.1247Q27.6676-77.9843 27.6676-74.9206Q27.6676-71.9147 29.8131-69.7454Q31.9585-67.5761 35.0121-67.5761ZM74.663-83.9627Q77.6794-83.9627 79.8435-86.1318Q82.0075-88.3009 82.0075-91.3294Q82.0075-94.3459 79.8435-96.5099Q77.6794-98.6739 74.663-98.6739Q71.6571-98.6739 69.4878-96.5099Q67.3185-94.3459 67.3185-91.3294Q67.3185-88.3009 69.4878-86.1318Q71.6571-83.9627 74.663-83.9627ZM114.314-67.5761Q117.378-67.5761 119.518-69.7454Q121.658-71.9147 121.658-74.9206Q121.658-77.9843 119.518-80.1247Q117.378-82.2651 114.314-82.2651Q111.285-82.2651 109.116-80.1247Q106.947-77.9843 106.947-74.9206Q106.947-71.9147 109.116-69.7454Q111.285-67.5761 114.314-67.5761ZM130.7-27.9252Q133.787-27.9252 135.927-30.0945Q138.067-32.2638 138.067-35.2697Q138.067-38.2861 135.927-40.4502Q133.787-42.6142 130.7-42.6142Q127.694-42.6142 125.525-40.4502Q123.356-38.2861 123.356-35.2697Q123.356-32.2638 125.525-30.0945Q127.694-27.9252 130.7-27.9252ZM114.314 11.7257Q117.378 11.7257 119.518 9.58002Q121.658 7.43439 121.658 4.38119Q121.658 1.36475 119.518-0.799264Q117.378-2.96328 114.314-2.96328Q111.285-2.96328 109.116-0.799264Q106.947 1.36475 106.947 4.38119Q106.947 7.43439 109.116 9.58002Q111.285 11.7257 114.314 11.7257ZM74.663 28.1345Q77.6794 28.1345 79.8435 25.9652Q82.0075 23.796 82.0075 20.79Q82.0075 17.7509 79.8435 15.5871Q77.6794 13.4233 74.663 13.4233Q71.6571 13.4233 69.4878 15.5871Q67.3185 17.7509 67.3185 20.79Q67.3185 23.796 69.4878 25.9652Q71.6571 28.1345 74.663 28.1345ZM35.0121 11.7257Q38.0285 11.7257 40.1926 9.58002Q42.3566 7.43439 42.3566 4.38119Q42.3566 1.36475 40.1926-0.799264Q38.0285-2.96328 35.0121-2.96328Q31.9585-2.96328 29.8131-0.799264Q27.6676 1.36475 27.6676 4.38119Q27.6676 7.43439 29.8131 9.58002Q31.9585 11.7257 35.0121 11.7257Z"/>
  </g>
  <g id="Regular-L" transform="matrix(1 0 0 1 1376.15 1556)">
   <path d="M73.6992-3.86634Q82.2662-3.86634 89.4009-8.14982Q96.5356-12.4333 100.819-19.568Q105.103-26.7027 105.103-35.2697Q105.103-43.8367 100.819-50.9714Q96.5356-58.1061 89.4009-62.3896Q82.2662-66.6731 73.6992-66.6731Q65.1322-66.6731 57.9975-62.3896Q50.8628-58.1061 46.5793-50.9714Q42.2958-43.8367 42.2958-35.2697Q42.2958-26.7027 46.5793-19.568Q50.8628-12.4333 57.9975-8.14982Q65.1322-3.86634 73.6992-3.86634ZM73.6992-12.0405Q67.3611-12.0405 62.0707-15.1956Q56.7803-18.3508 53.6249-23.6412Q50.4695-28.9316 50.4695-35.2697Q50.4695-41.6078 53.6249-46.8717Q56.7803-52.1356 62.0707-55.3173Q67.3611-58.4989 73.6992-58.4989Q80.0373-58.4989 85.3277-55.3438Q90.6181-52.1886 93.7732-46.8982Q96.9284-41.6078 96.9284-35.2697Q96.9284-28.9316 93.7732-23.6412Q90.6181-18.3508 85.3277-15.1956Q80.0373-12.0405 73.6992-12.0405ZM18.1167-28.4117Q20.9186-28.4117 22.9467-30.4398Q24.9747-32.4679 24.9747-35.2697Q24.9747-38.0716 22.9467-40.0996Q20.9186-42.1277 18.1167-42.1277Q15.3149-42.1277 13.2868-40.0996Q11.2588-38.0716 11.2588-35.2697Q11.2588-32.4679 13.2868-30.4398Q15.3149-28.4117 18.1167-28.4117ZM34.3839-67.727Q37.1858-67.727 39.2138-69.755Q41.2419-71.7831 41.2419-74.585Q41.2419-77.4393 39.2138-79.4411Q37.1858-81.4429 34.3839-81.4429Q31.5291-81.4429 29.5275-79.4411Q27.526-77.4393 27.526-74.585Q27.526-71.7831 29.5275-69.755Q31.5291-67.727 34.3839-67.727ZM73.6992-83.9668Q76.501-83.9668 78.5291-85.9946Q80.5572-88.0224 80.5572-90.8521Q80.5572-93.654 78.5291-95.6821Q76.501-97.7101 73.6992-97.7101Q70.8973-97.7101 68.8693-95.6821Q66.8412-93.654 66.8412-90.8521Q66.8412-88.0224 68.8693-85.9946Q70.8973-83.9668 73.6992-83.9668ZM113.014-67.727Q115.869-67.727 117.87-69.755Q119.872-71.7831 119.872-74.585Q119.872-77.4393 117.87-79.4411Q115.869-81.4429 113.014-81.4429Q110.185-81.4429 108.157-79.4411Q106.129-77.4393 106.129-74.585Q106.129-71.7831 108.157-69.755Q110.185-67.727 113.014-67.727ZM129.254-28.4117Q132.136-28.4117 134.138-30.4398Q136.14-32.4679 136.14-35.2697Q136.14-38.0716 134.138-40.0996Q132.136-42.1277 129.254-42.1277Q126.452-42.1277 124.424-40.0996Q122.396-38.0716 122.396-35.2697Q122.396-32.4679 124.424-30.4398Q126.452-28.4117 129.254-28.4117ZM113.014 10.9035Q115.869 10.9035 117.87 8.90172Q119.872 6.89994 119.872 4.04555Q119.872 1.2437 117.87-0.784357Q115.869-2.81241 113.014-2.81241Q110.185-2.81241 108.157-0.784357Q106.129 1.2437 106.129 4.04555Q106.129 6.89994 108.157 8.90172Q110.185 10.9035 113.014 10.9035ZM73.6992 27.1707Q76.501 27.1707 78.5291 25.1426Q80.5572 23.1146 80.5572 20.3127Q80.5572 17.483 78.5291 15.4552Q76.501 13.4274 73.6992 13.4274Q70.8973 13.4274 68.8693 15.4552Q66.8412 17.483 66.8412 20.3127Q66.8412 23.1146 68.8693 25.1426Q70.8973 27.1707 73.6992 27.1707ZM34.3839 10.9035Q37.1858 10.9035 39.2138 8.90172Q41.2419 6.89994 41.2419 4.04555Q41.2419 1.2437 39.2138-0.784357Q37.1858-2.81241 34.3839-2.81241Q31.5291-2.81241 29.5275-0.784357Q27.526 1.2437 27.526 4.04555Q27.526 6.89994 29.5275 8.90172Q31.5291 10.9035 34.3839 10.9035Z"/>
  </g>
  <g id="Light-L" transform="matrix(1 0 0 1 1080.46 1556)">
   <path d="M72.6686-4.78246Q80.9874-4.78246 87.9122-8.94184Q94.8371-13.1012 98.9965-20.0261Q103.156-26.9509 103.156-35.2697Q103.156-43.5885 98.9965-50.5133Q94.8371-57.4382 87.9122-61.5976Q80.9874-65.7569 72.6686-65.7569Q64.3498-65.7569 57.425-61.5976Q50.5001-57.4382 46.3407-50.5133Q42.1814-43.5885 42.1814-35.2697Q42.1814-26.9509 46.3407-20.0261Q50.5001-13.1012 57.425-8.94184Q64.3498-4.78246 72.6686-4.78246ZM72.6686-11.1055Q66.0634-11.1055 60.5629-14.3846Q55.0625-17.6636 51.7831-23.164Q48.5036-28.6645 48.5036-35.2697Q48.5036-41.8749 51.7831-47.3583Q55.0625-52.8417 60.5629-56.1378Q66.0634-59.4339 72.6686-59.4339Q79.2739-59.4339 84.7743-56.1549Q90.2747-52.8758 93.5538-47.3754Q96.8328-41.8749 96.8328-35.2697Q96.8328-28.6645 93.5538-23.164Q90.2747-17.6636 84.7743-14.3846Q79.2739-11.1055 72.6686-11.1055ZM17.4107-29.1178Q19.9262-29.1178 21.7444-30.936Q23.5625-32.7542 23.5625-35.2697Q23.5625-37.7852 21.7444-39.6034Q19.9262-41.4216 17.4107-41.4216Q14.8952-41.4216 13.077-39.6034Q11.2588-37.7852 11.2588-35.2697Q11.2588-32.7542 13.077-30.936Q14.8952-29.1178 17.4107-29.1178ZM33.5823-68.2041Q36.0978-68.2041 37.916-70.0223Q39.7342-71.8405 39.7342-74.356Q39.7342-76.9048 37.916-78.7063Q36.0978-80.5079 33.5823-80.5079Q31.0327-80.5079 29.2316-78.7063Q27.4304-76.9048 27.4304-74.356Q27.4304-71.8405 29.2316-70.0223Q31.0327-68.2041 33.5823-68.2041ZM72.6686-84.3294Q75.1841-84.3294 77.0023-86.1472Q78.8205-87.965 78.8205-90.5276Q78.8205-93.0431 77.0023-94.8613Q75.1841-96.6795 72.6686-96.6795Q70.1531-96.6795 68.3349-94.8613Q66.5167-93.0431 66.5167-90.5276Q66.5167-87.965 68.3349-86.1472Q70.1531-84.3294 72.6686-84.3294ZM111.755-68.2041Q114.304-68.2041 116.105-70.0223Q117.906-71.8405 117.906-74.356Q117.906-76.9048 116.105-78.7063Q114.304-80.5079 111.755-80.5079Q109.192-80.5079 107.374-78.7063Q105.556-76.9048 105.556-74.356Q105.556-71.8405 107.374-70.0223Q109.192-68.2041 111.755-68.2041ZM127.88-29.1178Q130.476-29.1178 132.277-30.936Q134.078-32.7542 134.078-35.2697Q134.078-37.7852 132.277-39.6034Q130.476-41.4216 127.88-41.4216Q125.364-41.4216 123.546-39.6034Q121.728-37.7852 121.728-35.2697Q121.728-32.7542 123.546-30.936Q125.364-29.1178 127.88-29.1178ZM111.755 9.96848Q114.304 9.96848 116.105 8.16694Q117.906 6.36541 117.906 3.8166Q117.906 1.30109 116.105-0.51709Q114.304-2.33528 111.755-2.33528Q109.192-2.33528 107.374-0.51709Q105.556 1.30109 105.556 3.8166Q105.556 6.36541 107.374 8.16694Q109.192 9.96848 111.755 9.96848ZM72.6686 26.1401Q75.1841 26.1401 77.0023 24.3219Q78.8205 22.5037 78.8205 19.9882Q78.8205 17.4256 77.0023 15.6078Q75.1841 13.79 72.6686 13.79Q70.1531 13.79 68.3349 15.6078Q66.5167 17.4256 66.5167 19.9882Q66.5167 22.5037 68.3349 24.3219Q70.1531 26.1401 72.6686 26.1401ZM33.5823 9.96848Q36.0978 9.96848 37.916 8.16694Q39.7342 6.36541 39.7342 3.8166Q39.7342 1.30109 37.916-0.51709Q36.0978-2.33528 33.5823-2.33528Q31.0327-2.33528 29.2316-0.51709Q27.4304 1.30109 27.4304 3.8166Q27.4304 6.36541 29.2316 8.16694Q31.0327 9.96848 33.5823 9.96848Z"/>
  </g>
  <g id="Thin-L" transform="matrix(1 0 0 1 785.117 1556)">
   <path d="M71.3056-5.99409Q79.2961-5.99409 85.9434-9.98935Q92.5907-13.9846 96.5859-20.6319Q100.581-27.2792 100.581-35.2697Q100.581-43.2602 96.5859-49.9075Q92.5907-56.5548 85.9434-60.5501Q79.2961-64.5453 71.3056-64.5453Q63.315-64.5453 56.6678-60.5501Q50.0205-56.5548 46.0252-49.9075Q42.03-43.2602 42.03-35.2697Q42.03-27.2792 46.0252-20.6319Q50.0205-13.9846 56.6678-9.98935Q63.315-5.99409 71.3056-5.99409ZM71.3056-9.86883Q64.3471-9.86883 58.5689-13.3118Q52.7907-16.7548 49.3471-22.533Q45.9035-28.3112 45.9035-35.2697Q45.9035-42.2282 49.3471-48.0019Q52.7907-53.7756 58.5689-57.2231Q64.3471-60.6706 71.3056-60.6706Q78.2641-60.6706 84.0423-57.2276Q89.8205-53.7846 93.2635-48.0064Q96.7064-42.2282 96.7064-35.2697Q96.7064-28.3112 93.2635-22.533Q89.8205-16.7548 84.0423-13.3118Q78.2641-9.86883 71.3056-9.86883ZM16.4768-30.0517Q18.6136-30.0517 20.1542-31.5923Q21.6948-33.1329 21.6948-35.2697Q21.6948-37.4065 20.1542-38.9471Q18.6136-40.4877 16.4768-40.4877Q14.34-40.4877 12.7994-38.9471Q11.2588-37.4065 11.2588-35.2697Q11.2588-33.1329 12.7994-31.5923Q14.34-30.0517 16.4768-30.0517ZM32.5221-68.8352Q34.6589-68.8352 36.1995-70.3758Q37.7401-71.9164 37.7401-74.0532Q37.7401-76.1978 36.1995-77.7345Q34.6589-79.2712 32.5221-79.2712Q30.3762-79.2712 28.8401-77.7345Q27.304-76.1978 27.304-74.0532Q27.304-71.9164 28.8401-70.3758Q30.3762-68.8352 32.5221-68.8352ZM71.3056-84.8091Q73.4424-84.8091 74.983-86.3491Q76.5236-87.8891 76.5236-90.0985Q76.5236-92.2353 74.983-93.7759Q73.4424-95.3165 71.3056-95.3165Q69.1688-95.3165 67.6282-93.7759Q66.0875-92.2353 66.0875-90.0985Q66.0875-87.8891 67.6282-86.3491Q69.1688-84.8091 71.3056-84.8091ZM110.089-68.8352Q112.234-68.8352 113.77-70.3758Q115.306-71.9164 115.306-74.0532Q115.306-76.1978 113.77-77.7345Q112.234-79.2712 110.089-79.2712Q107.88-79.2712 106.339-77.7345Q104.798-76.1978 104.798-74.0532Q104.798-71.9164 106.339-70.3758Q107.88-68.8352 110.089-68.8352ZM126.063-30.0517Q128.28-30.0517 129.816-31.5923Q131.352-33.1329 131.352-35.2697Q131.352-37.4065 129.816-38.9471Q128.28-40.4877 126.063-40.4877Q123.925-40.4877 122.385-38.9471Q120.845-37.4065 120.845-35.2697Q120.845-33.1329 122.385-31.5923Q123.925-30.0517 126.063-30.0517ZM110.089 8.73182Q112.234 8.73182 113.77 7.19513Q115.306 5.65844 115.306 3.5138Q115.306 1.37701 113.77-0.163609Q112.234-1.70422 110.089-1.70422Q107.88-1.70422 106.339-0.163609Q104.798 1.37701 104.798 3.5138Q104.798 5.65844 106.339 7.19513Q107.88 8.73182 110.089 8.73182ZM71.3056 24.7771Q73.4424 24.7771 74.983 23.2365Q76.5236 21.6958 76.5236 19.5591Q76.5236 17.3497 74.983 15.8097Q73.4424 14.2697 71.3056 14.2697Q69.1688 14.2697 67.6282 15.8097Q66.0875 17.3497 66.0875 19.5591Q66.0875 21.6958 67.6282 23.2365Q69.1688 24.7771 71.3056 24.7771ZM32.5221 8.73182Q34.6589 8.73182 36.1995 7.19513Q37.7401 5.65844 37.7401 3.5138Q37.7401 1.37701 36.1995-0.163609Q34.6589-1.70422 32.5221-1.70422Q30.3762-1.70422 28.8401-0.163609Q27.304 1.37701 27.304 3.5138Q27.304 5.65844 28.8401 7.19513Q30.3762 8.73182 32.5221 8.73182Z"/>
  </g>
  <g id="Ultralight-L" transform="matrix(1 0 0 1 489.104 1556)">
   <path d="M70.6074-6.61468Q78.4298-6.61468 84.9349-10.5259Q91.4401-14.4371 95.3512-20.9422Q99.2624-27.4473 99.2624-35.2697Q99.2624-43.0921 95.3512-49.5972Q91.4401-56.1023 84.9349-60.0135Q78.4298-63.9247 70.6074-63.9247Q62.785-63.9247 56.2799-60.0135Q49.7748-56.1023 45.8636-49.5972Q41.9524-43.0921 41.9524-35.2697Q41.9524-27.4473 45.8636-20.9422Q49.7748-14.4371 56.2799-10.5259Q62.785-6.61468 70.6074-6.61468ZM70.6074-9.23542Q63.468-9.23542 57.5475-12.7624Q51.627-16.2893 48.0994-22.2098Q44.5717-28.1302 44.5717-35.2697Q44.5717-42.4092 48.0994-48.3315Q51.627-54.2539 57.5475-57.7789Q63.468-61.304 70.6074-61.304Q77.7469-61.304 83.6674-57.7771Q89.5878-54.2501 93.1148-48.3296Q96.6417-42.4092 96.6417-35.2697Q96.6417-28.1302 93.1148-22.2098Q89.5878-16.2893 83.6674-12.7624Q77.7469-9.23542 70.6074-9.23542ZM15.9985-30.53Q17.9413-30.53 19.3398-31.9284Q20.7382-33.3269 20.7382-35.2697Q20.7382-37.2125 19.3398-38.611Q17.9413-40.0094 15.9985-40.0094Q14.0557-40.0094 12.6572-38.611Q11.2588-37.2125 11.2588-35.2697Q11.2588-33.3269 12.6572-31.9284Q14.0557-30.53 15.9985-30.53ZM31.979-69.1584Q33.9218-69.1584 35.3203-70.5568Q36.7187-71.9553 36.7187-73.8981Q36.7187-75.8357 35.3203-77.2368Q33.9218-78.6378 31.979-78.6378Q30.04-78.6378 28.6396-77.2368Q27.2393-75.8357 27.2393-73.8981Q27.2393-71.9553 28.6396-70.5568Q30.04-69.1584 31.979-69.1584ZM70.6074-85.0548Q72.5502-85.0548 73.9487-86.4525Q75.3471-87.8502 75.3471-89.8786Q75.3471-91.8214 73.9487-93.2199Q72.5502-94.6183 70.6074-94.6183Q68.6646-94.6183 67.2662-93.2199Q65.8677-91.8214 65.8677-89.8786Q65.8677-87.8502 67.2662-86.4525Q68.6646-85.0548 70.6074-85.0548ZM109.236-69.1584Q111.173-69.1584 112.574-70.5568Q113.974-71.9553 113.974-73.8981Q113.974-75.8357 112.574-77.2368Q111.173-78.6378 109.236-78.6378Q107.207-78.6378 105.809-77.2368Q104.411-75.8357 104.411-73.8981Q104.411-71.9553 105.809-70.5568Q107.207-69.1584 109.236-69.1584ZM125.132-30.53Q127.155-30.53 128.556-31.9284Q129.956-33.3269 129.956-35.2697Q129.956-37.2125 128.556-38.611Q127.155-40.0094 125.132-40.0094Q123.188-40.0094 121.79-38.611Q120.392-37.2125 120.392-35.2697Q120.392-33.3269 121.79-31.9284Q123.188-30.53 125.132-30.53ZM109.236 8.09841Q111.173 8.09841 112.574 6.69738Q113.974 5.29634 113.974 3.3587Q113.974 1.41589 112.574 0.017443Q111.173-1.381 109.236-1.381Q107.207-1.381 105.809 0.017443Q104.411 1.41589 104.411 3.3587Q104.411 5.29634 105.809 6.69738Q107.207 8.09841 109.236 8.09841ZM70.6074 24.0789Q72.5502 24.0789 73.9487 22.6805Q75.3471 21.282 75.3471 19.3392Q75.3471 17.3108 73.9487 15.9131Q72.5502 14.5154 70.6074 14.5154Q68.6646 14.5154 67.2662 15.9131Q65.8677 17.3108 65.8677 19.3392Q65.8677 21.282 67.2662 22.6805Q68.6646 24.0789 70.6074 24.0789ZM31.979 8.09841Q33.9218 8.09841 35.3203 6.69738Q36.7187 5.29634 36.7187 3.3587Q36.7187 1.41589 35.3203 0.017443Q33.9218-1.381 31.979-1.381Q30.04-1.381 28.6396 0.017443Q27.2393 1.41589 27.2393 3.3587Q27.2393 5.29634 28.6396 6.69738Q30.04 8.09841 31.979 8.09841Z"/>
  </g>
  <g id="Black-M" transform="matrix(1 0 0 1 2871.42 1126)">
   <path d="M61.9814-6.86294Q69.7574-6.86294 76.2088-10.7224Q82.6603-14.5818 86.5197-21.0332Q90.3791-27.4847 90.3791-35.2606Q90.3791-43.0366 86.5197-49.488Q82.6603-55.9395 76.2088-59.7989Q69.7574-63.6583 61.9814-63.6583Q54.2055-63.6583 47.754-59.7989Q41.3026-55.9395 37.4432-49.488Q33.5837-43.0366 33.5837-35.2606Q33.5837-27.4276 37.4146-20.9761Q41.2455-14.5247 47.6969-10.6938Q54.1484-6.86294 61.9814-6.86294ZM61.9814-23.0666Q58.6881-23.0666 55.9131-24.742Q53.1382-26.4174 51.4628-29.1923Q49.7874-31.9673 49.7874-35.2606Q49.7874-38.6111 51.4628-41.3548Q53.1382-44.0984 55.9131-45.7765Q58.6881-47.4547 61.9814-47.4547Q65.3319-47.4547 68.0783-45.7793Q70.8247-44.1039 72.5001-41.3575Q74.1754-38.6111 74.1754-35.2606Q74.1754-31.9673 72.5001-29.1923Q70.8247-26.4174 68.0783-24.742Q65.3319-23.0666 61.9814-23.0666ZM16.4377-27.5456Q19.6764-27.5456 21.9145-29.8123Q24.1527-32.0791 24.1527-35.2606Q24.1527-38.4993 21.9145-40.7375Q19.6764-42.9757 16.4377-42.9757Q13.2561-42.9757 10.9894-40.7375Q8.72266-38.4993 8.72266-35.2606Q8.72266-32.0791 10.9894-29.8123Q13.2561-27.5456 16.4377-27.5456ZM29.7773-59.7497Q33.016-59.7497 35.2542-62.0164Q37.4923-64.2832 37.4923-67.4648Q37.4923-70.7089 35.2542-72.9444Q33.016-75.1798 29.7773-75.1798Q26.5902-75.1798 24.3263-72.9444Q22.0623-70.7089 22.0623-67.4648Q22.0623-64.2832 24.3263-62.0164Q26.5902-59.7497 29.7773-59.7497ZM61.9814-73.0896Q65.2201-73.0896 67.4583-75.3564Q69.6965-77.6231 69.6965-80.8044Q69.6965-84.0431 67.4583-86.2812Q65.2201-88.5194 61.9814-88.5194Q58.7998-88.5194 56.5331-86.2812Q54.2664-84.0431 54.2664-80.8044Q54.2664-77.6231 56.5331-75.3564Q58.7998-73.0896 61.9814-73.0896ZM94.1855-59.7497Q97.4297-59.7497 99.6651-62.0164Q101.901-64.2832 101.901-67.4648Q101.901-70.7089 99.6651-72.9444Q97.4297-75.1798 94.1855-75.1798Q91.0042-75.1798 88.7375-72.9444Q86.4708-70.7089 86.4708-67.4648Q86.4708-64.2832 88.7375-62.0164Q91.0042-59.7497 94.1855-59.7497ZM107.525-27.5456Q110.769-27.5456 113.005-29.8123Q115.24-32.0791 115.24-35.2606Q115.24-38.4993 113.005-40.7375Q110.769-42.9757 107.525-42.9757Q104.344-42.9757 102.077-40.7375Q99.8104-38.4993 99.8104-35.2606Q99.8104-32.0791 102.077-29.8123Q104.344-27.5456 107.525-27.5456ZM94.1855 4.6585Q97.4297 4.6585 99.6651 2.39452Q101.901 0.130552 101.901-3.05653Q101.901-6.29522 99.6651-8.53339Q97.4297-10.7716 94.1855-10.7716Q91.0042-10.7716 88.7375-8.53339Q86.4708-6.29522 86.4708-3.05653Q86.4708 0.130552 88.7375 2.39452Q91.0042 4.6585 94.1855 4.6585ZM61.9814 17.9981Q65.2201 17.9981 67.4583 15.7314Q69.6965 13.4647 69.6965 10.2831Q69.6965 7.0447 67.4583 4.80653Q65.2201 2.56835 61.9814 2.56835Q58.7998 2.56835 56.5331 4.80653Q54.2664 7.0447 54.2664 10.2831Q54.2664 13.4647 56.5331 15.7314Q58.7998 17.9981 61.9814 17.9981ZM29.7773 4.6585Q33.016 4.6585 35.2542 2.39452Q37.4923 0.130552 37.4923-3.05653Q37.4923-6.29522 35.2542-8.53339Q33.016-10.7716 29.7773-10.7716Q26.5902-10.7716 24.3263-8.53339Q22.0623-6.29522 22.0623-3.05653Q22.0623 0.130552 24.3263 2.39452Q26.5902 4.6585 29.7773 4.6585Z"/>
  </g>
  <g id="Heavy-M" transform="matrix(1 0 0 1 2575.72 1126)">
   <path d="M60.9675-7.69984Q68.5081-7.69984 74.7697-11.4483Q81.0314-15.1968 84.7798-21.4584Q88.5283-27.7201 88.5283-35.2606Q88.5283-42.8012 84.7798-49.0629Q81.0314-55.3245 74.7697-59.073Q68.5081-62.8215 60.9675-62.8215Q53.4269-62.8215 47.1653-59.073Q40.9037-55.3245 37.1552-49.0629Q33.4067-42.8012 33.4067-35.2606Q33.4067-27.6764 37.1334-21.4148Q40.86-15.1532 47.1217-11.4265Q53.3833-7.69984 60.9675-7.69984ZM60.9675-21.823Q57.3284-21.823 54.2693-23.6632Q51.2102-25.5034 49.37-28.5625Q47.5298-31.6216 47.5298-35.2606Q47.5298-38.9433 49.37-41.9724Q51.2102-45.0015 54.2693-46.8499Q57.3284-48.6983 60.9675-48.6983Q64.6502-48.6983 67.6875-46.8581Q70.7248-45.0179 72.565-41.9806Q74.4052-38.9433 74.4052-35.2606Q74.4052-31.6216 72.565-28.5625Q70.7248-25.5034 67.6875-23.6632Q64.6502-21.823 60.9675-21.823ZM15.9658-28.0175Q18.991-28.0175 21.0999-30.1483Q23.2089-32.2791 23.2089-35.2606Q23.2089-38.2858 21.0999-40.3948Q18.991-42.5038 15.9658-42.5038Q12.9843-42.5038 10.8535-40.3948Q8.72266-38.2858 8.72266-35.2606Q8.72266-32.2791 10.8535-30.1483Q12.9843-28.0175 15.9658-28.0175ZM29.1444-59.8406Q32.1696-59.8406 34.2786-61.9714Q36.3876-64.1022 36.3876-67.0837Q36.3876-70.1253 34.2786-72.2261Q32.1696-74.3269 29.1444-74.3269Q26.1464-74.3269 24.0239-72.2261Q21.9013-70.1253 21.9013-67.0837Q21.9013-64.1022 24.0239-61.9714Q26.1464-59.8406 29.1444-59.8406ZM60.9675-73.017Q63.9927-73.017 66.1017-75.1477Q68.2106-77.2785 68.2106-80.2624Q68.2106-83.2875 66.1017-85.3965Q63.9927-87.5055 60.9675-87.5055Q57.986-87.5055 55.8552-85.3965Q53.7244-83.2875 53.7244-80.2624Q53.7244-77.2785 55.8552-75.1477Q57.986-73.017 60.9675-73.017ZM92.7906-59.8406Q95.8321-59.8406 97.9329-61.9714Q100.034-64.1022 100.034-67.0837Q100.034-70.1253 97.9329-72.2261Q95.8321-74.3269 92.7906-74.3269Q89.8068-74.3269 87.676-72.2261Q85.5452-70.1253 85.5452-67.0837Q85.5452-64.1022 87.676-61.9714Q89.8068-59.8406 92.7906-59.8406ZM105.967-28.0175Q109.011-28.0175 111.112-30.1483Q113.212-32.2791 113.212-35.2606Q113.212-38.2858 111.112-40.3948Q109.011-42.5038 105.967-42.5038Q102.985-42.5038 100.855-40.3948Q98.7238-38.2858 98.7238-35.2606Q98.7238-32.2791 100.855-30.1483Q102.985-28.0175 105.967-28.0175ZM92.7906 3.80559Q95.8321 3.80559 97.9329 1.68298Q100.034-0.439625 100.034-3.43755Q100.034-6.4627 97.9329-8.5717Q95.8321-10.6807 92.7906-10.6807Q89.8068-10.6807 87.676-8.5717Q85.5452-6.4627 85.5452-3.43755Q85.5452-0.439625 87.676 1.68298Q89.8068 3.80559 92.7906 3.80559ZM60.9675 16.9842Q63.9927 16.9842 66.1017 14.8534Q68.2106 12.7226 68.2106 9.74106Q68.2106 6.71362 66.1017 4.60464Q63.9927 2.49566 60.9675 2.49566Q57.986 2.49566 55.8552 4.60464Q53.7244 6.71362 53.7244 9.74106Q53.7244 12.7226 55.8552 14.8534Q57.986 16.9842 60.9675 16.9842ZM29.1444 3.80559Q32.1696 3.80559 34.2786 1.68298Q36.3876-0.439625 36.3876-3.43755Q36.3876-6.4627 34.2786-8.5717Q32.1696-10.6807 29.1444-10.6807Q26.1464-10.6807 24.0239-8.5717Q21.9013-6.4627 21.9013-3.43755Q21.9013-0.439625 24.0239 1.68298Q26.1464 3.80559 29.1444 3.80559Z"/>
  </g>
  <g id="Bold-M" transform="matrix(1 0 0 1 2280.14 1126)">
   <path d="M59.8333-8.63602Q67.1106-8.63602 73.1599-12.2604Q79.2092-15.8848 82.8335-21.9341Q86.4579-27.9834 86.4579-35.2606Q86.4579-42.5379 82.8335-48.5872Q79.2092-54.6365 73.1599-58.2609Q67.1106-61.8853 59.8333-61.8853Q52.556-61.8853 46.5067-58.2609Q40.4574-54.6365 36.833-48.5872Q33.2087-42.5379 33.2087-35.2606Q33.2087-27.9548 36.8188-21.9055Q40.4288-15.8562 46.4781-12.2461Q52.5275-8.63602 59.8333-8.63602ZM59.8333-20.4317Q55.8075-20.4317 52.4305-22.4563Q49.0535-24.4809 47.0289-27.8579Q45.0043-31.2349 45.0043-35.2606Q45.0043-39.315 47.0289-42.6633Q49.0535-46.0117 52.4305-48.0506Q55.8075-50.0895 59.8333-50.0895Q63.8876-50.0895 67.2503-48.065Q70.613-46.0404 72.6376-42.6777Q74.6622-39.315 74.6622-35.2606Q74.6622-31.2349 72.6376-27.8579Q70.613-24.4809 67.2503-22.4563Q63.8876-20.4317 59.8333-20.4317ZM15.4379-28.5454Q18.2242-28.5454 20.1887-30.5241Q22.1532-32.5029 22.1532-35.2606Q22.1532-38.0469 20.1887-40.0114Q18.2242-41.9759 15.4379-41.9759Q12.6802-41.9759 10.7014-40.0114Q8.72266-38.0469 8.72266-35.2606Q8.72266-32.5029 10.7014-30.5241Q12.6802-28.5454 15.4379-28.5454ZM28.4364-59.9423Q31.2227-59.9423 33.1872-61.921Q35.1517-63.8998 35.1517-66.6575Q35.1517-69.4724 33.1872-71.4226Q31.2227-73.3728 28.4364-73.3728Q25.65-73.3728 23.6856-71.4226Q21.7211-69.4724 21.7211-66.6575Q21.7211-63.8998 23.6856-61.921Q25.65-59.9423 28.4364-59.9423ZM59.8333-72.9356Q62.6196-72.9356 64.5841-74.9144Q66.5486-76.8931 66.5486-79.656Q66.5486-82.4423 64.5841-84.4068Q62.6196-86.3713 59.8333-86.3713Q57.0755-86.3713 55.0968-84.4068Q53.118-82.4423 53.118-79.656Q53.118-76.8931 55.0968-74.9144Q57.0755-72.9356 59.8333-72.9356ZM91.2302-59.9423Q94.045-59.9423 95.9952-61.921Q97.9453-63.8998 97.9453-66.6575Q97.9453-69.4724 95.9952-71.4226Q94.045-73.3728 91.2302-73.3728Q88.4672-73.3728 86.4885-71.4226Q84.5097-69.4724 84.5097-66.6575Q84.5097-63.8998 86.4885-61.921Q88.4672-59.9423 91.2302-59.9423ZM104.224-28.5454Q107.044-28.5454 108.994-30.5241Q110.944-32.5029 110.944-35.2606Q110.944-38.0469 108.994-40.0114Q107.044-41.9759 104.224-41.9759Q101.466-41.9759 99.487-40.0114Q97.5083-38.0469 97.5083-35.2606Q97.5083-32.5029 99.487-30.5241Q101.466-28.5454 104.224-28.5454ZM91.2302 2.8515Q94.045 2.8515 95.9952 0.887026Q97.9453-1.07745 97.9453-3.86377Q97.9453-6.65005 95.9952-8.61455Q94.045-10.579 91.2302-10.579Q88.4672-10.579 86.4885-8.61455Q84.5097-6.65005 84.5097-3.86377Q84.5097-1.07745 86.4885 0.887026Q88.4672 2.8515 91.2302 2.8515ZM59.8333 15.85Q62.6196 15.85 64.5841 13.8712Q66.5486 11.8925 66.5486 9.13471Q66.5486 6.34325 64.5841 4.3788Q62.6196 2.41435 59.8333 2.41435Q57.0755 2.41435 55.0968 4.3788Q53.118 6.34325 53.118 9.13471Q53.118 11.8925 55.0968 13.8712Q57.0755 15.85 59.8333 15.85ZM28.4364 2.8515Q31.2227 2.8515 33.1872 0.887026Q35.1517-1.07745 35.1517-3.86377Q35.1517-6.65005 33.1872-8.61455Q31.2227-10.579 28.4364-10.579Q25.65-10.579 23.6856-8.61455Q21.7211-6.65005 21.7211-3.86377Q21.7211-1.07745 23.6856 0.887026Q25.65 2.8515 28.4364 2.8515Z"/>
  </g>
  <g id="Semibold-M" transform="matrix(1 0 0 1 1984.22 1126)">
   <path d="M59.0514-9.28142Q66.1471-9.28142 72.05-12.8202Q77.953-16.359 81.4918-22.262Q85.0306-28.1649 85.0306-35.2606Q85.0306-42.3564 81.4918-48.2593Q77.953-54.1623 72.05-57.7011Q66.1471-61.2399 59.0514-61.2399Q51.9556-61.2399 46.0527-57.7011Q40.1497-54.1623 36.6109-48.2593Q33.0721-42.3564 33.0721-35.2606Q33.0721-28.1467 36.6019-22.2438Q40.1316-16.3409 46.0345-12.8111Q51.9374-9.28142 59.0514-9.28142ZM59.0514-19.4726Q54.759-19.4726 51.1629-21.6243Q47.5667-23.776 45.415-27.3721Q43.2632-30.9683 43.2632-35.2606Q43.2632-39.5712 45.415-43.1397Q47.5667-46.7082 51.1629-48.8784Q54.759-51.0486 59.0514-51.0486Q63.3619-51.0486 66.9489-48.897Q70.536-46.7453 72.6877-43.1582Q74.8394-39.5712 74.8394-35.2606Q74.8394-30.9683 72.6877-27.3721Q70.536-23.776 66.9489-21.6243Q63.3619-19.4726 59.0514-19.4726ZM15.074-28.9093Q17.6956-28.9093 19.5605-30.7832Q21.4254-32.6572 21.4254-35.2606Q21.4254-37.8823 19.5605-39.7471Q17.6956-41.612 15.074-41.612Q12.4706-41.612 10.5966-39.7471Q8.72266-37.8823 8.72266-35.2606Q8.72266-32.6572 10.5966-30.7832Q12.4706-28.9093 15.074-28.9093ZM27.9483-60.0123Q30.5699-60.0123 32.4348-61.8863Q34.2997-63.7602 34.2997-66.3637Q34.2997-69.0223 32.4348-70.8687Q30.5699-72.715 27.9483-72.715Q25.3078-72.715 23.4524-70.8687Q21.597-69.0223 21.597-66.3637Q21.597-63.7602 23.4524-61.8863Q25.3078-60.0123 27.9483-60.0123ZM59.0514-72.8796Q61.673-72.8796 63.5378-74.7535Q65.4027-76.6274 65.4027-79.238Q65.4027-81.8596 63.5378-83.7245Q61.673-85.5893 59.0514-85.5893Q56.4479-85.5893 54.574-83.7245Q52.7-81.8596 52.7-79.238Q52.7-76.6274 54.574-74.7535Q56.4479-72.8796 59.0514-72.8796ZM90.1544-60.0123Q92.813-60.0123 94.6593-61.8863Q96.5056-63.7602 96.5056-66.3637Q96.5056-69.0223 94.6593-70.8687Q92.813-72.715 90.1544-72.715Q87.5438-72.715 85.6698-70.8687Q83.7959-69.0223 83.7959-66.3637Q83.7959-63.7602 85.6698-61.8863Q87.5438-60.0123 90.1544-60.0123ZM103.022-28.9093Q105.687-28.9093 107.534-30.7832Q109.38-32.6572 109.38-35.2606Q109.38-37.8823 107.534-39.7471Q105.687-41.612 103.022-41.612Q100.418-41.612 98.5442-39.7471Q96.6703-37.8823 96.6703-35.2606Q96.6703-32.6572 98.5442-30.7832Q100.418-28.9093 103.022-28.9093ZM90.1544 2.19375Q92.813 2.19375 94.6593 0.338296Q96.5056-1.51716 96.5056-4.1576Q96.5056-6.77921 94.6593-8.64409Q92.813-10.509 90.1544-10.509Q87.5438-10.509 85.6698-8.64409Q83.7959-6.77921 83.7959-4.1576Q83.7959-1.51716 85.6698 0.338296Q87.5438 2.19375 90.1544 2.19375ZM59.0514 15.0681Q61.673 15.0681 63.5378 13.1941Q65.4027 11.3202 65.4027 8.7167Q65.4027 6.08792 63.5378 4.22311Q61.673 2.3583 59.0514 2.3583Q56.4479 2.3583 54.574 4.22311Q52.7 6.08792 52.7 8.7167Q52.7 11.3202 54.574 13.1941Q56.4479 15.0681 59.0514 15.0681ZM27.9483 2.19375Q30.5699 2.19375 32.4348 0.338296Q34.2997-1.51716 34.2997-4.1576Q34.2997-6.77921 32.4348-8.64409Q30.5699-10.509 27.9483-10.509Q25.3078-10.509 23.4524-8.64409Q21.597-6.77921 21.597-4.1576Q21.597-1.51716 23.4524 0.338296Q25.3078 2.19375 27.9483 2.19375Z"/>
  </g>
  <g id="Medium-M" transform="matrix(1 0 0 1 1688.1 1126)">
   <path d="M58.4585-9.77079Q65.4166-9.77079 71.2085-13.2447Q77.0005-16.7186 80.4744-22.5106Q83.9483-28.3025 83.9483-35.2606Q83.9483-42.2188 80.4744-48.0107Q77.0005-53.8026 71.2085-57.2766Q65.4166-60.7505 58.4585-60.7505Q51.5003-60.7505 45.7084-57.2766Q39.9165-53.8026 36.4425-48.0107Q32.9686-42.2188 32.9686-35.2606Q32.9686-28.2922 36.4374-22.5003Q39.9062-16.7084 45.6981-13.2396Q51.4901-9.77079 58.4585-9.77079ZM58.4585-18.7454Q53.9639-18.7454 50.2017-20.9935Q46.4394-23.2416 44.1912-27.0038Q41.9431-30.7661 41.9431-35.2606Q41.9431-39.7655 44.1912-43.5008Q46.4394-47.2362 50.2017-49.5061Q53.9639-51.7759 58.4585-51.7759Q62.9633-51.7759 66.7204-49.5278Q70.4776-47.2797 72.7256-43.5226Q74.9737-39.7655 74.9737-35.2606Q74.9737-30.7661 72.7256-27.0038Q70.4776-23.2416 66.7204-20.9935Q62.9633-18.7454 58.4585-18.7454ZM14.7981-29.1852Q17.2948-29.1852 19.0842-30.9797Q20.8735-32.7742 20.8735-35.2606Q20.8735-37.7574 19.0842-39.5467Q17.2948-41.3361 14.7981-41.3361Q12.3116-41.3361 10.5171-39.5467Q8.72266-37.7574 8.72266-35.2606Q8.72266-32.7742 10.5171-30.9797Q12.3116-29.1852 14.7981-29.1852ZM27.5782-60.0655Q30.075-60.0655 31.8643-61.8599Q33.6536-63.6544 33.6536-66.1409Q33.6536-68.681 31.8643-70.4487Q30.075-72.2163 27.5782-72.2163Q25.0483-72.2163 23.2755-70.4487Q21.5028-68.681 21.5028-66.1409Q21.5028-63.6544 23.2755-61.8599Q25.0483-60.0655 27.5782-60.0655ZM58.4585-72.8371Q60.9552-72.8371 62.7446-74.6315Q64.5339-76.4259 64.5339-78.921Q64.5339-81.4178 62.7446-83.2071Q60.9552-84.9965 58.4585-84.9965Q55.972-84.9965 54.1775-83.2071Q52.383-81.4178 52.383-78.921Q52.383-76.4259 54.1775-74.6315Q55.972-72.8371 58.4585-72.8371ZM89.3387-60.0655Q91.8788-60.0655 93.6464-61.8599Q95.414-63.6544 95.414-66.1409Q95.414-68.681 93.6464-70.4487Q91.8788-72.2163 89.3387-72.2163Q86.8436-72.2163 85.0491-70.4487Q83.2546-68.681 83.2546-66.1409Q83.2546-63.6544 85.0491-61.8599Q86.8436-60.0655 89.3387-60.0655ZM102.11-29.1852Q104.659-29.1852 106.427-30.9797Q108.194-32.7742 108.194-35.2606Q108.194-37.7574 106.427-39.5467Q104.659-41.3361 102.11-41.3361Q99.6237-41.3361 97.8293-39.5467Q96.0349-37.7574 96.0349-35.2606Q96.0349-32.7742 97.8293-30.9797Q99.6237-29.1852 102.11-29.1852ZM89.3387 1.69502Q91.8788 1.69502 93.6464-0.077773Q95.414-1.85057 95.414-4.3804Q95.414-6.87715 93.6464-8.66649Q91.8788-10.4558 89.3387-10.4558Q86.8436-10.4558 85.0491-8.66649Q83.2546-6.87715 83.2546-4.3804Q83.2546-1.85057 85.0491-0.077773Q86.8436 1.69502 89.3387 1.69502ZM58.4585 14.4752Q60.9552 14.4752 62.7446 12.6807Q64.5339 10.8862 64.5339 8.39974Q64.5339 5.89432 62.7446 4.10506Q60.9552 2.3158 58.4585 2.3158Q55.972 2.3158 54.1775 4.10506Q52.383 5.89432 52.383 8.39974Q52.383 10.8862 54.1775 12.6807Q55.972 14.4752 58.4585 14.4752ZM27.5782 1.69502Q30.075 1.69502 31.8643-0.077773Q33.6536-1.85057 33.6536-4.3804Q33.6536-6.87715 31.8643-8.66649Q30.075-10.4558 27.5782-10.4558Q25.0483-10.4558 23.2755-8.66649Q21.5028-6.87715 21.5028-4.3804Q21.5028-1.85057 23.2755-0.077773Q25.0483 1.69502 27.5782 1.69502Z"/>
  </g>
  <g id="Regular-M" transform="matrix(1 0 0 1 1392.16 1126)">
   <path d="M57.6851-10.4091Q64.4637-10.4091 70.1109-13.7984Q75.7581-17.1877 79.1474-22.8349Q82.5367-28.482 82.5367-35.2606Q82.5367-42.0393 79.1474-47.6864Q75.7581-53.3336 70.1109-56.7229Q64.4637-60.1122 57.6851-60.1122Q50.9065-60.1122 45.2594-56.7229Q39.6122-53.3336 36.2229-47.6864Q32.8336-42.0393 32.8336-35.2606Q32.8336-28.482 36.2229-22.8349Q39.6122-17.1877 45.2594-13.7984Q50.9065-10.4091 57.6851-10.4091ZM57.6851-17.7968Q52.9269-17.7968 48.9479-20.1706Q44.9689-22.5444 42.595-26.5234Q40.2212-30.5024 40.2212-35.2606Q40.2212-40.0189 42.595-43.9719Q44.9689-47.925 48.9479-50.3247Q52.9269-52.7244 57.6851-52.7244Q62.4433-52.7244 66.4224-50.3507Q70.4014-47.9769 72.7751-43.9979Q75.1489-40.0189 75.1489-35.2606Q75.1489-30.5024 72.7751-26.5234Q70.4014-22.5444 66.4224-20.1706Q62.4433-17.7968 57.6851-17.7968ZM14.4382-29.5451Q16.7721-29.5451 18.4629-31.2359Q20.1537-32.9268 20.1537-35.2606Q20.1537-37.5945 18.4629-39.2853Q16.7721-40.9762 14.4382-40.9762Q12.1043-40.9762 10.4135-39.2853Q8.72266-37.5945 8.72266-35.2606Q8.72266-32.9268 10.4135-31.2359Q12.1043-29.5451 14.4382-29.5451ZM27.0955-60.1348Q29.4294-60.1348 31.1202-61.8256Q32.811-63.5164 32.811-65.8503Q32.811-68.2358 31.1202-69.9008Q29.4294-71.5658 27.0955-71.5658Q24.7098-71.5658 23.0449-69.9008Q21.38-68.2358 21.38-65.8503Q21.38-63.5164 23.0449-61.8256Q24.7098-60.1348 27.0955-60.1348ZM57.6851-72.7816Q60.019-72.7816 61.7098-74.4724Q63.4006-76.1631 63.4006-78.5076Q63.4006-80.8415 61.7098-82.5323Q60.019-84.2231 57.6851-84.2231Q55.3513-84.2231 53.6604-82.5323Q51.9696-80.8415 51.9696-78.5076Q51.9696-76.1631 53.6604-74.4724Q55.3513-72.7816 57.6851-72.7816ZM88.2748-60.1348Q90.6603-60.1348 92.3252-61.8256Q93.9901-63.5164 93.9901-65.8503Q93.9901-68.2358 92.3252-69.9008Q90.6603-71.5658 88.2748-71.5658Q85.9303-71.5658 84.2394-69.9008Q82.5486-68.2358 82.5486-65.8503Q82.5486-63.5164 84.2394-61.8256Q85.9303-60.1348 88.2748-60.1348ZM100.922-29.5451Q103.318-29.5451 104.983-31.2359Q106.648-32.9268 106.648-35.2606Q106.648-37.5945 104.983-39.2853Q103.318-40.9762 100.922-40.9762Q98.5876-40.9762 96.8969-39.2853Q95.2061-37.5945 95.2061-35.2606Q95.2061-32.9268 96.8969-31.2359Q98.5876-29.5451 100.922-29.5451ZM88.2748 1.04451Q90.6603 1.04451 92.3252-0.620472Q93.9901-2.28545 93.9901-4.671Q93.9901-7.00489 92.3252-8.6957Q90.6603-10.3865 88.2748-10.3865Q85.9303-10.3865 84.2394-8.6957Q82.5486-7.00489 82.5486-4.671Q82.5486-2.28545 84.2394-0.620472Q85.9303 1.04451 88.2748 1.04451ZM57.6851 13.7018Q60.019 13.7018 61.7098 12.011Q63.4006 10.3202 63.4006 7.98633Q63.4006 5.6418 61.7098 3.95108Q60.019 2.26036 57.6851 2.26036Q55.3513 2.26036 53.6604 3.95108Q51.9696 5.6418 51.9696 7.98633Q51.9696 10.3202 53.6604 12.011Q55.3513 13.7018 57.6851 13.7018ZM27.0955 1.04451Q29.4294 1.04451 31.1202-0.620472Q32.811-2.28545 32.811-4.671Q32.811-7.00489 31.1202-8.6957Q29.4294-10.3865 27.0955-10.3865Q24.7098-10.3865 23.0449-8.6957Q21.38-7.00489 21.38-4.671Q21.38-2.28545 23.0449-0.620472Q24.7098 1.04451 27.0955 1.04451Z"/>
  </g>
  <g id="Light-M" transform="matrix(1 0 0 1 1096.37 1126)">
   <path d="M56.7612-11.2304Q63.3173-11.2304 68.7763-14.5085Q74.2353-17.7865 77.5133-23.2455Q80.7914-28.7045 80.7914-35.2606Q80.7914-41.8167 77.5133-47.2757Q74.2353-52.7347 68.7763-56.0128Q63.3173-59.2908 56.7612-59.2908Q50.2051-59.2908 44.7461-56.0128Q39.2871-52.7347 36.009-47.2757Q32.731-41.8167 32.731-35.2606Q32.731-28.7045 36.009-23.2455Q39.2871-17.7865 44.7461-14.5085Q50.2051-11.2304 56.7612-11.2304ZM56.7612-16.9585Q51.7635-16.9585 47.5962-19.4434Q43.4289-21.9283 40.9437-26.0957Q38.4586-30.263 38.4586-35.2606Q38.4586-40.2583 40.9437-44.4082Q43.4289-48.5581 47.5962-51.0604Q51.7635-53.5627 56.7612-53.5627Q61.7588-53.5627 65.9262-51.0778Q70.0935-48.5929 72.5784-44.4256Q75.0633-40.2583 75.0633-35.2606Q75.0633-30.263 72.5784-26.0957Q70.0935-21.9283 65.9262-19.4434Q61.7588-16.9585 56.7612-16.9585ZM13.8051-30.1782Q15.8823-30.1782 17.3849-31.6808Q18.8876-33.1835 18.8876-35.2606Q18.8876-37.3378 17.3849-38.8405Q15.8823-40.3431 13.8051-40.3431Q11.728-40.3431 10.2253-38.8405Q8.72266-37.3378 8.72266-35.2606Q8.72266-33.1835 10.2253-31.6808Q11.728-30.1782 13.8051-30.1782ZM26.3768-60.5626Q28.4539-60.5626 29.9566-62.0652Q31.4593-63.5679 31.4593-65.645Q31.4593-67.7566 29.9566-69.242Q28.4539-70.7275 26.3768-70.7275Q24.2647-70.7275 22.7795-69.242Q21.2943-67.7566 21.2943-65.645Q21.2943-63.5679 22.7795-62.0652Q24.2647-60.5626 26.3768-60.5626ZM56.7612-73.1068Q58.8383-73.1068 60.341-74.6092Q61.8436-76.1116 61.8436-78.2167Q61.8436-80.2938 60.341-81.7965Q58.8383-83.2991 56.7612-83.2991Q54.684-83.2991 53.1813-81.7965Q51.6787-80.2938 51.6787-78.2167Q51.6787-76.1116 53.1813-74.6092Q54.684-73.1068 56.7612-73.1068ZM87.1455-60.5626Q89.2571-60.5626 90.7423-62.0652Q92.2275-63.5679 92.2275-65.645Q92.2275-67.7566 90.7423-69.242Q89.2571-70.7275 87.1455-70.7275Q85.0405-70.7275 83.5378-69.242Q82.0352-67.7566 82.0352-65.645Q82.0352-63.5679 83.5378-62.0652Q85.0405-60.5626 87.1455-60.5626ZM99.6898-30.1782Q101.829-30.1782 103.314-31.6808Q104.8-33.1835 104.8-35.2606Q104.8-37.3378 103.314-38.8405Q101.829-40.3431 99.6898-40.3431Q97.6122-40.3431 96.1097-38.8405Q94.6073-37.3378 94.6073-35.2606Q94.6073-33.1835 96.1097-31.6808Q97.6122-30.1782 99.6898-30.1782ZM87.1455 0.206201Q89.2571 0.206201 90.7423-1.27924Q92.2275-2.76469 92.2275-4.87627Q92.2275-6.95343 90.7423-8.45608Q89.2571-9.95874 87.1455-9.95874Q85.0405-9.95874 83.5378-8.45608Q82.0352-6.95343 82.0352-4.87627Q82.0352-2.76469 83.5378-1.27924Q85.0405 0.206201 87.1455 0.206201ZM56.7612 12.7779Q58.8383 12.7779 60.341 11.2752Q61.8436 9.77255 61.8436 7.69539Q61.8436 5.59034 60.341 4.08792Q58.8383 2.5855 56.7612 2.5855Q54.684 2.5855 53.1813 4.08792Q51.6787 5.59034 51.6787 7.69539Q51.6787 9.77255 53.1813 11.2752Q54.684 12.7779 56.7612 12.7779ZM26.3768 0.206201Q28.4539 0.206201 29.9566-1.27924Q31.4593-2.76469 31.4593-4.87627Q31.4593-6.95343 29.9566-8.45608Q28.4539-9.95874 26.3768-9.95874Q24.2647-9.95874 22.7795-8.45608Q21.2943-6.95343 21.2943-4.87627Q21.2943-2.76469 22.7795-1.27924Q24.2647 0.206201 26.3768 0.206201Z"/>
  </g>
  <g id="Thin-M" transform="matrix(1 0 0 1 800.883 1126)">
   <path d="M55.5391-12.3167Q61.8009-12.3167 67.0111-15.4476Q72.2212-18.5785 75.3521-23.7887Q78.483-28.9988 78.483-35.2606Q78.483-41.5225 75.3521-46.7326Q72.2212-51.9427 67.0111-55.0737Q61.8009-58.2046 55.5391-58.2046Q49.2773-58.2046 44.0672-55.0737Q38.857-51.9427 35.7261-46.7326Q32.5952-41.5225 32.5952-35.2606Q32.5952-28.9988 35.7261-23.7887Q38.857-18.5785 44.0672-15.4476Q49.2773-12.3167 55.5391-12.3167ZM55.5391-15.8498Q50.2247-15.8498 45.8084-18.4817Q41.392-21.1135 38.7597-25.5299Q36.1275-29.9462 36.1275-35.2606Q36.1275-40.5751 38.7597-44.9852Q41.392-49.3953 45.8084-52.0334Q50.2247-54.6715 55.5391-54.6715Q60.8535-54.6715 65.2699-52.0396Q69.6862-49.4078 72.3181-44.9914Q74.95-40.5751 74.95-35.2606Q74.95-29.9462 72.3181-25.5299Q69.6862-21.1135 65.2699-18.4817Q60.8535-15.8498 55.5391-15.8498ZM12.9679-31.0154Q14.7055-31.0154 15.9593-32.2692Q17.2131-33.523 17.2131-35.2606Q17.2131-36.9983 15.9593-38.2521Q14.7055-39.5059 12.9679-39.5059Q11.2303-39.5059 9.97646-38.2521Q8.72266-36.9983 8.72266-35.2606Q8.72266-33.523 9.97646-32.2692Q11.2303-31.0154 12.9679-31.0154ZM25.4262-61.1283Q27.1639-61.1283 28.4177-62.3821Q29.6715-63.6359 29.6715-65.3735Q29.6715-67.1228 28.4177-68.3708Q27.1639-69.6188 25.4262-69.6188Q23.6762-69.6188 22.4286-68.3708Q21.181-67.1228 21.181-65.3735Q21.181-63.6359 22.4286-62.3821Q23.6762-61.1283 25.4262-61.1283ZM55.5391-73.5368Q57.2768-73.5368 58.5306-74.7902Q59.7844-76.0436 59.7844-77.8319Q59.7844-79.5695 58.5306-80.8233Q57.2768-82.0771 55.5391-82.0771Q53.8015-82.0771 52.5477-80.8233Q51.2939-79.5695 51.2939-77.8319Q51.2939-76.0436 52.5477-74.7902Q53.8015-73.5368 55.5391-73.5368ZM85.652-61.1283Q87.4013-61.1283 88.6488-62.3821Q89.8964-63.6359 89.8964-65.3735Q89.8964-67.1228 88.6488-68.3708Q87.4013-69.6188 85.652-69.6188Q83.8637-69.6188 82.6099-68.3708Q81.3561-67.1228 81.3561-65.3735Q81.3561-63.6359 82.6099-62.3821Q83.8637-61.1283 85.652-61.1283ZM98.0605-31.0154Q99.8605-31.0154 101.108-32.2692Q102.356-33.523 102.356-35.2606Q102.356-36.9983 101.108-38.2521Q99.8605-39.5059 98.0605-39.5059Q96.3221-39.5059 95.0687-38.2521Q93.8153-36.9983 93.8153-35.2606Q93.8153-33.523 95.0687-32.2692Q96.3221-31.0154 98.0605-31.0154ZM85.652-0.902524Q87.4013-0.902524 88.6488-2.15052Q89.8964-3.39852 89.8964-5.14775Q89.8964-6.88537 88.6488-8.13917Q87.4013-9.39297 85.652-9.39297Q83.8637-9.39297 82.6099-8.13917Q81.3561-6.88537 81.3561-5.14775Q81.3561-3.39852 82.6099-2.15052Q83.8637-0.902524 85.652-0.902524ZM55.5391 11.5558Q57.2768 11.5558 58.5306 10.302Q59.7844 9.04823 59.7844 7.31061Q59.7844 5.52228 58.5306 4.26891Q57.2768 3.01553 55.5391 3.01553Q53.8015 3.01553 52.5477 4.26891Q51.2939 5.52228 51.2939 7.31061Q51.2939 9.04823 52.5477 10.302Q53.8015 11.5558 55.5391 11.5558ZM25.4262-0.902524Q27.1639-0.902524 28.4177-2.15052Q29.6715-3.39852 29.6715-5.14775Q29.6715-6.88537 28.4177-8.13917Q27.1639-9.39297 25.4262-9.39297Q23.6762-9.39297 22.4286-8.13917Q21.181-6.88537 21.181-5.14775Q21.181-3.39852 22.4286-2.15052Q23.6762-0.902524 25.4262-0.902524Z"/>
  </g>
  <g id="Ultralight-M" transform="matrix(1 0 0 1 504.798 1126)">
   <path d="M54.9132-12.8731Q61.0243-12.8731 66.107-15.9287Q71.1897-18.9842 74.2452-24.0669Q77.3007-29.1496 77.3007-35.2606Q77.3007-41.3717 74.2452-46.4544Q71.1897-51.5371 66.107-54.5926Q61.0243-57.6482 54.9132-57.6482Q48.8021-57.6482 43.7195-54.5926Q38.6368-51.5371 35.5812-46.4544Q32.5257-41.3717 32.5257-35.2606Q32.5257-29.1496 35.5812-24.0669Q38.6368-18.9842 43.7195-15.9287Q48.8021-12.8731 54.9132-12.8731ZM54.9132-15.2819Q49.4366-15.2819 44.8927-17.9891Q40.3488-20.6962 37.6411-25.2401Q34.9335-29.784 34.9335-35.2606Q34.9335-40.7373 37.6411-45.2807Q40.3488-49.8241 44.8927-52.5317Q49.4366-55.2394 54.9132-55.2394Q60.3898-55.2394 64.9338-52.5322Q69.4777-49.8251 72.1848-45.2812Q74.8919-40.7373 74.8919-35.2606Q74.8919-29.784 72.1848-25.2401Q69.4777-20.6962 64.9338-17.9891Q60.3898-15.2819 54.9132-15.2819ZM12.539-31.4443Q14.1028-31.4443 15.2291-32.5706Q16.3554-33.6969 16.3554-35.2606Q16.3554-36.8244 15.2291-37.9507Q14.1028-39.077 12.539-39.077Q10.9753-39.077 9.84899-37.9507Q8.72266-36.8244 8.72266-35.2606Q8.72266-33.6969 9.84899-32.5706Q10.9753-31.4443 12.539-31.4443ZM24.9394-61.4181Q26.5031-61.4181 27.6294-62.5444Q28.7558-63.6708 28.7558-65.2345Q28.7558-66.7981 27.6294-67.9245Q26.5031-69.0509 24.9394-69.0509Q23.3747-69.0509 22.2488-67.9245Q21.123-66.7981 21.123-65.2345Q21.123-63.6708 22.2488-62.5444Q23.3747-61.4181 24.9394-61.4181ZM54.9132-73.7571Q56.4769-73.7571 57.6033-74.8829Q58.7296-76.0087 58.7296-77.6348Q58.7296-79.1985 57.6033-80.3249Q56.4769-81.4512 54.9132-81.4512Q53.3495-81.4512 52.2232-80.3249Q51.0968-79.1985 51.0968-77.6348Q51.0968-76.0087 52.2232-74.8829Q53.3495-73.7571 54.9132-73.7571ZM84.8871-61.4181Q86.4507-61.4181 87.5766-62.5444Q88.7024-63.6708 88.7024-65.2345Q88.7024-66.7981 87.5766-67.9245Q86.4507-69.0509 84.8871-69.0509Q83.261-69.0509 82.1346-67.9245Q81.0083-66.7981 81.0083-65.2345Q81.0083-63.6708 82.1346-62.5444Q83.261-61.4181 84.8871-61.4181ZM97.226-31.4443Q98.8521-31.4443 99.9779-32.5706Q101.104-33.6969 101.104-35.2606Q101.104-36.8244 99.9779-37.9507Q98.8521-39.077 97.226-39.077Q95.6613-39.077 94.5355-37.9507Q93.4096-36.8244 93.4096-35.2606Q93.4096-33.6969 94.5355-32.5706Q95.6613-31.4443 97.226-31.4443ZM84.8871-1.47041Q86.4507-1.47041 87.5766-2.59678Q88.7024-3.72316 88.7024-5.2868Q88.7024-6.85051 87.5766-7.97685Q86.4507-9.10318 84.8871-9.10318Q83.261-9.10318 82.1346-7.97685Q81.0083-6.85051 81.0083-5.2868Q81.0083-3.72316 82.1346-2.59678Q83.261-1.47041 84.8871-1.47041ZM54.9132 10.9299Q56.4769 10.9299 57.6033 9.80357Q58.7296 8.67724 58.7296 7.11352Q58.7296 5.48742 57.6033 4.36161Q56.4769 3.23579 54.9132 3.23579Q53.3495 3.23579 52.2232 4.36161Q51.0968 5.48742 51.0968 7.11352Q51.0968 8.67724 52.2232 9.80357Q53.3495 10.9299 54.9132 10.9299ZM24.9394-1.47041Q26.5031-1.47041 27.6294-2.59678Q28.7558-3.72316 28.7558-5.2868Q28.7558-6.85051 27.6294-7.97685Q26.5031-9.10318 24.9394-9.10318Q23.3747-9.10318 22.2488-7.97685Q21.123-6.85051 21.123-5.2868Q21.123-3.72316 22.2488-2.59678Q23.3747-1.47041 24.9394-1.47041Z"/>
  </g>
  <g id="Black-S" transform="matrix(1 0 0 1 2884.57 696)">
   <path d="M48.8281-12.793Q54.9805-12.793 60.083-15.8447Q65.1855-18.8965 68.2373-23.999Q71.2891-29.1016 71.2891-35.2539Q71.2891-41.4062 68.2373-46.5088Q65.1855-51.6113 60.083-54.6631Q54.9805-57.7148 48.8281-57.7148Q42.6758-57.7148 37.5732-54.6631Q32.4707-51.6113 29.4189-46.5088Q26.3672-41.4062 26.3672-35.2539Q26.3672-29.0527 29.3945-23.9502Q32.4219-18.8477 37.5244-15.8203Q42.627-12.793 48.8281-12.793ZM48.8281-26.0254Q46.3379-26.0254 44.2383-27.2949Q42.1387-28.5645 40.8691-30.6641Q39.5996-32.7637 39.5996-35.2539Q39.5996-37.793 40.8691-39.8682Q42.1387-41.9434 44.2383-43.2129Q46.3379-44.4824 48.8281-44.4824Q51.3672-44.4824 53.4424-43.2129Q55.5176-41.9434 56.7871-39.8682Q58.0566-37.793 58.0566-35.2539Q58.0566-32.7637 56.7871-30.6641Q55.5176-28.5645 53.4424-27.2949Q51.3672-26.0254 48.8281-26.0254ZM12.9883-29.1016Q15.5762-29.1016 17.3584-30.9082Q19.1406-32.7148 19.1406-35.2539Q19.1406-37.8418 17.3584-39.624Q15.5762-41.4062 12.9883-41.4062Q10.4492-41.4062 8.64258-39.624Q6.83594-37.8418 6.83594-35.2539Q6.83594-32.7148 8.64258-30.9082Q10.4492-29.1016 12.9883-29.1016ZM23.4863-54.4434Q26.0742-54.4434 27.8564-56.25Q29.6387-58.0566 29.6387-60.5957Q29.6387-63.1836 27.8564-64.9658Q26.0742-66.748 23.4863-66.748Q20.9473-66.748 19.1406-64.9658Q17.334-63.1836 17.334-60.5957Q17.334-58.0566 19.1406-56.25Q20.9473-54.4434 23.4863-54.4434ZM48.8281-64.9414Q51.416-64.9414 53.1982-66.748Q54.9805-68.5547 54.9805-71.0938Q54.9805-73.6816 53.1982-75.4639Q51.416-77.2461 48.8281-77.2461Q46.2891-77.2461 44.4824-75.4639Q42.6758-73.6816 42.6758-71.0938Q42.6758-68.5547 44.4824-66.748Q46.2891-64.9414 48.8281-64.9414ZM74.1699-54.4434Q76.7578-54.4434 78.54-56.25Q80.3223-58.0566 80.3223-60.5957Q80.3223-63.1836 78.54-64.9658Q76.7578-66.748 74.1699-66.748Q71.6309-66.748 69.8242-64.9658Q68.0176-63.1836 68.0176-60.5957Q68.0176-58.0566 69.8242-56.25Q71.6309-54.4434 74.1699-54.4434ZM84.668-29.1016Q87.2559-29.1016 89.0381-30.9082Q90.8203-32.7148 90.8203-35.2539Q90.8203-37.8418 89.0381-39.624Q87.2559-41.4062 84.668-41.4062Q82.1289-41.4062 80.3223-39.624Q78.5156-37.8418 78.5156-35.2539Q78.5156-32.7148 80.3223-30.9082Q82.1289-29.1016 84.668-29.1016ZM74.1699-3.75977Q76.7578-3.75977 78.54-5.56641Q80.3223-7.37305 80.3223-9.91211Q80.3223-12.5 78.54-14.2822Q76.7578-16.0645 74.1699-16.0645Q71.6309-16.0645 69.8242-14.2822Q68.0176-12.5 68.0176-9.91211Q68.0176-7.37305 69.8242-5.56641Q71.6309-3.75977 74.1699-3.75977ZM48.8281 6.73828Q51.416 6.73828 53.1982 4.93164Q54.9805 3.125 54.9805 0.585938Q54.9805-2.00195 53.1982-3.78418Q51.416-5.56641 48.8281-5.56641Q46.2891-5.56641 44.4824-3.78418Q42.6758-2.00195 42.6758 0.585938Q42.6758 3.125 44.4824 4.93164Q46.2891 6.73828 48.8281 6.73828ZM23.4863-3.75977Q26.0742-3.75977 27.8564-5.56641Q29.6387-7.37305 29.6387-9.91211Q29.6387-12.5 27.8564-14.2822Q26.0742-16.0645 23.4863-16.0645Q20.9473-16.0645 19.1406-14.2822Q17.334-12.5 17.334-9.91211Q17.334-7.37305 19.1406-5.56641Q20.9473-3.75977 23.4863-3.75977Z"/>
  </g>
  <g id="Heavy-S" transform="matrix(1 0 0 1 2588.61 696)">
   <path d="M48.079-13.4038Q54.0585-13.4038 59.0228-16.3749Q63.987-19.3459 66.9581-24.3102Q69.9292-29.2744 69.9292-35.2539Q69.9292-41.2334 66.9581-46.1976Q63.987-51.1619 59.0228-54.133Q54.0585-57.104 48.079-57.104Q42.0996-57.104 37.1353-54.133Q32.1711-51.1619 29.2-46.1976Q26.2289-41.2334 26.2289-35.2539Q26.2289-29.2371 29.1813-24.2729Q32.1338-19.3086 37.098-16.3562Q42.0623-13.4038 48.079-13.4038ZM48.079-25.0689Q45.3237-25.0689 43.0052-26.4652Q40.6866-27.8615 39.2903-30.18Q37.894-32.4986 37.894-35.2539Q37.894-38.0465 39.2903-40.3407Q40.6866-42.6348 43.0052-44.0369Q45.3237-45.439 48.079-45.439Q50.8716-45.439 53.1716-44.0427Q55.4715-42.6464 56.8678-40.3464Q58.2641-38.0465 58.2641-35.2539Q58.2641-32.4986 56.8678-30.18Q55.4715-27.8615 53.1716-26.4652Q50.8716-25.0689 48.079-25.0689ZM12.6656-29.4242Q15.1037-29.4242 16.7995-31.1387Q18.4953-32.8531 18.4953-35.2539Q18.4953-37.692 16.7995-39.3878Q15.1037-41.0836 12.6656-41.0836Q10.2648-41.0836 8.55038-39.3878Q6.83594-37.692 6.83594-35.2539Q6.83594-32.8531 8.55038-31.1387Q10.2648-29.4242 12.6656-29.4242ZM23.0369-54.4664Q25.4749-54.4664 27.1707-56.1809Q28.8665-57.8953 28.8665-60.2961Q28.8665-62.7457 27.1707-64.4357Q25.4749-66.1257 23.0369-66.1257Q20.6246-66.1257 18.9159-64.4357Q17.2072-62.7457 17.2072-60.2961Q17.2072-57.8953 18.9159-56.1809Q20.6246-54.4664 23.0369-54.4664ZM48.079-64.8377Q50.5171-64.8377 52.2129-66.5521Q53.9087-68.2666 53.9087-70.6673Q53.9087-73.1054 52.2129-74.8012Q50.5171-76.497 48.079-76.497Q45.6783-76.497 43.9638-74.8012Q42.2494-73.1054 42.2494-70.6673Q42.2494-68.2666 43.9638-66.5521Q45.6783-64.8377 48.079-64.8377ZM73.1212-54.4664Q75.5708-54.4664 77.2608-56.1809Q78.9509-57.8953 78.9509-60.2961Q78.9509-62.7457 77.2608-64.4357Q75.5708-66.1257 73.1212-66.1257Q70.7204-66.1257 69.006-64.4357Q67.2915-62.7457 67.2915-60.2961Q67.2915-57.8953 69.006-56.1809Q70.7204-54.4664 73.1212-54.4664ZM83.4925-29.4242Q85.9421-29.4242 87.6321-31.1387Q89.3221-32.8531 89.3221-35.2539Q89.3221-37.692 87.6321-39.3878Q85.9421-41.0836 83.4925-41.0836Q81.0917-41.0836 79.3773-39.3878Q77.6628-37.692 77.6628-35.2539Q77.6628-32.8531 79.3773-31.1387Q81.0917-29.4242 83.4925-29.4242ZM73.1212-4.38209Q75.5708-4.38209 77.2608-6.09077Q78.9509-7.79945 78.9509-10.2117Q78.9509-12.6498 77.2608-14.3456Q75.5708-16.0414 73.1212-16.0414Q70.7204-16.0414 69.006-14.3456Q67.2915-12.6498 67.2915-10.2117Q67.2915-7.79945 69.006-6.09077Q70.7204-4.38209 73.1212-4.38209ZM48.079 5.98919Q50.5171 5.98919 52.2129 4.27475Q53.9087 2.5603 53.9087 0.159532Q53.9087-2.27854 52.2129-3.97433Q50.5171-5.67013 48.079-5.67013Q45.6783-5.67013 43.9638-3.97433Q42.2494-2.27854 42.2494 0.159532Q42.2494 2.5603 43.9638 4.27475Q45.6783 5.98919 48.079 5.98919ZM23.0369-4.38209Q25.4749-4.38209 27.1707-6.09077Q28.8665-7.79945 28.8665-10.2117Q28.8665-12.6498 27.1707-14.3456Q25.4749-16.0414 23.0369-16.0414Q20.6246-16.0414 18.9159-14.3456Q17.2072-12.6498 17.2072-10.2117Q17.2072-7.79945 18.9159-6.09077Q20.6246-4.38209 23.0369-4.38209Z"/>
  </g>
  <g id="Bold-S" transform="matrix(1 0 0 1 2292.74 696)">
   <path d="M47.2412-14.0869Q53.0273-14.0869 57.8369-16.9678Q62.6465-19.8486 65.5273-24.6582Q68.4082-29.4678 68.4082-35.2539Q68.4082-41.04 65.5273-45.8496Q62.6465-50.6592 57.8369-53.54Q53.0273-56.4209 47.2412-56.4209Q41.4551-56.4209 36.6455-53.54Q31.8359-50.6592 28.9551-45.8496Q26.0742-41.04 26.0742-35.2539Q26.0742-29.4434 28.9429-24.6338Q31.8115-19.8242 36.6211-16.9556Q41.4307-14.0869 47.2412-14.0869ZM47.2412-23.999Q44.1895-23.999 41.626-25.5371Q39.0625-27.0752 37.5244-29.6387Q35.9863-32.2021 35.9863-35.2539Q35.9863-38.3301 37.5244-40.8691Q39.0625-43.4082 41.626-44.9585Q44.1895-46.5088 47.2412-46.5088Q50.3174-46.5088 52.8687-44.9707Q55.4199-43.4326 56.958-40.8813Q58.4961-38.3301 58.4961-35.2539Q58.4961-32.2021 56.958-29.6387Q55.4199-27.0752 52.8687-25.5371Q50.3174-23.999 47.2412-23.999ZM12.3047-29.7852Q14.5752-29.7852 16.1743-31.3965Q17.7734-33.0078 17.7734-35.2539Q17.7734-37.5244 16.1743-39.1235Q14.5752-40.7227 12.3047-40.7227Q10.0586-40.7227 8.44727-39.1235Q6.83594-37.5244 6.83594-35.2539Q6.83594-33.0078 8.44727-31.3965Q10.0586-29.7852 12.3047-29.7852ZM22.5342-54.4922Q24.8047-54.4922 26.4038-56.1035Q28.0029-57.7148 28.0029-59.9609Q28.0029-62.2559 26.4038-63.8428Q24.8047-65.4297 22.5342-65.4297Q20.2637-65.4297 18.6646-63.8428Q17.0654-62.2559 17.0654-59.9609Q17.0654-57.7148 18.6646-56.1035Q20.2637-54.4922 22.5342-54.4922ZM47.2412-64.7217Q49.5117-64.7217 51.1108-66.333Q52.71-67.9443 52.71-70.1904Q52.71-72.4609 51.1108-74.0601Q49.5117-75.6592 47.2412-75.6592Q44.9951-75.6592 43.3838-74.0601Q41.7725-72.4609 41.7725-70.1904Q41.7725-67.9443 43.3838-66.333Q44.9951-64.7217 47.2412-64.7217ZM71.9482-54.4922Q74.2432-54.4922 75.8301-56.1035Q77.417-57.7148 77.417-59.9609Q77.417-62.2559 75.8301-63.8428Q74.2432-65.4297 71.9482-65.4297Q69.7021-65.4297 68.0908-63.8428Q66.4795-62.2559 66.4795-59.9609Q66.4795-57.7148 68.0908-56.1035Q69.7021-54.4922 71.9482-54.4922ZM82.1777-29.7852Q84.4727-29.7852 86.0596-31.3965Q87.6465-33.0078 87.6465-35.2539Q87.6465-37.5244 86.0596-39.1235Q84.4727-40.7227 82.1777-40.7227Q79.9316-40.7227 78.3203-39.1235Q76.709-37.5244 76.709-35.2539Q76.709-33.0078 78.3203-31.3965Q79.9316-29.7852 82.1777-29.7852ZM71.9482-5.07812Q74.2432-5.07812 75.8301-6.67725Q77.417-8.27637 77.417-10.5469Q77.417-12.8174 75.8301-14.4165Q74.2432-16.0156 71.9482-16.0156Q69.7021-16.0156 68.0908-14.4165Q66.4795-12.8174 66.4795-10.5469Q66.4795-8.27637 68.0908-6.67725Q69.7021-5.07812 71.9482-5.07812ZM47.2412 5.15137Q49.5117 5.15137 51.1108 3.54004Q52.71 1.92871 52.71-0.317383Q52.71-2.58789 51.1108-4.18701Q49.5117-5.78613 47.2412-5.78613Q44.9951-5.78613 43.3838-4.18701Q41.7725-2.58789 41.7725-0.317383Q41.7725 1.92871 43.3838 3.54004Q44.9951 5.15137 47.2412 5.15137ZM22.5342-5.07812Q24.8047-5.07812 26.4038-6.67725Q28.0029-8.27637 28.0029-10.5469Q28.0029-12.8174 26.4038-14.4165Q24.8047-16.0156 22.5342-16.0156Q20.2637-16.0156 18.6646-14.4165Q17.0654-12.8174 17.0654-10.5469Q17.0654-8.27637 18.6646-6.67725Q20.2637-5.07812 22.5342-5.07812Z"/>
  </g>
  <g id="Semibold-S" transform="matrix(1 0 0 1 1996.6 696)">
   <path d="M46.6636-14.5579Q52.3164-14.5579 57.0193-17.3766Q61.7223-20.1952 64.5409-24.8981Q67.3596-29.6011 67.3596-35.2539Q67.3596-40.9067 64.5409-45.6097Q61.7223-50.3126 57.0193-53.1313Q52.3164-55.9499 46.6636-55.9499Q41.0107-55.9499 36.3078-53.1313Q31.6049-50.3126 28.7862-45.6097Q25.9676-40.9067 25.9676-35.2539Q25.9676-29.5855 28.7785-24.8826Q31.5894-20.1797 36.2923-17.3688Q40.9952-14.5579 46.6636-14.5579ZM46.6636-23.2614Q43.4074-23.2614 40.6751-24.8973Q37.9428-26.5331 36.3069-29.2654Q34.6711-31.9978 34.6711-35.2539Q34.6711-38.5256 36.3069-41.2335Q37.9428-43.9414 40.6751-45.5939Q43.4074-47.2464 46.6636-47.2464Q49.9353-47.2464 52.6598-45.6105Q55.3844-43.9747 57.0202-41.2501Q58.6561-38.5256 58.6561-35.2539Q58.6561-31.9978 57.0202-29.2654Q55.3844-26.5331 52.6598-24.8973Q49.9353-23.2614 46.6636-23.2614ZM12.0559-30.034Q14.2108-30.034 15.7433-31.5742Q17.2758-33.1145 17.2758-35.2539Q17.2758-37.4089 15.7433-38.9414Q14.2108-40.4738 12.0559-40.4738Q9.91641-40.4738 8.37617-38.9414Q6.83594-37.4089 6.83594-35.2539Q6.83594-33.1145 8.37617-31.5742Q9.91641-30.034 12.0559-30.034ZM22.1876-54.51Q24.3426-54.51 25.875-56.0502Q27.4075-57.5904 27.4075-59.7299Q27.4075-61.9182 25.875-63.434Q24.3426-64.9498 22.1876-64.9498Q20.0148-64.9498 18.4913-63.434Q16.9677-61.9182 16.9677-59.7299Q16.9677-57.5904 18.4913-56.0502Q20.0148-54.51 22.1876-54.51ZM46.6636-64.6417Q48.8186-64.6417 50.351-66.1819Q51.8835-67.7222 51.8835-69.8616Q51.8835-72.0166 50.351-73.5491Q48.8186-75.0815 46.6636-75.0815Q44.5241-75.0815 42.9839-73.5491Q41.4437-72.0166 41.4437-69.8616Q41.4437-67.7222 42.9839-66.1819Q44.5241-64.6417 46.6636-64.6417ZM71.1396-54.51Q73.3278-54.51 74.8437-56.0502Q76.3595-57.5904 76.3595-59.7299Q76.3595-61.9182 74.8437-63.434Q73.3278-64.9498 71.1396-64.9498Q69.0001-64.9498 67.4599-63.434Q65.9196-61.9182 65.9196-59.7299Q65.9196-57.5904 67.4599-56.0502Q69.0001-54.51 71.1396-54.51ZM81.2713-30.034Q83.4596-30.034 84.9754-31.5742Q86.4912-33.1145 86.4912-35.2539Q86.4912-37.4089 84.9754-38.9414Q83.4596-40.4738 81.2713-40.4738Q79.1318-40.4738 77.5916-38.9414Q76.0514-37.4089 76.0514-35.2539Q76.0514-33.1145 77.5916-31.5742Q79.1318-30.034 81.2713-30.034ZM71.1396-5.55801Q73.3278-5.55801 74.8437-7.08159Q76.3595-8.60518 76.3595-10.7779Q76.3595-12.9329 74.8437-14.4654Q73.3278-15.9979 71.1396-15.9979Q69.0001-15.9979 67.4599-14.4654Q65.9196-12.9329 65.9196-10.7779Q65.9196-8.60518 67.4599-7.08159Q69.0001-5.55801 71.1396-5.55801ZM46.6636 4.57373Q48.8186 4.57373 50.351 3.0335Q51.8835 1.49326 51.8835-0.646191Q51.8835-2.80117 50.351-4.33364Q48.8186-5.86611 46.6636-5.86611Q44.5241-5.86611 42.9839-4.33364Q41.4437-2.80117 41.4437-0.646191Q41.4437 1.49326 42.9839 3.0335Q44.5241 4.57373 46.6636 4.57373ZM22.1876-5.55801Q24.3426-5.55801 25.875-7.08159Q27.4075-8.60518 27.4075-10.7779Q27.4075-12.9329 25.875-14.4654Q24.3426-15.9979 22.1876-15.9979Q20.0148-15.9979 18.4913-14.4654Q16.9677-12.9329 16.9677-10.7779Q16.9677-8.60518 18.4913-7.08159Q20.0148-5.55801 22.1876-5.55801Z"/>
  </g>
  <g id="Medium-S" transform="matrix(1 0 0 1 1700.33 696)">
   <path d="M46.2256-14.915Q51.7773-14.915 56.3994-17.6865Q61.0215-20.458 63.793-25.0801Q66.5645-29.7021 66.5645-35.2539Q66.5645-40.8057 63.793-45.4277Q61.0215-50.0498 56.3994-52.8213Q51.7773-55.5928 46.2256-55.5928Q40.6738-55.5928 36.0518-52.8213Q31.4297-50.0498 28.6582-45.4277Q25.8867-40.8057 25.8867-35.2539Q25.8867-29.6934 28.6538-25.0713Q31.4209-20.4492 36.043-17.6821Q40.665-14.915 46.2256-14.915ZM46.2256-22.7021Q42.8145-22.7021 39.9541-24.4121Q37.0938-26.1221 35.3838-28.9824Q33.6738-31.8428 33.6738-35.2539Q33.6738-38.6738 35.3838-41.5098Q37.0938-44.3457 39.9541-46.0757Q42.8145-47.8057 46.2256-47.8057Q49.6455-47.8057 52.5015-46.0957Q55.3574-44.3857 57.0674-41.5298Q58.7773-38.6738 58.7773-35.2539Q58.7773-31.8428 57.0674-28.9824Q55.3574-26.1221 52.5015-24.4121Q49.6455-22.7021 46.2256-22.7021ZM11.8672-30.2227Q13.9346-30.2227 15.4165-31.709Q16.8984-33.1953 16.8984-35.2539Q16.8984-37.3213 15.4165-38.8032Q13.9346-40.2852 11.8672-40.2852Q9.80859-40.2852 8.32227-38.8032Q6.83594-37.3213 6.83594-35.2539Q6.83594-33.1953 8.32227-31.709Q9.80859-30.2227 11.8672-30.2227ZM21.9248-54.5234Q23.9922-54.5234 25.4741-56.0098Q26.9561-57.4961 26.9561-59.5547Q26.9561-61.6621 25.4741-63.124Q23.9922-64.5859 21.9248-64.5859Q19.8262-64.5859 18.3599-63.124Q16.8936-61.6621 16.8936-59.5547Q16.8936-57.4961 18.3599-56.0098Q19.8262-54.5234 21.9248-54.5234ZM46.2256-64.5811Q48.293-64.5811 49.7749-66.0674Q51.2568-67.5537 51.2568-69.6123Q51.2568-71.6797 49.7749-73.1616Q48.293-74.6436 46.2256-74.6436Q44.167-74.6436 42.6807-73.1616Q41.1943-71.6797 41.1943-69.6123Q41.1943-67.5537 42.6807-66.0674Q44.167-64.5811 46.2256-64.5811ZM70.5264-54.5234Q72.6338-54.5234 74.0957-56.0098Q75.5576-57.4961 75.5576-59.5547Q75.5576-61.6621 74.0957-63.124Q72.6338-64.5859 70.5264-64.5859Q68.4678-64.5859 66.9814-63.124Q65.4951-61.6621 65.4951-59.5547Q65.4951-57.4961 66.9814-56.0098Q68.4678-54.5234 70.5264-54.5234ZM80.584-30.2227Q82.6914-30.2227 84.1533-31.709Q85.6152-33.1953 85.6152-35.2539Q85.6152-37.3213 84.1533-38.8032Q82.6914-40.2852 80.584-40.2852Q78.5254-40.2852 77.0391-38.8032Q75.5527-37.3213 75.5527-35.2539Q75.5527-33.1953 77.0391-31.709Q78.5254-30.2227 80.584-30.2227ZM70.5264-5.92188Q72.6338-5.92188 74.0957-7.38818Q75.5576-8.85449 75.5576-10.9531Q75.5576-13.0205 74.0957-14.5024Q72.6338-15.9844 70.5264-15.9844Q68.4678-15.9844 66.9814-14.5024Q65.4951-13.0205 65.4951-10.9531Q65.4951-8.85449 66.9814-7.38818Q68.4678-5.92188 70.5264-5.92188ZM46.2256 4.13574Q48.293 4.13574 49.7749 2.64941Q51.2568 1.16309 51.2568-0.895508Q51.2568-2.96289 49.7749-4.44482Q48.293-5.92676 46.2256-5.92676Q44.167-5.92676 42.6807-4.44482Q41.1943-2.96289 41.1943-0.895508Q41.1943 1.16309 42.6807 2.64941Q44.167 4.13574 46.2256 4.13574ZM21.9248-5.92188Q23.9922-5.92188 25.4741-7.38818Q26.9561-8.85449 26.9561-10.9531Q26.9561-13.0205 25.4741-14.5024Q23.9922-15.9844 21.9248-15.9844Q19.8262-15.9844 18.3599-14.5024Q16.8936-13.0205 16.8936-10.9531Q16.8936-8.85449 18.3599-7.38818Q19.8262-5.92188 21.9248-5.92188Z"/>
  </g>
  <g id="Regular-S" transform="matrix(1 0 0 1 1404.19 696)">
   <path d="M45.6543-15.3809Q51.0742-15.3809 55.5908-18.0908Q60.1074-20.8008 62.8174-25.3174Q65.5273-29.834 65.5273-35.2539Q65.5273-40.6738 62.8174-45.1904Q60.1074-49.707 55.5908-52.417Q51.0742-55.127 45.6543-55.127Q40.2344-55.127 35.7178-52.417Q31.2012-49.707 28.4912-45.1904Q25.7812-40.6738 25.7812-35.2539Q25.7812-29.834 28.4912-25.3174Q31.2012-20.8008 35.7178-18.0908Q40.2344-15.3809 45.6543-15.3809ZM45.6543-21.9727Q42.041-21.9727 39.0137-23.7793Q35.9863-25.5859 34.1797-28.6133Q32.373-31.6406 32.373-35.2539Q32.373-38.8672 34.1797-41.8701Q35.9863-44.873 39.0137-46.7041Q42.041-48.5352 45.6543-48.5352Q49.2676-48.5352 52.2949-46.7285Q55.3223-44.9219 57.1289-41.8945Q58.9355-38.8672 58.9355-35.2539Q58.9355-31.6406 57.1289-28.6133Q55.3223-25.5859 52.2949-23.7793Q49.2676-21.9727 45.6543-21.9727ZM11.6211-30.4688Q13.5742-30.4688 14.9902-31.8848Q16.4062-33.3008 16.4062-35.2539Q16.4062-37.207 14.9902-38.623Q13.5742-40.0391 11.6211-40.0391Q9.66797-40.0391 8.25195-38.623Q6.83594-37.207 6.83594-35.2539Q6.83594-33.3008 8.25195-31.8848Q9.66797-30.4688 11.6211-30.4688ZM21.582-54.541Q23.5352-54.541 24.9512-55.957Q26.3672-57.373 26.3672-59.3262Q26.3672-61.3281 24.9512-62.7197Q23.5352-64.1113 21.582-64.1113Q19.5801-64.1113 18.1885-62.7197Q16.7969-61.3281 16.7969-59.3262Q16.7969-57.373 18.1885-55.957Q19.5801-54.541 21.582-54.541ZM45.6543-64.502Q47.6074-64.502 49.0234-65.918Q50.4395-67.334 50.4395-69.2871Q50.4395-71.2402 49.0234-72.6562Q47.6074-74.0723 45.6543-74.0723Q43.7012-74.0723 42.2852-72.6562Q40.8691-71.2402 40.8691-69.2871Q40.8691-67.334 42.2852-65.918Q43.7012-64.502 45.6543-64.502ZM69.7266-54.541Q71.7285-54.541 73.1201-55.957Q74.5117-57.373 74.5117-59.3262Q74.5117-61.3281 73.1201-62.7197Q71.7285-64.1113 69.7266-64.1113Q67.7734-64.1113 66.3574-62.7197Q64.9414-61.3281 64.9414-59.3262Q64.9414-57.373 66.3574-55.957Q67.7734-54.541 69.7266-54.541ZM79.6875-30.4688Q81.6895-30.4688 83.0811-31.8848Q84.4727-33.3008 84.4727-35.2539Q84.4727-37.207 83.0811-38.623Q81.6895-40.0391 79.6875-40.0391Q77.7344-40.0391 76.3184-38.623Q74.9023-37.207 74.9023-35.2539Q74.9023-33.3008 76.3184-31.8848Q77.7344-30.4688 79.6875-30.4688ZM69.7266-6.39648Q71.7285-6.39648 73.1201-7.78809Q74.5117-9.17969 74.5117-11.1816Q74.5117-13.1348 73.1201-14.5508Q71.7285-15.9668 69.7266-15.9668Q67.7734-15.9668 66.3574-14.5508Q64.9414-13.1348 64.9414-11.1816Q64.9414-9.17969 66.3574-7.78809Q67.7734-6.39648 69.7266-6.39648ZM45.6543 3.56445Q47.6074 3.56445 49.0234 2.14844Q50.4395 0.732422 50.4395-1.2207Q50.4395-3.17383 49.0234-4.58984Q47.6074-6.00586 45.6543-6.00586Q43.7012-6.00586 42.2852-4.58984Q40.8691-3.17383 40.8691-1.2207Q40.8691 0.732422 42.2852 2.14844Q43.7012 3.56445 45.6543 3.56445ZM21.582-6.39648Q23.5352-6.39648 24.9512-7.78809Q26.3672-9.17969 26.3672-11.1816Q26.3672-13.1348 24.9512-14.5508Q23.5352-15.9668 21.582-15.9668Q19.5801-15.9668 18.1885-14.5508Q16.7969-13.1348 16.7969-11.1816Q16.7969-9.17969 18.1885-7.78809Q19.5801-6.39648 21.582-6.39648Z"/>
  </g>
  <g id="Light-S" transform="matrix(1 0 0 1 1108.3 696)">
   <path d="M44.8369-16.1074Q50.06-16.1074 54.4102-18.719Q58.7603-21.3305 61.3719-25.6807Q63.9834-30.0308 63.9834-35.2539Q63.9834-40.477 61.3719-44.8271Q58.7603-49.1773 54.4102-51.7888Q50.06-54.4004 44.8369-54.4004Q39.6139-54.4004 35.2637-51.7888Q30.9135-49.1773 28.302-44.8271Q25.6905-40.477 25.6905-35.2539Q25.6905-30.0308 28.302-25.6807Q30.9135-21.3305 35.2637-18.719Q39.6139-16.1074 44.8369-16.1074ZM44.8369-21.2311Q41.0118-21.2311 37.8179-23.136Q34.624-25.0409 32.7189-28.2349Q30.8139-31.4288 30.8139-35.2539Q30.8139-39.079 32.7189-42.256Q34.624-45.433 37.8179-47.3549Q41.0118-49.2767 44.8369-49.2767Q48.6621-49.2767 51.856-47.3718Q55.0499-45.4669 56.9548-42.2729Q58.8598-39.079 58.8598-35.2539Q58.8598-31.4288 56.9548-28.2349Q55.0499-25.0409 51.856-23.136Q48.6621-21.2311 44.8369-21.2311ZM11.0611-31.0287Q12.7871-31.0287 14.0367-32.2783Q15.2863-33.5279 15.2863-35.2539Q15.2863-36.9799 14.0367-38.2295Q12.7871-39.4791 11.0611-39.4791Q9.33507-39.4791 8.08551-38.2295Q6.83594-36.9799 6.83594-35.2539Q6.83594-33.5279 8.08551-32.2783Q9.33507-31.0287 11.0611-31.0287ZM20.9462-54.9194Q22.6723-54.9194 23.9218-56.169Q25.1714-57.4186 25.1714-59.1446Q25.1714-60.9042 23.9218-62.137Q22.6723-63.3698 20.9462-63.3698Q19.1864-63.3698 17.9537-62.137Q16.7211-60.9042 16.7211-59.1446Q16.7211-57.4186 17.9537-56.169Q19.1864-54.9194 20.9462-54.9194ZM44.8369-64.7896Q46.563-64.7896 47.8125-66.039Q49.0621-67.2885 49.0621-69.0297Q49.0621-70.7558 47.8125-72.0053Q46.563-73.2549 44.8369-73.2549Q43.1109-73.2549 41.8613-72.0053Q40.6118-70.7558 40.6118-69.0297Q40.6118-67.2885 41.8613-66.039Q43.1109-64.7896 44.8369-64.7896ZM68.7276-54.9194Q70.4872-54.9194 71.7199-56.169Q72.9525-57.4186 72.9525-59.1446Q72.9525-60.9042 71.7199-62.137Q70.4872-63.3698 68.7276-63.3698Q66.9863-63.3698 65.7368-62.137Q64.4872-60.9042 64.4872-59.1446Q64.4872-57.4186 65.7368-56.169Q66.9863-54.9194 68.7276-54.9194ZM78.5978-31.0287Q80.3726-31.0287 81.6053-32.2783Q82.8379-33.5279 82.8379-35.2539Q82.8379-36.9799 81.6053-38.2295Q80.3726-39.4791 78.5978-39.4791Q76.8715-39.4791 75.622-38.2295Q74.3726-36.9799 74.3726-35.2539Q74.3726-33.5279 75.622-32.2783Q76.8715-31.0287 78.5978-31.0287ZM68.7276-7.13806Q70.4872-7.13806 71.7199-8.37084Q72.9525-9.60363 72.9525-11.3632Q72.9525-13.0892 71.7199-14.3388Q70.4872-15.5884 68.7276-15.5884Q66.9863-15.5884 65.7368-14.3388Q64.4872-13.0892 64.4872-11.3632Q64.4872-9.60363 65.7368-8.37084Q66.9863-7.13806 68.7276-7.13806ZM44.8369 2.74709Q46.563 2.74709 47.8125 1.49752Q49.0621 0.247955 49.0621-1.47807Q49.0621-3.21935 47.8125-4.46879Q46.563-5.71823 44.8369-5.71823Q43.1109-5.71823 41.8613-4.46879Q40.6118-3.21935 40.6118-1.47807Q40.6118 0.247955 41.8613 1.49752Q43.1109 2.74709 44.8369 2.74709ZM20.9462-7.13806Q22.6723-7.13806 23.9218-8.37084Q25.1714-9.60363 25.1714-11.3632Q25.1714-13.0892 23.9218-14.3388Q22.6723-15.5884 20.9462-15.5884Q19.1864-15.5884 17.9537-14.3388Q16.7211-13.0892 16.7211-11.3632Q16.7211-9.60363 17.9537-8.37084Q19.1864-7.13806 20.9462-7.13806Z"/>
  </g>
  <g id="Thin-S" transform="matrix(1 0 0 1 812.666 696)">
   <path d="M43.7559-17.0684Q48.7187-17.0684 52.8487-19.5498Q56.9787-22.0311 59.4601-26.1611Q61.9414-30.2912 61.9414-35.2539Q61.9414-40.2167 59.4601-44.3467Q56.9787-48.4767 52.8487-50.9581Q48.7187-53.4394 43.7559-53.4394Q38.7932-53.4394 34.6631-50.9581Q30.5331-48.4767 28.0518-44.3467Q25.5704-40.2167 25.5704-35.2539Q25.5704-30.2912 28.0518-26.1611Q30.5331-22.0311 34.6631-19.5498Q38.7932-17.0684 43.7559-17.0684ZM43.7559-20.2503Q39.6506-20.2503 36.2364-22.2852Q32.8221-24.3201 30.7869-27.7344Q28.7517-31.1486 28.7517-35.2539Q28.7517-39.3592 30.7869-42.7664Q32.8221-46.1737 36.2364-48.2156Q39.6506-50.2575 43.7559-50.2575Q47.8612-50.2575 51.2754-48.2226Q54.6897-46.1877 56.7246-42.7734Q58.7595-39.3592 58.7595-35.2539Q58.7595-31.1486 56.7246-27.7344Q54.6897-24.3201 51.2754-22.2852Q47.8612-20.2503 43.7559-20.2503ZM10.3205-31.7694Q11.7461-31.7694 12.7755-32.7988Q13.805-33.8282 13.805-35.2539Q13.805-36.6796 12.7755-37.709Q11.7461-38.7384 10.3205-38.7384Q8.89479-38.7384 7.86536-37.709Q6.83594-36.6796 6.83594-35.2539Q6.83594-33.8282 7.86536-32.7988Q8.89479-31.7694 10.3205-31.7694ZM20.1054-55.4199Q21.531-55.4199 22.5605-56.4493Q23.5899-57.4788 23.5899-58.9044Q23.5899-60.3435 22.5605-61.3662Q21.531-62.389 20.1054-62.389Q18.6657-62.389 17.6433-61.3662Q16.6209-60.3435 16.6209-58.9044Q16.6209-57.4788 17.6433-56.4493Q18.6657-55.4199 20.1054-55.4199ZM43.7559-65.17Q45.1816-65.17 46.211-66.1991Q47.2404-67.2283 47.2404-68.6894Q47.2404-70.115 46.211-71.1444Q45.1816-72.1739 43.7559-72.1739Q42.3302-72.1739 41.3008-71.1444Q40.2714-70.115 40.2714-68.6894Q40.2714-67.2283 41.3008-66.1991Q42.3302-65.17 43.7559-65.17ZM67.4064-55.4199Q68.8455-55.4199 69.8679-56.4493Q70.8904-57.4788 70.8904-58.9044Q70.8904-60.3435 69.8679-61.3662Q68.8455-62.389 67.4064-62.389Q65.9453-62.389 64.9159-61.3662Q63.8865-60.3435 63.8865-58.9044Q63.8865-57.4788 64.9159-56.4493Q65.9453-55.4199 67.4064-55.4199ZM77.1565-31.7694Q78.631-31.7694 79.6534-32.7988Q80.6759-33.8282 80.6759-35.2539Q80.6759-36.6796 79.6534-37.709Q78.631-38.7384 77.1565-38.7384Q75.7303-38.7384 74.7011-37.709Q73.672-36.6796 73.672-35.2539Q73.672-33.8282 74.7011-32.7988Q75.7303-31.7694 77.1565-31.7694ZM67.4064-8.11886Q68.8455-8.11886 69.8679-9.14159Q70.8904-10.1643 70.8904-11.6034Q70.8904-13.029 69.8679-14.0585Q68.8455-15.0879 67.4064-15.0879Q65.9453-15.0879 64.9159-14.0585Q63.8865-13.029 63.8865-11.6034Q63.8865-10.1643 64.9159-9.14159Q65.9453-8.11886 67.4064-8.11886ZM43.7559 1.66606Q45.1816 1.66606 46.211 0.636636Q47.2404-0.392791 47.2404-1.81845Q47.2404-3.27956 46.211-4.30869Q45.1816-5.33782 43.7559-5.33782Q42.3302-5.33782 41.3008-4.30869Q40.2714-3.27956 40.2714-1.81845Q40.2714-0.392791 41.3008 0.636636Q42.3302 1.66606 43.7559 1.66606ZM20.1054-8.11886Q21.531-8.11886 22.5605-9.14159Q23.5899-10.1643 23.5899-11.6034Q23.5899-13.029 22.5605-14.0585Q21.531-15.0879 20.1054-15.0879Q18.6657-15.0879 17.6433-14.0585Q16.6209-13.029 16.6209-11.6034Q16.6209-10.1643 17.6433-9.14159Q18.6657-8.11886 20.1054-8.11886Z"/>
  </g>
  <g id="Ultralight-S" transform="matrix(1 0 0 1 516.509 696)">
   <path d="M43.2022-17.5606Q48.0316-17.5606 52.0489-19.9753Q56.0661-22.39 58.4808-26.4072Q60.8955-30.4245 60.8955-35.2539Q60.8955-40.0833 58.4808-44.1006Q56.0661-48.1178 52.0489-50.5325Q48.0316-52.9472 43.2022-52.9472Q38.3728-52.9472 34.3555-50.5325Q30.3383-48.1178 27.9236-44.1006Q25.5089-40.0833 25.5089-35.2539Q25.5089-30.4245 27.9236-26.4072Q30.3383-22.39 34.3555-19.9753Q38.3728-17.5606 43.2022-17.5606ZM43.2022-19.7479Q38.9534-19.7479 35.4263-21.8494Q31.8993-23.951 29.7974-27.478Q27.6955-31.0051 27.6955-35.2539Q27.6955-39.5027 29.7974-43.0279Q31.8993-46.553 35.4263-48.6565Q38.9534-50.7599 43.2022-50.7599Q47.451-50.7599 50.9781-48.6584Q54.5052-46.5569 56.6067-43.0298Q58.7082-39.5027 58.7082-35.2539Q58.7082-31.0051 56.6067-27.478Q54.5052-23.951 50.9781-21.8494Q47.451-19.7479 43.2022-19.7479ZM9.9411-32.1487Q11.2129-32.1487 12.1296-33.0654Q13.0463-33.9821 13.0463-35.2539Q13.0463-36.5257 12.1296-37.4424Q11.2129-38.3591 9.9411-38.3591Q8.66928-38.3591 7.75261-37.4424Q6.83594-36.5257 6.83594-35.2539Q6.83594-33.9821 7.75261-33.0654Q8.66928-32.1487 9.9411-32.1487ZM19.6747-55.6763Q20.9465-55.6763 21.8632-56.5929Q22.7798-57.5096 22.7798-58.7814Q22.7798-60.0563 21.8632-60.9715Q20.9465-61.8866 19.6747-61.8866Q18.399-61.8866 17.4843-60.9715Q16.5695-60.0563 16.5695-58.7814Q16.5695-57.5096 17.4843-56.5929Q18.399-55.6763 19.6747-55.6763ZM43.2022-65.3648Q44.474-65.3648 45.3907-66.2811Q46.3074-67.1974 46.3074-68.515Q46.3074-69.7868 45.3907-70.7035Q44.474-71.6202 43.2022-71.6202Q41.9304-71.6202 41.0137-70.7035Q40.097-69.7868 40.097-68.515Q40.097-67.1974 41.0137-66.2811Q41.9304-65.3648 43.2022-65.3648ZM66.7297-55.6763Q68.0046-55.6763 68.9194-56.5929Q69.8341-57.5096 69.8341-58.7814Q69.8341-60.0563 68.9194-60.9715Q68.0046-61.8866 66.7297-61.8866Q65.4121-61.8866 64.4955-60.9715Q63.5788-60.0563 63.5788-58.7814Q63.5788-57.5096 64.4955-56.5929Q65.4121-55.6763 66.7297-55.6763ZM76.4183-32.1487Q77.739-32.1487 78.6537-33.0654Q79.5685-33.9821 79.5685-35.2539Q79.5685-36.5257 78.6537-37.4424Q77.739-38.3591 76.4183-38.3591Q75.1457-38.3591 74.2294-37.4424Q73.3131-36.5257 73.3131-35.2539Q73.3131-33.9821 74.2294-33.0654Q75.1457-32.1487 76.4183-32.1487ZM66.7297-8.62122Q68.0046-8.62122 68.9194-9.53636Q69.8341-10.4515 69.8341-11.7264Q69.8341-12.9982 68.9194-13.9149Q68.0046-14.8315 66.7297-14.8315Q65.4121-14.8315 64.4955-13.9149Q63.5788-12.9982 63.5788-11.7264Q63.5788-10.4515 64.4955-9.53636Q65.4121-8.62122 66.7297-8.62122ZM43.2022 1.11237Q44.474 1.11237 45.3907 0.195694Q46.3074-0.720978 46.3074-1.9928Q46.3074-3.31039 45.3907-4.22668Q44.474-5.14297 43.2022-5.14297Q41.9304-5.14297 41.0137-4.22668Q40.097-3.31039 40.097-1.9928Q40.097-0.720978 41.0137 0.195694Q41.9304 1.11237 43.2022 1.11237ZM19.6747-8.62122Q20.9465-8.62122 21.8632-9.53636Q22.7798-10.4515 22.7798-11.7264Q22.7798-12.9982 21.8632-13.9149Q20.9465-14.8315 19.6747-14.8315Q18.399-14.8315 17.4843-13.9149Q16.5695-12.9982 16.5695-11.7264Q16.5695-10.4515 17.4843-9.53636Q18.399-8.62122 19.6747-8.62122Z"/>
  </g>
 </g>
</svg>
