<?xml version="1.0" encoding="UTF-8"?>
<!--Generator: Apple Native CoreSVG 175-->
<!DOCTYPE svg
PUBLIC "-//W3C//DTD SVG 1.1//EN"
       "http://www.w3.org/Graphics/SVG/1.1/DTD/svg11.dtd">
<svg version="1.1" xmlns="http://www.w3.org/2000/svg" xmlns:xlink="http://www.w3.org/1999/xlink" width="3300" height="2200">
 <!--glyph: "uni1001AB.medium", point size: 100.0, font version: "17.1d1e1", template writer version: "65.1"-->
 <g id="Notes">
  <rect height="2200" id="artboard" style="fill:white;opacity:1" width="3300" x="0" y="0"/>
  <line style="fill:none;stroke:black;opacity:1;stroke-width:0.5;" x1="263" x2="3036" y1="292" y2="292"/>
  <text style="stroke:none;fill:black;font-family:sans-serif;font-size:13;font-weight:bold;" transform="matrix(1 0 0 1 263 322)">Weight/Scale Variations</text>
  <text style="stroke:none;fill:black;font-family:sans-serif;font-size:13;text-anchor:middle;" transform="matrix(1 0 0 1 559.711 322)">Ultralight</text>
  <text style="stroke:none;fill:black;font-family:sans-serif;font-size:13;text-anchor:middle;" transform="matrix(1 0 0 1 856.422 322)">Thin</text>
  <text style="stroke:none;fill:black;font-family:sans-serif;font-size:13;text-anchor:middle;" transform="matrix(1 0 0 1 1153.13 322)">Light</text>
  <text style="stroke:none;fill:black;font-family:sans-serif;font-size:13;text-anchor:middle;" transform="matrix(1 0 0 1 1449.84 322)">Regular</text>
  <text style="stroke:none;fill:black;font-family:sans-serif;font-size:13;text-anchor:middle;" transform="matrix(1 0 0 1 1746.56 322)">Medium</text>
  <text style="stroke:none;fill:black;font-family:sans-serif;font-size:13;text-anchor:middle;" transform="matrix(1 0 0 1 2043.27 322)">Semibold</text>
  <text style="stroke:none;fill:black;font-family:sans-serif;font-size:13;text-anchor:middle;" transform="matrix(1 0 0 1 2339.98 322)">Bold</text>
  <text style="stroke:none;fill:black;font-family:sans-serif;font-size:13;text-anchor:middle;" transform="matrix(1 0 0 1 2636.69 322)">Heavy</text>
  <text style="stroke:none;fill:black;font-family:sans-serif;font-size:13;text-anchor:middle;" transform="matrix(1 0 0 1 2933.4 322)">Black</text>
  <line style="fill:none;stroke:black;opacity:1;stroke-width:0.5;" x1="263" x2="3036" y1="1903" y2="1903"/>
  <g transform="matrix(1 0 0 1 263 1933)">
   <path d="M9.24805 0.830078Q10.8691 0.830078 12.2949 0.214844Q13.7207-0.400391 14.8096-1.49414Q15.8984-2.58789 16.5186-4.01367Q17.1387-5.43945 17.1387-7.05078Q17.1387-8.66211 16.5186-10.0879Q15.8984-11.5137 14.8047-12.6074Q13.7109-13.7012 12.2852-14.3164Q10.8594-14.9316 9.23828-14.9316Q7.62695-14.9316 6.20117-14.3164Q4.77539-13.7012 3.69141-12.6074Q2.60742-11.5137 1.9873-10.0879Q1.36719-8.66211 1.36719-7.05078Q1.36719-5.43945 1.9873-4.01367Q2.60742-2.58789 3.69629-1.49414Q4.78516-0.400391 6.21094 0.214844Q7.63672 0.830078 9.24805 0.830078ZM9.24805-0.654297Q7.91992-0.654297 6.7627-1.14746Q5.60547-1.64062 4.73145-2.51953Q3.85742-3.39844 3.36426-4.56055Q2.87109-5.72266 2.87109-7.05078Q2.87109-8.37891 3.35938-9.54102Q3.84766-10.7031 4.72168-11.582Q5.5957-12.4609 6.75293-12.9541Q7.91016-13.4473 9.23828-13.4473Q10.5762-13.4473 11.7334-12.9541Q12.8906-12.4609 13.7695-11.582Q14.6484-10.7031 15.1465-9.54102Q15.6445-8.37891 15.6445-7.05078Q15.6445-5.72266 15.1514-4.56055Q14.6582-3.39844 13.7842-2.51953Q12.9102-1.64062 11.748-1.14746Q10.5859-0.654297 9.24805-0.654297ZM5.6543-7.05078Q5.6543-6.72852 5.85938-6.52832Q6.06445-6.32812 6.40625-6.32812L8.51562-6.32812L8.51562-4.20898Q8.51562-3.88672 8.71094-3.67676Q8.90625-3.4668 9.23828-3.4668Q9.56055-3.4668 9.77051-3.67676Q9.98047-3.88672 9.98047-4.20898L9.98047-6.32812L12.0898-6.32812Q12.4219-6.32812 12.627-6.52832Q12.832-6.72852 12.832-7.05078Q12.832-7.38281 12.627-7.58789Q12.4219-7.79297 12.0898-7.79297L9.98047-7.79297L9.98047-9.90234Q9.98047-10.2344 9.77051-10.4443Q9.56055-10.6543 9.23828-10.6543Q8.90625-10.6543 8.71094-10.4443Q8.51562-10.2344 8.51562-9.90234L8.51562-7.79297L6.40625-7.79297Q6.06445-7.79297 5.85938-7.58789Q5.6543-7.38281 5.6543-7.05078Z"/>
  </g>
  <g transform="matrix(1 0 0 1 281.867 1933)">
   <path d="M11.709 2.91016Q13.75 2.91016 15.5518 2.12891Q17.3535 1.34766 18.7305-0.0292969Q20.1074-1.40625 20.8887-3.20801Q21.6699-5.00977 21.6699-7.05078Q21.6699-9.0918 20.8887-10.8936Q20.1074-12.6953 18.7305-14.0723Q17.3535-15.4492 15.5469-16.2305Q13.7402-17.0117 11.6992-17.0117Q9.6582-17.0117 7.85645-16.2305Q6.05469-15.4492 4.68262-14.0723Q3.31055-12.6953 2.5293-10.8936Q1.74805-9.0918 1.74805-7.05078Q1.74805-5.00977 2.5293-3.20801Q3.31055-1.40625 4.6875-0.0292969Q6.06445 1.34766 7.86621 2.12891Q9.66797 2.91016 11.709 2.91016ZM11.709 1.25Q9.98047 1.25 8.47656 0.605469Q6.97266-0.0390625 5.83496-1.17676Q4.69727-2.31445 4.05762-3.81836Q3.41797-5.32227 3.41797-7.05078Q3.41797-8.7793 4.05762-10.2832Q4.69727-11.7871 5.83008-12.9297Q6.96289-14.0723 8.4668-14.7119Q9.9707-15.3516 11.6992-15.3516Q13.4277-15.3516 14.9316-14.7119Q16.4355-14.0723 17.5781-12.9297Q18.7207-11.7871 19.3652-10.2832Q20.0098-8.7793 20.0098-7.05078Q20.0098-5.32227 19.3701-3.81836Q18.7305-2.31445 17.5928-1.17676Q16.4551-0.0390625 14.9463 0.605469Q13.4375 1.25 11.709 1.25ZM7.17773-7.05078Q7.17773-6.69922 7.41211-6.47461Q7.64648-6.25 8.01758-6.25L10.8887-6.25L10.8887-3.36914Q10.8887-2.99805 11.1133-2.76855Q11.3379-2.53906 11.6895-2.53906Q12.0605-2.53906 12.29-2.76855Q12.5195-2.99805 12.5195-3.36914L12.5195-6.25L15.4004-6.25Q15.7715-6.25 16.001-6.47461Q16.2305-6.69922 16.2305-7.05078Q16.2305-7.42188 16.001-7.65137Q15.7715-7.88086 15.4004-7.88086L12.5195-7.88086L12.5195-10.752Q12.5195-11.1328 12.29-11.3623Q12.0605-11.5918 11.6895-11.5918Q11.3379-11.5918 11.1133-11.3574Q10.8887-11.123 10.8887-10.752L10.8887-7.88086L8.01758-7.88086Q7.63672-7.88086 7.40723-7.65137Q7.17773-7.42188 7.17773-7.05078Z"/>
  </g>
  <g transform="matrix(1 0 0 1 305.646 1933)">
   <path d="M14.9707 5.66406Q17.0605 5.66406 18.96 5.01465Q20.8594 4.36523 22.4512 3.19336Q24.043 2.02148 25.2197 0.429688Q26.3965-1.16211 27.0459-3.06641Q27.6953-4.9707 27.6953-7.05078Q27.6953-9.14062 27.0459-11.04Q26.3965-12.9395 25.2197-14.5312Q24.043-16.123 22.4512-17.2998Q20.8594-18.4766 18.9551-19.126Q17.0508-19.7754 14.9609-19.7754Q12.8711-19.7754 10.9717-19.126Q9.07227-18.4766 7.48535-17.2998Q5.89844-16.123 4.72168-14.5312Q3.54492-12.9395 2.90039-11.04Q2.25586-9.14062 2.25586-7.05078Q2.25586-4.9707 2.90527-3.06641Q3.55469-1.16211 4.72656 0.429688Q5.89844 2.02148 7.49023 3.19336Q9.08203 4.36523 10.9814 5.01465Q12.8809 5.66406 14.9707 5.66406ZM14.9707 3.84766Q13.1641 3.84766 11.5283 3.2959Q9.89258 2.74414 8.53516 1.74805Q7.17773 0.751953 6.17676-0.610352Q5.17578-1.97266 4.62891-3.6084Q4.08203-5.24414 4.08203-7.05078Q4.08203-8.86719 4.62891-10.5029Q5.17578-12.1387 6.17188-13.501Q7.16797-14.8633 8.52539-15.8594Q9.88281-16.8555 11.5186-17.4023Q13.1543-17.9492 14.9609-17.9492Q16.7773-17.9492 18.4131-17.4023Q20.0488-16.8555 21.4111-15.8594Q22.7734-14.8633 23.7695-13.501Q24.7656-12.1387 25.3174-10.5029Q25.8691-8.86719 25.8691-7.05078Q25.8789-5.24414 25.332-3.6084Q24.7852-1.97266 23.7842-0.610352Q22.7832 0.751953 21.4209 1.74805Q20.0586 2.74414 18.4229 3.2959Q16.7871 3.84766 14.9707 3.84766ZM9.19922-7.05078Q9.19922-6.66992 9.45801-6.4209Q9.7168-6.17188 10.1172-6.17188L14.0625-6.17188L14.0625-2.2168Q14.0625-1.81641 14.3115-1.55762Q14.5605-1.29883 14.9512-1.29883Q15.3516-1.29883 15.6104-1.55273Q15.8691-1.80664 15.8691-2.2168L15.8691-6.17188L19.8242-6.17188Q20.2246-6.17188 20.4785-6.4209Q20.7324-6.66992 20.7324-7.05078Q20.7324-7.46094 20.4785-7.71484Q20.2246-7.96875 19.8242-7.96875L15.8691-7.96875L15.8691-11.9141Q15.8691-12.3242 15.6104-12.583Q15.3516-12.8418 14.9512-12.8418Q14.5605-12.8418 14.3115-12.583Q14.0625-12.3242 14.0625-11.9141L14.0625-7.96875L10.1172-7.96875Q9.70703-7.96875 9.45312-7.71484Q9.19922-7.46094 9.19922-7.05078Z"/>
  </g>
  <text style="stroke:none;fill:black;font-family:sans-serif;font-size:13;font-weight:bold;" transform="matrix(1 0 0 1 263 1953)">Design Variations</text>
  <text style="stroke:none;fill:black;font-family:sans-serif;font-size:13;" transform="matrix(1 0 0 1 263 1971)">Symbols are supported in up to nine weights and three scales.</text>
  <text style="stroke:none;fill:black;font-family:sans-serif;font-size:13;" transform="matrix(1 0 0 1 263 1989)">For optimal layout with text and other symbols, vertically align</text>
  <text style="stroke:none;fill:black;font-family:sans-serif;font-size:13;" transform="matrix(1 0 0 1 263 2007)">symbols with the adjacent text.</text>
  <line style="fill:none;stroke:#00AEEF;stroke-width:0.5;opacity:1.0;" x1="776" x2="776" y1="1919" y2="1933"/>
  <g transform="matrix(1 0 0 1 776 1933)">
   <path d="M3.31055 0.15625Q3.70117 0.15625 3.91602-0.00976562Q4.13086-0.175781 4.26758-0.585938L5.52734-4.0332L11.2891-4.0332L12.5488-0.585938Q12.6855-0.175781 12.9004-0.00976562Q13.1152 0.15625 13.4961 0.15625Q13.8867 0.15625 14.1162-0.0585938Q14.3457-0.273438 14.3457-0.644531Q14.3457-0.869141 14.2383-1.17188L9.6582-13.3691Q9.48242-13.8184 9.17969-14.043Q8.87695-14.2676 8.4082-14.2676Q7.5-14.2676 7.17773-13.3789L2.59766-1.16211Q2.49023-0.859375 2.49023-0.634766Q2.49023-0.263672 2.70996-0.0537109Q2.92969 0.15625 3.31055 0.15625ZM6.00586-5.51758L8.37891-12.0898L8.42773-12.0898L10.8008-5.51758Z"/>
  </g>
  <line style="fill:none;stroke:#00AEEF;stroke-width:0.5;opacity:1.0;" x1="793.197" x2="793.197" y1="1919" y2="1933"/>
  <text style="stroke:none;fill:black;font-family:sans-serif;font-size:13;font-weight:bold;" transform="matrix(1 0 0 1 776 1953)">Margins</text>
  <text style="stroke:none;fill:black;font-family:sans-serif;font-size:13;" transform="matrix(1 0 0 1 776 1971)">Leading and trailing margins on the left and right side of each symbol</text>
  <text style="stroke:none;fill:black;font-family:sans-serif;font-size:13;" transform="matrix(1 0 0 1 776 1989)">can be adjusted by modifying the x-location of the margin guidelines.</text>
  <text style="stroke:none;fill:black;font-family:sans-serif;font-size:13;" transform="matrix(1 0 0 1 776 2007)">Modifications are automatically applied proportionally to all</text>
  <text style="stroke:none;fill:black;font-family:sans-serif;font-size:13;" transform="matrix(1 0 0 1 776 2025)">scales and weights.</text>
  <g transform="matrix(1 0 0 1 1289 1933)">
   <path d="M2.8418 1.86523L4.54102 3.57422Q5.18555 4.22852 5.90332 4.17969Q6.62109 4.13086 7.31445 3.35938L18.0078-8.42773L17.041-9.4043L6.42578 2.27539Q6.16211 2.57812 5.89355 2.61719Q5.625 2.65625 5.27344 2.30469L4.10156 1.14258Q3.75 0.791016 3.79395 0.522461Q3.83789 0.253906 4.14062-0.0195312L15.6152-10.8203L14.6387-11.7871L3.04688-0.898438Q2.30469-0.214844 2.25098 0.498047Q2.19727 1.21094 2.8418 1.86523ZM9.25781-16.3281Q8.94531-16.0254 8.90625-15.6348Q8.86719-15.2441 9.04297-14.9512Q9.21875-14.6777 9.55566-14.541Q9.89258-14.4043 10.3809-14.5215Q11.4746-14.7754 12.5977-14.7314Q13.7207-14.6875 14.7949-13.9844L14.209-12.5293Q13.9551-11.9043 14.0674-11.4404Q14.1797-10.9766 14.5801-10.5664L16.875-8.25195Q17.2363-7.88086 17.5781-7.82227Q17.9199-7.76367 18.3398-7.8418L19.4043-8.03711L20.0684-7.36328L20.0293-6.80664Q20-6.43555 20.1221-6.12305Q20.2441-5.81055 20.6055-5.44922L21.3672-4.70703Q21.7285-4.3457 22.1533-4.33105Q22.5781-4.31641 22.9297-4.66797L25.8398-7.58789Q26.1914-7.93945 26.1816-8.35449Q26.1719-8.76953 25.8105-9.13086L25.0391-9.89258Q24.6875-10.2539 24.3799-10.3857Q24.0723-10.5176 23.7109-10.4883L23.1348-10.4395L22.4902-11.0742L22.7344-12.1973Q22.832-12.6172 22.6953-12.9834Q22.5586-13.3496 22.1191-13.7891L19.9219-15.9766Q18.6719-17.2168 17.2607-17.8369Q15.8496-18.457 14.4189-18.4814Q12.9883-18.5059 11.665-17.959Q10.3418-17.4121 9.25781-16.3281ZM10.752-15.957Q11.6602-16.6211 12.7002-16.9043Q13.7402-17.1875 14.8047-17.085Q15.8691-16.9824 16.8701-16.5137Q17.8711-16.0449 18.7012-15.2051L21.1328-12.793Q21.3086-12.6172 21.3525-12.4512Q21.3965-12.2852 21.3379-12.0312L21.0156-10.5469L22.5195-9.0625L23.5059-9.12109Q23.6914-9.13086 23.7891-9.09668Q23.8867-9.0625 24.0332-8.91602L24.6094-8.33984L22.168-5.89844L21.5918-6.47461Q21.4453-6.62109 21.4062-6.71875Q21.3672-6.81641 21.377-7.01172L21.4453-7.98828L19.9512-9.47266L18.4277-9.21875Q18.1836-9.16992 18.042-9.2041Q17.9004-9.23828 17.7148-9.41406L15.7129-11.416Q15.5176-11.5918 15.4932-11.7529Q15.4688-11.9141 15.5859-12.1875L16.4648-14.2773Q15.293-15.3711 13.8281-15.791Q12.3633-16.2109 10.8398-15.7617Q10.7227-15.7324 10.6885-15.8057Q10.6543-15.8789 10.752-15.957Z"/>
  </g>
  <text style="stroke:none;fill:black;font-family:sans-serif;font-size:13;font-weight:bold;" transform="matrix(1 0 0 1 1289 1953)">Exporting</text>
  <text style="stroke:none;fill:black;font-family:sans-serif;font-size:13;" transform="matrix(1 0 0 1 1289 1971)">Symbols should be outlined when exporting to ensure the</text>
  <text style="stroke:none;fill:black;font-family:sans-serif;font-size:13;" transform="matrix(1 0 0 1 1289 1989)">design is preserved when submitting to Xcode.</text>
  <text id="template-version" style="stroke:none;fill:black;font-family:sans-serif;font-size:13;text-anchor:end;" transform="matrix(1 0 0 1 3036 1933)">Template v.2.0</text>
  <text style="stroke:none;fill:black;font-family:sans-serif;font-size:13;text-anchor:end;" transform="matrix(1 0 0 1 3036 1951)">Requires Xcode 12 or greater</text>
  <text id="descriptive-name" style="stroke:none;fill:black;font-family:sans-serif;font-size:13;text-anchor:end;" transform="matrix(1 0 0 1 3036 1969)">Generated from sun.min</text>
  <text style="stroke:none;fill:black;font-family:sans-serif;font-size:13;text-anchor:end;" transform="matrix(1 0 0 1 3036 1987)">Typeset at 100 points</text>
  <text style="stroke:none;fill:black;font-family:sans-serif;font-size:13;" transform="matrix(1 0 0 1 263 726)">Small</text>
  <text style="stroke:none;fill:black;font-family:sans-serif;font-size:13;" transform="matrix(1 0 0 1 263 1156)">Medium</text>
  <text style="stroke:none;fill:black;font-family:sans-serif;font-size:13;" transform="matrix(1 0 0 1 263 1586)">Large</text>
 </g>
 <g id="Guides">
  <g id="H-reference" style="fill:#27AAE1;stroke:none;" transform="matrix(1 0 0 1 339 696)">
   <path d="M0.976562 0L3.66211 0L29.3457-67.1387L30.0293-67.1387L30.0293-70.459L28.125-70.459ZM11.6699-24.4629L46.9727-24.4629L46.2402-26.709L12.4512-26.709ZM55.127 0L57.7637 0L30.6152-70.459L29.4434-70.459L29.4434-67.1387Z"/>
  </g>
  <line id="Baseline-S" style="fill:none;stroke:#27AAE1;opacity:1;stroke-width:0.5;" x1="263" x2="3036" y1="696" y2="696"/>
  <line id="Capline-S" style="fill:none;stroke:#27AAE1;opacity:1;stroke-width:0.5;" x1="263" x2="3036" y1="625.541" y2="625.541"/>
  <g id="H-reference" style="fill:#27AAE1;stroke:none;" transform="matrix(1 0 0 1 339 1126)">
   <path d="M0.976562 0L3.66211 0L29.3457-67.1387L30.0293-67.1387L30.0293-70.459L28.125-70.459ZM11.6699-24.4629L46.9727-24.4629L46.2402-26.709L12.4512-26.709ZM55.127 0L57.7637 0L30.6152-70.459L29.4434-70.459L29.4434-67.1387Z"/>
  </g>
  <line id="Baseline-M" style="fill:none;stroke:#27AAE1;opacity:1;stroke-width:0.5;" x1="263" x2="3036" y1="1126" y2="1126"/>
  <line id="Capline-M" style="fill:none;stroke:#27AAE1;opacity:1;stroke-width:0.5;" x1="263" x2="3036" y1="1055.54" y2="1055.54"/>
  <g id="H-reference" style="fill:#27AAE1;stroke:none;" transform="matrix(1 0 0 1 339 1556)">
   <path d="M0.976562 0L3.66211 0L29.3457-67.1387L30.0293-67.1387L30.0293-70.459L28.125-70.459ZM11.6699-24.4629L46.9727-24.4629L46.2402-26.709L12.4512-26.709ZM55.127 0L57.7637 0L30.6152-70.459L29.4434-70.459L29.4434-67.1387Z"/>
  </g>
  <line id="Baseline-L" style="fill:none;stroke:#27AAE1;opacity:1;stroke-width:0.5;" x1="263" x2="3036" y1="1556" y2="1556"/>
  <line id="Capline-L" style="fill:none;stroke:#27AAE1;opacity:1;stroke-width:0.5;" x1="263" x2="3036" y1="1485.54" y2="1485.54"/>
  <line id="left-margin" style="fill:none;stroke:#00AEEF;stroke-width:0.5;opacity:1.0;" x1="1392.16" x2="1392.16" y1="1030.79" y2="1150.12"/>
  <line id="right-margin" style="fill:none;stroke:#00AEEF;stroke-width:0.5;opacity:1.0;" x1="1507.53" x2="1507.53" y1="1030.79" y2="1150.12"/>
 </g>
 <g id="Symbols">
  <g id="Black-L" transform="matrix(1 0 0 1 2854.48 1556)">
   <path d="M78.9247 0.498865Q88.712 0.498865 96.8382-4.36557Q104.964-9.23 109.829-17.3562Q114.693-25.4824 114.693-35.2697Q114.693-45.057 109.829-53.1832Q104.964-61.3094 96.8382-66.1738Q88.712-71.0383 78.9247-71.0383Q69.1375-71.0383 61.0106-66.1738Q52.8837-61.3094 48.0193-53.1832Q43.1549-45.057 43.1549-35.2697Q43.1549-25.424 47.9901-17.2978Q52.8253-9.17159 60.9522-4.33636Q69.0791 0.498865 78.9247 0.498865ZM78.9247-18.1841Q74.3003-18.1841 70.4105-20.5255Q66.5207-22.8669 64.1799-26.7561Q61.8391-30.6453 61.8391-35.2697Q61.8391-39.9526 64.1799-43.8022Q66.5207-47.6518 70.4105-50.0036Q74.3003-52.3554 78.9247-52.3554Q83.6076-52.3554 87.4676-50.0139Q91.3275-47.6725 93.6683-43.8125Q96.0091-39.9526 96.0091-35.2697Q96.0091-30.6453 93.6683-26.7561Q91.3275-22.8669 87.4676-20.5255Q83.6076-18.1841 78.9247-18.1841ZM20.7316-25.7969Q24.6897-25.7969 27.4464-28.5835Q30.2031-31.37 30.2031-35.2697Q30.2031-39.2278 27.4464-41.9851Q24.6897-44.7425 20.7316-44.7425Q16.8319-44.7425 14.0454-41.9851Q11.2588-39.2278 11.2588-35.2697Q11.2588-31.37 14.0454-28.5835Q16.8319-25.7969 20.7316-25.7969ZM37.7733-66.9483Q41.7314-66.9483 44.4887-69.7349Q47.2461-72.5215 47.2461-76.4211Q47.2461-80.3999 44.4887-83.1463Q41.7314-85.8927 37.7733-85.8927Q33.8529-85.8927 31.0767-83.1463Q28.3005-80.3999 28.3005-76.4211Q28.3005-72.5215 31.0767-69.7349Q33.8529-66.9483 37.7733-66.9483ZM78.9247-83.9901Q82.8828-83.9901 85.6395-86.776Q88.3962-89.5619 88.3962-93.4628Q88.3962-97.4209 85.6395-100.178Q82.8828-102.936 78.9247-102.936Q75.0251-102.936 72.2385-100.178Q69.4519-97.4209 69.4519-93.4628Q69.4519-89.5619 72.2385-86.776Q75.0251-83.9901 78.9247-83.9901ZM120.076-66.9483Q124.055-66.9483 126.801-69.7349Q129.548-72.5215 129.548-76.4211Q129.548-80.3999 126.801-83.1463Q124.055-85.8927 120.076-85.8927Q116.175-85.8927 113.389-83.1463Q110.602-80.3999 110.602-76.4211Q110.602-72.5215 113.389-69.7349Q116.175-66.9483 120.076-66.9483ZM137.117-25.7969Q141.097-25.7969 143.844-28.5835Q146.591-31.37 146.591-35.2697Q146.591-39.2278 143.844-41.9851Q141.097-44.7425 137.117-44.7425Q133.217-44.7425 130.43-41.9851Q127.644-39.2278 127.644-35.2697Q127.644-31.37 130.43-28.5835Q133.217-25.7969 137.117-25.7969ZM120.076 15.3533Q124.055 15.3533 126.801 12.5777Q129.548 9.80213 129.548 5.88174Q129.548 1.92367 126.801-0.833696Q124.055-3.59106 120.076-3.59106Q116.175-3.59106 113.389-0.833696Q110.602 1.92367 110.602 5.88174Q110.602 9.80213 113.389 12.5777Q116.175 15.3533 120.076 15.3533ZM78.9247 32.3962Q82.8828 32.3962 85.6395 29.6097Q88.3962 26.8231 88.3962 22.9234Q88.3962 18.9641 85.6395 16.2074Q82.8828 13.4506 78.9247 13.4506Q75.0251 13.4506 72.2385 16.2074Q69.4519 18.9641 69.4519 22.9234Q69.4519 26.8231 72.2385 29.6097Q75.0251 32.3962 78.9247 32.3962ZM37.7733 15.3533Q41.7314 15.3533 44.4887 12.5777Q47.2461 9.80213 47.2461 5.88174Q47.2461 1.92367 44.4887-0.833696Q41.7314-3.59106 37.7733-3.59106Q33.8529-3.59106 31.0767-0.833696Q28.3005 1.92367 28.3005 5.88174Q28.3005 9.80213 31.0767 12.5777Q33.8529 15.3533 37.7733 15.3533Z"/>
  </g>
  <g id="Heavy-L" transform="matrix(1 0 0 1 2558.9 1556)">
   <path d="M77.7913-0.445391Q87.3148-0.445391 95.2258-5.18484Q103.137-9.92429 107.876-17.8352Q112.616-25.7462 112.616-35.2697Q112.616-44.7932 107.876-52.7042Q103.137-60.6151 95.2258-65.3546Q87.3148-70.094 77.7913-70.094Q68.2678-70.094 60.3538-65.3546Q52.4399-60.6151 47.7004-52.7042Q42.961-44.7932 42.961-35.2697Q42.961-25.7016 47.6781-17.7906Q52.3953-9.87967 60.3092-5.16253Q68.2232-0.445391 77.7913-0.445391ZM77.7913-16.8215Q72.7881-16.8215 68.5865-19.3454Q64.385-21.8694 61.8641-26.0679Q59.3432-30.2665 59.3432-35.2697Q59.3432-40.3175 61.8641-44.4789Q64.385-48.6403 68.5865-51.1791Q72.7881-53.7179 77.7913-53.7179Q82.8392-53.7179 87.0154-51.194Q91.1917-48.67 93.7126-44.4938Q96.2335-40.3175 96.2335-35.2697Q96.2335-30.2665 93.7126-26.0679Q91.1917-21.8694 87.0154-19.3454Q82.8392-16.8215 77.7913-16.8215ZM20.1842-26.3443Q23.8966-26.3443 26.5-28.9731Q29.1035-31.6019 29.1035-35.2697Q29.1035-38.9821 26.5-41.5886Q23.8966-44.1951 20.1842-44.1951Q16.5164-44.1951 13.8876-41.5886Q11.2588-38.9821 11.2588-35.2697Q11.2588-31.6019 13.8876-28.9731Q16.5164-26.3443 20.1842-26.3443ZM37.0505-67.0851Q40.7629-67.0851 43.3694-69.7139Q45.9759-72.3427 45.9759-76.0105Q45.9759-79.7527 43.3694-82.3413Q40.7629-84.9299 37.0505-84.9299Q33.353-84.9299 30.739-82.3413Q28.1251-79.7527 28.1251-76.0105Q28.1251-72.3427 30.739-69.7139Q33.353-67.0851 37.0505-67.0851ZM77.7913-83.9515Q81.5037-83.9515 84.1072-86.5773Q86.7107-89.203 86.7107-92.8769Q86.7107-96.5893 84.1072-99.1957Q81.5037-101.802 77.7913-101.802Q74.1236-101.802 71.4947-99.1957Q68.8659-96.5893 68.8659-92.8769Q68.8659-89.203 71.4947-86.5773Q74.1236-83.9515 77.7913-83.9515ZM118.532-67.0851Q122.274-67.0851 124.863-69.7139Q127.451-72.3427 127.451-76.0105Q127.451-79.7527 124.863-82.3413Q122.274-84.9299 118.532-84.9299Q114.858-84.9299 112.23-82.3413Q109.601-79.7527 109.601-76.0105Q109.601-72.3427 112.23-69.7139Q114.858-67.0851 118.532-67.0851ZM135.392-26.3443Q139.141-26.3443 141.732-28.9731Q144.324-31.6019 144.324-35.2697Q144.324-38.9821 141.732-41.5886Q139.141-44.1951 135.392-44.1951Q131.725-44.1951 129.096-41.5886Q126.467-38.9821 126.467-35.2697Q126.467-31.6019 129.096-28.9731Q131.725-26.3443 135.392-26.3443ZM118.532 14.3905Q122.274 14.3905 124.863 11.7796Q127.451 9.16865 127.451 5.47112Q127.451 1.75872 124.863-0.84777Q122.274-3.45426 118.532-3.45426Q114.858-3.45426 112.23-0.84777Q109.601 1.75872 109.601 5.47112Q109.601 9.16865 112.23 11.7796Q114.858 14.3905 118.532 14.3905ZM77.7913 31.2628Q81.5037 31.2628 84.1072 28.634Q86.7107 26.0052 86.7107 22.3375Q86.7107 18.619 84.1072 16.0155Q81.5037 13.4121 77.7913 13.4121Q74.1236 13.4121 71.4947 16.0155Q68.8659 18.619 68.8659 22.3375Q68.8659 26.0052 71.4947 28.634Q74.1236 31.2628 77.7913 31.2628ZM37.0505 14.3905Q40.7629 14.3905 43.3694 11.7796Q45.9759 9.16865 45.9759 5.47112Q45.9759 1.75872 43.3694-0.84777Q40.7629-3.45426 37.0505-3.45426Q33.353-3.45426 30.739-0.84777Q28.1251 1.75872 28.1251 5.47112Q28.1251 9.16865 30.739 11.7796Q33.353 14.3905 37.0505 14.3905Z"/>
  </g>
  <g id="Bold-L" transform="matrix(1 0 0 1 2263.6 1556)">
   <path d="M76.3795-1.63119Q85.5735-1.63119 93.2134-6.21357Q100.853-10.7959 105.436-18.4358Q110.018-26.0758 110.018-35.2697Q110.018-44.4636 105.436-52.1036Q100.853-59.7435 93.2134-64.3258Q85.5735-68.9082 76.3795-68.9082Q67.1856-68.9082 59.5386-64.3258Q51.8915-59.7435 47.3092-52.1036Q42.7268-44.4636 42.7268-35.2697Q42.7268-26.0466 47.2946-18.4066Q51.8623-10.7667 59.5094-6.19896Q67.1564-1.63119 76.3795-1.63119ZM76.3795-15.165Q70.9152-15.165 66.3347-17.9117Q61.7541-20.6585 59.0144-25.2319Q56.2748-29.8054 56.2748-35.2697Q56.2748-40.7632 59.0144-45.3036Q61.7541-49.8439 66.3347-52.6092Q70.9152-55.3744 76.3795-55.3744Q81.8731-55.3744 86.4319-52.6277Q90.9907-49.8809 93.7304-45.3221Q96.4701-40.7632 96.4701-35.2697Q96.4701-29.8054 93.7304-25.2319Q90.9907-20.6585 86.4319-17.9117Q81.8731-15.165 76.3795-15.165ZM19.4739-27.0545Q22.8712-27.0545 25.273-29.4781Q27.6749-31.9016 27.6749-35.2697Q27.6749-38.667 25.273-41.0759Q22.8712-43.4849 19.4739-43.4849Q16.1059-43.4849 13.6823-41.0759Q11.2588-38.667 11.2588-35.2697Q11.2588-31.9016 13.6823-29.4781Q16.1059-27.0545 19.4739-27.0545ZM36.1297-67.3044Q39.527-67.3044 41.9359-69.7279Q44.3449-72.1515 44.3449-75.5195Q44.3449-78.9538 41.9359-81.3371Q39.527-83.7205 36.1297-83.7205Q32.7247-83.7205 30.3196-81.3371Q27.9146-78.9538 27.9146-75.5195Q27.9146-72.1515 30.3196-69.7279Q32.7247-67.3044 36.1297-67.3044ZM76.3795-83.9601Q79.7768-83.9601 82.1786-86.3766Q84.5805-88.793 84.5805-92.1753Q84.5805-95.5726 82.1786-97.9815Q79.7768-100.39 76.3795-100.39Q73.0115-100.39 70.5879-97.9815Q68.1644-95.5726 68.1644-92.1753Q68.1644-88.793 70.5879-86.3766Q73.0115-83.9601 76.3795-83.9601ZM116.629-67.3044Q120.064-67.3044 122.447-69.7279Q124.83-72.1515 124.83-75.5195Q124.83-78.9538 122.447-81.3371Q120.064-83.7205 116.629-83.7205Q113.247-83.7205 110.824-81.3371Q108.4-78.9538 108.4-75.5195Q108.4-72.1515 110.824-69.7279Q113.247-67.3044 116.629-67.3044ZM133.271-27.0545Q136.719-27.0545 139.11-29.4781Q141.5-31.9016 141.5-35.2697Q141.5-38.667 139.11-41.0759Q136.719-43.4849 133.271-43.4849Q129.903-43.4849 127.479-41.0759Q125.056-38.667 125.056-35.2697Q125.056-31.9016 127.479-29.4781Q129.903-27.0545 133.271-27.0545ZM116.629 13.181Q120.064 13.181 122.447 10.7831Q124.83 8.38518 124.83 4.98012Q124.83 1.58284 122.447-0.826098Q120.064-3.23504 116.629-3.23504Q113.247-3.23504 110.824-0.826098Q108.4 1.58284 108.4 4.98012Q108.4 8.38518 110.824 10.7831Q113.247 13.181 116.629 13.181ZM76.3795 29.851Q79.7768 29.851 82.1786 27.4275Q84.5805 25.004 84.5805 21.6359Q84.5805 18.2244 82.1786 15.8226Q79.7768 13.4207 76.3795 13.4207Q73.0115 13.4207 70.5879 15.8226Q68.1644 18.2244 68.1644 21.6359Q68.1644 25.004 70.5879 27.4275Q73.0115 29.851 76.3795 29.851ZM36.1297 13.181Q39.527 13.181 41.9359 10.7831Q44.3449 8.38518 44.3449 4.98012Q44.3449 1.58284 41.9359-0.826098Q39.527-3.23504 36.1297-3.23504Q32.7247-3.23504 30.3196-0.826098Q27.9146 1.58284 27.9146 4.98012Q27.9146 8.38518 30.3196 10.7831Q32.7247 13.181 36.1297 13.181Z"/>
  </g>
  <g id="Semibold-L" transform="matrix(1 0 0 1 1967.86 1556)">
   <path d="M75.4063-2.44868Q84.373-2.44868 91.8261-6.92276Q99.2791-11.3968 103.753-18.8499Q108.227-26.303 108.227-35.2697Q108.227-44.2364 103.753-51.6895Q99.2791-59.1426 91.8261-63.6166Q84.373-68.0907 75.4063-68.0907Q66.4395-68.0907 58.9765-63.6166Q51.5135-59.1426 47.0394-51.6895Q42.5654-44.2364 42.5654-35.2697Q42.5654-26.2844 47.0302-18.8313Q51.495-11.3783 58.958-6.91347Q66.4209-2.44868 75.4063-2.44868ZM75.4063-14.0229Q69.624-14.0229 64.7822-16.9233Q59.9404-19.8237 57.0499-24.6556Q54.1595-29.4875 54.1595-35.2697Q54.1595-41.0705 57.0499-45.8721Q59.9404-50.6737 64.7822-53.5951Q69.624-56.5165 75.4063-56.5165Q81.2071-56.5165 86.0296-53.6161Q90.8522-50.7157 93.7427-45.8931Q96.6332-41.0705 96.6332-35.2697Q96.6332-29.4875 93.7427-24.6556Q90.8522-19.8237 86.0296-16.9233Q81.2071-14.0229 75.4063-14.0229ZM18.9843-27.5442Q22.1644-27.5442 24.4272-29.8262Q26.69-32.1082 26.69-35.2697Q26.69-38.4497 24.4272-40.7225Q22.1644-42.9952 18.9843-42.9952Q15.8229-42.9952 13.5408-40.7225Q11.2588-38.4497 11.2588-35.2697Q11.2588-32.1082 13.5408-29.8262Q15.8229-27.5442 18.9843-27.5442ZM35.4949-67.4555Q38.675-67.4555 40.9477-69.7375Q43.2205-72.0196 43.2205-75.181Q43.2205-78.403 40.9477-80.6449Q38.675-82.8867 35.4949-82.8867Q32.2915-82.8867 30.0304-80.6449Q27.7694-78.403 27.7694-75.181Q27.7694-72.0196 30.0304-69.7375Q32.2915-67.4555 35.4949-67.4555ZM75.4063-83.9661Q78.5863-83.9661 80.8491-86.2382Q83.1119-88.5103 83.1119-91.6916Q83.1119-94.8717 80.8491-97.1444Q78.5863-99.4172 75.4063-99.4172Q72.2448-99.4172 69.9628-97.1444Q67.6807-94.8717 67.6807-91.6916Q67.6807-88.5103 69.9628-86.2382Q72.2448-83.9661 75.4063-83.9661ZM115.318-67.4555Q118.54-67.4555 120.781-69.7375Q123.023-72.0196 123.023-75.181Q123.023-78.403 120.781-80.6449Q118.54-82.8867 115.318-82.8867Q112.136-82.8867 109.854-80.6449Q107.572-78.403 107.572-75.181Q107.572-72.0196 109.854-69.7375Q112.136-67.4555 115.318-67.4555ZM131.808-27.5442Q135.05-27.5442 137.302-29.8262Q139.554-32.1082 139.554-35.2697Q139.554-38.4497 137.302-40.7225Q135.05-42.9952 131.808-42.9952Q128.647-42.9952 126.365-40.7225Q124.083-38.4497 124.083-35.2697Q124.083-32.1082 126.365-29.8262Q128.647-27.5442 131.808-27.5442ZM115.318 12.3473Q118.54 12.3473 120.781 10.0962Q123.023 7.84506 123.023 4.64163Q123.023 1.46159 120.781-0.811158Q118.54-3.08391 115.318-3.08391Q112.136-3.08391 109.854-0.811158Q107.572 1.46159 107.572 4.64163Q107.572 7.84506 109.854 10.0962Q112.136 12.3473 115.318 12.3473ZM75.4063 28.8778Q78.5863 28.8778 80.8491 26.5957Q83.1119 24.3137 83.1119 21.1522Q83.1119 17.9523 80.8491 15.6895Q78.5863 13.4267 75.4063 13.4267Q72.2448 13.4267 69.9628 15.6895Q67.6807 17.9523 67.6807 21.1522Q67.6807 24.3137 69.9628 26.5957Q72.2448 28.8778 75.4063 28.8778ZM35.4949 12.3473Q38.675 12.3473 40.9477 10.0962Q43.2205 7.84506 43.2205 4.64163Q43.2205 1.46159 40.9477-0.811158Q38.675-3.08391 35.4949-3.08391Q32.2915-3.08391 30.0304-0.811158Q27.7694 1.46159 27.7694 4.64163Q27.7694 7.84506 30.0304 10.0962Q32.2915 12.3473 35.4949 12.3473Z"/>
  </g>
  <g id="Medium-L" transform="matrix(1 0 0 1 1671.89 1556)">
   <path d="M74.6683-3.06853Q83.4627-3.06853 90.7741-7.4605Q98.0855-11.8525 102.477-19.1639Q106.869-26.4752 106.869-35.2697Q106.869-44.0642 102.477-51.3755Q98.0855-58.6869 90.7741-63.0789Q83.4627-67.4709 74.6683-67.4709Q65.8738-67.4709 58.5504-63.0789Q51.2269-58.6869 46.8349-51.3755Q42.443-44.0642 42.443-35.2697Q42.443-26.4647 46.8297-19.1533Q51.2164-11.842 58.5398-7.45525Q65.8633-3.06853 74.6683-3.06853ZM74.6683-13.157Q68.645-13.157 63.6051-16.1739Q58.5652-19.1908 55.5604-24.2186Q52.5556-29.2464 52.5556-35.2697Q52.5556-41.3035 55.5604-46.3032Q58.5652-51.3029 63.6051-54.3426Q68.645-57.3824 74.6683-57.3824Q80.7021-57.3824 85.7246-54.3655Q90.7472-51.3486 93.752-46.3261Q96.7568-41.3035 96.7568-35.2697Q96.7568-29.2464 93.752-24.2186Q90.7472-19.1908 85.7246-16.1739Q80.7021-13.157 74.6683-13.157ZM18.6131-27.9154Q21.6284-27.9154 23.7858-30.0902Q25.9432-32.2649 25.9432-35.2697Q25.9432-38.285 23.7858-40.4545Q21.6284-42.624 18.6131-42.624Q15.6083-42.624 13.4335-40.4545Q11.2588-38.285 11.2588-35.2697Q11.2588-32.2649 13.4335-30.0902Q15.6083-27.9154 18.6131-27.9154ZM35.0136-67.5701Q38.0289-67.5701 40.1984-69.7448Q42.3679-71.9196 42.3679-74.9244Q42.3679-77.9854 40.1984-80.12Q38.0289-82.2545 35.0136-82.2545Q31.9631-82.2545 29.8112-80.12Q27.6593-77.9854 27.6593-74.9244Q27.6593-71.9196 29.8112-69.7448Q31.9631-67.5701 35.0136-67.5701ZM74.6683-83.9706Q77.6836-83.9706 79.841-86.1333Q81.9984-88.296 81.9984-91.3249Q81.9984-94.3402 79.841-96.5097Q77.6836-98.6792 74.6683-98.6792Q71.6635-98.6792 69.4887-96.5097Q67.314-94.3402 67.314-91.3249Q67.314-88.296 69.4887-86.1333Q71.6635-83.9706 74.6683-83.9706ZM114.323-67.5701Q117.384-67.5701 119.519-69.7448Q121.653-71.9196 121.653-74.9244Q121.653-77.9854 119.519-80.12Q117.384-82.2545 114.323-82.2545Q111.294-82.2545 109.119-80.12Q106.945-77.9854 106.945-74.9244Q106.945-71.9196 109.119-69.7448Q111.294-67.5701 114.323-67.5701ZM130.699-27.9154Q133.785-27.9154 135.931-30.0902Q138.078-32.2649 138.078-35.2697Q138.078-38.285 135.931-40.4545Q133.785-42.624 130.699-42.624Q127.695-42.624 125.52-40.4545Q123.345-38.285 123.345-35.2697Q123.345-32.2649 125.52-30.0902Q127.695-27.9154 130.699-27.9154ZM114.323 11.7151Q117.384 11.7151 119.519 9.57531Q121.653 7.43552 121.653 4.38497Q121.653 1.36966 119.519-0.79983Q117.384-2.96932 114.323-2.96932Q111.294-2.96932 109.119-0.79983Q106.945 1.36966 106.945 4.38497Q106.945 7.43552 109.119 9.57531Q111.294 11.7151 114.323 11.7151ZM74.6683 28.1398Q77.6836 28.1398 79.841 25.965Q81.9984 23.7903 81.9984 20.7855Q81.9984 17.746 79.841 15.5886Q77.6836 13.4312 74.6683 13.4312Q71.6635 13.4312 69.4887 15.5886Q67.314 17.746 67.314 20.7855Q67.314 23.7903 69.4887 25.965Q71.6635 28.1398 74.6683 28.1398ZM35.0136 11.7151Q38.0289 11.7151 40.1984 9.57531Q42.3679 7.43552 42.3679 4.38497Q42.3679 1.36966 40.1984-0.79983Q38.0289-2.96932 35.0136-2.96932Q31.9631-2.96932 29.8112-0.79983Q27.6593 1.36966 27.6593 4.38497Q27.6593 7.43552 29.8112 9.57531Q31.9631 11.7151 35.0136 11.7151Z"/>
  </g>
  <g id="Regular-L" transform="matrix(1 0 0 1 1376.14 1556)">
   <path d="M73.7057-3.87703Q82.2754-3.87703 89.402-8.1619Q96.5286-12.4468 100.813-19.5734Q105.098-26.7 105.098-35.2697Q105.098-43.8395 100.813-50.966Q96.5286-58.0926 89.402-62.3775Q82.2754-66.6624 73.7057-66.6624Q65.1359-66.6624 57.9945-62.3775Q50.853-58.0926 46.5682-50.966Q42.2833-43.8395 42.2833-35.2697Q42.2833-26.7 46.5682-19.5734Q50.853-12.4468 57.9945-8.1619Q65.1359-3.87703 73.7057-3.87703ZM73.7057-12.0275Q67.368-12.0275 62.0697-15.1963Q56.7714-18.3652 53.6175-23.6486Q50.4635-28.932 50.4635-35.2697Q50.4635-41.6074 53.6175-46.8655Q56.7714-52.1235 62.0697-55.3177Q67.368-58.5119 73.7057-58.5119Q80.0434-58.5119 85.3268-55.3431Q90.6102-52.1742 93.7642-46.8908Q96.9182-41.6074 96.9182-35.2697Q96.9182-28.932 93.7642-23.6486Q90.6102-18.3652 85.3268-15.1963Q80.0434-12.0275 73.7057-12.0275ZM18.1288-28.3997Q20.9293-28.3997 22.9492-30.4345Q24.9691-32.4692 24.9691-35.2697Q24.9691-38.0702 22.9492-40.105Q20.9293-42.1397 18.1288-42.1397Q15.3284-42.1397 13.2936-40.105Q11.2588-38.0702 11.2588-35.2697Q11.2588-32.4692 13.2936-30.4345Q15.3284-28.3997 18.1288-28.3997ZM34.3858-67.7196Q37.1863-67.7196 39.221-69.7544Q41.2558-71.7891 41.2558-74.5896Q41.2558-77.4407 39.221-79.4353Q37.1863-81.4299 34.3858-81.4299Q31.5347-81.4299 29.5252-79.4353Q27.5158-77.4407 27.5158-74.5896Q27.5158-71.7891 29.5252-69.7544Q31.5347-67.7196 34.3858-67.7196ZM73.7057-83.9765Q76.5062-83.9765 78.5261-85.9965Q80.546-88.0164 80.546-90.8466Q80.546-93.647 78.5261-95.6818Q76.5062-97.7166 73.7057-97.7166Q70.9052-97.7166 68.8704-95.6818Q66.8357-93.647 66.8357-90.8466Q66.8357-88.0164 68.8704-85.9965Q70.9052-83.9765 73.7057-83.9765ZM113.026-67.7196Q115.877-67.7196 117.871-69.7544Q119.866-71.7891 119.866-74.5896Q119.866-77.4407 117.871-79.4353Q115.877-81.4299 113.026-81.4299Q110.195-81.4299 108.161-79.4353Q106.126-77.4407 106.126-74.5896Q106.126-71.7891 108.161-69.7544Q110.195-67.7196 113.026-67.7196ZM129.253-28.3997Q132.134-28.3997 134.143-30.4345Q136.153-32.4692 136.153-35.2697Q136.153-38.0702 134.143-40.105Q132.134-42.1397 129.253-42.1397Q126.452-42.1397 124.418-40.105Q122.383-38.0702 122.383-35.2697Q122.383-32.4692 124.418-30.4345Q126.452-28.3997 129.253-28.3997ZM113.026 10.8905Q115.877 10.8905 117.871 8.89591Q119.866 6.90133 119.866 4.05019Q119.866 1.24974 117.871-0.785054Q115.877-2.81985 113.026-2.81985Q110.195-2.81985 108.161-0.785054Q106.126 1.24974 106.126 4.05019Q106.126 6.90133 108.161 8.89591Q110.195 10.8905 113.026 10.8905ZM73.7057 27.1772Q76.5062 27.1772 78.5261 25.1424Q80.546 23.1076 80.546 20.3072Q80.546 17.477 78.5261 15.457Q76.5062 13.4371 73.7057 13.4371Q70.9052 13.4371 68.8704 15.457Q66.8357 17.477 66.8357 20.3072Q66.8357 23.1076 68.8704 25.1424Q70.9052 27.1772 73.7057 27.1772ZM34.3858 10.8905Q37.1863 10.8905 39.221 8.89591Q41.2558 6.90133 41.2558 4.05019Q41.2558 1.24974 39.221-0.785054Q37.1863-2.81985 34.3858-2.81985Q31.5347-2.81985 29.5252-0.785054Q27.5158 1.24974 27.5158 4.05019Q27.5158 6.90133 29.5252 8.89591Q31.5347 10.8905 34.3858 10.8905Z"/>
  </g>
  <g id="Light-L" transform="matrix(1 0 0 1 1080.45 1556)">
   <path d="M72.6796-4.80052Q81.0031-4.80052 87.9142-8.96226Q94.8253-13.124 98.987-20.0351Q103.149-26.9462 103.149-35.2697Q103.149-43.5932 98.987-50.5043Q94.8253-57.4154 87.9142-61.5771Q81.0031-65.7389 72.6796-65.7389Q64.3561-65.7389 57.4199-61.5771Q50.4836-57.4154 46.3219-50.5043Q42.1602-43.5932 42.1602-35.2697Q42.1602-26.9462 46.3219-20.0351Q50.4836-13.124 57.4199-8.96226Q64.3561-4.80052 72.6796-4.80052ZM72.6796-11.0835Q66.0751-11.0835 60.5614-14.3857Q55.0476-17.688 51.7705-23.1766Q48.4934-28.6652 48.4934-35.2697Q48.4934-41.8742 51.7705-47.3477Q55.0476-52.8213 60.5614-56.1386Q66.0751-59.4559 72.6796-59.4559Q79.2841-59.4559 84.7727-56.1537Q90.2613-52.8514 93.5384-47.3628Q96.8155-41.8742 96.8155-35.2697Q96.8155-28.6652 93.5384-23.1766Q90.2613-17.688 84.7727-14.3857Q79.2841-11.0835 72.6796-11.0835ZM17.4311-29.0974Q19.9442-29.0974 21.7487-30.927Q23.5531-32.7566 23.5531-35.2697Q23.5531-37.7829 21.7487-39.6124Q19.9442-41.442 17.4311-41.442Q14.9179-41.442 13.0884-39.6124Q11.2588-37.7829 11.2588-35.2697Q11.2588-32.7566 13.0884-30.927Q14.9179-29.0974 17.4311-29.0974ZM33.5854-68.1916Q36.0986-68.1916 37.9282-70.0211Q39.7577-71.8507 39.7577-74.3639Q39.7577-76.9072 37.9282-78.6965Q36.0986-80.4859 33.5854-80.4859Q31.0421-80.4859 29.2276-78.6965Q27.4132-76.9072 27.4132-74.3639Q27.4132-71.8507 29.2276-70.0211Q31.0421-68.1916 33.5854-68.1916ZM72.6796-84.3459Q75.1927-84.3459 76.9972-86.1504Q78.8016-87.9548 78.8016-90.5182Q78.8016-93.0314 76.9972-94.8609Q75.1927-96.6905 72.6796-96.6905Q70.1665-96.6905 68.3369-94.8609Q66.5073-93.0314 66.5073-90.5182Q66.5073-87.9548 68.3369-86.1504Q70.1665-84.3459 72.6796-84.3459ZM111.774-68.1916Q114.317-68.1916 116.106-70.0211Q117.896-71.8507 117.896-74.3639Q117.896-76.9072 116.106-78.6965Q114.317-80.4859 111.774-80.4859Q109.21-80.4859 107.381-78.6965Q105.551-76.9072 105.551-74.3639Q105.551-71.8507 107.381-70.0211Q109.21-68.1916 111.774-68.1916ZM127.878-29.0974Q130.471-29.0974 132.286-30.927Q134.1-32.7566 134.1-35.2697Q134.1-37.7829 132.286-39.6124Q130.471-41.442 127.878-41.442Q125.365-41.442 123.535-39.6124Q121.706-37.7829 121.706-35.2697Q121.706-32.7566 123.535-30.927Q125.365-29.0974 127.878-29.0974ZM111.774 9.94649Q114.317 9.94649 116.106 8.15712Q117.896 6.36776 117.896 3.82445Q117.896 1.3113 116.106-0.518268Q114.317-2.34784 111.774-2.34784Q109.21-2.34784 107.381-0.518268Q105.551 1.3113 105.551 3.82445Q105.551 6.36776 107.381 8.15712Q109.21 9.94649 111.774 9.94649ZM72.6796 26.1511Q75.1927 26.1511 76.9972 24.3215Q78.8016 22.492 78.8016 19.9788Q78.8016 17.4154 76.9972 15.611Q75.1927 13.8065 72.6796 13.8065Q70.1665 13.8065 68.3369 15.611Q66.5073 17.4154 66.5073 19.9788Q66.5073 22.492 68.3369 24.3215Q70.1665 26.1511 72.6796 26.1511ZM33.5854 9.94649Q36.0986 9.94649 37.9282 8.15712Q39.7577 6.36776 39.7577 3.82445Q39.7577 1.3113 37.9282-0.518268Q36.0986-2.34784 33.5854-2.34784Q31.0421-2.34784 29.2276-0.518268Q27.4132 1.3113 27.4132 3.82445Q27.4132 6.36776 29.2276 8.15712Q31.0421 9.94649 33.5854 9.94649Z"/>
  </g>
  <g id="Thin-L" transform="matrix(1 0 0 1 785.1 1556)">
   <path d="M71.3225-6.02191Q79.3203-6.02191 85.9464-10.0208Q92.5725-14.0197 96.5714-20.6458Q100.57-27.2719 100.57-35.2697Q100.57-43.2675 96.5714-49.8936Q92.5725-56.5197 85.9464-60.5186Q79.3203-64.5175 71.3225-64.5175Q63.3247-64.5175 56.6599-60.5186Q49.9951-56.5197 45.9962-49.8936Q41.9973-43.2675 41.9973-35.2697Q41.9973-27.2719 45.9962-20.6458Q49.9951-14.0197 56.6599-10.0208Q63.3247-6.02191 71.3225-6.02191ZM71.3225-9.83497Q64.3652-9.83497 58.5664-13.3136Q52.7677-16.7923 49.3277-22.5523Q45.8878-28.3124 45.8878-35.2697Q45.8878-42.227 49.3277-47.9856Q52.7677-53.7441 58.5664-57.2243Q64.3652-60.7044 71.3225-60.7044Q78.2798-60.7044 84.0399-57.2258Q89.7999-53.7471 93.2399-47.9871Q96.6798-42.227 96.6798-35.2697Q96.6798-28.3124 93.2399-22.5523Q89.7999-16.7923 84.0399-13.3136Q78.2798-9.83497 71.3225-9.83497ZM16.5083-30.0202Q18.6414-30.0202 20.1609-31.5784Q21.6803-33.1365 21.6803-35.2697Q21.6803-37.4029 20.1609-38.961Q18.6414-40.5192 16.5083-40.5192Q14.3751-40.5192 12.8169-38.961Q11.2588-37.4029 11.2588-35.2697Q11.2588-33.1365 12.8169-31.5784Q14.3751-30.0202 16.5083-30.0202ZM32.5269-68.8158Q34.6601-68.8158 36.2182-70.374Q37.7764-71.9321 37.7764-74.0653Q37.7764-76.2015 36.2182-77.7194Q34.6601-79.2374 32.5269-79.2374Q30.3907-79.2374 28.8341-77.7194Q27.2774-76.2015 27.2774-74.0653Q27.2774-71.9321 28.8341-70.374Q30.3907-68.8158 32.5269-68.8158ZM71.3225-84.8345Q73.4557-84.8345 74.9751-86.3539Q76.4946-87.8734 76.4946-90.0839Q76.4946-92.2171 74.9751-93.7753Q73.4557-95.3334 71.3225-95.3334Q69.1893-95.3334 67.6312-93.7753Q66.073-92.2171 66.073-90.0839Q66.073-87.8734 67.6312-86.3539Q69.1893-84.8345 71.3225-84.8345ZM110.118-68.8158Q112.254-68.8158 113.772-70.374Q115.29-71.9321 115.29-74.0653Q115.29-76.2015 113.772-77.7194Q112.254-79.2374 110.118-79.2374Q107.908-79.2374 106.349-77.7194Q104.791-76.2015 104.791-74.0653Q104.791-71.9321 106.349-70.374Q107.908-68.8158 110.118-68.8158ZM126.059-30.0202Q128.273-30.0202 129.83-31.5784Q131.386-33.1365 131.386-35.2697Q131.386-37.4029 129.83-38.961Q128.273-40.5192 126.059-40.5192Q123.926-40.5192 122.368-38.961Q120.81-37.4029 120.81-35.2697Q120.81-33.1365 122.368-31.5784Q123.926-30.0202 126.059-30.0202ZM110.118 8.69796Q112.254 8.69796 113.772 7.18001Q115.29 5.66207 115.29 3.52589Q115.29 1.39273 113.772-0.165423Q112.254-1.72358 110.118-1.72358Q107.908-1.72358 106.349-0.165423Q104.791 1.39273 104.791 3.52589Q104.791 5.66207 106.349 7.18001Q107.908 8.69796 110.118 8.69796ZM71.3225 24.794Q73.4557 24.794 74.9751 23.2359Q76.4946 21.6777 76.4946 19.5445Q76.4946 17.334 74.9751 15.8145Q73.4557 14.2951 71.3225 14.2951Q69.1893 14.2951 67.6312 15.8145Q66.073 17.334 66.073 19.5445Q66.073 21.6777 67.6312 23.2359Q69.1893 24.794 71.3225 24.794ZM32.5269 8.69796Q34.6601 8.69796 36.2182 7.18001Q37.7764 5.66207 37.7764 3.52589Q37.7764 1.39273 36.2182-0.165423Q34.6601-1.72358 32.5269-1.72358Q30.3907-1.72358 28.8341-0.165423Q27.2774 1.39273 27.2774 3.52589Q27.2774 5.66207 28.8341 7.18001Q30.3907 8.69796 32.5269 8.69796Z"/>
  </g>
  <g id="Ultralight-L" transform="matrix(1 0 0 1 489.084 1556)">
   <path d="M70.6274-6.6475Q78.4584-6.6475 84.9385-10.563Q91.4187-14.4785 95.3341-20.9586Q99.2496-27.4387 99.2496-35.2697Q99.2496-43.1007 95.3341-49.5808Q91.4187-56.061 84.9385-59.9764Q78.4584-63.8919 70.6274-63.8919Q62.7964-63.8919 56.2706-59.9764Q49.7448-56.061 45.8294-49.5808Q41.9139-43.1007 41.9139-35.2697Q41.9139-27.4387 45.8294-20.9586Q49.7448-14.4785 56.2706-10.563Q62.7964-6.6475 70.6274-6.6475ZM70.6274-9.19548Q63.4894-9.19548 57.5446-12.7645Q51.5999-16.3335 48.0765-22.2326Q44.5532-28.1317 44.5532-35.2697Q44.5532-42.4077 48.0765-48.3123Q51.5999-54.2168 57.5446-57.7804Q63.4894-61.3439 70.6274-61.3439Q77.7654-61.3439 83.6645-57.7749Q89.5636-54.2059 93.087-48.3068Q96.6103-42.4077 96.6103-35.2697Q96.6103-28.1317 93.087-22.2326Q89.5636-16.3335 83.6645-12.7645Q77.7654-9.19548 70.6274-9.19548ZM16.0356-30.4929Q17.9741-30.4929 19.3476-31.912Q20.7211-33.3312 20.7211-35.2697Q20.7211-37.2082 19.3476-38.6274Q17.9741-40.0465 16.0356-40.0465Q14.0971-40.0465 12.6779-38.6274Q11.2588-37.2082 11.2588-35.2697Q11.2588-33.3312 12.6779-31.912Q14.0971-30.4929 16.0356-30.4929ZM31.9847-69.1356Q33.9233-69.1356 35.3424-70.5547Q36.7615-71.9738 36.7615-73.9124Q36.7615-75.84 35.3424-77.2189Q33.9233-78.5979 31.9847-78.5979Q30.0571-78.5979 28.6325-77.2189Q27.2079-75.84 27.2079-73.9124Q27.2079-71.9738 28.6325-70.5547Q30.0571-69.1356 31.9847-69.1356ZM70.6274-85.0847Q72.5659-85.0847 73.9394-86.4582Q75.3129-87.8317 75.3129-89.8615Q75.3129-91.8001 73.9394-93.2192Q72.5659-94.6383 70.6274-94.6383Q68.6889-94.6383 67.2697-93.2192Q65.8506-91.8001 65.8506-89.8615Q65.8506-87.8317 67.2697-86.4582Q68.6889-85.0847 70.6274-85.0847ZM109.27-69.1356Q111.198-69.1356 112.577-70.5547Q113.956-71.9738 113.956-73.9124Q113.956-75.84 112.577-77.2189Q111.198-78.5979 109.27-78.5979Q107.24-78.5979 105.821-77.2189Q104.402-75.84 104.402-73.9124Q104.402-71.9738 105.821-70.5547Q107.24-69.1356 109.27-69.1356ZM125.128-30.4929Q127.147-30.4929 128.571-31.912Q129.996-33.3312 129.996-35.2697Q129.996-37.2082 128.571-38.6274Q127.147-40.0465 125.128-40.0465Q123.189-40.0465 121.77-38.6274Q120.351-37.2082 120.351-35.2697Q120.351-33.3312 121.77-31.912Q123.189-30.4929 125.128-30.4929ZM109.27 8.05847Q111.198 8.05847 112.577 6.67954Q113.956 5.30062 113.956 3.37297Q113.956 1.43444 112.577 0.015303Q111.198-1.40383 109.27-1.40383Q107.24-1.40383 105.821 0.015303Q104.402 1.43444 104.402 3.37297Q104.402 5.30062 105.821 6.67954Q107.24 8.05847 109.27 8.05847ZM70.6274 24.0989Q72.5659 24.0989 73.9394 22.6798Q75.3129 21.2606 75.3129 19.3221Q75.3129 17.2923 73.9394 15.9188Q72.5659 14.5453 70.6274 14.5453Q68.6889 14.5453 67.2697 15.9188Q65.8506 17.2923 65.8506 19.3221Q65.8506 21.2606 67.2697 22.6798Q68.6889 24.0989 70.6274 24.0989ZM31.9847 8.05847Q33.9233 8.05847 35.3424 6.67954Q36.7615 5.30062 36.7615 3.37297Q36.7615 1.43444 35.3424 0.015303Q33.9233-1.40383 31.9847-1.40383Q30.0571-1.40383 28.6325 0.015303Q27.2079 1.43444 27.2079 3.37297Q27.2079 5.30062 28.6325 6.67954Q30.0571 8.05847 31.9847 8.05847Z"/>
  </g>
  <g id="Black-M" transform="matrix(1 0 0 1 2871.42 1126)">
   <path d="M61.9814-6.86283Q69.7573-6.86283 76.2088-10.7222Q82.6604-14.5817 86.5198-21.0332Q90.3792-27.4847 90.3792-35.2606Q90.3792-43.0366 86.5198-49.4881Q82.6604-55.9396 76.2088-59.799Q69.7573-63.6585 61.9814-63.6585Q54.2054-63.6585 47.7541-59.799Q41.3027-55.9396 37.4433-49.4881Q33.5839-43.0366 33.5839-35.2606Q33.5839-27.4276 37.4147-20.9761Q41.2456-14.5246 47.697-10.6937Q54.1483-6.86283 61.9814-6.86283ZM61.9814-23.0668Q58.688-23.0668 55.9131-24.742Q53.1383-26.4172 51.4629-29.1923Q49.7875-31.9673 49.7875-35.2606Q49.7875-38.6111 51.4629-41.3548Q53.1383-44.0985 55.9131-45.7765Q58.688-47.4545 61.9814-47.4545Q65.3318-47.4545 68.0783-45.7793Q70.8248-44.1041 72.5002-41.3576Q74.1755-38.6111 74.1755-35.2606Q74.1755-31.9673 72.5002-29.1923Q70.8248-26.4172 68.0783-24.742Q65.3318-23.0668 61.9814-23.0668ZM16.4376-27.5457Q19.6763-27.5457 21.9145-29.8124Q24.1528-32.079 24.1528-35.2606Q24.1528-38.4993 21.9145-40.7374Q19.6763-42.9756 16.4376-42.9756Q13.256-42.9756 10.9893-40.7374Q8.72266-38.4993 8.72266-35.2606Q8.72266-32.079 10.9893-29.8124Q13.256-27.5457 16.4376-27.5457ZM29.7773-59.7498Q33.016-59.7498 35.2541-62.0165Q37.4922-64.2831 37.4922-67.4647Q37.4922-70.7089 35.2541-72.9444Q33.016-75.1799 29.7773-75.1799Q26.5902-75.1799 24.3263-72.9444Q22.0624-70.7089 22.0624-67.4647Q22.0624-64.2831 24.3263-62.0165Q26.5902-59.7498 29.7773-59.7498ZM61.9814-73.0895Q65.2201-73.0895 67.4583-75.3563Q69.6966-77.6231 69.6966-80.8044Q69.6966-84.0431 67.4583-86.2813Q65.2201-88.5194 61.9814-88.5194Q58.7998-88.5194 56.5331-86.2813Q54.2665-84.0431 54.2665-80.8044Q54.2665-77.6231 56.5331-75.3563Q58.7998-73.0895 61.9814-73.0895ZM94.1854-59.7498Q97.4296-59.7498 99.6651-62.0165Q101.901-64.2831 101.901-67.4647Q101.901-70.7089 99.6651-72.9444Q97.4296-75.1799 94.1854-75.1799Q91.0041-75.1799 88.7375-72.9444Q86.4708-70.7089 86.4708-67.4647Q86.4708-64.2831 88.7375-62.0165Q91.0041-59.7498 94.1854-59.7498ZM107.525-27.5457Q110.769-27.5457 113.005-29.8124Q115.24-32.079 115.24-35.2606Q115.24-38.4993 113.005-40.7374Q110.769-42.9756 107.525-42.9756Q104.344-42.9756 102.077-40.7374Q99.8106-38.4993 99.8106-35.2606Q99.8106-32.079 102.077-29.8124Q104.344-27.5457 107.525-27.5457ZM94.1854 4.65863Q97.4296 4.65863 99.6651 2.39458Q101.901 0.130537 101.901-3.05658Q101.901-6.29528 99.6651-8.53338Q97.4296-10.7715 94.1854-10.7715Q91.0041-10.7715 88.7375-8.53338Q86.4708-6.29528 86.4708-3.05658Q86.4708 0.130537 88.7375 2.39458Q91.0041 4.65863 94.1854 4.65863ZM61.9814 17.9981Q65.2201 17.9981 67.4583 15.7314Q69.6966 13.4648 69.6966 10.2832Q69.6966 7.04476 67.4583 4.80651Q65.2201 2.56825 61.9814 2.56825Q58.7998 2.56825 56.5331 4.80651Q54.2665 7.04476 54.2665 10.2832Q54.2665 13.4648 56.5331 15.7314Q58.7998 17.9981 61.9814 17.9981ZM29.7773 4.65863Q33.016 4.65863 35.2541 2.39458Q37.4922 0.130537 37.4922-3.05658Q37.4922-6.29528 35.2541-8.53338Q33.016-10.7715 29.7773-10.7715Q26.5902-10.7715 24.3263-8.53338Q22.0624-6.29528 22.0624-3.05658Q22.0624 0.130537 24.3263 2.39458Q26.5902 4.65863 29.7773 4.65863Z"/>
  </g>
  <g id="Heavy-M" transform="matrix(1 0 0 1 2575.72 1126)">
   <path d="M60.968-7.70071Q68.5088-7.70071 74.7698-11.4493Q81.0308-15.1979 84.7794-21.4589Q88.528-27.7198 88.528-35.2606Q88.528-42.8014 84.7794-49.0624Q81.0308-55.3234 74.7698-59.072Q68.5088-62.8206 60.968-62.8206Q53.4272-62.8206 47.165-59.072Q40.9028-55.3234 37.1543-49.0624Q33.4057-42.8014 33.4057-35.2606Q33.4057-27.6762 37.1324-21.4152Q40.8592-15.1543 47.1214-11.4275Q53.3836-7.70071 60.968-7.70071ZM60.968-21.8219Q57.329-21.8219 54.2693-23.6632Q51.2095-25.5046 49.3694-28.5631Q47.5293-31.6216 47.5293-35.2606Q47.5293-38.9433 49.3694-41.9719Q51.2095-45.0005 54.2693-46.8499Q57.329-48.6994 60.968-48.6994Q64.6507-48.6994 67.6874-46.8581Q70.7241-45.0167 72.5642-41.98Q74.4043-38.9433 74.4043-35.2606Q74.4043-31.6216 72.5642-28.5631Q70.7241-25.5046 67.6874-23.6632Q64.6507-21.8219 60.968-21.8219ZM15.9668-28.0165Q18.9918-28.0165 21.1002-30.1479Q23.2085-32.2792 23.2085-35.2606Q23.2085-38.2857 21.1002-40.3952Q18.9918-42.5048 15.9668-42.5048Q12.9854-42.5048 10.854-40.3952Q8.72266-38.2857 8.72266-35.2606Q8.72266-32.2792 10.854-30.1479Q12.9854-28.0165 15.9668-28.0165ZM29.1446-59.84Q32.1696-59.84 34.2791-61.9713Q36.3887-64.1027 36.3887-67.0841Q36.3887-70.1254 34.2791-72.2256Q32.1696-74.3258 29.1446-74.3258Q26.1469-74.3258 24.0237-72.2256Q21.9004-70.1254 21.9004-67.0841Q21.9004-64.1027 24.0237-61.9713Q26.1469-59.84 29.1446-59.84ZM60.968-73.0178Q63.9931-73.0178 66.1014-75.1479Q68.2097-77.278 68.2097-80.2619Q68.2097-83.2869 66.1014-85.3965Q63.9931-87.506 60.968-87.506Q57.9866-87.506 55.8553-85.3965Q53.7239-83.2869 53.7239-80.2619Q53.7239-77.278 55.8553-75.1479Q57.9866-73.0178 60.968-73.0178ZM92.7915-59.84Q95.8328-59.84 97.933-61.9713Q100.033-64.1027 100.033-67.0841Q100.033-70.1254 97.933-72.2256Q95.8328-74.3258 92.7915-74.3258Q89.8077-74.3258 87.6763-72.2256Q85.5449-70.1254 85.5449-67.0841Q85.5449-64.1027 87.6763-61.9713Q89.8077-59.84 92.7915-59.84ZM105.967-28.0165Q109.011-28.0165 111.112-30.1479Q113.213-32.2792 113.213-35.2606Q113.213-38.2857 111.112-40.3952Q109.011-42.5048 105.967-42.5048Q102.985-42.5048 100.854-40.3952Q98.7227-38.2857 98.7227-35.2606Q98.7227-32.2792 100.854-30.1479Q102.985-28.0165 105.967-28.0165ZM92.7915 3.80453Q95.8328 3.80453 97.933 1.68251Q100.033-0.43951 100.033-3.43717Q100.033-6.46221 97.933-8.57175Q95.8328-10.6813 92.7915-10.6813Q89.8077-10.6813 87.6763-8.57175Q85.5449-6.46221 85.5449-3.43717Q85.5449-0.43951 87.6763 1.68251Q89.8077 3.80453 92.7915 3.80453ZM60.968 16.9847Q63.9931 16.9847 66.1014 14.8534Q68.2097 12.722 68.2097 9.7406Q68.2097 6.71312 66.1014 4.60479Q63.9931 2.49647 60.968 2.49647Q57.9866 2.49647 55.8553 4.60479Q53.7239 6.71312 53.7239 9.7406Q53.7239 12.722 55.8553 14.8534Q57.9866 16.9847 60.968 16.9847ZM29.1446 3.80453Q32.1696 3.80453 34.2791 1.68251Q36.3887-0.43951 36.3887-3.43717Q36.3887-6.46221 34.2791-8.57175Q32.1696-10.6813 29.1446-10.6813Q26.1469-10.6813 24.0237-8.57175Q21.9004-6.46221 21.9004-3.43717Q21.9004-0.43951 24.0237 1.68251Q26.1469 3.80453 29.1446 3.80453Z"/>
  </g>
  <g id="Bold-M" transform="matrix(1 0 0 1 2280.14 1126)">
   <path d="M59.8345-8.638Q67.1123-8.638 73.1601-12.2626Q79.2079-15.8873 82.8325-21.9351Q86.4571-27.9828 86.4571-35.2606Q86.4571-42.5384 82.8325-48.5862Q79.2079-54.634 73.1601-58.2587Q67.1123-61.8833 59.8345-61.8833Q52.5567-61.8833 46.5061-58.2587Q40.4556-54.634 36.831-48.5862Q33.2063-42.5384 33.2063-35.2606Q33.2063-27.9543 36.8167-21.9065Q40.427-15.8587 46.4776-12.2484Q52.5281-8.638 59.8345-8.638ZM59.8345-20.4293Q55.8088-20.4293 52.4303-22.4565Q49.0519-24.4836 47.0275-27.8593Q45.0032-31.2349 45.0032-35.2606Q45.0032-39.3149 47.0275-42.6622Q49.0519-46.0095 52.4303-48.0507Q55.8088-50.092 59.8345-50.092Q63.8887-50.092 67.2502-48.0648Q70.6116-46.0377 72.6359-42.6763Q74.6603-39.3149 74.6603-35.2606Q74.6603-31.2349 72.6359-27.8593Q70.6116-24.4836 67.2502-22.4565Q63.8887-20.4293 59.8345-20.4293ZM15.4402-28.5431Q18.2262-28.5431 20.1892-30.5231Q22.1522-32.5032 22.1522-35.2606Q22.1522-38.0467 20.1892-40.0124Q18.2262-41.9782 15.4402-41.9782Q12.6827-41.9782 10.7027-40.0124Q8.72266-38.0467 8.72266-35.2606Q8.72266-32.5032 10.7027-30.5231Q12.6827-28.5431 15.4402-28.5431ZM28.4368-59.9409Q31.2228-59.9409 33.1885-61.9209Q35.1543-63.9009 35.1543-66.6584Q35.1543-69.4726 33.1885-71.4215Q31.2228-73.3704 28.4368-73.3704Q25.651-73.3704 23.6851-71.4215Q21.7192-69.4726 21.7192-66.6584Q21.7192-63.9009 23.6851-61.9209Q25.651-59.9409 28.4368-59.9409ZM59.8345-72.9375Q62.6205-72.9375 64.5835-74.9147Q66.5465-76.892 66.5465-79.655Q66.5465-82.441 64.5835-84.4067Q62.6205-86.3725 59.8345-86.3725Q57.077-86.3725 55.097-84.4067Q53.117-82.441 53.117-79.655Q53.117-76.892 55.097-74.9147Q57.077-72.9375 59.8345-72.9375ZM91.2322-59.9409Q94.0465-59.9409 95.9954-61.9209Q97.9442-63.9009 97.9442-66.6584Q97.9442-69.4726 95.9954-71.4215Q94.0465-73.3704 91.2322-73.3704Q88.4692-73.3704 86.4892-71.4215Q84.5092-69.4726 84.5092-66.6584Q84.5092-63.9009 86.4892-61.9209Q88.4692-59.9409 91.2322-59.9409ZM104.223-28.5431Q107.043-28.5431 108.995-30.5231Q110.946-32.5032 110.946-35.2606Q110.946-38.0467 108.995-40.0124Q107.043-41.9782 104.223-41.9782Q101.466-41.9782 99.4858-40.0124Q97.5058-38.0467 97.5058-35.2606Q97.5058-32.5032 99.4858-30.5231Q101.466-28.5431 104.223-28.5431ZM91.2322 2.84909Q94.0465 2.84909 95.9954 0.885948Q97.9442-1.07719 97.9442-3.86291Q97.9442-6.64893 95.9954-8.61468Q94.0465-10.5804 91.2322-10.5804Q88.4692-10.5804 86.4892-8.61468Q84.5092-6.64893 84.5092-3.86291Q84.5092-1.07719 86.4892 0.885948Q88.4692 2.84909 91.2322 2.84909ZM59.8345 15.8512Q62.6205 15.8512 64.5835 13.8712Q66.5465 11.8912 66.5465 9.13368Q66.5465 6.34213 64.5835 4.37915Q62.6205 2.41617 59.8345 2.41617Q57.077 2.41617 55.097 4.37915Q53.117 6.34213 53.117 9.13368Q53.117 11.8912 55.097 13.8712Q57.077 15.8512 59.8345 15.8512ZM28.4368 2.84909Q31.2228 2.84909 33.1885 0.885948Q35.1543-1.07719 35.1543-3.86291Q35.1543-6.64893 33.1885-8.61468Q31.2228-10.5804 28.4368-10.5804Q25.651-10.5804 23.6851-8.61468Q21.7192-6.64893 21.7192-3.86291Q21.7192-1.07719 23.6851 0.885948Q25.651 2.84909 28.4368 2.84909Z"/>
  </g>
  <g id="Semibold-M" transform="matrix(1 0 0 1 1984.21 1126)">
   <path d="M59.053-9.28417Q66.1495-9.28417 72.0503-12.8233Q77.9512-16.3625 81.4903-22.2633Q85.0295-28.1642 85.0295-35.2606Q85.0295-42.3571 81.4903-48.258Q77.9512-54.1588 72.0503-57.698Q66.1495-61.2371 59.053-61.2371Q51.9565-61.2371 46.0519-57.698Q40.1472-54.1588 36.6081-48.258Q33.0689-42.3571 33.0689-35.2606Q33.0689-28.146 36.599-22.2452Q40.1291-16.3443 46.0337-12.8143Q51.9384-9.28417 59.053-9.28417ZM59.053-19.4693Q54.7608-19.4693 51.1626-21.6245Q47.5645-23.7797 45.4131-27.374Q43.2617-30.9684 43.2617-35.2606Q43.2617-39.5711 45.4131-43.1381Q47.5645-46.7051 51.1626-48.8785Q54.7608-51.052 59.053-51.052Q63.3635-51.052 66.9487-48.8968Q70.5339-46.7416 72.6853-43.1563Q74.8367-39.5711 74.8367-35.2606Q74.8367-30.9684 72.6853-27.374Q70.5339-23.7797 66.9487-21.6245Q63.3635-19.4693 59.053-19.4693ZM15.0771-28.9062Q17.6984-28.9062 19.5612-30.7819Q21.4239-32.6575 21.4239-35.2606Q21.4239-37.8819 19.5612-39.7485Q17.6984-41.6151 15.0771-41.6151Q12.474-41.6151 10.5983-39.7485Q8.72266-37.8819 8.72266-35.2606Q8.72266-32.6575 10.5983-30.7819Q12.474-28.9062 15.0771-28.9062ZM27.9488-60.0104Q30.57-60.0104 32.4367-61.8861Q34.3033-63.7618 34.3033-66.3649Q34.3033-69.0226 32.4367-70.8672Q30.57-72.7117 27.9488-72.7117Q25.3092-72.7117 23.4518-70.8672Q21.5943-69.0226 21.5943-66.3649Q21.5943-63.7618 23.4518-61.8861Q25.3092-60.0104 27.9488-60.0104ZM59.053-72.8821Q61.6743-72.8821 63.5371-74.754Q65.3999-76.6258 65.3999-79.2366Q65.3999-81.8578 63.5371-83.7244Q61.6743-85.591 59.053-85.591Q56.4499-85.591 54.5743-83.7244Q52.6986-81.8578 52.6986-79.2366Q52.6986-76.6258 54.5743-74.754Q56.4499-72.8821 59.053-72.8821ZM90.1573-60.0104Q92.815-60.0104 94.6596-61.8861Q96.5041-63.7618 96.5041-66.3649Q96.5041-69.0226 94.6596-70.8672Q92.815-72.7117 90.1573-72.7117Q87.5465-72.7117 85.6708-70.8672Q83.7952-69.0226 83.7952-66.3649Q83.7952-63.7618 85.6708-61.8861Q87.5465-60.0104 90.1573-60.0104ZM103.021-28.9062Q105.687-28.9062 107.535-30.7819Q109.383-32.6575 109.383-35.2606Q109.383-37.8819 107.535-39.7485Q105.687-41.6151 103.021-41.6151Q100.418-41.6151 98.5425-39.7485Q96.6668-37.8819 96.6668-35.2606Q96.6668-32.6575 98.5425-30.7819Q100.418-28.9062 103.021-28.9062ZM90.1573 2.19041Q92.815 2.19041 94.6596 0.336804Q96.5041-1.5168 96.5041-4.15641Q96.5041-6.77766 94.6596-8.64427Q92.815-10.5109 90.1573-10.5109Q87.5465-10.5109 85.6708-8.64427Q83.7952-6.77766 83.7952-4.15641Q83.7952-1.5168 85.6708 0.336804Q87.5465 2.19041 90.1573 2.19041ZM59.053 15.0697Q61.6743 15.0697 63.5371 13.194Q65.3999 11.3184 65.3999 8.71527Q65.3999 6.08637 63.5371 4.22359Q61.6743 2.36081 59.053 2.36081Q56.4499 2.36081 54.5743 4.22359Q52.6986 6.08637 52.6986 8.71527Q52.6986 11.3184 54.5743 13.194Q56.4499 15.0697 59.053 15.0697ZM27.9488 2.19041Q30.57 2.19041 32.4367 0.336804Q34.3033-1.5168 34.3033-4.15641Q34.3033-6.77766 32.4367-8.64427Q30.57-10.5109 27.9488-10.5109Q25.3092-10.5109 23.4518-8.64427Q21.5943-6.77766 21.5943-4.15641Q21.5943-1.5168 23.4518 0.336804Q25.3092 2.19041 27.9488 2.19041Z"/>
  </g>
  <g id="Medium-M" transform="matrix(1 0 0 1 1688.1 1126)">
   <path d="M58.4605-9.77411Q65.4195-9.77411 71.2089-13.2485Q76.9983-16.7228 80.4727-22.5122Q83.947-28.3016 83.947-35.2606Q83.947-42.2196 80.4727-48.009Q76.9983-53.7985 71.2089-57.2728Q65.4195-60.7472 58.4605-60.7472Q51.5015-60.7472 45.7075-57.2728Q39.9134-53.7985 36.4391-48.009Q32.9647-42.2196 32.9647-35.2606Q32.9647-28.2914 36.4339-22.502Q39.9032-16.7126 45.6972-13.2433Q51.4912-9.77411 58.4605-9.77411ZM58.4605-18.7414Q53.9661-18.7414 50.2014-20.9937Q46.4366-23.246 44.1889-27.0061Q41.9412-30.7662 41.9412-35.2606Q41.9412-39.7653 44.1889-43.4989Q46.4366-47.2325 50.2014-49.5062Q53.9661-51.7799 58.4605-51.7799Q62.9652-51.7799 66.7201-49.5276Q70.4751-47.2753 72.7228-43.5203Q74.9705-39.7653 74.9705-35.2606Q74.9705-30.7662 72.7228-27.0061Q70.4751-23.246 66.7201-20.9937Q62.9652-18.7414 58.4605-18.7414ZM14.8018-29.1815Q17.2982-29.1815 19.085-30.978Q20.8718-32.7746 20.8718-35.2606Q20.8718-37.757 19.085-39.5484Q17.2982-41.3398 14.8018-41.3398Q12.3158-41.3398 10.5192-39.5484Q8.72266-37.757 8.72266-35.2606Q8.72266-32.7746 10.5192-30.978Q12.3158-29.1815 14.8018-29.1815ZM27.5788-60.0632Q30.0751-60.0632 31.8666-61.8597Q33.658-63.6563 33.658-66.1423Q33.658-68.6814 31.8666-70.4468Q30.0751-72.2123 27.5788-72.2123Q25.05-72.2123 23.2748-70.4468Q21.4996-68.6814 21.4996-66.1423Q21.4996-63.6563 23.2748-61.8597Q25.05-60.0632 27.5788-60.0632ZM58.4605-72.8401Q60.9568-72.8401 62.7436-74.6321Q64.5304-76.424 64.5304-78.9193Q64.5304-81.4156 62.7436-83.207Q60.9568-84.9985 58.4605-84.9985Q55.9745-84.9985 54.1779-83.207Q52.3813-81.4156 52.3813-78.9193Q52.3813-76.424 54.1779-74.6321Q55.9745-72.8401 58.4605-72.8401ZM89.3422-60.0632Q91.8813-60.0632 93.6467-61.8597Q95.4121-63.6563 95.4121-66.1423Q95.4121-68.6814 93.6467-70.4468Q91.8813-72.2123 89.3422-72.2123Q86.8469-72.2123 85.0503-70.4468Q83.2538-68.6814 83.2538-66.1423Q83.2538-63.6563 85.0503-61.8597Q86.8469-60.0632 89.3422-60.0632ZM102.11-29.1815Q104.658-29.1815 106.428-30.978Q108.198-32.7746 108.198-35.2606Q108.198-37.757 106.428-39.5484Q104.658-41.3398 102.11-41.3398Q99.6239-41.3398 97.8273-39.5484Q96.0307-37.757 96.0307-35.2606Q96.0307-32.7746 97.8273-30.978Q99.6239-29.1815 102.11-29.1815ZM89.3422 1.69098Q91.8813 1.69098 93.6467-0.0795794Q95.4121-1.85014 95.4121-4.37895Q95.4121-6.87527 93.6467-8.6667Q91.8813-10.4581 89.3422-10.4581Q86.8469-10.4581 85.0503-8.6667Q83.2538-6.87527 83.2538-4.37895Q83.2538-1.85014 85.0503-0.0795794Q86.8469 1.69098 89.3422 1.69098ZM58.4605 14.4772Q60.9568 14.4772 62.7436 12.6806Q64.5304 10.884 64.5304 8.39801Q64.5304 5.89245 62.7436 4.10564Q60.9568 2.31883 58.4605 2.31883Q55.9745 2.31883 54.1779 4.10564Q52.3813 5.89245 52.3813 8.39801Q52.3813 10.884 54.1779 12.6806Q55.9745 14.4772 58.4605 14.4772ZM27.5788 1.69098Q30.0751 1.69098 31.8666-0.0795794Q33.658-1.85014 33.658-4.37895Q33.658-6.87527 31.8666-8.6667Q30.0751-10.4581 27.5788-10.4581Q25.05-10.4581 23.2748-8.6667Q21.4996-6.87527 21.4996-4.37895Q21.4996-1.85014 23.2748-0.0795794Q25.05 1.69098 27.5788 1.69098Z"/>
  </g>
  <g id="Regular-M" transform="matrix(1 0 0 1 1392.16 1126)">
   <path d="M57.6876-10.4132Q64.4673-10.4132 70.1114-13.803Q75.7554-17.1929 79.1452-22.8369Q82.5351-28.481 82.5351-35.2606Q82.5351-42.0403 79.1452-47.6844Q75.7554-53.3284 70.1114-56.7183Q64.4673-60.1081 57.6876-60.1081Q50.9079-60.1081 45.2582-56.7183Q39.6085-53.3284 36.2186-47.6844Q32.8288-42.0403 32.8288-35.2606Q32.8288-28.481 36.2186-22.8369Q39.6085-17.1929 45.2582-13.803Q50.9079-10.4132 57.6876-10.4132ZM57.6876-17.7919Q52.9296-17.7919 48.9476-20.1709Q44.9656-22.5499 42.5922-26.5263Q40.2189-30.5026 40.2189-35.2606Q40.2189-40.0187 42.5922-43.9695Q44.9656-47.9204 48.9476-50.3249Q52.9296-52.7294 57.6876-52.7294Q62.4457-52.7294 66.422-50.3504Q70.3983-47.9714 72.7717-43.995Q75.145-40.0187 75.145-35.2606Q75.145-30.5026 72.7717-26.5263Q70.3983-22.5499 66.422-20.1709Q62.4457-17.7919 57.6876-17.7919ZM14.4428-29.5405Q16.7761-29.5405 18.4638-31.2339Q20.1515-32.9273 20.1515-35.2606Q20.1515-37.594 18.4638-39.2874Q16.7761-40.9808 14.4428-40.9808Q12.1094-40.9808 10.416-39.2874Q8.72266-37.594 8.72266-35.2606Q8.72266-32.9273 10.416-31.2339Q12.1094-29.5405 14.4428-29.5405ZM27.0962-60.1319Q29.4296-60.1319 31.1229-61.8253Q32.8163-63.5187 32.8163-65.8521Q32.8163-68.2364 31.1229-69.8986Q29.4296-71.5608 27.0962-71.5608Q24.7119-71.5608 23.044-69.8986Q21.3761-68.2364 21.3761-65.8521Q21.3761-63.5187 23.044-61.8253Q24.7119-60.1319 27.0962-60.1319ZM57.6876-72.7854Q60.021-72.7854 61.7087-74.4731Q63.3964-76.1608 63.3964-78.5055Q63.3964-80.8388 61.7087-82.5322Q60.021-84.2256 57.6876-84.2256Q55.3543-84.2256 53.6609-82.5322Q51.9675-80.8388 51.9675-78.5055Q51.9675-76.1608 53.6609-74.4731Q55.3543-72.7854 57.6876-72.7854ZM88.279-60.1319Q90.6633-60.1319 92.3256-61.8253Q93.9878-63.5187 93.9878-65.8521Q93.9878-68.2364 92.3256-69.8986Q90.6633-71.5608 88.279-71.5608Q85.9343-71.5608 84.2409-69.8986Q82.5476-68.2364 82.5476-65.8521Q82.5476-63.5187 84.2409-61.8253Q85.9343-60.1319 88.279-60.1319ZM100.921-29.5405Q103.317-29.5405 104.985-31.2339Q106.653-32.9273 106.653-35.2606Q106.653-37.594 104.985-39.2874Q103.317-40.9808 100.921-40.9808Q98.5878-40.9808 96.8944-39.2874Q95.201-37.594 95.201-35.2606Q95.201-32.9273 96.8944-31.2339Q98.5878-29.5405 100.921-29.5405ZM88.279 1.03954Q90.6633 1.03954 92.3256-0.622688Q93.9878-2.28492 93.9878-4.66923Q93.9878-7.00259 92.3256-8.69597Q90.6633-10.3894 88.279-10.3894Q85.9343-10.3894 84.2409-8.69597Q82.5476-7.00259 82.5476-4.66923Q82.5476-2.28492 84.2409-0.622688Q85.9343 1.03954 88.279 1.03954ZM57.6876 13.7043Q60.021 13.7043 61.7087 12.0109Q63.3964 10.3176 63.3964 7.9842Q63.3964 5.6395 61.7087 3.95179Q60.021 2.26408 57.6876 2.26408Q55.3543 2.26408 53.6609 3.95179Q51.9675 5.6395 51.9675 7.9842Q51.9675 10.3176 53.6609 12.0109Q55.3543 13.7043 57.6876 13.7043ZM27.0962 1.03954Q29.4296 1.03954 31.1229-0.622688Q32.8163-2.28492 32.8163-4.66923Q32.8163-7.00259 31.1229-8.69597Q29.4296-10.3894 27.0962-10.3894Q24.7119-10.3894 23.044-8.69597Q21.3761-7.00259 21.3761-4.66923Q21.3761-2.28492 23.044-0.622688Q24.7119 1.03954 27.0962 1.03954Z"/>
  </g>
  <g id="Light-M" transform="matrix(1 0 0 1 1096.37 1126)">
   <path d="M56.7677-11.2411Q63.3266-11.2411 68.7774-14.5206Q74.2283-17.8 77.5077-23.2509Q80.7872-28.7018 80.7872-35.2606Q80.7872-41.8195 77.5077-47.2704Q74.2283-52.7213 68.7774-56.0007Q63.3266-59.2802 56.7677-59.2802Q50.2088-59.2802 44.743-56.0007Q39.2773-52.7213 35.9979-47.2704Q32.7184-41.8195 32.7184-35.2606Q32.7184-28.7018 35.9979-23.2509Q39.2773-17.8 44.743-14.5206Q50.2088-11.2411 56.7677-11.2411ZM56.7677-16.9455Q51.7704-16.9455 47.5952-19.4441Q43.42-21.9428 40.9363-26.1031Q38.4526-30.2634 38.4526-35.2606Q38.4526-40.2579 40.9363-44.4019Q43.42-48.546 47.5952-51.0609Q51.7704-53.5758 56.7677-53.5758Q61.7649-53.5758 65.9252-51.0771Q70.0856-48.5785 72.5693-44.4182Q75.053-40.2579 75.053-35.2606Q75.053-30.2634 72.5693-26.1031Q70.0856-21.9428 65.9252-19.4441Q61.7649-16.9455 56.7677-16.9455ZM13.8172-30.1661Q15.893-30.1661 17.3875-31.6755Q18.882-33.1849 18.882-35.2606Q18.882-37.3364 17.3875-38.8458Q15.893-40.3552 13.8172-40.3552Q11.7414-40.3552 10.232-38.8458Q8.72266-37.3364 8.72266-35.2606Q8.72266-33.1849 10.232-31.6755Q11.7414-30.1661 13.8172-30.1661ZM26.3786-60.5551Q28.4544-60.5551 29.9638-62.0645Q31.4732-63.5739 31.4732-65.6497Q31.4732-67.758 29.9638-69.2362Q28.4544-70.7145 26.3786-70.7145Q24.2703-70.7145 22.7772-69.2362Q21.2841-67.758 21.2841-65.6497Q21.2841-63.5739 22.7772-62.0645Q24.2703-60.5551 26.3786-60.5551ZM56.7677-73.1165Q58.8434-73.1165 60.338-74.6111Q61.8325-76.1056 61.8325-78.2111Q61.8325-80.2869 60.338-81.7963Q58.8434-83.3057 56.7677-83.3057Q54.6919-83.3057 53.1825-81.7963Q51.6731-80.2869 51.6731-78.2111Q51.6731-76.1056 53.1825-74.6111Q54.6919-73.1165 56.7677-73.1165ZM87.1567-60.5551Q89.265-60.5551 90.7433-62.0645Q92.2215-63.5739 92.2215-65.6497Q92.2215-67.758 90.7433-69.2362Q89.265-70.7145 87.1567-70.7145Q85.0512-70.7145 83.5418-69.2362Q82.0324-67.758 82.0324-65.6497Q82.0324-63.5739 83.5418-62.0645Q85.0512-60.5551 87.1567-60.5551ZM99.6884-30.1661Q101.826-30.1661 103.32-31.6755Q104.813-33.1849 104.813-35.2606Q104.813-37.3364 103.32-38.8458Q101.826-40.3552 99.6884-40.3552Q97.6126-40.3552 96.1032-38.8458Q94.5938-37.3364 94.5938-35.2606Q94.5938-33.1849 96.1032-31.6755Q97.6126-30.1661 99.6884-30.1661ZM87.1567 0.193188Q89.265 0.193188 90.7433-1.28505Q92.2215-2.76329 92.2215-4.87162Q92.2215-6.94739 90.7433-8.45678Q89.265-9.96617 87.1567-9.96617Q85.0512-9.96617 83.5418-8.45678Q82.0324-6.94739 82.0324-4.87162Q82.0324-2.76329 83.5418-1.28505Q85.0512 0.193188 87.1567 0.193188ZM56.7677 12.7844Q58.8434 12.7844 60.338 11.275Q61.8325 9.76558 61.8325 7.68981Q61.8325 5.5843 60.338 4.08978Q58.8434 2.59526 56.7677 2.59526Q54.6919 2.59526 53.1825 4.08978Q51.6731 5.5843 51.6731 7.68981Q51.6731 9.76558 53.1825 11.275Q54.6919 12.7844 56.7677 12.7844ZM26.3786 0.193188Q28.4544 0.193188 29.9638-1.28505Q31.4732-2.76329 31.4732-4.87162Q31.4732-6.94739 29.9638-8.45678Q28.4544-9.96617 26.3786-9.96617Q24.2703-9.96617 22.7772-8.45678Q21.2841-6.94739 21.2841-4.87162Q21.2841-2.76329 22.7772-1.28505Q24.2703 0.193188 26.3786 0.193188Z"/>
  </g>
  <g id="Thin-M" transform="matrix(1 0 0 1 800.871 1126)">
   <path d="M55.551-12.3362Q61.8178-12.3362 67.0132-15.4696Q72.2086-18.603 75.342-23.7984Q78.4754-28.9938 78.4754-35.2606Q78.4754-41.5275 75.342-46.7229Q72.2086-51.9182 67.0132-55.0517Q61.8178-58.1851 55.551-58.1851Q49.2841-58.1851 44.0617-55.0517Q38.8393-51.9182 35.7058-46.7229Q32.5724-41.5275 32.5724-35.2606Q32.5724-28.9938 35.7058-23.7984Q38.8393-18.603 44.0617-15.4696Q49.2841-12.3362 55.551-12.3362ZM55.551-15.8262Q50.2374-15.8262 45.8067-18.4829Q41.376-21.1397 38.7462-25.5434Q36.1165-29.9471 36.1165-35.2606Q36.1165-40.5742 38.7462-44.9738Q41.376-49.3733 45.8067-52.0342Q50.2374-54.6951 55.551-54.6951Q60.8645-54.6951 65.2682-52.0383Q69.6719-49.3816 72.3016-44.9779Q74.9314-40.5742 74.9314-35.2606Q74.9314-29.9471 72.3016-25.5434Q69.6719-21.1397 65.2682-18.4829Q60.8645-15.8262 55.551-15.8262ZM12.9898-30.9935Q14.7249-30.9935 15.9639-32.2595Q17.203-33.5256 17.203-35.2606Q17.203-36.9957 15.9639-38.2618Q14.7249-39.5278 12.9898-39.5278Q11.2548-39.5278 9.98871-38.2618Q8.72266-36.9957 8.72266-35.2606Q8.72266-33.5256 9.98871-32.2595Q11.2548-30.9935 12.9898-30.9935ZM25.4296-61.1148Q27.1647-61.1148 28.4308-62.3809Q29.6968-63.6469 29.6968-65.382Q29.6968-67.1253 28.4308-68.3602Q27.1647-69.5951 25.4296-69.5951Q23.6863-69.5951 22.4244-68.3602Q21.1624-67.1253 21.1624-65.382Q21.1624-63.6469 22.4244-62.3809Q23.6863-61.1148 25.4296-61.1148ZM55.551-73.5546Q57.286-73.5546 58.5251-74.7936Q59.7641-76.0326 59.7641-77.8218Q59.7641-79.5568 58.5251-80.8229Q57.286-82.0889 55.551-82.0889Q53.8159-82.0889 52.5498-80.8229Q51.2838-79.5568 51.2838-77.8218Q51.2838-76.0326 52.5498-74.7936Q53.8159-73.5546 55.551-73.5546ZM85.6723-61.1148Q87.4156-61.1148 88.6505-62.3809Q89.8854-63.6469 89.8854-65.382Q89.8854-67.1253 88.6505-68.3602Q87.4156-69.5951 85.6723-69.5951Q83.8831-69.5951 82.6171-68.3602Q81.351-67.1253 81.351-65.382Q81.351-63.6469 82.6171-62.3809Q83.8831-61.1148 85.6723-61.1148ZM98.058-30.9935Q99.8554-30.9935 101.117-32.2595Q102.379-33.5256 102.379-35.2606Q102.379-36.9957 101.117-38.2618Q99.8554-39.5278 98.058-39.5278Q96.3229-39.5278 95.0569-38.2618Q93.7908-36.9957 93.7908-35.2606Q93.7908-33.5256 95.0569-32.2595Q96.3229-30.9935 98.058-30.9935ZM85.6723-0.926183Q87.4156-0.926183 88.6505-2.16108Q89.8854-3.39598 89.8854-5.1393Q89.8854-6.87439 88.6505-8.14044Q87.4156-9.40649 85.6723-9.40649Q83.8831-9.40649 82.6171-8.14044Q81.351-6.87439 81.351-5.1393Q81.351-3.39598 82.6171-2.16108Q83.8831-0.926183 85.6723-0.926183ZM55.551 11.5677Q57.286 11.5677 58.5251 10.3016Q59.7641 9.03556 59.7641 7.30047Q59.7641 5.5113 58.5251 4.27229Q57.286 3.03328 55.551 3.03328Q53.8159 3.03328 52.5498 4.27229Q51.2838 5.5113 51.2838 7.30047Q51.2838 9.03556 52.5498 10.3016Q53.8159 11.5677 55.551 11.5677ZM25.4296-0.926183Q27.1647-0.926183 28.4308-2.16108Q29.6968-3.39598 29.6968-5.1393Q29.6968-6.87439 28.4308-8.14044Q27.1647-9.40649 25.4296-9.40649Q23.6863-9.40649 22.4244-8.14044Q21.1624-6.87439 21.1624-5.1393Q21.1624-3.39598 22.4244-2.16108Q23.6863-0.926183 25.4296-0.926183Z"/>
  </g>
  <g id="Ultralight-M" transform="matrix(1 0 0 1 504.783 1126)">
   <path d="M54.9278-12.897Q61.0451-12.897 66.1096-15.9557Q71.1741-19.0144 74.2327-24.0788Q77.2914-29.1433 77.2914-35.2606Q77.2914-41.378 74.2327-46.4424Q71.1741-51.5069 66.1096-54.5656Q61.0451-57.6242 54.9278-57.6242Q48.8105-57.6242 43.7127-54.5656Q38.6149-51.5069 35.5563-46.4424Q32.4976-41.378 32.4976-35.2606Q32.4976-29.1433 35.5563-24.0788Q38.6149-19.0144 43.7127-15.9557Q48.8105-12.897 54.9278-12.897ZM54.9278-15.2528Q49.4522-15.2528 44.8906-17.9906Q40.329-20.7284 37.6245-25.2567Q34.9199-29.785 34.9199-35.2606Q34.9199-40.7362 37.6245-45.2667Q40.329-49.7971 44.8906-52.5328Q49.4522-55.2685 54.9278-55.2685Q60.4034-55.2685 64.9317-52.5307Q69.46-49.7929 72.1645-45.2646Q74.869-40.7362 74.869-35.2606Q74.869-29.785 72.1645-25.2567Q69.46-20.7284 64.9317-17.9906Q60.4034-15.2528 54.9278-15.2528ZM12.5661-31.4172Q14.1267-31.4172 15.2348-32.5586Q16.343-33.7 16.343-35.2606Q16.343-36.8212 15.2348-37.9627Q14.1267-39.1041 12.5661-39.1041Q11.0055-39.1041 9.86407-37.9627Q8.72266-36.8212 8.72266-35.2606Q8.72266-33.7 9.86407-32.5586Q11.0055-31.4172 12.5661-31.4172ZM24.9435-61.4015Q26.5041-61.4015 27.6455-62.5429Q28.7869-63.6843 28.7869-65.2449Q28.7869-66.8012 27.6455-67.9115Q26.5041-69.0218 24.9435-69.0218Q23.3872-69.0218 22.2436-67.9115Q21.1001-66.8012 21.1001-65.2449Q21.1001-63.6843 22.2436-62.5429Q23.3872-61.4015 24.9435-61.4015ZM54.9278-73.7789Q56.4884-73.7789 57.5965-74.8871Q58.7046-75.9952 58.7046-77.6223Q58.7046-79.1829 57.5965-80.3243Q56.4884-81.4658 54.9278-81.4658Q53.3672-81.4658 52.2258-80.3243Q51.0843-79.1829 51.0843-77.6223Q51.0843-75.9952 52.2258-74.8871Q53.3672-73.7789 54.9278-73.7789ZM84.912-61.4015Q86.4684-61.4015 87.5786-62.5429Q88.6889-63.6843 88.6889-65.2449Q88.6889-66.8012 87.5786-67.9115Q86.4684-69.0218 84.912-69.0218Q83.2849-69.0218 82.1435-67.9115Q81.002-66.8012 81.002-65.2449Q81.002-63.6843 82.1435-62.5429Q83.2849-61.4015 84.912-61.4015ZM97.2229-31.4172Q98.8458-31.4172 99.9893-32.5586Q101.133-33.7 101.133-35.2606Q101.133-36.8212 99.9893-37.9627Q98.8458-39.1041 97.2229-39.1041Q95.6623-39.1041 94.5209-37.9627Q93.3795-36.8212 93.3795-35.2606Q93.3795-33.7 94.5209-32.5586Q95.6623-31.4172 97.2229-31.4172ZM84.912-1.49952Q86.4684-1.49952 87.5786-2.60978Q88.6889-3.72004 88.6889-5.2764Q88.6889-6.83699 87.5786-7.97841Q86.4684-9.11982 84.912-9.11982Q83.2849-9.11982 82.1435-7.97841Q81.002-6.83699 81.002-5.2764Q81.002-3.72004 82.1435-2.60978Q83.2849-1.49952 84.912-1.49952ZM54.9278 10.9445Q56.4884 10.9445 57.5965 9.80305Q58.7046 8.66164 58.7046 7.10105Q58.7046 5.47391 57.5965 4.36577Q56.4884 3.25762 54.9278 3.25762Q53.3672 3.25762 52.2258 4.36577Q51.0843 5.47391 51.0843 7.10105Q51.0843 8.66164 52.2258 9.80305Q53.3672 10.9445 54.9278 10.9445ZM24.9435-1.49952Q26.5041-1.49952 27.6455-2.60978Q28.7869-3.72004 28.7869-5.2764Q28.7869-6.83699 27.6455-7.97841Q26.5041-9.11982 24.9435-9.11982Q23.3872-9.11982 22.2436-7.97841Q21.1001-6.83699 21.1001-5.2764Q21.1001-3.72004 22.2436-2.60978Q23.3872-1.49952 24.9435-1.49952Z"/>
  </g>
  <g id="Black-S" transform="matrix(1 0 0 1 2884.57 696)">
   <path d="M48.8281-12.793Q54.9805-12.793 60.083-15.8447Q65.1855-18.8965 68.2373-23.999Q71.2891-29.1016 71.2891-35.2539Q71.2891-41.4062 68.2373-46.5088Q65.1855-51.6113 60.083-54.6631Q54.9805-57.7148 48.8281-57.7148Q42.6758-57.7148 37.5732-54.6631Q32.4707-51.6113 29.4189-46.5088Q26.3672-41.4062 26.3672-35.2539Q26.3672-29.0527 29.3945-23.9502Q32.4219-18.8477 37.5244-15.8203Q42.627-12.793 48.8281-12.793ZM48.8281-26.0254Q46.3379-26.0254 44.2383-27.2949Q42.1387-28.5645 40.8691-30.6641Q39.5996-32.7637 39.5996-35.2539Q39.5996-37.793 40.8691-39.8682Q42.1387-41.9434 44.2383-43.2129Q46.3379-44.4824 48.8281-44.4824Q51.3672-44.4824 53.4424-43.2129Q55.5176-41.9434 56.7871-39.8682Q58.0566-37.793 58.0566-35.2539Q58.0566-32.7637 56.7871-30.6641Q55.5176-28.5645 53.4424-27.2949Q51.3672-26.0254 48.8281-26.0254ZM12.9883-29.1016Q15.5762-29.1016 17.3584-30.9082Q19.1406-32.7148 19.1406-35.2539Q19.1406-37.8418 17.3584-39.624Q15.5762-41.4062 12.9883-41.4062Q10.4492-41.4062 8.64258-39.624Q6.83594-37.8418 6.83594-35.2539Q6.83594-32.7148 8.64258-30.9082Q10.4492-29.1016 12.9883-29.1016ZM23.4863-54.4434Q26.0742-54.4434 27.8564-56.25Q29.6387-58.0566 29.6387-60.5957Q29.6387-63.1836 27.8564-64.9658Q26.0742-66.748 23.4863-66.748Q20.9473-66.748 19.1406-64.9658Q17.334-63.1836 17.334-60.5957Q17.334-58.0566 19.1406-56.25Q20.9473-54.4434 23.4863-54.4434ZM48.8281-64.9414Q51.416-64.9414 53.1982-66.748Q54.9805-68.5547 54.9805-71.0938Q54.9805-73.6816 53.1982-75.4639Q51.416-77.2461 48.8281-77.2461Q46.2891-77.2461 44.4824-75.4639Q42.6758-73.6816 42.6758-71.0938Q42.6758-68.5547 44.4824-66.748Q46.2891-64.9414 48.8281-64.9414ZM74.1699-54.4434Q76.7578-54.4434 78.54-56.25Q80.3223-58.0566 80.3223-60.5957Q80.3223-63.1836 78.54-64.9658Q76.7578-66.748 74.1699-66.748Q71.6309-66.748 69.8242-64.9658Q68.0176-63.1836 68.0176-60.5957Q68.0176-58.0566 69.8242-56.25Q71.6309-54.4434 74.1699-54.4434ZM84.668-29.1016Q87.2559-29.1016 89.0381-30.9082Q90.8203-32.7148 90.8203-35.2539Q90.8203-37.8418 89.0381-39.624Q87.2559-41.4062 84.668-41.4062Q82.1289-41.4062 80.3223-39.624Q78.5156-37.8418 78.5156-35.2539Q78.5156-32.7148 80.3223-30.9082Q82.1289-29.1016 84.668-29.1016ZM74.1699-3.75977Q76.7578-3.75977 78.54-5.56641Q80.3223-7.37305 80.3223-9.91211Q80.3223-12.5 78.54-14.2822Q76.7578-16.0645 74.1699-16.0645Q71.6309-16.0645 69.8242-14.2822Q68.0176-12.5 68.0176-9.91211Q68.0176-7.37305 69.8242-5.56641Q71.6309-3.75977 74.1699-3.75977ZM48.8281 6.73828Q51.416 6.73828 53.1982 4.93164Q54.9805 3.125 54.9805 0.585938Q54.9805-2.00195 53.1982-3.78418Q51.416-5.56641 48.8281-5.56641Q46.2891-5.56641 44.4824-3.78418Q42.6758-2.00195 42.6758 0.585938Q42.6758 3.125 44.4824 4.93164Q46.2891 6.73828 48.8281 6.73828ZM23.4863-3.75977Q26.0742-3.75977 27.8564-5.56641Q29.6387-7.37305 29.6387-9.91211Q29.6387-12.5 27.8564-14.2822Q26.0742-16.0645 23.4863-16.0645Q20.9473-16.0645 19.1406-14.2822Q17.334-12.5 17.334-9.91211Q17.334-7.37305 19.1406-5.56641Q20.9473-3.75977 23.4863-3.75977Z"/>
  </g>
  <g id="Heavy-S" transform="matrix(1 0 0 1 2588.61 696)">
   <path d="M48.079-13.4038Q54.0585-13.4038 59.0228-16.3749Q63.987-19.3459 66.9581-24.3102Q69.9292-29.2744 69.9292-35.2539Q69.9292-41.2334 66.9581-46.1976Q63.987-51.1619 59.0228-54.133Q54.0585-57.104 48.079-57.104Q42.0996-57.104 37.1353-54.133Q32.1711-51.1619 29.2-46.1976Q26.2289-41.2334 26.2289-35.2539Q26.2289-29.2371 29.1813-24.2729Q32.1338-19.3086 37.098-16.3562Q42.0623-13.4038 48.079-13.4038ZM48.079-25.0689Q45.3237-25.0689 43.0052-26.4652Q40.6866-27.8615 39.2903-30.18Q37.894-32.4986 37.894-35.2539Q37.894-38.0465 39.2903-40.3407Q40.6866-42.6348 43.0052-44.0369Q45.3237-45.439 48.079-45.439Q50.8716-45.439 53.1716-44.0427Q55.4715-42.6464 56.8678-40.3464Q58.2641-38.0465 58.2641-35.2539Q58.2641-32.4986 56.8678-30.18Q55.4715-27.8615 53.1716-26.4652Q50.8716-25.0689 48.079-25.0689ZM12.6656-29.4242Q15.1037-29.4242 16.7995-31.1387Q18.4953-32.8531 18.4953-35.2539Q18.4953-37.692 16.7995-39.3878Q15.1037-41.0836 12.6656-41.0836Q10.2648-41.0836 8.55038-39.3878Q6.83594-37.692 6.83594-35.2539Q6.83594-32.8531 8.55038-31.1387Q10.2648-29.4242 12.6656-29.4242ZM23.0369-54.4664Q25.4749-54.4664 27.1707-56.1809Q28.8665-57.8953 28.8665-60.2961Q28.8665-62.7457 27.1707-64.4357Q25.4749-66.1257 23.0369-66.1257Q20.6246-66.1257 18.9159-64.4357Q17.2072-62.7457 17.2072-60.2961Q17.2072-57.8953 18.9159-56.1809Q20.6246-54.4664 23.0369-54.4664ZM48.079-64.8377Q50.5171-64.8377 52.2129-66.5521Q53.9087-68.2666 53.9087-70.6673Q53.9087-73.1054 52.2129-74.8012Q50.5171-76.497 48.079-76.497Q45.6783-76.497 43.9638-74.8012Q42.2494-73.1054 42.2494-70.6673Q42.2494-68.2666 43.9638-66.5521Q45.6783-64.8377 48.079-64.8377ZM73.1212-54.4664Q75.5708-54.4664 77.2608-56.1809Q78.9509-57.8953 78.9509-60.2961Q78.9509-62.7457 77.2608-64.4357Q75.5708-66.1257 73.1212-66.1257Q70.7204-66.1257 69.006-64.4357Q67.2915-62.7457 67.2915-60.2961Q67.2915-57.8953 69.006-56.1809Q70.7204-54.4664 73.1212-54.4664ZM83.4925-29.4242Q85.9421-29.4242 87.6321-31.1387Q89.3221-32.8531 89.3221-35.2539Q89.3221-37.692 87.6321-39.3878Q85.9421-41.0836 83.4925-41.0836Q81.0917-41.0836 79.3773-39.3878Q77.6628-37.692 77.6628-35.2539Q77.6628-32.8531 79.3773-31.1387Q81.0917-29.4242 83.4925-29.4242ZM73.1212-4.38209Q75.5708-4.38209 77.2608-6.09077Q78.9509-7.79945 78.9509-10.2117Q78.9509-12.6498 77.2608-14.3456Q75.5708-16.0414 73.1212-16.0414Q70.7204-16.0414 69.006-14.3456Q67.2915-12.6498 67.2915-10.2117Q67.2915-7.79945 69.006-6.09077Q70.7204-4.38209 73.1212-4.38209ZM48.079 5.98919Q50.5171 5.98919 52.2129 4.27475Q53.9087 2.5603 53.9087 0.159532Q53.9087-2.27854 52.2129-3.97433Q50.5171-5.67013 48.079-5.67013Q45.6783-5.67013 43.9638-3.97433Q42.2494-2.27854 42.2494 0.159532Q42.2494 2.5603 43.9638 4.27475Q45.6783 5.98919 48.079 5.98919ZM23.0369-4.38209Q25.4749-4.38209 27.1707-6.09077Q28.8665-7.79945 28.8665-10.2117Q28.8665-12.6498 27.1707-14.3456Q25.4749-16.0414 23.0369-16.0414Q20.6246-16.0414 18.9159-14.3456Q17.2072-12.6498 17.2072-10.2117Q17.2072-7.79945 18.9159-6.09077Q20.6246-4.38209 23.0369-4.38209Z"/>
  </g>
  <g id="Bold-S" transform="matrix(1 0 0 1 2292.74 696)">
   <path d="M47.2412-14.0869Q53.0273-14.0869 57.8369-16.9678Q62.6465-19.8486 65.5273-24.6582Q68.4082-29.4678 68.4082-35.2539Q68.4082-41.04 65.5273-45.8496Q62.6465-50.6592 57.8369-53.54Q53.0273-56.4209 47.2412-56.4209Q41.4551-56.4209 36.6455-53.54Q31.8359-50.6592 28.9551-45.8496Q26.0742-41.04 26.0742-35.2539Q26.0742-29.4434 28.9429-24.6338Q31.8115-19.8242 36.6211-16.9556Q41.4307-14.0869 47.2412-14.0869ZM47.2412-23.999Q44.1895-23.999 41.626-25.5371Q39.0625-27.0752 37.5244-29.6387Q35.9863-32.2021 35.9863-35.2539Q35.9863-38.3301 37.5244-40.8691Q39.0625-43.4082 41.626-44.9585Q44.1895-46.5088 47.2412-46.5088Q50.3174-46.5088 52.8687-44.9707Q55.4199-43.4326 56.958-40.8813Q58.4961-38.3301 58.4961-35.2539Q58.4961-32.2021 56.958-29.6387Q55.4199-27.0752 52.8687-25.5371Q50.3174-23.999 47.2412-23.999ZM12.3047-29.7852Q14.5752-29.7852 16.1743-31.3965Q17.7734-33.0078 17.7734-35.2539Q17.7734-37.5244 16.1743-39.1235Q14.5752-40.7227 12.3047-40.7227Q10.0586-40.7227 8.44727-39.1235Q6.83594-37.5244 6.83594-35.2539Q6.83594-33.0078 8.44727-31.3965Q10.0586-29.7852 12.3047-29.7852ZM22.5342-54.4922Q24.8047-54.4922 26.4038-56.1035Q28.0029-57.7148 28.0029-59.9609Q28.0029-62.2559 26.4038-63.8428Q24.8047-65.4297 22.5342-65.4297Q20.2637-65.4297 18.6646-63.8428Q17.0654-62.2559 17.0654-59.9609Q17.0654-57.7148 18.6646-56.1035Q20.2637-54.4922 22.5342-54.4922ZM47.2412-64.7217Q49.5117-64.7217 51.1108-66.333Q52.71-67.9443 52.71-70.1904Q52.71-72.4609 51.1108-74.0601Q49.5117-75.6592 47.2412-75.6592Q44.9951-75.6592 43.3838-74.0601Q41.7725-72.4609 41.7725-70.1904Q41.7725-67.9443 43.3838-66.333Q44.9951-64.7217 47.2412-64.7217ZM71.9482-54.4922Q74.2432-54.4922 75.8301-56.1035Q77.417-57.7148 77.417-59.9609Q77.417-62.2559 75.8301-63.8428Q74.2432-65.4297 71.9482-65.4297Q69.7021-65.4297 68.0908-63.8428Q66.4795-62.2559 66.4795-59.9609Q66.4795-57.7148 68.0908-56.1035Q69.7021-54.4922 71.9482-54.4922ZM82.1777-29.7852Q84.4727-29.7852 86.0596-31.3965Q87.6465-33.0078 87.6465-35.2539Q87.6465-37.5244 86.0596-39.1235Q84.4727-40.7227 82.1777-40.7227Q79.9316-40.7227 78.3203-39.1235Q76.709-37.5244 76.709-35.2539Q76.709-33.0078 78.3203-31.3965Q79.9316-29.7852 82.1777-29.7852ZM71.9482-5.07812Q74.2432-5.07812 75.8301-6.67725Q77.417-8.27637 77.417-10.5469Q77.417-12.8174 75.8301-14.4165Q74.2432-16.0156 71.9482-16.0156Q69.7021-16.0156 68.0908-14.4165Q66.4795-12.8174 66.4795-10.5469Q66.4795-8.27637 68.0908-6.67725Q69.7021-5.07812 71.9482-5.07812ZM47.2412 5.15137Q49.5117 5.15137 51.1108 3.54004Q52.71 1.92871 52.71-0.317383Q52.71-2.58789 51.1108-4.18701Q49.5117-5.78613 47.2412-5.78613Q44.9951-5.78613 43.3838-4.18701Q41.7725-2.58789 41.7725-0.317383Q41.7725 1.92871 43.3838 3.54004Q44.9951 5.15137 47.2412 5.15137ZM22.5342-5.07812Q24.8047-5.07812 26.4038-6.67725Q28.0029-8.27637 28.0029-10.5469Q28.0029-12.8174 26.4038-14.4165Q24.8047-16.0156 22.5342-16.0156Q20.2637-16.0156 18.6646-14.4165Q17.0654-12.8174 17.0654-10.5469Q17.0654-8.27637 18.6646-6.67725Q20.2637-5.07812 22.5342-5.07812Z"/>
  </g>
  <g id="Semibold-S" transform="matrix(1 0 0 1 1996.6 696)">
   <path d="M46.6636-14.5579Q52.3164-14.5579 57.0193-17.3766Q61.7223-20.1952 64.5409-24.8981Q67.3596-29.6011 67.3596-35.2539Q67.3596-40.9067 64.5409-45.6097Q61.7223-50.3126 57.0193-53.1313Q52.3164-55.9499 46.6636-55.9499Q41.0107-55.9499 36.3078-53.1313Q31.6049-50.3126 28.7862-45.6097Q25.9676-40.9067 25.9676-35.2539Q25.9676-29.5855 28.7785-24.8826Q31.5894-20.1797 36.2923-17.3688Q40.9952-14.5579 46.6636-14.5579ZM46.6636-23.2614Q43.4074-23.2614 40.6751-24.8973Q37.9428-26.5331 36.3069-29.2654Q34.6711-31.9978 34.6711-35.2539Q34.6711-38.5256 36.3069-41.2335Q37.9428-43.9414 40.6751-45.5939Q43.4074-47.2464 46.6636-47.2464Q49.9353-47.2464 52.6598-45.6105Q55.3844-43.9747 57.0202-41.2501Q58.6561-38.5256 58.6561-35.2539Q58.6561-31.9978 57.0202-29.2654Q55.3844-26.5331 52.6598-24.8973Q49.9353-23.2614 46.6636-23.2614ZM12.0559-30.034Q14.2108-30.034 15.7433-31.5742Q17.2758-33.1145 17.2758-35.2539Q17.2758-37.4089 15.7433-38.9414Q14.2108-40.4738 12.0559-40.4738Q9.91641-40.4738 8.37617-38.9414Q6.83594-37.4089 6.83594-35.2539Q6.83594-33.1145 8.37617-31.5742Q9.91641-30.034 12.0559-30.034ZM22.1876-54.51Q24.3426-54.51 25.875-56.0502Q27.4075-57.5904 27.4075-59.7299Q27.4075-61.9182 25.875-63.434Q24.3426-64.9498 22.1876-64.9498Q20.0148-64.9498 18.4913-63.434Q16.9677-61.9182 16.9677-59.7299Q16.9677-57.5904 18.4913-56.0502Q20.0148-54.51 22.1876-54.51ZM46.6636-64.6417Q48.8186-64.6417 50.351-66.1819Q51.8835-67.7222 51.8835-69.8616Q51.8835-72.0166 50.351-73.5491Q48.8186-75.0815 46.6636-75.0815Q44.5241-75.0815 42.9839-73.5491Q41.4437-72.0166 41.4437-69.8616Q41.4437-67.7222 42.9839-66.1819Q44.5241-64.6417 46.6636-64.6417ZM71.1396-54.51Q73.3278-54.51 74.8437-56.0502Q76.3595-57.5904 76.3595-59.7299Q76.3595-61.9182 74.8437-63.434Q73.3278-64.9498 71.1396-64.9498Q69.0001-64.9498 67.4599-63.434Q65.9196-61.9182 65.9196-59.7299Q65.9196-57.5904 67.4599-56.0502Q69.0001-54.51 71.1396-54.51ZM81.2713-30.034Q83.4596-30.034 84.9754-31.5742Q86.4912-33.1145 86.4912-35.2539Q86.4912-37.4089 84.9754-38.9414Q83.4596-40.4738 81.2713-40.4738Q79.1318-40.4738 77.5916-38.9414Q76.0514-37.4089 76.0514-35.2539Q76.0514-33.1145 77.5916-31.5742Q79.1318-30.034 81.2713-30.034ZM71.1396-5.55801Q73.3278-5.55801 74.8437-7.08159Q76.3595-8.60518 76.3595-10.7779Q76.3595-12.9329 74.8437-14.4654Q73.3278-15.9979 71.1396-15.9979Q69.0001-15.9979 67.4599-14.4654Q65.9196-12.9329 65.9196-10.7779Q65.9196-8.60518 67.4599-7.08159Q69.0001-5.55801 71.1396-5.55801ZM46.6636 4.57373Q48.8186 4.57373 50.351 3.0335Q51.8835 1.49326 51.8835-0.646191Q51.8835-2.80117 50.351-4.33364Q48.8186-5.86611 46.6636-5.86611Q44.5241-5.86611 42.9839-4.33364Q41.4437-2.80117 41.4437-0.646191Q41.4437 1.49326 42.9839 3.0335Q44.5241 4.57373 46.6636 4.57373ZM22.1876-5.55801Q24.3426-5.55801 25.875-7.08159Q27.4075-8.60518 27.4075-10.7779Q27.4075-12.9329 25.875-14.4654Q24.3426-15.9979 22.1876-15.9979Q20.0148-15.9979 18.4913-14.4654Q16.9677-12.9329 16.9677-10.7779Q16.9677-8.60518 18.4913-7.08159Q20.0148-5.55801 22.1876-5.55801Z"/>
  </g>
  <g id="Medium-S" transform="matrix(1 0 0 1 1700.33 696)">
   <path d="M46.2256-14.915Q51.7773-14.915 56.3994-17.6865Q61.0215-20.458 63.793-25.0801Q66.5645-29.7021 66.5645-35.2539Q66.5645-40.8057 63.793-45.4277Q61.0215-50.0498 56.3994-52.8213Q51.7773-55.5928 46.2256-55.5928Q40.6738-55.5928 36.0518-52.8213Q31.4297-50.0498 28.6582-45.4277Q25.8867-40.8057 25.8867-35.2539Q25.8867-29.6934 28.6538-25.0713Q31.4209-20.4492 36.043-17.6821Q40.665-14.915 46.2256-14.915ZM46.2256-22.7021Q42.8145-22.7021 39.9541-24.4121Q37.0938-26.1221 35.3838-28.9824Q33.6738-31.8428 33.6738-35.2539Q33.6738-38.6738 35.3838-41.5098Q37.0938-44.3457 39.9541-46.0757Q42.8145-47.8057 46.2256-47.8057Q49.6455-47.8057 52.5015-46.0957Q55.3574-44.3857 57.0674-41.5298Q58.7773-38.6738 58.7773-35.2539Q58.7773-31.8428 57.0674-28.9824Q55.3574-26.1221 52.5015-24.4121Q49.6455-22.7021 46.2256-22.7021ZM11.8672-30.2227Q13.9346-30.2227 15.4165-31.709Q16.8984-33.1953 16.8984-35.2539Q16.8984-37.3213 15.4165-38.8032Q13.9346-40.2852 11.8672-40.2852Q9.80859-40.2852 8.32227-38.8032Q6.83594-37.3213 6.83594-35.2539Q6.83594-33.1953 8.32227-31.709Q9.80859-30.2227 11.8672-30.2227ZM21.9248-54.5234Q23.9922-54.5234 25.4741-56.0098Q26.9561-57.4961 26.9561-59.5547Q26.9561-61.6621 25.4741-63.124Q23.9922-64.5859 21.9248-64.5859Q19.8262-64.5859 18.3599-63.124Q16.8936-61.6621 16.8936-59.5547Q16.8936-57.4961 18.3599-56.0098Q19.8262-54.5234 21.9248-54.5234ZM46.2256-64.5811Q48.293-64.5811 49.7749-66.0674Q51.2568-67.5537 51.2568-69.6123Q51.2568-71.6797 49.7749-73.1616Q48.293-74.6436 46.2256-74.6436Q44.167-74.6436 42.6807-73.1616Q41.1943-71.6797 41.1943-69.6123Q41.1943-67.5537 42.6807-66.0674Q44.167-64.5811 46.2256-64.5811ZM70.5264-54.5234Q72.6338-54.5234 74.0957-56.0098Q75.5576-57.4961 75.5576-59.5547Q75.5576-61.6621 74.0957-63.124Q72.6338-64.5859 70.5264-64.5859Q68.4678-64.5859 66.9814-63.124Q65.4951-61.6621 65.4951-59.5547Q65.4951-57.4961 66.9814-56.0098Q68.4678-54.5234 70.5264-54.5234ZM80.584-30.2227Q82.6914-30.2227 84.1533-31.709Q85.6152-33.1953 85.6152-35.2539Q85.6152-37.3213 84.1533-38.8032Q82.6914-40.2852 80.584-40.2852Q78.5254-40.2852 77.0391-38.8032Q75.5527-37.3213 75.5527-35.2539Q75.5527-33.1953 77.0391-31.709Q78.5254-30.2227 80.584-30.2227ZM70.5264-5.92188Q72.6338-5.92188 74.0957-7.38818Q75.5576-8.85449 75.5576-10.9531Q75.5576-13.0205 74.0957-14.5024Q72.6338-15.9844 70.5264-15.9844Q68.4678-15.9844 66.9814-14.5024Q65.4951-13.0205 65.4951-10.9531Q65.4951-8.85449 66.9814-7.38818Q68.4678-5.92188 70.5264-5.92188ZM46.2256 4.13574Q48.293 4.13574 49.7749 2.64941Q51.2568 1.16309 51.2568-0.895508Q51.2568-2.96289 49.7749-4.44482Q48.293-5.92676 46.2256-5.92676Q44.167-5.92676 42.6807-4.44482Q41.1943-2.96289 41.1943-0.895508Q41.1943 1.16309 42.6807 2.64941Q44.167 4.13574 46.2256 4.13574ZM21.9248-5.92188Q23.9922-5.92188 25.4741-7.38818Q26.9561-8.85449 26.9561-10.9531Q26.9561-13.0205 25.4741-14.5024Q23.9922-15.9844 21.9248-15.9844Q19.8262-15.9844 18.3599-14.5024Q16.8936-13.0205 16.8936-10.9531Q16.8936-8.85449 18.3599-7.38818Q19.8262-5.92188 21.9248-5.92188Z"/>
  </g>
  <g id="Regular-S" transform="matrix(1 0 0 1 1404.19 696)">
   <path d="M45.6543-15.3809Q51.0742-15.3809 55.5908-18.0908Q60.1074-20.8008 62.8174-25.3174Q65.5273-29.834 65.5273-35.2539Q65.5273-40.6738 62.8174-45.1904Q60.1074-49.707 55.5908-52.417Q51.0742-55.127 45.6543-55.127Q40.2344-55.127 35.7178-52.417Q31.2012-49.707 28.4912-45.1904Q25.7812-40.6738 25.7812-35.2539Q25.7812-29.834 28.4912-25.3174Q31.2012-20.8008 35.7178-18.0908Q40.2344-15.3809 45.6543-15.3809ZM45.6543-21.9727Q42.041-21.9727 39.0137-23.7793Q35.9863-25.5859 34.1797-28.6133Q32.373-31.6406 32.373-35.2539Q32.373-38.8672 34.1797-41.8701Q35.9863-44.873 39.0137-46.7041Q42.041-48.5352 45.6543-48.5352Q49.2676-48.5352 52.2949-46.7285Q55.3223-44.9219 57.1289-41.8945Q58.9355-38.8672 58.9355-35.2539Q58.9355-31.6406 57.1289-28.6133Q55.3223-25.5859 52.2949-23.7793Q49.2676-21.9727 45.6543-21.9727ZM11.6211-30.4688Q13.5742-30.4688 14.9902-31.8848Q16.4062-33.3008 16.4062-35.2539Q16.4062-37.207 14.9902-38.623Q13.5742-40.0391 11.6211-40.0391Q9.66797-40.0391 8.25195-38.623Q6.83594-37.207 6.83594-35.2539Q6.83594-33.3008 8.25195-31.8848Q9.66797-30.4688 11.6211-30.4688ZM21.582-54.541Q23.5352-54.541 24.9512-55.957Q26.3672-57.373 26.3672-59.3262Q26.3672-61.3281 24.9512-62.7197Q23.5352-64.1113 21.582-64.1113Q19.5801-64.1113 18.1885-62.7197Q16.7969-61.3281 16.7969-59.3262Q16.7969-57.373 18.1885-55.957Q19.5801-54.541 21.582-54.541ZM45.6543-64.502Q47.6074-64.502 49.0234-65.918Q50.4395-67.334 50.4395-69.2871Q50.4395-71.2402 49.0234-72.6562Q47.6074-74.0723 45.6543-74.0723Q43.7012-74.0723 42.2852-72.6562Q40.8691-71.2402 40.8691-69.2871Q40.8691-67.334 42.2852-65.918Q43.7012-64.502 45.6543-64.502ZM69.7266-54.541Q71.7285-54.541 73.1201-55.957Q74.5117-57.373 74.5117-59.3262Q74.5117-61.3281 73.1201-62.7197Q71.7285-64.1113 69.7266-64.1113Q67.7734-64.1113 66.3574-62.7197Q64.9414-61.3281 64.9414-59.3262Q64.9414-57.373 66.3574-55.957Q67.7734-54.541 69.7266-54.541ZM79.6875-30.4688Q81.6895-30.4688 83.0811-31.8848Q84.4727-33.3008 84.4727-35.2539Q84.4727-37.207 83.0811-38.623Q81.6895-40.0391 79.6875-40.0391Q77.7344-40.0391 76.3184-38.623Q74.9023-37.207 74.9023-35.2539Q74.9023-33.3008 76.3184-31.8848Q77.7344-30.4688 79.6875-30.4688ZM69.7266-6.39648Q71.7285-6.39648 73.1201-7.78809Q74.5117-9.17969 74.5117-11.1816Q74.5117-13.1348 73.1201-14.5508Q71.7285-15.9668 69.7266-15.9668Q67.7734-15.9668 66.3574-14.5508Q64.9414-13.1348 64.9414-11.1816Q64.9414-9.17969 66.3574-7.78809Q67.7734-6.39648 69.7266-6.39648ZM45.6543 3.56445Q47.6074 3.56445 49.0234 2.14844Q50.4395 0.732422 50.4395-1.2207Q50.4395-3.17383 49.0234-4.58984Q47.6074-6.00586 45.6543-6.00586Q43.7012-6.00586 42.2852-4.58984Q40.8691-3.17383 40.8691-1.2207Q40.8691 0.732422 42.2852 2.14844Q43.7012 3.56445 45.6543 3.56445ZM21.582-6.39648Q23.5352-6.39648 24.9512-7.78809Q26.3672-9.17969 26.3672-11.1816Q26.3672-13.1348 24.9512-14.5508Q23.5352-15.9668 21.582-15.9668Q19.5801-15.9668 18.1885-14.5508Q16.7969-13.1348 16.7969-11.1816Q16.7969-9.17969 18.1885-7.78809Q19.5801-6.39648 21.582-6.39648Z"/>
  </g>
  <g id="Light-S" transform="matrix(1 0 0 1 1108.29 696)">
   <path d="M44.8405-16.1133Q50.0651-16.1133 54.4108-18.7256Q58.7565-21.3379 61.3688-25.6836Q63.9811-30.0293 63.9811-35.2539Q63.9811-40.4785 61.3688-44.8242Q58.7565-49.1699 54.4108-51.7822Q50.0651-54.3945 44.8405-54.3945Q39.6159-54.3945 35.262-51.7822Q30.9082-49.1699 28.2959-44.8242Q25.6836-40.4785 25.6836-35.2539Q25.6836-30.0293 28.2959-25.6836Q30.9082-21.3379 35.262-18.7256Q39.6159-16.1133 44.8405-16.1133ZM44.8405-21.224Q41.0156-21.224 37.8174-23.1364Q34.6191-25.0488 32.7148-28.2389Q30.8105-31.429 30.8105-35.2539Q30.8105-39.0788 32.7148-42.2526Q34.6191-45.4264 37.8174-47.3551Q41.0156-49.2839 44.8405-49.2839Q48.6654-49.2839 51.8555-47.3714Q55.0456-45.459 56.9499-42.2689Q58.8542-39.0788 58.8542-35.2539Q58.8542-31.429 56.9499-28.2389Q55.0456-25.0488 51.8555-23.1364Q48.6654-21.224 44.8405-21.224ZM11.0677-31.0221Q12.793-31.0221 14.0381-32.2754Q15.2832-33.5286 15.2832-35.2539Q15.2832-36.9792 14.0381-38.2324Q12.793-39.4857 11.0677-39.4857Q9.34245-39.4857 8.08919-38.2324Q6.83594-36.9792 6.83594-35.2539Q6.83594-33.5286 8.08919-32.2754Q9.34245-31.0221 11.0677-31.0221ZM20.9473-54.9154Q22.6725-54.9154 23.9258-56.1686Q25.179-57.4219 25.179-59.1471Q25.179-60.9049 23.9258-62.1338Q22.6725-63.3626 20.9473-63.3626Q19.1895-63.3626 17.9525-62.1338Q16.7155-60.9049 16.7155-59.1471Q16.7155-57.4219 17.9525-56.1686Q19.1895-54.9154 20.9473-54.9154ZM44.8405-64.7949Q46.5658-64.7949 47.8109-66.04Q49.056-67.2852 49.056-69.0267Q49.056-70.752 47.8109-72.0052Q46.5658-73.2585 44.8405-73.2585Q43.1152-73.2585 41.862-72.0052Q40.6087-70.752 40.6087-69.0267Q40.6087-67.2852 41.862-66.04Q43.1152-64.7949 44.8405-64.7949ZM68.7337-54.9154Q70.4915-54.9154 71.7204-56.1686Q72.9492-57.4219 72.9492-59.1471Q72.9492-60.9049 71.7204-62.1338Q70.4915-63.3626 68.7337-63.3626Q66.9922-63.3626 65.7389-62.1338Q64.4857-60.9049 64.4857-59.1471Q64.4857-57.4219 65.7389-56.1686Q66.9922-54.9154 68.7337-54.9154ZM78.597-31.0221Q80.3711-31.0221 81.6081-32.2754Q82.8451-33.5286 82.8451-35.2539Q82.8451-36.9792 81.6081-38.2324Q80.3711-39.4857 78.597-39.4857Q76.8717-39.4857 75.6185-38.2324Q74.3652-36.9792 74.3652-35.2539Q74.3652-33.5286 75.6185-32.2754Q76.8717-31.0221 78.597-31.0221ZM68.7337-7.14518Q70.4915-7.14518 71.7204-8.37402Q72.9492-9.60286 72.9492-11.3607Q72.9492-13.0859 71.7204-14.3392Q70.4915-15.5924 68.7337-15.5924Q66.9922-15.5924 65.7389-14.3392Q64.4857-13.0859 64.4857-11.3607Q64.4857-9.60286 65.7389-8.37402Q66.9922-7.14518 68.7337-7.14518ZM44.8405 2.75065Q46.5658 2.75065 47.8109 1.4974Q49.056 0.244141 49.056-1.48112Q49.056-3.22266 47.8109-4.46777Q46.5658-5.71289 44.8405-5.71289Q43.1152-5.71289 41.862-4.46777Q40.6087-3.22266 40.6087-1.48112Q40.6087 0.244141 41.862 1.4974Q43.1152 2.75065 44.8405 2.75065ZM20.9473-7.14518Q22.6725-7.14518 23.9258-8.37402Q25.179-9.60286 25.179-11.3607Q25.179-13.0859 23.9258-14.3392Q22.6725-15.5924 20.9473-15.5924Q19.1895-15.5924 17.9525-14.3392Q16.7155-13.0859 16.7155-11.3607Q16.7155-9.60286 17.9525-8.37402Q19.1895-7.14518 20.9473-7.14518Z"/>
  </g>
  <g id="Thin-S" transform="matrix(1 0 0 1 812.658 696)">
   <path d="M43.7642-17.082Q48.7305-17.082 52.8501-19.5651Q56.9698-22.0483 59.453-26.1679Q61.9361-30.2876 61.9361-35.2539Q61.9361-40.2202 59.453-44.3399Q56.9698-48.4596 52.8501-50.9427Q48.7305-53.4258 43.7642-53.4258Q38.7979-53.4258 34.6593-50.9427Q30.5207-48.4596 28.0376-44.3399Q25.5544-40.2202 25.5544-35.2539Q25.5544-30.2876 28.0376-26.1679Q30.5207-22.0483 34.6593-19.5651Q38.7979-17.082 43.7642-17.082ZM43.7642-20.2337Q39.6595-20.2337 36.2352-22.2861Q32.8109-24.3385 30.7775-27.7438Q28.744-31.1492 28.744-35.2539Q28.744-39.3586 30.7775-42.7585Q32.8109-46.1583 36.2352-48.2162Q39.6595-50.2741 43.7642-50.2741Q47.8689-50.2741 51.2743-48.2217Q54.6796-46.1694 56.7131-42.764Q58.7465-39.3586 58.7465-35.2539Q58.7465-31.1492 56.7131-27.7438Q54.6796-24.3385 51.2743-22.2861Q47.8689-20.2337 43.7642-20.2337ZM10.3358-31.754Q11.7597-31.754 12.7788-32.792Q13.7979-33.83 13.7979-35.2539Q13.7979-36.6778 12.7788-37.7158Q11.7597-38.7538 10.3358-38.7538Q8.91192-38.7538 7.87393-37.7158Q6.83594-36.6778 6.83594-35.2539Q6.83594-33.83 7.87393-32.792Q8.91192-31.754 10.3358-31.754ZM20.1077-55.4105Q21.5316-55.4105 22.5696-56.4485Q23.6076-57.4865 23.6076-58.9103Q23.6076-60.3453 22.5696-61.3588Q21.5316-62.3724 20.1077-62.3724Q18.6728-62.3724 17.6403-61.3588Q16.6079-60.3453 16.6079-58.9103Q16.6079-57.4865 17.6403-56.4485Q18.6728-55.4105 20.1077-55.4105ZM43.7642-65.1824Q45.1881-65.1824 46.2072-66.2015Q47.2262-67.2206 47.2262-68.6823Q47.2262-70.1062 46.2072-71.1442Q45.1881-72.1821 43.7642-72.1821Q42.3403-72.1821 41.3023-71.1442Q40.2643-70.1062 40.2643-68.6823Q40.2643-67.2206 41.3023-66.2015Q42.3403-65.1824 43.7642-65.1824ZM67.4206-55.4105Q68.8555-55.4105 69.8691-56.4485Q70.8827-57.4865 70.8827-58.9103Q70.8827-60.3453 69.8691-61.3588Q68.8555-62.3724 67.4206-62.3724Q65.9589-62.3724 64.9209-61.3588Q63.8829-60.3453 63.8829-58.9103Q63.8829-57.4865 64.9209-56.4485Q65.9589-55.4105 67.4206-55.4105ZM77.1547-31.754Q78.6275-31.754 79.6599-32.792Q80.6924-33.83 80.6924-35.2539Q80.6924-36.6778 79.6599-37.7158Q78.6275-38.7538 77.1547-38.7538Q75.7308-38.7538 74.6929-37.7158Q73.6549-36.6778 73.6549-35.2539Q73.6549-33.83 74.6929-32.792Q75.7308-31.754 77.1547-31.754ZM67.4206-8.1354Q68.8555-8.1354 69.8691-9.14897Q70.8827-10.1626 70.8827-11.5975Q70.8827-13.0214 69.8691-14.0593Q68.8555-15.0973 67.4206-15.0973Q65.9589-15.0973 64.9209-14.0593Q63.8829-13.0214 63.8829-11.5975Q63.8829-10.1626 64.9209-9.14897Q65.9589-8.1354 67.4206-8.1354ZM43.7642 1.67433Q45.1881 1.67433 46.2072 0.636341Q47.2262-0.401651 47.2262-1.82554Q47.2262-3.28724 46.2072-4.30633Q45.1881-5.32542 43.7642-5.32542Q42.3403-5.32542 41.3023-4.30633Q40.2643-3.28724 40.2643-1.82554Q40.2643-0.401651 41.3023 0.636341Q42.3403 1.67433 43.7642 1.67433ZM20.1077-8.1354Q21.5316-8.1354 22.5696-9.14897Q23.6076-10.1626 23.6076-11.5975Q23.6076-13.0214 22.5696-14.0593Q21.5316-15.0973 20.1077-15.0973Q18.6728-15.0973 17.6403-14.0593Q16.6079-13.0214 16.6079-11.5975Q16.6079-10.1626 17.6403-9.14897Q18.6728-8.1354 20.1077-8.1354Z"/>
  </g>
  <g id="Ultralight-S" transform="matrix(1 0 0 1 516.498 696)">
   <path d="M43.2129-17.5781Q48.0469-17.5781 52.0508-19.9951Q56.0547-22.4121 58.4717-26.416Q60.8887-30.4199 60.8887-35.2539Q60.8887-40.0879 58.4717-44.0918Q56.0547-48.0957 52.0508-50.5127Q48.0469-52.9297 43.2129-52.9297Q38.3789-52.9297 34.3506-50.5127Q30.3223-48.0957 27.9053-44.0918Q25.4883-40.0879 25.4883-35.2539Q25.4883-30.4199 27.9053-26.416Q30.3223-22.4121 34.3506-19.9951Q38.3789-17.5781 43.2129-17.5781ZM43.2129-19.7266Q38.9648-19.7266 35.4248-21.8506Q31.8848-23.9746 29.7852-27.4902Q27.6855-31.0059 27.6855-35.2539Q27.6855-39.502 29.7852-43.0176Q31.8848-46.5332 35.4248-48.6572Q38.9648-50.7812 43.2129-50.7812Q47.4609-50.7812 50.9766-48.6572Q54.4922-46.5332 56.5918-43.0176Q58.6914-39.502 58.6914-35.2539Q58.6914-31.0059 56.5918-27.4902Q54.4922-23.9746 50.9766-21.8506Q47.4609-19.7266 43.2129-19.7266ZM9.96094-32.1289Q11.2305-32.1289 12.1338-33.0566Q13.0371-33.9844 13.0371-35.2539Q13.0371-36.5234 12.1338-37.4512Q11.2305-38.3789 9.96094-38.3789Q8.69141-38.3789 7.76367-37.4512Q6.83594-36.5234 6.83594-35.2539Q6.83594-33.9844 7.76367-33.0566Q8.69141-32.1289 9.96094-32.1289ZM19.6777-55.6641Q20.9473-55.6641 21.875-56.5918Q22.8027-57.5195 22.8027-58.7891Q22.8027-60.0586 21.875-60.9619Q20.9473-61.8652 19.6777-61.8652Q18.4082-61.8652 17.4805-60.9619Q16.5527-60.0586 16.5527-58.7891Q16.5527-57.5195 17.4805-56.5918Q18.4082-55.6641 19.6777-55.6641ZM43.2129-65.3809Q44.4824-65.3809 45.3857-66.2842Q46.2891-67.1875 46.2891-68.5059Q46.2891-69.7754 45.3857-70.7031Q44.4824-71.6309 43.2129-71.6309Q41.9434-71.6309 41.0156-70.7031Q40.0879-69.7754 40.0879-68.5059Q40.0879-67.1875 41.0156-66.2842Q41.9434-65.3809 43.2129-65.3809ZM66.748-55.6641Q68.0176-55.6641 68.9209-56.5918Q69.8242-57.5195 69.8242-58.7891Q69.8242-60.0586 68.9209-60.9619Q68.0176-61.8652 66.748-61.8652Q65.4297-61.8652 64.502-60.9619Q63.5742-60.0586 63.5742-58.7891Q63.5742-57.5195 64.502-56.5918Q65.4297-55.6641 66.748-55.6641ZM76.416-32.1289Q77.7344-32.1289 78.6621-33.0566Q79.5898-33.9844 79.5898-35.2539Q79.5898-36.5234 78.6621-37.4512Q77.7344-38.3789 76.416-38.3789Q75.1465-38.3789 74.2188-37.4512Q73.291-36.5234 73.291-35.2539Q73.291-33.9844 74.2188-33.0566Q75.1465-32.1289 76.416-32.1289ZM66.748-8.64258Q68.0176-8.64258 68.9209-9.5459Q69.8242-10.4492 69.8242-11.7188Q69.8242-12.9883 68.9209-13.916Q68.0176-14.8438 66.748-14.8438Q65.4297-14.8438 64.502-13.916Q63.5742-12.9883 63.5742-11.7188Q63.5742-10.4492 64.502-9.5459Q65.4297-8.64258 66.748-8.64258ZM43.2129 1.12305Q44.4824 1.12305 45.3857 0.195312Q46.2891-0.732422 46.2891-2.00195Q46.2891-3.32031 45.3857-4.22363Q44.4824-5.12695 43.2129-5.12695Q41.9434-5.12695 41.0156-4.22363Q40.0879-3.32031 40.0879-2.00195Q40.0879-0.732422 41.0156 0.195312Q41.9434 1.12305 43.2129 1.12305ZM19.6777-8.64258Q20.9473-8.64258 21.875-9.5459Q22.8027-10.4492 22.8027-11.7188Q22.8027-12.9883 21.875-13.916Q20.9473-14.8438 19.6777-14.8438Q18.4082-14.8438 17.4805-13.916Q16.5527-12.9883 16.5527-11.7188Q16.5527-10.4492 17.4805-9.5459Q18.4082-8.64258 19.6777-8.64258Z"/>
  </g>
 </g>
</svg>
