<?xml version="1.0" encoding="UTF-8"?>
<!--Generator: Apple Native CoreSVG 175-->
<!DOCTYPE svg
PUBLIC "-//W3C//DTD SVG 1.1//EN"
       "http://www.w3.org/Graphics/SVG/1.1/DTD/svg11.dtd">
<svg version="1.1" xmlns="http://www.w3.org/2000/svg" xmlns:xlink="http://www.w3.org/1999/xlink" width="3300" height="2200">
 <!--glyph: "uni10079F.medium", point size: 100.0, font version: "17.3d3e1", template writer version: "65.1"-->
 <g id="Notes">
  <rect height="2200" id="artboard" style="fill:white;opacity:1" width="3300" x="0" y="0"/>
  <line style="fill:none;stroke:black;opacity:1;stroke-width:0.5;" x1="263" x2="3036" y1="292" y2="292"/>
  <text style="stroke:none;fill:black;font-family:sans-serif;font-size:13;font-weight:bold;" transform="matrix(1 0 0 1 263 322)">Weight/Scale Variations</text>
  <text style="stroke:none;fill:black;font-family:sans-serif;font-size:13;text-anchor:middle;" transform="matrix(1 0 0 1 559.711 322)">Ultralight</text>
  <text style="stroke:none;fill:black;font-family:sans-serif;font-size:13;text-anchor:middle;" transform="matrix(1 0 0 1 856.422 322)">Thin</text>
  <text style="stroke:none;fill:black;font-family:sans-serif;font-size:13;text-anchor:middle;" transform="matrix(1 0 0 1 1153.13 322)">Light</text>
  <text style="stroke:none;fill:black;font-family:sans-serif;font-size:13;text-anchor:middle;" transform="matrix(1 0 0 1 1449.84 322)">Regular</text>
  <text style="stroke:none;fill:black;font-family:sans-serif;font-size:13;text-anchor:middle;" transform="matrix(1 0 0 1 1746.56 322)">Medium</text>
  <text style="stroke:none;fill:black;font-family:sans-serif;font-size:13;text-anchor:middle;" transform="matrix(1 0 0 1 2043.27 322)">Semibold</text>
  <text style="stroke:none;fill:black;font-family:sans-serif;font-size:13;text-anchor:middle;" transform="matrix(1 0 0 1 2339.98 322)">Bold</text>
  <text style="stroke:none;fill:black;font-family:sans-serif;font-size:13;text-anchor:middle;" transform="matrix(1 0 0 1 2636.69 322)">Heavy</text>
  <text style="stroke:none;fill:black;font-family:sans-serif;font-size:13;text-anchor:middle;" transform="matrix(1 0 0 1 2933.4 322)">Black</text>
  <line style="fill:none;stroke:black;opacity:1;stroke-width:0.5;" x1="263" x2="3036" y1="1903" y2="1903"/>
  <g transform="matrix(1 0 0 1 263 1933)">
   <path d="M9.24805 0.830078Q10.8691 0.830078 12.2949 0.214844Q13.7207-0.400391 14.8096-1.49414Q15.8984-2.58789 16.5186-4.01367Q17.1387-5.43945 17.1387-7.05078Q17.1387-8.66211 16.5186-10.0879Q15.8984-11.5137 14.8047-12.6074Q13.7109-13.7012 12.2852-14.3164Q10.8594-14.9316 9.23828-14.9316Q7.62695-14.9316 6.20117-14.3164Q4.77539-13.7012 3.69141-12.6074Q2.60742-11.5137 1.9873-10.0879Q1.36719-8.66211 1.36719-7.05078Q1.36719-5.43945 1.9873-4.01367Q2.60742-2.58789 3.69629-1.49414Q4.78516-0.400391 6.21094 0.214844Q7.63672 0.830078 9.24805 0.830078ZM9.24805-0.654297Q7.91992-0.654297 6.7627-1.14746Q5.60547-1.64062 4.73145-2.51953Q3.85742-3.39844 3.36426-4.56055Q2.87109-5.72266 2.87109-7.05078Q2.87109-8.37891 3.35938-9.54102Q3.84766-10.7031 4.72168-11.582Q5.5957-12.4609 6.75293-12.9541Q7.91016-13.4473 9.23828-13.4473Q10.5762-13.4473 11.7334-12.9541Q12.8906-12.4609 13.7695-11.582Q14.6484-10.7031 15.1465-9.54102Q15.6445-8.37891 15.6445-7.05078Q15.6445-5.72266 15.1514-4.56055Q14.6582-3.39844 13.7842-2.51953Q12.9102-1.64062 11.748-1.14746Q10.5859-0.654297 9.24805-0.654297ZM5.6543-7.05078Q5.6543-6.72852 5.85938-6.52832Q6.06445-6.32812 6.40625-6.32812L8.51562-6.32812L8.51562-4.20898Q8.51562-3.88672 8.71094-3.67676Q8.90625-3.4668 9.23828-3.4668Q9.56055-3.4668 9.77051-3.67676Q9.98047-3.88672 9.98047-4.20898L9.98047-6.32812L12.0898-6.32812Q12.4219-6.32812 12.627-6.52832Q12.832-6.72852 12.832-7.05078Q12.832-7.38281 12.627-7.58789Q12.4219-7.79297 12.0898-7.79297L9.98047-7.79297L9.98047-9.90234Q9.98047-10.2344 9.77051-10.4443Q9.56055-10.6543 9.23828-10.6543Q8.90625-10.6543 8.71094-10.4443Q8.51562-10.2344 8.51562-9.90234L8.51562-7.79297L6.40625-7.79297Q6.06445-7.79297 5.85938-7.58789Q5.6543-7.38281 5.6543-7.05078Z"/>
  </g>
  <g transform="matrix(1 0 0 1 281.867 1933)">
   <path d="M11.709 2.91016Q13.75 2.91016 15.5518 2.12891Q17.3535 1.34766 18.7305-0.0292969Q20.1074-1.40625 20.8887-3.20801Q21.6699-5.00977 21.6699-7.05078Q21.6699-9.0918 20.8887-10.8936Q20.1074-12.6953 18.7305-14.0723Q17.3535-15.4492 15.5469-16.2305Q13.7402-17.0117 11.6992-17.0117Q9.6582-17.0117 7.85645-16.2305Q6.05469-15.4492 4.68262-14.0723Q3.31055-12.6953 2.5293-10.8936Q1.74805-9.0918 1.74805-7.05078Q1.74805-5.00977 2.5293-3.20801Q3.31055-1.40625 4.6875-0.0292969Q6.06445 1.34766 7.86621 2.12891Q9.66797 2.91016 11.709 2.91016ZM11.709 1.25Q9.98047 1.25 8.47656 0.605469Q6.97266-0.0390625 5.83496-1.17676Q4.69727-2.31445 4.05762-3.81836Q3.41797-5.32227 3.41797-7.05078Q3.41797-8.7793 4.05762-10.2832Q4.69727-11.7871 5.83008-12.9297Q6.96289-14.0723 8.4668-14.7119Q9.9707-15.3516 11.6992-15.3516Q13.4277-15.3516 14.9316-14.7119Q16.4355-14.0723 17.5781-12.9297Q18.7207-11.7871 19.3652-10.2832Q20.0098-8.7793 20.0098-7.05078Q20.0098-5.32227 19.3701-3.81836Q18.7305-2.31445 17.5928-1.17676Q16.4551-0.0390625 14.9463 0.605469Q13.4375 1.25 11.709 1.25ZM7.17773-7.05078Q7.17773-6.69922 7.41211-6.47461Q7.64648-6.25 8.01758-6.25L10.8887-6.25L10.8887-3.36914Q10.8887-2.99805 11.1133-2.76855Q11.3379-2.53906 11.6895-2.53906Q12.0605-2.53906 12.29-2.76855Q12.5195-2.99805 12.5195-3.36914L12.5195-6.25L15.4004-6.25Q15.7715-6.25 16.001-6.47461Q16.2305-6.69922 16.2305-7.05078Q16.2305-7.42188 16.001-7.65137Q15.7715-7.88086 15.4004-7.88086L12.5195-7.88086L12.5195-10.752Q12.5195-11.1328 12.29-11.3623Q12.0605-11.5918 11.6895-11.5918Q11.3379-11.5918 11.1133-11.3574Q10.8887-11.123 10.8887-10.752L10.8887-7.88086L8.01758-7.88086Q7.63672-7.88086 7.40723-7.65137Q7.17773-7.42188 7.17773-7.05078Z"/>
  </g>
  <g transform="matrix(1 0 0 1 305.646 1933)">
   <path d="M14.9707 5.66406Q17.0605 5.66406 18.96 5.01465Q20.8594 4.36523 22.4512 3.19336Q24.043 2.02148 25.2197 0.429688Q26.3965-1.16211 27.0459-3.06641Q27.6953-4.9707 27.6953-7.05078Q27.6953-9.14062 27.0459-11.04Q26.3965-12.9395 25.2197-14.5312Q24.043-16.123 22.4512-17.2998Q20.8594-18.4766 18.9551-19.126Q17.0508-19.7754 14.9609-19.7754Q12.8711-19.7754 10.9717-19.126Q9.07227-18.4766 7.48535-17.2998Q5.89844-16.123 4.72168-14.5312Q3.54492-12.9395 2.90039-11.04Q2.25586-9.14062 2.25586-7.05078Q2.25586-4.9707 2.90527-3.06641Q3.55469-1.16211 4.72656 0.429688Q5.89844 2.02148 7.49023 3.19336Q9.08203 4.36523 10.9814 5.01465Q12.8809 5.66406 14.9707 5.66406ZM14.9707 3.84766Q13.1641 3.84766 11.5283 3.2959Q9.89258 2.74414 8.53516 1.74805Q7.17773 0.751953 6.17676-0.610352Q5.17578-1.97266 4.62891-3.6084Q4.08203-5.24414 4.08203-7.05078Q4.08203-8.86719 4.62891-10.5029Q5.17578-12.1387 6.17188-13.501Q7.16797-14.8633 8.52539-15.8594Q9.88281-16.8555 11.5186-17.4023Q13.1543-17.9492 14.9609-17.9492Q16.7773-17.9492 18.4131-17.4023Q20.0488-16.8555 21.4111-15.8594Q22.7734-14.8633 23.7695-13.501Q24.7656-12.1387 25.3174-10.5029Q25.8691-8.86719 25.8691-7.05078Q25.8789-5.24414 25.332-3.6084Q24.7852-1.97266 23.7842-0.610352Q22.7832 0.751953 21.4209 1.74805Q20.0586 2.74414 18.4229 3.2959Q16.7871 3.84766 14.9707 3.84766ZM9.19922-7.05078Q9.19922-6.66992 9.45801-6.4209Q9.7168-6.17188 10.1172-6.17188L14.0625-6.17188L14.0625-2.2168Q14.0625-1.81641 14.3115-1.55762Q14.5605-1.29883 14.9512-1.29883Q15.3516-1.29883 15.6104-1.55273Q15.8691-1.80664 15.8691-2.2168L15.8691-6.17188L19.8242-6.17188Q20.2246-6.17188 20.4785-6.4209Q20.7324-6.66992 20.7324-7.05078Q20.7324-7.46094 20.4785-7.71484Q20.2246-7.96875 19.8242-7.96875L15.8691-7.96875L15.8691-11.9141Q15.8691-12.3242 15.6104-12.583Q15.3516-12.8418 14.9512-12.8418Q14.5605-12.8418 14.3115-12.583Q14.0625-12.3242 14.0625-11.9141L14.0625-7.96875L10.1172-7.96875Q9.70703-7.96875 9.45312-7.71484Q9.19922-7.46094 9.19922-7.05078Z"/>
  </g>
  <text style="stroke:none;fill:black;font-family:sans-serif;font-size:13;font-weight:bold;" transform="matrix(1 0 0 1 263 1953)">Design Variations</text>
  <text style="stroke:none;fill:black;font-family:sans-serif;font-size:13;" transform="matrix(1 0 0 1 263 1971)">Symbols are supported in up to nine weights and three scales.</text>
  <text style="stroke:none;fill:black;font-family:sans-serif;font-size:13;" transform="matrix(1 0 0 1 263 1989)">For optimal layout with text and other symbols, vertically align</text>
  <text style="stroke:none;fill:black;font-family:sans-serif;font-size:13;" transform="matrix(1 0 0 1 263 2007)">symbols with the adjacent text.</text>
  <line style="fill:none;stroke:#00AEEF;stroke-width:0.5;opacity:1.0;" x1="776" x2="776" y1="1919" y2="1933"/>
  <g transform="matrix(1 0 0 1 776 1933)">
   <path d="M3.31055 0.15625Q3.70117 0.15625 3.91602-0.00976562Q4.13086-0.175781 4.26758-0.585938L5.52734-4.0332L11.2891-4.0332L12.5488-0.585938Q12.6855-0.175781 12.9004-0.00976562Q13.1152 0.15625 13.4961 0.15625Q13.8867 0.15625 14.1162-0.0585938Q14.3457-0.273438 14.3457-0.644531Q14.3457-0.869141 14.2383-1.17188L9.6582-13.3691Q9.48242-13.8184 9.17969-14.043Q8.87695-14.2676 8.4082-14.2676Q7.5-14.2676 7.17773-13.3789L2.59766-1.16211Q2.49023-0.859375 2.49023-0.634766Q2.49023-0.263672 2.70996-0.0537109Q2.92969 0.15625 3.31055 0.15625ZM6.00586-5.51758L8.37891-12.0898L8.42773-12.0898L10.8008-5.51758Z"/>
  </g>
  <line style="fill:none;stroke:#00AEEF;stroke-width:0.5;opacity:1.0;" x1="793.197" x2="793.197" y1="1919" y2="1933"/>
  <text style="stroke:none;fill:black;font-family:sans-serif;font-size:13;font-weight:bold;" transform="matrix(1 0 0 1 776 1953)">Margins</text>
  <text style="stroke:none;fill:black;font-family:sans-serif;font-size:13;" transform="matrix(1 0 0 1 776 1971)">Leading and trailing margins on the left and right side of each symbol</text>
  <text style="stroke:none;fill:black;font-family:sans-serif;font-size:13;" transform="matrix(1 0 0 1 776 1989)">can be adjusted by modifying the x-location of the margin guidelines.</text>
  <text style="stroke:none;fill:black;font-family:sans-serif;font-size:13;" transform="matrix(1 0 0 1 776 2007)">Modifications are automatically applied proportionally to all</text>
  <text style="stroke:none;fill:black;font-family:sans-serif;font-size:13;" transform="matrix(1 0 0 1 776 2025)">scales and weights.</text>
  <g transform="matrix(1 0 0 1 1289 1933)">
   <path d="M2.8418 1.86523L4.54102 3.57422Q5.18555 4.22852 5.90332 4.17969Q6.62109 4.13086 7.31445 3.35938L18.0078-8.42773L17.041-9.4043L6.42578 2.27539Q6.16211 2.57812 5.89355 2.61719Q5.625 2.65625 5.27344 2.30469L4.10156 1.14258Q3.75 0.791016 3.79395 0.522461Q3.83789 0.253906 4.14062-0.0195312L15.6152-10.8203L14.6387-11.7871L3.04688-0.898438Q2.30469-0.214844 2.25098 0.498047Q2.19727 1.21094 2.8418 1.86523ZM9.25781-16.3281Q8.94531-16.0254 8.90625-15.6348Q8.86719-15.2441 9.04297-14.9512Q9.21875-14.6777 9.55566-14.541Q9.89258-14.4043 10.3809-14.5215Q11.4746-14.7754 12.5977-14.7314Q13.7207-14.6875 14.7949-13.9844L14.209-12.5293Q13.9551-11.9043 14.0674-11.4404Q14.1797-10.9766 14.5801-10.5664L16.875-8.25195Q17.2363-7.88086 17.5781-7.82227Q17.9199-7.76367 18.3398-7.8418L19.4043-8.03711L20.0684-7.36328L20.0293-6.80664Q20-6.43555 20.1221-6.12305Q20.2441-5.81055 20.6055-5.44922L21.3672-4.70703Q21.7285-4.3457 22.1533-4.33105Q22.5781-4.31641 22.9297-4.66797L25.8398-7.58789Q26.1914-7.93945 26.1816-8.35449Q26.1719-8.76953 25.8105-9.13086L25.0391-9.89258Q24.6875-10.2539 24.3799-10.3857Q24.0723-10.5176 23.7109-10.4883L23.1348-10.4395L22.4902-11.0742L22.7344-12.1973Q22.832-12.6172 22.6953-12.9834Q22.5586-13.3496 22.1191-13.7891L19.9219-15.9766Q18.6719-17.2168 17.2607-17.8369Q15.8496-18.457 14.4189-18.4814Q12.9883-18.5059 11.665-17.959Q10.3418-17.4121 9.25781-16.3281ZM10.752-15.957Q11.6602-16.6211 12.7002-16.9043Q13.7402-17.1875 14.8047-17.085Q15.8691-16.9824 16.8701-16.5137Q17.8711-16.0449 18.7012-15.2051L21.1328-12.793Q21.3086-12.6172 21.3525-12.4512Q21.3965-12.2852 21.3379-12.0312L21.0156-10.5469L22.5195-9.0625L23.5059-9.12109Q23.6914-9.13086 23.7891-9.09668Q23.8867-9.0625 24.0332-8.91602L24.6094-8.33984L22.168-5.89844L21.5918-6.47461Q21.4453-6.62109 21.4062-6.71875Q21.3672-6.81641 21.377-7.01172L21.4453-7.98828L19.9512-9.47266L18.4277-9.21875Q18.1836-9.16992 18.042-9.2041Q17.9004-9.23828 17.7148-9.41406L15.7129-11.416Q15.5176-11.5918 15.4932-11.7529Q15.4688-11.9141 15.5859-12.1875L16.4648-14.2773Q15.293-15.3711 13.8281-15.791Q12.3633-16.2109 10.8398-15.7617Q10.7227-15.7324 10.6885-15.8057Q10.6543-15.8789 10.752-15.957Z"/>
  </g>
  <text style="stroke:none;fill:black;font-family:sans-serif;font-size:13;font-weight:bold;" transform="matrix(1 0 0 1 1289 1953)">Exporting</text>
  <text style="stroke:none;fill:black;font-family:sans-serif;font-size:13;" transform="matrix(1 0 0 1 1289 1971)">Symbols should be outlined when exporting to ensure the</text>
  <text style="stroke:none;fill:black;font-family:sans-serif;font-size:13;" transform="matrix(1 0 0 1 1289 1989)">design is preserved when submitting to Xcode.</text>
  <text id="template-version" style="stroke:none;fill:black;font-family:sans-serif;font-size:13;text-anchor:end;" transform="matrix(1 0 0 1 3036 1933)">Template v.3.0</text>
  <text style="stroke:none;fill:black;font-family:sans-serif;font-size:13;text-anchor:end;" transform="matrix(1 0 0 1 3036 1951)">Requires Xcode 13 or greater</text>
  <text id="descriptive-name" style="stroke:none;fill:black;font-family:sans-serif;font-size:13;text-anchor:end;" transform="matrix(1 0 0 1 3036 1969)">Generated from exclamationmark.shield</text>
  <text style="stroke:none;fill:black;font-family:sans-serif;font-size:13;text-anchor:end;" transform="matrix(1 0 0 1 3036 1987)">Typeset at 100 points</text>
  <text style="stroke:none;fill:black;font-family:sans-serif;font-size:13;" transform="matrix(1 0 0 1 263 726)">Small</text>
  <text style="stroke:none;fill:black;font-family:sans-serif;font-size:13;" transform="matrix(1 0 0 1 263 1156)">Medium</text>
  <text style="stroke:none;fill:black;font-family:sans-serif;font-size:13;" transform="matrix(1 0 0 1 263 1586)">Large</text>
 </g>
 <g id="Guides">
  <g id="H-reference" style="fill:#27AAE1;stroke:none;" transform="matrix(1 0 0 1 339 696)">
   <path d="M0.993347 0L3.6377 0L29.3282-67.1326L30.0301-67.1326L30.0301-70.459L28.1227-70.459ZM11.6882-24.4797L46.9818-24.4797L46.2311-26.7288L12.4382-26.7288ZM55.1193 0L57.7637 0L30.6381-70.459L29.4327-70.459L29.4327-67.1326Z"/>
  </g>
  <line id="Baseline-S" style="fill:none;stroke:#27AAE1;opacity:1;stroke-width:0.5;" x1="263" x2="3036" y1="696" y2="696"/>
  <line id="Capline-S" style="fill:none;stroke:#27AAE1;opacity:1;stroke-width:0.5;" x1="263" x2="3036" y1="625.541" y2="625.541"/>
  <g id="H-reference" style="fill:#27AAE1;stroke:none;" transform="matrix(1 0 0 1 339 1126)">
   <path d="M0.993347 0L3.6377 0L29.3282-67.1326L30.0301-67.1326L30.0301-70.459L28.1227-70.459ZM11.6882-24.4797L46.9818-24.4797L46.2311-26.7288L12.4382-26.7288ZM55.1193 0L57.7637 0L30.6381-70.459L29.4327-70.459L29.4327-67.1326Z"/>
  </g>
  <line id="Baseline-M" style="fill:none;stroke:#27AAE1;opacity:1;stroke-width:0.5;" x1="263" x2="3036" y1="1126" y2="1126"/>
  <line id="Capline-M" style="fill:none;stroke:#27AAE1;opacity:1;stroke-width:0.5;" x1="263" x2="3036" y1="1055.54" y2="1055.54"/>
  <g id="H-reference" style="fill:#27AAE1;stroke:none;" transform="matrix(1 0 0 1 339 1556)">
   <path d="M0.993347 0L3.6377 0L29.3282-67.1326L30.0301-67.1326L30.0301-70.459L28.1227-70.459ZM11.6882-24.4797L46.9818-24.4797L46.2311-26.7288L12.4382-26.7288ZM55.1193 0L57.7637 0L30.6381-70.459L29.4327-70.459L29.4327-67.1326Z"/>
  </g>
  <line id="Baseline-L" style="fill:none;stroke:#27AAE1;opacity:1;stroke-width:0.5;" x1="263" x2="3036" y1="1556" y2="1556"/>
  <line id="Capline-L" style="fill:none;stroke:#27AAE1;opacity:1;stroke-width:0.5;" x1="263" x2="3036" y1="1485.54" y2="1485.54"/>
  <line id="left-margin-Ultralight-S" style="fill:none;stroke:#00AEEF;stroke-width:0.5;opacity:1.0;" x1="516.756" x2="516.756" y1="600.785" y2="720.121"/>
  <line id="right-margin-Ultralight-S" style="fill:none;stroke:#00AEEF;stroke-width:0.5;opacity:1.0;" x1="602.666" x2="602.666" y1="600.785" y2="720.121"/>
  <line id="left-margin-Regular-S" style="fill:none;stroke:#00AEEF;stroke-width:0.5;opacity:1.0;" x1="1402.53" x2="1402.53" y1="600.785" y2="720.121"/>
  <line id="right-margin-Regular-S" style="fill:none;stroke:#00AEEF;stroke-width:0.5;opacity:1.0;" x1="1497.16" x2="1497.16" y1="600.785" y2="720.121"/>
  <line id="left-margin-Black-S" style="fill:none;stroke:#00AEEF;stroke-width:0.5;opacity:1.0;" x1="2887.31" x2="2887.31" y1="600.785" y2="720.121"/>
  <line id="right-margin-Black-S" style="fill:none;stroke:#00AEEF;stroke-width:0.5;opacity:1.0;" x1="2979.49" x2="2979.49" y1="600.785" y2="720.121"/>
 </g>
 <g id="Symbols">
  <g id="Black-S" transform="matrix(1 0 0 1 2887.31 696)">
   <path d="M48.5352 5.61523Q49.2676 5.61523 50.1465 5.32227Q51.0254 5.0293 51.8066 4.6875Q60.498 0.537109 66.5283-3.05176Q72.5586-6.64062 76.2695-10.2539Q79.9805-13.8672 81.6895-18.0176Q83.3984-22.168 83.3984-27.3438L83.3984-54.4922Q83.3984-59.8633 81.6162-62.793Q79.834-65.7227 74.9023-67.8223Q73.7793-68.3105 71.167-69.165Q68.5547-70.0195 65.5029-70.9961Q62.4512-71.9727 59.9365-72.7295Q57.4219-73.4863 56.4941-73.7793Q54.6875-74.3164 52.4902-74.6338Q50.293-74.9512 48.5352-74.9512Q46.7773-74.9512 44.6045-74.6338Q42.4316-74.3164 40.5762-73.7793Q39.6484-73.5352 37.1338-72.7539Q34.6191-71.9727 31.5674-71.0205Q28.5156-70.0684 25.9033-69.1895Q23.291-68.3105 22.168-67.8223Q17.2363-65.7227 15.4541-62.793Q13.6719-59.8633 13.6719-54.4922L13.6719-27.3438Q13.6719-22.168 15.3809-18.0176Q17.0898-13.8672 20.8008-10.2539Q24.5117-6.64062 30.542-3.05176Q36.5723 0.537109 45.2637 4.6875Q46.0449 5.0293 46.9238 5.32227Q47.8027 5.61523 48.5352 5.61523ZM48.5352-7.91016Q48.3398-7.91016 48.0957-8.00781Q47.8516-8.10547 47.168-8.54492Q40.9668-12.4512 36.9141-14.9902Q32.8613-17.5293 30.542-19.4824Q28.2227-21.4355 27.2705-23.5596Q26.3184-25.6836 26.3184-28.8086L26.3184-53.125Q26.3184-54.3945 26.6846-55.0293Q27.0508-55.6641 27.9297-56.0059Q29.7363-56.7383 32.2266-57.6416Q34.7168-58.5449 37.207-59.3994Q39.6973-60.2539 41.6016-60.8643Q43.5059-61.4746 44.1406-61.6699Q45.752-62.1582 46.7041-62.3779Q47.6562-62.5977 48.5352-62.5977Q49.4141-62.5977 50.3662-62.3779Q51.3184-62.1582 52.9297-61.6699Q53.6133-61.4746 55.4932-60.8643Q57.373-60.2539 59.8633-59.3994Q62.3535-58.5449 64.8438-57.6416Q67.334-56.7383 69.1406-56.0059Q70.0195-55.6641 70.3857-55.0293Q70.752-54.3945 70.752-53.125L70.752-28.8086Q70.752-25.5371 69.6533-23.1934Q68.5547-20.8496 66.1133-18.75Q63.6719-16.6504 59.668-14.2578Q55.6641-11.8652 49.9023-8.54492Q49.2188-8.1543 48.9746-8.03223Q48.7305-7.91016 48.5352-7.91016ZM48.584-33.8379Q53.6133-33.8379 53.9062-38.916L54.5898-49.4629Q54.7852-52.1484 53.1006-53.7598Q51.416-55.3711 48.5352-55.3711Q45.7031-55.3711 43.9941-53.7598Q42.2852-52.1484 42.4805-49.4629L43.1641-38.8184Q43.457-33.8379 48.584-33.8379ZM48.584-19.9707Q51.3184-19.9707 53.0273-21.3379Q54.7363-22.7051 54.7363-25.2441Q54.7363-27.7344 53.0273-29.126Q51.3184-30.5176 48.584-30.5176Q45.8984-30.5176 44.1162-29.1504Q42.334-27.7832 42.334-25.2441Q42.334-22.7051 44.1162-21.3379Q45.8984-19.9707 48.584-19.9707Z"/>
  </g>
  <g id="Regular-S" transform="matrix(1 0 0 1 1402.53 696)">
   <path d="M46.3867 4.78516Q46.7773 4.78516 47.4854 4.61426Q48.1934 4.44336 48.9746 4.00391Q57.1777-0.488281 62.8662-4.05273Q68.5547-7.61719 72.0459-11.0596Q75.5371-14.502 77.0996-18.5059Q78.6621-22.5098 78.6621-27.9297L78.6621-57.3242Q78.6621-60.3027 77.3193-61.5967Q75.9766-62.8906 73.7305-63.8672Q72.2168-64.502 68.8965-65.7471Q65.5762-66.9922 61.6943-68.3838Q57.8125-69.7754 54.4922-70.9473Q51.1719-72.1191 49.6582-72.6562Q48.9258-72.9004 48.0713-73.0713Q47.2168-73.2422 46.3867-73.2422Q45.5566-73.2422 44.7021-73.0225Q43.8477-72.8027 43.1152-72.6562Q41.6016-72.2656 38.2812-71.1182Q34.9609-69.9707 31.0791-68.5303Q27.1973-67.0898 23.8525-65.7959Q20.5078-64.502 19.043-63.8672Q16.7969-62.8906 15.4541-61.5967Q14.1113-60.3027 14.1113-57.3242L14.1113-27.9297Q14.1113-22.5098 15.6738-18.5059Q17.2363-14.502 20.7275-11.0596Q24.2188-7.61719 29.8828-4.05273Q35.5469-0.488281 43.7988 4.00391Q44.5801 4.44336 45.2637 4.61426Q45.9473 4.78516 46.3867 4.78516ZM46.3867-3.22266Q45.9473-3.22266 45.4102-3.39355Q44.873-3.56445 43.8965-4.10156Q37.3047-8.05664 32.8857-10.9131Q28.4668-13.7695 25.8789-16.3818Q23.291-18.9941 22.168-22.0947Q21.0449-25.1953 21.0449-29.6387L21.0449-56.0059Q21.0449-56.6406 21.2402-57.0068Q21.4355-57.373 22.0215-57.6172Q24.3652-58.5449 27.3682-59.5947Q30.3711-60.6445 33.5693-61.7432Q36.7676-62.8418 39.7461-63.916Q42.7246-64.9902 45.0684-65.918Q45.459-66.0645 45.7764-66.1133Q46.0938-66.1621 46.3867-66.1621Q46.6797-66.1621 46.9971-66.1133Q47.3145-66.0645 47.7051-65.918Q50.0488-64.9902 53.0029-63.8916Q55.957-62.793 59.1309-61.6455Q62.3047-60.498 65.3076-59.4482Q68.3105-58.3984 70.7031-57.6172Q71.3379-57.373 71.5088-57.0068Q71.6797-56.6406 71.6797-56.0059L71.6797-29.6387Q71.6797-25.1953 70.5811-22.0947Q69.4824-18.9941 66.8945-16.3818Q64.3066-13.7695 59.8877-10.9131Q55.4688-8.05664 48.8281-4.10156Q47.9004-3.56445 47.3633-3.39355Q46.8262-3.22266 46.3867-3.22266ZM46.3867-29.1016Q49.6094-29.1016 49.6582-32.4707L50.293-52.4902Q50.3418-54.1016 49.1943-55.2002Q48.0469-56.2988 46.3379-56.2988Q44.5801-56.2988 43.4814-55.2246Q42.3828-54.1504 42.4316-52.5391L42.9688-32.4707Q43.0664-29.1016 46.3867-29.1016ZM46.3867-16.3086Q48.1445-16.3086 49.4873-17.5537Q50.8301-18.7988 50.8301-20.6055Q50.8301-22.4609 49.5117-23.6816Q48.1934-24.9023 46.3867-24.9023Q44.5312-24.9023 43.2129-23.6572Q41.8945-22.4121 41.8945-20.6055Q41.8945-18.8477 43.2373-17.5781Q44.5801-16.3086 46.3867-16.3086Z"/>
  </g>
  <g id="Ultralight-S" transform="matrix(1 0 0 1 516.756 696)">
   <path d="M42.8711 2.7832Q43.5059 2.7832 44.1895 2.49023Q44.873 2.19727 45.3613 1.9043Q53.1738-2.83203 58.4229-6.27441Q63.6719-9.7168 66.7969-12.6221Q69.9219-15.5273 71.2402-18.75Q72.5586-21.9727 72.5586-26.3672L72.5586-55.127Q72.5586-58.3008 71.5088-59.7412Q70.459-61.1816 67.4316-62.3047Q64.7461-63.3301 62.0361-64.4043Q59.3262-65.4785 56.5674-66.5527Q53.8086-67.627 51.0498-68.6523Q48.291-69.6777 45.6543-70.6055Q44.9219-70.8496 44.2627-71.0205Q43.6035-71.1914 42.8711-71.1914Q42.1875-71.1914 41.5283-71.0205Q40.8691-70.8496 40.1367-70.6055Q37.4512-69.6289 34.7168-68.6035Q31.9824-67.5781 29.2236-66.5283Q26.4648-65.4785 23.7061-64.4043Q20.9473-63.3301 18.3105-62.3047Q15.2832-61.2305 14.2334-59.7656Q13.1836-58.3008 13.1836-55.127L13.1836-26.3672Q13.1836-21.9727 14.5508-18.7744Q15.918-15.5762 19.043-12.7197Q22.168-9.86328 27.3926-6.4209Q32.6172-2.97852 40.3809 1.9043Q40.8691 2.19727 41.5527 2.49023Q42.2363 2.7832 42.8711 2.7832ZM42.8711 0.537109Q42.334 0.537109 41.7969 0.268555Q41.2598 0 40.918-0.292969Q34.2285-4.63867 29.3945-7.73926Q24.5605-10.8398 21.46-13.501Q18.3594-16.1621 16.8945-19.2139Q15.4297-22.2656 15.4297-26.4648L15.4297-54.7363Q15.4297-56.9824 15.9668-58.0078Q16.5039-59.0332 18.1152-59.7168Q19.5312-60.2539 22.6074-61.4502Q25.6836-62.6465 29.2725-64.0381Q32.8613-65.4297 35.9619-66.6016Q39.0625-67.7734 40.4785-68.3105Q41.2109-68.6523 41.8457-68.8232Q42.4805-68.9941 42.8711-68.9941Q43.2617-68.9941 43.8721-68.7988Q44.4824-68.6035 45.2637-68.3105Q46.7285-67.7734 49.8047-66.6016Q52.8809-65.4297 56.4697-64.0381Q60.0586-62.6465 63.1348-61.4502Q66.2109-60.2539 67.6758-59.7168Q69.2383-59.0332 69.7998-58.0078Q70.3613-56.9824 70.3613-54.7363L70.3613-26.4648Q70.3613-22.2656 68.8721-19.2139Q67.3828-16.1621 64.2822-13.501Q61.1816-10.8398 56.3477-7.76367Q51.5137-4.6875 44.873-0.292969Q44.4824 0 43.9209 0.268555Q43.3594 0.537109 42.8711 0.537109ZM42.8711-29.3945Q44.1406-29.3945 44.1406-30.957L44.3848-51.8555Q44.3848-52.5879 43.9697-53.0273Q43.5547-53.4668 42.8711-53.4668Q42.1387-53.4668 41.7236-53.0273Q41.3086-52.5879 41.3086-51.8555L41.5527-30.957Q41.6016-29.3945 42.8711-29.3945ZM42.8711-18.5547Q43.9453-18.5547 44.6777-19.3115Q45.4102-20.0684 45.4102-21.0938Q45.4102-22.1191 44.6777-22.8516Q43.9453-23.584 42.8711-23.584Q41.748-23.584 41.04-22.8516Q40.332-22.1191 40.332-21.0938Q40.332-20.0684 41.0645-19.3115Q41.7969-18.5547 42.8711-18.5547Z"/>
  </g>
 </g>
</svg>
