<?xml version="1.0" encoding="UTF-8"?>
<!--Generator: Apple Native CoreSVG 175-->
<!DOCTYPE svg
PUBLIC "-//W3C//DTD SVG 1.1//EN"
       "http://www.w3.org/Graphics/SVG/1.1/DTD/svg11.dtd">
<svg version="1.1" xmlns="http://www.w3.org/2000/svg" xmlns:xlink="http://www.w3.org/1999/xlink" width="3300" height="2200">
 <!--glyph: "uni1001B9.medium", point size: 100.0, font version: "17.1d1e1", template writer version: "65.1"-->
 <g id="Notes">
  <rect height="2200" id="artboard" style="fill:white;opacity:1" width="3300" x="0" y="0"/>
  <line style="fill:none;stroke:black;opacity:1;stroke-width:0.5;" x1="263" x2="3036" y1="292" y2="292"/>
  <text style="stroke:none;fill:black;font-family:sans-serif;font-size:13;font-weight:bold;" transform="matrix(1 0 0 1 263 322)">Weight/Scale Variations</text>
  <text style="stroke:none;fill:black;font-family:sans-serif;font-size:13;text-anchor:middle;" transform="matrix(1 0 0 1 559.711 322)">Ultralight</text>
  <text style="stroke:none;fill:black;font-family:sans-serif;font-size:13;text-anchor:middle;" transform="matrix(1 0 0 1 856.422 322)">Thin</text>
  <text style="stroke:none;fill:black;font-family:sans-serif;font-size:13;text-anchor:middle;" transform="matrix(1 0 0 1 1153.13 322)">Light</text>
  <text style="stroke:none;fill:black;font-family:sans-serif;font-size:13;text-anchor:middle;" transform="matrix(1 0 0 1 1449.84 322)">Regular</text>
  <text style="stroke:none;fill:black;font-family:sans-serif;font-size:13;text-anchor:middle;" transform="matrix(1 0 0 1 1746.56 322)">Medium</text>
  <text style="stroke:none;fill:black;font-family:sans-serif;font-size:13;text-anchor:middle;" transform="matrix(1 0 0 1 2043.27 322)">Semibold</text>
  <text style="stroke:none;fill:black;font-family:sans-serif;font-size:13;text-anchor:middle;" transform="matrix(1 0 0 1 2339.98 322)">Bold</text>
  <text style="stroke:none;fill:black;font-family:sans-serif;font-size:13;text-anchor:middle;" transform="matrix(1 0 0 1 2636.69 322)">Heavy</text>
  <text style="stroke:none;fill:black;font-family:sans-serif;font-size:13;text-anchor:middle;" transform="matrix(1 0 0 1 2933.4 322)">Black</text>
  <line style="fill:none;stroke:black;opacity:1;stroke-width:0.5;" x1="263" x2="3036" y1="1903" y2="1903"/>
  <g transform="matrix(1 0 0 1 263 1933)">
   <path d="M9.24805 0.830078Q10.8691 0.830078 12.2949 0.214844Q13.7207-0.400391 14.8096-1.49414Q15.8984-2.58789 16.5186-4.01367Q17.1387-5.43945 17.1387-7.05078Q17.1387-8.66211 16.5186-10.0879Q15.8984-11.5137 14.8047-12.6074Q13.7109-13.7012 12.2852-14.3164Q10.8594-14.9316 9.23828-14.9316Q7.62695-14.9316 6.20117-14.3164Q4.77539-13.7012 3.69141-12.6074Q2.60742-11.5137 1.9873-10.0879Q1.36719-8.66211 1.36719-7.05078Q1.36719-5.43945 1.9873-4.01367Q2.60742-2.58789 3.69629-1.49414Q4.78516-0.400391 6.21094 0.214844Q7.63672 0.830078 9.24805 0.830078ZM9.24805-0.654297Q7.91992-0.654297 6.7627-1.14746Q5.60547-1.64062 4.73145-2.51953Q3.85742-3.39844 3.36426-4.56055Q2.87109-5.72266 2.87109-7.05078Q2.87109-8.37891 3.35938-9.54102Q3.84766-10.7031 4.72168-11.582Q5.5957-12.4609 6.75293-12.9541Q7.91016-13.4473 9.23828-13.4473Q10.5762-13.4473 11.7334-12.9541Q12.8906-12.4609 13.7695-11.582Q14.6484-10.7031 15.1465-9.54102Q15.6445-8.37891 15.6445-7.05078Q15.6445-5.72266 15.1514-4.56055Q14.6582-3.39844 13.7842-2.51953Q12.9102-1.64062 11.748-1.14746Q10.5859-0.654297 9.24805-0.654297ZM5.6543-7.05078Q5.6543-6.72852 5.85938-6.52832Q6.06445-6.32812 6.40625-6.32812L8.51562-6.32812L8.51562-4.20898Q8.51562-3.88672 8.71094-3.67676Q8.90625-3.4668 9.23828-3.4668Q9.56055-3.4668 9.77051-3.67676Q9.98047-3.88672 9.98047-4.20898L9.98047-6.32812L12.0898-6.32812Q12.4219-6.32812 12.627-6.52832Q12.832-6.72852 12.832-7.05078Q12.832-7.38281 12.627-7.58789Q12.4219-7.79297 12.0898-7.79297L9.98047-7.79297L9.98047-9.90234Q9.98047-10.2344 9.77051-10.4443Q9.56055-10.6543 9.23828-10.6543Q8.90625-10.6543 8.71094-10.4443Q8.51562-10.2344 8.51562-9.90234L8.51562-7.79297L6.40625-7.79297Q6.06445-7.79297 5.85938-7.58789Q5.6543-7.38281 5.6543-7.05078Z"/>
  </g>
  <g transform="matrix(1 0 0 1 281.867 1933)">
   <path d="M11.709 2.91016Q13.75 2.91016 15.5518 2.12891Q17.3535 1.34766 18.7305-0.0292969Q20.1074-1.40625 20.8887-3.20801Q21.6699-5.00977 21.6699-7.05078Q21.6699-9.0918 20.8887-10.8936Q20.1074-12.6953 18.7305-14.0723Q17.3535-15.4492 15.5469-16.2305Q13.7402-17.0117 11.6992-17.0117Q9.6582-17.0117 7.85645-16.2305Q6.05469-15.4492 4.68262-14.0723Q3.31055-12.6953 2.5293-10.8936Q1.74805-9.0918 1.74805-7.05078Q1.74805-5.00977 2.5293-3.20801Q3.31055-1.40625 4.6875-0.0292969Q6.06445 1.34766 7.86621 2.12891Q9.66797 2.91016 11.709 2.91016ZM11.709 1.25Q9.98047 1.25 8.47656 0.605469Q6.97266-0.0390625 5.83496-1.17676Q4.69727-2.31445 4.05762-3.81836Q3.41797-5.32227 3.41797-7.05078Q3.41797-8.7793 4.05762-10.2832Q4.69727-11.7871 5.83008-12.9297Q6.96289-14.0723 8.4668-14.7119Q9.9707-15.3516 11.6992-15.3516Q13.4277-15.3516 14.9316-14.7119Q16.4355-14.0723 17.5781-12.9297Q18.7207-11.7871 19.3652-10.2832Q20.0098-8.7793 20.0098-7.05078Q20.0098-5.32227 19.3701-3.81836Q18.7305-2.31445 17.5928-1.17676Q16.4551-0.0390625 14.9463 0.605469Q13.4375 1.25 11.709 1.25ZM7.17773-7.05078Q7.17773-6.69922 7.41211-6.47461Q7.64648-6.25 8.01758-6.25L10.8887-6.25L10.8887-3.36914Q10.8887-2.99805 11.1133-2.76855Q11.3379-2.53906 11.6895-2.53906Q12.0605-2.53906 12.29-2.76855Q12.5195-2.99805 12.5195-3.36914L12.5195-6.25L15.4004-6.25Q15.7715-6.25 16.001-6.47461Q16.2305-6.69922 16.2305-7.05078Q16.2305-7.42188 16.001-7.65137Q15.7715-7.88086 15.4004-7.88086L12.5195-7.88086L12.5195-10.752Q12.5195-11.1328 12.29-11.3623Q12.0605-11.5918 11.6895-11.5918Q11.3379-11.5918 11.1133-11.3574Q10.8887-11.123 10.8887-10.752L10.8887-7.88086L8.01758-7.88086Q7.63672-7.88086 7.40723-7.65137Q7.17773-7.42188 7.17773-7.05078Z"/>
  </g>
  <g transform="matrix(1 0 0 1 305.646 1933)">
   <path d="M14.9707 5.66406Q17.0605 5.66406 18.96 5.01465Q20.8594 4.36523 22.4512 3.19336Q24.043 2.02148 25.2197 0.429688Q26.3965-1.16211 27.0459-3.06641Q27.6953-4.9707 27.6953-7.05078Q27.6953-9.14062 27.0459-11.04Q26.3965-12.9395 25.2197-14.5312Q24.043-16.123 22.4512-17.2998Q20.8594-18.4766 18.9551-19.126Q17.0508-19.7754 14.9609-19.7754Q12.8711-19.7754 10.9717-19.126Q9.07227-18.4766 7.48535-17.2998Q5.89844-16.123 4.72168-14.5312Q3.54492-12.9395 2.90039-11.04Q2.25586-9.14062 2.25586-7.05078Q2.25586-4.9707 2.90527-3.06641Q3.55469-1.16211 4.72656 0.429688Q5.89844 2.02148 7.49023 3.19336Q9.08203 4.36523 10.9814 5.01465Q12.8809 5.66406 14.9707 5.66406ZM14.9707 3.84766Q13.1641 3.84766 11.5283 3.2959Q9.89258 2.74414 8.53516 1.74805Q7.17773 0.751953 6.17676-0.610352Q5.17578-1.97266 4.62891-3.6084Q4.08203-5.24414 4.08203-7.05078Q4.08203-8.86719 4.62891-10.5029Q5.17578-12.1387 6.17188-13.501Q7.16797-14.8633 8.52539-15.8594Q9.88281-16.8555 11.5186-17.4023Q13.1543-17.9492 14.9609-17.9492Q16.7773-17.9492 18.4131-17.4023Q20.0488-16.8555 21.4111-15.8594Q22.7734-14.8633 23.7695-13.501Q24.7656-12.1387 25.3174-10.5029Q25.8691-8.86719 25.8691-7.05078Q25.8789-5.24414 25.332-3.6084Q24.7852-1.97266 23.7842-0.610352Q22.7832 0.751953 21.4209 1.74805Q20.0586 2.74414 18.4229 3.2959Q16.7871 3.84766 14.9707 3.84766ZM9.19922-7.05078Q9.19922-6.66992 9.45801-6.4209Q9.7168-6.17188 10.1172-6.17188L14.0625-6.17188L14.0625-2.2168Q14.0625-1.81641 14.3115-1.55762Q14.5605-1.29883 14.9512-1.29883Q15.3516-1.29883 15.6104-1.55273Q15.8691-1.80664 15.8691-2.2168L15.8691-6.17188L19.8242-6.17188Q20.2246-6.17188 20.4785-6.4209Q20.7324-6.66992 20.7324-7.05078Q20.7324-7.46094 20.4785-7.71484Q20.2246-7.96875 19.8242-7.96875L15.8691-7.96875L15.8691-11.9141Q15.8691-12.3242 15.6104-12.583Q15.3516-12.8418 14.9512-12.8418Q14.5605-12.8418 14.3115-12.583Q14.0625-12.3242 14.0625-11.9141L14.0625-7.96875L10.1172-7.96875Q9.70703-7.96875 9.45312-7.71484Q9.19922-7.46094 9.19922-7.05078Z"/>
  </g>
  <text style="stroke:none;fill:black;font-family:sans-serif;font-size:13;font-weight:bold;" transform="matrix(1 0 0 1 263 1953)">Design Variations</text>
  <text style="stroke:none;fill:black;font-family:sans-serif;font-size:13;" transform="matrix(1 0 0 1 263 1971)">Symbols are supported in up to nine weights and three scales.</text>
  <text style="stroke:none;fill:black;font-family:sans-serif;font-size:13;" transform="matrix(1 0 0 1 263 1989)">For optimal layout with text and other symbols, vertically align</text>
  <text style="stroke:none;fill:black;font-family:sans-serif;font-size:13;" transform="matrix(1 0 0 1 263 2007)">symbols with the adjacent text.</text>
  <line style="fill:none;stroke:#00AEEF;stroke-width:0.5;opacity:1.0;" x1="776" x2="776" y1="1919" y2="1933"/>
  <g transform="matrix(1 0 0 1 776 1933)">
   <path d="M3.31055 0.15625Q3.70117 0.15625 3.91602-0.00976562Q4.13086-0.175781 4.26758-0.585938L5.52734-4.0332L11.2891-4.0332L12.5488-0.585938Q12.6855-0.175781 12.9004-0.00976562Q13.1152 0.15625 13.4961 0.15625Q13.8867 0.15625 14.1162-0.0585938Q14.3457-0.273438 14.3457-0.644531Q14.3457-0.869141 14.2383-1.17188L9.6582-13.3691Q9.48242-13.8184 9.17969-14.043Q8.87695-14.2676 8.4082-14.2676Q7.5-14.2676 7.17773-13.3789L2.59766-1.16211Q2.49023-0.859375 2.49023-0.634766Q2.49023-0.263672 2.70996-0.0537109Q2.92969 0.15625 3.31055 0.15625ZM6.00586-5.51758L8.37891-12.0898L8.42773-12.0898L10.8008-5.51758Z"/>
  </g>
  <line style="fill:none;stroke:#00AEEF;stroke-width:0.5;opacity:1.0;" x1="793.197" x2="793.197" y1="1919" y2="1933"/>
  <text style="stroke:none;fill:black;font-family:sans-serif;font-size:13;font-weight:bold;" transform="matrix(1 0 0 1 776 1953)">Margins</text>
  <text style="stroke:none;fill:black;font-family:sans-serif;font-size:13;" transform="matrix(1 0 0 1 776 1971)">Leading and trailing margins on the left and right side of each symbol</text>
  <text style="stroke:none;fill:black;font-family:sans-serif;font-size:13;" transform="matrix(1 0 0 1 776 1989)">can be adjusted by modifying the x-location of the margin guidelines.</text>
  <text style="stroke:none;fill:black;font-family:sans-serif;font-size:13;" transform="matrix(1 0 0 1 776 2007)">Modifications are automatically applied proportionally to all</text>
  <text style="stroke:none;fill:black;font-family:sans-serif;font-size:13;" transform="matrix(1 0 0 1 776 2025)">scales and weights.</text>
  <g transform="matrix(1 0 0 1 1289 1933)">
   <path d="M2.8418 1.86523L4.54102 3.57422Q5.18555 4.22852 5.90332 4.17969Q6.62109 4.13086 7.31445 3.35938L18.0078-8.42773L17.041-9.4043L6.42578 2.27539Q6.16211 2.57812 5.89355 2.61719Q5.625 2.65625 5.27344 2.30469L4.10156 1.14258Q3.75 0.791016 3.79395 0.522461Q3.83789 0.253906 4.14062-0.0195312L15.6152-10.8203L14.6387-11.7871L3.04688-0.898438Q2.30469-0.214844 2.25098 0.498047Q2.19727 1.21094 2.8418 1.86523ZM9.25781-16.3281Q8.94531-16.0254 8.90625-15.6348Q8.86719-15.2441 9.04297-14.9512Q9.21875-14.6777 9.55566-14.541Q9.89258-14.4043 10.3809-14.5215Q11.4746-14.7754 12.5977-14.7314Q13.7207-14.6875 14.7949-13.9844L14.209-12.5293Q13.9551-11.9043 14.0674-11.4404Q14.1797-10.9766 14.5801-10.5664L16.875-8.25195Q17.2363-7.88086 17.5781-7.82227Q17.9199-7.76367 18.3398-7.8418L19.4043-8.03711L20.0684-7.36328L20.0293-6.80664Q20-6.43555 20.1221-6.12305Q20.2441-5.81055 20.6055-5.44922L21.3672-4.70703Q21.7285-4.3457 22.1533-4.33105Q22.5781-4.31641 22.9297-4.66797L25.8398-7.58789Q26.1914-7.93945 26.1816-8.35449Q26.1719-8.76953 25.8105-9.13086L25.0391-9.89258Q24.6875-10.2539 24.3799-10.3857Q24.0723-10.5176 23.7109-10.4883L23.1348-10.4395L22.4902-11.0742L22.7344-12.1973Q22.832-12.6172 22.6953-12.9834Q22.5586-13.3496 22.1191-13.7891L19.9219-15.9766Q18.6719-17.2168 17.2607-17.8369Q15.8496-18.457 14.4189-18.4814Q12.9883-18.5059 11.665-17.959Q10.3418-17.4121 9.25781-16.3281ZM10.752-15.957Q11.6602-16.6211 12.7002-16.9043Q13.7402-17.1875 14.8047-17.085Q15.8691-16.9824 16.8701-16.5137Q17.8711-16.0449 18.7012-15.2051L21.1328-12.793Q21.3086-12.6172 21.3525-12.4512Q21.3965-12.2852 21.3379-12.0312L21.0156-10.5469L22.5195-9.0625L23.5059-9.12109Q23.6914-9.13086 23.7891-9.09668Q23.8867-9.0625 24.0332-8.91602L24.6094-8.33984L22.168-5.89844L21.5918-6.47461Q21.4453-6.62109 21.4062-6.71875Q21.3672-6.81641 21.377-7.01172L21.4453-7.98828L19.9512-9.47266L18.4277-9.21875Q18.1836-9.16992 18.042-9.2041Q17.9004-9.23828 17.7148-9.41406L15.7129-11.416Q15.5176-11.5918 15.4932-11.7529Q15.4688-11.9141 15.5859-12.1875L16.4648-14.2773Q15.293-15.3711 13.8281-15.791Q12.3633-16.2109 10.8398-15.7617Q10.7227-15.7324 10.6885-15.8057Q10.6543-15.8789 10.752-15.957Z"/>
  </g>
  <text style="stroke:none;fill:black;font-family:sans-serif;font-size:13;font-weight:bold;" transform="matrix(1 0 0 1 1289 1953)">Exporting</text>
  <text style="stroke:none;fill:black;font-family:sans-serif;font-size:13;" transform="matrix(1 0 0 1 1289 1971)">Symbols should be outlined when exporting to ensure the</text>
  <text style="stroke:none;fill:black;font-family:sans-serif;font-size:13;" transform="matrix(1 0 0 1 1289 1989)">design is preserved when submitting to Xcode.</text>
  <text id="template-version" style="stroke:none;fill:black;font-family:sans-serif;font-size:13;text-anchor:end;" transform="matrix(1 0 0 1 3036 1933)">Template v.3.0</text>
  <text style="stroke:none;fill:black;font-family:sans-serif;font-size:13;text-anchor:end;" transform="matrix(1 0 0 1 3036 1951)">Requires Xcode 13 or greater</text>
  <text id="descriptive-name" style="stroke:none;fill:black;font-family:sans-serif;font-size:13;text-anchor:end;" transform="matrix(1 0 0 1 3036 1969)">Generated from moon</text>
  <text style="stroke:none;fill:black;font-family:sans-serif;font-size:13;text-anchor:end;" transform="matrix(1 0 0 1 3036 1987)">Typeset at 100 points</text>
  <text style="stroke:none;fill:black;font-family:sans-serif;font-size:13;" transform="matrix(1 0 0 1 263 726)">Small</text>
  <text style="stroke:none;fill:black;font-family:sans-serif;font-size:13;" transform="matrix(1 0 0 1 263 1156)">Medium</text>
  <text style="stroke:none;fill:black;font-family:sans-serif;font-size:13;" transform="matrix(1 0 0 1 263 1586)">Large</text>
 </g>
 <g id="Guides">
  <g id="H-reference" style="fill:#27AAE1;stroke:none;" transform="matrix(1 0 0 1 339 696)">
   <path d="M0.993347 0L3.6377 0L29.3282-67.1326L30.0301-67.1326L30.0301-70.459L28.1227-70.459ZM11.6882-24.4797L46.9818-24.4797L46.2311-26.7288L12.4382-26.7288ZM55.1193 0L57.7637 0L30.6381-70.459L29.4327-70.459L29.4327-67.1326Z"/>
  </g>
  <line id="Baseline-S" style="fill:none;stroke:#27AAE1;opacity:1;stroke-width:0.5;" x1="263" x2="3036" y1="696" y2="696"/>
  <line id="Capline-S" style="fill:none;stroke:#27AAE1;opacity:1;stroke-width:0.5;" x1="263" x2="3036" y1="625.541" y2="625.541"/>
  <g id="H-reference" style="fill:#27AAE1;stroke:none;" transform="matrix(1 0 0 1 339 1126)">
   <path d="M0.993347 0L3.6377 0L29.3282-67.1326L30.0301-67.1326L30.0301-70.459L28.1227-70.459ZM11.6882-24.4797L46.9818-24.4797L46.2311-26.7288L12.4382-26.7288ZM55.1193 0L57.7637 0L30.6381-70.459L29.4327-70.459L29.4327-67.1326Z"/>
  </g>
  <line id="Baseline-M" style="fill:none;stroke:#27AAE1;opacity:1;stroke-width:0.5;" x1="263" x2="3036" y1="1126" y2="1126"/>
  <line id="Capline-M" style="fill:none;stroke:#27AAE1;opacity:1;stroke-width:0.5;" x1="263" x2="3036" y1="1055.54" y2="1055.54"/>
  <g id="H-reference" style="fill:#27AAE1;stroke:none;" transform="matrix(1 0 0 1 339 1556)">
   <path d="M0.993347 0L3.6377 0L29.3282-67.1326L30.0301-67.1326L30.0301-70.459L28.1227-70.459ZM11.6882-24.4797L46.9818-24.4797L46.2311-26.7288L12.4382-26.7288ZM55.1193 0L57.7637 0L30.6381-70.459L29.4327-70.459L29.4327-67.1326Z"/>
  </g>
  <line id="Baseline-L" style="fill:none;stroke:#27AAE1;opacity:1;stroke-width:0.5;" x1="263" x2="3036" y1="1556" y2="1556"/>
  <line id="Capline-L" style="fill:none;stroke:#27AAE1;opacity:1;stroke-width:0.5;" x1="263" x2="3036" y1="1485.54" y2="1485.54"/>
  <line id="left-margin-Regular-M" style="fill:none;stroke:#00AEEF;stroke-width:0.5;opacity:1.0;" x1="1392.01" x2="1392.01" y1="1030.79" y2="1150.12"/>
  <line id="right-margin-Regular-M" style="fill:none;stroke:#00AEEF;stroke-width:0.5;opacity:1.0;" x1="1507.68" x2="1507.68" y1="1030.79" y2="1150.12"/>
 </g>
 <g id="Symbols">
  <g id="Black-L" transform="matrix(1 0 0 1 2857.04 1556)">
   <path d="M109.135-20.2773Q94.6127-20.2773 83.9719-25.7776Q73.3311-31.2779 67.5707-41.516Q61.8104-51.7542 61.8104-65.8891Q61.8104-71.7616 62.7203-77.0204Q63.6301-82.2792 65.3833-85.4419Q66.5296-87.5407 67.0507-89.3533Q67.5718-91.1658 67.5718-92.9222Q67.5718-96.4073 65.3215-98.7778Q63.0712-101.148 59.2079-101.148Q57.9297-101.148 56.3002-100.813Q54.6707-100.477 52.7482-99.6869Q40.318-94.6376 30.9883-85.1719Q21.6586-75.7061 16.4587-63.4159Q11.2588-51.1256 11.2588-37.5542Q11.2588-23.0322 16.2594-10.77Q21.2601 1.49229 30.2683 10.5402Q39.2766 19.588 51.5382 24.5887Q63.7999 29.5893 78.3219 29.5893Q91.881 29.5893 103.859 24.7437Q115.836 19.8982 125.099 10.981Q134.362 2.06375 139.677-10.0737Q140.664-12.2066 141.067-14.07Q141.471-15.9334 141.471-17.3688Q141.471-21.0592 139.306-23.1913Q137.142-25.3233 133.814-25.3233Q132.12-25.3233 130.194-24.8236Q128.269-24.324 126.061-23.2038Q123.148-21.8338 118.548-21.0556Q113.948-20.2773 109.135-20.2773ZM31.0981-37.6792Q31.0981-43.7926 32.7015-49.8732Q34.3048-55.9538 37.3948-61.431Q40.4848-66.9082 44.8743-71.133Q44.3928-69.0978 44.1601-66.9601Q43.9274-64.8223 43.9274-62.5617Q43.9274-44.1117 51.3447-30.6751Q58.7619-17.2385 72.4636-9.96443Q86.1654-2.6904 104.999-2.6904Q106.521-2.6904 107.864-2.84748Q109.207-3.00456 110.522-3.37879Q106.587 0.808177 101.456 3.75195Q96.3252 6.69573 90.4438 8.20404Q84.5624 9.71236 78.4468 9.71236Q68.2385 9.71236 59.5907 6.17861Q50.943 2.64487 44.5537-3.74443Q38.1644-10.1337 34.6313-18.7919Q31.0981-27.45 31.0981-37.6792Z"/>
  </g>
  <g id="Heavy-L" transform="matrix(1 0 0 1 2560.8 1556)">
   <path d="M109.345-18.6269Q94.1223-18.6269 82.9898-24.3992Q71.8573-30.1716 65.8365-40.8992Q59.8156-51.6267 59.8156-66.4202Q59.8156-72.5958 60.7646-78.0181Q61.7136-83.4404 63.4751-86.7002Q64.5077-88.6127 64.9486-90.1804Q65.3894-91.7481 65.3894-93.3087Q65.3894-96.3135 63.3873-98.448Q61.3852-100.582 57.9963-100.582Q56.9248-100.582 55.4803-100.291Q54.0358-99.9986 52.2628-99.2853Q40.0422-94.3265 30.8167-84.9283Q21.5912-75.5302 16.425-63.305Q11.2588-51.0798 11.2588-37.6078Q11.2588-23.1437 16.2324-10.9353Q21.206 1.27318 30.1715 10.2761Q39.137 19.279 51.3426 24.2526Q63.5482 29.2262 78.0123 29.2262Q91.5752 29.2262 103.474 24.4471Q115.372 19.668 124.534 10.8597Q133.697 2.0514 138.944-9.9696Q139.821-11.8796 140.17-13.5172Q140.519-15.1548 140.519-16.3702Q140.519-19.6365 138.561-21.5292Q136.603-23.4219 133.742-23.4219Q132.272-23.4219 130.646-23.014Q129.021-22.6061 127.082-21.6553Q123.968-20.2478 119.162-19.4373Q114.355-18.6269 109.345-18.6269ZM28.5938-37.7889Q28.5938-44.8117 30.6033-51.6602Q32.6128-58.5086 36.422-64.51Q40.2311-70.5113 45.5619-74.9351Q44.8147-72.337 44.4449-69.5137Q44.0751-66.6905 44.0751-63.6828Q44.0751-44.9462 51.5544-31.3709Q59.0337-17.7956 72.8945-10.4755Q86.7553-3.15547 105.875-3.15547Q108.186-3.15547 110.229-3.42005Q112.272-3.68464 114.216-4.29319Q110.056 0.816362 104.365 4.45221Q98.6734 8.08805 91.9768 9.98239Q85.2801 11.8767 78.1934 11.8767Q67.491 11.8767 58.4292 8.17836Q49.3674 4.48 42.6761-2.21118Q35.9849-8.90236 32.2894-17.9793Q28.5938-27.0563 28.5938-37.7889Z"/>
  </g>
  <g id="Bold-L" transform="matrix(1 0 0 1 2264.75 1556)">
   <path d="M109.472-16.6574Q93.4183-16.6574 81.7011-22.753Q69.9839-28.8485 63.6515-40.157Q57.3192-51.4654 57.3192-67.0437Q57.3192-73.5586 58.3106-79.1584Q59.302-84.7582 61.0862-88.1855Q61.973-89.8599 62.3214-91.1391Q62.6698-92.4183 62.6698-93.7329Q62.6698-96.1683 60.9788-97.996Q59.2878-99.8236 56.4829-99.8236Q55.6427-99.8236 54.4213-99.5817Q53.1999-99.3398 51.6262-98.7263Q39.6667-93.8901 30.5793-84.5877Q21.4918-75.2852 16.3753-63.1555Q11.2588-51.0259 11.2588-37.6918Q11.2588-23.3193 16.1941-11.1911Q21.1295 0.937059 30.0338 9.875Q38.9381 18.8129 51.0596 23.7483Q63.1811 28.6836 77.5536 28.6836Q91.0644 28.6836 102.856 23.9815Q114.647 19.2794 123.69 10.613Q132.733 1.94657 137.888-9.89866Q138.627-11.5246 138.911-12.8855Q139.194-14.2464 139.194-15.2076Q139.194-17.9513 137.505-19.5482Q135.815-21.145 133.501-21.145Q132.3-21.145 131.024-20.8412Q129.749-20.5373 128.141-19.7866Q124.848-18.3479 119.777-17.5027Q114.706-16.6574 109.472-16.6574ZM25.5194-37.9198Q25.5194-46.0346 28.0247-53.8023Q30.53-61.57 35.2119-68.1871Q39.8938-74.8043 46.3552-79.4293Q45.3-76.1693 44.7648-72.523Q44.2297-68.8768 44.2297-65.0066Q44.2297-45.976 51.7784-32.2576Q59.3271-18.5392 73.3577-11.169Q87.3884-3.79884 106.809-3.79884Q110.029-3.79884 112.9-4.19037Q115.77-4.58189 118.423-5.45257Q113.994 0.772003 107.645 5.24224Q101.295 9.71248 93.6474 12.0721Q85.9999 14.4317 77.7816 14.4317Q66.4944 14.4317 56.9438 10.5372Q47.3933 6.64259 40.3442-0.406348Q33.2952-7.45528 29.4073-17.0249Q25.5194-26.5945 25.5194-37.9198Z"/>
  </g>
  <g id="Semibold-L" transform="matrix(1 0 0 1 1968.5 1556)">
   <path d="M109.559-15.2997Q92.9331-15.2997 80.8127-21.618Q68.6923-27.9363 62.1453-39.6453Q55.5982-51.3542 55.5982-67.4735Q55.5982-74.2223 56.6188-79.9444Q57.6394-85.6666 59.4394-89.2094Q60.2255-90.7198 60.5102-91.8Q60.795-92.8803 60.795-94.0254Q60.795-96.0683 59.3184-97.6844Q57.8418-99.3005 55.4395-99.3005Q54.7588-99.3005 53.6912-99.0931Q52.6236-98.8857 51.1873-98.341Q39.4079-93.5893 30.4156-84.3528Q21.4233-75.1163 16.341-63.0525Q11.2588-50.9887 11.2588-37.7497Q11.2588-23.4403 16.1678-11.3675Q21.0767 0.705337 29.9388 9.59848Q38.8009 18.4916 50.8644 23.4006Q62.928 28.3096 77.2374 28.3096Q90.7123 28.3096 102.429 23.6605Q114.147 19.0115 123.108 10.4429Q132.068 1.8743 137.16-9.84976Q137.804-11.2799 138.043-12.45Q138.281-13.6201 138.281-14.4061Q138.281-16.7896 136.776-18.1825Q135.272-19.5754 133.335-19.5754Q132.319-19.5754 131.285-19.3432Q130.252-19.111 128.871-18.4984Q125.455-17.0382 120.201-16.1689Q114.947-15.2997 109.559-15.2997ZM23.3999-38.01Q23.3999-46.8777 26.247-55.2791Q29.0942-63.6805 34.3777-70.7221Q39.6612-77.7638 46.9021-82.5275Q45.6345-78.8112 44.9854-74.5976Q44.3363-70.3839 44.3363-65.9191Q44.3363-46.6859 51.9328-32.8689Q59.5293-19.0518 73.6771-11.6471Q87.8249-4.24238 107.454-4.24238Q111.3-4.24238 114.741-4.72141Q118.181-5.20045 121.323-6.25184Q116.709 0.741423 109.905 5.78689Q103.102 10.8324 94.7992 13.5127Q86.4962 16.1931 77.4976 16.1931Q65.8072 16.1931 55.9198 12.1633Q46.0324 8.13346 38.7366 0.837893Q31.4409-6.45768 27.4204-16.3669Q23.3999-26.2761 23.3999-38.01Z"/>
  </g>
  <g id="Medium-L" transform="matrix(1 0 0 1 1672.13 1556)">
   <path d="M109.626-14.2702Q92.5651-14.2702 80.1391-20.7574Q67.713-27.2447 61.0031-39.2573Q54.2932-51.2699 54.2932-67.7994Q54.2932-74.7255 55.336-80.5405Q56.3788-86.3554 58.1906-89.9858Q58.9005-91.3717 59.1369-92.3012Q59.3734-93.2306 59.3734-94.2472Q59.3734-95.9924 58.0594-97.4481Q56.7455-98.9038 54.6484-98.9038Q54.0886-98.9038 53.1376-98.7225Q52.1866-98.5413 50.8545-98.0488Q39.2116-93.3612 30.2914-84.1747Q21.3713-74.9882 16.315-62.9743Q11.2588-50.9605 11.2588-37.7937Q11.2588-23.5321 16.1478-11.5012Q21.0367 0.529635 29.8668 9.38881Q38.6969 18.248 50.7165 23.137Q62.736 28.0259 76.9976 28.0259Q90.4453 28.0259 102.106 23.4171Q113.768 18.8084 122.666 10.3139Q131.565 1.8195 136.608-9.81268Q137.18-11.0943 137.384-12.1198Q137.588-13.1453 137.588-13.7984Q137.588-15.9087 136.224-17.147Q134.86-18.3852 133.208-18.3852Q132.334-18.3852 131.483-18.2074Q130.632-18.0295 129.425-17.5216Q125.915-16.0451 120.523-15.1576Q115.131-14.2702 109.626-14.2702ZM21.7928-38.0784Q21.7928-47.517 24.8991-56.3989Q28.0055-65.2807 33.7452-72.6443Q39.4849-80.0078 47.3168-84.8767Q45.8882-80.8144 45.1526-76.1706Q44.4171-71.5268 44.4171-66.6111Q44.4171-47.2242 52.0499-33.3324Q59.6827-19.4406 73.9193-12.0096Q88.1558-4.57868 107.942-4.57868Q112.263-4.57868 116.137-5.12408Q120.01-5.66947 123.522-6.85788Q118.767 0.718235 111.62 6.19986Q104.472 11.6815 95.6725 14.6051Q86.8725 17.5287 77.2823 17.5287Q65.2863 17.5287 55.1434 13.3963Q45.0005 9.26391 37.5177 1.78133Q30.0349-5.70125 25.9139-15.868Q21.7928-26.0347 21.7928-38.0784Z"/>
  </g>
  <g id="Regular-L" transform="matrix(1 0 0 1 1375.87 1556)">
   <path d="M109.712-12.9274Q92.0852-12.9274 79.2604-19.635Q66.4357-26.3425 59.5134-38.7512Q52.5911-51.1599 52.5911-68.2245Q52.5911-75.3819 53.6628-81.3179Q54.7346-87.2539 56.5618-90.9985Q57.1723-92.2221 57.3457-92.9548Q57.5191-93.6875 57.5191-94.5364Q57.5191-95.8935 56.4172-97.1399Q55.3154-98.3864 53.6166-98.3864Q53.2145-98.3864 52.4156-98.2393Q51.6166-98.0921 50.4204-97.6677Q38.9556-93.0636 30.1295-83.9424Q21.3035-74.8212 16.2811-62.8724Q11.2588-50.9237 11.2588-37.8509Q11.2588-23.6518 16.1217-11.6757Q20.9846 0.30046 29.7729 9.11534Q38.5613 17.9302 50.5235 22.7931Q62.4857 27.656 76.6848 27.656Q90.0971 27.656 101.685 23.0997Q113.273 18.5434 122.09 10.1457Q130.907 1.74802 135.888-9.76431Q136.366-10.8522 136.526-11.6891Q136.685-12.5259 136.685-13.0057Q136.685-14.7598 135.504-15.7963Q134.323-16.8328 133.044-16.8328Q132.353-16.8328 131.741-16.7259Q131.129-16.6189 130.147-16.2475Q126.516-14.7497 120.943-13.8386Q115.37-12.9274 109.712-12.9274ZM19.6966-38.1676Q19.6966-48.3508 23.141-57.8594Q26.5854-67.368 32.9202-75.1514Q39.2549-82.9348 47.8577-87.9409Q46.2191-83.4273 45.3708-78.2224Q44.5225-73.0174 44.5225-67.5136Q44.5225-47.9264 52.2026-33.937Q59.8827-19.9476 74.2351-12.4825Q88.5875-5.01735 108.579-5.01735Q113.52-5.01735 117.957-5.64929Q122.395-6.28123 126.391-7.64837Q121.452 0.687991 113.856 6.73852Q106.26 12.7891 96.8116 16.0299Q87.3633 19.2707 77.0015 19.2707Q64.6067 19.2707 54.1306 15.0046Q43.6545 10.7384 35.9278 3.01189Q28.201-4.71461 23.9488-15.2172Q19.6966-25.7198 19.6966-38.1676Z"/>
  </g>
  <g id="Light-L" transform="matrix(1 0 0 1 1080.09 1556)">
   <path d="M108.949-12.0495Q90.9783-12.0495 77.9054-18.8906Q64.8324-25.7317 57.7671-38.3789Q50.7018-51.0262 50.7018-68.4346Q50.7018-75.5919 51.7639-81.4898Q52.826-87.3876 54.7489-91.552Q55.2256-92.5656 55.3799-93.1934Q55.5342-93.8212 55.5342-94.479Q55.5342-95.6071 54.6709-96.5483Q53.8077-97.4895 52.4904-97.4895Q52.0883-97.4895 51.4041-97.3518Q50.7198-97.2142 49.7525-96.8853Q38.4785-92.4339 29.805-83.4558Q21.1316-74.4777 16.1952-62.6911Q11.2588-50.9045 11.2588-38.0228Q11.2588-24.0145 16.0644-12.1815Q20.8701-0.348548 29.5631 8.36147Q38.256 17.0715 50.0654 21.8771Q61.8749 26.6828 75.8832 26.6828Q88.8946 26.6828 100.349 22.1456Q111.803 17.6084 120.573 9.35369Q129.342 1.09901 134.209-10.0888Q134.572-10.9285 134.703-11.5937Q134.834-12.2588 134.834-12.6812Q134.834-14.0918 133.92-14.9279Q133.006-15.764 131.899-15.764Q131.341-15.764 130.834-15.6666Q130.327-15.5691 129.555-15.2743Q126.248-13.8528 120.437-12.9511Q114.625-12.0495 108.949-12.0495ZM17.7499-38.225Q17.7499-48.9424 21.4901-58.8804Q25.2303-68.8183 32.0518-76.8118Q38.8733-84.8052 48.0295-89.6587Q46.3146-84.9161 45.3804-79.3103Q44.4462-73.7045 44.4462-68.01Q44.4462-48.6135 52.1263-34.7099Q59.8064-20.8063 74.1016-13.3508Q88.3967-5.8953 108.255-5.8953Q113.386-5.8953 118.139-6.57486Q122.891-7.25442 126.925-8.62156Q121.853 0.30641 114.037 6.7863Q106.222 13.2662 96.4967 16.7456Q86.7717 20.225 76.0853 20.225Q63.4616 20.225 52.8042 15.8729Q42.1468 11.5208 34.2769 3.65128Q26.407-4.21823 22.0784-14.8927Q17.7499-25.5672 17.7499-38.225Z"/>
  </g>
  <g id="Thin-L" transform="matrix(1 0 0 1 784.6 1556)">
   <path d="M107.939-10.8883Q89.5143-10.8883 76.1131-17.906Q62.712-24.9238 55.4575-37.8866Q48.203-50.8494 48.203-68.7124Q48.203-75.8697 49.2524-81.7171Q50.3018-87.5645 52.351-92.284Q52.6509-93.0198 52.78-93.5089Q52.9091-93.9981 52.9091-94.4031Q52.9091-95.2284 52.3613-95.7659Q51.8136-96.3033 51.001-96.3033Q50.5989-96.3033 50.0663-96.1782Q49.5336-96.053 48.8691-95.8505Q37.8474-91.601 29.3759-82.8122Q20.9043-74.0235 16.0815-62.4513Q11.2588-50.879 11.2588-38.2501Q11.2588-24.4941 15.9887-12.8505Q20.7187-1.20691 29.2855 7.36443Q37.8523 15.9358 49.4596 20.6657Q61.067 25.3957 74.8229 25.3957Q87.3042 25.3957 98.582 20.8837Q109.86 16.3717 118.566 8.30618Q127.272 0.240647 131.987-10.518Q132.199-11.0295 132.292-11.4675Q132.386-11.9055 132.386-12.252Q132.386-13.2085 131.825-13.7795Q131.264-14.3505 130.385-14.3505Q130.003-14.3505 129.635-14.2656Q129.267-14.1806 128.773-13.9872Q125.895-12.6666 119.768-11.7775Q113.641-10.8883 107.939-10.8883ZM15.1752-38.3009Q15.1752-49.7249 19.3067-60.2307Q23.4381-70.7365 30.9034-79.0077Q38.3687-87.279 48.2568-91.9306Q46.441-86.8852 45.3931-80.7493Q44.3452-74.6134 44.3452-68.6665Q44.3452-49.5224 52.0253-35.7322Q59.7054-21.942 73.9249-14.4992Q88.1444-7.05647 107.825-7.05647Q113.209-7.05647 118.378-7.79901Q123.548-8.54154 127.632-9.90868Q122.383-0.19826 114.277 6.84949Q106.171 13.8972 96.0803 17.6922Q85.9893 21.4871 74.8737 21.4871Q61.9472 21.4871 51.0499 17.0213Q40.1527 12.5556 32.0934 4.49692Q24.0342-3.56174 19.6047-14.4635Q15.1752-25.3653 15.1752-38.3009Z"/>
  </g>
  <g id="Ultralight-L" transform="matrix(1 0 0 1 488.516 1556)">
   <path d="M107.422-10.2936Q88.7645-10.2936 75.1952-17.4018Q61.6259-24.51 54.2745-37.6344Q46.9232-50.7588 46.9232-68.8546Q46.9232-76.012 47.9661-81.8335Q49.0089-87.655 51.1229-92.6589Q51.3322-93.2524 51.4483-93.6705Q51.5645-94.0886 51.5645-94.3642Q51.5645-95.0344 51.1784-95.3651Q50.7922-95.6958 50.2382-95.6958Q49.8361-95.6958 49.381-95.577Q48.926-95.4583 48.4167-95.3205Q37.5242-91.1743 29.156-82.4826Q20.7879-73.7909 16.0233-62.3284Q11.2588-50.866 11.2588-38.3666Q11.2588-24.7398 15.95-13.1932Q20.6411-1.64656 29.1433 6.85375Q37.6455 15.3541 49.1493 20.0452Q60.6532 24.7364 74.2799 24.7364Q86.4897 24.7364 97.677 20.2374Q108.864 15.7383 117.538 7.76965Q126.212-0.199003 130.85-10.7378Q130.984-11.0812 131.058-11.4029Q131.132-11.7246 131.132-12.0322Q131.132-12.756 130.752-13.1913Q130.372-13.6266 129.609-13.6266Q129.318-13.6266 129.021-13.548Q128.724-13.4695 128.372-13.3279Q125.714-12.059 119.426-11.1763Q113.137-10.2936 107.422-10.2936ZM13.8565-38.3398Q13.8565-50.1257 18.1883-60.9223Q22.5201-71.719 30.3151-80.1325Q38.1102-88.546 48.3733-93.0942Q46.5058-87.8938 45.3996-81.4863Q44.2935-75.0789 44.2935-69.0027Q44.2935-49.9879 51.9736-36.2558Q59.6537-22.5237 73.8344-15.0875Q88.0152-7.65121 107.606-7.65121Q113.119-7.65121 118.501-8.42601Q123.884-9.2008 127.994-10.5679Q122.654-0.45675 114.4 6.88186Q106.145 14.2205 95.8669 18.177Q85.5885 22.1335 74.2531 22.1335Q61.1715 22.1335 50.1514 17.6096Q39.1313 13.0856 30.9751 4.93006Q22.8188-3.22548 18.3377-14.2437Q13.8565-25.2619 13.8565-38.3398Z"/>
  </g>
  <g id="Black-M" transform="matrix(1 0 0 1 2873.95 1126)">
   <path d="M84.2685-24.945Q73.572-24.945 65.717-28.9905Q57.862-33.036 53.6038-40.5796Q49.3455-48.1232 49.3455-58.5549Q49.3455-62.8439 50.0155-66.7724Q50.6855-70.701 52.0495-73.1246Q53.0172-74.8825 53.4872-76.483Q53.9573-78.0834 53.9573-79.5866Q53.9573-82.6683 52.0329-84.6664Q50.1086-86.6645 46.7597-86.6645Q45.5917-86.6645 44.1857-86.3685Q42.7798-86.0724 41.1929-85.4065Q31.4084-81.4376 24.1114-74.0654Q16.8144-66.6931 12.7685-57.1374Q8.72266-47.5816 8.72266-37.0078Q8.72266-25.7331 12.6123-16.2061Q16.502-6.67921 23.5049 0.354963Q30.5078 7.38914 40.0349 11.2788Q49.5619 15.1685 60.8367 15.1685Q71.284 15.1685 80.6134 11.3599Q89.9429 7.55134 97.1994 0.568583Q104.456-6.41417 108.616-15.8737Q109.459-17.684 109.815-19.2985Q110.171-20.9129 110.171-22.2063Q110.171-25.3834 108.353-27.2137Q106.534-29.0441 103.578-29.0441Q102.091-29.0441 100.356-28.5793Q98.6205-28.1146 96.707-27.1116Q94.6666-26.0928 91.2484-25.5189Q87.8302-24.945 84.2685-24.945ZM25.9815-37.0408Q25.9815-41.068 26.9147-45.1771Q27.8479-49.2863 29.6898-53.1077Q31.5316-56.9291 34.1983-60.0105Q34.0434-58.8866 33.9692-57.7652Q33.8951-56.6437 33.8951-55.5087Q33.8951-41.4869 39.5882-31.2078Q45.2814-20.9286 55.7522-15.334Q66.2231-9.73936 80.5503-9.73936Q81.078-9.73936 81.5595-9.77511Q82.041-9.81086 82.524-9.8994Q79.6494-7.36833 76.1266-5.62428Q72.6039-3.88022 68.7105-3.0111Q64.817-2.14199 60.8696-2.14199Q53.3544-2.14199 46.986-4.74989Q40.6176-7.3578 35.9076-12.0678Q31.1976-16.7778 28.5896-23.1489Q25.9815-29.5201 25.9815-37.0408Z"/>
  </g>
  <g id="Heavy-M" transform="matrix(1 0 0 1 2577.62 1126)">
   <path d="M84.5435-23.4125Q73.1947-23.4125 64.8819-27.7117Q56.5692-32.0109 52.0695-40.011Q47.5698-48.011 47.5698-59.0546Q47.5698-63.6401 48.2789-67.7319Q48.988-71.8238 50.3514-74.3037Q51.2202-75.8987 51.6136-77.2695Q52.007-78.6403 52.007-79.9696Q52.007-82.603 50.3033-84.3985Q48.5995-86.194 45.679-86.194Q44.7132-86.194 43.4775-85.9397Q42.2419-85.6853 40.78-85.0861Q31.1828-81.1915 23.9736-73.8722Q16.7644-66.5528 12.7435-57.0457Q8.72266-47.5386 8.72266-37.0443Q8.72266-25.8086 12.5912-16.3211Q16.4597-6.83353 23.4296 0.166383Q30.3995 7.1663 39.8859 11.0348Q49.3723 14.9034 60.608 14.9034Q71.0959 14.9034 80.3603 11.158Q89.6247 7.41259 96.7873 0.523112Q103.95-6.36637 108.054-15.742Q108.801-17.3573 109.106-18.7669Q109.411-20.1764 109.411-21.2601Q109.411-24.0542 107.77-25.6691Q106.129-27.2839 103.613-27.2839Q102.333-27.2839 100.881-26.9081Q99.4294-26.5322 97.7596-25.6876Q95.4932-24.6251 91.8948-24.0188Q88.2964-23.4125 84.5435-23.4125ZM23.713-37.1428Q23.713-42.0097 25.0159-46.8298Q26.3189-51.65 28.8189-55.9644Q31.3188-60.2788 34.8546-63.5689Q34.4469-61.9158 34.2467-60.1612Q34.0466-58.4067 34.0466-56.5588Q34.0466-42.2392 39.8004-31.8166Q45.5542-21.394 56.1858-15.7535Q66.8174-10.113 81.4366-10.113Q82.7174-10.113 83.8543-10.2494Q84.9911-10.3859 86.0856-10.7035Q83.0044-7.32513 78.9537-4.94414Q74.903-2.56315 70.2381-1.33868Q65.5732-0.114203 60.7065-0.114203Q52.7294-0.114203 45.9729-2.87511Q39.2164-5.63601 34.2244-10.6279Q29.2325-15.6198 26.4728-22.3845Q23.713-29.1493 23.713-37.1428Z"/>
  </g>
  <g id="Bold-M" transform="matrix(1 0 0 1 2281.34 1126)">
   <path d="M84.8511-21.6982Q72.7725-21.6982 63.9478-26.2812Q55.1231-30.8642 50.3532-39.3748Q45.5833-47.8855 45.5833-59.6137Q45.5833-64.5307 46.3362-68.8053Q47.0891-73.0799 48.4518-75.6227Q49.2101-77.0354 49.5178-78.1494Q49.8254-79.2633 49.8254-80.3982Q49.8254-82.53 48.3684-84.0988Q46.9114-85.6677 44.4702-85.6677Q43.7305-85.6677 42.6853-85.46Q41.6402-85.2523 40.3182-84.7277Q30.9304-80.9162 23.8195-73.656Q16.7085-66.3958 12.7156-56.9432Q8.72266-47.4905 8.72266-37.0852Q8.72266-25.8931 12.5675-16.4496Q16.4124-7.00616 23.3454-0.0445713Q30.2784 6.91702 39.7193 10.7619Q49.1602 14.6068 60.3522 14.6068Q70.8856 14.6068 80.0772 10.9321Q89.2688 7.25739 96.3262 0.472247Q103.384-6.3129 107.426-15.5946Q108.065-16.9919 108.313-18.1723Q108.561-19.3526 108.561-20.2015Q108.561-22.5674 107.118-23.9412Q105.675-25.3149 103.653-25.3149Q102.604-25.3149 101.469-25.0385Q100.334-24.762 98.9371-24.0948Q96.4179-22.9834 92.6179-22.3408Q88.818-21.6982 84.8511-21.6982ZM21.1753-37.2569Q21.1753-43.063 22.8919-48.6786Q24.6085-54.2942 27.8446-59.1601Q31.0808-64.026 35.5888-67.5494Q34.8984-65.3043 34.5572-62.8415Q34.216-60.3788 34.216-57.7336Q34.216-43.0808 40.0376-32.4977Q45.8593-21.9146 56.6707-16.2228Q67.4821-10.531 82.428-10.531Q84.5514-10.531 86.4213-10.7801Q88.2912-11.0292 90.0697-11.603Q86.7575-7.2768 82.1161-4.18331Q77.4748-1.08981 71.947 0.532175Q66.4191 2.15416 60.524 2.15416Q52.0302 2.15416 44.8396-0.77789Q37.6489-3.70994 32.3416-9.01721Q27.0343-14.3245 24.1048-21.5295Q21.1753-28.7345 21.1753-37.2569Z"/>
  </g>
  <g id="Semibold-M" transform="matrix(1 0 0 1 1984.92 1126)">
   <path d="M85.0632-20.5164Q72.4815-20.5164 63.3038-25.295Q54.1261-30.0737 49.17-38.9363Q44.2139-47.7989 44.2139-59.9991Q44.2139-65.1447 44.997-69.5453Q45.78-73.9458 47.1422-76.532Q47.8244-77.8191 48.0729-78.7559Q48.3214-79.6928 48.3214-80.6936Q48.3214-82.4796 47.0345-83.8922Q45.7477-85.3048 43.6368-85.3048Q43.053-85.3048 42.1392-85.1293Q41.2254-84.9537 39.9998-84.4806Q30.7564-80.7265 23.7132-73.507Q16.67-66.2876 12.6963-56.8725Q8.72266-47.4574 8.72266-37.1133Q8.72266-25.9513 12.5512-16.5383Q16.3798-7.12517 23.2874-0.190002Q30.1949 6.74517 39.6044 10.5738Q49.0139 14.4023 60.1759 14.4023Q70.7406 14.4023 79.882 10.7764Q89.0235 7.1504 96.0084 0.437181Q102.993-6.27604 106.993-15.4931Q107.557-16.74 107.766-17.7623Q107.975-18.7846 107.975-19.4718Q107.975-21.5423 106.669-22.7499Q105.362-23.9575 103.68-23.9575Q102.79-23.9575 101.874-23.7496Q100.958-23.5416 99.7489-22.9966Q97.0553-21.8516 93.1164-21.184Q89.1775-20.5164 85.0632-20.5164ZM19.4259-37.3356Q19.4259-43.7892 21.4276-49.9531Q23.4293-56.1171 27.173-61.3632Q30.9166-66.6093 36.095-70.2936Q35.2096-67.6403 34.7712-64.6893Q34.3328-61.7383 34.3328-58.5435Q34.3328-43.661 40.2012-32.9673Q46.0696-22.2735 57.005-16.5463Q67.9404-10.8191 83.1115-10.8191Q85.8158-10.8191 88.191-11.1459Q90.5663-11.4726 92.8164-12.2232Q89.3448-7.24348 84.2963-3.65879Q79.2478-0.0741049 73.125 1.82193Q67.0023 3.71796 60.3981 3.71796Q51.5482 3.71796 44.0582 0.667918Q36.5683-2.38212 31.0435-7.9068Q25.5188-13.4315 22.4723-20.94Q19.4259-28.4485 19.4259-37.3356Z"/>
  </g>
  <g id="Medium-M" transform="matrix(1 0 0 1 1688.43 1126)">
   <path d="M85.224-19.6203Q72.2608-19.6203 62.8155-24.5473Q53.3702-29.4743 48.2729-38.6038Q43.1755-47.7333 43.1755-60.2913Q43.1755-65.6103 43.9815-70.1063Q44.7874-74.6024 46.1492-77.2214Q46.7736-78.4133 46.9773-79.2159Q47.181-80.0184 47.181-80.9176Q47.181-82.4414 46.0231-83.7356Q44.8653-85.0297 43.005-85.0297Q42.5393-85.0297 41.7251-84.8785Q40.9109-84.7274 39.7583-84.2932Q30.6245-80.5826 23.6326-73.3941Q16.6408-66.2056 12.6817-56.8189Q8.72266-47.4322 8.72266-37.1347Q8.72266-25.9955 12.5389-16.6055Q16.3551-7.21541 23.2433-0.300273Q30.1316 6.61486 39.5173 10.4311Q48.903 14.2473 60.0422 14.2473Q70.6306 14.2473 79.734 10.6583Q88.8375 7.06927 95.7674 0.410593Q102.697-6.24808 106.664-15.4161Q107.173-16.549 107.351-17.4515Q107.53-18.354 107.53-18.9184Q107.53-20.7651 106.328-21.8467Q105.125-22.9283 103.7-22.9283Q102.931-22.9283 102.181-22.7723Q101.431-22.6163 100.364-22.164Q97.5387-20.9934 93.4944-20.3068Q89.4501-19.6203 85.224-19.6203ZM18.0993-37.3952Q18.0993-44.3398 20.3173-50.9195Q22.5352-57.4992 26.6637-63.0337Q30.7922-68.5681 36.4788-72.3744Q35.4456-69.4116 34.9335-66.0904Q34.4214-62.7692 34.4214-59.1575Q34.4214-44.1009 40.3252-33.3233Q46.2291-22.5457 57.2585-16.7916Q68.2879-11.0376 83.6298-11.0376Q86.7745-11.0376 89.5329-11.4232Q92.2913-11.8089 94.899-12.6934Q91.3066-7.21822 85.9494-3.26109Q80.5922 0.696048 74.0183 2.79987Q67.4444 4.9037 60.3027 4.9037Q51.1827 4.9037 43.4658 1.76419Q35.7489-1.37532 30.0593-7.06485Q24.3697-12.7544 21.2345-20.4931Q18.0993-28.2317 18.0993-37.3952Z"/>
  </g>
  <g id="Regular-M" transform="matrix(1 0 0 1 1392.01 1126)">
   <path d="M85.4338-18.4515Q71.973-18.4515 62.1786-23.572Q52.3842-28.6925 47.1027-38.1701Q41.8211-47.6477 41.8211-60.6725Q41.8211-66.2176 42.6569-70.8382Q43.4927-75.4588 44.854-78.1207Q45.4031-79.1884 45.5483-79.8158Q45.6935-80.4432 45.6935-81.2098Q45.6935-82.3916 44.7039-83.5312Q43.7143-84.6709 42.1807-84.6709Q41.8692-84.6709 41.1849-84.5515Q40.5007-84.4321 39.4434-84.0488Q30.4524-80.3949 23.5275-73.2467Q16.6026-66.0985 12.6626-56.749Q8.72266-47.3994 8.72266-37.1625Q8.72266-26.0531 12.5228-16.6931Q16.3228-7.33311 23.1859-0.444106Q30.049 6.4449 39.4037 10.245Q48.7584 14.0451 59.8678 14.0451Q70.4872 14.0451 79.541 10.5043Q88.5948 6.96345 95.4531 0.375912Q102.311-6.21163 106.236-15.3156Q106.671-16.2999 106.811-17.0461Q106.951-17.7923 106.951-18.1967Q106.951-19.7514 105.883-20.6686Q104.816-21.5858 103.727-21.5858Q103.116-21.5858 102.582-21.4976Q102.048-21.4094 101.167-21.0779Q98.1691-19.874 93.9874-19.1627Q89.8057-18.4515 85.4338-18.4515ZM16.3691-37.473Q16.3691-45.058 18.8691-52.1801Q21.369-59.3021 25.9994-65.2125Q30.6299-71.123 36.9794-75.0884Q35.7534-71.722 35.1452-67.9179Q34.5369-64.1138 34.5369-59.9585Q34.5369-44.6747 40.487-33.7877Q46.4371-22.9006 57.5892-17.1116Q68.7412-11.3226 84.3058-11.3226Q88.0249-11.3226 91.2832-11.785Q94.5414-12.2475 97.6154-13.3067Q93.8655-7.18527 88.1056-2.74234Q82.3457 1.70059 75.1834 4.07545Q68.0212 6.45031 60.1783 6.45031Q50.706 6.45031 42.6931 3.19411Q34.6801-0.0620897 28.7755-5.96664Q22.8709-11.8712 19.62-19.9101Q16.3691-27.9489 16.3691-37.473Z"/>
  </g>
  <g id="Light-M" transform="matrix(1 0 0 1 1096.13 1126)">
   <path d="M84.7493-17.6643Q70.9806-17.6643 60.9637-22.9046Q50.9467-28.1448 45.537-37.8363Q40.1273-47.5278 40.1273-60.8608Q40.1273-66.4059 40.9545-70.9923Q41.7816-75.5787 43.2285-78.6169Q43.6578-79.4963 43.7859-80.0297Q43.914-80.563 43.914-81.1583Q43.914-82.1349 43.1383-83.0008Q42.3626-83.8668 41.1711-83.8668Q40.8596-83.8668 40.2781-83.7559Q39.6966-83.645 38.8446-83.3473Q30.0247-79.8303 23.2366-72.8105Q16.4485-65.7906 12.5856-56.5864Q8.72266-47.3822 8.72266-37.3166Q8.72266-26.3783 12.4714-17.1466Q16.2202-7.91498 22.9978-1.11998Q29.7753 5.67502 38.993 9.4238Q48.2107 13.1726 59.1491 13.1726Q69.4091 13.1726 78.3432 9.64886Q87.2773 6.12515 94.0927-0.334174Q100.908-6.7935 104.73-15.6066Q105.062-16.3683 105.177-16.9606Q105.291-17.5528 105.291-17.9057Q105.291-19.1525 104.463-19.8901Q103.635-20.6276 102.701-20.6276Q102.209-20.6276 101.769-20.5479Q101.329-20.4681 100.637-20.2054Q97.9297-19.0699 93.5341-18.3671Q89.1385-17.6643 84.7493-17.6643ZM14.6238-37.5245Q14.6238-45.5884 17.3889-53.0954Q20.1541-60.6024 25.2209-66.7011Q30.2878-72.7999 37.1335-76.6285Q35.8391-73.0568 35.1538-68.8933Q34.4685-64.7299 34.4685-60.4035Q34.4685-45.2908 40.4186-34.4806Q46.3687-23.6705 57.4694-17.8901Q68.5702-12.1097 84.0148-12.1097Q87.905-12.1097 91.4457-12.6149Q94.9864-13.12 98.0947-14.1792Q94.2249-7.52737 88.2682-2.6995Q82.3115 2.12837 74.9011 4.71712Q67.4908 7.30586 59.357 7.30586Q49.6794 7.30586 41.5039 3.97262Q33.3284 0.639372 27.2954-5.3934Q21.2624-11.4262 17.9431-19.6191Q14.6238-27.8121 14.6238-37.5245Z"/>
  </g>
  <g id="Thin-M" transform="matrix(1 0 0 1 800.513 1126)">
   <path d="M83.844-16.6233Q69.6681-16.6233 59.3569-22.0219Q49.0456-27.4205 43.4663-37.3949Q37.887-47.3692 37.887-61.1098Q37.887-66.6549 38.7028-71.1961Q39.5186-75.7372 41.0788-79.2732Q41.3494-79.9035 41.4549-80.3125Q41.5604-80.7216 41.5604-81.0903Q41.5604-81.7953 41.0676-82.2993Q40.5748-82.8033 39.8358-82.8033Q39.5242-82.8033 39.0787-82.7036Q38.6331-82.6039 38.0526-82.4196Q29.4589-79.0835 22.8518-72.2335Q16.2447-65.3834 12.4837-56.3714Q8.72266-47.3594 8.72266-37.5204Q8.72266-26.8083 12.4036-17.7464Q16.0845-8.68455 22.7489-2.01388Q29.4134 4.65678 38.4499 8.33769Q47.4864 12.0186 58.1985 12.0186Q67.9833 12.0186 76.759 8.51751Q85.5347 5.01642 92.2935-1.27332Q99.0522-7.56306 102.738-15.9913Q102.935-16.4588 103.015-16.8474Q103.096-17.2361 103.096-17.521Q103.096-18.3605 102.585-18.8604Q102.074-19.3604 101.343-19.3604Q101.009-19.3604 100.694-19.2918Q100.379-19.2233 99.9354-19.0514Q97.6129-18.0064 92.9345-17.3148Q88.256-16.6233 83.844-16.6233ZM12.3155-37.5926Q12.3155-46.2899 15.4314-54.306Q18.5473-62.3221 24.1913-68.6699Q29.8353-75.0177 37.3373-78.6653Q35.9524-74.8221 35.1652-70.1834Q34.378-65.5447 34.378-60.9921Q34.378-46.1056 40.3281-35.3972Q46.2782-24.6887 57.3111-18.9197Q68.3439-13.1508 83.63-13.1508Q87.7465-13.1508 91.6607-13.7124Q95.575-14.274 98.7285-15.3332Q94.7002-7.97984 88.4832-2.64285Q82.2662 2.69414 74.5278 5.56577Q66.7893 8.4374 58.2707 8.4374Q48.3217 8.4374 39.9311 5.00226Q31.5406 1.56711 25.3378-4.63524Q19.1351-10.8376 15.7253-19.2343Q12.3155-27.6311 12.3155-37.5926Z"/>
  </g>
  <g id="Ultralight-M" transform="matrix(1 0 0 1 504.364 1126)">
   <path d="M83.3803-16.0901Q68.9958-16.0901 58.5339-21.5698Q48.0719-27.0495 42.4057-37.1688Q36.7396-47.288 36.7396-61.2374Q36.7396-66.7825 37.5495-71.3005Q38.3594-75.8184 39.9777-79.6093Q40.1671-80.1121 40.261-80.4574Q40.3549-80.8028 40.3549-81.0554Q40.3549-81.6214 40.007-81.94Q39.6591-82.2586 39.1518-82.2586Q38.8403-82.2586 38.4643-82.1647Q38.0884-82.0707 37.647-81.9444Q29.1691-78.701 22.6547-71.9379Q16.1404-65.1748 12.4315-56.2613Q8.72266-47.3477 8.72266-37.6248Q8.72266-27.0286 12.3688-18.0536Q16.015-9.07872 22.6215-2.47173Q29.228 4.13525 38.1717 7.7814Q47.1154 11.4275 57.7116 11.4275Q67.253 11.4275 75.9476 7.93804Q84.6422 4.44854 91.3719-1.75435Q98.1017-7.95723 101.718-16.1884Q101.845-16.5052 101.908-16.7895Q101.972-17.0739 101.972-17.3239Q101.972-17.9549 101.623-18.3331Q101.274-18.7113 100.647-18.7113Q100.395-18.7113 100.143-18.6485Q99.8919-18.5857 99.576-18.4604Q97.4507-17.4617 92.6273-16.7759Q87.804-16.0901 83.3803-16.0901ZM11.1332-37.6274Q11.1332-46.6492 14.4287-54.9261Q17.7243-63.203 23.6639-69.6783Q29.6035-76.1537 37.4417-79.7086Q36.0104-75.7264 35.171-70.8442Q34.3316-65.962 34.3316-61.2936Q34.3316-46.523 40.2817-35.8666Q46.2318-25.2103 57.2299-19.4471Q68.228-13.684 83.433-13.684Q87.6653-13.684 91.7709-14.2745Q95.8765-14.865 99.0531-15.9242Q94.9436-8.21159 88.5933-2.61383Q82.2431 2.98392 74.3365 6.00045Q66.43 9.01697 57.7143 9.01697Q47.6262 9.01697 39.1256 5.52963Q30.6249 2.0423 24.3352-4.24691Q18.0454-10.5361 14.5893-19.0373Q11.1332-27.5384 11.1332-37.6274Z"/>
  </g>
  <g id="Black-S" transform="matrix(1 0 0 1 2886.74 696)">
   <path d="M65.918-27.5879Q57.7148-27.5879 51.6846-30.6885Q45.6543-33.7891 42.3828-39.5752Q39.1113-45.3613 39.1113-53.3691Q39.1113-56.6406 39.624-59.668Q40.1367-62.6953 41.2109-64.5996Q41.9922-66.0156 42.3828-67.334Q42.7734-68.6523 42.7734-69.873Q42.7734-72.4121 41.2109-74.0234Q39.6484-75.6348 36.9141-75.6348Q35.9375-75.6348 34.79-75.3906Q33.6426-75.1465 32.373-74.6094Q24.6582-71.4844 18.9209-65.6982Q13.1836-59.9121 10.0098-52.417Q6.83594-44.9219 6.83594-36.6211Q6.83594-27.7832 9.8877-20.3125Q12.9395-12.8418 18.4326-7.32422Q23.9258-1.80664 31.3965 1.24512Q38.8672 4.29688 47.7051 4.29688Q55.8594 4.29688 63.1836 1.29395Q70.5078-1.70898 76.2207-7.20215Q81.9336-12.6953 85.2051-20.1172Q85.8887-21.582 86.1816-22.9004Q86.4746-24.2188 86.4746-25.293Q86.4746-27.8809 85.0098-29.3701Q83.5449-30.8594 81.1035-30.8594Q79.8828-30.8594 78.4424-30.4688Q77.002-30.0781 75.4395-29.248Q73.9258-28.4668 71.2891-28.0273Q68.6523-27.5879 65.918-27.5879ZM20.9473-36.6211Q20.9473-39.5508 21.582-42.5781Q22.2168-45.6055 23.4863-48.4619Q24.7559-51.3184 26.6113-53.6621Q26.5625-52.9297 26.5381-52.2217Q26.5137-51.5137 26.5137-50.8301Q26.5137-39.9414 30.957-31.9336Q35.4004-23.9258 43.5547-19.5557Q51.709-15.1855 62.8418-15.1855Q63.0371-15.1855 63.2324-15.1855Q63.4277-15.1855 63.623-15.1855Q61.4258-13.4277 58.8135-12.2314Q56.2012-11.0352 53.3691-10.4492Q50.5371-9.86328 47.7051-9.86328Q41.9434-9.86328 37.0605-11.8652Q32.1777-13.8672 28.5645-17.4805Q24.9512-21.0938 22.9492-25.9766Q20.9473-30.8594 20.9473-36.6211Z"/>
  </g>
  <g id="Heavy-S" transform="matrix(1 0 0 1 2590.25 696)">
   <path d="M66.2407-26.3778Q57.5189-26.3778 51.1256-29.6801Q44.7323-32.9823 41.2707-39.1315Q37.8091-45.2807 37.8091-53.7725Q37.8091-57.2975 38.3563-60.4689Q38.9036-63.6403 39.9663-65.5446Q40.6784-66.8454 41.0056-67.9794Q41.3329-69.1133 41.3329-70.2073Q41.3329-72.3891 39.9317-73.8621Q38.5306-75.3351 36.1189-75.3351Q35.3152-75.3351 34.3002-75.1256Q33.2853-74.916 32.0965-74.425Q24.5199-71.3461 18.8402-65.5888Q13.1605-59.8314 9.99824-52.3594Q6.83594-44.8873 6.83594-36.6326Q6.83594-27.8063 9.87617-20.3528Q12.9164-12.8994 18.3923-7.39913Q23.8682-1.89884 31.3216 1.1414Q38.775 4.18163 47.6014 4.18163Q55.8363 4.18163 63.1202 1.23056Q70.4041-1.72051 76.0421-7.15029Q81.6801-12.5801 84.917-19.9674Q85.5314-21.2939 85.784-22.4567Q86.0367-23.6195 86.0367-24.5208Q86.0367-26.8206 84.6928-28.1485Q83.349-29.4764 81.2649-29.4764Q80.2055-29.4764 78.9956-29.1607Q77.7856-28.845 76.4075-28.1417Q74.6633-27.3144 71.8999-26.8461Q69.1364-26.3778 66.2407-26.3778ZM19.2301-36.7018Q19.2301-40.2883 20.1472-43.8746Q21.0644-47.4609 22.841-50.7149Q24.6176-53.969 27.153-56.5087Q26.8967-55.3498 26.7743-54.1463Q26.652-52.9427 26.652-51.6714Q26.652-40.5061 31.1472-32.3658Q35.6424-24.2254 43.9408-19.815Q52.2391-15.4045 63.637-15.4045Q64.4546-15.4045 65.1743-15.4852Q65.894-15.5659 66.6079-15.7618Q64.2493-13.3471 61.2106-11.6552Q58.1719-9.96338 54.7117-9.10086Q51.2516-8.23833 47.6705-8.23833Q41.54-8.23833 36.346-10.3613Q31.1521-12.4843 27.314-16.3223Q23.476-20.1603 21.3531-25.36Q19.2301-30.5597 19.2301-36.7018Z"/>
  </g>
  <g id="Bold-S" transform="matrix(1 0 0 1 2293.79 696)">
   <path d="M66.6016-25.0244Q57.2998-25.0244 50.5005-28.5522Q43.7012-32.0801 40.0269-38.6353Q36.3525-45.1904 36.3525-54.2236Q36.3525-58.0322 36.9385-61.3647Q37.5244-64.6973 38.5742-66.6016Q39.209-67.7734 39.4653-68.7012Q39.7217-69.6289 39.7217-70.5811Q39.7217-72.3633 38.501-73.6816Q37.2803-75 35.2295-75Q34.6191-75 33.7524-74.8291Q32.8857-74.6582 31.7871-74.2188Q24.3652-71.1914 18.75-65.4663Q13.1348-59.7412 9.98535-52.2949Q6.83594-44.8486 6.83594-36.6455Q6.83594-27.832 9.86328-20.3979Q12.8906-12.9639 18.3472-7.48291Q23.8037-2.00195 31.2378 1.02539Q38.6719 4.05273 47.4854 4.05273Q55.8105 4.05273 63.0493 1.15967Q70.2881-1.7334 75.8423-7.09229Q81.3965-12.4512 84.5947-19.7998Q85.1318-20.9717 85.3394-21.9604Q85.5469-22.9492 85.5469-23.6572Q85.5469-25.6348 84.3384-26.7822Q83.1299-27.9297 81.4453-27.9297Q80.5664-27.9297 79.6143-27.6978Q78.6621-27.4658 77.4902-26.9043Q75.4883-26.0254 72.583-25.5249Q69.6777-25.0244 66.6016-25.0244ZM17.3096-36.792Q17.3096-41.1133 18.5425-45.3247Q19.7754-49.5361 22.1191-53.2349Q24.4629-56.9336 27.7588-59.6924Q27.2705-58.0566 27.0386-56.2988Q26.8066-54.541 26.8066-52.6123Q26.8066-41.1377 31.3599-32.8491Q35.9131-24.5605 44.3726-20.105Q52.832-15.6494 64.5264-15.6494Q66.04-15.6494 67.3462-15.8203Q68.6523-15.9912 69.9463-16.4062Q67.4072-13.2568 63.8916-11.0107Q60.376-8.76465 56.2134-7.59277Q52.0508-6.4209 47.6318-6.4209Q41.0889-6.4209 35.5469-8.6792Q30.0049-10.9375 25.9155-15.0269Q21.8262-19.1162 19.5679-24.6704Q17.3096-30.2246 17.3096-36.792Z"/>
  </g>
  <g id="Semibold-S" transform="matrix(1 0 0 1 1997.24 696)">
   <path d="M66.8504-24.0913Q57.1487-24.0913 50.0695-27.7747Q42.9902-31.458 39.1693-38.2931Q35.3483-45.1282 35.3483-54.5347Q35.3483-58.5388 35.9609-61.9824Q36.5735-65.426 37.6145-67.3303Q38.1959-68.4133 38.4034-69.1988Q38.6108-69.9844 38.6108-70.8388Q38.6108-72.3455 37.5146-73.5572Q36.4183-74.7689 34.6163-74.7689Q34.1393-74.7689 33.3748-74.6247Q32.6103-74.4805 31.5738-74.0766Q24.2586-71.0848 18.6878-65.3819Q13.117-59.679 9.97646-52.2505Q6.83594-44.822 6.83594-36.6544Q6.83594-27.8498 9.85439-20.4291Q12.8729-13.0083 18.3161-7.54067Q23.7593-2.07305 31.18 0.94541Q38.6008 3.96387 47.4054 3.96387Q55.7928 3.96387 63.0004 1.11079Q70.2081-1.74229 75.7045-7.05229Q81.201-12.3623 84.3726-19.6843Q84.8563-20.7495 85.0328-21.6183Q85.2092-22.4871 85.2092-23.0618Q85.2092-24.8172 84.094-25.8402Q82.9788-26.8633 81.5697-26.8633Q80.8152-26.8633 80.0408-26.6891Q79.2664-26.5149 78.2367-26.0512Q76.057-25.1367 73.054-24.614Q70.051-24.0913 66.8504-24.0913ZM15.9854-36.8542Q15.9854-41.682 17.4361-46.3245Q18.8867-50.9669 21.6215-54.9722Q24.3562-58.9775 28.1765-61.8874Q27.5282-59.9229 27.2208-57.7829Q26.9133-55.643 26.9133-53.261Q26.9133-41.5731 31.5065-33.1824Q36.0997-24.7916 44.6703-20.3049Q53.2408-15.8183 65.1396-15.8183Q67.1331-15.8183 68.8436-16.0514Q70.5541-16.2845 72.2479-16.8506Q69.5845-13.1946 65.74-10.5664Q61.8956-7.93818 57.2487-6.55303Q52.6018-5.16787 47.6052-5.16787Q40.7778-5.16787 34.9959-7.51948Q29.214-9.87109 24.9513-14.1337Q20.6887-18.3964 18.3371-24.195Q15.9854-29.9936 15.9854-36.8542Z"/>
  </g>
  <g id="Medium-S" transform="matrix(1 0 0 1 1700.66 696)">
   <path d="M67.0391-23.3838Q57.0342-23.3838 49.7427-27.1851Q42.4512-30.9863 38.519-38.0337Q34.5869-45.0811 34.5869-54.7705Q34.5869-58.9229 35.2197-62.4507Q35.8525-65.9785 36.8867-67.8828Q37.4277-68.8984 37.5981-69.5762Q37.7686-70.2539 37.7686-71.0342Q37.7686-72.332 36.7666-73.4629Q35.7646-74.5938 34.1514-74.5938Q33.7754-74.5938 33.0884-74.4697Q32.4014-74.3457 31.4121-73.9688Q24.1777-71.0039 18.6406-65.3179Q13.1035-59.6318 9.96973-52.2168Q6.83594-44.8018 6.83594-36.6611Q6.83594-27.8633 9.84766-20.4526Q12.8594-13.042 18.2925-7.58447Q23.7256-2.12695 31.1362 0.884766Q38.5469 3.89648 47.3447 3.89648Q55.7793 3.89648 62.9634 1.07373Q70.1475-1.74902 75.6001-7.02197Q81.0527-12.2949 84.2041-19.5967Q84.6475-20.5811 84.8003-21.3589Q84.9531-22.1367 84.9531-22.6104Q84.9531-24.1973 83.9087-25.126Q82.8643-26.0547 81.6641-26.0547Q81.0039-26.0547 80.3643-25.9243Q79.7246-25.7939 78.8027-25.4043Q76.4883-24.4629 73.4111-23.9233Q70.334-23.3838 67.0391-23.3838ZM14.9814-36.9014Q14.9814-42.1133 16.5972-47.0825Q18.2129-52.0518 21.2441-56.2896Q24.2754-60.5273 28.4932-63.5518Q27.7236-61.3379 27.3589-58.9082Q26.9941-56.4785 26.9941-53.7529Q26.9941-41.9033 31.6177-33.4351Q36.2412-24.9668 44.896-20.4565Q53.5508-15.9463 65.6045-15.9463Q67.9619-15.9463 69.979-16.2266Q71.9961-16.5068 73.9932-17.1875Q71.2354-13.1475 67.1416-10.2295Q63.0479-7.31152 58.0337-5.76465Q53.0195-4.21777 47.585-4.21777Q40.542-4.21777 34.5781-6.64014Q28.6143-9.0625 24.2202-13.4565Q19.8262-17.8506 17.4038-23.8345Q14.9814-29.8184 14.9814-36.9014Z"/>
  </g>
  <g id="Regular-S" transform="matrix(1 0 0 1 1404.12 696)">
   <path d="M67.2852-22.4609Q56.8848-22.4609 49.3164-26.416Q41.748-30.3711 37.6709-37.6953Q33.5938-45.0195 33.5938-55.0781Q33.5938-59.4238 34.2529-63.0615Q34.9121-66.6992 35.9375-68.6035Q36.4258-69.5312 36.5479-70.0684Q36.6699-70.6055 36.6699-71.2891Q36.6699-72.3145 35.791-73.3398Q34.9121-74.3652 33.5449-74.3652Q33.3008-74.3652 32.7148-74.2676Q32.1289-74.1699 31.2012-73.8281Q24.0723-70.8984 18.5791-65.2344Q13.0859-59.5703 9.96094-52.1729Q6.83594-44.7754 6.83594-36.6699Q6.83594-27.8809 9.83887-20.4834Q12.8418-13.0859 18.2617-7.6416Q23.6816-2.19727 31.0791 0.805664Q38.4766 3.80859 47.2656 3.80859Q55.7617 3.80859 62.915 1.02539Q70.0684-1.75781 75.4639-6.98242Q80.8594-12.207 83.9844-19.4824Q84.375-20.3613 84.4971-21.0205Q84.6191-21.6797 84.6191-22.0215Q84.6191-23.3887 83.667-24.1943Q82.7148-25 81.7871-25Q81.25-25 80.7861-24.9268Q80.3223-24.8535 79.541-24.5605Q77.0508-23.584 73.877-23.0225Q70.7031-22.4609 67.2852-22.4609ZM13.6719-36.9629Q13.6719-42.6758 15.5029-48.0713Q17.334-53.4668 20.752-58.0078Q24.1699-62.5488 28.9062-65.7227Q27.9785-63.1836 27.5391-60.376Q27.0996-57.5684 27.0996-54.3945Q27.0996-42.334 31.7627-33.7646Q36.4258-25.1953 45.1904-20.6543Q53.9551-16.1133 66.2109-16.1133Q69.043-16.1133 71.46-16.4551Q73.877-16.7969 76.2695-17.627Q73.3887-13.0859 68.9697-9.79004Q64.5508-6.49414 59.0576-4.73633Q53.5645-2.97852 47.5586-2.97852Q40.2344-2.97852 34.0332-5.49316Q27.832-8.00781 23.2666-12.5732Q18.7012-17.1387 16.1865-23.3643Q13.6719-29.5898 13.6719-36.9629Z"/>
  </g>
  <g id="Light-S" transform="matrix(1 0 0 1 1108.14 696)">
   <path d="M66.6796-21.7646Q56.0069-21.7646 48.2417-25.8256Q40.4765-29.8866 36.2859-37.4001Q32.0953-44.9135 32.0953-55.2447Q32.0953-59.5904 32.7469-63.1978Q33.3984-66.8053 34.4996-69.0425Q34.8818-69.8036 34.9888-70.2576Q35.0957-70.7115 35.0957-71.2435Q35.0957-72.0874 34.406-72.8706Q33.7163-73.6539 32.6518-73.6539Q32.4076-73.6539 31.9126-73.5638Q31.4176-73.4736 30.6714-73.2076Q23.6938-70.399 18.3217-64.8485Q12.9496-59.2979 9.89278-52.029Q6.83594-44.7601 6.83594-36.8062Q6.83594-28.1685 9.79347-20.8846Q12.751-13.6007 18.0953-8.23949Q23.4395-2.87832 30.7158 0.0792185Q37.9921 3.03675 46.6298 3.03675Q54.808 3.03675 61.8554 0.268682Q68.9028-2.49939 74.2605-7.61058Q79.6181-12.7218 82.6523-19.7398Q82.9521-20.4219 83.0516-20.9448Q83.151-21.4678 83.151-21.7641Q83.151-22.8589 82.4107-23.5057Q81.6704-24.1524 80.879-24.1524Q80.4476-24.1524 80.0671-24.0866Q79.6865-24.0209 79.0718-23.7887Q76.8389-22.8727 73.4759-22.3186Q70.1129-21.7646 66.6796-21.7646ZM12.1279-37.0084Q12.1279-43.145 14.1936-48.881Q16.2593-54.6171 20.0633-59.3246Q23.8673-64.0322 29.0426-67.085Q28.0543-64.3644 27.5467-61.2389Q27.0391-58.1134 27.0391-54.7882Q27.0391-42.879 31.7022-34.3777Q36.3653-25.8764 45.0845-21.343Q53.8038-16.8096 65.9536-16.8096Q68.9369-16.8096 71.6038-17.1892Q74.2706-17.5687 76.6935-18.3988Q73.7066-13.3886 69.1135-9.75215Q64.5205-6.11572 58.8079-4.1687Q53.0952-2.22168 46.832-2.22168Q39.3262-2.22168 32.9812-4.80448Q26.6363-7.38729 21.9573-12.0661Q17.2783-16.745 14.7031-23.1069Q12.1279-29.4688 12.1279-37.0084Z"/>
  </g>
  <g id="Thin-S" transform="matrix(1 0 0 1 812.4 696)">
   <path d="M65.8788-20.8437Q54.8458-20.8437 46.8203-25.0448Q38.7947-29.2459 34.4541-37.0096Q30.1136-44.7732 30.1136-55.465Q30.1136-59.8107 30.755-63.3781Q31.3965-66.9455 32.5979-69.623Q32.8399-70.1638 32.9268-70.5078Q33.0137-70.8518 33.0137-71.1833Q33.0137-71.787 32.5743-72.2501Q32.1348-72.7132 31.4705-72.7132Q31.2264-72.7132 30.8516-72.6329Q30.4768-72.5527 29.9708-72.3869Q23.1934-69.7384 17.9814-64.338Q12.7693-58.9377 9.80264-51.8388Q6.83594-44.74 6.83594-36.9865Q6.83594-28.5489 9.73343-21.4152Q12.6309-14.2814 17.8751-9.03025Q23.1193-3.77906 30.2353-0.881564Q37.3513 2.01593 45.789 2.01593Q53.5467 2.01593 60.454-0.732127Q67.3614-3.48019 72.6689-8.44136Q77.9763-13.4025 80.8905-20.0802Q81.0702-20.5019 81.1397-20.8448Q81.2092-21.1877 81.2092-21.4237Q81.2092-22.1583 80.7491-22.5948Q80.289-23.0313 79.6779-23.0313Q79.3865-23.0313 79.116-22.9755Q78.8456-22.9197 78.4512-22.7679Q76.5588-21.9319 72.9455-21.3878Q69.3322-20.8437 65.8788-20.8437ZM10.086-37.0686Q10.086-43.7656 12.4619-49.952Q14.8378-56.1384 19.1524-61.0663Q23.467-65.9942 29.2228-68.8868Q28.1545-65.926 27.5568-62.3801Q26.959-58.8341 26.959-55.3089Q26.959-43.5998 31.6221-35.1884Q36.2852-26.7771 44.9444-22.2538Q53.6036-17.7305 65.6132-17.7305Q68.7967-17.7305 71.794-18.16Q74.7913-18.5895 77.2542-19.4196Q74.127-13.7888 69.3037-9.70203Q64.4805-5.61523 58.4776-3.41797Q52.4747-1.2207 45.8711-1.2207Q38.1251-1.2207 31.5899-3.89365Q25.0547-6.5666 20.2256-11.3955Q15.3964-16.2243 12.7412-22.7665Q10.086-29.3087 10.086-37.0686Z"/>
  </g>
  <g id="Ultralight-S" transform="matrix(1 0 0 1 516.186 696)">
   <path d="M65.4686-20.372Q54.2511-20.372 46.0922-24.6449Q37.9333-28.9177 33.5159-36.8095Q29.0985-44.7014 29.0985-55.5779Q29.0985-59.9236 29.7348-63.4705Q30.3711-67.0174 31.6238-69.9203Q31.794-70.3484 31.8707-70.636Q31.9473-70.9236 31.9473-71.1525Q31.9473-71.6331 31.636-71.9322Q31.3248-72.2313 30.8655-72.2313Q30.6213-72.2313 30.3082-72.1561Q29.995-72.081 29.612-71.9666Q22.937-69.4 17.807-64.0766Q12.677-58.7532 9.75647-51.7414Q6.83594-44.7296 6.83594-37.0789Q6.83594-28.7437 9.70268-21.6869Q12.5694-14.6301 17.7624-9.43527Q22.9553-4.24042 29.9892-1.37367Q37.0232 1.49307 45.3583 1.49307Q52.9007 1.49307 59.7363-1.24474Q66.5718-3.98254 71.8536-8.86688Q77.1355-13.7512 79.9881-20.2545Q80.1064-20.5429 80.1605-20.7935Q80.2147-21.0442 80.2147-21.2494Q80.2147-21.7995 79.8981-22.1283Q79.5815-22.4571 79.0627-22.4571Q78.8429-22.4571 78.6289-22.4064Q78.4149-22.3557 78.1334-22.245Q76.4153-21.45 72.6738-20.911Q68.9323-20.372 65.4686-20.372ZM9.04007-37.0995Q9.04007-44.0834 11.5749-50.5005Q14.1098-56.9176 18.6859-61.9583Q23.262-66.9991 29.3152-69.8097Q28.2059-66.7259 27.562-62.9646Q26.918-59.2033 26.918-55.5756Q26.918-43.969 31.5811-35.6037Q36.2442-27.2385 44.8727-22.7203Q53.5011-18.2022 65.4388-18.2022Q68.7248-18.2022 71.8914-18.6573Q75.058-19.1124 77.5414-19.9425Q74.3423-13.9938 69.4012-9.67636Q64.46-5.35889 58.3084-3.03345Q52.1568-0.708008 45.3789-0.708008Q37.5099-0.708008 30.8773-3.42712Q24.2447-6.14624 19.3386-11.0519Q14.4325-15.9576 11.7363-22.5922Q9.04007-29.2267 9.04007-37.0995Z"/>
  </g>
 </g>
</svg>
