<?xml version="1.0" encoding="UTF-8"?>
<!--Generator: Apple Native CoreSVG 175-->
<!DOCTYPE svg
PUBLIC "-//W3C//DTD SVG 1.1//EN"
       "http://www.w3.org/Graphics/SVG/1.1/DTD/svg11.dtd">
<svg version="1.1" xmlns="http://www.w3.org/2000/svg" xmlns:xlink="http://www.w3.org/1999/xlink" width="3300" height="2200">
 <!--glyph: "uni1001B9.medium", point size: 100.0, font version: "17.1d1e1", template writer version: "65.1"-->
 <g id="Notes">
  <rect height="2200" id="artboard" style="fill:white;opacity:1" width="3300" x="0" y="0"/>
  <line style="fill:none;stroke:black;opacity:1;stroke-width:0.5;" x1="263" x2="3036" y1="292" y2="292"/>
  <text style="stroke:none;fill:black;font-family:sans-serif;font-size:13;font-weight:bold;" transform="matrix(1 0 0 1 263 322)">Weight/Scale Variations</text>
  <text style="stroke:none;fill:black;font-family:sans-serif;font-size:13;text-anchor:middle;" transform="matrix(1 0 0 1 559.711 322)">Ultralight</text>
  <text style="stroke:none;fill:black;font-family:sans-serif;font-size:13;text-anchor:middle;" transform="matrix(1 0 0 1 856.422 322)">Thin</text>
  <text style="stroke:none;fill:black;font-family:sans-serif;font-size:13;text-anchor:middle;" transform="matrix(1 0 0 1 1153.13 322)">Light</text>
  <text style="stroke:none;fill:black;font-family:sans-serif;font-size:13;text-anchor:middle;" transform="matrix(1 0 0 1 1449.84 322)">Regular</text>
  <text style="stroke:none;fill:black;font-family:sans-serif;font-size:13;text-anchor:middle;" transform="matrix(1 0 0 1 1746.56 322)">Medium</text>
  <text style="stroke:none;fill:black;font-family:sans-serif;font-size:13;text-anchor:middle;" transform="matrix(1 0 0 1 2043.27 322)">Semibold</text>
  <text style="stroke:none;fill:black;font-family:sans-serif;font-size:13;text-anchor:middle;" transform="matrix(1 0 0 1 2339.98 322)">Bold</text>
  <text style="stroke:none;fill:black;font-family:sans-serif;font-size:13;text-anchor:middle;" transform="matrix(1 0 0 1 2636.69 322)">Heavy</text>
  <text style="stroke:none;fill:black;font-family:sans-serif;font-size:13;text-anchor:middle;" transform="matrix(1 0 0 1 2933.4 322)">Black</text>
  <line style="fill:none;stroke:black;opacity:1;stroke-width:0.5;" x1="263" x2="3036" y1="1903" y2="1903"/>
  <g transform="matrix(1 0 0 1 263 1933)">
   <path d="M9.24805 0.830078Q10.8691 0.830078 12.2949 0.214844Q13.7207-0.400391 14.8096-1.49414Q15.8984-2.58789 16.5186-4.01367Q17.1387-5.43945 17.1387-7.05078Q17.1387-8.66211 16.5186-10.0879Q15.8984-11.5137 14.8047-12.6074Q13.7109-13.7012 12.2852-14.3164Q10.8594-14.9316 9.23828-14.9316Q7.62695-14.9316 6.20117-14.3164Q4.77539-13.7012 3.69141-12.6074Q2.60742-11.5137 1.9873-10.0879Q1.36719-8.66211 1.36719-7.05078Q1.36719-5.43945 1.9873-4.01367Q2.60742-2.58789 3.69629-1.49414Q4.78516-0.400391 6.21094 0.214844Q7.63672 0.830078 9.24805 0.830078ZM9.24805-0.654297Q7.91992-0.654297 6.7627-1.14746Q5.60547-1.64062 4.73145-2.51953Q3.85742-3.39844 3.36426-4.56055Q2.87109-5.72266 2.87109-7.05078Q2.87109-8.37891 3.35938-9.54102Q3.84766-10.7031 4.72168-11.582Q5.5957-12.4609 6.75293-12.9541Q7.91016-13.4473 9.23828-13.4473Q10.5762-13.4473 11.7334-12.9541Q12.8906-12.4609 13.7695-11.582Q14.6484-10.7031 15.1465-9.54102Q15.6445-8.37891 15.6445-7.05078Q15.6445-5.72266 15.1514-4.56055Q14.6582-3.39844 13.7842-2.51953Q12.9102-1.64062 11.748-1.14746Q10.5859-0.654297 9.24805-0.654297ZM5.6543-7.05078Q5.6543-6.72852 5.85938-6.52832Q6.06445-6.32812 6.40625-6.32812L8.51562-6.32812L8.51562-4.20898Q8.51562-3.88672 8.71094-3.67676Q8.90625-3.4668 9.23828-3.4668Q9.56055-3.4668 9.77051-3.67676Q9.98047-3.88672 9.98047-4.20898L9.98047-6.32812L12.0898-6.32812Q12.4219-6.32812 12.627-6.52832Q12.832-6.72852 12.832-7.05078Q12.832-7.38281 12.627-7.58789Q12.4219-7.79297 12.0898-7.79297L9.98047-7.79297L9.98047-9.90234Q9.98047-10.2344 9.77051-10.4443Q9.56055-10.6543 9.23828-10.6543Q8.90625-10.6543 8.71094-10.4443Q8.51562-10.2344 8.51562-9.90234L8.51562-7.79297L6.40625-7.79297Q6.06445-7.79297 5.85938-7.58789Q5.6543-7.38281 5.6543-7.05078Z"/>
  </g>
  <g transform="matrix(1 0 0 1 281.867 1933)">
   <path d="M11.709 2.91016Q13.75 2.91016 15.5518 2.12891Q17.3535 1.34766 18.7305-0.0292969Q20.1074-1.40625 20.8887-3.20801Q21.6699-5.00977 21.6699-7.05078Q21.6699-9.0918 20.8887-10.8936Q20.1074-12.6953 18.7305-14.0723Q17.3535-15.4492 15.5469-16.2305Q13.7402-17.0117 11.6992-17.0117Q9.6582-17.0117 7.85645-16.2305Q6.05469-15.4492 4.68262-14.0723Q3.31055-12.6953 2.5293-10.8936Q1.74805-9.0918 1.74805-7.05078Q1.74805-5.00977 2.5293-3.20801Q3.31055-1.40625 4.6875-0.0292969Q6.06445 1.34766 7.86621 2.12891Q9.66797 2.91016 11.709 2.91016ZM11.709 1.25Q9.98047 1.25 8.47656 0.605469Q6.97266-0.0390625 5.83496-1.17676Q4.69727-2.31445 4.05762-3.81836Q3.41797-5.32227 3.41797-7.05078Q3.41797-8.7793 4.05762-10.2832Q4.69727-11.7871 5.83008-12.9297Q6.96289-14.0723 8.4668-14.7119Q9.9707-15.3516 11.6992-15.3516Q13.4277-15.3516 14.9316-14.7119Q16.4355-14.0723 17.5781-12.9297Q18.7207-11.7871 19.3652-10.2832Q20.0098-8.7793 20.0098-7.05078Q20.0098-5.32227 19.3701-3.81836Q18.7305-2.31445 17.5928-1.17676Q16.4551-0.0390625 14.9463 0.605469Q13.4375 1.25 11.709 1.25ZM7.17773-7.05078Q7.17773-6.69922 7.41211-6.47461Q7.64648-6.25 8.01758-6.25L10.8887-6.25L10.8887-3.36914Q10.8887-2.99805 11.1133-2.76855Q11.3379-2.53906 11.6895-2.53906Q12.0605-2.53906 12.29-2.76855Q12.5195-2.99805 12.5195-3.36914L12.5195-6.25L15.4004-6.25Q15.7715-6.25 16.001-6.47461Q16.2305-6.69922 16.2305-7.05078Q16.2305-7.42188 16.001-7.65137Q15.7715-7.88086 15.4004-7.88086L12.5195-7.88086L12.5195-10.752Q12.5195-11.1328 12.29-11.3623Q12.0605-11.5918 11.6895-11.5918Q11.3379-11.5918 11.1133-11.3574Q10.8887-11.123 10.8887-10.752L10.8887-7.88086L8.01758-7.88086Q7.63672-7.88086 7.40723-7.65137Q7.17773-7.42188 7.17773-7.05078Z"/>
  </g>
  <g transform="matrix(1 0 0 1 305.646 1933)">
   <path d="M14.9707 5.66406Q17.0605 5.66406 18.96 5.01465Q20.8594 4.36523 22.4512 3.19336Q24.043 2.02148 25.2197 0.429688Q26.3965-1.16211 27.0459-3.06641Q27.6953-4.9707 27.6953-7.05078Q27.6953-9.14062 27.0459-11.04Q26.3965-12.9395 25.2197-14.5312Q24.043-16.123 22.4512-17.2998Q20.8594-18.4766 18.9551-19.126Q17.0508-19.7754 14.9609-19.7754Q12.8711-19.7754 10.9717-19.126Q9.07227-18.4766 7.48535-17.2998Q5.89844-16.123 4.72168-14.5312Q3.54492-12.9395 2.90039-11.04Q2.25586-9.14062 2.25586-7.05078Q2.25586-4.9707 2.90527-3.06641Q3.55469-1.16211 4.72656 0.429688Q5.89844 2.02148 7.49023 3.19336Q9.08203 4.36523 10.9814 5.01465Q12.8809 5.66406 14.9707 5.66406ZM14.9707 3.84766Q13.1641 3.84766 11.5283 3.2959Q9.89258 2.74414 8.53516 1.74805Q7.17773 0.751953 6.17676-0.610352Q5.17578-1.97266 4.62891-3.6084Q4.08203-5.24414 4.08203-7.05078Q4.08203-8.86719 4.62891-10.5029Q5.17578-12.1387 6.17188-13.501Q7.16797-14.8633 8.52539-15.8594Q9.88281-16.8555 11.5186-17.4023Q13.1543-17.9492 14.9609-17.9492Q16.7773-17.9492 18.4131-17.4023Q20.0488-16.8555 21.4111-15.8594Q22.7734-14.8633 23.7695-13.501Q24.7656-12.1387 25.3174-10.5029Q25.8691-8.86719 25.8691-7.05078Q25.8789-5.24414 25.332-3.6084Q24.7852-1.97266 23.7842-0.610352Q22.7832 0.751953 21.4209 1.74805Q20.0586 2.74414 18.4229 3.2959Q16.7871 3.84766 14.9707 3.84766ZM9.19922-7.05078Q9.19922-6.66992 9.45801-6.4209Q9.7168-6.17188 10.1172-6.17188L14.0625-6.17188L14.0625-2.2168Q14.0625-1.81641 14.3115-1.55762Q14.5605-1.29883 14.9512-1.29883Q15.3516-1.29883 15.6104-1.55273Q15.8691-1.80664 15.8691-2.2168L15.8691-6.17188L19.8242-6.17188Q20.2246-6.17188 20.4785-6.4209Q20.7324-6.66992 20.7324-7.05078Q20.7324-7.46094 20.4785-7.71484Q20.2246-7.96875 19.8242-7.96875L15.8691-7.96875L15.8691-11.9141Q15.8691-12.3242 15.6104-12.583Q15.3516-12.8418 14.9512-12.8418Q14.5605-12.8418 14.3115-12.583Q14.0625-12.3242 14.0625-11.9141L14.0625-7.96875L10.1172-7.96875Q9.70703-7.96875 9.45312-7.71484Q9.19922-7.46094 9.19922-7.05078Z"/>
  </g>
  <text style="stroke:none;fill:black;font-family:sans-serif;font-size:13;font-weight:bold;" transform="matrix(1 0 0 1 263 1953)">Design Variations</text>
  <text style="stroke:none;fill:black;font-family:sans-serif;font-size:13;" transform="matrix(1 0 0 1 263 1971)">Symbols are supported in up to nine weights and three scales.</text>
  <text style="stroke:none;fill:black;font-family:sans-serif;font-size:13;" transform="matrix(1 0 0 1 263 1989)">For optimal layout with text and other symbols, vertically align</text>
  <text style="stroke:none;fill:black;font-family:sans-serif;font-size:13;" transform="matrix(1 0 0 1 263 2007)">symbols with the adjacent text.</text>
  <line style="fill:none;stroke:#00AEEF;stroke-width:0.5;opacity:1.0;" x1="776" x2="776" y1="1919" y2="1933"/>
  <g transform="matrix(1 0 0 1 776 1933)">
   <path d="M3.31055 0.15625Q3.70117 0.15625 3.91602-0.00976562Q4.13086-0.175781 4.26758-0.585938L5.52734-4.0332L11.2891-4.0332L12.5488-0.585938Q12.6855-0.175781 12.9004-0.00976562Q13.1152 0.15625 13.4961 0.15625Q13.8867 0.15625 14.1162-0.0585938Q14.3457-0.273438 14.3457-0.644531Q14.3457-0.869141 14.2383-1.17188L9.6582-13.3691Q9.48242-13.8184 9.17969-14.043Q8.87695-14.2676 8.4082-14.2676Q7.5-14.2676 7.17773-13.3789L2.59766-1.16211Q2.49023-0.859375 2.49023-0.634766Q2.49023-0.263672 2.70996-0.0537109Q2.92969 0.15625 3.31055 0.15625ZM6.00586-5.51758L8.37891-12.0898L8.42773-12.0898L10.8008-5.51758Z"/>
  </g>
  <line style="fill:none;stroke:#00AEEF;stroke-width:0.5;opacity:1.0;" x1="793.197" x2="793.197" y1="1919" y2="1933"/>
  <text style="stroke:none;fill:black;font-family:sans-serif;font-size:13;font-weight:bold;" transform="matrix(1 0 0 1 776 1953)">Margins</text>
  <text style="stroke:none;fill:black;font-family:sans-serif;font-size:13;" transform="matrix(1 0 0 1 776 1971)">Leading and trailing margins on the left and right side of each symbol</text>
  <text style="stroke:none;fill:black;font-family:sans-serif;font-size:13;" transform="matrix(1 0 0 1 776 1989)">can be adjusted by modifying the x-location of the margin guidelines.</text>
  <text style="stroke:none;fill:black;font-family:sans-serif;font-size:13;" transform="matrix(1 0 0 1 776 2007)">Modifications are automatically applied proportionally to all</text>
  <text style="stroke:none;fill:black;font-family:sans-serif;font-size:13;" transform="matrix(1 0 0 1 776 2025)">scales and weights.</text>
  <g transform="matrix(1 0 0 1 1289 1933)">
   <path d="M2.8418 1.86523L4.54102 3.57422Q5.18555 4.22852 5.90332 4.17969Q6.62109 4.13086 7.31445 3.35938L18.0078-8.42773L17.041-9.4043L6.42578 2.27539Q6.16211 2.57812 5.89355 2.61719Q5.625 2.65625 5.27344 2.30469L4.10156 1.14258Q3.75 0.791016 3.79395 0.522461Q3.83789 0.253906 4.14062-0.0195312L15.6152-10.8203L14.6387-11.7871L3.04688-0.898438Q2.30469-0.214844 2.25098 0.498047Q2.19727 1.21094 2.8418 1.86523ZM9.25781-16.3281Q8.94531-16.0254 8.90625-15.6348Q8.86719-15.2441 9.04297-14.9512Q9.21875-14.6777 9.55566-14.541Q9.89258-14.4043 10.3809-14.5215Q11.4746-14.7754 12.5977-14.7314Q13.7207-14.6875 14.7949-13.9844L14.209-12.5293Q13.9551-11.9043 14.0674-11.4404Q14.1797-10.9766 14.5801-10.5664L16.875-8.25195Q17.2363-7.88086 17.5781-7.82227Q17.9199-7.76367 18.3398-7.8418L19.4043-8.03711L20.0684-7.36328L20.0293-6.80664Q20-6.43555 20.1221-6.12305Q20.2441-5.81055 20.6055-5.44922L21.3672-4.70703Q21.7285-4.3457 22.1533-4.33105Q22.5781-4.31641 22.9297-4.66797L25.8398-7.58789Q26.1914-7.93945 26.1816-8.35449Q26.1719-8.76953 25.8105-9.13086L25.0391-9.89258Q24.6875-10.2539 24.3799-10.3857Q24.0723-10.5176 23.7109-10.4883L23.1348-10.4395L22.4902-11.0742L22.7344-12.1973Q22.832-12.6172 22.6953-12.9834Q22.5586-13.3496 22.1191-13.7891L19.9219-15.9766Q18.6719-17.2168 17.2607-17.8369Q15.8496-18.457 14.4189-18.4814Q12.9883-18.5059 11.665-17.959Q10.3418-17.4121 9.25781-16.3281ZM10.752-15.957Q11.6602-16.6211 12.7002-16.9043Q13.7402-17.1875 14.8047-17.085Q15.8691-16.9824 16.8701-16.5137Q17.8711-16.0449 18.7012-15.2051L21.1328-12.793Q21.3086-12.6172 21.3525-12.4512Q21.3965-12.2852 21.3379-12.0312L21.0156-10.5469L22.5195-9.0625L23.5059-9.12109Q23.6914-9.13086 23.7891-9.09668Q23.8867-9.0625 24.0332-8.91602L24.6094-8.33984L22.168-5.89844L21.5918-6.47461Q21.4453-6.62109 21.4062-6.71875Q21.3672-6.81641 21.377-7.01172L21.4453-7.98828L19.9512-9.47266L18.4277-9.21875Q18.1836-9.16992 18.042-9.2041Q17.9004-9.23828 17.7148-9.41406L15.7129-11.416Q15.5176-11.5918 15.4932-11.7529Q15.4688-11.9141 15.5859-12.1875L16.4648-14.2773Q15.293-15.3711 13.8281-15.791Q12.3633-16.2109 10.8398-15.7617Q10.7227-15.7324 10.6885-15.8057Q10.6543-15.8789 10.752-15.957Z"/>
  </g>
  <text style="stroke:none;fill:black;font-family:sans-serif;font-size:13;font-weight:bold;" transform="matrix(1 0 0 1 1289 1953)">Exporting</text>
  <text style="stroke:none;fill:black;font-family:sans-serif;font-size:13;" transform="matrix(1 0 0 1 1289 1971)">Symbols should be outlined when exporting to ensure the</text>
  <text style="stroke:none;fill:black;font-family:sans-serif;font-size:13;" transform="matrix(1 0 0 1 1289 1989)">design is preserved when submitting to Xcode.</text>
  <text id="template-version" style="stroke:none;fill:black;font-family:sans-serif;font-size:13;text-anchor:end;" transform="matrix(1 0 0 1 3036 1933)">Template v.2.0</text>
  <text style="stroke:none;fill:black;font-family:sans-serif;font-size:13;text-anchor:end;" transform="matrix(1 0 0 1 3036 1951)">Requires Xcode 12 or greater</text>
  <text id="descriptive-name" style="stroke:none;fill:black;font-family:sans-serif;font-size:13;text-anchor:end;" transform="matrix(1 0 0 1 3036 1969)">Generated from moon</text>
  <text style="stroke:none;fill:black;font-family:sans-serif;font-size:13;text-anchor:end;" transform="matrix(1 0 0 1 3036 1987)">Typeset at 100 points</text>
  <text style="stroke:none;fill:black;font-family:sans-serif;font-size:13;" transform="matrix(1 0 0 1 263 726)">Small</text>
  <text style="stroke:none;fill:black;font-family:sans-serif;font-size:13;" transform="matrix(1 0 0 1 263 1156)">Medium</text>
  <text style="stroke:none;fill:black;font-family:sans-serif;font-size:13;" transform="matrix(1 0 0 1 263 1586)">Large</text>
 </g>
 <g id="Guides">
  <g id="H-reference" style="fill:#27AAE1;stroke:none;" transform="matrix(1 0 0 1 339 696)">
   <path d="M0.976562 0L3.66211 0L29.3457-67.1387L30.0293-67.1387L30.0293-70.459L28.125-70.459ZM11.6699-24.4629L46.9727-24.4629L46.2402-26.709L12.4512-26.709ZM55.127 0L57.7637 0L30.6152-70.459L29.4434-70.459L29.4434-67.1387Z"/>
  </g>
  <line id="Baseline-S" style="fill:none;stroke:#27AAE1;opacity:1;stroke-width:0.5;" x1="263" x2="3036" y1="696" y2="696"/>
  <line id="Capline-S" style="fill:none;stroke:#27AAE1;opacity:1;stroke-width:0.5;" x1="263" x2="3036" y1="625.541" y2="625.541"/>
  <g id="H-reference" style="fill:#27AAE1;stroke:none;" transform="matrix(1 0 0 1 339 1126)">
   <path d="M0.976562 0L3.66211 0L29.3457-67.1387L30.0293-67.1387L30.0293-70.459L28.125-70.459ZM11.6699-24.4629L46.9727-24.4629L46.2402-26.709L12.4512-26.709ZM55.127 0L57.7637 0L30.6152-70.459L29.4434-70.459L29.4434-67.1387Z"/>
  </g>
  <line id="Baseline-M" style="fill:none;stroke:#27AAE1;opacity:1;stroke-width:0.5;" x1="263" x2="3036" y1="1126" y2="1126"/>
  <line id="Capline-M" style="fill:none;stroke:#27AAE1;opacity:1;stroke-width:0.5;" x1="263" x2="3036" y1="1055.54" y2="1055.54"/>
  <g id="H-reference" style="fill:#27AAE1;stroke:none;" transform="matrix(1 0 0 1 339 1556)">
   <path d="M0.976562 0L3.66211 0L29.3457-67.1387L30.0293-67.1387L30.0293-70.459L28.125-70.459ZM11.6699-24.4629L46.9727-24.4629L46.2402-26.709L12.4512-26.709ZM55.127 0L57.7637 0L30.6152-70.459L29.4434-70.459L29.4434-67.1387Z"/>
  </g>
  <line id="Baseline-L" style="fill:none;stroke:#27AAE1;opacity:1;stroke-width:0.5;" x1="263" x2="3036" y1="1556" y2="1556"/>
  <line id="Capline-L" style="fill:none;stroke:#27AAE1;opacity:1;stroke-width:0.5;" x1="263" x2="3036" y1="1485.54" y2="1485.54"/>
  <line id="left-margin" style="fill:none;stroke:#00AEEF;stroke-width:0.5;opacity:1.0;" x1="1392.01" x2="1392.01" y1="1030.79" y2="1150.12"/>
  <line id="right-margin" style="fill:none;stroke:#00AEEF;stroke-width:0.5;opacity:1.0;" x1="1507.68" x2="1507.68" y1="1030.79" y2="1150.12"/>
 </g>
 <g id="Symbols">
  <g id="Black-L" transform="matrix(1 0 0 1 2857.03 1556)">
   <path d="M109.136-20.2771Q94.6127-20.2771 83.9719-25.7773Q73.3312-31.2776 67.5709-41.5156Q61.8105-51.7535 61.8105-65.8888Q61.8105-71.7613 62.7203-77.0205Q63.6301-82.2798 65.3838-85.4419Q66.5294-87.5411 67.0504-89.3538Q67.5714-91.1665 67.5714-92.922Q67.5714-96.4072 65.3216-98.7776Q63.0718-101.148 59.2078-101.148Q57.9296-101.148 56.2999-100.813Q54.6703-100.477 52.7476-99.6871Q40.3183-94.6372 30.9887-85.1715Q21.6591-75.7058 16.4589-63.4157Q11.2588-51.1255 11.2588-37.5538Q11.2588-23.0326 16.2592-10.7704Q21.2595 1.49181 30.268 10.5398Q39.2764 19.5878 51.538 24.5888Q63.7996 29.5898 78.322 29.5898Q91.8805 29.5898 103.858 24.7437Q115.836 19.8976 125.099 10.9804Q134.363 2.06327 139.677-10.0739Q140.664-12.2069 141.068-14.0702Q141.471-15.9334 141.471-17.3686Q141.471-21.0586 139.307-23.191Q137.142-25.3234 133.814-25.3234Q132.12-25.3234 130.195-24.8238Q128.269-24.3242 126.061-23.2043Q123.148-21.8334 118.548-21.0552Q113.949-20.2771 109.136-20.2771ZM31.0979-37.6794Q31.0979-43.7928 32.7014-49.8735Q34.3048-55.9542 37.3946-61.4311Q40.4843-66.908 44.8738-71.1334Q44.3933-69.0984 44.1601-66.96Q43.927-64.8216 43.927-62.5615Q43.927-44.1111 51.3443-30.6749Q58.7616-17.2387 72.4637-9.96467Q86.1657-2.69068 104.999-2.69068Q106.521-2.69068 107.864-2.84735Q109.207-3.00402 110.522-3.37824Q106.587 0.807654 101.456 3.75153Q96.325 6.69541 90.4436 8.20356Q84.5621 9.71171 78.4463 9.71171Q68.2382 9.71171 59.5909 6.17821Q50.9436 2.64471 44.5543-3.74463Q38.165-10.134 34.6314-18.7923Q31.0979-27.4506 31.0979-37.6794Z"/>
  </g>
  <g id="Heavy-L" transform="matrix(1 0 0 1 2560.8 1556)">
   <path d="M109.346-18.6255Q94.1219-18.6255 82.99-24.3979Q71.8581-30.1702 65.837-40.897Q59.816-51.6238 59.816-66.4188Q59.816-72.5944 60.7648-78.0189Q61.7136-83.4433 63.4772-86.7004Q64.5069-88.6143 64.9473-90.1827Q65.3877-91.7511 65.3877-93.3074Q65.3877-96.3132 63.3879-98.4469Q61.388-100.581 57.9955-100.581Q56.9241-100.581 55.4791-100.289Q54.034-99.9973 52.2601-99.2861Q40.0437-94.3246 30.8186-84.9266Q21.5935-75.5286 16.4261-63.304Q11.2588-51.0794 11.2588-37.6055Q11.2588-23.1457 16.2311-10.9374Q21.2035 1.27092 30.1699 10.2745Q39.1362 19.2781 51.3415 24.2534Q63.5468 29.2288 78.0127 29.2288Q91.5727 29.2288 103.471 24.4471Q115.37 19.6654 124.534 10.8572Q133.698 2.04914 138.943-9.97073Q139.824-11.8813 140.172-13.5181Q140.52-15.1549 140.52-16.3691Q140.52-19.6338 138.562-21.5281Q136.604-23.4224 133.741-23.4224Q132.274-23.4224 130.647-23.0147Q129.021-22.6071 127.081-21.6578Q123.968-20.246 119.162-19.4358Q114.357-18.6255 109.346-18.6255ZM28.593-37.7901Q28.593-44.8127 30.603-51.6617Q32.613-58.5106 36.4208-64.5105Q40.2287-70.5105 45.5596-74.9369Q44.8167-72.3397 44.4451-69.5137Q44.0734-66.6876 44.0734-63.6817Q44.0734-44.9433 51.5527-31.3699Q59.032-17.7965 72.8945-10.4766Q86.7571-3.15679 105.874-3.15679Q108.183-3.15679 110.227-3.41944Q112.271-3.68209 114.216-4.29065Q110.059 0.81391 104.366 4.45023Q98.6726 8.08654 91.9758 9.98013Q85.279 11.8737 78.1913 11.8737Q67.4898 11.8737 58.43 8.17648Q49.3702 4.47925 42.6788-2.21212Q35.9874-8.90349 32.2902-17.9812Q28.593-27.0589 28.593-37.7901Z"/>
  </g>
  <g id="Bold-L" transform="matrix(1 0 0 1 2264.75 1556)">
   <path d="M109.475-16.6543Q93.4175-16.6543 81.7016-22.7497Q69.9857-28.8452 63.6529-40.1518Q57.3201-51.4585 57.3201-67.0403Q57.3201-73.5552 58.311-79.1601Q59.302-84.765 61.0911-88.1859Q61.971-89.8637 62.3184-91.1444Q62.6658-92.4252 62.6658-93.73Q62.6658-96.1677 60.9802-97.9935Q59.2945-99.8194 56.4811-99.8194Q55.6409-99.8194 54.4183-99.5781Q53.1957-99.3367 51.6197-98.7281Q39.6703-93.8857 30.5837-84.5835Q21.4971-75.2814 16.378-63.1532Q11.2588-51.025 11.2588-37.6865Q11.2588-23.324 16.1911-11.1961Q21.1235 0.931724 30.0299 9.87122Q38.9363 18.8107 51.057 23.7502Q63.1777 28.6896 77.5545 28.6896Q91.0586 28.6896 102.85 23.9814Q114.641 19.2732 123.689 10.6072Q132.737 1.94123 137.886-9.90133Q138.633-11.5286 138.915-12.8876Q139.197-14.2466 139.197-15.2049Q139.197-17.9449 137.507-19.5455Q135.817-21.1462 133.498-21.1462Q132.304-21.1462 131.027-20.8428Q129.75-20.5395 128.138-19.7926Q124.849-18.3437 119.779-17.499Q114.709-16.6543 109.475-16.6543ZM25.5174-37.9227Q25.5174-46.0371 28.0239-53.8059Q30.5305-61.5747 35.2092-68.1885Q39.888-74.8023 46.3498-79.4335Q45.3049-76.1757 44.7653-72.5228Q44.2257-68.8699 44.2257-65.0039Q44.2257-45.9691 51.7744-32.2552Q59.3231-18.5414 73.3579-11.1717Q87.3926-3.80195 106.807-3.80195Q110.022-3.80195 112.895-4.18892Q115.767-4.57589 118.422-5.44657Q114.001 0.766224 107.647 5.23757Q101.293 9.70893 93.6452 12.0668Q85.9975 14.4246 77.7764 14.4246Q66.4915 14.4246 56.9457 10.5327Q47.3999 6.64081 40.3506-0.40857Q33.3012-7.45795 29.4093-17.0293Q25.5174-26.6007 25.5174-37.9227Z"/>
  </g>
  <g id="Semibold-L" transform="matrix(1 0 0 1 1968.49 1556)">
   <path d="M109.563-15.2954Q92.9318-15.2954 80.8133-21.6135Q68.6948-27.9317 62.1471-39.6381Q55.5994-51.3446 55.5994-67.4689Q55.5994-74.2176 56.6194-79.9469Q57.6394-85.6762 59.4462-89.2101Q60.2227-90.725 60.506-91.8075Q60.7894-92.8899 60.7894-94.0214Q60.7894-96.0674 59.3203-97.681Q57.8512-99.2946 55.437-99.2946Q54.7563-99.2946 53.687-99.0879Q52.6177-98.8813 51.1783-98.3435Q39.4128-93.5831 30.4218-84.347Q21.4307-75.111 16.3447-63.0492Q11.2588-50.9874 11.2588-37.7423Q11.2588-23.4469 16.1636-11.3745Q21.0684 0.697885 29.9334 9.5932Q38.7984 18.4885 50.8609 23.4032Q62.9233 28.318 77.2386 28.318Q90.7042 28.318 102.422 23.6604Q114.139 19.0028 123.106 10.4348Q132.074 1.86684 137.157-9.85348Q137.812-11.2854 138.049-12.4529Q138.285-13.6204 138.285-14.4024Q138.285-16.7806 136.78-18.1788Q135.275-19.5769 133.33-19.5769Q132.325-19.5769 131.289-19.3455Q130.253-19.1141 128.868-18.5068Q125.456-17.0323 120.204-16.1638Q114.953-15.2954 109.563-15.2954ZM23.3971-38.014Q23.3971-46.8811 26.246-55.2841Q29.0948-63.687 34.374-70.724Q39.6532-77.761 46.8946-82.5334Q45.6414-78.8202 44.986-74.5973Q44.3307-70.3743 44.3307-65.9154Q44.3307-46.6763 51.9272-32.8656Q59.5237-19.0549 73.6773-11.6508Q87.8308-4.24672 107.45-4.24672Q111.29-4.24672 114.734-4.7194Q118.178-5.19207 121.322-6.24346Q116.718 0.733349 109.909 5.78037Q103.099 10.8274 94.7961 13.5053Q86.4928 16.1832 77.4905 16.1832Q65.8032 16.1832 55.9224 12.1571Q46.0417 8.13098 38.7455 0.834787Q31.4493-6.4614 27.4232-16.3731Q23.3971-26.2848 23.3971-38.014Z"/>
  </g>
  <g id="Medium-L" transform="matrix(1 0 0 1 1672.13 1556)">
   <path d="M109.631-14.2649Q92.5636-14.2649 80.1398-20.752Q67.7161-27.239 61.0054-39.2486Q54.2947-51.2582 54.2947-67.7938Q54.2947-74.7199 55.3368-80.5435Q56.3788-86.3671 58.1989-89.9866Q58.8971-91.3782 59.1318-92.3102Q59.3666-93.2423 59.3666-94.2423Q59.3666-95.9913 58.0617-97.444Q56.7568-98.8966 54.6454-98.8966Q54.0856-98.8966 53.1325-98.7163Q52.1794-98.536 50.8436-98.0518Q39.2176-93.3536 30.299-84.1677Q21.3803-74.9818 16.3196-62.9704Q11.2588-50.959 11.2588-37.7846Q11.2588-23.54 16.1427-11.5097Q21.0265 0.520578 29.8602 9.3824Q38.6939 18.2442 50.7121 23.1402Q62.7304 28.0361 76.9991 28.0361Q90.4355 28.0361 102.097 23.417Q113.758 18.7978 122.665 10.3041Q131.571 1.81044 136.604-9.8172Q137.19-11.1011 137.392-12.1234Q137.593-13.1456 137.593-13.7938Q137.593-15.8978 136.229-17.1424Q134.864-18.3871 133.204-18.3871Q132.341-18.3871 131.487-18.2102Q130.634-18.0333 129.42-17.5318Q125.916-16.0379 120.526-15.1514Q115.137-14.2649 109.631-14.2649ZM21.7894-38.0833Q21.7894-47.5212 24.8978-56.4049Q28.0062-65.2887 33.7407-72.6465Q39.4751-80.0044 47.3077-84.8839Q45.8965-80.8254 45.1534-76.1702Q44.4103-71.5151 44.4103-66.6065Q44.4103-47.2125 52.0431-33.3284Q59.6759-19.4443 73.9194-12.0141Q88.163-4.58397 107.938-4.58397Q112.252-4.58397 116.128-5.12162Q120.005-5.65928 123.521-6.84769Q118.778 0.708422 111.624 6.19194Q104.469 11.6754 95.6687 14.596Q86.8684 17.5166 77.2736 17.5166Q65.2813 17.5166 55.1466 13.3887Q45.0118 9.26089 37.5284 1.77755Q30.0451-5.70578 25.9173-15.8755Q21.7894-26.0453 21.7894-38.0833Z"/>
  </g>
  <g id="Regular-L" transform="matrix(1 0 0 1 1375.87 1556)">
   <path d="M109.718-12.9209Q92.0833-12.9209 79.2614-19.6282Q66.4394-26.3356 59.5162-38.7405Q52.593-51.1455 52.593-68.2176Q52.593-75.3749 53.6638-81.3216Q54.7346-87.2683 56.5721-90.9995Q57.1681-92.23 57.3394-92.966Q57.5107-93.7019 57.5107-94.5304Q57.5107-95.8921 56.42-97.1348Q55.3293-98.3776 53.6129-98.3776Q53.2108-98.3776 52.4093-98.2316Q51.6078-98.0856 50.407-97.6714Q38.963-93.0543 30.1388-83.9338Q21.3146-74.8133 16.2867-62.8676Q11.2588-50.9218 11.2588-37.8398Q11.2588-23.6616 16.1154-11.6861Q20.972 0.289308 29.7648 9.10744Q38.5576 17.9256 50.5182 22.797Q62.4787 27.6685 76.6867 27.6685Q90.085 27.6685 101.673 23.0995Q113.261 18.5304 122.088 10.1336Q130.915 1.73687 135.884-9.76988Q136.378-10.8606 136.535-11.6935Q136.691-12.5264 136.691-13.0001Q136.691-14.7463 135.51-15.7907Q134.328-16.8351 133.038-16.8351Q132.362-16.8351 131.746-16.7294Q131.131-16.6236 130.142-16.26Q126.516-14.7408 120.947-13.8309Q115.377-12.9209 109.718-12.9209ZM19.6924-38.1736Q19.6924-48.3559 23.1394-57.8669Q26.5863-67.3778 32.9146-75.1542Q39.2428-82.9306 47.8465-87.9498Q46.2293-83.4408 45.3717-78.2219Q44.5141-73.003 44.5141-67.508Q44.5141-47.912 52.1942-33.9321Q59.8743-19.9522 74.2353-12.488Q88.5964-5.02385 108.574-5.02385Q113.506-5.02385 117.947-5.64627Q122.389-6.26869 126.389-7.63582Q121.466 0.675909 113.861 6.72876Q106.256 12.7816 96.8069 16.0187Q87.3582 19.2558 76.9908 19.2558Q64.6007 19.2558 54.1345 14.9953Q43.6684 10.7347 35.941 3.00725Q28.2136-4.72019 23.953-15.2265Q19.6924-25.7328 19.6924-38.1736Z"/>
  </g>
  <g id="Light-L" transform="matrix(1 0 0 1 1080.08 1556)">
   <path d="M108.959-12.0385Q90.9751-12.0385 77.9069-18.8792Q64.8387-25.7199 57.7718-38.3609Q50.7049-51.0019 50.7049-68.4228Q50.7049-75.5802 51.7655-81.4961Q52.826-87.412 54.7661-91.5535Q55.2185-92.5789 55.3693-93.2122Q55.5201-93.8455 55.5201-94.4688Q55.5201-95.6048 54.6757-96.5397Q53.8312-97.4746 52.4842-97.4746Q52.0821-97.4746 51.3935-97.3389Q50.7048-97.2032 49.7297-96.8915Q38.491-92.4182 29.8207-83.4413Q21.1505-74.4644 16.2046-62.6829Q11.2588-50.9013 11.2588-38.004Q11.2588-24.031 16.0538-12.1992Q20.8489-0.367395 29.5493 8.34812Q38.2498 17.0636 50.0564 21.8838Q61.8631 26.704 75.8863 26.704Q88.8742 26.704 100.329 22.1452Q111.784 17.5864 120.57 9.33327Q129.356 1.08016 134.201-10.0982Q134.593-10.9427 134.719-11.6011Q134.844-12.2596 134.844-12.6717Q134.844-14.0691 133.929-14.9185Q133.015-15.768 131.889-15.768Q131.356-15.768 130.843-15.6725Q130.331-15.577 129.546-15.2955Q126.249-13.8379 120.444-12.9382Q114.639-12.0385 108.959-12.0385ZM17.7428-38.2352Q17.7428-48.9511 21.4874-58.893Q25.2319-68.8348 32.0424-76.8165Q38.8529-84.7981 48.0107-89.6736Q46.3319-84.9389 45.382-79.3096Q44.432-73.6802 44.432-68.0006Q44.432-48.5892 52.1121-34.7017Q59.7922-20.8141 74.1019-13.3602Q88.4117-5.9063 108.245-5.9063Q113.362-5.9063 118.122-6.56976Q122.882-7.23322 126.923-8.60036Q121.876 0.285992 114.045 6.76981Q106.215 13.2536 96.4889 16.7267Q86.7631 20.1999 76.0673 20.1999Q63.4514 20.1999 52.8109 15.8572Q42.1703 11.5145 34.2992 3.64343Q26.4282-4.22766 22.0855-14.9084Q17.7428-25.5892 17.7428-38.2352Z"/>
  </g>
  <g id="Thin-L" transform="matrix(1 0 0 1 784.592 1556)">
   <path d="M107.955-10.8714Q89.5095-10.8714 76.1156-17.8885Q62.7216-24.9056 55.4648-37.8588Q48.2079-50.8119 48.2079-68.6942Q48.2079-75.8516 49.2548-81.7268Q50.3018-87.6019 52.3776-92.2864Q52.64-93.0403 52.7637-93.5379Q52.8873-94.0355 52.8873-94.3874Q52.8873-95.2248 52.3686-95.7526Q51.8499-96.2803 50.9913-96.2803Q50.5892-96.2803 50.0499-96.1582Q49.5106-96.0361 48.834-95.8601Q37.8668-91.5768 29.4-82.7899Q20.9333-74.003 16.0961-62.4386Q11.2588-50.8742 11.2588-38.2211Q11.2588-24.5195 15.9724-12.8777Q20.686-1.23594 29.2643 7.34387Q37.8426 15.9237 49.4457 20.676Q61.0488 25.4283 74.8278 25.4283Q87.2728 25.4283 98.5512 20.8831Q109.83 16.3378 118.561 8.27473Q127.293 0.211621 131.975-10.5325Q132.232-11.0512 132.317-11.479Q132.401-11.9067 132.401-12.2375Q132.401-13.1734 131.84-13.765Q131.278-14.3566 130.369-14.3566Q130.026-14.3566 129.649-14.2747Q129.272-14.1927 128.759-14.0198Q125.896-12.6436 119.779-11.7575Q113.662-10.8714 107.955-10.8714ZM15.1643-38.3166Q15.1643-49.7382 19.3024-60.2501Q23.4405-70.7619 30.8889-79.015Q38.3372-87.2681 48.2278-91.9535Q46.4676-86.9203 45.3955-80.7481Q44.3234-74.5759 44.3234-68.652Q44.3234-49.4849 52.0035-35.7195Q59.6837-21.9541 73.9255-14.5138Q88.1674-7.0734 107.811-7.0734Q113.172-7.0734 118.352-7.79115Q123.533-8.50889 127.628-9.87603Q122.419-0.229705 114.29 6.82409Q106.16 13.8779 96.0682 17.6631Q85.976 21.4484 74.8459 21.4484Q61.9315 21.4484 51.0602 16.9971Q40.189 12.5459 32.1279 4.48483Q24.0668-3.57625 19.6156-14.4877Q15.1643-25.3992 15.1643-38.3166Z"/>
  </g>
  <g id="Ultralight-L" transform="matrix(1 0 0 1 488.507 1556)">
   <path d="M107.44-10.2736Q88.7588-10.2736 75.198-17.3811Q61.6373-24.4886 54.2831-37.6016Q46.9289-50.7146 46.9289-68.8332Q46.9289-75.9906 47.9689-81.8449Q49.0089-87.6993 51.1543-92.6617Q51.3193-93.2767 51.4291-93.7048Q51.5388-94.1329 51.5388-94.3457Q51.5388-95.0302 51.1869-95.3494Q50.835-95.6687 50.2267-95.6687Q49.8246-95.6687 49.3618-95.5535Q48.8989-95.4383 48.3753-95.3319Q37.547-91.1458 29.1846-82.4562Q20.8221-73.7666 16.0404-62.3135Q11.2588-50.8603 11.2588-38.3323Q11.2588-24.7698 15.9307-13.2253Q20.6026-1.6808 29.1184 6.8295Q37.6341 15.3398 49.1329 20.0574Q60.6318 24.7749 74.2856 24.7749Q86.4526 24.7749 97.6406 20.2366Q108.829 15.6984 117.532 7.73256Q126.236-0.233243 130.835-10.7549Q131.022-11.1068 131.086-11.4164Q131.15-11.726 131.15-12.015Q131.15-12.7146 130.769-13.1741Q130.388-13.6337 129.59-13.6337Q129.345-13.6337 129.037-13.5587Q128.73-13.4837 128.356-13.3664Q125.716-12.0319 119.438-11.1528Q113.161-10.2736 107.44-10.2736ZM13.8437-38.3583Q13.8437-50.1414 18.1833-60.9452Q22.523-71.749 30.298-80.141Q38.0731-88.5331 48.339-93.1213Q46.5371-87.9351 45.4025-81.4849Q44.2678-75.0347 44.2678-68.9856Q44.2678-49.9436 51.9479-36.2408Q59.628-22.538 73.8352-15.1046Q88.0423-7.67119 107.589-7.67119Q113.075-7.67119 118.471-8.41673Q123.867-9.16228 127.99-10.5294Q122.697-0.493843 114.415 6.8519Q106.133 14.1976 95.8527 18.1428Q85.5728 22.0879 74.2203 22.0879Q61.153 22.0879 50.1635 17.581Q39.1741 13.0742 31.0157 4.91579Q22.8573-3.2426 18.3505-14.2722Q13.8437-25.3019 13.8437-38.3583Z"/>
  </g>
  <g id="Black-M" transform="matrix(1 0 0 1 2873.95 1126)">
   <path d="M84.2684-24.945Q73.572-24.945 65.717-28.9905Q57.862-33.0361 53.6037-40.5797Q49.3455-48.1234 49.3455-58.5549Q49.3455-62.8439 50.0155-66.7724Q50.6855-70.7008 52.0494-73.1246Q53.0172-74.8824 53.4873-76.4828Q53.9574-78.0833 53.9574-79.5866Q53.9574-82.6684 52.0329-84.6665Q50.1084-86.6646 46.7597-86.6646Q45.5917-86.6646 44.1858-86.3685Q42.7799-86.0725 41.1931-85.4065Q31.4084-81.4377 24.1113-74.0654Q16.8143-66.6932 12.7685-57.1374Q8.72266-47.5817 8.72266-37.0079Q8.72266-25.733 12.6124-16.206Q16.5022-6.67909 23.505 0.355044Q30.5078 7.38918 40.0349 11.2788Q49.562 15.1684 60.8367 15.1684Q71.2841 15.1684 80.6136 11.3599Q89.943 7.55147 97.1994 0.568706Q104.456-6.41406 108.616-15.8736Q109.459-17.6839 109.815-19.2984Q110.171-20.9129 110.171-22.2064Q110.171-25.3835 108.353-27.2138Q106.534-29.044 103.578-29.044Q102.091-29.044 100.356-28.5793Q98.6205-28.1146 96.7071-27.1115Q94.6666-26.0929 91.2483-25.5189Q87.8301-24.945 84.2684-24.945ZM25.9816-37.0407Q25.9816-41.068 26.9147-45.1771Q27.8479-49.2862 29.6898-53.1076Q31.5318-56.9291 34.1984-60.0104Q34.0433-58.8865 33.9692-57.7652Q33.8952-56.6439 33.8952-55.5087Q33.8952-41.4871 39.5883-31.2078Q45.2815-20.9286 55.7522-15.3339Q66.223-9.73929 80.5504-9.73929Q81.0781-9.73929 81.5596-9.77514Q82.0411-9.81099 82.5241-9.89953Q79.6493-7.36821 76.1266-5.62418Q72.6039-3.88014 68.7105-3.01099Q64.8171-2.14183 60.8698-2.14183Q53.3545-2.14183 46.986-4.7498Q40.6175-7.35776 35.9075-12.0677Q31.1975-16.7777 28.5895-23.1488Q25.9816-29.5199 25.9816-37.0407Z"/>
  </g>
  <g id="Heavy-M" transform="matrix(1 0 0 1 2577.62 1126)">
   <path d="M84.544-23.412Q73.1945-23.412 64.882-27.7111Q56.5695-32.0103 52.0697-40.0101Q47.5699-48.0098 47.5699-59.054Q47.5699-63.6395 48.279-67.7322Q48.988-71.825 50.3522-74.3038Q51.2199-75.8993 51.6131-77.2704Q52.0064-78.6415 52.0064-79.9691Q52.0064-82.6029 50.3035-84.3981Q48.6007-86.1933 45.6787-86.1933Q44.7129-86.1933 43.477-85.939Q42.2412-85.6848 40.7789-85.0864Q31.1834-81.1907 23.9744-73.8714Q16.7653-66.5522 12.744-57.0453Q8.72266-47.5385 8.72266-37.0434Q8.72266-25.8094 12.5907-16.3219Q16.4587-6.83445 23.429 0.165734Q30.3992 7.16591 39.8855 11.0352Q49.3717 14.9044 60.6082 14.9044Q71.0949 14.9044 80.3594 11.158Q89.6238 7.41152 96.7871 0.522119Q103.95-6.36729 108.054-15.7424Q108.802-17.358 109.107-18.7673Q109.412-20.1765 109.412-21.2596Q109.412-24.0531 107.77-25.6686Q106.129-27.2841 103.613-27.2841Q102.334-27.2841 100.882-26.9083Q99.4296-26.5326 97.7592-25.6887Q95.4932-24.6244 91.8951-24.0182Q88.2971-23.412 84.544-23.412ZM23.7127-37.1433Q23.7127-42.0101 25.0158-46.8304Q26.319-51.6508 28.8184-55.9646Q31.3178-60.2785 34.8537-63.5696Q34.4478-61.9169 34.2468-60.1612Q34.0459-58.4055 34.0459-56.5584Q34.0459-42.238 39.7997-31.8162Q45.5535-21.3944 56.1858-15.754Q66.8181-10.1135 81.4361-10.1135Q82.7163-10.1135 83.8535-10.2492Q84.9906-10.3849 86.0855-10.7025Q83.0055-7.32612 78.9541-4.94494Q74.9026-2.56376 70.2377-1.33959Q65.5728-0.115426 60.7056-0.115426Q52.7289-0.115426 45.9732-2.87587Q39.2175-5.63631 34.2255-10.6283Q29.2336-15.6203 26.4731-22.3853Q23.7127-29.1503 23.7127-37.1433Z"/>
  </g>
  <g id="Bold-M" transform="matrix(1 0 0 1 2281.34 1126)">
   <path d="M84.8523-21.697Q72.7722-21.697 63.948-26.28Q55.1238-30.8629 50.3537-39.3729Q45.5837-47.8828 45.5837-59.6124Q45.5837-64.5294 46.3364-68.806Q47.0891-73.0826 48.4537-75.6228Q49.2093-77.0369 49.5166-78.1514Q49.8239-79.266 49.8239-80.397Q49.8239-82.5297 48.3689-84.0979Q46.914-85.6661 44.4695-85.6661Q43.7298-85.6661 42.6842-85.4586Q41.6386-85.2511 40.3157-84.7283Q30.9318-80.9145 23.8212-73.6544Q16.7106-66.3944 12.7166-56.9423Q8.72266-47.4902 8.72266-37.0831Q8.72266-25.8949 12.5664-16.4516Q16.4101-7.00823 23.3439-0.0460377Q30.2777 6.91615 39.7183 10.7626Q49.1589 14.6091 60.3526 14.6091Q70.8833 14.6091 80.075 10.9321Q89.2667 7.25498 96.3259 0.470005Q103.385-6.31497 107.425-15.5957Q108.067-16.9935 108.315-18.1731Q108.562-19.3527 108.562-20.2005Q108.562-22.5649 107.119-23.9401Q105.676-25.3154 103.652-25.3154Q102.605-25.3154 101.47-25.0391Q100.335-24.7629 98.9362-24.0971Q96.4179-22.9817 92.6187-22.3394Q88.8194-21.697 84.8523-21.697ZM21.1745-37.258Q21.1745-43.064 22.8916-48.68Q24.6086-54.296 27.8436-59.1606Q31.0785-64.0252 35.5868-67.5511Q34.9003-65.3068 34.5574-62.8414Q34.2144-60.3761 34.2144-57.7326Q34.2144-43.0781 40.0361-32.4968Q45.8577-21.9155 56.6707-16.2238Q67.4838-10.5322 82.427-10.5322Q84.5488-10.5322 86.4195-10.7795Q88.2902-11.0268 90.0695-11.6007Q86.7601-7.27904 82.117-4.18512Q77.474-1.09119 71.9461 0.530104Q66.4182 2.1514 60.522 2.1514Q52.0291 2.1514 44.8403-0.779615Q37.6515-3.71063 32.344-9.01807Q27.0366-14.3255 24.1056-21.5312Q21.1745-28.7369 21.1745-37.258Z"/>
  </g>
  <g id="Semibold-M" transform="matrix(1 0 0 1 1984.92 1126)">
   <path d="M85.0648-20.5147Q72.481-20.5147 63.304-25.2933Q54.1271-30.0719 49.1707-38.9336Q44.2144-47.7952 44.2144-59.9973Q44.2144-65.1429 44.9972-69.5462Q45.78-73.9495 47.1448-76.5322Q47.8233-77.8211 48.0713-78.7588Q48.3193-79.6965 48.3193-80.692Q48.3193-82.4792 47.0353-83.8909Q45.7513-85.3026 43.6359-85.3026Q43.052-85.3026 42.1376-85.1273Q41.2231-84.9521 39.9963-84.4815Q30.7584-80.7241 23.7156-73.5048Q16.6728-66.2856 12.6978-56.8712Q8.72266-47.4569 8.72266-37.1104Q8.72266-25.9539 12.5496-16.5409Q16.3766-7.12804 23.2853-0.192031Q30.1939 6.74397 39.603 10.5748Q49.0121 14.4056 60.1764 14.4056Q70.7375 14.4056 79.879 10.7763Q89.0205 7.14706 96.0079 0.434077Q102.995-6.2789 106.991-15.4945Q107.561-16.7422 107.768-17.7635Q107.976-18.7848 107.976-19.4703Q107.976-21.5389 106.67-22.7485Q105.364-23.9581 103.678-23.9581Q102.792-23.9581 101.875-23.7505Q100.959-23.5428 99.7476-22.9998Q97.0554-21.8493 93.1175-21.182Q89.1795-20.5147 85.0648-20.5147ZM19.4248-37.3371Q19.4248-43.7905 21.4272-49.955Q23.4295-56.1196 27.1715-61.3639Q30.9135-66.6082 36.0921-70.2959Q35.2122-67.6438 34.7715-64.6892Q34.3307-61.7346 34.3307-58.542Q34.3307-43.6573 40.1991-32.966Q46.0674-22.2747 57.0051-16.5477Q67.9427-10.8208 83.1101-10.8208Q85.8121-10.8208 88.1885-11.1451Q90.5648-11.4694 92.816-12.2199Q89.3484-7.24659 84.2976-3.6613Q79.2467-0.0760151 73.1238 1.81906Q67.001 3.71414 60.3954 3.71414Q51.5467 3.71414 44.0593 0.66553Q36.5718-2.38308 31.0469-7.908Q25.522-13.4329 22.4734-20.9424Q19.4248-28.4519 19.4248-37.3371Z"/>
  </g>
  <g id="Medium-M" transform="matrix(1 0 0 1 1688.43 1126)">
   <path d="M85.2259-19.6183Q72.2603-19.6183 62.8158-24.5452Q53.3713-29.4721 48.2737-38.6005Q43.1761-47.7288 43.1761-60.2891Q43.1761-65.6081 43.9818-70.1075Q44.7874-74.6069 46.1523-77.2217Q46.7723-78.4158 46.9754-79.2193Q47.1784-80.0229 47.1784-80.9157Q47.1784-82.441 46.024-83.734Q44.8696-85.027 43.0038-85.027Q42.5381-85.027 41.7231-84.8762Q40.9082-84.7253 39.7542-84.2943Q30.6268-80.5797 23.6355-73.3914Q16.6442-66.2031 12.6834-56.8174Q8.72266-47.4316 8.72266-37.1312Q8.72266-25.9986 12.5369-16.6087Q16.3512-7.21888 23.2408-0.30273Q30.1304 6.61342 39.5156 10.4323Q48.9009 14.2512 60.0427 14.2512Q70.6269 14.2512 79.7303 10.6582Q88.8338 7.06522 95.7668 0.406836Q102.7-6.25155 106.663-15.4178Q107.176-16.5516 107.354-17.4529Q107.532-18.3541 107.532-18.9167Q107.532-20.7609 106.33-21.845Q105.127-22.929 103.699-22.929Q102.934-22.929 102.183-22.7734Q101.432-22.6178 100.363-22.1679Q97.5388-20.9906 93.4957-20.3044Q89.4526-19.6183 85.2259-19.6183ZM18.098-37.3971Q18.098-44.3414 20.3168-50.9218Q22.5355-57.5023 26.662-63.0345Q30.7884-68.5668 36.4753-72.3771Q35.4488-69.4158 34.9338-66.0903Q34.4188-62.7647 34.4188-59.1558Q34.4188-44.0964 40.3226-33.3218Q46.2265-22.5471 57.2586-16.7934Q68.2907-11.0396 83.628-11.0396Q86.77-11.0396 89.5298-11.4223Q92.2896-11.805 94.8985-12.6895Q91.311-7.22198 85.9509-3.26412Q80.5909 0.693736 74.0169 2.7964Q67.4428 4.89907 60.2994 4.89907Q51.1809 4.89907 43.467 1.7613Q35.7532-1.37647 30.0634-7.06629Q24.3736-12.7561 21.2358-20.4959Q18.098-28.2358 18.098-37.3971Z"/>
  </g>
  <g id="Regular-M" transform="matrix(1 0 0 1 1392.01 1126)">
   <path d="M85.4361-18.449Q71.9723-18.449 62.1789-23.5694Q52.3856-28.6898 47.1037-38.166Q41.8219-47.6422 41.8219-60.6698Q41.8219-66.2149 42.6573-70.8396Q43.4927-75.4643 44.8579-78.1211Q45.4015-79.1914 45.5459-79.82Q45.6903-80.4487 45.6903-81.2075Q45.6903-82.3911 44.705-83.5293Q43.7196-84.6675 42.1793-84.6675Q41.8678-84.6675 41.1825-84.5486Q40.4973-84.4296 39.4383-84.0502Q30.4553-80.3914 23.5311-73.2434Q16.6069-66.0955 12.6648-56.7471Q8.72266-47.3987 8.72266-37.1582Q8.72266-26.0569 12.5204-16.6971Q16.3181-7.33737 23.1828-0.44712Q30.0476 6.44313 39.4017 10.2465Q48.7557 14.0499 59.8685 14.0499Q70.4826 14.0499 79.5365 10.5042Q88.5904 6.95849 95.4523 0.371303Q102.314-6.21588 106.234-15.3178Q106.675-16.3031 106.814-17.0478Q106.953-17.7925 106.953-18.1945Q106.953-19.7462 105.885-20.6665Q104.818-21.5867 103.725-21.5867Q103.119-21.5867 102.584-21.4989Q102.049-21.4111 101.165-21.0827Q98.1693-19.8706 93.989-19.1598Q89.8088-18.449 85.4361-18.449ZM16.3675-37.4753Q16.3675-45.06 18.8684-52.1829Q21.3694-59.3058 25.9973-65.2136Q30.6253-71.1214 36.9751-75.0918Q35.7573-71.7271 35.1455-67.9177Q34.5337-64.1083 34.5337-59.9564Q34.5337-44.6692 40.4838-33.7858Q46.4339-22.9024 57.5892-17.1137Q68.7446-11.3251 84.3036-11.3251Q88.0194-11.3251 91.2793-11.7839Q94.5393-12.2427 97.6149-13.3019Q93.8709-7.18988 88.1075-2.74606Q82.3441 1.69776 75.1817 4.0712Q68.0192 6.44464 60.1742 6.44464Q50.7037 6.44464 42.6946 3.19056Q34.6855-0.0635078 28.7806-5.96841Q22.8757-11.8733 19.6216-19.9136Q16.3675-27.9539 16.3675-37.4753Z"/>
  </g>
  <g id="Light-M" transform="matrix(1 0 0 1 1096.12 1126)">
   <path d="M84.7553-17.6578Q70.9788-17.6578 60.9646-22.8978Q50.9505-28.1378 45.5398-37.8256Q40.1291-47.5134 40.1291-60.8538Q40.1291-66.3989 40.9554-70.996Q41.7816-75.5931 43.2388-78.6178Q43.6536-79.5042 43.7796-80.0408Q43.9056-80.5774 43.9056-81.1523Q43.9056-82.1335 43.1411-82.9957Q42.3765-83.858 41.1674-83.858Q40.8559-83.858 40.2718-83.7482Q39.6877-83.6385 38.8311-83.3511Q30.0321-79.821 23.2459-72.8019Q16.4597-65.7827 12.5912-56.5815Q8.72266-47.3803 8.72266-37.3054Q8.72266-26.388 12.4652-17.1571Q16.2077-7.92613 22.9896-1.12788Q29.7716 5.67037 38.9877 9.42775Q48.2038 13.1851 59.1509 13.1851Q69.397 13.1851 78.3313 9.64863Q87.2656 6.11213 94.0908-0.346258Q100.916-6.80465 104.725-15.6121Q105.075-16.3767 105.186-16.965Q105.297-17.5533 105.297-17.9002Q105.297-19.139 104.469-19.8845Q103.641-20.63 102.695-20.63Q102.218-20.63 101.774-20.5514Q101.331-20.4728 100.632-20.2179Q97.9301-19.0611 93.5383-18.3594Q89.1464-17.6578 84.7553-17.6578ZM14.6196-37.5305Q14.6196-45.5935 17.3873-53.1028Q20.155-60.6121 25.2154-66.7039Q30.2757-72.7957 37.1223-76.6373Q35.8493-73.0703 35.1547-68.8929Q34.4601-64.7154 34.4601-60.3979Q34.4601-45.2764 40.4102-34.4758Q46.3603-23.6751 57.4697-17.8957Q68.579-12.1162 84.0092-12.1162Q87.8906-12.1162 91.4357-12.6118Q94.9809-13.1075 98.0933-14.1666Q94.2388-7.53946 88.2731-2.70926Q82.3073 2.12094 74.8965 4.70596Q67.4857 7.29099 59.3463 7.29099Q49.6734 7.29099 41.5079 3.96332Q33.3423 0.635654 27.3086-5.39804Q21.2749-11.4317 17.9473-19.6284Q14.6196-27.8251 14.6196-37.5305Z"/>
  </g>
  <g id="Thin-M" transform="matrix(1 0 0 1 800.507 1126)">
   <path d="M83.855-16.6114Q69.6647-16.6114 59.3586-22.0096Q49.0524-27.4078 43.4714-37.3754Q37.8904-47.343 37.8904-61.0971Q37.8904-66.6422 38.7045-71.2028Q39.5186-75.7634 41.0973-79.2749Q41.3418-79.9179 41.4435-80.3328Q41.5452-80.7478 41.5452-81.0793Q41.5452-81.7928 41.0727-82.29Q40.6001-82.7872 39.829-82.7872Q39.5175-82.7872 39.0673-82.6897Q38.617-82.5921 38.0281-82.4264Q29.4724-79.0666 22.8687-72.2178Q16.265-65.369 12.4938-56.3625Q8.72266-47.356 8.72266-37.5001Q8.72266-26.826 12.3922-17.7654Q16.0617-8.70483 22.7341-2.02825Q29.4066 4.64833 38.4402 8.34488Q47.4737 12.0414 58.2019 12.0414Q67.9613 12.0414 76.7375 8.51709Q85.5136 4.99276 92.2901-1.29529Q99.0666-7.58334 102.73-16.0015Q102.958-16.474 103.032-16.8555Q103.107-17.2369 103.107-17.5108Q103.107-18.336 102.595-18.8503Q102.083-19.3646 101.332-19.3646Q101.025-19.3646 100.704-19.2982Q100.382-19.2317 99.9261-19.0742Q97.6138-17.9904 92.9421-17.3009Q88.2704-16.6114 83.855-16.6114ZM12.3079-37.6035Q12.3079-46.2992 15.4284-54.3195Q18.549-62.3399 24.1812-68.675Q29.8133-75.0101 37.317-78.6814Q35.971-74.8467 35.1669-70.1826Q34.3628-65.5185 34.3628-60.982Q34.3628-46.0794 40.3129-35.3883Q46.263-24.6972 57.3115-18.9299Q68.36-13.1626 83.6199-13.1626Q87.7203-13.1626 91.6426-13.7069Q95.5649-14.2512 98.726-15.3103Q94.7255-8.00181 88.4921-2.66059Q82.2586 2.68062 74.5193 5.54549Q66.78 8.41036 58.2512 8.41036Q48.3107 8.41036 39.9383 4.98536Q31.5659 1.56035 25.3619-4.64368Q19.1579-10.8477 15.7329-19.2512Q12.3079-27.6548 12.3079-37.6035Z"/>
  </g>
  <g id="Ultralight-M" transform="matrix(1 0 0 1 504.357 1126)">
   <path d="M83.3938-16.0755Q68.9917-16.0755 58.5359-21.5547Q48.0802-27.0339 42.412-37.1448Q36.7437-47.2558 36.7437-61.2218Q36.7437-66.7669 37.5516-71.3088Q38.3594-75.8507 40.0005-79.6114Q40.1578-80.1298 40.247-80.4824Q40.3362-80.835 40.3362-81.0419Q40.3362-81.6183 40.0132-81.9286Q39.6903-82.2388 39.1435-82.2388Q38.832-82.2388 38.4503-82.1475Q38.0686-82.0562 37.6168-81.9527Q29.1857-78.6803 22.6755-71.9187Q16.1653-65.1572 12.444-56.2503Q8.72266-47.3435 8.72266-37.5998Q8.72266-27.0504 12.3548-18.077Q15.9869-9.10367 22.6033-2.48941Q29.2196 4.12485 38.1597 7.79023Q47.0998 11.4556 57.7158 11.4556Q67.226 11.4556 75.9211 7.93752Q84.6162 4.41943 91.3678-1.78138Q98.1193-7.98219 101.708-16.2009Q101.873-16.5239 101.929-16.7994Q101.985-17.0749 101.985-17.3114Q101.985-17.9247 101.635-18.3206Q101.285-18.7165 100.634-18.7165Q100.414-18.7165 100.155-18.6563Q99.8961-18.5961 99.5646-18.4884Q97.4517-17.442 92.6367-16.7587Q87.8217-16.0755 83.3938-16.0755ZM11.1238-37.6409Q11.1238-46.6607 14.4251-54.9427Q17.7264-63.2248 23.6514-69.6846Q29.5765-76.1443 37.4167-79.7283Q36.0333-75.7565 35.1731-70.8431Q34.3129-65.9298 34.3129-61.2811Q34.3129-46.4907 40.263-35.8557Q46.2131-25.2207 57.2305-19.4596Q68.2478-13.6985 83.4205-13.6985Q87.633-13.6985 91.7485-14.2677Q95.864-14.837 99.05-15.8961Q94.9748-8.23862 88.6043-2.63567Q82.2337 2.96729 74.3261 5.97549Q66.4185 8.9837 57.6904 8.9837Q47.6127 8.9837 39.1344 5.50884Q30.6561 2.03398 24.3648-4.25731Q18.0735-10.5486 14.5987-19.058Q11.1238-27.5675 11.1238-37.6409Z"/>
  </g>
  <g id="Black-S" transform="matrix(1 0 0 1 2886.74 696)">
   <path d="M65.918-27.5879Q57.7148-27.5879 51.6846-30.6885Q45.6543-33.7891 42.3828-39.5752Q39.1113-45.3613 39.1113-53.3691Q39.1113-56.6406 39.624-59.668Q40.1367-62.6953 41.2109-64.5996Q41.9922-66.0156 42.3828-67.334Q42.7734-68.6523 42.7734-69.873Q42.7734-72.4121 41.2109-74.0234Q39.6484-75.6348 36.9141-75.6348Q35.9375-75.6348 34.79-75.3906Q33.6426-75.1465 32.373-74.6094Q24.6582-71.4844 18.9209-65.6982Q13.1836-59.9121 10.0098-52.417Q6.83594-44.9219 6.83594-36.6211Q6.83594-27.7832 9.8877-20.3125Q12.9395-12.8418 18.4326-7.32422Q23.9258-1.80664 31.3965 1.24512Q38.8672 4.29688 47.7051 4.29688Q55.8594 4.29688 63.1836 1.29395Q70.5078-1.70898 76.2207-7.20215Q81.9336-12.6953 85.2051-20.1172Q85.8887-21.582 86.1816-22.9004Q86.4746-24.2188 86.4746-25.293Q86.4746-27.8809 85.0098-29.3701Q83.5449-30.8594 81.1035-30.8594Q79.8828-30.8594 78.4424-30.4688Q77.002-30.0781 75.4395-29.248Q73.9258-28.4668 71.2891-28.0273Q68.6523-27.5879 65.918-27.5879ZM20.9473-36.6211Q20.9473-39.5508 21.582-42.5781Q22.2168-45.6055 23.4863-48.4619Q24.7559-51.3184 26.6113-53.6621Q26.5625-52.9297 26.5381-52.2217Q26.5137-51.5137 26.5137-50.8301Q26.5137-39.9414 30.957-31.9336Q35.4004-23.9258 43.5547-19.5557Q51.709-15.1855 62.8418-15.1855Q63.0371-15.1855 63.2324-15.1855Q63.4277-15.1855 63.623-15.1855Q61.4258-13.4277 58.8135-12.2314Q56.2012-11.0352 53.3691-10.4492Q50.5371-9.86328 47.7051-9.86328Q41.9434-9.86328 37.0605-11.8652Q32.1777-13.8672 28.5645-17.4805Q24.9512-21.0938 22.9492-25.9766Q20.9473-30.8594 20.9473-36.6211Z"/>
  </g>
  <g id="Heavy-S" transform="matrix(1 0 0 1 2590.25 696)">
   <path d="M66.2407-26.3778Q57.5189-26.3778 51.1256-29.6801Q44.7323-32.9823 41.2707-39.1315Q37.8091-45.2807 37.8091-53.7725Q37.8091-57.2975 38.3563-60.4689Q38.9036-63.6403 39.9663-65.5446Q40.6784-66.8454 41.0056-67.9794Q41.3329-69.1133 41.3329-70.2073Q41.3329-72.3891 39.9317-73.8621Q38.5306-75.3351 36.1189-75.3351Q35.3152-75.3351 34.3002-75.1256Q33.2853-74.916 32.0965-74.425Q24.5199-71.3461 18.8402-65.5888Q13.1605-59.8314 9.99824-52.3594Q6.83594-44.8873 6.83594-36.6326Q6.83594-27.8063 9.87617-20.3528Q12.9164-12.8994 18.3923-7.39913Q23.8682-1.89884 31.3216 1.1414Q38.775 4.18163 47.6014 4.18163Q55.8363 4.18163 63.1202 1.23056Q70.4041-1.72051 76.0421-7.15029Q81.6801-12.5801 84.917-19.9674Q85.5314-21.2939 85.784-22.4567Q86.0367-23.6195 86.0367-24.5208Q86.0367-26.8206 84.6928-28.1485Q83.349-29.4764 81.2649-29.4764Q80.2055-29.4764 78.9956-29.1607Q77.7856-28.845 76.4075-28.1417Q74.6633-27.3144 71.8999-26.8461Q69.1364-26.3778 66.2407-26.3778ZM19.2301-36.7018Q19.2301-40.2883 20.1472-43.8746Q21.0644-47.4609 22.841-50.7149Q24.6176-53.969 27.153-56.5087Q26.8967-55.3498 26.7743-54.1463Q26.652-52.9427 26.652-51.6714Q26.652-40.5061 31.1472-32.3658Q35.6424-24.2254 43.9408-19.815Q52.2391-15.4045 63.637-15.4045Q64.4546-15.4045 65.1743-15.4852Q65.894-15.5659 66.6079-15.7618Q64.2493-13.3471 61.2106-11.6552Q58.1719-9.96338 54.7117-9.10086Q51.2516-8.23833 47.6705-8.23833Q41.54-8.23833 36.346-10.3613Q31.1521-12.4843 27.314-16.3223Q23.476-20.1603 21.3531-25.36Q19.2301-30.5597 19.2301-36.7018Z"/>
  </g>
  <g id="Bold-S" transform="matrix(1 0 0 1 2293.79 696)">
   <path d="M66.6016-25.0244Q57.2998-25.0244 50.5005-28.5522Q43.7012-32.0801 40.0269-38.6353Q36.3525-45.1904 36.3525-54.2236Q36.3525-58.0322 36.9385-61.3647Q37.5244-64.6973 38.5742-66.6016Q39.209-67.7734 39.4653-68.7012Q39.7217-69.6289 39.7217-70.5811Q39.7217-72.3633 38.501-73.6816Q37.2803-75 35.2295-75Q34.6191-75 33.7524-74.8291Q32.8857-74.6582 31.7871-74.2188Q24.3652-71.1914 18.75-65.4663Q13.1348-59.7412 9.98535-52.2949Q6.83594-44.8486 6.83594-36.6455Q6.83594-27.832 9.86328-20.3979Q12.8906-12.9639 18.3472-7.48291Q23.8037-2.00195 31.2378 1.02539Q38.6719 4.05273 47.4854 4.05273Q55.8105 4.05273 63.0493 1.15967Q70.2881-1.7334 75.8423-7.09229Q81.3965-12.4512 84.5947-19.7998Q85.1318-20.9717 85.3394-21.9604Q85.5469-22.9492 85.5469-23.6572Q85.5469-25.6348 84.3384-26.7822Q83.1299-27.9297 81.4453-27.9297Q80.5664-27.9297 79.6143-27.6978Q78.6621-27.4658 77.4902-26.9043Q75.4883-26.0254 72.583-25.5249Q69.6777-25.0244 66.6016-25.0244ZM17.3096-36.792Q17.3096-41.1133 18.5425-45.3247Q19.7754-49.5361 22.1191-53.2349Q24.4629-56.9336 27.7588-59.6924Q27.2705-58.0566 27.0386-56.2988Q26.8066-54.541 26.8066-52.6123Q26.8066-41.1377 31.3599-32.8491Q35.9131-24.5605 44.3726-20.105Q52.832-15.6494 64.5264-15.6494Q66.04-15.6494 67.3462-15.8203Q68.6523-15.9912 69.9463-16.4062Q67.4072-13.2568 63.8916-11.0107Q60.376-8.76465 56.2134-7.59277Q52.0508-6.4209 47.6318-6.4209Q41.0889-6.4209 35.5469-8.6792Q30.0049-10.9375 25.9155-15.0269Q21.8262-19.1162 19.5679-24.6704Q17.3096-30.2246 17.3096-36.792Z"/>
  </g>
  <g id="Semibold-S" transform="matrix(1 0 0 1 1997.24 696)">
   <path d="M66.8504-24.0913Q57.1487-24.0913 50.0695-27.7747Q42.9902-31.458 39.1693-38.2931Q35.3483-45.1282 35.3483-54.5347Q35.3483-58.5388 35.9609-61.9824Q36.5735-65.426 37.6145-67.3303Q38.1959-68.4133 38.4034-69.1988Q38.6108-69.9844 38.6108-70.8388Q38.6108-72.3455 37.5146-73.5572Q36.4183-74.7689 34.6163-74.7689Q34.1393-74.7689 33.3748-74.6247Q32.6103-74.4805 31.5738-74.0766Q24.2586-71.0848 18.6878-65.3819Q13.117-59.679 9.97646-52.2505Q6.83594-44.822 6.83594-36.6544Q6.83594-27.8498 9.85439-20.4291Q12.8729-13.0083 18.3161-7.54067Q23.7593-2.07305 31.18 0.94541Q38.6008 3.96387 47.4054 3.96387Q55.7928 3.96387 63.0004 1.11079Q70.2081-1.74229 75.7045-7.05229Q81.201-12.3623 84.3726-19.6843Q84.8563-20.7495 85.0328-21.6183Q85.2092-22.4871 85.2092-23.0618Q85.2092-24.8172 84.094-25.8402Q82.9788-26.8633 81.5697-26.8633Q80.8152-26.8633 80.0408-26.6891Q79.2664-26.5149 78.2367-26.0512Q76.057-25.1367 73.054-24.614Q70.051-24.0913 66.8504-24.0913ZM15.9854-36.8542Q15.9854-41.682 17.4361-46.3245Q18.8867-50.9669 21.6215-54.9722Q24.3562-58.9775 28.1765-61.8874Q27.5282-59.9229 27.2208-57.7829Q26.9133-55.643 26.9133-53.261Q26.9133-41.5731 31.5065-33.1824Q36.0997-24.7916 44.6703-20.3049Q53.2408-15.8183 65.1396-15.8183Q67.1331-15.8183 68.8436-16.0514Q70.5541-16.2845 72.2479-16.8506Q69.5845-13.1946 65.74-10.5664Q61.8956-7.93818 57.2487-6.55303Q52.6018-5.16787 47.6052-5.16787Q40.7778-5.16787 34.9959-7.51948Q29.214-9.87109 24.9513-14.1337Q20.6887-18.3964 18.3371-24.195Q15.9854-29.9936 15.9854-36.8542Z"/>
  </g>
  <g id="Medium-S" transform="matrix(1 0 0 1 1700.66 696)">
   <path d="M67.0391-23.3838Q57.0342-23.3838 49.7427-27.1851Q42.4512-30.9863 38.519-38.0337Q34.5869-45.0811 34.5869-54.7705Q34.5869-58.9229 35.2197-62.4507Q35.8525-65.9785 36.8867-67.8828Q37.4277-68.8984 37.5981-69.5762Q37.7686-70.2539 37.7686-71.0342Q37.7686-72.332 36.7666-73.4629Q35.7646-74.5938 34.1514-74.5938Q33.7754-74.5938 33.0884-74.4697Q32.4014-74.3457 31.4121-73.9688Q24.1777-71.0039 18.6406-65.3179Q13.1035-59.6318 9.96973-52.2168Q6.83594-44.8018 6.83594-36.6611Q6.83594-27.8633 9.84766-20.4526Q12.8594-13.042 18.2925-7.58447Q23.7256-2.12695 31.1362 0.884766Q38.5469 3.89648 47.3447 3.89648Q55.7793 3.89648 62.9634 1.07373Q70.1475-1.74902 75.6001-7.02197Q81.0527-12.2949 84.2041-19.5967Q84.6475-20.5811 84.8003-21.3589Q84.9531-22.1367 84.9531-22.6104Q84.9531-24.1973 83.9087-25.126Q82.8643-26.0547 81.6641-26.0547Q81.0039-26.0547 80.3643-25.9243Q79.7246-25.7939 78.8027-25.4043Q76.4883-24.4629 73.4111-23.9233Q70.334-23.3838 67.0391-23.3838ZM14.9814-36.9014Q14.9814-42.1133 16.5972-47.0825Q18.2129-52.0518 21.2441-56.2896Q24.2754-60.5273 28.4932-63.5518Q27.7236-61.3379 27.3589-58.9082Q26.9941-56.4785 26.9941-53.7529Q26.9941-41.9033 31.6177-33.4351Q36.2412-24.9668 44.896-20.4565Q53.5508-15.9463 65.6045-15.9463Q67.9619-15.9463 69.979-16.2266Q71.9961-16.5068 73.9932-17.1875Q71.2354-13.1475 67.1416-10.2295Q63.0479-7.31152 58.0337-5.76465Q53.0195-4.21777 47.585-4.21777Q40.542-4.21777 34.5781-6.64014Q28.6143-9.0625 24.2202-13.4565Q19.8262-17.8506 17.4038-23.8345Q14.9814-29.8184 14.9814-36.9014Z"/>
  </g>
  <g id="Regular-S" transform="matrix(1 0 0 1 1404.12 696)">
   <path d="M67.2852-22.4609Q56.8848-22.4609 49.3164-26.416Q41.748-30.3711 37.6709-37.6953Q33.5938-45.0195 33.5938-55.0781Q33.5938-59.4238 34.2529-63.0615Q34.9121-66.6992 35.9375-68.6035Q36.4258-69.5312 36.5479-70.0684Q36.6699-70.6055 36.6699-71.2891Q36.6699-72.3145 35.791-73.3398Q34.9121-74.3652 33.5449-74.3652Q33.3008-74.3652 32.7148-74.2676Q32.1289-74.1699 31.2012-73.8281Q24.0723-70.8984 18.5791-65.2344Q13.0859-59.5703 9.96094-52.1729Q6.83594-44.7754 6.83594-36.6699Q6.83594-27.8809 9.83887-20.4834Q12.8418-13.0859 18.2617-7.6416Q23.6816-2.19727 31.0791 0.805664Q38.4766 3.80859 47.2656 3.80859Q55.7617 3.80859 62.915 1.02539Q70.0684-1.75781 75.4639-6.98242Q80.8594-12.207 83.9844-19.4824Q84.375-20.3613 84.4971-21.0205Q84.6191-21.6797 84.6191-22.0215Q84.6191-23.3887 83.667-24.1943Q82.7148-25 81.7871-25Q81.25-25 80.7861-24.9268Q80.3223-24.8535 79.541-24.5605Q77.0508-23.584 73.877-23.0225Q70.7031-22.4609 67.2852-22.4609ZM13.6719-36.9629Q13.6719-42.6758 15.5029-48.0713Q17.334-53.4668 20.752-58.0078Q24.1699-62.5488 28.9062-65.7227Q27.9785-63.1836 27.5391-60.376Q27.0996-57.5684 27.0996-54.3945Q27.0996-42.334 31.7627-33.7646Q36.4258-25.1953 45.1904-20.6543Q53.9551-16.1133 66.2109-16.1133Q69.043-16.1133 71.46-16.4551Q73.877-16.7969 76.2695-17.627Q73.3887-13.0859 68.9697-9.79004Q64.5508-6.49414 59.0576-4.73633Q53.5645-2.97852 47.5586-2.97852Q40.2344-2.97852 34.0332-5.49316Q27.832-8.00781 23.2666-12.5732Q18.7012-17.1387 16.1865-23.3643Q13.6719-29.5898 13.6719-36.9629Z"/>
  </g>
  <g id="Light-S" transform="matrix(1 0 0 1 1108.14 696)">
   <path d="M66.6829-21.7611Q56.0059-21.7611 48.2422-25.8219Q40.4785-29.8828 36.2874-37.3942Q32.0964-44.9056 32.0964-55.2409Q32.0964-59.5866 32.7474-63.1999Q33.3984-66.8132 34.5052-69.043Q34.8796-69.8079 34.9854-70.2637Q35.0911-70.7194 35.0911-71.2402Q35.0911-72.0866 34.4076-72.8678Q33.724-73.6491 32.6497-73.6491Q32.4056-73.6491 31.9092-73.5596Q31.4128-73.4701 30.6641-73.2096Q23.6979-70.3939 18.3268-64.8438Q12.9557-59.2936 9.89583-52.0264Q6.83594-44.7591 6.83594-36.8001Q6.83594-28.1738 9.79004-20.8903Q12.7441-13.6068 18.0908-8.24382Q23.4375-2.88086 30.7129 0.0813802Q37.9883 3.04362 46.6309 3.04362Q54.8014 3.04362 61.849 0.268555Q68.8965-2.50651 74.2594-7.61719Q79.6224-12.7279 82.6497-19.7428Q82.959-20.4264 83.0566-20.9473Q83.1543-21.4681 83.1543-21.7611Q83.1543-22.8516 82.4137-23.5026Q81.6732-24.1536 80.8757-24.1536Q80.4525-24.1536 80.07-24.0885Q79.6875-24.0234 79.069-23.7956Q76.8392-22.8678 73.4782-22.3145Q70.1172-21.7611 66.6829-21.7611ZM12.1257-37.0117Q12.1257-43.1478 14.1927-48.8851Q16.2598-54.6224 20.0602-59.3262Q23.8607-64.0299 29.0365-67.0898Q28.0599-64.3717 27.5472-61.2386Q27.0345-58.1055 27.0345-54.7852Q27.0345-42.8711 31.6976-34.375Q36.3607-25.8789 45.0846-21.346Q53.8086-16.8132 65.9505-16.8132Q68.929-16.8132 71.5983-17.1875Q74.2676-17.5618 76.6927-18.3919Q73.7142-13.3952 69.1162-9.75749Q64.5182-6.11979 58.8053-4.1748Q53.0924-2.22982 46.8262-2.22982Q39.3229-2.22982 32.9834-4.80957Q26.6439-7.38932 21.9645-12.0687Q17.2852-16.748 14.7054-23.112Q12.1257-29.4759 12.1257-37.0117Z"/>
  </g>
  <g id="Thin-S" transform="matrix(1 0 0 1 812.396 696)">
   <path d="M65.8865-20.8354Q54.8434-20.8354 46.8214-25.0362Q38.7995-29.237 34.4577-36.996Q30.1159-44.7549 30.1159-55.4561Q30.1159-59.8019 30.7562-63.3828Q31.3965-66.9638 32.6109-69.6242Q32.8346-70.1739 32.9188-70.522Q33.0031-70.8701 33.0031-71.1757Q33.0031-71.7852 32.5778-72.2436Q32.1525-72.7019 31.4658-72.7019Q31.2216-72.7019 30.8436-72.6232Q30.4656-72.5444 29.9537-72.3916Q23.2028-69.7266 17.9932-64.3271Q12.7835-58.9277 9.80973-51.8326Q6.83594-44.7376 6.83594-36.9723Q6.83594-28.5613 9.72546-21.4285Q12.615-14.2956 17.8648-9.04029Q23.1146-3.78497 30.2285-0.876544Q37.3425 2.03188 45.7913 2.03188Q53.5314 2.03188 60.439-0.732422Q67.3466-3.49672 72.6665-8.45672Q77.9864-13.4167 80.8846-20.0873Q81.0862-20.5125 81.1516-20.8504Q81.2169-21.1883 81.2169-21.4166Q81.2169-22.1412 80.7562-22.5877Q80.2955-23.0343 79.6702-23.0343Q79.3977-23.0343 79.1228-22.9799Q78.848-22.9256 78.4447-22.7838Q76.5593-21.9207 72.9508-21.3781Q69.3422-20.8354 65.8865-20.8354ZM10.0806-37.0763Q10.0806-43.7721 12.4598-49.9614Q14.839-56.1508 19.1454-61.0698Q23.4517-65.9888 29.2087-68.8981Q28.1675-65.9432 27.558-62.3795Q26.9484-58.8158 26.9484-55.3018Q26.9484-43.5815 31.6115-35.1822Q36.2746-26.783 44.9447-22.2609Q53.6149-17.7388 65.6061-17.7388Q68.7784-17.7388 71.7813-18.1562Q74.7842-18.5736 77.2524-19.4037Q74.1447-13.8042 69.3099-9.71443Q64.4752-5.62468 58.4717-3.43214Q52.4682-1.2396 45.8575-1.2396Q38.1174-1.2396 31.5949-3.90546Q25.0725-6.57132 20.2424-11.4014Q15.4124-16.2314 12.7465-22.7783Q10.0806-29.3252 10.0806-37.0763Z"/>
  </g>
  <g id="Ultralight-S" transform="matrix(1 0 0 1 516.181 696)">
   <path d="M65.4785-20.3613Q54.248-20.3613 46.0938-24.6338Q37.9395-28.9062 33.5205-36.792Q29.1016-44.6777 29.1016-55.5664Q29.1016-59.9121 29.7363-63.4766Q30.3711-67.041 31.6406-69.9219Q31.7871-70.3613 31.8604-70.6543Q31.9336-70.9473 31.9336-71.1426Q31.9336-71.6309 31.6406-71.9238Q31.3477-72.2168 30.8594-72.2168Q30.6152-72.2168 30.2979-72.1436Q29.9805-72.0703 29.5898-71.9727Q22.9492-69.3848 17.8223-64.0625Q12.6953-58.7402 9.76562-51.7334Q6.83594-44.7266 6.83594-37.0605Q6.83594-28.7598 9.69238-21.7041Q12.5488-14.6484 17.749-9.44824Q22.9492-4.24805 29.9805-1.36719Q37.0117 1.51367 45.3613 1.51367Q52.8809 1.51367 59.7168-1.24512Q66.5527-4.00391 71.8506-8.88672Q77.1484-13.7695 79.9805-20.2637Q80.127-20.5566 80.1758-20.8008Q80.2246-21.0449 80.2246-21.2402Q80.2246-21.7773 79.9072-22.1191Q79.5898-22.4609 79.0527-22.4609Q78.8574-22.4609 78.6377-22.4121Q78.418-22.3633 78.125-22.2656Q76.416-21.4355 72.6807-20.8984Q68.9453-20.3613 65.4785-20.3613ZM9.0332-37.1094Q9.0332-44.0918 11.5723-50.5127Q14.1113-56.9336 18.6768-61.9629Q23.2422-66.9922 29.2969-69.8242Q28.2227-66.748 27.5635-62.9639Q26.9043-59.1797 26.9043-55.5664Q26.9043-43.9453 31.5674-35.5957Q36.2305-27.2461 44.873-22.7295Q53.5156-18.2129 65.4297-18.2129Q68.7012-18.2129 71.875-18.6523Q75.0488-19.0918 77.5391-19.9219Q74.3652-14.0137 69.4092-9.69238Q64.4531-5.37109 58.3008-3.05176Q52.1484-0.732422 45.3613-0.732422Q37.5-0.732422 30.8838-3.44238Q24.2676-6.15234 19.3604-11.0596Q14.4531-15.9668 11.7432-22.6074Q9.0332-29.248 9.0332-37.1094Z"/>
  </g>
 </g>
</svg>
