<?xml version="1.0" encoding="UTF-8"?>
<!--Generator: Apple Native CoreSVG 175-->
<!DOCTYPE svg
PUBLIC "-//W3C//DTD SVG 1.1//EN"
       "http://www.w3.org/Graphics/SVG/1.1/DTD/svg11.dtd">
<svg version="1.1" xmlns="http://www.w3.org/2000/svg" xmlns:xlink="http://www.w3.org/1999/xlink" width="3300" height="2200">
 <!--glyph: "uni1002AB.medium", point size: 100.0, font version: "17.1d1e1", template writer version: "65.1"-->
 <g id="Notes">
  <rect height="2200" id="artboard" style="fill:white;opacity:1" width="3300" x="0" y="0"/>
  <line style="fill:none;stroke:black;opacity:1;stroke-width:0.5;" x1="263" x2="3036" y1="292" y2="292"/>
  <text style="stroke:none;fill:black;font-family:sans-serif;font-size:13;font-weight:bold;" transform="matrix(1 0 0 1 263 322)">Weight/Scale Variations</text>
  <text style="stroke:none;fill:black;font-family:sans-serif;font-size:13;text-anchor:middle;" transform="matrix(1 0 0 1 559.711 322)">Ultralight</text>
  <text style="stroke:none;fill:black;font-family:sans-serif;font-size:13;text-anchor:middle;" transform="matrix(1 0 0 1 856.422 322)">Thin</text>
  <text style="stroke:none;fill:black;font-family:sans-serif;font-size:13;text-anchor:middle;" transform="matrix(1 0 0 1 1153.13 322)">Light</text>
  <text style="stroke:none;fill:black;font-family:sans-serif;font-size:13;text-anchor:middle;" transform="matrix(1 0 0 1 1449.84 322)">Regular</text>
  <text style="stroke:none;fill:black;font-family:sans-serif;font-size:13;text-anchor:middle;" transform="matrix(1 0 0 1 1746.56 322)">Medium</text>
  <text style="stroke:none;fill:black;font-family:sans-serif;font-size:13;text-anchor:middle;" transform="matrix(1 0 0 1 2043.27 322)">Semibold</text>
  <text style="stroke:none;fill:black;font-family:sans-serif;font-size:13;text-anchor:middle;" transform="matrix(1 0 0 1 2339.98 322)">Bold</text>
  <text style="stroke:none;fill:black;font-family:sans-serif;font-size:13;text-anchor:middle;" transform="matrix(1 0 0 1 2636.69 322)">Heavy</text>
  <text style="stroke:none;fill:black;font-family:sans-serif;font-size:13;text-anchor:middle;" transform="matrix(1 0 0 1 2933.4 322)">Black</text>
  <line style="fill:none;stroke:black;opacity:1;stroke-width:0.5;" x1="263" x2="3036" y1="1903" y2="1903"/>
  <g transform="matrix(1 0 0 1 263 1933)">
   <path d="M9.24805 0.830078Q10.8691 0.830078 12.2949 0.214844Q13.7207-0.400391 14.8096-1.49414Q15.8984-2.58789 16.5186-4.01367Q17.1387-5.43945 17.1387-7.05078Q17.1387-8.66211 16.5186-10.0879Q15.8984-11.5137 14.8047-12.6074Q13.7109-13.7012 12.2852-14.3164Q10.8594-14.9316 9.23828-14.9316Q7.62695-14.9316 6.20117-14.3164Q4.77539-13.7012 3.69141-12.6074Q2.60742-11.5137 1.9873-10.0879Q1.36719-8.66211 1.36719-7.05078Q1.36719-5.43945 1.9873-4.01367Q2.60742-2.58789 3.69629-1.49414Q4.78516-0.400391 6.21094 0.214844Q7.63672 0.830078 9.24805 0.830078ZM9.24805-0.654297Q7.91992-0.654297 6.7627-1.14746Q5.60547-1.64062 4.73145-2.51953Q3.85742-3.39844 3.36426-4.56055Q2.87109-5.72266 2.87109-7.05078Q2.87109-8.37891 3.35938-9.54102Q3.84766-10.7031 4.72168-11.582Q5.5957-12.4609 6.75293-12.9541Q7.91016-13.4473 9.23828-13.4473Q10.5762-13.4473 11.7334-12.9541Q12.8906-12.4609 13.7695-11.582Q14.6484-10.7031 15.1465-9.54102Q15.6445-8.37891 15.6445-7.05078Q15.6445-5.72266 15.1514-4.56055Q14.6582-3.39844 13.7842-2.51953Q12.9102-1.64062 11.748-1.14746Q10.5859-0.654297 9.24805-0.654297ZM5.6543-7.05078Q5.6543-6.72852 5.85938-6.52832Q6.06445-6.32812 6.40625-6.32812L8.51562-6.32812L8.51562-4.20898Q8.51562-3.88672 8.71094-3.67676Q8.90625-3.4668 9.23828-3.4668Q9.56055-3.4668 9.77051-3.67676Q9.98047-3.88672 9.98047-4.20898L9.98047-6.32812L12.0898-6.32812Q12.4219-6.32812 12.627-6.52832Q12.832-6.72852 12.832-7.05078Q12.832-7.38281 12.627-7.58789Q12.4219-7.79297 12.0898-7.79297L9.98047-7.79297L9.98047-9.90234Q9.98047-10.2344 9.77051-10.4443Q9.56055-10.6543 9.23828-10.6543Q8.90625-10.6543 8.71094-10.4443Q8.51562-10.2344 8.51562-9.90234L8.51562-7.79297L6.40625-7.79297Q6.06445-7.79297 5.85938-7.58789Q5.6543-7.38281 5.6543-7.05078Z"/>
  </g>
  <g transform="matrix(1 0 0 1 281.867 1933)">
   <path d="M11.709 2.91016Q13.75 2.91016 15.5518 2.12891Q17.3535 1.34766 18.7305-0.0292969Q20.1074-1.40625 20.8887-3.20801Q21.6699-5.00977 21.6699-7.05078Q21.6699-9.0918 20.8887-10.8936Q20.1074-12.6953 18.7305-14.0723Q17.3535-15.4492 15.5469-16.2305Q13.7402-17.0117 11.6992-17.0117Q9.6582-17.0117 7.85645-16.2305Q6.05469-15.4492 4.68262-14.0723Q3.31055-12.6953 2.5293-10.8936Q1.74805-9.0918 1.74805-7.05078Q1.74805-5.00977 2.5293-3.20801Q3.31055-1.40625 4.6875-0.0292969Q6.06445 1.34766 7.86621 2.12891Q9.66797 2.91016 11.709 2.91016ZM11.709 1.25Q9.98047 1.25 8.47656 0.605469Q6.97266-0.0390625 5.83496-1.17676Q4.69727-2.31445 4.05762-3.81836Q3.41797-5.32227 3.41797-7.05078Q3.41797-8.7793 4.05762-10.2832Q4.69727-11.7871 5.83008-12.9297Q6.96289-14.0723 8.4668-14.7119Q9.9707-15.3516 11.6992-15.3516Q13.4277-15.3516 14.9316-14.7119Q16.4355-14.0723 17.5781-12.9297Q18.7207-11.7871 19.3652-10.2832Q20.0098-8.7793 20.0098-7.05078Q20.0098-5.32227 19.3701-3.81836Q18.7305-2.31445 17.5928-1.17676Q16.4551-0.0390625 14.9463 0.605469Q13.4375 1.25 11.709 1.25ZM7.17773-7.05078Q7.17773-6.69922 7.41211-6.47461Q7.64648-6.25 8.01758-6.25L10.8887-6.25L10.8887-3.36914Q10.8887-2.99805 11.1133-2.76855Q11.3379-2.53906 11.6895-2.53906Q12.0605-2.53906 12.29-2.76855Q12.5195-2.99805 12.5195-3.36914L12.5195-6.25L15.4004-6.25Q15.7715-6.25 16.001-6.47461Q16.2305-6.69922 16.2305-7.05078Q16.2305-7.42188 16.001-7.65137Q15.7715-7.88086 15.4004-7.88086L12.5195-7.88086L12.5195-10.752Q12.5195-11.1328 12.29-11.3623Q12.0605-11.5918 11.6895-11.5918Q11.3379-11.5918 11.1133-11.3574Q10.8887-11.123 10.8887-10.752L10.8887-7.88086L8.01758-7.88086Q7.63672-7.88086 7.40723-7.65137Q7.17773-7.42188 7.17773-7.05078Z"/>
  </g>
  <g transform="matrix(1 0 0 1 305.646 1933)">
   <path d="M14.9707 5.66406Q17.0605 5.66406 18.96 5.01465Q20.8594 4.36523 22.4512 3.19336Q24.043 2.02148 25.2197 0.429688Q26.3965-1.16211 27.0459-3.06641Q27.6953-4.9707 27.6953-7.05078Q27.6953-9.14062 27.0459-11.04Q26.3965-12.9395 25.2197-14.5312Q24.043-16.123 22.4512-17.2998Q20.8594-18.4766 18.9551-19.126Q17.0508-19.7754 14.9609-19.7754Q12.8711-19.7754 10.9717-19.126Q9.07227-18.4766 7.48535-17.2998Q5.89844-16.123 4.72168-14.5312Q3.54492-12.9395 2.90039-11.04Q2.25586-9.14062 2.25586-7.05078Q2.25586-4.9707 2.90527-3.06641Q3.55469-1.16211 4.72656 0.429688Q5.89844 2.02148 7.49023 3.19336Q9.08203 4.36523 10.9814 5.01465Q12.8809 5.66406 14.9707 5.66406ZM14.9707 3.84766Q13.1641 3.84766 11.5283 3.2959Q9.89258 2.74414 8.53516 1.74805Q7.17773 0.751953 6.17676-0.610352Q5.17578-1.97266 4.62891-3.6084Q4.08203-5.24414 4.08203-7.05078Q4.08203-8.86719 4.62891-10.5029Q5.17578-12.1387 6.17188-13.501Q7.16797-14.8633 8.52539-15.8594Q9.88281-16.8555 11.5186-17.4023Q13.1543-17.9492 14.9609-17.9492Q16.7773-17.9492 18.4131-17.4023Q20.0488-16.8555 21.4111-15.8594Q22.7734-14.8633 23.7695-13.501Q24.7656-12.1387 25.3174-10.5029Q25.8691-8.86719 25.8691-7.05078Q25.8789-5.24414 25.332-3.6084Q24.7852-1.97266 23.7842-0.610352Q22.7832 0.751953 21.4209 1.74805Q20.0586 2.74414 18.4229 3.2959Q16.7871 3.84766 14.9707 3.84766ZM9.19922-7.05078Q9.19922-6.66992 9.45801-6.4209Q9.7168-6.17188 10.1172-6.17188L14.0625-6.17188L14.0625-2.2168Q14.0625-1.81641 14.3115-1.55762Q14.5605-1.29883 14.9512-1.29883Q15.3516-1.29883 15.6104-1.55273Q15.8691-1.80664 15.8691-2.2168L15.8691-6.17188L19.8242-6.17188Q20.2246-6.17188 20.4785-6.4209Q20.7324-6.66992 20.7324-7.05078Q20.7324-7.46094 20.4785-7.71484Q20.2246-7.96875 19.8242-7.96875L15.8691-7.96875L15.8691-11.9141Q15.8691-12.3242 15.6104-12.583Q15.3516-12.8418 14.9512-12.8418Q14.5605-12.8418 14.3115-12.583Q14.0625-12.3242 14.0625-11.9141L14.0625-7.96875L10.1172-7.96875Q9.70703-7.96875 9.45312-7.71484Q9.19922-7.46094 9.19922-7.05078Z"/>
  </g>
  <text style="stroke:none;fill:black;font-family:sans-serif;font-size:13;font-weight:bold;" transform="matrix(1 0 0 1 263 1953)">Design Variations</text>
  <text style="stroke:none;fill:black;font-family:sans-serif;font-size:13;" transform="matrix(1 0 0 1 263 1971)">Symbols are supported in up to nine weights and three scales.</text>
  <text style="stroke:none;fill:black;font-family:sans-serif;font-size:13;" transform="matrix(1 0 0 1 263 1989)">For optimal layout with text and other symbols, vertically align</text>
  <text style="stroke:none;fill:black;font-family:sans-serif;font-size:13;" transform="matrix(1 0 0 1 263 2007)">symbols with the adjacent text.</text>
  <line style="fill:none;stroke:#00AEEF;stroke-width:0.5;opacity:1.0;" x1="776" x2="776" y1="1919" y2="1933"/>
  <g transform="matrix(1 0 0 1 776 1933)">
   <path d="M3.31055 0.15625Q3.70117 0.15625 3.91602-0.00976562Q4.13086-0.175781 4.26758-0.585938L5.52734-4.0332L11.2891-4.0332L12.5488-0.585938Q12.6855-0.175781 12.9004-0.00976562Q13.1152 0.15625 13.4961 0.15625Q13.8867 0.15625 14.1162-0.0585938Q14.3457-0.273438 14.3457-0.644531Q14.3457-0.869141 14.2383-1.17188L9.6582-13.3691Q9.48242-13.8184 9.17969-14.043Q8.87695-14.2676 8.4082-14.2676Q7.5-14.2676 7.17773-13.3789L2.59766-1.16211Q2.49023-0.859375 2.49023-0.634766Q2.49023-0.263672 2.70996-0.0537109Q2.92969 0.15625 3.31055 0.15625ZM6.00586-5.51758L8.37891-12.0898L8.42773-12.0898L10.8008-5.51758Z"/>
  </g>
  <line style="fill:none;stroke:#00AEEF;stroke-width:0.5;opacity:1.0;" x1="793.197" x2="793.197" y1="1919" y2="1933"/>
  <text style="stroke:none;fill:black;font-family:sans-serif;font-size:13;font-weight:bold;" transform="matrix(1 0 0 1 776 1953)">Margins</text>
  <text style="stroke:none;fill:black;font-family:sans-serif;font-size:13;" transform="matrix(1 0 0 1 776 1971)">Leading and trailing margins on the left and right side of each symbol</text>
  <text style="stroke:none;fill:black;font-family:sans-serif;font-size:13;" transform="matrix(1 0 0 1 776 1989)">can be adjusted by modifying the x-location of the margin guidelines.</text>
  <text style="stroke:none;fill:black;font-family:sans-serif;font-size:13;" transform="matrix(1 0 0 1 776 2007)">Modifications are automatically applied proportionally to all</text>
  <text style="stroke:none;fill:black;font-family:sans-serif;font-size:13;" transform="matrix(1 0 0 1 776 2025)">scales and weights.</text>
  <g transform="matrix(1 0 0 1 1289 1933)">
   <path d="M2.8418 1.86523L4.54102 3.57422Q5.18555 4.22852 5.90332 4.17969Q6.62109 4.13086 7.31445 3.35938L18.0078-8.42773L17.041-9.4043L6.42578 2.27539Q6.16211 2.57812 5.89355 2.61719Q5.625 2.65625 5.27344 2.30469L4.10156 1.14258Q3.75 0.791016 3.79395 0.522461Q3.83789 0.253906 4.14062-0.0195312L15.6152-10.8203L14.6387-11.7871L3.04688-0.898438Q2.30469-0.214844 2.25098 0.498047Q2.19727 1.21094 2.8418 1.86523ZM9.25781-16.3281Q8.94531-16.0254 8.90625-15.6348Q8.86719-15.2441 9.04297-14.9512Q9.21875-14.6777 9.55566-14.541Q9.89258-14.4043 10.3809-14.5215Q11.4746-14.7754 12.5977-14.7314Q13.7207-14.6875 14.7949-13.9844L14.209-12.5293Q13.9551-11.9043 14.0674-11.4404Q14.1797-10.9766 14.5801-10.5664L16.875-8.25195Q17.2363-7.88086 17.5781-7.82227Q17.9199-7.76367 18.3398-7.8418L19.4043-8.03711L20.0684-7.36328L20.0293-6.80664Q20-6.43555 20.1221-6.12305Q20.2441-5.81055 20.6055-5.44922L21.3672-4.70703Q21.7285-4.3457 22.1533-4.33105Q22.5781-4.31641 22.9297-4.66797L25.8398-7.58789Q26.1914-7.93945 26.1816-8.35449Q26.1719-8.76953 25.8105-9.13086L25.0391-9.89258Q24.6875-10.2539 24.3799-10.3857Q24.0723-10.5176 23.7109-10.4883L23.1348-10.4395L22.4902-11.0742L22.7344-12.1973Q22.832-12.6172 22.6953-12.9834Q22.5586-13.3496 22.1191-13.7891L19.9219-15.9766Q18.6719-17.2168 17.2607-17.8369Q15.8496-18.457 14.4189-18.4814Q12.9883-18.5059 11.665-17.959Q10.3418-17.4121 9.25781-16.3281ZM10.752-15.957Q11.6602-16.6211 12.7002-16.9043Q13.7402-17.1875 14.8047-17.085Q15.8691-16.9824 16.8701-16.5137Q17.8711-16.0449 18.7012-15.2051L21.1328-12.793Q21.3086-12.6172 21.3525-12.4512Q21.3965-12.2852 21.3379-12.0312L21.0156-10.5469L22.5195-9.0625L23.5059-9.12109Q23.6914-9.13086 23.7891-9.09668Q23.8867-9.0625 24.0332-8.91602L24.6094-8.33984L22.168-5.89844L21.5918-6.47461Q21.4453-6.62109 21.4062-6.71875Q21.3672-6.81641 21.377-7.01172L21.4453-7.98828L19.9512-9.47266L18.4277-9.21875Q18.1836-9.16992 18.042-9.2041Q17.9004-9.23828 17.7148-9.41406L15.7129-11.416Q15.5176-11.5918 15.4932-11.7529Q15.4688-11.9141 15.5859-12.1875L16.4648-14.2773Q15.293-15.3711 13.8281-15.791Q12.3633-16.2109 10.8398-15.7617Q10.7227-15.7324 10.6885-15.8057Q10.6543-15.8789 10.752-15.957Z"/>
  </g>
  <text style="stroke:none;fill:black;font-family:sans-serif;font-size:13;font-weight:bold;" transform="matrix(1 0 0 1 1289 1953)">Exporting</text>
  <text style="stroke:none;fill:black;font-family:sans-serif;font-size:13;" transform="matrix(1 0 0 1 1289 1971)">Symbols should be outlined when exporting to ensure the</text>
  <text style="stroke:none;fill:black;font-family:sans-serif;font-size:13;" transform="matrix(1 0 0 1 1289 1989)">design is preserved when submitting to Xcode.</text>
  <text id="template-version" style="stroke:none;fill:black;font-family:sans-serif;font-size:13;text-anchor:end;" transform="matrix(1 0 0 1 3036 1933)">Template v.2.0</text>
  <text style="stroke:none;fill:black;font-family:sans-serif;font-size:13;text-anchor:end;" transform="matrix(1 0 0 1 3036 1951)">Requires Xcode 12 or greater</text>
  <text id="descriptive-name" style="stroke:none;fill:black;font-family:sans-serif;font-size:13;text-anchor:end;" transform="matrix(1 0 0 1 3036 1969)">Generated from magnifyingglass</text>
  <text style="stroke:none;fill:black;font-family:sans-serif;font-size:13;text-anchor:end;" transform="matrix(1 0 0 1 3036 1987)">Typeset at 100 points</text>
  <text style="stroke:none;fill:black;font-family:sans-serif;font-size:13;" transform="matrix(1 0 0 1 263 726)">Small</text>
  <text style="stroke:none;fill:black;font-family:sans-serif;font-size:13;" transform="matrix(1 0 0 1 263 1156)">Medium</text>
  <text style="stroke:none;fill:black;font-family:sans-serif;font-size:13;" transform="matrix(1 0 0 1 263 1586)">Large</text>
 </g>
 <g id="Guides">
  <g id="H-reference" style="fill:#27AAE1;stroke:none;" transform="matrix(1 0 0 1 339 696)">
   <path d="M0.976562 0L3.66211 0L29.3457-67.1387L30.0293-67.1387L30.0293-70.459L28.125-70.459ZM11.6699-24.4629L46.9727-24.4629L46.2402-26.709L12.4512-26.709ZM55.127 0L57.7637 0L30.6152-70.459L29.4434-70.459L29.4434-67.1387Z"/>
  </g>
  <line id="Baseline-S" style="fill:none;stroke:#27AAE1;opacity:1;stroke-width:0.5;" x1="263" x2="3036" y1="696" y2="696"/>
  <line id="Capline-S" style="fill:none;stroke:#27AAE1;opacity:1;stroke-width:0.5;" x1="263" x2="3036" y1="625.541" y2="625.541"/>
  <g id="H-reference" style="fill:#27AAE1;stroke:none;" transform="matrix(1 0 0 1 339 1126)">
   <path d="M0.976562 0L3.66211 0L29.3457-67.1387L30.0293-67.1387L30.0293-70.459L28.125-70.459ZM11.6699-24.4629L46.9727-24.4629L46.2402-26.709L12.4512-26.709ZM55.127 0L57.7637 0L30.6152-70.459L29.4434-70.459L29.4434-67.1387Z"/>
  </g>
  <line id="Baseline-M" style="fill:none;stroke:#27AAE1;opacity:1;stroke-width:0.5;" x1="263" x2="3036" y1="1126" y2="1126"/>
  <line id="Capline-M" style="fill:none;stroke:#27AAE1;opacity:1;stroke-width:0.5;" x1="263" x2="3036" y1="1055.54" y2="1055.54"/>
  <g id="H-reference" style="fill:#27AAE1;stroke:none;" transform="matrix(1 0 0 1 339 1556)">
   <path d="M0.976562 0L3.66211 0L29.3457-67.1387L30.0293-67.1387L30.0293-70.459L28.125-70.459ZM11.6699-24.4629L46.9727-24.4629L46.2402-26.709L12.4512-26.709ZM55.127 0L57.7637 0L30.6152-70.459L29.4434-70.459L29.4434-67.1387Z"/>
  </g>
  <line id="Baseline-L" style="fill:none;stroke:#27AAE1;opacity:1;stroke-width:0.5;" x1="263" x2="3036" y1="1556" y2="1556"/>
  <line id="Capline-L" style="fill:none;stroke:#27AAE1;opacity:1;stroke-width:0.5;" x1="263" x2="3036" y1="1485.54" y2="1485.54"/>
  <line id="left-margin" style="fill:none;stroke:#00AEEF;stroke-width:0.5;opacity:1.0;" x1="1390.94" x2="1390.94" y1="1030.79" y2="1150.12"/>
  <line id="right-margin" style="fill:none;stroke:#00AEEF;stroke-width:0.5;opacity:1.0;" x1="1508.75" x2="1508.75" y1="1030.79" y2="1150.12"/>
 </g>
 <g id="Symbols">
  <g id="Black-L" transform="matrix(1 0 0 1 2854.49 1556)">
   <path d="M14.4756-45.3963Q14.4756-34.0577 18.7433-24.1124Q23.0109-14.167 30.5338-6.64343Q38.0567 0.880124 47.9918 5.13679Q57.9268 9.39346 69.2861 9.39346Q76.0119 9.39346 82.2741 7.79212Q88.5364 6.19078 94.0837 3.29669L115.919 25.1558Q118.245 27.4602 121.248 28.5742Q124.252 29.6881 127.424 29.6881Q134.264 29.6881 138.802 25.0967Q143.341 20.5053 143.341 13.7282Q143.341 10.5947 142.218 7.66028Q141.095 4.72585 138.772 2.38244L117.211-19.2003Q120.506-24.9655 122.291-31.6182Q124.076-38.271 124.076-45.3963Q124.076-56.7543 119.809-66.6899Q115.542-76.6256 108.029-84.1492Q100.517-91.6727 90.57-95.9397Q80.6233-100.207 69.2861-100.207Q57.9268-100.207 47.9918-95.9397Q38.0567-91.6727 30.5338-84.1492Q23.0109-76.6256 18.7433-66.6899Q14.4756-56.7543 14.4756-45.3963ZM36.8244-45.3963Q36.8244-52.1078 39.3384-57.9873Q41.8525-63.8669 46.3333-68.3374Q50.8142-72.8078 56.6944-75.3329Q62.5746-77.858 69.2861-77.858Q75.9976-77.858 81.8668-75.3329Q87.7359-72.8078 92.2168-68.3374Q96.6976-63.8669 99.2227-57.9873Q101.748-52.1078 101.748-45.3963Q101.748-38.6848 99.2227-32.815Q96.6976-26.9451 92.2168-22.4649Q87.7359-17.9848 81.8668-15.4597Q75.9976-12.9346 69.2861-12.9346Q62.5746-12.9346 56.6944-15.4597Q50.8142-17.9848 46.3333-22.4649Q41.8525-26.9451 39.3384-32.815Q36.8244-38.6848 36.8244-45.3963Z"/>
  </g>
  <g id="Heavy-L" transform="matrix(1 0 0 1 2558.52 1556)">
   <path d="M14.4756-45.8316Q14.4756-34.7383 18.6553-25.006Q22.8351-15.2737 30.2029-7.90298Q37.5706-0.532207 47.288 3.62965Q57.0053 7.79151 68.1284 7.79151Q75.2041 7.79151 81.7446 5.97345Q88.2852 4.15539 93.9746 0.873964L118.096 25.0375Q120.126 27.0373 122.728 28.0061Q125.331 28.9748 128.078 28.9748Q134.033 28.9748 137.951 24.9899Q141.868 21.0049 141.868 15.1185Q141.868 12.3865 140.891 9.84654Q139.913 7.30658 137.922 5.28587L114.039-18.6336Q117.716-24.5225 119.734-31.4442Q121.752-38.3659 121.752-45.8316Q121.752-56.9487 117.575-66.669Q113.398-76.3894 106.045-83.7602Q98.6923-91.131 88.954-95.3077Q79.2157-99.4844 68.1284-99.4844Q57.0053-99.4844 47.288-95.3077Q37.5706-91.131 30.2029-83.7602Q22.8351-76.3894 18.6553-66.669Q14.4756-56.9487 14.4756-45.8316ZM33.9221-45.8316Q33.9221-52.9076 36.5678-59.1032Q39.2135-65.2988 43.9344-70.0048Q48.6552-74.7107 54.8538-77.3743Q61.0524-80.0379 68.1284-80.0379Q75.2045-80.0379 81.3852-77.3743Q87.5659-74.7107 92.2867-70.0048Q97.0076-65.2988 99.6712-59.1032Q102.335-52.9076 102.335-45.8316Q102.335-38.7556 99.6712-32.5718Q97.0076-26.3881 92.2867-21.6703Q87.5659-16.9525 81.3852-14.2889Q75.2045-11.6252 68.1284-11.6252Q61.0524-11.6252 54.8538-14.2889Q48.6552-16.9525 43.9344-21.6703Q39.2135-26.3881 36.5678-32.5718Q33.9221-38.7556 33.9221-45.8316Z"/>
  </g>
  <g id="Bold-L" transform="matrix(1 0 0 1 2262.73 1556)">
   <path d="M14.4756-46.3818Q14.4756-35.5945 18.5455-26.1337Q22.6154-16.673 29.7865-9.49472Q36.9577-2.31645 46.4 1.72784Q55.8422 5.77213 66.6666 5.77213Q74.145 5.77213 81.0026 3.69725Q87.8602 1.62237 93.7029-2.11826L120.598 24.8419Q122.268 26.475 124.391 27.2727Q126.514 28.0704 128.755 28.0704Q133.659 28.0704 136.837 24.8056Q140.014 21.5407 140.014 16.7225Q140.014 14.4743 139.212 12.4059Q138.41 10.3374 136.808 8.69783L110.104-18.0573Q114.232-24.0758 116.526-31.3028Q118.821-38.5298 118.821-46.3818Q118.821-57.192 114.758-66.6413Q110.695-76.0907 103.542-83.269Q96.3896-90.4472 86.9147-94.51Q77.4397-98.5728 66.6666-98.5728Q55.8422-98.5728 46.4-94.51Q36.9577-90.4472 29.7865-83.269Q22.6154-76.0907 18.5455-66.6413Q14.4756-57.192 14.4756-46.3818ZM30.3618-46.3818Q30.3618-53.8944 33.1677-60.468Q35.9736-67.0416 40.9831-72.0326Q45.9926-77.0235 52.5733-79.8551Q59.154-82.6866 66.6666-82.6866Q74.1791-82.6866 80.7342-79.8551Q87.2893-77.0235 92.2988-72.0326Q97.3083-67.0416 100.14-60.468Q102.971-53.8944 102.971-46.3818Q102.971-38.8693 100.14-32.3071Q97.3083-25.7448 92.2988-20.7425Q87.2893-15.7401 80.7342-12.9086Q74.1791-10.0771 66.6666-10.0771Q59.154-10.0771 52.5733-12.9086Q45.9926-15.7401 40.9831-20.7425Q35.9736-25.7448 33.1677-32.3071Q30.3618-38.8693 30.3618-46.3818Z"/>
  </g>
  <g id="Semibold-L" transform="matrix(1 0 0 1 1966.66 1556)">
   <path d="M14.4756-46.7612Q14.4756-36.1848 18.4697-26.9112Q22.4639-17.6376 29.4995-10.5921Q36.5352-3.54649 45.7878 0.416746Q55.0403 4.37998 65.6587 4.37998Q73.4149 4.37998 80.4911 2.12805Q87.5673-0.123885 93.5156-4.18108L122.322 24.707Q123.744 26.0874 125.537 26.7671Q127.33 27.4469 129.221 27.4469Q133.401 27.4469 136.069 24.6785Q138.736 21.9101 138.736 17.8284Q138.736 15.9137 138.055 14.1703Q137.374 12.4268 136.04 11.05L107.391-17.66Q111.831-23.7678 114.315-31.2053Q116.8-38.6427 116.8-46.7612Q116.8-57.3597 112.816-66.6222Q108.831-75.8847 101.817-82.9303Q94.8022-89.9759 85.5087-93.9601Q76.2153-97.9443 65.6587-97.9443Q55.0403-97.9443 45.7878-93.9601Q36.5352-89.9759 29.4995-82.9303Q22.4639-75.8847 18.4697-66.6222Q14.4756-57.3597 14.4756-46.7612ZM27.9073-46.7612Q27.9073-54.5747 30.8237-61.4089Q33.7401-68.2431 38.9485-73.4306Q44.1569-78.618 51.0011-81.5653Q57.8452-84.5126 65.6587-84.5126Q73.4723-84.5126 80.2855-81.5653Q87.0987-78.618 92.3071-73.4306Q97.5156-68.2431 100.463-61.4089Q103.41-54.5747 103.41-46.7612Q103.41-38.9477 100.463-32.1245Q97.5156-25.3014 92.3071-20.1029Q87.0987-14.9044 80.2855-11.9571Q73.4723-9.00977 65.6587-9.00977Q57.8452-9.00977 51.0011-11.9571Q44.1569-14.9044 38.9485-20.1029Q33.7401-25.3014 30.8237-32.1245Q27.9073-38.9477 27.9073-46.7612Z"/>
  </g>
  <g id="Medium-L" transform="matrix(1 0 0 1 1670.43 1556)">
   <path d="M14.4756-47.0488Q14.4756-36.6323 18.4123-27.5007Q22.3491-18.3691 29.2819-11.4241Q36.2148-4.47916 45.3236-0.577382Q54.4323 3.3244 64.8946 3.3244Q72.8613 3.3244 80.1032 0.938217Q87.3451-1.44797 93.3735-5.7452L123.629 24.6048Q124.864 25.7934 126.406 26.3838Q127.949 26.9741 129.575 26.9741Q133.206 26.9741 135.486 24.5822Q137.767 22.1902 137.767 18.6669Q137.767 17.0051 137.178 15.5081Q136.589 14.0111 135.457 12.8335L105.335-17.3587Q110.01-23.5343 112.639-31.1313Q115.268-38.7283 115.268-47.0488Q115.268-57.4869 111.343-66.6078Q107.418-75.7286 100.508-82.6735Q93.5985-89.6185 84.4427-93.5431Q75.2869-97.4678 64.8946-97.4678Q54.4323-97.4678 45.3236-93.5431Q36.2148-89.6185 29.2819-82.6735Q22.3491-75.7286 18.4123-66.6078Q14.4756-57.4869 14.4756-47.0488ZM26.0462-47.0488Q26.0462-55.0906 29.0464-62.1223Q32.0465-69.1541 37.4058-74.4906Q42.7651-79.827 49.809-82.8621Q56.8528-85.8971 64.8946-85.8971Q72.9363-85.8971 79.9452-82.8621Q86.9541-79.827 92.3134-74.4906Q97.6727-69.1541 100.708-62.1223Q103.743-55.0906 103.743-47.0488Q103.743-39.0071 100.708-31.9861Q97.6727-24.9651 92.3134-19.6179Q86.9541-14.2707 79.9452-11.2356Q72.9363-8.2005 64.8946-8.2005Q56.8528-8.2005 49.809-11.2356Q42.7651-14.2707 37.4058-19.6179Q32.0465-24.9651 29.0464-31.9861Q26.0462-39.0071 26.0462-47.0488Z"/>
  </g>
  <g id="Regular-L" transform="matrix(1 0 0 1 1374.36 1556)">
   <path d="M14.4756-47.424Q14.4756-37.2161 18.3374-28.2696Q22.1992-19.3231 28.9981-12.5094Q35.7969-5.69569 44.7181-1.87407Q53.6393 1.94755 63.8978 1.94755Q72.1392 1.94755 79.5973-0.61374Q87.0554-3.17503 93.1883-7.78535L125.335 24.4714Q126.324 25.4101 127.54 25.8838Q128.756 26.3575 130.037 26.3575Q132.951 26.3575 134.727 24.4565Q136.503 22.5556 136.503 19.7606Q136.503 18.4286 136.033 17.2531Q135.564 16.0776 134.697 15.1599L102.652-16.9658Q107.635-23.2298 110.452-31.0349Q113.269-38.84 113.269-47.424Q113.269-57.6528 109.422-66.5889Q105.575-75.5249 98.802-82.3386Q92.0285-89.1523 83.0522-92.9993Q74.076-96.8462 63.8978-96.8462Q53.6393-96.8462 44.7181-92.9993Q35.7969-89.1523 28.9981-82.3386Q22.1992-75.5249 18.3374-66.5889Q14.4756-57.6528 14.4756-47.424ZM23.6187-47.424Q23.6187-55.7634 26.7281-63.0529Q29.8375-70.3424 35.3936-75.8732Q40.9497-81.4039 48.254-84.5535Q55.5584-87.7031 63.8978-87.7031Q72.2372-87.7031 79.5014-84.5535Q86.7656-81.4039 92.3217-75.8732Q97.8777-70.3424 101.027-63.0529Q104.177-55.7634 104.177-47.424Q104.177-39.0846 101.027-31.8056Q97.8777-24.5265 92.3217-18.9853Q86.7656-13.4441 79.5014-10.2945Q72.2372-7.14493 63.8978-7.14493Q55.5584-7.14493 48.254-10.2945Q40.9497-13.4441 35.3936-18.9853Q29.8375-24.5265 26.7281-31.8056Q23.6187-39.0846 23.6187-47.424Z"/>
  </g>
  <g id="Light-L" transform="matrix(1 0 0 1 1078.38 1556)">
   <path d="M14.4756-47.8755Q14.4756-37.8933 18.2553-29.1828Q22.0351-20.4723 28.6697-13.8125Q35.3044-7.15275 43.9998-3.41322Q52.6952 0.326316 62.7075 0.326316Q71.031 0.326316 78.5302-2.33758Q86.0293-5.00149 92.1211-9.79651L125.807 24.0199Q126.591 24.7739 127.591 25.186Q128.591 25.5982 129.647 25.5982Q132.13 25.5982 133.578 23.9948Q135.025 22.3914 135.025 20.1094Q135.025 19.0237 134.648 18.0637Q134.271 17.1037 133.527 16.3296L99.9019-17.3762Q105.049-23.5786 107.979-31.4145Q110.909-39.2505 110.909-47.8755Q110.909-57.8375 107.155-66.5581Q103.4-75.2786 96.7805-81.9384Q90.161-88.5982 81.4002-92.3528Q72.6394-96.1074 62.7075-96.1074Q52.6952-96.1074 43.9998-92.3528Q35.3044-88.5982 28.6697-81.9384Q22.0351-75.2786 18.2553-66.5581Q14.4756-57.8375 14.4756-47.8755ZM21.3819-47.8755Q21.3819-56.4201 24.5836-63.884Q27.7853-71.348 33.485-77.0327Q39.1848-82.7173 46.6739-85.9593Q54.1629-89.2012 62.7075-89.2012Q71.2521-89.2012 78.701-85.9593Q86.1499-82.7173 91.8496-77.0327Q97.5494-71.348 100.791-63.884Q104.033-56.4201 104.033-47.8755Q104.033-39.3309 100.791-31.8569Q97.5494-24.3829 91.8496-18.7083Q86.1499-13.0336 78.701-9.79171Q71.2521-6.54979 62.7075-6.54979Q54.1629-6.54979 46.6739-9.79171Q39.1848-13.0336 33.485-18.7083Q27.7853-24.3829 24.5836-31.8569Q21.3819-39.3309 21.3819-47.8755Z"/>
  </g>
  <g id="Thin-L" transform="matrix(1 0 0 1 782.649 1556)">
   <path d="M14.4756-48.4726Q14.4756-38.789 18.1468-30.3907Q21.8179-21.9923 28.2355-15.5361Q34.653-9.07983 43.0498-5.44886Q51.4467-1.8179 61.1333-1.8179Q69.5653-1.8179 77.1188-4.61751Q84.6722-7.41712 90.7097-12.4564L126.431 23.4228Q126.944 23.9325 127.659 24.2632Q128.374 24.5939 129.131 24.5939Q131.044 24.5939 132.058 23.3841Q133.071 22.1743 133.071 20.5708Q133.071 19.8109 132.816 19.1358Q132.561 18.4608 131.98 17.8767L96.2649-17.9191Q101.629-24.04 104.708-31.9167Q107.788-39.7933 107.788-48.4726Q107.788-58.0818 104.156-66.5174Q100.523-74.9529 94.1071-81.4092Q87.691-87.8654 79.2153-91.4979Q70.7395-95.1303 61.1333-95.1303Q51.4467-95.1303 43.0498-91.4979Q34.653-87.8654 28.2355-81.4092Q21.8179-74.9529 18.1468-66.5174Q14.4756-58.0818 14.4756-48.4726ZM18.4234-48.4726Q18.4234-57.2886 21.7472-64.9833Q25.0711-72.678 30.9608-78.5662Q36.8506-84.4544 44.5839-87.8185Q52.3173-91.1825 61.1333-91.1825Q69.9493-91.1825 77.6425-87.8185Q85.3356-84.4544 91.2254-78.5662Q97.1151-72.678 100.479-64.9833Q103.843-57.2886 103.843-48.4726Q103.843-39.6566 100.479-31.9247Q97.1151-24.1929 91.2254-18.3418Q85.3356-12.4908 77.6425-9.12673Q69.9493-5.76268 61.1333-5.76268Q52.3173-5.76268 44.5839-9.12673Q36.8506-12.4908 30.9608-18.3418Q25.0711-24.1929 21.7472-31.9247Q18.4234-39.6566 18.4234-48.4726Z"/>
  </g>
  <g id="Ultralight-L" transform="matrix(1 0 0 1 486.438 1556)">
   <path d="M14.4756-48.7784Q14.4756-39.2478 18.0912-31.0093Q21.7067-22.7708 28.013-16.4188Q34.3193-10.0669 42.5633-6.49151Q50.8072-2.91615 60.327-2.91615Q68.8146-2.91615 76.3959-5.78527Q83.9771-8.6544 89.9868-13.8188L126.751 23.117Q127.125 23.5015 127.694 23.7905Q128.263 24.0796 128.867 24.0796Q130.488 24.0796 131.279 23.0713Q132.07 22.063 132.07 20.8072Q132.07 20.214 131.878 19.6849Q131.685 19.1559 131.188 18.6691L94.402-18.1971Q99.8772-24.2764 103.033-32.1738Q106.189-40.0713 106.189-48.7784Q106.189-58.2069 102.619-66.4965Q99.0495-74.7861 92.7377-81.1381Q86.426-87.49 78.0962-91.0599Q69.7664-94.6299 60.327-94.6299Q50.8072-94.6299 42.5633-91.0599Q34.3193-87.49 28.013-81.1381Q21.7067-74.7861 18.0912-66.4965Q14.4756-58.2069 14.4756-48.7784ZM16.9081-48.7784Q16.9081-57.7335 20.2945-65.5463Q23.6809-73.3591 29.6679-79.3516Q35.655-85.3441 43.5135-88.7708Q51.372-92.1974 60.327-92.1974Q69.282-92.1974 77.1003-88.7708Q84.9186-85.3441 90.9056-79.3516Q96.8927-73.3591 100.319-65.5463Q103.746-57.7335 103.746-48.7784Q103.746-39.8234 100.319-31.9595Q96.8927-24.0956 90.9056-18.1542Q84.9186-12.2128 77.1003-8.78614Q69.282-5.35952 60.327-5.35952Q51.372-5.35952 43.5135-8.78614Q35.655-12.2128 29.6679-18.1542Q23.6809-24.0956 20.2945-31.9595Q16.9081-39.8234 16.9081-48.7784Z"/>
  </g>
  <g id="Black-M" transform="matrix(1 0 0 1 2871.73 1126)">
   <path d="M11.2148-42.7932Q11.2148-33.8286 14.5856-25.9723Q17.9564-18.116 23.8958-12.1767Q29.8352-6.23747 37.6888-2.86929Q45.5423 0.498882 54.5124 0.498882Q59.4337 0.498882 64.0517-0.569388Q68.6698-1.63766 72.8398-3.57196L88.0008 11.594Q90.0285 13.6161 92.6714 14.5956Q95.3143 15.575 98.1054 15.575Q104.108 15.575 108.112 11.537Q112.117 7.49902 112.117 1.55261Q112.117-1.18685 111.135-3.7701Q110.152-6.35334 108.084-8.42676L93.1625-23.3536Q95.4087-27.7056 96.6066-32.6327Q97.8045-37.5598 97.8045-42.7932Q97.8045-51.7636 94.4336-59.617Q91.0627-67.4704 85.126-73.4097Q79.1894-79.3489 71.3334-82.7199Q63.4774-86.0908 54.5124-86.0908Q45.5423-86.0908 37.6888-82.7199Q29.8352-79.3489 23.8958-73.4097Q17.9564-67.4704 14.5856-59.617Q11.2148-51.7636 11.2148-42.7932ZM30.7206-42.7932Q30.7206-47.7074 32.5677-52.0146Q34.4149-56.3217 37.6996-59.6036Q40.9842-62.8856 45.2912-64.7353Q49.5982-66.585 54.5124-66.585Q59.4267-66.585 63.731-64.7353Q68.0354-62.8856 71.3201-59.6036Q74.6048-56.3217 76.4545-52.0146Q78.3043-47.7074 78.3043-42.7932Q78.3043-37.879 76.4545-33.5748Q74.6048-29.2705 71.3201-25.9857Q68.0354-22.7008 63.731-20.8511Q59.4267-19.0014 54.5124-19.0014Q49.5982-19.0014 45.2912-20.8511Q40.9842-22.7008 37.6996-25.9857Q34.4149-29.2705 32.5677-33.5748Q30.7206-37.879 30.7206-42.7932Z"/>
  </g>
  <g id="Heavy-M" transform="matrix(1 0 0 1 2575.67 1126)">
   <path d="M11.2148-43.1771Q11.2148-34.4314 14.5073-26.7616Q17.7997-19.0919 23.6025-13.2878Q29.4054-7.4837 37.067-4.20063Q44.7286-0.917566 53.4906-0.917566Q58.7462-0.917566 63.6325-2.18823Q68.5188-3.45889 72.8316-5.75481L90.0853 11.52Q91.8429 13.2614 94.1133 14.1046Q96.3838 14.9478 98.7808 14.9478Q103.957 14.9478 107.386 11.4752Q110.814 8.00254 110.814 2.87944Q110.814 0.509845 109.965-1.70766Q109.116-3.92517 107.361-5.69637L90.3148-22.7618Q92.9198-27.2403 94.3349-32.4276Q95.7501-37.6148 95.7501-43.1771Q95.7501-51.9366 92.4589-59.5994Q89.1677-67.2623 83.373-73.0664Q77.5782-78.8705 69.906-82.1617Q62.2339-85.4528 53.4906-85.4528Q44.7286-85.4528 37.067-82.1617Q29.4054-78.8705 23.6025-73.0664Q17.7997-67.2623 14.5073-59.5994Q11.2148-51.9366 11.2148-43.1771ZM28.0898-43.1771Q28.0898-48.4287 30.0571-53.0287Q32.0244-57.6287 35.5305-61.1267Q39.0365-64.6246 43.6377-66.6012Q48.239-68.5779 53.4906-68.5779Q58.7422-68.5779 63.3341-66.6012Q67.926-64.6246 71.4321-61.1267Q74.9381-57.6287 76.9148-53.0287Q78.8914-48.4287 78.8914-43.1771Q78.8914-37.9255 76.9148-33.3324Q74.9381-28.7392 71.4321-25.2344Q67.926-21.7296 63.3341-19.7529Q58.7422-17.7763 53.4906-17.7763Q48.239-17.7763 43.6377-19.7529Q39.0365-21.7296 35.5305-25.2344Q32.0244-28.7392 30.0571-33.3324Q28.0898-37.9255 28.0898-43.1771Z"/>
  </g>
  <g id="Bold-M" transform="matrix(1 0 0 1 2279.69 1126)">
   <path d="M11.2148-43.6065Q11.2148-35.1056 14.4196-27.6446Q17.6243-20.1836 23.2745-14.5307Q28.9246-8.87779 36.3715-5.68993Q43.8184-2.50207 52.3475-2.50207Q57.9772-2.50207 63.1636-3.99914Q68.35-5.4962 72.8224-8.19664L92.417 11.4373Q93.8725 12.8646 95.7263 13.5554Q97.5802 14.2461 99.5363 14.2461Q103.789 14.2461 106.573 11.406Q109.357 8.5658 109.357 4.3637Q109.357 2.40785 108.657 0.599471Q107.958-1.20891 106.553-2.64204L87.1291-22.0998Q90.1356-26.7198 91.7938-32.1981Q93.452-37.6763 93.452-43.6065Q93.452-52.1301 90.25-59.5797Q87.048-67.0294 81.412-72.6823Q75.7759-78.3352 68.3094-81.5372Q60.8429-84.7392 52.3475-84.7392Q43.8184-84.7392 36.3715-81.5372Q28.9246-78.3352 23.2745-72.6823Q17.6243-67.0294 14.4196-59.5797Q11.2148-52.1301 11.2148-43.6065ZM25.1469-43.6065Q25.1469-49.2356 27.2486-54.1632Q29.3503-59.0908 33.104-62.8304Q36.8577-66.5699 41.7881-68.6886Q46.7185-70.8072 52.3475-70.8072Q57.9766-70.8072 62.8901-68.6886Q67.8036-66.5699 71.5573-62.8304Q75.311-59.0908 77.4296-54.1632Q79.5482-49.2356 79.5482-43.6065Q79.5482-37.9774 77.4296-33.0612Q75.311-28.1449 71.5573-24.394Q67.8036-20.6431 62.8901-18.5245Q57.9766-16.4059 52.3475-16.4059Q46.7185-16.4059 41.7881-18.5245Q36.8577-20.6431 33.104-24.394Q29.3503-28.1449 27.2486-33.0612Q25.1469-37.9774 25.1469-43.6065Z"/>
  </g>
  <g id="Semibold-M" transform="matrix(1 0 0 1 1983.48 1126)">
   <path d="M11.2148-43.9026Q11.2148-35.5705 14.3591-28.2534Q17.5034-20.9362 23.0483-15.3876Q28.5932-9.83887 35.8921-6.71664Q43.1909-3.59441 51.5595-3.59441Q57.4471-3.59441 62.8403-5.24756Q68.2336-6.90071 72.816-9.88002L94.0245 11.3802Q95.2718 12.591 96.8383 13.1767Q98.4049 13.7624 100.057 13.7624Q103.673 13.7624 106.013 11.3583Q108.352 8.95411 108.352 5.38694Q108.352 3.71632 107.756 2.18999Q107.159 0.663668 105.996-0.536402L84.933-21.6434Q88.2162-26.361 90.0419-32.0398Q91.8676-37.7187 91.8676-43.9026Q91.8676-52.2635 88.7271-59.5662Q85.5867-66.8689 80.0601-72.4175Q74.5334-77.9662 67.2087-81.1067Q59.8839-84.2472 51.5595-84.2472Q43.1909-84.2472 35.8921-81.1067Q28.5932-77.9662 23.0483-72.4175Q17.5034-66.8689 14.3591-59.5662Q11.2148-52.2635 11.2148-43.9026ZM23.118-43.9026Q23.118-49.7918 25.3124-54.9453Q27.5068-60.0988 31.4312-64.0049Q35.3556-67.9111 40.5129-70.1275Q45.6702-72.344 51.5595-72.344Q57.4488-72.344 62.584-70.1275Q67.7192-67.9111 71.6436-64.0049Q75.568-60.0988 77.7845-54.9453Q80.001-49.7918 80.001-43.9026Q80.001-38.0133 77.7845-32.8742Q75.568-27.7352 71.6436-23.8146Q67.7192-19.894 62.584-17.6776Q57.4488-15.4611 51.5595-15.4611Q45.6702-15.4611 40.5129-17.6776Q35.3556-19.894 31.4312-23.8146Q27.5068-27.7352 25.3124-32.8742Q23.118-38.0133 23.118-43.9026Z"/>
  </g>
  <g id="Medium-M" transform="matrix(1 0 0 1 1687.15 1126)">
   <path d="M11.2148-44.127Q11.2148-35.923 14.3133-28.7149Q17.4118-21.5069 22.8768-16.0373Q28.3419-10.5676 35.5285-7.49514Q42.7151-4.42267 50.962-4.42267Q57.0451-4.42267 62.5952-6.19417Q68.1453-7.96567 72.8112-11.1564L95.2434 11.337Q96.3328 12.3836 97.6815 12.8896Q99.0303 13.3956 100.452 13.3956Q103.585 13.3956 105.588 11.3221Q107.59 9.24854 107.59 6.16281Q107.59 4.70846 107.072 3.39599Q106.554 2.08353 105.573 1.06018L83.2678-21.2973Q86.7608-26.0889 88.7136-31.9199Q90.6663-37.7509 90.6663-44.127Q90.6663-52.3646 87.5725-59.5559Q84.4786-66.7471 79.035-72.2168Q73.5913-77.6864 66.3741-80.7803Q59.1568-83.8741 50.962-83.8741Q42.7151-83.8741 35.5285-80.7803Q28.3419-77.6864 22.8768-72.2168Q17.4118-66.7471 14.3133-59.5559Q11.2148-52.3646 11.2148-44.127ZM21.5797-44.127Q21.5797-50.2136 23.8443-55.5383Q26.109-60.863 30.1629-64.8955Q34.2167-68.9279 39.546-71.2186Q44.8754-73.5093 50.962-73.5093Q57.0485-73.5093 62.3519-71.2186Q67.6552-68.9279 71.7091-64.8955Q75.7629-60.863 78.0536-55.5383Q80.3443-50.2136 80.3443-44.127Q80.3443-38.0404 78.0536-32.7325Q75.7629-27.4245 71.7091-23.3753Q67.6552-19.3261 62.3519-17.0354Q57.0485-14.7447 50.962-14.7447Q44.8754-14.7447 39.546-17.0354Q34.2167-19.3261 30.1629-23.3753Q26.109-27.4245 23.8443-32.7325Q21.5797-38.0404 21.5797-44.127Z"/>
  </g>
  <g id="Regular-M" transform="matrix(1 0 0 1 1390.94 1126)">
   <path d="M11.2148-44.4198Q11.2148-36.3827 14.2535-29.317Q17.2922-22.2513 22.6531-16.8847Q28.014-11.5181 35.0543-8.51056Q42.0945-5.50302 50.1826-5.50302Q56.5208-5.50302 62.2755-7.42888Q68.0302-9.35475 72.805-12.8213L96.8332 11.2806Q97.7166 12.113 98.7813 12.5151Q99.846 12.9172 100.967 12.9172Q103.47 12.9172 105.033 11.2749Q106.596 9.63258 106.596 7.1748Q106.596 6.00255 106.18 4.96904Q105.764 3.93553 105.022 3.14268L81.0957-20.8459Q84.8625-25.734 86.9809-31.7634Q89.0994-37.7928 89.0994-44.4198Q89.0994-52.4965 86.0664-59.5425Q83.0333-66.5884 77.6979-71.9549Q72.3625-77.3215 65.2854-80.3545Q58.2084-83.3876 50.1826-83.3876Q42.0945-83.3876 35.0543-80.3545Q28.014-77.3215 22.6531-71.9549Q17.2922-66.5884 14.2535-59.5425Q11.2148-52.4965 11.2148-44.4198ZM19.5731-44.4198Q19.5731-50.7637 21.9295-56.3118Q24.2858-61.8599 28.5085-66.0571Q32.7311-70.2543 38.2849-72.6418Q43.8387-75.0293 50.1826-75.0293Q56.5265-75.0293 62.0491-72.6418Q67.5718-70.2543 71.7944-66.0571Q76.0171-61.8599 78.4046-56.3118Q80.7921-50.7637 80.7921-44.4198Q80.7921-38.0759 78.4046-32.5476Q76.0171-27.0193 71.7944-22.8023Q67.5718-18.5853 62.0491-16.1978Q56.5265-13.8103 50.1826-13.8103Q43.8387-13.8103 38.2849-16.1978Q32.7311-18.5853 28.5085-22.8023Q24.2858-27.0193 21.9295-32.5476Q19.5731-38.0759 19.5731-44.4198Z"/>
  </g>
  <g id="Light-M" transform="matrix(1 0 0 1 1094.89 1126)">
   <path d="M11.2148-44.8246Q11.2148-36.9899 14.1799-30.1357Q17.1451-23.2816 22.3588-18.053Q27.5725-12.8244 34.4103-9.89049Q41.2482-6.95654 49.1155-6.95654Q55.5272-6.95654 61.3187-8.9744Q67.1102-10.9923 71.8482-14.6244L97.2564 10.8758Q97.9558 11.5427 98.8273 11.8896Q99.6988 12.2365 100.618 12.2365Q102.734 12.2365 104.003 10.8609Q105.272 9.48539 105.272 7.48759Q105.272 6.53612 104.938 5.6958Q104.605 4.85548 103.973 4.19142L78.6303-21.2139Q82.5442-26.0468 84.7639-32.1038Q86.9835-38.1608 86.9835-44.8246Q86.9835-52.6621 84.0333-59.5149Q81.083-66.3676 75.8856-71.5962Q70.6882-76.8247 63.8043-79.775Q56.9204-82.7252 49.1155-82.7252Q41.2482-82.7252 34.4103-79.775Q27.5725-76.8247 22.3588-71.5962Q17.1451-66.3676 14.1799-59.5149Q11.2148-52.6621 11.2148-44.8246ZM17.5676-44.8246Q17.5676-51.3525 20.0068-57.057Q22.4459-62.7615 26.7974-67.0967Q31.1488-71.4319 36.8682-73.9021Q42.5875-76.3724 49.1155-76.3724Q55.6434-76.3724 61.3316-73.9021Q67.0198-71.4319 71.3713-67.0967Q75.7227-62.7615 78.193-57.057Q80.6633-51.3525 80.6633-44.8246Q80.6633-38.2967 78.193-32.5936Q75.7227-26.8905 71.3713-22.5539Q67.0198-18.2173 61.3316-15.747Q55.6434-13.2768 49.1155-13.2768Q42.5875-13.2768 36.8682-15.747Q31.1488-18.2173 26.7974-22.5539Q22.4459-26.8905 20.0068-32.5936Q17.5676-38.2967 17.5676-44.8246Z"/>
  </g>
  <g id="Thin-M" transform="matrix(1 0 0 1 799.055 1126)">
   <path d="M11.2148-45.3599Q11.2148-37.7929 14.0826-31.2186Q16.9504-24.6443 21.9694-19.5982Q26.9884-14.5522 33.5586-11.7156Q40.1288-8.87894 47.7041-8.87894Q54.2132-8.87894 60.0533-11.0185Q65.8935-13.158 70.5828-17.0092L97.8161 10.3404Q98.2722 10.7883 98.8881 11.0622Q99.5041 11.3361 100.155 11.3361Q101.761 11.3361 102.64 10.3134Q103.52 9.29071 103.52 7.90127Q103.52 7.24181 103.296 6.657Q103.072 6.07218 102.586 5.57847L75.3695-21.7006Q79.4781-26.4604 81.8316-32.554Q84.1851-38.6475 84.1851-45.3599Q84.1851-52.8811 81.3443-59.4784Q78.5036-66.0756 73.4887-71.1216Q68.4738-76.1677 61.8454-79.0084Q55.217-81.8492 47.7041-81.8492Q40.1288-81.8492 33.5586-79.0084Q26.9884-76.1677 21.9694-71.1216Q16.9504-66.0756 14.0826-59.4784Q11.2148-52.8811 11.2148-45.3599ZM14.9152-45.3599Q14.9152-52.1312 17.4638-58.0425Q20.0125-63.9538 24.5343-68.4715Q29.0561-72.9892 34.9945-75.569Q40.9328-78.1488 47.7041-78.1488Q54.4753-78.1488 60.3825-75.569Q66.2898-72.9892 70.8116-68.4715Q75.3334-63.9538 77.9132-58.0425Q80.4929-52.1312 80.4929-45.3599Q80.4929-38.5887 77.9132-32.6544Q75.3334-26.7202 70.8116-22.2254Q66.2898-17.7306 60.3825-15.1509Q54.4753-12.5711 47.7041-12.5711Q40.9328-12.5711 34.9945-15.1509Q29.0561-17.7306 24.5343-22.2254Q20.0125-26.7202 17.4638-32.6544Q14.9152-38.5887 14.9152-45.3599Z"/>
  </g>
  <g id="Ultralight-M" transform="matrix(1 0 0 1 502.793 1126)">
   <path d="M11.2148-45.6341Q11.2148-38.2042 14.0328-31.7732Q16.8507-25.3423 21.77-20.3897Q26.6893-15.4371 33.1224-12.6503Q39.5555-9.86358 46.9812-9.86358Q53.5401-9.86358 59.4052-12.0654Q65.2703-14.2673 69.9347-18.2306L98.1027 10.0662Q98.4342 10.4019 98.9193 10.6384Q99.4044 10.8749 99.9185 10.8749Q101.263 10.8749 101.942 10.033Q102.622 9.191 102.622 8.11315Q102.622 7.60326 102.454 7.14932Q102.287 6.69538 101.876 6.28891L73.6993-21.9499Q77.9077-26.6723 80.3297-32.7845Q82.7517-38.8968 82.7517-45.6341Q82.7517-52.9933 79.9671-59.4597Q77.1825-65.926 72.261-70.8786Q67.3396-75.8312 60.8421-78.6158Q54.3446-81.4005 46.9812-81.4005Q39.5555-81.4005 33.1224-78.6158Q26.6893-75.8312 21.77-70.8786Q16.8507-65.926 14.0328-59.4597Q11.2148-52.9933 11.2148-45.6341ZM13.5567-45.6341Q13.5567-52.53 16.1614-58.5473Q18.7661-64.5646 23.3751-69.1758Q27.9842-73.7869 34.0347-76.4228Q40.0853-79.0587 46.9812-79.0587Q53.8771-79.0587 59.8965-76.4228Q65.9158-73.7869 70.5249-69.1758Q75.134-64.5646 77.7698-58.5473Q80.4057-52.53 80.4057-45.6341Q80.4057-38.7383 77.7698-32.6856Q75.134-26.6329 70.5249-22.0571Q65.9158-17.4814 59.8965-14.8455Q53.8771-12.2096 46.9812-12.2096Q40.0853-12.2096 34.0347-14.8455Q27.9842-17.4814 23.3751-22.0571Q18.7661-26.6329 16.1614-32.6856Q13.5567-38.7383 13.5567-45.6341Z"/>
  </g>
  <g id="Black-S" transform="matrix(1 0 0 1 2884.91 696)">
   <path d="M8.78906-41.0645Q8.78906-33.9844 11.4502-27.7832Q14.1113-21.582 18.7988-16.8945Q23.4863-12.207 29.6875-9.5459Q35.8887-6.88477 42.9688-6.88477Q46.7285-6.88477 50.2686-7.66602Q53.8086-8.44727 57.0312-9.86328L68.3594 1.46484Q70.0195 3.125 72.1924 3.93066Q74.3652 4.73633 76.6602 4.73633Q81.5918 4.73633 84.8877 1.41602Q88.1836-1.9043 88.1836-6.78711Q88.1836-9.0332 87.3779-11.1572Q86.5723-13.2812 84.8633-14.9902L73.7305-26.123Q75.3906-29.4922 76.2695-33.2764Q77.1484-37.0605 77.1484-41.0645Q77.1484-48.1445 74.4873-54.3457Q71.8262-60.5469 67.1387-65.2344Q62.4512-69.9219 56.25-72.583Q50.0488-75.2441 42.9688-75.2441Q35.8887-75.2441 29.6875-72.583Q23.4863-69.9219 18.7988-65.2344Q14.1113-60.5469 11.4502-54.3457Q8.78906-48.1445 8.78906-41.0645ZM24.7559-41.0645Q24.7559-44.8242 26.1719-48.1201Q27.5879-51.416 30.1025-53.9307Q32.6172-56.4453 35.9131-57.8613Q39.209-59.2773 42.9688-59.2773Q46.7285-59.2773 50.0244-57.8613Q53.3203-56.4453 55.835-53.9307Q58.3496-51.416 59.7656-48.1201Q61.1816-44.8242 61.1816-41.0645Q61.1816-37.3047 59.7656-34.0088Q58.3496-30.7129 55.835-28.1982Q53.3203-25.6836 50.0244-24.2676Q46.7285-22.8516 42.9688-22.8516Q39.209-22.8516 35.9131-24.2676Q32.6172-25.6836 30.1025-28.1982Q27.5879-30.7129 26.1719-34.0088Q24.7559-37.3047 24.7559-41.0645Z"/>
  </g>
  <g id="Heavy-S" transform="matrix(1 0 0 1 2588.68 696)">
   <path d="M8.78906-41.341Q8.78906-34.4223 11.3926-28.3537Q13.9961-22.285 18.5856-17.6955Q23.1752-13.1059 29.238-10.5082Q35.3009-7.91044 42.2312-7.91044Q46.2675-7.91044 50.0323-8.85304Q53.7971-9.79563 57.1465-11.4998L70.088 1.45332Q71.5408 2.89451 73.4197 3.59069Q75.2987 4.28687 77.2825 4.28687Q81.5572 4.28687 84.3979 1.41602Q87.2386-1.45484 87.2386-5.69229Q87.2386-7.65027 86.5366-9.48618Q85.8347-11.3221 84.3793-12.7891L71.61-25.5699Q73.5582-29.0543 74.61-33.0574Q75.6618-37.0605 75.6618-41.341Q75.6618-48.2713 73.0583-54.3342Q70.4548-60.3971 65.871-64.9866Q61.2872-69.5761 55.2186-72.1797Q49.1499-74.7832 42.2312-74.7832Q35.3009-74.7832 29.238-72.1797Q23.1752-69.5761 18.5856-64.9866Q13.9961-60.3971 11.3926-54.3342Q8.78906-48.2713 8.78906-41.341ZM22.7621-41.341Q22.7621-45.3659 24.2703-48.8923Q25.7785-52.4186 28.4661-55.1004Q31.1536-57.7822 34.68-59.2961Q38.2064-60.8101 42.2312-60.8101Q46.256-60.8101 49.7766-59.2961Q53.2973-57.7822 55.9848-55.1004Q58.6723-52.4186 60.1863-48.8923Q61.7002-45.3659 61.7002-41.341Q61.7002-37.3162 60.1863-33.7956Q58.6723-30.275 55.9848-27.5874Q53.2973-24.8999 49.7766-23.386Q46.256-21.872 42.2312-21.872Q38.2064-21.872 34.68-23.386Q31.1536-24.8999 28.4661-27.5874Q25.7785-30.275 24.2703-33.7956Q22.7621-37.3162 22.7621-41.341Z"/>
  </g>
  <g id="Bold-S" transform="matrix(1 0 0 1 2292.49 696)">
   <path d="M8.78906-41.6504Q8.78906-34.9121 11.3281-28.9917Q13.8672-23.0713 18.3472-18.5913Q22.8271-14.1113 28.7354-11.5845Q34.6436-9.05762 41.4062-9.05762Q45.752-9.05762 49.7681-10.1807Q53.7842-11.3037 57.2754-13.3301L72.0215 1.44043Q73.2422 2.63672 74.7925 3.21045Q76.3428 3.78418 77.9785 3.78418Q81.5186 3.78418 83.8501 1.41602Q86.1816-0.952148 86.1816-4.46777Q86.1816-6.10352 85.5957-7.61719Q85.0098-9.13086 83.8379-10.3271L69.2383-24.9512Q71.5088-28.5645 72.7539-32.8125Q73.999-37.0605 73.999-41.6504Q73.999-48.4131 71.46-54.3213Q68.9209-60.2295 64.4531-64.7095Q59.9854-69.1895 54.0649-71.7285Q48.1445-74.2676 41.4062-74.2676Q34.6436-74.2676 28.7354-71.7285Q22.8271-69.1895 18.3472-64.7095Q13.8672-60.2295 11.3281-54.3213Q8.78906-48.4131 8.78906-41.6504ZM20.5322-41.6504Q20.5322-45.9717 22.1436-49.7559Q23.7549-53.54 26.6357-56.4087Q29.5166-59.2773 33.3008-60.9009Q37.085-62.5244 41.4062-62.5244Q45.7275-62.5244 49.4995-60.9009Q53.2715-59.2773 56.1523-56.4087Q59.0332-53.54 60.6567-49.7559Q62.2803-45.9717 62.2803-41.6504Q62.2803-37.3291 60.6567-33.5571Q59.0332-29.7852 56.1523-26.9043Q53.2715-24.0234 49.4995-22.3999Q45.7275-20.7764 41.4062-20.7764Q37.085-20.7764 33.3008-22.3999Q29.5166-24.0234 26.6357-26.9043Q23.7549-29.7852 22.1436-33.5571Q20.5322-37.3291 20.5322-41.6504Z"/>
  </g>
  <g id="Semibold-S" transform="matrix(1 0 0 1 1996.15 696)">
   <path d="M8.78906-41.8637Q8.78906-35.2498 11.2837-29.4316Q13.7783-23.6134 18.1828-19.2089Q22.5872-14.8045 28.3888-12.3265Q34.1903-9.84854 40.8375-9.84854Q45.3965-9.84854 49.5859-11.096Q53.7753-12.3435 57.3643-14.592L73.3545 1.43154Q74.4152 2.45898 75.7389 2.94829Q77.0626 3.4376 78.4584 3.4376Q81.4919 3.4376 83.4724 1.41602Q85.4529-0.605566 85.4529-3.62354Q85.4529-5.03711 84.947-6.32861Q84.441-7.62012 83.4646-8.62979L67.6031-24.5246Q70.0958-28.2268 71.4742-32.6437Q72.8526-37.0605 72.8526-41.8637Q72.8526-48.5108 70.358-54.3124Q67.8634-60.114 63.4756-64.5184Q59.0878-68.9229 53.2696-71.4175Q47.4514-73.9121 40.8375-73.9121Q34.1903-73.9121 28.3888-71.4175Q22.5872-68.9229 18.1828-64.5184Q13.7783-60.114 11.2837-54.3124Q8.78906-48.5108 8.78906-41.8637ZM18.9948-41.8637Q18.9948-46.3894 20.6772-50.3513Q22.3597-54.3132 25.3738-57.3107Q28.388-60.3082 32.3499-62.0073Q36.3118-63.7063 40.8375-63.7063Q45.3632-63.7063 49.3084-62.0073Q53.2537-60.3082 56.2679-57.3107Q59.282-54.3132 60.9811-50.3513Q62.6802-46.3894 62.6802-41.8637Q62.6802-37.338 60.9811-33.3927Q59.282-29.4475 56.2679-26.4333Q53.2537-23.4191 49.3084-21.7201Q45.3632-20.021 40.8375-20.021Q36.3118-20.021 32.3499-21.7201Q28.388-23.4191 25.3738-26.4333Q22.3597-29.4475 20.6772-33.3927Q18.9948-37.338 18.9948-41.8637Z"/>
  </g>
  <g id="Medium-S" transform="matrix(1 0 0 1 1699.71 696)">
   <path d="M8.78906-42.0254Q8.78906-35.5059 11.25-29.7651Q13.7109-24.0244 18.0581-19.6772Q22.4053-15.3301 28.126-12.8892Q33.8467-10.4482 40.4062-10.4482Q45.127-10.4482 49.4478-11.79Q53.7686-13.1318 57.4316-15.5488L74.3652 1.4248Q75.3047 2.32422 76.4565 2.74951Q77.6084 3.1748 78.8223 3.1748Q81.4717 3.1748 83.186 1.41602Q84.9004-0.342773 84.9004-2.9834Q84.9004-4.22852 84.4551-5.35156Q84.0098-6.47461 83.1816-7.34277L66.3633-24.2012Q69.0244-27.9707 70.5039-32.5156Q71.9834-37.0605 71.9834-42.0254Q71.9834-48.585 69.5225-54.3057Q67.0615-60.0264 62.7344-64.3735Q58.4072-68.7207 52.6665-71.1816Q46.9258-73.6426 40.4062-73.6426Q33.8467-73.6426 28.126-71.1816Q22.4053-68.7207 18.0581-64.3735Q13.7109-60.0264 11.25-54.3057Q8.78906-48.585 8.78906-42.0254ZM17.8291-42.0254Q17.8291-46.7061 19.5654-50.8027Q21.3018-54.8994 24.417-57.9946Q27.5322-61.0898 31.6289-62.8462Q35.7256-64.6025 40.4062-64.6025Q45.0869-64.6025 49.1636-62.8462Q53.2402-61.0898 56.3555-57.9946Q59.4707-54.8994 61.2271-50.8027Q62.9834-46.7061 62.9834-42.0254Q62.9834-37.3447 61.2271-33.2681Q59.4707-29.1914 56.3555-26.0762Q53.2402-22.9609 49.1636-21.2046Q45.0869-19.4482 40.4062-19.4482Q35.7256-19.4482 31.6289-21.2046Q27.5322-22.9609 24.417-26.0762Q21.3018-29.1914 19.5654-33.2681Q17.8291-37.3447 17.8291-42.0254Z"/>
  </g>
  <g id="Regular-S" transform="matrix(1 0 0 1 1403.36 696)">
   <path d="M8.78906-42.2363Q8.78906-35.8398 11.2061-30.2002Q13.623-24.5605 17.8955-20.2881Q22.168-16.0156 27.7832-13.623Q33.3984-11.2305 39.8438-11.2305Q44.7754-11.2305 49.2676-12.6953Q53.7598-14.1602 57.5195-16.7969L75.6836 1.41602Q76.4648 2.14844 77.3926 2.49023Q78.3203 2.83203 79.2969 2.83203Q81.4453 2.83203 82.8125 1.41602Q84.1797 0 84.1797-2.14844Q84.1797-3.17383 83.8135-4.07715Q83.4473-4.98047 82.8125-5.66406L64.7461-23.7793Q67.627-27.6367 69.2383-32.3486Q70.8496-37.0605 70.8496-42.2363Q70.8496-48.6816 68.4326-54.2969Q66.0156-59.9121 61.7676-64.1846Q57.5195-68.457 51.8799-70.874Q46.2402-73.291 39.8438-73.291Q33.3984-73.291 27.7832-70.874Q22.168-68.457 17.8955-64.1846Q13.623-59.9121 11.2061-54.2969Q8.78906-48.6816 8.78906-42.2363ZM16.3086-42.2363Q16.3086-47.1191 18.1152-51.3916Q19.9219-55.6641 23.1689-58.8867Q26.416-62.1094 30.6885-63.9404Q34.9609-65.7715 39.8438-65.7715Q44.7266-65.7715 48.9746-63.9404Q53.2227-62.1094 56.4697-58.8867Q59.7168-55.6641 61.5479-51.3916Q63.3789-47.1191 63.3789-42.2363Q63.3789-37.3535 61.5479-33.1055Q59.7168-28.8574 56.4697-25.6104Q53.2227-22.3633 48.9746-20.5322Q44.7266-18.7012 39.8438-18.7012Q34.9609-18.7012 30.6885-20.5322Q26.416-22.3633 23.1689-25.6104Q19.9219-28.8574 18.1152-33.1055Q16.3086-37.3535 16.3086-42.2363Z"/>
  </g>
  <g id="Light-S" transform="matrix(1 0 0 1 1107.23 696)">
   <path d="M8.78906-42.5944Q8.78906-36.377 11.141-30.9245Q13.4928-25.472 17.6351-21.3216Q21.7773-17.1712 27.2135-14.8438Q32.6497-12.5163 38.8997-12.5163Q43.8965-12.5163 48.4212-14.0625Q52.946-15.6087 56.6732-18.3919L76.0579 1.05794Q76.6764 1.64388 77.4333 1.93685Q78.1901 2.22982 78.9876 2.22982Q80.7943 2.22982 81.901 1.0498Q83.0078-0.130208 83.0078-1.87174Q83.0078-2.70182 82.7148-3.43424Q82.4219-4.16667 81.8848-4.73633L62.5651-24.1048Q65.5762-27.9134 67.277-32.6497Q68.9779-37.3861 68.9779-42.5944Q68.9779-48.8281 66.6341-54.2725Q64.2904-59.7168 60.1644-63.8672Q56.0384-68.0176 50.5697-70.3613Q45.1009-72.7051 38.8997-72.7051Q32.6497-72.7051 27.2135-70.3613Q21.7773-68.0176 17.6351-63.8672Q13.4928-59.7168 11.141-54.2725Q8.78906-48.8281 8.78906-42.5944ZM14.5345-42.5944Q14.5345-47.64 16.4144-52.0508Q18.2943-56.4616 21.6553-59.8063Q25.0163-63.151 29.4352-65.0553Q33.8542-66.9596 38.8997-66.9596Q43.9453-66.9596 48.3398-65.0553Q52.7344-63.151 56.0954-59.8063Q59.4564-56.4616 61.3607-52.0508Q63.265-47.64 63.265-42.5944Q63.265-37.5488 61.3607-33.1462Q59.4564-28.7435 56.0954-25.3906Q52.7344-22.0378 48.3398-20.1335Q43.9453-18.2292 38.8997-18.2292Q33.8542-18.2292 29.4352-20.1335Q25.0163-22.0378 21.6553-25.3906Q18.2943-28.7435 16.4144-33.1462Q14.5345-37.5488 14.5345-42.5944Z"/>
  </g>
  <g id="Thin-S" transform="matrix(1 0 0 1 811.299 696)">
   <path d="M8.78906-43.068Q8.78906-37.0873 11.0548-31.8824Q13.3206-26.6775 17.2907-22.6885Q21.2607-18.6996 26.4601-16.4582Q31.6595-14.2169 37.6512-14.2169Q42.7341-14.2169 47.3019-15.8707Q51.8696-17.5246 55.5538-20.5015L76.553 0.584362Q76.9563 0.976563 77.4871 1.20495Q78.0179 1.43334 78.5786 1.43334Q79.9332 1.43334 80.6956 0.565461Q81.4579-0.302419 81.4579-1.5058Q81.4579-2.07756 81.2618-2.58395Q81.0657-3.09035 80.6578-3.50932L59.6806-24.5353Q62.8638-28.2794 64.6831-33.048Q66.5023-37.8166 66.5023-43.068Q66.5023-49.0219 64.2554-54.2402Q62.0086-59.4585 58.044-63.4474Q54.0795-67.4364 48.8368-69.6832Q43.5941-71.9301 37.6512-71.9301Q31.6595-71.9301 26.4601-69.6832Q21.2607-67.4364 17.2907-63.4474Q13.3206-59.4585 11.0548-54.2402Q8.78906-49.0219 8.78906-43.068ZM12.1881-43.068Q12.1881-48.3288 14.1649-52.9226Q16.1416-57.5164 19.6533-61.0226Q23.165-64.5287 27.7777-66.5299Q32.3904-68.5311 37.6512-68.5311Q42.912-68.5311 47.5003-66.5299Q52.0886-64.5287 55.6003-61.0226Q59.112-57.5164 61.1131-52.9226Q63.1143-48.3288 63.1143-43.068Q63.1143-37.8071 61.1131-33.2Q59.112-28.5928 55.6003-25.1Q52.0886-21.6072 47.5003-19.6061Q42.912-17.6049 37.6512-17.6049Q32.3904-17.6049 27.7777-19.6061Q23.165-21.6072 19.6533-25.1Q16.1416-28.5928 14.1649-33.2Q12.1881-37.8071 12.1881-43.068Z"/>
  </g>
  <g id="Ultralight-S" transform="matrix(1 0 0 1 514.985 696)">
   <path d="M8.78906-43.3105Q8.78906-37.4512 11.0107-32.373Q13.2324-27.2949 17.1143-23.3887Q20.9961-19.4824 26.0742-17.2852Q31.1523-15.0879 37.0117-15.0879Q42.1387-15.0879 46.7285-16.7969Q51.3184-18.5059 54.9805-21.582L76.8066 0.341797Q77.0996 0.634766 77.5146 0.830078Q77.9297 1.02539 78.3691 1.02539Q79.4922 1.02539 80.0781 0.317383Q80.6641-0.390625 80.6641-1.31836Q80.6641-1.75781 80.5176-2.14844Q80.3711-2.53906 80.0293-2.88086L58.2031-24.7559Q61.4746-28.4668 63.3545-33.252Q65.2344-38.0371 65.2344-43.3105Q65.2344-49.1211 63.0371-54.2236Q60.8398-59.3262 56.958-63.2324Q53.0762-67.1387 47.9492-69.3359Q42.8223-71.5332 37.0117-71.5332Q31.1523-71.5332 26.0742-69.3359Q20.9961-67.1387 17.1143-63.2324Q13.2324-59.3262 11.0107-54.2236Q8.78906-49.1211 8.78906-43.3105ZM10.9863-43.3105Q10.9863-48.6816 13.0127-53.3691Q15.0391-58.0566 18.6279-61.6455Q22.2168-65.2344 26.9287-67.2852Q31.6406-69.3359 37.0117-69.3359Q42.3828-69.3359 47.0703-67.2852Q51.7578-65.2344 55.3467-61.6455Q58.9355-58.0566 60.9863-53.3691Q63.0371-48.6816 63.0371-43.3105Q63.0371-37.9395 60.9863-33.2275Q58.9355-28.5156 55.3467-24.9512Q51.7578-21.3867 47.0703-19.3359Q42.3828-17.2852 37.0117-17.2852Q31.6406-17.2852 26.9287-19.3359Q22.2168-21.3867 18.6279-24.9512Q15.0391-28.5156 13.0127-33.2275Q10.9863-37.9395 10.9863-43.3105Z"/>
  </g>
 </g>
</svg>
