<?xml version="1.0" encoding="UTF-8"?>
<!--Generator: Apple Native CoreSVG 175-->
<!DOCTYPE svg
PUBLIC "-//W3C//DTD SVG 1.1//EN"
       "http://www.w3.org/Graphics/SVG/1.1/DTD/svg11.dtd">
<svg version="1.1" xmlns="http://www.w3.org/2000/svg" xmlns:xlink="http://www.w3.org/1999/xlink" width="3300" height="2200">
 <!--glyph: "uni1002AB.medium", point size: 100.0, font version: "17.1d1e1", template writer version: "65.1"-->
 <g id="Notes">
  <rect height="2200" id="artboard" style="fill:white;opacity:1" width="3300" x="0" y="0"/>
  <line style="fill:none;stroke:black;opacity:1;stroke-width:0.5;" x1="263" x2="3036" y1="292" y2="292"/>
  <text style="stroke:none;fill:black;font-family:sans-serif;font-size:13;font-weight:bold;" transform="matrix(1 0 0 1 263 322)">Weight/Scale Variations</text>
  <text style="stroke:none;fill:black;font-family:sans-serif;font-size:13;text-anchor:middle;" transform="matrix(1 0 0 1 559.711 322)">Ultralight</text>
  <text style="stroke:none;fill:black;font-family:sans-serif;font-size:13;text-anchor:middle;" transform="matrix(1 0 0 1 856.422 322)">Thin</text>
  <text style="stroke:none;fill:black;font-family:sans-serif;font-size:13;text-anchor:middle;" transform="matrix(1 0 0 1 1153.13 322)">Light</text>
  <text style="stroke:none;fill:black;font-family:sans-serif;font-size:13;text-anchor:middle;" transform="matrix(1 0 0 1 1449.84 322)">Regular</text>
  <text style="stroke:none;fill:black;font-family:sans-serif;font-size:13;text-anchor:middle;" transform="matrix(1 0 0 1 1746.56 322)">Medium</text>
  <text style="stroke:none;fill:black;font-family:sans-serif;font-size:13;text-anchor:middle;" transform="matrix(1 0 0 1 2043.27 322)">Semibold</text>
  <text style="stroke:none;fill:black;font-family:sans-serif;font-size:13;text-anchor:middle;" transform="matrix(1 0 0 1 2339.98 322)">Bold</text>
  <text style="stroke:none;fill:black;font-family:sans-serif;font-size:13;text-anchor:middle;" transform="matrix(1 0 0 1 2636.69 322)">Heavy</text>
  <text style="stroke:none;fill:black;font-family:sans-serif;font-size:13;text-anchor:middle;" transform="matrix(1 0 0 1 2933.4 322)">Black</text>
  <line style="fill:none;stroke:black;opacity:1;stroke-width:0.5;" x1="263" x2="3036" y1="1903" y2="1903"/>
  <g transform="matrix(1 0 0 1 263 1933)">
   <path d="M9.24805 0.830078Q10.8691 0.830078 12.2949 0.214844Q13.7207-0.400391 14.8096-1.49414Q15.8984-2.58789 16.5186-4.01367Q17.1387-5.43945 17.1387-7.05078Q17.1387-8.66211 16.5186-10.0879Q15.8984-11.5137 14.8047-12.6074Q13.7109-13.7012 12.2852-14.3164Q10.8594-14.9316 9.23828-14.9316Q7.62695-14.9316 6.20117-14.3164Q4.77539-13.7012 3.69141-12.6074Q2.60742-11.5137 1.9873-10.0879Q1.36719-8.66211 1.36719-7.05078Q1.36719-5.43945 1.9873-4.01367Q2.60742-2.58789 3.69629-1.49414Q4.78516-0.400391 6.21094 0.214844Q7.63672 0.830078 9.24805 0.830078ZM9.24805-0.654297Q7.91992-0.654297 6.7627-1.14746Q5.60547-1.64062 4.73145-2.51953Q3.85742-3.39844 3.36426-4.56055Q2.87109-5.72266 2.87109-7.05078Q2.87109-8.37891 3.35938-9.54102Q3.84766-10.7031 4.72168-11.582Q5.5957-12.4609 6.75293-12.9541Q7.91016-13.4473 9.23828-13.4473Q10.5762-13.4473 11.7334-12.9541Q12.8906-12.4609 13.7695-11.582Q14.6484-10.7031 15.1465-9.54102Q15.6445-8.37891 15.6445-7.05078Q15.6445-5.72266 15.1514-4.56055Q14.6582-3.39844 13.7842-2.51953Q12.9102-1.64062 11.748-1.14746Q10.5859-0.654297 9.24805-0.654297ZM5.6543-7.05078Q5.6543-6.72852 5.85938-6.52832Q6.06445-6.32812 6.40625-6.32812L8.51562-6.32812L8.51562-4.20898Q8.51562-3.88672 8.71094-3.67676Q8.90625-3.4668 9.23828-3.4668Q9.56055-3.4668 9.77051-3.67676Q9.98047-3.88672 9.98047-4.20898L9.98047-6.32812L12.0898-6.32812Q12.4219-6.32812 12.627-6.52832Q12.832-6.72852 12.832-7.05078Q12.832-7.38281 12.627-7.58789Q12.4219-7.79297 12.0898-7.79297L9.98047-7.79297L9.98047-9.90234Q9.98047-10.2344 9.77051-10.4443Q9.56055-10.6543 9.23828-10.6543Q8.90625-10.6543 8.71094-10.4443Q8.51562-10.2344 8.51562-9.90234L8.51562-7.79297L6.40625-7.79297Q6.06445-7.79297 5.85938-7.58789Q5.6543-7.38281 5.6543-7.05078Z"/>
  </g>
  <g transform="matrix(1 0 0 1 281.867 1933)">
   <path d="M11.709 2.91016Q13.75 2.91016 15.5518 2.12891Q17.3535 1.34766 18.7305-0.0292969Q20.1074-1.40625 20.8887-3.20801Q21.6699-5.00977 21.6699-7.05078Q21.6699-9.0918 20.8887-10.8936Q20.1074-12.6953 18.7305-14.0723Q17.3535-15.4492 15.5469-16.2305Q13.7402-17.0117 11.6992-17.0117Q9.6582-17.0117 7.85645-16.2305Q6.05469-15.4492 4.68262-14.0723Q3.31055-12.6953 2.5293-10.8936Q1.74805-9.0918 1.74805-7.05078Q1.74805-5.00977 2.5293-3.20801Q3.31055-1.40625 4.6875-0.0292969Q6.06445 1.34766 7.86621 2.12891Q9.66797 2.91016 11.709 2.91016ZM11.709 1.25Q9.98047 1.25 8.47656 0.605469Q6.97266-0.0390625 5.83496-1.17676Q4.69727-2.31445 4.05762-3.81836Q3.41797-5.32227 3.41797-7.05078Q3.41797-8.7793 4.05762-10.2832Q4.69727-11.7871 5.83008-12.9297Q6.96289-14.0723 8.4668-14.7119Q9.9707-15.3516 11.6992-15.3516Q13.4277-15.3516 14.9316-14.7119Q16.4355-14.0723 17.5781-12.9297Q18.7207-11.7871 19.3652-10.2832Q20.0098-8.7793 20.0098-7.05078Q20.0098-5.32227 19.3701-3.81836Q18.7305-2.31445 17.5928-1.17676Q16.4551-0.0390625 14.9463 0.605469Q13.4375 1.25 11.709 1.25ZM7.17773-7.05078Q7.17773-6.69922 7.41211-6.47461Q7.64648-6.25 8.01758-6.25L10.8887-6.25L10.8887-3.36914Q10.8887-2.99805 11.1133-2.76855Q11.3379-2.53906 11.6895-2.53906Q12.0605-2.53906 12.29-2.76855Q12.5195-2.99805 12.5195-3.36914L12.5195-6.25L15.4004-6.25Q15.7715-6.25 16.001-6.47461Q16.2305-6.69922 16.2305-7.05078Q16.2305-7.42188 16.001-7.65137Q15.7715-7.88086 15.4004-7.88086L12.5195-7.88086L12.5195-10.752Q12.5195-11.1328 12.29-11.3623Q12.0605-11.5918 11.6895-11.5918Q11.3379-11.5918 11.1133-11.3574Q10.8887-11.123 10.8887-10.752L10.8887-7.88086L8.01758-7.88086Q7.63672-7.88086 7.40723-7.65137Q7.17773-7.42188 7.17773-7.05078Z"/>
  </g>
  <g transform="matrix(1 0 0 1 305.646 1933)">
   <path d="M14.9707 5.66406Q17.0605 5.66406 18.96 5.01465Q20.8594 4.36523 22.4512 3.19336Q24.043 2.02148 25.2197 0.429688Q26.3965-1.16211 27.0459-3.06641Q27.6953-4.9707 27.6953-7.05078Q27.6953-9.14062 27.0459-11.04Q26.3965-12.9395 25.2197-14.5312Q24.043-16.123 22.4512-17.2998Q20.8594-18.4766 18.9551-19.126Q17.0508-19.7754 14.9609-19.7754Q12.8711-19.7754 10.9717-19.126Q9.07227-18.4766 7.48535-17.2998Q5.89844-16.123 4.72168-14.5312Q3.54492-12.9395 2.90039-11.04Q2.25586-9.14062 2.25586-7.05078Q2.25586-4.9707 2.90527-3.06641Q3.55469-1.16211 4.72656 0.429688Q5.89844 2.02148 7.49023 3.19336Q9.08203 4.36523 10.9814 5.01465Q12.8809 5.66406 14.9707 5.66406ZM14.9707 3.84766Q13.1641 3.84766 11.5283 3.2959Q9.89258 2.74414 8.53516 1.74805Q7.17773 0.751953 6.17676-0.610352Q5.17578-1.97266 4.62891-3.6084Q4.08203-5.24414 4.08203-7.05078Q4.08203-8.86719 4.62891-10.5029Q5.17578-12.1387 6.17188-13.501Q7.16797-14.8633 8.52539-15.8594Q9.88281-16.8555 11.5186-17.4023Q13.1543-17.9492 14.9609-17.9492Q16.7773-17.9492 18.4131-17.4023Q20.0488-16.8555 21.4111-15.8594Q22.7734-14.8633 23.7695-13.501Q24.7656-12.1387 25.3174-10.5029Q25.8691-8.86719 25.8691-7.05078Q25.8789-5.24414 25.332-3.6084Q24.7852-1.97266 23.7842-0.610352Q22.7832 0.751953 21.4209 1.74805Q20.0586 2.74414 18.4229 3.2959Q16.7871 3.84766 14.9707 3.84766ZM9.19922-7.05078Q9.19922-6.66992 9.45801-6.4209Q9.7168-6.17188 10.1172-6.17188L14.0625-6.17188L14.0625-2.2168Q14.0625-1.81641 14.3115-1.55762Q14.5605-1.29883 14.9512-1.29883Q15.3516-1.29883 15.6104-1.55273Q15.8691-1.80664 15.8691-2.2168L15.8691-6.17188L19.8242-6.17188Q20.2246-6.17188 20.4785-6.4209Q20.7324-6.66992 20.7324-7.05078Q20.7324-7.46094 20.4785-7.71484Q20.2246-7.96875 19.8242-7.96875L15.8691-7.96875L15.8691-11.9141Q15.8691-12.3242 15.6104-12.583Q15.3516-12.8418 14.9512-12.8418Q14.5605-12.8418 14.3115-12.583Q14.0625-12.3242 14.0625-11.9141L14.0625-7.96875L10.1172-7.96875Q9.70703-7.96875 9.45312-7.71484Q9.19922-7.46094 9.19922-7.05078Z"/>
  </g>
  <text style="stroke:none;fill:black;font-family:sans-serif;font-size:13;font-weight:bold;" transform="matrix(1 0 0 1 263 1953)">Design Variations</text>
  <text style="stroke:none;fill:black;font-family:sans-serif;font-size:13;" transform="matrix(1 0 0 1 263 1971)">Symbols are supported in up to nine weights and three scales.</text>
  <text style="stroke:none;fill:black;font-family:sans-serif;font-size:13;" transform="matrix(1 0 0 1 263 1989)">For optimal layout with text and other symbols, vertically align</text>
  <text style="stroke:none;fill:black;font-family:sans-serif;font-size:13;" transform="matrix(1 0 0 1 263 2007)">symbols with the adjacent text.</text>
  <line style="fill:none;stroke:#00AEEF;stroke-width:0.5;opacity:1.0;" x1="776" x2="776" y1="1919" y2="1933"/>
  <g transform="matrix(1 0 0 1 776 1933)">
   <path d="M3.31055 0.15625Q3.70117 0.15625 3.91602-0.00976562Q4.13086-0.175781 4.26758-0.585938L5.52734-4.0332L11.2891-4.0332L12.5488-0.585938Q12.6855-0.175781 12.9004-0.00976562Q13.1152 0.15625 13.4961 0.15625Q13.8867 0.15625 14.1162-0.0585938Q14.3457-0.273438 14.3457-0.644531Q14.3457-0.869141 14.2383-1.17188L9.6582-13.3691Q9.48242-13.8184 9.17969-14.043Q8.87695-14.2676 8.4082-14.2676Q7.5-14.2676 7.17773-13.3789L2.59766-1.16211Q2.49023-0.859375 2.49023-0.634766Q2.49023-0.263672 2.70996-0.0537109Q2.92969 0.15625 3.31055 0.15625ZM6.00586-5.51758L8.37891-12.0898L8.42773-12.0898L10.8008-5.51758Z"/>
  </g>
  <line style="fill:none;stroke:#00AEEF;stroke-width:0.5;opacity:1.0;" x1="793.197" x2="793.197" y1="1919" y2="1933"/>
  <text style="stroke:none;fill:black;font-family:sans-serif;font-size:13;font-weight:bold;" transform="matrix(1 0 0 1 776 1953)">Margins</text>
  <text style="stroke:none;fill:black;font-family:sans-serif;font-size:13;" transform="matrix(1 0 0 1 776 1971)">Leading and trailing margins on the left and right side of each symbol</text>
  <text style="stroke:none;fill:black;font-family:sans-serif;font-size:13;" transform="matrix(1 0 0 1 776 1989)">can be adjusted by modifying the x-location of the margin guidelines.</text>
  <text style="stroke:none;fill:black;font-family:sans-serif;font-size:13;" transform="matrix(1 0 0 1 776 2007)">Modifications are automatically applied proportionally to all</text>
  <text style="stroke:none;fill:black;font-family:sans-serif;font-size:13;" transform="matrix(1 0 0 1 776 2025)">scales and weights.</text>
  <g transform="matrix(1 0 0 1 1289 1933)">
   <path d="M2.8418 1.86523L4.54102 3.57422Q5.18555 4.22852 5.90332 4.17969Q6.62109 4.13086 7.31445 3.35938L18.0078-8.42773L17.041-9.4043L6.42578 2.27539Q6.16211 2.57812 5.89355 2.61719Q5.625 2.65625 5.27344 2.30469L4.10156 1.14258Q3.75 0.791016 3.79395 0.522461Q3.83789 0.253906 4.14062-0.0195312L15.6152-10.8203L14.6387-11.7871L3.04688-0.898438Q2.30469-0.214844 2.25098 0.498047Q2.19727 1.21094 2.8418 1.86523ZM9.25781-16.3281Q8.94531-16.0254 8.90625-15.6348Q8.86719-15.2441 9.04297-14.9512Q9.21875-14.6777 9.55566-14.541Q9.89258-14.4043 10.3809-14.5215Q11.4746-14.7754 12.5977-14.7314Q13.7207-14.6875 14.7949-13.9844L14.209-12.5293Q13.9551-11.9043 14.0674-11.4404Q14.1797-10.9766 14.5801-10.5664L16.875-8.25195Q17.2363-7.88086 17.5781-7.82227Q17.9199-7.76367 18.3398-7.8418L19.4043-8.03711L20.0684-7.36328L20.0293-6.80664Q20-6.43555 20.1221-6.12305Q20.2441-5.81055 20.6055-5.44922L21.3672-4.70703Q21.7285-4.3457 22.1533-4.33105Q22.5781-4.31641 22.9297-4.66797L25.8398-7.58789Q26.1914-7.93945 26.1816-8.35449Q26.1719-8.76953 25.8105-9.13086L25.0391-9.89258Q24.6875-10.2539 24.3799-10.3857Q24.0723-10.5176 23.7109-10.4883L23.1348-10.4395L22.4902-11.0742L22.7344-12.1973Q22.832-12.6172 22.6953-12.9834Q22.5586-13.3496 22.1191-13.7891L19.9219-15.9766Q18.6719-17.2168 17.2607-17.8369Q15.8496-18.457 14.4189-18.4814Q12.9883-18.5059 11.665-17.959Q10.3418-17.4121 9.25781-16.3281ZM10.752-15.957Q11.6602-16.6211 12.7002-16.9043Q13.7402-17.1875 14.8047-17.085Q15.8691-16.9824 16.8701-16.5137Q17.8711-16.0449 18.7012-15.2051L21.1328-12.793Q21.3086-12.6172 21.3525-12.4512Q21.3965-12.2852 21.3379-12.0312L21.0156-10.5469L22.5195-9.0625L23.5059-9.12109Q23.6914-9.13086 23.7891-9.09668Q23.8867-9.0625 24.0332-8.91602L24.6094-8.33984L22.168-5.89844L21.5918-6.47461Q21.4453-6.62109 21.4062-6.71875Q21.3672-6.81641 21.377-7.01172L21.4453-7.98828L19.9512-9.47266L18.4277-9.21875Q18.1836-9.16992 18.042-9.2041Q17.9004-9.23828 17.7148-9.41406L15.7129-11.416Q15.5176-11.5918 15.4932-11.7529Q15.4688-11.9141 15.5859-12.1875L16.4648-14.2773Q15.293-15.3711 13.8281-15.791Q12.3633-16.2109 10.8398-15.7617Q10.7227-15.7324 10.6885-15.8057Q10.6543-15.8789 10.752-15.957Z"/>
  </g>
  <text style="stroke:none;fill:black;font-family:sans-serif;font-size:13;font-weight:bold;" transform="matrix(1 0 0 1 1289 1953)">Exporting</text>
  <text style="stroke:none;fill:black;font-family:sans-serif;font-size:13;" transform="matrix(1 0 0 1 1289 1971)">Symbols should be outlined when exporting to ensure the</text>
  <text style="stroke:none;fill:black;font-family:sans-serif;font-size:13;" transform="matrix(1 0 0 1 1289 1989)">design is preserved when submitting to Xcode.</text>
  <text id="template-version" style="stroke:none;fill:black;font-family:sans-serif;font-size:13;text-anchor:end;" transform="matrix(1 0 0 1 3036 1933)">Template v.3.0</text>
  <text style="stroke:none;fill:black;font-family:sans-serif;font-size:13;text-anchor:end;" transform="matrix(1 0 0 1 3036 1951)">Requires Xcode 13 or greater</text>
  <text id="descriptive-name" style="stroke:none;fill:black;font-family:sans-serif;font-size:13;text-anchor:end;" transform="matrix(1 0 0 1 3036 1969)">Generated from magnifyingglass</text>
  <text style="stroke:none;fill:black;font-family:sans-serif;font-size:13;text-anchor:end;" transform="matrix(1 0 0 1 3036 1987)">Typeset at 100 points</text>
  <text style="stroke:none;fill:black;font-family:sans-serif;font-size:13;" transform="matrix(1 0 0 1 263 726)">Small</text>
  <text style="stroke:none;fill:black;font-family:sans-serif;font-size:13;" transform="matrix(1 0 0 1 263 1156)">Medium</text>
  <text style="stroke:none;fill:black;font-family:sans-serif;font-size:13;" transform="matrix(1 0 0 1 263 1586)">Large</text>
 </g>
 <g id="Guides">
  <g id="H-reference" style="fill:#27AAE1;stroke:none;" transform="matrix(1 0 0 1 339 696)">
   <path d="M0.993347 0L3.6377 0L29.3282-67.1326L30.0301-67.1326L30.0301-70.459L28.1227-70.459ZM11.6882-24.4797L46.9818-24.4797L46.2311-26.7288L12.4382-26.7288ZM55.1193 0L57.7637 0L30.6381-70.459L29.4327-70.459L29.4327-67.1326Z"/>
  </g>
  <line id="Baseline-S" style="fill:none;stroke:#27AAE1;opacity:1;stroke-width:0.5;" x1="263" x2="3036" y1="696" y2="696"/>
  <line id="Capline-S" style="fill:none;stroke:#27AAE1;opacity:1;stroke-width:0.5;" x1="263" x2="3036" y1="625.541" y2="625.541"/>
  <g id="H-reference" style="fill:#27AAE1;stroke:none;" transform="matrix(1 0 0 1 339 1126)">
   <path d="M0.993347 0L3.6377 0L29.3282-67.1326L30.0301-67.1326L30.0301-70.459L28.1227-70.459ZM11.6882-24.4797L46.9818-24.4797L46.2311-26.7288L12.4382-26.7288ZM55.1193 0L57.7637 0L30.6381-70.459L29.4327-70.459L29.4327-67.1326Z"/>
  </g>
  <line id="Baseline-M" style="fill:none;stroke:#27AAE1;opacity:1;stroke-width:0.5;" x1="263" x2="3036" y1="1126" y2="1126"/>
  <line id="Capline-M" style="fill:none;stroke:#27AAE1;opacity:1;stroke-width:0.5;" x1="263" x2="3036" y1="1055.54" y2="1055.54"/>
  <g id="H-reference" style="fill:#27AAE1;stroke:none;" transform="matrix(1 0 0 1 339 1556)">
   <path d="M0.993347 0L3.6377 0L29.3282-67.1326L30.0301-67.1326L30.0301-70.459L28.1227-70.459ZM11.6882-24.4797L46.9818-24.4797L46.2311-26.7288L12.4382-26.7288ZM55.1193 0L57.7637 0L30.6381-70.459L29.4327-70.459L29.4327-67.1326Z"/>
  </g>
  <line id="Baseline-L" style="fill:none;stroke:#27AAE1;opacity:1;stroke-width:0.5;" x1="263" x2="3036" y1="1556" y2="1556"/>
  <line id="Capline-L" style="fill:none;stroke:#27AAE1;opacity:1;stroke-width:0.5;" x1="263" x2="3036" y1="1485.54" y2="1485.54"/>
  <line id="left-margin-Regular-M" style="fill:none;stroke:#00AEEF;stroke-width:0.5;opacity:1.0;" x1="1390.94" x2="1390.94" y1="1030.79" y2="1150.12"/>
  <line id="right-margin-Regular-M" style="fill:none;stroke:#00AEEF;stroke-width:0.5;opacity:1.0;" x1="1508.75" x2="1508.75" y1="1030.79" y2="1150.12"/>
 </g>
 <g id="Symbols">
  <g id="Black-L" transform="matrix(1 0 0 1 2854.49 1556)">
   <path d="M14.4756-45.3967Q14.4756-34.0584 18.743-24.1125Q23.0105-14.1667 30.5335-6.64309Q38.0565 0.880546 47.9919 5.13697Q57.9273 9.3934 69.2865 9.3934Q76.0119 9.3934 82.274 7.79191Q88.5361 6.19042 94.0836 3.29713L115.92 25.1554Q118.245 27.4606 121.248 28.5742Q124.252 29.6878 127.424 29.6878Q134.264 29.6878 138.803 25.0963Q143.341 20.5049 143.341 13.7279Q143.341 10.5945 142.218 7.66031Q141.094 4.72613 138.772 2.3821L117.211-19.1997Q120.507-24.9652 122.291-31.6178Q124.075-38.2704 124.075-45.3967Q124.075-56.7547 119.809-66.6901Q115.542-76.6255 108.029-84.1491Q100.516-91.6728 90.5701-95.9396Q80.6237-100.206 69.2865-100.206Q57.9273-100.206 47.9919-95.9396Q38.0565-91.6728 30.5335-84.1491Q23.0105-76.6255 18.743-66.6901Q14.4756-56.7547 14.4756-45.3967ZM36.8246-45.3967Q36.8246-52.1073 39.3389-57.9873Q41.8531-63.8673 46.3339-68.3377Q50.8147-72.808 56.6947-75.3327Q62.5747-77.8574 69.2865-77.8574Q75.9971-77.8574 81.8667-75.3327Q87.7362-72.808 92.217-68.3377Q96.6978-63.8673 99.2225-57.9873Q101.747-52.1073 101.747-45.3967Q101.747-38.6849 99.2225-32.8153Q96.6978-26.9458 92.217-22.465Q87.7362-17.9842 81.8667-15.4595Q75.9971-12.9348 69.2865-12.9348Q62.5747-12.9348 56.6947-15.4595Q50.8147-17.9842 46.3339-22.465Q41.8531-26.9458 39.3389-32.8153Q36.8246-38.6849 36.8246-45.3967Z"/>
  </g>
  <g id="Heavy-L" transform="matrix(1 0 0 1 2558.52 1556)">
   <path d="M14.4756-45.8335Q14.4756-34.7412 18.6542-25.0068Q22.8328-15.2725 30.2012-7.90137Q37.5695-0.530227 47.2887 3.6305Q57.008 7.79123 68.1305 7.79123Q75.2044 7.79123 81.7441 5.97246Q88.2839 4.1537 93.9741 0.876039L118.098 25.0356Q120.126 27.0392 122.727 28.0064Q125.329 28.9736 128.08 28.9736Q134.033 28.9736 137.952 24.9881Q141.871 21.0027 141.871 15.1169Q141.871 12.3855 140.891 9.84668Q139.912 7.3079 137.924 5.28427L114.039-18.6308Q117.719-24.5209 119.734-31.442Q121.75-38.3631 121.75-45.8335Q121.75-56.9504 117.574-66.6697Q113.398-76.3889 106.045-83.76Q98.6915-91.1312 88.9544-95.307Q79.2173-99.4828 68.1305-99.4828Q57.008-99.4828 47.2887-95.307Q37.5695-91.1312 30.2012-83.76Q22.8328-76.3889 18.6542-66.6697Q14.4756-56.9504 14.4756-45.8335ZM33.9232-45.8335Q33.9232-52.9054 36.5698-59.103Q39.2165-65.3006 43.9371-70.0062Q48.6578-74.7117 54.8555-77.3735Q61.0531-80.0352 68.1305-80.0352Q75.2023-80.0352 81.3848-77.3735Q87.5673-74.7117 92.288-70.0062Q97.0087-65.3006 99.6704-59.103Q102.332-52.9054 102.332-45.8335Q102.332-38.7561 99.6704-32.5736Q97.0087-26.391 92.288-21.6704Q87.5673-16.9497 81.3848-14.288Q75.2023-11.6263 68.1305-11.6263Q61.0531-11.6263 54.8555-14.288Q48.6578-16.9497 43.9371-21.6704Q39.2165-26.391 36.5698-32.5736Q33.9232-38.7561 33.9232-45.8335Z"/>
  </g>
  <g id="Bold-L" transform="matrix(1 0 0 1 2262.73 1556)">
   <path d="M14.4756-46.3863Q14.4756-35.6014 18.5428-26.1357Q22.61-16.6701 29.7825-9.49094Q36.955-2.31178 46.4017 1.72984Q55.8484 5.77146 66.6714 5.77146Q74.1459 5.77146 81.0015 3.69492Q87.8571 1.61837 93.7018-2.11337L120.601 24.8374Q122.268 26.4795 124.388 27.2735Q126.509 28.0675 128.76 28.0675Q133.659 28.0675 136.84 24.8015Q140.02 21.5354 140.02 16.7188Q140.02 14.4719 139.213 12.4062Q138.407 10.3405 136.812 8.69405L110.105-18.0506Q114.239-24.072 116.527-31.2975Q118.816-38.5231 118.816-46.3863Q118.816-57.1962 114.755-66.6428Q110.695-76.0894 103.541-83.2685Q96.3876-90.4477 86.9154-94.5084Q77.4433-98.569 66.6714-98.569Q55.8484-98.569 46.4017-94.5084Q36.955-90.4477 29.7825-83.2685Q22.61-76.0894 18.5428-66.6428Q14.4756-57.1962 14.4756-46.3863ZM30.3644-46.3863Q30.3644-53.8891 33.1725-60.4675Q35.9805-67.0458 40.9897-72.0359Q45.9988-77.026 52.5772-79.8531Q59.1555-82.6802 66.6714-82.6802Q74.174-82.6802 80.7333-79.8531Q87.2927-77.026 92.3018-72.0359Q97.3109-67.0458 100.138-60.4675Q102.965-53.8891 102.965-46.3863Q102.965-38.8706 100.138-32.3112Q97.3109-25.7517 92.3018-20.7427Q87.2927-15.7337 80.7333-12.9066Q74.174-10.0795 66.6714-10.0795Q59.1555-10.0795 52.5772-12.9066Q45.9988-15.7337 40.9897-20.7427Q35.9805-25.7517 33.1725-32.3112Q30.3644-38.8706 30.3644-46.3863Z"/>
  </g>
  <g id="Semibold-L" transform="matrix(1 0 0 1 1966.66 1556)">
   <path d="M14.4756-46.7674Q14.4756-36.1944 18.466-26.914Q22.4565-17.6336 29.494-10.5868Q36.5315-3.53997 45.7902 0.41954Q55.049 4.37905 65.6656 4.37905Q73.4161 4.37905 80.4895 2.12479Q87.5629-0.129474 93.514-4.17425L122.327 24.7008Q123.745 26.0936 125.534 26.7682Q127.323 27.4429 129.229 27.4429Q133.402 27.4429 136.073 24.6728Q138.744 21.9027 138.744 17.8231Q138.744 15.9103 138.057 14.1707Q137.37 12.4312 136.045 11.0447L107.393-17.6507Q111.84-23.7625 114.317-31.198Q116.794-38.6334 116.794-46.7674Q116.794-57.3656 112.812-66.6243Q108.831-75.8829 101.815-82.9297Q94.7994-89.9765 85.5098-93.9578Q76.2203-97.9391 65.6656-97.9391Q55.049-97.9391 45.7902-93.9578Q36.5315-89.9765 29.494-82.9297Q22.4565-75.8829 18.466-66.6243Q14.4756-57.3656 14.4756-46.7674ZM27.911-46.7674Q27.911-54.5673 30.8304-61.4081Q33.7497-68.249 38.9577-73.4352Q44.1656-78.6214 51.0065-81.5625Q57.8474-84.5036 65.6656-84.5036Q73.4651-84.5036 80.2842-81.5625Q87.1033-78.6214 92.3113-73.4352Q97.5193-68.249 100.46-61.4081Q103.401-54.5673 103.401-46.7674Q103.401-38.9495 100.46-32.1303Q97.5193-25.311 92.3113-20.1032Q87.1033-14.8954 80.2842-11.9543Q73.4651-9.01319 65.6656-9.01319Q57.8474-9.01319 51.0065-11.9543Q44.1656-14.8954 38.9577-20.1032Q33.7497-25.311 30.8304-32.1303Q27.911-38.9495 27.911-46.7674Z"/>
  </g>
  <g id="Medium-L" transform="matrix(1 0 0 1 1670.43 1556)">
   <path d="M14.4756-47.0564Q14.4756-36.644 18.4078-27.5041Q22.34-18.3642 29.2751-11.4177Q36.2103-4.47124 45.3266-0.573986Q54.4429 3.32327 64.9029 3.32327Q72.8628 3.32327 80.1013 0.934254Q87.3399-1.45476 93.3716-5.7369L123.635 24.5972Q124.864 25.801 126.402 26.3851Q127.94 26.9692 129.585 26.9692Q133.206 26.9692 135.491 24.5752Q137.776 22.1812 137.776 18.6605Q137.776 17.0009 137.18 15.5087Q136.583 14.0164 135.463 12.8271L105.336-17.3474Q110.021-23.5279 112.64-31.1224Q115.26-38.717 115.26-47.0564Q115.26-57.4941 111.339-66.6102Q107.418-75.7263 100.507-82.6728Q93.5951-89.6192 84.444-93.5403Q75.2929-97.4614 64.9029-97.4614Q54.4429-97.4614 45.3266-93.5403Q36.2103-89.6192 29.2751-82.6728Q22.34-75.7263 18.4078-66.6102Q14.4756-57.4941 14.4756-47.0564ZM26.0508-47.0564Q26.0508-55.0815 29.0545-62.1214Q32.0582-69.1613 37.4169-74.4962Q42.7757-79.8311 49.8156-82.8587Q56.8555-85.8862 64.9029-85.8862Q72.9276-85.8862 79.9437-82.8587Q86.9598-79.8311 92.3185-74.4962Q97.6773-69.1613 100.705-62.1214Q103.732-55.0815 103.732-47.0564Q103.732-39.0094 100.705-31.9931Q97.6773-24.9768 92.3185-19.6183Q86.9598-14.2597 79.9437-11.2322Q72.9276-8.20465 64.9029-8.20465Q56.8555-8.20465 49.8156-11.2322Q42.7757-14.2597 37.4169-19.6183Q32.0582-24.9768 29.0545-31.9931Q26.0508-39.0094 26.0508-47.0564Z"/>
  </g>
  <g id="Regular-L" transform="matrix(1 0 0 1 1374.35 1556)">
   <path d="M14.4756-47.4333Q14.4756-37.2305 18.3318-28.2738Q22.1881-19.3171 28.9897-12.5015Q35.7913-5.68593 44.7218-1.86989Q53.6523 1.94616 63.908 1.94616Q72.141 1.94616 79.595-0.618619Q87.0489-3.18339 93.1859-7.77513L125.342 24.4621Q126.325 25.4194 127.535 25.8854Q128.744 26.3515 130.049 26.3515Q132.951 26.3515 134.733 24.4479Q136.514 22.5444 136.514 19.7527Q136.514 18.4235 136.036 17.2538Q135.557 16.0841 134.705 15.152L102.654-16.9519Q107.648-23.2219 110.454-31.024Q113.26-38.8261 113.26-47.4333Q113.26-57.6617 109.418-66.5919Q105.575-75.5221 98.7996-82.3377Q92.0243-89.1532 83.0538-92.9958Q74.0834-96.8383 63.908-96.8383Q53.6523-96.8383 44.7218-92.9958Q35.7913-89.1532 28.9897-82.3377Q22.1881-75.5221 18.3318-66.5919Q14.4756-57.6617 14.4756-47.4333ZM23.6243-47.4333Q23.6243-55.7522 26.7381-63.0517Q29.8519-70.3512 35.4073-75.8801Q40.9627-81.409 48.2622-84.5493Q55.5617-87.6896 63.908-87.6896Q72.2265-87.6896 79.4995-84.5493Q86.7725-81.409 92.3279-75.8801Q97.8833-70.3512 101.024-63.0517Q104.164-55.7522 104.164-47.4333Q104.164-39.0874 101.024-31.8142Q97.8833-24.5409 92.3279-18.9858Q86.7725-13.4306 79.4995-10.2903Q72.2265-7.15004 63.908-7.15004Q55.5617-7.15004 48.2622-10.2903Q40.9627-13.4306 35.4073-18.9858Q29.8519-24.5409 26.7381-31.8142Q23.6243-39.0874 23.6243-47.4333Z"/>
  </g>
  <g id="Light-L" transform="matrix(1 0 0 1 1078.37 1556)">
   <path d="M14.4756-47.8912Q14.4756-37.9177 18.2459-29.1899Q22.0162-20.4621 28.6556-13.7992Q35.295-7.13626 44.0061-3.40615Q52.7172 0.32396 62.7248 0.32396Q71.0341 0.32396 78.5262-2.34583Q86.0183-5.01562 92.1172-9.77923L125.819 24.0042Q126.592 24.7896 127.582 25.1888Q128.573 25.588 129.667 25.588Q132.131 25.588 133.588 23.9803Q135.045 22.3725 135.045 20.0961Q135.045 19.0151 134.652 18.0649Q134.259 17.1147 133.541 16.3163L99.9058-17.3527Q105.072-23.5653 107.983-31.3961Q110.894-39.2269 110.894-47.8912Q110.894-57.8524 107.146-66.5632Q103.399-75.2739 96.7766-81.9369Q90.1539-88.5998 81.4029-92.3469Q72.652-96.0941 62.7248-96.0941Q52.7172-96.0941 44.0061-92.3469Q35.295-88.5998 28.6556-81.9369Q22.0162-75.2739 18.2459-66.5632Q14.4756-57.8524 14.4756-47.8912ZM21.3913-47.8912Q21.3913-56.4012 24.6004-63.8821Q27.8096-71.3629 33.5082-77.0444Q39.2068-82.726 46.6876-85.9522Q54.1684-89.1784 62.7248-89.1784Q71.2341-89.1784 78.6979-85.9522Q86.1617-82.726 91.8602-77.0444Q97.5588-71.3629 100.785-63.8821Q104.011-56.4012 104.011-47.8912Q104.011-39.3356 100.785-31.8714Q97.5588-24.4072 91.8602-18.709Q86.1617-13.0109 78.6979-9.78464Q71.2341-6.55843 62.7248-6.55843Q54.1684-6.55843 46.6876-9.78464Q39.2068-13.0109 33.5082-18.709Q27.8096-24.4072 24.6004-31.8714Q21.3913-39.3356 21.3913-47.8912Z"/>
  </g>
  <g id="Thin-L" transform="matrix(1 0 0 1 782.634 1556)">
   <path d="M14.4756-48.4968Q14.4756-38.8265 18.1322-30.4015Q21.7889-21.9766 28.2137-15.5155Q34.6385-9.05443 43.0595-5.43798Q51.4806-1.82153 61.1599-1.82153Q69.5702-1.82153 77.1127-4.63021Q84.6553-7.43889 90.7037-12.4298L126.45 23.3986Q126.945 23.9567 127.645 24.2674Q128.345 24.5782 129.163 24.5782Q131.046 24.5782 132.073 23.3617Q133.101 22.1452 133.101 20.5503Q133.101 19.7976 132.822 19.1376Q132.543 18.4777 132.001 17.8562L96.2709-17.8828Q101.664-24.0195 104.714-31.8882Q107.764-39.757 107.764-48.4968Q107.764-58.1048 104.143-66.5252Q100.522-74.9457 94.101-81.4067Q87.6802-87.8678 79.2195-91.4888Q70.7588-95.1098 61.1599-95.1098Q51.4806-95.1098 43.0595-91.4888Q34.6385-87.8678 28.2137-81.4067Q21.7889-74.9457 18.1322-66.5252Q14.4756-58.1048 14.4756-48.4968ZM18.4379-48.4968Q18.4379-57.2596 21.7732-64.9803Q25.1086-72.7009 30.9965-78.5843Q36.8844-84.4677 44.6051-87.8076Q52.3258-91.1475 61.1599-91.1475Q69.9215-91.1475 77.6376-87.8076Q85.3538-84.4677 91.2417-78.5843Q97.1296-72.7009 100.47-64.9803Q103.809-57.2596 103.809-48.4968Q103.809-39.6638 100.47-31.9471Q97.1296-24.2304 91.2417-18.343Q85.3538-12.4557 77.6376-9.11585Q69.9215-5.77598 61.1599-5.77598Q52.3258-5.77598 44.6051-9.11585Q36.8844-12.4557 30.9965-18.343Q25.1086-24.2304 21.7732-31.9471Q18.4379-39.6638 18.4379-48.4968Z"/>
  </g>
  <g id="Ultralight-L" transform="matrix(1 0 0 1 486.42 1556)">
   <path d="M14.4756-48.807Q14.4756-39.292 18.074-31.0221Q21.6725-22.7522 27.9874-16.3946Q34.3022-10.0369 42.5747-6.47867Q50.8472-2.92043 60.3584-2.92043Q68.8203-2.92043 76.3887-5.80025Q83.9571-8.68007 89.9797-13.7874L126.774 23.0884Q127.126 23.5301 127.677 23.7955Q128.229 24.061 128.904 24.061Q130.49 24.061 131.298 23.0449Q132.106 22.0288 132.106 20.7829Q132.106 20.1983 131.885 19.6871Q131.664 19.1758 131.212 18.6449L94.4091-18.1543Q99.9186-24.2521 103.04-32.1403Q106.161-40.0285 106.161-48.807Q106.161-58.234 102.604-66.5058Q99.048-74.7775 92.7306-81.1352Q86.4131-87.4929 78.1011-91.0492Q69.7892-94.6056 60.3584-94.6056Q50.8472-94.6056 42.5747-91.0492Q34.3022-87.4929 27.9874-81.1352Q21.6725-74.7775 18.074-66.5058Q14.4756-58.234 14.4756-48.807ZM16.9252-48.807Q16.9252-57.6992 20.3251-65.5428Q23.7251-73.3863 29.71-79.373Q35.6949-85.3598 43.5384-88.7579Q51.3819-92.156 60.3584-92.156Q69.2492-92.156 77.0946-88.7579Q84.94-85.3598 90.9249-79.373Q96.9098-73.3863 100.308-65.5428Q103.706-57.6992 103.706-48.807Q103.706-39.832 100.308-31.9859Q96.9098-24.1398 90.9249-18.1556Q84.94-12.1714 77.0946-8.7733Q69.2492-5.37521 60.3584-5.37521Q51.3819-5.37521 43.5384-8.7733Q35.6949-12.1714 29.71-18.1556Q23.7251-24.1398 20.3251-31.9859Q16.9252-39.832 16.9252-48.807Z"/>
  </g>
  <g id="Black-M" transform="matrix(1 0 0 1 2871.73 1126)">
   <path d="M11.2148-42.7931Q11.2148-33.8284 14.5857-25.9723Q17.9565-18.1161 23.8959-12.1768Q29.8353-6.23757 37.6887-2.86934Q45.5422 0.498897 54.5123 0.498897Q59.4337 0.498897 64.0518-0.569338Q68.6698-1.63757 72.8398-3.57207L88.0007 11.5941Q90.0285 13.616 92.6715 14.5956Q95.3145 15.5751 98.1053 15.5751Q104.108 15.5751 108.112 11.5371Q112.117 7.49913 112.117 1.55269Q112.117-1.1868 111.135-3.7701Q110.152-6.3534 108.084-8.42668L93.1625-23.3537Q95.4085-27.7057 96.6066-32.6328Q97.8046-37.56 97.8046-42.7931Q97.8046-51.7635 94.4336-59.617Q91.0627-67.4704 85.126-73.4097Q79.1894-79.3489 71.3333-82.7199Q63.4773-86.0909 54.5123-86.0909Q45.5422-86.0909 37.6887-82.7199Q29.8353-79.3489 23.8959-73.4097Q17.9565-67.4704 14.5857-59.617Q11.2148-51.7635 11.2148-42.7931ZM30.7206-42.7931Q30.7206-47.7075 32.5676-52.0146Q34.4147-56.3216 37.6994-59.6036Q40.9841-62.8855 45.2912-64.7353Q49.5982-66.5852 54.5123-66.5852Q59.4268-66.5852 63.7311-64.7353Q68.0354-62.8855 71.3201-59.6036Q74.6047-56.3216 76.4546-52.0146Q78.3044-47.7075 78.3044-42.7931Q78.3044-37.879 76.4546-33.5747Q74.6047-29.2704 71.3201-25.9857Q68.0354-22.701 63.7311-20.8512Q59.4268-19.0013 54.5123-19.0013Q49.5982-19.0013 45.2912-20.8512Q40.9841-22.701 37.6994-25.9857Q34.4147-29.2704 32.5676-33.5747Q30.7206-37.879 30.7206-42.7931Z"/>
  </g>
  <g id="Heavy-M" transform="matrix(1 0 0 1 2575.67 1126)">
   <path d="M11.2148-43.1778Q11.2148-34.4325 14.5068-26.762Q17.7987-19.0914 23.6019-13.2872Q29.405-7.4829 37.0673-4.20029Q44.7297-0.91768 53.4914-0.91768Q58.7464-0.91768 63.6323-2.18863Q68.5183-3.45958 72.8314-5.75397L90.0859 11.5192Q91.8429 13.2621 94.1129 14.1047Q96.3829 14.9473 98.7818 14.9473Q103.957 14.9473 107.386 11.4745Q110.815 8.00162 110.815 2.87879Q110.815 0.509425 109.966-1.7076Q109.116-3.92463 107.362-5.69702L90.315-22.7606Q92.9209-27.2396 94.3351-32.4267Q95.7494-37.6137 95.7494-43.1778Q95.7494-51.9373 92.4585-59.5997Q89.1677-67.262 83.3728-73.0663Q77.5779-78.8705 69.9062-82.1614Q62.2345-85.4522 53.4914-85.4522Q44.7297-85.4522 37.0673-82.1614Q29.405-78.8705 23.6019-73.0663Q17.7987-67.262 14.5068-59.5997Q11.2148-51.9373 11.2148-43.1778ZM28.0903-43.1778Q28.0903-48.4278 30.0579-53.0286Q32.0256-57.6295 35.5316-61.1272Q39.0376-64.625 43.6384-66.6009Q48.2392-68.5768 53.4914-68.5768Q58.7413-68.5768 63.334-66.6009Q67.9266-64.625 71.4326-61.1272Q74.9386-57.6295 76.9144-53.0286Q78.8903-48.4278 78.8903-43.1778Q78.8903-37.9257 76.9144-33.3331Q74.9386-28.7404 71.4326-25.2344Q67.9266-21.7285 63.334-19.7526Q58.7413-17.7767 53.4914-17.7767Q48.2392-17.7767 43.6384-19.7526Q39.0376-21.7285 35.5316-25.2344Q32.0256-28.7404 30.0579-33.3331Q28.0903-37.9257 28.0903-43.1778Z"/>
  </g>
  <g id="Bold-M" transform="matrix(1 0 0 1 2279.69 1126)">
   <path d="M11.2148-43.6082Q11.2148-35.1083 14.4185-27.6454Q17.6223-20.1825 23.2729-14.5292Q28.9236-8.87598 36.3722-5.68915Q43.8208-2.50233 52.3494-2.50233Q57.9776-2.50233 63.1632-4.00004Q68.3488-5.49776 72.8219-8.19474L92.4184 11.4355Q93.8726 12.8663 95.7254 13.5557Q97.5781 14.245 99.5386 14.245Q103.789 14.245 106.574 11.4044Q109.359 8.56373 109.359 4.36224Q109.359 2.4069 108.658 0.5996Q107.957-1.2077 106.555-2.64351L87.1296-22.0972Q90.1381-26.7183 91.7942-32.196Q93.4502-37.6737 93.4502-43.6082Q93.4502-52.1317 90.2491-59.5803Q87.0479-67.0289 81.4115-72.6821Q75.7751-78.3354 68.3097-81.5366Q60.8442-84.7377 52.3494-84.7377Q43.8208-84.7377 36.3722-81.5366Q28.9236-78.3354 23.2729-72.6821Q17.6223-67.0289 14.4185-59.5803Q11.2148-52.1317 11.2148-43.6082ZM25.1479-43.6082Q25.1479-49.2335 27.2505-54.163Q29.353-59.0925 33.1066-62.8317Q36.8601-66.5709 41.7896-68.6878Q46.7191-70.8047 52.3494-70.8047Q57.9746-70.8047 62.8897-68.6878Q67.8049-66.5709 71.5584-62.8317Q75.312-59.0925 77.4289-54.163Q79.5458-49.2335 79.5458-43.6082Q79.5458-37.978 77.4289-33.0628Q75.312-28.1476 71.5584-24.3941Q67.8049-20.6406 62.8897-18.5237Q57.9746-16.4068 52.3494-16.4068Q46.7191-16.4068 41.7896-18.5237Q36.8601-20.6406 33.1066-24.3941Q29.353-28.1476 27.2505-33.0628Q25.1479-37.978 25.1479-43.6082Z"/>
  </g>
  <g id="Semibold-M" transform="matrix(1 0 0 1 1983.48 1126)">
   <path d="M11.2148-43.9049Q11.2148-35.5742 14.3577-28.2544Q17.5006-20.9347 23.0462-15.3855Q28.5917-9.83636 35.893-6.71557Q43.1943-3.59477 51.5621-3.59477Q57.4475-3.59477 62.8397-5.24882Q68.2319-6.90286 72.8154-9.87739L94.0264 11.3778Q95.2719 12.5934 96.837 13.1771Q98.402 13.7609 100.06 13.7609Q103.673 13.7609 106.014 11.3561Q108.355 8.95124 108.355 5.38492Q108.355 3.71501 107.756 2.19017Q107.158 0.665339 105.998-0.538432L84.9336-21.6398Q88.2196-26.3589 90.0424-32.037Q91.8652-37.7152 91.8652-43.9049Q91.8652-52.2657 88.7259-59.5669Q85.5865-66.8681 80.0595-72.4173Q74.5324-77.9665 67.2091-81.1058Q59.8858-84.2452 51.5621-84.2452Q43.1943-84.2452 35.893-81.1058Q28.5917-77.9665 23.0462-72.4173Q17.5006-66.8681 14.3577-59.5669Q11.2148-52.2657 11.2148-43.9049ZM23.1195-43.9049Q23.1195-49.789 25.315-54.945Q27.5105-60.101 31.4348-64.0067Q35.359-67.9124 40.515-70.1265Q45.6711-72.3405 51.5621-72.3405Q57.446-72.3405 62.5835-70.1265Q67.721-67.9124 71.6452-64.0067Q75.5694-60.101 77.7835-54.945Q79.9976-49.789 79.9976-43.9049Q79.9976-38.014 77.7835-32.8764Q75.5694-27.7389 71.6452-23.8147Q67.721-19.8906 62.5835-17.6765Q57.446-15.4624 51.5621-15.4624Q45.6711-15.4624 40.515-17.6765Q35.359-19.8906 31.4348-23.8147Q27.5105-27.7389 25.315-32.8764Q23.1195-38.014 23.1195-43.9049Z"/>
  </g>
  <g id="Medium-M" transform="matrix(1 0 0 1 1687.15 1126)">
   <path d="M11.2148-44.1299Q11.2148-35.9274 14.3116-28.7162Q17.4083-21.505 22.8742-16.0348Q28.3401-10.5646 35.5296-7.49384Q42.7192-4.42311 50.9651-4.42311Q57.0457-4.42311 62.5945-6.19569Q68.1433-7.96827 72.8105-11.1532L95.2457 11.3341Q96.3329 12.3865 97.6799 12.8901Q99.0268 13.3938 100.456 13.3938Q103.585 13.3938 105.59 11.3194Q107.594 9.24507 107.594 6.16035Q107.594 4.70687 107.073 3.39621Q106.552 2.08555 105.576 1.05772L83.2685-21.293Q86.765-26.0864 88.7142-31.9165Q90.6634-37.7465 90.6634-44.1299Q90.6634-52.3674 87.5709-59.5568Q84.4785-66.7463 79.0343-72.2165Q73.59-77.6867 66.3746-80.7792Q59.1591-83.8717 50.9651-83.8717Q42.7192-83.8717 35.5296-80.7792Q28.3401-77.6867 22.8742-72.2165Q17.4083-66.7463 14.3116-59.5568Q11.2148-52.3674 11.2148-44.1299ZM21.5814-44.1299Q21.5814-50.2101 23.8475-55.538Q26.1135-60.8658 30.1671-64.8977Q34.2207-68.9295 39.5486-71.2173Q44.8764-73.5051 50.9651-73.5051Q57.0452-73.5051 62.3513-71.2173Q67.6574-68.9295 71.711-64.8977Q75.7646-60.8658 78.0524-55.538Q80.3402-50.2101 80.3402-44.1299Q80.3402-38.0413 78.0524-32.7352Q75.7646-27.429 71.711-23.3755Q67.6574-19.3219 62.3513-17.0341Q57.0452-14.7463 50.9651-14.7463Q44.8764-14.7463 39.5486-17.0341Q34.2207-19.3219 30.1671-23.3755Q26.1135-27.429 23.8475-32.7352Q21.5814-38.0413 21.5814-44.1299Z"/>
  </g>
  <g id="Regular-M" transform="matrix(1 0 0 1 1390.94 1126)">
   <path d="M11.2148-44.4234Q11.2148-36.3882 14.2514-29.3186Q17.288-22.2489 22.65-16.8817Q28.0119-11.5144 35.0557-8.50897Q42.0995-5.50355 50.1865-5.50355Q56.5215-5.50355 62.2746-7.43074Q68.0277-9.35794 72.8041-12.8174L96.836 11.277Q97.7168 12.1166 98.7793 12.5158Q99.8417 12.9149 100.972 12.9149Q103.471 12.9149 105.036 11.2716Q106.601 9.62832 106.601 7.17179Q106.601 6.0006 106.181 4.9693Q105.761 3.93801 105.025 3.13966L81.0966-20.8406Q84.8676-25.731 86.9817-31.7592Q89.0958-37.7875 89.0958-44.4234Q89.0958-52.4999 86.0645-59.5436Q83.0332-66.5873 77.697-71.9546Q72.3609-77.3219 65.2861-80.3532Q58.2112-83.3846 50.1865-83.3846Q42.0995-83.3846 35.0557-80.3532Q28.0119-77.3219 22.65-71.9546Q17.288-66.5873 14.2514-59.5436Q11.2148-52.4999 11.2148-44.4234ZM19.5753-44.4234Q19.5753-50.7595 21.9333-56.3114Q24.2913-61.8633 28.5137-66.0598Q32.7361-70.2563 38.288-72.6402Q43.8399-75.0241 50.1865-75.0241Q56.5224-75.0241 62.0484-72.6402Q67.5744-70.2563 71.7968-66.0598Q76.0192-61.8633 78.4032-56.3114Q80.7871-50.7595 80.7871-44.4234Q80.7871-38.077 78.4032-32.5509Q76.0192-27.0248 71.7968-22.8025Q67.5744-18.5802 62.0484-16.1962Q56.5224-13.8123 50.1865-13.8123Q43.8399-13.8123 38.288-16.1962Q32.7361-18.5802 28.5137-22.8025Q24.2913-27.0248 21.9333-32.5509Q19.5753-38.077 19.5753-44.4234Z"/>
  </g>
  <g id="Light-M" transform="matrix(1 0 0 1 1094.88 1126)">
   <path d="M11.2148-44.8339Q11.2148-37.0043 14.1744-30.1399Q17.1339-23.2756 22.3504-18.0451Q27.5669-12.8147 34.414-9.88631Q41.2612-6.95793 49.1257-6.95793Q55.5291-6.95793 61.3164-8.97928Q67.1037-11.0006 71.8459-14.6142L97.2638 10.8665Q97.9563 11.552 98.8219 11.8912Q99.6876 12.2304 100.63 12.2304Q102.735 12.2304 104.009 10.8523Q105.283 9.47423 105.283 7.47969Q105.283 6.53101 104.941 5.6965Q104.598 4.86198 103.981 4.18352L78.6326-21.2Q82.5577-26.0389 84.766-32.0929Q86.9742-38.1469 86.9742-44.8339Q86.9742-52.671 84.0284-59.5179Q81.0826-66.3648 75.8833-71.5952Q70.684-76.8257 63.8059-79.7715Q56.9279-82.7173 49.1257-82.7173Q41.2612-82.7173 34.414-79.7715Q27.5669-76.8257 22.3504-71.5952Q17.1339-66.3648 14.1744-59.5179Q11.2148-52.671 11.2148-44.8339ZM17.5732-44.8339Q17.5732-51.3413 20.0168-57.0558Q22.4603-62.7703 26.8111-67.1036Q31.1618-71.437 36.8763-73.8979Q42.5908-76.3589 49.1257-76.3589Q55.6327-76.3589 61.3297-73.8979Q67.0268-71.437 71.3775-67.1036Q75.7283-62.7703 78.1893-57.0558Q80.6503-51.3413 80.6503-44.8339Q80.6503-38.2995 78.1893-32.6022Q75.7283-26.9049 71.3775-22.5544Q67.0268-18.2038 61.3297-15.7429Q55.6327-13.2819 49.1257-13.2819Q42.5908-13.2819 36.8763-15.7429Q31.1618-18.2038 26.8111-22.5544Q22.4603-26.9049 20.0168-32.6022Q17.5732-38.2995 17.5732-44.8339Z"/>
  </g>
  <g id="Thin-M" transform="matrix(1 0 0 1 799.044 1126)">
   <path d="M11.2148-45.3768Q11.2148-37.8191 14.0725-31.2262Q16.9301-24.6333 21.9542-19.5839Q26.9783-14.5344 33.5654-11.7079Q40.1525-8.88147 47.7227-8.88147Q54.2165-8.88147 60.0491-11.0273Q65.8817-13.1732 70.5786-16.9906L97.8296 10.3236Q98.273 10.8052 98.8784 11.0652Q99.4838 11.3251 100.177 11.3251Q101.762 11.3251 102.651 10.2978Q103.541 9.27043 103.541 7.8869Q103.541 7.23252 103.3 6.65827Q103.059 6.08401 102.601 5.5641L75.3737-21.6753Q79.5026-26.4461 81.8354-32.5341Q84.1682-38.6221 84.1682-45.3768Q84.1682-52.8972 81.3355-59.4838Q78.5028-66.0705 73.4845-71.12Q68.4662-76.1694 61.8484-79.0021Q55.2306-81.8348 47.7227-81.8348Q40.1525-81.8348 33.5654-79.0021Q26.9783-76.1694 21.9542-71.12Q16.9301-66.0705 14.0725-59.4838Q11.2148-52.8972 11.2148-45.3768ZM14.9254-45.3768Q14.9254-52.1109 17.482-58.0404Q20.0387-63.9699 24.5592-68.4842Q29.0797-72.9985 35.0092-75.5614Q40.9387-78.1243 47.7227-78.1243Q54.4559-78.1243 60.3792-75.5614Q66.3024-72.9985 70.823-68.4842Q75.3435-63.9699 77.9064-58.0404Q80.4693-52.1109 80.4693-45.3768Q80.4693-38.5938 77.9064-32.6701Q75.3435-26.7464 70.823-22.2263Q66.3024-17.7061 60.3792-15.1433Q54.4559-12.5804 47.7227-12.5804Q40.9387-12.5804 35.0092-15.1433Q29.0797-17.7061 24.5592-22.2263Q20.0387-26.7464 17.482-32.6701Q14.9254-38.5938 14.9254-45.3768Z"/>
  </g>
  <g id="Ultralight-M" transform="matrix(1 0 0 1 502.78 1126)">
   <path d="M11.2148-45.6549Q11.2148-38.2364 14.0203-31.7826Q16.8257-25.3288 21.7513-20.372Q26.6768-15.4153 33.1307-12.641Q39.5846-9.8667 47.004-9.8667Q53.5443-9.8667 59.4-12.0763Q65.2558-14.286 69.9295-18.2077L98.1194 10.0455Q98.4352 10.4227 98.9073 10.6421Q99.3794 10.8614 99.9455 10.8614Q101.264 10.8614 101.956 10.0137Q102.648 9.16605 102.648 8.09548Q102.648 7.59182 102.46 7.15088Q102.271 6.70993 101.894 6.27123L73.7045-21.9187Q77.9378-26.6547 80.3344-32.7601Q82.7309-38.8656 82.7309-45.6549Q82.7309-53.0131 79.9562-59.4664Q77.1814-65.9198 72.2558-70.8765Q67.3302-75.8333 60.8457-78.608Q54.3612-81.3828 47.004-81.3828Q39.5846-81.3828 33.1307-78.608Q26.6768-75.8333 21.7513-70.8765Q16.8257-65.9198 14.0203-59.4664Q11.2148-53.0131 11.2148-45.6549ZM13.5691-45.6549Q13.5691-52.5051 16.1837-58.5447Q18.7983-64.5843 23.4058-69.1913Q28.0133-73.7984 34.0529-76.4134Q40.0926-79.0285 47.004-79.0285Q53.8531-79.0285 59.8923-76.4134Q65.9314-73.7984 70.5389-69.1913Q75.1464-64.5843 77.7615-58.5447Q80.3766-52.5051 80.3766-45.6549Q80.3766-38.7445 77.7615-32.7048Q75.1464-26.6652 70.5389-22.0582Q65.9314-17.4512 59.8923-14.8361Q53.8531-12.2211 47.004-12.2211Q40.0926-12.2211 34.0529-14.8361Q28.0133-17.4512 23.4058-22.0582Q18.7983-26.6652 16.1837-32.7048Q13.5691-38.7445 13.5691-45.6549Z"/>
  </g>
  <g id="Black-S" transform="matrix(1 0 0 1 2884.91 696)">
   <path d="M8.78906-41.0645Q8.78906-33.9844 11.4502-27.7832Q14.1113-21.582 18.7988-16.8945Q23.4863-12.207 29.6875-9.5459Q35.8887-6.88477 42.9688-6.88477Q46.7285-6.88477 50.2686-7.66602Q53.8086-8.44727 57.0312-9.86328L68.3594 1.46484Q70.0195 3.125 72.1924 3.93066Q74.3652 4.73633 76.6602 4.73633Q81.5918 4.73633 84.8877 1.41602Q88.1836-1.9043 88.1836-6.78711Q88.1836-9.0332 87.3779-11.1572Q86.5723-13.2812 84.8633-14.9902L73.7305-26.123Q75.3906-29.4922 76.2695-33.2764Q77.1484-37.0605 77.1484-41.0645Q77.1484-48.1445 74.4873-54.3457Q71.8262-60.5469 67.1387-65.2344Q62.4512-69.9219 56.25-72.583Q50.0488-75.2441 42.9688-75.2441Q35.8887-75.2441 29.6875-72.583Q23.4863-69.9219 18.7988-65.2344Q14.1113-60.5469 11.4502-54.3457Q8.78906-48.1445 8.78906-41.0645ZM24.7559-41.0645Q24.7559-44.8242 26.1719-48.1201Q27.5879-51.416 30.1025-53.9307Q32.6172-56.4453 35.9131-57.8613Q39.209-59.2773 42.9688-59.2773Q46.7285-59.2773 50.0244-57.8613Q53.3203-56.4453 55.835-53.9307Q58.3496-51.416 59.7656-48.1201Q61.1816-44.8242 61.1816-41.0645Q61.1816-37.3047 59.7656-34.0088Q58.3496-30.7129 55.835-28.1982Q53.3203-25.6836 50.0244-24.2676Q46.7285-22.8516 42.9688-22.8516Q39.209-22.8516 35.9131-24.2676Q32.6172-25.6836 30.1025-28.1982Q27.5879-30.7129 26.1719-34.0088Q24.7559-37.3047 24.7559-41.0645Z"/>
  </g>
  <g id="Heavy-S" transform="matrix(1 0 0 1 2588.68 696)">
   <path d="M8.78906-41.341Q8.78906-34.4223 11.3926-28.3537Q13.9961-22.285 18.5856-17.6955Q23.1752-13.1059 29.238-10.5082Q35.3009-7.91044 42.2312-7.91044Q46.2675-7.91044 50.0323-8.85304Q53.7971-9.79563 57.1465-11.4998L70.088 1.45332Q71.5408 2.89451 73.4197 3.59069Q75.2987 4.28687 77.2825 4.28687Q81.5572 4.28687 84.3979 1.41602Q87.2386-1.45484 87.2386-5.69229Q87.2386-7.65027 86.5366-9.48618Q85.8347-11.3221 84.3793-12.7891L71.61-25.5699Q73.5582-29.0543 74.61-33.0574Q75.6618-37.0605 75.6618-41.341Q75.6618-48.2713 73.0583-54.3342Q70.4548-60.3971 65.871-64.9866Q61.2872-69.5761 55.2186-72.1797Q49.1499-74.7832 42.2312-74.7832Q35.3009-74.7832 29.238-72.1797Q23.1752-69.5761 18.5856-64.9866Q13.9961-60.3971 11.3926-54.3342Q8.78906-48.2713 8.78906-41.341ZM22.7621-41.341Q22.7621-45.3659 24.2703-48.8923Q25.7785-52.4186 28.4661-55.1004Q31.1536-57.7822 34.68-59.2961Q38.2064-60.8101 42.2312-60.8101Q46.256-60.8101 49.7766-59.2961Q53.2973-57.7822 55.9848-55.1004Q58.6723-52.4186 60.1863-48.8923Q61.7002-45.3659 61.7002-41.341Q61.7002-37.3162 60.1863-33.7956Q58.6723-30.275 55.9848-27.5874Q53.2973-24.8999 49.7766-23.386Q46.256-21.872 42.2312-21.872Q38.2064-21.872 34.68-23.386Q31.1536-24.8999 28.4661-27.5874Q25.7785-30.275 24.2703-33.7956Q22.7621-37.3162 22.7621-41.341Z"/>
  </g>
  <g id="Bold-S" transform="matrix(1 0 0 1 2292.49 696)">
   <path d="M8.78906-41.6504Q8.78906-34.9121 11.3281-28.9917Q13.8672-23.0713 18.3472-18.5913Q22.8271-14.1113 28.7354-11.5845Q34.6436-9.05762 41.4062-9.05762Q45.752-9.05762 49.7681-10.1807Q53.7842-11.3037 57.2754-13.3301L72.0215 1.44043Q73.2422 2.63672 74.7925 3.21045Q76.3428 3.78418 77.9785 3.78418Q81.5186 3.78418 83.8501 1.41602Q86.1816-0.952148 86.1816-4.46777Q86.1816-6.10352 85.5957-7.61719Q85.0098-9.13086 83.8379-10.3271L69.2383-24.9512Q71.5088-28.5645 72.7539-32.8125Q73.999-37.0605 73.999-41.6504Q73.999-48.4131 71.46-54.3213Q68.9209-60.2295 64.4531-64.7095Q59.9854-69.1895 54.0649-71.7285Q48.1445-74.2676 41.4062-74.2676Q34.6436-74.2676 28.7354-71.7285Q22.8271-69.1895 18.3472-64.7095Q13.8672-60.2295 11.3281-54.3213Q8.78906-48.4131 8.78906-41.6504ZM20.5322-41.6504Q20.5322-45.9717 22.1436-49.7559Q23.7549-53.54 26.6357-56.4087Q29.5166-59.2773 33.3008-60.9009Q37.085-62.5244 41.4062-62.5244Q45.7275-62.5244 49.4995-60.9009Q53.2715-59.2773 56.1523-56.4087Q59.0332-53.54 60.6567-49.7559Q62.2803-45.9717 62.2803-41.6504Q62.2803-37.3291 60.6567-33.5571Q59.0332-29.7852 56.1523-26.9043Q53.2715-24.0234 49.4995-22.3999Q45.7275-20.7764 41.4062-20.7764Q37.085-20.7764 33.3008-22.3999Q29.5166-24.0234 26.6357-26.9043Q23.7549-29.7852 22.1436-33.5571Q20.5322-37.3291 20.5322-41.6504Z"/>
  </g>
  <g id="Semibold-S" transform="matrix(1 0 0 1 1996.15 696)">
   <path d="M8.78906-41.8637Q8.78906-35.2498 11.2837-29.4316Q13.7783-23.6134 18.1828-19.2089Q22.5872-14.8045 28.3888-12.3265Q34.1903-9.84854 40.8375-9.84854Q45.3965-9.84854 49.5859-11.096Q53.7753-12.3435 57.3643-14.592L73.3545 1.43154Q74.4152 2.45898 75.7389 2.94829Q77.0626 3.4376 78.4584 3.4376Q81.4919 3.4376 83.4724 1.41602Q85.4529-0.605566 85.4529-3.62354Q85.4529-5.03711 84.947-6.32861Q84.441-7.62012 83.4646-8.62979L67.6031-24.5246Q70.0958-28.2268 71.4742-32.6437Q72.8526-37.0605 72.8526-41.8637Q72.8526-48.5108 70.358-54.3124Q67.8634-60.114 63.4756-64.5184Q59.0878-68.9229 53.2696-71.4175Q47.4514-73.9121 40.8375-73.9121Q34.1903-73.9121 28.3888-71.4175Q22.5872-68.9229 18.1828-64.5184Q13.7783-60.114 11.2837-54.3124Q8.78906-48.5108 8.78906-41.8637ZM18.9948-41.8637Q18.9948-46.3894 20.6772-50.3513Q22.3597-54.3132 25.3738-57.3107Q28.388-60.3082 32.3499-62.0073Q36.3118-63.7063 40.8375-63.7063Q45.3632-63.7063 49.3084-62.0073Q53.2537-60.3082 56.2679-57.3107Q59.282-54.3132 60.9811-50.3513Q62.6802-46.3894 62.6802-41.8637Q62.6802-37.338 60.9811-33.3927Q59.282-29.4475 56.2679-26.4333Q53.2537-23.4191 49.3084-21.7201Q45.3632-20.021 40.8375-20.021Q36.3118-20.021 32.3499-21.7201Q28.388-23.4191 25.3738-26.4333Q22.3597-29.4475 20.6772-33.3927Q18.9948-37.338 18.9948-41.8637Z"/>
  </g>
  <g id="Medium-S" transform="matrix(1 0 0 1 1699.71 696)">
   <path d="M8.78906-42.0254Q8.78906-35.5059 11.25-29.7651Q13.7109-24.0244 18.0581-19.6772Q22.4053-15.3301 28.126-12.8892Q33.8467-10.4482 40.4062-10.4482Q45.127-10.4482 49.4478-11.79Q53.7686-13.1318 57.4316-15.5488L74.3652 1.4248Q75.3047 2.32422 76.4565 2.74951Q77.6084 3.1748 78.8223 3.1748Q81.4717 3.1748 83.186 1.41602Q84.9004-0.342773 84.9004-2.9834Q84.9004-4.22852 84.4551-5.35156Q84.0098-6.47461 83.1816-7.34277L66.3633-24.2012Q69.0244-27.9707 70.5039-32.5156Q71.9834-37.0605 71.9834-42.0254Q71.9834-48.585 69.5225-54.3057Q67.0615-60.0264 62.7344-64.3735Q58.4072-68.7207 52.6665-71.1816Q46.9258-73.6426 40.4062-73.6426Q33.8467-73.6426 28.126-71.1816Q22.4053-68.7207 18.0581-64.3735Q13.7109-60.0264 11.25-54.3057Q8.78906-48.585 8.78906-42.0254ZM17.8291-42.0254Q17.8291-46.7061 19.5654-50.8027Q21.3018-54.8994 24.417-57.9946Q27.5322-61.0898 31.6289-62.8462Q35.7256-64.6025 40.4062-64.6025Q45.0869-64.6025 49.1636-62.8462Q53.2402-61.0898 56.3555-57.9946Q59.4707-54.8994 61.2271-50.8027Q62.9834-46.7061 62.9834-42.0254Q62.9834-37.3447 61.2271-33.2681Q59.4707-29.1914 56.3555-26.0762Q53.2402-22.9609 49.1636-21.2046Q45.0869-19.4482 40.4062-19.4482Q35.7256-19.4482 31.6289-21.2046Q27.5322-22.9609 24.417-26.0762Q21.3018-29.1914 19.5654-33.2681Q17.8291-37.3447 17.8291-42.0254Z"/>
  </g>
  <g id="Regular-S" transform="matrix(1 0 0 1 1403.36 696)">
   <path d="M8.78906-42.2363Q8.78906-35.8398 11.2061-30.2002Q13.623-24.5605 17.8955-20.2881Q22.168-16.0156 27.7832-13.623Q33.3984-11.2305 39.8438-11.2305Q44.7754-11.2305 49.2676-12.6953Q53.7598-14.1602 57.5195-16.7969L75.6836 1.41602Q76.4648 2.14844 77.3926 2.49023Q78.3203 2.83203 79.2969 2.83203Q81.4453 2.83203 82.8125 1.41602Q84.1797 0 84.1797-2.14844Q84.1797-3.17383 83.8135-4.07715Q83.4473-4.98047 82.8125-5.66406L64.7461-23.7793Q67.627-27.6367 69.2383-32.3486Q70.8496-37.0605 70.8496-42.2363Q70.8496-48.6816 68.4326-54.2969Q66.0156-59.9121 61.7676-64.1846Q57.5195-68.457 51.8799-70.874Q46.2402-73.291 39.8438-73.291Q33.3984-73.291 27.7832-70.874Q22.168-68.457 17.8955-64.1846Q13.623-59.9121 11.2061-54.2969Q8.78906-48.6816 8.78906-42.2363ZM16.3086-42.2363Q16.3086-47.1191 18.1152-51.3916Q19.9219-55.6641 23.1689-58.8867Q26.416-62.1094 30.6885-63.9404Q34.9609-65.7715 39.8438-65.7715Q44.7266-65.7715 48.9746-63.9404Q53.2227-62.1094 56.4697-58.8867Q59.7168-55.6641 61.5479-51.3916Q63.3789-47.1191 63.3789-42.2363Q63.3789-37.3535 61.5479-33.1055Q59.7168-28.8574 56.4697-25.6104Q53.2227-22.3633 48.9746-20.5322Q44.7266-18.7012 39.8438-18.7012Q34.9609-18.7012 30.6885-20.5322Q26.416-22.3633 23.1689-25.6104Q19.9219-28.8574 18.1152-33.1055Q16.3086-37.3535 16.3086-42.2363Z"/>
  </g>
  <g id="Light-S" transform="matrix(1 0 0 1 1107.23 696)">
   <path d="M8.78906-42.5995Q8.78906-36.3848 11.1379-30.9268Q13.4867-25.4687 17.6305-21.3173Q21.7743-17.1659 27.2156-14.8415Q32.6569-12.517 38.9053-12.517Q43.8975-12.517 48.42-14.0652Q52.9424-15.6133 56.6719-18.3863L76.062 1.05286Q76.6767 1.64897 77.4303 1.93774Q78.184 2.22651 78.9942 2.22651Q80.7945 2.22651 81.9043 1.0451Q83.0142-0.136312 83.0142-1.87607Q83.0142-2.70462 82.7161-3.43386Q82.4181-4.16311 81.8891-4.74065L62.5664-24.0972Q65.5835-27.9091 67.2782-32.6438Q68.9728-37.3784 68.9728-42.5995Q68.9728-48.833 66.6314-54.2741Q64.2901-59.7153 60.1631-63.8667Q56.0361-68.0181 50.5706-70.3594Q45.105-72.7008 38.9053-72.7008Q32.6569-72.7008 27.2156-70.3594Q21.7743-68.0181 17.6305-63.8667Q13.4867-59.7153 11.1379-54.2741Q8.78906-48.833 8.78906-42.5995ZM14.5376-42.5995Q14.5376-47.6339 16.4199-52.0501Q18.3022-56.4664 21.6628-59.8101Q25.0234-63.1538 29.4397-65.053Q33.8559-66.9523 38.9053-66.9523Q43.9395-66.9523 48.3388-65.053Q52.7382-63.1538 56.0988-59.8101Q59.4594-56.4664 61.3586-52.0501Q63.2579-47.6339 63.2579-42.5995Q63.2579-37.5504 61.3586-33.1509Q59.4594-28.7514 56.0988-25.3909Q52.7382-22.0304 48.3388-20.1312Q43.9395-18.232 38.9053-18.232Q33.8559-18.232 29.4397-20.1312Q25.0234-22.0304 21.6628-25.3909Q18.3022-28.7514 16.4199-33.1509Q14.5376-37.5504 14.5376-42.5995Z"/>
  </g>
  <g id="Thin-S" transform="matrix(1 0 0 1 811.291 696)">
   <path d="M8.78906-43.0798Q8.78906-37.1056 11.0478-31.8877Q13.3065-26.6698 17.28-22.6785Q21.2536-18.6872 26.4648-16.4529Q31.6761-14.2186 37.6642-14.2186Q42.7364-14.2186 47.2989-15.8769Q51.8614-17.5352 55.5509-20.4885L76.5625 0.572549Q76.9569 0.988376 77.4803 1.20702Q78.0037 1.42566 78.594 1.42566Q79.9338 1.42566 80.7032 0.554534Q81.4727-0.316595 81.4727-1.51584Q81.4727-2.08406 81.2648-2.58307Q81.0569-3.08208 80.6678-3.51937L59.6835-24.5176Q62.881-28.2693 64.6857-33.0341Q66.4905-37.7989 66.4905-43.0798Q66.4905-49.0331 64.2492-54.244Q62.008-59.4549 58.0411-63.4462Q54.0742-67.4375 48.8389-69.6788Q43.6035-71.9201 37.6642-71.9201Q31.6761-71.9201 26.4648-69.6788Q21.2536-67.4375 17.28-63.4462Q13.3065-59.4549 11.0478-54.244Q8.78906-49.0331 8.78906-43.0798ZM12.1952-43.0798Q12.1952-48.3146 14.1776-52.9211Q16.1599-57.5276 19.6707-61.0314Q23.1815-64.5352 27.788-66.5246Q32.3945-68.5139 37.6642-68.5139Q42.8985-68.5139 47.498-66.5246Q52.0974-64.5352 55.6082-61.0314Q59.119-57.5276 61.1084-52.9211Q63.0978-48.3146 63.0978-43.0798Q63.0978-37.8107 61.1084-33.2109Q59.119-28.6111 55.6082-25.1006Q52.0974-21.5901 47.498-19.6008Q42.8985-17.6114 37.6642-17.6114Q32.3945-17.6114 27.788-19.6008Q23.1815-21.5901 19.6707-25.1006Q16.1599-28.6111 14.1776-33.2109Q12.1952-37.8107 12.1952-43.0798Z"/>
  </g>
  <g id="Ultralight-S" transform="matrix(1 0 0 1 514.975 696)">
   <path d="M8.78906-43.3258Q8.78906-37.4748 11.0016-32.3799Q13.2141-27.285 17.1005-23.3757Q20.9869-19.4664 26.0803-17.2783Q31.1737-15.0902 37.0285-15.0902Q42.1417-15.0902 46.7247-16.8049Q51.3077-18.5196 54.9767-21.5652L76.8188 0.326538Q77.1004 0.650024 77.5059 0.832748Q77.9114 1.01547 78.389 1.01547Q79.493 1.01547 80.088 0.303268Q80.6831-0.408936 80.6831-1.33133Q80.6831-1.7662 80.5214-2.14729Q80.3596-2.52838 80.0423-2.89383L58.2069-24.733Q61.4967-28.4538 63.3579-33.234Q65.2191-38.0142 65.2191-43.3258Q65.2191-49.1356 63.0291-54.2286Q60.8391-59.3216 56.9542-63.2309Q53.0693-67.1402 47.9519-69.3302Q42.8345-71.5202 37.0285-71.5202Q31.1737-71.5202 26.0803-69.3302Q20.9869-67.1402 17.1005-63.2309Q13.2141-59.3216 11.0016-54.2286Q8.78906-49.1356 8.78906-43.3258ZM10.9955-43.3258Q10.9955-48.6633 13.0291-53.3672Q15.0627-58.0711 18.6504-61.657Q22.2382-65.2428 26.9421-67.2783Q31.646-69.3138 37.0285-69.3138Q42.3653-69.3138 47.0673-67.2783Q51.7693-65.2428 55.357-61.657Q58.9447-58.0711 60.9802-53.3672Q63.0157-48.6633 63.0157-43.3258Q63.0157-37.944 60.9802-33.2417Q58.9447-28.5393 55.357-24.9519Q51.7693-21.3646 47.0673-19.3291Q42.3653-17.2935 37.0285-17.2935Q31.646-17.2935 26.9421-19.3291Q22.2382-21.3646 18.6504-24.9519Q15.0627-28.5393 13.0291-33.2417Q10.9955-37.944 10.9955-43.3258Z"/>
  </g>
 </g>
</svg>
