<?xml version="1.0" encoding="UTF-8"?>
<!--Generator: Apple Native CoreSVG 175.5-->
<!DOCTYPE svg
PUBLIC "-//W3C//DTD SVG 1.1//EN"
       "http://www.w3.org/Graphics/SVG/1.1/DTD/svg11.dtd">
<svg version="1.1" xmlns="http://www.w3.org/2000/svg" xmlns:xlink="http://www.w3.org/1999/xlink" width="18.0591" height="11.6987">
 <g>
  <rect height="11.6987" opacity="0" width="18.0591" x="0" y="0"/>
  <path d="M1.2124 5.33203L4.10693 5.33203C4.91309 5.33203 5.31934 4.92578 5.31934 4.08789L5.31934 1.25049C5.31934 0.412598 4.91309 0.0126953 4.10693 0.0126953L1.2124 0.0126953C0.40625 0.0126953 0 0.412598 0 1.25049L0 4.08789C0 4.92578 0.40625 5.33203 1.2124 5.33203ZM1.2251 4.43701C1.00293 4.43701 0.89502 4.32275 0.89502 4.08789L0.89502 1.25049C0.89502 1.02197 1.00293 0.907715 1.2251 0.907715L4.08789 0.907715C4.31006 0.907715 4.42432 1.02197 4.42432 1.25049L4.42432 4.08789C4.42432 4.32275 4.31006 4.43701 4.08789 4.43701ZM7.58545 5.33203L10.4736 5.33203C11.2798 5.33203 11.686 4.92578 11.686 4.08789L11.686 1.25049C11.686 0.412598 11.2798 0.0126953 10.4736 0.0126953L7.58545 0.0126953C6.77295 0.0126953 6.3667 0.412598 6.3667 1.25049L6.3667 4.08789C6.3667 4.92578 6.77295 5.33203 7.58545 5.33203ZM7.59814 4.43701C7.36963 4.43701 7.26172 4.32275 7.26172 4.08789L7.26172 1.25049C7.26172 1.02197 7.36963 0.907715 7.59814 0.907715L10.4609 0.907715C10.6831 0.907715 10.791 1.02197 10.791 1.25049L10.791 4.08789C10.791 4.32275 10.6831 4.43701 10.4609 4.43701ZM13.9521 5.33203L16.8467 5.33203C17.6528 5.33203 18.0591 4.92578 18.0591 4.08789L18.0591 1.25049C18.0591 0.412598 17.6528 0.0126953 16.8467 0.0126953L13.9521 0.0126953C13.146 0.0126953 12.7397 0.412598 12.7397 1.25049L12.7397 4.08789C12.7397 4.92578 13.146 5.33203 13.9521 5.33203ZM13.9648 4.43701C13.7427 4.43701 13.6348 4.32275 13.6348 4.08789L13.6348 1.25049C13.6348 1.02197 13.7427 0.907715 13.9648 0.907715L16.8276 0.907715C17.0562 0.907715 17.1641 1.02197 17.1641 1.25049L17.1641 4.08789C17.1641 4.32275 17.0562 4.43701 16.8276 4.43701ZM1.2124 11.6987L4.10693 11.6987C4.91309 11.6987 5.31934 11.2988 5.31934 10.4609L5.31934 7.61719C5.31934 6.78564 4.91309 6.37939 4.10693 6.37939L1.2124 6.37939C0.40625 6.37939 0 6.78564 0 7.61719L0 10.4609C0 11.2988 0.40625 11.6987 1.2124 11.6987ZM1.2251 10.8037C1.00293 10.8037 0.89502 10.6895 0.89502 10.4609L0.89502 7.62354C0.89502 7.38867 1.00293 7.27441 1.2251 7.27441L4.08789 7.27441C4.31006 7.27441 4.42432 7.38867 4.42432 7.62354L4.42432 10.4609C4.42432 10.6895 4.31006 10.8037 4.08789 10.8037ZM7.58545 11.6987L10.4736 11.6987C11.2798 11.6987 11.686 11.2988 11.686 10.4609L11.686 7.61719C11.686 6.78564 11.2798 6.37939 10.4736 6.37939L7.58545 6.37939C6.77295 6.37939 6.3667 6.78564 6.3667 7.61719L6.3667 10.4609C6.3667 11.2988 6.77295 11.6987 7.58545 11.6987ZM7.59814 10.8037C7.36963 10.8037 7.26172 10.6895 7.26172 10.4609L7.26172 7.62354C7.26172 7.38867 7.36963 7.27441 7.59814 7.27441L10.4609 7.27441C10.6831 7.27441 10.791 7.38867 10.791 7.62354L10.791 10.4609C10.791 10.6895 10.6831 10.8037 10.4609 10.8037ZM13.9521 11.6987L16.8467 11.6987C17.6528 11.6987 18.0591 11.2988 18.0591 10.4609L18.0591 7.61719C18.0591 6.78564 17.6528 6.37939 16.8467 6.37939L13.9521 6.37939C13.146 6.37939 12.7397 6.78564 12.7397 7.61719L12.7397 10.4609C12.7397 11.2988 13.146 11.6987 13.9521 11.6987ZM13.9648 10.8037C13.7427 10.8037 13.6348 10.6895 13.6348 10.4609L13.6348 7.62354C13.6348 7.38867 13.7427 7.27441 13.9648 7.27441L16.8276 7.27441C17.0562 7.27441 17.1641 7.38867 17.1641 7.62354L17.1641 10.4609C17.1641 10.6895 17.0562 10.8037 16.8276 10.8037Z" fill="#000000" fill-opacity="0.85"/>
 </g>
</svg>
