<?xml version="1.0" encoding="UTF-8"?>
<!--Generator: Apple Native CoreSVG 175.5-->
<!DOCTYPE svg
PUBLIC "-//W3C//DTD SVG 1.1//EN"
       "http://www.w3.org/Graphics/SVG/1.1/DTD/svg11.dtd">
<svg version="1.1" xmlns="http://www.w3.org/2000/svg" xmlns:xlink="http://www.w3.org/1999/xlink" width="13.9902" height="13.9458">
 <g>
  <rect height="13.9458" opacity="0" width="13.9902" x="0" y="0"/>
  <path d="M3.90381 13.9458C4.21484 13.9458 4.43066 13.7808 4.81787 13.438L7.00781 11.4893L11.083 11.4893C12.9746 11.4893 13.9902 10.4419 13.9902 8.58203L13.9902 3.71973C13.9902 1.85986 12.9746 0.8125 11.083 0.8125L2.90723 0.8125C1.01562 0.8125 0 1.85352 0 3.71973L0 8.58203C0 10.4482 1.01562 11.4893 2.90723 11.4893L3.21191 11.4893L3.21191 13.1396C3.21191 13.6284 3.45947 13.9458 3.90381 13.9458ZM4.16406 12.7842L4.16406 10.9434C4.16406 10.6006 4.03076 10.4673 3.68799 10.4673L2.90723 10.4673C1.625 10.4673 1.02197 9.81348 1.02197 8.57568L1.02197 3.71973C1.02197 2.48193 1.625 1.83447 2.90723 1.83447L11.083 1.83447C12.3589 1.83447 12.9683 2.48193 12.9683 3.71973L12.9683 8.57568C12.9683 9.81348 12.3589 10.4673 11.083 10.4673L6.96973 10.4673C6.61426 10.4673 6.43652 10.5181 6.19531 10.7656ZM3.34521 5.99219L6.13184 5.99219C6.58887 5.99219 6.81738 5.77002 6.81738 5.30664L6.81738 4.04346C6.81738 3.58643 6.58887 3.37061 6.13184 3.37061L3.34521 3.37061C2.88184 3.37061 2.64697 3.58643 2.64697 4.04346L2.64697 5.30664C2.64697 5.77002 2.88184 5.99219 3.34521 5.99219ZM4.11328 8.91211L6.50635 8.91211C6.96338 8.91211 7.19189 8.68994 7.19189 8.22656L7.19189 7.36963C7.19189 6.9126 6.96338 6.69043 6.50635 6.69043L4.11328 6.69043C3.65625 6.69043 3.42773 6.9126 3.42773 7.36963L3.42773 8.22656C3.42773 8.68994 3.65625 8.91211 4.11328 8.91211ZM8.59473 8.53125L10.5752 8.53125C11.0322 8.53125 11.2607 8.30908 11.2607 7.85205L11.2607 4.48145C11.2607 4.02441 11.0322 3.80225 10.5752 3.80225L8.59473 3.80225C8.13135 3.80225 7.90283 4.02441 7.90283 4.48145L7.90283 7.85205C7.90283 8.30908 8.13135 8.53125 8.59473 8.53125Z" fill="#000000" fill-opacity="0.85"/>
 </g>
</svg>
