<?xml version="1.0" encoding="UTF-8"?>
<!--Generator: Apple Native CoreSVG 175-->
<!DOCTYPE svg
PUBLIC "-//W3C//DTD SVG 1.1//EN"
       "http://www.w3.org/Graphics/SVG/1.1/DTD/svg11.dtd">
<svg version="1.1" xmlns="http://www.w3.org/2000/svg" xmlns:xlink="http://www.w3.org/1999/xlink" width="3300" height="2200">
 <!--glyph: "uni1001F4.medium", point size: 100.0, font version: "17.1d1e1", template writer version: "65.1"-->
 <g id="Notes">
  <rect height="2200" id="artboard" style="fill:white;opacity:1" width="3300" x="0" y="0"/>
  <line style="fill:none;stroke:black;opacity:1;stroke-width:0.5;" x1="263" x2="3036" y1="292" y2="292"/>
  <text style="stroke:none;fill:black;font-family:sans-serif;font-size:13;font-weight:bold;" transform="matrix(1 0 0 1 263 322)">Weight/Scale Variations</text>
  <text style="stroke:none;fill:black;font-family:sans-serif;font-size:13;text-anchor:middle;" transform="matrix(1 0 0 1 559.711 322)">Ultralight</text>
  <text style="stroke:none;fill:black;font-family:sans-serif;font-size:13;text-anchor:middle;" transform="matrix(1 0 0 1 856.422 322)">Thin</text>
  <text style="stroke:none;fill:black;font-family:sans-serif;font-size:13;text-anchor:middle;" transform="matrix(1 0 0 1 1153.13 322)">Light</text>
  <text style="stroke:none;fill:black;font-family:sans-serif;font-size:13;text-anchor:middle;" transform="matrix(1 0 0 1 1449.84 322)">Regular</text>
  <text style="stroke:none;fill:black;font-family:sans-serif;font-size:13;text-anchor:middle;" transform="matrix(1 0 0 1 1746.56 322)">Medium</text>
  <text style="stroke:none;fill:black;font-family:sans-serif;font-size:13;text-anchor:middle;" transform="matrix(1 0 0 1 2043.27 322)">Semibold</text>
  <text style="stroke:none;fill:black;font-family:sans-serif;font-size:13;text-anchor:middle;" transform="matrix(1 0 0 1 2339.98 322)">Bold</text>
  <text style="stroke:none;fill:black;font-family:sans-serif;font-size:13;text-anchor:middle;" transform="matrix(1 0 0 1 2636.69 322)">Heavy</text>
  <text style="stroke:none;fill:black;font-family:sans-serif;font-size:13;text-anchor:middle;" transform="matrix(1 0 0 1 2933.4 322)">Black</text>
  <line style="fill:none;stroke:black;opacity:1;stroke-width:0.5;" x1="263" x2="3036" y1="1903" y2="1903"/>
  <g transform="matrix(1 0 0 1 263 1933)">
   <path d="M9.24805 0.830078Q10.8691 0.830078 12.2949 0.214844Q13.7207-0.400391 14.8096-1.49414Q15.8984-2.58789 16.5186-4.01367Q17.1387-5.43945 17.1387-7.05078Q17.1387-8.66211 16.5186-10.0879Q15.8984-11.5137 14.8047-12.6074Q13.7109-13.7012 12.2852-14.3164Q10.8594-14.9316 9.23828-14.9316Q7.62695-14.9316 6.20117-14.3164Q4.77539-13.7012 3.69141-12.6074Q2.60742-11.5137 1.9873-10.0879Q1.36719-8.66211 1.36719-7.05078Q1.36719-5.43945 1.9873-4.01367Q2.60742-2.58789 3.69629-1.49414Q4.78516-0.400391 6.21094 0.214844Q7.63672 0.830078 9.24805 0.830078ZM9.24805-0.654297Q7.91992-0.654297 6.7627-1.14746Q5.60547-1.64062 4.73145-2.51953Q3.85742-3.39844 3.36426-4.56055Q2.87109-5.72266 2.87109-7.05078Q2.87109-8.37891 3.35938-9.54102Q3.84766-10.7031 4.72168-11.582Q5.5957-12.4609 6.75293-12.9541Q7.91016-13.4473 9.23828-13.4473Q10.5762-13.4473 11.7334-12.9541Q12.8906-12.4609 13.7695-11.582Q14.6484-10.7031 15.1465-9.54102Q15.6445-8.37891 15.6445-7.05078Q15.6445-5.72266 15.1514-4.56055Q14.6582-3.39844 13.7842-2.51953Q12.9102-1.64062 11.748-1.14746Q10.5859-0.654297 9.24805-0.654297ZM5.6543-7.05078Q5.6543-6.72852 5.85938-6.52832Q6.06445-6.32812 6.40625-6.32812L8.51562-6.32812L8.51562-4.20898Q8.51562-3.88672 8.71094-3.67676Q8.90625-3.4668 9.23828-3.4668Q9.56055-3.4668 9.77051-3.67676Q9.98047-3.88672 9.98047-4.20898L9.98047-6.32812L12.0898-6.32812Q12.4219-6.32812 12.627-6.52832Q12.832-6.72852 12.832-7.05078Q12.832-7.38281 12.627-7.58789Q12.4219-7.79297 12.0898-7.79297L9.98047-7.79297L9.98047-9.90234Q9.98047-10.2344 9.77051-10.4443Q9.56055-10.6543 9.23828-10.6543Q8.90625-10.6543 8.71094-10.4443Q8.51562-10.2344 8.51562-9.90234L8.51562-7.79297L6.40625-7.79297Q6.06445-7.79297 5.85938-7.58789Q5.6543-7.38281 5.6543-7.05078Z"/>
  </g>
  <g transform="matrix(1 0 0 1 281.867 1933)">
   <path d="M11.709 2.91016Q13.75 2.91016 15.5518 2.12891Q17.3535 1.34766 18.7305-0.0292969Q20.1074-1.40625 20.8887-3.20801Q21.6699-5.00977 21.6699-7.05078Q21.6699-9.0918 20.8887-10.8936Q20.1074-12.6953 18.7305-14.0723Q17.3535-15.4492 15.5469-16.2305Q13.7402-17.0117 11.6992-17.0117Q9.6582-17.0117 7.85645-16.2305Q6.05469-15.4492 4.68262-14.0723Q3.31055-12.6953 2.5293-10.8936Q1.74805-9.0918 1.74805-7.05078Q1.74805-5.00977 2.5293-3.20801Q3.31055-1.40625 4.6875-0.0292969Q6.06445 1.34766 7.86621 2.12891Q9.66797 2.91016 11.709 2.91016ZM11.709 1.25Q9.98047 1.25 8.47656 0.605469Q6.97266-0.0390625 5.83496-1.17676Q4.69727-2.31445 4.05762-3.81836Q3.41797-5.32227 3.41797-7.05078Q3.41797-8.7793 4.05762-10.2832Q4.69727-11.7871 5.83008-12.9297Q6.96289-14.0723 8.4668-14.7119Q9.9707-15.3516 11.6992-15.3516Q13.4277-15.3516 14.9316-14.7119Q16.4355-14.0723 17.5781-12.9297Q18.7207-11.7871 19.3652-10.2832Q20.0098-8.7793 20.0098-7.05078Q20.0098-5.32227 19.3701-3.81836Q18.7305-2.31445 17.5928-1.17676Q16.4551-0.0390625 14.9463 0.605469Q13.4375 1.25 11.709 1.25ZM7.17773-7.05078Q7.17773-6.69922 7.41211-6.47461Q7.64648-6.25 8.01758-6.25L10.8887-6.25L10.8887-3.36914Q10.8887-2.99805 11.1133-2.76855Q11.3379-2.53906 11.6895-2.53906Q12.0605-2.53906 12.29-2.76855Q12.5195-2.99805 12.5195-3.36914L12.5195-6.25L15.4004-6.25Q15.7715-6.25 16.001-6.47461Q16.2305-6.69922 16.2305-7.05078Q16.2305-7.42188 16.001-7.65137Q15.7715-7.88086 15.4004-7.88086L12.5195-7.88086L12.5195-10.752Q12.5195-11.1328 12.29-11.3623Q12.0605-11.5918 11.6895-11.5918Q11.3379-11.5918 11.1133-11.3574Q10.8887-11.123 10.8887-10.752L10.8887-7.88086L8.01758-7.88086Q7.63672-7.88086 7.40723-7.65137Q7.17773-7.42188 7.17773-7.05078Z"/>
  </g>
  <g transform="matrix(1 0 0 1 305.646 1933)">
   <path d="M14.9707 5.66406Q17.0605 5.66406 18.96 5.01465Q20.8594 4.36523 22.4512 3.19336Q24.043 2.02148 25.2197 0.429688Q26.3965-1.16211 27.0459-3.06641Q27.6953-4.9707 27.6953-7.05078Q27.6953-9.14062 27.0459-11.04Q26.3965-12.9395 25.2197-14.5312Q24.043-16.123 22.4512-17.2998Q20.8594-18.4766 18.9551-19.126Q17.0508-19.7754 14.9609-19.7754Q12.8711-19.7754 10.9717-19.126Q9.07227-18.4766 7.48535-17.2998Q5.89844-16.123 4.72168-14.5312Q3.54492-12.9395 2.90039-11.04Q2.25586-9.14062 2.25586-7.05078Q2.25586-4.9707 2.90527-3.06641Q3.55469-1.16211 4.72656 0.429688Q5.89844 2.02148 7.49023 3.19336Q9.08203 4.36523 10.9814 5.01465Q12.8809 5.66406 14.9707 5.66406ZM14.9707 3.84766Q13.1641 3.84766 11.5283 3.2959Q9.89258 2.74414 8.53516 1.74805Q7.17773 0.751953 6.17676-0.610352Q5.17578-1.97266 4.62891-3.6084Q4.08203-5.24414 4.08203-7.05078Q4.08203-8.86719 4.62891-10.5029Q5.17578-12.1387 6.17188-13.501Q7.16797-14.8633 8.52539-15.8594Q9.88281-16.8555 11.5186-17.4023Q13.1543-17.9492 14.9609-17.9492Q16.7773-17.9492 18.4131-17.4023Q20.0488-16.8555 21.4111-15.8594Q22.7734-14.8633 23.7695-13.501Q24.7656-12.1387 25.3174-10.5029Q25.8691-8.86719 25.8691-7.05078Q25.8789-5.24414 25.332-3.6084Q24.7852-1.97266 23.7842-0.610352Q22.7832 0.751953 21.4209 1.74805Q20.0586 2.74414 18.4229 3.2959Q16.7871 3.84766 14.9707 3.84766ZM9.19922-7.05078Q9.19922-6.66992 9.45801-6.4209Q9.7168-6.17188 10.1172-6.17188L14.0625-6.17188L14.0625-2.2168Q14.0625-1.81641 14.3115-1.55762Q14.5605-1.29883 14.9512-1.29883Q15.3516-1.29883 15.6104-1.55273Q15.8691-1.80664 15.8691-2.2168L15.8691-6.17188L19.8242-6.17188Q20.2246-6.17188 20.4785-6.4209Q20.7324-6.66992 20.7324-7.05078Q20.7324-7.46094 20.4785-7.71484Q20.2246-7.96875 19.8242-7.96875L15.8691-7.96875L15.8691-11.9141Q15.8691-12.3242 15.6104-12.583Q15.3516-12.8418 14.9512-12.8418Q14.5605-12.8418 14.3115-12.583Q14.0625-12.3242 14.0625-11.9141L14.0625-7.96875L10.1172-7.96875Q9.70703-7.96875 9.45312-7.71484Q9.19922-7.46094 9.19922-7.05078Z"/>
  </g>
  <text style="stroke:none;fill:black;font-family:sans-serif;font-size:13;font-weight:bold;" transform="matrix(1 0 0 1 263 1953)">Design Variations</text>
  <text style="stroke:none;fill:black;font-family:sans-serif;font-size:13;" transform="matrix(1 0 0 1 263 1971)">Symbols are supported in up to nine weights and three scales.</text>
  <text style="stroke:none;fill:black;font-family:sans-serif;font-size:13;" transform="matrix(1 0 0 1 263 1989)">For optimal layout with text and other symbols, vertically align</text>
  <text style="stroke:none;fill:black;font-family:sans-serif;font-size:13;" transform="matrix(1 0 0 1 263 2007)">symbols with the adjacent text.</text>
  <line style="fill:none;stroke:#00AEEF;stroke-width:0.5;opacity:1.0;" x1="776" x2="776" y1="1919" y2="1933"/>
  <g transform="matrix(1 0 0 1 776 1933)">
   <path d="M3.31055 0.15625Q3.70117 0.15625 3.91602-0.00976562Q4.13086-0.175781 4.26758-0.585938L5.52734-4.0332L11.2891-4.0332L12.5488-0.585938Q12.6855-0.175781 12.9004-0.00976562Q13.1152 0.15625 13.4961 0.15625Q13.8867 0.15625 14.1162-0.0585938Q14.3457-0.273438 14.3457-0.644531Q14.3457-0.869141 14.2383-1.17188L9.6582-13.3691Q9.48242-13.8184 9.17969-14.043Q8.87695-14.2676 8.4082-14.2676Q7.5-14.2676 7.17773-13.3789L2.59766-1.16211Q2.49023-0.859375 2.49023-0.634766Q2.49023-0.263672 2.70996-0.0537109Q2.92969 0.15625 3.31055 0.15625ZM6.00586-5.51758L8.37891-12.0898L8.42773-12.0898L10.8008-5.51758Z"/>
  </g>
  <line style="fill:none;stroke:#00AEEF;stroke-width:0.5;opacity:1.0;" x1="793.197" x2="793.197" y1="1919" y2="1933"/>
  <text style="stroke:none;fill:black;font-family:sans-serif;font-size:13;font-weight:bold;" transform="matrix(1 0 0 1 776 1953)">Margins</text>
  <text style="stroke:none;fill:black;font-family:sans-serif;font-size:13;" transform="matrix(1 0 0 1 776 1971)">Leading and trailing margins on the left and right side of each symbol</text>
  <text style="stroke:none;fill:black;font-family:sans-serif;font-size:13;" transform="matrix(1 0 0 1 776 1989)">can be adjusted by modifying the x-location of the margin guidelines.</text>
  <text style="stroke:none;fill:black;font-family:sans-serif;font-size:13;" transform="matrix(1 0 0 1 776 2007)">Modifications are automatically applied proportionally to all</text>
  <text style="stroke:none;fill:black;font-family:sans-serif;font-size:13;" transform="matrix(1 0 0 1 776 2025)">scales and weights.</text>
  <g transform="matrix(1 0 0 1 1289 1933)">
   <path d="M2.8418 1.86523L4.54102 3.57422Q5.18555 4.22852 5.90332 4.17969Q6.62109 4.13086 7.31445 3.35938L18.0078-8.42773L17.041-9.4043L6.42578 2.27539Q6.16211 2.57812 5.89355 2.61719Q5.625 2.65625 5.27344 2.30469L4.10156 1.14258Q3.75 0.791016 3.79395 0.522461Q3.83789 0.253906 4.14062-0.0195312L15.6152-10.8203L14.6387-11.7871L3.04688-0.898438Q2.30469-0.214844 2.25098 0.498047Q2.19727 1.21094 2.8418 1.86523ZM9.25781-16.3281Q8.94531-16.0254 8.90625-15.6348Q8.86719-15.2441 9.04297-14.9512Q9.21875-14.6777 9.55566-14.541Q9.89258-14.4043 10.3809-14.5215Q11.4746-14.7754 12.5977-14.7314Q13.7207-14.6875 14.7949-13.9844L14.209-12.5293Q13.9551-11.9043 14.0674-11.4404Q14.1797-10.9766 14.5801-10.5664L16.875-8.25195Q17.2363-7.88086 17.5781-7.82227Q17.9199-7.76367 18.3398-7.8418L19.4043-8.03711L20.0684-7.36328L20.0293-6.80664Q20-6.43555 20.1221-6.12305Q20.2441-5.81055 20.6055-5.44922L21.3672-4.70703Q21.7285-4.3457 22.1533-4.33105Q22.5781-4.31641 22.9297-4.66797L25.8398-7.58789Q26.1914-7.93945 26.1816-8.35449Q26.1719-8.76953 25.8105-9.13086L25.0391-9.89258Q24.6875-10.2539 24.3799-10.3857Q24.0723-10.5176 23.7109-10.4883L23.1348-10.4395L22.4902-11.0742L22.7344-12.1973Q22.832-12.6172 22.6953-12.9834Q22.5586-13.3496 22.1191-13.7891L19.9219-15.9766Q18.6719-17.2168 17.2607-17.8369Q15.8496-18.457 14.4189-18.4814Q12.9883-18.5059 11.665-17.959Q10.3418-17.4121 9.25781-16.3281ZM10.752-15.957Q11.6602-16.6211 12.7002-16.9043Q13.7402-17.1875 14.8047-17.085Q15.8691-16.9824 16.8701-16.5137Q17.8711-16.0449 18.7012-15.2051L21.1328-12.793Q21.3086-12.6172 21.3525-12.4512Q21.3965-12.2852 21.3379-12.0312L21.0156-10.5469L22.5195-9.0625L23.5059-9.12109Q23.6914-9.13086 23.7891-9.09668Q23.8867-9.0625 24.0332-8.91602L24.6094-8.33984L22.168-5.89844L21.5918-6.47461Q21.4453-6.62109 21.4062-6.71875Q21.3672-6.81641 21.377-7.01172L21.4453-7.98828L19.9512-9.47266L18.4277-9.21875Q18.1836-9.16992 18.042-9.2041Q17.9004-9.23828 17.7148-9.41406L15.7129-11.416Q15.5176-11.5918 15.4932-11.7529Q15.4688-11.9141 15.5859-12.1875L16.4648-14.2773Q15.293-15.3711 13.8281-15.791Q12.3633-16.2109 10.8398-15.7617Q10.7227-15.7324 10.6885-15.8057Q10.6543-15.8789 10.752-15.957Z"/>
  </g>
  <text style="stroke:none;fill:black;font-family:sans-serif;font-size:13;font-weight:bold;" transform="matrix(1 0 0 1 1289 1953)">Exporting</text>
  <text style="stroke:none;fill:black;font-family:sans-serif;font-size:13;" transform="matrix(1 0 0 1 1289 1971)">Symbols should be outlined when exporting to ensure the</text>
  <text style="stroke:none;fill:black;font-family:sans-serif;font-size:13;" transform="matrix(1 0 0 1 1289 1989)">design is preserved when submitting to Xcode.</text>
  <text id="template-version" style="stroke:none;fill:black;font-family:sans-serif;font-size:13;text-anchor:end;" transform="matrix(1 0 0 1 3036 1933)">Template v.3.0</text>
  <text style="stroke:none;fill:black;font-family:sans-serif;font-size:13;text-anchor:end;" transform="matrix(1 0 0 1 3036 1951)">Requires Xcode 13 or greater</text>
  <text id="descriptive-name" style="stroke:none;fill:black;font-family:sans-serif;font-size:13;text-anchor:end;" transform="matrix(1 0 0 1 3036 1969)">Generated from rectangle.3.group</text>
  <text style="stroke:none;fill:black;font-family:sans-serif;font-size:13;text-anchor:end;" transform="matrix(1 0 0 1 3036 1987)">Typeset at 100 points</text>
  <text style="stroke:none;fill:black;font-family:sans-serif;font-size:13;" transform="matrix(1 0 0 1 263 726)">Small</text>
  <text style="stroke:none;fill:black;font-family:sans-serif;font-size:13;" transform="matrix(1 0 0 1 263 1156)">Medium</text>
  <text style="stroke:none;fill:black;font-family:sans-serif;font-size:13;" transform="matrix(1 0 0 1 263 1586)">Large</text>
 </g>
 <g id="Guides">
  <g id="H-reference" style="fill:#27AAE1;stroke:none;" transform="matrix(1 0 0 1 339 696)">
   <path d="M0.993347 0L3.6377 0L29.3282-67.1326L30.0301-67.1326L30.0301-70.459L28.1227-70.459ZM11.6882-24.4797L46.9818-24.4797L46.2311-26.7288L12.4382-26.7288ZM55.1193 0L57.7637 0L30.6381-70.459L29.4327-70.459L29.4327-67.1326Z"/>
  </g>
  <line id="Baseline-S" style="fill:none;stroke:#27AAE1;opacity:1;stroke-width:0.5;" x1="263" x2="3036" y1="696" y2="696"/>
  <line id="Capline-S" style="fill:none;stroke:#27AAE1;opacity:1;stroke-width:0.5;" x1="263" x2="3036" y1="625.541" y2="625.541"/>
  <g id="H-reference" style="fill:#27AAE1;stroke:none;" transform="matrix(1 0 0 1 339 1126)">
   <path d="M0.993347 0L3.6377 0L29.3282-67.1326L30.0301-67.1326L30.0301-70.459L28.1227-70.459ZM11.6882-24.4797L46.9818-24.4797L46.2311-26.7288L12.4382-26.7288ZM55.1193 0L57.7637 0L30.6381-70.459L29.4327-70.459L29.4327-67.1326Z"/>
  </g>
  <line id="Baseline-M" style="fill:none;stroke:#27AAE1;opacity:1;stroke-width:0.5;" x1="263" x2="3036" y1="1126" y2="1126"/>
  <line id="Capline-M" style="fill:none;stroke:#27AAE1;opacity:1;stroke-width:0.5;" x1="263" x2="3036" y1="1055.54" y2="1055.54"/>
  <g id="H-reference" style="fill:#27AAE1;stroke:none;" transform="matrix(1 0 0 1 339 1556)">
   <path d="M0.993347 0L3.6377 0L29.3282-67.1326L30.0301-67.1326L30.0301-70.459L28.1227-70.459ZM11.6882-24.4797L46.9818-24.4797L46.2311-26.7288L12.4382-26.7288ZM55.1193 0L57.7637 0L30.6381-70.459L29.4327-70.459L29.4327-67.1326Z"/>
  </g>
  <line id="Baseline-L" style="fill:none;stroke:#27AAE1;opacity:1;stroke-width:0.5;" x1="263" x2="3036" y1="1556" y2="1556"/>
  <line id="Capline-L" style="fill:none;stroke:#27AAE1;opacity:1;stroke-width:0.5;" x1="263" x2="3036" y1="1485.54" y2="1485.54"/>
  <line id="left-margin-Regular-M" style="fill:none;stroke:#00AEEF;stroke-width:0.5;opacity:1.0;" x1="1368.66" x2="1368.66" y1="1030.79" y2="1150.12"/>
  <line id="right-margin-Regular-M" style="fill:none;stroke:#00AEEF;stroke-width:0.5;opacity:1.0;" x1="1531.03" x2="1531.03" y1="1030.79" y2="1150.12"/>
 </g>
 <g id="Symbols">
  <g id="Black-L" transform="matrix(1 0 0 1 2823.61 1556)">
   <path d="M35.6071-35.9629L93.2905-35.9629Q112.814-35.9629 112.814-55.4235L112.814-81.815Q112.814-101.276 93.2905-101.276L35.6071-101.276Q16.084-101.276 16.084-81.815L16.084-55.4235Q16.084-35.9629 35.6071-35.9629ZM39.7893-55.7357Q35.8777-55.7357 35.8777-59.7098L35.8777-77.53Q35.8777-81.4832 39.7893-81.4832L89.0666-81.4832Q93.0199-81.4832 93.0199-77.53L93.0199-59.7098Q93.0199-55.7357 89.0666-55.7357ZM50.5229 30.1709L97.7448 30.1709Q117.268 30.1709 117.268 10.7103L117.268-6.95228Q117.268-26.4129 97.7448-26.4129L50.5229-26.4129Q30.9998-26.4129 30.9998-6.95228L30.9998 10.7103Q30.9998 30.1709 50.5229 30.1709ZM54.7051 10.3981Q50.7935 10.3981 50.7935 6.42399L50.7935-2.66599Q50.7935-6.64008 54.7051-6.64008L93.5418-6.64008Q97.4743-6.64008 97.4743-2.66599L97.4743 6.42399Q97.4743 10.3981 93.5418 10.3981ZM146.087 19.3598L183.983 19.3598Q203.506 19.3598 203.506-0.100808L203.506-69.0432Q203.506-88.5038 183.983-88.5038L146.087-88.5038Q126.585-88.5038 126.585-69.0432L126.585-0.100808Q126.585 19.3598 146.087 19.3598ZM150.29-0.413Q146.358-0.413 146.358-4.3871L146.358-64.7569Q146.358-68.7101 150.29-68.7101L179.781-68.7101Q183.712-68.7101 183.712-64.7569L183.712-4.3871Q183.712-0.413 179.781-0.413Z"/>
  </g>
  <g id="Heavy-L" transform="matrix(1 0 0 1 2528.24 1556)">
   <path d="M34.2828-36.43L92.1701-36.43Q110.369-36.43 110.369-54.5381L110.369-81.0212Q110.369-99.1294 92.1701-99.1294L34.2828-99.1294Q16.084-99.1294 16.084-81.0212L16.084-54.5381Q16.084-36.43 34.2828-36.43ZM37.6301-53.6285Q33.3128-53.6285 33.3128-58.0364L33.3128-77.5285Q33.3128-81.9062 37.6301-81.9062L88.7623-81.9062Q93.1401-81.9062 93.1401-77.5285L93.1401-58.0364Q93.1401-53.6285 88.7623-53.6285ZM49.4743 28.1102L97.414 28.1102Q115.613 28.1102 115.613 10.002L115.613-7.84759Q115.613-25.9558 97.414-25.9558L49.4743-25.9558Q31.2755-25.9558 31.2755-7.84759L31.2755 10.002Q31.2755 28.1102 49.4743 28.1102ZM52.8216 10.9116Q48.5043 10.9116 48.5043 6.5036L48.5043-4.34928Q48.5043-8.75721 52.8216-8.75721L94.0364-8.75721Q98.384-8.75721 98.384-4.34928L98.384 6.5036Q98.384 10.9116 94.0364 10.9116ZM143.823 18.1416L182.621 18.1416Q200.82 18.1416 200.82 0.0334424L200.82-69.2888Q200.82-87.3969 182.621-87.3969L143.823-87.3969Q125.655-87.3969 125.655-69.2888L125.655 0.0334424Q125.655 18.1416 143.823 18.1416ZM147.201 0.943069Q142.853 0.943069 142.853-3.46486L142.853-65.7904Q142.853-70.1681 147.201-70.1681L179.249-70.1681Q183.591-70.1681 183.591-65.7904L183.591-3.46486Q183.591 0.943069 179.249 0.943069Z"/>
  </g>
  <g id="Bold-L" transform="matrix(1 0 0 1 2233.32 1556)">
   <path d="M32.5417-36.9766L90.9061-36.9766Q107.364-36.9766 107.364-53.3202L107.364-80.1866Q107.364-96.5305 90.9061-96.5305L32.5417-96.5305Q16.084-96.5305 16.084-80.1866L16.084-53.3202Q16.084-36.9766 32.5417-36.9766ZM34.9336-51.0384Q30.1839-51.0384 30.1839-55.9022L30.1839-77.6179Q30.1839-82.4436 34.9336-82.4436L88.4379-82.4436Q93.2639-82.4436 93.2639-77.6179L93.2639-55.9022Q93.2639-51.0384 88.4379-51.0384ZM48.0416 25.6336L97.0439 25.6336Q113.502 25.6336 113.502 9.28999L113.502-9.06592Q113.502-25.4095 97.0439-25.4095L48.0416-25.4095Q31.5839-25.4095 31.5839-9.06592L31.5839 9.28999Q31.5839 25.6336 48.0416 25.6336ZM50.4336 11.5718Q45.6839 11.5718 45.6839 6.70775L45.6839-6.4839Q45.6839-11.3477 50.4336-11.3477L94.6139-11.3477Q99.4017-11.3477 99.4017-6.4839L99.4017 6.70775Q99.4017 11.5718 94.6139 11.5718ZM140.72 16.6504L180.774 16.6504Q197.232 16.6504 197.232 0.30675L197.232-69.6706Q197.232-86.0142 180.774-86.0142L140.72-86.0142Q124.301-86.0142 124.301-69.6706L124.301 0.30675Q124.301 16.6504 140.72 16.6504ZM143.151 2.58851Q138.363 2.58851 138.363-2.27528L138.363-67.0885Q138.363-71.9142 143.151-71.9142L178.358-71.9142Q183.132-71.9142 183.132-67.0885L183.132-2.27528Q183.132 2.58851 178.358 2.58851Z"/>
  </g>
  <g id="Semibold-L" transform="matrix(1 0 0 1 1937.85 1556)">
   <path d="M31.3414-37.3534L90.0347-37.3534Q105.292-37.3534 105.292-52.4805L105.292-79.6113Q105.292-94.7388 90.0347-94.7388L31.3414-94.7388Q16.084-94.7388 16.084-79.6113L16.084-52.4805Q16.084-37.3534 31.3414-37.3534ZM33.0747-49.2528Q28.027-49.2528 28.027-54.4309L28.027-77.6796Q28.027-82.8141 33.0747-82.8141L88.2143-82.8141Q93.3492-82.8141 93.3492-77.6796L93.3492-54.4309Q93.3492-49.2528 88.2143-49.2528ZM47.0539 23.9263L96.7888 23.9263Q112.046 23.9263 112.046 8.79914L112.046-9.90584Q112.046-25.033 96.7888-25.033L47.0539-25.033Q31.7965-25.033 31.7965-9.90584L31.7965 8.79914Q31.7965 23.9263 47.0539 23.9263ZM48.7873 12.0268Q43.7395 12.0268 43.7395 6.84848L43.7395-7.95549Q43.7395-13.1335 48.7873-13.1335L95.012-13.1335Q100.103-13.1335 100.103-7.95549L100.103 6.84848Q100.103 12.0268 95.012 12.0268ZM138.581 15.6223L179.501 15.6223Q194.759 15.6223 194.759 0.495167L194.759-69.9338Q194.759-85.0609 179.501-85.0609L138.581-85.0609Q123.367-85.0609 123.367-69.9338L123.367 0.495167Q123.367 15.6223 138.581 15.6223ZM140.358 3.72286Q135.267 3.72286 135.267-1.45518L135.267-67.9834Q135.267-73.118 140.358-73.118L177.743-73.118Q182.816-73.118 182.816-67.9834L182.816-1.45518Q182.816 3.72286 177.743 3.72286Z"/>
  </g>
  <g id="Medium-L" transform="matrix(1 0 0 1 1642.07 1556)">
   <path d="M30.4313-37.6391L89.374-37.6391Q103.721-37.6391 103.721-51.8439L103.721-79.1751Q103.721-93.3802 89.374-93.3802L30.4313-93.3802Q16.084-93.3802 16.084-79.1751L16.084-51.8439Q16.084-37.6391 30.4313-37.6391ZM31.6652-47.8989Q26.3914-47.8989 26.3914-53.3153L26.3914-77.7263Q26.3914-83.095 31.6652-83.095L88.0448-83.095Q93.4138-83.095 93.4138-77.7263L93.4138-53.3153Q93.4138-47.8989 88.0448-47.8989ZM46.305 22.6317L96.5954 22.6317Q110.943 22.6317 110.943 8.42695L110.943-10.5427Q110.943-24.7475 96.5954-24.7475L46.305-24.7475Q31.9577-24.7475 31.9577-10.5427L31.9577 8.42695Q31.9577 22.6317 46.305 22.6317ZM47.539 12.3719Q42.2652 12.3719 42.2652 6.95519L42.2652-9.07131Q42.2652-14.4876 47.539-14.4876L95.3138-14.4876Q100.635-14.4876 100.635-9.07131L100.635 6.95519Q100.635 12.3719 95.3138 12.3719ZM136.959 14.8428L178.536 14.8428Q192.883 14.8428 192.883 0.638032L192.883-70.1334Q192.883-84.3381 178.536-84.3381L136.959-84.3381Q122.66-84.3381 122.66-70.1334L122.66 0.638032Q122.66 14.8428 136.959 14.8428ZM138.241 4.58298Q132.92 4.58298 132.92-0.833352L132.92-68.662Q132.92-74.0307 138.241-74.0307L177.277-74.0307Q182.576-74.0307 182.576-68.662L182.576-0.833352Q182.576 4.58298 177.277 4.58298Z"/>
  </g>
  <g id="Regular-L" transform="matrix(1 0 0 1 1346.58 1556)">
   <path d="M29.2442-38.0118L88.5122-38.0118Q101.672-38.0118 101.672-51.0134L101.672-78.6061Q101.672-91.6082 88.5122-91.6082L29.2442-91.6082Q16.084-91.6082 16.084-78.6061L16.084-51.0134Q16.084-38.0118 29.2442-38.0118ZM29.8267-46.133Q24.2582-46.133 24.2582-51.8601L24.2582-77.7873Q24.2582-83.4614 29.8267-83.4614L87.8236-83.4614Q93.4982-83.4614 93.4982-77.7873L93.4982-51.8601Q93.4982-46.133 87.8236-46.133ZM45.3282 20.9432L96.3431 20.9432Q109.503 20.9432 109.503 7.94149L109.503-11.3734Q109.503-24.375 96.3431-24.375L45.3282-24.375Q32.168-24.375 32.168-11.3734L32.168 7.94149Q32.168 20.9432 45.3282 20.9432ZM45.9107 12.822Q40.3421 12.822 40.3421 7.09438L40.3421-10.5267Q40.3421-16.2539 45.9107-16.2539L95.7075-16.2539Q101.329-16.2539 101.329-10.5267L101.329 7.09438Q101.329 12.822 95.7075 12.822ZM134.844 13.826L177.277 13.826Q190.437 13.826 190.437 0.824378L190.437-70.3937Q190.437-83.3954 177.277-83.3954L134.844-83.3954Q121.737-83.3954 121.737-70.3937L121.737 0.824378Q121.737 13.826 134.844 13.826ZM135.48 5.70487Q129.858 5.70487 129.858-0.0222698L129.858-69.547Q129.858-75.2212 135.48-75.2212L176.668-75.2212Q182.263-75.2212 182.263-69.547L182.263-0.0222698Q182.263 5.70487 176.668 5.70487Z"/>
  </g>
  <g id="Light-L" transform="matrix(1 0 0 1 1051.95 1556)">
   <path d="M27.3931-38.1837L88.4358-38.1837Q99.7449-38.1837 99.7449-49.3912L99.7449-78.9876Q99.7449-90.196 88.4358-90.196L27.3931-90.196Q16.084-90.196 16.084-78.9876L16.084-49.3912Q16.084-38.1837 27.3931-38.1837ZM27.8227-44.4726Q22.407-44.4726 22.407-49.9897L22.407-78.4363Q22.407-83.9193 27.8227-83.9193L87.9381-83.9193Q93.4219-83.9193 93.4219-78.4363L93.4219-49.9897Q93.4219-44.4726 87.9381-44.4726ZM43.477 19.7218L96.3431 19.7218Q107.652 19.7218 107.652 8.51418L107.652-12.9193Q107.652-24.1269 96.3431-24.1269L43.477-24.1269Q32.168-24.1269 32.168-12.9193L32.168 8.51418Q32.168 19.7218 43.477 19.7218ZM43.9066 13.4328Q38.491 13.4328 38.491 7.91493L38.491-12.3208Q38.491-17.8379 43.9066-17.8379L95.8794-17.8379Q101.329-17.8379 101.329-12.3208L101.329 7.91493Q101.329 13.4328 95.8794 13.4328ZM130.779 12.9099L174.967 12.9099Q186.276 12.9099 186.276 1.70233L186.276-71.1572Q186.276-82.3648 174.967-82.3648L130.779-82.3648Q119.504-82.3648 119.504-71.1572L119.504 1.70233Q119.504 12.9099 130.779 12.9099ZM131.243 6.62098Q125.793 6.62098 125.793 1.10387L125.793-70.5587Q125.793-76.0417 131.243-76.0417L174.55-76.0417Q179.953-76.0417 179.953-70.5587L179.953 1.10387Q179.953 6.62098 174.55 6.62098Z"/>
  </g>
  <g id="Thin-L" transform="matrix(1 0 0 1 757.994 1556)">
   <path d="M24.9448-38.411L88.3349-38.411Q97.1957-38.411 97.1957-47.2458L97.1957-79.4923Q97.1957-88.3283 88.3349-88.3283L24.9448-88.3283Q16.084-88.3283 16.084-79.4923L16.084-47.2458Q16.084-38.411 24.9448-38.411ZM25.1721-42.2766Q19.9587-42.2766 19.9587-47.516L19.9587-79.2947Q19.9587-84.5249 25.1721-84.5249L88.0895-84.5249Q93.3209-84.5249 93.3209-79.2947L93.3209-47.516Q93.3209-42.2766 88.0895-42.2766ZM41.0287 18.1064L96.3431 18.1064Q105.204 18.1064 105.204 9.27161L105.204-14.9638Q105.204-23.7986 96.3431-23.7986L41.0287-23.7986Q32.168-23.7986 32.168-14.9638L32.168 9.27161Q32.168 18.1064 41.0287 18.1064ZM41.2561 14.2407Q36.0427 14.2407 36.0427 9.00019L36.0427-14.6936Q36.0427-19.9329 41.2561-19.9329L96.1067-19.9329Q101.329-19.9329 101.329-14.6936L101.329 9.00019Q101.329 14.2407 96.1067 14.2407ZM125.402 11.6983L171.913 11.6983Q180.774 11.6983 180.774 2.8635L180.774-72.1669Q180.774-81.0017 171.913-81.0017L125.402-81.0017Q116.55-81.0017 116.55-72.1669L116.55 2.8635Q116.55 11.6983 125.402 11.6983ZM125.639 7.83262Q120.416 7.83262 120.416 2.59329L120.416-71.8967Q120.416-77.127 125.639-77.127L171.748-77.127Q176.899-77.127 176.899-71.8967L176.899 2.59329Q176.899 7.83262 171.748 7.83262Z"/>
  </g>
  <g id="Ultralight-L" transform="matrix(1 0 0 1 462.692 1556)">
   <path d="M23.6908-38.5274L88.2832-38.5274Q95.89-38.5274 95.89-46.1469L95.89-79.7508Q95.89-87.3717 88.2832-87.3717L23.6908-87.3717Q16.084-87.3717 16.084-79.7508L16.084-46.1469Q16.084-38.5274 23.6908-38.5274ZM23.8145-41.1519Q18.7047-41.1519 18.7047-46.2489L18.7047-79.7343Q18.7047-84.8351 23.8145-84.8351L88.167-84.8351Q93.2693-84.8351 93.2693-79.7343L93.2693-46.2489Q93.2693-41.1519 88.167-41.1519ZM39.7747 17.279L96.3431 17.279Q103.95 17.279 103.95 9.65956L103.95-16.011Q103.95-23.6305 96.3431-23.6305L39.7747-23.6305Q32.168-23.6305 32.168-16.011L32.168 9.65956Q32.168 17.279 39.7747 17.279ZM39.8984 14.6545Q34.7887 14.6545 34.7887 9.55605L34.7887-15.9089Q34.7887-21.006 39.8984-21.006L96.2231-21.006Q101.329-21.006 101.329-15.9089L101.329 9.55605Q101.329 14.6545 96.2231 14.6545ZM122.648 11.0777L170.349 11.0777Q177.955 11.0777 177.955 3.45824L177.955-72.6841Q177.955-80.3036 170.349-80.3036L122.648-80.3036Q115.037-80.3036 115.037-72.6841L115.037 3.45824Q115.037 11.0777 122.648 11.0777ZM122.769 8.45321Q117.662 8.45321 117.662 3.35616L117.662-72.5821Q117.662-77.6829 122.769-77.6829L170.313-77.6829Q175.335-77.6829 175.335-72.5821L175.335 3.35616Q175.335 8.45321 170.313 8.45321Z"/>
  </g>
  <g id="Black-M" transform="matrix(1 0 0 1 2847.46 1126)">
   <path d="M28.4737-35.4196L73.2286-35.4196Q89.2413-35.4196 89.2413-51.4158L89.2413-72.0552Q89.2413-88.0515 73.2286-88.0515L28.4737-88.0515Q12.4609-88.0515 12.4609-72.0552L12.4609-51.4158Q12.4609-35.4196 28.4737-35.4196ZM32.4106-52.7026Q29.7495-52.7026 29.7495-55.3802L29.7495-68.0906Q29.7495-70.7627 32.4106-70.7627L69.2807-70.7627Q71.9528-70.7627 71.9528-68.0906L71.9528-55.3802Q71.9528-52.7026 69.2807-52.7026ZM39.7927 17.0446L76.0113 17.0446Q92.0241 17.0446 92.0241 1.04831L92.0241-12.7619Q92.0241-28.7582 76.0113-28.7582L39.7927-28.7582Q23.7799-28.7582 23.7799-12.7619L23.7799 1.04831Q23.7799 17.0446 39.7927 17.0446ZM43.7296-0.238454Q41.0685-0.238454 41.0685-2.91604L41.0685-8.79758Q41.0685-11.4752 43.7296-11.4752L72.0689-11.4752Q74.7355-11.4752 74.7355-8.79758L74.7355-2.91604Q74.7355-0.238454 72.0689-0.238454ZM114.575 7.98602L143.396 7.98602Q159.409 7.98602 159.409-8.01025L159.409-61.3187Q159.409-77.315 143.396-77.315L114.575-77.315Q98.5675-77.315 98.5675-61.3187L98.5675-8.01025Q98.5675 7.98602 114.575 7.98602ZM118.517-9.29702Q115.851-9.29702 115.851-11.9746L115.851-57.3544Q115.851-60.0265 118.517-60.0265L139.454-60.0265Q142.121-60.0265 142.121-57.3544L142.121-11.9746Q142.121-9.29702 139.454-9.29702Z"/>
  </g>
  <g id="Heavy-M" transform="matrix(1 0 0 1 2551.87 1126)">
   <path d="M27.3498-35.8603L72.1404-35.8603Q87.0293-35.8603 87.0293-50.6999L87.0293-71.244Q87.0293-86.0837 72.1404-86.0837L27.3498-86.0837Q12.4609-86.0837 12.4609-71.244L12.4609-50.6999Q12.4609-35.8603 27.3498-35.8603ZM30.4847-50.7958Q27.4129-50.7958 27.4129-53.9169L27.4129-68.0293Q27.4129-71.134 30.4847-71.134L68.9727-71.134Q72.0773-71.134 72.0773-68.0293L72.0773-53.9169Q72.0773-50.7958 68.9727-50.7958ZM38.9383 15.1427L75.6879 15.1427Q90.5768 15.1427 90.5768 0.303074L90.5768-13.4946Q90.5768-28.3342 75.6879-28.3342L38.9383-28.3342Q24.0494-28.3342 24.0494-13.4946L24.0494 0.303074Q24.0494 15.1427 38.9383 15.1427ZM42.0732 0.207199Q39.0014 0.207199 39.0014-2.91391L39.0014-10.2776Q39.0014-13.3987 42.0732-13.3987L72.5366-13.3987Q75.6249-13.3987 75.6249-10.2776L75.6249-2.91391Q75.6249 0.207199 72.5366 0.207199ZM112.737 6.87963L142.278 6.87963Q157.167 6.87963 157.167-7.96001L157.167-61.4884Q157.167-76.328 142.278-76.328L112.737-76.328Q97.8641-76.328 97.8641-61.4884L97.8641-7.96001Q97.8641 6.87963 112.737 6.87963ZM115.888-8.05588Q112.8-8.05588 112.8-11.177L112.8-58.2714Q112.8-61.3761 115.888-61.3761L139.129-61.3761Q142.215-61.3761 142.215-58.2714L142.215-11.177Q142.215-8.05588 139.129-8.05588Z"/>
  </g>
  <g id="Bold-M" transform="matrix(1 0 0 1 2256.42 1126)">
   <path d="M26.0926-36.3533L70.9231-36.3533Q84.5548-36.3533 84.5548-49.8991L84.5548-70.3365Q84.5548-83.8823 70.9231-83.8823L26.0926-83.8823Q12.4609-83.8823 12.4609-70.3365L12.4609-49.8991Q12.4609-36.3533 26.0926-36.3533ZM28.3303-48.6628Q24.7991-48.6628 24.7991-52.28L24.7991-67.9608Q24.7991-71.5493 28.3303-71.5493L68.6281-71.5493Q72.2166-71.5493 72.2166-67.9608L72.2166-52.28Q72.2166-48.6628 68.6281-48.6628ZM37.9826 13.0152L75.3262 13.0152Q88.9579 13.0152 88.9579-0.53058L88.9579-14.3141Q88.9579-27.8599 75.3262-27.8599L37.9826-27.8599Q24.3509-27.8599 24.3509-14.3141L24.3509-0.53058Q24.3509 13.0152 37.9826 13.0152ZM40.2203 0.705726Q36.689 0.705726 36.689-2.91153L36.689-11.9332Q36.689-15.5504 40.2203-15.5504L73.0598-15.5504Q76.6197-15.5504 76.6197-11.9332L76.6197-2.91153Q76.6197 0.705726 73.0598 0.705726ZM110.68 5.64197L141.028 5.64197Q154.66 5.64197 154.66-7.9038L154.66-61.6782Q154.66-75.2239 141.028-75.2239L110.68-75.2239Q97.0772-75.2239 97.0772-61.6782L97.0772-7.9038Q97.0772 5.64197 110.68 5.64197ZM112.947-6.6675Q109.387-6.6675 109.387-10.2847L109.387-59.2973Q109.387-62.8858 112.947-62.8858L138.767-62.8858Q142.322-62.8858 142.322-59.2973L142.322-10.2847Q142.322-6.6675 138.767-6.6675Z"/>
  </g>
  <g id="Semibold-M" transform="matrix(1 0 0 1 1960.57 1126)">
   <path d="M25.2259-36.6932L70.0839-36.6932Q82.8489-36.6932 82.8489-49.347L82.8489-69.7108Q82.8489-82.3647 70.0839-82.3647L25.2259-82.3647Q12.4609-82.3647 12.4609-69.7108L12.4609-49.347Q12.4609-36.6932 25.2259-36.6932ZM26.8451-47.1923Q22.9971-47.1923 22.9971-51.1515L22.9971-67.9135Q22.9971-71.8356 26.8451-71.8356L68.3905-71.8356Q72.3127-71.8356 72.3127-67.9135L72.3127-51.1515Q72.3127-47.1923 68.3905-47.1923ZM37.3237 11.5485L75.0768 11.5485Q87.8418 11.5485 87.8418-1.1053L87.8418-14.8791Q87.8418-27.5329 75.0768-27.5329L37.3237-27.5329Q24.5587-27.5329 24.5587-14.8791L24.5587-1.1053Q24.5587 11.5485 37.3237 11.5485ZM38.9429 1.04941Q35.0949 1.04941 35.0949-2.90988L35.0949-13.0746Q35.0949-17.0338 38.9429-17.0338L73.4205-17.0338Q77.3056-17.0338 77.3056-13.0746L77.3056-2.90988Q77.3056 1.04941 73.4205 1.04941ZM109.263 4.78874L140.166 4.78874Q152.931 4.78874 152.931-7.86505L152.931-61.809Q152.931-74.4628 140.166-74.4628L109.263-74.4628Q96.5348-74.4628 96.5348-61.809L96.5348-7.86505Q96.5348 4.78874 109.263 4.78874ZM110.919-5.71035Q107.034-5.71035 107.034-9.66952L107.034-60.0045Q107.034-63.9266 110.919-63.9266L138.517-63.9266Q142.395-63.9266 142.395-60.0045L142.395-9.66952Q142.395-5.71035 138.517-5.71035Z"/>
  </g>
  <g id="Medium-M" transform="matrix(1 0 0 1 1664.52 1126)">
   <path d="M24.5688-36.9509L69.4476-36.9509Q81.5554-36.9509 81.5554-48.9284L81.5554-69.2364Q81.5554-81.2141 69.4476-81.2141L24.5688-81.2141Q12.4609-81.2141 12.4609-69.2364L12.4609-48.9284Q12.4609-36.9509 24.5688-36.9509ZM25.719-46.0773Q21.6308-46.0773 21.6308-50.2958L21.6308-67.8777Q21.6308-72.0527 25.719-72.0527L68.2104-72.0527Q72.3855-72.0527 72.3855-67.8777L72.3855-50.2958Q72.3855-46.0773 68.2104-46.0773ZM36.8241 10.4364L74.8877 10.4364Q86.9955 10.4364 86.9955-1.54107L86.9955-15.3075Q86.9955-27.2849 74.8877-27.2849L36.8241-27.2849Q24.7163-27.2849 24.7163-15.3075L24.7163-1.54107Q24.7163 10.4364 36.8241 10.4364ZM37.9744 1.31Q33.8862 1.31 33.8862-2.90864L33.8862-13.94Q33.8862-18.1585 37.9744-18.1585L73.694-18.1585Q77.8256-18.1585 77.8256-13.94L77.8256-2.90864Q77.8256 1.31 73.694 1.31ZM108.188 4.14179L139.512 4.14179Q151.62 4.14179 151.62-7.83567L151.62-61.9082Q151.62-73.8857 139.512-73.8857L108.188-73.8857Q96.1235-73.8857 96.1235-61.9082L96.1235-7.83567Q96.1235 4.14179 108.188 4.14179ZM109.382-4.9846Q105.25-4.9846 105.25-9.20309L105.25-60.5408Q105.25-64.7158 109.382-64.7158L138.327-64.7158Q142.45-64.7158 142.45-60.5408L142.45-9.20309Q142.45-4.9846 138.327-4.9846Z"/>
  </g>
  <g id="Regular-M" transform="matrix(1 0 0 1 1368.66 1126)">
   <path d="M23.7116-37.2871L68.6176-37.2871Q79.8682-37.2871 79.8682-48.3824L79.8682-68.6177Q79.8682-79.7131 68.6176-79.7131L23.7116-79.7131Q12.4609-79.7131 12.4609-68.6177L12.4609-48.3824Q12.4609-37.2871 23.7116-37.2871ZM24.2501-44.623Q19.8487-44.623 19.8487-49.1798L19.8487-67.831Q19.8487-72.3359 24.2501-72.3359L67.9754-72.3359Q72.4805-72.3359 72.4805-67.831L72.4805-49.1798Q72.4805-44.623 67.9754-44.623ZM36.1725 8.98581L74.641 8.98581Q85.8917 8.98581 85.8917-2.10947L85.8917-15.8662Q85.8917-26.9615 74.641-26.9615L36.1725-26.9615Q24.9219-26.9615 24.9219-15.8662L24.9219-2.10947Q24.9219 8.98581 36.1725 8.98581ZM36.711 1.64991Q32.3096 1.64991 32.3096-2.90701L32.3096-15.0689Q32.3096-19.6256 36.711-19.6256L74.0507-19.6256Q78.5039-19.6256 78.5039-15.0689L78.5039-2.90701Q78.5039 1.64991 74.0507 1.64991ZM106.786 3.29793L138.66 3.29793Q149.91 3.29793 149.91-7.79735L149.91-62.0376Q149.91-73.1329 138.66-73.1329L106.786-73.1329Q95.587-73.1329 95.587-62.0376L95.587-7.79735Q95.587 3.29793 106.786 3.29793ZM107.376-4.03797Q102.923-4.03797 102.923-8.59471L102.923-61.2402Q102.923-65.7451 107.376-65.7451L138.08-65.7451Q142.523-65.7451 142.523-61.2402L142.523-8.59471Q142.523-4.03797 138.08-4.03797Z"/>
  </g>
  <g id="Light-M" transform="matrix(1 0 0 1 1073.81 1126)">
   <path d="M22.0519-37.4412L68.5492-37.4412Q78.1401-37.4412 78.1401-46.928L78.1401-68.9598Q78.1401-78.4471 68.5492-78.4471L22.0519-78.4471Q12.4609-78.4471 12.4609-68.9598L12.4609-46.928Q12.4609-37.4412 22.0519-37.4412ZM22.4533-43.1344Q18.189-43.1344 18.189-47.5029L18.189-68.4128Q18.189-72.7464 22.4533-72.7464L68.078-72.7464Q72.412-72.7464 72.412-68.4128L72.412-47.5029Q72.412-43.1344 68.078-43.1344ZM34.5129 7.89078L74.641 7.89078Q84.232 7.89078 84.232-1.59602L84.232-17.2522Q84.232-26.739 74.641-26.739L34.5129-26.739Q24.9219-26.739 24.9219-17.2522L24.9219-1.59602Q24.9219 7.89078 34.5129 7.89078ZM34.9142 2.19756Q30.65 2.19756 30.65-2.17134L30.65-16.6774Q30.65-21.0458 34.9142-21.0458L74.2048-21.0458Q78.5039-21.0458 78.5039-16.6774L78.5039-2.17134Q78.5039 2.19756 74.2048 2.19756ZM103.141 2.47659L136.589 2.47659Q146.18 2.47659 146.18-7.01022L146.18-62.7221Q146.18-72.2089 136.589-72.2089L103.141-72.2089Q93.5849-72.2089 93.5849-62.7221L93.5849-7.01022Q93.5849 2.47659 103.141 2.47659ZM103.578-3.21663Q99.2782-3.21663 99.2782-7.58507L99.2782-62.1473Q99.2782-66.4808 103.578-66.4808L136.18-66.4808Q140.452-66.4808 140.452-62.1473L140.452-7.58507Q140.452-3.21663 136.18-3.21663Z"/>
  </g>
  <g id="Thin-M" transform="matrix(1 0 0 1 779.568 1126)">
   <path d="M19.8569-37.645L68.4587-37.645Q75.8546-37.645 75.8546-45.0045L75.8546-69.4123Q75.8546-76.7726 68.4587-76.7726L19.8569-76.7726Q12.4609-76.7726 12.4609-69.4123L12.4609-45.0045Q12.4609-37.645 19.8569-37.645ZM20.0769-41.1656Q15.994-41.1656 15.994-45.285L15.994-69.1824Q15.994-73.2893 20.0769-73.2893L68.2138-73.2893Q72.3216-73.2893 72.3216-69.1824L72.3216-45.285Q72.3216-41.1656 68.2138-41.1656ZM32.3179 6.44252L74.641 6.44252Q82.037 6.44252 82.037-0.916947L82.037-19.0853Q82.037-26.4447 74.641-26.4447L32.3179-26.4447Q24.9219-26.4447 24.9219-19.0853L24.9219-0.916947Q24.9219 6.44252 32.3179 6.44252ZM32.5378 2.92189Q28.455 2.92189 28.455-1.19835L28.455-18.8047Q28.455-22.9241 32.5378-22.9241L74.4086-22.9241Q78.5039-22.9241 78.5039-18.8047L78.5039-1.19835Q78.5039 2.92189 74.4086 2.92189ZM98.3206 1.3903L133.851 1.3903Q141.247 1.3903 141.247-5.96917L141.247-63.6274Q141.247-70.9869 133.851-70.9869L98.3206-70.9869Q90.9371-70.9869 90.9371-63.6274L90.9371-5.96917Q90.9371 1.3903 98.3206 1.3903ZM98.5539-2.13034Q94.4577-2.13034 94.4577-6.24973L94.4577-63.3469Q94.4577-67.4538 98.5539-67.4538L133.668-67.4538Q137.714-67.4538 137.714-63.3469L137.714-6.24973Q137.714-2.13034 133.668-2.13034Z"/>
  </g>
  <g id="Ultralight-M" transform="matrix(1 0 0 1 484.121 1126)">
   <path d="M18.7326-37.7494L68.4123-37.7494Q74.684-37.7494 74.684-44.0192L74.684-69.644Q74.684-75.9149 68.4123-75.9149L18.7326-75.9149Q12.4609-75.9149 12.4609-69.644L12.4609-44.0192Q12.4609-37.7494 18.7326-37.7494ZM18.8597-40.1572Q14.8697-40.1572 14.8697-44.1491L14.8697-69.5766Q14.8697-73.5674 18.8597-73.5674L68.2833-73.5674Q72.2752-73.5674 72.2752-69.5766L72.2752-44.1491Q72.2752-40.1572 68.2833-40.1572ZM31.1936 5.70073L74.641 5.70073Q80.9127 5.70073 80.9127-0.569128L80.9127-20.0241Q80.9127-26.294 74.641-26.294L31.1936-26.294Q24.9219-26.294 24.9219-20.0241L24.9219-0.569128Q24.9219 5.70073 31.1936 5.70073ZM31.3207 3.29288Q27.3307 3.29288 27.3307-0.699992L27.3307-19.8943Q27.3307-23.8861 31.3207-23.8861L74.513-23.8861Q78.5039-23.8861 78.5039-19.8943L78.5039-0.699992Q78.5039 3.29288 74.513 3.29288ZM95.8516 0.833905L132.448 0.833905Q138.72 0.833905 138.72-5.43595L138.72-64.0911Q138.72-70.361 132.448-70.361L95.8516-70.361Q89.5809-70.361 89.5809-64.0911L89.5809-5.43595Q89.5809 0.833905 95.8516 0.833905ZM95.9807-1.57394Q91.9887-1.57394 91.9887-5.56578L91.9887-63.9613Q91.9887-67.9522 95.9807-67.9522L132.382-67.9522Q136.311-67.9522 136.311-63.9613L136.311-5.56578Q136.311-1.57394 132.382-1.57394Z"/>
  </g>
  <g id="Black-S" transform="matrix(1 0 0 1 2865.82 696)">
   <path d="M22.5586-35.2539L57.7148-35.2539Q70.5078-35.2539 70.5078-48.0469L70.5078-64.3555Q70.5078-77.1484 57.7148-77.1484L22.5586-77.1484Q9.76562-77.1484 9.76562-64.3555L9.76562-48.0469Q9.76562-35.2539 22.5586-35.2539ZM25.8789-49.4141Q23.9258-49.4141 23.9258-51.3672L23.9258-61.0352Q23.9258-62.9883 25.8789-62.9883L54.3945-62.9883Q56.3477-62.9883 56.3477-61.0352L56.3477-51.3672Q56.3477-49.4141 54.3945-49.4141ZM31.3477 6.25L59.668 6.25Q72.4609 6.25 72.4609-6.54297L72.4609-17.4805Q72.4609-30.2734 59.668-30.2734L31.3477-30.2734Q18.5547-30.2734 18.5547-17.4805L18.5547-6.54297Q18.5547 6.25 31.3477 6.25ZM34.668-7.91016Q32.7148-7.91016 32.7148-9.86328L32.7148-14.1602Q32.7148-16.1133 34.668-16.1133L56.3477-16.1133Q58.3008-16.1133 58.3008-14.1602L58.3008-9.86328Q58.3008-7.91016 56.3477-7.91016ZM90.1367-1.07422L112.598-1.07422Q125.391-1.07422 125.391-13.8672L125.391-55.6641Q125.391-68.457 112.598-68.457L90.1367-68.457Q77.3438-68.457 77.3438-55.6641L77.3438-13.8672Q77.3438-1.07422 90.1367-1.07422ZM93.457-15.2344Q91.5039-15.2344 91.5039-17.1875L91.5039-52.3438Q91.5039-54.2969 93.457-54.2969L109.277-54.2969Q111.23-54.2969 111.23-52.3438L111.23-17.1875Q111.23-15.2344 109.277-15.2344Z"/>
  </g>
  <g id="Heavy-S" transform="matrix(1 0 0 1 2569.83 696)">
   <path d="M21.8095-35.6112L56.7929-35.6112Q68.8368-35.6112 68.8368-47.6205L68.8368-63.6179Q68.8368-75.6272 56.7929-75.6272L21.8095-75.6272Q9.76562-75.6272 9.76562-63.6179L9.76562-47.6205Q9.76562-35.6112 21.8095-35.6112ZM24.4614-47.9735Q22.1395-47.9735 22.1395-50.33L22.1395-60.9084Q22.1395-63.2533 24.4614-63.2533L54.1179-63.2533Q56.4629-63.2533 56.4629-60.9084L56.4629-50.33Q56.4629-47.9735 54.1179-47.9735ZM30.8291 4.76334L59.3914 4.76334Q71.4353 4.76334 71.4353-7.24596L71.4353-17.9299Q71.4353-29.9392 59.3914-29.9392L30.8291-29.9392Q18.7852-29.9392 18.7852-17.9299L18.7852-7.24596Q18.7852 4.76334 30.8291 4.76334ZM33.4809-7.599Q31.159-7.599 31.159-9.95548L31.159-15.2204Q31.159-17.5769 33.4809-17.5769L56.728-17.5769Q59.0614-17.5769 59.0614-15.2204L59.0614-9.95548Q59.0614-7.599 56.728-7.599ZM89.0304-1.9155L111.906-1.9155Q123.95-1.9155 123.95-13.9248L123.95-55.7217Q123.95-67.731 111.906-67.731L89.0304-67.731Q76.998-67.731 76.998-55.7217L76.998-13.9248Q76.998-1.9155 89.0304-1.9155ZM91.6938-14.2778Q89.3604-14.2778 89.3604-16.6343L89.3604-53.0122Q89.3604-55.3571 91.6938-55.3571L109.243-55.3571Q111.576-55.3571 111.576-53.0122L111.576-16.6343Q111.576-14.2778 109.243-14.2778Z"/>
  </g>
  <g id="Bold-S" transform="matrix(1 0 0 1 2273.93 696)">
   <path d="M20.9717-36.0107L55.7617-36.0107Q66.9678-36.0107 66.9678-47.1436L66.9678-62.793Q66.9678-73.9258 55.7617-73.9258L20.9717-73.9258Q9.76562-73.9258 9.76562-62.793L9.76562-47.1436Q9.76562-36.0107 20.9717-36.0107ZM22.876-46.3623Q20.1416-46.3623 20.1416-49.1699L20.1416-60.7666Q20.1416-63.5498 22.876-63.5498L53.8086-63.5498Q56.5918-63.5498 56.5918-60.7666L56.5918-49.1699Q56.5918-46.3623 53.8086-46.3623ZM30.249 3.10059L59.082 3.10059Q70.2881 3.10059 70.2881-8.03223L70.2881-18.4326Q70.2881-29.5654 59.082-29.5654L30.249-29.5654Q19.043-29.5654 19.043-18.4326L19.043-8.03223Q19.043 3.10059 30.249 3.10059ZM32.1533-7.25098Q29.4189-7.25098 29.4189-10.0586L29.4189-16.4062Q29.4189-19.2139 32.1533-19.2139L57.1533-19.2139Q59.9121-19.2139 59.9121-16.4062L59.9121-10.0586Q59.9121-7.25098 57.1533-7.25098ZM87.793-2.85645L111.133-2.85645Q122.339-2.85645 122.339-13.9893L122.339-55.7861Q122.339-66.9189 111.133-66.9189L87.793-66.9189Q76.6113-66.9189 76.6113-55.7861L76.6113-13.9893Q76.6113-2.85645 87.793-2.85645ZM89.7217-13.208Q86.9629-13.208 86.9629-16.0156L86.9629-53.7598Q86.9629-56.543 89.7217-56.543L109.204-56.543Q111.963-56.543 111.963-53.7598L111.963-16.0156Q111.963-13.208 109.204-13.208Z"/>
  </g>
  <g id="Semibold-S" transform="matrix(1 0 0 1 1977.77 696)">
   <path d="M20.394-36.2862L55.0508-36.2862Q65.6792-36.2862 65.6792-46.8147L65.6792-62.2242Q65.6792-72.7527 55.0508-72.7527L20.394-72.7527Q9.76562-72.7527 9.76562-62.2242L9.76562-46.8147Q9.76562-36.2862 20.394-36.2862ZM21.7829-45.2515Q18.7642-45.2515 18.7642-48.3701L18.7642-60.6688Q18.7642-63.7542 21.7829-63.7542L53.5953-63.7542Q56.6807-63.7542 56.6807-60.6688L56.6807-48.3701Q56.6807-45.2515 53.5953-45.2515ZM29.8491 1.9542L58.8687 1.9542Q69.4972 1.9542 69.4972-8.57432L69.4972-18.7792Q69.4972-29.3077 58.8687-29.3077L29.8491-29.3077Q19.2207-29.3077 19.2207-18.7792L19.2207-8.57432Q19.2207 1.9542 29.8491 1.9542ZM31.238-7.01104Q28.2192-7.01104 28.2192-10.1297L28.2192-17.2238Q28.2192-20.3425 31.238-20.3425L57.4466-20.3425Q60.4986-20.3425 60.4986-17.2238L60.4986-10.1297Q60.4986-7.01104 57.4466-7.01104ZM86.9398-3.50518L110.6-3.50518Q121.228-3.50518 121.228-14.0337L121.228-55.8306Q121.228-66.3591 110.6-66.3591L86.9398-66.3591Q76.3447-66.3591 76.3447-55.8306L76.3447-14.0337Q76.3447-3.50518 86.9398-3.50518ZM88.362-12.4704Q85.31-12.4704 85.31-15.5891L85.31-54.2752Q85.31-57.3605 88.362-57.3605L109.177-57.3605Q112.229-57.3605 112.229-54.2752L112.229-15.5891Q112.229-12.4704 109.177-12.4704Z"/>
  </g>
  <g id="Medium-S" transform="matrix(1 0 0 1 1681.48 696)">
   <path d="M19.9561-36.4951L54.5117-36.4951Q64.7021-36.4951 64.7021-46.5654L64.7021-61.793Q64.7021-71.8633 54.5117-71.8633L19.9561-71.8633Q9.76562-71.8633 9.76562-61.793L9.76562-46.5654Q9.76562-36.4951 19.9561-36.4951ZM20.9541-44.4092Q17.7197-44.4092 17.7197-47.7637L17.7197-60.5947Q17.7197-63.9092 20.9541-63.9092L53.4336-63.9092Q56.748-63.9092 56.748-60.5947L56.748-47.7637Q56.748-44.4092 53.4336-44.4092ZM29.5459 1.08496L58.707 1.08496Q68.8975 1.08496 68.8975-8.98535L68.8975-19.042Q68.8975-29.1123 58.707-29.1123L29.5459-29.1123Q19.3555-29.1123 19.3555-19.042L19.3555-8.98535Q19.3555 1.08496 29.5459 1.08496ZM30.5439-6.8291Q27.3096-6.8291 27.3096-10.1836L27.3096-17.8438Q27.3096-21.1982 30.5439-21.1982L57.6689-21.1982Q60.9434-21.1982 60.9434-17.8438L60.9434-10.1836Q60.9434-6.8291 57.6689-6.8291ZM86.293-3.99707L110.195-3.99707Q120.386-3.99707 120.386-14.0674L120.386-55.8643Q120.386-65.9346 110.195-65.9346L86.293-65.9346Q76.1426-65.9346 76.1426-55.8643L76.1426-14.0674Q76.1426-3.99707 86.293-3.99707ZM87.3311-11.9111Q84.0566-11.9111 84.0566-15.2656L84.0566-54.666Q84.0566-57.9805 87.3311-57.9805L109.157-57.9805Q112.432-57.9805 112.432-54.666L112.432-15.2656Q112.432-11.9111 109.157-11.9111Z"/>
  </g>
  <g id="Regular-S" transform="matrix(1 0 0 1 1385.32 696)">
   <path d="M19.3848-36.7676L53.8086-36.7676Q63.4277-36.7676 63.4277-46.2402L63.4277-61.2305Q63.4277-70.7031 53.8086-70.7031L19.3848-70.7031Q9.76562-70.7031 9.76562-61.2305L9.76562-46.2402Q9.76562-36.7676 19.3848-36.7676ZM19.873-43.3105Q16.3574-43.3105 16.3574-46.9727L16.3574-60.498Q16.3574-64.1113 19.873-64.1113L53.2227-64.1113Q56.8359-64.1113 56.8359-60.498L56.8359-46.9727Q56.8359-43.3105 53.2227-43.3105ZM29.1504-0.0488281L58.4961-0.0488281Q68.1152-0.0488281 68.1152-9.52148L68.1152-19.3848Q68.1152-28.8574 58.4961-28.8574L29.1504-28.8574Q19.5312-28.8574 19.5312-19.3848L19.5312-9.52148Q19.5312-0.0488281 29.1504-0.0488281ZM29.6387-6.5918Q26.123-6.5918 26.123-10.2539L26.123-18.6523Q26.123-22.3145 29.6387-22.3145L57.959-22.3145Q61.5234-22.3145 61.5234-18.6523L61.5234-10.2539Q61.5234-6.5918 57.959-6.5918ZM85.4492-4.63867L109.668-4.63867Q119.287-4.63867 119.287-14.1113L119.287-55.9082Q119.287-65.3809 109.668-65.3809L85.4492-65.3809Q75.8789-65.3809 75.8789-55.9082L75.8789-14.1113Q75.8789-4.63867 85.4492-4.63867ZM85.9863-11.1816Q82.4219-11.1816 82.4219-14.8438L82.4219-55.1758Q82.4219-58.7891 85.9863-58.7891L109.131-58.7891Q112.695-58.7891 112.695-55.1758L112.695-14.8438Q112.695-11.1816 109.131-11.1816Z"/>
  </g>
  <g id="Light-S" transform="matrix(1 0 0 1 1090.26 696)">
   <path d="M17.9166-36.9039L53.7481-36.9039Q61.8991-36.9039 61.8991-44.9537L61.8991-61.5331Q61.8991-69.5831 53.7481-69.5831L17.9166-69.5831Q9.76562-69.5831 9.76562-61.5331L9.76562-44.9537Q9.76562-36.9039 17.9166-36.9039ZM18.2836-41.9937Q14.8893-41.9937 14.8893-45.4892L14.8893-61.0128Q14.8893-64.4745 18.2836-64.4745L53.3134-64.4745Q56.7754-64.4745 56.7754-61.0128L56.7754-45.4892Q56.7754-41.9937 53.3134-41.9937ZM27.6822-1.01751L58.4961-1.01751Q66.6471-1.01751 66.6471-9.06728L66.6471-20.6108Q66.6471-28.6606 58.4961-28.6606L27.6822-28.6606Q19.5312-28.6606 19.5312-20.6108L19.5312-9.06728Q19.5312-1.01751 27.6822-1.01751ZM28.0492-6.10733Q24.6549-6.10733 24.6549-9.60312L24.6549-20.0752Q24.6549-23.5708 28.0492-23.5708L58.0953-23.5708Q61.5234-23.5708 61.5234-20.0752L61.5234-9.60312Q61.5234-6.10733 58.0953-6.10733ZM82.225-5.36524L107.836-5.36524Q115.987-5.36524 115.987-13.415L115.987-56.5137Q115.987-64.5635 107.836-64.5635L82.225-64.5635Q74.1079-64.5635 74.1079-56.5137L74.1079-13.415Q74.1079-5.36524 82.225-5.36524ZM82.6261-10.4551Q79.1977-10.4551 79.1977-13.9506L79.1977-55.9781Q79.1977-59.4398 82.6261-59.4398L107.451-59.4398Q110.864-59.4398 110.864-55.9781L110.864-13.9506Q110.864-10.4551 107.451-10.4551Z"/>
  </g>
  <g id="Thin-S" transform="matrix(1 0 0 1 795.728 696)">
   <path d="M15.9749-37.0842L53.668-37.0842Q59.8773-37.0842 59.8773-43.2521L59.8773-61.9334Q59.8773-68.1018 53.668-68.1018L15.9749-68.1018Q9.76562-68.1018 9.76562-61.9334L9.76562-43.2521Q9.76562-37.0842 15.9749-37.0842ZM16.1814-40.2521Q12.9475-40.2521 12.9475-43.5273L12.9475-61.6935Q12.9475-64.9548 16.1814-64.9548L53.4335-64.9548Q56.6954-64.9548 56.6954-61.6935L56.6954-43.5273Q56.6954-40.2521 53.4335-40.2521ZM25.7405-2.29866L58.4961-2.29866Q64.7053-2.29866 64.7053-8.46656L64.7053-22.2324Q64.7053-28.4002 58.4961-28.4002L25.7405-28.4002Q19.5312-28.4002 19.5312-22.2324L19.5312-8.46656Q19.5312-2.29866 25.7405-2.29866ZM25.947-5.46658Q22.7132-5.46658 22.7132-8.7424L22.7132-21.9571Q22.7132-25.2323 25.947-25.2323L58.2756-25.2323Q61.5234-25.2323 61.5234-21.9571L61.5234-8.7424Q61.5234-5.46658 58.2756-5.46658ZM77.9608-6.3262L105.414-6.3262Q111.623-6.3262 111.623-12.4941L111.623-57.3146Q111.623-63.4825 105.414-63.4825L77.9608-63.4825Q71.7655-63.4825 71.7655-57.3146L71.7655-12.4941Q71.7655-6.3262 77.9608-6.3262ZM78.1819-9.49412Q74.9335-9.49412 74.9335-12.7693L74.9335-57.0393Q74.9335-60.3006 78.1819-60.3006L105.228-60.3006Q108.441-60.3006 108.441-57.0393L108.441-12.7693Q108.441-9.49412 105.228-9.49412Z"/>
  </g>
  <g id="Ultralight-S" transform="matrix(1 0 0 1 500.134 696)">
   <path d="M14.9803-37.1765L53.627-37.1765Q58.8417-37.1765 58.8417-42.3805L58.8417-62.1384Q58.8417-67.3431 53.627-67.3431L14.9803-67.3431Q9.76562-67.3431 9.76562-62.1384L9.76562-42.3805Q9.76562-37.1765 14.9803-37.1765ZM15.1047-39.36Q11.953-39.36 11.953-42.5224L11.953-62.0422Q11.953-65.2008 15.1047-65.2008L53.495-65.2008Q56.6544-65.2008 56.6544-62.0422L56.6544-42.5224Q56.6544-39.36 53.495-39.36ZM24.7459-2.95486L58.4961-2.95486Q63.7108-2.95486 63.7108-8.15887L63.7108-23.0629Q63.7108-28.2669 58.4961-28.2669L24.7459-28.2669Q19.5312-28.2669 19.5312-23.0629L19.5312-8.15887Q19.5312-2.95486 24.7459-2.95486ZM24.8703-5.1384Q21.7186-5.1384 21.7186-8.30154L21.7186-22.921Q21.7186-26.0834 24.8703-26.0834L58.3679-26.0834Q61.5234-26.0834 61.5234-22.921L61.5234-8.30154Q61.5234-5.1384 58.3679-5.1384ZM75.7767-6.81839L104.173-6.81839Q109.388-6.81839 109.388-12.0224L109.388-57.7248Q109.388-62.9288 104.173-62.9288L75.7767-62.9288Q70.5658-62.9288 70.5658-57.7248L70.5658-12.0224Q70.5658-6.81839 75.7767-6.81839ZM75.9056-9.00192Q72.7493-9.00192 72.7493-12.1643L72.7493-57.5829Q72.7493-60.7414 75.9056-60.7414L104.09-60.7414Q107.201-60.7414 107.201-57.5829L107.201-12.1643Q107.201-9.00192 104.09-9.00192Z"/>
  </g>
 </g>
</svg>
