<?xml version="1.0" encoding="UTF-8"?>
<!--Generator: Apple Native CoreSVG 175-->
<!DOCTYPE svg
PUBLIC "-//W3C//DTD SVG 1.1//EN"
       "http://www.w3.org/Graphics/SVG/1.1/DTD/svg11.dtd">
<svg version="1.1" xmlns="http://www.w3.org/2000/svg" xmlns:xlink="http://www.w3.org/1999/xlink" width="3300" height="2200">
 <!--glyph: "uni1001F4.medium", point size: 100.0, font version: "17.1d1e1", template writer version: "65.1"-->
 <g id="Notes">
  <rect height="2200" id="artboard" style="fill:white;opacity:1" width="3300" x="0" y="0"/>
  <line style="fill:none;stroke:black;opacity:1;stroke-width:0.5;" x1="263" x2="3036" y1="292" y2="292"/>
  <text style="stroke:none;fill:black;font-family:sans-serif;font-size:13;font-weight:bold;" transform="matrix(1 0 0 1 263 322)">Weight/Scale Variations</text>
  <text style="stroke:none;fill:black;font-family:sans-serif;font-size:13;text-anchor:middle;" transform="matrix(1 0 0 1 559.711 322)">Ultralight</text>
  <text style="stroke:none;fill:black;font-family:sans-serif;font-size:13;text-anchor:middle;" transform="matrix(1 0 0 1 856.422 322)">Thin</text>
  <text style="stroke:none;fill:black;font-family:sans-serif;font-size:13;text-anchor:middle;" transform="matrix(1 0 0 1 1153.13 322)">Light</text>
  <text style="stroke:none;fill:black;font-family:sans-serif;font-size:13;text-anchor:middle;" transform="matrix(1 0 0 1 1449.84 322)">Regular</text>
  <text style="stroke:none;fill:black;font-family:sans-serif;font-size:13;text-anchor:middle;" transform="matrix(1 0 0 1 1746.56 322)">Medium</text>
  <text style="stroke:none;fill:black;font-family:sans-serif;font-size:13;text-anchor:middle;" transform="matrix(1 0 0 1 2043.27 322)">Semibold</text>
  <text style="stroke:none;fill:black;font-family:sans-serif;font-size:13;text-anchor:middle;" transform="matrix(1 0 0 1 2339.98 322)">Bold</text>
  <text style="stroke:none;fill:black;font-family:sans-serif;font-size:13;text-anchor:middle;" transform="matrix(1 0 0 1 2636.69 322)">Heavy</text>
  <text style="stroke:none;fill:black;font-family:sans-serif;font-size:13;text-anchor:middle;" transform="matrix(1 0 0 1 2933.4 322)">Black</text>
  <line style="fill:none;stroke:black;opacity:1;stroke-width:0.5;" x1="263" x2="3036" y1="1903" y2="1903"/>
  <g transform="matrix(1 0 0 1 263 1933)">
   <path d="M9.24805 0.830078Q10.8691 0.830078 12.2949 0.214844Q13.7207-0.400391 14.8096-1.49414Q15.8984-2.58789 16.5186-4.01367Q17.1387-5.43945 17.1387-7.05078Q17.1387-8.66211 16.5186-10.0879Q15.8984-11.5137 14.8047-12.6074Q13.7109-13.7012 12.2852-14.3164Q10.8594-14.9316 9.23828-14.9316Q7.62695-14.9316 6.20117-14.3164Q4.77539-13.7012 3.69141-12.6074Q2.60742-11.5137 1.9873-10.0879Q1.36719-8.66211 1.36719-7.05078Q1.36719-5.43945 1.9873-4.01367Q2.60742-2.58789 3.69629-1.49414Q4.78516-0.400391 6.21094 0.214844Q7.63672 0.830078 9.24805 0.830078ZM9.24805-0.654297Q7.91992-0.654297 6.7627-1.14746Q5.60547-1.64062 4.73145-2.51953Q3.85742-3.39844 3.36426-4.56055Q2.87109-5.72266 2.87109-7.05078Q2.87109-8.37891 3.35938-9.54102Q3.84766-10.7031 4.72168-11.582Q5.5957-12.4609 6.75293-12.9541Q7.91016-13.4473 9.23828-13.4473Q10.5762-13.4473 11.7334-12.9541Q12.8906-12.4609 13.7695-11.582Q14.6484-10.7031 15.1465-9.54102Q15.6445-8.37891 15.6445-7.05078Q15.6445-5.72266 15.1514-4.56055Q14.6582-3.39844 13.7842-2.51953Q12.9102-1.64062 11.748-1.14746Q10.5859-0.654297 9.24805-0.654297ZM5.6543-7.05078Q5.6543-6.72852 5.85938-6.52832Q6.06445-6.32812 6.40625-6.32812L8.51562-6.32812L8.51562-4.20898Q8.51562-3.88672 8.71094-3.67676Q8.90625-3.4668 9.23828-3.4668Q9.56055-3.4668 9.77051-3.67676Q9.98047-3.88672 9.98047-4.20898L9.98047-6.32812L12.0898-6.32812Q12.4219-6.32812 12.627-6.52832Q12.832-6.72852 12.832-7.05078Q12.832-7.38281 12.627-7.58789Q12.4219-7.79297 12.0898-7.79297L9.98047-7.79297L9.98047-9.90234Q9.98047-10.2344 9.77051-10.4443Q9.56055-10.6543 9.23828-10.6543Q8.90625-10.6543 8.71094-10.4443Q8.51562-10.2344 8.51562-9.90234L8.51562-7.79297L6.40625-7.79297Q6.06445-7.79297 5.85938-7.58789Q5.6543-7.38281 5.6543-7.05078Z"/>
  </g>
  <g transform="matrix(1 0 0 1 281.867 1933)">
   <path d="M11.709 2.91016Q13.75 2.91016 15.5518 2.12891Q17.3535 1.34766 18.7305-0.0292969Q20.1074-1.40625 20.8887-3.20801Q21.6699-5.00977 21.6699-7.05078Q21.6699-9.0918 20.8887-10.8936Q20.1074-12.6953 18.7305-14.0723Q17.3535-15.4492 15.5469-16.2305Q13.7402-17.0117 11.6992-17.0117Q9.6582-17.0117 7.85645-16.2305Q6.05469-15.4492 4.68262-14.0723Q3.31055-12.6953 2.5293-10.8936Q1.74805-9.0918 1.74805-7.05078Q1.74805-5.00977 2.5293-3.20801Q3.31055-1.40625 4.6875-0.0292969Q6.06445 1.34766 7.86621 2.12891Q9.66797 2.91016 11.709 2.91016ZM11.709 1.25Q9.98047 1.25 8.47656 0.605469Q6.97266-0.0390625 5.83496-1.17676Q4.69727-2.31445 4.05762-3.81836Q3.41797-5.32227 3.41797-7.05078Q3.41797-8.7793 4.05762-10.2832Q4.69727-11.7871 5.83008-12.9297Q6.96289-14.0723 8.4668-14.7119Q9.9707-15.3516 11.6992-15.3516Q13.4277-15.3516 14.9316-14.7119Q16.4355-14.0723 17.5781-12.9297Q18.7207-11.7871 19.3652-10.2832Q20.0098-8.7793 20.0098-7.05078Q20.0098-5.32227 19.3701-3.81836Q18.7305-2.31445 17.5928-1.17676Q16.4551-0.0390625 14.9463 0.605469Q13.4375 1.25 11.709 1.25ZM7.17773-7.05078Q7.17773-6.69922 7.41211-6.47461Q7.64648-6.25 8.01758-6.25L10.8887-6.25L10.8887-3.36914Q10.8887-2.99805 11.1133-2.76855Q11.3379-2.53906 11.6895-2.53906Q12.0605-2.53906 12.29-2.76855Q12.5195-2.99805 12.5195-3.36914L12.5195-6.25L15.4004-6.25Q15.7715-6.25 16.001-6.47461Q16.2305-6.69922 16.2305-7.05078Q16.2305-7.42188 16.001-7.65137Q15.7715-7.88086 15.4004-7.88086L12.5195-7.88086L12.5195-10.752Q12.5195-11.1328 12.29-11.3623Q12.0605-11.5918 11.6895-11.5918Q11.3379-11.5918 11.1133-11.3574Q10.8887-11.123 10.8887-10.752L10.8887-7.88086L8.01758-7.88086Q7.63672-7.88086 7.40723-7.65137Q7.17773-7.42188 7.17773-7.05078Z"/>
  </g>
  <g transform="matrix(1 0 0 1 305.646 1933)">
   <path d="M14.9707 5.66406Q17.0605 5.66406 18.96 5.01465Q20.8594 4.36523 22.4512 3.19336Q24.043 2.02148 25.2197 0.429688Q26.3965-1.16211 27.0459-3.06641Q27.6953-4.9707 27.6953-7.05078Q27.6953-9.14062 27.0459-11.04Q26.3965-12.9395 25.2197-14.5312Q24.043-16.123 22.4512-17.2998Q20.8594-18.4766 18.9551-19.126Q17.0508-19.7754 14.9609-19.7754Q12.8711-19.7754 10.9717-19.126Q9.07227-18.4766 7.48535-17.2998Q5.89844-16.123 4.72168-14.5312Q3.54492-12.9395 2.90039-11.04Q2.25586-9.14062 2.25586-7.05078Q2.25586-4.9707 2.90527-3.06641Q3.55469-1.16211 4.72656 0.429688Q5.89844 2.02148 7.49023 3.19336Q9.08203 4.36523 10.9814 5.01465Q12.8809 5.66406 14.9707 5.66406ZM14.9707 3.84766Q13.1641 3.84766 11.5283 3.2959Q9.89258 2.74414 8.53516 1.74805Q7.17773 0.751953 6.17676-0.610352Q5.17578-1.97266 4.62891-3.6084Q4.08203-5.24414 4.08203-7.05078Q4.08203-8.86719 4.62891-10.5029Q5.17578-12.1387 6.17188-13.501Q7.16797-14.8633 8.52539-15.8594Q9.88281-16.8555 11.5186-17.4023Q13.1543-17.9492 14.9609-17.9492Q16.7773-17.9492 18.4131-17.4023Q20.0488-16.8555 21.4111-15.8594Q22.7734-14.8633 23.7695-13.501Q24.7656-12.1387 25.3174-10.5029Q25.8691-8.86719 25.8691-7.05078Q25.8789-5.24414 25.332-3.6084Q24.7852-1.97266 23.7842-0.610352Q22.7832 0.751953 21.4209 1.74805Q20.0586 2.74414 18.4229 3.2959Q16.7871 3.84766 14.9707 3.84766ZM9.19922-7.05078Q9.19922-6.66992 9.45801-6.4209Q9.7168-6.17188 10.1172-6.17188L14.0625-6.17188L14.0625-2.2168Q14.0625-1.81641 14.3115-1.55762Q14.5605-1.29883 14.9512-1.29883Q15.3516-1.29883 15.6104-1.55273Q15.8691-1.80664 15.8691-2.2168L15.8691-6.17188L19.8242-6.17188Q20.2246-6.17188 20.4785-6.4209Q20.7324-6.66992 20.7324-7.05078Q20.7324-7.46094 20.4785-7.71484Q20.2246-7.96875 19.8242-7.96875L15.8691-7.96875L15.8691-11.9141Q15.8691-12.3242 15.6104-12.583Q15.3516-12.8418 14.9512-12.8418Q14.5605-12.8418 14.3115-12.583Q14.0625-12.3242 14.0625-11.9141L14.0625-7.96875L10.1172-7.96875Q9.70703-7.96875 9.45312-7.71484Q9.19922-7.46094 9.19922-7.05078Z"/>
  </g>
  <text style="stroke:none;fill:black;font-family:sans-serif;font-size:13;font-weight:bold;" transform="matrix(1 0 0 1 263 1953)">Design Variations</text>
  <text style="stroke:none;fill:black;font-family:sans-serif;font-size:13;" transform="matrix(1 0 0 1 263 1971)">Symbols are supported in up to nine weights and three scales.</text>
  <text style="stroke:none;fill:black;font-family:sans-serif;font-size:13;" transform="matrix(1 0 0 1 263 1989)">For optimal layout with text and other symbols, vertically align</text>
  <text style="stroke:none;fill:black;font-family:sans-serif;font-size:13;" transform="matrix(1 0 0 1 263 2007)">symbols with the adjacent text.</text>
  <line style="fill:none;stroke:#00AEEF;stroke-width:0.5;opacity:1.0;" x1="776" x2="776" y1="1919" y2="1933"/>
  <g transform="matrix(1 0 0 1 776 1933)">
   <path d="M3.31055 0.15625Q3.70117 0.15625 3.91602-0.00976562Q4.13086-0.175781 4.26758-0.585938L5.52734-4.0332L11.2891-4.0332L12.5488-0.585938Q12.6855-0.175781 12.9004-0.00976562Q13.1152 0.15625 13.4961 0.15625Q13.8867 0.15625 14.1162-0.0585938Q14.3457-0.273438 14.3457-0.644531Q14.3457-0.869141 14.2383-1.17188L9.6582-13.3691Q9.48242-13.8184 9.17969-14.043Q8.87695-14.2676 8.4082-14.2676Q7.5-14.2676 7.17773-13.3789L2.59766-1.16211Q2.49023-0.859375 2.49023-0.634766Q2.49023-0.263672 2.70996-0.0537109Q2.92969 0.15625 3.31055 0.15625ZM6.00586-5.51758L8.37891-12.0898L8.42773-12.0898L10.8008-5.51758Z"/>
  </g>
  <line style="fill:none;stroke:#00AEEF;stroke-width:0.5;opacity:1.0;" x1="793.197" x2="793.197" y1="1919" y2="1933"/>
  <text style="stroke:none;fill:black;font-family:sans-serif;font-size:13;font-weight:bold;" transform="matrix(1 0 0 1 776 1953)">Margins</text>
  <text style="stroke:none;fill:black;font-family:sans-serif;font-size:13;" transform="matrix(1 0 0 1 776 1971)">Leading and trailing margins on the left and right side of each symbol</text>
  <text style="stroke:none;fill:black;font-family:sans-serif;font-size:13;" transform="matrix(1 0 0 1 776 1989)">can be adjusted by modifying the x-location of the margin guidelines.</text>
  <text style="stroke:none;fill:black;font-family:sans-serif;font-size:13;" transform="matrix(1 0 0 1 776 2007)">Modifications are automatically applied proportionally to all</text>
  <text style="stroke:none;fill:black;font-family:sans-serif;font-size:13;" transform="matrix(1 0 0 1 776 2025)">scales and weights.</text>
  <g transform="matrix(1 0 0 1 1289 1933)">
   <path d="M2.8418 1.86523L4.54102 3.57422Q5.18555 4.22852 5.90332 4.17969Q6.62109 4.13086 7.31445 3.35938L18.0078-8.42773L17.041-9.4043L6.42578 2.27539Q6.16211 2.57812 5.89355 2.61719Q5.625 2.65625 5.27344 2.30469L4.10156 1.14258Q3.75 0.791016 3.79395 0.522461Q3.83789 0.253906 4.14062-0.0195312L15.6152-10.8203L14.6387-11.7871L3.04688-0.898438Q2.30469-0.214844 2.25098 0.498047Q2.19727 1.21094 2.8418 1.86523ZM9.25781-16.3281Q8.94531-16.0254 8.90625-15.6348Q8.86719-15.2441 9.04297-14.9512Q9.21875-14.6777 9.55566-14.541Q9.89258-14.4043 10.3809-14.5215Q11.4746-14.7754 12.5977-14.7314Q13.7207-14.6875 14.7949-13.9844L14.209-12.5293Q13.9551-11.9043 14.0674-11.4404Q14.1797-10.9766 14.5801-10.5664L16.875-8.25195Q17.2363-7.88086 17.5781-7.82227Q17.9199-7.76367 18.3398-7.8418L19.4043-8.03711L20.0684-7.36328L20.0293-6.80664Q20-6.43555 20.1221-6.12305Q20.2441-5.81055 20.6055-5.44922L21.3672-4.70703Q21.7285-4.3457 22.1533-4.33105Q22.5781-4.31641 22.9297-4.66797L25.8398-7.58789Q26.1914-7.93945 26.1816-8.35449Q26.1719-8.76953 25.8105-9.13086L25.0391-9.89258Q24.6875-10.2539 24.3799-10.3857Q24.0723-10.5176 23.7109-10.4883L23.1348-10.4395L22.4902-11.0742L22.7344-12.1973Q22.832-12.6172 22.6953-12.9834Q22.5586-13.3496 22.1191-13.7891L19.9219-15.9766Q18.6719-17.2168 17.2607-17.8369Q15.8496-18.457 14.4189-18.4814Q12.9883-18.5059 11.665-17.959Q10.3418-17.4121 9.25781-16.3281ZM10.752-15.957Q11.6602-16.6211 12.7002-16.9043Q13.7402-17.1875 14.8047-17.085Q15.8691-16.9824 16.8701-16.5137Q17.8711-16.0449 18.7012-15.2051L21.1328-12.793Q21.3086-12.6172 21.3525-12.4512Q21.3965-12.2852 21.3379-12.0312L21.0156-10.5469L22.5195-9.0625L23.5059-9.12109Q23.6914-9.13086 23.7891-9.09668Q23.8867-9.0625 24.0332-8.91602L24.6094-8.33984L22.168-5.89844L21.5918-6.47461Q21.4453-6.62109 21.4062-6.71875Q21.3672-6.81641 21.377-7.01172L21.4453-7.98828L19.9512-9.47266L18.4277-9.21875Q18.1836-9.16992 18.042-9.2041Q17.9004-9.23828 17.7148-9.41406L15.7129-11.416Q15.5176-11.5918 15.4932-11.7529Q15.4688-11.9141 15.5859-12.1875L16.4648-14.2773Q15.293-15.3711 13.8281-15.791Q12.3633-16.2109 10.8398-15.7617Q10.7227-15.7324 10.6885-15.8057Q10.6543-15.8789 10.752-15.957Z"/>
  </g>
  <text style="stroke:none;fill:black;font-family:sans-serif;font-size:13;font-weight:bold;" transform="matrix(1 0 0 1 1289 1953)">Exporting</text>
  <text style="stroke:none;fill:black;font-family:sans-serif;font-size:13;" transform="matrix(1 0 0 1 1289 1971)">Symbols should be outlined when exporting to ensure the</text>
  <text style="stroke:none;fill:black;font-family:sans-serif;font-size:13;" transform="matrix(1 0 0 1 1289 1989)">design is preserved when submitting to Xcode.</text>
  <text id="template-version" style="stroke:none;fill:black;font-family:sans-serif;font-size:13;text-anchor:end;" transform="matrix(1 0 0 1 3036 1933)">Template v.2.0</text>
  <text style="stroke:none;fill:black;font-family:sans-serif;font-size:13;text-anchor:end;" transform="matrix(1 0 0 1 3036 1951)">Requires Xcode 12 or greater</text>
  <text id="descriptive-name" style="stroke:none;fill:black;font-family:sans-serif;font-size:13;text-anchor:end;" transform="matrix(1 0 0 1 3036 1969)">Generated from rectangle.3.group</text>
  <text style="stroke:none;fill:black;font-family:sans-serif;font-size:13;text-anchor:end;" transform="matrix(1 0 0 1 3036 1987)">Typeset at 100 points</text>
  <text style="stroke:none;fill:black;font-family:sans-serif;font-size:13;" transform="matrix(1 0 0 1 263 726)">Small</text>
  <text style="stroke:none;fill:black;font-family:sans-serif;font-size:13;" transform="matrix(1 0 0 1 263 1156)">Medium</text>
  <text style="stroke:none;fill:black;font-family:sans-serif;font-size:13;" transform="matrix(1 0 0 1 263 1586)">Large</text>
 </g>
 <g id="Guides">
  <g id="H-reference" style="fill:#27AAE1;stroke:none;" transform="matrix(1 0 0 1 339 696)">
   <path d="M0.976562 0L3.66211 0L29.3457-67.1387L30.0293-67.1387L30.0293-70.459L28.125-70.459ZM11.6699-24.4629L46.9727-24.4629L46.2402-26.709L12.4512-26.709ZM55.127 0L57.7637 0L30.6152-70.459L29.4434-70.459L29.4434-67.1387Z"/>
  </g>
  <line id="Baseline-S" style="fill:none;stroke:#27AAE1;opacity:1;stroke-width:0.5;" x1="263" x2="3036" y1="696" y2="696"/>
  <line id="Capline-S" style="fill:none;stroke:#27AAE1;opacity:1;stroke-width:0.5;" x1="263" x2="3036" y1="625.541" y2="625.541"/>
  <g id="H-reference" style="fill:#27AAE1;stroke:none;" transform="matrix(1 0 0 1 339 1126)">
   <path d="M0.976562 0L3.66211 0L29.3457-67.1387L30.0293-67.1387L30.0293-70.459L28.125-70.459ZM11.6699-24.4629L46.9727-24.4629L46.2402-26.709L12.4512-26.709ZM55.127 0L57.7637 0L30.6152-70.459L29.4434-70.459L29.4434-67.1387Z"/>
  </g>
  <line id="Baseline-M" style="fill:none;stroke:#27AAE1;opacity:1;stroke-width:0.5;" x1="263" x2="3036" y1="1126" y2="1126"/>
  <line id="Capline-M" style="fill:none;stroke:#27AAE1;opacity:1;stroke-width:0.5;" x1="263" x2="3036" y1="1055.54" y2="1055.54"/>
  <g id="H-reference" style="fill:#27AAE1;stroke:none;" transform="matrix(1 0 0 1 339 1556)">
   <path d="M0.976562 0L3.66211 0L29.3457-67.1387L30.0293-67.1387L30.0293-70.459L28.125-70.459ZM11.6699-24.4629L46.9727-24.4629L46.2402-26.709L12.4512-26.709ZM55.127 0L57.7637 0L30.6152-70.459L29.4434-70.459L29.4434-67.1387Z"/>
  </g>
  <line id="Baseline-L" style="fill:none;stroke:#27AAE1;opacity:1;stroke-width:0.5;" x1="263" x2="3036" y1="1556" y2="1556"/>
  <line id="Capline-L" style="fill:none;stroke:#27AAE1;opacity:1;stroke-width:0.5;" x1="263" x2="3036" y1="1485.54" y2="1485.54"/>
  <line id="left-margin" style="fill:none;stroke:#00AEEF;stroke-width:0.5;opacity:1.0;" x1="1368.66" x2="1368.66" y1="1030.79" y2="1150.12"/>
  <line id="right-margin" style="fill:none;stroke:#00AEEF;stroke-width:0.5;opacity:1.0;" x1="1531.03" x2="1531.03" y1="1030.79" y2="1150.12"/>
 </g>
 <g id="Symbols">
  <g id="Black-L" transform="matrix(1 0 0 1 2823.61 1556)">
   <path d="M35.6074-35.9624L93.2901-35.9624Q112.814-35.9624 112.814-55.4236L112.814-81.8156Q112.814-101.275 93.2901-101.275L35.6074-101.275Q16.084-101.275 16.084-81.8156L16.084-55.4236Q16.084-35.9624 35.6074-35.9624ZM39.7888-55.7356Q35.8779-55.7356 35.8779-59.71L35.8779-77.5304Q35.8779-81.4828 39.7888-81.4828L89.0672-81.4828Q93.0196-81.4828 93.0196-77.5304L93.0196-59.71Q93.0196-55.7356 89.0672-55.7356ZM50.5232 30.1703L97.7448 30.1703Q117.268 30.1703 117.268 10.7104L117.268-6.95185Q117.268-26.413 97.7448-26.413L50.5232-26.413Q30.9998-26.413 30.9998-6.95185L30.9998 10.7104Q30.9998 30.1703 50.5232 30.1703ZM54.7047 10.3984Q50.7938 10.3984 50.7938 6.42401L50.7938-2.66544Q50.7938-6.63984 54.7047-6.63984L93.5413-6.63984Q97.4743-6.63984 97.4743-2.66544L97.4743 6.42401Q97.4743 10.3984 93.5413 10.3984ZM146.087 19.3594L183.982 19.3594Q203.506 19.3594 203.506-0.100527L203.506-69.0429Q203.506-88.5041 183.982-88.5041L146.087-88.5041Q126.585-88.5041 126.585-69.0429L126.585-0.100527Q126.585 19.3594 146.087 19.3594ZM150.291-0.412537Q146.358-0.412537 146.358-4.38694L146.358-64.7565Q146.358-68.7102 150.291-68.7102L179.781-68.7102Q183.712-68.7102 183.712-64.7565L183.712-4.38694Q183.712-0.412537 179.781-0.412537Z"/>
  </g>
  <g id="Heavy-L" transform="matrix(1 0 0 1 2528.24 1556)">
   <path d="M34.284-36.4277L92.1684-36.4277Q110.368-36.4277 110.368-54.5384L110.368-81.0236Q110.368-99.1283 92.1684-99.1283L34.284-99.1283Q16.084-99.1283 16.084-81.0236L16.084-54.5384Q16.084-36.4277 34.284-36.4277ZM37.628-53.6279Q33.314-53.6279 33.314-58.0373L33.314-77.5308Q33.314-81.9043 37.628-81.9043L88.7649-81.9043Q93.1384-81.9043 93.1384-77.5308L93.1384-58.0373Q93.1384-53.6279 88.7649-53.6279ZM49.4755 28.1073L97.414 28.1073Q115.614 28.1073 115.614 10.0026L115.614-7.84561Q115.614-25.9563 97.414-25.9563L49.4755-25.9563Q31.2755-25.9563 31.2755-7.84561L31.2755 10.0026Q31.2755 28.1073 49.4755 28.1073ZM52.8195 10.913Q48.5055 10.913 48.5055 6.5037L48.5055-4.34673Q48.5055-8.75608 52.8195-8.75608L94.0342-8.75608Q98.384-8.75608 98.384-4.34673L98.384 6.5037Q98.384 10.913 94.0342 10.913ZM143.824 18.1394L182.618 18.1394Q200.818 18.1394 200.818 0.0347626L200.818-69.2875Q200.818-87.3982 182.618-87.3982L143.824-87.3982Q125.653-87.3982 125.653-69.2875L125.653 0.0347626Q125.653 18.1394 143.824 18.1394ZM147.203 0.945238Q142.854 0.945238 142.854-3.46411L142.854-65.7887Q142.854-70.1682 147.203-70.1682L179.251-70.1682Q183.588-70.1682 183.588-65.7887L183.588-3.46411Q183.588 0.945238 179.251 0.945238Z"/>
  </g>
  <g id="Bold-L" transform="matrix(1 0 0 1 2233.32 1556)">
   <path d="M32.5446-36.9712L90.9021-36.9712Q107.363-36.9712 107.363-53.3208L107.363-80.1924Q107.363-96.5278 90.9021-96.5278L32.5446-96.5278Q16.084-96.5278 16.084-80.1924L16.084-53.3208Q16.084-36.9712 32.5446-36.9712ZM34.9288-51.0371Q30.1868-51.0371 30.1868-55.9042L30.1868-77.6233Q30.1868-82.4392 34.9288-82.4392L88.444-82.4392Q93.2599-82.4392 93.2599-77.6233L93.2599-55.9042Q93.2599-51.0371 88.444-51.0371ZM48.0445 25.6267L97.0439 25.6267Q113.505 25.6267 113.505 9.29133L113.505-9.06126Q113.505-25.4109 97.0439-25.4109L48.0445-25.4109Q31.5839-25.4109 31.5839-9.06126L31.5839 9.29133Q31.5839 25.6267 48.0445 25.6267ZM50.4287 11.5751Q45.6868 11.5751 45.6868 6.70797L45.6868-6.4779Q45.6868-11.345 50.4287-11.345L94.6085-11.345Q99.4017-11.345 99.4017-6.4779L99.4017 6.70797Q99.4017 11.5751 94.6085 11.5751ZM140.722 16.6453L180.768 16.6453Q197.228 16.6453 197.228 0.309862L197.228-69.6677Q197.228-86.0173 180.768-86.0173L140.722-86.0173Q124.298-86.0173 124.298-69.6677L124.298 0.309862Q124.298 16.6453 140.722 16.6453ZM143.157 2.59362Q138.364 2.59362 138.364-2.2735L138.364-67.0843Q138.364-71.9144 143.157-71.9144L178.361-71.9144Q183.126-71.9144 183.126-67.0843L183.126-2.2735Q183.126 2.59362 178.361 2.59362Z"/>
  </g>
  <g id="Semibold-L" transform="matrix(1 0 0 1 1937.85 1556)">
   <path d="M31.3454-37.3459L90.0291-37.3459Q105.291-37.3459 105.291-52.4815L105.291-79.6194Q105.291-94.735 90.0291-94.735L31.3454-94.735Q16.084-94.735 16.084-79.6194L16.084-52.4815Q16.084-37.3459 31.3454-37.3459ZM33.0679-49.251Q28.031-49.251 28.031-54.4337L28.031-77.687Q28.031-82.8079 33.0679-82.8079L88.2227-82.8079Q93.3436-82.8079 93.3436-77.687L93.3436-54.4337Q93.3436-49.251 88.2227-49.251ZM47.058 23.9167L96.7888 23.9167Q112.05 23.9167 112.05 8.801L112.05-9.89932Q112.05-25.0348 96.7888-25.0348L47.058-25.0348Q31.7965-25.0348 31.7965-9.89932L31.7965 8.801Q31.7965 23.9167 47.058 23.9167ZM48.7804 12.0315Q43.7435 12.0315 43.7435 6.84879L43.7435-7.9471Q43.7435-13.1298 48.7804-13.1298L95.0045-13.1298Q100.103-13.1298 100.103-7.9471L100.103 6.84879Q100.103 12.0315 95.0045 12.0315ZM138.583 15.6152L179.492 15.6152Q194.753 15.6152 194.753 0.499514L194.753-69.9298Q194.753-85.0653 179.492-85.0653L138.583-85.0653Q123.364-85.0653 123.364-69.9298L123.364 0.499514Q123.364 15.6152 138.583 15.6152ZM140.367 3.73Q135.269 3.73 135.269-1.4527L135.269-67.9775Q135.269-73.1183 140.367-73.1183L177.747-73.1183Q182.806-73.1183 182.806-67.9775L182.806-1.4527Q182.806 3.73 177.747 3.73Z"/>
  </g>
  <g id="Medium-L" transform="matrix(1 0 0 1 1642.08 1556)">
   <path d="M30.4362-37.63L89.3672-37.63Q103.719-37.63 103.719-51.845L103.719-79.1849Q103.719-93.3757 89.3672-93.3757L30.4362-93.3757Q16.084-93.3757 16.084-79.1849L16.084-51.845Q16.084-37.63 30.4362-37.63ZM31.6569-47.8967Q26.3963-47.8967 26.3963-53.3186L26.3963-77.7354Q26.3963-83.0875 31.6569-83.0875L88.055-83.0875Q93.407-83.0875 93.407-77.7354L93.407-53.3186Q93.407-47.8967 88.055-47.8967ZM46.3099 22.62L96.5954 22.62Q110.948 22.62 110.948 8.42922L110.948-10.5348Q110.948-24.7497 96.5954-24.7497L46.3099-24.7497Q31.9577-24.7497 31.9577-10.5348L31.9577 8.42922Q31.9577 22.62 46.3099 22.62ZM47.5307 12.3776Q42.2701 12.3776 42.2701 6.95557L42.2701-9.06112Q42.2701-14.4831 47.5307-14.4831L95.3047-14.4831Q100.635-14.4831 100.635-9.06112L100.635 6.95557Q100.635 12.3776 95.3047 12.3776ZM136.962 14.8341L178.525 14.8341Q192.877 14.8341 192.877 0.643316L192.877-70.1285Q192.877-84.3434 178.525-84.3434L136.962-84.3434Q122.655-84.3434 122.655-70.1285L122.655 0.643316Q122.655 14.8341 136.962 14.8341ZM138.252 4.59166Q132.922 4.59166 132.922-0.830333L132.922-68.6548Q132.922-74.0311 138.252-74.0311L177.282-74.0311Q182.564-74.0311 182.564-68.6548L182.564-0.830333Q182.564 4.59166 177.282 4.59166Z"/>
  </g>
  <g id="Regular-L" transform="matrix(1 0 0 1 1346.59 1556)">
   <path d="M29.2502-38.0006L88.5038-38.0006Q101.67-38.0006 101.67-51.0148L101.67-78.6181Q101.67-91.6026 88.5038-91.6026L29.2502-91.6026Q16.084-91.6026 16.084-78.6181L16.084-51.0148Q16.084-38.0006 29.2502-38.0006ZM29.8165-46.1302Q24.2642-46.1302 24.2642-51.8643L24.2642-77.7984Q24.2642-83.4521 29.8165-83.4521L87.8361-83.4521Q93.4898-83.4521 93.4898-77.7984L93.4898-51.8643Q93.4898-46.1302 87.8361-46.1302ZM45.3342 20.9287L96.3431 20.9287Q109.509 20.9287 109.509 7.94428L109.509-11.3636Q109.509-24.3778 96.3431-24.3778L45.3342-24.3778Q32.168-24.3778 32.168-11.3636L32.168 7.94428Q32.168 20.9287 45.3342 20.9287ZM45.9005 12.8289Q40.3482 12.8289 40.3482 7.09484L40.3482-10.5142Q40.3482-16.2483 45.9005-16.2483L95.6964-16.2483Q101.329-16.2483 101.329-10.5142L101.329 7.09484Q101.329 12.8289 95.6964 12.8289ZM134.847 13.8154L177.263 13.8154Q190.429 13.8154 190.429 0.830883L190.429-70.3877Q190.429-83.4019 177.263-83.4019L134.847-83.4019Q121.731-83.4019 121.731-70.3877L121.731 0.830883Q121.731 13.8154 134.847 13.8154ZM135.493 5.71556Q129.861 5.71556 129.861-0.0185525L129.861-69.5382Q129.861-75.2216 135.493-75.2216L176.675-75.2216Q182.249-75.2216 182.249-69.5382L182.249-0.0185525Q182.249 5.71556 176.675 5.71556Z"/>
  </g>
  <g id="Light-L" transform="matrix(1 0 0 1 1051.96 1556)">
   <path d="M27.4033-38.1648L88.4217-38.1648Q99.741-38.1648 99.741-49.3936L99.741-79.0081Q99.741-90.1866 88.4217-90.1866L27.4033-90.1866Q16.084-90.1866 16.084-79.0081L16.084-49.3936Q16.084-38.1648 27.4033-38.1648ZM27.8054-44.4679Q22.4172-44.4679 22.4172-49.9968L22.4172-78.4551Q22.4172-83.9036 27.8054-83.9036L87.9593-83.9036Q93.4077-83.9036 93.4077-78.4551L93.4077-49.9968Q93.4077-44.4679 87.9593-44.4679ZM43.4872 19.6974L96.3431 19.6974Q107.662 19.6974 107.662 8.51889L107.662-12.9028Q107.662-24.1316 96.3431-24.1316L43.4872-24.1316Q32.168-24.1316 32.168-12.9028L32.168 8.51889Q32.168 19.6974 43.4872 19.6974ZM43.8894 13.4446Q38.5012 13.4446 38.5012 7.91572L38.5012-12.2996Q38.5012-17.8285 43.8894-17.8285L95.8605-17.8285Q101.329-17.8285 101.329-12.2996L101.329 7.91572Q101.329 13.4446 95.8605 13.4446ZM130.783 12.8919L174.944 12.8919Q186.263 12.8919 186.263 1.71333L186.263-71.147Q186.263-82.3758 174.944-82.3758L130.783-82.3758Q119.494-82.3758 119.494-71.147L119.494 1.71333Q119.494 12.8919 130.783 12.8919ZM131.266 6.63904Q125.797 6.63904 125.797 1.11016L125.797-70.5438Q125.797-76.0425 131.266-76.0425L174.562-76.0425Q179.93-76.0425 179.93-70.5438L179.93 1.11016Q179.93 6.63904 174.562 6.63904Z"/>
  </g>
  <g id="Thin-L" transform="matrix(1 0 0 1 758.004 1556)">
   <path d="M24.9605-38.3819L88.3131-38.3819Q97.1896-38.3819 97.1896-47.2494L97.1896-79.5237Q97.1896-88.3138 88.3131-88.3138L24.9605-88.3138Q16.084-88.3138 16.084-79.5237L16.084-47.2494Q16.084-38.3819 24.9605-38.3819ZM25.1455-42.2694Q19.9744-42.2694 19.9744-47.5269L19.9744-79.3237Q19.9744-84.5007 25.1455-84.5007L88.1221-84.5007Q93.2992-84.5007 93.2992-79.3237L93.2992-47.5269Q93.2992-42.2694 88.1221-42.2694ZM41.0445 18.0689L96.3431 18.0689Q105.22 18.0689 105.22 9.27887L105.22-14.9384Q105.22-23.8059 96.3431-23.8059L41.0445-23.8059Q32.168-23.8059 32.168-14.9384L32.168 9.27887Q32.168 18.0689 41.0445 18.0689ZM41.2294 14.2589Q36.0584 14.2589 36.0584 9.0014L36.0584-14.6609Q36.0584-19.9184 41.2294-19.9184L96.0777-19.9184Q101.329-19.9184 101.329-14.6609L101.329 9.0014Q101.329 14.2589 96.0777 14.2589ZM125.409 11.6705L171.877 11.6705Q180.753 11.6705 180.753 2.88043L180.753-72.1512Q180.753-81.0187 171.877-81.0187L125.409-81.0187Q116.536-81.0187 116.536-72.1512L116.536 2.88043Q116.536 11.6705 125.409 11.6705ZM125.675 7.86043Q120.423 7.86043 120.423 2.60296L120.423-71.8738Q120.423-77.1282 125.675-77.1282L171.766-77.1282Q176.863-77.1282 176.863-71.8738L176.863 2.60296Q176.863 7.86043 171.766 7.86043Z"/>
  </g>
  <g id="Ultralight-L" transform="matrix(1 0 0 1 462.704 1556)">
   <path d="M23.7093-38.4932L88.2575-38.4932Q95.8829-38.4932 95.8829-46.1511L95.8829-79.7879Q95.8829-87.3546 88.2575-87.3546L23.7093-87.3546Q16.084-87.3546 16.084-79.7879L16.084-46.1511Q16.084-38.4932 23.7093-38.4932ZM23.7831-41.1433Q18.7233-41.1433 18.7233-46.2618L18.7233-79.7685Q18.7233-84.8066 23.7831-84.8066L88.2055-84.8066Q93.2436-84.8066 93.2436-79.7685L93.2436-46.2618Q93.2436-41.1433 88.2055-41.1433ZM39.7933 17.2348L96.3431 17.2348Q103.968 17.2348 103.968 9.66812L103.968-15.9811Q103.968-23.639 96.3431-23.639L39.7933-23.639Q32.168-23.639 32.168-15.9811L32.168 9.66812Q32.168 17.2348 39.7933 17.2348ZM39.8671 14.6759Q34.8073 14.6759 34.8073 9.55748L34.8073-15.8704Q34.8073-20.9889 39.8671-20.9889L96.1889-20.9889Q101.329-20.9889 101.329-15.8704L101.329 9.55748Q101.329 14.6759 96.1889 14.6759ZM122.657 11.0449L170.306 11.0449Q177.931 11.0449 177.931 3.47822L177.931-72.6656Q177.931-80.3236 170.306-80.3236L122.657-80.3236Q115.02-80.3236 115.02-72.6656L115.02 3.47822Q115.02 11.0449 122.657 11.0449ZM122.811 8.48602Q117.671 8.48602 117.671 3.36757L117.671-72.555Q117.671-77.6843 122.811-77.6843L170.334-77.6843Q175.292-77.6843 175.292-72.555L175.292 3.36757Q175.292 8.48602 170.334 8.48602Z"/>
  </g>
  <g id="Black-M" transform="matrix(1 0 0 1 2847.46 1126)">
   <path d="M28.4736-35.4197L73.2287-35.4197Q89.2414-35.4197 89.2414-51.4158L89.2414-72.0551Q89.2414-88.0516 73.2287-88.0516L28.4736-88.0516Q12.4609-88.0516 12.4609-72.0551L12.4609-51.4158Q12.4609-35.4197 28.4736-35.4197ZM32.4107-52.7026Q29.7494-52.7026 29.7494-55.3801L29.7494-68.0905Q29.7494-70.7628 32.4107-70.7628L69.2806-70.7628Q71.9529-70.7628 71.9529-68.0905L71.9529-55.3801Q71.9529-52.7026 69.2806-52.7026ZM39.7926 17.0447L76.0113 17.0447Q92.024 17.0447 92.024 1.04828L92.024-12.762Q92.024-28.7582 76.0113-28.7582L39.7926-28.7582Q23.7799-28.7582 23.7799-12.762L23.7799 1.04828Q23.7799 17.0447 39.7926 17.0447ZM43.7297-0.238526Q41.0684-0.238526 41.0684-2.91605L41.0684-8.79771Q41.0684-11.4752 43.7297-11.4752L72.069-11.4752Q74.7355-11.4752 74.7355-8.79771L74.7355-2.91605Q74.7355-0.238526 72.069-0.238526ZM114.575 7.98612L143.397 7.98612Q159.409 7.98612 159.409-8.01032L159.409-61.3188Q159.409-77.3149 143.397-77.3149L114.575-77.3149Q98.5676-77.3149 98.5676-61.3188L98.5676-8.01032Q98.5676 7.98612 114.575 7.98612ZM118.517-9.29713Q115.85-9.29713 115.85-11.9747L115.85-57.3545Q115.85-60.0265 118.517-60.0265L139.454-60.0265Q142.121-60.0265 142.121-57.3545L142.121-11.9747Q142.121-9.29713 139.454-9.29713Z"/>
  </g>
  <g id="Heavy-M" transform="matrix(1 0 0 1 2551.88 1126)">
   <path d="M27.3503-35.8594L72.1397-35.8594Q87.0291-35.8594 87.0291-50.7L87.0291-71.245Q87.0291-86.0832 72.1397-86.0832L27.3503-86.0832Q12.4609-86.0832 12.4609-71.245L12.4609-50.7Q12.4609-35.8594 27.3503-35.8594ZM30.4839-50.7956Q27.4134-50.7956 27.4134-53.9172L27.4134-68.0302Q27.4134-71.1332 30.4839-71.1332L68.9737-71.1332Q72.0767-71.1332 72.0767-68.0302L72.0767-53.9172Q72.0767-50.7956 68.9737-50.7956ZM38.9388 15.1415L75.6879 15.1415Q90.5773 15.1415 90.5773 0.303303L90.5773-13.4937Q90.5773-28.3344 75.6879-28.3344L38.9388-28.3344Q24.0494-28.3344 24.0494-13.4937L24.0494 0.303303Q24.0494 15.1415 38.9388 15.1415ZM42.0724 0.207772Q39.0019 0.207772 39.0019-2.91387L39.0019-10.2766Q39.0019-13.3982 42.0724-13.3982L72.5357-13.3982Q75.6249-13.3982 75.6249-10.2766L75.6249-2.91387Q75.6249 0.207772 72.5357 0.207772ZM112.737 6.87875L142.277 6.87875Q157.167 6.87875 157.167-7.95947L157.167-61.4879Q157.167-76.3286 142.277-76.3286L112.737-76.3286Q97.8636-76.3286 97.8636-61.4879L97.8636-7.95947Q97.8636 6.87875 112.737 6.87875ZM115.889-8.055Q112.8-8.055 112.8-11.1767L112.8-58.2707Q112.8-61.3761 115.889-61.3761L139.13-61.3761Q142.214-61.3761 142.214-58.2707L142.214-11.1767Q142.214-8.055 139.13-8.055Z"/>
  </g>
  <g id="Bold-M" transform="matrix(1 0 0 1 2256.42 1126)">
   <path d="M26.0938-36.3513L70.9215-36.3513Q84.5544-36.3513 84.5544-49.8994L84.5544-70.3387Q84.5544-83.8813 70.9215-83.8813L26.0938-83.8813Q12.4609-83.8813 12.4609-70.3387L12.4609-49.8994Q12.4609-36.3513 26.0938-36.3513ZM28.3284-48.6623Q24.8002-48.6623 24.8002-52.2807L24.8002-67.9629Q24.8002-71.5476 28.3284-71.5476L68.6304-71.5476Q72.2151-71.5476 72.2151-67.9629L72.2151-52.2807Q72.2151-48.6623 68.6304-48.6623ZM37.9837 13.0125L75.3262 13.0125Q88.959 13.0125 88.959-0.530062L88.959-14.3123Q88.959-27.8604 75.3262-27.8604L37.9837-27.8604Q24.3509-27.8604 24.3509-14.3123L24.3509-0.530062Q24.3509 13.0125 37.9837 13.0125ZM40.2184 0.70702Q36.6902 0.70702 36.6902-2.91144L36.6902-11.9309Q36.6902-15.5494 40.2184-15.5494L73.0577-15.5494Q76.6197-15.5494 76.6197-11.9309L76.6197-2.91144Q76.6197 0.70702 73.0577 0.70702ZM110.681 5.63999L141.025 5.63999Q154.658 5.63999 154.658-7.90259L154.658-61.677Q154.658-75.2251 141.025-75.2251L110.681-75.2251Q97.0762-75.2251 97.0762-61.677L97.0762-7.90259Q97.0762 5.63999 110.681 5.63999ZM112.949-6.66551Q109.387-6.66551 109.387-10.284L109.387-59.2957Q109.387-62.8859 112.949-62.8859L138.768-62.8859Q142.319-62.8859 142.319-59.2957L142.319-10.284Q142.319-6.66551 138.768-6.66551Z"/>
  </g>
  <g id="Semibold-M" transform="matrix(1 0 0 1 1960.57 1126)">
   <path d="M25.2275-36.6904L70.0817-36.6904Q82.8483-36.6904 82.8483-49.3474L82.8483-69.7139Q82.8483-82.3633 70.0817-82.3633L25.2275-82.3633Q12.4609-82.3633 12.4609-69.7139L12.4609-49.3474Q12.4609-36.6904 25.2275-36.6904ZM26.8425-47.1916Q22.9987-47.1916 22.9987-51.1526L22.9987-67.9164Q22.9987-71.8332 26.8425-71.8332L68.3937-71.8332Q72.3105-71.8332 72.3105-67.9164L72.3105-51.1526Q72.3105-47.1916 68.3937-47.1916ZM37.3253 11.5448L75.0768 11.5448Q87.8433 11.5448 87.8433-1.10458L87.8433-14.8766Q87.8433-27.5336 75.0768-27.5336L37.3253-27.5336Q24.5587-27.5336 24.5587-14.8766L24.5587-1.10458Q24.5587 11.5448 37.3253 11.5448ZM38.9403 1.0512Q35.0965 1.0512 35.0965-2.90976L35.0965-13.0714Q35.0965-17.0323 38.9403-17.0323L73.4176-17.0323Q77.3056-17.0323 77.3056-13.0714L77.3056-2.90976Q77.3056 1.0512 73.4176 1.0512ZM109.263 4.786L140.162 4.786Q152.929 4.786 152.929-7.86338L152.929-61.8075Q152.929-74.4645 140.162-74.4645L109.263-74.4645Q96.5333-74.4645 96.5333-61.8075L96.5333-7.86338Q96.5333 4.786 109.263 4.786ZM110.923-5.7076Q107.035-5.7076 107.035-9.66857L107.035-60.0023Q107.035-63.9267 110.923-63.9267L138.518-63.9267Q142.391-63.9267 142.391-60.0023L142.391-9.66857Q142.391-5.7076 138.518-5.7076Z"/>
  </g>
  <g id="Medium-M" transform="matrix(1 0 0 1 1664.52 1126)">
   <path d="M24.5706-36.9475L69.445-36.9475Q81.5547-36.9475 81.5547-48.9288L81.5547-69.2402Q81.5547-81.2123 69.445-81.2123L24.5706-81.2123Q12.4609-81.2123 12.4609-69.2402L12.4609-48.9288Q12.4609-36.9475 24.5706-36.9475ZM25.7158-46.0765Q21.6327-46.0765 21.6327-50.2971L21.6327-67.8812Q21.6327-72.0498 25.7158-72.0498L68.2143-72.0498Q72.3829-72.0498 72.3829-67.8812L72.3829-50.2971Q72.3829-46.0765 68.2143-46.0765ZM36.826 10.4319L74.8877 10.4319Q86.9974 10.4319 86.9974-1.5402L86.9974-15.3044Q86.9974-27.2858 74.8877-27.2858L36.826-27.2858Q24.7163-27.2858 24.7163-15.3044L24.7163-1.5402Q24.7163 10.4319 36.826 10.4319ZM37.9712 1.31217Q33.8881 1.31217 33.8881-2.90849L33.8881-13.9361Q33.8881-18.1568 37.9712-18.1568L73.6905-18.1568Q77.8256-18.1568 77.8256-13.9361L77.8256-2.90849Q77.8256 1.31217 73.6905 1.31217ZM108.189 4.13846L139.508 4.13846Q151.618 4.13846 151.618-7.83365L151.618-61.9063Q151.618-73.8877 139.508-73.8877L108.189-73.8877Q96.1217-73.8877 96.1217-61.9063L96.1217-7.83365Q96.1217 4.13846 108.189 4.13846ZM109.386-4.98128Q105.251-4.98128 105.251-9.20194L105.251-60.538Q105.251-64.7159 109.386-64.7159L138.329-64.7159Q142.446-64.7159 142.446-60.538L142.446-9.20194Q142.446-4.98128 138.329-4.98128Z"/>
  </g>
  <g id="Regular-M" transform="matrix(1 0 0 1 1368.66 1126)">
   <path d="M23.7139-37.2829L68.6144-37.2829Q79.8673-37.2829 79.8673-48.3829L79.8673-68.6223Q79.8673-79.711 68.6144-79.711L23.7139-79.711Q12.4609-79.711 12.4609-68.6223L12.4609-48.3829Q12.4609-37.2829 23.7139-37.2829ZM24.2462-44.6219Q19.851-44.6219 19.851-49.1813L19.851-67.8352Q19.851-72.3323 24.2462-72.3323L67.9802-72.3323Q72.4773-72.3323 72.4773-67.8352L72.4773-49.1813Q72.4773-44.6219 67.9802-44.6219ZM36.1748 8.98032L74.641 8.98032Q85.894 8.98032 85.894-2.10841L85.894-15.8625Q85.894-26.9626 74.641-26.9626L36.1748-26.9626Q24.9219-26.9626 24.9219-15.8625L24.9219-2.10841Q24.9219 8.98032 36.1748 8.98032ZM36.7071 1.65257Q32.3119 1.65257 32.3119-2.90683L32.3119-15.0641Q32.3119-19.6235 36.7071-19.6235L74.0464-19.6235Q78.5039-19.6235 78.5039-15.0641L78.5039-2.90683Q78.5039 1.65257 74.0464 1.65257ZM106.787 3.29386L138.654 3.29386Q149.907 3.29386 149.907-7.79487L149.907-62.0353Q149.907-73.1354 138.654-73.1354L106.787-73.1354Q95.5848-73.1354 95.5848-62.0353L95.5848-7.79487Q95.5848 3.29386 106.787 3.29386ZM107.381-4.0339Q102.924-4.0339 102.924-8.59329L102.924-61.2369Q102.924-65.7453 107.381-65.7453L138.082-65.7453Q142.517-65.7453 142.517-61.2369L142.517-8.59329Q142.517-4.0339 138.082-4.0339Z"/>
  </g>
  <g id="Light-M" transform="matrix(1 0 0 1 1073.82 1126)">
   <path d="M22.058-37.43L68.5408-37.43Q78.1378-37.43 78.1378-46.9294L78.1378-68.9719Q78.1378-78.4415 68.5408-78.4415L22.058-78.4415Q12.4609-78.4415 12.4609-68.9719L12.4609-46.9294Q12.4609-37.43 22.058-37.43ZM22.4431-43.1316Q18.1951-43.1316 18.1951-47.507L18.1951-68.424Q18.1951-72.7371 22.4431-72.7371L68.0906-72.7371Q72.4037-72.7371 72.4037-68.424L72.4037-47.507Q72.4037-43.1316 68.0906-43.1316ZM34.5189 7.87638L74.641 7.87638Q84.2381 7.87638 84.2381-1.59323L84.2381-17.2424Q84.2381-26.7418 74.641-26.7418L34.5189-26.7418Q24.9219-26.7418 24.9219-17.2424L24.9219-1.59323Q24.9219 7.87638 34.5189 7.87638ZM34.904 2.20454Q30.656 2.20454 30.656-2.17087L30.656-16.6648Q30.656-21.0402 34.904-21.0402L74.1936-21.0402Q78.5039-21.0402 78.5039-16.6648L78.5039-2.17087Q78.5039 2.20454 74.1936 2.20454ZM103.144 2.4659L136.575 2.4659Q146.172 2.4659 146.172-7.00371L146.172-62.7161Q146.172-72.2154 136.575-72.2154L103.144-72.2154Q93.5794-72.2154 93.5794-62.7161L93.5794-7.00371Q93.5794 2.4659 103.144 2.4659ZM103.591-3.20594Q99.2809-3.20594 99.2809-7.58135L99.2809-62.1384Q99.2809-66.4813 103.591-66.4813L136.187-66.4813Q140.438-66.4813 140.438-62.1384L140.438-7.58135Q140.438-3.20594 136.187-3.20594Z"/>
  </g>
  <g id="Thin-M" transform="matrix(1 0 0 1 779.576 1126)">
   <path d="M19.8679-37.6247L68.4435-37.6247Q75.8504-37.6247 75.8504-45.007L75.8504-69.4342Q75.8504-76.7624 68.4435-76.7624L19.8679-76.7624Q12.4609-76.7624 12.4609-69.4342L12.4609-45.007Q12.4609-37.6247 19.8679-37.6247ZM20.0583-41.1606Q16.005-41.1606 16.005-45.2926L16.005-69.2027Q16.005-73.2724 20.0583-73.2724L68.2366-73.2724Q72.3063-73.2724 72.3063-69.2027L72.3063-45.2926Q72.3063-41.1606 68.2366-41.1606ZM32.3288 6.41633L74.641 6.41633Q82.048 6.41633 82.048-0.911877L82.048-19.0675Q82.048-26.4498 74.641-26.4498L32.3288-26.4498Q24.9219-26.4498 24.9219-19.0675L24.9219-0.911877Q24.9219 6.41633 32.3288 6.41633ZM32.5193 2.93456Q28.4659 2.93456 28.4659-1.19751L28.4659-18.7819Q28.4659-22.9139 32.5193-22.9139L74.3883-22.9139Q78.5039-22.9139 78.5039-18.7819L78.5039-1.19751Q78.5039 2.93456 74.3883 2.93456ZM98.3257 1.37086L133.825 1.37086Q141.232 1.37086 141.232-5.95734L141.232-63.6164Q141.232-70.9987 133.825-70.9987L98.3257-70.9987Q90.9269-70.9987 90.9269-63.6164L90.9269-5.95734Q90.9269 1.37086 98.3257 1.37086ZM98.5784-2.1109Q94.4628-2.1109 94.4628-6.24297L94.4628-63.3308Q94.4628-67.4546 98.5784-67.4546L133.681-67.4546Q137.688-67.4546 137.688-63.3308L137.688-6.24297Q137.688-2.1109 133.681-2.1109Z"/>
  </g>
  <g id="Ultralight-M" transform="matrix(1 0 0 1 484.13 1126)">
   <path d="M18.7462-37.7244L68.3936-37.7244Q74.6788-37.7244 74.6788-44.0224L74.6788-69.671Q74.6788-75.9024 68.3936-75.9024L18.7462-75.9024Q12.4609-75.9024 12.4609-69.671L12.4609-44.0224Q12.4609-37.7244 18.7462-37.7244ZM18.8369-40.151Q14.8833-40.151 14.8833-44.1584L14.8833-69.6015Q14.8833-73.5466 18.8369-73.5466L68.3114-73.5466Q72.2565-73.5466 72.2565-69.6015L72.2565-44.1584Q72.2565-40.151 68.3114-40.151ZM31.2071 5.6685L74.641 5.6685Q80.9262 5.6685 80.9262-0.56289L80.9262-20.0023Q80.9262-26.3002 74.641-26.3002L31.2071-26.3002Q24.9219-26.3002 24.9219-20.0023L24.9219-0.56289Q24.9219 5.6685 31.2071 5.6685ZM31.2978 3.30848Q27.3442 3.30848 27.3442-0.698952L27.3442-19.8662Q27.3442-23.8737 31.2978-23.8737L74.488-23.8737Q78.5039-23.8737 78.5039-19.8662L78.5039-0.698952Q78.5039 3.30848 74.488 3.30848ZM95.8578 0.809991L132.417 0.809991Q138.702 0.809991 138.702-5.4214L138.702-64.0776Q138.702-70.3755 132.417-70.3755L95.8578-70.3755Q89.5684-70.3755 89.5684-64.0776L89.5684-5.4214Q89.5684 0.809991 95.8578 0.809991ZM96.0108-1.55003Q91.9949-1.55003 91.9949-5.55746L91.9949-63.9415Q91.9949-67.9532 96.0108-67.9532L132.397-67.9532Q136.28-67.9532 136.28-63.9415L136.28-5.55746Q136.28-1.55003 132.397-1.55003Z"/>
  </g>
  <g id="Black-S" transform="matrix(1 0 0 1 2865.82 696)">
   <path d="M22.5586-35.2539L57.7148-35.2539Q70.5078-35.2539 70.5078-48.0469L70.5078-64.3555Q70.5078-77.1484 57.7148-77.1484L22.5586-77.1484Q9.76562-77.1484 9.76562-64.3555L9.76562-48.0469Q9.76562-35.2539 22.5586-35.2539ZM25.8789-49.4141Q23.9258-49.4141 23.9258-51.3672L23.9258-61.0352Q23.9258-62.9883 25.8789-62.9883L54.3945-62.9883Q56.3477-62.9883 56.3477-61.0352L56.3477-51.3672Q56.3477-49.4141 54.3945-49.4141ZM31.3477 6.25L59.668 6.25Q72.4609 6.25 72.4609-6.54297L72.4609-17.4805Q72.4609-30.2734 59.668-30.2734L31.3477-30.2734Q18.5547-30.2734 18.5547-17.4805L18.5547-6.54297Q18.5547 6.25 31.3477 6.25ZM34.668-7.91016Q32.7148-7.91016 32.7148-9.86328L32.7148-14.1602Q32.7148-16.1133 34.668-16.1133L56.3477-16.1133Q58.3008-16.1133 58.3008-14.1602L58.3008-9.86328Q58.3008-7.91016 56.3477-7.91016ZM90.1367-1.07422L112.598-1.07422Q125.391-1.07422 125.391-13.8672L125.391-55.6641Q125.391-68.457 112.598-68.457L90.1367-68.457Q77.3438-68.457 77.3438-55.6641L77.3438-13.8672Q77.3438-1.07422 90.1367-1.07422ZM93.457-15.2344Q91.5039-15.2344 91.5039-17.1875L91.5039-52.3438Q91.5039-54.2969 93.457-54.2969L109.277-54.2969Q111.23-54.2969 111.23-52.3438L111.23-17.1875Q111.23-15.2344 109.277-15.2344Z"/>
  </g>
  <g id="Heavy-S" transform="matrix(1 0 0 1 2569.83 696)">
   <path d="M21.8095-35.6112L56.7929-35.6112Q68.8368-35.6112 68.8368-47.6205L68.8368-63.6179Q68.8368-75.6272 56.7929-75.6272L21.8095-75.6272Q9.76562-75.6272 9.76562-63.6179L9.76562-47.6205Q9.76562-35.6112 21.8095-35.6112ZM24.4614-47.9735Q22.1395-47.9735 22.1395-50.33L22.1395-60.9084Q22.1395-63.2533 24.4614-63.2533L54.1179-63.2533Q56.4629-63.2533 56.4629-60.9084L56.4629-50.33Q56.4629-47.9735 54.1179-47.9735ZM30.8291 4.76334L59.3914 4.76334Q71.4353 4.76334 71.4353-7.24596L71.4353-17.9299Q71.4353-29.9392 59.3914-29.9392L30.8291-29.9392Q18.7852-29.9392 18.7852-17.9299L18.7852-7.24596Q18.7852 4.76334 30.8291 4.76334ZM33.4809-7.599Q31.159-7.599 31.159-9.95548L31.159-15.2204Q31.159-17.5769 33.4809-17.5769L56.728-17.5769Q59.0614-17.5769 59.0614-15.2204L59.0614-9.95548Q59.0614-7.599 56.728-7.599ZM89.0304-1.9155L111.906-1.9155Q123.95-1.9155 123.95-13.9248L123.95-55.7217Q123.95-67.731 111.906-67.731L89.0304-67.731Q76.998-67.731 76.998-55.7217L76.998-13.9248Q76.998-1.9155 89.0304-1.9155ZM91.6938-14.2778Q89.3604-14.2778 89.3604-16.6343L89.3604-53.0122Q89.3604-55.3571 91.6938-55.3571L109.243-55.3571Q111.576-55.3571 111.576-53.0122L111.576-16.6343Q111.576-14.2778 109.243-14.2778Z"/>
  </g>
  <g id="Bold-S" transform="matrix(1 0 0 1 2273.93 696)">
   <path d="M20.9717-36.0107L55.7617-36.0107Q66.9678-36.0107 66.9678-47.1436L66.9678-62.793Q66.9678-73.9258 55.7617-73.9258L20.9717-73.9258Q9.76562-73.9258 9.76562-62.793L9.76562-47.1436Q9.76562-36.0107 20.9717-36.0107ZM22.876-46.3623Q20.1416-46.3623 20.1416-49.1699L20.1416-60.7666Q20.1416-63.5498 22.876-63.5498L53.8086-63.5498Q56.5918-63.5498 56.5918-60.7666L56.5918-49.1699Q56.5918-46.3623 53.8086-46.3623ZM30.249 3.10059L59.082 3.10059Q70.2881 3.10059 70.2881-8.03223L70.2881-18.4326Q70.2881-29.5654 59.082-29.5654L30.249-29.5654Q19.043-29.5654 19.043-18.4326L19.043-8.03223Q19.043 3.10059 30.249 3.10059ZM32.1533-7.25098Q29.4189-7.25098 29.4189-10.0586L29.4189-16.4062Q29.4189-19.2139 32.1533-19.2139L57.1533-19.2139Q59.9121-19.2139 59.9121-16.4062L59.9121-10.0586Q59.9121-7.25098 57.1533-7.25098ZM87.793-2.85645L111.133-2.85645Q122.339-2.85645 122.339-13.9893L122.339-55.7861Q122.339-66.9189 111.133-66.9189L87.793-66.9189Q76.6113-66.9189 76.6113-55.7861L76.6113-13.9893Q76.6113-2.85645 87.793-2.85645ZM89.7217-13.208Q86.9629-13.208 86.9629-16.0156L86.9629-53.7598Q86.9629-56.543 89.7217-56.543L109.204-56.543Q111.963-56.543 111.963-53.7598L111.963-16.0156Q111.963-13.208 109.204-13.208Z"/>
  </g>
  <g id="Semibold-S" transform="matrix(1 0 0 1 1977.77 696)">
   <path d="M20.394-36.2862L55.0508-36.2862Q65.6792-36.2862 65.6792-46.8147L65.6792-62.2242Q65.6792-72.7527 55.0508-72.7527L20.394-72.7527Q9.76562-72.7527 9.76562-62.2242L9.76562-46.8147Q9.76562-36.2862 20.394-36.2862ZM21.7829-45.2515Q18.7642-45.2515 18.7642-48.3701L18.7642-60.6688Q18.7642-63.7542 21.7829-63.7542L53.5953-63.7542Q56.6807-63.7542 56.6807-60.6688L56.6807-48.3701Q56.6807-45.2515 53.5953-45.2515ZM29.8491 1.9542L58.8687 1.9542Q69.4972 1.9542 69.4972-8.57432L69.4972-18.7792Q69.4972-29.3077 58.8687-29.3077L29.8491-29.3077Q19.2207-29.3077 19.2207-18.7792L19.2207-8.57432Q19.2207 1.9542 29.8491 1.9542ZM31.238-7.01104Q28.2192-7.01104 28.2192-10.1297L28.2192-17.2238Q28.2192-20.3425 31.238-20.3425L57.4466-20.3425Q60.4986-20.3425 60.4986-17.2238L60.4986-10.1297Q60.4986-7.01104 57.4466-7.01104ZM86.9398-3.50518L110.6-3.50518Q121.228-3.50518 121.228-14.0337L121.228-55.8306Q121.228-66.3591 110.6-66.3591L86.9398-66.3591Q76.3447-66.3591 76.3447-55.8306L76.3447-14.0337Q76.3447-3.50518 86.9398-3.50518ZM88.362-12.4704Q85.31-12.4704 85.31-15.5891L85.31-54.2752Q85.31-57.3605 88.362-57.3605L109.177-57.3605Q112.229-57.3605 112.229-54.2752L112.229-15.5891Q112.229-12.4704 109.177-12.4704Z"/>
  </g>
  <g id="Medium-S" transform="matrix(1 0 0 1 1681.48 696)">
   <path d="M19.9561-36.4951L54.5117-36.4951Q64.7021-36.4951 64.7021-46.5654L64.7021-61.793Q64.7021-71.8633 54.5117-71.8633L19.9561-71.8633Q9.76562-71.8633 9.76562-61.793L9.76562-46.5654Q9.76562-36.4951 19.9561-36.4951ZM20.9541-44.4092Q17.7197-44.4092 17.7197-47.7637L17.7197-60.5947Q17.7197-63.9092 20.9541-63.9092L53.4336-63.9092Q56.748-63.9092 56.748-60.5947L56.748-47.7637Q56.748-44.4092 53.4336-44.4092ZM29.5459 1.08496L58.707 1.08496Q68.8975 1.08496 68.8975-8.98535L68.8975-19.042Q68.8975-29.1123 58.707-29.1123L29.5459-29.1123Q19.3555-29.1123 19.3555-19.042L19.3555-8.98535Q19.3555 1.08496 29.5459 1.08496ZM30.5439-6.8291Q27.3096-6.8291 27.3096-10.1836L27.3096-17.8438Q27.3096-21.1982 30.5439-21.1982L57.6689-21.1982Q60.9434-21.1982 60.9434-17.8438L60.9434-10.1836Q60.9434-6.8291 57.6689-6.8291ZM86.293-3.99707L110.195-3.99707Q120.386-3.99707 120.386-14.0674L120.386-55.8643Q120.386-65.9346 110.195-65.9346L86.293-65.9346Q76.1426-65.9346 76.1426-55.8643L76.1426-14.0674Q76.1426-3.99707 86.293-3.99707ZM87.3311-11.9111Q84.0566-11.9111 84.0566-15.2656L84.0566-54.666Q84.0566-57.9805 87.3311-57.9805L109.157-57.9805Q112.432-57.9805 112.432-54.666L112.432-15.2656Q112.432-11.9111 109.157-11.9111Z"/>
  </g>
  <g id="Regular-S" transform="matrix(1 0 0 1 1385.32 696)">
   <path d="M19.3848-36.7676L53.8086-36.7676Q63.4277-36.7676 63.4277-46.2402L63.4277-61.2305Q63.4277-70.7031 53.8086-70.7031L19.3848-70.7031Q9.76562-70.7031 9.76562-61.2305L9.76562-46.2402Q9.76562-36.7676 19.3848-36.7676ZM19.873-43.3105Q16.3574-43.3105 16.3574-46.9727L16.3574-60.498Q16.3574-64.1113 19.873-64.1113L53.2227-64.1113Q56.8359-64.1113 56.8359-60.498L56.8359-46.9727Q56.8359-43.3105 53.2227-43.3105ZM29.1504-0.0488281L58.4961-0.0488281Q68.1152-0.0488281 68.1152-9.52148L68.1152-19.3848Q68.1152-28.8574 58.4961-28.8574L29.1504-28.8574Q19.5312-28.8574 19.5312-19.3848L19.5312-9.52148Q19.5312-0.0488281 29.1504-0.0488281ZM29.6387-6.5918Q26.123-6.5918 26.123-10.2539L26.123-18.6523Q26.123-22.3145 29.6387-22.3145L57.959-22.3145Q61.5234-22.3145 61.5234-18.6523L61.5234-10.2539Q61.5234-6.5918 57.959-6.5918ZM85.4492-4.63867L109.668-4.63867Q119.287-4.63867 119.287-14.1113L119.287-55.9082Q119.287-65.3809 109.668-65.3809L85.4492-65.3809Q75.8789-65.3809 75.8789-55.9082L75.8789-14.1113Q75.8789-4.63867 85.4492-4.63867ZM85.9863-11.1816Q82.4219-11.1816 82.4219-14.8438L82.4219-55.1758Q82.4219-58.7891 85.9863-58.7891L109.131-58.7891Q112.695-58.7891 112.695-55.1758L112.695-14.8438Q112.695-11.1816 109.131-11.1816Z"/>
  </g>
  <g id="Light-S" transform="matrix(1 0 0 1 1090.26 696)">
   <path d="M17.9199-36.8978L53.7435-36.8978Q61.8978-36.8978 61.8978-44.9544L61.8978-61.5397Q61.8978-69.5801 53.7435-69.5801L17.9199-69.5801Q9.76562-69.5801 9.76562-61.5397L9.76562-44.9544Q9.76562-36.8978 17.9199-36.8978ZM18.278-41.9922Q14.8926-41.9922 14.8926-45.4915L14.8926-61.0189Q14.8926-64.4694 18.278-64.4694L53.3203-64.4694Q56.7708-64.4694 56.7708-61.0189L56.7708-45.4915Q56.7708-41.9922 53.3203-41.9922ZM27.6855-1.02539L58.4961-1.02539Q66.6504-1.02539 66.6504-9.06576L66.6504-20.6055Q66.6504-28.6621 58.4961-28.6621L27.6855-28.6621Q19.5312-28.6621 19.5312-20.6055L19.5312-9.06576Q19.5312-1.02539 27.6855-1.02539ZM28.0436-6.10352Q24.6582-6.10352 24.6582-9.60286L24.6582-20.0684Q24.6582-23.5677 28.0436-23.5677L58.0892-23.5677Q61.5234-23.5677 61.5234-20.0684L61.5234-9.60286Q61.5234-6.10352 58.0892-6.10352ZM82.2266-5.37109L107.829-5.37109Q115.983-5.37109 115.983-13.4115L115.983-56.5104Q115.983-64.5671 107.829-64.5671L82.2266-64.5671Q74.1048-64.5671 74.1048-56.5104L74.1048-13.4115Q74.1048-5.37109 82.2266-5.37109ZM82.6335-10.4492Q79.1992-10.4492 79.1992-13.9486L79.1992-55.9733Q79.1992-59.4401 82.6335-59.4401L107.454-59.4401Q110.856-59.4401 110.856-55.9733L110.856-13.9486Q110.856-10.4492 107.454-10.4492Z"/>
  </g>
  <g id="Thin-S" transform="matrix(1 0 0 1 795.733 696)">
   <path d="M15.9825-37.07L53.6574-37.07Q59.8743-37.07 59.8743-43.2538L59.8743-61.9487Q59.8743-68.0948 53.6574-68.0948L15.9825-68.0948Q9.76562-68.0948 9.76562-61.9487L9.76562-43.2538Q9.76562-37.07 15.9825-37.07ZM16.1684-40.2486Q12.9552-40.2486 12.9552-43.5326L12.9552-61.7077Q12.9552-64.943 16.1684-64.943L53.4495-64.943Q56.6847-64.943 56.6847-61.7077L56.6847-43.5326Q56.6847-40.2486 53.4495-40.2486ZM25.7482-2.31697L58.4961-2.31697Q64.713-2.31697 64.713-8.46302L64.713-22.2199Q64.713-28.4038 58.4961-28.4038L25.7482-28.4038Q19.5312-28.4038 19.5312-22.2199L19.5312-8.46302Q19.5312-2.31697 25.7482-2.31697ZM25.934-5.45772Q22.7208-5.45772 22.7208-8.74181L22.7208-21.9412Q22.7208-25.2252 25.934-25.2252L58.2614-25.2252Q61.5234-25.2252 61.5234-21.9412L61.5234-8.74181Q61.5234-5.45772 58.2614-5.45772ZM77.9643-6.33978L105.396-6.33978Q111.613-6.33978 111.613-12.4858L111.613-57.3069Q111.613-63.4907 105.396-63.4907L77.9643-63.4907Q71.7584-63.4907 71.7584-57.3069L71.7584-12.4858Q71.7584-6.33978 77.9643-6.33978ZM78.199-9.48053Q74.937-9.48053 74.937-12.7646L74.937-57.0281Q74.937-60.3012 78.199-60.3012L105.237-60.3012Q108.424-60.3012 108.424-57.0281L108.424-12.7646Q108.424-9.48053 105.237-9.48053Z"/>
  </g>
  <g id="Ultralight-S" transform="matrix(1 0 0 1 500.141 696)">
   <path d="M14.9902-37.1582L53.6133-37.1582Q58.8379-37.1582 58.8379-42.3828L58.8379-62.1582Q58.8379-67.334 53.6133-67.334L14.9902-67.334Q9.76562-67.334 9.76562-62.1582L9.76562-42.3828Q9.76562-37.1582 14.9902-37.1582ZM15.0879-39.3555Q11.9629-39.3555 11.9629-42.5293L11.9629-62.0605Q11.9629-65.1855 15.0879-65.1855L53.5156-65.1855Q56.6406-65.1855 56.6406-62.0605L56.6406-42.5293Q56.6406-39.3555 53.5156-39.3555ZM24.7559-2.97852L58.4961-2.97852Q63.7207-2.97852 63.7207-8.1543L63.7207-23.0469Q63.7207-28.2715 58.4961-28.2715L24.7559-28.2715Q19.5312-28.2715 19.5312-23.0469L19.5312-8.1543Q19.5312-2.97852 24.7559-2.97852ZM24.8535-5.12695Q21.7285-5.12695 21.7285-8.30078L21.7285-22.9004Q21.7285-26.0742 24.8535-26.0742L58.3496-26.0742Q61.5234-26.0742 61.5234-22.9004L61.5234-8.30078Q61.5234-5.12695 58.3496-5.12695ZM75.7812-6.83594L104.15-6.83594Q109.375-6.83594 109.375-12.0117L109.375-57.7148Q109.375-62.9395 104.15-62.9395L75.7812-62.9395Q70.5566-62.9395 70.5566-57.7148L70.5566-12.0117Q70.5566-6.83594 75.7812-6.83594ZM75.9277-8.98438Q72.7539-8.98438 72.7539-12.1582L72.7539-57.5684Q72.7539-60.7422 75.9277-60.7422L104.102-60.7422Q107.178-60.7422 107.178-57.5684L107.178-12.1582Q107.178-8.98438 104.102-8.98438Z"/>
  </g>
 </g>
</svg>
