<?xml version="1.0" encoding="UTF-8"?>
<!--Generator: Apple Native CoreSVG 175.5-->
<!DOCTYPE svg
PUBLIC "-//W3C//DTD SVG 1.1//EN"
       "http://www.w3.org/Graphics/SVG/1.1/DTD/svg11.dtd">
<svg version="1.1" xmlns="http://www.w3.org/2000/svg" xmlns:xlink="http://www.w3.org/1999/xlink" width="7.83936" height="12.4985">
 <g>
  <rect height="12.4985" opacity="0" width="7.83936" x="0" y="0"/>
  <path d="M3.92285 12.4985C4.0752 12.4985 4.22119 12.4414 4.34814 12.3145L7.66797 8.9248C7.77588 8.81689 7.83936 8.64551 7.83936 8.51221C7.83936 8.16943 7.61084 7.94727 7.28076 7.94727C7.12207 7.94727 6.99512 8.00439 6.89355 8.10596L5.45264 9.59131L4.42432 10.7783L4.48779 9.30566L4.48779 3.19287L4.42432 1.72021L5.45264 2.90723L6.89355 4.39258C6.99512 4.49414 7.12207 4.55127 7.28076 4.55127C7.61084 4.55127 7.83936 4.3291 7.83936 3.98633C7.83936 3.85303 7.77588 3.68164 7.66797 3.57373L4.34814 0.184082C4.22119 0.0571289 4.0752 0 3.92285 0C3.76416 0 3.61816 0.0571289 3.49756 0.184082L0.177734 3.57373C0.0698242 3.68164 0 3.85303 0 3.98633C0 4.3291 0.228516 4.55127 0.558594 4.55127C0.723633 4.55127 0.850586 4.49414 0.945801 4.39258L2.39307 2.90723L3.41504 1.72021L3.35791 3.19287L3.35791 9.30566L3.41504 10.7783L2.39307 9.59131L0.945801 8.10596C0.850586 8.00439 0.723633 7.94727 0.558594 7.94727C0.228516 7.94727 0 8.16943 0 8.51221C0 8.64551 0.0698242 8.81689 0.177734 8.9248L3.49756 12.3145C3.61816 12.4414 3.76416 12.4985 3.92285 12.4985Z" fill="#000000" fill-opacity="0.85"/>
 </g>
</svg>
