<?xml version="1.0" encoding="UTF-8"?>
<!--Generator: Apple Native CoreSVG 175-->
<!DOCTYPE svg
PUBLIC "-//W3C//DTD SVG 1.1//EN"
       "http://www.w3.org/Graphics/SVG/1.1/DTD/svg11.dtd">
<svg version="1.1" xmlns="http://www.w3.org/2000/svg" xmlns:xlink="http://www.w3.org/1999/xlink" width="3300" height="2200">
 <!--glyph: "uni1002A8.medium", point size: 100.0, font version: "17.1d1e1", template writer version: "65.1"-->
 <g id="Notes">
  <rect height="2200" id="artboard" style="fill:white;opacity:1" width="3300" x="0" y="0"/>
  <line style="fill:none;stroke:black;opacity:1;stroke-width:0.5;" x1="263" x2="3036" y1="292" y2="292"/>
  <text style="stroke:none;fill:black;font-family:sans-serif;font-size:13;font-weight:bold;" transform="matrix(1 0 0 1 263 322)">Weight/Scale Variations</text>
  <text style="stroke:none;fill:black;font-family:sans-serif;font-size:13;text-anchor:middle;" transform="matrix(1 0 0 1 559.711 322)">Ultralight</text>
  <text style="stroke:none;fill:black;font-family:sans-serif;font-size:13;text-anchor:middle;" transform="matrix(1 0 0 1 856.422 322)">Thin</text>
  <text style="stroke:none;fill:black;font-family:sans-serif;font-size:13;text-anchor:middle;" transform="matrix(1 0 0 1 1153.13 322)">Light</text>
  <text style="stroke:none;fill:black;font-family:sans-serif;font-size:13;text-anchor:middle;" transform="matrix(1 0 0 1 1449.84 322)">Regular</text>
  <text style="stroke:none;fill:black;font-family:sans-serif;font-size:13;text-anchor:middle;" transform="matrix(1 0 0 1 1746.56 322)">Medium</text>
  <text style="stroke:none;fill:black;font-family:sans-serif;font-size:13;text-anchor:middle;" transform="matrix(1 0 0 1 2043.27 322)">Semibold</text>
  <text style="stroke:none;fill:black;font-family:sans-serif;font-size:13;text-anchor:middle;" transform="matrix(1 0 0 1 2339.98 322)">Bold</text>
  <text style="stroke:none;fill:black;font-family:sans-serif;font-size:13;text-anchor:middle;" transform="matrix(1 0 0 1 2636.69 322)">Heavy</text>
  <text style="stroke:none;fill:black;font-family:sans-serif;font-size:13;text-anchor:middle;" transform="matrix(1 0 0 1 2933.4 322)">Black</text>
  <line style="fill:none;stroke:black;opacity:1;stroke-width:0.5;" x1="263" x2="3036" y1="1903" y2="1903"/>
  <g transform="matrix(1 0 0 1 263 1933)">
   <path d="M9.24805 0.830078Q10.8691 0.830078 12.2949 0.214844Q13.7207-0.400391 14.8096-1.49414Q15.8984-2.58789 16.5186-4.01367Q17.1387-5.43945 17.1387-7.05078Q17.1387-8.66211 16.5186-10.0879Q15.8984-11.5137 14.8047-12.6074Q13.7109-13.7012 12.2852-14.3164Q10.8594-14.9316 9.23828-14.9316Q7.62695-14.9316 6.20117-14.3164Q4.77539-13.7012 3.69141-12.6074Q2.60742-11.5137 1.9873-10.0879Q1.36719-8.66211 1.36719-7.05078Q1.36719-5.43945 1.9873-4.01367Q2.60742-2.58789 3.69629-1.49414Q4.78516-0.400391 6.21094 0.214844Q7.63672 0.830078 9.24805 0.830078ZM9.24805-0.654297Q7.91992-0.654297 6.7627-1.14746Q5.60547-1.64062 4.73145-2.51953Q3.85742-3.39844 3.36426-4.56055Q2.87109-5.72266 2.87109-7.05078Q2.87109-8.37891 3.35938-9.54102Q3.84766-10.7031 4.72168-11.582Q5.5957-12.4609 6.75293-12.9541Q7.91016-13.4473 9.23828-13.4473Q10.5762-13.4473 11.7334-12.9541Q12.8906-12.4609 13.7695-11.582Q14.6484-10.7031 15.1465-9.54102Q15.6445-8.37891 15.6445-7.05078Q15.6445-5.72266 15.1514-4.56055Q14.6582-3.39844 13.7842-2.51953Q12.9102-1.64062 11.748-1.14746Q10.5859-0.654297 9.24805-0.654297ZM5.6543-7.05078Q5.6543-6.72852 5.85938-6.52832Q6.06445-6.32812 6.40625-6.32812L8.51562-6.32812L8.51562-4.20898Q8.51562-3.88672 8.71094-3.67676Q8.90625-3.4668 9.23828-3.4668Q9.56055-3.4668 9.77051-3.67676Q9.98047-3.88672 9.98047-4.20898L9.98047-6.32812L12.0898-6.32812Q12.4219-6.32812 12.627-6.52832Q12.832-6.72852 12.832-7.05078Q12.832-7.38281 12.627-7.58789Q12.4219-7.79297 12.0898-7.79297L9.98047-7.79297L9.98047-9.90234Q9.98047-10.2344 9.77051-10.4443Q9.56055-10.6543 9.23828-10.6543Q8.90625-10.6543 8.71094-10.4443Q8.51562-10.2344 8.51562-9.90234L8.51562-7.79297L6.40625-7.79297Q6.06445-7.79297 5.85938-7.58789Q5.6543-7.38281 5.6543-7.05078Z"/>
  </g>
  <g transform="matrix(1 0 0 1 281.867 1933)">
   <path d="M11.709 2.91016Q13.75 2.91016 15.5518 2.12891Q17.3535 1.34766 18.7305-0.0292969Q20.1074-1.40625 20.8887-3.20801Q21.6699-5.00977 21.6699-7.05078Q21.6699-9.0918 20.8887-10.8936Q20.1074-12.6953 18.7305-14.0723Q17.3535-15.4492 15.5469-16.2305Q13.7402-17.0117 11.6992-17.0117Q9.6582-17.0117 7.85645-16.2305Q6.05469-15.4492 4.68262-14.0723Q3.31055-12.6953 2.5293-10.8936Q1.74805-9.0918 1.74805-7.05078Q1.74805-5.00977 2.5293-3.20801Q3.31055-1.40625 4.6875-0.0292969Q6.06445 1.34766 7.86621 2.12891Q9.66797 2.91016 11.709 2.91016ZM11.709 1.25Q9.98047 1.25 8.47656 0.605469Q6.97266-0.0390625 5.83496-1.17676Q4.69727-2.31445 4.05762-3.81836Q3.41797-5.32227 3.41797-7.05078Q3.41797-8.7793 4.05762-10.2832Q4.69727-11.7871 5.83008-12.9297Q6.96289-14.0723 8.4668-14.7119Q9.9707-15.3516 11.6992-15.3516Q13.4277-15.3516 14.9316-14.7119Q16.4355-14.0723 17.5781-12.9297Q18.7207-11.7871 19.3652-10.2832Q20.0098-8.7793 20.0098-7.05078Q20.0098-5.32227 19.3701-3.81836Q18.7305-2.31445 17.5928-1.17676Q16.4551-0.0390625 14.9463 0.605469Q13.4375 1.25 11.709 1.25ZM7.17773-7.05078Q7.17773-6.69922 7.41211-6.47461Q7.64648-6.25 8.01758-6.25L10.8887-6.25L10.8887-3.36914Q10.8887-2.99805 11.1133-2.76855Q11.3379-2.53906 11.6895-2.53906Q12.0605-2.53906 12.29-2.76855Q12.5195-2.99805 12.5195-3.36914L12.5195-6.25L15.4004-6.25Q15.7715-6.25 16.001-6.47461Q16.2305-6.69922 16.2305-7.05078Q16.2305-7.42188 16.001-7.65137Q15.7715-7.88086 15.4004-7.88086L12.5195-7.88086L12.5195-10.752Q12.5195-11.1328 12.29-11.3623Q12.0605-11.5918 11.6895-11.5918Q11.3379-11.5918 11.1133-11.3574Q10.8887-11.123 10.8887-10.752L10.8887-7.88086L8.01758-7.88086Q7.63672-7.88086 7.40723-7.65137Q7.17773-7.42188 7.17773-7.05078Z"/>
  </g>
  <g transform="matrix(1 0 0 1 305.646 1933)">
   <path d="M14.9707 5.66406Q17.0605 5.66406 18.96 5.01465Q20.8594 4.36523 22.4512 3.19336Q24.043 2.02148 25.2197 0.429688Q26.3965-1.16211 27.0459-3.06641Q27.6953-4.9707 27.6953-7.05078Q27.6953-9.14062 27.0459-11.04Q26.3965-12.9395 25.2197-14.5312Q24.043-16.123 22.4512-17.2998Q20.8594-18.4766 18.9551-19.126Q17.0508-19.7754 14.9609-19.7754Q12.8711-19.7754 10.9717-19.126Q9.07227-18.4766 7.48535-17.2998Q5.89844-16.123 4.72168-14.5312Q3.54492-12.9395 2.90039-11.04Q2.25586-9.14062 2.25586-7.05078Q2.25586-4.9707 2.90527-3.06641Q3.55469-1.16211 4.72656 0.429688Q5.89844 2.02148 7.49023 3.19336Q9.08203 4.36523 10.9814 5.01465Q12.8809 5.66406 14.9707 5.66406ZM14.9707 3.84766Q13.1641 3.84766 11.5283 3.2959Q9.89258 2.74414 8.53516 1.74805Q7.17773 0.751953 6.17676-0.610352Q5.17578-1.97266 4.62891-3.6084Q4.08203-5.24414 4.08203-7.05078Q4.08203-8.86719 4.62891-10.5029Q5.17578-12.1387 6.17188-13.501Q7.16797-14.8633 8.52539-15.8594Q9.88281-16.8555 11.5186-17.4023Q13.1543-17.9492 14.9609-17.9492Q16.7773-17.9492 18.4131-17.4023Q20.0488-16.8555 21.4111-15.8594Q22.7734-14.8633 23.7695-13.501Q24.7656-12.1387 25.3174-10.5029Q25.8691-8.86719 25.8691-7.05078Q25.8789-5.24414 25.332-3.6084Q24.7852-1.97266 23.7842-0.610352Q22.7832 0.751953 21.4209 1.74805Q20.0586 2.74414 18.4229 3.2959Q16.7871 3.84766 14.9707 3.84766ZM9.19922-7.05078Q9.19922-6.66992 9.45801-6.4209Q9.7168-6.17188 10.1172-6.17188L14.0625-6.17188L14.0625-2.2168Q14.0625-1.81641 14.3115-1.55762Q14.5605-1.29883 14.9512-1.29883Q15.3516-1.29883 15.6104-1.55273Q15.8691-1.80664 15.8691-2.2168L15.8691-6.17188L19.8242-6.17188Q20.2246-6.17188 20.4785-6.4209Q20.7324-6.66992 20.7324-7.05078Q20.7324-7.46094 20.4785-7.71484Q20.2246-7.96875 19.8242-7.96875L15.8691-7.96875L15.8691-11.9141Q15.8691-12.3242 15.6104-12.583Q15.3516-12.8418 14.9512-12.8418Q14.5605-12.8418 14.3115-12.583Q14.0625-12.3242 14.0625-11.9141L14.0625-7.96875L10.1172-7.96875Q9.70703-7.96875 9.45312-7.71484Q9.19922-7.46094 9.19922-7.05078Z"/>
  </g>
  <text style="stroke:none;fill:black;font-family:sans-serif;font-size:13;font-weight:bold;" transform="matrix(1 0 0 1 263 1953)">Design Variations</text>
  <text style="stroke:none;fill:black;font-family:sans-serif;font-size:13;" transform="matrix(1 0 0 1 263 1971)">Symbols are supported in up to nine weights and three scales.</text>
  <text style="stroke:none;fill:black;font-family:sans-serif;font-size:13;" transform="matrix(1 0 0 1 263 1989)">For optimal layout with text and other symbols, vertically align</text>
  <text style="stroke:none;fill:black;font-family:sans-serif;font-size:13;" transform="matrix(1 0 0 1 263 2007)">symbols with the adjacent text.</text>
  <line style="fill:none;stroke:#00AEEF;stroke-width:0.5;opacity:1.0;" x1="776" x2="776" y1="1919" y2="1933"/>
  <g transform="matrix(1 0 0 1 776 1933)">
   <path d="M3.31055 0.15625Q3.70117 0.15625 3.91602-0.00976562Q4.13086-0.175781 4.26758-0.585938L5.52734-4.0332L11.2891-4.0332L12.5488-0.585938Q12.6855-0.175781 12.9004-0.00976562Q13.1152 0.15625 13.4961 0.15625Q13.8867 0.15625 14.1162-0.0585938Q14.3457-0.273438 14.3457-0.644531Q14.3457-0.869141 14.2383-1.17188L9.6582-13.3691Q9.48242-13.8184 9.17969-14.043Q8.87695-14.2676 8.4082-14.2676Q7.5-14.2676 7.17773-13.3789L2.59766-1.16211Q2.49023-0.859375 2.49023-0.634766Q2.49023-0.263672 2.70996-0.0537109Q2.92969 0.15625 3.31055 0.15625ZM6.00586-5.51758L8.37891-12.0898L8.42773-12.0898L10.8008-5.51758Z"/>
  </g>
  <line style="fill:none;stroke:#00AEEF;stroke-width:0.5;opacity:1.0;" x1="793.197" x2="793.197" y1="1919" y2="1933"/>
  <text style="stroke:none;fill:black;font-family:sans-serif;font-size:13;font-weight:bold;" transform="matrix(1 0 0 1 776 1953)">Margins</text>
  <text style="stroke:none;fill:black;font-family:sans-serif;font-size:13;" transform="matrix(1 0 0 1 776 1971)">Leading and trailing margins on the left and right side of each symbol</text>
  <text style="stroke:none;fill:black;font-family:sans-serif;font-size:13;" transform="matrix(1 0 0 1 776 1989)">can be adjusted by modifying the x-location of the margin guidelines.</text>
  <text style="stroke:none;fill:black;font-family:sans-serif;font-size:13;" transform="matrix(1 0 0 1 776 2007)">Modifications are automatically applied proportionally to all</text>
  <text style="stroke:none;fill:black;font-family:sans-serif;font-size:13;" transform="matrix(1 0 0 1 776 2025)">scales and weights.</text>
  <g transform="matrix(1 0 0 1 1289 1933)">
   <path d="M2.8418 1.86523L4.54102 3.57422Q5.18555 4.22852 5.90332 4.17969Q6.62109 4.13086 7.31445 3.35938L18.0078-8.42773L17.041-9.4043L6.42578 2.27539Q6.16211 2.57812 5.89355 2.61719Q5.625 2.65625 5.27344 2.30469L4.10156 1.14258Q3.75 0.791016 3.79395 0.522461Q3.83789 0.253906 4.14062-0.0195312L15.6152-10.8203L14.6387-11.7871L3.04688-0.898438Q2.30469-0.214844 2.25098 0.498047Q2.19727 1.21094 2.8418 1.86523ZM9.25781-16.3281Q8.94531-16.0254 8.90625-15.6348Q8.86719-15.2441 9.04297-14.9512Q9.21875-14.6777 9.55566-14.541Q9.89258-14.4043 10.3809-14.5215Q11.4746-14.7754 12.5977-14.7314Q13.7207-14.6875 14.7949-13.9844L14.209-12.5293Q13.9551-11.9043 14.0674-11.4404Q14.1797-10.9766 14.5801-10.5664L16.875-8.25195Q17.2363-7.88086 17.5781-7.82227Q17.9199-7.76367 18.3398-7.8418L19.4043-8.03711L20.0684-7.36328L20.0293-6.80664Q20-6.43555 20.1221-6.12305Q20.2441-5.81055 20.6055-5.44922L21.3672-4.70703Q21.7285-4.3457 22.1533-4.33105Q22.5781-4.31641 22.9297-4.66797L25.8398-7.58789Q26.1914-7.93945 26.1816-8.35449Q26.1719-8.76953 25.8105-9.13086L25.0391-9.89258Q24.6875-10.2539 24.3799-10.3857Q24.0723-10.5176 23.7109-10.4883L23.1348-10.4395L22.4902-11.0742L22.7344-12.1973Q22.832-12.6172 22.6953-12.9834Q22.5586-13.3496 22.1191-13.7891L19.9219-15.9766Q18.6719-17.2168 17.2607-17.8369Q15.8496-18.457 14.4189-18.4814Q12.9883-18.5059 11.665-17.959Q10.3418-17.4121 9.25781-16.3281ZM10.752-15.957Q11.6602-16.6211 12.7002-16.9043Q13.7402-17.1875 14.8047-17.085Q15.8691-16.9824 16.8701-16.5137Q17.8711-16.0449 18.7012-15.2051L21.1328-12.793Q21.3086-12.6172 21.3525-12.4512Q21.3965-12.2852 21.3379-12.0312L21.0156-10.5469L22.5195-9.0625L23.5059-9.12109Q23.6914-9.13086 23.7891-9.09668Q23.8867-9.0625 24.0332-8.91602L24.6094-8.33984L22.168-5.89844L21.5918-6.47461Q21.4453-6.62109 21.4062-6.71875Q21.3672-6.81641 21.377-7.01172L21.4453-7.98828L19.9512-9.47266L18.4277-9.21875Q18.1836-9.16992 18.042-9.2041Q17.9004-9.23828 17.7148-9.41406L15.7129-11.416Q15.5176-11.5918 15.4932-11.7529Q15.4688-11.9141 15.5859-12.1875L16.4648-14.2773Q15.293-15.3711 13.8281-15.791Q12.3633-16.2109 10.8398-15.7617Q10.7227-15.7324 10.6885-15.8057Q10.6543-15.8789 10.752-15.957Z"/>
  </g>
  <text style="stroke:none;fill:black;font-family:sans-serif;font-size:13;font-weight:bold;" transform="matrix(1 0 0 1 1289 1953)">Exporting</text>
  <text style="stroke:none;fill:black;font-family:sans-serif;font-size:13;" transform="matrix(1 0 0 1 1289 1971)">Symbols should be outlined when exporting to ensure the</text>
  <text style="stroke:none;fill:black;font-family:sans-serif;font-size:13;" transform="matrix(1 0 0 1 1289 1989)">design is preserved when submitting to Xcode.</text>
  <text id="template-version" style="stroke:none;fill:black;font-family:sans-serif;font-size:13;text-anchor:end;" transform="matrix(1 0 0 1 3036 1933)">Template v.3.0</text>
  <text style="stroke:none;fill:black;font-family:sans-serif;font-size:13;text-anchor:end;" transform="matrix(1 0 0 1 3036 1951)">Requires Xcode 13 or greater</text>
  <text id="descriptive-name" style="stroke:none;fill:black;font-family:sans-serif;font-size:13;text-anchor:end;" transform="matrix(1 0 0 1 3036 1969)">Generated from speaker.wave.3</text>
  <text style="stroke:none;fill:black;font-family:sans-serif;font-size:13;text-anchor:end;" transform="matrix(1 0 0 1 3036 1987)">Typeset at 100 points</text>
  <text style="stroke:none;fill:black;font-family:sans-serif;font-size:13;" transform="matrix(1 0 0 1 263 726)">Small</text>
  <text style="stroke:none;fill:black;font-family:sans-serif;font-size:13;" transform="matrix(1 0 0 1 263 1156)">Medium</text>
  <text style="stroke:none;fill:black;font-family:sans-serif;font-size:13;" transform="matrix(1 0 0 1 263 1586)">Large</text>
 </g>
 <g id="Guides">
  <g id="H-reference" style="fill:#27AAE1;stroke:none;" transform="matrix(1 0 0 1 339 696)">
   <path d="M0.993347 0L3.6377 0L29.3282-67.1326L30.0301-67.1326L30.0301-70.459L28.1227-70.459ZM11.6882-24.4797L46.9818-24.4797L46.2311-26.7288L12.4382-26.7288ZM55.1193 0L57.7637 0L30.6381-70.459L29.4327-70.459L29.4327-67.1326Z"/>
  </g>
  <line id="Baseline-S" style="fill:none;stroke:#27AAE1;opacity:1;stroke-width:0.5;" x1="263" x2="3036" y1="696" y2="696"/>
  <line id="Capline-S" style="fill:none;stroke:#27AAE1;opacity:1;stroke-width:0.5;" x1="263" x2="3036" y1="625.541" y2="625.541"/>
  <g id="H-reference" style="fill:#27AAE1;stroke:none;" transform="matrix(1 0 0 1 339 1126)">
   <path d="M0.993347 0L3.6377 0L29.3282-67.1326L30.0301-67.1326L30.0301-70.459L28.1227-70.459ZM11.6882-24.4797L46.9818-24.4797L46.2311-26.7288L12.4382-26.7288ZM55.1193 0L57.7637 0L30.6381-70.459L29.4327-70.459L29.4327-67.1326Z"/>
  </g>
  <line id="Baseline-M" style="fill:none;stroke:#27AAE1;opacity:1;stroke-width:0.5;" x1="263" x2="3036" y1="1126" y2="1126"/>
  <line id="Capline-M" style="fill:none;stroke:#27AAE1;opacity:1;stroke-width:0.5;" x1="263" x2="3036" y1="1055.54" y2="1055.54"/>
  <g id="H-reference" style="fill:#27AAE1;stroke:none;" transform="matrix(1 0 0 1 339 1556)">
   <path d="M0.993347 0L3.6377 0L29.3282-67.1326L30.0301-67.1326L30.0301-70.459L28.1227-70.459ZM11.6882-24.4797L46.9818-24.4797L46.2311-26.7288L12.4382-26.7288ZM55.1193 0L57.7637 0L30.6381-70.459L29.4327-70.459L29.4327-67.1326Z"/>
  </g>
  <line id="Baseline-L" style="fill:none;stroke:#27AAE1;opacity:1;stroke-width:0.5;" x1="263" x2="3036" y1="1556" y2="1556"/>
  <line id="Capline-L" style="fill:none;stroke:#27AAE1;opacity:1;stroke-width:0.5;" x1="263" x2="3036" y1="1485.54" y2="1485.54"/>
  <line id="left-margin-Regular-M" style="fill:none;stroke:#00AEEF;stroke-width:0.5;opacity:1.0;" x1="1369.43" x2="1369.43" y1="1030.79" y2="1150.12"/>
  <line id="right-margin-Regular-M" style="fill:none;stroke:#00AEEF;stroke-width:0.5;opacity:1.0;" x1="1530.25" x2="1530.25" y1="1030.79" y2="1150.12"/>
 </g>
 <g id="Symbols">
  <g id="Black-L" transform="matrix(1 0 0 1 2812.2 1556)">
   <path d="M38.998-4.3253L56.2566-4.3253Q56.8167-4.3253 57.2121-3.95188L82.2984 18.4846Q85.4301 21.2414 88.0897 22.5718Q90.7492 23.9023 93.9835 23.9023Q98.893 23.9023 102.235 20.5769Q105.576 17.2516 105.576 12.3227L105.576-82.599Q105.576-87.5291 102.235-90.9069Q98.893-94.2847 93.9421-94.2847Q90.883-94.2847 88.2467-92.9803Q85.6104-91.6759 82.2984-88.7414L57.2121-66.4748Q56.7024-66.0455 56.2566-66.0455L38.998-66.0455Q30.3163-66.0455 25.7327-61.2544Q21.1492-56.4633 21.1492-47.4016L21.1492-22.9447Q21.1492-13.905 25.7327-9.11516Q30.3163-4.3253 38.998-4.3253ZM42.1802-22.0272Q41.2585-22.0272 40.7152-22.6016Q40.1719-23.1761 40.1719-24.0393L40.1719-46.3289Q40.1719-47.2519 40.7152-47.7971Q41.2585-48.3424 42.1802-48.3424L60.3162-48.3424Q61.8184-48.3424 62.9314-48.7218Q64.0444-49.1012 65.1119-50.1273L84.753-68.1709Q84.919-68.3343 85.1621-68.4289Q85.4053-68.5236 85.6505-68.5236Q86.5766-68.5236 86.5766-67.5377L86.5766-2.80829Q86.5766-1.74202 85.6725-1.74202Q85.1666-1.74202 84.7543-2.17257L65.1119-20.2436Q63.2025-22.0272 60.3162-22.0272ZM127.314-3.51625Q130.644-1.50383 134.214-2.1649Q137.784-2.82597 139.858-5.71014Q144.237-11.8177 146.66-19.4154Q149.084-27.013 149.084-35.2697Q149.084-43.5264 146.66-51.1429Q144.237-58.7594 139.858-64.8877Q137.784-67.7134 134.214-68.3745Q130.644-69.0356 127.314-67.0024Q123.766-64.8487 123.068-60.8375Q122.371-56.8262 125.385-51.737Q127.548-48.2506 128.699-44.0265Q129.85-39.8024 129.85-35.2697Q129.85-30.7954 128.689-26.5525Q127.527-22.3095 125.385-18.8024Q122.371-13.7716 123.068-9.72079Q123.766-5.66997 127.314-3.51625ZM158.673 14.6844Q162.044 16.6215 165.76 15.8332Q169.476 15.045 171.609 11.6936Q178.108 1.70353 181.616-10.318Q185.124-22.3395 185.124-35.2697Q185.124-48.2 181.627-60.2312Q178.13-72.2624 171.609-82.233Q169.476-85.5844 165.76-86.3727Q162.044-87.1609 158.673-85.2238Q154.757-83.0739 154.245-78.8796Q153.733-74.6853 156.297-70.4722Q160.892-62.9709 163.43-53.9505Q165.969-44.9302 165.969-35.2697Q165.969-25.6092 163.41-16.5992Q160.851-7.58921 156.297-0.0672498Q153.754 4.14589 154.255 8.31099Q154.757 12.4761 158.673 14.6844ZM189.868 32.9122Q193.393 34.9064 197.218 33.991Q201.043 33.0755 203.117 29.5853Q208.854 20.2388 212.904 9.81594Q216.954-0.606948 219.098-11.9137Q221.242-23.2204 221.242-35.0945Q221.242-47.0269 219.088-58.3045Q216.934-69.582 212.873-79.9945Q208.812-90.4071 203.117-99.7742Q201.043-103.285 197.218-104.219Q193.393-105.154 189.868-103.101Q186.127-100.932 185.527-96.8822Q184.928-92.8326 187.374-88.6779Q191.965-80.9651 195.267-72.3074Q198.568-63.6498 200.31-54.314Q202.051-44.9781 202.051-35.0945Q202.051-25.29 200.31-15.9146Q198.568-6.53918 195.267 2.11845Q191.965 10.7761 187.374 18.4889Q184.928 22.6437 185.527 26.6932Q186.127 30.7428 189.868 32.9122Z"/>
  </g>
  <g id="Heavy-L" transform="matrix(1 0 0 1 2519.83 1556)">
   <path d="M37.1695-5.6569L54.6618-5.6569Q55.306-5.6569 55.7713-5.22741L81.6897 17.9619Q84.5886 20.5186 87.0533 21.754Q89.5181 22.9894 92.5067 22.9894Q96.9447 22.9894 99.9507 19.992Q102.957 16.9946 102.957 12.5329L102.957-82.7687Q102.957-87.2364 99.9507-90.3112Q96.9447-93.3861 92.4472-93.3861Q89.5924-93.3861 87.1828-92.1446Q84.7732-90.9032 81.6897-88.1739L55.7713-65.1475Q55.2288-64.6855 54.6618-64.6855L37.1695-64.6855Q29.0813-64.6855 24.8499-60.2695Q20.6184-55.8535 20.6184-47.3725L20.6184-22.922Q20.6184-14.4768 24.8499-10.0668Q29.0813-5.6569 37.1695-5.6569ZM39.6982-21.2089Q38.5589-21.2089 37.9464-21.8527Q37.334-22.4965 37.334-23.5912L37.334-46.7391Q37.334-47.8845 37.9464-48.506Q38.5589-49.1275 39.6982-49.1275L58.2976-49.1275Q59.7452-49.1275 60.8308-49.4907Q61.9165-49.854 62.9977-50.8758L84.4205-70.4986Q84.6055-70.6715 84.8558-70.785Q85.1061-70.8984 85.3655-70.8984Q86.2831-70.8984 86.2831-69.9301L86.2831-0.457728Q86.2831 0.590936 85.4013 0.590936Q84.877 0.590936 84.4266 0.122862L62.9977-19.4666Q61.0974-21.2089 58.2976-21.2089ZM124.692-4.69495Q127.588-2.91825 130.748-3.50304Q133.909-4.08784 135.775-6.6888Q139.974-12.4836 142.318-19.8648Q144.662-27.246 144.662-35.2697Q144.662-43.2934 142.318-50.682Q139.974-58.0706 135.775-63.8952Q133.909-66.4516 130.748-67.0364Q127.588-67.6212 124.692-65.8147Q121.565-63.8743 120.971-60.3509Q120.377-56.8275 123.008-52.5039Q125.33-48.9131 126.567-44.4858Q127.803-40.0585 127.803-35.2697Q127.803-30.5255 126.552-26.0908Q125.3-21.6561 123.008-18.0355Q120.377-13.7565 120.971-10.1959Q121.565-6.63531 124.692-4.69495ZM154.076 13.0884Q157.031 14.8354 160.303 14.1465Q163.575 13.4575 165.486 10.4996Q171.874 0.928733 175.358-10.852Q178.841-22.6327 178.841-35.2697Q178.841-47.9067 175.376-59.6993Q171.91-71.4919 165.486-81.039Q163.575-83.9969 160.303-84.6859Q157.031-85.3748 154.076-83.6278Q150.696-81.7321 150.251-78.0853Q149.806-74.4385 152.065-70.7842Q156.823-63.3225 159.44-54.1921Q162.058-45.0617 162.058-35.2697Q162.058-25.4777 159.411-16.3622Q156.763-7.2467 152.065 0.244798Q149.836 3.89905 150.266 7.52356Q150.696 11.1481 154.076 13.0884ZM183.407 30.9582Q186.466 32.7438 189.838 31.9508Q193.21 31.1577 195.07 28.0747Q200.746 19.0539 204.776 8.90307Q208.806-1.24773 210.951-12.3268Q213.096-23.4059 213.096-35.1358Q213.096-46.9104 210.936-57.9672Q208.776-69.0239 204.731-79.1599Q200.686-89.2958 195.07-98.3464Q193.21-101.459 189.838-102.26Q186.466-103.06 183.407-101.23Q180.161-99.3105 179.649-95.7692Q179.137-92.2279 181.3-88.6182Q185.947-81.0138 189.325-72.418Q192.704-63.8221 194.503-54.4735Q196.303-45.1249 196.303-35.1358Q196.303-25.2212 194.503-15.8353Q192.704-6.44953 189.325 2.14631Q185.947 10.7421 181.3 18.3466Q179.137 21.9562 179.649 25.4975Q180.161 29.0388 183.407 30.9582Z"/>
  </g>
  <g id="Bold-L" transform="matrix(1 0 0 1 2228.38 1556)">
   <path d="M34.7844-7.3019L52.613-7.3019Q53.3772-7.3019 53.9379-6.79243L80.8821 17.3109Q83.4631 19.5979 85.6753 20.7111Q87.8876 21.8243 90.561 21.8243Q94.4199 21.8243 97.006 19.2254Q99.5921 16.6265 99.5921 12.7449L99.5921-82.9527Q99.5921-86.8486 97.006-89.5471Q94.4199-92.2456 90.4871-92.2456Q87.9012-92.2456 85.7739-91.0918Q83.6467-89.9381 80.8821-87.496L53.9379-63.5015Q53.3473-62.9913 52.613-62.9913L34.7844-62.9913Q27.4609-62.9913 23.6781-59.0512Q19.8952-55.111 19.8952-47.3975L19.8952-22.816Q19.8952-15.1538 23.6781-11.2278Q27.4609-7.3019 34.7844-7.3019ZM36.5619-20.1984Q35.1475-20.1984 34.4533-20.9285Q33.7592-21.6586 33.7592-23.0438L33.7592-47.2209Q33.7592-48.6496 34.4533-49.3651Q35.1475-50.0805 36.5619-50.0805L55.6683-50.0805Q57.0633-50.0805 58.1227-50.4243Q59.182-50.7681 60.2787-51.7908L83.8472-73.327Q84.0649-73.5163 84.3275-73.6579Q84.5901-73.7995 84.8741-73.7995Q85.7936-73.7995 85.7936-72.8366L85.7936 2.39333Q85.7936 3.43669 84.9253 3.43669Q84.3773 3.43669 83.8614 2.91225L60.2787-18.5024Q58.3856-20.1984 55.6683-20.1984ZM121.532-6.05954Q123.905-4.57243 126.551-5.06327Q129.197-5.5541 130.795-7.78357Q134.793-13.2228 137.058-20.3517Q139.323-27.4806 139.323-35.2697Q139.323-43.0588 137.058-50.1838Q134.793-57.3088 130.795-62.785Q129.197-64.9853 126.551-65.4761Q123.905-65.967 121.532-64.4429Q118.93-62.7786 118.461-59.8584Q117.992-56.9383 120.154-53.5259Q122.699-49.7548 124.046-45.0816Q125.393-40.4083 125.393-35.2697Q125.393-30.1603 124.028-25.4909Q122.662-20.8216 120.154-17.0136Q117.992-13.6303 118.461-10.6771Q118.93-7.72382 121.532-6.05954ZM148.554 11.2713Q151.001 12.774 153.72 12.2063Q156.439 11.6385 158.066 9.17545Q164.332 0.0936695 167.802-11.4264Q171.273-22.9464 171.273-35.2697Q171.273-47.593 167.828-59.1244Q164.383-70.6558 158.066-79.7149Q156.439-82.1779 153.72-82.7457Q151.001-83.3134 148.554-81.8107Q145.822-80.2282 145.459-77.25Q145.096-74.2717 146.979-71.2973Q151.96-63.8452 154.685-54.5544Q157.409-45.2636 157.409-35.2697Q157.409-25.2758 154.648-16.0035Q151.886-6.73116 146.979 0.75792Q145.133 3.73229 145.478 6.69596Q145.822 9.65963 148.554 11.2713ZM175.656 28.7494Q178.154 30.2671 180.961 29.6224Q183.767 28.9778 185.351 26.4051Q190.94 17.737 194.956 7.90923Q198.972-1.91848 201.13-12.7386Q203.289-23.5587 203.289-35.1821Q203.289-46.8347 201.112-57.6402Q198.935-68.4457 194.9-78.2549Q190.866-88.0641 185.351-96.7693Q183.767-99.379 180.961-100.02Q178.154-100.66 175.656-99.1136Q173.011-97.5083 172.605-94.5889Q172.198-91.6694 174.009-88.7242Q178.717-81.2065 182.198-72.6755Q185.68-64.1445 187.564-54.757Q189.447-45.3696 189.447-35.1821Q189.447-25.0607 187.564-15.6402Q185.68-6.21973 182.198 2.3113Q178.717 10.8423 174.009 18.36Q172.198 21.3052 172.605 24.2247Q173.011 27.1442 175.656 28.7494Z"/>
  </g>
  <g id="Semibold-L" transform="matrix(1 0 0 1 1935.29 1556)">
   <path d="M33.1401-8.43595L51.2006-8.43595Q52.0475-8.43595 52.674-7.87134L80.3254 16.8621Q82.6871 18.9631 84.7253 19.9921Q86.7635 21.0211 89.2197 21.0211Q92.6793 21.0211 94.9759 18.6969Q97.2726 16.3727 97.2726 12.8911L97.2726-83.0796Q97.2726-86.5812 94.9759-89.0202Q92.6793-91.4593 89.1358-91.4593Q86.7353-91.4593 84.8027-90.366Q82.8701-89.2727 80.3254-87.0286L52.674-62.3668Q52.0501-61.8234 51.2006-61.8234L33.1401-61.8234Q26.3438-61.8234 22.8702-58.2112Q19.3966-54.5991 19.3966-47.4148L19.3966-22.743Q19.3966-15.6205 22.8702-12.0282Q26.3438-8.43595 33.1401-8.43595ZM34.3998-19.5019Q32.7957-19.5019 32.0452-20.2914Q31.2948-21.0809 31.2948-22.6665L31.2948-47.5531Q31.2948-49.1771 32.0452-49.9574Q32.7957-50.7376 34.3998-50.7376L53.8556-50.7376Q55.2144-50.7376 56.2557-51.0679Q57.297-51.3982 58.4043-52.4216L83.4519-75.2769Q83.6923-75.4775 83.9633-75.6386Q84.2344-75.7996 84.5353-75.7996Q85.4561-75.7996 85.4561-74.8403L85.4561 4.35884Q85.4561 5.39854 84.5971 5.39854Q84.0329 5.39854 83.4718 4.83523L58.4043-17.8377Q56.5162-19.5019 53.8556-19.5019ZM119.353-7.00029Q121.365-5.71282 123.657-6.13888Q125.948-6.56494 127.362-8.5383Q131.222-13.7324 133.432-20.6874Q135.642-27.6424 135.642-35.2697Q135.642-42.897 133.432-49.8403Q131.222-56.7836 127.362-62.0197Q125.948-63.9745 123.657-64.4005Q121.365-64.8266 119.353-63.4971Q117.114-62.0232 116.731-59.5189Q116.348-57.0147 118.186-54.2304Q120.885-50.3351 122.308-45.4923Q123.732-40.6495 123.732-35.2697Q123.732-29.9085 122.287-25.0774Q120.843-20.2462 118.186-16.309Q116.348-13.5433 116.731-11.0088Q117.114-8.47423 119.353-7.00029ZM144.748 10.0187Q146.844 11.3529 149.182 10.8687Q151.52 10.3845 152.952 8.2626Q159.132-0.482018 162.593-11.8224Q166.055-23.1627 166.055-35.2697Q166.055-47.3767 162.624-58.7281Q159.193-70.0795 152.952-78.802Q151.52-80.924 149.182-81.4081Q146.844-81.8923 144.748-80.5581Q142.462-79.1915 142.156-76.6741Q141.85-74.1567 143.474-71.6511Q148.608-64.2056 151.406-54.8042Q154.205-45.4028 154.205-35.2697Q154.205-25.1366 151.364-15.7562Q148.524-6.37575 143.474 1.11166Q141.892 3.61733 142.177 6.12542Q142.462 8.6335 144.748 10.0187ZM170.313 27.2267Q172.423 28.5597 174.84 28.0173Q177.258 27.475 178.652 25.2541Q184.179 16.8291 188.185 7.22409Q192.192-2.3809 194.36-13.0224Q196.528-23.664 196.528-35.214Q196.528-46.7826 194.339-57.4148Q192.15-68.0471 188.122-77.6311Q184.095-87.2151 178.652-95.682Q177.258-97.9449 174.84-98.4756Q172.423-99.0062 170.313-97.6547Q168.083-96.266 167.749-93.7751Q167.415-91.2843 168.982-88.7972Q173.733-81.3394 177.285-72.853Q180.838-64.3667 182.779-54.9525Q184.721-45.5384 184.721-35.214Q184.721-24.9501 182.779-15.5057Q180.838-6.0613 177.285 2.42505Q173.733 10.9114 168.982 18.3693Q167.415 20.8564 167.749 23.3472Q168.083 25.838 170.313 27.2267Z"/>
  </g>
  <g id="Medium-L" transform="matrix(1 0 0 1 1641.33 1556)">
   <path d="M31.8934-9.29584L50.1297-9.29584Q51.0393-9.29584 51.7156-8.68942L79.9033 16.5218Q82.0988 18.4817 84.005 19.4469Q85.9112 20.4121 88.2027 20.4121Q91.3595 20.4121 93.4366 18.2962Q95.5138 16.1803 95.5138 13.0019L95.5138-83.1758Q95.5138-86.3784 93.4366-88.6208Q91.3595-90.8631 88.1112-90.8631Q85.8512-90.8631 84.0662-89.8157Q82.2812-88.7682 79.9033-86.6742L51.7156-61.5064Q51.0666-60.9378 50.1297-60.9378L31.8934-60.9378Q25.4968-60.9378 22.2577-57.5744Q19.0186-54.211 19.0186-47.4279L19.0186-22.6876Q19.0186-15.9744 22.2577-12.6351Q25.4968-9.29584 31.8934-9.29584ZM32.7604-18.9737Q31.0124-18.9737 30.2193-19.8083Q29.4262-20.6429 29.4262-22.3803L29.4262-47.805Q29.4262-49.5771 30.2193-50.4064Q31.0124-51.2358 32.7604-51.2358L52.4812-51.2358Q53.8125-51.2358 54.8401-51.5559Q55.8676-51.876 56.983-52.8999L83.1522-76.7554Q83.4097-76.9646 83.6872-77.1403Q83.9647-77.3161 84.2784-77.3161Q85.2002-77.3161 85.2002-76.3596L85.2002 5.84916Q85.2002 6.88609 84.3483 6.88609Q83.7717 6.88609 83.1764 6.29332L56.983-17.3337Q55.0986-18.9737 52.4812-18.9737ZM117.701-7.7136Q119.44-6.5775 121.463-6.95445Q123.485-7.3314 124.759-9.11057Q128.514-14.1187 130.683-20.9419Q132.851-27.7651 132.851-35.2697Q132.851-42.7743 130.683-49.5799Q128.514-56.3854 124.759-61.4393Q123.485-63.208 121.463-63.585Q119.44-63.9619 117.701-62.7801Q115.736-61.4504 115.419-59.2615Q115.101-57.0726 116.694-54.7646Q119.51-50.7751 120.991-45.8037Q122.472-40.8323 122.472-35.2697Q122.472-29.7176 120.968-24.7638Q119.464-19.81 116.694-15.7748Q115.101-13.4773 115.419-11.2603Q115.736-9.04322 117.701-7.7136ZM141.861 9.06884Q143.692 10.2754 145.74 9.85456Q147.789 9.43371 149.073 7.57043Q155.189-0.918529 158.644-12.1226Q162.098-23.3267 162.098-35.2697Q162.098-47.2127 158.679-58.4276Q155.259-69.6425 149.073-78.1098Q147.789-79.9731 145.74-80.394Q143.692-80.8148 141.861-79.6082Q139.914-78.4054 139.651-76.2375Q139.388-74.0696 140.815-71.9193Q146.066-64.4789 148.92-54.9936Q151.775-45.5083 151.775-35.2697Q151.775-25.0311 148.875-15.5687Q145.974-6.10626 140.815 1.37989Q139.434 3.53017 139.674 5.69281Q139.914 7.85545 141.861 9.06884ZM166.261 26.0721Q168.078 27.265 170.2 26.8003Q172.322 26.3355 173.572 24.3813Q179.053 16.1407 183.052 6.70459Q187.051-2.73152 189.226-13.2377Q191.401-23.7438 191.401-35.2382Q191.401-46.743 189.203-57.2439Q187.005-67.7448 182.983-77.158Q178.961-86.5713 173.572-94.8576Q172.322-96.8576 170.2-97.3047Q168.078-97.7519 166.261-96.5484Q164.346-95.3239 164.067-93.1582Q163.788-90.9924 165.17-88.8526Q169.953-81.4401 173.56-72.9876Q177.166-64.5351 179.152-55.1007Q181.137-45.6663 181.137-35.2382Q181.137-24.8663 179.152-15.4037Q177.166-5.94118 173.56 2.51129Q169.953 10.9638 165.17 18.3763Q163.788 20.5161 164.067 22.6818Q164.346 24.8476 166.261 26.0721Z"/>
  </g>
  <g id="Regular-L" transform="matrix(1 0 0 1 1348.2 1556)">
   <path d="M30.2672-10.4174L48.7328-10.4174Q49.7242-10.4174 50.4656-9.75648L79.3527 16.078Q81.3313 17.8539 83.0654 18.7358Q84.7995 19.6177 86.8761 19.6177Q89.6381 19.6177 91.4289 17.7735Q93.2197 15.9293 93.2197 13.1464L93.2197-83.3013Q93.2197-86.1139 91.4289-88.0997Q89.6381-90.0855 86.7748-90.0855Q84.6981-90.0855 83.1056-89.0979Q81.5131-88.1102 79.3527-86.212L50.4656-60.3842Q49.7837-59.7827 48.7328-59.7827L30.2672-59.7827Q24.392-59.7827 21.4587-56.7437Q18.5255-53.7047 18.5255-47.4449L18.5255-22.6153Q18.5255-16.4359 21.4587-13.4267Q24.392-10.4174 30.2672-10.4174ZM30.622-18.2848Q28.6865-18.2848 27.8377-19.1782Q26.9888-20.0716 26.9888-22.0071L26.9888-48.1335Q26.9888-50.0988 27.8377-50.9922Q28.6865-51.8856 30.622-51.8856L50.6884-51.8856Q51.9839-51.8856 52.9936-52.1924Q54.0032-52.4993 55.1291-53.5238L82.7613-78.6839Q83.0411-78.9042 83.327-79.0992Q83.6128-79.2942 83.9433-79.2942Q84.8665-79.2942 84.8665-78.3413L84.8665 7.79307Q84.8665 8.82638 84.0237 8.82638Q83.4311 8.82638 82.7911 8.19517L55.1291-16.6764Q53.2497-18.2848 50.6884-18.2848ZM115.546-8.64401Q116.929-7.70535 118.601-8.01824Q120.273-8.33112 121.363-9.85701Q124.982-14.6227 127.097-21.2739Q129.211-27.9251 129.211-35.2697Q129.211-42.6143 127.097-49.2402Q124.982-55.866 121.363-60.6824Q120.273-62.2083 118.601-62.5212Q116.929-62.834 115.546-61.8447Q113.94-60.7033 113.707-58.9257Q113.475-57.1481 114.748-55.4614Q117.716-51.3491 119.272-46.21Q120.828-41.0708 120.828-35.2697Q120.828-29.4686 119.247-24.3548Q117.666-19.241 114.748-15.078Q113.475-13.3913 113.707-11.5883Q113.94-9.78538 115.546-8.64401ZM138.096 7.82993Q139.58 8.86995 141.252 8.53172Q142.924 8.1935 144.014 6.66761Q150.046-1.48789 153.492-12.5142Q156.938-23.5405 156.938-35.2697Q156.938-46.9989 153.532-58.0357Q150.126-69.0725 144.014-77.207Q142.924-78.7329 141.252-79.0711Q139.58-79.4093 138.096-78.3693Q136.591-77.38 136.384-75.6679Q136.177-73.9559 137.348-72.2691Q142.75-64.8353 145.678-55.2406Q148.606-45.646 148.606-35.2697Q148.606-24.8934 145.627-15.3241Q142.649-5.75475 137.348 1.72974Q136.228 3.41647 136.409 5.12853Q136.591 6.8406 138.096 7.82993ZM160.976 24.5661Q162.41 25.5763 164.147 25.2128Q165.885 24.8492 166.945 23.2429Q172.367 15.2428 176.356 6.02697Q180.346-3.18886 182.53-13.5184Q184.715-23.848 184.715-35.2697Q184.715-46.6914 182.505-57.021Q180.295-67.3505 176.28-76.541Q172.265-85.7315 166.945-93.7823Q165.885-95.4393 164.147-95.7775Q162.41-96.1158 160.976-95.1055Q159.471-94.0952 159.264-92.3534Q159.057-90.6116 160.199-88.9249Q165.024-81.5715 168.7-73.1632Q172.377-64.7549 174.42-55.2941Q176.463-45.8332 176.463-35.2697Q176.463-24.7569 174.42-15.2707Q172.377-5.78449 168.7 2.62379Q165.024 11.0321 160.199 18.3855Q159.057 20.0722 159.264 21.814Q159.471 23.5558 160.976 24.5661Z"/>
  </g>
  <g id="Light-L" transform="matrix(1 0 0 1 1054.41 1556)">
   <path d="M27.8456-11.5256L46.8448-11.5256Q48.0209-11.5256 48.8854-10.7415L78.4497 15.606Q80.0179 17.0536 81.5057 17.8226Q82.9935 18.5916 84.7829 18.5916Q87.1754 18.5916 88.6481 16.9732Q90.1209 15.3547 90.1209 12.9823L90.1209-83.2603Q90.1209-85.683 88.6481-87.402Q87.1754-89.121 84.7226-89.121Q82.9332-89.121 81.5459-88.2565Q80.1587-87.3919 78.4497-85.9041L48.8854-59.2349Q48.1214-58.5514 46.8448-58.5514L27.8456-58.5514Q22.6886-58.5514 20.1453-55.9126Q17.602-53.2738 17.602-47.8554L17.602-22.0407Q17.602-16.7027 20.1453-14.1142Q22.6886-11.5256 27.8456-11.5256ZM28.0567-17.6075Q25.8955-17.6075 25.0159-18.5625Q24.1363-19.5175 24.1363-21.6788L24.1363-48.2977Q24.1363-50.5092 25.0159-51.4642Q25.8955-52.4192 28.0567-52.4192L48.0411-52.4192Q49.3982-52.4192 50.4386-52.7158Q51.479-53.0123 52.6049-54.0779L81.3248-80.2846Q81.6867-80.546 82.0033-80.7922Q82.32-81.0385 82.712-81.0385Q83.7172-81.0385 83.7172-79.983L83.7172 9.37326Q83.7172 10.5092 82.7924 10.5092Q82.1792 10.5092 81.375 9.77536L52.6049-15.9991Q50.705-17.6075 48.0411-17.6075ZM113.925-8.97236Q115.041-8.2184 116.313-8.46972Q117.584-8.72104 118.429-9.85701Q122.048-14.5817 124.234-21.161Q126.42-27.7404 126.42-35.2697Q126.42-42.799 124.234-49.3633Q122.048-55.9276 118.429-60.6824Q117.584-61.8184 116.313-62.0697Q115.041-62.321 113.925-61.5369Q112.709-60.6623 112.538-59.2951Q112.367-57.9279 113.352-56.6311Q116.649-52.0673 118.308-46.7948Q119.966-41.5223 119.966-35.2697Q119.966-29.0171 118.293-23.7597Q116.619-18.5022 113.352-13.9083Q112.367-12.6115 112.538-11.2292Q112.709-9.84695 113.925-8.97236ZM135.387 7.60419Q136.563 8.41846 137.835 8.15206Q139.107 7.88567 139.951 6.7497Q145.983-1.26215 149.531-12.35Q153.08-23.4379 153.08-35.2697Q153.08-47.1015 149.571-58.1793Q146.063-69.2572 139.951-77.2891Q139.107-78.4251 137.835-78.6915Q136.563-78.9579 135.387-78.1436Q134.231-77.3595 134.075-76.0476Q133.919-74.7357 134.844-73.4389Q140.534-65.7588 143.595-55.8974Q146.656-46.0359 146.656-35.2697Q146.656-24.5035 143.565-14.6571Q140.474-4.81074 134.844 2.8995Q133.95 4.1963 134.09 5.50819Q134.231 6.82008 135.387 7.60419ZM157.241 24.4019Q158.387 25.1659 159.714 24.8844Q161.041 24.603 161.836 23.3866Q167.113 15.3044 171.164 6.22193Q175.215-2.8605 177.492-13.1593Q179.769-23.4581 179.769-35.2697Q179.769-47.0813 177.477-57.3801Q175.185-67.6789 171.119-76.7463Q167.053-85.8136 161.836-93.926Q161.041-95.1725 159.714-95.4389Q158.387-95.7053 157.241-94.9413Q156.085-94.1773 155.93-92.8151Q155.774-91.453 156.648-90.1562Q161.473-82.5565 165.273-74.1175Q169.073-65.6784 171.249-56.0431Q173.426-46.4078 173.426-35.2697Q173.426-24.1618 171.249-14.5114Q169.073-4.861 165.273 3.57806Q161.473 12.0171 156.648 19.6168Q155.774 20.9136 155.93 22.2757Q156.085 23.6379 157.241 24.4019Z"/>
  </g>
  <g id="Thin-L" transform="matrix(1 0 0 1 761.563 1556)">
   <path d="M24.6429-12.9913L44.3477-12.9913Q45.7681-12.9913 46.7955-12.0443L77.2555 14.9817Q78.2809 15.995 79.4429 16.6148Q80.605 17.2345 82.0144 17.2345Q83.9184 17.2345 84.9704 15.9146Q86.0224 14.5947 86.0224 12.7651L86.0224-83.206Q86.0224-85.113 84.9704-86.4792Q83.9184-87.8453 82.0084-87.8453Q80.599-87.8453 79.4832-87.1436Q78.3673-86.442 77.2555-85.497L46.7955-57.715Q45.9229-56.9229 44.3477-56.9229L24.6429-56.9229Q20.4358-56.9229 18.4082-54.8133Q16.3806-52.7038 16.3806-48.3982L16.3806-21.2807Q16.3806-17.0556 18.4082-15.0234Q20.4358-12.9913 24.6429-12.9913ZM24.664-16.7119Q22.2042-16.7119 21.2839-17.7483Q20.3636-18.7847 20.3636-21.2445L20.3636-48.5148Q20.3636-51.0521 21.2839-52.0885Q22.2042-53.1249 24.664-53.1249L44.5398-53.1249Q45.9783-53.1249 47.0594-53.4079Q48.1406-53.6908 49.2665-54.8107L79.4248-82.4017Q79.8953-82.7173 80.2527-83.0315Q80.61-83.3456 81.0835-83.3456Q82.1973-83.3456 82.1973-82.1544L82.1973 11.4632Q82.1973 12.7348 81.1639 12.7348Q80.5236 12.7348 79.5022 11.8653L49.2665-15.1035Q47.3394-16.7119 44.5398-16.7119ZM111.781-9.40663Q112.544-8.89695 113.286-9.06684Q114.029-9.23674 114.547-9.85701Q118.166-14.5274 120.448-21.0118Q122.729-27.4961 122.729-35.2697Q122.729-43.0433 120.448-49.5261Q118.166-56.009 114.547-60.6824Q114.029-61.3027 113.286-61.4726Q112.544-61.6425 111.781-61.1298Q111.08-60.608 110.991-59.7837Q110.901-58.9593 111.506-58.1782Q115.238-53.0173 117.032-47.5684Q118.827-42.1194 118.827-35.2697Q118.827-28.42 117.031-22.9725Q115.235-17.5251 111.506-12.3612Q110.901-11.5801 110.991-10.7542Q111.08-9.92837 111.781-9.40663ZM131.804 7.30563Q132.573 7.82134 133.316 7.64994Q134.058 7.47854 134.577 6.85827Q140.609-0.963587 144.293-12.1329Q147.977-23.3022 147.977-35.2697Q147.977-47.2372 144.333-58.3693Q140.689-69.5014 134.577-77.3977Q134.058-78.0179 133.316-78.1893Q132.573-78.3607 131.804-77.845Q131.11-77.3323 131.022-76.5497Q130.934-75.7671 131.533-74.986Q137.603-66.9802 140.84-56.7659Q144.077-46.5516 144.077-35.2697Q144.077-23.9878 140.837-13.775Q137.597-3.56221 131.533 4.44659Q130.937 5.2277 131.023 6.01032Q131.11 6.79293 131.804 7.30563ZM152.302 24.1848Q153.068 24.6231 153.852 24.4502Q154.636 24.2772 155.077 23.5766Q160.165 15.3858 164.297 6.47978Q168.43-2.42623 170.829-12.6843Q173.228-22.9424 173.228-35.2697Q173.228-47.597 170.827-57.8551Q168.427-68.1132 164.293-77.0177Q160.159-85.9222 155.077-94.116Q154.636-94.8197 153.852-94.9911Q153.068-95.1625 152.302-94.7242Q151.607-94.2859 151.519-93.4258Q151.431-92.5658 151.953-91.7847Q156.778-83.8593 160.741-75.3796Q164.703-66.8998 167.056-57.0338Q169.409-47.1678 169.409-35.2697Q169.409-23.3746 167.056-13.5071Q164.703-3.63962 160.741 4.84016Q156.778 13.3199 151.953 21.2453Q151.431 22.0264 151.519 22.8864Q151.607 23.7465 152.302 24.1848Z"/>
  </g>
  <g id="Ultralight-L" transform="matrix(1 0 0 1 466.83 1556)">
   <path d="M23.0024-13.742L43.0687-13.742Q44.6143-13.742 45.725-12.7116L76.6438 14.662Q77.3911 15.4529 78.3864 15.9962Q79.3817 16.5394 80.5964 16.5394Q82.2502 16.5394 83.0867 15.3725Q83.9232 14.2055 83.9232 12.6539L83.9232-83.1782Q83.9232-84.8211 83.0867-86.0065Q82.2502-87.1919 80.6182-87.1919Q79.4034-87.1919 78.4266-86.5737Q77.4498-85.9554 76.6438-85.2885L45.725-56.9365Q44.7969-56.0887 43.0687-56.0887L23.0024-56.0887Q19.282-56.0887 17.5185-54.2503Q15.755-52.4118 15.755-48.6763L15.755-20.8914Q15.755-17.2363 17.5185-15.4891Q19.282-13.742 23.0024-13.742ZM22.9262-16.2531Q20.3135-16.2531 19.3723-17.3312Q18.4312-18.4093 18.4312-21.0221L18.4312-48.6261Q18.4312-51.3301 19.3723-52.4082Q20.3135-53.4863 22.9262-53.4863L42.7464-53.4863Q44.2266-53.4863 45.3286-53.7624Q46.4306-54.0384 47.5565-55.186L78.4517-83.486Q78.9778-83.8295 79.356-84.1784Q79.7342-84.5273 80.2494-84.5273Q81.4188-84.5273 81.4188-83.2665L81.4188 12.5336Q81.4188 13.8748 80.3298 13.8748Q79.6755 13.8748 78.543 12.9357L47.5565-14.6447Q45.6155-16.2531 42.7464-16.2531ZM110.683-9.62906Q111.265-9.2445 111.736-9.37269Q112.207-9.50087 112.559-9.85701Q116.178-14.4996 118.508-20.9353Q120.838-27.371 120.838-35.2697Q120.838-43.1684 118.508-49.6095Q116.178-56.0507 112.559-60.6824Q112.207-61.0385 111.736-61.1667Q111.265-61.2949 110.683-60.9212Q110.246-60.5802 110.198-60.0339Q110.15-59.4876 110.561-58.9706Q114.515-53.5039 116.379-47.9646Q118.243-42.4253 118.243-35.2697Q118.243-28.1141 116.384-22.5694Q114.526-17.0246 110.561-11.5688Q110.15-11.0518 110.198-10.5109Q110.246-9.97008 110.683-9.62906ZM129.969 7.15271Q130.53 7.5155 131.001 7.39275Q131.473 7.27001 131.824 6.91388Q137.856-0.810665 141.61-12.0217Q145.363-23.2327 145.363-35.2697Q145.363-47.3067 141.65-58.4666Q137.936-69.6265 131.824-77.4533Q131.473-77.8094 131.001-77.9322Q130.53-78.0549 129.969-77.6921Q129.511-77.3184 129.458-76.8069Q129.405-76.2954 129.837-75.7784Q136.101-67.6058 139.429-57.2108Q142.757-46.8157 142.757-35.2697Q142.757-23.7237 139.44-13.3232Q136.123-2.92272 129.837 5.239Q129.394 5.75597 129.452 6.2675Q129.511 6.77903 129.969 7.15271ZM149.771 24.0735Q150.343 24.345 150.849 24.2277Q151.355 24.1104 151.616 23.6739Q156.606 15.4275 160.78 6.61185Q164.954-2.2038 167.416-12.441Q169.878-22.6782 169.878-35.2697Q169.878-47.8612 167.421-58.0984Q164.965-68.3356 160.796-77.1567Q156.628-85.9778 151.616-94.2133Q151.355-94.6389 150.849-94.7617Q150.343-94.8844 149.771-94.6129Q149.313-94.3415 149.26-93.7386Q149.207-93.1358 149.548-92.6188Q154.373-84.5266 158.419-76.026Q162.465-67.5254 164.908-57.5412Q167.351-47.557 167.351-35.2697Q167.351-22.9715 164.908-12.9928Q162.465-3.01403 158.419 5.4866Q154.373 13.9872 149.548 22.0794Q149.207 22.5964 149.26 23.1992Q149.313 23.8021 149.771 24.0735Z"/>
  </g>
  <g id="Black-M" transform="matrix(1 0 0 1 2836.17 1126)">
   <path d="M31.4567-10.2925L44.6991-10.2925Q45.0858-10.2925 45.3488-10.0346L64.1608 6.77038Q66.7316 9.03365 68.9261 10.1308Q71.1207 11.2279 73.7986 11.2279Q77.9573 11.2279 80.7914 8.40038Q83.6255 5.57288 83.6255 1.40839L83.6255-71.7772Q83.6255-75.9414 80.7914-78.7825Q77.9573-81.6236 73.7876-81.6236Q71.2809-81.6236 69.0715-80.5757Q66.862-79.5277 64.1608-77.1334L45.3488-60.4216Q44.971-60.1061 44.6991-60.1061L31.4567-60.1061Q24.3179-60.1061 20.517-56.1259Q16.7162-52.1458 16.7162-44.7403L16.7162-25.6536Q16.7162-18.2533 20.517-14.2729Q24.3179-10.2925 31.4567-10.2925ZM34.4643-25.6127Q33.9068-25.6127 33.5411-26.0064Q33.1754-26.4002 33.1754-26.9007L33.1754-43.4984Q33.1754-44.0557 33.5411-44.4209Q33.9068-44.7861 34.4643-44.7861L48.1057-44.7861Q49.3248-44.7861 50.2147-45.0926Q51.1047-45.3991 51.9199-46.2032L65.7528-58.9669Q65.8761-59.0909 66.0626-59.1551Q66.2491-59.2192 66.4351-59.2192Q67.1711-59.2192 67.1711-58.4264L67.1711-11.9175Q67.1711-11.0624 66.4403-11.0624Q66.0615-11.0624 65.7524-11.3776L51.9199-24.1953Q50.4301-25.6127 48.1057-25.6127ZM100.669-9.69139Q103.586-7.95473 106.649-8.5241Q109.713-9.09347 111.466-11.5185Q115.012-16.5135 116.968-22.5761Q118.925-28.6386 118.925-35.2606Q118.925-41.8826 116.968-47.971Q115.012-54.0593 111.466-59.0599Q109.713-61.4278 106.649-61.9972Q103.586-62.5666 100.669-60.8244Q97.6111-59.0086 96.9898-55.5373Q96.3686-52.0659 98.9945-47.5179Q100.578-44.8455 101.41-41.7294Q102.242-38.6134 102.242-35.2606Q102.242-31.965 101.408-28.8231Q100.573-25.6813 98.9945-23.0034Q96.3686-18.5124 96.9898-15.0098Q97.6111-11.5072 100.669-9.69139ZM126.514 4.78203Q129.441 6.41552 132.648 5.7292Q135.854 5.04288 137.664 2.16105Q142.794-5.91946 145.547-15.4483Q148.3-24.9771 148.3-35.2606Q148.3-45.5442 145.549-55.0759Q142.799-64.6076 137.664-72.6823Q135.854-75.5642 132.648-76.2505Q129.441-76.9368 126.514-75.3033Q123.067-73.447 122.62-69.7812Q122.173-66.1154 124.388-62.4238Q127.847-56.5449 129.763-49.6148Q131.68-42.6847 131.68-35.2606Q131.68-27.8365 129.758-20.9092Q127.836-13.9819 124.388-8.09752Q122.178-4.40593 122.623-0.768684Q123.067 2.86857 126.514 4.78203ZM152.145 19.2198Q155.238 20.9107 158.535 20.1074Q161.833 19.3041 163.586 16.3029Q168.064 8.77086 171.228 0.480051Q174.391-7.81076 176.064-16.7621Q177.737-25.7134 177.737-35.0894Q177.737-44.5224 176.061-53.4452Q174.386-62.3679 171.219-70.656Q168.053-78.9441 163.586-86.4816Q161.833-89.4884 158.535-90.3174Q155.238-91.1465 152.145-89.3985Q148.869-87.5363 148.336-84.0136Q147.804-80.4908 149.905-76.8563Q153.415-70.7543 155.923-63.9896Q158.432-57.2249 159.749-49.9794Q161.066-42.7339 161.066-35.0894Q161.066-27.5074 159.749-20.2306Q158.432-12.9538 155.923-6.18912Q153.415 0.575592 149.905 6.6776Q147.804 10.3121 148.336 13.8349Q148.869 17.3576 152.145 19.2198Z"/>
  </g>
  <g id="Heavy-M" transform="matrix(1 0 0 1 2543.43 1126)">
   <path d="M29.8927-11.4919L43.3143-11.4919Q43.7662-11.4919 44.0861-11.1907L63.6491 6.3029Q66.0301 8.40091 68.0569 9.41553Q70.0837 10.4302 72.548 10.4302Q76.2799 10.4302 78.8153 7.90239Q81.3508 5.37462 81.3508 1.62894L81.3508-71.9469Q81.3508-75.695 78.8153-78.2646Q76.2799-80.8342 72.5155-80.8342Q70.1821-80.8342 68.1753-79.8364Q66.1685-78.8386 63.6491-76.607L44.0861-59.2301Q43.6838-58.8901 43.3143-58.8901L29.8927-58.8901Q23.2678-58.8901 19.7751-55.2398Q16.2825-51.5895 16.2825-44.674L16.2825-25.6844Q16.2825-18.7876 19.7751-15.1398Q23.2678-11.4919 29.8927-11.4919ZM32.2746-24.8752Q31.5251-24.8752 31.0947-25.3311Q30.6643-25.787 30.6643-26.4929L30.6643-43.8843Q30.6643-44.6362 31.0947-45.0703Q31.5251-45.5044 32.2746-45.5044L46.3766-45.5044Q47.5366-45.5044 48.397-45.796Q49.2574-46.0876 50.086-46.8838L65.5603-61.0948Q65.6947-61.2243 65.8853-61.302Q66.0759-61.3798 66.2701-61.3798Q66.9902-61.3798 66.9902-60.6137L66.9902-9.76542Q66.9902-8.93698 66.2888-8.93698Q65.8938-8.93698 65.5627-9.27941L50.086-23.4982Q48.6069-24.8752 46.3766-24.8752ZM98.2558-10.8134Q100.773-9.29009 103.473-9.79057Q106.173-10.2911 107.745-12.4752Q111.116-17.1683 112.987-23.0258Q114.859-28.8834 114.859-35.2606Q114.859-41.6379 112.987-47.5091Q111.116-53.3804 107.745-58.0897Q106.173-60.2302 103.473-60.7307Q100.773-61.2312 98.2558-59.6917Q95.5732-58.0599 95.0477-55.0275Q94.5223-51.9952 96.7998-48.1597Q98.5086-45.4268 99.4149-42.1245Q100.321-38.8221 100.321-35.2606Q100.321-31.7428 99.4067-28.4268Q98.4924-25.1107 96.7998-22.3616Q94.5223-18.5697 95.0477-15.5074Q95.5732-12.4452 98.2558-10.8134ZM122.27 3.24261Q124.82 4.71111 127.629 4.11527Q130.438 3.51942 132.054 0.986275Q137.075-6.6977 139.795-15.9855Q142.514-25.2732 142.514-35.2606Q142.514-45.248 139.804-54.5427Q137.094-63.8374 132.054-71.5076Q130.438-74.0407 127.629-74.6366Q124.82-75.2324 122.27-73.7639Q119.315-72.1372 118.928-68.9696Q118.542-65.8021 120.482-62.6209Q124.073-56.8034 126.055-49.7904Q128.036-42.7774 128.036-35.2606Q128.036-27.7439 126.039-20.739Q124.041-13.7341 120.482-7.90039Q118.558-4.71918 118.936-1.57347Q119.315 1.57224 122.27 3.24261ZM146.174 17.3248Q148.838 18.8345 151.73 18.1433Q154.622 17.4521 156.191 14.813Q160.623 7.60681 163.761-0.430325Q166.899-8.46746 168.564-17.199Q170.23-25.9306 170.23-35.1298Q170.23-44.3726 168.556-53.0823Q166.883-61.7921 163.737-69.8211Q160.59-77.8501 156.191-85.0725Q154.622-87.7279 151.73-88.4328Q148.838-89.1377 146.174-87.5844Q143.349-85.9438 142.897-82.8829Q142.445-79.822 144.295-76.6844Q147.859-70.7111 150.431-64.0096Q153.004-57.3082 154.365-50.0663Q155.727-42.8243 155.727-35.1298Q155.727-27.4951 154.365-20.2232Q153.004-12.9514 150.431-6.24992Q147.859 0.451539 144.295 6.42485Q142.445 9.56244 142.897 12.6233Q143.349 15.6843 146.174 17.3248Z"/>
  </g>
  <g id="Bold-M" transform="matrix(1 0 0 1 2251.16 1126)">
   <path d="M28.143-12.8337L41.7652-12.8337Q42.2899-12.8337 42.6736-12.4839L63.0766 5.77996Q65.2454 7.6931 67.0846 8.61544Q68.9237 9.53778 71.149 9.53778Q74.4035 9.53778 76.6049 7.34531Q78.8063 5.15285 78.8063 1.87566L78.8063-72.1367Q78.8063-75.4194 76.6049-77.6852Q74.4035-79.951 71.0926-79.951Q68.9529-79.951 67.1728-79.0094Q65.3927-78.0677 63.0766-76.0183L42.6736-57.8972Q42.2439-57.5298 41.7652-57.5298L28.143-57.5298Q22.093-57.5298 18.9452-54.2485Q15.7974-50.9672 15.7974-44.5999L15.7974-25.7189Q15.7974-19.3853 18.9452-16.1095Q22.093-12.8337 28.143-12.8337ZM29.8251-24.0501Q28.8609-24.0501 28.358-24.5756Q27.8552-25.101 27.8552-26.0367L27.8552-44.3158Q27.8552-45.2856 28.358-45.7967Q28.8609-46.3079 29.8251-46.3079L44.4424-46.3079Q45.5362-46.3079 46.3635-46.5829Q47.1908-46.8579 48.0346-47.6451L65.345-63.4751Q65.4917-63.6107 65.6869-63.7037Q65.8821-63.7967 66.0856-63.7967Q66.7878-63.7967 66.7878-63.0604L66.7878-7.35803Q66.7878-6.55943 66.1193-6.55943Q65.7062-6.55943 65.3505-6.93231L48.0346-22.7184Q46.5675-24.0501 44.4424-24.0501ZM95.5559-12.0684Q97.6256-10.7839 99.9191-11.2073Q102.213-11.6307 103.582-13.5454Q106.757-17.9007 108.534-23.529Q110.31-29.1572 110.31-35.2606Q110.31-41.3641 108.534-46.9925Q106.757-52.6209 103.582-57.0044Q102.213-58.8906 99.9191-59.314Q97.6256-59.7374 95.5559-58.4246Q93.2934-56.9986 92.8752-54.4574Q92.457-51.9162 94.3447-48.8777Q96.1932-46.0771 97.1826-42.5663Q98.1721-39.0556 98.1721-35.2606Q98.1721-31.4943 97.1685-27.9833Q96.1649-24.4724 94.3447-21.6436Q92.457-18.6337 92.8752-16.0641Q93.2934-13.4945 95.5559-12.0684ZM117.523 1.52056Q119.649 2.80449 122.014 2.30985Q124.379 1.81521 125.777-0.327886Q130.678-7.56828 133.36-16.5864Q136.042-25.6046 136.042-35.2606Q136.042-44.9167 133.377-53.9462Q130.712-62.9757 125.777-70.1934Q124.379-72.3365 122.014-72.8311Q119.649-73.3258 117.523-72.0418Q115.117-70.672 114.799-68.0618Q114.48-65.4517 116.112-62.8414Q119.852-57.0925 121.907-49.9868Q123.961-42.8811 123.961-35.2606Q123.961-27.6402 121.878-20.5486Q119.796-13.457 116.112-7.67986Q114.509-5.06958 114.813-2.47373Q115.117 0.122116 117.523 1.52056ZM139.494 15.205Q141.678 16.512 144.117 15.9461Q146.555 15.3802 147.919 13.1463Q152.299 6.30465 155.408-1.44871Q158.518-9.20207 160.175-17.6879Q161.831-26.1737 161.831-35.175Q161.831-44.2049 160.16-52.6764Q158.49-61.1479 155.366-68.8872Q152.242-76.6264 147.919-83.4963Q146.555-85.7585 144.117-86.3245Q141.678-86.8905 139.494-85.555Q137.174-84.1624 136.813-81.6181Q136.451-79.0738 138.02-76.4921Q141.644-70.6628 144.288-64.0321Q146.931-57.4014 148.343-50.1634Q149.755-42.9255 149.755-35.175Q149.755-27.4812 148.343-20.2149Q146.931-12.9486 144.288-6.31794Q141.644 0.312769 138.02 6.1421Q136.451 8.72383 136.813 11.2681Q137.174 13.8124 139.494 15.205Z"/>
  </g>
  <g id="Semibold-M" transform="matrix(1 0 0 1 1957.51 1126)">
   <path d="M26.9368-13.7588L40.6972-13.7588Q41.2723-13.7588 41.6998-13.3754L62.682 5.41945Q64.7045 7.20514 66.4143 8.06386Q68.1241 8.92258 70.1846 8.92258Q73.1099 8.92258 75.081 6.96127Q77.0521 4.99996 77.0521 2.04575L77.0521-72.2675Q77.0521-75.2294 75.081-77.2858Q73.1099-79.3422 70.1116-79.3422Q68.1055-79.3422 66.4817-78.4392Q64.8579-77.5363 62.682-75.6124L41.6998-56.9783Q41.2512-56.5921 40.6972-56.5921L26.9368-56.5921Q21.2831-56.5921 18.3731-53.5651Q15.463-50.5382 15.463-44.5487L15.463-25.7427Q15.463-19.7974 18.3731-16.7781Q21.2831-13.7588 26.9368-13.7588ZM28.1365-23.4814Q27.0242-23.4814 26.4714-24.0547Q25.9186-24.6281 25.9186-25.7222L25.9186-44.6134Q25.9186-45.7333 26.4714-46.2975Q27.0242-46.8618 28.1365-46.8618L43.1089-46.8618Q44.1572-46.8618 44.9617-47.1254Q45.7662-47.3889 46.6203-48.17L65.1966-65.1161Q65.3518-65.256 65.5501-65.3594Q65.7485-65.4629 65.9584-65.4629Q66.6483-65.4629 66.6483-64.7472L66.6483-5.69839Q66.6483-4.92037 66.0025-4.92037Q65.5769-4.92037 65.2042-5.31424L46.6203-22.1808Q45.1615-23.4814 43.1089-23.4814ZM93.6946-12.9337Q95.4562-11.8137 97.4693-12.184Q99.4825-12.5543 100.712-14.2832Q103.752-18.4057 105.463-23.8758Q107.175-29.3459 107.175-35.2606Q107.175-41.1754 105.463-46.6363Q103.752-52.0973 100.712-56.2562Q99.4825-57.967 97.4693-58.3373Q95.4562-58.7076 93.6946-57.5511Q91.7218-56.2669 91.3775-54.0643Q91.0331-51.8616 92.6522-49.3726Q94.5969-46.5254 95.6438-42.871Q96.6906-39.2165 96.6906-35.2606Q96.6906-31.3229 95.6255-27.6777Q94.5604-24.0324 92.6522-21.1487Q91.0331-18.6778 91.3775-16.4478Q91.7218-14.2179 93.6946-12.9337ZM114.251 0.333383Q116.085 1.49008 118.144 1.06521Q120.202 0.640335 121.45-1.23386Q126.268-8.16845 128.924-17.0007Q131.581-25.833 131.581-35.2606Q131.581-44.6883 128.946-53.535Q126.312-62.3817 121.45-69.2874Q120.202-71.1616 118.144-71.5865Q116.085-72.0114 114.251-70.8547Q112.224-69.6619 111.952-67.436Q111.681-65.2101 113.099-62.9935Q116.942-57.2919 119.047-50.1222Q121.151-42.9525 121.151-35.2606Q121.151-27.5688 119.01-20.4174Q116.869-13.2659 113.099-7.52784Q111.717-5.31115 111.97-3.09437Q112.224-0.877591 114.251 0.333383ZM134.889 13.7436Q136.742 14.9108 138.868 14.4314Q140.994 13.9519 142.216 11.9973Q146.56 5.40694 149.65-2.15078Q152.74-9.70851 154.391-18.0249Q156.041-26.3412 156.041-35.2062Q156.041-44.0893 154.373-52.3966Q152.704-60.7038 149.596-68.2433Q146.487-75.7828 142.216-82.4096Q140.994-84.4008 138.868-84.8711Q136.742-85.3413 134.889-84.156Q132.917-82.9343 132.618-80.7462Q132.319-78.5581 133.694-76.3595Q137.36-70.6295 140.052-64.0475Q142.745-57.4656 144.191-50.2304Q145.638-42.9953 145.638-35.2062Q145.638-27.4717 144.191-20.2092Q142.745-12.9468 140.052-6.36483Q137.36 0.217101 133.694 5.94718Q132.319 8.1457 132.618 10.3338Q132.917 12.5219 134.889 13.7436Z"/>
  </g>
  <g id="Medium-M" transform="matrix(1 0 0 1 1663.12 1126)">
   <path d="M26.0222-14.4602L39.8874-14.4602Q40.5006-14.4602 40.9614-14.0514L62.3827 5.1461Q64.2943 6.83515 65.906 7.64563Q67.5177 8.45611 69.4533 8.45611Q72.1291 8.45611 73.9255 6.67007Q75.722 4.88403 75.722 2.17471L75.722-72.3667Q75.722-75.0853 73.9255-76.9829Q72.1291-78.8805 69.3677-78.8805Q67.463-78.8805 65.9577-78.0069Q64.4524-77.1333 62.3827-75.3046L40.9614-56.2816Q40.4985-55.881 39.8874-55.881L26.0222-55.881Q20.6691-55.881 17.9393-53.047Q15.2095-50.2129 15.2095-44.51L15.2095-25.7607Q15.2095-20.1098 17.9393-17.285Q20.6691-14.4602 26.0222-14.4602ZM26.8561-23.0501Q25.6316-23.0501 25.0409-23.6598Q24.4502-24.2695 24.4502-25.4837L24.4502-44.839Q24.4502-46.0727 25.0409-46.6773Q25.6316-47.2818 26.8561-47.2818L42.0978-47.2818Q43.1115-47.2818 43.8988-47.5367Q44.686-47.7916 45.548-48.568L65.0841-66.3603Q65.2457-66.5034 65.4465-66.6149Q65.6472-66.7263 65.8619-66.7263Q66.5425-66.7263 66.5425-66.0262L66.5425-4.43998Q66.5425-3.67756 65.9139-3.67756Q65.4788-3.67756 65.0933-4.08735L45.548-21.7732Q44.0954-23.0501 42.0978-23.0501ZM92.2833-13.5898Q93.8112-12.5945 95.6118-12.9246Q97.4124-13.2546 98.5359-14.8427Q101.473-18.7886 103.135-24.1388Q104.797-29.489 104.797-35.2606Q104.797-41.0322 103.135-46.3662Q101.473-51.7002 98.5359-55.6889Q97.4124-57.2667 95.6118-57.5967Q93.8112-57.9268 92.2833-56.8888Q90.5301-55.7121 90.2418-53.7662Q89.9535-51.8203 91.3688-49.7479Q93.3866-46.8653 94.4769-43.1019Q95.5672-39.3386 95.5672-35.2606Q95.5672-31.193 94.4555-27.4459Q93.3438-23.6987 91.3688-20.7734Q89.9535-18.7113 90.2418-16.7388Q90.5301-14.7664 92.2833-13.5898ZM111.769-0.566783Q113.383 0.493439 115.209 0.121468Q117.035-0.250503 118.169-1.92081Q122.924-8.62352 125.561-17.3148Q128.198-26.0061 128.198-35.2606Q128.198-44.5151 125.587-53.2232Q122.976-61.9313 118.169-68.6005Q117.035-70.2708 115.209-70.6428Q113.383-71.0147 111.769-69.9545Q110.03-68.896 109.794-66.9615Q109.558-65.027 110.815-63.1087Q114.736-57.443 116.878-50.2248Q119.021-43.0067 119.021-35.2606Q119.021-27.5146 116.835-20.3178Q114.65-13.1211 110.815-7.41256Q109.6-5.49432 109.815-3.56497Q110.03-1.63561 111.769-0.566783ZM131.398 12.6355Q132.999 13.6968 134.888 13.2829Q136.778 12.8689 137.892 11.1261Q142.209 4.72627 145.284-2.68312Q148.359-10.0925 150.005-18.2804Q151.651-26.4682 151.651-35.2298Q151.651-44.0017 149.984-52.1844Q148.317-60.3671 145.22-67.7551Q142.123-75.1431 137.892-81.5857Q136.778-83.3713 134.888-83.769Q132.999-84.1667 131.398-83.0951Q129.689-82.0031 129.438-80.085Q129.186-78.167 130.414-76.259Q134.111-70.6042 136.841-64.0592Q139.571-57.5143 141.043-50.2812Q142.516-43.0482 142.516-35.2298Q142.516-27.4645 141.043-20.2049Q139.571-12.9453 136.841-6.40039Q134.111 0.144562 130.414 5.79938Q129.186 7.70734 129.438 9.62539Q129.689 11.5434 131.398 12.6355Z"/>
  </g>
  <g id="Regular-M" transform="matrix(1 0 0 1 1369.43 1126)">
   <path d="M24.8292-15.375L38.8312-15.375Q39.4941-15.375 39.9983-14.9331L61.9924 4.78955Q63.7593 6.35255 65.243 7.10012Q66.7268 7.84768 68.4994 7.84768Q70.8497 7.84768 72.4184 6.29025Q73.9871 4.73282 73.9871 2.34293L73.9871-72.4962Q73.9871-74.8974 72.4184-76.5879Q70.8497-78.2784 68.3975-78.2784Q66.6249-78.2784 65.2742-77.443Q63.9235-76.6077 61.9924-74.9032L39.9983-55.3728Q39.5168-54.9536 38.8312-54.9536L24.8292-54.9536Q19.8681-54.9536 17.3734-52.3711Q14.8787-49.7886 14.8787-44.4594L14.8787-25.7842Q14.8787-20.5173 17.3734-17.9462Q19.8681-15.375 24.8292-15.375ZM25.1859-22.4876Q23.815-22.4876 23.175-23.1447Q22.5349-23.8018 22.5349-25.1727L22.5349-45.1332Q22.5349-46.5155 23.175-47.1726Q23.815-47.8296 25.1859-47.8296L40.779-47.8296Q41.7476-47.8296 42.5123-48.0732Q43.277-48.3167 44.1493-49.0871L64.9373-67.9833Q65.1073-68.1306 65.3112-68.2524Q65.5151-68.3742 65.7361-68.3742Q66.4045-68.3742 66.4045-67.6944L66.4045-2.79858Q66.4045-2.0565 65.7984-2.0565Q65.3509-2.0565 64.9486-2.48706L44.1493-21.2415Q42.7049-22.4876 40.779-22.4876ZM90.4424-14.4455Q91.6656-13.613 93.1889-13.8905Q94.7122-14.168 95.6975-15.5724Q98.5013-19.288 100.099-24.4818Q101.696-29.6757 101.696-35.2606Q101.696-40.8456 100.099-46.014Q98.5013-51.1824 95.6975-54.9489Q94.7122-56.3533 93.1889-56.6308Q91.6656-56.9083 90.4424-56.0248Q88.9757-54.9885 88.7605-53.3775Q88.5454-51.7664 89.6949-50.2374Q91.8079-47.3087 92.955-43.4032Q94.102-39.4977 94.102-35.2606Q94.102-31.0235 92.9295-27.1435Q91.7569-23.2635 89.6949-20.2839Q88.5454-18.7549 88.7605-17.1184Q88.9757-15.4818 90.4424-14.4455ZM108.532-1.74091Q109.858-0.80653 111.381-1.1095Q112.904-1.41246 113.89-2.81683Q118.562-9.2171 121.174-17.7246Q123.785-26.232 123.785-35.2606Q123.785-44.2892 121.205-52.8165Q118.625-61.3438 113.89-67.7045Q112.904-69.1088 111.381-69.4118Q109.858-69.7148 108.532-68.7804Q107.168-67.897 106.978-66.3425Q106.788-64.7881 107.836-63.2591Q111.858-57.6401 114.05-50.3588Q116.242-43.0774 116.242-35.2606Q116.242-27.4439 113.999-20.188Q111.756-12.9321 107.836-7.26221Q106.839-5.73323 107.004-4.17878Q107.168-2.62433 108.532-1.74091ZM126.844 11.1902Q128.118 12.1132 129.698 11.7848Q131.278 11.4563 132.252 9.98967Q136.533 3.83843 139.589-3.37747Q142.645-10.5934 144.285-18.6137Q145.925-26.634 145.925-35.2606Q145.925-43.8873 144.259-51.9076Q142.594-59.9279 139.513-67.1183Q136.432-74.3088 132.252-80.511Q131.278-82.0286 129.698-82.3316Q128.118-82.6345 126.844-81.7115Q125.479-80.7884 125.289-79.2227Q125.099-77.6569 126.136-76.1279Q129.874-70.5712 132.652-64.0745Q135.431-57.5778 136.937-50.3475Q138.444-43.1172 138.444-35.2606Q138.444-27.4551 136.937-20.1993Q135.431-12.9435 132.652-6.44676Q129.874 0.0499451 126.136 5.6066Q125.099 7.13557 125.289 8.70136Q125.479 10.2672 126.844 11.1902Z"/>
  </g>
  <g id="Light-M" transform="matrix(1 0 0 1 1075.34 1126)">
   <path d="M22.6581-16.3686L37.1385-16.3686Q37.967-16.3686 38.5816-15.8163L61.1829 4.36637Q62.5817 5.63499 63.8447 6.28136Q65.1077 6.92773 66.6227 6.92773Q68.6418 6.92773 69.9253 5.57269Q71.2088 4.21765 71.2088 2.19574L71.2088-72.4594Q71.2088-74.511 69.9253-75.9623Q68.6418-77.4136 66.5576-77.4136Q65.0426-77.4136 63.8759-76.6887Q62.7091-75.9637 61.1829-74.6272L38.5816-54.3424Q38.0265-53.8496 37.1385-53.8496L22.6581-53.8496Q18.341-53.8496 16.1959-51.6259Q14.0508-49.4022 14.0508-44.8274L14.0508-25.269Q14.0508-20.7565 16.1959-18.5625Q18.341-16.3686 22.6581-16.3686ZM22.8861-21.8804Q21.3128-21.8804 20.6451-22.5927Q19.9775-23.305 19.9775-24.8783L19.9775-45.2804Q19.9775-46.8835 20.6451-47.5957Q21.3128-48.308 22.8861-48.308L38.4056-48.308Q39.4294-48.308 40.2216-48.5424Q41.0139-48.7767 41.8862-49.5839L63.6493-69.4184Q63.8929-69.6025 64.1245-69.7703Q64.356-69.9381 64.6321-69.9381Q65.3742-69.9381 65.3742-69.1664L65.3742-1.38186Q65.3742-0.547784 64.6944-0.547784Q64.2286-0.547784 63.6791-1.07033L41.8862-20.6344Q40.4234-21.8804 38.4056-21.8804ZM88.9889-14.7399Q89.9729-14.073 91.1374-14.2953Q92.3019-14.5176 93.0665-15.5724Q95.8702-19.2512 97.5319-24.3806Q99.1936-29.5101 99.1936-35.2606Q99.1936-41.0112 97.5319-46.1244Q95.8702-51.2376 93.0665-54.9489Q92.3019-56.0037 91.1374-56.226Q89.9729-56.4483 88.9889-55.7489Q87.8718-54.9517 87.7118-53.7086Q87.5518-52.4655 88.4438-51.2861Q90.8511-47.9527 92.0902-43.9276Q93.3293-39.9025 93.3293-35.2606Q93.3293-30.6188 92.0739-26.61Q90.8186-22.6012 88.4438-19.2351Q87.5518-18.0558 87.7118-16.7964Q87.8718-15.537 88.9889-14.7399ZM106.104-1.9433Q107.153-1.21131 108.317-1.44988Q109.482-1.68845 110.247-2.74323Q114.919-9.01471 117.623-17.5774Q120.326-26.14 120.326-35.2606Q120.326-44.3812 117.654-52.9453Q114.982-61.5094 110.247-67.7781Q109.482-68.8328 108.317-69.0714Q107.153-69.31 106.104-68.578Q105.052-67.8786 104.908-66.6829Q104.764-65.4872 105.591-64.3078Q109.871-58.4681 112.182-50.9475Q114.494-43.427 114.494-35.2606Q114.494-27.0943 112.15-19.59Q109.806-12.0858 105.591-6.21346Q104.797-5.03407 104.924-3.8384Q105.052-2.64273 106.104-1.9433ZM123.495 11.043Q124.512 11.7453 125.723 11.4904Q126.935 11.2355 127.67 10.1185Q131.823 3.89363 134.934-3.20268Q138.045-10.299 139.768-18.2917Q141.491-26.2844 141.491-35.2606Q141.491-44.2369 139.752-52.2296Q138.013-60.2223 134.886-67.3023Q131.758-74.3824 127.67-80.6398Q126.935-81.7894 125.723-82.028Q124.512-82.2665 123.495-81.5643Q122.443-80.862 122.299-79.6366Q122.156-78.4112 122.953-77.2318Q126.691-71.4544 129.58-64.9301Q132.468-58.4058 134.095-51.0191Q135.721-43.6324 135.721-35.2606Q135.721-26.9215 134.095-19.5185Q132.468-12.1155 129.58-5.59121Q126.691 0.933097 122.953 6.71054Q122.156 7.88993 122.299 9.11534Q122.443 10.3408 123.495 11.043Z"/>
  </g>
  <g id="Thin-M" transform="matrix(1 0 0 1 782.093 1126)">
   <path d="M19.7867-17.6826L34.8998-17.6826Q35.9472-17.6826 36.7078-16.9843L60.1121 3.80668Q61.0243 4.68596 61.9953 5.19849Q62.9663 5.71102 64.1406 5.71102Q65.7217 5.71102 66.628 4.62365Q67.5343 3.53629 67.5343 2.00106L67.5343-72.4107Q67.5343-74 66.628-75.135Q65.7217-76.2699 64.1242-76.2699Q62.9498-76.2699 62.0265-75.691Q61.1031-75.112 60.1121-74.2622L36.7078-52.9797Q36.0554-52.3896 34.8998-52.3896L19.7867-52.3896Q16.3213-52.3896 14.6385-50.6404Q12.9557-48.8912 12.9557-45.3141L12.9557-24.5877Q12.9557-21.0728 14.6385-19.3777Q16.3213-17.6826 19.7867-17.6826ZM19.8443-21.0774Q18.0033-21.0774 17.2992-21.8627Q16.595-22.648 16.595-24.4889L16.595-45.4751Q16.595-47.3701 17.2992-48.1554Q18.0033-48.9407 19.8443-48.9407L35.2665-48.9407Q36.3633-48.9407 37.192-49.1629Q38.0208-49.3851 38.8931-50.2409L61.946-71.3165Q62.2869-71.5492 62.5549-71.7779Q62.8229-72.0065 63.1721-72.0065Q64.0114-72.0065 64.0114-71.1131L64.0114 0.491874Q64.0114 1.44762 63.2344 1.44762Q62.7442 1.44762 62 0.803397L38.8931-19.8313Q37.406-21.0774 35.2665-21.0774ZM87.0665-15.1292Q87.7342-14.6814 88.4242-14.8306Q89.1142-14.9799 89.5867-15.5724Q92.3904-19.2025 94.1373-24.2468Q95.8842-29.2911 95.8842-35.2606Q95.8842-41.2302 94.1373-46.2704Q92.3904-51.3106 89.5867-54.9489Q89.1142-55.5414 88.4242-55.6906Q87.7342-55.8399 87.0665-55.3838Q86.4117-54.9031 86.3248-54.1467Q86.2378-53.3902 86.7891-52.6732Q89.5858-48.8044 90.9465-44.6211Q92.3072-40.4379 92.3072-35.2606Q92.3072-30.0834 90.9424-25.9043Q89.5775-21.7251 86.7891-17.8481Q86.2378-17.1311 86.3248-16.3705Q86.4117-15.61 87.0665-15.1292ZM102.892-2.21098Q103.576-1.74666 104.266-1.90006Q104.956-2.05346 105.428-2.64589Q110.101-8.74703 112.926-17.3827Q115.751-26.0184 115.751-35.2606Q115.751-44.5029 112.957-53.1157Q110.164-61.7284 105.428-67.8754Q104.956-68.4678 104.266-68.6212Q103.576-68.7746 102.892-68.3103Q102.253-67.8542 102.171-67.1331Q102.088-66.4119 102.623-65.6949Q107.243-59.5631 109.712-51.7262Q112.182-43.8893 112.182-35.2606Q112.182-26.632 109.704-18.7992Q107.226-10.9664 102.623-4.82641Q102.096-4.10937 102.175-3.38822Q102.253-2.66707 102.892-2.21098ZM119.066 10.8483Q119.742 11.2586 120.467 11.1011Q121.193 10.9435 121.611 10.2888Q125.594 3.96663 128.778-2.97151Q131.962-9.90965 133.794-17.8658Q135.626-25.822 135.626-35.2606Q135.626-44.6993 133.79-52.6555Q131.954-60.6116 128.765-67.5457Q125.577-74.4797 121.611-80.8101Q121.193-81.4731 120.467-81.6265Q119.742-81.7799 119.066-81.3696Q118.428-80.9594 118.345-80.1841Q118.262-79.4089 118.743-78.6919Q122.481-72.6224 125.516-66.0616Q128.551-59.5008 130.335-51.9073Q132.12-44.3137 132.12-35.2606Q132.12-26.2158 130.335-18.6181Q128.551-11.0205 125.516-4.45967Q122.481 2.10114 118.743 8.17059Q118.262 8.88763 118.345 9.66286Q118.428 10.4381 119.066 10.8483Z"/>
  </g>
  <g id="Ultralight-M" transform="matrix(1 0 0 1 487.155 1126)">
   <path d="M18.316-18.3557L33.7531-18.3557Q34.9127-18.3557 35.7481-17.5826L59.5637 3.52002Q60.2266 4.19987 61.0481 4.64385Q61.8695 5.08783 62.8693 5.08783Q64.2261 5.08783 64.9392 4.13757Q65.6523 3.1873 65.6523 1.90135L65.6523-72.3858Q65.6523-73.7383 64.9392-74.7112Q64.2261-75.6841 62.8778-75.6841Q61.8779-75.6841 61.0792-75.18Q60.2805-74.6758 59.5637-74.0752L35.7481-52.2817Q35.0458-51.6417 33.7531-51.6417L18.316-51.6417Q15.2868-51.6417 13.8408-50.1356Q12.3949-48.6295 12.3949-45.5634L12.3949-24.2387Q12.3949-21.2349 13.8408-19.7953Q15.2868-18.3557 18.316-18.3557ZM18.2863-20.6661Q16.3083-20.6661 15.5854-21.4888Q14.8625-22.3115 14.8625-24.2895L14.8625-45.5748Q14.8625-47.6194 15.5854-48.4421Q16.3083-49.2648 18.2863-49.2648L33.6586-49.2648Q34.7928-49.2648 35.6403-49.4807Q36.4878-49.6967 37.36-50.5774L61.0735-72.2886Q61.4643-72.5463 61.751-72.8061Q62.0377-73.066 62.4243-73.066Q63.3135-73.066 63.3135-72.1102L63.3135 1.45159Q63.3135 2.46965 62.4866 2.46965Q61.9839 2.46965 61.14 1.76311L37.36-19.42Q35.8605-20.6661 33.6586-20.6661ZM86.0818-15.3286Q86.5875-14.993 87.0344-15.1048Q87.4814-15.2167 87.8044-15.5724Q90.6081-19.1776 92.3986-24.1783Q94.1891-29.179 94.1891-35.2606Q94.1891-41.3423 92.3986-46.3452Q90.6081-51.348 87.8044-54.9489Q87.4814-55.3045 87.0344-55.4164Q86.5875-55.5283 86.0818-55.1969Q85.6639-54.8781 85.6143-54.371Q85.5647-53.8639 85.9415-53.3836Q88.9377-49.2406 90.3607-44.9763Q91.7837-40.7121 91.7837-35.2606Q91.7837-29.8092 90.3628-25.5428Q88.9419-21.2764 85.9415-17.1377Q85.5647-16.6574 85.6143-16.1524Q85.6639-15.6474 86.0818-15.3286ZM101.246-2.34808Q101.744-2.02086 102.191-2.13064Q102.638-2.24042 102.961-2.59604Q107.633-8.60993 110.521-17.283Q113.408-25.9561 113.408-35.2606Q113.408-44.5652 110.552-53.2029Q107.696-61.8406 102.961-67.9253Q102.638-68.2809 102.191-68.3906Q101.744-68.5004 101.246-68.1732Q100.82-67.8418 100.768-67.3636Q100.717-66.8855 101.102-66.4053Q105.896-60.124 108.447-52.1251Q110.998-44.1261 110.998-35.2606Q110.998-26.3952 108.452-18.3941Q105.905-10.3931 101.102-4.11598Q100.712-3.63575 100.766-3.15764Q100.82-2.67953 101.246-2.34808ZM116.798 10.7486Q117.299 11.0093 117.775 10.9016Q118.251 10.794 118.508 10.3761Q122.403 4.00402 125.624-2.8531Q128.846-9.71023 130.734-17.6477Q132.622-25.5852 132.622-35.2606Q132.622-44.9361 130.736-52.8736Q128.85-60.8111 125.631-67.6703Q122.412-74.5295 118.508-80.8973Q118.251-81.311 117.775-81.4208Q117.299-81.5306 116.798-81.2699Q116.371-81.0092 116.32-80.4646Q116.268-79.9199 116.587-79.4397Q120.325-73.2207 123.434-66.6412Q126.544-60.0617 128.409-52.3622Q130.275-44.6627 130.275-35.2606Q130.275-25.8544 128.409-18.157Q126.544-10.4596 123.434-3.8801Q120.325 2.6994 116.587 8.91842Q116.268 9.39864 116.32 9.9433Q116.371 10.4879 116.798 10.7486Z"/>
  </g>
  <g id="Black-S" transform="matrix(1 0 0 1 2856.15 696)">
   <path d="M25-15.3809L35.3516-15.3809Q35.6445-15.3809 35.8398-15.1855L50.3906-2.19727Q52.4414-0.390625 54.1992 0.488281Q55.957 1.36719 58.1055 1.36719Q61.4746 1.36719 63.7695-0.927734Q66.0645-3.22266 66.0645-6.5918L66.0645-63.8184Q66.0645-67.1875 63.7695-69.4824Q61.4746-71.7773 58.1055-71.7773Q56.1035-71.7773 54.3213-70.9473Q52.5391-70.1172 50.3906-68.2129L35.8398-55.2734Q35.5469-55.0293 35.3516-55.0293L25-55.0293Q19.2871-55.0293 16.2354-51.8311Q13.1836-48.6328 13.1836-42.7246L13.1836-27.6855Q13.1836-21.7773 16.2354-18.5791Q19.2871-15.3809 25-15.3809ZM27.5391-27.8809Q27.1484-27.8809 26.8799-28.1738Q26.6113-28.4668 26.6113-28.8086L26.6113-41.6016Q26.6113-41.9922 26.8799-42.2607Q27.1484-42.5293 27.5391-42.5293L38.0859-42.5293Q39.0625-42.5293 39.7705-42.7734Q40.4785-43.0176 41.1133-43.6523L51.5137-53.2715Q51.6113-53.3691 51.7578-53.418Q51.9043-53.4668 52.0508-53.4668Q52.6367-53.4668 52.6367-52.832L52.6367-17.5293Q52.6367-16.8457 52.0508-16.8457Q51.7578-16.8457 51.5137-17.0898L41.1133-26.7578Q39.9414-27.8809 38.0859-27.8809ZM79.541-14.8926Q81.9336-13.4766 84.4238-13.9404Q86.9141-14.4043 88.3301-16.3574Q91.1621-20.3613 92.7246-25.1709Q94.2871-29.9805 94.2871-35.2539Q94.2871-40.5273 92.7246-45.3613Q91.1621-50.1953 88.3301-54.1992Q86.9141-56.1035 84.4238-56.5674Q81.9336-57.0312 79.541-55.6152Q77.0508-54.1504 76.5381-51.3184Q76.0254-48.4863 78.1738-44.7266Q79.3945-42.627 80.0293-40.2344Q80.6641-37.8418 80.6641-35.2539Q80.6641-32.7148 80.0293-30.2979Q79.3945-27.8809 78.1738-25.7812Q76.0254-22.0703 76.5381-19.2139Q77.0508-16.3574 79.541-14.8926ZM100.293-3.41797Q102.686-2.09961 105.298-2.66113Q107.91-3.22266 109.375-5.56641Q113.428-12.0117 115.601-19.5557Q117.773-27.0996 117.773-35.2539Q117.773-43.4082 115.601-50.9521Q113.428-58.4961 109.375-64.9414Q107.91-67.2852 105.298-67.8467Q102.686-68.4082 100.293-67.0898Q97.4609-65.5762 97.0947-62.5732Q96.7285-59.5703 98.5352-56.543Q101.221-51.9043 102.71-46.4844Q104.199-41.0645 104.199-35.2539Q104.199-29.4434 102.71-24.0234Q101.221-18.6035 98.5352-13.9648Q96.7285-10.9375 97.0947-7.95898Q97.4609-4.98047 100.293-3.41797ZM120.85 8.00781Q123.389 9.375 126.074 8.71582Q128.76 8.05664 130.176 5.61523Q133.691-0.390625 136.182-6.95801Q138.672-13.5254 139.99-20.6055Q141.309-27.6855 141.309-35.1074Q141.309-42.5781 139.99-49.6338Q138.672-56.6895 136.182-63.2568Q133.691-69.8242 130.176-75.8301Q128.76-78.2715 126.074-78.9551Q123.389-79.6387 120.85-78.2227Q118.164-76.709 117.725-73.8281Q117.285-70.9473 118.994-67.9688Q121.729-63.1348 123.682-57.8125Q125.635-52.4902 126.66-46.8018Q127.686-41.1133 127.686-35.1074Q127.686-29.1504 126.66-23.4375Q125.635-17.7246 123.682-12.4023Q121.729-7.08008 118.994-2.24609Q117.285 0.732422 117.725 3.61328Q118.164 6.49414 120.85 8.00781Z"/>
  </g>
  <g id="Heavy-S" transform="matrix(1 0 0 1 2562.5 696)">
   <path d="M23.9397-16.2798L34.3835-16.2798Q34.711-16.2798 34.9409-16.0614L50.0564-2.543Q51.992-0.840079 53.6345-0.0187952Q55.2771 0.802489 57.2757 0.802489Q60.3222 0.802489 62.3981-1.26194Q64.4741-3.32638 64.4741-6.38436L64.4741-63.9682Q64.4741-67.0262 62.3981-69.1194Q60.3222-71.2126 57.2527-71.2126Q55.3659-71.2126 53.7335-70.4114Q52.1011-69.6101 50.0564-67.798L34.9409-54.3861Q34.6364-54.1304 34.3835-54.1304L23.9397-54.1304Q18.5841-54.1304 15.7513-51.1684Q12.9185-48.2064 12.9185-42.6209L12.9185-27.7777Q12.9185-22.2037 15.7513-19.2418Q18.5841-16.2798 23.9397-16.2798ZM25.9602-27.3277Q25.4313-27.3277 25.1109-27.6668Q24.7905-28.0058 24.7905-28.4974L24.7905-41.9127Q24.7905-42.4416 25.1109-42.7621Q25.4313-43.0825 25.9602-43.0825L36.9104-43.0825Q37.8294-43.0825 38.5086-43.3151Q39.1878-43.5477 39.8341-44.1709L51.5137-54.908Q51.6113-55.0056 51.7578-55.0602Q51.9043-55.1148 52.0508-55.1148Q52.6137-55.1148 52.6137-54.5146L52.6137-15.8698Q52.6137-15.2208 52.0623-15.2208Q51.7578-15.2208 51.5137-15.4764L39.8341-26.2392Q38.6737-27.3277 36.9104-27.3277ZM77.6625-15.8145Q79.7439-14.5599 81.9691-14.9719Q84.1943-15.3839 85.4835-17.1757Q88.1657-20.926 89.6476-25.5685Q91.1294-30.211 91.1294-35.2539Q91.1294-40.2969 89.6476-44.9522Q88.1657-49.6076 85.4835-53.3695Q84.1943-55.1239 81.9691-55.5359Q79.7439-55.948 77.6625-54.6818Q75.4489-53.3437 75.0111-50.8401Q74.5733-48.3365 76.4567-45.1414Q77.7465-43.0418 78.4332-40.5052Q79.1198-37.9686 79.1198-35.2539Q79.1198-32.5766 78.4274-30.027Q77.735-27.4775 76.4567-25.3664Q74.5733-22.2086 75.0111-19.6806Q75.4489-17.1526 77.6625-15.8145ZM96.9739-4.70871Q99.0784-3.50559 101.397-3.99797Q103.715-4.49035 105.042-6.58056Q109.002-12.7032 111.135-20.0339Q113.267-27.3647 113.267-35.2539Q113.267-43.1431 111.141-50.4796Q109.014-57.8162 105.042-63.9273Q103.715-66.0175 101.397-66.5098Q99.0784-67.0022 96.9739-65.7991Q94.5222-64.4583 94.2021-61.8357Q93.882-59.2131 95.4812-56.5775Q98.2474-52.0195 99.777-46.5593Q101.307-41.099 101.307-35.2539Q101.307-29.4088 99.7655-23.9543Q98.2243-18.4998 95.4812-13.9303Q93.8935-11.2948 94.2078-8.69079Q94.5222-6.08682 96.9739-4.70871ZM116.171 6.40591Q118.376 7.64633 120.761 7.07358Q123.147 6.50084 124.437 4.32449Q127.929-1.39325 130.391-7.75896Q132.852-14.1247 134.153-21.0203Q135.454-27.916 135.454-35.142Q135.454-42.4053 134.147-49.2823Q132.84-56.1593 130.373-62.5193Q127.906-68.8792 124.437-74.6085Q123.147-76.7964 120.761-77.382Q118.376-77.9676 116.171-76.6899Q113.831-75.3376 113.455-72.8082Q113.079-70.2788 114.603-67.6806Q117.384-62.9849 119.377-57.7203Q121.371-52.4557 122.419-46.7902Q123.468-41.1248 123.468-35.142Q123.468-29.208 122.419-23.5182Q121.371-17.8283 119.377-12.5637Q117.384-7.29904 114.603-2.60335Q113.079-0.00514391 113.455 2.52422Q113.831 5.05358 116.171 6.40591Z"/>
  </g>
  <g id="Bold-S" transform="matrix(1 0 0 1 2269.21 696)">
   <path d="M22.7539-17.2852L33.3008-17.2852Q33.667-17.2852 33.9355-17.041L49.6826-2.92969Q51.4893-1.34277 53.0029-0.585938Q54.5166 0.170898 56.3477 0.170898Q59.0332 0.170898 60.8643-1.63574Q62.6953-3.44238 62.6953-6.15234L62.6953-64.1357Q62.6953-66.8457 60.8643-68.7134Q59.0332-70.5811 56.2988-70.5811Q54.541-70.5811 53.0762-69.812Q51.6113-69.043 49.6826-67.334L33.9355-53.3936Q33.6182-53.125 33.3008-53.125L22.7539-53.125Q17.7979-53.125 15.21-50.4272Q12.6221-47.7295 12.6221-42.5049L12.6221-27.8809Q12.6221-22.6807 15.21-19.9829Q17.7979-17.2852 22.7539-17.2852ZM24.1943-26.709Q23.5107-26.709 23.1323-27.0996Q22.7539-27.4902 22.7539-28.1494L22.7539-42.2607Q22.7539-42.9443 23.1323-43.3228Q23.5107-43.7012 24.1943-43.7012L35.5957-43.7012Q36.4502-43.7012 37.0972-43.9209Q37.7441-44.1406 38.4033-44.751L51.5137-56.7383Q51.6113-56.8359 51.7578-56.897Q51.9043-56.958 52.0508-56.958Q52.5879-56.958 52.5879-56.3965L52.5879-14.0137Q52.5879-13.4033 52.0752-13.4033Q51.7578-13.4033 51.5137-13.6719L38.4033-25.6592Q37.2559-26.709 35.5957-26.709ZM75.5615-16.8457Q77.2949-15.7715 79.2236-16.1255Q81.1523-16.4795 82.2998-18.0908Q84.8145-21.5576 86.2061-26.0132Q87.5977-30.4688 87.5977-35.2539Q87.5977-40.0391 86.2061-44.4946Q84.8145-48.9502 82.2998-52.4414Q81.1523-54.0283 79.2236-54.3823Q77.2949-54.7363 75.5615-53.6377Q73.6572-52.4414 73.3032-50.3052Q72.9492-48.1689 74.5361-45.6055Q75.9033-43.5059 76.6479-40.8081Q77.3926-38.1104 77.3926-35.2539Q77.3926-32.4219 76.6357-29.7241Q75.8789-27.0264 74.5361-24.9023Q72.9492-22.3633 73.3032-20.2026Q73.6572-18.042 75.5615-16.8457ZM93.2617-6.15234Q95.0439-5.07812 97.0337-5.49316Q99.0234-5.9082 100.195-7.71484Q104.053-13.4766 106.14-20.5688Q108.228-27.6611 108.228-35.2539Q108.228-42.8467 106.152-49.9512Q104.077-57.0557 100.195-62.793Q99.0234-64.5996 97.0337-65.0146Q95.0439-65.4297 93.2617-64.3555Q91.2354-63.208 90.9668-61.0107Q90.6982-58.8135 92.0654-56.6162Q94.9219-52.1484 96.4966-46.6431Q98.0713-41.1377 98.0713-35.2539Q98.0713-29.3701 96.4722-23.877Q94.873-18.3838 92.0654-13.8916Q90.7227-11.6943 90.979-9.50928Q91.2354-7.32422 93.2617-6.15234ZM110.938 4.61426Q112.769 5.71289 114.819 5.23682Q116.87 4.76074 118.018 2.88086Q121.484-2.51465 123.914-8.65479Q126.343-14.7949 127.625-21.4844Q128.906-28.1738 128.906-35.1807Q128.906-42.2119 127.612-48.8892Q126.318-55.5664 123.877-61.6943Q121.436-67.8223 118.018-73.2422Q116.87-75.1465 114.819-75.6226Q112.769-76.0986 110.938-74.9756Q108.984-73.8037 108.679-71.6675Q108.374-69.5312 109.692-67.3584Q112.524-62.8174 114.563-57.6172Q116.602-52.417 117.676-46.7773Q118.75-41.1377 118.75-35.1807Q118.75-29.2725 117.676-23.6084Q116.602-17.9443 114.563-12.7441Q112.524-7.54395 109.692-3.00293Q108.374-0.830078 108.679 1.30615Q108.984 3.44238 110.938 4.61426Z"/>
  </g>
  <g id="Semibold-S" transform="matrix(1 0 0 1 1974.86 696)">
   <path d="M21.9363-17.9783L32.5543-17.9783Q32.9472-17.9783 33.2424-17.7164L49.4249-3.19629Q51.1427-1.68936 52.5675-0.976953Q53.9923-0.264551 55.7078-0.264551Q58.1445-0.264551 59.8067-1.89346Q61.4689-3.52236 61.4689-5.99238L61.4689-64.2513Q61.4689-66.7213 59.8067-68.4334Q58.1445-70.1456 55.6412-70.1456Q53.9723-70.1456 52.6229-69.3988Q51.2736-68.652 49.4249-67.0141L33.2424-52.7093Q32.9161-52.4318 32.5543-52.4318L21.9363-52.4318Q17.2558-52.4318 14.8367-49.9163Q12.4177-47.4007 12.4177-42.4249L12.4177-27.952Q12.4177-23.0095 14.8367-20.4939Q17.2558-17.9783 21.9363-17.9783ZM22.9769-26.2824Q22.1866-26.2824 21.7682-26.7086Q21.3498-27.1348 21.3498-27.9095L21.3498-42.5007Q21.3498-43.2909 21.7682-43.7093Q22.1866-44.1277 22.9769-44.1277L34.6893-44.1277Q35.4993-44.1277 36.1241-44.3386Q36.7488-44.5494 37.4169-45.1509L51.5137-58.0002Q51.6113-58.0979 51.7578-58.1633Q51.9043-58.2288 52.0508-58.2288Q52.5701-58.2288 52.5701-57.6939L52.5701-12.734Q52.5701-12.1503 52.0841-12.1503Q51.7578-12.1503 51.5137-12.4277L37.4169-25.2593Q36.2783-26.2824 34.6893-26.2824ZM74.113-17.5566Q75.6064-16.6068 77.3308-16.9208Q79.0551-17.2349 80.1048-18.7218Q82.5039-21.9931 83.8333-26.3198Q85.1627-30.6465 85.1627-35.2539Q85.1627-39.8613 83.8333-44.1792Q82.5039-48.497 80.1048-51.8016Q79.0551-53.2729 77.3308-53.587Q75.6064-53.901 74.113-52.9179Q72.422-51.8193 72.1257-49.9364Q71.8295-48.0534 73.212-45.9254Q74.6325-43.8258 75.4171-41.0169Q76.2018-38.2081 76.2018-35.2539Q76.2018-32.3152 75.4005-29.5153Q74.5992-26.7153 73.212-24.5824Q71.8295-22.4699 72.1257-20.5625Q72.422-18.6552 74.113-17.5566ZM90.7023-7.14766Q92.2624-6.1623 94.0255-6.52402Q95.7887-6.88574 96.8539-8.49687Q100.64-14.0098 102.697-20.9376Q104.753-27.8655 104.753-35.2539Q104.753-42.6423 102.713-49.5868Q100.674-56.5313 96.8539-62.0109Q95.7887-63.6221 94.0255-63.9838Q92.2624-64.3455 90.7023-63.3602Q88.9692-62.346 88.7362-60.442Q88.5032-58.538 89.7104-56.6429Q92.6291-52.2373 94.2349-46.7008Q95.8407-41.1644 95.8407-35.2539Q95.8407-29.3435 94.2016-23.8236Q92.5625-18.3038 89.7104-13.8649Q88.5365-11.9698 88.7529-10.0736Q88.9692-8.17734 90.7023-7.14766ZM107.329 3.379Q108.903 4.37988 110.723 3.97046Q112.542 3.56104 113.592 1.88555Q117.041-3.28779 119.448-9.27241Q121.855-15.257 123.123-21.8043Q124.392-28.3516 124.392-35.2073Q124.392-42.0786 123.107-48.6181Q121.822-55.1576 119.398-61.1256Q116.974-67.0936 113.592-72.3002Q112.542-74.009 110.723-74.4095Q108.903-74.8101 107.329-73.7937Q105.643-72.7462 105.387-70.881Q105.13-69.0158 106.307-67.1362Q109.174-62.7019 111.244-57.5461Q113.313-52.3903 114.405-46.7685Q115.497-41.1466 115.497-35.2073Q115.497-29.3169 114.405-23.6706Q113.313-18.0243 111.244-12.8686Q109.174-7.71279 106.307-3.27842Q105.13-1.39883 105.387 0.466357Q105.643 2.33154 107.329 3.379Z"/>
  </g>
  <g id="Medium-S" transform="matrix(1 0 0 1 1679.94 696)">
   <path d="M21.3164-18.5039L31.9883-18.5039Q32.4014-18.5039 32.7168-18.2285L49.2295-3.39844Q50.8799-1.95215 52.2373-1.27344Q53.5947-0.594727 55.2227-0.594727Q57.4707-0.594727 59.0049-2.08887Q60.5391-3.58301 60.5391-5.87109L60.5391-64.3389Q60.5391-66.627 59.0049-68.2212Q57.4707-69.8154 55.1426-69.8154Q53.541-69.8154 52.2793-69.0854Q51.0176-68.3555 49.2295-66.7715L32.7168-52.1904Q32.3838-51.9062 31.9883-51.9062L21.3164-51.9062Q16.8447-51.9062 14.5537-49.5288Q12.2627-47.1514 12.2627-42.3643L12.2627-28.0059Q12.2627-23.2588 14.5537-20.8813Q16.8447-18.5039 21.3164-18.5039ZM22.0537-25.959Q21.1826-25.959 20.7339-26.4121Q20.2852-26.8652 20.2852-27.7275L20.2852-42.6826Q20.2852-43.5537 20.7339-44.0024Q21.1826-44.4512 22.0537-44.4512L34.002-44.4512Q34.7783-44.4512 35.3862-44.6553Q35.9941-44.8594 36.6689-45.4541L51.5137-58.957Q51.6113-59.0547 51.7578-59.1235Q51.9043-59.1924 52.0508-59.1924Q52.5566-59.1924 52.5566-58.6777L52.5566-11.7637Q52.5566-11.2002 52.0908-11.2002Q51.7578-11.2002 51.5137-11.4844L36.6689-24.9561Q35.5371-25.959 34.002-25.959ZM73.0146-18.0957Q74.3262-17.2402 75.8955-17.5239Q77.4648-17.8076 78.4404-19.2002Q80.752-22.3232 82.0342-26.5522Q83.3164-30.7812 83.3164-35.2539Q83.3164-39.7266 82.0342-43.9399Q80.752-48.1533 78.4404-51.3164Q77.4648-52.7002 75.8955-52.9839Q74.3262-53.2676 73.0146-52.3721Q71.4854-51.3477 71.2329-49.6567Q70.9805-47.9658 72.208-46.168Q73.6689-44.0684 74.4839-41.1753Q75.2988-38.2822 75.2988-35.2539Q75.2988-32.2344 74.4639-29.3569Q73.6289-26.4795 72.208-24.3398Q70.9805-22.5508 71.2329-20.8354Q71.4854-19.1201 73.0146-18.0957ZM88.7617-7.90234Q90.1533-6.98438 91.7446-7.30566Q93.3359-7.62695 94.3203-9.08984Q98.0527-14.4141 100.085-21.2173Q102.118-28.0205 102.118-35.2539Q102.118-42.4873 100.105-49.3105Q98.0928-56.1338 94.3203-61.418Q93.3359-62.8809 91.7446-63.2021Q90.1533-63.5234 88.7617-62.6055Q87.251-61.6924 87.0449-60.0107Q86.8389-58.3291 87.9248-56.6631Q90.8906-52.3047 92.52-46.7446Q94.1494-41.1846 94.1494-35.2539Q94.1494-29.3232 92.48-23.7832Q90.8105-18.2432 87.9248-13.8447Q86.8789-12.1787 87.0649-10.5015Q87.251-8.82422 88.7617-7.90234ZM104.594 2.44238Q105.972 3.36914 107.616 3.01025Q109.261 2.65137 110.236 1.13086Q113.672-3.87402 116.062-9.74072Q118.452-15.6074 119.71-22.0469Q120.969-28.4863 120.969-35.2275Q120.969-41.9775 119.69-48.4126Q118.412-54.8477 116.002-60.6943Q113.592-66.541 110.236-71.5859Q109.261-73.1465 107.616-73.4897Q105.972-73.833 104.594-72.8975Q103.109-71.9443 102.89-70.2847Q102.671-68.625 103.739-66.9678Q106.634-62.6143 108.727-57.4922Q110.82-52.3701 111.926-46.7617Q113.031-41.1533 113.031-35.2275Q113.031-29.3506 111.926-23.7178Q110.82-18.085 108.727-12.9629Q106.634-7.84082 103.739-3.4873Q102.671-1.83008 102.89-0.17041Q103.109 1.48926 104.594 2.44238Z"/>
  </g>
  <g id="Regular-S" transform="matrix(1 0 0 1 1385.56 696)">
   <path d="M20.5078-19.1895L31.25-19.1895Q31.6895-19.1895 32.0312-18.8965L48.9746-3.66211Q50.5371-2.29492 51.8066-1.66016Q53.0762-1.02539 54.5898-1.02539Q56.5918-1.02539 57.959-2.34375Q59.3262-3.66211 59.3262-5.71289L59.3262-64.4531Q59.3262-66.5039 57.959-67.9443Q56.5918-69.3848 54.4922-69.3848Q52.9785-69.3848 51.8311-68.6768Q50.6836-67.9688 48.9746-66.4551L32.0312-51.5137Q31.6895-51.2207 31.25-51.2207L20.5078-51.2207Q16.3086-51.2207 14.1846-49.0234Q12.0605-46.8262 12.0605-42.2852L12.0605-28.0762Q12.0605-23.584 14.1846-21.3867Q16.3086-19.1895 20.5078-19.1895ZM20.8496-25.5371Q19.873-25.5371 19.3848-26.0254Q18.8965-26.5137 18.8965-27.4902L18.8965-42.9199Q18.8965-43.8965 19.3848-44.3848Q19.873-44.873 20.8496-44.873L33.1055-44.873Q33.8379-44.873 34.4238-45.0684Q35.0098-45.2637 35.6934-45.8496L51.5137-60.2051Q51.6113-60.3027 51.7578-60.376Q51.9043-60.4492 52.0508-60.4492Q52.5391-60.4492 52.5391-59.9609L52.5391-10.498Q52.5391-9.96094 52.0996-9.96094Q51.7578-9.96094 51.5137-10.2539L35.6934-24.5605Q34.5703-25.5371 33.1055-25.5371ZM71.582-18.7988Q72.6562-18.0664 74.0234-18.3105Q75.3906-18.5547 76.2695-19.8242Q78.4668-22.7539 79.6875-26.8555Q80.9082-30.957 80.9082-35.2539Q80.9082-39.5508 79.6875-43.6279Q78.4668-47.7051 76.2695-50.6836Q75.3906-51.9531 74.0234-52.1973Q72.6562-52.4414 71.582-51.6602Q70.2637-50.7324 70.0684-49.292Q69.873-47.8516 70.8984-46.4844Q72.4121-44.3848 73.2666-41.3818Q74.1211-38.3789 74.1211-35.2539Q74.1211-32.1289 73.2422-29.1504Q72.3633-26.1719 70.8984-24.0234Q69.873-22.6562 70.0684-21.1914Q70.2637-19.7266 71.582-18.7988ZM86.2305-8.88672Q87.4023-8.05664 88.7695-8.3252Q90.1367-8.59375 91.0156-9.86328Q94.6777-14.9414 96.6797-21.582Q98.6816-28.2227 98.6816-35.2539Q98.6816-42.2852 96.7041-48.9502Q94.7266-55.6152 91.0156-60.6445Q90.1367-61.9141 88.7695-62.1826Q87.4023-62.4512 86.2305-61.6211Q85.0098-60.8398 84.8389-59.4482Q84.668-58.0566 85.5957-56.6895Q88.623-52.3926 90.2832-46.8018Q91.9434-41.2109 91.9434-35.2539Q91.9434-29.2969 90.2344-23.7305Q88.5254-18.1641 85.5957-13.8184Q84.7168-12.4512 84.8633-11.0596Q85.0098-9.66797 86.2305-8.88672ZM101.025 1.2207Q102.148 2.05078 103.564 1.75781Q104.98 1.46484 105.859 0.146484Q109.277-4.63867 111.646-10.3516Q114.014-16.0645 115.259-22.3633Q116.504-28.6621 116.504-35.2539Q116.504-41.8457 115.234-48.1445Q113.965-54.4434 111.572-60.1318Q109.18-65.8203 105.859-70.6543Q104.98-72.0215 103.564-72.29Q102.148-72.5586 101.025-71.7285Q99.8047-70.8984 99.6338-69.5068Q99.4629-68.1152 100.391-66.748Q103.32-62.5 105.444-57.4219Q107.568-52.3438 108.691-46.7529Q109.814-41.1621 109.814-35.2539Q109.814-29.3945 108.691-23.7793Q107.568-18.1641 105.444-13.0859Q103.32-8.00781 100.391-3.75977Q99.4629-2.39258 99.6338-1.00098Q99.8047 0.390625 101.025 1.2207Z"/>
  </g>
  <g id="Light-S" transform="matrix(1 0 0 1 1091.17 696)">
   <path d="M18.5872-20.0684L29.7526-20.0684Q30.3385-20.0684 30.778-19.6777L48.2585-4.03646Q49.4954-2.92969 50.5697-2.38444Q51.6439-1.83919 52.9297-1.83919Q54.6387-1.83919 55.7536-2.97852Q56.8685-4.11784 56.8685-5.8431L56.8685-64.4206Q56.8685-66.1621 55.7536-67.391Q54.6387-68.6198 52.8646-68.6198Q51.5788-68.6198 50.5941-68.0094Q49.6094-67.3991 48.2585-66.2109L30.778-50.6022Q30.3711-50.2441 29.7526-50.2441L18.5872-50.2441Q14.9577-50.2441 13.1429-48.3643Q11.3281-46.4844 11.3281-42.6107L11.3281-27.6204Q11.3281-23.7956 13.1429-21.932Q14.9577-20.0684 18.5872-20.0684ZM18.8151-25Q17.6595-25 17.1468-25.5371Q16.6341-26.0742 16.6341-27.2298L16.6341-43.0501Q16.6341-44.222 17.1468-44.7591Q17.6595-45.2962 18.8151-45.2962L31.0059-45.2962Q31.7871-45.2962 32.3975-45.4834Q33.0078-45.6706 33.6914-46.2891L50.3743-61.4746Q50.5371-61.6048 50.708-61.7188Q50.8789-61.8327 51.0742-61.8327Q51.6276-61.8327 51.6276-61.263L51.6276-9.24479Q51.6276-8.6263 51.123-8.6263Q50.765-8.6263 50.3906-9.00065L33.6914-24.0234Q32.5521-25 31.0059-25ZM70.2962-19.0592Q71.1589-18.4733 72.2087-18.6686Q73.2585-18.8639 73.9421-19.8242Q76.1393-22.7214 77.417-26.766Q78.6947-30.8105 78.6947-35.2539Q78.6947-39.6973 77.417-43.7256Q76.1393-47.7539 73.9421-50.6836Q73.2585-51.6439 72.2087-51.8392Q71.1589-52.0345 70.2962-51.416Q69.2871-50.6999 69.1406-49.585Q68.9941-48.4701 69.7917-47.4121Q71.5658-44.9544 72.5016-41.8457Q73.4375-38.737 73.4375-35.2539Q73.4375-31.7708 72.4854-28.6784Q71.5332-25.5859 69.7917-23.0957Q68.9941-22.0378 69.1406-20.9066Q69.2871-19.7754 70.2962-19.0592ZM84.082-9.06576Q85.0098-8.41471 86.0596-8.6263Q87.1094-8.83789 87.793-9.79818Q91.4551-14.7624 93.5384-21.4518Q95.6217-28.1413 95.6217-35.2539Q95.6217-42.3665 93.5628-49.0641Q91.5039-55.7617 87.793-60.7096Q87.1094-61.6699 86.0596-61.8815Q85.0098-62.0931 84.082-61.4421Q83.138-60.8236 83.0078-59.7493Q82.8776-58.6751 83.61-57.6172Q86.8652-53.125 88.6312-47.3226Q90.3971-41.5202 90.3971-35.2539Q90.3971-28.9876 88.5986-23.2015Q86.8001-17.4154 83.61-12.8906Q82.9102-11.8327 83.0241-10.7585Q83.138-9.68424 84.082-9.06576ZM98.0632 1.09049Q98.9583 1.72526 100.049 1.4974Q101.139 1.26953 101.807 0.260417Q105.111-4.58984 107.528-10.1969Q109.945-15.804 111.263-22.0785Q112.581-28.3529 112.581-35.2539Q112.581-42.1549 111.247-48.4294Q109.912-54.7038 107.479-60.2946Q105.046-65.8854 101.807-70.7682Q101.139-71.8099 100.049-72.0215Q98.9583-72.2331 98.0632-71.5983Q97.1191-70.9635 96.9889-69.873Q96.8587-68.7826 97.5749-67.7246Q100.505-63.2812 102.726-58.1787Q104.948-53.0762 106.177-47.347Q107.406-41.6178 107.406-35.2539Q107.406-28.9225 106.177-23.1771Q104.948-17.4316 102.726-12.3291Q100.505-7.22656 97.5749-2.7832Q96.8587-1.72526 96.9889-0.634766Q97.1191 0.455729 98.0632 1.09049Z"/>
  </g>
  <g id="Thin-S" transform="matrix(1 0 0 1 797.519 696)">
   <path d="M16.0471-21.2308L27.7722-21.2308Q28.5519-21.2308 29.1205-20.711L47.3113-4.53157Q48.1178-3.76922 48.9337-3.34236Q49.7496-2.91551 50.734-2.91551Q52.0555-2.91551 52.8368-3.81804Q53.618-4.72058 53.618-6.01531L53.618-64.3775Q53.618-65.7101 52.8368-66.6591Q52.0555-67.6081 50.7119-67.6081Q49.7275-67.6081 48.9581-67.1269Q48.1886-66.6457 47.3113-65.888L29.1205-49.3967Q28.6275-48.9526 27.7722-48.9526L16.0471-48.9526Q13.171-48.9526 11.7652-47.4924Q10.3594-46.0323 10.3594-43.0412L10.3594-27.0177Q10.3594-24.0754 11.7652-22.6531Q13.171-21.2308 16.0471-21.2308ZM16.1243-24.2896Q14.7319-24.2896 14.1869-24.8913Q13.6419-25.493 13.6419-26.8854L13.6419-43.2223Q13.6419-44.6525 14.1869-45.2542Q14.7319-45.8559 16.1243-45.8559L28.229-45.8559Q29.0748-45.8559 29.7174-46.0323Q30.3601-46.2087 31.0437-46.8703L48.8675-63.1537Q49.1164-63.3269 49.3196-63.4947Q49.5227-63.6624 49.7826-63.6624Q50.4221-63.6624 50.4221-62.9851L50.4221-7.58726Q50.4221-6.86114 49.8315-6.86114Q49.4519-6.86114 48.9053-7.34312L31.0437-23.3131Q29.8828-24.2896 28.229-24.2896ZM68.5956-19.4037Q69.1784-19.0115 69.8085-19.1422Q70.4385-19.2729 70.8638-19.8242Q73.0611-22.6783 74.4141-26.6476Q75.7671-30.6168 75.7671-35.2539Q75.7671-39.891 74.4141-43.8547Q73.0611-47.8185 70.8638-50.6836Q70.4385-51.2349 69.8085-51.3656Q69.1784-51.4963 68.5956-51.0931Q67.9955-50.6568 67.9136-49.9724Q67.8317-49.2881 68.3279-48.6391Q70.4464-45.7079 71.4899-42.4592Q72.5334-39.2106 72.5334-35.2539Q72.5334-31.2973 71.4844-28.0541Q70.4354-24.811 68.3279-21.8687Q67.8317-21.2198 67.9136-20.5299Q67.9955-19.84 68.5956-19.4037ZM81.2405-9.30255Q81.8454-8.88829 82.4754-9.02454Q83.1055-9.16079 83.5307-9.71207Q87.1929-14.5256 89.3838-21.2796Q91.5748-28.0336 91.5748-35.2539Q91.5748-42.4742 89.4082-49.2148Q87.2417-55.9555 83.5307-60.7957Q83.1055-61.347 82.4754-61.4833Q81.8454-61.6195 81.2405-61.2053Q80.6625-60.802 80.5861-60.1476Q80.5097-59.4931 80.9838-58.8442Q84.5404-54.0937 86.4463-48.0114Q88.3521-41.9292 88.3521-35.2539Q88.3521-28.5786 86.4352-22.5019Q84.5183-16.4252 80.9838-11.6636Q80.5207-11.0147 80.5916-10.3602Q80.6625-9.70577 81.2405-9.30255ZM94.1454 0.918284Q94.7392 1.29473 95.3991 1.15297Q96.0591 1.01121 96.4466 0.411101Q99.5999-4.52526 102.081-9.99244Q104.563-15.4596 105.978-21.7017Q107.394-27.9439 107.394-35.2539Q107.394-42.5639 105.973-48.8061Q104.552-55.0482 102.065-60.5099Q99.5779-65.9715 96.4466-70.9189Q96.0591-71.5301 95.3991-71.6663Q94.7392-71.8025 94.1454-71.4261Q93.5673-71.0496 93.4909-70.3574Q93.4145-69.6651 93.8508-69.0162Q96.7805-64.3145 99.1313-59.1797Q101.482-54.0449 102.851-48.1327Q104.22-42.2206 104.22-35.2539Q104.22-28.2983 102.851-22.3806Q101.482-16.463 99.1313-11.3281Q96.7805-6.1933 93.8508-1.49162Q93.4145-0.842679 93.4909-0.150422Q93.5673 0.541835 94.1454 0.918284Z"/>
  </g>
  <g id="Ultralight-S" transform="matrix(1 0 0 1 502.377 696)">
   <path d="M14.7461-21.8262L26.7578-21.8262Q27.6367-21.8262 28.2715-21.2402L46.8262-4.78516Q47.4121-4.19922 48.0957-3.83301Q48.7793-3.4668 49.6094-3.4668Q50.7324-3.4668 51.3428-4.24805Q51.9531-5.0293 51.9531-6.10352L51.9531-64.3555Q51.9531-65.4785 51.3428-66.2842Q50.7324-67.0898 49.6094-67.0898Q48.7793-67.0898 48.1201-66.6748Q47.4609-66.2598 46.8262-65.7227L28.2715-48.7793Q27.7344-48.291 26.7578-48.291L14.7461-48.291Q12.2559-48.291 11.0596-47.0459Q9.86328-45.8008 9.86328-43.2617L9.86328-26.709Q9.86328-24.2188 11.0596-23.0225Q12.2559-21.8262 14.7461-21.8262ZM14.7461-23.9258Q13.2324-23.9258 12.6709-24.5605Q12.1094-25.1953 12.1094-26.709L12.1094-43.3105Q12.1094-44.873 12.6709-45.5078Q13.2324-46.1426 14.7461-46.1426L26.8066-46.1426Q27.6855-46.1426 28.3447-46.3135Q29.0039-46.4844 29.6875-47.168L48.0957-64.0137Q48.3887-64.209 48.6084-64.4043Q48.8281-64.5996 49.1211-64.5996Q49.8047-64.5996 49.8047-63.8672L49.8047-6.73828Q49.8047-5.95703 49.1699-5.95703Q48.7793-5.95703 48.1445-6.49414L29.6875-22.9492Q28.5156-23.9258 26.8066-23.9258ZM67.7246-19.5801Q68.1641-19.2871 68.5791-19.3848Q68.9941-19.4824 69.2871-19.8242Q71.4844-22.6562 72.876-26.5869Q74.2676-30.5176 74.2676-35.2539Q74.2676-39.9902 72.876-43.9209Q71.4844-47.8516 69.2871-50.6836Q68.9941-51.0254 68.5791-51.123Q68.1641-51.2207 67.7246-50.9277Q67.334-50.6348 67.2852-50.1709Q67.2363-49.707 67.5781-49.2676Q69.873-46.0938 70.9717-42.7734Q72.0703-39.4531 72.0703-35.2539Q72.0703-31.0547 70.9717-27.7344Q69.873-24.4141 67.5781-21.2402Q67.2363-20.8008 67.2852-20.3369Q67.334-19.873 67.7246-19.5801ZM79.7852-9.42383Q80.2246-9.13086 80.6396-9.22852Q81.0547-9.32617 81.3477-9.66797Q85.0098-14.4043 87.2559-21.1914Q89.502-27.9785 89.502-35.2539Q89.502-42.5293 87.2803-49.292Q85.0586-56.0547 81.3477-60.8398Q81.0547-61.1816 80.6396-61.2793Q80.2246-61.377 79.7852-61.084Q79.3945-60.791 79.3457-60.3516Q79.2969-59.9121 79.6387-59.4727Q83.3496-54.5898 85.3271-48.3643Q87.3047-42.1387 87.3047-35.2539Q87.3047-28.3691 85.3271-22.1436Q83.3496-15.918 79.6387-11.0352Q79.2969-10.5957 79.3457-10.1562Q79.3945-9.7168 79.7852-9.42383ZM92.1387 0.830078Q92.5781 1.07422 93.0176 0.976562Q93.457 0.878906 93.7012 0.488281Q96.7773-4.49219 99.292-9.8877Q101.807-15.2832 103.271-21.5088Q104.736-27.7344 104.736-35.2539Q104.736-42.7734 103.271-48.999Q101.807-55.2246 99.292-60.6201Q96.7773-66.0156 93.7012-70.9961Q93.457-71.3867 93.0176-71.4844Q92.5781-71.582 92.1387-71.3379Q91.748-71.0938 91.6992-70.6055Q91.6504-70.1172 91.9434-69.6777Q94.873-64.8438 97.29-59.6924Q99.707-54.541 101.147-48.5352Q102.588-42.5293 102.588-35.2539Q102.588-27.9785 101.147-21.9727Q99.707-15.9668 97.29-10.8154Q94.873-5.66406 91.9434-0.830078Q91.6504-0.390625 91.6992 0.0976562Q91.748 0.585938 92.1387 0.830078Z"/>
  </g>
 </g>
</svg>
