<?xml version="1.0" encoding="UTF-8"?>
<!--Generator: Apple Native CoreSVG 175.5-->
<!DOCTYPE svg
PUBLIC "-//W3C//DTD SVG 1.1//EN"
       "http://www.w3.org/Graphics/SVG/1.1/DTD/svg11.dtd">
<svg version="1.1" xmlns="http://www.w3.org/2000/svg" xmlns:xlink="http://www.w3.org/1999/xlink" width="11.686" height="11.6987">
 <g>
  <rect height="11.6987" opacity="0" width="11.686" x="0" y="0"/>
  <path d="M3.19287 2.10107C2.67236 2.10107 2.28516 2.50732 2.28516 3.06592C2.28516 3.89111 3.17383 4.61475 3.80225 5.05273C3.86572 5.09717 3.9292 5.12891 3.96729 5.12891C4.01172 5.12891 4.0625 5.09082 4.11963 5.05273C4.76074 4.65918 5.63037 3.89111 5.63037 3.06592C5.63037 2.50732 5.24316 2.10107 4.70996 2.10107C4.38623 2.10107 4.11328 2.29785 3.96094 2.58984C3.80225 2.29785 3.54199 2.10107 3.19287 2.10107ZM2.68506 7.11572L8.9375 7.11572C9.15967 7.11572 9.33105 6.94434 9.33105 6.72217C9.33105 6.50635 9.15967 6.33496 8.9375 6.33496L2.68506 6.33496C2.45654 6.33496 2.28516 6.50635 2.28516 6.72217C2.28516 6.94434 2.45654 7.11572 2.68506 7.11572ZM2.68506 9.28662L7.26807 9.28662C7.49023 9.28662 7.66162 9.11523 7.66162 8.89941C7.66162 8.67725 7.49023 8.50586 7.26807 8.50586L2.68506 8.50586C2.45654 8.50586 2.28516 8.67725 2.28516 8.89941C2.28516 9.11523 2.45654 9.28662 2.68506 9.28662ZM1.99316 11.6987L9.69287 11.6987C11.0259 11.6987 11.686 11.0386 11.686 9.73096L11.686 1.98047C11.686 0.672852 11.0259 0.0126953 9.69287 0.0126953L1.99316 0.0126953C0.666504 0.0126953 0 0.666504 0 1.98047L0 9.73096C0 11.0449 0.666504 11.6987 1.99316 11.6987ZM2.00586 10.6768C1.37109 10.6768 1.02197 10.3403 1.02197 9.68018L1.02197 2.03125C1.02197 1.37109 1.37109 1.03467 2.00586 1.03467L9.68018 1.03467C10.3086 1.03467 10.6641 1.37109 10.6641 2.03125L10.6641 9.68018C10.6641 10.3403 10.3086 10.6768 9.68018 10.6768Z" fill="#000000" fill-opacity="0.85"/>
 </g>
</svg>
