<?xml version="1.0" encoding="UTF-8"?>
<!--Generator: Apple Native CoreSVG 175.5-->
<!DOCTYPE svg
PUBLIC "-//W3C//DTD SVG 1.1//EN"
       "http://www.w3.org/Graphics/SVG/1.1/DTD/svg11.dtd">
<svg version="1.1" xmlns="http://www.w3.org/2000/svg" xmlns:xlink="http://www.w3.org/1999/xlink" width="12.9492" height="12.9556">
 <g>
  <rect height="12.9556" opacity="0" width="12.9492" x="0" y="0"/>
  <path d="M6.47461 12.9492C10.0166 12.9492 12.9492 10.0103 12.9492 6.47461C12.9492 2.93262 10.0103 0 6.46826 0C2.93262 0 0 2.93262 0 6.47461C0 10.0103 2.93896 12.9492 6.47461 12.9492ZM4.3418 9.14062C4.0498 9.14062 3.82129 8.90576 3.82129 8.61377C3.82129 8.47412 3.87207 8.34082 3.97363 8.24561L5.73193 6.48096L3.97363 4.72266C3.87207 4.62109 3.82129 4.49414 3.82129 4.35449C3.82129 4.05615 4.0498 3.83398 4.3418 3.83398C4.48779 3.83398 4.60205 3.88477 4.70361 3.97998L6.47461 5.74463L8.2583 3.97363C8.36621 3.86572 8.48047 3.82129 8.62012 3.82129C8.91211 3.82129 9.14697 4.0498 9.14697 4.3418C9.14697 4.48779 9.10254 4.60205 8.98828 4.71631L7.22363 6.48096L8.98193 8.23926C9.08984 8.33447 9.14062 8.46777 9.14062 8.61377C9.14062 8.90576 8.90576 9.14062 8.60742 9.14062C8.46143 9.14062 8.32812 9.08984 8.23291 8.98828L6.47461 7.22363L4.72266 8.98828C4.62109 9.08984 4.48779 9.14062 4.3418 9.14062Z" fill="#000000" fill-opacity="0.85"/>
 </g>
</svg>
