<?xml version="1.0" encoding="UTF-8"?>
<!--Generator: Apple Native CoreSVG 175-->
<!DOCTYPE svg
PUBLIC "-//W3C//DTD SVG 1.1//EN"
       "http://www.w3.org/Graphics/SVG/1.1/DTD/svg11.dtd">
<svg version="1.1" xmlns="http://www.w3.org/2000/svg" xmlns:xlink="http://www.w3.org/1999/xlink" width="3300" height="2200">
 <!--glyph: "uni1001AA.medium", point size: 100.0, font version: "17.1d1e1", template writer version: "65.1"-->
 <g id="Notes">
  <rect height="2200" id="artboard" style="fill:white;opacity:1" width="3300" x="0" y="0"/>
  <line style="fill:none;stroke:black;opacity:1;stroke-width:0.5;" x1="263" x2="3036" y1="292" y2="292"/>
  <text style="stroke:none;fill:black;font-family:sans-serif;font-size:13;font-weight:bold;" transform="matrix(1 0 0 1 263 322)">Weight/Scale Variations</text>
  <text style="stroke:none;fill:black;font-family:sans-serif;font-size:13;text-anchor:middle;" transform="matrix(1 0 0 1 559.711 322)">Ultralight</text>
  <text style="stroke:none;fill:black;font-family:sans-serif;font-size:13;text-anchor:middle;" transform="matrix(1 0 0 1 856.422 322)">Thin</text>
  <text style="stroke:none;fill:black;font-family:sans-serif;font-size:13;text-anchor:middle;" transform="matrix(1 0 0 1 1153.13 322)">Light</text>
  <text style="stroke:none;fill:black;font-family:sans-serif;font-size:13;text-anchor:middle;" transform="matrix(1 0 0 1 1449.84 322)">Regular</text>
  <text style="stroke:none;fill:black;font-family:sans-serif;font-size:13;text-anchor:middle;" transform="matrix(1 0 0 1 1746.56 322)">Medium</text>
  <text style="stroke:none;fill:black;font-family:sans-serif;font-size:13;text-anchor:middle;" transform="matrix(1 0 0 1 2043.27 322)">Semibold</text>
  <text style="stroke:none;fill:black;font-family:sans-serif;font-size:13;text-anchor:middle;" transform="matrix(1 0 0 1 2339.98 322)">Bold</text>
  <text style="stroke:none;fill:black;font-family:sans-serif;font-size:13;text-anchor:middle;" transform="matrix(1 0 0 1 2636.69 322)">Heavy</text>
  <text style="stroke:none;fill:black;font-family:sans-serif;font-size:13;text-anchor:middle;" transform="matrix(1 0 0 1 2933.4 322)">Black</text>
  <line style="fill:none;stroke:black;opacity:1;stroke-width:0.5;" x1="263" x2="3036" y1="1903" y2="1903"/>
  <g transform="matrix(1 0 0 1 263 1933)">
   <path d="M9.24805 0.830078Q10.8691 0.830078 12.2949 0.214844Q13.7207-0.400391 14.8096-1.49414Q15.8984-2.58789 16.5186-4.01367Q17.1387-5.43945 17.1387-7.05078Q17.1387-8.66211 16.5186-10.0879Q15.8984-11.5137 14.8047-12.6074Q13.7109-13.7012 12.2852-14.3164Q10.8594-14.9316 9.23828-14.9316Q7.62695-14.9316 6.20117-14.3164Q4.77539-13.7012 3.69141-12.6074Q2.60742-11.5137 1.9873-10.0879Q1.36719-8.66211 1.36719-7.05078Q1.36719-5.43945 1.9873-4.01367Q2.60742-2.58789 3.69629-1.49414Q4.78516-0.400391 6.21094 0.214844Q7.63672 0.830078 9.24805 0.830078ZM9.24805-0.654297Q7.91992-0.654297 6.7627-1.14746Q5.60547-1.64062 4.73145-2.51953Q3.85742-3.39844 3.36426-4.56055Q2.87109-5.72266 2.87109-7.05078Q2.87109-8.37891 3.35938-9.54102Q3.84766-10.7031 4.72168-11.582Q5.5957-12.4609 6.75293-12.9541Q7.91016-13.4473 9.23828-13.4473Q10.5762-13.4473 11.7334-12.9541Q12.8906-12.4609 13.7695-11.582Q14.6484-10.7031 15.1465-9.54102Q15.6445-8.37891 15.6445-7.05078Q15.6445-5.72266 15.1514-4.56055Q14.6582-3.39844 13.7842-2.51953Q12.9102-1.64062 11.748-1.14746Q10.5859-0.654297 9.24805-0.654297ZM5.6543-7.05078Q5.6543-6.72852 5.85938-6.52832Q6.06445-6.32812 6.40625-6.32812L8.51562-6.32812L8.51562-4.20898Q8.51562-3.88672 8.71094-3.67676Q8.90625-3.4668 9.23828-3.4668Q9.56055-3.4668 9.77051-3.67676Q9.98047-3.88672 9.98047-4.20898L9.98047-6.32812L12.0898-6.32812Q12.4219-6.32812 12.627-6.52832Q12.832-6.72852 12.832-7.05078Q12.832-7.38281 12.627-7.58789Q12.4219-7.79297 12.0898-7.79297L9.98047-7.79297L9.98047-9.90234Q9.98047-10.2344 9.77051-10.4443Q9.56055-10.6543 9.23828-10.6543Q8.90625-10.6543 8.71094-10.4443Q8.51562-10.2344 8.51562-9.90234L8.51562-7.79297L6.40625-7.79297Q6.06445-7.79297 5.85938-7.58789Q5.6543-7.38281 5.6543-7.05078Z"/>
  </g>
  <g transform="matrix(1 0 0 1 281.867 1933)">
   <path d="M11.709 2.91016Q13.75 2.91016 15.5518 2.12891Q17.3535 1.34766 18.7305-0.0292969Q20.1074-1.40625 20.8887-3.20801Q21.6699-5.00977 21.6699-7.05078Q21.6699-9.0918 20.8887-10.8936Q20.1074-12.6953 18.7305-14.0723Q17.3535-15.4492 15.5469-16.2305Q13.7402-17.0117 11.6992-17.0117Q9.6582-17.0117 7.85645-16.2305Q6.05469-15.4492 4.68262-14.0723Q3.31055-12.6953 2.5293-10.8936Q1.74805-9.0918 1.74805-7.05078Q1.74805-5.00977 2.5293-3.20801Q3.31055-1.40625 4.6875-0.0292969Q6.06445 1.34766 7.86621 2.12891Q9.66797 2.91016 11.709 2.91016ZM11.709 1.25Q9.98047 1.25 8.47656 0.605469Q6.97266-0.0390625 5.83496-1.17676Q4.69727-2.31445 4.05762-3.81836Q3.41797-5.32227 3.41797-7.05078Q3.41797-8.7793 4.05762-10.2832Q4.69727-11.7871 5.83008-12.9297Q6.96289-14.0723 8.4668-14.7119Q9.9707-15.3516 11.6992-15.3516Q13.4277-15.3516 14.9316-14.7119Q16.4355-14.0723 17.5781-12.9297Q18.7207-11.7871 19.3652-10.2832Q20.0098-8.7793 20.0098-7.05078Q20.0098-5.32227 19.3701-3.81836Q18.7305-2.31445 17.5928-1.17676Q16.4551-0.0390625 14.9463 0.605469Q13.4375 1.25 11.709 1.25ZM7.17773-7.05078Q7.17773-6.69922 7.41211-6.47461Q7.64648-6.25 8.01758-6.25L10.8887-6.25L10.8887-3.36914Q10.8887-2.99805 11.1133-2.76855Q11.3379-2.53906 11.6895-2.53906Q12.0605-2.53906 12.29-2.76855Q12.5195-2.99805 12.5195-3.36914L12.5195-6.25L15.4004-6.25Q15.7715-6.25 16.001-6.47461Q16.2305-6.69922 16.2305-7.05078Q16.2305-7.42188 16.001-7.65137Q15.7715-7.88086 15.4004-7.88086L12.5195-7.88086L12.5195-10.752Q12.5195-11.1328 12.29-11.3623Q12.0605-11.5918 11.6895-11.5918Q11.3379-11.5918 11.1133-11.3574Q10.8887-11.123 10.8887-10.752L10.8887-7.88086L8.01758-7.88086Q7.63672-7.88086 7.40723-7.65137Q7.17773-7.42188 7.17773-7.05078Z"/>
  </g>
  <g transform="matrix(1 0 0 1 305.646 1933)">
   <path d="M14.9707 5.66406Q17.0605 5.66406 18.96 5.01465Q20.8594 4.36523 22.4512 3.19336Q24.043 2.02148 25.2197 0.429688Q26.3965-1.16211 27.0459-3.06641Q27.6953-4.9707 27.6953-7.05078Q27.6953-9.14062 27.0459-11.04Q26.3965-12.9395 25.2197-14.5312Q24.043-16.123 22.4512-17.2998Q20.8594-18.4766 18.9551-19.126Q17.0508-19.7754 14.9609-19.7754Q12.8711-19.7754 10.9717-19.126Q9.07227-18.4766 7.48535-17.2998Q5.89844-16.123 4.72168-14.5312Q3.54492-12.9395 2.90039-11.04Q2.25586-9.14062 2.25586-7.05078Q2.25586-4.9707 2.90527-3.06641Q3.55469-1.16211 4.72656 0.429688Q5.89844 2.02148 7.49023 3.19336Q9.08203 4.36523 10.9814 5.01465Q12.8809 5.66406 14.9707 5.66406ZM14.9707 3.84766Q13.1641 3.84766 11.5283 3.2959Q9.89258 2.74414 8.53516 1.74805Q7.17773 0.751953 6.17676-0.610352Q5.17578-1.97266 4.62891-3.6084Q4.08203-5.24414 4.08203-7.05078Q4.08203-8.86719 4.62891-10.5029Q5.17578-12.1387 6.17188-13.501Q7.16797-14.8633 8.52539-15.8594Q9.88281-16.8555 11.5186-17.4023Q13.1543-17.9492 14.9609-17.9492Q16.7773-17.9492 18.4131-17.4023Q20.0488-16.8555 21.4111-15.8594Q22.7734-14.8633 23.7695-13.501Q24.7656-12.1387 25.3174-10.5029Q25.8691-8.86719 25.8691-7.05078Q25.8789-5.24414 25.332-3.6084Q24.7852-1.97266 23.7842-0.610352Q22.7832 0.751953 21.4209 1.74805Q20.0586 2.74414 18.4229 3.2959Q16.7871 3.84766 14.9707 3.84766ZM9.19922-7.05078Q9.19922-6.66992 9.45801-6.4209Q9.7168-6.17188 10.1172-6.17188L14.0625-6.17188L14.0625-2.2168Q14.0625-1.81641 14.3115-1.55762Q14.5605-1.29883 14.9512-1.29883Q15.3516-1.29883 15.6104-1.55273Q15.8691-1.80664 15.8691-2.2168L15.8691-6.17188L19.8242-6.17188Q20.2246-6.17188 20.4785-6.4209Q20.7324-6.66992 20.7324-7.05078Q20.7324-7.46094 20.4785-7.71484Q20.2246-7.96875 19.8242-7.96875L15.8691-7.96875L15.8691-11.9141Q15.8691-12.3242 15.6104-12.583Q15.3516-12.8418 14.9512-12.8418Q14.5605-12.8418 14.3115-12.583Q14.0625-12.3242 14.0625-11.9141L14.0625-7.96875L10.1172-7.96875Q9.70703-7.96875 9.45312-7.71484Q9.19922-7.46094 9.19922-7.05078Z"/>
  </g>
  <text style="stroke:none;fill:black;font-family:sans-serif;font-size:13;font-weight:bold;" transform="matrix(1 0 0 1 263 1953)">Design Variations</text>
  <text style="stroke:none;fill:black;font-family:sans-serif;font-size:13;" transform="matrix(1 0 0 1 263 1971)">Symbols are supported in up to nine weights and three scales.</text>
  <text style="stroke:none;fill:black;font-family:sans-serif;font-size:13;" transform="matrix(1 0 0 1 263 1989)">For optimal layout with text and other symbols, vertically align</text>
  <text style="stroke:none;fill:black;font-family:sans-serif;font-size:13;" transform="matrix(1 0 0 1 263 2007)">symbols with the adjacent text.</text>
  <line style="fill:none;stroke:#00AEEF;stroke-width:0.5;opacity:1.0;" x1="776" x2="776" y1="1919" y2="1933"/>
  <g transform="matrix(1 0 0 1 776 1933)">
   <path d="M3.31055 0.15625Q3.70117 0.15625 3.91602-0.00976562Q4.13086-0.175781 4.26758-0.585938L5.52734-4.0332L11.2891-4.0332L12.5488-0.585938Q12.6855-0.175781 12.9004-0.00976562Q13.1152 0.15625 13.4961 0.15625Q13.8867 0.15625 14.1162-0.0585938Q14.3457-0.273438 14.3457-0.644531Q14.3457-0.869141 14.2383-1.17188L9.6582-13.3691Q9.48242-13.8184 9.17969-14.043Q8.87695-14.2676 8.4082-14.2676Q7.5-14.2676 7.17773-13.3789L2.59766-1.16211Q2.49023-0.859375 2.49023-0.634766Q2.49023-0.263672 2.70996-0.0537109Q2.92969 0.15625 3.31055 0.15625ZM6.00586-5.51758L8.37891-12.0898L8.42773-12.0898L10.8008-5.51758Z"/>
  </g>
  <line style="fill:none;stroke:#00AEEF;stroke-width:0.5;opacity:1.0;" x1="793.197" x2="793.197" y1="1919" y2="1933"/>
  <text style="stroke:none;fill:black;font-family:sans-serif;font-size:13;font-weight:bold;" transform="matrix(1 0 0 1 776 1953)">Margins</text>
  <text style="stroke:none;fill:black;font-family:sans-serif;font-size:13;" transform="matrix(1 0 0 1 776 1971)">Leading and trailing margins on the left and right side of each symbol</text>
  <text style="stroke:none;fill:black;font-family:sans-serif;font-size:13;" transform="matrix(1 0 0 1 776 1989)">can be adjusted by modifying the x-location of the margin guidelines.</text>
  <text style="stroke:none;fill:black;font-family:sans-serif;font-size:13;" transform="matrix(1 0 0 1 776 2007)">Modifications are automatically applied proportionally to all</text>
  <text style="stroke:none;fill:black;font-family:sans-serif;font-size:13;" transform="matrix(1 0 0 1 776 2025)">scales and weights.</text>
  <g transform="matrix(1 0 0 1 1289 1933)">
   <path d="M2.8418 1.86523L4.54102 3.57422Q5.18555 4.22852 5.90332 4.17969Q6.62109 4.13086 7.31445 3.35938L18.0078-8.42773L17.041-9.4043L6.42578 2.27539Q6.16211 2.57812 5.89355 2.61719Q5.625 2.65625 5.27344 2.30469L4.10156 1.14258Q3.75 0.791016 3.79395 0.522461Q3.83789 0.253906 4.14062-0.0195312L15.6152-10.8203L14.6387-11.7871L3.04688-0.898438Q2.30469-0.214844 2.25098 0.498047Q2.19727 1.21094 2.8418 1.86523ZM9.25781-16.3281Q8.94531-16.0254 8.90625-15.6348Q8.86719-15.2441 9.04297-14.9512Q9.21875-14.6777 9.55566-14.541Q9.89258-14.4043 10.3809-14.5215Q11.4746-14.7754 12.5977-14.7314Q13.7207-14.6875 14.7949-13.9844L14.209-12.5293Q13.9551-11.9043 14.0674-11.4404Q14.1797-10.9766 14.5801-10.5664L16.875-8.25195Q17.2363-7.88086 17.5781-7.82227Q17.9199-7.76367 18.3398-7.8418L19.4043-8.03711L20.0684-7.36328L20.0293-6.80664Q20-6.43555 20.1221-6.12305Q20.2441-5.81055 20.6055-5.44922L21.3672-4.70703Q21.7285-4.3457 22.1533-4.33105Q22.5781-4.31641 22.9297-4.66797L25.8398-7.58789Q26.1914-7.93945 26.1816-8.35449Q26.1719-8.76953 25.8105-9.13086L25.0391-9.89258Q24.6875-10.2539 24.3799-10.3857Q24.0723-10.5176 23.7109-10.4883L23.1348-10.4395L22.4902-11.0742L22.7344-12.1973Q22.832-12.6172 22.6953-12.9834Q22.5586-13.3496 22.1191-13.7891L19.9219-15.9766Q18.6719-17.2168 17.2607-17.8369Q15.8496-18.457 14.4189-18.4814Q12.9883-18.5059 11.665-17.959Q10.3418-17.4121 9.25781-16.3281ZM10.752-15.957Q11.6602-16.6211 12.7002-16.9043Q13.7402-17.1875 14.8047-17.085Q15.8691-16.9824 16.8701-16.5137Q17.8711-16.0449 18.7012-15.2051L21.1328-12.793Q21.3086-12.6172 21.3525-12.4512Q21.3965-12.2852 21.3379-12.0312L21.0156-10.5469L22.5195-9.0625L23.5059-9.12109Q23.6914-9.13086 23.7891-9.09668Q23.8867-9.0625 24.0332-8.91602L24.6094-8.33984L22.168-5.89844L21.5918-6.47461Q21.4453-6.62109 21.4062-6.71875Q21.3672-6.81641 21.377-7.01172L21.4453-7.98828L19.9512-9.47266L18.4277-9.21875Q18.1836-9.16992 18.042-9.2041Q17.9004-9.23828 17.7148-9.41406L15.7129-11.416Q15.5176-11.5918 15.4932-11.7529Q15.4688-11.9141 15.5859-12.1875L16.4648-14.2773Q15.293-15.3711 13.8281-15.791Q12.3633-16.2109 10.8398-15.7617Q10.7227-15.7324 10.6885-15.8057Q10.6543-15.8789 10.752-15.957Z"/>
  </g>
  <text style="stroke:none;fill:black;font-family:sans-serif;font-size:13;font-weight:bold;" transform="matrix(1 0 0 1 1289 1953)">Exporting</text>
  <text style="stroke:none;fill:black;font-family:sans-serif;font-size:13;" transform="matrix(1 0 0 1 1289 1971)">Symbols should be outlined when exporting to ensure the</text>
  <text style="stroke:none;fill:black;font-family:sans-serif;font-size:13;" transform="matrix(1 0 0 1 1289 1989)">design is preserved when submitting to Xcode.</text>
  <text id="template-version" style="stroke:none;fill:black;font-family:sans-serif;font-size:13;text-anchor:end;" transform="matrix(1 0 0 1 3036 1933)">Template v.2.0</text>
  <text style="stroke:none;fill:black;font-family:sans-serif;font-size:13;text-anchor:end;" transform="matrix(1 0 0 1 3036 1951)">Requires Xcode 12 or greater</text>
  <text id="descriptive-name" style="stroke:none;fill:black;font-family:sans-serif;font-size:13;text-anchor:end;" transform="matrix(1 0 0 1 3036 1969)">Generated from globe</text>
  <text style="stroke:none;fill:black;font-family:sans-serif;font-size:13;text-anchor:end;" transform="matrix(1 0 0 1 3036 1987)">Typeset at 100 points</text>
  <text style="stroke:none;fill:black;font-family:sans-serif;font-size:13;" transform="matrix(1 0 0 1 263 726)">Small</text>
  <text style="stroke:none;fill:black;font-family:sans-serif;font-size:13;" transform="matrix(1 0 0 1 263 1156)">Medium</text>
  <text style="stroke:none;fill:black;font-family:sans-serif;font-size:13;" transform="matrix(1 0 0 1 263 1586)">Large</text>
 </g>
 <g id="Guides">
  <g id="H-reference" style="fill:#27AAE1;stroke:none;" transform="matrix(1 0 0 1 339 696)">
   <path d="M0.976562 0L3.66211 0L29.3457-67.1387L30.0293-67.1387L30.0293-70.459L28.125-70.459ZM11.6699-24.4629L46.9727-24.4629L46.2402-26.709L12.4512-26.709ZM55.127 0L57.7637 0L30.6152-70.459L29.4434-70.459L29.4434-67.1387Z"/>
  </g>
  <line id="Baseline-S" style="fill:none;stroke:#27AAE1;opacity:1;stroke-width:0.5;" x1="263" x2="3036" y1="696" y2="696"/>
  <line id="Capline-S" style="fill:none;stroke:#27AAE1;opacity:1;stroke-width:0.5;" x1="263" x2="3036" y1="625.541" y2="625.541"/>
  <g id="H-reference" style="fill:#27AAE1;stroke:none;" transform="matrix(1 0 0 1 339 1126)">
   <path d="M0.976562 0L3.66211 0L29.3457-67.1387L30.0293-67.1387L30.0293-70.459L28.125-70.459ZM11.6699-24.4629L46.9727-24.4629L46.2402-26.709L12.4512-26.709ZM55.127 0L57.7637 0L30.6152-70.459L29.4434-70.459L29.4434-67.1387Z"/>
  </g>
  <line id="Baseline-M" style="fill:none;stroke:#27AAE1;opacity:1;stroke-width:0.5;" x1="263" x2="3036" y1="1126" y2="1126"/>
  <line id="Capline-M" style="fill:none;stroke:#27AAE1;opacity:1;stroke-width:0.5;" x1="263" x2="3036" y1="1055.54" y2="1055.54"/>
  <g id="H-reference" style="fill:#27AAE1;stroke:none;" transform="matrix(1 0 0 1 339 1556)">
   <path d="M0.976562 0L3.66211 0L29.3457-67.1387L30.0293-67.1387L30.0293-70.459L28.125-70.459ZM11.6699-24.4629L46.9727-24.4629L46.2402-26.709L12.4512-26.709ZM55.127 0L57.7637 0L30.6152-70.459L29.4434-70.459L29.4434-67.1387Z"/>
  </g>
  <line id="Baseline-L" style="fill:none;stroke:#27AAE1;opacity:1;stroke-width:0.5;" x1="263" x2="3036" y1="1556" y2="1556"/>
  <line id="Capline-L" style="fill:none;stroke:#27AAE1;opacity:1;stroke-width:0.5;" x1="263" x2="3036" y1="1485.54" y2="1485.54"/>
  <line id="left-margin" style="fill:none;stroke:#00AEEF;stroke-width:0.5;opacity:1.0;" x1="1391.32" x2="1391.32" y1="1030.79" y2="1150.12"/>
  <line id="right-margin" style="fill:none;stroke:#00AEEF;stroke-width:0.5;opacity:1.0;" x1="1508.37" x2="1508.37" y1="1030.79" y2="1150.12"/>
 </g>
 <g id="Symbols">
  <g id="Black-L" transform="matrix(1 0 0 1 2854.19 1556)">
   <path d="M79.1953 22.0792Q86.2272 22.0792 92.2939 17.6659Q98.3606 13.2526 102.975 5.42421Q107.59-2.4042 110.17-12.7922Q112.751-23.1802 112.751-35.1089Q112.751-47.1167 110.181-57.5442Q107.612-67.9718 102.986-75.8112Q98.3606-83.6506 92.3043-88.0736Q86.2479-92.4966 79.1953-92.4966Q72.2219-92.4966 66.1259-88.0736Q60.03-83.6506 55.4154-75.8112Q50.8009-67.9718 48.2306-57.5442Q45.6603-47.1167 45.6603-35.1089Q45.6603-23.1802 48.2306-12.7922Q50.8009-2.4042 55.4264 5.42421Q60.052 13.2526 66.137 17.6659Q72.2219 22.0792 79.1953 22.0792ZM79.1953-82.2491Q83.5365-82.2491 87.5891-78.3554Q91.6418-74.4618 94.856-67.777Q98.0701-61.0923 99.9535-52.6697Q101.837-44.2471 101.837-35.1089Q101.837-26.0795 99.9535-17.6977Q98.0701-9.31602 94.856-2.63971Q91.6418 4.0366 87.5891 7.93412Q83.5365 11.8316 79.1953 11.8316Q74.8762 11.8316 70.8222 7.96333Q66.7683 4.09501 63.5548-2.5813Q60.3413-9.25762 58.4586-17.6685Q56.5758-26.0795 56.5758-35.1089Q56.5758-44.2471 58.4586-52.6697Q60.3413-61.0923 63.5548-67.777Q66.7683-74.4618 70.8222-78.3554Q74.8762-82.2491 79.1953-82.2491ZM73.8193-91.6691L73.8193 20.93L84.5727 20.93L84.5727-91.6691ZM79.1953-18.5625Q68.8882-18.5625 59.5552-16.9755Q50.2222-15.3885 42.9984-12.476Q35.7747-9.56337 31.6437-5.5709L39.779 1.23478Q45.4547-2.98812 56.0537-5.39734Q66.6526-7.80656 79.1953-7.80656Q91.76-7.80656 102.388-5.39734Q113.016-2.98812 118.632 1.23478L126.769-5.5709Q122.638-9.56337 115.403-12.476Q108.168-15.3885 98.8757-16.9755Q89.5829-18.5625 79.1953-18.5625ZM135.543-40.647L22.8494-40.647L22.8494-29.8924L135.543-29.8924ZM79.1953-51.6552Q89.5829-51.6552 98.8757-53.2422Q108.168-54.8292 115.403-57.771Q122.638-60.7128 126.769-64.6468L118.632-71.4525Q113.016-67.2296 102.388-64.8204Q91.76-62.4112 79.1953-62.4112Q66.711-62.4112 56.1121-64.8204Q45.5131-67.2296 39.779-71.4525L31.6437-64.6468Q35.7747-60.7128 42.9984-57.771Q50.2222-54.8292 59.5552-53.2422Q68.8882-51.6552 79.1953-51.6552ZM79.1953 32.7252Q93.2356 32.7252 105.521 27.4303Q117.806 22.1354 127.174 12.7571Q136.542 3.37874 141.848-8.90649Q147.154-21.1917 147.154-35.2113Q147.154-49.2309 141.848-61.5161Q136.542-73.8013 127.164-83.1796Q117.785-92.558 105.5-97.8529Q93.2149-103.148 79.1746-103.148Q65.1563-103.148 52.8704-97.8529Q40.5846-92.558 31.2276-83.1796Q21.8707-73.8013 16.5647-61.5161Q11.2588-49.2309 11.2588-35.2113Q11.2588-21.1917 16.5647-8.90649Q21.8707 3.37874 31.238 12.7571Q40.6053 22.1354 52.8912 27.4303Q65.177 32.7252 79.1953 32.7252ZM79.1953 17.3332Q68.3935 17.3332 58.881 13.2216Q49.3684 9.11 42.1322 1.87381Q34.896-5.36238 30.7844-14.8859Q26.6728-24.4095 26.6728-35.2113Q26.6728-46.0131 30.7734-55.5367Q34.874-65.0602 42.1109-72.2964Q49.3477-79.5326 58.8602-83.6442Q68.3728-87.7558 79.1746-87.7558Q89.9984-87.7558 99.511-83.6442Q109.024-79.5326 116.27-72.2964Q123.517-65.0602 127.628-55.5367Q131.74-46.0131 131.74-35.2113Q131.74-24.4095 127.628-14.8859Q123.517-5.36238 116.28 1.87381Q109.044 9.11 99.5317 13.2216Q90.0192 17.3332 79.1953 17.3332Z"/>
  </g>
  <g id="Heavy-L" transform="matrix(1 0 0 1 2558.42 1556)">
   <path d="M78.2511 22.883Q85.157 22.883 91.1446 18.4452Q97.1322 14.0074 101.685 6.10385Q106.237-1.79967 108.797-12.3533Q111.357-22.9069 111.357-35.1089Q111.357-47.3852 108.815-57.976Q106.273-68.5668 101.702-76.4882Q97.1322-84.4097 91.1595-88.8593Q85.1868-93.309 78.2511-93.309Q71.3897-93.309 65.3798-88.8593Q59.3699-84.4097 54.8176-76.4882Q50.2653-68.5668 47.7202-57.976Q45.1751-47.3852 45.1751-35.1089Q45.1751-22.9069 47.7202-12.3533Q50.2653-1.79967 54.8355 6.10385Q59.4057 14.0074 65.3977 18.4452Q71.3897 22.883 78.2511 22.883ZM78.2511-83.785Q82.6811-83.785 86.7831-79.8082Q90.8852-75.8314 94.1233-68.9617Q97.3614-62.0921 99.2545-53.378Q101.148-44.6639 101.148-35.1089Q101.148-25.7002 99.2545-17.0293Q97.3614-8.35844 94.1233-1.49466Q90.8852 5.36912 86.7831 9.36406Q82.6811 13.359 78.2511 13.359Q73.8569 13.359 69.7488 9.38637Q65.6407 5.41375 62.4056-1.45004Q59.1705-8.31382 57.2804-17.007Q55.3903-25.7002 55.3903-35.1089Q55.3903-44.6639 57.2804-53.378Q59.1705-62.0921 62.4056-68.9617Q65.6407-75.8314 69.7488-79.8082Q73.8569-83.785 78.2511-83.785ZM73.2299-92.4629L73.2299 21.7152L83.2782 21.7152L83.2782-92.4629ZM78.2511-16.816Q68.1102-16.816 58.93-15.2271Q49.7498-13.6382 42.605-10.7151Q35.4601-7.79207 31.2601-3.8105L38.8767 2.54715Q44.7097-1.84069 55.167-4.29816Q65.6243-6.75562 78.2511-6.75562Q90.9137-6.75562 101.393-4.29816Q111.873-1.84069 117.655 2.54715L125.278-3.8105Q121.078-7.79207 113.915-10.7151Q106.752-13.6382 97.6123-15.2271Q88.4723-16.816 78.2511-16.816ZM135.051-40.2969L21.457-40.2969L21.457-30.2425L135.051-30.2425ZM78.2511-53.4017Q88.4723-53.4017 97.6123-54.9906Q106.752-56.5795 113.915-59.5249Q121.078-62.4703 125.278-66.4072L117.655-72.7649Q111.873-68.377 101.393-65.9196Q90.9137-63.4621 78.2511-63.4621Q65.6689-63.4621 55.2116-65.9196Q44.7543-68.377 38.8767-72.7649L31.2601-66.4072Q35.4601-62.4703 42.605-59.5249Q49.7498-56.5795 58.93-54.9906Q68.1102-53.4017 78.2511-53.4017ZM78.2511 31.7672Q92.088 31.7672 104.202 26.5464Q116.316 21.3256 125.559 12.0677Q134.802 2.8099 140.04-9.30402Q145.279-21.4179 145.279-35.2251Q145.279-49.0322 140.04-61.1461Q134.802-73.2601 125.544-82.5179Q116.286-91.7758 104.172-96.9966Q92.0582-102.217 78.2213-102.217Q64.4202-102.217 52.3033-96.9966Q40.1863-91.7758 30.9613-82.5179Q21.7362-73.2601 16.4975-61.1461Q11.2588-49.0322 11.2588-35.2251Q11.2588-21.4179 16.4975-9.30402Q21.7362 2.8099 30.9761 12.0677Q40.2161 21.3256 52.333 26.5464Q64.45 31.7672 78.2511 31.7672ZM78.2511 18.1193Q67.301 18.1193 57.6497 13.943Q47.9984 9.76677 40.6467 2.41509Q33.295-4.93659 29.1188-14.6058Q24.9425-24.275 24.9425-35.2251Q24.9425-46.1752 29.1009-55.8444Q33.2592-65.5136 40.6139-72.8652Q47.9686-80.2169 57.6199-84.3932Q67.2712-88.5694 78.2213-88.5694Q89.2072-88.5694 98.8585-84.3932Q108.51-80.2169 115.876-72.8652Q123.243-65.5136 127.419-55.8444Q131.595-46.1752 131.595-35.2251Q131.595-24.275 127.419-14.6058Q123.243-4.93659 115.891 2.41509Q108.54 9.76677 98.8883 13.943Q89.237 18.1193 78.2511 18.1193Z"/>
  </g>
  <g id="Bold-L" transform="matrix(1 0 0 1 2262.89 1556)">
   <path d="M77.0653 23.7763Q83.7958 23.7763 89.6762 19.3255Q95.5566 14.8747 100.035 6.9001Q104.513-1.0745 107.05-11.8177Q109.587-22.561 109.587-35.1089Q109.587-47.7229 107.076-58.4993Q104.565-69.2756 100.061-77.2758Q95.5566-85.276 89.6947-89.7382Q83.8328-94.2004 77.0653-94.2004Q70.3639-94.2004 64.4689-89.7382Q58.5739-85.276 54.0955-77.2758Q49.6172-69.2756 47.0989-58.4993Q44.5805-47.7229 44.5805-35.1089Q44.5805-22.561 47.0989-11.8177Q49.6172-1.0745 54.1211 6.9001Q58.6251 14.8747 64.4945 19.3255Q70.3639 23.7763 77.0653 23.7763ZM77.0653-85.6989Q81.6234-85.6989 85.8023-81.6204Q89.9812-77.5419 93.2649-70.4453Q96.5486-63.3488 98.4626-54.2696Q100.377-45.1905 100.377-35.1089Q100.377-25.23 98.4626-16.1982Q96.5486-7.16638 93.2649-0.0669728Q89.9812 7.03243 85.8023 11.1536Q81.6234 15.2748 77.0653 15.2748Q72.5583 15.2748 68.3652 11.1682Q64.172 7.06163 60.8955-0.0377695Q57.619-7.13717 55.712-16.1836Q53.8051-25.23 53.8051-35.1089Q53.8051-45.1905 55.712-54.2696Q57.619-63.3488 60.8955-70.4453Q64.172-77.5419 68.3652-81.6204Q72.5583-85.6989 77.0653-85.6989ZM72.5476-93.3308L72.5476 22.585L81.5971 22.585L81.5971-93.3308ZM77.0653-14.681Q67.1278-14.681 58.1401-13.0971Q49.1523-11.5133 42.1101-8.5972Q35.0679-5.68111 30.7908-1.74337L37.663 3.98356Q43.6921-0.58015 54.0053-3.09159Q64.3185-5.60302 77.0653-5.60302Q89.8633-5.60302 100.191-3.09159Q110.519-0.58015 116.505 3.98356L123.391-1.74337Q119.114-5.68111 112.046-8.5972Q104.978-11.5133 96.0307-13.0971Q87.0832-14.681 77.0653-14.681ZM134.421-39.8016L19.7238-39.8016L19.7238-30.7378L134.421-30.7378ZM77.0653-55.5368Q87.0832-55.5368 96.0307-57.1206Q104.978-58.7044 112.046-61.6351Q119.114-64.5658 123.391-68.4744L116.505-74.2013Q110.519-69.6376 100.191-67.1261Q89.8633-64.6147 77.0653-64.6147Q64.3477-64.6147 54.0345-67.1261Q43.7213-69.6376 37.663-74.2013L30.7908-68.4744Q35.0679-64.5658 42.1101-61.6351Q49.1523-58.7044 58.1401-57.1206Q67.1278-55.5368 77.0653-55.5368ZM77.0653 30.566Q90.6516 30.566 102.549 25.4396Q114.447 20.3133 123.533 11.2089Q132.619 2.10448 137.771-9.79333Q142.923-21.6912 142.923-35.2405Q142.923-48.7898 137.771-60.6877Q132.619-72.5855 123.515-81.6899Q114.41-90.7942 102.512-95.9206Q90.6146-101.047 77.0283-101.047Q63.4932-101.047 51.5882-95.9206Q39.6833-90.7942 30.623-81.6899Q21.5627-72.5855 16.4108-60.6877Q11.2588-48.7898 11.2588-35.2405Q11.2588-21.6912 16.4108-9.79333Q21.5627 2.10448 30.6415 11.2089Q39.7203 20.3133 51.6252 25.4396Q63.5301 30.566 77.0653 30.566ZM77.0653 19.0907Q65.9263 19.0907 56.1025 14.8364Q46.2787 10.582 38.7863 3.08966Q31.2939-4.40271 27.0396-14.2521Q22.7853-24.1015 22.7853-35.2405Q22.7853-46.3795 27.014-56.2289Q31.2427-66.0783 38.7422-73.5707Q46.2417-81.063 56.0655-85.3174Q65.8893-89.5717 77.0283-89.5717Q88.2185-89.5717 98.0423-85.3174Q107.866-81.063 115.377-73.5707Q122.888-66.0783 127.142-56.2289Q131.396-46.3795 131.396-35.2405Q131.396-24.1015 127.142-14.2521Q122.888-4.40271 115.395 3.08966Q107.903 10.582 98.0793 14.8364Q88.2555 19.0907 77.0653 19.0907Z"/>
  </g>
  <g id="Semibold-L" transform="matrix(1 0 0 1 1966.99 1556)">
   <path d="M76.2478 24.3922Q82.8575 24.3922 88.6639 19.9324Q94.4704 15.4726 98.8978 7.44904Q103.325-0.574567 105.846-11.4485Q108.367-22.3225 108.367-35.1089Q108.367-47.9558 105.877-58.86Q103.387-69.7643 98.9287-77.8188Q94.4704-85.8733 88.6849-90.3441Q82.8994-94.815 76.2478-94.815Q69.6567-94.815 63.8409-90.3441Q58.0251-85.8733 53.5978-77.8188Q49.1704-69.7643 46.6705-58.86Q44.1706-47.9558 44.1706-35.1089Q44.1706-22.3225 46.6705-11.4485Q49.1704-0.574567 53.6287 7.44904Q58.087 15.4726 63.8718 19.9324Q69.6567 24.3922 76.2478 24.3922ZM76.2478-87.0183Q80.8943-87.0183 85.1262-82.8697Q89.3581-78.7211 92.6731-71.4681Q95.9882-64.2151 97.9167-54.8843Q99.8452-45.5536 99.8452-35.1089Q99.8452-24.9058 97.9167-15.6252Q95.9882-6.34457 92.6731 0.917266Q89.3581 8.1791 85.1262 12.3873Q80.8943 16.5955 76.2478 16.5955Q71.6631 16.5955 67.4113 12.3966Q63.1596 8.19768 59.8545 0.93584Q56.5494-6.326 54.6308-15.6159Q52.7122-24.9058 52.7122-35.1089Q52.7122-45.5536 54.6308-54.8843Q56.5494-64.2151 59.8545-71.4681Q63.1596-78.7211 67.4113-82.8697Q71.6631-87.0183 76.2478-87.0183ZM72.0773-93.929L72.0773 23.1846L80.4382 23.1846L80.4382-93.929ZM76.2478-13.2091Q66.4505-13.2091 57.5955-11.6287Q48.7404-10.0484 41.769-7.1371Q34.7975-4.22583 30.4673-0.31831L36.8262 4.97382Q42.9905 0.288858 53.2044-2.25978Q63.4183-4.80842 76.2478-4.80842Q89.1391-4.80842 99.3623-2.25978Q109.585 0.288858 115.711 4.97382L122.09-0.31831Q117.76-4.22583 110.758-7.1371Q103.755-10.0484 94.9403-11.6287Q86.1255-13.2091 76.2478-13.2091ZM133.986-39.4601L18.529-39.4601L18.529-31.0793L133.986-31.0793ZM76.2478-57.0086Q86.1255-57.0086 94.9403-58.589Q103.755-60.1693 110.758-63.0899Q117.76-66.0105 122.09-69.8994L115.711-75.1915Q109.585-70.5066 99.3623-67.9579Q89.1391-65.4093 76.2478-65.4093Q63.4369-65.4093 53.223-67.9579Q43.0091-70.5066 36.8262-75.1915L30.4673-69.8994Q34.7975-66.0105 41.769-63.0899Q48.7404-60.1693 57.5955-58.589Q66.4505-57.0086 76.2478-57.0086ZM76.2478 29.7379Q89.6614 29.7379 101.41 24.6766Q113.159 19.6153 122.137 10.6168Q131.114 1.61818 136.206-10.1307Q141.299-21.8795 141.299-35.2511Q141.299-48.6228 136.206-60.3716Q131.114-72.1204 122.116-81.119Q113.117-90.1176 101.368-95.1789Q89.6194-100.24 76.2058-100.24Q62.854-100.24 51.0953-95.1789Q39.3365-90.1176 30.3898-81.119Q21.4432-72.1204 16.351-60.3716Q11.2588-48.6228 11.2588-35.2511Q11.2588-21.8795 16.351-10.1307Q21.4432 1.61818 30.4108 10.6168Q39.3785 19.6153 51.1372 24.6766Q62.896 29.7379 76.2478 29.7379ZM76.2478 19.7603Q64.9786 19.7603 55.0359 15.4522Q45.0932 11.1441 37.5038 3.55471Q29.9144-4.03466 25.6063-14.0083Q21.2982-23.9819 21.2982-35.2511Q21.2982-46.5203 25.5754-56.494Q29.8526-66.4676 37.4519-74.057Q45.0512-81.6463 54.9939-85.9545Q64.9366-90.2626 76.2058-90.2626Q87.5368-90.2626 97.4796-85.9545Q107.422-81.6463 115.033-74.057Q122.643-66.4676 126.951-56.494Q131.259-46.5203 131.259-35.2511Q131.259-23.9819 126.951-14.0083Q122.643-4.03466 115.054 3.55471Q107.464 11.1441 97.5215 15.4522Q87.5788 19.7603 76.2478 19.7603Z"/>
  </g>
  <g id="Medium-L" transform="matrix(1 0 0 1 1670.89 1556)">
   <path d="M75.6279 24.8592Q82.1459 24.8592 87.8964 20.3926Q93.6468 15.926 98.0355 7.86526Q102.424-0.195498 104.933-11.1686Q107.442-22.1416 107.442-35.1089Q107.442-48.1324 104.968-59.1336Q102.494-70.1348 98.0705-78.2305Q93.6468-86.3262 87.9192-90.8036Q82.1917-95.2809 75.6279-95.2809Q69.1205-95.2809 63.3647-90.8036Q57.609-86.3262 53.2203-78.2305Q48.8316-70.1348 46.3457-59.1336Q43.8598-48.1324 43.8598-35.1089Q43.8598-22.1416 46.3457-11.1686Q48.8316-0.195498 53.2553 7.86526Q57.6789 15.926 63.3997 20.3926Q69.1205 24.8592 75.6279 24.8592ZM75.6279-88.0187Q80.3414-88.0187 84.6135-83.817Q88.8856-79.6152 92.2244-72.2436Q95.5633-64.872 97.5027-55.3504Q99.4422-45.8289 99.4422-35.1089Q99.4422-24.6599 97.5027-15.1907Q95.5633-5.72144 92.2244 1.66356Q88.8856 9.04856 84.6135 13.3228Q80.3414 17.5969 75.6279 17.5969Q70.9843 17.5969 66.6881 13.328Q62.3919 9.05907 59.0651 1.67407Q55.7384-5.71093 53.811-15.1854Q51.8836-24.6599 51.8836-35.1089Q51.8836-45.8289 53.811-55.3504Q55.7384-64.872 59.0651-72.2436Q62.3919-79.6152 66.6881-83.817Q70.9843-88.0187 75.6279-88.0187ZM71.7206-94.3827L71.7206 23.6392L79.5594 23.6392L79.5594-94.3827ZM75.6279-12.093Q65.9369-12.093 57.1825-10.5153Q48.4281-8.93762 41.5103-6.03Q34.5925-3.12237 30.222 0.762232L36.1918 5.72468Q42.4586 0.947775 52.5972-1.62908Q62.7357-4.20593 75.6279-4.20593Q88.59-4.20593 98.7339-1.62908Q108.878 0.947775 115.11 5.72468L121.104 0.762232Q116.733-3.12237 109.781-6.03Q102.828-8.93762 94.1136-10.5153Q85.3994-12.093 75.6279-12.093ZM133.657-39.2012L17.623-39.2012L17.623-31.3382L133.657-31.3382ZM75.6279-58.1247Q85.3994-58.1247 94.1136-59.7024Q102.828-61.2801 109.781-64.193Q116.733-67.1059 121.104-70.98L115.11-75.9424Q108.878-71.1655 98.7339-68.5886Q88.59-66.0118 75.6279-66.0118Q62.7462-66.0118 52.6077-68.5886Q42.4691-71.1655 36.1918-75.9424L30.222-70.98Q34.5925-67.1059 41.5103-64.193Q48.4281-61.2801 57.1825-59.7024Q65.9369-58.1247 75.6279-58.1247ZM75.6279 29.11Q88.9106 29.11 100.546 24.0981Q112.182 19.0862 121.078 10.1678Q129.973 1.24944 135.02-10.3864Q140.067-22.0223 140.067-35.2592Q140.067-48.4961 135.02-60.1319Q129.973-71.7678 121.055-80.6862Q112.137-89.6045 100.501-94.6164Q88.8648-99.6283 75.5822-99.6283Q62.3695-99.6283 50.7215-94.6164Q39.0736-89.6045 30.213-80.6862Q21.3525-71.7678 16.3056-60.1319Q11.2588-48.4961 11.2588-35.2592Q11.2588-22.0223 16.3056-10.3864Q21.3525 1.24944 30.2359 10.1678Q39.1193 19.0862 50.7673 24.0981Q62.4152 29.11 75.6279 29.11ZM75.6279 20.2681Q64.26 20.2681 54.2271 15.9192Q44.1942 11.5702 36.5313 3.90733Q28.8684-3.75559 24.5195-13.8234Q20.1705-23.8913 20.1705-35.2592Q20.1705-46.6271 24.4845-56.6949Q28.7985-66.7628 36.4735-74.4257Q44.1485-82.0886 54.1814-86.4376Q64.2143-90.7865 75.5822-90.7865Q87.02-90.7865 97.0529-86.4376Q107.086-82.0886 114.772-74.4257Q122.457-66.7628 126.806-56.6949Q131.155-46.6271 131.155-35.2592Q131.155-23.8913 126.806-13.8234Q122.457-3.75559 114.794 3.90733Q107.132 11.5702 97.0986 15.9192Q87.0658 20.2681 75.6279 20.2681Z"/>
  </g>
  <g id="Regular-L" transform="matrix(1 0 0 1 1374.98 1556)">
   <path d="M74.8194 25.4683Q81.2178 25.4683 86.8952 20.9928Q92.5725 16.5174 96.9108 8.40816Q101.249 0.29894 103.742-10.8034Q106.235-21.9058 106.235-35.1089Q106.235-48.3627 103.782-59.4903Q101.33-70.618 96.951-78.7675Q92.5725-86.9169 86.9205-91.4028Q81.2685-95.8887 74.8194-95.8887Q68.421-95.8887 62.7437-91.4028Q57.0663-86.9169 52.728-78.7675Q48.3898-70.618 45.9221-59.4903Q43.4544-48.3627 43.4544-35.1089Q43.4544-21.9058 45.9221-10.8034Q48.3898 0.29894 52.7682 8.40816Q57.1467 16.5174 62.7839 20.9928Q68.421 25.4683 74.8194 25.4683ZM74.8194-89.3236Q79.6203-89.3236 83.9448-85.0526Q88.2692-80.7815 91.6391-73.2551Q95.009-65.7287 96.9628-55.9584Q98.9165-46.188 98.9165-35.1089Q98.9165-24.3393 96.9628-14.624Q95.009-4.90867 91.6391 2.63698Q88.2692 10.1826 83.9448 14.5429Q79.6203 18.9032 74.8194 18.9032Q70.0989 18.9032 65.7448 14.5429Q61.3906 10.1826 58.0355 2.63698Q54.6805-4.90867 52.7416-14.624Q50.8028-24.3393 50.8028-35.1089Q50.8028-46.188 52.7416-55.9584Q54.6805-65.7287 58.0355-73.2551Q61.3906-80.7815 65.7448-85.0526Q70.0989-89.3236 74.8194-89.3236ZM71.2554-94.9744L71.2554 24.2322L78.4132 24.2322L78.4132-94.9744ZM74.8194-10.6373Q65.2671-10.6373 56.6439-9.06307Q48.0207-7.48881 41.1729-4.58594Q34.3251-1.68308 29.902 2.17163L35.3642 6.70405Q41.7647 1.80723 51.8051-0.806415Q61.8454-3.42006 74.8194-3.42006Q87.8738-3.42006 97.9142-0.806415Q107.955 1.80723 114.325 6.70405L119.817 2.17163Q115.394-1.68308 108.506-4.58594Q101.618-7.48881 93.0352-9.06307Q84.4522-10.6373 74.8194-10.6373ZM133.227-38.8635L16.4413-38.8635L16.4413-31.6759L133.227-31.6759ZM74.8194-59.5804Q84.4522-59.5804 93.0352-61.1547Q101.618-62.7289 108.506-65.6318Q115.394-68.5346 119.817-72.3894L114.325-76.9218Q107.955-72.025 97.9142-69.4113Q87.8738-66.7977 74.8194-66.7977Q61.8454-66.7977 51.8051-69.4113Q41.7647-72.025 35.3642-76.9218L29.902-72.3894Q34.3251-68.5346 41.1729-65.6318Q48.0207-62.7289 56.6439-61.1547Q65.2671-59.5804 74.8194-59.5804ZM74.8194 28.2909Q87.9312 28.2909 99.4198 23.3434Q110.908 18.3959 119.697 9.58221Q128.485 0.768476 133.473-10.7201Q138.46-22.2086 138.46-35.2697Q138.46-48.3308 133.473-59.8193Q128.485-71.3079 119.671-80.1216Q110.858-88.9353 99.3691-93.8828Q87.8805-98.8303 74.7687-98.8303Q61.7374-98.8303 50.234-93.8828Q38.7306-88.9353 29.9824-80.1216Q21.2342-71.3079 16.2465-59.8193Q11.2588-48.3308 11.2588-35.2697Q11.2588-22.2086 16.2465-10.7201Q21.2342 0.768476 30.0077 9.58221Q38.7813 18.3959 50.2847 23.3434Q61.7881 28.2909 74.8194 28.2909ZM74.8194 20.9304Q63.3227 20.9304 53.1722 16.5283Q43.0217 12.1261 35.2629 4.36727Q27.504-3.39158 23.1019-13.5823Q18.6997-23.773 18.6997-35.2697Q18.6997-46.7664 23.0617-56.9571Q27.4236-67.1478 35.1973-74.9067Q42.971-82.6655 53.1215-87.0677Q63.2721-91.4698 74.7687-91.4698Q86.3459-91.4698 96.4964-87.0677Q106.647-82.6655 114.431-74.9067Q122.215-67.1478 126.617-56.9571Q131.02-46.7664 131.02-35.2697Q131.02-23.773 126.617-13.5823Q122.215-3.39158 114.456 4.36727Q106.698 12.1261 96.547 16.5283Q86.3965 20.9304 74.8194 20.9304Z"/>
  </g>
  <g id="Light-L" transform="matrix(1 0 0 1 1079.2 1556)">
   <path d="M73.8959 25.4272Q80.0481 25.4272 85.592 21.0544Q91.136 16.6816 95.4435 8.66468Q99.751 0.647813 102.244-10.4853Q104.737-21.6184 104.737-35.1089Q104.737-48.6294 102.284-59.7776Q99.8314-70.9259 95.4837-78.9829Q91.136-87.04 85.6071-91.4028Q80.0782-95.7656 73.8959-95.7656Q67.7438-95.7656 62.1998-91.4028Q56.6559-87.04 52.3484-78.9829Q48.0409-70.9259 45.5629-59.7776Q43.085-48.6294 43.085-35.1089Q43.085-21.6184 45.5629-10.4853Q48.0409 0.647813 52.3886 8.66468Q56.7363 16.6816 62.24 21.0544Q67.7438 25.4272 73.8959 25.4272ZM73.8959-90.7191Q78.9021-90.7191 83.3804-86.3865Q87.8588-82.0539 91.3621-74.3838Q94.8654-66.7138 96.8909-56.6664Q98.9165-46.6189 98.9165-35.1089Q98.9165-24.0109 96.8909-14.0288Q94.8654-4.04675 91.3621 3.6836Q87.8588 11.4139 83.3804 15.8973Q78.9021 20.3807 73.8959 20.3807Q68.9702 20.3807 64.4416 15.8973Q59.913 11.4139 56.4348 3.6836Q52.9567-4.04675 50.9562-14.0288Q48.9558-24.0109 48.9558-35.1089Q48.9558-46.6189 50.9562-56.6664Q52.9567-66.7138 56.4348-74.3838Q59.913-82.0539 64.4416-86.3865Q68.9702-90.7191 73.8959-90.7191ZM71.0912-94.8307L71.0912 24.1707L76.7509 24.1707L76.7509-94.8307ZM73.8959-9.34445Q64.4667-9.34445 55.9975-7.82149Q47.5282-6.29854 40.783-3.52906Q34.0378-0.759589 29.6147 2.86938L33.9072 6.47831Q40.4513 1.64306 50.5943-0.97059Q60.7372-3.58424 73.8959-3.58424Q87.1351-3.58424 97.278-0.97059Q107.421 1.64306 113.915 6.47831L118.258 2.86938Q113.835-0.759589 107.049-3.52906Q100.264-6.29854 91.8346-7.82149Q83.4056-9.34445 73.8959-9.34445ZM132.653-38.1247L15.1894-38.1247L15.1894-32.4147L132.653-32.4147ZM73.8959-60.8733Q83.4056-60.8733 91.8346-62.3962Q100.264-63.9192 107.049-66.6887Q113.835-69.4581 118.258-73.0871L113.915-76.696Q107.421-71.8608 97.278-69.2471Q87.1351-66.6335 73.8959-66.6335Q60.7372-66.6335 50.5943-69.2471Q40.4513-71.8608 33.9072-76.696L29.6147-73.0871Q34.0378-69.4581 40.783-66.6887Q47.5282-63.9192 55.9975-62.3962Q64.4667-60.8733 73.8959-60.8733ZM73.8959 27.3674Q86.8436 27.3674 98.1577 22.502Q109.472 17.6366 118.137 8.95629Q126.802 0.275949 131.708-11.0381Q136.614-22.3522 136.614-35.2697Q136.614-48.1872 131.708-59.5013Q126.802-70.8154 118.122-79.4957Q109.442-88.176 98.1275-93.0414Q86.8134-97.9069 73.8658-97.9069Q60.9986-97.9069 49.6594-93.0414Q38.3201-88.176 29.6951-79.4957Q21.07-70.8154 16.1644-59.5013Q11.2588-48.1872 11.2588-35.2697Q11.2588-22.3522 16.1644-11.0381Q21.07 0.275949 29.7102 8.95629Q38.3503 17.6366 49.6895 22.502Q61.0287 27.3674 73.8959 27.3674ZM73.8959 21.5871Q62.2351 21.5871 51.9614 17.1439Q41.6878 12.7007 33.8469 4.85979Q26.0059-2.98114 21.5627-13.295Q17.1195-23.6088 17.1195-35.2697Q17.1195-46.9306 21.5225-57.2444Q25.9255-67.5583 33.7916-75.3992Q41.6576-83.2401 51.9313-87.6833Q62.2049-92.1265 73.8658-92.1265Q85.6071-92.1265 95.8807-87.6833Q106.154-83.2401 114.01-75.3992Q121.866-67.5583 126.31-57.2444Q130.753-46.9306 130.753-35.2697Q130.753-23.6088 126.31-13.295Q121.866-2.98114 114.025 4.85979Q106.185 12.7007 95.9109 17.1439Q85.6372 21.5871 73.8959 21.5871Z"/>
  </g>
  <g id="Thin-L" transform="matrix(1 0 0 1 783.707 1556)">
   <path d="M72.6746 25.373Q78.501 25.373 83.8685 21.1358Q89.2361 16.8987 93.5029 9.00396Q97.7696 1.10923 100.263-10.0646Q102.756-21.2385 102.756-35.1089Q102.756-48.9823 100.303-60.1576Q97.8501-71.333 93.5431-79.2679Q89.2361-87.2029 83.87-91.4028Q78.504-95.6027 72.6746-95.6027Q66.8481-95.6027 61.4806-91.4028Q56.113-87.2029 51.8463-79.2679Q47.5795-71.333 45.088-60.1576Q42.5965-48.9823 42.5965-35.1089Q42.5965-21.2385 45.088-10.0646Q47.5795 1.10923 51.8865 9.00396Q56.1935 16.8987 61.5208 21.1358Q66.8481 25.373 72.6746 25.373ZM72.6746-92.5648Q77.9521-92.5648 82.634-88.1507Q87.316-83.7367 90.9957-75.8766Q94.6754-68.0166 96.7959-57.6028Q98.9165-47.1889 98.9165-35.1089Q98.9165-23.5767 96.7959-13.2417Q94.6754-2.90679 90.9957 5.06784Q87.316 13.0425 82.634 17.6887Q77.9521 22.335 72.6746 22.335Q67.4774 22.335 62.7181 17.6887Q57.9588 13.0425 54.3178 5.06784Q50.6768-2.90679 48.5949-13.2417Q46.513-23.5767 46.513-35.1089Q46.513-47.1889 48.5949-57.6028Q50.6768-68.0166 54.3178-75.8766Q57.9588-83.7367 62.7181-88.1507Q67.4774-92.5648 72.6746-92.5648ZM70.8741-94.6407L70.8741 24.0893L74.5524 24.0893L74.5524-94.6407ZM72.6746-7.63451Q63.4082-7.63451 55.1425-6.1794Q46.8768-4.7243 40.2673-2.13125Q33.6578 0.461799 29.2347 3.79221L31.9801 6.17975Q38.7143 1.42592 48.9929-1.18773Q59.2716-3.80137 72.6746-3.80137Q86.1579-3.80137 96.4366-1.18773Q106.715 1.42592 113.372 6.17975L116.195 3.79221Q111.772 0.461799 105.122-2.13125Q98.4723-4.7243 90.2468-6.1794Q82.0214-7.63451 72.6746-7.63451ZM131.893-37.1476L13.5338-37.1476L13.5338-33.3918L131.893-33.3918ZM72.6746-62.5832Q82.0214-62.5832 90.2468-64.0383Q98.4723-65.4934 105.122-68.0865Q111.772-70.6795 116.195-74.0099L113.372-76.3975Q106.715-71.6436 96.4366-69.03Q86.1579-66.4164 72.6746-66.4164Q59.2716-66.4164 48.9929-69.03Q38.7143-71.6436 31.9801-76.3975L29.2347-74.0099Q33.6578-70.6795 40.2673-68.0865Q46.8768-65.4934 55.1425-64.0383Q63.4082-62.5832 72.6746-62.5832ZM72.6746 26.1461Q85.405 26.1461 96.4884 21.3892Q107.572 16.6324 116.074 8.12846Q124.577-0.375458 129.374-11.4588Q134.171-22.5422 134.171-35.2697Q134.171-47.9972 129.374-59.0806Q124.577-70.1639 116.073-78.6679Q107.569-87.1718 96.4854-91.9286Q85.402-96.6855 72.6715-96.6855Q60.0215-96.6855 48.8994-91.9286Q37.7773-87.1718 29.3151-78.6679Q20.8529-70.1639 16.0558-59.0806Q11.2588-47.9972 11.2588-35.2697Q11.2588-22.5422 16.0558-11.4588Q20.8529-0.375458 29.3166 8.12846Q37.7803 16.6324 48.9024 21.3892Q60.0245 26.1461 72.6746 26.1461ZM72.6746 22.4557Q60.7965 22.4557 50.3601 17.9582Q39.9236 13.4607 31.9741 5.5112Q24.0246-2.4383 19.5271-12.915Q15.0296-23.3917 15.0296-35.2697Q15.0296-47.1477 19.4869-57.6244Q23.9441-68.1011 31.9324-76.0506Q39.9206-84.0001 50.357-88.4976Q60.7935-92.9951 72.6715-92.9951Q84.63-92.9951 95.0665-88.4976Q105.503-84.0001 113.454-76.0506Q121.405-68.1011 125.902-57.6244Q130.4-47.1477 130.4-35.2697Q130.4-23.3917 125.902-12.915Q121.405-2.4383 113.455 5.5112Q105.506 13.4607 95.0695 17.9582Q84.633 22.4557 72.6746 22.4557Z"/>
  </g>
  <g id="Ultralight-L" transform="matrix(1 0 0 1 487.622 1556)">
   <path d="M72.049 25.3451Q77.7086 25.3451 82.9858 21.1775Q88.2629 17.0099 92.5089 9.17773Q96.7548 1.34556 99.2478-9.84914Q101.741-21.0438 101.741-35.1089Q101.741-49.163 99.288-60.3523Q96.8352-71.5415 92.5491-79.4139Q88.2629-87.2863 82.9803-91.4028Q77.6977-95.5193 72.049-95.5193Q66.3893-95.5193 61.1122-91.4028Q55.835-87.2863 51.5891-79.4139Q47.3431-71.5415 44.8447-60.3523Q42.3462-49.163 42.3462-35.1089Q42.3462-21.0438 44.8447-9.84914Q47.3431 1.34556 51.6293 9.17773Q55.9154 17.0099 61.1524 21.1775Q66.3893 25.3451 72.049 25.3451ZM72.049-93.5101Q77.4655-93.5101 82.2517-89.0543Q87.0379-84.5986 90.808-76.6413Q94.5781-68.6839 96.7473-58.0824Q98.9165-47.4808 98.9165-35.1089Q98.9165-23.3542 96.7473-12.8386Q94.5781-2.3229 90.808 5.77684Q87.0379 13.8766 82.2517 18.6062Q77.4655 23.3359 72.049 23.3359Q66.7128 23.3359 61.8353 18.6062Q56.9578 13.8766 53.2334 5.77684Q49.509-2.3229 47.3854-12.8386Q45.2618-23.3542 45.2618-35.1089Q45.2618-47.4808 47.3854-58.0824Q49.509-68.6839 53.2334-76.6413Q56.9578-84.5986 61.8353-89.0543Q66.7128-93.5101 72.049-93.5101ZM70.7629-94.5434L70.7629 24.0475L73.4264 24.0475L73.4264-94.5434ZM72.049-6.75868Q62.866-6.75868 54.7046-5.33833Q46.5432-3.91799 40.0032-1.4153Q33.4631 1.08739 29.04 4.26487L30.9931 6.02683Q37.8245 1.31471 48.1727-1.29894Q58.5209-3.91259 72.049-3.91259Q85.6575-3.91259 96.0056-1.29894Q106.354 1.31471 113.094 6.02683L115.138 4.26487Q110.715 1.08739 104.135-1.4153Q97.5548-3.91799 89.4336-5.33833Q81.3124-6.75868 72.049-6.75868ZM131.503-36.6471L12.6857-36.6471L12.6857-33.8923L131.503-33.8923ZM72.049-63.459Q81.3124-63.459 89.4336-64.8794Q97.5548-66.2997 104.135-68.8024Q110.715-71.3051 115.138-74.4826L113.094-76.2446Q106.354-71.5324 96.0056-68.9188Q85.6575-66.3051 72.049-66.3051Q58.5209-66.3051 48.1727-68.9188Q37.8245-71.5324 30.9931-76.2446L29.04-74.4826Q33.4631-71.3051 40.0032-68.8024Q46.5432-66.2997 54.7046-64.8794Q62.866-63.459 72.049-63.459ZM72.049 25.5205Q84.6682 25.5205 95.6335 20.8192Q106.599 16.118 115.018 7.70445Q123.437-0.709105 128.178-11.6743Q132.92-22.6395 132.92-35.2697Q132.92-47.8999 128.178-58.8651Q123.437-69.8303 115.023-78.2439Q106.61-86.6574 95.6443-91.3586Q84.6791-96.0599 72.0598-96.0599Q59.521-96.0599 48.5101-91.3586Q37.4993-86.6574 29.1205-78.2439Q20.7417-69.8303 16.0002-58.8651Q11.2588-47.8999 11.2588-35.2697Q11.2588-22.6395 16.0002-11.6743Q20.7417-0.709105 29.115 7.70445Q37.4884 16.118 48.4992 20.8192Q59.5101 25.5205 72.049 25.5205ZM72.049 22.9005Q60.0597 22.9005 49.5398 18.3752Q39.0199 13.85 31.0148 5.84485Q23.0097-2.16026 18.4844-12.7204Q13.9592-23.2805 13.9592-35.2697Q13.9592-47.2589 18.4442-57.819Q22.9293-68.3791 30.9801-76.3843Q39.0308-84.3894 49.5507-88.9146Q60.0706-93.4399 72.0598-93.4399Q84.1295-93.4399 94.6494-88.9146Q105.169-84.3894 113.169-76.3843Q121.169-68.3791 125.694-57.819Q130.219-47.2589 130.219-35.2697Q130.219-23.2805 125.694-12.7204Q121.169-2.16026 113.164 5.84485Q105.158 13.85 94.6385 18.3752Q84.1186 22.9005 72.049 22.9005Z"/>
  </g>
  <g id="Black-M" transform="matrix(1 0 0 1 2871.36 1126)">
   <path d="M62.0423 8.47362Q67.5651 8.47362 72.3151 5.08942Q77.0652 1.70521 80.6896-4.28271Q84.3141-10.2706 86.3312-18.1805Q88.3483-26.0903 88.3483-35.136Q88.3483-44.2444 86.3338-52.1855Q84.3193-60.1267 80.6922-66.1172Q77.0652-72.1077 72.3179-75.4948Q67.5706-78.8819 62.0423-78.8819Q56.5767-78.8819 51.7981-75.4948Q47.0195-72.1077 43.3951-66.1172Q39.7706-60.1267 37.7563-52.1855Q35.7419-44.2444 35.7419-35.136Q35.7419-26.0903 37.7563-18.1805Q39.7706-10.2706 43.3977-4.28271Q47.0247 1.70521 51.8007 5.08942Q56.5767 8.47362 62.0423 8.47362ZM62.0423-70.5266Q65.3571-70.5266 68.4752-67.5732Q71.5934-64.6197 74.081-59.5802Q76.5686-54.5406 78.0291-48.2283Q79.4896-41.916 79.4896-35.136Q79.4896-28.422 78.0291-22.1407Q76.5686-15.8594 74.081-10.8231Q71.5934-5.78678 68.4752-2.83425Q65.3571 0.118287 62.0423 0.118287Q58.7328 0.118287 55.615-2.8057Q52.4971-5.72969 50.0094-10.766Q47.5216-15.8023 46.061-22.1122Q44.6003-28.422 44.6003-35.136Q44.6003-41.916 46.061-48.2283Q47.5216-54.5406 50.0094-59.5802Q52.4971-64.6197 55.615-67.5732Q58.7328-70.5266 62.0423-70.5266ZM57.6752-78.254L57.6752 7.59645L66.4092 7.59645L66.4092-78.254ZM62.0423-23.6427Q53.9307-23.6427 46.5896-22.4218Q39.2485-21.2009 33.598-18.9715Q27.9476-16.742 24.8063-13.6701L31.3965-8.13757Q35.678-11.2591 44.0251-13.0842Q52.3722-14.9093 62.0423-14.9093Q71.7177-14.9093 80.0933-13.0842Q88.469-11.2591 92.6937-8.13757L99.2835-13.6701Q96.1423-16.742 90.4893-18.9715Q84.8362-21.2009 77.5263-22.4218Q70.2163-23.6427 62.0423-23.6427ZM105.355-39.6275L18.7294-39.6275L18.7294-30.8938L105.355-30.8938ZM62.0423-46.6294Q70.2163-46.6294 77.5263-47.8503Q84.8362-49.0712 90.4893-51.3291Q96.1423-53.5871 99.2835-56.6019L92.6937-62.1345Q88.469-59.0129 80.0933-57.1879Q71.7177-55.3628 62.0423-55.3628Q52.4293-55.3628 44.0822-57.1879Q35.7351-59.0129 31.3965-62.1345L24.8063-56.6019Q27.9476-53.5871 33.598-51.3291Q39.2485-49.0712 46.5896-47.8503Q53.9307-46.6294 62.0423-46.6294ZM62.0423 18.1161Q73.0725 18.1161 82.714 13.9613Q92.3555 9.80654 99.704 2.45531Q107.052-4.89592 111.21-14.5374Q115.367-24.1789 115.367-35.2035Q115.367-46.2282 111.21-55.8697Q107.052-65.5112 99.7012-72.8624Q92.35-80.2136 82.7085-84.3684Q73.067-88.5232 62.0368-88.5232Q51.0119-88.5232 41.3705-84.3684Q31.7292-80.2136 24.3833-72.8624Q17.0375-65.5112 12.8801-55.8697Q8.72266-46.2282 8.72266-35.2035Q8.72266-24.1789 12.8801-14.5374Q17.0375-4.89592 24.3861 2.45531Q31.7347 9.80654 41.376 13.9613Q51.0174 18.1161 62.0423 18.1161ZM62.0423 4.9065Q53.7789 4.9065 46.5117 1.77104Q39.2445-1.36441 33.7265-6.88247Q28.2084-12.4005 25.073-19.6703Q21.9375-26.9401 21.9375-35.2035Q21.9375-43.467 25.0704-50.7368Q28.2032-58.0066 33.7211-63.5246Q39.239-69.0427 46.5062-72.1781Q53.7734-75.3136 62.0368-75.3136Q70.3055-75.3136 77.5727-72.1781Q84.8399-69.0427 90.3607-63.5246Q95.8815-58.0066 99.0169-50.7368Q102.152-43.467 102.152-35.2035Q102.152-26.9401 99.0169-19.6703Q95.8815-12.4005 90.3634-6.88247Q84.8454-1.36441 77.5782 1.77104Q70.311 4.9065 62.0423 4.9065Z"/>
  </g>
  <g id="Heavy-M" transform="matrix(1 0 0 1 2575.48 1126)">
   <path d="M61.2045 9.26313Q66.6268 9.26313 71.3118 5.84551Q75.9969 2.4279 79.5633-3.64198Q83.1297-9.71186 85.1266-17.7808Q87.1235-25.8497 87.1235-35.136Q87.1235-44.4822 85.1359-52.5811Q83.1484-60.6799 79.5726-66.7592Q75.9969-72.8384 71.32-76.2629Q66.6431-79.6874 61.2045-79.6874Q55.8257-79.6874 51.1189-76.2629Q46.412-72.8384 42.8456-66.7592Q39.2792-60.6799 37.2904-52.5811Q35.3017-44.4822 35.3017-35.136Q35.3017-25.8497 37.2904-17.7808Q39.2792-9.71186 42.855-3.64198Q46.4307 2.4279 51.1282 5.84551Q55.8257 9.26313 61.2045 9.26313ZM61.2045-71.8993Q64.5871-71.8993 67.7394-68.8703Q70.8916-65.8412 73.3904-60.6342Q75.8891-55.4272 77.3525-48.8554Q78.8158-42.2837 78.8158-35.136Q78.8158-28.0816 77.3525-21.5422Q75.8891-15.0028 73.3904-9.8003Q70.8916-4.59774 67.7394-1.56134Q64.5871 1.47507 61.2045 1.47507Q57.8405 1.47507 54.6858-1.53953Q51.5311-4.55412 49.0336-9.75668Q46.5361-14.9592 45.0739-21.5204Q43.6118-28.0816 43.6118-35.136Q43.6118-42.2837 45.0739-48.8554Q46.5361-55.4272 49.0336-60.6342Q51.5311-65.8412 54.6858-68.8703Q57.8405-71.8993 61.2045-71.8993ZM57.1142-79.0432L57.1142 8.36974L65.2972 8.36974L65.2972-79.0432ZM61.2045-22.0547Q53.244-22.0547 46.0381-20.8271Q38.8321-19.5996 33.2494-17.3477Q27.6666-15.0957 24.4579-12.0136L30.6489-6.83381Q35.0709-10.1223 43.27-11.9945Q51.4692-13.8667 61.2045-13.8667Q70.9584-13.8667 79.1794-11.9945Q87.4004-10.1223 91.7763-6.83381L97.9697-12.0136Q94.761-15.0957 89.1689-17.3477Q83.5768-19.5996 76.402-20.8271Q69.2272-22.0547 61.2045-22.0547ZM104.928-39.3534L17.4838-39.3534L17.4838-31.1679L104.928-31.1679ZM61.2045-48.2174Q69.2272-48.2174 76.402-49.4449Q83.5768-50.6724 89.1689-52.9462Q94.761-55.22 97.9697-58.2585L91.7763-63.4383Q87.4004-60.1498 79.1794-58.2776Q70.9584-56.4053 61.2045-56.4053Q51.5128-56.4053 43.3136-58.2776Q35.1145-60.1498 30.6489-63.4383L24.4579-58.2585Q27.6666-55.22 33.2494-52.9462Q38.8321-50.6724 46.0381-49.4449Q53.244-48.2174 61.2045-48.2174ZM61.2045 17.2648Q72.0509 17.2648 81.541 13.1749Q91.0312 9.08498 98.2688 1.83921Q105.506-5.40657 109.606-14.8967Q113.705-24.3868 113.705-35.217Q113.705-46.0473 109.606-55.5374Q105.506-65.0275 98.2607-72.2733Q91.0149-79.519 81.5248-83.6089Q72.0347-87.6988 61.1882-87.6988Q50.3604-87.6988 40.8691-83.6089Q31.3778-79.519 24.1495-72.2733Q16.9211-65.0275 12.8219-55.5374Q8.72266-46.0473 8.72266-35.217Q8.72266-24.3868 12.8219-14.8967Q16.9211-5.40657 24.1576 1.83921Q31.394 9.08498 40.8853 13.1749Q50.3767 17.2648 61.2045 17.2648ZM61.2045 5.61432Q52.8112 5.61432 45.4197 2.41946Q38.0283-0.775393 32.4049-6.39877Q26.7815-12.0221 23.5867-19.423Q20.3918-26.8238 20.3918-35.217Q20.3918-43.6103 23.5773-51.0111Q26.7628-58.4119 32.3874-64.0353Q38.012-69.6587 45.4035-72.8535Q52.795-76.0484 61.1882-76.0484Q69.6001-76.0484 76.9916-72.8535Q84.3831-69.6587 90.0146-64.0353Q95.6461-58.4119 98.8409-51.0111Q102.036-43.6103 102.036-35.217Q102.036-26.8238 98.8409-19.423Q95.6461-12.0221 90.0227-6.39877Q84.3993-0.775393 77.0079 2.41946Q69.6164 5.61432 61.2045 5.61432Z"/>
  </g>
  <g id="Bold-M" transform="matrix(1 0 0 1 2279.69 1126)">
   <path d="M60.2672 10.1463Q65.5773 10.1463 70.1895 6.69132Q74.8018 3.23632 78.3033-2.92523Q81.8049-9.08678 83.7791-17.3337Q85.7534-25.5805 85.7534-35.136Q85.7534-44.7483 83.796-53.0236Q81.8386-61.2989 78.3202-67.4773Q74.8018-73.6557 70.2037-77.1221Q65.6055-80.5884 60.2672-80.5884Q54.9856-80.5884 50.3591-77.1221Q45.7325-73.6557 42.231-67.4773Q38.7295-61.2989 36.7693-53.0236Q34.8092-44.7483 34.8092-35.136Q34.8092-25.5805 36.7693-17.3337Q38.7295-9.08678 42.2479-2.92523Q45.7663 3.23632 50.376 6.69132Q54.9856 10.1463 60.2672 10.1463ZM60.2672-73.4349Q63.7258-73.4349 66.9162-70.3213Q70.1066-67.2076 72.6178-61.8133Q75.129-56.4189 76.5956-49.5569Q78.0622-42.695 78.0622-35.136Q78.0622-27.7008 76.5956-20.8727Q75.129-14.0446 72.6178-8.65614Q70.1066-3.26763 66.9162-0.137407Q63.7258 2.99282 60.2672 2.99282Q56.8423 2.99282 53.6464-0.123133Q50.4505-3.23908 47.942-8.62759Q45.4336-14.0161 43.9698-20.8584Q42.5059-27.7008 42.5059-35.136Q42.5059-42.695 43.9698-49.5569Q45.4336-56.4189 47.942-61.8133Q50.4505-67.2076 53.6464-70.3213Q56.8423-73.4349 60.2672-73.4349ZM56.4866-79.9261L56.4866 9.23477L64.0532 9.23477L64.0532-79.9261ZM60.2672-20.2782Q52.4759-20.2782 45.4212-19.0433Q38.3664-17.8084 32.8593-15.5312Q27.3522-13.254 24.0682-10.1605L29.8125-5.37537Q34.3917-8.85058 42.4253-10.7756Q50.459-12.7005 60.2672-12.7005Q70.1091-12.7005 78.157-10.7756Q86.205-8.85058 90.7501-5.37537L96.4999-10.1605Q93.2159-13.254 87.6919-15.5312Q82.1679-17.8084 75.1443-19.0433Q68.1207-20.2782 60.2672-20.2782ZM104.45-39.0467L16.0903-39.0467L16.0903-31.4746L104.45-31.4746ZM60.2672-49.9939Q68.1207-49.9939 75.1443-51.2288Q82.1679-52.4637 87.6919-54.7552Q93.2159-57.0466 96.4999-60.1116L90.7501-64.8967Q86.205-61.4215 78.157-59.4965Q70.1091-57.5715 60.2672-57.5715Q50.4875-57.5715 42.4539-59.4965Q34.4202-61.4215 29.8125-64.8967L24.0682-60.1116Q27.3522-57.0466 32.8593-54.7552Q38.3664-52.4637 45.4212-51.2288Q52.4759-49.9939 60.2672-49.9939ZM60.2672 16.3124Q70.9082 16.3124 80.2289 12.2951Q89.5497 8.27781 96.6634 1.15Q103.777-5.9778 107.811-15.2986Q111.845-24.6193 111.845-35.2321Q111.845-45.8449 107.811-55.1656Q103.777-64.4864 96.6493-71.6142Q89.5215-78.742 80.2007-82.7593Q70.8799-86.7766 60.2389-86.7766Q49.6317-86.7766 40.3082-82.7593Q30.9846-78.742 23.8878-71.6142Q16.791-64.4864 12.7568-55.1656Q8.72266-45.8449 8.72266-35.2321Q8.72266-24.6193 12.7568-15.2986Q16.791-5.9778 23.902 1.15Q31.0129 8.27781 40.3364 12.2951Q49.6599 16.3124 60.2672 16.3124ZM60.2672 6.40611Q51.7287 6.40611 44.1982 3.14481Q36.6677-0.116488 30.9265-5.85768Q25.1853-11.5989 21.924-19.1463Q18.6627-26.6937 18.6627-35.2321Q18.6627-43.7705 21.9071-51.3179Q25.1516-58.8653 30.8955-64.6065Q36.6395-70.3477 44.17-73.609Q51.7005-76.8703 60.2389-76.8703Q68.8111-76.8703 76.3416-73.609Q83.8722-70.3477 89.6275-64.6065Q95.3828-58.8653 98.6441-51.3179Q101.905-43.7705 101.905-35.2321Q101.905-26.6937 98.6441-19.1463Q95.3828-11.5989 89.6416-5.85768Q83.9004-0.116488 76.3699 3.14481Q68.8394 6.40611 60.2672 6.40611Z"/>
  </g>
  <g id="Semibold-M" transform="matrix(1 0 0 1 1983.62 1126)">
   <path d="M59.621 10.7552Q64.8537 10.7552 69.4158 7.27441Q73.9779 3.79364 77.4347-2.43111Q80.8915-8.65586 82.8502-17.0254Q84.8089-25.395 84.8089-35.136Q84.8089-44.9318 82.8722-53.3287Q80.9356-61.7255 77.4568-67.9724Q73.9779-74.2192 69.4341-77.7144Q64.8902-81.2096 59.621-81.2096Q54.4065-81.2096 49.8353-77.7144Q45.2641-74.2192 41.8073-67.9724Q38.3505-61.7255 36.4101-53.3287Q34.4697-44.9318 34.4697-35.136Q34.4697-25.395 36.4101-17.0254Q38.3505-8.65586 41.8294-2.43111Q45.3082 3.79364 49.8573 7.27441Q54.4065 10.7552 59.621 10.7552ZM59.621-74.4936Q63.132-74.4936 66.3487-71.3216Q69.5654-68.1496 72.0852-62.6261Q74.6049-57.1026 76.0738-50.0406Q77.5426-42.9785 77.5426-35.136Q77.5426-27.4382 76.0738-20.4111Q74.6049-13.3841 72.0852-7.86736Q69.5654-2.35066 66.3487 0.844243Q63.132 4.03915 59.621 4.03915Q56.1542 4.03915 52.9298 0.853321Q49.7055-2.33251 47.1895-7.8492Q44.6736-13.3659 43.2086-20.4021Q41.7436-27.4382 41.7436-35.136Q41.7436-42.9785 43.2086-50.0406Q44.6736-57.1026 47.1895-62.6261Q49.7055-68.1496 52.9298-71.3216Q56.1542-74.4936 59.621-74.4936ZM56.054-80.5348L56.054 9.83112L63.1957 9.83112L63.1957-80.5348ZM59.621-19.0535Q51.9464-19.0535 44.9959-17.8135Q38.0453-16.5735 32.5904-14.2789Q27.1355-11.9843 23.7995-8.88301L29.2359-4.36993Q33.9235-7.97387 41.843-9.93522Q49.7626-11.8966 59.621-11.8966Q69.5236-11.8966 77.4522-9.93522Q85.3809-7.97387 90.0426-4.36993L95.4867-8.88301Q92.1507-11.9843 86.6737-14.2789Q81.1967-16.5735 74.2773-17.8135Q67.3579-19.0535 59.621-19.0535ZM104.12-38.8353L15.1296-38.8353L15.1296-31.686L104.12-31.686ZM59.621-51.2186Q67.3579-51.2186 74.2773-52.4586Q81.1967-53.6985 86.6737-56.0022Q92.1507-58.3059 95.4867-61.3891L90.0426-65.9021Q85.3809-62.2982 77.4522-60.3368Q69.5236-58.3755 59.621-58.3755Q49.7807-58.3755 41.8612-60.3368Q33.9416-62.2982 29.2359-65.9021L23.7995-61.3891Q27.1355-58.3059 32.5904-56.0022Q38.0453-53.6985 44.9959-52.4586Q51.9464-51.2186 59.621-51.2186ZM59.621 15.6559Q70.1203 15.6559 79.3244 11.6886Q88.5284 7.72135 95.5566 0.674869Q102.585-6.37161 106.574-15.5756Q110.564-24.7797 110.564-35.2425Q110.564-45.7053 106.574-54.9093Q102.585-64.1134 95.5384-71.1598Q88.4919-78.2063 79.2879-82.1736Q70.0838-86.1408 59.5845-86.1408Q49.1293-86.1408 39.9215-82.1736Q30.7136-78.2063 23.7075-71.1598Q16.7013-64.1134 12.712-54.9093Q8.72266-45.7053 8.72266-35.2425Q8.72266-24.7797 12.712-15.5756Q16.7013-6.37161 23.7257 0.674869Q30.7501 7.72135 39.958 11.6886Q49.1658 15.6559 59.621 15.6559ZM59.621 6.95197Q50.9825 6.95197 43.3561 3.64486Q35.7297 0.337757 29.9073-5.48465Q24.0849-11.3071 20.7778-18.9555Q17.4707-26.604 17.4707-35.2425Q17.4707-43.881 20.7557-51.5295Q24.0408-59.1779 29.867-65.0003Q35.6932-70.8227 43.3196-74.1298Q50.946-77.4369 59.5845-77.4369Q68.2672-77.4369 75.8936-74.1298Q83.5199-70.8227 89.3606-65.0003Q95.2013-59.1779 98.5084-51.5295Q101.815-43.881 101.815-35.2425Q101.815-26.604 98.5084-18.9555Q95.2013-11.3071 89.3788-5.48465Q83.5564 0.337757 75.9301 3.64486Q68.3037 6.95197 59.621 6.95197Z"/>
  </g>
  <g id="Medium-M" transform="matrix(1 0 0 1 1687.4 1126)">
   <path d="M59.1311 11.2168Q64.3051 11.2168 68.8292 7.71653Q73.3533 4.21623 76.7761-2.05645Q80.1989-8.32912 82.1458-16.7917Q84.0927-25.2543 84.0927-35.136Q84.0927-45.0709 82.1718-53.56Q80.251-62.0491 76.8021-68.3478Q73.3533-74.6464 68.8506-78.1635Q64.3478-81.6806 59.1311-81.6806Q53.9673-81.6806 49.4381-78.1635Q44.9089-74.6464 41.486-68.3478Q38.0632-62.0491 36.1377-53.56Q34.2122-45.0709 34.2122-35.136Q34.2122-25.2543 36.1377-16.7917Q38.0632-8.32912 41.512-2.05645Q44.9609 4.21623 49.4641 7.71653Q53.9673 11.2168 59.1311 11.2168ZM59.1311-75.2963Q62.6818-75.2963 65.9184-72.0801Q69.155-68.8639 71.6813-63.2424Q74.2076-57.621 75.6781-50.4073Q77.1486-43.1935 77.1486-35.136Q77.1486-27.2392 75.6781-20.0612Q74.2076-12.8832 71.6813-7.26927Q69.155-1.65538 65.9184 1.58857Q62.6818 4.83252 59.1311 4.83252Q55.6324 4.83252 52.3865 1.59371Q49.1406-1.6451 46.619-7.259Q44.0973-12.8729 42.6314-20.056Q41.1655-27.2392 41.1655-35.136Q41.1655-43.1935 42.6314-50.4073Q44.0973-57.621 46.619-63.2424Q49.1406-68.8639 52.3865-72.0801Q55.6324-75.2963 59.1311-75.2963ZM55.726-80.9963L55.726 10.2833L62.5454 10.2833L62.5454-80.9963ZM59.1311-18.1249Q51.5449-18.1249 44.6734-16.881Q37.8019-15.6372 32.3865-13.3294Q26.9711-11.0216 23.5958-7.91435L28.7987-3.60757Q33.5684-7.30911 41.4015-9.29804Q49.2345-11.287 59.1311-11.287Q69.0796-11.287 76.9178-9.29804Q84.756-7.30911 89.5062-3.60757L94.7184-7.91435Q91.343-11.0216 85.9016-13.3294Q80.4602-15.6372 73.6199-16.881Q66.7795-18.1249 59.1311-18.1249ZM103.87-38.675L14.4012-38.675L14.4012-31.8463L103.87-31.8463ZM59.1311-52.1472Q66.7795-52.1472 73.6199-53.391Q80.4602-54.6349 85.9016-56.9478Q91.343-59.2607 94.7184-62.3577L89.5062-66.6645Q84.756-62.963 76.9178-60.974Q69.0796-58.9851 59.1311-58.9851Q49.2448-58.9851 41.4117-60.974Q33.5787-62.963 28.7987-66.6645L23.5958-62.3577Q26.9711-59.2607 32.3865-56.9478Q37.8019-54.6349 44.6734-53.391Q51.5449-52.1472 59.1311-52.1472ZM59.1311 15.158Q69.523 15.158 78.6385 11.2287Q87.754 7.29942 94.7174 0.314603Q101.681-6.67021 105.636-15.7857Q109.591-24.9012 109.591-35.2504Q109.591-45.5995 105.636-54.715Q101.681-63.8305 94.696-70.8153Q87.7112-77.8002 78.5957-81.7295Q69.4802-85.6588 59.0883-85.6588Q48.7484-85.6588 39.6283-81.7295Q30.5081-77.8002 23.5707-70.8153Q16.6333-63.8305 12.678-54.715Q8.72266-45.5995 8.72266-35.2504Q8.72266-24.9012 12.678-15.7857Q16.6333-6.67021 23.5921 0.314603Q30.5509 7.29942 39.671 11.2287Q48.7912 15.158 59.1311 15.158ZM59.1311 7.36587Q50.4166 7.36587 42.7176 4.02402Q35.0185 0.682184 29.1345-5.20181Q23.2505-11.0858 19.9087-18.8109Q16.5669-26.5359 16.5669-35.2504Q16.5669-43.9648 19.8827-51.6899Q23.1985-59.4149 29.0871-65.2989Q34.9758-71.1829 42.6748-74.5248Q50.3739-77.8666 59.0883-77.8666Q67.8547-77.8666 75.5538-74.5248Q83.2528-71.1829 89.1582-65.2989Q95.0636-59.4149 98.4055-51.6899Q101.747-43.9648 101.747-35.2504Q101.747-26.5359 98.4055-18.8109Q95.0636-11.0858 89.1796-5.20181Q83.2956 0.682184 75.5966 4.02402Q67.8975 7.36587 59.1311 7.36587Z"/>
  </g>
  <g id="Regular-M" transform="matrix(1 0 0 1 1391.32 1126)">
   <path d="M58.492 11.819Q63.5895 11.819 68.0639 8.29322Q72.5384 4.76742 75.917-1.56775Q79.2956-7.90293 81.2271-16.4868Q83.1585-25.0708 83.1585-35.136Q83.1585-45.2523 81.2582-53.8617Q79.3579-62.4711 75.9482-68.8374Q72.5384-75.2037 68.0894-78.7493Q63.6404-82.2949 58.492-82.2949Q53.3946-82.2949 48.9201-78.7493Q44.4456-75.2037 41.067-68.8374Q37.6884-62.4711 35.7824-53.8617Q33.8764-45.2523 33.8764-35.136Q33.8764-25.0708 35.7824-16.4868Q37.6884-7.90293 41.0981-1.56775Q44.5079 4.76742 48.9512 8.29322Q53.3946 11.819 58.492 11.819ZM58.492-76.3433Q62.0945-76.3433 65.3571-73.0694Q68.6198-69.7955 71.1546-64.0464Q73.6893-58.2972 75.162-50.8856Q76.6348-43.4739 76.6348-35.136Q76.6348-26.9795 75.162-19.6047Q73.6893-12.2298 71.1546-6.48916Q68.6198-0.748482 65.3571 2.55943Q62.0945 5.86735 58.492 5.86735Q54.9518 5.86735 51.6778 2.55943Q48.4038-0.748482 45.8747-6.48916Q43.3456-12.2298 41.8786-19.6047Q40.4115-26.9795 40.4115-35.136Q40.4115-43.4739 41.8786-50.8856Q43.3456-58.2972 45.8747-64.0464Q48.4038-69.7955 51.6778-73.0694Q54.9518-76.3433 58.492-76.3433ZM55.2981-81.5982L55.2981 10.8731L61.6972 10.8731L61.6972-81.5982ZM58.492-16.9137Q51.0212-16.9137 44.2528-15.6648Q37.4844-14.4159 32.1206-12.0909Q26.7568-9.76593 23.33-6.65088L28.2285-2.61318Q33.1053-6.44203 40.8255-8.46693Q48.5458-10.4918 58.492-10.4918Q68.5006-10.4918 76.2208-8.46693Q83.941-6.44203 88.8065-2.61318L93.7163-6.65088Q90.2895-9.76593 84.8946-12.0909Q79.4996-14.4159 72.7624-15.6648Q66.0251-16.9137 58.492-16.9137ZM103.544-38.4659L13.4511-38.4659L13.4511-32.0554L103.544-32.0554ZM58.492-53.3584Q66.0251-53.3584 72.7624-54.6073Q79.4996-55.8562 84.8946-58.1812Q90.2895-60.5061 93.7163-63.6212L88.8065-67.6589Q83.941-63.83 76.2208-61.8051Q68.5006-59.7802 58.492-59.7802Q48.5458-59.7802 40.8255-61.8051Q33.1053-63.83 28.2285-67.6589L23.33-63.6212Q26.7568-60.5061 32.1206-58.1812Q37.4844-55.8562 44.2528-54.6073Q51.0212-53.3584 58.492-53.3584ZM58.492 14.5087Q68.7438 14.5087 77.7439 10.6289Q86.7439 6.74907 93.6228-0.155309Q100.502-7.05969 104.413-16.0597Q108.324-25.0598 108.324-35.2606Q108.324-45.4615 104.413-54.4616Q100.502-63.4616 93.5973-70.366Q86.693-77.2704 77.6929-81.1502Q68.6929-85.03 58.441-85.03Q48.2515-85.03 39.2458-81.1502Q30.2401-77.2704 23.3923-70.366Q16.5446-63.4616 12.6336-54.4616Q8.72266-45.4615 8.72266-35.2606Q8.72266-25.0598 12.6336-16.0597Q16.5446-7.05969 23.4178-0.155309Q30.291 6.74907 39.2968 10.6289Q48.3025 14.5087 58.492 14.5087ZM58.492 7.90573Q49.6786 7.90573 41.8847 4.51858Q34.0909 1.13144 28.1265-4.83289Q22.1622-10.7972 18.7751-18.6222Q15.3879-26.4472 15.3879-35.2606Q15.3879-44.0741 18.7439-51.8991Q22.0999-59.7241 28.0699-65.6884Q34.0399-71.6527 41.8338-75.0399Q49.6276-78.427 58.441-78.427Q67.3168-78.427 75.1106-75.0399Q82.9045-71.6527 88.8943-65.6884Q94.8841-59.7241 98.2712-51.8991Q101.658-44.0741 101.658-35.2606Q101.658-26.4472 98.2712-18.6222Q94.8841-10.7972 88.9198-4.83289Q82.9554 1.13144 75.1616 4.51858Q67.3677 7.90573 58.492 7.90573Z"/>
  </g>
  <g id="Light-M" transform="matrix(1 0 0 1 1095.44 1126)">
   <path d="M57.664 11.7822Q62.5407 11.7822 66.8956 8.34841Q71.2505 4.91461 74.6015-1.33777Q77.9525-7.59015 79.8839-16.2017Q81.8154-24.8132 81.8154-35.136Q81.8154-45.4915 79.9151-54.1193Q78.0148-62.747 74.6327-69.0306Q71.2505-75.3141 66.9119-78.7493Q62.5733-82.1845 57.664-82.1845Q52.7874-82.1845 48.4325-78.7493Q44.0776-75.3141 40.7266-69.0306Q37.3756-62.747 35.4604-54.1193Q33.5453-45.4915 33.5453-35.136Q33.5453-24.8132 35.4604-16.2017Q37.3756-7.59015 40.7577-1.33777Q44.1399 4.91461 48.4636 8.34841Q52.7874 11.7822 57.664 11.7822ZM57.664-77.5944Q61.4506-77.5944 64.8512-74.2653Q68.2518-70.9362 70.9062-65.0583Q73.5605-59.1804 75.0977-51.5203Q76.6348-43.8603 76.6348-35.136Q76.6348-26.6851 75.0977-19.0711Q73.5605-11.4571 70.9062-5.55081Q68.2518 0.355458 64.8512 3.77377Q61.4506 7.19208 57.664 7.19208Q53.9398 7.19208 50.5095 3.77377Q47.0791 0.355458 44.4396-5.55081Q41.8001-11.4571 40.2779-19.0711Q38.7556-26.6851 38.7556-35.136Q38.7556-43.8603 40.2779-51.5203Q41.8001-59.1804 44.4396-65.0583Q47.0791-70.9362 50.5095-74.2653Q53.9398-77.5944 57.664-77.5944ZM55.1509-81.4694L55.1509 10.8179L60.2069 10.8179L60.2069-81.4694ZM57.664-15.7545Q50.3036-15.7545 43.6732-14.5516Q37.0428-13.3488 31.771-11.1434Q26.4992-8.93797 23.0724-6.02532L26.9221-2.81557Q31.9278-6.58922 39.74-8.61413Q47.5522-10.639 57.664-10.639Q67.8382-10.639 75.6504-8.61413Q83.4626-6.58922 88.4385-2.81557L92.3179-6.02532Q88.8912-8.93797 83.5883-11.1434Q78.2853-13.3488 71.686-14.5516Q65.0868-15.7545 57.664-15.7545ZM103.029-37.8035L12.3288-37.8035L12.3288-32.7178L103.029-32.7178ZM57.664-54.5175Q65.0868-54.5175 71.686-55.7204Q78.2853-56.9233 83.5883-59.1287Q88.8912-61.3341 92.3179-64.2468L88.4385-67.4565Q83.4626-63.6828 75.6504-61.6579Q67.8382-59.633 57.664-59.633Q47.5522-59.633 39.74-61.6579Q31.9278-63.6828 26.9221-67.4565L23.0724-64.2468Q26.4992-61.3341 31.771-59.1287Q37.0428-56.9233 43.6732-55.7204Q50.3036-54.5175 57.664-54.5175ZM57.664 13.6807Q67.7687 13.6807 76.6123 9.87453Q85.456 6.06831 92.2245-0.716478Q98.993-7.50127 102.83-16.3449Q106.668-25.1886 106.668-35.2606Q106.668-45.3327 102.83-54.1764Q98.993-63.02 92.2082-69.8048Q85.4234-76.5896 76.5798-80.3958Q67.7361-84.202 57.6315-84.202Q47.5892-84.202 38.7306-80.3958Q29.8721-76.5896 23.1348-69.8048Q16.3974-63.02 12.56-54.1764Q8.72266-45.3327 8.72266-35.2606Q8.72266-25.1886 12.56-16.3449Q16.3974-7.50127 23.151-0.716478Q29.9047 6.06831 38.7632 9.87453Q47.6217 13.6807 57.664 13.6807ZM57.664 8.49449Q48.7034 8.49449 40.7992 5.07055Q32.8949 1.64661 26.857-4.39131Q20.8191-10.4292 17.3952-18.3646Q13.9712-26.3 13.9712-35.2606Q13.9712-44.2213 17.364-52.1567Q20.7568-60.0921 26.8096-66.13Q32.8624-72.1679 40.7666-75.5918Q48.6709-79.0158 57.6315-79.0158Q66.6544-79.0158 74.5586-75.5918Q82.4629-72.1679 88.5171-66.13Q94.5713-60.0921 97.9952-52.1567Q101.419-44.2213 101.419-35.2606Q101.419-26.3 97.9952-18.3646Q94.5713-10.4292 88.5334-4.39131Q82.4955 1.64661 74.5912 5.07055Q66.687 8.49449 57.664 8.49449Z"/>
  </g>
  <g id="Thin-M" transform="matrix(1 0 0 1 799.822 1126)">
   <path d="M56.569 11.7335Q61.1537 11.7335 65.3504 8.42142Q69.5471 5.10929 72.8616-1.03359Q76.1761-7.17647 78.1075-15.8245Q80.039-24.4725 80.039-35.136Q80.039-45.8078 78.1387-54.4599Q76.2384-63.1121 72.8928-69.2861Q69.5471-75.4601 65.3545-78.7493Q61.1619-82.0385 56.569-82.0385Q51.9844-82.0385 47.7876-78.7493Q43.5909-75.4601 40.2764-69.2861Q36.9619-63.1121 35.0346-54.4599Q33.1073-45.8078 33.1073-35.136Q33.1073-24.4725 35.0346-15.8245Q36.9619-7.17647 40.3076-1.03359Q43.6532 5.10929 47.8188 8.42142Q51.9844 11.7335 56.569 11.7335ZM56.569-79.2491Q60.5989-79.2491 64.182-75.847Q67.7651-72.445 70.5777-66.3967Q73.3902-60.3484 75.0125-52.3598Q76.6348-44.3713 76.6348-35.136Q76.6348-26.2958 75.0125-18.3654Q73.3902-10.4351 70.5777-4.30977Q67.7651 1.81551 64.182 5.37982Q60.5989 8.94414 56.569 8.94414Q52.6015 8.94414 48.9643 5.37982Q45.3271 1.81551 42.5415-4.30977Q39.756-10.4351 38.1608-18.3654Q36.5656-26.2958 36.5656-35.136Q36.5656-44.3713 38.1608-52.3598Q39.756-60.3484 42.5415-66.3967Q45.3271-72.445 48.9643-75.847Q52.6015-79.2491 56.569-79.2491ZM54.9562-81.2991L54.9562 10.7449L58.2359 10.7449L58.2359-81.2991ZM56.569-14.2215Q49.3546-14.2215 42.9067-13.0794Q36.4588-11.9374 31.3086-9.89015Q26.1585-7.84293 22.7318-5.19795L25.1944-3.08324Q30.3704-6.7839 38.3043-8.8088Q46.2382-10.8337 56.569-10.8337Q66.9622-10.8337 74.896-8.8088Q82.8299-6.7839 87.9518-3.08324L90.4686-5.19795Q87.0418-7.84293 81.8605-9.89015Q76.6793-11.9374 70.2625-13.0794Q63.8457-14.2215 56.569-14.2215ZM102.348-36.9275L10.8444-36.9275L10.8444-33.5938L102.348-33.5938ZM56.569-56.0506Q63.8457-56.0506 70.2625-57.1926Q76.6793-58.3347 81.8605-60.3819Q87.0418-62.4291 90.4686-65.0741L87.9518-67.1888Q82.8299-63.4882 74.896-61.4633Q66.9622-59.4384 56.569-59.4384Q46.2382-59.4384 38.3043-61.4633Q30.3704-63.4882 25.1944-67.1888L22.7318-65.0741Q26.1585-62.4291 31.3086-60.3819Q36.4588-58.3347 42.9067-57.1926Q49.3546-56.0506 56.569-56.0506ZM56.569 12.5857Q66.479 12.5857 75.1158 8.87683Q83.7526 5.16794 90.3751-1.45867Q96.9976-8.08529 100.738-16.7221Q104.478-25.3589 104.478-35.2606Q104.478-45.1624 100.738-53.7992Q96.9976-62.436 90.371-69.0626Q83.7444-75.6892 75.1076-79.3981Q66.4707-83.107 56.5608-83.107Q46.7131-83.107 38.0493-79.3981Q29.3854-75.6892 22.7941-69.0626Q16.2027-62.436 12.4627-53.7992Q8.72266-45.1624 8.72266-35.2606Q8.72266-25.3589 12.4627-16.7221Q16.2027-8.08529 22.7982-1.45867Q29.3936 5.16794 38.0575 8.87683Q46.7214 12.5857 56.569 12.5857ZM56.569 9.27319Q47.4137 9.27319 39.3635 5.80058Q31.3132 2.32797 25.178-3.80729Q19.0427-9.94255 15.5701-18.024Q12.0975-26.1054 12.0975-35.2606Q12.0975-44.4159 15.5389-52.4973Q18.9804-60.5787 25.1427-66.714Q31.305-72.8493 39.3552-76.3219Q47.4055-79.7945 56.5608-79.7945Q65.7784-79.7945 73.8286-76.3219Q81.8789-72.8493 88.0182-66.714Q94.1576-60.5787 97.6302-52.4973Q101.103-44.4159 101.103-35.2606Q101.103-26.1054 97.6302-18.024Q94.1576-9.94255 88.0224-3.80729Q81.8871 2.32797 73.8368 5.80058Q65.7866 9.27319 56.569 9.27319Z"/>
  </g>
  <g id="Ultralight-M" transform="matrix(1 0 0 1 503.672 1126)">
   <path d="M56.0081 11.7086Q60.4432 11.7086 64.5589 8.45881Q68.6747 5.209 71.9704-0.877792Q75.2662-6.96458 77.1977-15.6313Q79.1291-24.298 79.1291-35.136Q79.1291-45.9698 77.2288-54.6344Q75.3285-63.299 72.0016-69.417Q68.6747-75.5349 64.5568-78.7493Q60.439-81.9637 56.0081-81.9637Q51.573-81.9637 47.4573-78.7493Q43.3416-75.5349 40.0458-69.417Q36.75-63.299 34.8165-54.6344Q32.8829-45.9698 32.8829-35.136Q32.8829-24.298 34.8165-15.6313Q36.75-6.96458 40.077-0.877792Q43.4039 5.209 47.4885 8.45881Q51.573 11.7086 56.0081 11.7086ZM56.0081-80.0967Q60.1626-80.0967 63.8392-76.6572Q67.5158-73.2177 70.4094-67.0822Q73.303-60.9467 74.9689-52.7899Q76.6348-44.633 76.6348-35.136Q76.6348-26.0964 74.9689-18.004Q73.303-9.91157 70.4094-3.67412Q67.5158 2.56334 63.8392 6.20244Q60.1626 9.84153 56.0081 9.84153Q51.916 9.84153 48.1728 6.20244Q44.4297 2.56334 41.5694-3.67412Q38.7091-9.91157 37.0764-18.004Q35.4438-26.0964 35.4438-35.136Q35.4438-44.633 37.0764-52.7899Q38.7091-60.9467 41.5694-67.0822Q44.4297-73.2177 48.1728-76.6572Q51.916-80.0967 56.0081-80.0967ZM54.8565-81.2118L54.8565 10.7075L57.2263 10.7075L57.2263-81.2118ZM56.0081-13.4363Q48.8685-13.4363 42.5141-12.3254Q36.1596-11.2145 31.0718-9.24827Q25.984-7.28206 22.5573-4.77418L24.3095-3.22034Q29.5727-6.88361 37.5689-8.90851Q45.5651-10.9334 56.0081-10.9334Q66.5135-10.9334 74.5096-8.90851Q82.5058-6.88361 87.7026-3.22034L89.5213-4.77418Q86.0945-7.28206 80.9756-9.24827Q75.8566-11.2145 69.5333-12.3254Q63.2101-13.4363 56.0081-13.4363ZM101.999-36.4788L10.0841-36.4788L10.0841-34.0425L101.999-34.0425ZM56.0081-56.8358Q63.2101-56.8358 69.5333-57.9467Q75.8566-59.0576 80.9756-61.0238Q86.0945-62.99 89.5213-65.4979L87.7026-67.0517Q82.5058-63.3885 74.5096-61.3636Q66.5135-59.3387 56.0081-59.3387Q45.5651-59.3387 37.5689-61.3636Q29.5727-63.3885 24.3095-67.0517L22.5573-65.4979Q25.984-62.99 31.0718-61.0238Q36.1596-59.0576 42.5141-57.9467Q48.8685-56.8358 56.0081-56.8358ZM56.0081 12.0248Q65.8184 12.0248 74.3492 8.36581Q82.8801 4.70678 89.4278-1.83882Q95.9756-8.38442 99.6657-16.9153Q103.356-25.4462 103.356-35.2606Q103.356-45.0751 99.6657-53.606Q95.9756-62.1369 89.43-68.6825Q82.8844-75.2281 74.3535-78.8871Q65.8226-82.5461 56.0124-82.5461Q46.2644-82.5461 37.7003-78.8871Q29.1361-75.2281 22.6196-68.6825Q16.103-62.1369 12.4128-53.606Q8.72266-45.0751 8.72266-35.2606Q8.72266-25.4462 12.4128-16.9153Q16.103-8.38442 22.6175-1.83882Q29.1319 4.70678 37.6961 8.36581Q46.2602 12.0248 56.0081 12.0248ZM56.0081 9.67203Q46.7531 9.67203 38.6281 6.17449Q30.5031 2.67695 24.318-3.50816Q18.1328-9.69328 14.6353-17.8495Q11.1378-26.0056 11.1378-35.2606Q11.1378-44.5156 14.6042-52.6718Q18.0705-60.828 24.2889-67.0131Q30.5073-73.1982 38.6323-76.6958Q46.7574-80.1933 56.0124-80.1933Q65.3297-80.1933 73.4547-76.6958Q81.5797-73.1982 87.7627-67.0131Q93.9457-60.828 97.4433-52.6718Q100.941-44.5156 100.941-35.2606Q100.941-26.0056 97.4433-17.8495Q93.9457-9.69328 87.7606-3.50816Q81.5755 2.67695 73.4505 6.17449Q65.3254 9.67203 56.0081 9.67203Z"/>
  </g>
  <g id="Black-S" transform="matrix(1 0 0 1 2884.57 696)">
   <path d="M48.8281-1.2207Q53.1738-1.2207 56.9092-3.85742Q60.6445-6.49414 63.501-11.1572Q66.3574-15.8203 67.9443-21.9727Q69.5312-28.125 69.5312-35.1562Q69.5312-42.2363 67.9443-48.4131Q66.3574-54.5898 63.501-59.2529Q60.6445-63.916 56.9092-66.5527Q53.1738-69.1895 48.8281-69.1895Q44.5312-69.1895 40.7715-66.5527Q37.0117-63.916 34.1553-59.2529Q31.2988-54.5898 29.7119-48.4131Q28.125-42.2363 28.125-35.1562Q28.125-28.125 29.7119-21.9727Q31.2988-15.8203 34.1553-11.1572Q37.0117-6.49414 40.7715-3.85742Q44.5312-1.2207 48.8281-1.2207ZM48.8281-62.5488Q51.416-62.5488 53.8574-60.2539Q56.2988-57.959 58.252-54.0527Q60.2051-50.1465 61.3525-45.2637Q62.5-40.3809 62.5-35.1562Q62.5-29.9805 61.3525-25.1221Q60.2051-20.2637 58.252-16.3574Q56.2988-12.4512 53.8574-10.1562Q51.416-7.86133 48.8281-7.86133Q46.2402-7.86133 43.7988-10.1318Q41.3574-12.4023 39.4043-16.3086Q37.4512-20.2148 36.3037-25.0977Q35.1562-29.9805 35.1562-35.1562Q35.1562-40.3809 36.3037-45.2637Q37.4512-50.1465 39.4043-54.0527Q41.3574-57.959 43.7988-60.2539Q46.2402-62.5488 48.8281-62.5488ZM45.3613-68.7012L45.3613-1.9043L52.2949-1.9043L52.2949-68.7012ZM48.8281-26.5625Q42.4316-26.5625 36.6455-25.6104Q30.8594-24.6582 26.416-22.9248Q21.9727-21.1914 19.5312-18.7988L24.7559-14.4043Q28.0762-16.7969 34.668-18.2129Q41.2598-19.6289 48.8281-19.6289Q56.3965-19.6289 63.0127-18.2129Q69.6289-16.7969 72.9004-14.4043L78.125-18.7988Q75.6836-21.1914 71.2402-22.9248Q66.7969-24.6582 61.0352-25.6104Q55.2734-26.5625 48.8281-26.5625ZM82.666-38.7207L14.9902-38.7207L14.9902-31.7871L82.666-31.7871ZM48.8281-43.75Q55.2734-43.75 61.0352-44.7021Q66.7969-45.6543 71.2402-47.4121Q75.6836-49.1699 78.125-51.5137L72.9004-55.9082Q69.6289-53.5156 63.0127-52.0996Q56.3965-50.6836 48.8281-50.6836Q41.3086-50.6836 34.7168-52.0996Q28.125-53.5156 24.7559-55.9082L19.5312-51.5137Q21.9727-49.1699 26.416-47.4121Q30.8594-45.6543 36.6455-44.7021Q42.4316-43.75 48.8281-43.75ZM48.8281 6.78711Q57.5195 6.78711 65.1123 3.51562Q72.7051 0.244141 78.4912-5.54199Q84.2773-11.3281 87.5488-18.9209Q90.8203-26.5137 90.8203-35.2051Q90.8203-43.8965 87.5488-51.4893Q84.2773-59.082 78.4912-64.8682Q72.7051-70.6543 65.1123-73.9258Q57.5195-77.1973 48.8281-77.1973Q40.1367-77.1973 32.5439-73.9258Q24.9512-70.6543 19.165-64.8682Q13.3789-59.082 10.1074-51.4893Q6.83594-43.8965 6.83594-35.2051Q6.83594-26.5137 10.1074-18.9209Q13.3789-11.3281 19.165-5.54199Q24.9512 0.244141 32.5439 3.51562Q40.1367 6.78711 48.8281 6.78711ZM48.8281-3.95508Q42.3828-3.95508 36.7188-6.39648Q31.0547-8.83789 26.7578-13.1348Q22.4609-17.4316 20.0195-23.0957Q17.5781-28.7598 17.5781-35.2051Q17.5781-41.6504 20.0195-47.3145Q22.4609-52.9785 26.7578-57.2754Q31.0547-61.5723 36.7188-64.0137Q42.3828-66.4551 48.8281-66.4551Q55.2734-66.4551 60.9375-64.0137Q66.6016-61.5723 70.8984-57.2754Q75.1953-52.9785 77.6367-47.3145Q80.0781-41.6504 80.0781-35.2051Q80.0781-28.7598 77.6367-23.0957Q75.1953-17.4316 70.8984-13.1348Q66.6016-8.83789 60.9375-6.39648Q55.2734-3.95508 48.8281-3.95508Z"/>
  </g>
  <g id="Heavy-S" transform="matrix(1 0 0 1 2588.47 696)">
   <path d="M48.2173-0.54076Q52.5054-0.54076 56.2004-3.21781Q59.8954-5.89487 62.7058-10.6386Q65.5161-15.3824 67.0858-21.6673Q68.6554-27.9521 68.6554-35.1562Q68.6554-42.4092 67.0915-48.7185Q65.5277-55.0278 62.7116-59.7773Q59.8954-64.5268 56.2062-67.2096Q52.5169-69.8924 48.2173-69.8924Q43.9666-69.8924 40.2529-67.2096Q36.5392-64.5268 33.7289-59.7773Q30.9185-55.0278 29.3547-48.7185Q27.7908-42.4092 27.7908-35.1562Q27.7908-27.9521 29.3547-21.6673Q30.9185-15.3824 33.7346-10.6386Q36.5507-5.89487 40.2586-3.21781Q43.9666-0.54076 48.2173-0.54076ZM48.2173-63.563Q50.8398-63.563 53.2927-61.2104Q55.7457-58.8579 57.693-54.8249Q59.6404-50.7919 60.7821-45.7189Q61.9238-40.6459 61.9238-35.1562Q61.9238-29.7269 60.7821-24.6784Q59.6404-19.6298 57.693-15.6026Q55.7457-11.5753 53.2927-9.22277Q50.8398-6.87022 48.2173-6.87022Q45.6064-6.87022 43.1535-9.20412Q40.7005-11.538 38.7532-15.5653Q36.8058-19.5925 35.6641-24.6597Q34.5224-29.7269 34.5224-35.1562Q34.5224-40.6459 35.6641-45.7189Q36.8058-50.7919 38.7532-54.8249Q40.7005-58.8579 43.1535-61.2104Q45.6064-63.563 48.2173-63.563ZM44.9003-69.3926L44.9003-1.23588L51.5343-1.23588L51.5343-69.3926ZM48.2173-25.3524Q41.9361-25.3524 36.2479-24.3888Q30.5597-23.4251 26.1625-21.6571Q21.7652-19.8891 19.2662-17.462L24.2834-13.2634Q27.7074-15.8058 34.1609-17.2621Q40.6144-18.7185 48.2173-18.7185Q55.8318-18.7185 62.3039-17.2621Q68.7761-15.8058 72.1628-13.2634L77.18-17.462Q74.681-19.8891 70.2779-21.6571Q65.8749-23.4251 60.2112-24.3888Q54.5474-25.3524 48.2173-25.3524ZM82.3664-38.5709L14.0683-38.5709L14.0683-31.9369L82.3664-31.9369ZM48.2173-44.9601Q54.5474-44.9601 60.2112-45.9237Q65.8749-46.8874 70.2779-48.674Q74.681-50.4607 77.18-52.8505L72.1628-57.0491Q68.7761-54.5067 62.3039-53.0504Q55.8318-51.594 48.2173-51.594Q40.6517-51.594 34.1982-53.0504Q27.7447-54.5067 24.2834-57.0491L19.2662-52.8505Q21.7652-50.4607 26.1625-48.674Q30.5597-46.8874 36.2479-45.9237Q41.9361-44.9601 48.2173-44.9601ZM48.2173 6.16479Q56.7704 6.16479 64.2537 2.9394Q71.737-0.285985 77.4425-5.99721Q83.1479-11.7084 86.3791-19.1917Q89.6102-26.675 89.6102-35.2166Q89.6102-43.7582 86.3791-51.2415Q83.1479-58.7248 77.4367-64.436Q71.7255-70.1472 64.2422-73.3726Q56.7589-76.598 48.2058-76.598Q39.6642-76.598 32.1809-73.3726Q24.6976-70.1472 18.9979-64.436Q13.2982-58.7248 10.0671-51.2415Q6.83594-43.7582 6.83594-35.2166Q6.83594-26.675 10.0671-19.1917Q13.2982-11.7084 19.0037-5.99721Q24.7092-0.285985 32.1924 2.9394Q39.6757 6.16479 48.2173 6.16479ZM48.2173-3.42495Q41.6798-3.42495 35.9236-5.91246Q30.1673-8.39996 25.7898-12.7775Q21.4122-17.1551 18.9247-22.9171Q16.4372-28.6791 16.4372-35.2166Q16.4372-41.7541 18.9189-47.5161Q21.4007-53.2782 25.7782-57.6557Q30.1558-62.0332 35.912-64.5207Q41.6683-67.0083 48.2058-67.0083Q54.7548-67.0083 60.5111-64.5207Q66.2674-62.0332 70.6507-57.6557Q75.034-53.2782 77.5215-47.5161Q80.009-41.7541 80.009-35.2166Q80.009-28.6791 77.5215-22.9171Q75.034-17.1551 70.6564-12.7775Q66.2789-8.39996 60.5226-5.91246Q54.7664-3.42495 48.2173-3.42495Z"/>
  </g>
  <g id="Bold-S" transform="matrix(1 0 0 1 2292.43 696)">
   <path d="M47.5342 0.219727Q51.7578 0.219727 55.4077-2.50244Q59.0576-5.22461 61.8164-10.0586Q64.5752-14.8926 66.1255-21.3257Q67.6758-27.7588 67.6758-35.1562Q67.6758-42.6025 66.1377-49.0601Q64.5996-55.5176 61.8286-60.3638Q59.0576-65.21 55.4199-67.9443Q51.7822-70.6787 47.5342-70.6787Q43.335-70.6787 39.6729-67.9443Q36.0107-65.21 33.252-60.3638Q30.4932-55.5176 28.9551-49.0601Q27.417-42.6025 27.417-35.1562Q27.417-27.7588 28.9551-21.3257Q30.4932-14.8926 33.2642-10.0586Q36.0352-5.22461 39.6851-2.50244Q43.335 0.219727 47.5342 0.219727ZM47.5342-64.6973Q50.1953-64.6973 52.6611-62.2803Q55.127-59.8633 57.0679-55.6885Q59.0088-51.5137 60.144-46.228Q61.2793-40.9424 61.2793-35.1562Q61.2793-29.4434 60.144-24.1821Q59.0088-18.9209 57.0679-14.7583Q55.127-10.5957 52.6611-8.17871Q50.1953-5.76172 47.5342-5.76172Q44.8975-5.76172 42.4316-8.1665Q39.9658-10.5713 38.0249-14.7339Q36.084-18.8965 34.9487-24.1699Q33.8135-29.4434 33.8135-35.1562Q33.8135-40.9424 34.9487-46.228Q36.084-51.5137 38.0249-55.6885Q39.9658-59.8633 42.4316-62.2803Q44.8975-64.6973 47.5342-64.6973ZM44.3848-70.166L44.3848-0.488281L50.6836-0.488281L50.6836-70.166ZM47.5342-23.999Q41.3818-23.999 35.8032-23.0225Q30.2246-22.0459 25.8789-20.2393Q21.5332-18.4326 18.9697-15.9668L23.7549-11.9873Q27.2949-14.6973 33.5938-16.1987Q39.8926-17.7002 47.5342-17.7002Q55.2002-17.7002 61.5112-16.1987Q67.8223-14.6973 71.3379-11.9873L76.123-15.9668Q73.5596-18.4326 69.2017-20.2393Q64.8438-22.0459 59.2896-23.0225Q53.7354-23.999 47.5342-23.999ZM82.0312-38.4033L13.0371-38.4033L13.0371-32.1045L82.0312-32.1045ZM47.5342-46.3135Q53.7354-46.3135 59.2896-47.29Q64.8438-48.2666 69.2017-50.0854Q73.5596-51.9043 76.123-54.3457L71.3379-58.3252Q67.8223-55.6152 61.5112-54.1138Q55.2002-52.6123 47.5342-52.6123Q39.917-52.6123 33.6182-54.1138Q27.3193-55.6152 23.7549-58.3252L18.9697-54.3457Q21.5332-51.9043 25.8789-50.0854Q30.2246-48.2666 35.8032-47.29Q41.3818-46.3135 47.5342-46.3135ZM47.5342 5.46875Q55.9326 5.46875 63.2935 2.29492Q70.6543-0.878906 76.2695-6.50635Q81.8848-12.1338 85.0708-19.4946Q88.2568-26.8555 88.2568-35.2295Q88.2568-43.6035 85.0708-50.9644Q81.8848-58.3252 76.2573-63.9526Q70.6299-69.5801 63.269-72.7539Q55.9082-75.9277 47.5098-75.9277Q39.1357-75.9277 31.7749-72.7539Q24.4141-69.5801 18.811-63.9526Q13.208-58.3252 10.022-50.9644Q6.83594-43.6035 6.83594-35.2295Q6.83594-26.8555 10.022-19.4946Q13.208-12.1338 18.8232-6.50635Q24.4385-0.878906 31.7993 2.29492Q39.1602 5.46875 47.5342 5.46875ZM47.5342-2.83203Q40.8936-2.83203 35.0342-5.37109Q29.1748-7.91016 24.707-12.3779Q20.2393-16.8457 17.7002-22.7173Q15.1611-28.5889 15.1611-35.2295Q15.1611-41.8701 17.688-47.7417Q20.2148-53.6133 24.6826-58.0811Q29.1504-62.5488 35.0098-65.0879Q40.8691-67.627 47.5098-67.627Q54.1748-67.627 60.0342-65.0879Q65.8936-62.5488 70.3735-58.0811Q74.8535-53.6133 77.3926-47.7417Q79.9316-41.8701 79.9316-35.2295Q79.9316-28.5889 77.3926-22.7173Q74.8535-16.8457 70.3857-12.3779Q65.918-7.91016 60.0586-5.37109Q54.1992-2.83203 47.5342-2.83203Z"/>
  </g>
  <g id="Semibold-S" transform="matrix(1 0 0 1 1996.19 696)">
   <path d="M47.0632 0.744043Q51.2424 0.744043 54.8612-2.00923Q58.48-4.7625 61.2032-9.65869Q63.9265-14.5549 65.4634-21.0902Q67.0004-27.6255 67.0004-35.1562Q67.0004-42.7358 65.4801-49.2956Q63.9598-55.8553 61.2199-60.7681Q58.48-65.681 54.8778-68.4509Q51.2757-71.2208 47.0632-71.2208Q42.8995-71.2208 39.2729-68.4509Q35.6464-65.681 32.9231-60.7681Q30.1999-55.8553 28.6796-49.2956Q27.1593-42.7358 27.1593-35.1562Q27.1593-27.6255 28.6796-21.0902Q30.1999-14.5549 32.9398-9.65869Q35.6797-4.7625 39.2896-2.00923Q42.8995 0.744043 47.0632 0.744043ZM47.0632-65.4793Q49.751-65.4793 52.2257-63.0179Q54.7004-60.5564 56.6369-56.2839Q58.5733-52.0113 59.7042-46.5791Q60.835-41.1468 60.835-35.1562Q60.835-29.2479 59.7042-23.84Q58.5733-18.4321 56.6369-14.1762Q54.7004-9.92031 52.2257-7.45889Q49.751-4.99746 47.0632-4.99746Q44.4087-4.99746 41.934-7.45112Q39.4593-9.90479 37.5228-14.1607Q35.5863-18.4166 34.4555-23.8322Q33.3247-29.2479 33.3247-35.1562Q33.3247-41.1468 34.4555-46.5791Q35.5863-52.0113 37.5228-56.2839Q39.4593-60.5564 41.934-63.0179Q44.4087-65.4793 47.0632-65.4793ZM44.0293-70.6992L44.0293 0.0271484L50.0971 0.0271484L50.0971-70.6992ZM47.0632-23.0659Q40.9997-23.0659 35.4966-22.0805Q29.9936-21.095 25.6834-19.2617Q21.3732-17.4284 18.7653-14.9359L23.3905-11.1075Q27.0105-13.933 33.2027-15.4656Q39.3949-16.9981 47.0632-16.9981Q54.7647-16.9981 60.9647-15.4656Q67.1646-13.933 70.7691-11.1075L75.3943-14.9359Q72.7864-17.4284 68.4596-19.2617Q64.1328-21.095 58.6542-22.0805Q53.1755-23.0659 47.0632-23.0659ZM81.8002-38.2878L12.3262-38.2878L12.3262-32.22L81.8002-32.22ZM47.0632-47.2466Q53.1755-47.2466 58.6542-48.232Q64.1328-49.2175 68.4596-51.0585Q72.7864-52.8996 75.3943-55.3766L70.7691-59.205Q67.1646-56.3795 60.9647-54.8469Q54.7647-53.3144 47.0632-53.3144Q39.4104-53.3144 33.2183-54.8469Q27.0261-56.3795 23.3905-59.205L18.7653-55.3766Q21.3732-52.8996 25.6834-51.0585Q29.9936-49.2175 35.4966-48.232Q40.9997-47.2466 47.0632-47.2466ZM47.0632 4.98887Q55.355 4.98887 62.6314 1.85059Q69.9078-1.2877 75.4608-6.85737Q81.0139-12.4271 84.1688-19.7035Q87.3237-26.9799 87.3237-35.2384Q87.3237-43.4969 84.1688-50.7733Q81.0139-58.0497 75.4442-63.6194Q69.8745-69.1891 62.5981-72.3273Q55.3217-75.4656 47.0299-75.4656Q38.7714-75.4656 31.495-72.3273Q24.2186-69.1891 18.6822-63.6194Q13.1458-58.0497 9.99087-50.7733Q6.83594-43.4969 6.83594-35.2384Q6.83594-26.9799 9.99087-19.7035Q13.1458-12.4271 18.6988-6.85737Q24.2519-1.2877 31.5283 1.85059Q38.8047 4.98887 47.0632 4.98887ZM47.0632-2.42324Q40.3515-2.42324 34.421-4.99785Q28.4905-7.57246 23.9605-12.1024Q19.4306-16.6324 16.856-22.5795Q14.2813-28.5267 14.2813-35.2384Q14.2813-41.9501 16.8393-47.8972Q19.3973-53.8443 23.9272-58.3743Q28.4572-62.9043 34.3877-65.4789Q40.3182-68.0535 47.0299-68.0535Q53.7749-68.0535 59.7054-65.4789Q65.6358-62.9043 70.1825-58.3743Q74.7291-53.8443 77.3037-47.8972Q79.8783-41.9501 79.8783-35.2384Q79.8783-28.5267 77.3037-22.5795Q74.7291-16.6324 70.1991-12.1024Q65.6691-7.57246 59.7387-4.99785Q53.8082-2.42324 47.0632-2.42324Z"/>
  </g>
  <g id="Medium-S" transform="matrix(1 0 0 1 1699.83 696)">
   <path d="M46.7061 1.1416Q50.8516 1.1416 54.4468-1.63525Q58.042-4.41211 60.7383-9.35547Q63.4346-14.2988 64.9614-20.9116Q66.4883-27.5244 66.4883-35.1562Q66.4883-42.8369 64.9814-49.4741Q63.4746-56.1113 60.7583-61.0747Q58.042-66.0381 54.4668-68.835Q50.8916-71.6318 46.7061-71.6318Q42.5693-71.6318 38.9697-68.835Q35.3701-66.0381 32.6738-61.0747Q29.9775-56.1113 28.4707-49.4741Q26.9639-42.8369 26.9639-35.1562Q26.9639-27.5244 28.4707-20.9116Q29.9775-14.2988 32.6938-9.35547Q35.4102-4.41211 38.9897-1.63525Q42.5693 1.1416 46.7061 1.1416ZM46.7061-66.0723Q49.4141-66.0723 51.8955-63.5771Q54.377-61.082 56.3101-56.7354Q58.2432-52.3887 59.3706-46.8452Q60.498-41.3018 60.498-35.1562Q60.498-29.0996 59.3706-23.5806Q58.2432-18.0615 56.3101-13.7349Q54.377-9.4082 51.8955-6.91309Q49.4141-4.41797 46.7061-4.41797Q44.0381-4.41797 41.5566-6.90869Q39.0752-9.39941 37.1421-13.7261Q35.209-18.0527 34.0815-23.5762Q32.9541-29.0996 32.9541-35.1562Q32.9541-41.3018 34.0815-46.8452Q35.209-52.3887 37.1421-56.7354Q39.0752-61.082 41.5566-63.5771Q44.0381-66.0723 46.7061-66.0723ZM43.7598-71.1035L43.7598 0.417969L49.6523 0.417969L49.6523-71.1035ZM46.7061-22.3584Q40.71-22.3584 35.2642-21.3662Q29.8184-20.374 25.5352-18.5205Q21.252-16.667 18.6104-14.1543L23.1143-10.4404Q26.7949-13.3535 32.9062-14.9097Q39.0176-16.4658 46.7061-16.4658Q54.4346-16.4658 60.5503-14.9097Q66.666-13.3535 70.3379-10.4404L74.8418-14.1543Q72.2002-16.667 67.897-18.5205Q63.5938-20.374 58.1724-21.3662Q52.751-22.3584 46.7061-22.3584ZM81.625-38.2002L11.7871-38.2002L11.7871-32.3076L81.625-32.3076ZM46.7061-47.9541Q52.751-47.9541 58.1724-48.9463Q63.5938-49.9385 67.897-51.7964Q72.2002-53.6543 74.8418-56.1582L70.3379-59.8721Q66.666-56.959 60.5503-55.4028Q54.4346-53.8467 46.7061-53.8467Q39.0264-53.8467 32.915-55.4028Q26.8037-56.959 23.1143-59.8721L18.6104-56.1582Q21.252-53.6543 25.5352-51.7964Q29.8184-49.9385 35.2642-48.9463Q40.71-47.9541 46.7061-47.9541ZM46.7061 4.625Q54.917 4.625 62.1294 1.51367Q69.3418-1.59766 74.8477-7.12354Q80.3535-12.6494 83.4849-19.8618Q86.6162-27.0742 86.6162-35.2451Q86.6162-43.416 83.4849-50.6284Q80.3535-57.8408 74.8276-63.3667Q69.3018-68.8926 62.0894-72.0039Q54.877-75.1152 46.666-75.1152Q38.4951-75.1152 31.2827-72.0039Q24.0703-68.8926 18.5845-63.3667Q13.0986-57.8408 9.96729-50.6284Q6.83594-43.416 6.83594-35.2451Q6.83594-27.0742 9.96729-19.8618Q13.0986-12.6494 18.6045-7.12354Q24.1104-1.59766 31.3228 1.51367Q38.5352 4.625 46.7061 4.625ZM46.7061-2.11328Q39.9404-2.11328 33.9561-4.71484Q27.9717-7.31641 23.3945-11.8936Q18.8174-16.4707 16.2158-22.4751Q13.6143-28.4795 13.6143-35.2451Q13.6143-42.0107 16.1958-48.0151Q18.7773-54.0195 23.3545-58.5967Q27.9316-63.1738 33.916-65.7754Q39.9004-68.377 46.666-68.377Q53.4717-68.377 59.4561-65.7754Q65.4404-63.1738 70.0376-58.5967Q74.6348-54.0195 77.2363-48.0151Q79.8379-42.0107 79.8379-35.2451Q79.8379-28.4795 77.2363-22.4751Q74.6348-16.4707 70.0576-11.8936Q65.4805-7.31641 59.4961-4.71484Q53.5117-2.11328 46.7061-2.11328Z"/>
  </g>
  <g id="Regular-S" transform="matrix(1 0 0 1 1403.58 696)">
   <path d="M46.2402 1.66016Q50.3418 1.66016 53.9062-1.14746Q57.4707-3.95508 60.1318-8.95996Q62.793-13.9648 64.3066-20.6787Q65.8203-27.3926 65.8203-35.1562Q65.8203-42.9688 64.3311-49.707Q62.8418-56.4453 60.1562-61.4746Q57.4707-66.5039 53.9307-69.3359Q50.3906-72.168 46.2402-72.168Q42.1387-72.168 38.5742-69.3359Q35.0098-66.5039 32.3486-61.4746Q29.6875-56.4453 28.1982-49.707Q26.709-42.9688 26.709-35.1562Q26.709-27.3926 28.1982-20.6787Q29.6875-13.9648 32.373-8.95996Q35.0586-3.95508 38.5986-1.14746Q42.1387 1.66016 46.2402 1.66016ZM46.2402-66.8457Q48.9746-66.8457 51.4648-64.3066Q53.9551-61.7676 55.8838-57.3242Q57.8125-52.8809 58.9355-47.1924Q60.0586-41.5039 60.0586-35.1562Q60.0586-28.9062 58.9355-23.2422Q57.8125-17.5781 55.8838-13.1592Q53.9551-8.74023 51.4648-6.20117Q48.9746-3.66211 46.2402-3.66211Q43.5547-3.66211 41.0645-6.20117Q38.5742-8.74023 36.6455-13.1592Q34.7168-17.5781 33.5938-23.2422Q32.4707-28.9062 32.4707-35.1562Q32.4707-41.5039 33.5938-47.1924Q34.7168-52.8809 36.6455-57.3242Q38.5742-61.7676 41.0645-64.3066Q43.5547-66.8457 46.2402-66.8457ZM43.4082-71.6309L43.4082 0.927734L49.0723 0.927734L49.0723-71.6309ZM46.2402-21.4355Q40.332-21.4355 34.9609-20.4346Q29.5898-19.4336 25.3418-17.5537Q21.0938-15.6738 18.4082-13.1348L22.7539-9.57031Q26.5137-12.5977 32.5195-14.1846Q38.5254-15.7715 46.2402-15.7715Q54.0039-15.7715 60.0098-14.1846Q66.0156-12.5977 69.7754-9.57031L74.1211-13.1348Q71.4355-15.6738 67.1631-17.5537Q62.8906-19.4336 57.5439-20.4346Q52.1973-21.4355 46.2402-21.4355ZM81.3965-38.0859L11.084-38.0859L11.084-32.4219L81.3965-32.4219ZM46.2402-48.877Q52.1973-48.877 57.5439-49.8779Q62.8906-50.8789 67.1631-52.7588Q71.4355-54.6387 74.1211-57.1777L69.7754-60.7422Q66.0156-57.7148 60.0098-56.1279Q54.0039-54.541 46.2402-54.541Q38.5254-54.541 32.5195-56.1279Q26.5137-57.7148 22.7539-60.7422L18.4082-57.1777Q21.0938-54.6387 25.3418-52.7588Q29.5898-50.8789 34.9609-49.8779Q40.332-48.877 46.2402-48.877ZM46.2402 4.15039Q54.3457 4.15039 61.4746 1.07422Q68.6035-2.00195 74.0479-7.4707Q79.4922-12.9395 82.5928-20.0684Q85.6934-27.1973 85.6934-35.2539Q85.6934-43.3105 82.5928-50.4395Q79.4922-57.5684 74.0234-63.0371Q68.5547-68.5059 61.4258-71.582Q54.2969-74.6582 46.1914-74.6582Q38.1348-74.6582 31.0059-71.582Q23.877-68.5059 18.457-63.0371Q13.0371-57.5684 9.93652-50.4395Q6.83594-43.3105 6.83594-35.2539Q6.83594-27.1973 9.93652-20.0684Q13.0371-12.9395 18.4814-7.4707Q23.9258-2.00195 31.0547 1.07422Q38.1836 4.15039 46.2402 4.15039ZM46.2402-1.70898Q39.4043-1.70898 33.3496-4.3457Q27.2949-6.98242 22.6562-11.6211Q18.0176-16.2598 15.3809-22.3389Q12.7441-28.418 12.7441-35.2539Q12.7441-42.0898 15.3564-48.1689Q17.9688-54.248 22.6074-58.8867Q27.2461-63.5254 33.3008-66.1621Q39.3555-68.7988 46.1914-68.7988Q53.0762-68.7988 59.1309-66.1621Q65.1855-63.5254 69.8486-58.8867Q74.5117-54.248 77.1484-48.1689Q79.7852-42.0898 79.7852-35.2539Q79.7852-28.418 77.1484-22.3389Q74.5117-16.2598 69.873-11.6211Q65.2344-6.98242 59.1797-4.3457Q53.125-1.70898 46.2402-1.70898Z"/>
  </g>
  <g id="Light-S" transform="matrix(1 0 0 1 1107.6 696)">
   <path d="M45.5078 1.6276Q49.4141 1.6276 52.8727-1.09863Q56.3314-3.82487 58.9681-8.75651Q61.6048-13.6882 63.1185-20.4264Q64.6322-27.1647 64.6322-35.1562Q64.6322-43.1803 63.1429-49.9349Q61.6536-56.6895 58.9925-61.6455Q56.3314-66.6016 52.889-69.3359Q49.4466-72.0703 45.5078-72.0703Q41.6016-72.0703 38.1429-69.3359Q34.6842-66.6016 32.0475-61.6455Q29.4108-56.6895 27.9134-49.9349Q26.416-43.1803 26.416-35.1562Q26.416-27.1647 27.9134-20.4264Q29.4108-13.6882 32.0719-8.75651Q34.7331-3.82487 38.1673-1.09863Q41.6016 1.6276 45.5078 1.6276ZM45.5078-67.9525Q48.4049-67.9525 51.0173-65.3646Q53.6296-62.7767 55.6641-58.2194Q57.6986-53.6621 58.8786-47.7539Q60.0586-41.8457 60.0586-35.1562Q60.0586-28.6458 58.8786-22.7702Q57.6986-16.8945 55.6641-12.3291Q53.6296-7.76367 51.0173-5.12695Q48.4049-2.49023 45.5078-2.49023Q42.6595-2.49023 40.0309-5.12695Q37.4023-7.76367 35.376-12.3291Q33.3496-16.8945 32.1777-22.7702Q31.0059-28.6458 31.0059-35.1562Q31.0059-41.8457 32.1777-47.7539Q33.3496-53.6621 35.376-58.2194Q37.4023-62.7767 40.0309-65.3646Q42.6595-67.9525 45.5078-67.9525ZM43.278-71.5169L43.278 0.878906L47.7539 0.878906L47.7539-71.5169ZM45.5078-20.4102Q39.6973-20.4102 34.4482-19.4499Q29.1992-18.4896 25.0326-16.7155Q20.8659-14.9414 18.1803-12.5814L21.5983-9.74935Q25.472-12.7279 31.5592-14.3148Q37.6465-15.9017 45.5078-15.9017Q53.418-15.9017 59.5052-14.3148Q65.5924-12.7279 69.4499-9.74935L72.8841-12.5814Q70.1986-14.9414 66.0075-16.7155Q61.8164-18.4896 56.5918-19.4499Q51.3672-20.4102 45.5078-20.4102ZM80.9408-37.5L10.0911-37.5L10.0911-33.0078L80.9408-33.0078ZM45.5078-49.9023Q51.3672-49.9023 56.5918-50.8626Q61.8164-51.8229 66.0075-53.597Q70.1986-55.3711 72.8841-57.7311L69.4499-60.5632Q65.5924-57.5846 59.5052-55.9977Q53.418-54.4108 45.5078-54.4108Q37.6465-54.4108 31.5592-55.9977Q25.472-57.5846 21.5983-60.5632L18.1803-57.7311Q20.8659-55.3711 25.0326-53.597Q29.1992-51.8229 34.4482-50.8626Q39.6973-49.9023 45.5078-49.9023ZM45.5078 3.41797Q53.4831 3.41797 60.4736 0.406901Q67.4642-2.60417 72.8109-7.96712Q78.1576-13.3301 81.193-20.3206Q84.2285-27.3112 84.2285-35.2539Q84.2285-43.1966 81.193-50.1872Q78.1576-57.1777 72.7946-62.5407Q67.4316-67.9036 60.4411-70.9147Q53.4505-73.9258 45.4753-73.9258Q37.5488-73.9258 30.5501-70.9147Q23.5514-67.9036 18.2292-62.5407Q12.9069-57.1777 9.87142-50.1872Q6.83594-43.1966 6.83594-35.2539Q6.83594-27.3112 9.87142-20.3206Q12.9069-13.3301 18.2454-7.96712Q23.584-2.60417 30.5827 0.406901Q37.5814 3.41797 45.5078 3.41797ZM45.5078-1.18815Q38.5417-1.18815 32.3893-3.85742Q26.237-6.52669 21.5332-11.2305Q16.8294-15.9342 14.1602-22.111Q11.4909-28.2878 11.4909-35.2539Q11.4909-42.2201 14.1357-48.3968Q16.7806-54.5736 21.4925-59.2773Q26.2044-63.9811 32.3568-66.6504Q38.5091-69.3197 45.4753-69.3197Q52.4902-69.3197 58.6426-66.6504Q64.7949-63.9811 69.515-59.2773Q74.235-54.5736 76.9043-48.3968Q79.5736-42.2201 79.5736-35.2539Q79.5736-28.2878 76.9043-22.111Q74.235-15.9342 69.5312-11.2305Q64.8275-6.52669 58.6751-3.85742Q52.5228-1.18815 45.5078-1.18815Z"/>
  </g>
  <g id="Thin-S" transform="matrix(1 0 0 1 811.859 696)">
   <path d="M44.5391 1.58455Q48.1871 1.58455 51.5058-1.03405Q54.8245-3.65266 57.429-8.48743Q60.0334-13.3222 61.5471-20.0928Q63.0607-26.8633 63.0607-35.1562Q63.0607-43.4602 61.5715-50.2363Q60.0822-57.0123 57.4534-61.8715Q54.8245-66.7307 51.5113-69.3359Q48.1981-71.9412 44.5391-71.9412Q40.8912-71.9412 37.5725-69.3359Q34.2537-66.7307 31.6493-61.8715Q29.0449-57.0123 27.5367-50.2363Q26.0285-43.4602 26.0285-35.1562Q26.0285-26.8633 27.5367-20.0928Q29.0449-13.3222 31.6737-8.48743Q34.3025-3.65266 37.5969-1.03405Q40.8912 1.58455 44.5391 1.58455ZM44.5391-69.4163Q47.6515-69.4163 50.4253-66.7638Q53.199-64.1113 55.3735-59.4034Q57.5479-54.6954 58.8032-48.4966Q60.0586-42.2978 60.0586-35.1562Q60.0586-28.3014 58.8032-22.1459Q57.5479-15.9904 55.3735-11.2313Q53.199-6.47209 50.4253-3.70621Q47.6515-0.940335 44.5391-0.940335Q41.4756-0.940335 38.664-3.70621Q35.8524-6.47209 33.6969-11.2313Q31.5414-15.9904 30.3049-22.1459Q29.0685-28.3014 29.0685-35.1562Q29.0685-42.2978 30.3049-48.4966Q31.5414-54.6954 33.6969-59.4034Q35.8524-64.1113 38.664-66.7638Q41.4756-69.4163 44.5391-69.4163ZM43.1058-71.3662L43.1058 0.814327L46.0103 0.814327L46.0103-71.3662ZM44.5391-19.054Q38.8577-19.054 33.7702-18.1475Q28.6826-17.2411 24.6236-15.6069Q20.5645-13.9727 17.879-11.8495L20.0699-9.98614Q24.0943-12.9001 30.2892-14.487Q36.4841-16.0739 44.5391-16.0739Q52.643-16.0739 58.8379-14.487Q65.0328-12.9001 69.0193-9.98614L71.2481-11.8495Q68.5626-13.9727 64.4791-15.6069Q60.3957-17.2411 55.3325-18.1475Q50.2693-19.054 44.5391-19.054ZM80.338-36.7251L8.77804-36.7251L8.77804-33.7828L80.338-33.7828ZM44.5391-51.2585Q50.2693-51.2585 55.3325-52.165Q60.3957-53.0714 64.4791-54.7056Q68.5626-56.3398 71.2481-58.463L69.0193-60.3264Q65.0328-57.4124 58.8379-55.8255Q52.643-54.2386 44.5391-54.2386Q36.4841-54.2386 30.2892-55.8255Q24.0943-57.4124 20.0699-60.3264L17.879-58.463Q20.5645-56.3398 24.6236-54.7056Q28.6826-53.0714 33.7702-52.165Q38.8577-51.2585 44.5391-51.2585ZM44.5391 2.44928Q52.3422 2.44928 59.1498-0.47568Q65.9573-3.40064 71.1749-8.62368Q76.3924-13.8467 79.3418-20.6543Q82.2911-27.4619 82.2911-35.2539Q82.2911-43.0459 79.3418-49.8535Q76.3924-56.6611 71.1694-61.8841Q65.9463-67.1072 59.1387-70.0321Q52.3311-72.9571 44.5281-72.9571Q36.7739-72.9571 29.9474-70.0321Q23.1209-67.1072 17.9278-61.8841Q12.7347-56.6611 9.78531-49.8535Q6.83594-43.0459 6.83594-35.2539Q6.83594-27.4619 9.78531-20.6543Q12.7347-13.8467 17.9333-8.62368Q23.1319-3.40064 29.9584-0.47568Q36.7849 2.44928 44.5391 2.44928ZM44.5391-0.499307Q37.4008-0.499307 31.1193-3.21163Q24.8378-5.92395 20.0479-10.7138Q15.258-15.5037 12.5457-21.8096Q9.83335-28.1155 9.83335-35.2539Q9.83335-42.3923 12.5213-48.6982Q15.2092-55.0041 20.018-59.794Q24.8267-64.5839 31.1082-67.2962Q37.3897-70.0085 44.5281-70.0085Q51.7153-70.0085 57.9968-67.2962Q64.2783-64.5839 69.0737-59.794Q73.8691-55.0041 76.5814-48.6982Q79.2937-42.3923 79.2937-35.2539Q79.2937-28.1155 76.5814-21.8096Q73.8691-15.5037 69.0792-10.7138Q64.2893-5.92395 58.0078-3.21163Q51.7263-0.499307 44.5391-0.499307Z"/>
  </g>
  <g id="Ultralight-S" transform="matrix(1 0 0 1 515.644 696)">
   <path d="M44.043 1.5625Q47.5586 1.5625 50.8057-1.00098Q54.0527-3.56445 56.6406-8.34961Q59.2285-13.1348 60.7422-19.9219Q62.2559-26.709 62.2559-35.1562Q62.2559-43.6035 60.7666-50.3906Q59.2773-57.1777 56.665-61.9873Q54.0527-66.7969 50.8057-69.3359Q47.5586-71.875 44.043-71.875Q40.5273-71.875 37.2803-69.3359Q34.0332-66.7969 31.4453-61.9873Q28.8574-57.1777 27.3438-50.3906Q25.8301-43.6035 25.8301-35.1562Q25.8301-26.709 27.3438-19.9219Q28.8574-13.1348 31.4697-8.34961Q34.082-3.56445 37.3047-1.00098Q40.5273 1.5625 44.043 1.5625ZM44.043-70.166Q47.2656-70.166 50.1221-67.4805Q52.9785-64.7949 55.2246-60.0098Q57.4707-55.2246 58.7646-48.877Q60.0586-42.5293 60.0586-35.1562Q60.0586-28.125 58.7646-21.8262Q57.4707-15.5273 55.2246-10.6689Q52.9785-5.81055 50.1221-2.97852Q47.2656-0.146484 44.043-0.146484Q40.8691-0.146484 37.9639-2.97852Q35.0586-5.81055 32.8369-10.6689Q30.6152-15.5273 29.3457-21.8262Q28.0762-28.125 28.0762-35.1562Q28.0762-42.5293 29.3457-48.877Q30.6152-55.2246 32.8369-60.0098Q35.0586-64.7949 37.9639-67.4805Q40.8691-70.166 44.043-70.166ZM43.0176-71.2891L43.0176 0.78125L45.1172 0.78125L45.1172-71.2891ZM44.043-18.3594Q38.4277-18.3594 33.4229-17.4805Q28.418-16.6016 24.4141-15.0391Q20.4102-13.4766 17.7246-11.4746L19.2871-10.1074Q23.3887-12.9883 29.6387-14.5752Q35.8887-16.1621 44.043-16.1621Q52.2461-16.1621 58.4961-14.5752Q64.7461-12.9883 68.7988-10.1074L70.4102-11.4746Q67.7246-13.4766 63.6963-15.0391Q59.668-16.6016 54.6875-17.4805Q49.707-18.3594 44.043-18.3594ZM80.0293-36.3281L8.10547-36.3281L8.10547-34.1797L80.0293-34.1797ZM44.043-51.9531Q49.707-51.9531 54.6875-52.832Q59.668-53.7109 63.6963-55.2734Q67.7246-56.8359 70.4102-58.8379L68.7988-60.2051Q64.7461-57.3242 58.4961-55.7373Q52.2461-54.1504 44.043-54.1504Q35.8887-54.1504 29.6387-55.7373Q23.3887-57.3242 19.2871-60.2051L17.7246-58.8379Q20.4102-56.8359 24.4141-55.2734Q28.418-53.7109 33.4229-52.832Q38.4277-51.9531 44.043-51.9531ZM44.043 1.95312Q51.7578 1.95312 58.4717-0.927734Q65.1855-3.80859 70.3369-8.95996Q75.4883-14.1113 78.3936-20.8252Q81.2988-27.5391 81.2988-35.2539Q81.2988-42.9688 78.3936-49.6826Q75.4883-56.3965 70.3369-61.5479Q65.1855-66.6992 58.4717-69.5801Q51.7578-72.4609 44.043-72.4609Q36.377-72.4609 29.6387-69.5801Q22.9004-66.6992 17.7734-61.5479Q12.6465-56.3965 9.74121-49.6826Q6.83594-42.9688 6.83594-35.2539Q6.83594-27.5391 9.74121-20.8252Q12.6465-14.1113 17.7734-8.95996Q22.9004-3.80859 29.6387-0.927734Q36.377 1.95312 44.043 1.95312ZM44.043-0.146484Q36.8164-0.146484 30.4688-2.88086Q24.1211-5.61523 19.2871-10.4492Q14.4531-15.2832 11.7188-21.6553Q8.98438-28.0273 8.98438-35.2539Q8.98438-42.4805 11.6943-48.8525Q14.4043-55.2246 19.2627-60.0586Q24.1211-64.8926 30.4688-67.627Q36.8164-70.3613 44.043-70.3613Q51.3184-70.3613 57.666-67.627Q64.0137-64.8926 68.8477-60.0586Q73.6816-55.2246 76.416-48.8525Q79.1504-42.4805 79.1504-35.2539Q79.1504-28.0273 76.416-21.6553Q73.6816-15.2832 68.8477-10.4492Q64.0137-5.61523 57.666-2.88086Q51.3184-0.146484 44.043-0.146484Z"/>
  </g>
 </g>
</svg>
