<?xml version="1.0" encoding="UTF-8"?>
<!--Generator: Apple Native CoreSVG 175-->
<!DOCTYPE svg
PUBLIC "-//W3C//DTD SVG 1.1//EN"
       "http://www.w3.org/Graphics/SVG/1.1/DTD/svg11.dtd">
<svg version="1.1" xmlns="http://www.w3.org/2000/svg" xmlns:xlink="http://www.w3.org/1999/xlink" width="3300" height="2200">
 <!--glyph: "uni1001AA.medium", point size: 100.0, font version: "17.1d1e1", template writer version: "65.1"-->
 <g id="Notes">
  <rect height="2200" id="artboard" style="fill:white;opacity:1" width="3300" x="0" y="0"/>
  <line style="fill:none;stroke:black;opacity:1;stroke-width:0.5;" x1="263" x2="3036" y1="292" y2="292"/>
  <text style="stroke:none;fill:black;font-family:sans-serif;font-size:13;font-weight:bold;" transform="matrix(1 0 0 1 263 322)">Weight/Scale Variations</text>
  <text style="stroke:none;fill:black;font-family:sans-serif;font-size:13;text-anchor:middle;" transform="matrix(1 0 0 1 559.711 322)">Ultralight</text>
  <text style="stroke:none;fill:black;font-family:sans-serif;font-size:13;text-anchor:middle;" transform="matrix(1 0 0 1 856.422 322)">Thin</text>
  <text style="stroke:none;fill:black;font-family:sans-serif;font-size:13;text-anchor:middle;" transform="matrix(1 0 0 1 1153.13 322)">Light</text>
  <text style="stroke:none;fill:black;font-family:sans-serif;font-size:13;text-anchor:middle;" transform="matrix(1 0 0 1 1449.84 322)">Regular</text>
  <text style="stroke:none;fill:black;font-family:sans-serif;font-size:13;text-anchor:middle;" transform="matrix(1 0 0 1 1746.56 322)">Medium</text>
  <text style="stroke:none;fill:black;font-family:sans-serif;font-size:13;text-anchor:middle;" transform="matrix(1 0 0 1 2043.27 322)">Semibold</text>
  <text style="stroke:none;fill:black;font-family:sans-serif;font-size:13;text-anchor:middle;" transform="matrix(1 0 0 1 2339.98 322)">Bold</text>
  <text style="stroke:none;fill:black;font-family:sans-serif;font-size:13;text-anchor:middle;" transform="matrix(1 0 0 1 2636.69 322)">Heavy</text>
  <text style="stroke:none;fill:black;font-family:sans-serif;font-size:13;text-anchor:middle;" transform="matrix(1 0 0 1 2933.4 322)">Black</text>
  <line style="fill:none;stroke:black;opacity:1;stroke-width:0.5;" x1="263" x2="3036" y1="1903" y2="1903"/>
  <g transform="matrix(1 0 0 1 263 1933)">
   <path d="M9.24805 0.830078Q10.8691 0.830078 12.2949 0.214844Q13.7207-0.400391 14.8096-1.49414Q15.8984-2.58789 16.5186-4.01367Q17.1387-5.43945 17.1387-7.05078Q17.1387-8.66211 16.5186-10.0879Q15.8984-11.5137 14.8047-12.6074Q13.7109-13.7012 12.2852-14.3164Q10.8594-14.9316 9.23828-14.9316Q7.62695-14.9316 6.20117-14.3164Q4.77539-13.7012 3.69141-12.6074Q2.60742-11.5137 1.9873-10.0879Q1.36719-8.66211 1.36719-7.05078Q1.36719-5.43945 1.9873-4.01367Q2.60742-2.58789 3.69629-1.49414Q4.78516-0.400391 6.21094 0.214844Q7.63672 0.830078 9.24805 0.830078ZM9.24805-0.654297Q7.91992-0.654297 6.7627-1.14746Q5.60547-1.64062 4.73145-2.51953Q3.85742-3.39844 3.36426-4.56055Q2.87109-5.72266 2.87109-7.05078Q2.87109-8.37891 3.35938-9.54102Q3.84766-10.7031 4.72168-11.582Q5.5957-12.4609 6.75293-12.9541Q7.91016-13.4473 9.23828-13.4473Q10.5762-13.4473 11.7334-12.9541Q12.8906-12.4609 13.7695-11.582Q14.6484-10.7031 15.1465-9.54102Q15.6445-8.37891 15.6445-7.05078Q15.6445-5.72266 15.1514-4.56055Q14.6582-3.39844 13.7842-2.51953Q12.9102-1.64062 11.748-1.14746Q10.5859-0.654297 9.24805-0.654297ZM5.6543-7.05078Q5.6543-6.72852 5.85938-6.52832Q6.06445-6.32812 6.40625-6.32812L8.51562-6.32812L8.51562-4.20898Q8.51562-3.88672 8.71094-3.67676Q8.90625-3.4668 9.23828-3.4668Q9.56055-3.4668 9.77051-3.67676Q9.98047-3.88672 9.98047-4.20898L9.98047-6.32812L12.0898-6.32812Q12.4219-6.32812 12.627-6.52832Q12.832-6.72852 12.832-7.05078Q12.832-7.38281 12.627-7.58789Q12.4219-7.79297 12.0898-7.79297L9.98047-7.79297L9.98047-9.90234Q9.98047-10.2344 9.77051-10.4443Q9.56055-10.6543 9.23828-10.6543Q8.90625-10.6543 8.71094-10.4443Q8.51562-10.2344 8.51562-9.90234L8.51562-7.79297L6.40625-7.79297Q6.06445-7.79297 5.85938-7.58789Q5.6543-7.38281 5.6543-7.05078Z"/>
  </g>
  <g transform="matrix(1 0 0 1 281.867 1933)">
   <path d="M11.709 2.91016Q13.75 2.91016 15.5518 2.12891Q17.3535 1.34766 18.7305-0.0292969Q20.1074-1.40625 20.8887-3.20801Q21.6699-5.00977 21.6699-7.05078Q21.6699-9.0918 20.8887-10.8936Q20.1074-12.6953 18.7305-14.0723Q17.3535-15.4492 15.5469-16.2305Q13.7402-17.0117 11.6992-17.0117Q9.6582-17.0117 7.85645-16.2305Q6.05469-15.4492 4.68262-14.0723Q3.31055-12.6953 2.5293-10.8936Q1.74805-9.0918 1.74805-7.05078Q1.74805-5.00977 2.5293-3.20801Q3.31055-1.40625 4.6875-0.0292969Q6.06445 1.34766 7.86621 2.12891Q9.66797 2.91016 11.709 2.91016ZM11.709 1.25Q9.98047 1.25 8.47656 0.605469Q6.97266-0.0390625 5.83496-1.17676Q4.69727-2.31445 4.05762-3.81836Q3.41797-5.32227 3.41797-7.05078Q3.41797-8.7793 4.05762-10.2832Q4.69727-11.7871 5.83008-12.9297Q6.96289-14.0723 8.4668-14.7119Q9.9707-15.3516 11.6992-15.3516Q13.4277-15.3516 14.9316-14.7119Q16.4355-14.0723 17.5781-12.9297Q18.7207-11.7871 19.3652-10.2832Q20.0098-8.7793 20.0098-7.05078Q20.0098-5.32227 19.3701-3.81836Q18.7305-2.31445 17.5928-1.17676Q16.4551-0.0390625 14.9463 0.605469Q13.4375 1.25 11.709 1.25ZM7.17773-7.05078Q7.17773-6.69922 7.41211-6.47461Q7.64648-6.25 8.01758-6.25L10.8887-6.25L10.8887-3.36914Q10.8887-2.99805 11.1133-2.76855Q11.3379-2.53906 11.6895-2.53906Q12.0605-2.53906 12.29-2.76855Q12.5195-2.99805 12.5195-3.36914L12.5195-6.25L15.4004-6.25Q15.7715-6.25 16.001-6.47461Q16.2305-6.69922 16.2305-7.05078Q16.2305-7.42188 16.001-7.65137Q15.7715-7.88086 15.4004-7.88086L12.5195-7.88086L12.5195-10.752Q12.5195-11.1328 12.29-11.3623Q12.0605-11.5918 11.6895-11.5918Q11.3379-11.5918 11.1133-11.3574Q10.8887-11.123 10.8887-10.752L10.8887-7.88086L8.01758-7.88086Q7.63672-7.88086 7.40723-7.65137Q7.17773-7.42188 7.17773-7.05078Z"/>
  </g>
  <g transform="matrix(1 0 0 1 305.646 1933)">
   <path d="M14.9707 5.66406Q17.0605 5.66406 18.96 5.01465Q20.8594 4.36523 22.4512 3.19336Q24.043 2.02148 25.2197 0.429688Q26.3965-1.16211 27.0459-3.06641Q27.6953-4.9707 27.6953-7.05078Q27.6953-9.14062 27.0459-11.04Q26.3965-12.9395 25.2197-14.5312Q24.043-16.123 22.4512-17.2998Q20.8594-18.4766 18.9551-19.126Q17.0508-19.7754 14.9609-19.7754Q12.8711-19.7754 10.9717-19.126Q9.07227-18.4766 7.48535-17.2998Q5.89844-16.123 4.72168-14.5312Q3.54492-12.9395 2.90039-11.04Q2.25586-9.14062 2.25586-7.05078Q2.25586-4.9707 2.90527-3.06641Q3.55469-1.16211 4.72656 0.429688Q5.89844 2.02148 7.49023 3.19336Q9.08203 4.36523 10.9814 5.01465Q12.8809 5.66406 14.9707 5.66406ZM14.9707 3.84766Q13.1641 3.84766 11.5283 3.2959Q9.89258 2.74414 8.53516 1.74805Q7.17773 0.751953 6.17676-0.610352Q5.17578-1.97266 4.62891-3.6084Q4.08203-5.24414 4.08203-7.05078Q4.08203-8.86719 4.62891-10.5029Q5.17578-12.1387 6.17188-13.501Q7.16797-14.8633 8.52539-15.8594Q9.88281-16.8555 11.5186-17.4023Q13.1543-17.9492 14.9609-17.9492Q16.7773-17.9492 18.4131-17.4023Q20.0488-16.8555 21.4111-15.8594Q22.7734-14.8633 23.7695-13.501Q24.7656-12.1387 25.3174-10.5029Q25.8691-8.86719 25.8691-7.05078Q25.8789-5.24414 25.332-3.6084Q24.7852-1.97266 23.7842-0.610352Q22.7832 0.751953 21.4209 1.74805Q20.0586 2.74414 18.4229 3.2959Q16.7871 3.84766 14.9707 3.84766ZM9.19922-7.05078Q9.19922-6.66992 9.45801-6.4209Q9.7168-6.17188 10.1172-6.17188L14.0625-6.17188L14.0625-2.2168Q14.0625-1.81641 14.3115-1.55762Q14.5605-1.29883 14.9512-1.29883Q15.3516-1.29883 15.6104-1.55273Q15.8691-1.80664 15.8691-2.2168L15.8691-6.17188L19.8242-6.17188Q20.2246-6.17188 20.4785-6.4209Q20.7324-6.66992 20.7324-7.05078Q20.7324-7.46094 20.4785-7.71484Q20.2246-7.96875 19.8242-7.96875L15.8691-7.96875L15.8691-11.9141Q15.8691-12.3242 15.6104-12.583Q15.3516-12.8418 14.9512-12.8418Q14.5605-12.8418 14.3115-12.583Q14.0625-12.3242 14.0625-11.9141L14.0625-7.96875L10.1172-7.96875Q9.70703-7.96875 9.45312-7.71484Q9.19922-7.46094 9.19922-7.05078Z"/>
  </g>
  <text style="stroke:none;fill:black;font-family:sans-serif;font-size:13;font-weight:bold;" transform="matrix(1 0 0 1 263 1953)">Design Variations</text>
  <text style="stroke:none;fill:black;font-family:sans-serif;font-size:13;" transform="matrix(1 0 0 1 263 1971)">Symbols are supported in up to nine weights and three scales.</text>
  <text style="stroke:none;fill:black;font-family:sans-serif;font-size:13;" transform="matrix(1 0 0 1 263 1989)">For optimal layout with text and other symbols, vertically align</text>
  <text style="stroke:none;fill:black;font-family:sans-serif;font-size:13;" transform="matrix(1 0 0 1 263 2007)">symbols with the adjacent text.</text>
  <line style="fill:none;stroke:#00AEEF;stroke-width:0.5;opacity:1.0;" x1="776" x2="776" y1="1919" y2="1933"/>
  <g transform="matrix(1 0 0 1 776 1933)">
   <path d="M3.31055 0.15625Q3.70117 0.15625 3.91602-0.00976562Q4.13086-0.175781 4.26758-0.585938L5.52734-4.0332L11.2891-4.0332L12.5488-0.585938Q12.6855-0.175781 12.9004-0.00976562Q13.1152 0.15625 13.4961 0.15625Q13.8867 0.15625 14.1162-0.0585938Q14.3457-0.273438 14.3457-0.644531Q14.3457-0.869141 14.2383-1.17188L9.6582-13.3691Q9.48242-13.8184 9.17969-14.043Q8.87695-14.2676 8.4082-14.2676Q7.5-14.2676 7.17773-13.3789L2.59766-1.16211Q2.49023-0.859375 2.49023-0.634766Q2.49023-0.263672 2.70996-0.0537109Q2.92969 0.15625 3.31055 0.15625ZM6.00586-5.51758L8.37891-12.0898L8.42773-12.0898L10.8008-5.51758Z"/>
  </g>
  <line style="fill:none;stroke:#00AEEF;stroke-width:0.5;opacity:1.0;" x1="793.197" x2="793.197" y1="1919" y2="1933"/>
  <text style="stroke:none;fill:black;font-family:sans-serif;font-size:13;font-weight:bold;" transform="matrix(1 0 0 1 776 1953)">Margins</text>
  <text style="stroke:none;fill:black;font-family:sans-serif;font-size:13;" transform="matrix(1 0 0 1 776 1971)">Leading and trailing margins on the left and right side of each symbol</text>
  <text style="stroke:none;fill:black;font-family:sans-serif;font-size:13;" transform="matrix(1 0 0 1 776 1989)">can be adjusted by modifying the x-location of the margin guidelines.</text>
  <text style="stroke:none;fill:black;font-family:sans-serif;font-size:13;" transform="matrix(1 0 0 1 776 2007)">Modifications are automatically applied proportionally to all</text>
  <text style="stroke:none;fill:black;font-family:sans-serif;font-size:13;" transform="matrix(1 0 0 1 776 2025)">scales and weights.</text>
  <g transform="matrix(1 0 0 1 1289 1933)">
   <path d="M2.8418 1.86523L4.54102 3.57422Q5.18555 4.22852 5.90332 4.17969Q6.62109 4.13086 7.31445 3.35938L18.0078-8.42773L17.041-9.4043L6.42578 2.27539Q6.16211 2.57812 5.89355 2.61719Q5.625 2.65625 5.27344 2.30469L4.10156 1.14258Q3.75 0.791016 3.79395 0.522461Q3.83789 0.253906 4.14062-0.0195312L15.6152-10.8203L14.6387-11.7871L3.04688-0.898438Q2.30469-0.214844 2.25098 0.498047Q2.19727 1.21094 2.8418 1.86523ZM9.25781-16.3281Q8.94531-16.0254 8.90625-15.6348Q8.86719-15.2441 9.04297-14.9512Q9.21875-14.6777 9.55566-14.541Q9.89258-14.4043 10.3809-14.5215Q11.4746-14.7754 12.5977-14.7314Q13.7207-14.6875 14.7949-13.9844L14.209-12.5293Q13.9551-11.9043 14.0674-11.4404Q14.1797-10.9766 14.5801-10.5664L16.875-8.25195Q17.2363-7.88086 17.5781-7.82227Q17.9199-7.76367 18.3398-7.8418L19.4043-8.03711L20.0684-7.36328L20.0293-6.80664Q20-6.43555 20.1221-6.12305Q20.2441-5.81055 20.6055-5.44922L21.3672-4.70703Q21.7285-4.3457 22.1533-4.33105Q22.5781-4.31641 22.9297-4.66797L25.8398-7.58789Q26.1914-7.93945 26.1816-8.35449Q26.1719-8.76953 25.8105-9.13086L25.0391-9.89258Q24.6875-10.2539 24.3799-10.3857Q24.0723-10.5176 23.7109-10.4883L23.1348-10.4395L22.4902-11.0742L22.7344-12.1973Q22.832-12.6172 22.6953-12.9834Q22.5586-13.3496 22.1191-13.7891L19.9219-15.9766Q18.6719-17.2168 17.2607-17.8369Q15.8496-18.457 14.4189-18.4814Q12.9883-18.5059 11.665-17.959Q10.3418-17.4121 9.25781-16.3281ZM10.752-15.957Q11.6602-16.6211 12.7002-16.9043Q13.7402-17.1875 14.8047-17.085Q15.8691-16.9824 16.8701-16.5137Q17.8711-16.0449 18.7012-15.2051L21.1328-12.793Q21.3086-12.6172 21.3525-12.4512Q21.3965-12.2852 21.3379-12.0312L21.0156-10.5469L22.5195-9.0625L23.5059-9.12109Q23.6914-9.13086 23.7891-9.09668Q23.8867-9.0625 24.0332-8.91602L24.6094-8.33984L22.168-5.89844L21.5918-6.47461Q21.4453-6.62109 21.4062-6.71875Q21.3672-6.81641 21.377-7.01172L21.4453-7.98828L19.9512-9.47266L18.4277-9.21875Q18.1836-9.16992 18.042-9.2041Q17.9004-9.23828 17.7148-9.41406L15.7129-11.416Q15.5176-11.5918 15.4932-11.7529Q15.4688-11.9141 15.5859-12.1875L16.4648-14.2773Q15.293-15.3711 13.8281-15.791Q12.3633-16.2109 10.8398-15.7617Q10.7227-15.7324 10.6885-15.8057Q10.6543-15.8789 10.752-15.957Z"/>
  </g>
  <text style="stroke:none;fill:black;font-family:sans-serif;font-size:13;font-weight:bold;" transform="matrix(1 0 0 1 1289 1953)">Exporting</text>
  <text style="stroke:none;fill:black;font-family:sans-serif;font-size:13;" transform="matrix(1 0 0 1 1289 1971)">Symbols should be outlined when exporting to ensure the</text>
  <text style="stroke:none;fill:black;font-family:sans-serif;font-size:13;" transform="matrix(1 0 0 1 1289 1989)">design is preserved when submitting to Xcode.</text>
  <text id="template-version" style="stroke:none;fill:black;font-family:sans-serif;font-size:13;text-anchor:end;" transform="matrix(1 0 0 1 3036 1933)">Template v.3.0</text>
  <text style="stroke:none;fill:black;font-family:sans-serif;font-size:13;text-anchor:end;" transform="matrix(1 0 0 1 3036 1951)">Requires Xcode 13 or greater</text>
  <text id="descriptive-name" style="stroke:none;fill:black;font-family:sans-serif;font-size:13;text-anchor:end;" transform="matrix(1 0 0 1 3036 1969)">Generated from globe</text>
  <text style="stroke:none;fill:black;font-family:sans-serif;font-size:13;text-anchor:end;" transform="matrix(1 0 0 1 3036 1987)">Typeset at 100 points</text>
  <text style="stroke:none;fill:black;font-family:sans-serif;font-size:13;" transform="matrix(1 0 0 1 263 726)">Small</text>
  <text style="stroke:none;fill:black;font-family:sans-serif;font-size:13;" transform="matrix(1 0 0 1 263 1156)">Medium</text>
  <text style="stroke:none;fill:black;font-family:sans-serif;font-size:13;" transform="matrix(1 0 0 1 263 1586)">Large</text>
 </g>
 <g id="Guides">
  <g id="H-reference" style="fill:#27AAE1;stroke:none;" transform="matrix(1 0 0 1 339 696)">
   <path d="M0.993347 0L3.6377 0L29.3282-67.1326L30.0301-67.1326L30.0301-70.459L28.1227-70.459ZM11.6882-24.4797L46.9818-24.4797L46.2311-26.7288L12.4382-26.7288ZM55.1193 0L57.7637 0L30.6381-70.459L29.4327-70.459L29.4327-67.1326Z"/>
  </g>
  <line id="Baseline-S" style="fill:none;stroke:#27AAE1;opacity:1;stroke-width:0.5;" x1="263" x2="3036" y1="696" y2="696"/>
  <line id="Capline-S" style="fill:none;stroke:#27AAE1;opacity:1;stroke-width:0.5;" x1="263" x2="3036" y1="625.541" y2="625.541"/>
  <g id="H-reference" style="fill:#27AAE1;stroke:none;" transform="matrix(1 0 0 1 339 1126)">
   <path d="M0.993347 0L3.6377 0L29.3282-67.1326L30.0301-67.1326L30.0301-70.459L28.1227-70.459ZM11.6882-24.4797L46.9818-24.4797L46.2311-26.7288L12.4382-26.7288ZM55.1193 0L57.7637 0L30.6381-70.459L29.4327-70.459L29.4327-67.1326Z"/>
  </g>
  <line id="Baseline-M" style="fill:none;stroke:#27AAE1;opacity:1;stroke-width:0.5;" x1="263" x2="3036" y1="1126" y2="1126"/>
  <line id="Capline-M" style="fill:none;stroke:#27AAE1;opacity:1;stroke-width:0.5;" x1="263" x2="3036" y1="1055.54" y2="1055.54"/>
  <g id="H-reference" style="fill:#27AAE1;stroke:none;" transform="matrix(1 0 0 1 339 1556)">
   <path d="M0.993347 0L3.6377 0L29.3282-67.1326L30.0301-67.1326L30.0301-70.459L28.1227-70.459ZM11.6882-24.4797L46.9818-24.4797L46.2311-26.7288L12.4382-26.7288ZM55.1193 0L57.7637 0L30.6381-70.459L29.4327-70.459L29.4327-67.1326Z"/>
  </g>
  <line id="Baseline-L" style="fill:none;stroke:#27AAE1;opacity:1;stroke-width:0.5;" x1="263" x2="3036" y1="1556" y2="1556"/>
  <line id="Capline-L" style="fill:none;stroke:#27AAE1;opacity:1;stroke-width:0.5;" x1="263" x2="3036" y1="1485.54" y2="1485.54"/>
  <line id="left-margin-Regular-M" style="fill:none;stroke:#00AEEF;stroke-width:0.5;opacity:1.0;" x1="1391.32" x2="1391.32" y1="1030.79" y2="1150.12"/>
  <line id="right-margin-Regular-M" style="fill:none;stroke:#00AEEF;stroke-width:0.5;opacity:1.0;" x1="1508.37" x2="1508.37" y1="1030.79" y2="1150.12"/>
 </g>
 <g id="Symbols">
  <g id="Black-L" transform="matrix(1 0 0 1 2854.19 1556)">
   <path d="M79.1958 22.0794Q86.2275 22.0794 92.2942 17.6662Q98.3609 13.2531 102.976 5.42428Q107.59-2.40454 110.171-12.7924Q112.752-23.1802 112.752-35.1089Q112.752-47.1167 110.181-57.5442Q107.611-67.9716 102.986-75.8109Q98.3609-83.6501 92.3047-88.0736Q86.2484-92.4972 79.1958-92.4972Q72.2224-92.4972 66.1265-88.0736Q60.0306-83.6501 55.4159-75.8109Q50.8012-67.9716 48.231-57.5442Q45.6608-47.1167 45.6608-35.1089Q45.6608-23.1802 48.231-12.7924Q50.8012-2.40454 55.4263 5.42428Q60.0515 13.2531 66.137 17.6662Q72.2224 22.0794 79.1958 22.0794ZM79.1958-82.2489Q83.536-82.2489 87.5892-78.3556Q91.6424-74.4622 94.8566-67.7775Q98.0707-61.0927 99.9538-52.6702Q101.837-44.2476 101.837-35.1089Q101.837-26.0797 99.9538-17.698Q98.0707-9.31622 94.8566-2.63952Q91.6424 4.03718 87.5892 7.93416Q83.536 11.8311 79.1958 11.8311Q74.8763 11.8311 70.8226 7.96337Q66.7688 4.09559 63.5552-2.58111Q60.3417-9.25782 58.4586-17.6688Q56.5756-26.0797 56.5756-35.1089Q56.5756-44.2476 58.4586-52.6702Q60.3417-61.0927 63.5552-67.7775Q66.7688-74.4622 70.8226-78.3556Q74.8763-82.2489 79.1958-82.2489ZM73.8188-91.6698L73.8188 20.9303L84.5728 20.9303L84.5728-91.6698ZM79.1958-18.5622Q68.8881-18.5622 59.555-16.9756Q50.2219-15.389 42.9984-12.4764Q35.7748-9.56383 31.6437-5.57038L39.7794 1.23457Q45.4545-2.9886 56.0536-5.39782Q66.6527-7.80705 79.1958-7.80705Q91.7597-7.80705 102.388-5.39782Q113.016-2.9886 118.633 1.23457L126.769-5.57038Q122.638-9.56383 115.403-12.4764Q108.168-15.389 98.8756-16.9756Q89.5827-18.5622 79.1958-18.5622ZM135.543-40.6467L22.8489-40.6467L22.8489-29.8927L135.543-29.8927ZM79.1958-51.6555Q89.5827-51.6555 98.8756-53.2421Q108.168-54.8287 115.403-57.7705Q122.638-60.7123 126.769-64.6473L118.633-71.4523Q113.016-67.2291 102.388-64.8199Q91.7597-62.4107 79.1958-62.4107Q66.7111-62.4107 56.112-64.8199Q45.5129-67.2291 39.7794-71.4523L31.6437-64.6473Q35.7748-60.7123 42.9984-57.7705Q50.2219-54.8287 59.555-53.2421Q68.8881-51.6555 79.1958-51.6555ZM79.1958 32.7257Q93.2356 32.7257 105.521 27.4304Q117.806 22.1351 127.174 12.7568Q136.542 3.3785 141.848-8.90689Q147.154-21.1923 147.154-35.2113Q147.154-49.2303 141.848-61.5157Q136.542-73.8011 127.164-83.1794Q117.786-92.5577 105.5-97.853Q93.2148-103.148 79.175-103.148Q65.156-103.148 52.87-97.853Q40.584-92.5577 31.2271-83.1794Q21.8702-73.8011 16.5645-61.5157Q11.2588-49.2303 11.2588-35.2113Q11.2588-21.1923 16.5645-8.90689Q21.8702 3.3785 31.2375 12.7568Q40.6048 22.1351 52.8908 27.4304Q65.1768 32.7257 79.1958 32.7257ZM79.1958 17.3328Q68.3935 17.3328 58.8809 13.2213Q49.3683 9.10988 42.1319 1.87345Q34.8954-5.36298 30.784-14.886Q26.6726-24.409 26.6726-35.2113Q26.6726-46.0136 30.7736-55.5366Q34.8746-65.0596 42.111-72.296Q49.3475-79.5325 58.8601-83.6439Q68.3727-87.7554 79.175-87.7554Q89.9981-87.7554 99.5107-83.6439Q109.023-79.5325 116.27-72.296Q123.517-65.0596 127.628-55.5366Q131.74-46.0136 131.74-35.2113Q131.74-24.409 127.628-14.886Q123.517-5.36298 116.281 1.87345Q109.044 9.10988 99.5315 13.2213Q90.0189 17.3328 79.1958 17.3328Z"/>
  </g>
  <g id="Heavy-L" transform="matrix(1 0 0 1 2558.42 1556)">
   <path d="M78.2532 22.8838Q85.1586 22.8838 91.1462 18.4467Q97.1337 14.0096 101.687 6.10418Q106.24-1.80128 108.8-12.3542Q111.36-22.9072 111.36-35.1089Q111.36-47.3853 108.815-57.9757Q106.27-68.5661 101.702-76.4866Q97.1337-84.4071 91.1613-88.8593Q85.1889-93.3115 78.2532-93.3115Q71.3925-93.3115 65.3826-88.8593Q59.3727-84.4071 54.8198-76.4866Q50.2669-68.5661 47.722-57.9757Q45.1771-47.3853 45.1771-35.1089Q45.1771-22.9072 47.722-12.3542Q50.2669-1.80128 54.8349 6.10418Q59.403 14.0096 65.3977 18.4467Q71.3925 22.8838 78.2532 22.8838ZM78.2532-83.7844Q82.679-83.7844 86.7835-79.8088Q90.888-75.8332 94.1262-68.9638Q97.3644-62.0943 99.256-53.3803Q101.148-44.6662 101.148-35.1089Q101.148-25.7014 99.256-17.0304Q97.3644-8.35939 94.1262-1.49376Q90.888 5.37186 86.7835 9.36425Q82.679 13.3566 78.2532 13.3566Q73.8576 13.3566 69.7503 9.38656Q65.643 5.41648 62.4076-1.44914Q59.1722-8.31477 57.2807-17.0081Q55.3891-25.7014 55.3891-35.1089Q55.3891-44.6662 57.2807-53.3803Q59.1722-62.0943 62.4076-68.9638Q65.643-75.8332 69.7503-79.8088Q73.8576-83.7844 78.2532-83.7844ZM73.2277-92.4659L73.2277 21.7165L83.2788 21.7165L83.2788-92.4659ZM78.2532-16.8146Q68.1099-16.8146 58.9293-15.2274Q49.7487-13.6403 42.6045-10.7173Q35.4604-7.79424 31.2604-3.80804L38.8787 2.5462Q44.7086-1.84295 55.1666-4.30042Q65.6246-6.75789 78.2532-6.75789Q90.9121-6.75789 101.392-4.30042Q111.873-1.84295 117.658 2.5462L125.276-3.80804Q121.076-7.79424 113.914-10.7173Q106.752-13.6403 97.6118-15.2274Q88.4714-16.8146 78.2532-16.8146ZM135.052-40.2953L21.4547-40.2953L21.4547-30.2441L135.052-30.2441ZM78.2532-53.4031Q88.4714-53.4031 97.6118-54.9903Q106.752-56.5774 113.914-59.5228Q121.076-62.4681 125.276-66.4097L117.658-72.7639Q111.873-68.3748 101.392-65.9173Q90.9121-63.4598 78.2532-63.4598Q65.6693-63.4598 55.2113-65.9173Q44.7533-68.3748 38.8787-72.7639L31.2604-66.4097Q35.4604-62.4681 42.6045-59.5228Q49.7487-56.5774 58.9293-54.9903Q68.1099-53.4031 78.2532-53.4031ZM78.2532 31.7694Q92.0879 31.7694 104.203 26.5469Q116.317 21.3244 125.56 12.0666Q134.803 2.80877 140.04-9.30591Q145.278-21.4206 145.278-35.2251Q145.278-49.0296 140.04-61.1442Q134.803-73.2589 125.545-82.5167Q116.287-91.7745 104.172-96.997Q92.0577-102.22 78.2231-102.22Q64.4186-102.22 52.3011-96.997Q40.1836-91.7745 30.9588-82.5167Q21.7339-73.2589 16.4964-61.1442Q11.2588-49.0296 11.2588-35.2251Q11.2588-21.4206 16.4964-9.30591Q21.7339 2.80877 30.9738 12.0666Q40.2137 21.3244 52.3312 26.5469Q64.4487 31.7694 78.2532 31.7694ZM78.2532 18.117Q67.3009 18.117 57.6493 13.9416Q47.9978 9.7662 40.645 2.41339Q33.2922-4.93942 29.1168-14.6061Q24.9414-24.2727 24.9414-35.2251Q24.9414-46.1774 29.1017-55.8441Q33.262-65.5107 40.6148-72.8636Q47.9676-80.2164 57.6192-84.3918Q67.2707-88.5672 78.2231-88.5672Q89.2056-88.5672 98.8571-84.3918Q108.509-80.2164 115.877-72.8636Q123.245-65.5107 127.42-55.8441Q131.595-46.1774 131.595-35.2251Q131.595-24.2727 127.42-14.6061Q123.245-4.93942 115.892 2.41339Q108.539 9.7662 98.8873 13.9416Q89.2357 18.117 78.2532 18.117Z"/>
  </g>
  <g id="Bold-L" transform="matrix(1 0 0 1 2262.89 1556)">
   <path d="M77.0704 23.7783Q83.7996 23.7783 89.6799 19.3292Q95.5602 14.88 100.04 6.90088Q104.52-1.07828 107.057-11.82Q109.593-22.5616 109.593-35.1089Q109.593-47.7232 107.076-58.4985Q104.558-69.2738 100.059-77.2719Q95.5602-85.27 89.699-89.7382Q83.8377-94.2064 77.0704-94.2064Q70.3703-94.2064 64.4755-89.7382Q58.5806-85.27 54.1008-77.2719Q49.621-69.2738 47.1031-58.4985Q44.5852-47.7232 44.5852-35.1089Q44.5852-22.5616 47.1031-11.82Q49.621-1.07828 54.1198 6.90088Q58.6187 14.88 64.4945 19.3292Q70.3703 23.7783 77.0704 23.7783ZM77.0704-85.6973Q81.6185-85.6973 85.8032-81.6218Q89.9879-77.5463 93.2717-70.4501Q96.5555-63.3539 98.4661-54.275Q100.377-45.1961 100.377-35.1089Q100.377-25.2326 98.4661-16.2006Q96.5555-7.1686 93.2717-0.0648611Q89.9879 7.03888 85.8032 11.1541Q81.6185 15.2692 77.0704 15.2692Q72.5601 15.2692 68.3688 11.1687Q64.1776 7.06808 60.9004-0.0356578Q57.6232-7.1394 55.7127-16.186Q53.8022-25.2326 53.8022-35.1089Q53.8022-45.1961 55.7127-54.275Q57.6232-63.3539 60.9004-70.4501Q64.1776-77.5463 68.3688-81.6218Q72.5601-85.6973 77.0704-85.6973ZM72.5423-93.3377L72.5423 22.5879L81.5985 22.5879L81.5985-93.3377ZM77.0704-14.6776Q67.1269-14.6776 58.1383-13.0979Q49.1497-11.5182 42.1091-8.6022Q35.0686-5.68622 30.7915-1.73759L37.6676 3.98134Q43.6896-0.585485 54.0045-3.09692Q64.3194-5.60836 77.0704-5.60836Q89.8595-5.60836 100.189-3.09692Q110.518-0.585485 116.511 3.98134L123.387-1.73759Q119.11-5.68622 112.044-8.6022Q104.978-11.5182 96.0294-13.0979Q87.081-14.6776 77.0704-14.6776ZM134.422-39.7978L19.7185-39.7978L19.7185-30.7416L134.422-30.7416ZM77.0704-55.5401Q87.081-55.5401 96.0294-57.1198Q104.978-58.6995 112.044-61.6301Q119.11-64.5607 123.387-68.4801L116.511-74.1991Q110.518-69.6322 100.189-67.1208Q89.8595-64.6094 77.0704-64.6094Q64.3486-64.6094 54.0337-67.1208Q43.7188-69.6322 37.6676-74.1991L30.7915-68.4801Q35.0686-64.5607 42.1091-61.6301Q49.1497-58.6995 58.1383-57.1198Q67.1269-55.5401 77.0704-55.5401ZM77.0704 30.5711Q90.6514 30.5711 102.551 25.4407Q114.451 20.3104 123.536 11.2061Q132.621 2.10182 137.771-9.79778Q142.92-21.6974 142.92-35.2405Q142.92-48.7836 137.771-60.6832Q132.621-72.5828 123.517-81.6871Q114.413-90.7914 102.513-95.9217Q90.6135-101.052 77.0325-101.052Q63.4894-101.052 51.5831-95.9217Q39.6768-90.7914 30.6171-81.6871Q21.5574-72.5828 16.4081-60.6832Q11.2588-48.7836 11.2588-35.2405Q11.2588-21.6974 16.4081-9.79778Q21.5574 2.10182 30.6361 11.2061Q39.7147 20.3104 51.621 25.4407Q63.5273 30.5711 77.0704 30.5711ZM77.0704 19.0853Q65.9261 19.0853 56.1017 14.833Q46.2774 10.5807 38.7823 3.08566Q31.2873-4.40938 27.035-14.2528Q22.7826-24.0962 22.7826-35.2405Q22.7826-46.3848 27.0159-56.2282Q31.2492-66.0716 38.7442-73.5667Q46.2393-81.0617 56.0637-85.314Q65.8882-89.5663 77.0325-89.5663Q88.2147-89.5663 98.039-85.314Q107.863-81.0617 115.377-73.5667Q122.892-66.0716 127.144-56.2282Q131.396-46.3848 131.396-35.2405Q131.396-24.0962 127.144-14.2528Q122.892-4.40938 115.397 3.08566Q107.901 10.5807 98.077 14.833Q88.2526 19.0853 77.0704 19.0853Z"/>
  </g>
  <g id="Semibold-L" transform="matrix(1 0 0 1 1966.99 1556)">
   <path d="M76.2549 24.395Q82.8627 24.395 88.6691 19.9375Q94.4754 15.4801 98.9048 7.45012Q103.334-0.579845 105.855-11.4516Q108.376-22.3234 108.376-35.1089Q108.376-47.9561 105.877-58.8589Q103.378-69.7618 98.9265-77.8133Q94.4754-85.8649 88.6908-90.3441Q82.9063-94.8233 76.2549-94.8233Q69.6657-94.8233 63.8501-90.3441Q58.0345-85.8649 53.6051-77.8133Q49.1757-69.7618 46.6764-58.8589Q44.1771-47.9561 44.1771-35.1089Q44.1771-22.3234 46.6764-11.4516Q49.1757-0.579845 53.6268 7.45012Q58.078 15.4801 63.8718 19.9375Q69.6657 24.395 76.2549 24.395ZM76.2549-87.0161Q80.8875-87.0161 85.1274-82.8717Q89.3674-78.7273 92.6826-71.4748Q95.9978-64.2222 97.9215-54.8918Q99.8452-45.5614 99.8452-35.1089Q99.8452-24.9095 97.9215-15.6286Q95.9978-6.34768 92.6826 0.920216Q89.3674 8.18811 85.1274 12.3879Q80.8875 16.5878 76.2549 16.5878Q71.6656 16.5878 67.4165 12.3972Q63.1673 8.20668 59.8613 0.938789Q56.5553-6.3291 54.6317-15.6193Q52.7082-24.9095 52.7082-35.1089Q52.7082-45.5614 54.6317-54.8918Q56.5553-64.2222 59.8613-71.4748Q63.1673-78.7273 67.4165-82.8717Q71.6656-87.0161 76.2549-87.0161ZM72.0698-93.9387L72.0698 23.1886L80.44 23.1886L80.44-93.9387ZM76.2549-13.2044Q66.4492-13.2044 57.593-11.6298Q48.7367-10.0552 41.7676-7.14409Q34.7984-4.23297 30.4682-0.310237L36.8328 4.97072Q42.9871 0.281405 53.2033-2.26724Q63.4195-4.81588 76.2549-4.81588Q89.1338-4.81588 99.3592-2.26724Q109.585 0.281405 115.721 4.97072L122.085-0.310237Q117.755-4.23297 110.755-7.14409Q103.755-10.0552 94.9385-11.6298Q86.1224-13.2044 76.2549-13.2044ZM133.988-39.4548L18.5215-39.4548L18.5215-31.0846L133.988-31.0846ZM76.2549-57.0133Q86.1224-57.0133 94.9385-58.5879Q103.755-60.1625 110.755-63.0829Q117.755-66.0033 122.085-69.9075L115.721-75.1884Q109.585-70.4991 99.3592-67.9505Q89.1338-65.4018 76.2549-65.4018Q63.4381-65.4018 53.2219-67.9505Q43.0057-70.4991 36.8328-75.1884L30.4682-69.9075Q34.7984-66.0033 41.7676-63.0829Q48.7367-60.1625 57.593-58.5879Q66.4492-57.0133 76.2549-57.0133ZM76.2549 29.745Q89.6611 29.745 101.413 24.6782Q113.164 19.6113 122.141 10.6129Q131.117 1.61445 136.206-10.1369Q141.295-21.8882 141.295-35.2511Q141.295-48.6141 136.206-60.3654Q131.117-72.1167 122.119-81.1151Q113.121-90.1136 101.369-95.1804Q89.6179-100.247 76.2117-100.247Q62.8488-100.247 51.0881-95.1804Q39.3275-90.1136 30.3816-81.1151Q21.4357-72.1167 16.3472-60.3654Q11.2588-48.6141 11.2588-35.2511Q11.2588-21.8882 16.3472-10.1369Q21.4357 1.61445 30.4032 10.6129Q39.3707 19.6113 51.1313 24.6782Q62.892 29.745 76.2549 29.745ZM76.2549 19.7529Q64.9783 19.7529 55.0348 15.4476Q45.0913 11.1422 37.4982 3.54912Q29.9051-4.04397 25.5998-14.0092Q21.2944-23.9745 21.2944-35.2511Q21.2944-46.5278 25.578-56.493Q29.8616-66.4583 37.4547-74.0514Q45.0478-81.6445 54.9914-85.9498Q64.9351-90.2551 76.2117-90.2551Q87.5316-90.2551 97.4751-85.9498Q107.419-81.6445 115.033-74.0514Q122.648-66.4583 126.954-56.493Q131.259-46.5278 131.259-35.2511Q131.259-23.9745 126.954-14.0092Q122.648-4.04397 115.055 3.54912Q107.462 11.1422 97.5184 15.4476Q87.5748 19.7529 76.2549 19.7529Z"/>
  </g>
  <g id="Medium-L" transform="matrix(1 0 0 1 1670.9 1556)">
   <path d="M75.6366 24.8626Q82.1523 24.8626 87.9026 20.3988Q93.6529 15.9351 98.044 7.86658Q102.435-0.201914 104.944-11.1723Q107.453-22.1428 107.453-35.1089Q107.453-48.1327 104.968-59.1322Q102.483-70.1317 98.0678-78.2239Q93.6529-86.316 87.9264-90.8036Q82.2-95.2911 75.6366-95.2911Q69.1314-95.2911 63.3759-90.8036Q57.6204-86.316 53.2292-78.2239Q48.838-70.1317 46.3529-59.1322Q43.8677-48.1327 43.8677-35.1089Q43.8677-22.1428 46.3529-11.1723Q48.838-0.201914 53.253 7.86658Q57.668 15.9351 63.3997 20.3988Q69.1314 24.8626 75.6366 24.8626ZM75.6366-88.0161Q80.3331-88.0161 84.615-83.8194Q88.8969-79.6228 92.2359-72.2517Q95.575-64.8806 97.5086-55.3595Q99.4422-45.8383 99.4422-35.1089Q99.4422-24.6645 97.5086-15.1948Q95.575-5.72522 92.2359 1.66714Q88.8969 9.0595 84.615 13.3235Q80.3331 17.5875 75.6366 17.5875Q70.9873 17.5875 66.6943 13.3288Q62.4013 9.07002 59.0734 1.67766Q55.7455-5.7147 53.8121-15.1896Q51.8787-24.6645 51.8787-35.1089Q51.8787-45.8383 53.8121-55.3595Q55.7455-64.8806 59.0734-72.2517Q62.4013-79.6228 66.6943-83.8194Q70.9873-88.0161 75.6366-88.0161ZM71.7115-94.3944L71.7115 23.6441L79.5617 23.6441L79.5617-94.3944ZM75.6366-12.0874Q65.9354-12.0874 57.1795-10.5167Q48.4236-8.94592 41.5086-6.03849Q34.5936-3.13105 30.2231 0.772045L36.1997 5.7209Q42.4544 0.938717 52.5958-1.63813Q62.7372-4.21499 75.6366-4.21499Q88.5836-4.21499 98.7301-1.63813Q108.877 0.938717 115.121 5.7209L121.097 0.772045Q116.727-3.13105 109.777-6.03849Q102.827-8.94592 94.1113-10.5167Q85.3956-12.0874 75.6366-12.0874ZM133.659-39.1948L17.6139-39.1948L17.6139-31.3446L133.659-31.3446ZM75.6366-58.1303Q85.3956-58.1303 94.1113-59.7011Q102.827-61.2718 109.777-64.1845Q116.727-67.0972 121.097-70.9898L115.121-75.9386Q108.877-71.1564 98.7301-68.5796Q88.5836-66.0027 75.6366-66.0027Q62.7478-66.0027 52.6063-68.5796Q42.4649-71.1564 36.1997-75.9386L30.2231-70.9898Q34.5936-67.0972 41.5086-64.1845Q48.4236-61.2718 57.1795-59.7011Q65.9354-58.1303 75.6366-58.1303ZM75.6366 29.1186Q88.9102 29.1186 100.549 24.0999Q112.188 19.0813 121.083 10.1631Q129.977 1.24491 135.02-10.394Q140.062-22.0329 140.062-35.2592Q140.062-48.4855 135.02-60.1244Q129.977-71.7633 121.059-80.6815Q112.141-89.5996 100.502-94.6183Q88.8629-99.637 75.5893-99.637Q62.363-99.637 50.7128-94.6183Q39.0626-89.5996 30.203-80.6815Q21.3434-71.7633 16.3011-60.1244Q11.2588-48.4855 11.2588-35.2592Q11.2588-22.0329 16.3011-10.394Q21.3434 1.24491 30.2266 10.1631Q39.1099 19.0813 50.7601 24.0999Q62.4103 29.1186 75.6366 29.1186ZM75.6366 20.2591Q64.2596 20.2591 54.2258 15.9135Q44.192 11.568 36.5245 3.90054Q28.8571-3.76691 24.5115-13.8246Q20.166-23.8822 20.166-35.2592Q20.166-46.6362 24.4877-56.6938Q28.8094-66.7515 36.4769-74.4189Q44.1443-82.0864 54.1784-86.4319Q64.2124-90.7774 75.5893-90.7774Q87.0136-90.7774 97.0474-86.4319Q107.081-82.0864 114.773-74.4189Q122.464-66.7515 126.809-56.6938Q131.155-46.6362 131.155-35.2592Q131.155-23.8822 126.809-13.8246Q122.464-3.76691 114.796 3.90054Q107.129 11.568 97.0949 15.9135Q87.0608 20.2591 75.6366 20.2591Z"/>
  </g>
  <g id="Regular-L" transform="matrix(1 0 0 1 1374.99 1556)">
   <path d="M74.8301 25.4725Q81.2257 25.4725 86.9029 21.0005Q92.58 16.5285 96.9213 8.40978Q101.263 0.29104 103.756-10.8081Q106.249-21.9071 106.249-35.1089Q106.249-48.3631 103.782-59.4887Q101.316-70.6143 96.9478-78.7593Q92.58-86.9043 86.9294-91.4028Q81.2787-95.9013 74.8301-95.9013Q68.4345-95.9013 62.7574-91.4028Q57.0803-86.9043 52.739-78.7593Q48.3977-70.6143 45.9309-59.4887Q43.4642-48.3631 43.4642-35.1089Q43.4642-21.9071 45.9309-10.8081Q48.3977 0.29104 52.7655 8.40978Q57.1333 16.5285 62.7839 21.0005Q68.4345 25.4725 74.8301 25.4725ZM74.8301-89.3204Q79.6101-89.3204 83.9466-85.0556Q88.2832-80.7908 91.6533-73.2651Q95.0234-65.7394 96.97-55.9695Q98.9165-46.1996 98.9165-35.1089Q98.9165-24.3449 96.97-14.6291Q95.0234-4.91332 91.6533 2.64139Q88.2832 10.1961 83.9466 14.5438Q79.6101 18.8915 74.8301 18.8915Q70.1027 18.8915 65.7524 14.5438Q61.4022 10.1961 58.0458 2.64139Q54.6894-4.91332 52.743-14.6291Q50.7967-24.3449 50.7967-35.1089Q50.7967-46.1996 52.743-55.9695Q54.6894-65.7394 58.0458-73.2651Q61.4022-80.7908 65.7524-85.0556Q70.1027-89.3204 74.8301-89.3204ZM71.2442-94.9888L71.2442 24.2383L78.416 24.2383L78.416-94.9888ZM74.8301-10.6304Q65.2652-10.6304 56.6402-9.0647Q48.0152-7.49903 41.1708-4.5964Q34.3265-1.69376 29.9034 2.18372L35.374 6.69941Q41.7596 1.79608 51.8035-0.817567Q61.8473-3.43121 74.8301-3.43121Q87.8659-3.43121 97.9095-0.817567Q107.953 1.79608 114.339 6.69941L119.809 2.18372Q115.386-1.69376 108.502-4.5964Q101.617-7.49903 93.0324-9.0647Q84.4476-10.6304 74.8301-10.6304ZM133.23-38.8556L16.4301-38.8556L16.4301-31.6838L133.23-31.6838ZM74.8301-59.5874Q84.4476-59.5874 93.0324-61.153Q101.617-62.7187 108.502-65.6213Q115.386-68.524 119.809-72.4014L114.339-76.9171Q107.953-72.0138 97.9095-69.4002Q87.8659-66.7865 74.8301-66.7865Q61.8473-66.7865 51.8035-69.4002Q41.7596-72.0138 35.374-76.9171L29.9034-72.4014Q34.3265-68.524 41.1708-65.6213Q48.0152-62.7187 56.6402-61.153Q65.2652-59.5874 74.8301-59.5874ZM74.8301 28.3016Q87.9308 28.3016 99.4232 23.3458Q110.916 18.3899 119.703 9.5764Q128.49 0.7629 133.472-10.7293Q138.454-22.2216 138.454-35.2697Q138.454-48.3178 133.472-59.8101Q128.49-71.3023 119.676-80.1158Q110.863-88.9293 99.3707-93.8852Q87.8782-98.841 74.7776-98.841Q61.7295-98.841 50.2233-93.8852Q38.7171-88.9293 29.9701-80.1158Q21.2231-71.3023 16.2409-59.8101Q11.2588-48.3178 11.2588-35.2697Q11.2588-22.2216 16.2409-10.7293Q21.2231 0.7629 29.9963 9.5764Q38.7696 18.3899 50.2758 23.3458Q61.782 28.3016 74.8301 28.3016ZM74.8301 20.9193Q63.3223 20.9193 53.1706 16.5213Q43.0189 12.1233 35.2545 4.3589Q27.4901-3.40552 23.0921-13.5837Q18.6942-23.7619 18.6942-35.2697Q18.6942-46.7776 23.0656-56.9557Q27.4371-67.1339 35.2015-74.8983Q42.9659-82.6627 53.1178-87.0607Q63.2697-91.4587 74.7776-91.4587Q86.338-91.4587 96.4896-87.0607Q106.641-82.6627 114.432-74.8983Q122.223-67.1339 126.621-56.9557Q131.019-46.7776 131.019-35.2697Q131.019-23.7619 126.621-13.5837Q122.223-3.40552 114.459 4.3589Q106.694 12.1233 96.5424 16.5213Q86.3905 20.9193 74.8301 20.9193Z"/>
  </g>
  <g id="Light-L" transform="matrix(1 0 0 1 1079.2 1556)">
   <path d="M73.914 25.4343Q80.0614 25.4343 85.605 21.0674Q91.1486 16.7004 95.4612 8.66743Q99.7738 0.634463 102.267-10.4932Q104.76-21.6208 104.76-35.1089Q104.76-48.6302 102.284-59.7749Q99.8079-70.9196 95.4782-78.9692Q91.1486-87.0188 85.622-91.4028Q80.0955-95.7868 73.914-95.7868Q67.7666-95.7868 62.223-91.4028Q56.6794-87.0188 52.3668-78.9692Q48.0542-70.9196 45.5779-59.7749Q43.1015-48.6302 43.1015-35.1089Q43.1015-21.6208 45.5779-10.4932Q48.0542 0.634463 52.3839 8.66743Q56.7135 16.7004 62.24 21.0674Q67.7666 25.4343 73.914 25.4343ZM73.914-90.7136Q78.8848-90.7136 83.3836-86.3916Q87.8824-82.0696 91.386-74.4007Q94.8897-66.7319 96.9031-56.6852Q98.9165-46.6386 98.9165-35.1089Q98.9165-24.0204 96.9031-14.0375Q94.8897-4.0546 91.386 3.69106Q87.8824 11.4367 83.3836 15.8989Q78.8848 20.3611 73.914 20.3611Q68.9765 20.3611 64.4546 15.8989Q59.9326 11.4367 56.4521 3.69106Q52.9716-4.0546 50.9586-14.0375Q48.9456-24.0204 48.9456-35.1089Q48.9456-46.6386 50.9586-56.6852Q52.9716-66.7319 56.4521-74.4007Q59.9326-82.0696 64.4546-86.3916Q68.9765-90.7136 73.914-90.7136ZM71.0724-94.8551L71.0724 24.1809L76.7556 24.1809L76.7556-94.8551ZM73.914-9.33267Q64.4636-9.33267 55.9912-7.82424Q47.5188-6.31581 40.7795-3.54673Q34.0401-0.777651 29.617 2.8898L33.9237 6.47046Q40.4427 1.62421 50.5915-0.989438Q60.7404-3.60309 73.914-3.60309Q87.1217-3.60309 97.2702-0.989438Q107.419 1.62421 113.938 6.47046L118.244 2.8898Q113.821-0.777651 107.042-3.54673Q100.262-6.31581 91.8299-7.82424Q83.3978-9.33267 73.914-9.33267ZM132.657-38.1113L15.1706-38.1113L15.1706-32.4281L132.657-32.4281ZM73.914-60.8851Q83.3978-60.8851 91.8299-62.3935Q100.262-63.9019 107.042-66.671Q113.821-69.4401 118.244-73.1075L113.938-76.6882Q107.419-71.8419 97.2702-69.2283Q87.1217-66.6146 73.914-66.6146Q60.7404-66.6146 50.5915-69.2283Q40.4427-71.8419 33.9237-76.6882L29.617-73.1075Q34.0401-69.4401 40.7795-66.671Q47.5188-63.9019 55.9912-62.3935Q64.4636-60.8851 73.914-60.8851ZM73.914 27.3855Q86.8428 27.3855 98.1635 22.506Q109.484 17.6264 118.147 8.94647Q126.81 0.266525 131.707-11.0539Q136.603-22.3742 136.603-35.2697Q136.603-48.1652 131.707-59.4856Q126.81-70.8059 118.131-79.4859Q109.451-88.1658 98.1302-93.0454Q86.8095-97.9249 73.8807-97.9249Q60.9852-97.9249 49.6413-93.0454Q38.2974-88.1658 29.6743-79.4859Q21.0512-70.8059 16.155-59.4856Q11.2588-48.1652 11.2588-35.2697Q11.2588-22.3742 16.155-11.0539Q21.0512 0.266525 29.6909 8.94647Q38.3307 17.6264 49.6746 22.506Q61.0185 27.3855 73.914 27.3855ZM73.914 21.5683Q62.2343 21.5683 51.9587 17.1321Q41.6831 12.696 33.8327 4.84566Q25.9824-3.0047 21.5462-13.2973Q17.1101-23.59 17.1101-35.2697Q17.1101-46.9494 21.5292-57.2421Q25.9483-67.5347 33.7986-75.3851Q41.649-83.2354 51.925-87.6715Q62.201-92.1077 73.8807-92.1077Q85.5937-92.1077 95.8693-87.6715Q106.145-83.2354 114.012-75.3851Q121.88-67.5347 126.316-57.2421Q130.752-46.9494 130.752-35.2697Q130.752-23.59 126.316-13.2973Q121.88-3.0047 114.029 4.84566Q106.179 12.696 95.903 17.1321Q85.627 21.5683 73.914 21.5683Z"/>
  </g>
  <g id="Thin-L" transform="matrix(1 0 0 1 783.716 1556)">
   <path d="M72.7024 25.3838Q78.5216 25.3838 83.8885 21.1558Q89.2554 16.9277 93.5301 9.00819Q97.8047 1.08867 100.298-10.0767Q102.791-21.2421 102.791-35.1089Q102.791-48.9835 100.302-60.1534Q97.8138-71.3233 93.5346-79.2468Q89.2554-87.1702 83.893-91.4028Q78.5306-95.6354 72.7024-95.6354Q66.8832-95.6354 61.5162-91.4028Q56.1493-87.1702 51.8747-79.2468Q47.6-71.3233 45.1109-60.1534Q42.6218-48.9835 42.6218-35.1089Q42.6218-21.2421 45.1109-10.0767Q47.6 1.08867 51.8792 9.00819Q56.1584 16.9277 61.5208 21.1558Q66.8832 25.3838 72.7024 25.3838ZM72.7024-92.5563Q77.9255-92.5563 82.6389-88.1586Q87.3522-83.7609 91.0326-75.9026Q94.7129-68.0444 96.8147-57.6318Q98.9165-47.2191 98.9165-35.1089Q98.9165-23.5912 96.8147-13.255Q94.7129-2.91888 91.0326 5.07933Q87.3522 13.0775 82.6389 17.6911Q77.9255 22.3047 72.7024 22.3047Q67.4871 22.3047 62.7381 17.6911Q57.989 13.0775 54.3444 5.07933Q50.6997-2.91888 48.5985-13.255Q46.4973-23.5912 46.4973-35.1089Q46.4973-47.2191 48.5985-57.6318Q50.6997-68.0444 54.3444-75.9026Q57.989-83.7609 62.7381-88.1586Q67.4871-92.5563 72.7024-92.5563ZM70.8451-94.6782L70.8451 24.105L74.5597 24.105L74.5597-94.6782ZM72.7024-7.61637Q63.4033-7.61637 55.1328-6.18364Q46.8623-4.75091 40.2618-2.15846Q33.6614 0.433983 29.2383 3.82365L32.0055 6.16766Q38.701 1.3969 48.9887-1.21675Q59.2764-3.8304 72.7024-3.8304Q86.1374-3.8304 96.4245-1.21675Q106.712 1.3969 113.408 6.16766L116.174 3.82365Q111.751 0.433983 105.111-2.15846Q98.4699-4.75091 90.2396-6.18364Q82.0093-7.61637 72.7024-7.61637ZM131.9-37.127L13.5047-37.127L13.5047-33.4124L131.9-33.4124ZM72.7024-62.6014Q82.0093-62.6014 90.2396-64.0341Q98.4699-65.4668 105.111-68.0593Q111.751-70.6517 116.174-74.0414L113.408-76.3854Q106.712-71.6146 96.4245-69.001Q86.1374-66.3873 72.7024-66.3873Q59.2764-66.3873 48.9887-69.001Q38.701-71.6146 32.0055-76.3854L29.2383-74.0414Q33.6614-70.6517 40.2618-68.0593Q46.8623-65.4668 55.1328-64.0341Q63.4033-62.6014 72.7024-62.6014ZM72.7024 26.1739Q85.4038 26.1739 96.4975 21.3953Q107.591 16.6166 116.09 8.11334Q124.589-0.389971 129.372-11.483Q134.155-22.5761 134.155-35.2697Q134.155-47.9633 129.372-59.0564Q124.589-70.1494 116.086-78.6527Q107.583-87.1561 96.4896-91.9347Q85.396-96.7133 72.6945-96.7133Q60.0009-96.7133 48.8716-91.9347Q37.7422-87.1561 29.283-78.6527Q20.8239-70.1494 16.0413-59.0564Q11.2588-47.9633 11.2588-35.2697Q11.2588-22.5761 16.0413-11.483Q20.8239-0.389971 29.287 8.11334Q37.7501 16.6166 48.8794 21.3953Q60.0088 26.1739 72.7024 26.1739ZM72.7024 22.4266Q60.7953 22.4266 50.3558 17.94Q39.9163 13.4534 31.9523 5.48943Q23.9883-2.47458 19.5017-12.9186Q15.0151-23.3627 15.0151-35.2697Q15.0151-47.1767 19.4972-57.6208Q23.9792-68.0648 31.9432-76.0288Q39.9073-83.9929 50.3474-88.4794Q60.7875-92.966 72.6945-92.966Q84.6094-92.966 95.0489-88.4794Q105.488-83.9929 113.457-76.0288Q121.426-68.0648 125.912-57.6208Q130.399-47.1767 130.399-35.2697Q130.399-23.3627 125.912-12.9186Q121.426-2.47458 113.462 5.48943Q105.497 13.4534 95.0574 17.94Q84.6173 22.4266 72.7024 22.4266Z"/>
  </g>
  <g id="Ultralight-L" transform="matrix(1 0 0 1 487.631 1556)">
   <path d="M72.0818 25.358Q77.7328 25.358 83.0093 21.2011Q88.2858 17.0441 92.541 9.18273Q96.7962 1.32131 99.2892-9.8634Q101.782-21.0481 101.782-35.1089Q101.782-49.1644 99.2873-60.3473Q96.7924-71.5301 92.5391-79.3889Q88.2858-87.2478 83.0074-91.4028Q77.7291-95.5579 72.0818-95.5579Q66.4307-95.5579 61.1543-91.4028Q55.8778-87.2478 51.6226-79.3889Q47.3674-71.5301 44.8718-60.3473Q42.3762-49.1644 42.3762-35.1089Q42.3762-21.0481 44.8718-9.8634Q47.3674 1.32131 51.6207 9.18273Q55.874 17.0441 61.1524 21.2011Q66.4307 25.358 72.0818 25.358ZM72.0818-93.5001Q77.4341-93.5001 82.2574-89.0636Q87.0807-84.6271 90.8515-76.6719Q94.6223-68.7167 96.7694-58.1166Q98.9165-47.5165 98.9165-35.1089Q98.9165-23.3714 96.7694-12.8543Q94.6223-2.33717 90.8515 5.79039Q87.0807 13.918 82.2574 18.6091Q77.4341 23.3002 72.0818 23.3002Q66.7242 23.3002 61.8589 18.6091Q56.9935 13.918 53.2648 5.79039Q49.5361-2.33717 47.3897-12.8543Q45.2433-23.3714 45.2433-35.1089Q45.2433-47.5165 47.3897-58.1166Q49.5361-68.7167 53.2648-76.6719Q56.9935-84.6271 61.8589-89.0636Q66.7242-93.5001 72.0818-93.5001ZM70.7286-94.5876L70.7286 24.0661L73.4349 24.0661L73.4349-94.5876ZM72.0818-6.73728Q62.8603-6.73728 54.6932-5.34333Q46.526-3.94937 39.9967-1.4474Q33.4674 1.05458 29.0443 4.30197L31.023 6.01256Q37.8088 1.28047 48.1677-1.33318Q58.5266-3.94683 72.0818-3.94683Q85.6332-3.94683 95.9914-1.33318Q106.35 1.28047 113.137 6.01256L115.114 4.30197Q110.691 1.05458 104.121-1.4474Q97.5519-3.94937 89.425-5.34333Q81.2981-6.73728 72.0818-6.73728ZM131.512-36.6228L12.6515-36.6228L12.6515-33.9166L131.512-33.9166ZM72.0818-63.4804Q81.2981-63.4804 89.425-64.8744Q97.5519-66.2684 104.121-68.7703Q110.691-71.2723 115.114-74.5197L113.137-76.2303Q106.35-71.4982 95.9914-68.8845Q85.6332-66.2709 72.0818-66.2709Q58.5266-66.2709 48.1677-68.8845Q37.8088-71.4982 31.023-76.2303L29.0443-74.5197Q33.4674-71.2723 39.9967-68.7703Q46.526-66.2684 54.6932-64.8744Q62.8603-63.4804 72.0818-63.4804ZM72.0818 25.5533Q84.6668 25.5533 95.6442 20.8264Q106.622 16.0995 115.036 7.68661Q123.451-0.726225 128.176-11.7029Q132.901-22.6795 132.901-35.2697Q132.901-47.8599 128.176-58.8365Q123.451-69.8132 115.039-78.226Q106.627-86.6389 95.6493-91.3658Q84.672-96.0927 72.087-96.0927Q59.4967-96.0927 48.4773-91.3658Q37.4579-86.6389 29.0827-78.226Q20.7074-69.8132 15.9831-58.8365Q11.2588-47.8599 11.2588-35.2697Q11.2588-22.6795 15.9831-11.7029Q20.7074-0.726225 29.0801 7.68661Q37.4527 16.0995 48.4721 20.8264Q59.4916 25.5533 72.0818 25.5533ZM72.0818 22.8663Q60.0583 22.8663 49.5348 18.3538Q39.0114 13.8414 30.9892 5.81917Q22.9669-2.20306 18.4545-12.7246Q13.942-23.2462 13.942-35.2697Q13.942-47.2932 18.4564-57.8148Q22.9707-68.3363 30.9929-76.3586Q39.0151-84.3808 49.5393-88.8932Q60.0635-93.4057 72.087-93.4057Q84.1052-93.4057 94.6287-88.8932Q105.152-84.3808 113.173-76.3586Q121.193-68.3363 125.705-57.8148Q130.218-47.2932 130.218-35.2697Q130.218-23.2462 125.705-12.7246Q121.193-2.20306 113.171 5.81917Q105.148 13.8414 94.6242 18.3538Q84.1001 22.8663 72.0818 22.8663Z"/>
  </g>
  <g id="Black-M" transform="matrix(1 0 0 1 2871.36 1126)">
   <path d="M62.0422 8.47358Q67.565 8.47358 72.315 5.08934Q77.0651 1.7051 80.6895-4.28273Q84.3139-10.2706 86.331-18.1804Q88.3481-26.0903 88.3481-35.136Q88.3481-44.2444 86.3338-52.1855Q84.3194-60.1267 80.6923-66.1173Q77.0651-72.1078 72.3178-75.4948Q67.5705-78.8818 62.0422-78.8818Q56.5766-78.8818 51.798-75.4948Q47.0194-72.1078 43.3949-66.1173Q39.7705-60.1267 37.7562-52.1855Q35.7418-44.2444 35.7418-35.136Q35.7418-26.0903 37.7562-18.1804Q39.7705-10.2706 43.3977-4.28273Q47.0248 1.7051 51.8007 5.08934Q56.5766 8.47358 62.0422 8.47358ZM62.0422-70.5266Q65.3572-70.5266 68.4752-67.5731Q71.5932-64.6196 74.0809-59.5801Q76.5685-54.5405 78.029-48.2282Q79.4896-41.9159 79.4896-35.136Q79.4896-28.422 78.029-22.1407Q76.5685-15.8594 74.0809-10.8232Q71.5932-5.78692 68.4752-2.83426Q65.3572 0.118406 62.0422 0.118406Q58.7328 0.118406 55.6149-2.80571Q52.497-5.72983 50.0092-10.7661Q47.5215-15.8023 46.0609-22.1121Q44.6004-28.422 44.6004-35.136Q44.6004-41.9159 46.0609-48.2282Q47.5215-54.5405 50.0092-59.5801Q52.497-64.6196 55.6149-67.5731Q58.7328-70.5266 62.0422-70.5266ZM57.6753-78.2538L57.6753 7.59639L66.4092 7.59639L66.4092-78.2538ZM62.0422-23.6428Q53.9307-23.6428 46.5896-22.4218Q39.2485-21.2008 33.5981-18.9714Q27.9476-16.7419 24.8063-13.6703L31.3964-8.13752Q35.6781-11.259 44.0251-13.0841Q52.3722-14.9091 62.0422-14.9091Q71.7177-14.9091 80.0934-13.0841Q88.469-11.259 92.6935-8.13752L99.2836-13.6703Q96.1424-16.7419 90.4893-18.9714Q84.8362-21.2008 77.5263-22.4218Q70.2164-23.6428 62.0422-23.6428ZM105.355-39.6276L18.7296-39.6276L18.7296-30.8937L105.355-30.8937ZM62.0422-46.6293Q70.2164-46.6293 77.5263-47.8503Q84.8362-49.0713 90.4893-51.3293Q96.1424-53.5872 99.2836-56.6018L92.6935-62.1345Q88.469-59.0131 80.0934-57.188Q71.7177-55.3629 62.0422-55.3629Q52.4293-55.3629 44.0822-57.188Q35.7352-59.0131 31.3964-62.1345L24.8063-56.6018Q27.9476-53.5872 33.5981-51.3293Q39.2485-49.0713 46.5896-47.8503Q53.9307-46.6293 62.0422-46.6293ZM62.0422 18.116Q73.0725 18.116 82.714 13.9613Q92.3554 9.8066 99.7039 2.45537Q107.052-4.89586 111.21-14.5373Q115.367-24.1788 115.367-35.2035Q115.367-46.2283 111.21-55.8698Q107.052-65.5112 99.7012-72.8625Q92.3499-80.2137 82.7085-84.3684Q73.067-88.5231 62.0367-88.5231Q51.0119-88.5231 41.3706-84.3684Q31.7293-80.2137 24.3835-72.8625Q17.0376-65.5112 12.8801-55.8698Q8.72266-46.2283 8.72266-35.2035Q8.72266-24.1788 12.8801-14.5373Q17.0376-4.89586 24.3862 2.45537Q31.7348 9.8066 41.3761 13.9613Q51.0174 18.116 62.0422 18.116ZM62.0422 4.90662Q53.7789 4.90662 46.5117 1.77112Q39.2446-1.36439 33.7266-6.88238Q28.2086-12.4004 25.0731-19.6703Q21.9376-26.9402 21.9376-35.2035Q21.9376-43.4669 25.0703-50.7368Q28.2031-58.0067 33.7211-63.5247Q39.2391-69.0427 46.5062-72.1782Q53.7734-75.3137 62.0367-75.3137Q70.3056-75.3137 77.5727-72.1782Q84.8399-69.0427 90.3607-63.5247Q95.8814-58.0067 99.0169-50.7368Q102.152-43.4669 102.152-35.2035Q102.152-26.9402 99.0169-19.6703Q95.8814-12.4004 90.3634-6.88238Q84.8454-1.36439 77.5782 1.77112Q70.3111 4.90662 62.0422 4.90662Z"/>
  </g>
  <g id="Heavy-M" transform="matrix(1 0 0 1 2575.48 1126)">
   <path d="M61.2053 9.26348Q66.6275 9.26348 71.3125 5.84615Q75.9975 2.42881 79.5642-3.64185Q83.1308-9.71251 85.1277-17.7812Q87.1246-25.8498 87.1246-35.136Q87.1246-44.4823 85.1359-52.581Q83.1473-60.6796 79.5724-66.7585Q75.9975-72.8373 71.3207-76.2629Q66.6439-79.6884 61.2053-79.6884Q55.8268-79.6884 51.12-76.2629Q46.4132-72.8373 42.8465-66.7585Q39.2798-60.6796 37.2912-52.581Q35.3025-44.4823 35.3025-35.136Q35.3025-25.8498 37.2912-17.7812Q39.2798-9.71251 42.8547-3.64185Q46.4296 2.42881 51.1282 5.84615Q55.8268 9.26348 61.2053 9.26348ZM61.2053-71.8991Q64.5863-71.8991 67.7395-68.8705Q70.8928-65.842 73.3915-60.635Q75.8903-55.4281 77.3531-48.8564Q78.8158-42.2846 78.8158-35.136Q78.8158-28.082 77.3531-21.5426Q75.8903-15.0032 73.3915-9.79993Q70.8928-4.59664 67.7395-1.56126Q64.5863 1.47411 61.2053 1.47411Q57.8408 1.47411 54.6864-1.53945Q51.5321-4.55302 49.0344-9.75631Q46.5368-14.9596 45.074-21.5208Q43.6113-28.082 43.6113-35.136Q43.6113-42.2846 45.074-48.8564Q46.5368-55.4281 49.0344-60.635Q51.5321-65.842 54.6864-68.8705Q57.8408-71.8991 61.2053-71.8991ZM57.1133-79.0444L57.1133 8.37024L65.2974 8.37024L65.2974-79.0444ZM61.2053-22.0541Q53.2439-22.0541 46.0378-20.8273Q38.8317-19.6005 33.2492-17.3485Q27.6667-15.0966 24.458-12.0126L30.6497-6.8342Q35.0704-10.1232 43.2699-11.9954Q51.4693-13.8677 61.2053-13.8677Q70.9578-13.8677 79.179-11.9954Q87.4003-10.1232 91.7774-6.8342L97.969-12.0126Q94.7604-15.0966 89.1685-17.3485Q83.5767-19.6005 76.4018-20.8273Q69.2268-22.0541 61.2053-22.0541ZM104.928-39.3527L17.4828-39.3527L17.4828-31.1686L104.928-31.1686ZM61.2053-48.218Q69.2268-48.218 76.4018-49.4448Q83.5767-50.6716 89.1685-52.9454Q94.7604-55.2191 97.969-58.2595L91.7774-63.4379Q87.4003-60.1489 79.179-58.2766Q70.9578-56.4044 61.2053-56.4044Q51.513-56.4044 43.3135-58.2766Q35.1141-60.1489 30.6497-63.4379L24.458-58.2595Q27.6667-55.2191 33.2492-52.9454Q38.8317-50.6716 46.0378-49.4448Q53.2439-48.218 61.2053-48.218ZM61.2053 17.2657Q72.0509 17.2657 81.5413 13.1751Q91.0318 9.08448 98.2693 1.83873Q105.507-5.40703 109.606-14.8974Q113.704-24.3879 113.704-35.217Q113.704-46.0462 109.606-55.5366Q105.507-65.027 98.2611-72.2728Q91.0154-79.5185 81.5249-83.6091Q72.0345-87.6997 61.1889-87.6997Q50.3598-87.6997 40.8682-83.6091Q31.3767-79.5185 24.1484-72.2728Q16.9202-65.027 12.8214-55.5366Q8.72266-46.0462 8.72266-35.217Q8.72266-24.3879 12.8214-14.8974Q16.9202-5.40703 24.1566 1.83873Q31.3931 9.08448 40.8846 13.1751Q50.3762 17.2657 61.2053 17.2657ZM61.2053 5.6134Q52.8112 5.6134 45.4196 2.41889Q38.028-0.775622 32.4042-6.39945Q26.7804-12.0233 23.5859-19.4231Q20.3913-26.8229 20.3913-35.217Q20.3913-43.6112 23.5776-51.011Q26.7639-58.4108 32.3878-64.0346Q38.0116-69.6584 45.4032-72.8529Q52.7948-76.0474 61.1889-76.0474Q69.5995-76.0474 76.9911-72.8529Q84.3826-69.6584 90.0147-64.0346Q95.6467-58.4108 98.8413-51.011Q102.036-43.6112 102.036-35.217Q102.036-26.8229 98.8413-19.4231Q95.6467-12.0233 90.0229-6.39945Q84.3991-0.775622 77.0075 2.41889Q69.6159 5.6134 61.2053 5.6134Z"/>
  </g>
  <g id="Bold-M" transform="matrix(1 0 0 1 2279.69 1126)">
   <path d="M60.2692 10.1471Q65.5787 10.1471 70.191 6.69274Q74.8032 3.23839 78.3053-2.92493Q81.8074-9.08825 83.7816-17.3345Q85.7559-25.5808 85.7559-35.136Q85.7559-44.7484 83.796-53.0233Q81.836-61.2982 78.3196-67.4758Q74.8032-73.6534 70.2053-77.1221Q65.6074-80.5908 60.2692-80.5908Q54.9881-80.5908 50.3616-77.1221Q45.7351-73.6534 42.233-67.4758Q38.731-61.2982 36.771-53.0233Q34.811-44.7484 34.811-35.136Q34.811-25.5808 36.771-17.3345Q38.731-9.08825 42.2474-2.92493Q45.7638 3.23839 50.376 6.69274Q54.9881 10.1471 60.2692 10.1471ZM60.2692-73.4343Q63.7239-73.4343 66.9165-70.3218Q70.1092-67.2093 72.6204-61.8151Q75.1316-56.4209 76.5969-49.559Q78.0622-42.6971 78.0622-35.136Q78.0622-27.7018 76.5969-20.8737Q75.1316-14.0455 72.6204-8.65532Q70.1092-3.26513 66.9165-0.137235Q63.7239 2.99066 60.2692 2.99066Q56.843 2.99066 53.6478-0.122961Q50.4526-3.23658 47.9439-8.62677Q45.4353-14.017 43.97-20.8594Q42.5048-27.7018 42.5048-35.136Q42.5048-42.6971 43.97-49.559Q45.4353-56.4209 47.9439-61.8151Q50.4526-67.2093 53.6478-70.3218Q56.843-73.4343 60.2692-73.4343ZM56.4846-79.9288L56.4846 9.23589L64.0538 9.23589L64.0538-79.9288ZM60.2692-20.2769Q52.4756-20.2769 45.4205-19.0436Q38.3654-17.8103 32.8589-15.5331Q27.3525-13.256 24.0684-10.1583L29.8143-5.37624Q34.3907-8.85265 42.425-10.7776Q50.4593-12.7026 60.2692-12.7026Q70.1076-12.7026 78.1562-10.7776Q86.2047-8.85265 90.7527-5.37624L96.4984-10.1583Q93.2144-13.256 87.6911-15.5331Q82.1678-17.8103 75.1438-19.0436Q68.1198-20.2769 60.2692-20.2769ZM104.45-39.0452L16.0882-39.0452L16.0882-31.476L104.45-31.476ZM60.2692-49.9952Q68.1198-49.9952 75.1438-51.2285Q82.1678-52.4618 87.6911-54.7532Q93.2144-57.0446 96.4984-60.1138L90.7527-64.8958Q86.2047-61.4194 78.1562-59.4944Q70.1076-57.5695 60.2692-57.5695Q50.4879-57.5695 42.4536-59.4944Q34.4193-61.4194 29.8143-64.8958L24.0684-60.1138Q27.3525-57.0446 32.8589-54.7532Q38.3654-52.4618 45.4205-51.2285Q52.4756-49.9952 60.2692-49.9952ZM60.2692 16.3144Q70.9081 16.3144 80.2296 12.2955Q89.5511 8.27669 96.6645 1.14892Q103.778-5.97884 107.811-15.3003Q111.844-24.6218 111.844-35.2321Q111.844-45.8424 107.811-55.1639Q103.778-64.4854 96.6502-71.6131Q89.5225-78.7409 80.201-82.7597Q70.8795-86.7786 60.2406-86.7786Q49.6302-86.7786 40.3062-82.7597Q30.9821-78.7409 23.8855-71.6131Q16.789-64.4854 12.7558-55.1639Q8.72266-45.8424 8.72266-35.2321Q8.72266-24.6218 12.7558-15.3003Q16.789-5.97884 23.8998 1.14892Q31.0107 8.27669 40.3348 12.2955Q49.6588 16.3144 60.2692 16.3144ZM60.2692 6.40404Q51.7287 6.40404 44.1979 3.14352Q36.6672-0.117006 30.925-5.85923Q25.1827-11.6015 21.9222-19.1465Q18.6617-26.6916 18.6617-35.2321Q18.6617-43.7726 21.9079-51.3177Q25.1541-58.8627 30.8963-64.605Q36.6385-70.3472 44.1693-73.6077Q51.7001-76.8682 60.2406-76.8682Q68.8097-76.8682 76.3404-73.6077Q83.8711-70.3472 89.6277-64.605Q95.3842-58.8627 98.6448-51.3177Q101.905-43.7726 101.905-35.2321Q101.905-26.6916 98.6448-19.1465Q95.3842-11.6015 89.642-5.85923Q83.8998-0.117006 76.369 3.14352Q68.8382 6.40404 60.2692 6.40404Z"/>
  </g>
  <g id="Semibold-M" transform="matrix(1 0 0 1 1983.62 1126)">
   <path d="M59.6238 10.7563Q64.8557 10.7563 69.4178 7.27638Q73.9799 3.79651 77.4374-2.43069Q80.895-8.65789 82.8536-17.0266Q84.8123-25.3953 84.8123-35.136Q84.8123-44.9319 82.8722-53.3282Q80.9321-61.7246 77.456-67.9703Q73.9799-74.216 69.4363-77.7144Q64.8928-81.2128 59.6238-81.2128Q54.4099-81.2128 49.8388-77.7144Q45.2677-74.216 41.8101-67.9703Q38.3526-61.7246 36.4124-53.3282Q34.4722-44.9319 34.4722-35.136Q34.4722-25.3953 36.4124-17.0266Q38.3526-8.65789 41.8287-2.43069Q45.3048 3.79651 49.8573 7.27638Q54.4099 10.7563 59.6238 10.7563ZM59.6238-74.4927Q63.1294-74.4927 66.3492-71.3224Q69.569-68.152 72.0888-62.6287Q74.6086-57.1054 76.0756-50.0434Q77.5426-42.9815 77.5426-35.136Q77.5426-27.4397 76.0756-20.4125Q74.6086-13.3852 72.0888-7.86622Q69.569-2.3472 66.3492 0.844482Q63.1294 4.03616 59.6238 4.03616Q56.1551 4.03616 52.9318 0.85356Q49.7085-2.32904 47.1922-7.84807Q44.6759-13.3671 43.2089-20.4034Q41.742-27.4397 41.742-35.136Q41.742-42.9815 43.2089-50.0434Q44.6759-57.1054 47.1922-62.6287Q49.7085-68.152 52.9318-71.3224Q56.1551-74.4927 59.6238-74.4927ZM56.0511-80.5385L56.0511 9.83267L63.1964 9.83267L63.1964-80.5385ZM59.6238-19.0517Q51.9459-19.0517 44.9949-17.8139Q38.0439-16.5762 32.5899-14.2816Q27.1358-11.9871 23.7999-8.8799L29.2384-4.37113Q33.9221-7.97673 41.8426-9.93809Q49.7631-11.8994 59.6238-11.8994Q69.5216-11.8994 77.451-9.93809Q85.3805-7.97673 90.0462-4.37113L95.4846-8.8799Q92.1487-11.9871 86.6726-14.2816Q81.1964-16.5762 74.2766-17.8139Q67.3567-19.0517 59.6238-19.0517ZM104.121-38.8333L15.1267-38.8333L15.1267-31.688L104.121-31.688ZM59.6238-51.2204Q67.3567-51.2204 74.2766-52.4581Q81.1964-53.6959 86.6726-55.9995Q92.1487-58.3031 95.4846-61.3922L90.0462-65.9009Q85.3805-62.2953 77.451-60.334Q69.5216-58.3726 59.6238-58.3726Q49.7812-58.3726 41.8608-60.334Q33.9403-62.2953 29.2384-65.9009L23.7999-61.3922Q27.1358-58.3031 32.5899-55.9995Q38.0439-53.6959 44.9949-52.4581Q51.9459-51.2204 59.6238-51.2204ZM59.6238 15.6586Q70.1202 15.6586 79.3253 11.6892Q88.5303 7.7198 95.5582 0.673376Q102.586-6.37304 106.574-15.578Q110.562-24.783 110.562-35.2425Q110.562-45.702 106.574-54.907Q102.586-64.1119 95.5397-71.1584Q88.4933-78.2048 79.2883-82.1742Q70.0832-86.1436 59.5868-86.1436Q49.1273-86.1436 39.9187-82.1742Q30.7102-78.2048 23.7043-71.1584Q16.6985-64.1119 12.7106-54.907Q8.72266-45.702 8.72266-35.2425Q8.72266-24.783 12.7106-15.578Q16.6985-6.37304 23.7228 0.673376Q30.7471 7.7198 39.9557 11.6892Q49.1643 15.6586 59.6238 15.6586ZM59.6238 6.94911Q50.9824 6.94911 43.3557 3.64307Q35.729 0.33704 29.9052-5.4868Q24.0813-11.3106 20.7753-18.9559Q17.4693-26.6011 17.4693-35.2425Q17.4693-43.8839 20.7567-51.5291Q24.0442-59.1743 29.8681-64.9982Q35.6919-70.822 43.3186-74.128Q50.9454-77.4341 59.5868-77.4341Q68.2651-77.4341 75.8918-74.128Q83.5185-70.822 89.3609-64.9982Q95.2033-59.1743 98.5093-51.5291Q101.815-43.8839 101.815-35.2425Q101.815-26.6011 98.5093-18.9559Q95.2033-11.3106 89.3794-5.4868Q83.5556 0.33704 75.9289 3.64307Q68.3021 6.94911 59.6238 6.94911Z"/>
  </g>
  <g id="Medium-M" transform="matrix(1 0 0 1 1687.4 1126)">
   <path d="M59.1344 11.2181Q64.3075 11.2181 68.8315 7.71892Q73.3556 4.21969 76.7794-2.05594Q80.2031-8.33157 82.15-16.7931Q84.0969-25.2547 84.0969-35.136Q84.0969-45.071 82.1717-53.5595Q80.2466-62.0479 76.8011-68.3452Q73.3556-74.6425 68.8533-78.1635Q64.351-81.6845 59.1344-81.6845Q53.9715-81.6845 49.4424-78.1635Q44.9132-74.6425 41.4894-68.3452Q38.0656-62.0479 36.1405-53.5595Q34.2153-45.071 34.2153-35.136Q34.2153-25.2547 36.1405-16.7931Q38.0656-8.33157 41.5112-2.05594Q44.9567 4.21969 49.4641 7.71892Q53.9715 11.2181 59.1344 11.2181ZM59.1344-75.2952Q62.6786-75.2952 65.919-72.081Q69.1594-68.8667 71.6857-63.2455Q74.2121-57.6244 75.6804-50.4107Q77.1486-43.1971 77.1486-35.136Q77.1486-27.2409 75.6804-20.0628Q74.2121-12.8846 71.6857-7.2679Q69.1594-1.65119 65.919 1.58886Q62.6786 4.82891 59.1344 4.82891Q55.6335 4.82891 52.3889 1.594Q49.1442-1.64091 46.6221-7.25762Q44.1-12.8743 42.6318-20.0576Q41.1636-27.2409 41.1636-35.136Q41.1636-43.1971 42.6318-50.4107Q44.1-57.6244 46.6221-63.2455Q49.1442-68.8667 52.3889-72.081Q55.6335-75.2952 59.1344-75.2952ZM55.7225-81.0007L55.7225 10.2852L62.5463 10.2852L62.5463-81.0007ZM59.1344-18.1227Q51.5443-18.1227 44.6722-16.8816Q37.8002-15.6404 32.3859-13.3327Q26.9716-11.025 23.5962-7.91059L28.8018-3.60901Q33.5668-7.31258 41.401-9.30151Q49.2351-11.2904 59.1344-11.2904Q69.0772-11.2904 76.9164-9.30151Q84.7556-7.31258 89.5105-3.60901L94.7159-7.91059Q91.3406-11.025 85.9003-13.3327Q80.4599-15.6404 73.619-16.8816Q66.7781-18.1227 59.1344-18.1227ZM103.871-38.6725L14.3977-38.6725L14.3977-31.8488L103.871-31.8488ZM59.1344-52.1493Q66.7781-52.1493 73.619-53.3905Q80.4599-54.6317 85.9003-56.9445Q91.3406-59.2574 94.7159-62.3615L89.5105-66.6631Q84.7556-62.9595 76.9164-60.9706Q69.0772-58.9816 59.1344-58.9816Q49.2454-58.9816 41.4112-60.9706Q33.5771-62.9595 28.8018-66.6631L23.5962-62.3615Q26.9716-59.2574 32.3859-56.9445Q37.8002-54.6317 44.6722-53.3905Q51.5443-52.1493 59.1344-52.1493ZM59.1344 15.1614Q69.5228 15.1614 78.6396 11.2295Q87.7563 7.29754 94.7193 0.312797Q101.682-6.67194 105.636-15.7886Q109.59-24.9053 109.59-35.2504Q109.59-45.5955 105.636-54.7121Q101.682-63.8288 94.6976-70.8135Q87.713-77.7983 78.5962-81.7302Q69.4795-85.6621 59.091-85.6621Q48.7459-85.6621 39.6249-81.7302Q30.5039-77.7983 23.5669-70.8135Q16.6298-63.8288 12.6762-54.7121Q8.72266-45.5955 8.72266-35.2504Q8.72266-24.9053 12.6762-15.7886Q16.6298-6.67194 23.5886 0.312797Q30.5473 7.29754 39.6683 11.2295Q48.7893 15.1614 59.1344 15.1614ZM59.1344 7.3624Q50.4165 7.3624 42.7171 4.02186Q35.0177 0.681317 29.1319-5.20441Q23.2462-11.0901 19.9057-18.8113Q16.5651-26.5325 16.5651-35.2504Q16.5651-43.9683 19.8839-51.6894Q23.2027-59.4106 29.0884-65.2963Q34.9742-71.1821 42.6737-74.5226Q50.3731-77.8631 59.091-77.8631Q67.8523-77.8631 75.5517-74.5226Q83.2511-71.1821 89.1586-65.2963Q95.0661-59.4106 98.4066-51.6894Q101.747-43.9683 101.747-35.2504Q101.747-26.5325 98.4066-18.8113Q95.0661-11.0901 89.1803-5.20441Q83.2946 0.681317 75.5951 4.02186Q67.8956 7.3624 59.1344 7.3624Z"/>
  </g>
  <g id="Regular-M" transform="matrix(1 0 0 1 1391.32 1126)">
   <path d="M58.4961 11.8206Q63.5925 11.8206 68.0669 8.29614Q72.5413 4.77168 75.921-1.56713Q79.3008-7.90594 81.2322-16.4886Q83.1637-25.0713 83.1637-35.136Q83.1637-45.2525 81.2581-53.861Q79.3526-62.4696 75.9469-68.8343Q72.5413-75.1989 68.0928-78.7493Q63.6443-82.2997 58.4961-82.2997Q53.3997-82.2997 48.9253-78.7493Q44.4509-75.1989 41.0711-68.8343Q37.6914-62.4696 35.7858-53.861Q33.8802-45.2525 33.8802-35.136Q33.8802-25.0713 35.7858-16.4886Q37.6914-7.90594 41.0971-1.56713Q44.5027 4.77168 48.9512 8.29614Q53.3997 11.8206 58.4961 11.8206ZM58.4961-76.342Q62.0906-76.342 65.3579-73.0705Q68.6251-69.799 71.16-64.0502Q73.6948-58.3013 75.1648-50.8898Q76.6348-43.4783 76.6348-35.136Q76.6348-26.9816 75.1648-19.6066Q73.6948-12.2316 71.16-6.48748Q68.6251-0.743341 65.3579 2.55979Q62.0906 5.86292 58.4961 5.86292Q54.9532 5.86292 51.6807 2.55979Q48.4083-0.743341 45.8786-6.48748Q43.349-12.2316 41.8791-19.6066Q40.4092-26.9816 40.4092-35.136Q40.4092-43.4783 41.8791-50.8898Q43.349-58.3013 45.8786-64.0502Q48.4083-69.799 51.6807-73.0705Q54.9532-76.342 58.4961-76.342ZM55.2939-81.6037L55.2939 10.8754L61.6983 10.8754L61.6983-81.6037ZM58.4961-16.911Q51.0205-16.911 44.2514-15.6654Q37.4822-14.4198 32.1198-12.0949Q26.7573-9.77 23.3306-6.64627L28.2322-2.61495Q33.1034-6.44629 40.8249-8.47119Q48.5465-10.4961 58.4961-10.4961Q68.4975-10.4961 76.219-8.47119Q83.9404-6.44629 88.8118-2.61495L93.7133-6.64627Q90.2865-9.77 84.8929-12.0949Q79.4993-14.4198 72.7613-15.6654Q66.0233-16.911 58.4961-16.911ZM103.545-38.4629L13.4468-38.4629L13.4468-32.0584L103.545-32.0584ZM58.4961-53.3611Q66.0233-53.3611 72.7613-54.6067Q79.4993-55.8523 84.8929-58.1772Q90.2865-60.5021 93.7133-63.6258L88.8118-67.6571Q83.9404-63.8258 76.219-61.8009Q68.4975-59.776 58.4961-59.776Q48.5465-59.776 40.8249-61.8009Q33.1034-63.8258 28.2322-67.6571L23.3306-63.6258Q26.7573-60.5021 32.1198-58.1772Q37.4822-55.8523 44.2514-54.6067Q51.0205-53.3611 58.4961-53.3611ZM58.4961 14.5128Q68.7436 14.5128 77.7452 10.6298Q86.7468 6.74677 93.6251-0.157525Q100.503-7.06182 104.412-16.0633Q108.321-25.0648 108.321-35.2606Q108.321-45.4565 104.412-54.458Q100.503-63.4595 93.5993-70.3638Q86.6951-77.2681 77.6935-81.1511Q68.692-85.0341 58.4444-85.0341Q48.2485-85.0341 39.2417-81.1511Q30.2349-77.2681 23.3876-70.3638Q16.5403-63.4595 12.6315-54.458Q8.72266-45.4565 8.72266-35.2606Q8.72266-25.0648 12.6315-16.0633Q16.5403-7.06182 23.4135-0.157525Q30.2866 6.74677 39.2934 10.6298Q48.3002 14.5128 58.4961 14.5128ZM58.4961 7.90147Q49.6784 7.90147 41.8841 4.51592Q34.0898 1.13037 28.1234-4.83608Q22.1569-10.8025 18.7714-18.6228Q15.3858-26.443 15.3858-35.2606Q15.3858-44.0783 18.7454-51.8985Q22.1051-59.7188 28.0715-65.6852Q34.038-71.6517 41.8324-75.0372Q49.6267-78.4228 58.4444-78.4228Q67.3138-78.4228 75.108-75.0372Q82.9023-71.6517 88.8947-65.6852Q94.8871-59.7188 98.2726-51.8985Q101.658-44.0783 101.658-35.2606Q101.658-26.443 98.2726-18.6228Q94.8871-10.8025 88.9206-4.83608Q82.9542 1.13037 75.1598 4.51592Q67.3654 7.90147 58.4961 7.90147Z"/>
  </g>
  <g id="Light-M" transform="matrix(1 0 0 1 1095.44 1126)">
   <path d="M57.6747 11.7864Q62.5486 11.7864 66.9033 8.35608Q71.258 4.92577 74.612-1.33614Q77.966-7.59805 79.8974-16.2063Q81.8289-24.8146 81.8289-35.136Q81.8289-45.4919 79.9149-54.1176Q78.0009-62.7433 74.6294-69.0224Q71.258-75.3016 66.9207-78.7493Q62.5835-82.1971 57.6747-82.1971Q52.8009-82.1971 48.4462-78.7493Q44.0915-75.3016 40.7375-69.0224Q37.3835-62.7433 35.4693-54.1176Q33.555-45.4919 33.555-35.136Q33.555-24.8146 35.4693-16.2063Q37.3835-7.59805 40.7549-1.33614Q44.1264 4.92577 48.4636 8.35608Q52.8009 11.7864 57.6747 11.7864ZM57.6747-77.5911Q61.4403-77.5911 64.853-74.2683Q68.2657-70.9455 70.9203-65.0683Q73.5749-59.1911 75.1049-51.5315Q76.6348-43.8719 76.6348-35.136Q76.6348-26.6907 75.1049-19.0762Q73.5749-11.4617 70.9203-5.5464Q68.2657 0.368936 64.853 3.7747Q61.4403 7.18046 57.6747 7.18046Q53.9436 7.18046 50.5171 3.7747Q47.0907 0.368936 44.4498-5.5464Q41.8089-11.4617 40.2793-19.0762Q38.7496-26.6907 38.7496-35.136Q38.7496-43.8719 40.2793-51.5315Q41.8089-59.1911 44.4498-65.0683Q47.0907-70.9455 50.5171-74.2683Q53.9436-77.5911 57.6747-77.5911ZM55.1398-81.4838L55.1398 10.8239L60.2097 10.8239L60.2097-81.4838ZM57.6747-15.7476Q50.3018-15.7476 43.6695-14.5533Q37.0372-13.359 31.7689-11.1538Q26.5006-8.94866 23.0738-6.01323L26.9319-2.82021Q31.9227-6.60038 39.7384-8.62528Q47.5541-10.6502 57.6747-10.6502Q67.8303-10.6502 75.6457-8.62528Q83.4612-6.60038 88.4525-2.82021L92.31-6.01323Q88.8833-8.94866 83.5838-11.1538Q78.2844-13.359 71.6832-14.5533Q65.0821-15.7476 57.6747-15.7476ZM103.032-37.7956L12.3176-37.7956L12.3176-32.7257L103.032-32.7257ZM57.6747-54.5245Q65.0821-54.5245 71.6832-55.7188Q78.2844-56.9131 83.5838-59.1182Q88.8833-61.3234 92.31-64.2588L88.4525-67.4519Q83.4612-63.6717 75.6457-61.6468Q67.8303-59.6219 57.6747-59.6219Q47.5541-59.6219 39.7384-61.6468Q31.9227-63.6717 26.9319-67.4519L23.0738-64.2588Q26.5006-61.3234 31.7689-59.1182Q37.0372-56.9131 43.6695-55.7188Q50.3018-54.5245 57.6747-54.5245ZM57.6747 13.6914Q67.7682 13.6914 76.6158 9.87685Q85.4634 6.06227 92.2305-0.722288Q98.9976-7.50684 102.83-16.3542Q106.662-25.2016 106.662-35.2606Q106.662-45.3197 102.83-54.1671Q98.9976-63.0144 92.2133-69.799Q85.429-76.5836 76.5814-80.3981Q67.7338-84.2127 57.6403-84.2127Q47.5813-84.2127 38.7199-80.3981Q29.8586-76.5836 23.1224-69.799Q16.3862-63.0144 12.5544-54.1671Q8.72266-45.3197 8.72266-35.2606Q8.72266-25.2016 12.5544-16.3542Q16.3862-7.50684 23.1396-0.722288Q29.893 6.06227 38.7544 9.87685Q47.6157 13.6914 57.6747 13.6914ZM57.6747 8.48334Q48.703 8.48334 40.7976 5.06358Q32.8922 1.64382 26.8487-4.39968Q20.8052-10.4432 17.3854-18.366Q13.9656-26.2889 13.9656-35.2606Q13.9656-44.2324 17.368-52.1553Q20.7703-60.0781 26.8138-66.1216Q32.8573-72.1651 40.7629-75.5849Q48.6686-79.0046 57.6403-79.0046Q66.6465-79.0046 74.5519-75.5849Q82.4573-72.1651 88.5183-66.1216Q94.5792-60.0781 97.999-52.1553Q101.419-44.2324 101.419-35.2606Q101.419-26.2889 97.999-18.366Q94.5792-10.4432 88.5357-4.39968Q82.4922 1.64382 74.5866 5.06358Q66.6809 8.48334 57.6747 8.48334Z"/>
  </g>
  <g id="Thin-M" transform="matrix(1 0 0 1 799.828 1126)">
   <path d="M56.5884 11.7411Q61.168 11.7411 65.3643 8.43536Q69.5606 5.12957 72.8806-1.03063Q76.2006-7.19083 78.1321-15.8329Q80.0635-24.475 80.0635-35.136Q80.0635-45.8087 78.1383-54.457Q76.2131-63.1053 72.8869-69.2713Q69.5606-75.4373 65.3706-78.7493Q61.1805-82.0613 56.5884-82.0613Q52.0089-82.0613 47.8126-78.7493Q43.6162-75.4373 40.2963-69.2713Q36.9763-63.1053 35.0506-54.457Q33.125-45.8087 33.125-35.136Q33.125-24.475 35.0506-15.8329Q36.9763-7.19083 40.3025-1.03063Q43.6287 5.12957 47.8188 8.43536Q52.0089 11.7411 56.5884 11.7411ZM56.5884-79.2432Q60.5803-79.2432 64.1854-75.8525Q67.7905-72.4619 70.6034-66.4148Q73.4164-60.3678 75.0256-52.3801Q76.6348-44.3924 76.6348-35.136Q76.6348-26.3059 75.0256-18.3747Q73.4164-10.4435 70.6034-4.30174Q67.7905 1.84001 64.1854 5.38151Q60.5803 8.92301 56.5884 8.92301Q52.6082 8.92301 48.9782 5.38151Q45.3482 1.84001 42.5601-4.30174Q39.7721-10.4435 38.1633-18.3747Q36.5546-26.3059 36.5546-35.136Q36.5546-44.3924 38.1633-52.3801Q39.7721-60.3678 42.5601-66.4148Q45.3482-72.4619 48.9782-75.8525Q52.6082-79.2432 56.5884-79.2432ZM54.936-81.3253L54.936 10.7559L58.2409 10.7559L58.2409-81.3253ZM56.5884-14.2088Q49.3512-14.2088 42.8999-13.0824Q36.4486-11.956 31.3048-9.90917Q26.1611-7.86237 22.7343-5.17598L25.2122-3.09169Q30.3611-6.80418 38.3013-8.82908Q46.2415-10.854 56.5884-10.854Q66.9478-10.854 74.8876-8.82908Q82.8274-6.80418 87.9772-3.09169L90.4542-5.17598Q87.0274-7.86237 81.8525-9.90917Q76.6776-11.956 70.2574-13.0824Q63.8373-14.2088 56.5884-14.2088ZM102.353-36.9131L10.8241-36.9131L10.8241-33.6082L102.353-33.6082ZM56.5884-56.0633Q63.8373-56.0633 70.2574-57.1897Q76.6776-58.3161 81.8525-60.3629Q87.0274-62.4097 90.4542-65.0961L87.9772-67.1804Q82.8274-63.4679 74.8876-61.443Q66.9478-59.4181 56.5884-59.4181Q46.2415-59.4181 38.3013-61.443Q30.3611-63.4679 25.2122-67.1804L22.7343-65.0961Q26.1611-62.4097 31.3048-60.3629Q36.4486-58.3161 42.8999-57.1897Q49.3512-56.0633 56.5884-56.0633ZM56.5884 12.6051Q66.4781 12.6051 75.1221 8.88105Q83.7661 5.15696 90.3861-1.46923Q97.006-8.09543 100.736-16.739Q104.467-25.3826 104.467-35.2606Q104.467-45.1387 100.736-53.7823Q97.006-62.4259 90.3803-69.0521Q83.7545-75.6782 75.1105-79.4023Q66.4665-83.1264 56.5768-83.1264Q46.6988-83.1264 38.0298-79.4023Q29.3609-75.6782 22.7717-69.0521Q16.1824-62.4259 12.4526-53.7823Q8.72266-45.1387 8.72266-35.2606Q8.72266-25.3826 12.4526-16.739Q16.1824-8.09543 22.7775-1.46923Q29.3725 5.15696 38.0415 8.88105Q46.7104 12.6051 56.5884 12.6051ZM56.5884 9.25291Q47.4129 9.25291 39.3605 5.7879Q31.3082 2.3229 25.1628-3.8225Q19.0174-9.9679 15.5523-18.0265Q12.0873-26.0851 12.0873-35.2606Q12.0873-44.4362 15.5461-52.4948Q19.0049-60.5534 25.1503-66.6988Q31.2957-72.8442 39.3485-76.3092Q47.4013-79.7742 56.5768-79.7742Q65.764-79.7742 73.8164-76.3092Q81.8687-72.8442 88.0204-66.6988Q94.172-60.5534 97.637-52.4948Q101.102-44.4362 101.102-35.2606Q101.102-26.0851 97.637-18.0265Q94.172-9.9679 88.0266-3.8225Q81.8812 2.3229 73.8284 5.7879Q65.7756 9.25291 56.5884 9.25291Z"/>
  </g>
  <g id="Ultralight-M" transform="matrix(1 0 0 1 503.679 1126)">
   <path d="M56.032 11.718Q60.4609 11.718 64.5761 8.47596Q68.6913 5.23395 71.9938-0.874153Q75.2964-6.98226 77.2278-15.6417Q79.1593-24.3011 79.1593-35.136Q79.1593-45.9709 77.2283-54.6308Q75.2974-63.2907 71.9943-69.3988Q68.6913-75.5068 64.5766-78.7493Q60.4619-81.9918 56.032-81.9918Q51.6032-81.9918 47.488-78.7493Q43.3728-75.5068 40.0703-69.3988Q36.7677-63.2907 34.8362-54.6308Q32.9047-45.9709 32.9047-35.136Q32.9047-24.3011 34.8362-15.6417Q36.7677-6.98226 40.0707-0.874153Q43.3738 5.23395 47.4885 8.47596Q51.6032 11.718 56.032 11.718ZM56.032-80.0894Q60.1397-80.0894 63.8434-76.6639Q67.547-73.2385 70.4411-67.1045Q73.3352-60.9706 74.985-52.8148Q76.6348-44.659 76.6348-35.136Q76.6348-26.1088 74.985-18.0154Q73.3352-9.92197 70.4411-3.66424Q67.547 2.59349 63.8434 6.20452Q60.1397 9.81554 56.032 9.81554Q51.9243 9.81554 48.19 6.20452Q44.4557 2.59349 41.5922-3.66424Q38.7288-9.92197 37.0796-18.0154Q35.4303-26.1088 35.4303-35.136Q35.4303-44.659 37.0796-52.8148Q38.7288-60.9706 41.5922-67.1045Q44.4557-73.2385 48.19-76.6639Q51.9243-80.0894 56.032-80.0894ZM54.8316-81.2441L54.8316 10.721L57.2325 10.721L57.2325-81.2441ZM56.032-13.4207Q48.8644-13.4207 42.5058-12.329Q36.1471-11.2373 31.0672-9.27166Q25.9872-7.30597 22.5604-4.74715L24.3313-3.23074Q29.5613-6.90856 37.5653-8.93346Q45.5693-10.9584 56.032-10.9584Q66.4958-10.9584 74.4993-8.93346Q82.5027-6.90856 87.7337-3.23074L89.5036-4.74715Q86.0769-7.30597 80.9657-9.27166Q75.8546-11.2373 69.5271-12.329Q63.1997-13.4207 56.032-13.4207ZM102.005-36.4611L10.0591-36.4611L10.0591-34.0602L102.005-34.0602ZM56.032-56.8514Q63.1997-56.8514 69.5271-57.9431Q75.8546-59.0347 80.9657-61.0004Q86.0769-62.9661 89.5036-65.5249L87.7337-67.0413Q82.5027-63.3635 74.4993-61.3386Q66.4958-59.3137 56.032-59.3137Q45.5693-59.3137 37.5653-61.3386Q29.5613-63.3635 24.3313-67.0413L22.5604-65.5249Q25.9872-62.9661 31.0672-61.0004Q36.1471-59.0347 42.5058-57.9431Q48.8644-56.8514 56.032-56.8514ZM56.032 12.0487Q65.8173 12.0487 74.357 8.37101Q82.8968 4.69327 89.4414-1.85181Q95.986-8.39689 99.6642-16.9361Q103.342-25.4753 103.342-35.2606Q103.342-45.046 99.6642-53.5852Q95.986-62.1244 89.4414-68.6695Q82.8968-75.2146 74.3571-78.8923Q65.8174-82.57 56.0321-82.57Q46.2468-82.57 37.6764-78.8923Q29.106-75.2146 22.592-68.6695Q16.0781-62.1244 12.4004-53.5852Q8.72266-45.046 8.72266-35.2606Q8.72266-25.4753 12.4004-16.9361Q16.0781-8.39689 22.592-1.85181Q29.1059 4.69327 37.6763 8.37101Q46.2467 12.0487 56.032 12.0487ZM56.032 9.64708Q46.7521 9.64708 38.6245 6.1589Q30.4968 2.67072 24.2992-3.52688Q18.1016-9.72447 14.6135-17.8526Q11.1253-25.9807 11.1253-35.2606Q11.1253-44.5406 14.613-52.6687Q18.1007-60.7968 24.2983-66.9944Q30.4959-73.192 38.624-76.6802Q46.7522-80.1684 56.0321-80.1684Q65.312-80.1684 73.4396-76.6802Q81.5673-73.192 87.7653-66.9944Q93.9634-60.7968 97.4516-52.6687Q100.94-44.5406 100.94-35.2606Q100.94-25.9807 97.4516-17.8526Q93.9634-9.72447 87.7658-3.52688Q81.5682 2.67072 73.4401 6.1589Q65.3119 9.64708 56.032 9.64708Z"/>
  </g>
  <g id="Black-S" transform="matrix(1 0 0 1 2884.57 696)">
   <path d="M48.8281-1.2207Q53.1738-1.2207 56.9092-3.85742Q60.6445-6.49414 63.501-11.1572Q66.3574-15.8203 67.9443-21.9727Q69.5312-28.125 69.5312-35.1562Q69.5312-42.2363 67.9443-48.4131Q66.3574-54.5898 63.501-59.2529Q60.6445-63.916 56.9092-66.5527Q53.1738-69.1895 48.8281-69.1895Q44.5312-69.1895 40.7715-66.5527Q37.0117-63.916 34.1553-59.2529Q31.2988-54.5898 29.7119-48.4131Q28.125-42.2363 28.125-35.1562Q28.125-28.125 29.7119-21.9727Q31.2988-15.8203 34.1553-11.1572Q37.0117-6.49414 40.7715-3.85742Q44.5312-1.2207 48.8281-1.2207ZM48.8281-62.5488Q51.416-62.5488 53.8574-60.2539Q56.2988-57.959 58.252-54.0527Q60.2051-50.1465 61.3525-45.2637Q62.5-40.3809 62.5-35.1562Q62.5-29.9805 61.3525-25.1221Q60.2051-20.2637 58.252-16.3574Q56.2988-12.4512 53.8574-10.1562Q51.416-7.86133 48.8281-7.86133Q46.2402-7.86133 43.7988-10.1318Q41.3574-12.4023 39.4043-16.3086Q37.4512-20.2148 36.3037-25.0977Q35.1562-29.9805 35.1562-35.1562Q35.1562-40.3809 36.3037-45.2637Q37.4512-50.1465 39.4043-54.0527Q41.3574-57.959 43.7988-60.2539Q46.2402-62.5488 48.8281-62.5488ZM45.3613-68.7012L45.3613-1.9043L52.2949-1.9043L52.2949-68.7012ZM48.8281-26.5625Q42.4316-26.5625 36.6455-25.6104Q30.8594-24.6582 26.416-22.9248Q21.9727-21.1914 19.5312-18.7988L24.7559-14.4043Q28.0762-16.7969 34.668-18.2129Q41.2598-19.6289 48.8281-19.6289Q56.3965-19.6289 63.0127-18.2129Q69.6289-16.7969 72.9004-14.4043L78.125-18.7988Q75.6836-21.1914 71.2402-22.9248Q66.7969-24.6582 61.0352-25.6104Q55.2734-26.5625 48.8281-26.5625ZM82.666-38.7207L14.9902-38.7207L14.9902-31.7871L82.666-31.7871ZM48.8281-43.75Q55.2734-43.75 61.0352-44.7021Q66.7969-45.6543 71.2402-47.4121Q75.6836-49.1699 78.125-51.5137L72.9004-55.9082Q69.6289-53.5156 63.0127-52.0996Q56.3965-50.6836 48.8281-50.6836Q41.3086-50.6836 34.7168-52.0996Q28.125-53.5156 24.7559-55.9082L19.5312-51.5137Q21.9727-49.1699 26.416-47.4121Q30.8594-45.6543 36.6455-44.7021Q42.4316-43.75 48.8281-43.75ZM48.8281 6.78711Q57.5195 6.78711 65.1123 3.51562Q72.7051 0.244141 78.4912-5.54199Q84.2773-11.3281 87.5488-18.9209Q90.8203-26.5137 90.8203-35.2051Q90.8203-43.8965 87.5488-51.4893Q84.2773-59.082 78.4912-64.8682Q72.7051-70.6543 65.1123-73.9258Q57.5195-77.1973 48.8281-77.1973Q40.1367-77.1973 32.5439-73.9258Q24.9512-70.6543 19.165-64.8682Q13.3789-59.082 10.1074-51.4893Q6.83594-43.8965 6.83594-35.2051Q6.83594-26.5137 10.1074-18.9209Q13.3789-11.3281 19.165-5.54199Q24.9512 0.244141 32.5439 3.51562Q40.1367 6.78711 48.8281 6.78711ZM48.8281-3.95508Q42.3828-3.95508 36.7188-6.39648Q31.0547-8.83789 26.7578-13.1348Q22.4609-17.4316 20.0195-23.0957Q17.5781-28.7598 17.5781-35.2051Q17.5781-41.6504 20.0195-47.3145Q22.4609-52.9785 26.7578-57.2754Q31.0547-61.5723 36.7188-64.0137Q42.3828-66.4551 48.8281-66.4551Q55.2734-66.4551 60.9375-64.0137Q66.6016-61.5723 70.8984-57.2754Q75.1953-52.9785 77.6367-47.3145Q80.0781-41.6504 80.0781-35.2051Q80.0781-28.7598 77.6367-23.0957Q75.1953-17.4316 70.8984-13.1348Q66.6016-8.83789 60.9375-6.39648Q55.2734-3.95508 48.8281-3.95508Z"/>
  </g>
  <g id="Heavy-S" transform="matrix(1 0 0 1 2588.47 696)">
   <path d="M48.2173-0.54076Q52.5054-0.54076 56.2004-3.21781Q59.8954-5.89487 62.7058-10.6386Q65.5161-15.3824 67.0858-21.6673Q68.6554-27.9521 68.6554-35.1562Q68.6554-42.4092 67.0915-48.7185Q65.5277-55.0278 62.7116-59.7773Q59.8954-64.5268 56.2062-67.2096Q52.5169-69.8924 48.2173-69.8924Q43.9666-69.8924 40.2529-67.2096Q36.5392-64.5268 33.7289-59.7773Q30.9185-55.0278 29.3547-48.7185Q27.7908-42.4092 27.7908-35.1562Q27.7908-27.9521 29.3547-21.6673Q30.9185-15.3824 33.7346-10.6386Q36.5507-5.89487 40.2586-3.21781Q43.9666-0.54076 48.2173-0.54076ZM48.2173-63.563Q50.8398-63.563 53.2927-61.2104Q55.7457-58.8579 57.693-54.8249Q59.6404-50.7919 60.7821-45.7189Q61.9238-40.6459 61.9238-35.1562Q61.9238-29.7269 60.7821-24.6784Q59.6404-19.6298 57.693-15.6026Q55.7457-11.5753 53.2927-9.22277Q50.8398-6.87022 48.2173-6.87022Q45.6064-6.87022 43.1535-9.20412Q40.7005-11.538 38.7532-15.5653Q36.8058-19.5925 35.6641-24.6597Q34.5224-29.7269 34.5224-35.1562Q34.5224-40.6459 35.6641-45.7189Q36.8058-50.7919 38.7532-54.8249Q40.7005-58.8579 43.1535-61.2104Q45.6064-63.563 48.2173-63.563ZM44.9003-69.3926L44.9003-1.23588L51.5343-1.23588L51.5343-69.3926ZM48.2173-25.3524Q41.9361-25.3524 36.2479-24.3888Q30.5597-23.4251 26.1625-21.6571Q21.7652-19.8891 19.2662-17.462L24.2834-13.2634Q27.7074-15.8058 34.1609-17.2621Q40.6144-18.7185 48.2173-18.7185Q55.8318-18.7185 62.3039-17.2621Q68.7761-15.8058 72.1628-13.2634L77.18-17.462Q74.681-19.8891 70.2779-21.6571Q65.8749-23.4251 60.2112-24.3888Q54.5474-25.3524 48.2173-25.3524ZM82.3664-38.5709L14.0683-38.5709L14.0683-31.9369L82.3664-31.9369ZM48.2173-44.9601Q54.5474-44.9601 60.2112-45.9237Q65.8749-46.8874 70.2779-48.674Q74.681-50.4607 77.18-52.8505L72.1628-57.0491Q68.7761-54.5067 62.3039-53.0504Q55.8318-51.594 48.2173-51.594Q40.6517-51.594 34.1982-53.0504Q27.7447-54.5067 24.2834-57.0491L19.2662-52.8505Q21.7652-50.4607 26.1625-48.674Q30.5597-46.8874 36.2479-45.9237Q41.9361-44.9601 48.2173-44.9601ZM48.2173 6.16479Q56.7704 6.16479 64.2537 2.9394Q71.737-0.285985 77.4425-5.99721Q83.1479-11.7084 86.3791-19.1917Q89.6102-26.675 89.6102-35.2166Q89.6102-43.7582 86.3791-51.2415Q83.1479-58.7248 77.4367-64.436Q71.7255-70.1472 64.2422-73.3726Q56.7589-76.598 48.2058-76.598Q39.6642-76.598 32.1809-73.3726Q24.6976-70.1472 18.9979-64.436Q13.2982-58.7248 10.0671-51.2415Q6.83594-43.7582 6.83594-35.2166Q6.83594-26.675 10.0671-19.1917Q13.2982-11.7084 19.0037-5.99721Q24.7092-0.285985 32.1924 2.9394Q39.6757 6.16479 48.2173 6.16479ZM48.2173-3.42495Q41.6798-3.42495 35.9236-5.91246Q30.1673-8.39996 25.7898-12.7775Q21.4122-17.1551 18.9247-22.9171Q16.4372-28.6791 16.4372-35.2166Q16.4372-41.7541 18.9189-47.5161Q21.4007-53.2782 25.7782-57.6557Q30.1558-62.0332 35.912-64.5207Q41.6683-67.0083 48.2058-67.0083Q54.7548-67.0083 60.5111-64.5207Q66.2674-62.0332 70.6507-57.6557Q75.034-53.2782 77.5215-47.5161Q80.009-41.7541 80.009-35.2166Q80.009-28.6791 77.5215-22.9171Q75.034-17.1551 70.6564-12.7775Q66.2789-8.39996 60.5226-5.91246Q54.7664-3.42495 48.2173-3.42495Z"/>
  </g>
  <g id="Bold-S" transform="matrix(1 0 0 1 2292.43 696)">
   <path d="M47.5342 0.219727Q51.7578 0.219727 55.4077-2.50244Q59.0576-5.22461 61.8164-10.0586Q64.5752-14.8926 66.1255-21.3257Q67.6758-27.7588 67.6758-35.1562Q67.6758-42.6025 66.1377-49.0601Q64.5996-55.5176 61.8286-60.3638Q59.0576-65.21 55.4199-67.9443Q51.7822-70.6787 47.5342-70.6787Q43.335-70.6787 39.6729-67.9443Q36.0107-65.21 33.252-60.3638Q30.4932-55.5176 28.9551-49.0601Q27.417-42.6025 27.417-35.1562Q27.417-27.7588 28.9551-21.3257Q30.4932-14.8926 33.2642-10.0586Q36.0352-5.22461 39.6851-2.50244Q43.335 0.219727 47.5342 0.219727ZM47.5342-64.6973Q50.1953-64.6973 52.6611-62.2803Q55.127-59.8633 57.0679-55.6885Q59.0088-51.5137 60.144-46.228Q61.2793-40.9424 61.2793-35.1562Q61.2793-29.4434 60.144-24.1821Q59.0088-18.9209 57.0679-14.7583Q55.127-10.5957 52.6611-8.17871Q50.1953-5.76172 47.5342-5.76172Q44.8975-5.76172 42.4316-8.1665Q39.9658-10.5713 38.0249-14.7339Q36.084-18.8965 34.9487-24.1699Q33.8135-29.4434 33.8135-35.1562Q33.8135-40.9424 34.9487-46.228Q36.084-51.5137 38.0249-55.6885Q39.9658-59.8633 42.4316-62.2803Q44.8975-64.6973 47.5342-64.6973ZM44.3848-70.166L44.3848-0.488281L50.6836-0.488281L50.6836-70.166ZM47.5342-23.999Q41.3818-23.999 35.8032-23.0225Q30.2246-22.0459 25.8789-20.2393Q21.5332-18.4326 18.9697-15.9668L23.7549-11.9873Q27.2949-14.6973 33.5938-16.1987Q39.8926-17.7002 47.5342-17.7002Q55.2002-17.7002 61.5112-16.1987Q67.8223-14.6973 71.3379-11.9873L76.123-15.9668Q73.5596-18.4326 69.2017-20.2393Q64.8438-22.0459 59.2896-23.0225Q53.7354-23.999 47.5342-23.999ZM82.0312-38.4033L13.0371-38.4033L13.0371-32.1045L82.0312-32.1045ZM47.5342-46.3135Q53.7354-46.3135 59.2896-47.29Q64.8438-48.2666 69.2017-50.0854Q73.5596-51.9043 76.123-54.3457L71.3379-58.3252Q67.8223-55.6152 61.5112-54.1138Q55.2002-52.6123 47.5342-52.6123Q39.917-52.6123 33.6182-54.1138Q27.3193-55.6152 23.7549-58.3252L18.9697-54.3457Q21.5332-51.9043 25.8789-50.0854Q30.2246-48.2666 35.8032-47.29Q41.3818-46.3135 47.5342-46.3135ZM47.5342 5.46875Q55.9326 5.46875 63.2935 2.29492Q70.6543-0.878906 76.2695-6.50635Q81.8848-12.1338 85.0708-19.4946Q88.2568-26.8555 88.2568-35.2295Q88.2568-43.6035 85.0708-50.9644Q81.8848-58.3252 76.2573-63.9526Q70.6299-69.5801 63.269-72.7539Q55.9082-75.9277 47.5098-75.9277Q39.1357-75.9277 31.7749-72.7539Q24.4141-69.5801 18.811-63.9526Q13.208-58.3252 10.022-50.9644Q6.83594-43.6035 6.83594-35.2295Q6.83594-26.8555 10.022-19.4946Q13.208-12.1338 18.8232-6.50635Q24.4385-0.878906 31.7993 2.29492Q39.1602 5.46875 47.5342 5.46875ZM47.5342-2.83203Q40.8936-2.83203 35.0342-5.37109Q29.1748-7.91016 24.707-12.3779Q20.2393-16.8457 17.7002-22.7173Q15.1611-28.5889 15.1611-35.2295Q15.1611-41.8701 17.688-47.7417Q20.2148-53.6133 24.6826-58.0811Q29.1504-62.5488 35.0098-65.0879Q40.8691-67.627 47.5098-67.627Q54.1748-67.627 60.0342-65.0879Q65.8936-62.5488 70.3735-58.0811Q74.8535-53.6133 77.3926-47.7417Q79.9316-41.8701 79.9316-35.2295Q79.9316-28.5889 77.3926-22.7173Q74.8535-16.8457 70.3857-12.3779Q65.918-7.91016 60.0586-5.37109Q54.1992-2.83203 47.5342-2.83203Z"/>
  </g>
  <g id="Semibold-S" transform="matrix(1 0 0 1 1996.19 696)">
   <path d="M47.0632 0.744043Q51.2424 0.744043 54.8612-2.00923Q58.48-4.7625 61.2032-9.65869Q63.9265-14.5549 65.4634-21.0902Q67.0004-27.6255 67.0004-35.1562Q67.0004-42.7358 65.4801-49.2956Q63.9598-55.8553 61.2199-60.7681Q58.48-65.681 54.8778-68.4509Q51.2757-71.2208 47.0632-71.2208Q42.8995-71.2208 39.2729-68.4509Q35.6464-65.681 32.9231-60.7681Q30.1999-55.8553 28.6796-49.2956Q27.1593-42.7358 27.1593-35.1562Q27.1593-27.6255 28.6796-21.0902Q30.1999-14.5549 32.9398-9.65869Q35.6797-4.7625 39.2896-2.00923Q42.8995 0.744043 47.0632 0.744043ZM47.0632-65.4793Q49.751-65.4793 52.2257-63.0179Q54.7004-60.5564 56.6369-56.2839Q58.5733-52.0113 59.7042-46.5791Q60.835-41.1468 60.835-35.1562Q60.835-29.2479 59.7042-23.84Q58.5733-18.4321 56.6369-14.1762Q54.7004-9.92031 52.2257-7.45889Q49.751-4.99746 47.0632-4.99746Q44.4087-4.99746 41.934-7.45112Q39.4593-9.90479 37.5228-14.1607Q35.5863-18.4166 34.4555-23.8322Q33.3247-29.2479 33.3247-35.1562Q33.3247-41.1468 34.4555-46.5791Q35.5863-52.0113 37.5228-56.2839Q39.4593-60.5564 41.934-63.0179Q44.4087-65.4793 47.0632-65.4793ZM44.0293-70.6992L44.0293 0.0271484L50.0971 0.0271484L50.0971-70.6992ZM47.0632-23.0659Q40.9997-23.0659 35.4966-22.0805Q29.9936-21.095 25.6834-19.2617Q21.3732-17.4284 18.7653-14.9359L23.3905-11.1075Q27.0105-13.933 33.2027-15.4656Q39.3949-16.9981 47.0632-16.9981Q54.7647-16.9981 60.9647-15.4656Q67.1646-13.933 70.7691-11.1075L75.3943-14.9359Q72.7864-17.4284 68.4596-19.2617Q64.1328-21.095 58.6542-22.0805Q53.1755-23.0659 47.0632-23.0659ZM81.8002-38.2878L12.3262-38.2878L12.3262-32.22L81.8002-32.22ZM47.0632-47.2466Q53.1755-47.2466 58.6542-48.232Q64.1328-49.2175 68.4596-51.0585Q72.7864-52.8996 75.3943-55.3766L70.7691-59.205Q67.1646-56.3795 60.9647-54.8469Q54.7647-53.3144 47.0632-53.3144Q39.4104-53.3144 33.2183-54.8469Q27.0261-56.3795 23.3905-59.205L18.7653-55.3766Q21.3732-52.8996 25.6834-51.0585Q29.9936-49.2175 35.4966-48.232Q40.9997-47.2466 47.0632-47.2466ZM47.0632 4.98887Q55.355 4.98887 62.6314 1.85059Q69.9078-1.2877 75.4608-6.85737Q81.0139-12.4271 84.1688-19.7035Q87.3237-26.9799 87.3237-35.2384Q87.3237-43.4969 84.1688-50.7733Q81.0139-58.0497 75.4442-63.6194Q69.8745-69.1891 62.5981-72.3273Q55.3217-75.4656 47.0299-75.4656Q38.7714-75.4656 31.495-72.3273Q24.2186-69.1891 18.6822-63.6194Q13.1458-58.0497 9.99087-50.7733Q6.83594-43.4969 6.83594-35.2384Q6.83594-26.9799 9.99087-19.7035Q13.1458-12.4271 18.6988-6.85737Q24.2519-1.2877 31.5283 1.85059Q38.8047 4.98887 47.0632 4.98887ZM47.0632-2.42324Q40.3515-2.42324 34.421-4.99785Q28.4905-7.57246 23.9605-12.1024Q19.4306-16.6324 16.856-22.5795Q14.2813-28.5267 14.2813-35.2384Q14.2813-41.9501 16.8393-47.8972Q19.3973-53.8443 23.9272-58.3743Q28.4572-62.9043 34.3877-65.4789Q40.3182-68.0535 47.0299-68.0535Q53.7749-68.0535 59.7054-65.4789Q65.6358-62.9043 70.1825-58.3743Q74.7291-53.8443 77.3037-47.8972Q79.8783-41.9501 79.8783-35.2384Q79.8783-28.5267 77.3037-22.5795Q74.7291-16.6324 70.1991-12.1024Q65.6691-7.57246 59.7387-4.99785Q53.8082-2.42324 47.0632-2.42324Z"/>
  </g>
  <g id="Medium-S" transform="matrix(1 0 0 1 1699.83 696)">
   <path d="M46.7061 1.1416Q50.8516 1.1416 54.4468-1.63525Q58.042-4.41211 60.7383-9.35547Q63.4346-14.2988 64.9614-20.9116Q66.4883-27.5244 66.4883-35.1562Q66.4883-42.8369 64.9814-49.4741Q63.4746-56.1113 60.7583-61.0747Q58.042-66.0381 54.4668-68.835Q50.8916-71.6318 46.7061-71.6318Q42.5693-71.6318 38.9697-68.835Q35.3701-66.0381 32.6738-61.0747Q29.9775-56.1113 28.4707-49.4741Q26.9639-42.8369 26.9639-35.1562Q26.9639-27.5244 28.4707-20.9116Q29.9775-14.2988 32.6938-9.35547Q35.4102-4.41211 38.9897-1.63525Q42.5693 1.1416 46.7061 1.1416ZM46.7061-66.0723Q49.4141-66.0723 51.8955-63.5771Q54.377-61.082 56.3101-56.7354Q58.2432-52.3887 59.3706-46.8452Q60.498-41.3018 60.498-35.1562Q60.498-29.0996 59.3706-23.5806Q58.2432-18.0615 56.3101-13.7349Q54.377-9.4082 51.8955-6.91309Q49.4141-4.41797 46.7061-4.41797Q44.0381-4.41797 41.5566-6.90869Q39.0752-9.39941 37.1421-13.7261Q35.209-18.0527 34.0815-23.5762Q32.9541-29.0996 32.9541-35.1562Q32.9541-41.3018 34.0815-46.8452Q35.209-52.3887 37.1421-56.7354Q39.0752-61.082 41.5566-63.5771Q44.0381-66.0723 46.7061-66.0723ZM43.7598-71.1035L43.7598 0.417969L49.6523 0.417969L49.6523-71.1035ZM46.7061-22.3584Q40.71-22.3584 35.2642-21.3662Q29.8184-20.374 25.5352-18.5205Q21.252-16.667 18.6104-14.1543L23.1143-10.4404Q26.7949-13.3535 32.9062-14.9097Q39.0176-16.4658 46.7061-16.4658Q54.4346-16.4658 60.5503-14.9097Q66.666-13.3535 70.3379-10.4404L74.8418-14.1543Q72.2002-16.667 67.897-18.5205Q63.5938-20.374 58.1724-21.3662Q52.751-22.3584 46.7061-22.3584ZM81.625-38.2002L11.7871-38.2002L11.7871-32.3076L81.625-32.3076ZM46.7061-47.9541Q52.751-47.9541 58.1724-48.9463Q63.5938-49.9385 67.897-51.7964Q72.2002-53.6543 74.8418-56.1582L70.3379-59.8721Q66.666-56.959 60.5503-55.4028Q54.4346-53.8467 46.7061-53.8467Q39.0264-53.8467 32.915-55.4028Q26.8037-56.959 23.1143-59.8721L18.6104-56.1582Q21.252-53.6543 25.5352-51.7964Q29.8184-49.9385 35.2642-48.9463Q40.71-47.9541 46.7061-47.9541ZM46.7061 4.625Q54.917 4.625 62.1294 1.51367Q69.3418-1.59766 74.8477-7.12354Q80.3535-12.6494 83.4849-19.8618Q86.6162-27.0742 86.6162-35.2451Q86.6162-43.416 83.4849-50.6284Q80.3535-57.8408 74.8276-63.3667Q69.3018-68.8926 62.0894-72.0039Q54.877-75.1152 46.666-75.1152Q38.4951-75.1152 31.2827-72.0039Q24.0703-68.8926 18.5845-63.3667Q13.0986-57.8408 9.96729-50.6284Q6.83594-43.416 6.83594-35.2451Q6.83594-27.0742 9.96729-19.8618Q13.0986-12.6494 18.6045-7.12354Q24.1104-1.59766 31.3228 1.51367Q38.5352 4.625 46.7061 4.625ZM46.7061-2.11328Q39.9404-2.11328 33.9561-4.71484Q27.9717-7.31641 23.3945-11.8936Q18.8174-16.4707 16.2158-22.4751Q13.6143-28.4795 13.6143-35.2451Q13.6143-42.0107 16.1958-48.0151Q18.7773-54.0195 23.3545-58.5967Q27.9316-63.1738 33.916-65.7754Q39.9004-68.377 46.666-68.377Q53.4717-68.377 59.4561-65.7754Q65.4404-63.1738 70.0376-58.5967Q74.6348-54.0195 77.2363-48.0151Q79.8379-42.0107 79.8379-35.2451Q79.8379-28.4795 77.2363-22.4751Q74.6348-16.4707 70.0576-11.8936Q65.4805-7.31641 59.4961-4.71484Q53.5117-2.11328 46.7061-2.11328Z"/>
  </g>
  <g id="Regular-S" transform="matrix(1 0 0 1 1403.58 696)">
   <path d="M46.2402 1.66016Q50.3418 1.66016 53.9062-1.14746Q57.4707-3.95508 60.1318-8.95996Q62.793-13.9648 64.3066-20.6787Q65.8203-27.3926 65.8203-35.1562Q65.8203-42.9688 64.3311-49.707Q62.8418-56.4453 60.1562-61.4746Q57.4707-66.5039 53.9307-69.3359Q50.3906-72.168 46.2402-72.168Q42.1387-72.168 38.5742-69.3359Q35.0098-66.5039 32.3486-61.4746Q29.6875-56.4453 28.1982-49.707Q26.709-42.9688 26.709-35.1562Q26.709-27.3926 28.1982-20.6787Q29.6875-13.9648 32.373-8.95996Q35.0586-3.95508 38.5986-1.14746Q42.1387 1.66016 46.2402 1.66016ZM46.2402-66.8457Q48.9746-66.8457 51.4648-64.3066Q53.9551-61.7676 55.8838-57.3242Q57.8125-52.8809 58.9355-47.1924Q60.0586-41.5039 60.0586-35.1562Q60.0586-28.9062 58.9355-23.2422Q57.8125-17.5781 55.8838-13.1592Q53.9551-8.74023 51.4648-6.20117Q48.9746-3.66211 46.2402-3.66211Q43.5547-3.66211 41.0645-6.20117Q38.5742-8.74023 36.6455-13.1592Q34.7168-17.5781 33.5938-23.2422Q32.4707-28.9062 32.4707-35.1562Q32.4707-41.5039 33.5938-47.1924Q34.7168-52.8809 36.6455-57.3242Q38.5742-61.7676 41.0645-64.3066Q43.5547-66.8457 46.2402-66.8457ZM43.4082-71.6309L43.4082 0.927734L49.0723 0.927734L49.0723-71.6309ZM46.2402-21.4355Q40.332-21.4355 34.9609-20.4346Q29.5898-19.4336 25.3418-17.5537Q21.0938-15.6738 18.4082-13.1348L22.7539-9.57031Q26.5137-12.5977 32.5195-14.1846Q38.5254-15.7715 46.2402-15.7715Q54.0039-15.7715 60.0098-14.1846Q66.0156-12.5977 69.7754-9.57031L74.1211-13.1348Q71.4355-15.6738 67.1631-17.5537Q62.8906-19.4336 57.5439-20.4346Q52.1973-21.4355 46.2402-21.4355ZM81.3965-38.0859L11.084-38.0859L11.084-32.4219L81.3965-32.4219ZM46.2402-48.877Q52.1973-48.877 57.5439-49.8779Q62.8906-50.8789 67.1631-52.7588Q71.4355-54.6387 74.1211-57.1777L69.7754-60.7422Q66.0156-57.7148 60.0098-56.1279Q54.0039-54.541 46.2402-54.541Q38.5254-54.541 32.5195-56.1279Q26.5137-57.7148 22.7539-60.7422L18.4082-57.1777Q21.0938-54.6387 25.3418-52.7588Q29.5898-50.8789 34.9609-49.8779Q40.332-48.877 46.2402-48.877ZM46.2402 4.15039Q54.3457 4.15039 61.4746 1.07422Q68.6035-2.00195 74.0479-7.4707Q79.4922-12.9395 82.5928-20.0684Q85.6934-27.1973 85.6934-35.2539Q85.6934-43.3105 82.5928-50.4395Q79.4922-57.5684 74.0234-63.0371Q68.5547-68.5059 61.4258-71.582Q54.2969-74.6582 46.1914-74.6582Q38.1348-74.6582 31.0059-71.582Q23.877-68.5059 18.457-63.0371Q13.0371-57.5684 9.93652-50.4395Q6.83594-43.3105 6.83594-35.2539Q6.83594-27.1973 9.93652-20.0684Q13.0371-12.9395 18.4814-7.4707Q23.9258-2.00195 31.0547 1.07422Q38.1836 4.15039 46.2402 4.15039ZM46.2402-1.70898Q39.4043-1.70898 33.3496-4.3457Q27.2949-6.98242 22.6562-11.6211Q18.0176-16.2598 15.3809-22.3389Q12.7441-28.418 12.7441-35.2539Q12.7441-42.0898 15.3564-48.1689Q17.9688-54.248 22.6074-58.8867Q27.2461-63.5254 33.3008-66.1621Q39.3555-68.7988 46.1914-68.7988Q53.0762-68.7988 59.1309-66.1621Q65.1855-63.5254 69.8486-58.8867Q74.5117-54.248 77.1484-48.1689Q79.7852-42.0898 79.7852-35.2539Q79.7852-28.418 77.1484-22.3389Q74.5117-16.2598 69.873-11.6211Q65.2344-6.98242 59.1797-4.3457Q53.125-1.70898 46.2402-1.70898Z"/>
  </g>
  <g id="Light-S" transform="matrix(1 0 0 1 1107.6 696)">
   <path d="M45.5137 1.62989Q49.4184 1.62989 52.8769-1.09444Q56.3354-3.81877 58.9738-8.75562Q61.6122-13.6925 63.1259-20.429Q64.6395-27.1655 64.6395-35.1562Q64.6395-43.1806 63.1428-49.934Q61.646-56.6874 58.9907-61.6411Q56.3354-66.5947 52.8938-69.3359Q49.4522-72.0772 45.5137-72.0772Q41.6089-72.0772 38.1504-69.3359Q34.6919-66.5947 32.0535-61.6411Q29.4151-56.6874 27.9182-49.934Q26.4214-43.1806 26.4214-35.1562Q26.4214-27.1655 27.9182-20.429Q29.4151-13.6925 32.0704-8.75562Q34.7257-3.81877 38.1673-1.09444Q41.6089 1.62989 45.5137 1.62989ZM45.5137-67.9507Q48.3994-67.9507 51.0183-65.3662Q53.6372-62.7818 55.6718-58.2249Q57.7065-53.668 58.8825-47.76Q60.0586-41.8521 60.0586-35.1562Q60.0586-28.6489 58.8825-22.773Q57.7065-16.8971 55.6718-12.3267Q53.6372-7.7563 51.0183-5.12644Q48.3994-2.49659 45.5137-2.49659Q42.6615-2.49659 40.0351-5.12644Q37.4087-7.7563 35.3816-12.3267Q33.3544-16.8971 32.1785-22.773Q31.0026-28.6489 31.0026-35.1562Q31.0026-41.8521 32.1785-47.76Q33.3544-53.668 35.3816-58.2249Q37.4087-62.7818 40.0351-65.3662Q42.6615-67.9507 45.5137-67.9507ZM43.2719-71.5248L43.2719 0.882212L47.7554 0.882212L47.7554-71.5248ZM45.5137-20.4063Q39.6962-20.4063 34.4462-19.4508Q29.1962-18.4952 25.0314-16.7212Q20.8666-14.9473 18.1811-12.5748L21.6036-9.75189Q25.4692-12.734 31.5584-14.3209Q37.6475-15.9078 45.5137-15.9078Q53.4136-15.9078 59.5027-14.3209Q65.5917-12.734 69.4575-9.75189L72.8798-12.5748Q70.1942-14.9473 66.0051-16.7212Q61.8159-18.4952 56.5903-19.4508Q51.3646-20.4063 45.5137-20.4063ZM80.9423-37.4957L10.085-37.4957L10.085-33.0121L80.9423-33.0121ZM45.5137-49.9062Q51.3646-49.9062 56.5903-50.8617Q61.8159-51.8173 66.0051-53.5913Q70.1942-55.3652 72.8798-57.7377L69.4575-60.5606Q65.5917-57.5785 59.5027-55.9916Q53.4136-54.4047 45.5137-54.4047Q37.6475-54.4047 31.5584-55.9916Q25.4692-57.5785 21.6036-60.5606L18.1811-57.7377Q20.8666-55.3652 25.0314-53.5913Q29.1962-51.8173 34.4462-50.8617Q39.6962-49.9062 45.5137-49.9062ZM45.5137 3.42382Q53.4828 3.42382 60.4755 0.408173Q67.4683-2.60747 72.8142-7.9703Q78.1601-13.3331 81.1927-20.3257Q84.2252-27.3183 84.2252-35.2539Q84.2252-43.1895 81.1927-50.1821Q78.1601-57.1747 72.7974-62.5375Q67.4347-67.9003 60.442-70.916Q53.4492-73.9316 45.4801-73.9316Q37.5445-73.9316 30.5443-70.916Q23.5441-67.9003 18.2224-62.5375Q12.9008-57.1747 9.86837-50.1821Q6.83594-43.1895 6.83594-35.2539Q6.83594-27.3183 9.86837-20.3257Q12.9008-13.3331 18.2392-7.9703Q23.5776-2.60747 30.5779 0.408173Q37.5781 3.42382 45.5137 3.42382ZM45.5137-1.19425Q38.5414-1.19425 32.3884-3.86124Q26.2355-6.52822 21.5286-11.235Q16.8218-15.9419 14.1548-22.1118Q11.4878-28.2817 11.4878-35.2539Q11.4878-42.2262 14.1379-48.396Q16.788-54.5659 21.4948-59.2728Q26.2016-63.9796 32.3547-66.6466Q38.5078-69.3136 45.4801-69.3136Q52.4859-69.3136 58.6389-66.6466Q64.7919-63.9796 69.5156-59.2728Q74.2393-54.5659 76.9063-48.396Q79.5733-42.2262 79.5733-35.2539Q79.5733-28.2817 76.9063-22.1118Q74.2393-15.9419 69.5325-11.235Q64.8257-6.52822 58.6726-3.86124Q52.5195-1.19425 45.5137-1.19425Z"/>
  </g>
  <g id="Thin-S" transform="matrix(1 0 0 1 811.863 696)">
   <path d="M44.5527 1.58987Q48.1971 1.58987 51.5155-1.02431Q54.834-3.63848 57.4423-8.48536Q60.0505-13.3322 61.5642-20.0987Q63.0779-26.8651 63.0779-35.1562Q63.0779-43.4608 61.5712-50.2342Q60.0645-57.0076 57.4492-61.8612Q54.834-66.7148 51.5225-69.3359Q48.2111-71.9571 44.5527-71.9571Q40.9083-71.9571 37.5899-69.3359Q34.2714-66.7148 31.6632-61.8612Q29.0549-57.0076 27.5479-50.2342Q26.0409-43.4608 26.0409-35.1562Q26.0409-26.8651 27.5479-20.0987Q29.0549-13.3322 31.6702-8.48536Q34.2854-3.63848 37.5969-1.02431Q40.9083 1.58987 44.5527 1.58987ZM44.5527-69.4121Q47.6385-69.4121 50.4276-66.7676Q53.2167-64.1231 55.3915-59.4161Q57.5662-54.709 58.8124-48.5107Q60.0586-42.3125 60.0586-35.1562Q60.0586-28.3085 58.8124-22.1524Q57.5662-15.9963 55.3915-11.2256Q53.2167-6.45496 50.4276-3.70503Q47.6385-0.955102 44.5527-0.955102Q41.4803-0.955102 38.6737-3.70503Q35.8672-6.45496 33.7099-11.2256Q31.5526-15.9963 30.3067-22.1524Q29.0608-28.3085 29.0608-35.1562Q29.0608-42.3125 30.3067-48.5107Q31.5526-54.709 33.7099-59.4161Q35.8672-64.1231 38.6737-66.7676Q41.4803-69.4121 44.5527-69.4121ZM43.0916-71.3846L43.0916 0.822006L46.0138 0.822006L46.0138-71.3846ZM44.5527-19.0451Q38.8554-19.0451 33.7654-18.1496Q28.6755-17.254 24.6209-15.6202Q20.5663-13.9863 17.8807-11.8341L20.0823-9.99205Q24.0878-12.9143 30.2871-14.5012Q36.4864-16.0881 44.5527-16.0881Q52.633-16.0881 58.832-14.5012Q65.031-12.9143 69.0371-9.99205L71.2381-11.8341Q68.5525-13.9863 64.4735-15.6202Q60.3945-17.254 55.329-18.1496Q50.2634-19.0451 44.5527-19.0451ZM80.3416-36.715L8.76386-36.715L8.76386-33.7928L80.3416-33.7928ZM44.5527-51.2674Q50.2634-51.2674 55.329-52.1629Q60.3945-53.0585 64.4735-54.6923Q68.5525-56.3262 71.2381-58.4784L69.0371-60.3205Q65.031-57.3982 58.832-55.8113Q52.633-54.2244 44.5527-54.2244Q36.4864-54.2244 30.2871-55.8113Q24.0878-57.3982 20.0823-60.3205L17.8807-58.4784Q20.5663-56.3262 24.6209-54.6923Q28.6755-53.0585 33.7654-52.1629Q38.8554-51.2674 44.5527-51.2674ZM44.5527 2.46287Q52.3416 2.46287 59.1542-0.472727Q65.9668-3.40832 71.1825-8.63106Q76.3983-13.8538 79.3409-20.6661Q82.2835-27.4784 82.2835-35.2539Q82.2835-43.0294 79.3409-49.8417Q76.3983-56.654 71.1759-61.8768Q65.9534-67.0995 59.1408-70.0351Q52.3282-72.9707 44.5393-72.9707Q36.7638-72.9707 29.9338-70.0351Q23.1038-67.0995 17.9121-61.8768Q12.7205-56.654 9.77823-49.8417Q6.83594-43.0294 6.83594-35.2539Q6.83594-27.4784 9.77823-20.6661Q12.7205-13.8538 17.9188-8.63106Q23.1172-3.40832 29.9472-0.472727Q36.7772 2.46287 44.5527 2.46287ZM44.5527-0.513483Q37.4002-0.513483 31.1172-3.22049Q24.8342-5.9275 20.0373-10.7245Q15.2403-15.5214 12.5333-21.8114Q9.82627-28.1014 9.82627-35.2539Q9.82627-42.4064 12.5263-48.6964Q15.2263-54.9864 20.0233-59.7833Q24.8202-64.5803 31.1035-67.2873Q37.3868-69.9943 44.5393-69.9943Q51.7052-69.9943 57.9882-67.2873Q64.2712-64.5803 69.0752-59.7833Q73.8791-54.9864 76.5861-48.6964Q79.2931-42.4064 79.2931-35.2539Q79.2931-28.1014 76.5861-21.8114Q73.8791-15.5214 69.0821-10.7245Q64.2852-5.9275 58.0019-3.22049Q51.7186-0.513483 44.5527-0.513483Z"/>
  </g>
  <g id="Ultralight-S" transform="matrix(1 0 0 1 515.649 696)">
   <path d="M44.0605 1.56937Q47.5716 1.56937 50.8183-0.988388Q54.0649-3.54614 56.6578-8.34694Q59.2506-13.1477 60.7643-19.9295Q62.278-26.7113 62.278-35.1562Q62.278-43.6043 60.7662-50.388Q59.2545-57.1716 56.6597-61.974Q54.0649-66.7763 50.8202-69.3359Q47.5754-71.8956 44.0605-71.8956Q40.5495-71.8956 37.3028-69.3359Q34.0561-66.7763 31.4632-61.974Q28.8704-57.1716 27.3582-50.388Q25.8461-43.6043 25.8461-35.1562Q25.8461-26.7113 27.3582-19.9295Q28.8704-13.1477 31.4651-8.34694Q34.0599-3.54614 37.3047-0.988388Q40.5495 1.56937 44.0605 1.56937ZM44.0605-70.1607Q47.2488-70.1607 50.1251-67.4854Q53.0014-64.8102 55.2479-60.0262Q57.4944-55.2422 58.7765-48.8953Q60.0586-42.5484 60.0586-35.1562Q60.0586-28.1342 58.7765-21.8346Q57.4944-15.535 55.2479-10.6617Q53.0014-5.78842 50.1251-2.97699Q47.2488-0.165558 44.0605-0.165558Q40.8752-0.165558 37.9765-2.97699Q35.0777-5.78842 32.8537-10.6617Q30.6297-15.535 29.348-21.8346Q28.0663-28.1342 28.0663-35.1562Q28.0663-42.5484 29.348-48.8953Q30.6297-55.2422 32.8537-60.0262Q35.0777-64.8102 37.9765-67.4854Q40.8752-70.1607 44.0605-70.1607ZM42.9993-71.3127L42.9993 0.791168L45.1218 0.791168L45.1218-71.3127ZM44.0605-18.3479Q38.4247-18.3479 33.4167-17.4831Q28.4088-16.6183 24.4106-15.0562Q20.4124-13.4941 17.7269-11.4548L19.3031-10.1151Q23.3803-13.0066 29.636-14.5935Q35.8917-16.1804 44.0605-16.1804Q52.2331-16.1804 58.4885-14.5935Q64.7438-13.0066 68.8217-10.1151L70.3972-11.4548Q67.7116-13.4941 63.689-15.0562Q59.6664-16.6183 54.6829-17.4831Q49.6994-18.3479 44.0605-18.3479ZM80.0339-36.3152L8.08716-36.3152L8.08716-34.1927L80.0339-34.1927ZM44.0605-51.9646Q49.6994-51.9646 54.6829-52.8294Q59.6664-53.6942 63.689-55.2563Q67.7116-56.8184 70.3972-58.8577L68.8217-60.1974Q64.7438-57.3059 58.4885-55.719Q52.2331-54.1321 44.0605-54.1321Q35.8917-54.1321 29.636-55.719Q23.3803-57.3059 19.3031-60.1974L17.7269-58.8577Q20.4124-56.8184 24.4106-55.2563Q28.4088-53.6942 33.4167-52.8294Q38.4247-51.9646 44.0605-51.9646ZM44.0605 1.97067Q51.757 1.97067 58.4774-0.92392Q65.1978-3.81851 70.3468-8.9695Q75.4959-14.1205 78.3924-20.8405Q81.2889-27.5604 81.2889-35.2539Q81.2889-42.9474 78.3924-49.6674Q75.4959-56.3873 70.3453-61.5383Q65.1947-66.6893 58.4743-69.5839Q51.754-72.4785 44.0575-72.4785Q36.364-72.4785 29.6211-69.5839Q22.8783-66.6893 17.7532-61.5383Q12.6282-56.3873 9.73206-49.6674Q6.83594-42.9474 6.83594-35.2539Q6.83594-27.5604 9.73206-20.8405Q12.6282-14.1205 17.7547-8.9695Q22.8813-3.81851 29.6242-0.92392Q36.367 1.97067 44.0605 1.97067ZM44.0605-0.164795Q36.8156-0.164795 30.4661-2.8923Q24.1165-5.61981 19.2734-10.463Q14.4302-15.3061 11.7027-21.6576Q8.97522-28.009 8.97522-35.2539Q8.97522-42.4988 11.7008-48.8503Q14.4264-55.2017 19.2696-60.0449Q24.1127-64.888 30.4626-67.6155Q36.8126-70.343 44.0575-70.343Q51.3054-70.343 57.655-67.6155Q64.0045-64.888 68.8496-60.0449Q73.6946-55.2017 76.4221-48.8503Q79.1496-42.4988 79.1496-35.2539Q79.1496-28.009 76.4221-21.6576Q73.6946-15.3061 68.8515-10.463Q64.0083-5.61981 57.6584-2.8923Q51.3084-0.164795 44.0605-0.164795Z"/>
  </g>
 </g>
</svg>
