<?xml version="1.0" encoding="UTF-8"?>
<!--Generator: Apple Native CoreSVG 175.5-->
<!DOCTYPE svg
PUBLIC "-//W3C//DTD SVG 1.1//EN"
       "http://www.w3.org/Graphics/SVG/1.1/DTD/svg11.dtd">
<svg version="1.1" xmlns="http://www.w3.org/2000/svg" xmlns:xlink="http://www.w3.org/1999/xlink" width="15.9517" height="8.8042">
 <g>
  <rect height="8.8042" opacity="0" width="15.9517" x="0" y="0"/>
  <path d="M0.558594 8.54395L2.58984 8.54395C2.90088 8.54395 3.16113 8.28369 3.16113 7.979C3.16113 7.68066 2.89453 7.42041 2.58984 7.42041L0.558594 7.42041C0.260254 7.42041 0 7.68066 0 7.979C0 8.27734 0.260254 8.54395 0.558594 8.54395ZM4.50684 4.51953C4.72266 4.30371 4.71631 3.94824 4.50049 3.73242L3.07861 2.28516C2.86279 2.07568 2.49463 2.07568 2.28516 2.28516C2.06934 2.50098 2.06934 2.85645 2.28516 3.07861L3.71338 4.52588C3.92285 4.7417 4.29102 4.7417 4.50684 4.51953ZM7.979 3.14844C8.27734 3.14844 8.5376 2.89453 8.5376 2.59619L8.5376 0.564941C8.5376 0.260254 8.27734 0 7.979 0C7.67432 0 7.41406 0.260254 7.41406 0.564941L7.41406 2.59619C7.41406 2.89453 7.67432 3.14844 7.979 3.14844ZM11.4512 4.51953C11.6606 4.7417 12.0288 4.7417 12.2383 4.51953L13.6729 3.07861C13.8887 2.85645 13.8887 2.50098 13.6729 2.28516C13.457 2.06934 13.0889 2.07568 12.8794 2.2915L11.4512 3.73242C11.229 3.94824 11.229 4.30371 11.4512 4.51953ZM13.3618 8.54395L15.3994 8.54395C15.6978 8.54395 15.9517 8.27734 15.9517 7.979C15.9517 7.68066 15.6978 7.42041 15.3994 7.42041L13.3618 7.42041C13.0571 7.42041 12.7969 7.68066 12.7969 7.979C12.7969 8.28369 13.0508 8.54395 13.3618 8.54395ZM5.56055 8.55029L10.3975 8.55029C10.7085 8.55029 10.9688 8.29004 10.9688 7.9917C10.9688 7.68701 10.7148 7.42676 10.3975 7.42676L5.56055 7.42676C5.24316 7.42676 4.98291 7.68701 4.98291 7.9917C4.98291 8.29004 5.24951 8.55029 5.56055 8.55029Z" fill="#000000" fill-opacity="0.85"/>
 </g>
</svg>
