<?xml version="1.0" encoding="UTF-8"?>
<!--Generator: Apple Native CoreSVG 175.5-->
<!DOCTYPE svg
PUBLIC "-//W3C//DTD SVG 1.1//EN"
       "http://www.w3.org/Graphics/SVG/1.1/DTD/svg11.dtd">
<svg version="1.1" xmlns="http://www.w3.org/2000/svg" xmlns:xlink="http://www.w3.org/1999/xlink" width="17.875" height="11.5718">
 <g>
  <rect height="11.5718" opacity="0" width="17.875" x="0" y="0"/>
  <path d="M1.45996 5.52246L7.2998 5.52246C8.271 5.52246 8.75977 5.05273 8.75977 4.0752L8.75977 1.44092C8.75977 0.469727 8.271 0 7.2998 0L1.45996 0C0.48877 0 0 0.469727 0 1.44092L0 4.0752C0 5.05273 0.48877 5.52246 1.45996 5.52246ZM1.53613 4.56396C1.16162 4.56396 0.958496 4.36719 0.958496 3.97363L0.958496 1.54883C0.958496 1.14893 1.16162 0.958496 1.53613 0.958496L7.22363 0.958496C7.59814 0.958496 7.80127 1.14893 7.80127 1.54883L7.80127 3.97363C7.80127 4.36719 7.59814 4.56396 7.22363 4.56396ZM3.07861 11.54L8.08691 11.54C9.05811 11.54 9.54688 11.064 9.54688 10.0928L9.54688 8.30273C9.54688 7.33154 9.05811 6.86182 8.08691 6.86182L3.07861 6.86182C2.10742 6.86182 1.61865 7.33154 1.61865 8.30273L1.61865 10.0928C1.61865 11.064 2.10742 11.54 3.07861 11.54ZM3.15479 10.5815C2.78027 10.5815 2.57715 10.3848 2.57715 9.99121L2.57715 8.4043C2.57715 8.01074 2.78027 7.82031 3.15479 7.82031L8.00439 7.82031C8.38525 7.82031 8.58838 8.01074 8.58838 8.4043L8.58838 9.99121C8.58838 10.3848 8.38525 10.5815 8.00439 10.5815ZM12.27 10.7974L16.415 10.7974C17.3862 10.7974 17.875 10.3276 17.875 9.3501L17.875 2.29785C17.875 1.32666 17.3862 0.856934 16.415 0.856934L12.27 0.856934C11.2988 0.856934 10.8101 1.32666 10.8101 2.29785L10.8101 9.3501C10.8101 10.3276 11.2988 10.7974 12.27 10.7974ZM12.3398 9.83887C11.9717 9.83887 11.7686 9.64209 11.7686 9.24854L11.7686 2.40576C11.7686 2.00586 11.9717 1.81543 12.3398 1.81543L16.3325 1.81543C16.7134 1.81543 16.9165 2.00586 16.9165 2.40576L16.9165 9.24854C16.9165 9.64209 16.7134 9.83887 16.3325 9.83887Z" fill="#000000" fill-opacity="0.85"/>
 </g>
</svg>
