<?xml version="1.0" encoding="UTF-8"?>
<!--Generator: Apple Native CoreSVG 175.5-->
<!DOCTYPE svg
PUBLIC "-//W3C//DTD SVG 1.1//EN"
       "http://www.w3.org/Graphics/SVG/1.1/DTD/svg11.dtd">
<svg version="1.1" xmlns="http://www.w3.org/2000/svg" xmlns:xlink="http://www.w3.org/1999/xlink" width="13.0635" height="12.7651">
 <g>
  <rect height="12.7651" opacity="0" width="13.0635" x="0" y="0"/>
  <path d="M1.42822 12.4414L7.23633 12.4414C8.16943 12.4414 8.66455 11.9336 8.66455 10.9307L8.66455 6.55713C8.66455 5.56055 8.16943 5.05273 7.23633 5.05273L1.42822 5.05273C0.495117 5.05273 0 5.56055 0 6.55713L0 10.9307C0 11.9336 0.495117 12.4414 1.42822 12.4414ZM1.45996 11.4829C1.18701 11.4829 1.02832 11.3115 1.02832 11.0005L1.02832 6.4873C1.02832 6.17627 1.18701 6.01123 1.45996 6.01123L7.20459 6.01123C7.48389 6.01123 7.63623 6.17627 7.63623 6.4873L7.63623 11.0005C7.63623 11.3115 7.48389 11.4829 7.20459 11.4829ZM6.62061 5.54785L7.62354 5.54785L7.62354 3.40869C7.62354 1.80273 8.65186 0.958496 9.83887 0.958496C11.0259 0.958496 12.0542 1.80273 12.0542 3.40869L12.0542 4.81787C12.0542 5.19238 12.2764 5.38281 12.562 5.38281C12.835 5.38281 13.0635 5.21143 13.0635 4.81787L13.0635 3.54199C13.0635 1.15527 11.4956 0 9.83887 0C8.17578 0 6.62061 1.15527 6.62061 3.54199Z" fill="#000000" fill-opacity="0.85"/>
 </g>
</svg>
