<?xml version="1.0" encoding="UTF-8"?>
<!--Generator: Apple Native CoreSVG 175-->
<!DOCTYPE svg
PUBLIC "-//W3C//DTD SVG 1.1//EN"
       "http://www.w3.org/Graphics/SVG/1.1/DTD/svg11.dtd">
<svg version="1.1" xmlns="http://www.w3.org/2000/svg" xmlns:xlink="http://www.w3.org/1999/xlink" width="3300" height="2200">
 <!--glyph: "uni1001A8.medium", point size: 100.0, font version: "17.1d1e1", template writer version: "65.1"-->
 <g id="Notes">
  <rect height="2200" id="artboard" style="fill:white;opacity:1" width="3300" x="0" y="0"/>
  <line style="fill:none;stroke:black;opacity:1;stroke-width:0.5;" x1="263" x2="3036" y1="292" y2="292"/>
  <text style="stroke:none;fill:black;font-family:sans-serif;font-size:13;font-weight:bold;" transform="matrix(1 0 0 1 263 322)">Weight/Scale Variations</text>
  <text style="stroke:none;fill:black;font-family:sans-serif;font-size:13;text-anchor:middle;" transform="matrix(1 0 0 1 559.711 322)">Ultralight</text>
  <text style="stroke:none;fill:black;font-family:sans-serif;font-size:13;text-anchor:middle;" transform="matrix(1 0 0 1 856.422 322)">Thin</text>
  <text style="stroke:none;fill:black;font-family:sans-serif;font-size:13;text-anchor:middle;" transform="matrix(1 0 0 1 1153.13 322)">Light</text>
  <text style="stroke:none;fill:black;font-family:sans-serif;font-size:13;text-anchor:middle;" transform="matrix(1 0 0 1 1449.84 322)">Regular</text>
  <text style="stroke:none;fill:black;font-family:sans-serif;font-size:13;text-anchor:middle;" transform="matrix(1 0 0 1 1746.56 322)">Medium</text>
  <text style="stroke:none;fill:black;font-family:sans-serif;font-size:13;text-anchor:middle;" transform="matrix(1 0 0 1 2043.27 322)">Semibold</text>
  <text style="stroke:none;fill:black;font-family:sans-serif;font-size:13;text-anchor:middle;" transform="matrix(1 0 0 1 2339.98 322)">Bold</text>
  <text style="stroke:none;fill:black;font-family:sans-serif;font-size:13;text-anchor:middle;" transform="matrix(1 0 0 1 2636.69 322)">Heavy</text>
  <text style="stroke:none;fill:black;font-family:sans-serif;font-size:13;text-anchor:middle;" transform="matrix(1 0 0 1 2933.4 322)">Black</text>
  <line style="fill:none;stroke:black;opacity:1;stroke-width:0.5;" x1="263" x2="3036" y1="1903" y2="1903"/>
  <g transform="matrix(1 0 0 1 263 1933)">
   <path d="M9.24805 0.830078Q10.8691 0.830078 12.2949 0.214844Q13.7207-0.400391 14.8096-1.49414Q15.8984-2.58789 16.5186-4.01367Q17.1387-5.43945 17.1387-7.05078Q17.1387-8.66211 16.5186-10.0879Q15.8984-11.5137 14.8047-12.6074Q13.7109-13.7012 12.2852-14.3164Q10.8594-14.9316 9.23828-14.9316Q7.62695-14.9316 6.20117-14.3164Q4.77539-13.7012 3.69141-12.6074Q2.60742-11.5137 1.9873-10.0879Q1.36719-8.66211 1.36719-7.05078Q1.36719-5.43945 1.9873-4.01367Q2.60742-2.58789 3.69629-1.49414Q4.78516-0.400391 6.21094 0.214844Q7.63672 0.830078 9.24805 0.830078ZM9.24805-0.654297Q7.91992-0.654297 6.7627-1.14746Q5.60547-1.64062 4.73145-2.51953Q3.85742-3.39844 3.36426-4.56055Q2.87109-5.72266 2.87109-7.05078Q2.87109-8.37891 3.35938-9.54102Q3.84766-10.7031 4.72168-11.582Q5.5957-12.4609 6.75293-12.9541Q7.91016-13.4473 9.23828-13.4473Q10.5762-13.4473 11.7334-12.9541Q12.8906-12.4609 13.7695-11.582Q14.6484-10.7031 15.1465-9.54102Q15.6445-8.37891 15.6445-7.05078Q15.6445-5.72266 15.1514-4.56055Q14.6582-3.39844 13.7842-2.51953Q12.9102-1.64062 11.748-1.14746Q10.5859-0.654297 9.24805-0.654297ZM5.6543-7.05078Q5.6543-6.72852 5.85938-6.52832Q6.06445-6.32812 6.40625-6.32812L8.51562-6.32812L8.51562-4.20898Q8.51562-3.88672 8.71094-3.67676Q8.90625-3.4668 9.23828-3.4668Q9.56055-3.4668 9.77051-3.67676Q9.98047-3.88672 9.98047-4.20898L9.98047-6.32812L12.0898-6.32812Q12.4219-6.32812 12.627-6.52832Q12.832-6.72852 12.832-7.05078Q12.832-7.38281 12.627-7.58789Q12.4219-7.79297 12.0898-7.79297L9.98047-7.79297L9.98047-9.90234Q9.98047-10.2344 9.77051-10.4443Q9.56055-10.6543 9.23828-10.6543Q8.90625-10.6543 8.71094-10.4443Q8.51562-10.2344 8.51562-9.90234L8.51562-7.79297L6.40625-7.79297Q6.06445-7.79297 5.85938-7.58789Q5.6543-7.38281 5.6543-7.05078Z"/>
  </g>
  <g transform="matrix(1 0 0 1 281.867 1933)">
   <path d="M11.709 2.91016Q13.75 2.91016 15.5518 2.12891Q17.3535 1.34766 18.7305-0.0292969Q20.1074-1.40625 20.8887-3.20801Q21.6699-5.00977 21.6699-7.05078Q21.6699-9.0918 20.8887-10.8936Q20.1074-12.6953 18.7305-14.0723Q17.3535-15.4492 15.5469-16.2305Q13.7402-17.0117 11.6992-17.0117Q9.6582-17.0117 7.85645-16.2305Q6.05469-15.4492 4.68262-14.0723Q3.31055-12.6953 2.5293-10.8936Q1.74805-9.0918 1.74805-7.05078Q1.74805-5.00977 2.5293-3.20801Q3.31055-1.40625 4.6875-0.0292969Q6.06445 1.34766 7.86621 2.12891Q9.66797 2.91016 11.709 2.91016ZM11.709 1.25Q9.98047 1.25 8.47656 0.605469Q6.97266-0.0390625 5.83496-1.17676Q4.69727-2.31445 4.05762-3.81836Q3.41797-5.32227 3.41797-7.05078Q3.41797-8.7793 4.05762-10.2832Q4.69727-11.7871 5.83008-12.9297Q6.96289-14.0723 8.4668-14.7119Q9.9707-15.3516 11.6992-15.3516Q13.4277-15.3516 14.9316-14.7119Q16.4355-14.0723 17.5781-12.9297Q18.7207-11.7871 19.3652-10.2832Q20.0098-8.7793 20.0098-7.05078Q20.0098-5.32227 19.3701-3.81836Q18.7305-2.31445 17.5928-1.17676Q16.4551-0.0390625 14.9463 0.605469Q13.4375 1.25 11.709 1.25ZM7.17773-7.05078Q7.17773-6.69922 7.41211-6.47461Q7.64648-6.25 8.01758-6.25L10.8887-6.25L10.8887-3.36914Q10.8887-2.99805 11.1133-2.76855Q11.3379-2.53906 11.6895-2.53906Q12.0605-2.53906 12.29-2.76855Q12.5195-2.99805 12.5195-3.36914L12.5195-6.25L15.4004-6.25Q15.7715-6.25 16.001-6.47461Q16.2305-6.69922 16.2305-7.05078Q16.2305-7.42188 16.001-7.65137Q15.7715-7.88086 15.4004-7.88086L12.5195-7.88086L12.5195-10.752Q12.5195-11.1328 12.29-11.3623Q12.0605-11.5918 11.6895-11.5918Q11.3379-11.5918 11.1133-11.3574Q10.8887-11.123 10.8887-10.752L10.8887-7.88086L8.01758-7.88086Q7.63672-7.88086 7.40723-7.65137Q7.17773-7.42188 7.17773-7.05078Z"/>
  </g>
  <g transform="matrix(1 0 0 1 305.646 1933)">
   <path d="M14.9707 5.66406Q17.0605 5.66406 18.96 5.01465Q20.8594 4.36523 22.4512 3.19336Q24.043 2.02148 25.2197 0.429688Q26.3965-1.16211 27.0459-3.06641Q27.6953-4.9707 27.6953-7.05078Q27.6953-9.14062 27.0459-11.04Q26.3965-12.9395 25.2197-14.5312Q24.043-16.123 22.4512-17.2998Q20.8594-18.4766 18.9551-19.126Q17.0508-19.7754 14.9609-19.7754Q12.8711-19.7754 10.9717-19.126Q9.07227-18.4766 7.48535-17.2998Q5.89844-16.123 4.72168-14.5312Q3.54492-12.9395 2.90039-11.04Q2.25586-9.14062 2.25586-7.05078Q2.25586-4.9707 2.90527-3.06641Q3.55469-1.16211 4.72656 0.429688Q5.89844 2.02148 7.49023 3.19336Q9.08203 4.36523 10.9814 5.01465Q12.8809 5.66406 14.9707 5.66406ZM14.9707 3.84766Q13.1641 3.84766 11.5283 3.2959Q9.89258 2.74414 8.53516 1.74805Q7.17773 0.751953 6.17676-0.610352Q5.17578-1.97266 4.62891-3.6084Q4.08203-5.24414 4.08203-7.05078Q4.08203-8.86719 4.62891-10.5029Q5.17578-12.1387 6.17188-13.501Q7.16797-14.8633 8.52539-15.8594Q9.88281-16.8555 11.5186-17.4023Q13.1543-17.9492 14.9609-17.9492Q16.7773-17.9492 18.4131-17.4023Q20.0488-16.8555 21.4111-15.8594Q22.7734-14.8633 23.7695-13.501Q24.7656-12.1387 25.3174-10.5029Q25.8691-8.86719 25.8691-7.05078Q25.8789-5.24414 25.332-3.6084Q24.7852-1.97266 23.7842-0.610352Q22.7832 0.751953 21.4209 1.74805Q20.0586 2.74414 18.4229 3.2959Q16.7871 3.84766 14.9707 3.84766ZM9.19922-7.05078Q9.19922-6.66992 9.45801-6.4209Q9.7168-6.17188 10.1172-6.17188L14.0625-6.17188L14.0625-2.2168Q14.0625-1.81641 14.3115-1.55762Q14.5605-1.29883 14.9512-1.29883Q15.3516-1.29883 15.6104-1.55273Q15.8691-1.80664 15.8691-2.2168L15.8691-6.17188L19.8242-6.17188Q20.2246-6.17188 20.4785-6.4209Q20.7324-6.66992 20.7324-7.05078Q20.7324-7.46094 20.4785-7.71484Q20.2246-7.96875 19.8242-7.96875L15.8691-7.96875L15.8691-11.9141Q15.8691-12.3242 15.6104-12.583Q15.3516-12.8418 14.9512-12.8418Q14.5605-12.8418 14.3115-12.583Q14.0625-12.3242 14.0625-11.9141L14.0625-7.96875L10.1172-7.96875Q9.70703-7.96875 9.45312-7.71484Q9.19922-7.46094 9.19922-7.05078Z"/>
  </g>
  <text style="stroke:none;fill:black;font-family:sans-serif;font-size:13;font-weight:bold;" transform="matrix(1 0 0 1 263 1953)">Design Variations</text>
  <text style="stroke:none;fill:black;font-family:sans-serif;font-size:13;" transform="matrix(1 0 0 1 263 1971)">Symbols are supported in up to nine weights and three scales.</text>
  <text style="stroke:none;fill:black;font-family:sans-serif;font-size:13;" transform="matrix(1 0 0 1 263 1989)">For optimal layout with text and other symbols, vertically align</text>
  <text style="stroke:none;fill:black;font-family:sans-serif;font-size:13;" transform="matrix(1 0 0 1 263 2007)">symbols with the adjacent text.</text>
  <line style="fill:none;stroke:#00AEEF;stroke-width:0.5;opacity:1.0;" x1="776" x2="776" y1="1919" y2="1933"/>
  <g transform="matrix(1 0 0 1 776 1933)">
   <path d="M3.31055 0.15625Q3.70117 0.15625 3.91602-0.00976562Q4.13086-0.175781 4.26758-0.585938L5.52734-4.0332L11.2891-4.0332L12.5488-0.585938Q12.6855-0.175781 12.9004-0.00976562Q13.1152 0.15625 13.4961 0.15625Q13.8867 0.15625 14.1162-0.0585938Q14.3457-0.273438 14.3457-0.644531Q14.3457-0.869141 14.2383-1.17188L9.6582-13.3691Q9.48242-13.8184 9.17969-14.043Q8.87695-14.2676 8.4082-14.2676Q7.5-14.2676 7.17773-13.3789L2.59766-1.16211Q2.49023-0.859375 2.49023-0.634766Q2.49023-0.263672 2.70996-0.0537109Q2.92969 0.15625 3.31055 0.15625ZM6.00586-5.51758L8.37891-12.0898L8.42773-12.0898L10.8008-5.51758Z"/>
  </g>
  <line style="fill:none;stroke:#00AEEF;stroke-width:0.5;opacity:1.0;" x1="793.197" x2="793.197" y1="1919" y2="1933"/>
  <text style="stroke:none;fill:black;font-family:sans-serif;font-size:13;font-weight:bold;" transform="matrix(1 0 0 1 776 1953)">Margins</text>
  <text style="stroke:none;fill:black;font-family:sans-serif;font-size:13;" transform="matrix(1 0 0 1 776 1971)">Leading and trailing margins on the left and right side of each symbol</text>
  <text style="stroke:none;fill:black;font-family:sans-serif;font-size:13;" transform="matrix(1 0 0 1 776 1989)">can be adjusted by modifying the x-location of the margin guidelines.</text>
  <text style="stroke:none;fill:black;font-family:sans-serif;font-size:13;" transform="matrix(1 0 0 1 776 2007)">Modifications are automatically applied proportionally to all</text>
  <text style="stroke:none;fill:black;font-family:sans-serif;font-size:13;" transform="matrix(1 0 0 1 776 2025)">scales and weights.</text>
  <g transform="matrix(1 0 0 1 1289 1933)">
   <path d="M2.8418 1.86523L4.54102 3.57422Q5.18555 4.22852 5.90332 4.17969Q6.62109 4.13086 7.31445 3.35938L18.0078-8.42773L17.041-9.4043L6.42578 2.27539Q6.16211 2.57812 5.89355 2.61719Q5.625 2.65625 5.27344 2.30469L4.10156 1.14258Q3.75 0.791016 3.79395 0.522461Q3.83789 0.253906 4.14062-0.0195312L15.6152-10.8203L14.6387-11.7871L3.04688-0.898438Q2.30469-0.214844 2.25098 0.498047Q2.19727 1.21094 2.8418 1.86523ZM9.25781-16.3281Q8.94531-16.0254 8.90625-15.6348Q8.86719-15.2441 9.04297-14.9512Q9.21875-14.6777 9.55566-14.541Q9.89258-14.4043 10.3809-14.5215Q11.4746-14.7754 12.5977-14.7314Q13.7207-14.6875 14.7949-13.9844L14.209-12.5293Q13.9551-11.9043 14.0674-11.4404Q14.1797-10.9766 14.5801-10.5664L16.875-8.25195Q17.2363-7.88086 17.5781-7.82227Q17.9199-7.76367 18.3398-7.8418L19.4043-8.03711L20.0684-7.36328L20.0293-6.80664Q20-6.43555 20.1221-6.12305Q20.2441-5.81055 20.6055-5.44922L21.3672-4.70703Q21.7285-4.3457 22.1533-4.33105Q22.5781-4.31641 22.9297-4.66797L25.8398-7.58789Q26.1914-7.93945 26.1816-8.35449Q26.1719-8.76953 25.8105-9.13086L25.0391-9.89258Q24.6875-10.2539 24.3799-10.3857Q24.0723-10.5176 23.7109-10.4883L23.1348-10.4395L22.4902-11.0742L22.7344-12.1973Q22.832-12.6172 22.6953-12.9834Q22.5586-13.3496 22.1191-13.7891L19.9219-15.9766Q18.6719-17.2168 17.2607-17.8369Q15.8496-18.457 14.4189-18.4814Q12.9883-18.5059 11.665-17.959Q10.3418-17.4121 9.25781-16.3281ZM10.752-15.957Q11.6602-16.6211 12.7002-16.9043Q13.7402-17.1875 14.8047-17.085Q15.8691-16.9824 16.8701-16.5137Q17.8711-16.0449 18.7012-15.2051L21.1328-12.793Q21.3086-12.6172 21.3525-12.4512Q21.3965-12.2852 21.3379-12.0312L21.0156-10.5469L22.5195-9.0625L23.5059-9.12109Q23.6914-9.13086 23.7891-9.09668Q23.8867-9.0625 24.0332-8.91602L24.6094-8.33984L22.168-5.89844L21.5918-6.47461Q21.4453-6.62109 21.4062-6.71875Q21.3672-6.81641 21.377-7.01172L21.4453-7.98828L19.9512-9.47266L18.4277-9.21875Q18.1836-9.16992 18.042-9.2041Q17.9004-9.23828 17.7148-9.41406L15.7129-11.416Q15.5176-11.5918 15.4932-11.7529Q15.4688-11.9141 15.5859-12.1875L16.4648-14.2773Q15.293-15.3711 13.8281-15.791Q12.3633-16.2109 10.8398-15.7617Q10.7227-15.7324 10.6885-15.8057Q10.6543-15.8789 10.752-15.957Z"/>
  </g>
  <text style="stroke:none;fill:black;font-family:sans-serif;font-size:13;font-weight:bold;" transform="matrix(1 0 0 1 1289 1953)">Exporting</text>
  <text style="stroke:none;fill:black;font-family:sans-serif;font-size:13;" transform="matrix(1 0 0 1 1289 1971)">Symbols should be outlined when exporting to ensure the</text>
  <text style="stroke:none;fill:black;font-family:sans-serif;font-size:13;" transform="matrix(1 0 0 1 1289 1989)">design is preserved when submitting to Xcode.</text>
  <text id="template-version" style="stroke:none;fill:black;font-family:sans-serif;font-size:13;text-anchor:end;" transform="matrix(1 0 0 1 3036 1933)">Template v.2.0</text>
  <text style="stroke:none;fill:black;font-family:sans-serif;font-size:13;text-anchor:end;" transform="matrix(1 0 0 1 3036 1951)">Requires Xcode 12 or greater</text>
  <text id="descriptive-name" style="stroke:none;fill:black;font-family:sans-serif;font-size:13;text-anchor:end;" transform="matrix(1 0 0 1 3036 1969)">Generated from power</text>
  <text style="stroke:none;fill:black;font-family:sans-serif;font-size:13;text-anchor:end;" transform="matrix(1 0 0 1 3036 1987)">Typeset at 100 points</text>
  <text style="stroke:none;fill:black;font-family:sans-serif;font-size:13;" transform="matrix(1 0 0 1 263 726)">Small</text>
  <text style="stroke:none;fill:black;font-family:sans-serif;font-size:13;" transform="matrix(1 0 0 1 263 1156)">Medium</text>
  <text style="stroke:none;fill:black;font-family:sans-serif;font-size:13;" transform="matrix(1 0 0 1 263 1586)">Large</text>
 </g>
 <g id="Guides">
  <g id="H-reference" style="fill:#27AAE1;stroke:none;" transform="matrix(1 0 0 1 339 696)">
   <path d="M0.976562 0L3.66211 0L29.3457-67.1387L30.0293-67.1387L30.0293-70.459L28.125-70.459ZM11.6699-24.4629L46.9727-24.4629L46.2402-26.709L12.4512-26.709ZM55.127 0L57.7637 0L30.6152-70.459L29.4434-70.459L29.4434-67.1387Z"/>
  </g>
  <line id="Baseline-S" style="fill:none;stroke:#27AAE1;opacity:1;stroke-width:0.5;" x1="263" x2="3036" y1="696" y2="696"/>
  <line id="Capline-S" style="fill:none;stroke:#27AAE1;opacity:1;stroke-width:0.5;" x1="263" x2="3036" y1="625.541" y2="625.541"/>
  <g id="H-reference" style="fill:#27AAE1;stroke:none;" transform="matrix(1 0 0 1 339 1126)">
   <path d="M0.976562 0L3.66211 0L29.3457-67.1387L30.0293-67.1387L30.0293-70.459L28.125-70.459ZM11.6699-24.4629L46.9727-24.4629L46.2402-26.709L12.4512-26.709ZM55.127 0L57.7637 0L30.6152-70.459L29.4434-70.459L29.4434-67.1387Z"/>
  </g>
  <line id="Baseline-M" style="fill:none;stroke:#27AAE1;opacity:1;stroke-width:0.5;" x1="263" x2="3036" y1="1126" y2="1126"/>
  <line id="Capline-M" style="fill:none;stroke:#27AAE1;opacity:1;stroke-width:0.5;" x1="263" x2="3036" y1="1055.54" y2="1055.54"/>
  <g id="H-reference" style="fill:#27AAE1;stroke:none;" transform="matrix(1 0 0 1 339 1556)">
   <path d="M0.976562 0L3.66211 0L29.3457-67.1387L30.0293-67.1387L30.0293-70.459L28.125-70.459ZM11.6699-24.4629L46.9727-24.4629L46.2402-26.709L12.4512-26.709ZM55.127 0L57.7637 0L30.6152-70.459L29.4434-70.459L29.4434-67.1387Z"/>
  </g>
  <line id="Baseline-L" style="fill:none;stroke:#27AAE1;opacity:1;stroke-width:0.5;" x1="263" x2="3036" y1="1556" y2="1556"/>
  <line id="Capline-L" style="fill:none;stroke:#27AAE1;opacity:1;stroke-width:0.5;" x1="263" x2="3036" y1="1485.54" y2="1485.54"/>
  <line id="left-margin" style="fill:none;stroke:#00AEEF;stroke-width:0.5;opacity:1.0;" x1="1391.32" x2="1391.32" y1="1030.79" y2="1150.12"/>
  <line id="right-margin" style="fill:none;stroke:#00AEEF;stroke-width:0.5;opacity:1.0;" x1="1508.37" x2="1508.37" y1="1030.79" y2="1150.12"/>
 </g>
 <g id="Symbols">
  <g id="Black-L" transform="matrix(1 0 0 1 2854.19 1556)">
   <path d="M79.1953 32.7252Q93.2356 32.7252 105.521 27.4303Q117.806 22.1354 127.174 12.7571Q136.542 3.37874 141.848-8.90649Q147.154-21.1917 147.154-35.2113Q147.154-44.2919 144.882-52.6086Q142.609-60.9254 138.552-68.1411Q134.494-75.3568 129.09-80.994Q126.13-84.1444 122.819-84.7998Q119.508-85.4552 116.632-84.2187Q113.756-82.9823 112.103-80.4172Q110.451-77.8521 110.76-74.5311Q111.068-71.2102 114.204-67.708Q120.126-61.3529 123.545-53.0144Q126.965-44.676 126.986-35.2113Q126.986-25.3101 123.268-16.6312Q119.551-7.95243 113.014-1.40458Q106.476 5.14327 97.7974 8.86047Q89.1186 12.5777 79.1953 12.5777Q69.2941 12.5777 60.6256 8.86047Q51.9572 5.14327 45.4197-1.40458Q38.8822-7.95243 35.1644-16.6312Q31.4465-25.3101 31.4465-35.2113Q31.4465-44.6967 34.8668-53.0352Q38.2871-61.3736 44.2082-67.7301Q47.3443-71.2516 47.6524-74.5622Q47.9605-77.8728 46.3074-80.438Q44.6543-83.0031 41.7789-84.2395Q38.9036-85.4759 35.5826-84.8205Q32.2617-84.1652 29.3216-81.0147Q23.8962-75.3788 19.8497-68.1631Q15.8032-60.9474 13.531-52.6196Q11.2588-44.2919 11.2588-35.2113Q11.2588-21.1917 16.5647-8.90649Q21.8707 3.37874 31.238 12.7571Q40.6053 22.1354 52.8912 27.4303Q65.177 32.7252 79.1953 32.7252ZM79.1953-32.3204Q84.2143-32.3204 87.2551-35.5383Q90.2959-38.7563 90.2959-44.088L90.2959-95.6286Q90.2959-100.96 87.2551-104.189Q84.2143-107.417 79.1953-107.417Q74.1984-107.417 71.1472-104.189Q68.096-100.96 68.096-95.6286L68.096-44.088Q68.096-38.7563 71.1472-35.5383Q74.1984-32.3204 79.1953-32.3204Z"/>
  </g>
  <g id="Heavy-L" transform="matrix(1 0 0 1 2558.42 1556)">
   <path d="M78.2511 31.7672Q92.088 31.7672 104.202 26.5464Q116.316 21.3256 125.559 12.0677Q134.802 2.8099 140.04-9.30402Q145.279-21.4179 145.279-35.2251Q145.279-44.4691 142.891-52.869Q140.503-61.2689 136.277-68.4975Q132.051-75.726 126.505-81.3248Q123.874-84.0684 120.969-84.5995Q118.065-85.1306 115.556-84.0056Q113.048-82.8806 111.624-80.6026Q110.2-78.3245 110.495-75.4082Q110.789-72.4918 113.56-69.4745Q120.018-62.8694 123.748-54.0709Q127.478-45.2724 127.507-35.2251Q127.507-25.0188 123.684-16.074Q119.86-7.12933 113.121-0.375708Q106.383 6.37791 97.4379 10.2016Q88.4932 14.0252 78.2511 14.0252Q68.0447 14.0252 59.1149 10.2016Q50.1851 6.37791 43.4463-0.375708Q36.7076-7.12933 32.8809-16.074Q29.0543-25.0188 29.0543-35.2251Q29.0543-45.3022 32.787-54.1006Q36.5197-62.8991 42.9779-69.5103Q45.7485-72.5514 46.0402-75.4528Q46.3319-78.3542 44.905-80.6323Q43.4781-82.9104 40.9725-84.0354Q38.4669-85.1604 35.5506-84.6293Q32.6343-84.0982 30.0273-81.3546Q24.4513-75.7618 20.2432-68.5333Q16.0351-61.3047 13.6469-52.8869Q11.2588-44.4691 11.2588-35.2251Q11.2588-21.4179 16.4975-9.30402Q21.7362 2.8099 30.9761 12.0677Q40.2161 21.3256 52.333 26.5464Q64.45 31.7672 78.2511 31.7672ZM78.2511-33.1859Q82.5956-33.1859 85.2232-35.9697Q87.8508-38.7535 87.8508-43.3509L87.8508-96.1685Q87.8508-100.766 85.2232-103.565Q82.5956-106.363 78.2511-106.363Q73.9423-106.363 71.2998-103.565Q68.6573-100.766 68.6573-96.1685L68.6573-43.3509Q68.6573-38.7535 71.2998-35.9697Q73.9423-33.1859 78.2511-33.1859Z"/>
  </g>
  <g id="Bold-L" transform="matrix(1 0 0 1 2262.89 1556)">
   <path d="M77.0653 30.566Q90.6516 30.566 102.549 25.4396Q114.447 20.3133 123.533 11.2089Q132.619 2.10448 137.771-9.79333Q142.923-21.6912 142.923-35.2405Q142.923-44.7163 140.385-53.2178Q137.847-61.7194 133.418-68.9451Q128.989-76.1708 123.299-81.6949Q121.085-83.9374 118.682-84.3251Q116.278-84.7129 114.22-83.7341Q112.161-82.7554 111.014-80.8387Q109.868-78.922 110.142-76.5072Q110.417-74.0925 112.733-71.6606Q119.866-64.7413 123.985-55.375Q128.103-46.0086 128.14-35.2405Q128.14-24.6583 124.183-15.3845Q120.226-6.11072 113.236 0.897553Q106.246 7.90583 96.9725 11.8629Q87.6986 15.8201 77.0653 15.8201Q66.4831 15.8201 57.2278 11.8629Q47.9725 7.90583 40.9827 0.897553Q33.9929-6.11072 30.0287-15.3845Q26.0645-24.6583 26.0645-35.2405Q26.0645-46.0456 30.1899-55.412Q34.3153-64.7783 41.449-71.7118Q43.7647-74.1665 44.0323-76.5627Q44.3-78.959 43.1463-80.8756Q41.9926-82.7923 39.9409-83.7711Q37.8892-84.7498 35.4745-84.3621Q33.0598-83.9744 30.8686-81.7319Q25.1413-76.222 20.7381-68.9963Q16.3348-61.7707 13.7968-53.2435Q11.2588-44.7163 11.2588-35.2405Q11.2588-21.6912 16.4108-9.79333Q21.5627 2.10448 30.6415 11.2089Q39.7203 20.3133 51.6252 25.4396Q63.5301 30.566 77.0653 30.566ZM77.0653-34.1857Q80.5893-34.1857 82.7172-36.4421Q84.8451-38.6986 84.8451-42.4056L84.8451-96.8156Q84.8451-100.523 82.7172-102.798Q80.5893-105.072 77.0653-105.072Q73.5925-105.072 71.4461-102.798Q69.2996-100.523 69.2996-96.8156L69.2996-42.4056Q69.2996-38.6986 71.4461-36.4421Q73.5925-34.1857 77.0653-34.1857Z"/>
  </g>
  <g id="Semibold-L" transform="matrix(1 0 0 1 1966.99 1556)">
   <path d="M76.2478 29.7379Q89.6614 29.7379 101.41 24.6766Q113.159 19.6153 122.137 10.6168Q131.114 1.61818 136.206-10.1307Q141.299-21.8795 141.299-35.2511Q141.299-44.8867 138.657-53.4583Q136.016-62.03 131.447-69.2537Q126.879-76.4774 121.089-81.95Q119.162-83.8471 117.104-84.136Q115.047-84.4249 113.298-83.5469Q111.549-82.669 110.594-81.0014Q109.638-79.3339 109.899-77.2649Q110.16-75.196 112.162-73.1677Q119.762-66.0318 124.148-56.274Q128.534-46.5162 128.576-35.2511Q128.576-24.4099 124.527-14.9092Q120.478-5.4085 113.315 1.77533Q106.152 8.95916 96.6516 13.0083Q87.1509 17.0574 76.2478 17.0574Q65.4065 17.0574 55.9268 13.0083Q46.4471 8.95916 39.2843 1.77533Q32.1214-5.4085 28.0624-14.9092Q24.0033-24.4099 24.0033-35.2511Q24.0033-46.5582 28.3995-56.316Q32.7956-66.0738 40.395-73.2295Q42.3972-75.28 42.6482-77.3279Q42.8992-79.3758 41.9338-81.0434Q40.9685-82.711 39.2297-83.5889Q37.4909-84.4668 35.422-84.1779Q33.3531-83.889 31.4486-81.992Q25.617-76.5392 21.0792-69.3155Q16.5414-62.0919 13.9001-53.4893Q11.2588-44.8867 11.2588-35.2511Q11.2588-21.8795 16.351-10.1307Q21.4432 1.61818 30.4108 10.6168Q39.3785 19.6153 51.1372 24.6766Q62.896 29.7379 76.2478 29.7379ZM76.2478-34.875Q79.2061-34.875 80.9895-36.7679Q82.773-38.6607 82.773-41.7538L82.773-97.2617Q82.773-100.355 80.9895-102.269Q79.2061-104.183 76.2478-104.183Q73.3513-104.183 71.5469-102.269Q69.7424-100.355 69.7424-97.2617L69.7424-41.7538Q69.7424-38.6607 71.5469-36.7679Q73.3513-34.875 76.2478-34.875Z"/>
  </g>
  <g id="Medium-L" transform="matrix(1 0 0 1 1670.89 1556)">
   <path d="M75.6279 29.11Q88.9106 29.11 100.546 24.0981Q112.182 19.0862 121.078 10.1678Q129.973 1.24944 135.02-10.3864Q140.067-22.0223 140.067-35.2592Q140.067-45.0159 137.347-53.6407Q134.628-62.2655 129.953-69.4877Q125.278-76.7099 119.413-82.1435Q117.705-83.7785 115.909-83.9925Q114.113-84.2065 112.599-83.405Q111.085-82.6035 110.275-81.1248Q109.465-79.6462 109.715-77.8394Q109.966-76.0327 111.73-74.3104Q119.682-67.0104 124.272-56.9557Q128.861-46.9011 128.907-35.2592Q128.907-24.2215 124.788-14.5488Q120.669-4.87605 113.375 2.4409Q106.081 9.75784 96.4083 13.8767Q86.7356 17.9956 75.6279 17.9956Q64.5902 17.9956 54.9404 13.8767Q45.2905 9.75784 37.9965 2.4409Q30.7024-4.87605 26.5714-14.5488Q22.4405-24.2215 22.4405-35.2592Q22.4405-46.9468 27.0419-57.0015Q31.6433-67.0561 39.5958-74.3803Q41.3602-76.1242 41.5986-77.9081Q41.837-79.6919 41.0145-81.1706Q40.192-82.6493 38.6905-83.4507Q37.1889-84.2522 35.3822-84.0383Q33.5755-83.8243 31.8884-82.1892Q25.9777-76.7798 21.3379-69.5576Q16.6981-62.3354 13.9784-53.6756Q11.2588-45.0159 11.2588-35.2592Q11.2588-22.0223 16.3056-10.3864Q21.3525 1.24944 30.2359 10.1678Q39.1193 19.0862 50.7673 24.0981Q62.4152 29.11 75.6279 29.11ZM75.6279-35.3976Q78.1573-35.3976 79.6796-37.0148Q81.2018-38.632 81.2018-41.2597L81.2018-97.6Q81.2018-100.228 79.6796-101.868Q78.1573-103.508 75.6279-103.508Q73.1685-103.508 71.6233-101.868Q70.0782-100.228 70.0782-97.6L70.0782-41.2597Q70.0782-38.632 71.6233-37.0148Q73.1685-35.3976 75.6279-35.3976Z"/>
  </g>
  <g id="Regular-L" transform="matrix(1 0 0 1 1374.98 1556)">
   <path d="M74.8194 28.2909Q87.9312 28.2909 99.4198 23.3434Q110.908 18.3959 119.697 9.58221Q128.485 0.768476 133.473-10.7201Q138.46-22.2086 138.46-35.2697Q138.46-45.1844 135.639-53.8785Q132.817-62.5727 128.004-69.7929Q123.191-77.0131 117.228-82.3958Q115.803-83.6892 114.349-83.8054Q112.894-83.9217 111.688-83.2199Q110.481-82.5181 109.859-81.2858Q109.238-80.0535 109.475-78.5888Q109.712-77.1241 111.166-75.8009Q119.579-68.2867 124.433-57.8449Q129.288-47.4031 129.338-35.2697Q129.338-23.9757 125.128-14.0786Q120.918-4.18154 113.453 3.30903Q105.988 10.7996 96.0909 15.0095Q86.1938 19.2194 74.8194 19.2194Q63.5255 19.2194 53.6537 15.0095Q43.7819 10.7996 36.3167 3.30903Q28.8515-4.18154 24.6267-14.0786Q20.402-23.9757 20.402-35.2697Q20.402-47.4537 25.2711-57.8956Q30.1403-68.3374 38.5534-75.8813Q40.0077-77.2254 40.2296-78.6648Q40.4516-80.1042 39.8154-81.3365Q39.1792-82.5688 37.9871-83.2706Q36.795-83.9723 35.3303-83.8561Q33.8656-83.7399 32.462-82.4465Q26.4481-77.0935 21.6753-69.8733Q16.9024-62.6531 14.0806-53.9187Q11.2588-45.1844 11.2588-35.2697Q11.2588-22.2086 16.2465-10.7201Q21.2342 0.768476 30.0077 9.58221Q38.7813 18.3959 50.2847 23.3434Q61.7881 28.2909 74.8194 28.2909ZM74.8194-36.0793Q76.7893-36.0793 77.9709-37.337Q79.1525-38.5946 79.1525-40.6151L79.1525-98.0412Q79.1525-100.062 77.9709-101.345Q76.7893-102.628 74.8194-102.628Q72.93-102.628 71.7231-101.345Q70.5161-100.062 70.5161-98.0412L70.5161-40.6151Q70.5161-38.5946 71.7231-37.337Q72.93-36.0793 74.8194-36.0793Z"/>
  </g>
  <g id="Light-L" transform="matrix(1 0 0 1 1079.2 1556)">
   <path d="M73.8959 27.3674Q86.8436 27.3674 98.1577 22.502Q109.472 17.6366 118.137 8.95629Q126.802 0.275949 131.708-11.0381Q136.614-22.3522 136.614-35.2697Q136.614-45.5333 133.648-54.289Q130.683-63.0447 125.767-70.1418Q120.851-77.2388 114.991-82.3958Q113.915-83.3608 112.789-83.4463Q111.663-83.5317 110.733-82.9839Q109.803-82.436 109.336-81.491Q108.869-80.5461 109.075-79.4302Q109.281-78.3144 110.407-77.299Q119.353-69.5385 124.505-58.7171Q129.657-47.8956 129.687-35.2697Q129.687-23.7295 125.375-13.6066Q121.062-3.48379 113.412 4.18122Q105.762 11.8462 95.6394 16.1587Q85.5166 20.4712 73.8959 20.4712Q62.3557 20.4712 52.2479 16.1587Q42.1402 11.8462 34.4903 4.18122Q26.8403-3.48379 22.5027-13.6066Q18.1651-23.7295 18.1651-35.2697Q18.1651-47.9257 23.3421-58.7472Q28.5191-69.5687 37.4657-77.3794Q38.5916-78.3747 38.7726-79.4755Q38.9535-80.5762 38.461-81.5212Q37.9684-82.4662 37.0636-83.014Q36.1589-83.5619 35.043-83.4765Q33.9271-83.391 32.8314-82.4259Q26.9406-77.3192 22.0652-70.2222Q17.1897-63.1251 14.2243-54.3292Q11.2588-45.5333 11.2588-35.2697Q11.2588-22.3522 16.1644-11.0381Q21.07 0.275949 29.7102 8.95629Q38.3503 17.6366 49.6895 22.502Q61.0287 27.3674 73.8959 27.3674ZM73.8959-36.3051Q75.3938-36.3051 76.3086-37.2651Q77.2234-38.2252 77.2234-39.7532L77.2234-98.349Q77.2234-99.8771 76.3086-100.852Q75.3938-101.827 73.8959-101.827Q72.4785-101.827 71.5486-100.852Q70.6187-99.8771 70.6187-98.349L70.6187-39.7532Q70.6187-38.2252 71.5486-37.2651Q72.4785-36.3051 73.8959-36.3051Z"/>
  </g>
  <g id="Thin-L" transform="matrix(1 0 0 1 783.707 1556)">
   <path d="M72.6746 26.1461Q85.405 26.1461 96.4884 21.3892Q107.572 16.6324 116.074 8.12846Q124.577-0.375458 129.374-11.4588Q134.171-22.5422 134.171-35.2697Q134.171-45.9947 131.015-54.8318Q127.86-63.669 122.808-70.6032Q117.757-77.5374 112.032-82.3958Q111.418-82.9266 110.726-82.9713Q110.035-83.016 109.471-82.6717Q108.908-82.3274 108.644-81.7625Q108.38-81.1975 108.545-80.543Q108.711-79.8886 109.402-79.2804Q119.055-71.1942 124.6-59.8706Q130.146-48.547 130.149-35.2697Q130.149-23.4038 125.7-12.9824Q121.252-2.56097 113.358 5.33475Q105.464 13.2305 95.0423 17.6787Q84.6209 22.1269 72.6746 22.1269Q60.8086 22.1269 50.3887 17.6787Q39.9688 13.2305 32.0746 5.33475Q24.1804-2.56097 19.6935-12.9824Q15.2066-23.4038 15.2066-35.2697Q15.2066-48.55 20.7907-59.8736Q26.3749-71.1972 36.0272-79.3608Q36.7188-79.8946 36.8455-80.5476Q36.9722-81.2005 36.6696-81.7655Q36.367-82.3304 35.8422-82.6748Q35.3175-83.0191 34.663-82.9743Q34.0086-82.9296 33.32-82.3988Q27.592-77.6178 22.5809-70.6836Q17.5697-63.7494 14.4143-54.872Q11.2588-45.9947 11.2588-35.2697Q11.2588-22.5422 16.0558-11.4588Q20.8529-0.375458 29.3166 8.12846Q37.7803 16.6324 48.9024 21.3892Q60.0245 26.1461 72.6746 26.1461ZM72.6746-36.6036Q73.5482-36.6036 74.1101-37.1701Q74.6721-37.7366 74.6721-38.6132L74.6721-98.7562Q74.6721-99.6328 74.1101-100.201Q73.5482-100.769 72.6746-100.769Q71.8814-100.769 71.3179-100.201Q70.7544-99.6328 70.7544-98.7562L70.7544-38.6132Q70.7544-37.7366 71.3179-37.1701Q71.8814-36.6036 72.6746-36.6036Z"/>
  </g>
  <g id="Ultralight-L" transform="matrix(1 0 0 1 487.622 1556)">
   <path d="M72.049 25.5205Q84.6682 25.5205 95.6335 20.8192Q106.599 16.118 115.018 7.70445Q123.437-0.709105 128.178-11.6743Q132.92-22.6395 132.92-35.2697Q132.92-46.231 129.667-55.1099Q126.414-63.9887 121.293-70.8395Q116.172-77.6903 110.517-82.3958Q110.139-82.7041 109.67-82.728Q109.201-82.7519 108.825-82.5119Q108.449-82.2718 108.289-81.9015Q108.13-81.5311 108.274-81.113Q108.419-80.6949 108.888-80.2952Q118.902-72.0422 124.649-60.4614Q130.396-48.8806 130.385-35.2697Q130.385-23.2369 125.867-12.6626Q121.349-2.0883 113.33 5.92558Q105.311 13.9395 94.7365 18.4572Q84.1621 22.9749 72.049 22.9749Q60.0162 22.9749 49.4364 18.4572Q38.8567 13.9395 30.8374 5.92558Q22.818-2.0883 18.2546-12.6626Q13.6913-23.2369 13.6913-35.2697Q13.6913-48.8698 19.4839-60.4505Q25.2766-72.0313 35.2904-80.3757Q35.7596-80.6731 35.8585-81.0967Q35.9573-81.5202 35.7521-81.8906Q35.5468-82.2609 35.2166-82.501Q34.8865-82.741 34.4684-82.7171Q34.0503-82.6933 33.5702-82.3849Q27.9257-77.7707 22.845-70.9199Q17.7643-64.0691 14.5116-55.1501Q11.2588-46.231 11.2588-35.2697Q11.2588-22.6395 16.0002-11.6743Q20.7417-0.709105 29.115 7.70445Q37.4884 16.118 48.4992 20.8192Q59.5101 25.5205 72.049 25.5205ZM72.049-36.7566Q72.6028-36.7566 72.984-37.1215Q73.3653-37.4864 73.3653-38.0293L73.3653-98.9647Q73.3653-99.5077 72.984-99.8671Q72.6028-100.227 72.049-100.227Q71.5755-100.227 71.1997-99.8671Q70.824-99.5077 70.824-98.9647L70.824-38.0293Q70.824-37.4864 71.1997-37.1215Q71.5755-36.7566 72.049-36.7566Z"/>
  </g>
  <g id="Black-M" transform="matrix(1 0 0 1 2871.36 1126)">
   <path d="M62.0423 18.1161Q73.0725 18.1161 82.714 13.9613Q92.3555 9.80654 99.704 2.45531Q107.052-4.89592 111.21-14.5374Q115.367-24.1789 115.367-35.2035Q115.367-42.1454 113.687-48.5257Q112.007-54.9059 108.994-60.4684Q105.982-66.031 101.93-70.4009Q99.4018-73.1468 96.5313-73.7571Q93.6608-74.3675 91.1545-73.3347Q88.6482-72.3019 87.1924-70.1069Q85.7365-67.9118 85.9836-65.0384Q86.2307-62.165 88.9299-59.0768Q93.128-54.3347 95.5512-48.2185Q97.9743-42.1022 97.9799-35.2035Q97.9799-27.7615 95.1776-21.2356Q92.3753-14.7097 87.4584-9.78999Q82.5414-4.87031 76.0155-2.06802Q69.4896 0.734266 62.0423 0.734266Q54.6003 0.734266 48.0771-2.06802Q41.554-4.87031 36.637-9.78999Q31.7201-14.7097 28.918-21.2356Q26.1159-27.7615 26.1159-35.2035Q26.1159-42.1077 28.5389-48.224Q30.9619-54.3402 35.16-59.082Q37.8592-62.176 38.1064-65.0467Q38.3537-67.9173 36.898-70.1124Q35.4423-72.3074 32.9358-73.3402Q30.4294-74.373 27.556-73.7627Q24.6826-73.1523 22.1601-70.4064Q18.1031-66.0362 15.0931-60.4736Q12.083-54.9111 10.4028-48.5283Q8.72266-42.1454 8.72266-35.2035Q8.72266-24.1789 12.8801-14.5374Q17.0375-4.89592 24.3861 2.45531Q31.7347 9.80654 41.376 13.9613Q51.0174 18.1161 62.0423 18.1161ZM62.0423-32.2624Q66.4463-32.2624 69.1212-35.0883Q71.7961-37.9142 71.7961-42.6092L71.7961-81.6009Q71.7961-86.2959 69.1212-89.1246Q66.4463-91.9532 62.0423-91.9532Q57.6435-91.9532 54.9659-89.1246Q52.2883-86.2959 52.2883-81.6009L52.2883-42.6092Q52.2883-37.9142 54.9659-35.0883Q57.6435-32.2624 62.0423-32.2624Z"/>
  </g>
  <g id="Heavy-M" transform="matrix(1 0 0 1 2575.48 1126)">
   <path d="M61.2045 17.2648Q72.0509 17.2648 81.541 13.1749Q91.0312 9.08498 98.2688 1.83921Q105.506-5.40657 109.606-14.8967Q113.705-24.3868 113.705-35.217Q113.705-42.2865 111.925-48.7423Q110.144-55.1982 106.977-60.7847Q103.809-66.3712 99.6092-70.7243Q97.3702-73.1028 94.8671-73.5945Q92.364-74.0862 90.1912-73.1481Q88.0185-72.2101 86.7719-70.2691Q85.5253-68.3281 85.7616-65.8181Q85.9978-63.3081 88.37-60.6654Q93.0439-55.7017 95.7427-49.1708Q98.4415-42.6398 98.4578-35.217Q98.4578-27.4994 95.5609-20.7344Q92.664-13.9694 87.5674-8.86466Q82.4708-3.75991 75.7057-0.86303Q68.9407 2.03385 61.2045 2.03385Q53.4869 2.03385 46.73-0.86303Q39.9731-3.75991 34.8765-8.86466Q29.7798-13.9694 26.8817-20.7344Q23.9836-27.4994 23.9836-35.217Q23.9836-42.6561 26.6837-49.187Q29.3837-55.7179 34.0576-60.6841Q36.4298-63.3406 36.6648-65.8425Q36.8998-68.3444 35.652-70.2853Q34.4042-72.2263 32.2327-73.1644Q30.0612-74.1025 27.5512-73.6107Q25.0411-73.119 22.816-70.7405Q18.6003-66.3898 15.4418-60.8033Q12.2832-55.2168 10.5029-48.7517Q8.72266-42.2865 8.72266-35.217Q8.72266-24.3868 12.8219-14.8967Q16.9211-5.40657 24.1576 1.83921Q31.394 9.08498 40.8853 13.1749Q50.3767 17.2648 61.2045 17.2648ZM61.2045-33.0877Q64.9928-33.0877 67.2883-35.5166Q69.5838-37.9455 69.5838-41.9682L69.5838-82.1003Q69.5838-86.123 67.2883-88.56Q64.9928-90.997 61.2045-90.997Q57.4348-90.997 55.1312-88.56Q52.8276-86.123 52.8276-82.1003L52.8276-41.9682Q52.8276-37.9455 55.1312-35.5166Q57.4348-33.0877 61.2045-33.0877Z"/>
  </g>
  <g id="Bold-M" transform="matrix(1 0 0 1 2279.69 1126)">
   <path d="M60.2672 16.3124Q70.9082 16.3124 80.2289 12.2951Q89.5497 8.27781 96.6634 1.15Q103.777-5.9778 107.811-15.2986Q111.845-24.6193 111.845-35.2321Q111.845-42.4443 109.953-48.9847Q108.061-55.5251 104.719-61.1384Q101.378-66.7517 97.0129-71.086Q95.0976-73.0536 93.0054-73.4126Q90.9133-73.7715 89.1137-72.9394Q87.314-72.1073 86.3016-70.4506Q85.2891-68.7939 85.5132-66.6904Q85.7372-64.5869 87.7437-62.4425Q92.9498-57.2308 95.957-50.236Q98.9642-43.2412 98.9924-35.2321Q98.9924-27.2063 95.9897-20.1738Q92.987-13.1413 87.6894-7.82954Q82.3917-2.51777 75.3592 0.484927Q68.3267 3.48763 60.2672 3.48763Q52.2414 3.48763 45.223 0.484927Q38.2046-2.51777 32.907-7.82954Q27.6093-13.1413 24.6039-20.1738Q21.5984-27.2063 21.5984-35.2321Q21.5984-43.2695 24.6084-50.2643Q27.6183-57.2591 32.8244-62.4763Q34.8309-64.6433 35.0522-66.7327Q35.2735-68.8221 34.2582-70.4788Q33.243-72.1355 31.4461-72.9677Q29.6493-73.7998 27.5458-73.4408Q25.4423-73.0818 23.5497-71.1143Q19.1564-66.7854 15.8318-61.1722Q12.5072-55.5589 10.6149-49.0016Q8.72266-42.4443 8.72266-35.2321Q8.72266-24.6193 12.7568-15.2986Q16.791-5.9778 23.902 1.15Q31.0129 8.27781 40.3364 12.2951Q49.6599 16.3124 60.2672 16.3124ZM60.2672-34.0109Q63.3667-34.0109 65.2379-35.9957Q67.109-37.9806 67.109-41.2511L67.109-82.6589Q67.109-85.9295 65.2379-87.9285Q63.3667-89.9275 60.2672-89.9275Q57.2014-89.9275 55.3161-87.9285Q53.4308-85.9295 53.4308-82.6589L53.4308-41.2511Q53.4308-37.9806 55.3161-35.9957Q57.2014-34.0109 60.2672-34.0109Z"/>
  </g>
  <g id="Semibold-M" transform="matrix(1 0 0 1 1983.62 1126)">
   <path d="M59.621 15.6559Q70.1203 15.6559 79.3244 11.6886Q88.5284 7.72135 95.5566 0.674869Q102.585-6.37161 106.574-15.5756Q110.564-24.7797 110.564-35.2425Q110.564-42.5531 108.594-49.1518Q106.625-55.7506 103.163-61.3823Q99.7022-67.014 95.2231-71.3354Q93.5308-73.0196 91.722-73.2871Q89.9132-73.5546 88.3708-72.7955Q86.8284-72.0365 85.9773-70.5757Q85.1262-69.1149 85.3419-67.2917Q85.5576-65.4684 87.312-63.6676Q92.8849-58.285 96.1047-50.9704Q99.3245-43.6558 99.361-35.2425Q99.361-27.0042 96.2853-19.7873Q93.2097-12.5704 87.7735-7.11594Q82.3372-1.66145 75.1203 1.4142Q67.9035 4.48985 59.621 4.48985Q51.3827 4.48985 44.1841 1.4142Q36.9855-1.66145 31.5492-7.11594Q26.113-12.5704 23.0335-19.7873Q19.954-27.0042 19.954-35.2425Q19.954-43.6923 23.1777-51.0069Q26.4013-58.3215 31.9742-63.7118Q33.7286-65.5414 33.9404-67.3464Q34.1523-69.1514 33.2974-70.6122Q32.4425-72.073 30.9039-72.8321Q29.3653-73.5911 27.5421-73.3236Q25.7188-73.0562 24.0554-71.3719Q19.5399-67.0582 16.1007-61.4264Q12.6616-55.7947 10.6921-49.1739Q8.72266-42.5531 8.72266-35.2425Q8.72266-24.7797 12.712-15.5756Q16.7013-6.37161 23.7257 0.674869Q30.7501 7.72135 39.958 11.6886Q49.1658 15.6559 59.621 15.6559ZM59.621-34.6473Q62.2458-34.6473 63.8244-36.326Q65.403-38.0048 65.403-40.7568L65.403-83.0441Q65.403-85.7961 63.8244-87.4931Q62.2458-89.1901 59.621-89.1901Q57.0404-89.1901 55.4436-87.4931Q53.8467-85.7961 53.8467-83.0441L53.8467-40.7568Q53.8467-38.0048 55.4436-36.326Q57.0404-34.6473 59.621-34.6473Z"/>
  </g>
  <g id="Medium-M" transform="matrix(1 0 0 1 1687.4 1126)">
   <path d="M59.1311 15.158Q69.523 15.158 78.6385 11.2287Q87.754 7.29942 94.7174 0.314603Q101.681-6.67021 105.636-15.7857Q109.591-24.9012 109.591-35.2504Q109.591-42.6356 107.564-49.2785Q105.536-55.9215 101.984-61.5672Q98.4315-67.2129 93.866-71.5245Q92.3429-72.9939 90.7489-73.192Q89.1549-73.3901 87.8075-72.6864Q86.4602-71.9828 85.7315-70.6706Q85.0028-69.3584 85.2121-67.7476Q85.4214-66.1368 86.9846-64.5965Q92.8357-59.0843 96.2167-51.5272Q99.5977-43.9702 99.6405-35.2504Q99.6405-26.8509 96.5095-19.4943Q93.3785-12.1376 87.8372-6.57486Q82.2959-1.01215 74.9392 2.11881Q67.5825 5.24978 59.1311 5.24978Q50.7316 5.24978 43.3963 2.11881Q36.061-1.01215 30.5197-6.57486Q24.9784-12.1376 21.8428-19.4943Q18.7072-26.8509 18.7072-35.2504Q18.7072-44.0129 22.0929-51.57Q25.4785-59.1271 31.3296-64.6486Q32.8927-66.2224 33.0974-67.8118Q33.3021-69.4011 32.5688-70.7133Q31.8355-72.0256 30.4927-72.7292Q29.15-73.4329 27.5393-73.2348Q25.9285-73.0367 24.439-71.5673Q19.8306-67.2649 16.3046-61.6192Q12.7786-55.9735 10.7506-49.3045Q8.72266-42.6356 8.72266-35.2504Q8.72266-24.9012 12.678-15.7857Q16.6333-6.67021 23.5921 0.314603Q30.5509 7.29942 39.671 11.2287Q48.7912 15.158 59.1311 15.158ZM59.1311-35.1298Q61.3958-35.1298 62.7526-36.5765Q64.1093-38.0231 64.1093-40.382L64.1093-83.3361Q64.1093-85.695 62.7526-87.163Q61.3958-88.631 59.1311-88.631Q56.9184-88.631 55.5402-87.163Q54.162-85.695 54.162-83.3361L54.162-40.382Q54.162-38.0231 55.5402-36.5765Q56.9184-35.1298 59.1311-35.1298Z"/>
  </g>
  <g id="Regular-M" transform="matrix(1 0 0 1 1391.32 1126)">
   <path d="M58.492 14.5087Q68.7438 14.5087 77.7439 10.6289Q86.7439 6.74907 93.6228-0.155309Q100.502-7.05969 104.413-16.0597Q108.324-25.0598 108.324-35.2606Q108.324-42.7432 106.219-49.4438Q104.115-56.1444 100.445-61.8084Q96.7742-67.4724 92.0958-71.7712Q90.7933-72.9604 89.4796-73.068Q88.1658-73.1756 87.0728-72.5441Q85.9799-71.9127 85.4108-70.7943Q84.8417-69.6759 85.0427-68.3423Q85.2438-67.0087 86.5576-65.8082Q92.7715-60.1269 96.3628-52.2536Q99.954-44.3802 100.005-35.2606Q100.005-26.6511 96.8019-19.112Q93.5988-11.573 87.9204-5.86909Q82.242-0.165238 74.7029 3.03788Q67.1639 6.24099 58.492 6.24099Q49.8824 6.24099 42.3688 3.03788Q34.8553-0.165238 29.1769-5.86909Q23.4985-11.573 20.2897-19.112Q17.0809-26.6511 17.0809-35.2606Q17.0809-44.4312 20.6779-52.3045Q24.2748-60.1779 30.4887-65.8705Q31.8025-67.1106 31.9979-68.4187Q32.1933-69.7269 31.6185-70.8453Q31.0437-71.9637 29.9565-72.5951Q28.8692-73.2265 27.5356-73.1189Q26.202-73.0113 24.9392-71.8222Q20.2098-67.5347 16.5705-61.8707Q12.9313-56.2067 10.827-49.475Q8.72266-42.7432 8.72266-35.2606Q8.72266-25.0598 12.6336-16.0597Q16.5446-7.05969 23.4178-0.155309Q30.291 6.74907 39.2968 10.6289Q48.3025 14.5087 58.492 14.5087ZM58.492-35.7593Q60.2871-35.7593 61.3546-36.9032Q62.422-38.0471 62.422-39.8931L62.422-83.717Q62.422-85.563 61.3546-86.7324Q60.2871-87.9018 58.492-87.9018Q56.7592-87.9018 55.6663-86.7324Q54.5733-85.563 54.5733-83.717L54.5733-39.8931Q54.5733-38.0471 55.6663-36.9032Q56.7592-35.7593 58.492-35.7593Z"/>
  </g>
  <g id="Light-M" transform="matrix(1 0 0 1 1095.44 1126)">
   <path d="M57.664 13.6807Q67.7687 13.6807 76.6123 9.87453Q85.456 6.06831 92.2245-0.716478Q98.993-7.50127 102.83-16.3449Q106.668-25.1886 106.668-35.2606Q106.668-43.0559 104.435-49.8118Q102.202-56.5676 98.4391-62.1212Q94.6767-67.6747 90.0903-71.7712Q89.1006-72.666 88.0812-72.746Q87.0618-72.826 86.2173-72.3325Q85.3727-71.8391 84.9416-70.9783Q84.5105-70.1175 84.684-69.0967Q84.8574-68.0759 85.8768-67.1513Q92.5691-61.2493 96.4272-53.0355Q100.285-44.8218 100.318-35.2606Q100.318-26.4303 97.0227-18.6888Q93.7275-10.9474 87.8836-5.08714Q82.0396 0.773111 74.2982 4.06822Q66.5567 7.36333 57.664 7.36333Q48.8337 7.36333 41.1085 4.06822Q33.3833 0.773111 27.5394-5.08714Q21.6954-10.9474 18.3854-18.6888Q15.0755-26.4303 15.0755-35.2606Q15.0755-44.8543 18.9484-53.0681Q22.8213-61.2818 29.5136-67.2136Q30.533-68.141 30.6916-69.1455Q30.8502-70.15 30.4042-71.0109Q29.9582-71.8717 29.1285-72.3651Q28.2988-72.8585 27.278-72.7785Q26.2572-72.6985 25.2704-71.8038Q20.6514-67.7371 16.9201-62.1835Q13.1889-56.6299 10.9558-49.8429Q8.72266-43.0559 8.72266-35.2606Q8.72266-25.1886 12.56-16.3449Q16.3974-7.50127 23.151-0.716478Q29.9047 6.06831 38.7632 9.87453Q47.6217 13.6807 57.664 13.6807ZM57.664-35.9617Q59.036-35.9617 59.8642-36.8388Q60.6925-37.7159 60.6925-39.1204L60.6925-83.9929Q60.6925-85.3974 59.8642-86.2908Q59.036-87.1842 57.664-87.1842Q56.3544-87.1842 55.5099-86.2908Q54.6653-85.3974 54.6653-83.9929L54.6653-39.1204Q54.6653-37.7159 55.5099-36.8388Q56.3544-35.9617 57.664-35.9617Z"/>
  </g>
  <g id="Thin-M" transform="matrix(1 0 0 1 799.822 1126)">
   <path d="M56.569 12.5857Q66.479 12.5857 75.1158 8.87683Q83.7526 5.16794 90.3751-1.45867Q96.9976-8.08529 100.738-16.7221Q104.478-25.3589 104.478-35.2606Q104.478-43.4696 102.074-50.2985Q99.6708-57.1273 95.7867-62.5349Q91.9026-67.9424 87.4379-71.7712Q86.8619-72.2766 86.2318-72.3201Q85.6018-72.3636 85.0857-72.0527Q84.5697-71.7418 84.3211-71.2216Q84.0725-70.7015 84.2094-70.0944Q84.3464-69.4872 84.9764-68.9277Q92.3014-62.7336 96.5123-54.0697Q100.723-45.4058 100.731-35.2606Q100.731-26.1383 97.3147-18.1291Q93.8979-10.12 87.8349-4.05293Q81.7719 2.01415 73.7628 5.43093Q65.7537 8.84771 56.569 8.84771Q47.4466 8.84771 39.4416 5.43093Q31.4366 2.01415 25.3736-4.05293Q19.3107-10.12 15.8668-18.1291Q12.423-26.1383 12.423-35.2606Q12.423-45.414 16.661-54.0779Q20.8989-62.7419 28.2239-68.99Q28.8539-69.5037 28.9638-70.1067Q29.0738-70.7097 28.7981-71.2299Q28.5225-71.75 28.0335-72.0609Q27.5445-72.3718 26.9373-72.3284Q26.3302-72.2849 25.7084-71.7794Q21.2354-68.0047 17.3825-62.5972Q13.5296-57.1896 11.1261-50.3296Q8.72266-43.4696 8.72266-35.2606Q8.72266-25.3589 12.4627-16.7221Q16.2027-8.08529 22.7982-1.45867Q29.3936 5.16794 38.0575 8.87683Q46.7214 12.5857 56.569 12.5857ZM56.569-36.2293Q57.3813-36.2293 57.8932-36.7536Q58.4051-37.2779 58.4051-38.0983L58.4051-84.358Q58.4051-85.1784 57.8932-85.7068Q57.3813-86.2352 56.569-86.2352Q55.8191-86.2352 55.303-85.7068Q54.787-85.1784 54.787-84.358L54.787-38.0983Q54.787-37.2779 55.303-36.7536Q55.8191-36.2293 56.569-36.2293Z"/>
  </g>
  <g id="Ultralight-M" transform="matrix(1 0 0 1 503.672 1126)">
   <path d="M56.0081 12.0248Q65.8184 12.0248 74.3492 8.36581Q82.8801 4.70678 89.4278-1.83882Q95.9756-8.38442 99.6657-16.9153Q103.356-25.4462 103.356-35.2606Q103.356-43.6815 100.865-50.5477Q98.3745-57.414 94.4281-62.7467Q90.4818-68.0795 86.0793-71.7712Q85.7152-72.0772 85.2846-72.102Q84.8539-72.1268 84.5062-71.9094Q84.1584-71.6919 84.0033-71.3463Q83.8481-71.0006 83.9664-70.6054Q84.0846-70.2101 84.5153-69.8376Q92.1643-63.4939 96.5559-54.5994Q100.948-45.7049 100.943-35.2606Q100.943-25.9887 97.4642-17.8425Q93.9851-9.69625 87.81-3.52322Q81.6348 2.64981 73.4886 6.12891Q65.3424 9.60801 56.0081 9.60801Q46.7362 9.60801 38.5878 6.12891Q30.4395 2.64981 24.2644-3.52322Q18.0892-9.69625 14.5768-17.8425Q11.0645-25.9887 11.0645-35.2606Q11.0645-45.7007 15.4894-54.5952Q19.9143-63.4897 27.5633-69.8999Q27.9939-70.2017 28.0789-70.599Q28.1639-70.9964 27.9755-71.342Q27.7871-71.6877 27.4726-71.9051Q27.1581-72.1226 26.7628-72.0978Q26.3676-72.073 25.9327-71.767Q21.5345-68.1418 17.6193-62.8091Q13.7041-57.4763 11.2134-50.5789Q8.72266-43.6815 8.72266-35.2606Q8.72266-25.4462 12.4128-16.9153Q16.103-8.38442 22.6175-1.83882Q29.1319 4.70678 37.6961 8.36581Q46.2602 12.0248 56.0081 12.0248ZM56.0081-36.3664Q56.5337-36.3664 56.8836-36.71Q57.2335-37.0535 57.2335-37.5749L57.2335-84.5449Q57.2335-85.0663 56.8836-85.4077Q56.5337-85.7491 56.0081-85.7491Q55.5449-85.7491 55.1971-85.4077Q54.8493-85.0663 54.8493-84.5449L54.8493-37.5749Q54.8493-37.0535 55.1971-36.71Q55.5449-36.3664 56.0081-36.3664Z"/>
  </g>
  <g id="Black-S" transform="matrix(1 0 0 1 2884.57 696)">
   <path d="M48.8281 6.78711Q57.5195 6.78711 65.1123 3.51562Q72.7051 0.244141 78.4912-5.54199Q84.2773-11.3281 87.5488-18.9209Q90.8203-26.5137 90.8203-35.2051Q90.8203-40.625 89.5264-45.6055Q88.2324-50.5859 85.9131-54.9316Q83.5938-59.2773 80.4688-62.6953Q78.418-64.9414 76.0742-65.4541Q73.7305-65.9668 71.6797-65.1367Q69.6289-64.3066 68.4326-62.5244Q67.2363-60.7422 67.4316-58.3984Q67.627-56.0547 69.8242-53.5156Q72.998-49.8535 74.8291-45.166Q76.6602-40.4785 76.6602-35.2051Q76.6602-29.4434 74.4873-24.3896Q72.3145-19.3359 68.5059-15.5273Q64.6973-11.7188 59.6436-9.5459Q54.5898-7.37305 48.8281-7.37305Q43.0664-7.37305 38.0127-9.5459Q32.959-11.7188 29.1504-15.5273Q25.3418-19.3359 23.1689-24.3896Q20.9961-29.4434 20.9961-35.2051Q20.9961-40.4785 22.8271-45.166Q24.6582-49.8535 27.832-53.5156Q30.0293-56.0547 30.2246-58.3984Q30.4199-60.7422 29.2236-62.5244Q28.0273-64.3066 25.9766-65.1367Q23.9258-65.9668 21.582-65.4541Q19.2383-64.9414 17.1875-62.6953Q14.0625-59.2773 11.7432-54.9316Q9.42383-50.5859 8.12988-45.6055Q6.83594-40.625 6.83594-35.2051Q6.83594-26.5137 10.1074-18.9209Q13.3789-11.3281 19.165-5.54199Q24.9512 0.244141 32.5439 3.51562Q40.1367 6.78711 48.8281 6.78711ZM48.8281-32.666Q52.4414-32.666 54.6387-34.9854Q56.8359-37.3047 56.8359-41.1621L56.8359-71.4355Q56.8359-75.293 54.6387-77.6123Q52.4414-79.9316 48.8281-79.9316Q45.2148-79.9316 43.0176-77.6123Q40.8203-75.293 40.8203-71.4355L40.8203-41.1621Q40.8203-37.3047 43.0176-34.9854Q45.2148-32.666 48.8281-32.666Z"/>
  </g>
  <g id="Heavy-S" transform="matrix(1 0 0 1 2588.47 696)">
   <path d="M48.2173 6.16479Q56.7704 6.16479 64.2537 2.9394Q71.737-0.285985 77.4425-5.99721Q83.1479-11.7084 86.3791-19.1917Q89.6102-26.675 89.6102-35.2166Q89.6102-40.7057 88.2472-45.7438Q86.8841-50.7819 84.4437-55.1621Q82.0034-59.5424 78.7401-62.9719Q76.8967-64.9414 74.8296-65.3561Q72.7624-65.7709 70.9652-65.0042Q69.1679-64.2375 68.133-62.6397Q67.098-61.0418 67.2876-58.9689Q67.4771-56.896 69.4324-54.7026Q72.9519-50.8792 74.9847-45.8805Q77.0174-40.8819 77.0289-35.2166Q77.0289-29.2474 74.7869-24.0151Q72.5449-18.7828 68.6038-14.8359Q64.6627-10.889 59.4304-8.64699Q54.198-6.40499 48.2173-6.40499Q42.2482-6.40499 37.0216-8.64699Q31.795-10.889 27.8539-14.8359Q23.9128-18.7828 21.6708-24.0151Q19.4288-29.2474 19.4288-35.2166Q19.4288-40.8934 21.4615-45.8921Q23.4942-50.8907 27.0138-54.7142Q28.969-56.919 29.1586-58.9862Q29.3481-61.0533 28.3132-62.6512Q27.2783-64.249 25.481-65.0157Q23.6838-65.7824 21.6108-65.3677Q19.5379-64.9529 17.7061-62.9834Q14.4313-59.5539 11.9967-55.1737Q9.56212-50.7934 8.19903-45.7495Q6.83594-40.7057 6.83594-35.2166Q6.83594-26.675 10.0671-19.1917Q13.2982-11.7084 19.0037-5.99721Q24.7092-0.285985 32.1924 2.9394Q39.6757 6.16479 48.2173 6.16479ZM48.2173-33.346Q51.3581-33.346 53.2615-35.3599Q55.1649-37.3738 55.1649-40.7127L55.1649-71.8274Q55.1649-75.1662 53.2615-77.1859Q51.3581-79.2056 48.2173-79.2056Q45.0881-79.2056 43.1789-77.1859Q41.2698-75.1662 41.2698-71.8274L41.2698-40.7127Q41.2698-37.3738 43.1789-35.3599Q45.0881-33.346 48.2173-33.346Z"/>
  </g>
  <g id="Bold-S" transform="matrix(1 0 0 1 2292.43 696)">
   <path d="M47.5342 5.46875Q55.9326 5.46875 63.2935 2.29492Q70.6543-0.878906 76.2695-6.50635Q81.8848-12.1338 85.0708-19.4946Q88.2568-26.8555 88.2568-35.2295Q88.2568-40.7959 86.8164-45.8984Q85.376-51.001 82.8003-55.4199Q80.2246-59.8389 76.8066-63.2812Q75.1953-64.9414 73.4375-65.2466Q71.6797-65.5518 70.166-64.856Q68.6523-64.1602 67.7979-62.7686Q66.9434-61.377 67.1265-59.6069Q67.3096-57.8369 68.9941-56.0303Q72.9004-52.0264 75.1587-46.6797Q77.417-41.333 77.4414-35.2295Q77.4414-29.0283 75.1221-23.5962Q72.8027-18.1641 68.7134-14.0625Q64.624-9.96094 59.1919-7.6416Q53.7598-5.32227 47.5342-5.32227Q41.333-5.32227 35.9131-7.6416Q30.4932-9.96094 26.4038-14.0625Q22.3145-18.1641 19.9951-23.5962Q17.6758-29.0283 17.6758-35.2295Q17.6758-41.3574 19.9341-46.7041Q22.1924-52.0508 26.0986-56.0547Q27.7832-57.8857 27.9663-59.6436Q28.1494-61.4014 27.2949-62.793Q26.4404-64.1846 24.9268-64.8804Q23.4131-65.5762 21.6431-65.271Q19.873-64.9658 18.2861-63.3057Q14.8438-59.8633 12.2803-55.4443Q9.7168-51.0254 8.27637-45.9106Q6.83594-40.7959 6.83594-35.2295Q6.83594-26.8555 10.022-19.4946Q13.208-12.1338 18.8232-6.50635Q24.4385-0.878906 31.7993 2.29492Q39.1602 5.46875 47.5342 5.46875ZM47.5342-34.1064Q50.1465-34.1064 51.7212-35.7788Q53.2959-37.4512 53.2959-40.21L53.2959-72.2656Q53.2959-75.0244 51.7212-76.709Q50.1465-78.3936 47.5342-78.3936Q44.9463-78.3936 43.3594-76.709Q41.7725-75.0244 41.7725-72.2656L41.7725-40.21Q41.7725-37.4512 43.3594-35.7788Q44.9463-34.1064 47.5342-34.1064Z"/>
  </g>
  <g id="Semibold-S" transform="matrix(1 0 0 1 1996.19 696)">
   <path d="M47.0632 4.98887Q55.355 4.98887 62.6314 1.85059Q69.9078-1.2877 75.4608-6.85737Q81.0139-12.4271 84.1688-19.7035Q87.3237-26.9799 87.3237-35.2384Q87.3237-40.8581 85.83-46.0051Q84.3362-51.1521 81.6672-55.5977Q78.9982-60.0433 75.4736-63.4945Q74.0223-64.9414 72.4777-65.171Q70.9332-65.4007 69.615-64.7538Q68.2969-64.1068 67.5668-62.8574Q66.8367-61.608 67.0154-60.0468Q67.194-58.4856 68.692-56.9456Q72.8648-52.8173 75.2787-47.2307Q77.6925-41.644 77.7258-35.2384Q77.7258-28.8772 75.3531-23.3074Q72.9805-17.7375 68.7889-13.5293Q64.5974-9.32109 59.0275-6.94844Q53.4576-4.57578 47.0632-4.57578Q40.7021-4.57578 35.1488-6.94844Q29.5956-9.32109 25.4041-13.5293Q21.2125-17.7375 18.8398-23.3074Q16.4672-28.8772 16.4672-35.2384Q16.4672-41.6773 18.881-47.264Q21.2948-52.8506 25.4677-56.9789Q26.9656-58.5522 27.1443-60.0968Q27.3229-61.6413 26.5929-62.8907Q25.8628-64.1401 24.5446-64.7871Q23.2265-65.434 21.6653-65.2043Q20.1041-64.9747 18.686-63.5278Q15.1281-60.0766 12.4758-55.631Q9.82344-51.1854 8.32969-46.0217Q6.83594-40.8581 6.83594-35.2384Q6.83594-26.9799 9.99087-19.7035Q13.1458-12.4271 18.6988-6.85737Q24.2519-1.2877 31.5283 1.85059Q38.8047 4.98887 47.0632 4.98887ZM47.0632-34.6308Q49.3111-34.6308 50.6592-36.0676Q52.0073-37.5045 52.0073-39.8634L52.0073-72.5678Q52.0073-74.9267 50.6592-76.3802Q49.3111-77.8337 47.0632-77.8337Q44.8485-77.8337 43.4838-76.3802Q42.119-74.9267 42.119-72.5678L42.119-39.8634Q42.119-37.5045 43.4838-36.0676Q44.8485-34.6308 47.0632-34.6308Z"/>
  </g>
  <g id="Medium-S" transform="matrix(1 0 0 1 1699.83 696)">
   <path d="M46.7061 4.625Q54.917 4.625 62.1294 1.51367Q69.3418-1.59766 74.8477-7.12354Q80.3535-12.6494 83.4849-19.8618Q86.6162-27.0742 86.6162-35.2451Q86.6162-40.9053 85.082-46.0859Q83.5479-51.2666 80.8081-55.7324Q78.0684-60.1982 74.4629-63.6562Q73.1328-64.9414 71.75-65.1138Q70.3672-65.2861 69.1973-64.6763Q68.0273-64.0664 67.3916-62.9248Q66.7559-61.7832 66.9312-60.3804Q67.1064-58.9775 68.4629-57.6396Q72.8379-53.417 75.3696-47.6484Q77.9014-41.8799 77.9414-35.2451Q77.9414-28.7627 75.5283-23.0884Q73.1152-17.4141 68.8462-13.125Q64.5771-8.83594 58.9028-6.42285Q53.2285-4.00977 46.7061-4.00977Q40.2236-4.00977 34.5693-6.42285Q28.915-8.83594 24.646-13.125Q20.377-17.4141 17.9639-23.0884Q15.5508-28.7627 15.5508-35.2451Q15.5508-41.9199 18.0825-47.6885Q20.6143-53.457 24.9893-57.6797Q26.3457-59.0576 26.521-60.4404Q26.6963-61.8232 26.0605-62.9648Q25.4248-64.1064 24.2549-64.7163Q23.085-65.3262 21.6821-65.1538Q20.2793-64.9814 18.9893-63.6963Q15.3438-60.2383 12.624-55.7725Q9.9043-51.3066 8.37012-46.106Q6.83594-40.9053 6.83594-35.2451Q6.83594-27.0742 9.96729-19.8618Q13.0986-12.6494 18.6045-7.12354Q24.1104-1.59766 31.3228 1.51367Q38.5352 4.625 46.7061 4.625ZM46.7061-35.0283Q48.6777-35.0283 49.854-36.2866Q51.0303-37.5449 51.0303-39.6006L51.0303-72.7969Q51.0303-74.8525 49.854-76.1309Q48.6777-77.4092 46.7061-77.4092Q44.7744-77.4092 43.5781-76.1309Q42.3818-74.8525 42.3818-72.7969L42.3818-39.6006Q42.3818-37.5449 43.5781-36.2866Q44.7744-35.0283 46.7061-35.0283Z"/>
  </g>
  <g id="Regular-S" transform="matrix(1 0 0 1 1403.58 696)">
   <path d="M46.2402 4.15039Q54.3457 4.15039 61.4746 1.07422Q68.6035-2.00195 74.0479-7.4707Q79.4922-12.9395 82.5928-20.0684Q85.6934-27.1973 85.6934-35.2539Q85.6934-40.9668 84.1064-46.1914Q82.5195-51.416 79.6875-55.9082Q76.8555-60.4004 73.1445-63.8672Q71.9727-64.9414 70.8008-65.0391Q69.6289-65.1367 68.6523-64.5752Q67.6758-64.0137 67.1631-63.0127Q66.6504-62.0117 66.8213-60.8154Q66.9922-59.6191 68.1641-58.5449Q72.8027-54.1992 75.4883-48.1934Q78.1738-42.1875 78.2227-35.2539Q78.2227-28.6133 75.7568-22.8027Q73.291-16.9922 68.9209-12.5977Q64.5508-8.20312 58.7402-5.7373Q52.9297-3.27148 46.2402-3.27148Q39.5996-3.27148 33.8135-5.7373Q28.0273-8.20312 23.6572-12.5977Q19.2871-16.9922 16.8213-22.8027Q14.3555-28.6133 14.3555-35.2539Q14.3555-42.2363 17.041-48.2422Q19.7266-54.248 24.3652-58.5938Q25.5371-59.7168 25.708-60.8887Q25.8789-62.0605 25.3662-63.0615Q24.8535-64.0625 23.877-64.624Q22.9004-65.1855 21.7041-65.0879Q20.5078-64.9902 19.3848-63.916Q15.625-60.4492 12.8174-55.957Q10.0098-51.4648 8.42285-46.2158Q6.83594-40.9668 6.83594-35.2539Q6.83594-27.1973 9.93652-20.0684Q13.0371-12.9395 18.4814-7.4707Q23.9258-2.00195 31.0547 1.07422Q38.1836 4.15039 46.2402 4.15039ZM46.2402-35.5469Q47.8516-35.5469 48.8037-36.5723Q49.7559-37.5977 49.7559-39.2578L49.7559-73.0957Q49.7559-74.7559 48.8037-75.8057Q47.8516-76.8555 46.2402-76.8555Q44.6777-76.8555 43.7012-75.8057Q42.7246-74.7559 42.7246-73.0957L42.7246-39.2578Q42.7246-37.5977 43.7012-36.5723Q44.6777-35.5469 46.2402-35.5469Z"/>
  </g>
  <g id="Light-S" transform="matrix(1 0 0 1 1107.6 696)">
   <path d="M45.5078 3.41797Q53.4831 3.41797 60.4736 0.406901Q67.4642-2.60417 72.8109-7.96712Q78.1576-13.3301 81.193-20.3206Q84.2285-27.3112 84.2285-35.2539Q84.2285-41.2435 82.5277-46.5169Q80.8268-51.7904 77.9134-56.1849Q75-60.5794 71.3704-63.8672Q70.4753-64.681 69.5638-64.7542Q68.6523-64.8275 67.8955-64.388Q67.1387-63.9486 66.748-63.1755Q66.3574-62.4023 66.5039-61.4827Q66.6504-60.5632 67.5618-59.7331Q72.6237-55.1921 75.5452-48.8851Q78.4668-42.5781 78.4993-35.2539Q78.4993-28.418 75.9521-22.4284Q73.4049-16.4388 68.8883-11.9059Q64.3717-7.37305 58.3822-4.82585Q52.3926-2.27865 45.5078-2.27865Q38.6719-2.27865 32.6986-4.82585Q26.7253-7.37305 22.2087-11.9059Q17.6921-16.4388 15.1367-22.4284Q12.5814-28.418 12.5814-35.2539Q12.5814-42.6107 15.5111-48.9176Q18.4408-55.2246 23.5026-59.7819Q24.4141-60.6283 24.5524-61.5316Q24.6908-62.4349 24.292-63.208Q23.8932-63.9811 23.1445-64.4206Q22.3958-64.86 21.4762-64.7868Q20.5566-64.7135 19.6777-63.8997Q16.0156-60.6283 13.1266-56.2337Q10.2376-51.8392 8.53678-46.5413Q6.83594-41.2435 6.83594-35.2539Q6.83594-27.3112 9.87142-20.3206Q12.9069-13.3301 18.2454-7.96712Q23.584-2.60417 30.5827 0.406901Q37.5814 3.41797 45.5078 3.41797ZM45.5078-35.7259Q46.7448-35.7259 47.4854-36.5153Q48.2259-37.3047 48.2259-38.5742L48.2259-73.3398Q48.2259-74.6094 47.4854-75.415Q46.7448-76.2207 45.5078-76.2207Q44.3197-76.2207 43.5628-75.415Q42.806-74.6094 42.806-73.3398L42.806-38.5742Q42.806-37.3047 43.5628-36.5153Q44.3197-35.7259 45.5078-35.7259Z"/>
  </g>
  <g id="Thin-S" transform="matrix(1 0 0 1 811.859 696)">
   <path d="M44.5391 2.44928Q52.3422 2.44928 59.1498-0.47568Q65.9573-3.40064 71.1749-8.62368Q76.3924-13.8467 79.3418-20.6543Q82.2911-27.4619 82.2911-35.2539Q82.2911-41.6094 80.4396-46.9475Q78.5881-52.2855 75.567-56.5508Q72.546-60.8162 69.0241-63.8672Q68.4948-64.3366 67.9278-64.3775Q67.3608-64.4185 66.8945-64.1405Q66.4283-63.8625 66.1991-63.3907Q65.9699-62.919 66.0841-62.3653Q66.1983-61.8117 66.7654-61.3045Q72.3869-56.5052 75.6206-49.8Q78.8543-43.0948 78.8653-35.2539Q78.8653-28.1597 76.2105-21.9333Q73.5556-15.7069 68.8453-10.9911Q64.135-6.2752 57.9086-3.62037Q51.6822-0.965537 44.5391-0.965537Q37.4449-0.965537 31.224-3.62037Q25.0032-6.2752 20.2928-10.9911Q15.5825-15.7069 12.9087-21.9333Q10.235-28.1597 10.235-35.2539Q10.235-43.1058 13.4876-49.811Q16.7402-56.5162 22.3617-61.3533Q22.9287-61.8337 23.024-62.3819Q23.1193-62.93 22.8713-63.4017Q22.6232-63.8735 22.1758-64.1515Q21.7285-64.4295 21.1749-64.3885Q20.6212-64.3476 20.0652-63.8782Q16.5323-60.865 13.5356-56.5997Q10.539-52.3343 8.68747-46.9719Q6.83594-41.6094 6.83594-35.2539Q6.83594-27.4619 9.78531-20.6543Q12.7347-13.8467 17.9333-8.62368Q23.1319-3.40064 29.9584-0.47568Q36.7849 2.44928 44.5391 2.44928ZM44.5391-35.9627Q45.281-35.9627 45.7417-36.44Q46.2024-36.9172 46.2024-37.6701L46.2024-73.6627Q46.2024-74.4156 45.7417-74.8984Q45.281-75.3812 44.5391-75.3812Q43.8461-75.3812 43.3799-74.8984Q42.9136-74.4156 42.9136-73.6627L42.9136-37.6701Q42.9136-36.9172 43.3799-36.44Q43.8461-35.9627 44.5391-35.9627Z"/>
  </g>
  <g id="Ultralight-S" transform="matrix(1 0 0 1 515.644 696)">
   <path d="M44.043 1.95312Q51.7578 1.95312 58.4717-0.927734Q65.1855-3.80859 70.3369-8.95996Q75.4883-14.1113 78.3936-20.8252Q81.2988-27.5391 81.2988-35.2539Q81.2988-41.7969 79.3701-47.168Q77.4414-52.5391 74.3652-56.7383Q71.2891-60.9375 67.8223-63.8672Q67.4805-64.1602 67.0898-64.1846Q66.6992-64.209 66.3818-64.0137Q66.0645-63.8184 65.918-63.501Q65.7715-63.1836 65.8691-62.8174Q65.9668-62.4512 66.3574-62.1094Q72.2656-57.1777 75.6592-50.2686Q79.0527-43.3594 79.0527-35.2539Q79.0527-28.0273 76.3428-21.6797Q73.6328-15.332 68.8232-10.5225Q64.0137-5.71289 57.666-3.00293Q51.3184-0.292969 44.043-0.292969Q36.8164-0.292969 30.4688-3.00293Q24.1211-5.71289 19.3115-10.5225Q14.502-15.332 11.7676-21.6797Q9.0332-28.0273 9.0332-35.2539Q9.0332-43.3594 12.4512-50.2686Q15.8691-57.1777 21.7773-62.1582Q22.168-62.4512 22.2412-62.8174Q22.3145-63.1836 22.1436-63.501Q21.9727-63.8184 21.6797-64.0137Q21.3867-64.209 21.0205-64.1846Q20.6543-64.1602 20.2637-63.8672Q16.7969-60.9863 13.7451-56.7871Q10.6934-52.5879 8.76465-47.1924Q6.83594-41.7969 6.83594-35.2539Q6.83594-27.5391 9.74121-20.8252Q12.6465-14.1113 17.7734-8.95996Q22.9004-3.80859 29.6387-0.927734Q36.377 1.95312 44.043 1.95312ZM44.043-36.084Q44.5312-36.084 44.8486-36.4014Q45.166-36.7188 45.166-37.207L45.166-73.8281Q45.166-74.3164 44.8486-74.6338Q44.5312-74.9512 44.043-74.9512Q43.6035-74.9512 43.2861-74.6338Q42.9688-74.3164 42.9688-73.8281L42.9688-37.207Q42.9688-36.7188 43.2861-36.4014Q43.6035-36.084 44.043-36.084Z"/>
  </g>
 </g>
</svg>
