<?xml version="1.0" encoding="UTF-8"?>
<!--Generator: Apple Native CoreSVG 175-->
<!DOCTYPE svg
PUBLIC "-//W3C//DTD SVG 1.1//EN"
       "http://www.w3.org/Graphics/SVG/1.1/DTD/svg11.dtd">
<svg version="1.1" xmlns="http://www.w3.org/2000/svg" xmlns:xlink="http://www.w3.org/1999/xlink" width="3300" height="2200">
 <!--glyph: "uni1008CB.medium", point size: 100.0, font version: "17.3d3e1", template writer version: "65.1"-->
 <g id="Notes">
  <rect height="2200" id="artboard" style="fill:white;opacity:1" width="3300" x="0" y="0"/>
  <line style="fill:none;stroke:black;opacity:1;stroke-width:0.5;" x1="263" x2="3036" y1="292" y2="292"/>
  <text style="stroke:none;fill:black;font-family:sans-serif;font-size:13;font-weight:bold;" transform="matrix(1 0 0 1 263 322)">Weight/Scale Variations</text>
  <text style="stroke:none;fill:black;font-family:sans-serif;font-size:13;text-anchor:middle;" transform="matrix(1 0 0 1 559.711 322)">Ultralight</text>
  <text style="stroke:none;fill:black;font-family:sans-serif;font-size:13;text-anchor:middle;" transform="matrix(1 0 0 1 856.422 322)">Thin</text>
  <text style="stroke:none;fill:black;font-family:sans-serif;font-size:13;text-anchor:middle;" transform="matrix(1 0 0 1 1153.13 322)">Light</text>
  <text style="stroke:none;fill:black;font-family:sans-serif;font-size:13;text-anchor:middle;" transform="matrix(1 0 0 1 1449.84 322)">Regular</text>
  <text style="stroke:none;fill:black;font-family:sans-serif;font-size:13;text-anchor:middle;" transform="matrix(1 0 0 1 1746.56 322)">Medium</text>
  <text style="stroke:none;fill:black;font-family:sans-serif;font-size:13;text-anchor:middle;" transform="matrix(1 0 0 1 2043.27 322)">Semibold</text>
  <text style="stroke:none;fill:black;font-family:sans-serif;font-size:13;text-anchor:middle;" transform="matrix(1 0 0 1 2339.98 322)">Bold</text>
  <text style="stroke:none;fill:black;font-family:sans-serif;font-size:13;text-anchor:middle;" transform="matrix(1 0 0 1 2636.69 322)">Heavy</text>
  <text style="stroke:none;fill:black;font-family:sans-serif;font-size:13;text-anchor:middle;" transform="matrix(1 0 0 1 2933.4 322)">Black</text>
  <line style="fill:none;stroke:black;opacity:1;stroke-width:0.5;" x1="263" x2="3036" y1="1903" y2="1903"/>
  <g transform="matrix(1 0 0 1 263 1933)">
   <path d="M9.24805 0.830078Q10.8691 0.830078 12.2949 0.214844Q13.7207-0.400391 14.8096-1.49414Q15.8984-2.58789 16.5186-4.01367Q17.1387-5.43945 17.1387-7.05078Q17.1387-8.66211 16.5186-10.0879Q15.8984-11.5137 14.8047-12.6074Q13.7109-13.7012 12.2852-14.3164Q10.8594-14.9316 9.23828-14.9316Q7.62695-14.9316 6.20117-14.3164Q4.77539-13.7012 3.69141-12.6074Q2.60742-11.5137 1.9873-10.0879Q1.36719-8.66211 1.36719-7.05078Q1.36719-5.43945 1.9873-4.01367Q2.60742-2.58789 3.69629-1.49414Q4.78516-0.400391 6.21094 0.214844Q7.63672 0.830078 9.24805 0.830078ZM9.24805-0.654297Q7.91992-0.654297 6.7627-1.14746Q5.60547-1.64062 4.73145-2.51953Q3.85742-3.39844 3.36426-4.56055Q2.87109-5.72266 2.87109-7.05078Q2.87109-8.37891 3.35938-9.54102Q3.84766-10.7031 4.72168-11.582Q5.5957-12.4609 6.75293-12.9541Q7.91016-13.4473 9.23828-13.4473Q10.5762-13.4473 11.7334-12.9541Q12.8906-12.4609 13.7695-11.582Q14.6484-10.7031 15.1465-9.54102Q15.6445-8.37891 15.6445-7.05078Q15.6445-5.72266 15.1514-4.56055Q14.6582-3.39844 13.7842-2.51953Q12.9102-1.64062 11.748-1.14746Q10.5859-0.654297 9.24805-0.654297ZM5.6543-7.05078Q5.6543-6.72852 5.85938-6.52832Q6.06445-6.32812 6.40625-6.32812L8.51562-6.32812L8.51562-4.20898Q8.51562-3.88672 8.71094-3.67676Q8.90625-3.4668 9.23828-3.4668Q9.56055-3.4668 9.77051-3.67676Q9.98047-3.88672 9.98047-4.20898L9.98047-6.32812L12.0898-6.32812Q12.4219-6.32812 12.627-6.52832Q12.832-6.72852 12.832-7.05078Q12.832-7.38281 12.627-7.58789Q12.4219-7.79297 12.0898-7.79297L9.98047-7.79297L9.98047-9.90234Q9.98047-10.2344 9.77051-10.4443Q9.56055-10.6543 9.23828-10.6543Q8.90625-10.6543 8.71094-10.4443Q8.51562-10.2344 8.51562-9.90234L8.51562-7.79297L6.40625-7.79297Q6.06445-7.79297 5.85938-7.58789Q5.6543-7.38281 5.6543-7.05078Z"/>
  </g>
  <g transform="matrix(1 0 0 1 281.867 1933)">
   <path d="M11.709 2.91016Q13.75 2.91016 15.5518 2.12891Q17.3535 1.34766 18.7305-0.0292969Q20.1074-1.40625 20.8887-3.20801Q21.6699-5.00977 21.6699-7.05078Q21.6699-9.0918 20.8887-10.8936Q20.1074-12.6953 18.7305-14.0723Q17.3535-15.4492 15.5469-16.2305Q13.7402-17.0117 11.6992-17.0117Q9.6582-17.0117 7.85645-16.2305Q6.05469-15.4492 4.68262-14.0723Q3.31055-12.6953 2.5293-10.8936Q1.74805-9.0918 1.74805-7.05078Q1.74805-5.00977 2.5293-3.20801Q3.31055-1.40625 4.6875-0.0292969Q6.06445 1.34766 7.86621 2.12891Q9.66797 2.91016 11.709 2.91016ZM11.709 1.25Q9.98047 1.25 8.47656 0.605469Q6.97266-0.0390625 5.83496-1.17676Q4.69727-2.31445 4.05762-3.81836Q3.41797-5.32227 3.41797-7.05078Q3.41797-8.7793 4.05762-10.2832Q4.69727-11.7871 5.83008-12.9297Q6.96289-14.0723 8.4668-14.7119Q9.9707-15.3516 11.6992-15.3516Q13.4277-15.3516 14.9316-14.7119Q16.4355-14.0723 17.5781-12.9297Q18.7207-11.7871 19.3652-10.2832Q20.0098-8.7793 20.0098-7.05078Q20.0098-5.32227 19.3701-3.81836Q18.7305-2.31445 17.5928-1.17676Q16.4551-0.0390625 14.9463 0.605469Q13.4375 1.25 11.709 1.25ZM7.17773-7.05078Q7.17773-6.69922 7.41211-6.47461Q7.64648-6.25 8.01758-6.25L10.8887-6.25L10.8887-3.36914Q10.8887-2.99805 11.1133-2.76855Q11.3379-2.53906 11.6895-2.53906Q12.0605-2.53906 12.29-2.76855Q12.5195-2.99805 12.5195-3.36914L12.5195-6.25L15.4004-6.25Q15.7715-6.25 16.001-6.47461Q16.2305-6.69922 16.2305-7.05078Q16.2305-7.42188 16.001-7.65137Q15.7715-7.88086 15.4004-7.88086L12.5195-7.88086L12.5195-10.752Q12.5195-11.1328 12.29-11.3623Q12.0605-11.5918 11.6895-11.5918Q11.3379-11.5918 11.1133-11.3574Q10.8887-11.123 10.8887-10.752L10.8887-7.88086L8.01758-7.88086Q7.63672-7.88086 7.40723-7.65137Q7.17773-7.42188 7.17773-7.05078Z"/>
  </g>
  <g transform="matrix(1 0 0 1 305.646 1933)">
   <path d="M14.9707 5.66406Q17.0605 5.66406 18.96 5.01465Q20.8594 4.36523 22.4512 3.19336Q24.043 2.02148 25.2197 0.429688Q26.3965-1.16211 27.0459-3.06641Q27.6953-4.9707 27.6953-7.05078Q27.6953-9.14062 27.0459-11.04Q26.3965-12.9395 25.2197-14.5312Q24.043-16.123 22.4512-17.2998Q20.8594-18.4766 18.9551-19.126Q17.0508-19.7754 14.9609-19.7754Q12.8711-19.7754 10.9717-19.126Q9.07227-18.4766 7.48535-17.2998Q5.89844-16.123 4.72168-14.5312Q3.54492-12.9395 2.90039-11.04Q2.25586-9.14062 2.25586-7.05078Q2.25586-4.9707 2.90527-3.06641Q3.55469-1.16211 4.72656 0.429688Q5.89844 2.02148 7.49023 3.19336Q9.08203 4.36523 10.9814 5.01465Q12.8809 5.66406 14.9707 5.66406ZM14.9707 3.84766Q13.1641 3.84766 11.5283 3.2959Q9.89258 2.74414 8.53516 1.74805Q7.17773 0.751953 6.17676-0.610352Q5.17578-1.97266 4.62891-3.6084Q4.08203-5.24414 4.08203-7.05078Q4.08203-8.86719 4.62891-10.5029Q5.17578-12.1387 6.17188-13.501Q7.16797-14.8633 8.52539-15.8594Q9.88281-16.8555 11.5186-17.4023Q13.1543-17.9492 14.9609-17.9492Q16.7773-17.9492 18.4131-17.4023Q20.0488-16.8555 21.4111-15.8594Q22.7734-14.8633 23.7695-13.501Q24.7656-12.1387 25.3174-10.5029Q25.8691-8.86719 25.8691-7.05078Q25.8789-5.24414 25.332-3.6084Q24.7852-1.97266 23.7842-0.610352Q22.7832 0.751953 21.4209 1.74805Q20.0586 2.74414 18.4229 3.2959Q16.7871 3.84766 14.9707 3.84766ZM9.19922-7.05078Q9.19922-6.66992 9.45801-6.4209Q9.7168-6.17188 10.1172-6.17188L14.0625-6.17188L14.0625-2.2168Q14.0625-1.81641 14.3115-1.55762Q14.5605-1.29883 14.9512-1.29883Q15.3516-1.29883 15.6104-1.55273Q15.8691-1.80664 15.8691-2.2168L15.8691-6.17188L19.8242-6.17188Q20.2246-6.17188 20.4785-6.4209Q20.7324-6.66992 20.7324-7.05078Q20.7324-7.46094 20.4785-7.71484Q20.2246-7.96875 19.8242-7.96875L15.8691-7.96875L15.8691-11.9141Q15.8691-12.3242 15.6104-12.583Q15.3516-12.8418 14.9512-12.8418Q14.5605-12.8418 14.3115-12.583Q14.0625-12.3242 14.0625-11.9141L14.0625-7.96875L10.1172-7.96875Q9.70703-7.96875 9.45312-7.71484Q9.19922-7.46094 9.19922-7.05078Z"/>
  </g>
  <text style="stroke:none;fill:black;font-family:sans-serif;font-size:13;font-weight:bold;" transform="matrix(1 0 0 1 263 1953)">Design Variations</text>
  <text style="stroke:none;fill:black;font-family:sans-serif;font-size:13;" transform="matrix(1 0 0 1 263 1971)">Symbols are supported in up to nine weights and three scales.</text>
  <text style="stroke:none;fill:black;font-family:sans-serif;font-size:13;" transform="matrix(1 0 0 1 263 1989)">For optimal layout with text and other symbols, vertically align</text>
  <text style="stroke:none;fill:black;font-family:sans-serif;font-size:13;" transform="matrix(1 0 0 1 263 2007)">symbols with the adjacent text.</text>
  <line style="fill:none;stroke:#00AEEF;stroke-width:0.5;opacity:1.0;" x1="776" x2="776" y1="1919" y2="1933"/>
  <g transform="matrix(1 0 0 1 776 1933)">
   <path d="M3.31055 0.15625Q3.70117 0.15625 3.91602-0.00976562Q4.13086-0.175781 4.26758-0.585938L5.52734-4.0332L11.2891-4.0332L12.5488-0.585938Q12.6855-0.175781 12.9004-0.00976562Q13.1152 0.15625 13.4961 0.15625Q13.8867 0.15625 14.1162-0.0585938Q14.3457-0.273438 14.3457-0.644531Q14.3457-0.869141 14.2383-1.17188L9.6582-13.3691Q9.48242-13.8184 9.17969-14.043Q8.87695-14.2676 8.4082-14.2676Q7.5-14.2676 7.17773-13.3789L2.59766-1.16211Q2.49023-0.859375 2.49023-0.634766Q2.49023-0.263672 2.70996-0.0537109Q2.92969 0.15625 3.31055 0.15625ZM6.00586-5.51758L8.37891-12.0898L8.42773-12.0898L10.8008-5.51758Z"/>
  </g>
  <line style="fill:none;stroke:#00AEEF;stroke-width:0.5;opacity:1.0;" x1="793.197" x2="793.197" y1="1919" y2="1933"/>
  <text style="stroke:none;fill:black;font-family:sans-serif;font-size:13;font-weight:bold;" transform="matrix(1 0 0 1 776 1953)">Margins</text>
  <text style="stroke:none;fill:black;font-family:sans-serif;font-size:13;" transform="matrix(1 0 0 1 776 1971)">Leading and trailing margins on the left and right side of each symbol</text>
  <text style="stroke:none;fill:black;font-family:sans-serif;font-size:13;" transform="matrix(1 0 0 1 776 1989)">can be adjusted by modifying the x-location of the margin guidelines.</text>
  <text style="stroke:none;fill:black;font-family:sans-serif;font-size:13;" transform="matrix(1 0 0 1 776 2007)">Modifications are automatically applied proportionally to all</text>
  <text style="stroke:none;fill:black;font-family:sans-serif;font-size:13;" transform="matrix(1 0 0 1 776 2025)">scales and weights.</text>
  <g transform="matrix(1 0 0 1 1289 1933)">
   <path d="M2.8418 1.86523L4.54102 3.57422Q5.18555 4.22852 5.90332 4.17969Q6.62109 4.13086 7.31445 3.35938L18.0078-8.42773L17.041-9.4043L6.42578 2.27539Q6.16211 2.57812 5.89355 2.61719Q5.625 2.65625 5.27344 2.30469L4.10156 1.14258Q3.75 0.791016 3.79395 0.522461Q3.83789 0.253906 4.14062-0.0195312L15.6152-10.8203L14.6387-11.7871L3.04688-0.898438Q2.30469-0.214844 2.25098 0.498047Q2.19727 1.21094 2.8418 1.86523ZM9.25781-16.3281Q8.94531-16.0254 8.90625-15.6348Q8.86719-15.2441 9.04297-14.9512Q9.21875-14.6777 9.55566-14.541Q9.89258-14.4043 10.3809-14.5215Q11.4746-14.7754 12.5977-14.7314Q13.7207-14.6875 14.7949-13.9844L14.209-12.5293Q13.9551-11.9043 14.0674-11.4404Q14.1797-10.9766 14.5801-10.5664L16.875-8.25195Q17.2363-7.88086 17.5781-7.82227Q17.9199-7.76367 18.3398-7.8418L19.4043-8.03711L20.0684-7.36328L20.0293-6.80664Q20-6.43555 20.1221-6.12305Q20.2441-5.81055 20.6055-5.44922L21.3672-4.70703Q21.7285-4.3457 22.1533-4.33105Q22.5781-4.31641 22.9297-4.66797L25.8398-7.58789Q26.1914-7.93945 26.1816-8.35449Q26.1719-8.76953 25.8105-9.13086L25.0391-9.89258Q24.6875-10.2539 24.3799-10.3857Q24.0723-10.5176 23.7109-10.4883L23.1348-10.4395L22.4902-11.0742L22.7344-12.1973Q22.832-12.6172 22.6953-12.9834Q22.5586-13.3496 22.1191-13.7891L19.9219-15.9766Q18.6719-17.2168 17.2607-17.8369Q15.8496-18.457 14.4189-18.4814Q12.9883-18.5059 11.665-17.959Q10.3418-17.4121 9.25781-16.3281ZM10.752-15.957Q11.6602-16.6211 12.7002-16.9043Q13.7402-17.1875 14.8047-17.085Q15.8691-16.9824 16.8701-16.5137Q17.8711-16.0449 18.7012-15.2051L21.1328-12.793Q21.3086-12.6172 21.3525-12.4512Q21.3965-12.2852 21.3379-12.0312L21.0156-10.5469L22.5195-9.0625L23.5059-9.12109Q23.6914-9.13086 23.7891-9.09668Q23.8867-9.0625 24.0332-8.91602L24.6094-8.33984L22.168-5.89844L21.5918-6.47461Q21.4453-6.62109 21.4062-6.71875Q21.3672-6.81641 21.377-7.01172L21.4453-7.98828L19.9512-9.47266L18.4277-9.21875Q18.1836-9.16992 18.042-9.2041Q17.9004-9.23828 17.7148-9.41406L15.7129-11.416Q15.5176-11.5918 15.4932-11.7529Q15.4688-11.9141 15.5859-12.1875L16.4648-14.2773Q15.293-15.3711 13.8281-15.791Q12.3633-16.2109 10.8398-15.7617Q10.7227-15.7324 10.6885-15.8057Q10.6543-15.8789 10.752-15.957Z"/>
  </g>
  <text style="stroke:none;fill:black;font-family:sans-serif;font-size:13;font-weight:bold;" transform="matrix(1 0 0 1 1289 1953)">Exporting</text>
  <text style="stroke:none;fill:black;font-family:sans-serif;font-size:13;" transform="matrix(1 0 0 1 1289 1971)">Symbols should be outlined when exporting to ensure the</text>
  <text style="stroke:none;fill:black;font-family:sans-serif;font-size:13;" transform="matrix(1 0 0 1 1289 1989)">design is preserved when submitting to Xcode.</text>
  <text id="template-version" style="stroke:none;fill:black;font-family:sans-serif;font-size:13;text-anchor:end;" transform="matrix(1 0 0 1 3036 1933)">Template v.3.0</text>
  <text style="stroke:none;fill:black;font-family:sans-serif;font-size:13;text-anchor:end;" transform="matrix(1 0 0 1 3036 1951)">Requires Xcode 13 or greater</text>
  <text id="descriptive-name" style="stroke:none;fill:black;font-family:sans-serif;font-size:13;text-anchor:end;" transform="matrix(1 0 0 1 3036 1969)">Generated from gearshape</text>
  <text style="stroke:none;fill:black;font-family:sans-serif;font-size:13;text-anchor:end;" transform="matrix(1 0 0 1 3036 1987)">Typeset at 100 points</text>
  <text style="stroke:none;fill:black;font-family:sans-serif;font-size:13;" transform="matrix(1 0 0 1 263 726)">Small</text>
  <text style="stroke:none;fill:black;font-family:sans-serif;font-size:13;" transform="matrix(1 0 0 1 263 1156)">Medium</text>
  <text style="stroke:none;fill:black;font-family:sans-serif;font-size:13;" transform="matrix(1 0 0 1 263 1586)">Large</text>
 </g>
 <g id="Guides">
  <g id="H-reference" style="fill:#27AAE1;stroke:none;" transform="matrix(1 0 0 1 339 696)">
   <path d="M0.993347 0L3.6377 0L29.3282-67.1326L30.0301-67.1326L30.0301-70.459L28.1227-70.459ZM11.6882-24.4797L46.9818-24.4797L46.2311-26.7288L12.4382-26.7288ZM55.1193 0L57.7637 0L30.6381-70.459L29.4327-70.459L29.4327-67.1326Z"/>
  </g>
  <line id="Baseline-S" style="fill:none;stroke:#27AAE1;opacity:1;stroke-width:0.5;" x1="263" x2="3036" y1="696" y2="696"/>
  <line id="Capline-S" style="fill:none;stroke:#27AAE1;opacity:1;stroke-width:0.5;" x1="263" x2="3036" y1="625.541" y2="625.541"/>
  <g id="H-reference" style="fill:#27AAE1;stroke:none;" transform="matrix(1 0 0 1 339 1126)">
   <path d="M0.993347 0L3.6377 0L29.3282-67.1326L30.0301-67.1326L30.0301-70.459L28.1227-70.459ZM11.6882-24.4797L46.9818-24.4797L46.2311-26.7288L12.4382-26.7288ZM55.1193 0L57.7637 0L30.6381-70.459L29.4327-70.459L29.4327-67.1326Z"/>
  </g>
  <line id="Baseline-M" style="fill:none;stroke:#27AAE1;opacity:1;stroke-width:0.5;" x1="263" x2="3036" y1="1126" y2="1126"/>
  <line id="Capline-M" style="fill:none;stroke:#27AAE1;opacity:1;stroke-width:0.5;" x1="263" x2="3036" y1="1055.54" y2="1055.54"/>
  <g id="H-reference" style="fill:#27AAE1;stroke:none;" transform="matrix(1 0 0 1 339 1556)">
   <path d="M0.993347 0L3.6377 0L29.3282-67.1326L30.0301-67.1326L30.0301-70.459L28.1227-70.459ZM11.6882-24.4797L46.9818-24.4797L46.2311-26.7288L12.4382-26.7288ZM55.1193 0L57.7637 0L30.6381-70.459L29.4327-70.459L29.4327-67.1326Z"/>
  </g>
  <line id="Baseline-L" style="fill:none;stroke:#27AAE1;opacity:1;stroke-width:0.5;" x1="263" x2="3036" y1="1556" y2="1556"/>
  <line id="Capline-L" style="fill:none;stroke:#27AAE1;opacity:1;stroke-width:0.5;" x1="263" x2="3036" y1="1485.54" y2="1485.54"/>
  <line id="left-margin-Ultralight-S" style="fill:none;stroke:#00AEEF;stroke-width:0.5;opacity:1.0;" x1="513.745" x2="513.745" y1="600.785" y2="720.121"/>
  <line id="right-margin-Ultralight-S" style="fill:none;stroke:#00AEEF;stroke-width:0.5;opacity:1.0;" x1="605.678" x2="605.678" y1="600.785" y2="720.121"/>
  <line id="left-margin-Regular-S" style="fill:none;stroke:#00AEEF;stroke-width:0.5;opacity:1.0;" x1="1401.68" x2="1401.68" y1="600.785" y2="720.121"/>
  <line id="right-margin-Regular-S" style="fill:none;stroke:#00AEEF;stroke-width:0.5;opacity:1.0;" x1="1498.01" x2="1498.01" y1="600.785" y2="720.121"/>
  <line id="left-margin-Black-S" style="fill:none;stroke:#00AEEF;stroke-width:0.5;opacity:1.0;" x1="2881.98" x2="2881.98" y1="600.785" y2="720.121"/>
  <line id="right-margin-Black-S" style="fill:none;stroke:#00AEEF;stroke-width:0.5;opacity:1.0;" x1="2984.82" x2="2984.82" y1="600.785" y2="720.121"/>
 </g>
 <g id="Symbols">
  <g id="Black-S" transform="matrix(1 0 0 1 2881.98 696)">
   <path d="M47.4609 9.32617L55.3711 9.32617Q58.5449 9.32617 60.9619 7.42188Q63.3789 5.51758 64.0625 2.53906L65.1855-2.29492L65.1855-2.29492L69.4336 0.292969Q72.1191 1.9043 75.1221 1.48926Q78.125 1.07422 80.3223-1.17188L85.791-6.5918Q88.0859-8.98438 88.4277-11.9629Q88.7695-14.9414 87.1582-17.5293L84.5703-21.6797L84.5703-21.6797L89.3066-22.8516Q92.334-23.6328 94.165-26.0254Q95.9961-28.418 95.9961-31.543L95.9961-38.9648Q95.9961-42.1387 94.165-44.5312Q92.334-46.9238 89.3066-47.6562L84.5703-48.8281L84.5703-48.8281L87.1582-52.9785Q88.8184-55.5664 88.4521-58.5449Q88.0859-61.5234 85.791-63.916L80.3223-69.3359Q78.125-71.6309 75.1221-72.0459Q72.1191-72.4609 69.4336-70.8008L65.1855-68.2129L65.1855-68.2129L64.0625-73.0469Q63.3789-76.0742 60.9619-77.9541Q58.5449-79.834 55.3711-79.834L47.4609-79.834Q44.2871-79.834 41.8701-77.9297Q39.4531-76.0254 38.7695-73.0469L37.6465-68.2129L37.6465-68.2129L33.3984-70.8008Q30.7129-72.4121 27.71-72.0215Q24.707-71.6309 22.5098-69.3359L17.041-63.916Q14.7949-61.5234 14.4043-58.5449Q14.0137-55.5664 15.6738-52.9785L18.2617-48.8281L18.2617-48.8281L13.5254-47.6562Q10.498-46.875 8.66699-44.5068Q6.83594-42.1387 6.83594-38.9648L6.83594-31.543Q6.83594-28.418 8.69141-26.001Q10.5469-23.584 13.5254-22.8516L18.2617-21.6797L18.2617-21.6797L15.6738-17.5293Q14.0137-14.9414 14.4043-11.9629Q14.7949-8.98438 17.041-6.5918L22.5098-1.17188Q24.707 1.07422 27.71 1.48926Q30.7129 1.9043 33.3984 0.292969L37.6465-2.29492L37.6465-2.29492L38.7695 2.53906Q39.4531 5.51758 41.8701 7.42188Q44.2871 9.32617 47.4609 9.32617ZM50.0977-2.39258Q49.2676-2.39258 49.1211-3.22266L47.0215-12.3047Q44.873-12.6465 42.627-13.5742Q40.3809-14.502 38.1836-15.9668L30.2246-11.084Q29.541-10.5957 28.9551-11.1816L27.0508-13.0371Q26.5137-13.5742 26.9531-14.3066L31.9336-22.3145Q30.5176-24.5117 29.6387-26.6846Q28.7598-28.8574 28.418-30.957L19.3359-33.0566Q18.5059-33.2031 18.5059-34.0332L18.5059-36.4746Q18.5059-37.3047 19.3359-37.4512L28.418-39.5508Q28.8086-41.6504 29.6387-43.8477Q30.4688-46.0449 31.9336-48.1934L26.9531-56.2012Q26.5137-56.9336 27.0508-57.4707L28.9551-59.3262Q29.541-59.9121 30.2246-59.4238L38.1836-54.541Q39.7949-55.7617 42.2119-56.7627Q44.6289-57.7637 46.9727-58.2031L49.1211-67.2852Q49.2676-68.1152 50.0977-68.1152L52.7344-68.1152Q53.5645-68.1152 53.7109-67.2852L55.8594-58.2031Q58.1543-57.8125 60.376-56.8848Q62.5977-55.957 64.6484-54.541L72.5098-59.3262Q73.1934-59.8145 73.7793-59.2285L75.6836-57.373Q76.2207-56.8359 75.7812-56.1035L70.8984-48.1934Q72.3145-46.0938 73.1689-43.8721Q74.0234-41.6504 74.3652-39.5996L83.4961-37.4512Q84.3262-37.3047 84.3262-36.4746L84.3262-34.0332Q84.3262-33.2031 83.4961-33.0566L74.3652-30.9082Q74.0234-28.8574 73.1689-26.6357Q72.3145-24.4141 70.8984-22.3145L75.7812-14.4043Q76.2207-13.6719 75.6836-13.1348L73.7793-11.2793Q73.1934-10.6934 72.5098-11.1816L64.6973-15.9668Q62.4023-14.502 60.376-13.623Q58.3496-12.7441 55.8594-12.3047L53.7109-3.22266Q53.5645-2.39258 52.7344-2.39258ZM51.416-21.0449Q55.3223-21.0449 58.5205-22.9736Q61.7188-24.9023 63.6475-28.125Q65.5762-31.3477 65.5762-35.2539Q65.5762-39.1602 63.6475-42.3584Q61.7188-45.5566 58.5205-47.4609Q55.3223-49.3652 51.416-49.3652Q47.5098-49.3652 44.2871-47.4609Q41.0645-45.5566 39.1357-42.3584Q37.207-39.1602 37.207-35.2539Q37.207-31.3477 39.1357-28.1006Q41.0645-24.8535 44.2871-22.9492Q47.5098-21.0449 51.416-21.0449ZM51.416-30.7129Q50.1953-30.7129 49.1699-31.3232Q48.1445-31.9336 47.5342-32.9834Q46.9238-34.0332 46.9238-35.2539Q46.9238-36.4746 47.5342-37.4756Q48.1445-38.4766 49.1699-39.0869Q50.1953-39.6973 51.416-39.6973Q52.6367-39.6973 53.6133-39.0869Q54.5898-38.4766 55.2002-37.4756Q55.8105-36.4746 55.8105-35.2539Q55.8105-34.0332 55.2002-32.9834Q54.5898-31.9336 53.6133-31.3232Q52.6367-30.7129 51.416-30.7129Z"/>
  </g>
  <g id="Regular-S" transform="matrix(1 0 0 1 1401.68 696)">
   <path d="M44.2871 6.00586L52.002 6.00586Q54.3457 6.00586 56.0547 4.6875Q57.7637 3.36914 58.3008 1.17188L59.9121-5.85938L60.791-6.15234L66.8457-2.39258Q68.7988-1.17188 70.9717-1.46484Q73.1445-1.75781 74.7559-3.41797L80.127-8.74023Q81.7871-10.4004 82.0557-12.5488Q82.3242-14.6973 81.1035-16.6016L77.2949-22.7051L77.5879-23.4375L84.6191-25.0488Q86.8164-25.6348 88.1592-27.3438Q89.502-29.0527 89.502-31.3477L89.502-38.8672Q89.502-41.1621 88.1836-42.8955Q86.8652-44.6289 84.6191-45.166L77.6855-46.875L77.3438-47.6562L81.1523-53.7598Q82.373-55.6641 82.1045-57.8125Q81.8359-59.9609 80.1758-61.6699L74.8047-66.9922Q73.1934-68.6523 71.0449-68.9209Q68.8965-69.1895 66.9434-68.0176L60.8398-64.3066L59.9121-64.6484L58.3008-71.6797Q57.7637-73.877 56.0547-75.1953Q54.3457-76.5137 52.002-76.5137L44.2871-76.5137Q41.9434-76.5137 40.2588-75.1953Q38.5742-73.877 38.0371-71.6797L36.4258-64.6484L35.4492-64.3066L29.3457-68.0176Q27.3926-69.1895 25.2686-68.9209Q23.1445-68.6523 21.4844-66.9922L16.1621-61.6699Q14.502-59.9609 14.2334-57.8125Q13.9648-55.6641 15.1855-53.7598L18.9453-47.6562L18.6035-46.875L11.6699-45.166Q9.47266-44.6289 8.1543-42.8955Q6.83594-41.1621 6.83594-38.8672L6.83594-31.3477Q6.83594-29.0527 8.17871-27.3438Q9.52148-25.6348 11.6699-25.0488L18.7012-23.4375L18.9941-22.7051L15.2344-16.6016Q13.9648-14.6973 14.2578-12.5488Q14.5508-10.4004 16.2109-8.74023L21.5332-3.41797Q23.1934-1.75781 25.3418-1.46484Q27.4902-1.17188 29.4434-2.39258L35.5469-6.15234L36.4258-5.85938L38.0371 1.17188Q38.5742 3.36914 40.2588 4.6875Q41.9434 6.00586 44.2871 6.00586ZM44.9707-0.78125Q44.2871-0.78125 44.1895-1.41602L41.7969-10.9863Q39.9414-11.4746 38.2812-12.1582Q36.6211-12.8418 35.3516-13.7207L26.9043-8.49609Q26.416-8.1543 25.8789-8.64258L21.4844-13.0859Q20.9961-13.4766 21.3867-14.1113L26.5137-22.5098Q25.8301-23.7305 25.0977-25.3906Q24.3652-27.0508 23.877-28.9062L14.2578-31.25Q13.623-31.2988 13.623-32.0312L13.623-38.2812Q13.623-38.9648 14.2578-39.1113L23.8281-41.4062Q24.3164-43.4082 25.0977-45.1172Q25.8789-46.8262 26.416-47.9004L21.3379-56.25Q20.9473-56.8848 21.3867-57.373L25.8301-61.7188Q26.3184-62.1582 26.9043-61.8652L35.2539-56.7871Q36.5234-57.5684 38.2812-58.3008Q40.0391-59.0332 41.8457-59.5215L44.1895-69.0918Q44.2871-69.7266 44.9707-69.7266L51.3672-69.7266Q52.0508-69.7266 52.1484-69.0918L54.4922-59.4238Q56.3965-58.9355 58.0322-58.2275Q59.668-57.5195 60.9863-56.7383L69.4336-61.8652Q70.0195-62.1582 70.5078-61.7188L74.9512-57.373Q75.3906-56.8848 75-56.25L69.873-47.9004Q70.4102-46.8262 71.2158-45.1172Q72.0215-43.4082 72.4609-41.4062L82.0801-39.1113Q82.666-38.9648 82.666-38.2812L82.666-32.0312Q82.666-31.2988 82.0801-31.25L72.4121-28.9062Q71.9727-27.0508 71.2402-25.3906Q70.5078-23.7305 69.7754-22.5098L74.9512-14.1113Q75.293-13.4766 74.8535-13.0859L70.459-8.64258Q69.9219-8.1543 69.4336-8.49609L60.9375-13.7207Q59.668-12.8418 58.0322-12.1582Q56.3965-11.4746 54.4922-10.9863L52.1484-1.41602Q52.0508-0.78125 51.3672-0.78125ZM48.1445-20.6543Q52.1484-20.6543 55.4688-22.6318Q58.7891-24.6094 60.7666-27.9297Q62.7441-31.25 62.7441-35.2539Q62.7441-39.2578 60.7666-42.5293Q58.7891-45.8008 55.4688-47.7783Q52.1484-49.7559 48.1445-49.7559Q44.1406-49.7559 40.8447-47.7783Q37.5488-45.8008 35.5469-42.5293Q33.5449-39.2578 33.5449-35.2539Q33.5449-31.25 35.5469-27.9297Q37.5488-24.6094 40.8447-22.6318Q44.1406-20.6543 48.1445-20.6543ZM48.1445-27.3926Q45.9961-27.3926 44.2383-28.4668Q42.4805-29.541 41.4307-31.3232Q40.3809-33.1055 40.3809-35.2539Q40.3809-37.3535 41.4307-39.1357Q42.4805-40.918 44.2383-41.9678Q45.9961-43.0176 48.1445-43.0176Q50.2441-43.0176 52.002-41.9678Q53.7598-40.918 54.8096-39.1357Q55.8594-37.3535 55.8594-35.2539Q55.8594-33.1055 54.8096-31.3232Q53.7598-29.541 52.002-28.4668Q50.2441-27.3926 48.1445-27.3926Z"/>
  </g>
  <g id="Ultralight-S" transform="matrix(1 0 0 1 513.745 696)">
   <path d="M42.1074 3.91693L49.8222 3.91693Q51.4847 3.91693 52.5806 3.00713Q53.6766 2.09732 54.0779 0.354767L55.8708-7.40356L58.7479-8.46786L65.4831-4.20914Q66.9823-3.21503 68.3834-3.37181Q69.7845-3.52859 70.9869-4.7348L76.403-10.1479Q77.655-11.3083 77.7874-12.7304Q77.9198-14.1525 76.9714-15.6937L72.7089-22.3869L73.7732-25.2991L81.5315-27.092Q83.2741-27.4963 84.1858-28.5923Q85.0975-29.6883 85.0975-31.3477L85.0975-39.0488Q85.0975-40.7532 84.1877-41.8282Q83.2779-42.9031 81.5315-43.3044L73.7801-45.1042L72.7119-48.0194L76.9745-54.7134Q77.9228-56.2546 77.7905-57.6763Q77.6581-59.0981 76.4069-60.2623L70.99-65.6754Q69.7876-66.8816 68.3884-67.0364Q66.9891-67.1913 65.49-66.201L58.7509-61.9453L55.8708-63.0135L54.0779-70.7718Q53.6766-72.5143 52.5806-73.4241Q51.4847-74.334 49.8222-74.334L42.1074-74.334Q40.4449-74.334 39.3505-73.4241Q38.2561-72.5143 37.8555-70.7718L36.0626-63.0135L33.1337-61.9453L26.3939-66.201Q24.8947-67.1913 23.4974-67.0364Q22.1001-66.8816 20.8939-65.6754L15.4808-60.2623Q14.2296-59.0981 14.0972-57.6763Q13.9648-56.2546 14.9132-54.7134L19.1727-48.0194L18.1038-45.1042L10.3981-43.3044Q8.65555-42.9031 7.74574-41.8282Q6.83594-40.7532 6.83594-39.0488L6.83594-31.3477Q6.83594-29.6883 7.74727-28.5923Q8.6586-27.4963 10.3981-27.092L18.1107-25.2991L19.1757-22.3869L14.9162-15.6937Q13.9191-14.1525 14.0759-12.7304Q14.2326-11.3083 15.4846-10.1479L20.8977-4.7348Q22.0581-3.52859 23.4798-3.37181Q24.9016-3.21503 26.4008-4.20914L33.1398-8.46786L36.0626-7.40356L37.8555 0.354767Q38.2561 2.09732 39.3505 3.00713Q40.4449 3.91693 42.1074 3.91693ZM42.4278 1.71661Q40.3816 1.71661 39.9666-0.234985L37.9372-9.26056Q36.7172-9.65805 35.4656-10.1147Q34.214-10.5713 33.1268-11.0413L25.3601-6.1348Q23.6916-4.97589 22.155-6.50864L17.2157-11.451Q15.7738-12.886 16.8915-14.6111L21.7911-22.419Q21.3799-23.4581 20.8973-24.7097Q20.4147-25.9613 20.0172-27.1805L10.9886-29.2068Q9.03702-29.6638 9.03702-31.6681L9.03702-38.7352Q9.03702-40.7814 10.9886-41.2003L20.0134-43.2228Q20.4109-44.4527 20.8973-45.7077Q21.3837-46.9627 21.7842-47.9912L16.8877-55.7961Q15.7707-57.5203 17.2089-58.9622L22.1519-63.8985Q23.6847-65.4274 25.3601-64.2723L33.12-59.3758Q34.2079-59.8389 35.466-60.2989Q36.7241-60.759 37.9402-61.1565L39.9666-70.1813Q40.3816-72.1336 42.4278-72.1336L49.5056-72.1336Q51.5511-72.1336 51.9669-70.1813L53.9925-61.1496Q55.307-60.7521 56.5113-60.294Q57.7156-59.8358 58.7616-59.3719L66.5276-64.2723Q68.203-65.4274 69.7357-63.8985L74.6788-58.9622Q76.1169-57.5203 75-55.7961L70.1004-47.9912Q70.5917-46.9627 71.0567-45.7302Q71.5218-44.4977 71.9162-43.2228L80.899-41.2003Q82.8934-40.7814 82.8934-38.7352L82.8934-31.6681Q82.8934-29.6638 80.899-29.2068L71.9124-27.1805Q71.5187-25.9155 71.0587-24.6868Q70.5986-23.4581 70.0935-22.419L74.9969-14.6111Q76.1101-12.886 74.6719-11.451L69.7327-6.50864Q68.1961-4.97589 66.5276-6.1348L58.7578-11.0413Q57.7156-10.5713 56.5113-10.1147Q55.307-9.65805 53.9925-9.26056L51.9669-0.234985Q51.5511 1.71661 49.5056 1.71661ZM46.0106-20.5635Q50.0145-20.5635 53.3348-22.5636Q56.6551-24.5636 58.6552-27.9068Q60.6552-31.25 60.6552-35.2539Q60.6552-39.2578 58.6552-42.5522Q56.6551-45.8466 53.3348-47.8466Q50.0145-49.8466 46.0106-49.8466Q42.0067-49.8466 38.6654-47.8466Q35.3241-45.8466 33.3221-42.5522Q31.3202-39.2578 31.3202-35.2539Q31.3202-31.2042 33.3221-27.8839Q35.3241-24.5636 38.6425-22.5636Q41.9609-20.5635 46.0106-20.5635ZM46.0106-22.7608Q42.5903-22.7608 39.7655-24.4709Q36.9408-26.181 35.2325-29.0073Q33.5243-31.8336 33.5243-35.2539Q33.5243-38.6253 35.2325-41.4291Q36.9408-44.2329 39.7884-45.9412Q42.6361-47.6494 46.0106-47.6494Q49.3813-47.6494 52.2064-45.9412Q55.0316-44.2329 56.7398-41.4291Q58.448-38.6253 58.448-35.2539Q58.448-31.8336 56.7398-29.0073Q55.0316-26.181 52.2064-24.4709Q49.3813-22.7608 46.0106-22.7608Z"/>
  </g>
 </g>
</svg>
