<?xml version="1.0" encoding="UTF-8"?>
<!--Generator: Apple Native CoreSVG 175-->
<!DOCTYPE svg
PUBLIC "-//W3C//DTD SVG 1.1//EN"
       "http://www.w3.org/Graphics/SVG/1.1/DTD/svg11.dtd">
<svg version="1.1" xmlns="http://www.w3.org/2000/svg" xmlns:xlink="http://www.w3.org/1999/xlink" width="3300" height="2200">
 <!--glyph: "uni1002A4.medium", point size: 100.0, font version: "17.1d1e1", template writer version: "65.1"-->
 <g id="Notes">
  <rect height="2200" id="artboard" style="fill:white;opacity:1" width="3300" x="0" y="0"/>
  <line style="fill:none;stroke:black;opacity:1;stroke-width:0.5;" x1="263" x2="3036" y1="292" y2="292"/>
  <text style="stroke:none;fill:black;font-family:sans-serif;font-size:13;font-weight:bold;" transform="matrix(1 0 0 1 263 322)">Weight/Scale Variations</text>
  <text style="stroke:none;fill:black;font-family:sans-serif;font-size:13;text-anchor:middle;" transform="matrix(1 0 0 1 559.711 322)">Ultralight</text>
  <text style="stroke:none;fill:black;font-family:sans-serif;font-size:13;text-anchor:middle;" transform="matrix(1 0 0 1 856.422 322)">Thin</text>
  <text style="stroke:none;fill:black;font-family:sans-serif;font-size:13;text-anchor:middle;" transform="matrix(1 0 0 1 1153.13 322)">Light</text>
  <text style="stroke:none;fill:black;font-family:sans-serif;font-size:13;text-anchor:middle;" transform="matrix(1 0 0 1 1449.84 322)">Regular</text>
  <text style="stroke:none;fill:black;font-family:sans-serif;font-size:13;text-anchor:middle;" transform="matrix(1 0 0 1 1746.56 322)">Medium</text>
  <text style="stroke:none;fill:black;font-family:sans-serif;font-size:13;text-anchor:middle;" transform="matrix(1 0 0 1 2043.27 322)">Semibold</text>
  <text style="stroke:none;fill:black;font-family:sans-serif;font-size:13;text-anchor:middle;" transform="matrix(1 0 0 1 2339.98 322)">Bold</text>
  <text style="stroke:none;fill:black;font-family:sans-serif;font-size:13;text-anchor:middle;" transform="matrix(1 0 0 1 2636.69 322)">Heavy</text>
  <text style="stroke:none;fill:black;font-family:sans-serif;font-size:13;text-anchor:middle;" transform="matrix(1 0 0 1 2933.4 322)">Black</text>
  <line style="fill:none;stroke:black;opacity:1;stroke-width:0.5;" x1="263" x2="3036" y1="1903" y2="1903"/>
  <g transform="matrix(1 0 0 1 263 1933)">
   <path d="M9.24805 0.830078Q10.8691 0.830078 12.2949 0.214844Q13.7207-0.400391 14.8096-1.49414Q15.8984-2.58789 16.5186-4.01367Q17.1387-5.43945 17.1387-7.05078Q17.1387-8.66211 16.5186-10.0879Q15.8984-11.5137 14.8047-12.6074Q13.7109-13.7012 12.2852-14.3164Q10.8594-14.9316 9.23828-14.9316Q7.62695-14.9316 6.20117-14.3164Q4.77539-13.7012 3.69141-12.6074Q2.60742-11.5137 1.9873-10.0879Q1.36719-8.66211 1.36719-7.05078Q1.36719-5.43945 1.9873-4.01367Q2.60742-2.58789 3.69629-1.49414Q4.78516-0.400391 6.21094 0.214844Q7.63672 0.830078 9.24805 0.830078ZM9.24805-0.654297Q7.91992-0.654297 6.7627-1.14746Q5.60547-1.64062 4.73145-2.51953Q3.85742-3.39844 3.36426-4.56055Q2.87109-5.72266 2.87109-7.05078Q2.87109-8.37891 3.35938-9.54102Q3.84766-10.7031 4.72168-11.582Q5.5957-12.4609 6.75293-12.9541Q7.91016-13.4473 9.23828-13.4473Q10.5762-13.4473 11.7334-12.9541Q12.8906-12.4609 13.7695-11.582Q14.6484-10.7031 15.1465-9.54102Q15.6445-8.37891 15.6445-7.05078Q15.6445-5.72266 15.1514-4.56055Q14.6582-3.39844 13.7842-2.51953Q12.9102-1.64062 11.748-1.14746Q10.5859-0.654297 9.24805-0.654297ZM5.6543-7.05078Q5.6543-6.72852 5.85938-6.52832Q6.06445-6.32812 6.40625-6.32812L8.51562-6.32812L8.51562-4.20898Q8.51562-3.88672 8.71094-3.67676Q8.90625-3.4668 9.23828-3.4668Q9.56055-3.4668 9.77051-3.67676Q9.98047-3.88672 9.98047-4.20898L9.98047-6.32812L12.0898-6.32812Q12.4219-6.32812 12.627-6.52832Q12.832-6.72852 12.832-7.05078Q12.832-7.38281 12.627-7.58789Q12.4219-7.79297 12.0898-7.79297L9.98047-7.79297L9.98047-9.90234Q9.98047-10.2344 9.77051-10.4443Q9.56055-10.6543 9.23828-10.6543Q8.90625-10.6543 8.71094-10.4443Q8.51562-10.2344 8.51562-9.90234L8.51562-7.79297L6.40625-7.79297Q6.06445-7.79297 5.85938-7.58789Q5.6543-7.38281 5.6543-7.05078Z"/>
  </g>
  <g transform="matrix(1 0 0 1 281.867 1933)">
   <path d="M11.709 2.91016Q13.75 2.91016 15.5518 2.12891Q17.3535 1.34766 18.7305-0.0292969Q20.1074-1.40625 20.8887-3.20801Q21.6699-5.00977 21.6699-7.05078Q21.6699-9.0918 20.8887-10.8936Q20.1074-12.6953 18.7305-14.0723Q17.3535-15.4492 15.5469-16.2305Q13.7402-17.0117 11.6992-17.0117Q9.6582-17.0117 7.85645-16.2305Q6.05469-15.4492 4.68262-14.0723Q3.31055-12.6953 2.5293-10.8936Q1.74805-9.0918 1.74805-7.05078Q1.74805-5.00977 2.5293-3.20801Q3.31055-1.40625 4.6875-0.0292969Q6.06445 1.34766 7.86621 2.12891Q9.66797 2.91016 11.709 2.91016ZM11.709 1.25Q9.98047 1.25 8.47656 0.605469Q6.97266-0.0390625 5.83496-1.17676Q4.69727-2.31445 4.05762-3.81836Q3.41797-5.32227 3.41797-7.05078Q3.41797-8.7793 4.05762-10.2832Q4.69727-11.7871 5.83008-12.9297Q6.96289-14.0723 8.4668-14.7119Q9.9707-15.3516 11.6992-15.3516Q13.4277-15.3516 14.9316-14.7119Q16.4355-14.0723 17.5781-12.9297Q18.7207-11.7871 19.3652-10.2832Q20.0098-8.7793 20.0098-7.05078Q20.0098-5.32227 19.3701-3.81836Q18.7305-2.31445 17.5928-1.17676Q16.4551-0.0390625 14.9463 0.605469Q13.4375 1.25 11.709 1.25ZM7.17773-7.05078Q7.17773-6.69922 7.41211-6.47461Q7.64648-6.25 8.01758-6.25L10.8887-6.25L10.8887-3.36914Q10.8887-2.99805 11.1133-2.76855Q11.3379-2.53906 11.6895-2.53906Q12.0605-2.53906 12.29-2.76855Q12.5195-2.99805 12.5195-3.36914L12.5195-6.25L15.4004-6.25Q15.7715-6.25 16.001-6.47461Q16.2305-6.69922 16.2305-7.05078Q16.2305-7.42188 16.001-7.65137Q15.7715-7.88086 15.4004-7.88086L12.5195-7.88086L12.5195-10.752Q12.5195-11.1328 12.29-11.3623Q12.0605-11.5918 11.6895-11.5918Q11.3379-11.5918 11.1133-11.3574Q10.8887-11.123 10.8887-10.752L10.8887-7.88086L8.01758-7.88086Q7.63672-7.88086 7.40723-7.65137Q7.17773-7.42188 7.17773-7.05078Z"/>
  </g>
  <g transform="matrix(1 0 0 1 305.646 1933)">
   <path d="M14.9707 5.66406Q17.0605 5.66406 18.96 5.01465Q20.8594 4.36523 22.4512 3.19336Q24.043 2.02148 25.2197 0.429688Q26.3965-1.16211 27.0459-3.06641Q27.6953-4.9707 27.6953-7.05078Q27.6953-9.14062 27.0459-11.04Q26.3965-12.9395 25.2197-14.5312Q24.043-16.123 22.4512-17.2998Q20.8594-18.4766 18.9551-19.126Q17.0508-19.7754 14.9609-19.7754Q12.8711-19.7754 10.9717-19.126Q9.07227-18.4766 7.48535-17.2998Q5.89844-16.123 4.72168-14.5312Q3.54492-12.9395 2.90039-11.04Q2.25586-9.14062 2.25586-7.05078Q2.25586-4.9707 2.90527-3.06641Q3.55469-1.16211 4.72656 0.429688Q5.89844 2.02148 7.49023 3.19336Q9.08203 4.36523 10.9814 5.01465Q12.8809 5.66406 14.9707 5.66406ZM14.9707 3.84766Q13.1641 3.84766 11.5283 3.2959Q9.89258 2.74414 8.53516 1.74805Q7.17773 0.751953 6.17676-0.610352Q5.17578-1.97266 4.62891-3.6084Q4.08203-5.24414 4.08203-7.05078Q4.08203-8.86719 4.62891-10.5029Q5.17578-12.1387 6.17188-13.501Q7.16797-14.8633 8.52539-15.8594Q9.88281-16.8555 11.5186-17.4023Q13.1543-17.9492 14.9609-17.9492Q16.7773-17.9492 18.4131-17.4023Q20.0488-16.8555 21.4111-15.8594Q22.7734-14.8633 23.7695-13.501Q24.7656-12.1387 25.3174-10.5029Q25.8691-8.86719 25.8691-7.05078Q25.8789-5.24414 25.332-3.6084Q24.7852-1.97266 23.7842-0.610352Q22.7832 0.751953 21.4209 1.74805Q20.0586 2.74414 18.4229 3.2959Q16.7871 3.84766 14.9707 3.84766ZM9.19922-7.05078Q9.19922-6.66992 9.45801-6.4209Q9.7168-6.17188 10.1172-6.17188L14.0625-6.17188L14.0625-2.2168Q14.0625-1.81641 14.3115-1.55762Q14.5605-1.29883 14.9512-1.29883Q15.3516-1.29883 15.6104-1.55273Q15.8691-1.80664 15.8691-2.2168L15.8691-6.17188L19.8242-6.17188Q20.2246-6.17188 20.4785-6.4209Q20.7324-6.66992 20.7324-7.05078Q20.7324-7.46094 20.4785-7.71484Q20.2246-7.96875 19.8242-7.96875L15.8691-7.96875L15.8691-11.9141Q15.8691-12.3242 15.6104-12.583Q15.3516-12.8418 14.9512-12.8418Q14.5605-12.8418 14.3115-12.583Q14.0625-12.3242 14.0625-11.9141L14.0625-7.96875L10.1172-7.96875Q9.70703-7.96875 9.45312-7.71484Q9.19922-7.46094 9.19922-7.05078Z"/>
  </g>
  <text style="stroke:none;fill:black;font-family:sans-serif;font-size:13;font-weight:bold;" transform="matrix(1 0 0 1 263 1953)">Design Variations</text>
  <text style="stroke:none;fill:black;font-family:sans-serif;font-size:13;" transform="matrix(1 0 0 1 263 1971)">Symbols are supported in up to nine weights and three scales.</text>
  <text style="stroke:none;fill:black;font-family:sans-serif;font-size:13;" transform="matrix(1 0 0 1 263 1989)">For optimal layout with text and other symbols, vertically align</text>
  <text style="stroke:none;fill:black;font-family:sans-serif;font-size:13;" transform="matrix(1 0 0 1 263 2007)">symbols with the adjacent text.</text>
  <line style="fill:none;stroke:#00AEEF;stroke-width:0.5;opacity:1.0;" x1="776" x2="776" y1="1919" y2="1933"/>
  <g transform="matrix(1 0 0 1 776 1933)">
   <path d="M3.31055 0.15625Q3.70117 0.15625 3.91602-0.00976562Q4.13086-0.175781 4.26758-0.585938L5.52734-4.0332L11.2891-4.0332L12.5488-0.585938Q12.6855-0.175781 12.9004-0.00976562Q13.1152 0.15625 13.4961 0.15625Q13.8867 0.15625 14.1162-0.0585938Q14.3457-0.273438 14.3457-0.644531Q14.3457-0.869141 14.2383-1.17188L9.6582-13.3691Q9.48242-13.8184 9.17969-14.043Q8.87695-14.2676 8.4082-14.2676Q7.5-14.2676 7.17773-13.3789L2.59766-1.16211Q2.49023-0.859375 2.49023-0.634766Q2.49023-0.263672 2.70996-0.0537109Q2.92969 0.15625 3.31055 0.15625ZM6.00586-5.51758L8.37891-12.0898L8.42773-12.0898L10.8008-5.51758Z"/>
  </g>
  <line style="fill:none;stroke:#00AEEF;stroke-width:0.5;opacity:1.0;" x1="793.197" x2="793.197" y1="1919" y2="1933"/>
  <text style="stroke:none;fill:black;font-family:sans-serif;font-size:13;font-weight:bold;" transform="matrix(1 0 0 1 776 1953)">Margins</text>
  <text style="stroke:none;fill:black;font-family:sans-serif;font-size:13;" transform="matrix(1 0 0 1 776 1971)">Leading and trailing margins on the left and right side of each symbol</text>
  <text style="stroke:none;fill:black;font-family:sans-serif;font-size:13;" transform="matrix(1 0 0 1 776 1989)">can be adjusted by modifying the x-location of the margin guidelines.</text>
  <text style="stroke:none;fill:black;font-family:sans-serif;font-size:13;" transform="matrix(1 0 0 1 776 2007)">Modifications are automatically applied proportionally to all</text>
  <text style="stroke:none;fill:black;font-family:sans-serif;font-size:13;" transform="matrix(1 0 0 1 776 2025)">scales and weights.</text>
  <g transform="matrix(1 0 0 1 1289 1933)">
   <path d="M2.8418 1.86523L4.54102 3.57422Q5.18555 4.22852 5.90332 4.17969Q6.62109 4.13086 7.31445 3.35938L18.0078-8.42773L17.041-9.4043L6.42578 2.27539Q6.16211 2.57812 5.89355 2.61719Q5.625 2.65625 5.27344 2.30469L4.10156 1.14258Q3.75 0.791016 3.79395 0.522461Q3.83789 0.253906 4.14062-0.0195312L15.6152-10.8203L14.6387-11.7871L3.04688-0.898438Q2.30469-0.214844 2.25098 0.498047Q2.19727 1.21094 2.8418 1.86523ZM9.25781-16.3281Q8.94531-16.0254 8.90625-15.6348Q8.86719-15.2441 9.04297-14.9512Q9.21875-14.6777 9.55566-14.541Q9.89258-14.4043 10.3809-14.5215Q11.4746-14.7754 12.5977-14.7314Q13.7207-14.6875 14.7949-13.9844L14.209-12.5293Q13.9551-11.9043 14.0674-11.4404Q14.1797-10.9766 14.5801-10.5664L16.875-8.25195Q17.2363-7.88086 17.5781-7.82227Q17.9199-7.76367 18.3398-7.8418L19.4043-8.03711L20.0684-7.36328L20.0293-6.80664Q20-6.43555 20.1221-6.12305Q20.2441-5.81055 20.6055-5.44922L21.3672-4.70703Q21.7285-4.3457 22.1533-4.33105Q22.5781-4.31641 22.9297-4.66797L25.8398-7.58789Q26.1914-7.93945 26.1816-8.35449Q26.1719-8.76953 25.8105-9.13086L25.0391-9.89258Q24.6875-10.2539 24.3799-10.3857Q24.0723-10.5176 23.7109-10.4883L23.1348-10.4395L22.4902-11.0742L22.7344-12.1973Q22.832-12.6172 22.6953-12.9834Q22.5586-13.3496 22.1191-13.7891L19.9219-15.9766Q18.6719-17.2168 17.2607-17.8369Q15.8496-18.457 14.4189-18.4814Q12.9883-18.5059 11.665-17.959Q10.3418-17.4121 9.25781-16.3281ZM10.752-15.957Q11.6602-16.6211 12.7002-16.9043Q13.7402-17.1875 14.8047-17.085Q15.8691-16.9824 16.8701-16.5137Q17.8711-16.0449 18.7012-15.2051L21.1328-12.793Q21.3086-12.6172 21.3525-12.4512Q21.3965-12.2852 21.3379-12.0312L21.0156-10.5469L22.5195-9.0625L23.5059-9.12109Q23.6914-9.13086 23.7891-9.09668Q23.8867-9.0625 24.0332-8.91602L24.6094-8.33984L22.168-5.89844L21.5918-6.47461Q21.4453-6.62109 21.4062-6.71875Q21.3672-6.81641 21.377-7.01172L21.4453-7.98828L19.9512-9.47266L18.4277-9.21875Q18.1836-9.16992 18.042-9.2041Q17.9004-9.23828 17.7148-9.41406L15.7129-11.416Q15.5176-11.5918 15.4932-11.7529Q15.4688-11.9141 15.5859-12.1875L16.4648-14.2773Q15.293-15.3711 13.8281-15.791Q12.3633-16.2109 10.8398-15.7617Q10.7227-15.7324 10.6885-15.8057Q10.6543-15.8789 10.752-15.957Z"/>
  </g>
  <text style="stroke:none;fill:black;font-family:sans-serif;font-size:13;font-weight:bold;" transform="matrix(1 0 0 1 1289 1953)">Exporting</text>
  <text style="stroke:none;fill:black;font-family:sans-serif;font-size:13;" transform="matrix(1 0 0 1 1289 1971)">Symbols should be outlined when exporting to ensure the</text>
  <text style="stroke:none;fill:black;font-family:sans-serif;font-size:13;" transform="matrix(1 0 0 1 1289 1989)">design is preserved when submitting to Xcode.</text>
  <text id="template-version" style="stroke:none;fill:black;font-family:sans-serif;font-size:13;text-anchor:end;" transform="matrix(1 0 0 1 3036 1933)">Template v.2.0</text>
  <text style="stroke:none;fill:black;font-family:sans-serif;font-size:13;text-anchor:end;" transform="matrix(1 0 0 1 3036 1951)">Requires Xcode 12 or greater</text>
  <text id="descriptive-name" style="stroke:none;fill:black;font-family:sans-serif;font-size:13;text-anchor:end;" transform="matrix(1 0 0 1 3036 1969)">Generated from speaker.wave.1</text>
  <text style="stroke:none;fill:black;font-family:sans-serif;font-size:13;text-anchor:end;" transform="matrix(1 0 0 1 3036 1987)">Typeset at 100 points</text>
  <text style="stroke:none;fill:black;font-family:sans-serif;font-size:13;" transform="matrix(1 0 0 1 263 726)">Small</text>
  <text style="stroke:none;fill:black;font-family:sans-serif;font-size:13;" transform="matrix(1 0 0 1 263 1156)">Medium</text>
  <text style="stroke:none;fill:black;font-family:sans-serif;font-size:13;" transform="matrix(1 0 0 1 263 1586)">Large</text>
 </g>
 <g id="Guides">
  <g id="H-reference" style="fill:#27AAE1;stroke:none;" transform="matrix(1 0 0 1 339 696)">
   <path d="M0.976562 0L3.66211 0L29.3457-67.1387L30.0293-67.1387L30.0293-70.459L28.125-70.459ZM11.6699-24.4629L46.9727-24.4629L46.2402-26.709L12.4512-26.709ZM55.127 0L57.7637 0L30.6152-70.459L29.4434-70.459L29.4434-67.1387Z"/>
  </g>
  <line id="Baseline-S" style="fill:none;stroke:#27AAE1;opacity:1;stroke-width:0.5;" x1="263" x2="3036" y1="696" y2="696"/>
  <line id="Capline-S" style="fill:none;stroke:#27AAE1;opacity:1;stroke-width:0.5;" x1="263" x2="3036" y1="625.541" y2="625.541"/>
  <g id="H-reference" style="fill:#27AAE1;stroke:none;" transform="matrix(1 0 0 1 339 1126)">
   <path d="M0.976562 0L3.66211 0L29.3457-67.1387L30.0293-67.1387L30.0293-70.459L28.125-70.459ZM11.6699-24.4629L46.9727-24.4629L46.2402-26.709L12.4512-26.709ZM55.127 0L57.7637 0L30.6152-70.459L29.4434-70.459L29.4434-67.1387Z"/>
  </g>
  <line id="Baseline-M" style="fill:none;stroke:#27AAE1;opacity:1;stroke-width:0.5;" x1="263" x2="3036" y1="1126" y2="1126"/>
  <line id="Capline-M" style="fill:none;stroke:#27AAE1;opacity:1;stroke-width:0.5;" x1="263" x2="3036" y1="1055.54" y2="1055.54"/>
  <g id="H-reference" style="fill:#27AAE1;stroke:none;" transform="matrix(1 0 0 1 339 1556)">
   <path d="M0.976562 0L3.66211 0L29.3457-67.1387L30.0293-67.1387L30.0293-70.459L28.125-70.459ZM11.6699-24.4629L46.9727-24.4629L46.2402-26.709L12.4512-26.709ZM55.127 0L57.7637 0L30.6152-70.459L29.4434-70.459L29.4434-67.1387Z"/>
  </g>
  <line id="Baseline-L" style="fill:none;stroke:#27AAE1;opacity:1;stroke-width:0.5;" x1="263" x2="3036" y1="1556" y2="1556"/>
  <line id="Capline-L" style="fill:none;stroke:#27AAE1;opacity:1;stroke-width:0.5;" x1="263" x2="3036" y1="1485.54" y2="1485.54"/>
  <line id="left-margin" style="fill:none;stroke:#00AEEF;stroke-width:0.5;opacity:1.0;" x1="1391.58" x2="1391.58" y1="1030.79" y2="1150.12"/>
  <line id="right-margin" style="fill:none;stroke:#00AEEF;stroke-width:0.5;opacity:1.0;" x1="1508.11" x2="1508.11" y1="1030.79" y2="1150.12"/>
 </g>
 <g id="Symbols">
  <g id="Black-L" transform="matrix(1 0 0 1 2848.29 1556)">
   <path d="M38.998-4.3253L56.2566-4.3253Q56.8167-4.3253 57.2121-3.95188L82.2984 18.4846Q85.4301 21.2414 88.0897 22.5718Q90.7492 23.9023 93.9628 23.9023Q98.893 23.9023 102.225 20.5769Q105.557 17.2516 105.557 12.3227L105.557-82.599Q105.557-87.5291 102.214-90.9069Q98.8722-94.2847 93.9201-94.2847Q90.883-94.2847 88.2467-92.9803Q85.6104-91.6759 82.2984-88.7414L57.2121-66.4748Q56.7024-66.0455 56.2566-66.0455L38.998-66.0455Q30.3163-66.0455 25.7327-61.2544Q21.1492-56.4633 21.1492-47.4016L21.1492-22.9447Q21.1492-13.905 25.7327-9.11516Q30.3163-4.3253 38.998-4.3253ZM42.1802-22.0272Q41.2585-22.0272 40.7152-22.6016Q40.1719-23.1761 40.1719-24.0393L40.1719-46.3289Q40.1719-47.2519 40.7152-47.7971Q41.2585-48.3424 42.1802-48.3424L60.3162-48.3424Q61.8184-48.3424 62.9314-48.7218Q64.0444-49.1012 65.1119-50.1273L84.753-68.1709Q84.919-68.3343 85.1621-68.4289Q85.4053-68.5236 85.6505-68.5236Q86.5766-68.5236 86.5766-67.5377L86.5766-2.80829Q86.5766-1.74202 85.6725-1.74202Q85.1666-1.74202 84.7543-2.17257L65.1119-20.2436Q63.2025-22.0272 60.3162-22.0272ZM127.294-3.49552Q130.623-1.48311 134.193-2.14418Q137.763-2.80525 139.838-5.68941Q144.216-11.797 146.64-19.3946Q149.064-26.9923 149.064-35.249Q149.064-43.5056 146.64-51.1221Q144.216-58.7386 139.838-64.8669Q137.763-67.6927 134.193-68.3538Q130.623-69.0148 127.294-66.9817Q123.745-64.828 123.047-60.8167Q122.35-56.8055 125.364-51.7162Q127.527-48.2299 128.678-44.0058Q129.829-39.7817 129.829-35.249Q129.829-30.7747 128.668-26.5317Q127.507-22.2888 125.364-18.7817Q122.35-13.7509 123.047-9.70006Q123.745-5.64925 127.294-3.49552Z"/>
  </g>
  <g id="Heavy-L" transform="matrix(1 0 0 1 2554.06 1556)">
   <path d="M37.1695-5.6569L54.6618-5.6569Q55.306-5.6569 55.7713-5.22741L81.6897 17.9619Q84.5886 20.5186 87.0533 21.754Q89.5181 22.9894 92.4769 22.9894Q96.9447 22.9894 99.9389 19.992Q102.933 16.9946 102.933 12.5329L102.933-82.7687Q102.933-87.2364 99.924-90.3112Q96.9149-93.3861 92.4114-93.3861Q89.5924-93.3861 87.1828-92.1446Q84.7732-90.9032 81.6897-88.1739L55.7713-65.1475Q55.2288-64.6855 54.6618-64.6855L37.1695-64.6855Q29.0813-64.6855 24.8499-60.2695Q20.6184-55.8535 20.6184-47.3725L20.6184-22.922Q20.6184-14.4768 24.8499-10.0668Q29.0813-5.6569 37.1695-5.6569ZM39.6982-21.2089Q38.5589-21.2089 37.9464-21.8527Q37.334-22.4965 37.334-23.5912L37.334-46.7391Q37.334-47.8845 37.9464-48.506Q38.5589-49.1275 39.6982-49.1275L58.2976-49.1275Q59.7452-49.1275 60.8308-49.4907Q61.9165-49.854 62.9977-50.8758L84.4205-70.4986Q84.6055-70.6715 84.8558-70.785Q85.1061-70.8984 85.3655-70.8984Q86.2831-70.8984 86.2831-69.9301L86.2831-0.457728Q86.2831 0.590936 85.4013 0.590936Q84.877 0.590936 84.4266 0.122862L62.9977-19.4666Q61.0974-21.2089 58.2976-21.2089ZM124.663-4.66518Q127.558-2.88849 130.719-3.47328Q133.879-4.05808 135.745-6.65904Q139.944-12.4539 142.288-19.835Q144.632-27.2162 144.632-35.2399Q144.632-43.2637 142.288-50.6523Q139.944-58.0409 135.745-63.8655Q133.879-66.4218 130.719-67.0066Q127.558-67.5914 124.663-65.7849Q121.535-63.8446 120.941-60.3211Q120.348-56.7977 122.978-52.4741Q125.3-48.8833 126.537-44.456Q127.774-40.0287 127.774-35.2399Q127.774-30.4958 126.522-26.0611Q125.27-21.6263 122.978-18.0058Q120.348-13.7268 120.941-10.1662Q121.535-6.60555 124.663-4.66518Z"/>
  </g>
  <g id="Bold-L" transform="matrix(1 0 0 1 2260.38 1556)">
   <path d="M34.7844-7.3019L52.613-7.3019Q53.3772-7.3019 53.9379-6.79243L80.8821 17.3109Q83.4631 19.5979 85.6753 20.7111Q87.8876 21.8243 90.5241 21.8243Q94.4199 21.8243 96.9946 19.2254Q99.5694 16.6265 99.5694 12.7449L99.5694-82.9527Q99.5694-86.8486 96.9761-89.5471Q94.3829-92.2456 90.4359-92.2456Q87.9012-92.2456 85.7739-91.0918Q83.6467-89.9381 80.8821-87.496L53.9379-63.5015Q53.3473-62.9913 52.613-62.9913L34.7844-62.9913Q27.4609-62.9913 23.6781-59.0512Q19.8952-55.111 19.8952-47.3975L19.8952-22.816Q19.8952-15.1538 23.6781-11.2278Q27.4609-7.3019 34.7844-7.3019ZM36.5619-20.1984Q35.1475-20.1984 34.4533-20.9285Q33.7592-21.6586 33.7592-23.0438L33.7592-47.2209Q33.7592-48.6496 34.4533-49.3651Q35.1475-50.0805 36.5619-50.0805L55.6683-50.0805Q57.0633-50.0805 58.1227-50.4243Q59.182-50.7681 60.2787-51.7908L83.8472-73.327Q84.0649-73.5163 84.3275-73.6579Q84.5901-73.7995 84.8741-73.7995Q85.7936-73.7995 85.7936-72.8366L85.7936 2.39333Q85.7936 3.43669 84.9253 3.43669Q84.3773 3.43669 83.8614 2.91225L60.2787-18.5024Q58.3856-20.1984 55.6683-20.1984ZM121.495-6.02255Q123.868-4.53544 126.514-5.02628Q129.16-5.51711 130.758-7.74658Q134.756-13.1858 137.021-20.3147Q139.286-27.4437 139.286-35.2327Q139.286-43.0218 137.021-50.1468Q134.756-57.2718 130.758-62.748Q129.16-64.9483 126.514-65.4391Q123.868-65.93 121.495-64.4059Q118.893-62.7416 118.424-59.8214Q117.955-56.9013 120.117-53.4889Q122.662-49.7178 124.009-45.0446Q125.356-40.3713 125.356-35.2327Q125.356-30.1233 123.991-25.4539Q122.625-20.7846 120.117-16.9766Q117.955-13.5933 118.424-10.6401Q118.893-7.68683 121.495-6.02255Z"/>
  </g>
  <g id="Semibold-L" transform="matrix(1 0 0 1 1965.76 1556)">
   <path d="M33.1401-8.43595L51.2006-8.43595Q52.0475-8.43595 52.674-7.87134L80.3254 16.8621Q82.6871 18.9631 84.7253 19.9921Q86.7635 21.0211 89.1778 21.0211Q92.6793 21.0211 94.9649 18.6969Q97.2505 16.3727 97.2505 12.8911L97.2505-83.0796Q97.2505-86.5812 94.9439-89.0202Q92.6373-91.4593 89.0739-91.4593Q86.7353-91.4593 84.8027-90.366Q82.8701-89.2727 80.3254-87.0286L52.674-62.3668Q52.0501-61.8234 51.2006-61.8234L33.1401-61.8234Q26.3438-61.8234 22.8702-58.2112Q19.3966-54.5991 19.3966-47.4148L19.3966-22.743Q19.3966-15.6205 22.8702-12.0282Q26.3438-8.43595 33.1401-8.43595ZM34.3998-19.5019Q32.7957-19.5019 32.0452-20.2914Q31.2948-21.0809 31.2948-22.6665L31.2948-47.5531Q31.2948-49.1771 32.0452-49.9574Q32.7957-50.7376 34.3998-50.7376L53.8556-50.7376Q55.2144-50.7376 56.2557-51.0679Q57.297-51.3982 58.4043-52.4216L83.4519-75.2769Q83.6923-75.4775 83.9633-75.6386Q84.2344-75.7996 84.5353-75.7996Q85.4561-75.7996 85.4561-74.8403L85.4561 4.35884Q85.4561 5.39854 84.5971 5.39854Q84.0329 5.39854 83.4718 4.83523L58.4043-17.8377Q56.5162-19.5019 53.8556-19.5019ZM119.311-6.95831Q121.324-5.67084 123.615-6.0969Q125.906-6.52297 127.32-8.49633Q131.18-13.6904 133.39-20.6454Q135.6-27.6005 135.6-35.2277Q135.6-42.855 133.39-49.7983Q131.18-56.7417 127.32-61.9777Q125.906-63.9325 123.615-64.3586Q121.324-64.7846 119.311-63.4552Q117.072-61.9812 116.689-59.477Q116.306-56.9727 118.144-54.1884Q120.843-50.2932 122.267-45.4503Q123.69-40.6075 123.69-35.2277Q123.69-29.8665 122.246-25.0354Q120.801-20.2043 118.144-16.267Q116.306-13.5013 116.689-10.9668Q117.072-8.43225 119.311-6.95831Z"/>
  </g>
  <g id="Medium-L" transform="matrix(1 0 0 1 1670.63 1556)">
   <path d="M31.8934-9.29584L50.1297-9.29584Q51.0393-9.29584 51.7156-8.68942L79.9033 16.5218Q82.0988 18.4817 84.005 19.4469Q85.9112 20.4121 88.157 20.4121Q91.3595 20.4121 93.4258 18.2962Q95.4922 16.1803 95.4922 13.0019L95.4922-83.1758Q95.4922-86.3784 93.403-88.6208Q91.3138-90.8631 88.0413-90.8631Q85.8512-90.8631 84.0662-89.8157Q82.2812-88.7682 79.9033-86.6742L51.7156-61.5064Q51.0666-60.9378 50.1297-60.9378L31.8934-60.9378Q25.4968-60.9378 22.2577-57.5744Q19.0186-54.211 19.0186-47.4279L19.0186-22.6876Q19.0186-15.9744 22.2577-12.6351Q25.4968-9.29584 31.8934-9.29584ZM32.7604-18.9737Q31.0124-18.9737 30.2193-19.8083Q29.4262-20.6429 29.4262-22.3803L29.4262-47.805Q29.4262-49.5771 30.2193-50.4064Q31.0124-51.2358 32.7604-51.2358L52.4812-51.2358Q53.8125-51.2358 54.8401-51.5559Q55.8676-51.876 56.983-52.8999L83.1522-76.7554Q83.4097-76.9646 83.6872-77.1403Q83.9647-77.3161 84.2784-77.3161Q85.2002-77.3161 85.2002-76.3596L85.2002 5.84916Q85.2002 6.88609 84.3483 6.88609Q83.7717 6.88609 83.1764 6.29332L56.983-17.3337Q55.0986-18.9737 52.4812-18.9737ZM117.655-7.66785Q119.394-6.53175 121.417-6.9087Q123.44-7.28564 124.713-9.06482Q128.468-14.073 130.637-20.8962Q132.806-27.7193 132.806-35.2239Q132.806-42.7286 130.637-49.5341Q128.468-56.3397 124.713-61.3936Q123.44-63.1623 121.417-63.5392Q119.394-63.9161 117.655-62.7343Q115.691-61.4047 115.373-59.2157Q115.055-57.0268 116.648-54.7188Q119.464-50.7294 120.945-45.758Q122.426-40.7866 122.426-35.2239Q122.426-29.6718 120.922-24.7181Q119.419-19.7643 116.648-15.7291Q115.055-13.4316 115.373-11.2145Q115.691-8.99747 117.655-7.66785Z"/>
  </g>
  <g id="Regular-L" transform="matrix(1 0 0 1 1375.99 1556)">
   <path d="M30.2672-10.4174L48.7328-10.4174Q49.7242-10.4174 50.4656-9.75648L79.3527 16.078Q81.3313 17.8539 83.0654 18.7358Q84.7995 19.6177 86.8255 19.6177Q89.6381 19.6177 91.4184 17.7735Q93.1987 15.9293 93.1987 13.1464L93.1987-83.3013Q93.1987-86.1139 91.3931-88.0997Q89.5874-90.0855 86.6944-90.0855Q84.6981-90.0855 83.1056-89.0979Q81.5131-88.1102 79.3527-86.212L50.4656-60.3842Q49.7837-59.7827 48.7328-59.7827L30.2672-59.7827Q24.392-59.7827 21.4587-56.7437Q18.5255-53.7047 18.5255-47.4449L18.5255-22.6153Q18.5255-16.4359 21.4587-13.4267Q24.392-10.4174 30.2672-10.4174ZM30.622-18.2848Q28.6865-18.2848 27.8377-19.1782Q26.9888-20.0716 26.9888-22.0071L26.9888-48.1335Q26.9888-50.0988 27.8377-50.9922Q28.6865-51.8856 30.622-51.8856L50.6884-51.8856Q51.9839-51.8856 52.9936-52.1924Q54.0032-52.4993 55.1291-53.5238L82.7613-78.6839Q83.0411-78.9042 83.327-79.0992Q83.6128-79.2942 83.9433-79.2942Q84.8665-79.2942 84.8665-78.3413L84.8665 7.79307Q84.8665 8.82638 84.0237 8.82638Q83.4311 8.82638 82.7911 8.19517L55.1291-16.6764Q53.2497-18.2848 50.6884-18.2848ZM115.496-8.59332Q116.878-7.65467 118.55-7.96756Q120.222-8.28044 121.313-9.80633Q124.932-14.572 127.046-21.2232Q129.161-27.8744 129.161-35.219Q129.161-42.5636 127.046-49.1895Q124.932-55.8153 121.313-60.6317Q120.222-62.1576 118.55-62.4705Q116.878-62.7834 115.496-61.794Q113.889-60.6527 113.657-58.875Q113.424-57.0974 114.697-55.4107Q117.666-51.2984 119.222-46.1593Q120.778-41.0201 120.778-35.219Q120.778-29.4179 119.196-24.3041Q117.615-19.1903 114.697-15.0273Q113.424-13.3406 113.657-11.5377Q113.889-9.7347 115.496-8.59332Z"/>
  </g>
  <g id="Light-L" transform="matrix(1 0 0 1 1081.11 1556)">
   <path d="M27.8456-11.5256L46.8448-11.5256Q48.0209-11.5256 48.8854-10.7415L78.4497 15.606Q80.0179 17.0536 81.5057 17.8226Q82.9935 18.5916 84.7527 18.5916Q87.1754 18.5916 88.6582 16.9732Q90.141 15.3547 90.141 12.9823L90.141-83.2603Q90.141-85.683 88.6431-87.402Q87.1453-89.121 84.6422-89.121Q82.9332-89.121 81.5459-88.2565Q80.1587-87.3919 78.4497-85.9041L48.8854-59.2349Q48.1214-58.5514 46.8448-58.5514L27.8456-58.5514Q22.6886-58.5514 20.1453-55.9126Q17.602-53.2738 17.602-47.8554L17.602-22.0407Q17.602-16.7027 20.1453-14.1142Q22.6886-11.5256 27.8456-11.5256ZM28.0567-17.6075Q25.8955-17.6075 25.0159-18.5625Q24.1363-19.5175 24.1363-21.6788L24.1363-48.2977Q24.1363-50.5092 25.0159-51.4642Q25.8955-52.4192 28.0567-52.4192L48.0411-52.4192Q49.3982-52.4192 50.4386-52.7158Q51.479-53.0123 52.6049-54.0779L81.3248-80.2846Q81.6867-80.546 82.0033-80.7922Q82.32-81.0385 82.712-81.0385Q83.7172-81.0385 83.7172-79.983L83.7172 9.37326Q83.7172 10.5092 82.7924 10.5092Q82.1792 10.5092 81.375 9.77536L52.6049-15.9991Q50.705-17.6075 48.0411-17.6075ZM113.895-8.9422Q115.011-8.18824 116.282-8.43956Q117.554-8.69088 118.398-9.82685Q122.017-14.5515 124.204-21.1309Q126.39-27.7102 126.39-35.2395Q126.39-42.7688 124.204-49.3331Q122.017-55.8974 118.398-60.6522Q117.554-61.7882 116.282-62.0395Q115.011-62.2908 113.895-61.5067Q112.678-60.6321 112.508-59.265Q112.337-57.8978 113.322-56.601Q116.619-52.0372 118.278-46.7647Q119.936-41.4921 119.936-35.2395Q119.936-28.9869 118.263-23.7295Q116.589-18.4721 113.322-13.8781Q112.337-12.5813 112.508-11.199Q112.678-9.81679 113.895-8.9422Z"/>
  </g>
  <g id="Thin-L" transform="matrix(1 0 0 1 786.83 1556)">
   <path d="M24.6429-12.9913L44.3477-12.9913Q45.7681-12.9913 46.7955-12.0443L77.2555 14.9817Q78.2809 15.995 79.4429 16.6148Q80.605 17.2345 82.0114 17.2345Q83.9184 17.2345 85.0076 15.9146Q86.0968 14.5947 86.0968 12.7651L86.0968-83.206Q86.0968-85.113 85.0061-86.4792Q83.9154-87.8453 81.928-87.8453Q80.599-87.8453 79.4832-87.1436Q78.3673-86.442 77.2555-85.497L46.7955-57.715Q45.9229-56.9229 44.3477-56.9229L24.6429-56.9229Q20.4358-56.9229 18.4082-54.8133Q16.3806-52.7038 16.3806-48.3982L16.3806-21.2807Q16.3806-17.0556 18.4082-15.0234Q20.4358-12.9913 24.6429-12.9913ZM24.664-16.7119Q22.2042-16.7119 21.2839-17.7483Q20.3636-18.7847 20.3636-21.2445L20.3636-48.5148Q20.3636-51.0521 21.2839-52.0885Q22.2042-53.1249 24.664-53.1249L44.5398-53.1249Q45.9783-53.1249 47.0594-53.4079Q48.1406-53.6908 49.2665-54.8107L79.4248-82.4017Q79.8953-82.7173 80.2527-83.0315Q80.61-83.3456 81.0835-83.3456Q82.1973-83.3456 82.1973-82.1544L82.1973 11.4632Q82.1973 12.7348 81.1639 12.7348Q80.5236 12.7348 79.5022 11.8653L49.2665-15.1035Q47.3394-16.7119 44.5398-16.7119ZM111.778-9.40361Q112.541-8.89393 113.283-9.06383Q114.026-9.23372 114.544-9.85399Q118.163-14.5244 120.445-21.0087Q122.726-27.4931 122.726-35.2667Q122.726-43.0403 120.445-49.5231Q118.163-56.006 114.544-60.6794Q114.026-61.2997 113.283-61.4695Q112.541-61.6394 111.778-61.1267Q111.077-60.605 110.988-59.7807Q110.898-58.9563 111.503-58.1752Q115.235-53.0143 117.029-47.5654Q118.824-42.1164 118.824-35.2667Q118.824-28.417 117.028-22.9695Q115.232-17.5221 111.503-12.3582Q110.898-11.577 110.988-10.7512Q111.077-9.92536 111.778-9.40361Z"/>
  </g>
  <g id="Ultralight-L" transform="matrix(1 0 0 1 491.363 1556)">
   <path d="M23.0024-13.742L43.0687-13.742Q44.6143-13.742 45.725-12.7116L76.6438 14.662Q77.3911 15.4529 78.3864 15.9962Q79.3817 16.5394 80.6073 16.5394Q82.2502 16.5394 83.1378 15.3725Q84.0254 14.2055 84.0254 12.6539L84.0254-83.1782Q84.0254-84.8211 83.1432-86.0065Q82.261-87.1919 80.5378-87.1919Q79.4034-87.1919 78.4266-86.5737Q77.4498-85.9554 76.6438-85.2885L45.725-56.9365Q44.7969-56.0887 43.0687-56.0887L23.0024-56.0887Q19.282-56.0887 17.5185-54.2503Q15.755-52.4118 15.755-48.6763L15.755-20.8914Q15.755-17.2363 17.5185-15.4891Q19.282-13.742 23.0024-13.742ZM22.9262-16.2531Q20.3135-16.2531 19.3723-17.3312Q18.4312-18.4093 18.4312-21.0221L18.4312-48.6261Q18.4312-51.3301 19.3723-52.4082Q20.3135-53.4863 22.9262-53.4863L42.7464-53.4863Q44.2266-53.4863 45.3286-53.7624Q46.4306-54.0384 47.5565-55.186L78.4517-83.486Q78.9778-83.8295 79.356-84.1784Q79.7342-84.5273 80.2494-84.5273Q81.4188-84.5273 81.4188-83.2665L81.4188 12.5336Q81.4188 13.8748 80.3298 13.8748Q79.6755 13.8748 78.543 12.9357L47.5565-14.6447Q45.6155-16.2531 42.7464-16.2531ZM110.693-9.63994Q111.276-9.25539 111.747-9.38357Q112.218-9.51176 112.57-9.86789Q116.189-14.5105 118.519-20.9462Q120.849-27.3819 120.849-35.2806Q120.849-43.1793 118.519-49.6204Q116.189-56.0616 112.57-60.6933Q112.218-61.0494 111.747-61.1776Q111.276-61.3058 110.693-60.9321Q110.257-60.5911 110.209-60.0448Q110.161-59.4985 110.572-58.9815Q114.526-53.5148 116.39-47.9755Q118.254-42.4362 118.254-35.2806Q118.254-28.125 116.395-22.5803Q114.537-17.0355 110.572-11.5796Q110.161-11.0627 110.209-10.5218Q110.257-9.98097 110.693-9.63994Z"/>
  </g>
  <g id="Black-M" transform="matrix(1 0 0 1 2865.58 1126)">
   <path d="M31.4567-10.2925L44.6991-10.2925Q45.0858-10.2925 45.3488-10.0346L64.1608 6.77038Q66.7316 9.03365 68.9261 10.1308Q71.1207 11.2279 73.7931 11.2279Q77.9573 11.2279 80.7885 8.40038Q83.6196 5.57288 83.6196 1.40839L83.6196-71.7772Q83.6196-75.9414 80.7857-78.7825Q77.9518-81.6236 73.7824-81.6236Q71.2809-81.6236 69.0715-80.5757Q66.862-79.5277 64.1608-77.1334L45.3488-60.4216Q44.971-60.1061 44.6991-60.1061L31.4567-60.1061Q24.3179-60.1061 20.517-56.1259Q16.7162-52.1458 16.7162-44.7403L16.7162-25.6536Q16.7162-18.2533 20.517-14.2729Q24.3179-10.2925 31.4567-10.2925ZM34.4643-25.6127Q33.9068-25.6127 33.5411-26.0064Q33.1754-26.4002 33.1754-26.9007L33.1754-43.4984Q33.1754-44.0557 33.5411-44.4209Q33.9068-44.7861 34.4643-44.7861L48.1057-44.7861Q49.3248-44.7861 50.2147-45.0926Q51.1047-45.3991 51.9199-46.2032L65.7528-58.9669Q65.8761-59.0909 66.0626-59.1551Q66.2491-59.2192 66.4351-59.2192Q67.1711-59.2192 67.1711-58.4264L67.1711-11.9175Q67.1711-11.0624 66.4403-11.0624Q66.0615-11.0624 65.7524-11.3776L51.9199-24.1953Q50.4301-25.6127 48.1057-25.6127ZM100.664-9.68587Q103.58-7.94922 106.644-8.51859Q109.708-9.08796 111.461-11.513Q115.007-16.508 116.963-22.5706Q118.919-28.6331 118.919-35.2551Q118.919-41.8771 116.963-47.9655Q115.007-54.0538 111.461-59.0544Q109.708-61.4223 106.644-61.9917Q103.58-62.561 100.664-60.8189Q97.6056-59.0031 96.9843-55.5317Q96.3631-52.0604 98.9889-47.5124Q100.573-44.84 101.405-41.7239Q102.237-38.6079 102.237-35.2551Q102.237-31.9595 101.402-28.8176Q100.567-25.6758 98.9889-22.9979Q96.3631-18.5069 96.9843-15.0043Q97.6056-11.5017 100.664-9.68587Z"/>
  </g>
  <g id="Heavy-M" transform="matrix(1 0 0 1 2571.13 1126)">
   <path d="M29.8927-11.4919L43.3143-11.4919Q43.7662-11.4919 44.0861-11.1907L63.6491 6.3029Q66.0301 8.40091 68.0569 9.41553Q70.0837 10.4302 72.5318 10.4302Q76.2799 10.4302 78.8084 7.90239Q81.337 5.37462 81.337 1.62894L81.337-71.9469Q81.337-75.695 78.8003-78.2646Q76.2637-80.8342 72.4969-80.8342Q70.1821-80.8342 68.1753-79.8364Q66.1685-78.8386 63.6491-76.607L44.0861-59.2301Q43.6838-58.8901 43.3143-58.8901L29.8927-58.8901Q23.2678-58.8901 19.7751-55.2398Q16.2825-51.5895 16.2825-44.674L16.2825-25.6844Q16.2825-18.7876 19.7751-15.1398Q23.2678-11.4919 29.8927-11.4919ZM32.2746-24.8752Q31.5251-24.8752 31.0947-25.3311Q30.6643-25.787 30.6643-26.4929L30.6643-43.8843Q30.6643-44.6362 31.0947-45.0703Q31.5251-45.5044 32.2746-45.5044L46.3766-45.5044Q47.5366-45.5044 48.397-45.796Q49.2574-46.0876 50.086-46.8838L65.5603-61.0948Q65.6947-61.2243 65.8853-61.302Q66.0759-61.3798 66.2701-61.3798Q66.9902-61.3798 66.9902-60.6137L66.9902-9.76542Q66.9902-8.93698 66.2888-8.93698Q65.8938-8.93698 65.5627-9.27941L50.086-23.4982Q48.6069-24.8752 46.3766-24.8752ZM98.2396-10.7971Q100.756-9.27385 103.456-9.77433Q106.157-10.2748 107.729-12.459Q111.099-17.1521 112.971-23.0096Q114.842-28.8672 114.842-35.2444Q114.842-41.6217 112.971-47.4929Q111.099-53.3641 107.729-58.0734Q106.157-60.214 103.456-60.7145Q100.756-61.215 98.2396-59.6755Q95.5569-58.0436 95.0315-55.0113Q94.5061-51.979 96.7835-48.1435Q98.4924-45.4106 99.3986-42.1082Q100.305-38.8059 100.305-35.2444Q100.305-31.7266 99.3905-28.4105Q98.4761-25.0945 96.7835-22.3453Q94.5061-18.5534 95.0315-15.4912Q95.5569-12.429 98.2396-10.7971Z"/>
  </g>
  <g id="Bold-M" transform="matrix(1 0 0 1 2276.94 1126)">
   <path d="M28.143-12.8337L41.7652-12.8337Q42.2899-12.8337 42.6736-12.4839L63.0766 5.77996Q65.2454 7.6931 67.0846 8.61544Q68.9237 9.53778 71.1208 9.53778Q74.4035 9.53778 76.5935 7.34531Q78.7835 5.15285 78.7835 1.87566L78.7835-72.1367Q78.7835-75.4194 76.5794-77.6852Q74.3753-79.951 71.0588-79.951Q68.9529-79.951 67.1728-79.0094Q65.3927-78.0677 63.0766-76.0183L42.6736-57.8972Q42.2439-57.5298 41.7652-57.5298L28.143-57.5298Q22.093-57.5298 18.9452-54.2485Q15.7974-50.9672 15.7974-44.5999L15.7974-25.7189Q15.7974-19.3853 18.9452-16.1095Q22.093-12.8337 28.143-12.8337ZM29.8251-24.0501Q28.8609-24.0501 28.358-24.5756Q27.8552-25.101 27.8552-26.0367L27.8552-44.3158Q27.8552-45.2856 28.358-45.7967Q28.8609-46.3079 29.8251-46.3079L44.4424-46.3079Q45.5362-46.3079 46.3635-46.5829Q47.1908-46.8579 48.0346-47.6451L65.345-63.4751Q65.4917-63.6107 65.6869-63.7037Q65.8821-63.7967 66.0856-63.7967Q66.7878-63.7967 66.7878-63.0604L66.7878-7.35803Q66.7878-6.55943 66.1193-6.55943Q65.7062-6.55943 65.3505-6.93231L48.0346-22.7184Q46.5675-24.0501 44.4424-24.0501ZM95.5277-12.0402Q97.5974-10.7556 99.8909-11.1791Q102.184-11.6025 103.554-13.5172Q106.728-17.8725 108.505-23.5007Q110.282-29.1289 110.282-35.2324Q110.282-41.3359 108.505-46.9642Q106.728-52.5926 103.554-56.9762Q102.184-58.8623 99.8909-59.2857Q97.5974-59.7092 95.5277-58.3964Q93.2652-56.9703 92.847-54.4291Q92.4287-51.8879 94.3165-48.8494Q96.1649-46.0489 97.1544-42.5381Q98.1439-39.0273 98.1439-35.2324Q98.1439-31.466 97.1403-27.9551Q96.1367-24.4442 94.3165-21.6154Q92.4287-18.6054 92.847-16.0358Q93.2652-13.4663 95.5277-12.0402Z"/>
  </g>
  <g id="Semibold-M" transform="matrix(1 0 0 1 1981.96 1126)">
   <path d="M26.9368-13.7588L40.6972-13.7588Q41.2723-13.7588 41.6998-13.3754L62.682 5.41945Q64.7045 7.20514 66.4143 8.06386Q68.1241 8.92258 70.1481 8.92258Q73.1099 8.92258 75.0666 6.96127Q77.0232 4.99996 77.0232 2.04575L77.0232-72.2675Q77.0232-75.2294 75.0483-77.2858Q73.0734-79.3422 70.0674-79.3422Q68.1055-79.3422 66.4817-78.4392Q64.8579-77.5363 62.682-75.6124L41.6998-56.9783Q41.2512-56.5921 40.6972-56.5921L26.9368-56.5921Q21.2831-56.5921 18.3731-53.5651Q15.463-50.5382 15.463-44.5487L15.463-25.7427Q15.463-19.7974 18.3731-16.7781Q21.2831-13.7588 26.9368-13.7588ZM28.1365-23.4814Q27.0242-23.4814 26.4714-24.0547Q25.9186-24.6281 25.9186-25.7222L25.9186-44.6134Q25.9186-45.7333 26.4714-46.2975Q27.0242-46.8618 28.1365-46.8618L43.1089-46.8618Q44.1572-46.8618 44.9617-47.1254Q45.7662-47.3889 46.6203-48.17L65.1966-65.1161Q65.3518-65.256 65.5501-65.3594Q65.7485-65.4629 65.9584-65.4629Q66.6483-65.4629 66.6483-64.7472L66.6483-5.69839Q66.6483-4.92037 66.0025-4.92037Q65.5769-4.92037 65.2042-5.31424L46.6203-22.1808Q45.1615-23.4814 43.1089-23.4814ZM93.6581-12.8972Q95.4197-11.7772 97.4328-12.1475Q99.446-12.5178 100.675-14.2467Q103.715-18.3692 105.427-23.8393Q107.138-29.3094 107.138-35.2241Q107.138-41.1388 105.427-46.5998Q103.715-52.0607 100.675-56.2197Q99.446-57.9305 97.4328-58.3008Q95.4197-58.6711 93.6581-57.5146Q91.6853-56.2304 91.341-54.0278Q90.9966-51.8251 92.6157-49.3361Q94.5604-46.4889 95.6073-42.8345Q96.6541-39.18 96.6541-35.2241Q96.6541-31.2864 95.589-27.6412Q94.5239-23.9959 92.6157-21.1122Q90.9966-18.6413 91.341-16.4113Q91.6853-14.1814 93.6581-12.8972Z"/>
  </g>
  <g id="Medium-M" transform="matrix(1 0 0 1 1686.57 1126)">
   <path d="M26.0222-14.4602L39.8874-14.4602Q40.5006-14.4602 40.9614-14.0514L62.3827 5.1461Q64.2943 6.83515 65.906 7.64563Q67.5177 8.45611 69.4105 8.45611Q72.1291 8.45611 73.9088 6.67007Q75.6884 4.88403 75.6884 2.17471L75.6884-72.3667Q75.6884-75.0853 73.8874-76.9829Q72.0863-78.8805 69.3157-78.8805Q67.463-78.8805 65.9577-78.0069Q64.4524-77.1333 62.3827-75.3046L40.9614-56.2816Q40.4985-55.881 39.8874-55.881L26.0222-55.881Q20.6691-55.881 17.9393-53.047Q15.2095-50.2129 15.2095-44.51L15.2095-25.7607Q15.2095-20.1098 17.9393-17.285Q20.6691-14.4602 26.0222-14.4602ZM26.8561-23.0501Q25.6316-23.0501 25.0409-23.6598Q24.4502-24.2695 24.4502-25.4837L24.4502-44.839Q24.4502-46.0727 25.0409-46.6773Q25.6316-47.2818 26.8561-47.2818L42.0978-47.2818Q43.1115-47.2818 43.8988-47.5367Q44.686-47.7916 45.548-48.568L65.0841-66.3603Q65.2457-66.5034 65.4465-66.6149Q65.6472-66.7263 65.8619-66.7263Q66.5425-66.7263 66.5425-66.0262L66.5425-4.43998Q66.5425-3.67756 65.9139-3.67756Q65.4788-3.67756 65.0933-4.08735L45.548-21.7732Q44.0954-23.0501 42.0978-23.0501ZM92.2405-13.547Q93.7684-12.5518 95.569-12.8818Q97.3696-13.2118 98.4931-14.7999Q101.43-18.7458 103.092-24.096Q104.754-29.4463 104.754-35.2179Q104.754-40.9895 103.092-46.3235Q101.43-51.6575 98.4931-55.6461Q97.3696-57.2239 95.569-57.554Q93.7684-57.884 92.2405-56.846Q90.4873-55.6694 90.199-53.7234Q89.9108-51.7775 91.3261-49.7051Q93.3438-46.8226 94.4341-43.0592Q95.5245-39.2958 95.5245-35.2179Q95.5245-31.1502 94.4128-27.4031Q93.301-23.656 91.3261-20.7306Q89.9108-18.6685 90.199-16.696Q90.4873-14.7236 92.2405-13.547Z"/>
  </g>
  <g id="Regular-M" transform="matrix(1 0 0 1 1391.58 1126)">
   <path d="M24.8292-15.375L38.8312-15.375Q39.4941-15.375 39.9983-14.9331L61.9924 4.78955Q63.7593 6.35255 65.243 7.10012Q66.7268 7.84768 68.4485 7.84768Q70.8497 7.84768 72.3986 6.29025Q73.9474 4.73282 73.9474 2.34293L73.9474-72.4962Q73.9474-74.8974 72.3731-76.5879Q70.7987-78.2784 68.3352-78.2784Q66.6249-78.2784 65.2742-77.443Q63.9235-76.6077 61.9924-74.9032L39.9983-55.3728Q39.5168-54.9536 38.8312-54.9536L24.8292-54.9536Q19.8681-54.9536 17.3734-52.3711Q14.8787-49.7886 14.8787-44.4594L14.8787-25.7842Q14.8787-20.5173 17.3734-17.9462Q19.8681-15.375 24.8292-15.375ZM25.1859-22.4876Q23.815-22.4876 23.175-23.1447Q22.5349-23.8018 22.5349-25.1727L22.5349-45.1332Q22.5349-46.5155 23.175-47.1726Q23.815-47.8296 25.1859-47.8296L40.779-47.8296Q41.7476-47.8296 42.5123-48.0732Q43.277-48.3167 44.1493-49.0871L64.9373-67.9833Q65.1073-68.1306 65.3112-68.2524Q65.5151-68.3742 65.7361-68.3742Q66.4045-68.3742 66.4045-67.6944L66.4045-2.79858Q66.4045-2.0565 65.7984-2.0565Q65.3509-2.0565 64.9486-2.48706L44.1493-21.2415Q42.7049-22.4876 40.779-22.4876ZM90.3914-14.3945Q91.6146-13.5621 93.1379-13.8396Q94.6612-14.117 95.6466-15.5214Q98.4503-19.237 100.048-24.4309Q101.645-29.6248 101.645-35.2097Q101.645-40.7946 100.048-45.963Q98.4503-51.1314 95.6466-54.898Q94.6612-56.3023 93.1379-56.5798Q91.6146-56.8573 90.3914-55.9739Q88.9248-54.9376 88.7096-53.3265Q88.4944-51.7154 89.644-50.1864Q91.7569-47.2577 92.904-43.3523Q94.0511-39.4468 94.0511-35.2097Q94.0511-30.9726 92.8785-27.0926Q91.706-23.2126 89.644-20.2329Q88.4944-18.704 88.7096-17.0674Q88.9248-15.4308 90.3914-14.3945Z"/>
  </g>
  <g id="Light-M" transform="matrix(1 0 0 1 1096.51 1126)">
   <path d="M22.6581-16.3686L37.1385-16.3686Q37.967-16.3686 38.5816-15.8163L61.1829 4.36637Q62.5817 5.63499 63.8447 6.28136Q65.1077 6.92773 66.5902 6.92773Q68.6418 6.92773 69.9239 5.57269Q71.206 4.21765 71.206 2.19574L71.206-72.4594Q71.206-74.511 69.9076-75.9623Q68.6093-77.4136 66.4953-77.4136Q65.0426-77.4136 63.8759-76.6887Q62.7091-75.9637 61.1829-74.6272L38.5816-54.3424Q38.0265-53.8496 37.1385-53.8496L22.6581-53.8496Q18.341-53.8496 16.1959-51.6259Q14.0508-49.4022 14.0508-44.8274L14.0508-25.269Q14.0508-20.7565 16.1959-18.5625Q18.341-16.3686 22.6581-16.3686ZM22.8861-21.8804Q21.3128-21.8804 20.6451-22.5927Q19.9775-23.305 19.9775-24.8783L19.9775-45.2804Q19.9775-46.8835 20.6451-47.5957Q21.3128-48.308 22.8861-48.308L38.4056-48.308Q39.4294-48.308 40.2216-48.5424Q41.0139-48.7767 41.8862-49.5839L63.6493-69.4184Q63.8929-69.6025 64.1245-69.7703Q64.356-69.9381 64.6321-69.9381Q65.3742-69.9381 65.3742-69.1664L65.3742-1.38186Q65.3742-0.547784 64.6944-0.547784Q64.2286-0.547784 63.6791-1.07033L41.8862-20.6344Q40.4234-21.8804 38.4056-21.8804ZM88.9563-14.7073Q89.9403-14.0404 91.1049-14.2627Q92.2694-14.485 93.0339-15.5398Q95.8376-19.2186 97.4994-24.3481Q99.1611-29.4776 99.1611-35.2281Q99.1611-40.9786 97.4994-46.0918Q95.8376-51.205 93.0339-54.9164Q92.2694-55.9711 91.1049-56.1934Q89.9403-56.4157 88.9563-55.7163Q87.8392-54.9192 87.6792-53.6761Q87.5193-52.433 88.4112-51.2536Q90.8186-47.9201 92.0576-43.895Q93.2967-39.87 93.2967-35.2281Q93.2967-30.5862 92.0414-26.5774Q90.786-22.5686 88.4112-19.2026Q87.5193-18.0232 87.6792-16.7638Q87.8392-15.5044 88.9563-14.7073Z"/>
  </g>
  <g id="Thin-M" transform="matrix(1 0 0 1 801.979 1126)">
   <path d="M19.7867-17.6826L34.8998-17.6826Q35.9472-17.6826 36.7078-16.9843L60.1121 3.80668Q61.0243 4.68596 61.9953 5.19849Q62.9663 5.71102 64.1324 5.71102Q65.7217 5.71102 66.651 4.62365Q67.5802 3.53629 67.5802 2.00106L67.5802-72.4107Q67.5802-74 66.6468-75.135Q65.7135-76.2699 64.0619-76.2699Q62.9498-76.2699 62.0265-75.691Q61.1031-75.112 60.1121-74.2622L36.7078-52.9797Q36.0554-52.3896 34.8998-52.3896L19.7867-52.3896Q16.3213-52.3896 14.6385-50.6404Q12.9557-48.8912 12.9557-45.3141L12.9557-24.5877Q12.9557-21.0728 14.6385-19.3777Q16.3213-17.6826 19.7867-17.6826ZM19.8443-21.0774Q18.0033-21.0774 17.2992-21.8627Q16.595-22.648 16.595-24.4889L16.595-45.4751Q16.595-47.3701 17.2992-48.1554Q18.0033-48.9407 19.8443-48.9407L35.2665-48.9407Q36.3633-48.9407 37.192-49.1629Q38.0208-49.3851 38.8931-50.2409L61.946-71.3165Q62.2869-71.5492 62.5549-71.7779Q62.8229-72.0065 63.1721-72.0065Q64.0114-72.0065 64.0114-71.1131L64.0114 0.491874Q64.0114 1.44762 63.2344 1.44762Q62.7442 1.44762 62 0.803397L38.8931-19.8313Q37.406-21.0774 35.2665-21.0774ZM87.0582-15.121Q87.7259-14.6731 88.4159-14.8224Q89.1059-14.9717 89.5785-15.5641Q92.3822-19.1943 94.1291-24.2386Q95.876-29.2829 95.876-35.2524Q95.876-41.2219 94.1291-46.2621Q92.3822-51.3023 89.5785-54.9407Q89.1059-55.5331 88.4159-55.6824Q87.7259-55.8317 87.0582-55.3756Q86.4035-54.8948 86.3165-54.1384Q86.2295-53.382 86.7808-52.665Q89.5775-48.7961 90.9383-44.6129Q92.299-40.4296 92.299-35.2524Q92.299-30.0752 90.9342-25.8961Q89.5693-21.7169 86.7808-17.8399Q86.2295-17.1228 86.3165-16.3623Q86.4035-15.6018 87.0582-15.121Z"/>
  </g>
  <g id="Ultralight-M" transform="matrix(1 0 0 1 506.384 1126)">
   <path d="M18.316-18.3557L33.7531-18.3557Q34.9127-18.3557 35.7481-17.5826L59.5637 3.52002Q60.2266 4.19987 61.0481 4.64385Q61.8695 5.08783 62.8736 5.08783Q64.2261 5.08783 64.9746 4.13757Q65.7231 3.1873 65.7231 1.90135L65.7231-72.3858Q65.7231-73.7383 64.9767-74.7112Q64.2303-75.6841 62.8155-75.6841Q61.8779-75.6841 61.0792-75.18Q60.2805-74.6758 59.5637-74.0752L35.7481-52.2817Q35.0458-51.6417 33.7531-51.6417L18.316-51.6417Q15.2868-51.6417 13.8408-50.1356Q12.3949-48.6295 12.3949-45.5634L12.3949-24.2387Q12.3949-21.2349 13.8408-19.7953Q15.2868-18.3557 18.316-18.3557ZM18.2863-20.6661Q16.3083-20.6661 15.5854-21.4888Q14.8625-22.3115 14.8625-24.2895L14.8625-45.5748Q14.8625-47.6194 15.5854-48.4421Q16.3083-49.2648 18.2863-49.2648L33.6586-49.2648Q34.7928-49.2648 35.6403-49.4807Q36.4878-49.6967 37.36-50.5774L61.0735-72.2886Q61.4643-72.5463 61.751-72.8061Q62.0377-73.066 62.4243-73.066Q63.3135-73.066 63.3135-72.1102L63.3135 1.45159Q63.3135 2.46965 62.4866 2.46965Q61.9839 2.46965 61.14 1.76311L37.36-19.42Q35.8605-20.6661 33.6586-20.6661ZM86.0861-15.3329Q86.5917-14.9972 87.0387-15.1091Q87.4856-15.221 87.8086-15.5766Q90.6123-19.1818 92.4028-24.1825Q94.1934-29.1832 94.1934-35.2649Q94.1934-41.3466 92.4028-46.3494Q90.6123-51.3522 87.8086-54.9532Q87.4856-55.3088 87.0387-55.4207Q86.5917-55.5326 86.0861-55.2011Q85.6681-54.8824 85.6186-54.3752Q85.569-53.8681 85.9458-53.3879Q88.9419-49.2448 90.3649-44.9806Q91.788-40.7163 91.788-35.2649Q91.788-29.8135 90.3671-25.5471Q88.9461-21.2807 85.9458-17.1419Q85.569-16.6617 85.6186-16.1566Q85.6681-15.6516 86.0861-15.3329Z"/>
  </g>
  <g id="Black-S" transform="matrix(1 0 0 1 2879.66 696)">
   <path d="M25-15.3809L35.3516-15.3809Q35.6445-15.3809 35.8398-15.1855L50.3906-2.19727Q52.4414-0.390625 54.1992 0.488281Q55.957 1.36719 58.1055 1.36719Q61.4746 1.36719 63.7695-0.927734Q66.0645-3.22266 66.0645-6.5918L66.0645-63.8184Q66.0645-67.1875 63.7695-69.4824Q61.4746-71.7773 58.1055-71.7773Q56.1035-71.7773 54.3213-70.9473Q52.5391-70.1172 50.3906-68.2129L35.8398-55.2734Q35.5469-55.0293 35.3516-55.0293L25-55.0293Q19.2871-55.0293 16.2354-51.8311Q13.1836-48.6328 13.1836-42.7246L13.1836-27.6855Q13.1836-21.7773 16.2354-18.5791Q19.2871-15.3809 25-15.3809ZM27.5391-27.8809Q27.1484-27.8809 26.8799-28.1738Q26.6113-28.4668 26.6113-28.8086L26.6113-41.6016Q26.6113-41.9922 26.8799-42.2607Q27.1484-42.5293 27.5391-42.5293L38.0859-42.5293Q39.0625-42.5293 39.7705-42.7734Q40.4785-43.0176 41.1133-43.6523L51.5137-53.2715Q51.6113-53.3691 51.7578-53.418Q51.9043-53.4668 52.0508-53.4668Q52.6367-53.4668 52.6367-52.832L52.6367-17.5293Q52.6367-16.8457 52.0508-16.8457Q51.7578-16.8457 51.5137-17.0898L41.1133-26.7578Q39.9414-27.8809 38.0859-27.8809ZM79.541-14.8926Q81.9336-13.4766 84.4238-13.9404Q86.9141-14.4043 88.3301-16.3574Q91.1621-20.3613 92.7246-25.1709Q94.2871-29.9805 94.2871-35.2539Q94.2871-40.5273 92.7246-45.3613Q91.1621-50.1953 88.3301-54.1992Q86.9141-56.1035 84.4238-56.5674Q81.9336-57.0312 79.541-55.6152Q77.0508-54.1504 76.5381-51.3184Q76.0254-48.4863 78.1738-44.7266Q79.3945-42.627 80.0293-40.2344Q80.6641-37.8418 80.6641-35.2539Q80.6641-32.7148 80.0293-30.2979Q79.3945-27.8809 78.1738-25.7812Q76.0254-22.0703 76.5381-19.2139Q77.0508-16.3574 79.541-14.8926Z"/>
  </g>
  <g id="Heavy-S" transform="matrix(1 0 0 1 2584.67 696)">
   <path d="M23.9397-16.2798L34.3835-16.2798Q34.711-16.2798 34.9409-16.0614L50.0564-2.543Q51.992-0.840079 53.6345-0.0187952Q55.2771 0.802489 57.2642 0.802489Q60.3222 0.802489 62.3924-1.26194Q64.4626-3.32638 64.4626-6.38436L64.4626-63.9682Q64.4626-67.0262 62.3866-69.1194Q60.3106-71.2126 57.2411-71.2126Q55.3659-71.2126 53.7335-70.4114Q52.1011-69.6101 50.0564-67.798L34.9409-54.3861Q34.6364-54.1304 34.3835-54.1304L23.9397-54.1304Q18.5841-54.1304 15.7513-51.1684Q12.9185-48.2064 12.9185-42.6209L12.9185-27.7777Q12.9185-22.2037 15.7513-19.2418Q18.5841-16.2798 23.9397-16.2798ZM25.9602-27.3277Q25.4313-27.3277 25.1109-27.6668Q24.7905-28.0058 24.7905-28.4974L24.7905-41.9127Q24.7905-42.4416 25.1109-42.7621Q25.4313-43.0825 25.9602-43.0825L36.9104-43.0825Q37.8294-43.0825 38.5086-43.3151Q39.1878-43.5477 39.8341-44.1709L51.5137-54.908Q51.6113-55.0056 51.7578-55.0602Q51.9043-55.1148 52.0508-55.1148Q52.6137-55.1148 52.6137-54.5146L52.6137-15.8698Q52.6137-15.2208 52.0623-15.2208Q51.7578-15.2208 51.5137-15.4764L39.8341-26.2392Q38.6737-27.3277 36.9104-27.3277ZM77.651-15.803Q79.7324-14.5483 81.9576-14.9603Q84.1828-15.3724 85.472-17.1641Q88.1542-20.9145 89.6361-25.557Q91.1179-30.1994 91.1179-35.2424Q91.1179-40.2853 89.6361-44.9407Q88.1542-49.596 85.472-53.3579Q84.1828-55.1124 81.9576-55.5244Q79.7324-55.9364 77.651-54.6702Q75.4374-53.3322 74.9996-50.8286Q74.5618-48.325 76.4452-45.1299Q77.735-43.0303 78.4216-40.4937Q79.1083-37.957 79.1083-35.2424Q79.1083-32.565 78.4159-30.0155Q77.7235-27.466 76.4452-25.3548Q74.5618-22.1971 74.9996-19.6691Q75.4374-17.1411 77.651-15.803Z"/>
  </g>
  <g id="Bold-S" transform="matrix(1 0 0 1 2289.88 696)">
   <path d="M22.7539-17.2852L33.3008-17.2852Q33.667-17.2852 33.9355-17.041L49.6826-2.92969Q51.4893-1.34277 53.0029-0.585938Q54.5166 0.170898 56.3232 0.170898Q59.0332 0.170898 60.8521-1.63574Q62.6709-3.44238 62.6709-6.15234L62.6709-64.1357Q62.6709-66.8457 60.8398-68.7134Q59.0088-70.5811 56.2744-70.5811Q54.541-70.5811 53.0762-69.812Q51.6113-69.043 49.6826-67.334L33.9355-53.3936Q33.6182-53.125 33.3008-53.125L22.7539-53.125Q17.7979-53.125 15.21-50.4272Q12.6221-47.7295 12.6221-42.5049L12.6221-27.8809Q12.6221-22.6807 15.21-19.9829Q17.7979-17.2852 22.7539-17.2852ZM24.1943-26.709Q23.5107-26.709 23.1323-27.0996Q22.7539-27.4902 22.7539-28.1494L22.7539-42.2607Q22.7539-42.9443 23.1323-43.3228Q23.5107-43.7012 24.1943-43.7012L35.5957-43.7012Q36.4502-43.7012 37.0972-43.9209Q37.7441-44.1406 38.4033-44.751L51.5137-56.7383Q51.6113-56.8359 51.7578-56.897Q51.9043-56.958 52.0508-56.958Q52.5879-56.958 52.5879-56.3965L52.5879-14.0137Q52.5879-13.4033 52.0752-13.4033Q51.7578-13.4033 51.5137-13.6719L38.4033-25.6592Q37.2559-26.709 35.5957-26.709ZM75.5371-16.8213Q77.2705-15.7471 79.1992-16.1011Q81.1279-16.4551 82.2754-18.0664Q84.79-21.5332 86.1816-25.9888Q87.5732-30.4443 87.5732-35.2295Q87.5732-40.0146 86.1816-44.4702Q84.79-48.9258 82.2754-52.417Q81.1279-54.0039 79.1992-54.3579Q77.2705-54.7119 75.5371-53.6133Q73.6328-52.417 73.2788-50.2808Q72.9248-48.1445 74.5117-45.5811Q75.8789-43.4814 76.6235-40.7837Q77.3682-38.0859 77.3682-35.2295Q77.3682-32.3975 76.6113-29.6997Q75.8545-27.002 74.5117-24.8779Q72.9248-22.3389 73.2788-20.1782Q73.6328-18.0176 75.5371-16.8213Z"/>
  </g>
  <g id="Semibold-S" transform="matrix(1 0 0 1 1994.49 696)">
   <path d="M21.9363-17.9783L32.5543-17.9783Q32.9472-17.9783 33.2424-17.7164L49.4249-3.19629Q51.1427-1.68936 52.5675-0.976953Q53.9923-0.264551 55.6745-0.264551Q58.1445-0.264551 59.7901-1.89346Q61.4356-3.52236 61.4356-5.99238L61.4356-64.2513Q61.4356-66.7213 59.7734-68.4334Q58.1112-70.1456 55.6079-70.1456Q53.9723-70.1456 52.6229-69.3988Q51.2736-68.652 49.4249-67.0141L33.2424-52.7093Q32.9161-52.4318 32.5543-52.4318L21.9363-52.4318Q17.2558-52.4318 14.8367-49.9163Q12.4177-47.4007 12.4177-42.4249L12.4177-27.952Q12.4177-23.0095 14.8367-20.4939Q17.2558-17.9783 21.9363-17.9783ZM22.9769-26.2824Q22.1866-26.2824 21.7682-26.7086Q21.3498-27.1348 21.3498-27.9095L21.3498-42.5007Q21.3498-43.2909 21.7682-43.7093Q22.1866-44.1277 22.9769-44.1277L34.6893-44.1277Q35.4993-44.1277 36.1241-44.3386Q36.7488-44.5494 37.4169-45.1509L51.5137-58.0002Q51.6113-58.0979 51.7578-58.1633Q51.9043-58.2288 52.0508-58.2288Q52.5701-58.2288 52.5701-57.6939L52.5701-12.734Q52.5701-12.1503 52.0841-12.1503Q51.7578-12.1503 51.5137-12.4277L37.4169-25.2593Q36.2783-26.2824 34.6893-26.2824ZM74.0797-17.5233Q75.5731-16.5735 77.2975-16.8875Q79.0218-17.2016 80.0715-18.6885Q82.4706-21.9598 83.8-26.2865Q85.1294-30.6132 85.1294-35.2206Q85.1294-39.828 83.8-44.1458Q82.4706-48.4637 80.0715-51.7683Q79.0218-53.2396 77.2975-53.5537Q75.5731-53.8677 74.0797-52.8846Q72.3887-51.786 72.0924-49.9031Q71.7962-48.0201 73.1787-45.8921Q74.5992-43.7925 75.3838-40.9836Q76.1685-38.1748 76.1685-35.2206Q76.1685-32.2819 75.3672-29.482Q74.5659-26.682 73.1787-24.5491Q71.7962-22.4366 72.0924-20.5292Q72.3887-18.6219 74.0797-17.5233Z"/>
  </g>
  <g id="Medium-S" transform="matrix(1 0 0 1 1698.79 696)">
   <path d="M21.3164-18.5039L31.9883-18.5039Q32.4014-18.5039 32.7168-18.2285L49.2295-3.39844Q50.8799-1.95215 52.2373-1.27344Q53.5947-0.594727 55.1826-0.594727Q57.4707-0.594727 58.9849-2.08887Q60.499-3.58301 60.499-5.87109L60.499-64.3389Q60.499-66.627 58.9648-68.2212Q57.4307-69.8154 55.1025-69.8154Q53.541-69.8154 52.2793-69.0854Q51.0176-68.3555 49.2295-66.7715L32.7168-52.1904Q32.3838-51.9062 31.9883-51.9062L21.3164-51.9062Q16.8447-51.9062 14.5537-49.5288Q12.2627-47.1514 12.2627-42.3643L12.2627-28.0059Q12.2627-23.2588 14.5537-20.8813Q16.8447-18.5039 21.3164-18.5039ZM22.0537-25.959Q21.1826-25.959 20.7339-26.4121Q20.2852-26.8652 20.2852-27.7275L20.2852-42.6826Q20.2852-43.5537 20.7339-44.0024Q21.1826-44.4512 22.0537-44.4512L34.002-44.4512Q34.7783-44.4512 35.3862-44.6553Q35.9941-44.8594 36.6689-45.4541L51.5137-58.957Q51.6113-59.0547 51.7578-59.1235Q51.9043-59.1924 52.0508-59.1924Q52.5566-59.1924 52.5566-58.6777L52.5566-11.7637Q52.5566-11.2002 52.0908-11.2002Q51.7578-11.2002 51.5137-11.4844L36.6689-24.9561Q35.5371-25.959 34.002-25.959ZM72.9746-18.0557Q74.2861-17.2002 75.8555-17.4839Q77.4248-17.7676 78.4004-19.1602Q80.7119-22.2832 81.9941-26.5122Q83.2764-30.7412 83.2764-35.2139Q83.2764-39.6865 81.9941-43.8999Q80.7119-48.1133 78.4004-51.2764Q77.4248-52.6602 75.8555-52.9438Q74.2861-53.2275 72.9746-52.332Q71.4453-51.3076 71.1929-49.6167Q70.9404-47.9258 72.168-46.1279Q73.6289-44.0283 74.4438-41.1353Q75.2588-38.2422 75.2588-35.2139Q75.2588-32.1943 74.4238-29.3169Q73.5889-26.4395 72.168-24.2998Q70.9404-22.5107 71.1929-20.7954Q71.4453-19.0801 72.9746-18.0557Z"/>
  </g>
  <g id="Regular-S" transform="matrix(1 0 0 1 1403.38 696)">
   <path d="M20.5078-19.1895L31.25-19.1895Q31.6895-19.1895 32.0312-18.8965L48.9746-3.66211Q50.5371-2.29492 51.8066-1.66016Q53.0762-1.02539 54.541-1.02539Q56.5918-1.02539 57.9346-2.34375Q59.2773-3.66211 59.2773-5.71289L59.2773-64.4531Q59.2773-66.5039 57.9102-67.9443Q56.543-69.3848 54.4434-69.3848Q52.9785-69.3848 51.8311-68.6768Q50.6836-67.9688 48.9746-66.4551L32.0312-51.5137Q31.6895-51.2207 31.25-51.2207L20.5078-51.2207Q16.3086-51.2207 14.1846-49.0234Q12.0605-46.8262 12.0605-42.2852L12.0605-28.0762Q12.0605-23.584 14.1846-21.3867Q16.3086-19.1895 20.5078-19.1895ZM20.8496-25.5371Q19.873-25.5371 19.3848-26.0254Q18.8965-26.5137 18.8965-27.4902L18.8965-42.9199Q18.8965-43.8965 19.3848-44.3848Q19.873-44.873 20.8496-44.873L33.1055-44.873Q33.8379-44.873 34.4238-45.0684Q35.0098-45.2637 35.6934-45.8496L51.5137-60.2051Q51.6113-60.3027 51.7578-60.376Q51.9043-60.4492 52.0508-60.4492Q52.5391-60.4492 52.5391-59.9609L52.5391-10.498Q52.5391-9.96094 52.0996-9.96094Q51.7578-9.96094 51.5137-10.2539L35.6934-24.5605Q34.5703-25.5371 33.1055-25.5371ZM71.5332-18.75Q72.6074-18.0176 73.9746-18.2617Q75.3418-18.5059 76.2207-19.7754Q78.418-22.7051 79.6387-26.8066Q80.8594-30.9082 80.8594-35.2051Q80.8594-39.502 79.6387-43.5791Q78.418-47.6562 76.2207-50.6348Q75.3418-51.9043 73.9746-52.1484Q72.6074-52.3926 71.5332-51.6113Q70.2148-50.6836 70.0195-49.2432Q69.8242-47.8027 70.8496-46.4355Q72.3633-44.3359 73.2178-41.333Q74.0723-38.3301 74.0723-35.2051Q74.0723-32.0801 73.1934-29.1016Q72.3145-26.123 70.8496-23.9746Q69.8242-22.6074 70.0195-21.1426Q70.2148-19.6777 71.5332-18.75Z"/>
  </g>
  <g id="Light-S" transform="matrix(1 0 0 1 1108.13 696)">
   <path d="M18.5872-20.0684L29.7526-20.0684Q30.3385-20.0684 30.778-19.6777L48.2585-4.03646Q49.4954-2.92969 50.5697-2.38444Q51.6439-1.83919 52.8971-1.83919Q54.6387-1.83919 55.7454-2.97852Q56.8522-4.11784 56.8522-5.8431L56.8522-64.4206Q56.8522-66.1621 55.7292-67.391Q54.6061-68.6198 52.8158-68.6198Q51.5788-68.6198 50.5941-68.0094Q49.6094-67.3991 48.2585-66.2109L30.778-50.6022Q30.3711-50.2441 29.7526-50.2441L18.5872-50.2441Q14.9577-50.2441 13.1429-48.3643Q11.3281-46.4844 11.3281-42.6107L11.3281-27.6204Q11.3281-23.7956 13.1429-21.932Q14.9577-20.0684 18.5872-20.0684ZM18.8151-25Q17.6595-25 17.1468-25.5371Q16.6341-26.0742 16.6341-27.2298L16.6341-43.0501Q16.6341-44.222 17.1468-44.7591Q17.6595-45.2962 18.8151-45.2962L31.0059-45.2962Q31.7871-45.2962 32.3975-45.4834Q33.0078-45.6706 33.6914-46.2891L50.3743-61.4746Q50.5371-61.6048 50.708-61.7188Q50.8789-61.8327 51.0742-61.8327Q51.6276-61.8327 51.6276-61.263L51.6276-9.24479Q51.6276-8.6263 51.123-8.6263Q50.765-8.6263 50.3906-9.00065L33.6914-24.0234Q32.5521-25 31.0059-25ZM70.2637-19.0267Q71.1263-18.4408 72.1761-18.6361Q73.2259-18.8314 73.9095-19.7917Q76.1068-22.6888 77.3844-26.7334Q78.6621-30.778 78.6621-35.2214Q78.6621-39.6647 77.3844-43.693Q76.1068-47.7214 73.9095-50.651Q73.2259-51.6113 72.1761-51.8066Q71.1263-52.002 70.2637-51.3835Q69.2546-50.6673 69.1081-49.5524Q68.9616-48.4375 69.7591-47.3796Q71.5332-44.9219 72.4691-41.8132Q73.4049-38.7044 73.4049-35.2214Q73.4049-31.7383 72.4528-28.6458Q71.5007-25.5534 69.7591-23.0632Q68.9616-22.0052 69.1081-20.874Q69.2546-19.7428 70.2637-19.0267Z"/>
  </g>
  <g id="Thin-S" transform="matrix(1 0 0 1 813.346 696)">
   <path d="M16.0471-21.2308L27.7722-21.2308Q28.5519-21.2308 29.1205-20.711L47.3113-4.53157Q48.1178-3.76922 48.9337-3.34236Q49.7496-2.91551 50.723-2.91551Q52.0555-2.91551 52.8501-3.81804Q53.6448-4.72058 53.6448-6.01531L53.6448-64.3775Q53.6448-65.7101 52.8446-66.6591Q52.0445-67.6081 50.6631-67.6081Q49.7275-67.6081 48.9581-67.1269Q48.1886-66.6457 47.3113-65.888L29.1205-49.3967Q28.6275-48.9526 27.7722-48.9526L16.0471-48.9526Q13.171-48.9526 11.7652-47.4924Q10.3594-46.0323 10.3594-43.0412L10.3594-27.0177Q10.3594-24.0754 11.7652-22.6531Q13.171-21.2308 16.0471-21.2308ZM16.1243-24.2896Q14.7319-24.2896 14.1869-24.8913Q13.6419-25.493 13.6419-26.8854L13.6419-43.2223Q13.6419-44.6525 14.1869-45.2542Q14.7319-45.8559 16.1243-45.8559L28.229-45.8559Q29.0748-45.8559 29.7174-46.0323Q30.3601-46.2087 31.0437-46.8703L48.8675-63.1537Q49.1164-63.3269 49.3196-63.4947Q49.5227-63.6624 49.7826-63.6624Q50.4221-63.6624 50.4221-62.9851L50.4221-7.58726Q50.4221-6.86114 49.8315-6.86114Q49.4519-6.86114 48.9053-7.34312L31.0437-23.3131Q29.8828-24.2896 28.229-24.2896ZM68.5846-19.3926Q69.1674-19.0004 69.7974-19.1312Q70.4275-19.2619 70.8528-19.8132Q73.05-22.6673 74.403-26.6365Q75.756-30.6058 75.756-35.2429Q75.756-39.88 74.403-43.8437Q73.05-47.8075 70.8528-50.6726Q70.4275-51.2239 69.7974-51.3546Q69.1674-51.4853 68.5846-51.0821Q67.9845-50.6458 67.9026-49.9614Q67.8207-49.277 68.3168-48.6281Q70.4354-45.6968 71.4789-42.4482Q72.5224-39.1995 72.5224-35.2429Q72.5224-31.2862 71.4733-28.0431Q70.4243-24.8 68.3168-21.8577Q67.8207-21.2087 67.9026-20.5188Q67.9845-19.8289 68.5846-19.3926Z"/>
  </g>
  <g id="Ultralight-S" transform="matrix(1 0 0 1 517.621 696)">
   <path d="M14.7461-21.8262L26.7578-21.8262Q27.6367-21.8262 28.2715-21.2402L46.8262-4.78516Q47.4121-4.19922 48.0957-3.83301Q48.7793-3.4668 49.6094-3.4668Q50.7324-3.4668 51.3672-4.24805Q52.002-5.0293 52.002-6.10352L52.002-64.3555Q52.002-65.4785 51.3672-66.2842Q50.7324-67.0898 49.5605-67.0898Q48.7793-67.0898 48.1201-66.6748Q47.4609-66.2598 46.8262-65.7227L28.2715-48.7793Q27.7344-48.291 26.7578-48.291L14.7461-48.291Q12.2559-48.291 11.0596-47.0459Q9.86328-45.8008 9.86328-43.2617L9.86328-26.709Q9.86328-24.2188 11.0596-23.0225Q12.2559-21.8262 14.7461-21.8262ZM14.7461-23.9258Q13.2324-23.9258 12.6709-24.5605Q12.1094-25.1953 12.1094-26.709L12.1094-43.3105Q12.1094-44.873 12.6709-45.5078Q13.2324-46.1426 14.7461-46.1426L26.8066-46.1426Q27.6855-46.1426 28.3447-46.3135Q29.0039-46.4844 29.6875-47.168L48.0957-64.0137Q48.3887-64.209 48.6084-64.4043Q48.8281-64.5996 49.1211-64.5996Q49.8047-64.5996 49.8047-63.8672L49.8047-6.73828Q49.8047-5.95703 49.1699-5.95703Q48.7793-5.95703 48.1445-6.49414L29.6875-22.9492Q28.5156-23.9258 26.8066-23.9258ZM67.7246-19.5801Q68.1641-19.2871 68.5791-19.3848Q68.9941-19.4824 69.2871-19.8242Q71.4844-22.6562 72.876-26.5869Q74.2676-30.5176 74.2676-35.2539Q74.2676-39.9902 72.876-43.9209Q71.4844-47.8516 69.2871-50.6836Q68.9941-51.0254 68.5791-51.123Q68.1641-51.2207 67.7246-50.9277Q67.334-50.6348 67.2852-50.1709Q67.2363-49.707 67.5781-49.2676Q69.873-46.0938 70.9717-42.7734Q72.0703-39.4531 72.0703-35.2539Q72.0703-31.0547 70.9717-27.7344Q69.873-24.4141 67.5781-21.2402Q67.2363-20.8008 67.2852-20.3369Q67.334-19.873 67.7246-19.5801Z"/>
  </g>
 </g>
</svg>
