<?xml version="1.0" encoding="UTF-8"?>
<!--Generator: Apple Native CoreSVG 149-->
<!DOCTYPE svg
PUBLIC "-//W3C//DTD SVG 1.1//EN"
       "http://www.w3.org/Graphics/SVG/1.1/DTD/svg11.dtd">
<svg version="1.1" xmlns="http://www.w3.org/2000/svg" xmlns:xlink="http://www.w3.org/1999/xlink" width="3300" height="2200">
 <!--glyph: "uni10020A.medium", point size: 100.000000, font version: "Version 16.0d18e1", template writer version: "8"-->
 <g id="Notes">
  <rect height="2200" id="artboard" style="fill:white;opacity:1" width="3300" x="0" y="0"/>
  <line id="" style="fill:none;stroke:black;opacity:1;stroke-width:0.5;" x1="263" x2="3036" y1="292" y2="292"/>
  <text style="stroke:none;fill:black;font-family:-apple-system,&quot;SF Pro Display&quot;,&quot;SF Pro Text&quot;,Helvetica,sans-serif;font-weight:bold;" transform="matrix(1 0 0 1 263 322)">Weight/Scale Variations</text>
  <text style="stroke:none;fill:black;font-family:-apple-system,&quot;SF Pro Display&quot;,&quot;SF Pro Text&quot;,Helvetica,sans-serif;text-anchor:middle;" transform="matrix(1 0 0 1 559.711 322)">Ultralight</text>
  <text style="stroke:none;fill:black;font-family:-apple-system,&quot;SF Pro Display&quot;,&quot;SF Pro Text&quot;,Helvetica,sans-serif;text-anchor:middle;" transform="matrix(1 0 0 1 856.422 322)">Thin</text>
  <text style="stroke:none;fill:black;font-family:-apple-system,&quot;SF Pro Display&quot;,&quot;SF Pro Text&quot;,Helvetica,sans-serif;text-anchor:middle;" transform="matrix(1 0 0 1 1153.13 322)">Light</text>
  <text style="stroke:none;fill:black;font-family:-apple-system,&quot;SF Pro Display&quot;,&quot;SF Pro Text&quot;,Helvetica,sans-serif;text-anchor:middle;" transform="matrix(1 0 0 1 1449.84 322)">Regular</text>
  <text style="stroke:none;fill:black;font-family:-apple-system,&quot;SF Pro Display&quot;,&quot;SF Pro Text&quot;,Helvetica,sans-serif;text-anchor:middle;" transform="matrix(1 0 0 1 1746.56 322)">Medium</text>
  <text style="stroke:none;fill:black;font-family:-apple-system,&quot;SF Pro Display&quot;,&quot;SF Pro Text&quot;,Helvetica,sans-serif;text-anchor:middle;" transform="matrix(1 0 0 1 2043.27 322)">Semibold</text>
  <text style="stroke:none;fill:black;font-family:-apple-system,&quot;SF Pro Display&quot;,&quot;SF Pro Text&quot;,Helvetica,sans-serif;text-anchor:middle;" transform="matrix(1 0 0 1 2339.98 322)">Bold</text>
  <text style="stroke:none;fill:black;font-family:-apple-system,&quot;SF Pro Display&quot;,&quot;SF Pro Text&quot;,Helvetica,sans-serif;text-anchor:middle;" transform="matrix(1 0 0 1 2636.69 322)">Heavy</text>
  <text style="stroke:none;fill:black;font-family:-apple-system,&quot;SF Pro Display&quot;,&quot;SF Pro Text&quot;,Helvetica,sans-serif;text-anchor:middle;" transform="matrix(1 0 0 1 2933.4 322)">Black</text>
  <line id="" style="fill:none;stroke:black;opacity:1;stroke-width:0.5;" x1="263" x2="3036" y1="1903" y2="1903"/>
  <g id="" transform="matrix(1 0 0 1 263 1933)">
   <path d="M9.24805 0.830078C13.5547 0.830078 17.1387-2.74414 17.1387-7.05078C17.1387-11.3574 13.5449-14.9316 9.23828-14.9316C4.94141-14.9316 1.36719-11.3574 1.36719-7.05078C1.36719-2.74414 4.95117 0.830078 9.24805 0.830078ZM9.24805-0.654297C5.70312-0.654297 2.87109-3.49609 2.87109-7.05078C2.87109-10.6055 5.69336-13.4473 9.23828-13.4473C12.793-13.4473 15.6348-10.6055 15.6445-7.05078C15.6543-3.49609 12.8027-0.654297 9.24805-0.654297ZM6.39648-6.31836L8.50586-6.31836L8.50586-4.19922C8.50586-3.75977 8.79883-3.45703 9.22852-3.45703C9.67773-3.45703 9.9707-3.75977 9.9707-4.19922L9.9707-6.31836L12.0996-6.31836C12.5391-6.31836 12.8418-6.61133 12.8418-7.04102C12.8418-7.48047 12.5391-7.7832 12.0996-7.7832L9.9707-7.7832L9.9707-9.89258C9.9707-10.3418 9.67773-10.6445 9.22852-10.6445C8.79883-10.6445 8.50586-10.3418 8.50586-9.89258L8.50586-7.7832L6.39648-7.7832C5.94727-7.7832 5.64453-7.48047 5.64453-7.04102C5.64453-6.61133 5.94727-6.31836 6.39648-6.31836Z"/>
  </g>
  <g id="" transform="matrix(1 0 0 1 281.506 1933)">
   <path d="M11.709 2.91016C17.1582 2.91016 21.6699-1.61133 21.6699-7.05078C21.6699-12.5 17.1484-17.0117 11.6992-17.0117C6.25977-17.0117 1.74805-12.5 1.74805-7.05078C1.74805-1.61133 6.26953 2.91016 11.709 2.91016ZM11.709 1.25C7.09961 1.25 3.41797-2.44141 3.41797-7.05078C3.41797-11.6602 7.08984-15.3516 11.6992-15.3516C16.3086-15.3516 20-11.6602 20.0098-7.05078C20.0195-2.44141 16.3184 1.25 11.709 1.25ZM7.98828-6.23047L10.8789-6.23047L10.8789-3.32031C10.8789-2.83203 11.2109-2.5 11.6895-2.5C12.1777-2.5 12.5195-2.83203 12.5195-3.32031L12.5195-6.23047L15.4297-6.23047C15.918-6.23047 16.25-6.5625 16.25-7.04102C16.25-7.5293 15.918-7.87109 15.4297-7.87109L12.5195-7.87109L12.5195-10.7617C12.5195-11.2695 12.1777-11.6016 11.6895-11.6016C11.2109-11.6016 10.8789-11.2598 10.8789-10.7617L10.8789-7.87109L7.98828-7.87109C7.48047-7.87109 7.14844-7.5293 7.14844-7.04102C7.14844-6.5625 7.49023-6.23047 7.98828-6.23047Z"/>
  </g>
  <g id="" transform="matrix(1 0 0 1 304.924 1933)">
   <path d="M14.9707 5.66406C21.9336 5.66406 27.6953-0.0976562 27.6953-7.05078C27.6953-14.0137 21.9238-19.7754 14.9609-19.7754C8.00781-19.7754 2.25586-14.0137 2.25586-7.05078C2.25586-0.0976562 8.01758 5.66406 14.9707 5.66406ZM14.9707 3.84766C8.93555 3.84766 4.08203-1.01562 4.08203-7.05078C4.08203-13.0957 8.92578-17.9492 14.9609-17.9492C21.0059-17.9492 25.8594-13.0957 25.8691-7.05078C25.8789-1.01562 21.0156 3.84766 14.9707 3.84766ZM10.0586-6.14258L14.0625-6.14258L14.0625-2.12891C14.0625-1.5918 14.4336-1.2207 14.9512-1.2207C15.4883-1.2207 15.8594-1.5918 15.8594-2.12891L15.8594-6.14258L19.8828-6.14258C20.4102-6.14258 20.791-6.51367 20.791-7.03125C20.791-7.56836 20.4199-7.94922 19.8828-7.94922L15.8594-7.94922L15.8594-11.9531C15.8594-12.5098 15.4883-12.8809 14.9512-12.8809C14.4336-12.8809 14.0625-12.5 14.0625-11.9531L14.0625-7.94922L10.0586-7.94922C9.50195-7.94922 9.13086-7.56836 9.13086-7.03125C9.13086-6.51367 9.51172-6.14258 10.0586-6.14258Z"/>
  </g>
  <text style="stroke:none;fill:black;font-family:-apple-system,&quot;SF Pro Display&quot;,&quot;SF Pro Text&quot;,Helvetica,sans-serif;font-weight:bold;" transform="matrix(1 0 0 1 263 1953)">Design Variations</text>
  <text style="stroke:none;fill:black;font-family:-apple-system,&quot;SF Pro Display&quot;,&quot;SF Pro Text&quot;,Helvetica,sans-serif;" transform="matrix(1 0 0 1 263 1971)">Symbols are supported in up to nine weights and three scales.</text>
  <text style="stroke:none;fill:black;font-family:-apple-system,&quot;SF Pro Display&quot;,&quot;SF Pro Text&quot;,Helvetica,sans-serif;" transform="matrix(1 0 0 1 263 1989)">For optimal layout with text and other symbols, vertically align</text>
  <text style="stroke:none;fill:black;font-family:-apple-system,&quot;SF Pro Display&quot;,&quot;SF Pro Text&quot;,Helvetica,sans-serif;" transform="matrix(1 0 0 1 263 2007)">symbols with the adjacent text.</text>
  <line id="" style="fill:none;stroke:#00AEEF;stroke-width:0.5;opacity:1.0;" x1="776" x2="776" y1="1919" y2="1933"/>
  <g id="" transform="matrix(1 0 0 1 776 1933)">
   <path d="M3.31055 0.126953C3.82812 0.126953 4.08203-0.0683594 4.26758-0.605469L5.52734-4.0625L11.2891-4.0625L12.5488-0.605469C12.7344-0.0683594 12.9883 0.126953 13.4961 0.126953C14.0137 0.126953 14.3457-0.185547 14.3457-0.673828C14.3457-0.839844 14.3164-0.986328 14.2383-1.20117L9.6582-13.3887C9.43359-13.9941 9.0332-14.2871 8.4082-14.2871C7.80273-14.2871 7.39258-13.9941 7.17773-13.3984L2.59766-1.19141C2.51953-0.976562 2.49023-0.830078 2.49023-0.664062C2.49023-0.175781 2.80273 0.126953 3.31055 0.126953ZM6.00586-5.53711L8.37891-12.1094L8.42773-12.1094L10.8008-5.53711Z"/>
  </g>
  <line id="" style="fill:none;stroke:#00AEEF;stroke-width:0.5;opacity:1.0;" x1="792.836" x2="792.836" y1="1919" y2="1933"/>
  <text style="stroke:none;fill:black;font-family:-apple-system,&quot;SF Pro Display&quot;,&quot;SF Pro Text&quot;,Helvetica,sans-serif;font-weight:bold;" transform="matrix(1 0 0 1 776 1953)">Margins</text>
  <text style="stroke:none;fill:black;font-family:-apple-system,&quot;SF Pro Display&quot;,&quot;SF Pro Text&quot;,Helvetica,sans-serif;" transform="matrix(1 0 0 1 776 1971)">Leading and trailing margins on the left and right side of each symbol</text>
  <text style="stroke:none;fill:black;font-family:-apple-system,&quot;SF Pro Display&quot;,&quot;SF Pro Text&quot;,Helvetica,sans-serif;" transform="matrix(1 0 0 1 776 1989)">can be adjusted by modifying the x-location of the margin guidelines.</text>
  <text style="stroke:none;fill:black;font-family:-apple-system,&quot;SF Pro Display&quot;,&quot;SF Pro Text&quot;,Helvetica,sans-serif;" transform="matrix(1 0 0 1 776 2007)">Modifications are automatically applied proportionally to all</text>
  <text style="stroke:none;fill:black;font-family:-apple-system,&quot;SF Pro Display&quot;,&quot;SF Pro Text&quot;,Helvetica,sans-serif;" transform="matrix(1 0 0 1 776 2025)">scales and weights.</text>
  <g id="" transform="matrix(1 0 0 1 1289 1933)">
   <path d="M2.8418 1.86523L4.54102 3.57422C5.40039 4.44336 6.38672 4.38477 7.31445 3.35938L17.4902-7.85156C17.7539-7.76367 18.0273-7.7832 18.3398-7.8418L19.4043-8.03711L20.0684-7.36328L20.0293-6.80664C19.9902-6.30859 20.1172-5.92773 20.6055-5.44922L21.3672-4.70703C21.8457-4.22852 22.4609-4.19922 22.9297-4.66797L25.8398-7.58789C26.3086-8.05664 26.2891-8.65234 25.8105-9.13086L25.0391-9.89258C24.5605-10.3711 24.1895-10.5273 23.7109-10.4883L23.1348-10.4395L22.4902-11.0742L22.7344-12.1973C22.8613-12.7637 22.7051-13.2031 22.1191-13.7891L19.9219-15.9766C16.582-19.2969 12.1484-19.2188 9.25781-16.3281C8.83789-15.918 8.80859-15.3418 9.04297-14.9512C9.27734-14.5898 9.73633-14.3555 10.3809-14.5215C11.8457-14.8633 13.3691-14.9219 14.7949-13.9844L14.209-12.5293C14.0137-12.0508 13.9844-11.6504 14.1113-11.2891L3.04688-0.898438C2.06055 0.0195312 1.98242 0.996094 2.8418 1.86523ZM10.752-15.957C13.1836-17.7344 16.4746-17.4316 18.7012-15.2051L21.1328-12.793C21.3672-12.5586 21.4062-12.373 21.3379-12.0312L21.0156-10.5469L22.5195-9.0625L23.5059-9.12109C23.7598-9.13086 23.8379-9.11133 24.0332-8.91602L24.6094-8.33984L22.168-5.89844L21.5918-6.47461C21.3965-6.66992 21.3672-6.74805 21.377-7.01172L21.4453-7.98828L19.9512-9.47266L18.4277-9.21875C18.1055-9.15039 17.959-9.17969 17.7148-9.41406L15.7129-11.416C15.459-11.6504 15.4297-11.8164 15.5859-12.1875L16.4648-14.2773C14.9023-15.7324 12.8711-16.3574 10.8398-15.7617C10.6836-15.7227 10.625-15.8496 10.752-15.957ZM5.27344 2.30469L4.10156 1.14258C3.63281 0.683594 3.74023 0.341797 4.14062-0.0195312L14.9512-10.1953L16.416-8.71094L6.42578 2.27539C6.07422 2.67578 5.74219 2.77344 5.27344 2.30469Z"/>
  </g>
  <text style="stroke:none;fill:black;font-family:-apple-system,&quot;SF Pro Display&quot;,&quot;SF Pro Text&quot;,Helvetica,sans-serif;font-weight:bold;" transform="matrix(1 0 0 1 1289 1953)">Exporting</text>
  <text style="stroke:none;fill:black;font-family:-apple-system,&quot;SF Pro Display&quot;,&quot;SF Pro Text&quot;,Helvetica,sans-serif;" transform="matrix(1 0 0 1 1289 1971)">Symbols should be outlined when exporting to ensure the</text>
  <text style="stroke:none;fill:black;font-family:-apple-system,&quot;SF Pro Display&quot;,&quot;SF Pro Text&quot;,Helvetica,sans-serif;" transform="matrix(1 0 0 1 1289 1989)">design is preserved when submitting to Xcode.</text>
  <text id="template-version" style="stroke:none;fill:black;font-family:-apple-system,&quot;SF Pro Display&quot;,&quot;SF Pro Text&quot;,Helvetica,sans-serif;text-anchor:end;" transform="matrix(1 0 0 1 3036 1933)">Template v.2.0</text>
  <text style="stroke:none;fill:black;font-family:-apple-system,&quot;SF Pro Display&quot;,&quot;SF Pro Text&quot;,Helvetica,sans-serif;text-anchor:end;" transform="matrix(1 0 0 1 3036 1951)">Requires Xcode 12 or greater</text>
  <text style="stroke:none;fill:black;font-family:-apple-system,&quot;SF Pro Display&quot;,&quot;SF Pro Text&quot;,Helvetica,sans-serif;text-anchor:end;" transform="matrix(1 0 0 1 3036 1969)">Generated from pencil</text>
  <text style="stroke:none;fill:black;font-family:-apple-system,&quot;SF Pro Display&quot;,&quot;SF Pro Text&quot;,Helvetica,sans-serif;text-anchor:end;" transform="matrix(1 0 0 1 3036 1987)">Typeset at 100 points</text>
  <text style="stroke:none;fill:black;font-family:-apple-system,&quot;SF Pro Display&quot;,&quot;SF Pro Text&quot;,Helvetica,sans-serif;" transform="matrix(1 0 0 1 263 726)">Small</text>
  <text style="stroke:none;fill:black;font-family:-apple-system,&quot;SF Pro Display&quot;,&quot;SF Pro Text&quot;,Helvetica,sans-serif;" transform="matrix(1 0 0 1 263 1156)">Medium</text>
  <text style="stroke:none;fill:black;font-family:-apple-system,&quot;SF Pro Display&quot;,&quot;SF Pro Text&quot;,Helvetica,sans-serif;" transform="matrix(1 0 0 1 263 1586)">Large</text>
 </g>
 <g id="Guides">
  <g id="H-reference" style="fill:#27AAE1;stroke:none;" transform="matrix(1 0 0 1 339 696)">
   <path d="M0.976562 0L3.66211 0L12.9883-24.4629L45.752-24.4629L55.127 0L57.7637 0L30.6152-70.459L28.125-70.459ZM29.3457-67.1387L29.4434-67.1387L44.873-26.709L13.8672-26.709Z"/>
  </g>
  <line id="Baseline-S" style="fill:none;stroke:#27AAE1;opacity:1;stroke-width:0.5;" x1="263" x2="3036" y1="696" y2="696"/>
  <line id="Capline-S" style="fill:none;stroke:#27AAE1;opacity:1;stroke-width:0.5;" x1="263" x2="3036" y1="625.541" y2="625.541"/>
  <g id="H-reference" style="fill:#27AAE1;stroke:none;" transform="matrix(1 0 0 1 339 1126)">
   <path d="M0.976562 0L3.66211 0L12.9883-24.4629L45.752-24.4629L55.127 0L57.7637 0L30.6152-70.459L28.125-70.459ZM29.3457-67.1387L29.4434-67.1387L44.873-26.709L13.8672-26.709Z"/>
  </g>
  <line id="Baseline-M" style="fill:none;stroke:#27AAE1;opacity:1;stroke-width:0.5;" x1="263" x2="3036" y1="1126" y2="1126"/>
  <line id="Capline-M" style="fill:none;stroke:#27AAE1;opacity:1;stroke-width:0.5;" x1="263" x2="3036" y1="1055.54" y2="1055.54"/>
  <g id="H-reference" style="fill:#27AAE1;stroke:none;" transform="matrix(1 0 0 1 339 1556)">
   <path d="M0.976562 0L3.66211 0L12.9883-24.4629L45.752-24.4629L55.127 0L57.7637 0L30.6152-70.459L28.125-70.459ZM29.3457-67.1387L29.4434-67.1387L44.873-26.709L13.8672-26.709Z"/>
  </g>
  <line id="Baseline-L" style="fill:none;stroke:#27AAE1;opacity:1;stroke-width:0.5;" x1="263" x2="3036" y1="1556" y2="1556"/>
  <line id="Capline-L" style="fill:none;stroke:#27AAE1;opacity:1;stroke-width:0.5;" x1="263" x2="3036" y1="1485.54" y2="1485.54"/>
  <line id="left-margin" style="fill:none;stroke:#00AEEF;stroke-width:0.5;opacity:1.0;" x1="1399.72" x2="1399.72" y1="1030.79" y2="1150.12"/>
  <line id="right-margin" style="fill:none;stroke:#00AEEF;stroke-width:0.5;opacity:1.0;" x1="1499.97" x2="1499.97" y1="1030.79" y2="1150.12"/>
 </g>
 <g id="Symbols">
  <g id="Black-L" transform="matrix(1 0 0 1 2859.11 1556)">
   <path d="M122.51-67.6758L130.957-76.123C134.961-80.127 135.156-84.9121 131.348-88.8184L127.686-92.5293C123.828-96.4355 118.945-96.0449 114.893-92.0898L106.445-83.7402ZM37.3047 17.4805L114.697-59.9609L98.6816-75.9766L21.3379 1.46484L14.7461 18.9941C13.5742 22.1191 16.7969 25.0977 19.6289 24.0234Z"/>
  </g>
  <g id="Heavy-L" transform="matrix(1 0 0 1 2564.69 1556)">
   <path d="M118.701-67.0898L126.514-74.9023C130.322-78.7109 130.469-83.1055 126.953-86.7188L123.73-89.9414C120.166-93.5547 115.674-93.2129 111.914-89.502L104.053-81.7383ZM35.791 15.7715L111.475-60.0098L96.9238-74.6094L21.1914 1.17188L14.6973 17.7246C13.6719 20.459 16.5039 23.0957 18.9941 22.168Z"/>
  </g>
  <g id="Bold-L" transform="matrix(1 0 0 1 2270.54 1556)">
   <path d="M114.453-66.4062L121.631-73.5352C125.146-77.0996 125.293-81.0547 122.021-84.375L119.336-87.0605C116.113-90.332 112.061-89.9902 108.545-86.5723L101.367-79.4922ZM34.0332 13.8672L107.91-60.0098L94.9219-73.0469L21.0449 0.830078L14.6973 16.3574C13.8184 18.6035 16.1621 20.8496 18.2617 20.0195Z"/>
  </g>
  <g id="Semibold-L" transform="matrix(1 0 0 1 1975.59 1556)">
   <path d="M111.475-65.918L118.213-72.6074C121.582-75.9766 121.729-79.6387 118.652-82.7148L116.309-85.0586C113.281-88.1348 109.521-87.8418 106.25-84.5703L99.4629-77.9297ZM32.8125 12.5977L105.469-60.0098L93.5547-71.9727L20.9473 0.634766L14.6484 15.3809C13.916 17.334 15.918 19.2871 17.7246 18.6035Z"/>
  </g>
  <g id="Medium-L" transform="matrix(1 0 0 1 1680.22 1556)">
   <path d="M109.277-65.5762L115.625-71.875C118.848-75.1465 118.994-78.5645 116.113-81.4941L114.014-83.5938C111.133-86.4746 107.617-86.1328 104.492-83.0566L98.0957-76.7578ZM31.9336 11.5723L103.613-60.0586L92.5293-71.1426L20.8496 0.439453L14.6484 14.6484C13.9648 16.3086 15.7227 18.1152 17.3828 17.4805Z"/>
  </g>
  <g id="Regular-L" transform="matrix(1 0 0 1 1385.27 1556)">
   <path d="M106.348-65.1367L112.305-70.9473C115.332-74.0234 115.43-77.1484 112.744-79.8828L111.035-81.5918C108.35-84.2773 105.127-83.9844 102.197-81.0547L96.2402-75.2441ZM30.7617 10.3027L101.172-60.0586L91.1621-70.0684L20.752 0.244141L14.5996 13.7207C14.0625 15.0391 15.4785 16.6016 16.8457 16.0645Z"/>
  </g>
  <g id="Light-L" transform="matrix(1 0 0 1 1088.7 1556)">
   <path d="M106.885-66.6016L112.207-71.875C114.941-74.707 115.088-77.4414 112.598-79.9316L111.426-81.1035C109.033-83.4961 106.152-83.2031 103.467-80.5664L98.1934-75.3418ZM29.4434 10.5957L102.1-61.9629L93.5059-70.6055L20.8496 1.95312L14.5996 14.6484C14.1113 15.8203 15.332 17.0898 16.4551 16.6016Z"/>
  </g>
  <g id="Thin-L" transform="matrix(1 0 0 1 792.213 1556)">
   <path d="M107.52-68.6035L112.061-73.0957C114.502-75.5859 114.6-77.7832 112.402-79.9805L111.963-80.4199C109.961-82.4219 107.471-82.1777 105.225-79.9316L100.732-75.4395ZM27.7344 11.0352L103.32-64.502L96.6309-71.2891L21.0449 4.19922L14.5508 15.9668C14.1602 16.7969 15.0879 17.7246 15.918 17.2852Z"/>
  </g>
  <g id="Ultralight-L" transform="matrix(1 0 0 1 495.6 1556)">
   <path d="M107.861-69.6289L112.012-73.6816C114.258-76.0254 114.307-77.9785 112.305-79.9805L112.256-80.0781C110.4-81.8848 108.203-81.6406 106.104-79.5898L102.051-75.4883ZM26.8555 11.2305L103.955-65.8203L98.2422-71.6309L21.0938 5.32227L14.5508 16.6016C14.1602 17.334 14.9902 18.0664 15.625 17.6758Z"/>
  </g>
  <g id="Black-M" transform="matrix(1 0 0 1 2872.83 1126)">
   <path d="M100.342-62.0117L107.373-69.043C110.693-72.3633 110.791-76.3672 107.617-79.6387L104.443-82.8125C101.27-86.084 97.1191-85.791 93.7988-82.5195L86.7676-75.5371ZM30.3223 8.05664L93.7012-55.4199L80.127-68.9453L16.748-5.46875L11.4746 8.98438C10.4004 11.8652 13.3301 14.4531 15.8691 13.5254Z"/>
  </g>
  <g id="Heavy-M" transform="matrix(1 0 0 1 2578.58 1126)">
   <path d="M96.0449-60.9375L102.588-67.4805C105.713-70.6055 105.811-74.2676 102.832-77.2949L100.049-80.127C97.0703-83.1543 93.3105-82.8613 90.1855-79.834L83.6426-73.3398ZM28.9551 6.15234L89.9414-54.9316L77.5879-67.2852L16.6016-6.25L11.4258 7.37305C10.498 9.86328 13.0371 12.1582 15.2832 11.3281Z"/>
  </g>
  <g id="Bold-M" transform="matrix(1 0 0 1 2284.63 1126)">
   <path d="M91.2109-59.7656L97.2168-65.7227C100.098-68.6523 100.244-71.9727 97.5098-74.707L95.1172-77.1484C92.4316-79.8828 89.0137-79.6387 86.1328-76.7578L80.127-70.8496ZM27.4414 3.95508L85.7422-54.3945L74.707-65.4297L16.3574-7.08008L11.377 5.56641C10.6445 7.61719 12.7441 9.57031 14.5996 8.88672Z"/>
  </g>
  <g id="Semibold-M" transform="matrix(1 0 0 1 1989.82 1126)">
   <path d="M87.9395-58.9844L93.5059-64.502C96.2891-67.2852 96.3867-70.3613 93.8477-72.9492L91.748-75.0977C89.209-77.6367 86.0352-77.3926 83.3008-74.707L77.6855-69.1406ZM26.3672 2.49023L82.8613-54.0039L72.7539-64.1602L16.2598-7.66602L11.377 4.3457C10.6934 6.05469 12.5 7.76367 14.1113 7.17773Z"/>
  </g>
  <g id="Medium-M" transform="matrix(1 0 0 1 1694.55 1126)">
   <path d="M85.4004-58.3496L90.7227-63.623C93.3594-66.2598 93.457-69.1406 91.0645-71.582L89.1602-73.5352C86.7676-75.9277 83.7891-75.6836 81.2012-73.0957L75.8789-67.8711ZM25.5859 1.36719L80.7129-53.7598L71.2402-63.1836L16.1133-8.1543L11.3281 3.36914C10.791 4.83398 12.3047 6.44531 13.7695 5.9082Z"/>
  </g>
  <g id="Regular-M" transform="matrix(1 0 0 1 1399.72 1126)">
   <path d="M82.1289-57.5684L87.0605-62.4023C89.5508-64.8926 89.6484-67.5781 87.4512-69.8242L85.791-71.4844C83.5938-73.6816 80.9082-73.4375 78.418-71.0449L73.4863-66.1621ZM24.5605-0.146484L77.832-53.3691L69.2871-61.9629L15.9668-8.69141L11.3281 2.14844C10.8887 3.32031 12.1094 4.6875 13.2812 4.19922Z"/>
  </g>
  <g id="Light-M" transform="matrix(1 0 0 1 1103.13 1126)">
   <path d="M82.5684-58.8867L87.0117-63.2324C89.2578-65.5273 89.3555-67.8223 87.3535-69.8242L86.1816-70.9961C84.1797-72.998 81.8359-72.7539 79.6387-70.6055L75.1953-66.2598ZM23.3887 0.146484L78.7109-55.0781L71.4355-62.4023L16.1133-7.17773L11.3281 3.02734C10.9375 4.00391 11.9629 5.07812 12.9395 4.6875Z"/>
  </g>
  <g id="Thin-M" transform="matrix(1 0 0 1 806.593 1126)">
   <path d="M83.2031-60.6445L86.9141-64.3066C88.8672-66.3086 88.916-68.1152 87.1582-69.873L86.6699-70.4102C85.0098-72.0215 83.0078-71.8262 81.2012-70.0195L77.5391-66.3574ZM21.875 0.537109L79.834-57.373L74.2188-63.0371L16.2598-5.17578L11.3281 4.15039C10.9863 4.88281 11.7676 5.66406 12.4512 5.32227Z"/>
  </g>
  <g id="Ultralight-M" transform="matrix(1 0 0 1 509.98 1126)">
   <path d="M83.4961-61.5723L86.8652-64.8438C88.623-66.6992 88.7207-68.3105 87.1094-69.9219L86.9141-70.0684C85.4492-71.5332 83.6426-71.3867 81.9824-69.6777L78.7109-66.4062ZM21.0938 0.732422L80.4199-58.5449L75.6836-63.3301L16.3574-4.15039L11.3281 4.73633C10.9863 5.37109 11.6699 5.95703 12.207 5.66406Z"/>
  </g>
  <g id="Black-S" transform="matrix(1 0 0 1 2886.13 696)">
   <path d="M78.2715-56.1035L83.7402-61.5723C86.3281-64.1602 86.4258-67.2852 83.9355-69.8242L81.4941-72.3145C79.0039-74.8535 75.7812-74.6094 73.1934-72.0703L67.7246-66.6504ZM23.6816-1.46484L73.0957-50.9766L62.5488-61.5234L13.1348-12.0117L8.98438-0.732422C8.1543 1.51367 10.4492 3.51562 12.4023 2.7832Z"/>
  </g>
  <g id="Heavy-S" transform="matrix(1 0 0 1 2591.3 696)">
   <path d="M74.9023-55.127L80.0781-60.3027C82.5195-62.7441 82.6172-65.6738 80.2734-68.0664L78.0762-70.3125C75.7324-72.7051 72.7539-72.4609 70.2637-70.0684L65.0879-64.9414ZM22.7539-2.97852L70.1172-50.4395L60.3516-60.2051L12.9395-12.7441L8.93555-2.05078C8.20312-0.0976562 10.2051 1.70898 11.9629 1.02539Z"/>
  </g>
  <g id="Bold-S" transform="matrix(1 0 0 1 2296.69 696)">
   <path d="M71.1914-54.1016L75.9766-58.8379C78.3203-61.1816 78.418-63.8672 76.2207-66.0645L74.2676-68.0664C72.0703-70.2637 69.3359-70.0684 67.041-67.7734L62.207-63.0371ZM21.7285-4.6875L66.7969-49.8047L57.9102-58.7402L12.793-13.623L8.93555-3.56445C8.30078-1.9043 9.96094-0.341797 11.4746-0.878906Z"/>
  </g>
  <g id="Semibold-S" transform="matrix(1 0 0 1 2001.42 696)">
   <path d="M68.6035-53.3691L73.1445-57.8613C75.3906-60.1074 75.4883-62.5977 73.4375-64.6973L71.6309-66.5527C69.5801-68.6035 66.9922-68.4082 64.7949-66.2109L60.2051-61.7188ZM20.9961-5.81055L64.5508-49.3652L56.2012-57.7148L12.6465-14.1602L8.88672-4.58984C8.39844-3.17383 9.81445-1.75781 11.1328-2.24609Z"/>
  </g>
  <g id="Medium-S" transform="matrix(1 0 0 1 1705.81 696)">
   <path d="M66.6504-52.7832L71.0449-57.1289C73.1934-59.2773 73.291-61.6699 71.3379-63.6719L69.6289-65.3809C67.6758-67.334 65.2344-67.1387 63.0859-65.0391L58.6914-60.7422ZM20.459-6.73828L62.8418-49.0234L54.9316-56.9336L12.5977-14.5996L8.88672-5.37109C8.44727-4.10156 9.7168-2.7832 10.8887-3.22266Z"/>
  </g>
  <g id="Regular-S" transform="matrix(1 0 0 1 1410.51 696)">
   <path d="M64.1113-52.0508L68.2129-56.1523C70.3125-58.2031 70.4102-60.4492 68.5547-62.3047L67.041-63.8672C65.1855-65.7227 62.9395-65.5273 60.8398-63.5254L56.6895-59.4238ZM19.7754-7.86133L60.5469-48.584L53.2227-55.9082L12.4512-15.1855L8.88672-6.34766C8.49609-5.37109 9.52148-4.19922 10.5957-4.54102Z"/>
  </g>
  <g id="Light-S" transform="matrix(1 0 0 1 1113.92 696)">
   <path d="M64.502-53.2715L68.1641-56.8359C70.0195-58.7402 70.1172-60.6445 68.457-62.3535L67.3828-63.4277C65.7227-65.0879 63.7207-64.8926 61.9141-63.0859L58.252-59.5215ZM18.75-7.61719L61.3281-50.1465L55.127-56.3477L12.5488-13.8672L8.88672-5.61523C8.54492-4.78516 9.42383-3.80859 10.2539-4.15039Z"/>
  </g>
  <g id="Thin-S" transform="matrix(1 0 0 1 817.36 696)">
   <path d="M65.0391-54.834L68.0664-57.8125C69.6777-59.4238 69.7266-60.9375 68.3105-62.3535L67.8223-62.8906C66.4551-64.2578 64.7949-64.1113 63.2812-62.5977L60.3027-59.6191ZM17.4316-7.27539L62.3047-52.1484L57.6172-56.8848L12.6953-12.0605L8.83789-4.58984C8.59375-3.95508 9.22852-3.32031 9.86328-3.56445Z"/>
  </g>
  <g id="Ultralight-S" transform="matrix(1 0 0 1 520.722 696)">
   <path d="M65.332-55.6152L68.0176-58.3008C69.4824-59.7656 69.5312-61.084 68.2617-62.4023L68.0176-62.5977C66.7969-63.8184 65.3809-63.6719 64.0137-62.3047L61.3281-59.668ZM16.6992-7.12891L62.8418-53.1738L58.8867-57.1777L12.793-11.1328L8.83789-4.05273C8.59375-3.56445 9.17969-3.02734 9.61914-3.27148Z"/>
  </g>
 </g>
</svg>
