<?xml version="1.0" encoding="UTF-8"?>
<!--Generator: Apple Native CoreSVG 175.5-->
<!DOCTYPE svg
PUBLIC "-//W3C//DTD SVG 1.1//EN"
       "http://www.w3.org/Graphics/SVG/1.1/DTD/svg11.dtd">
<svg version="1.1" xmlns="http://www.w3.org/2000/svg" xmlns:xlink="http://www.w3.org/1999/xlink" width="10.4736" height="10.48">
 <g>
  <rect height="10.48" opacity="0" width="10.4736" x="0" y="0"/>
  <path d="M0 5.23682C0 5.54785 0.260254 5.80176 0.564941 5.80176L4.67188 5.80176L4.67188 9.90869C4.67188 10.2134 4.92578 10.4736 5.23682 10.4736C5.54785 10.4736 5.80811 10.2134 5.80811 9.90869L5.80811 5.80176L9.90869 5.80176C10.2134 5.80176 10.4736 5.54785 10.4736 5.23682C10.4736 4.92578 10.2134 4.66553 9.90869 4.66553L5.80811 4.66553L5.80811 0.564941C5.80811 0.260254 5.54785 0 5.23682 0C4.92578 0 4.67188 0.260254 4.67188 0.564941L4.67188 4.66553L0.564941 4.66553C0.260254 4.66553 0 4.92578 0 5.23682Z" fill="#000000" fill-opacity="0.85"/>
 </g>
</svg>
