<?xml version="1.0" encoding="UTF-8"?>
<!--Generator: Apple Native CoreSVG 175.5-->
<!DOCTYPE svg
PUBLIC "-//W3C//DTD SVG 1.1//EN"
       "http://www.w3.org/Graphics/SVG/1.1/DTD/svg11.dtd">
<svg version="1.1" xmlns="http://www.w3.org/2000/svg" xmlns:xlink="http://www.w3.org/1999/xlink" width="13.3428" height="13.4634">
 <g>
  <rect height="13.4634" opacity="0" width="13.3428" x="0" y="0"/>
  <path d="M4.70996 9.38818L8.63281 9.38818C9.52148 9.38818 9.99121 8.86768 9.99121 8.02979L9.99121 6.94434L12.397 6.94434C12.9238 6.94434 13.3428 6.6333 13.3428 6.14453C13.3428 5.84619 13.1904 5.61133 12.9048 5.36377L7.4585 0.558594C7.19189 0.330078 6.95703 0.177734 6.67139 0.177734C6.38574 0.177734 6.15088 0.330078 5.88428 0.558594L0.437988 5.37012C0.139648 5.63037 0 5.84619 0 6.14453C0 6.6333 0.418945 6.94434 0.945801 6.94434L3.35156 6.94434L3.35156 8.02979C3.35156 8.86768 3.82129 9.38818 4.70996 9.38818ZM4.81152 8.42969C4.57666 8.42969 4.41162 8.271 4.41162 8.02979L4.41162 6.20166C4.41162 6.04932 4.35449 5.98584 4.1958 5.98584L1.43457 5.98584C1.39014 5.98584 1.36475 5.9668 1.36475 5.93506C1.36475 5.90967 1.37744 5.88428 1.40283 5.85889L6.53809 1.40283C6.58887 1.35205 6.62695 1.33301 6.67139 1.33301C6.71582 1.33301 6.75391 1.35205 6.80469 1.40283L11.9399 5.85889C11.9653 5.88428 11.978 5.90967 11.978 5.93506C11.978 5.9668 11.9526 5.98584 11.9082 5.98584L9.14697 5.98584C8.99463 5.98584 8.93115 6.04932 8.93115 6.20166L8.93115 8.02979C8.93115 8.26465 8.75977 8.42969 8.53125 8.42969ZM4.43701 13.4634L8.84863 13.4634C9.58496 13.4634 10.0039 13.0571 10.0039 12.3208L10.0039 11.4131C10.0039 10.6704 9.58496 10.2515 8.84863 10.2515L4.43701 10.2515C3.70703 10.2515 3.28809 10.6768 3.28809 11.4131L3.28809 12.3208C3.28809 13.0508 3.70703 13.4634 4.43701 13.4634ZM4.58301 12.5684C4.36084 12.5684 4.24658 12.4541 4.24658 12.2319L4.24658 11.502C4.24658 11.2798 4.36084 11.1465 4.58301 11.1465L8.70264 11.1465C8.9248 11.1465 9.04541 11.2798 9.04541 11.502L9.04541 12.2319C9.04541 12.4541 8.9248 12.5684 8.70264 12.5684Z" fill="#000000" fill-opacity="0.85"/>
 </g>
</svg>
