<?xml version="1.0" encoding="UTF-8"?>
<!--Generator: Apple Native CoreSVG 175.5-->
<!DOCTYPE svg
PUBLIC "-//W3C//DTD SVG 1.1//EN"
       "http://www.w3.org/Graphics/SVG/1.1/DTD/svg11.dtd">
<svg version="1.1" xmlns="http://www.w3.org/2000/svg" xmlns:xlink="http://www.w3.org/1999/xlink" width="11.2671" height="14.2505">
 <g>
  <rect height="14.2505" opacity="0" width="11.2671" x="0" y="0"/>
  <path d="M0 11.0068C0 12.3208 0.666504 12.9746 1.99316 12.9746L9.46436 12.9746C10.6006 12.9746 11.2671 12.3145 11.2671 11.0068L11.2671 4.43701C11.2671 3.12939 10.5942 2.46924 9.27393 2.46924L8.2583 2.46924C8.22656 1.13623 7.06494 0 5.63037 0C4.1958 0 3.04053 1.13623 3.00244 2.46924L1.99316 2.46924C0.666504 2.46924 0 3.12305 0 4.43701ZM1.02197 10.9561L1.02197 4.48779C1.02197 3.82764 1.37109 3.49121 2.00586 3.49121L9.25488 3.49121C9.8833 3.49121 10.2451 3.82764 10.2451 4.48779L10.2451 10.9561C10.2451 11.6162 9.8833 11.9526 9.44531 11.9526L2.00586 11.9526C1.37109 11.9526 1.02197 11.6162 1.02197 10.9561ZM4.02441 2.46924C4.05615 1.64404 4.73535 0.964844 5.63037 0.964844C6.52539 0.964844 7.21094 1.64404 7.23633 2.46924Z" fill="#000000" fill-opacity="0.85"/>
 </g>
</svg>
