<?xml version="1.0" encoding="UTF-8"?>
<!--Generator: Apple Native CoreSVG 175-->
<!DOCTYPE svg
PUBLIC "-//W3C//DTD SVG 1.1//EN"
       "http://www.w3.org/Graphics/SVG/1.1/DTD/svg11.dtd">
<svg version="1.1" xmlns="http://www.w3.org/2000/svg" xmlns:xlink="http://www.w3.org/1999/xlink" width="3300" height="2200">
 <!--glyph: "uni1001A1.medium", point size: 100.0, font version: "17.1d1e1", template writer version: "65.1"-->
 <g id="Notes">
  <rect height="2200" id="artboard" style="fill:white;opacity:1" width="3300" x="0" y="0"/>
  <line style="fill:none;stroke:black;opacity:1;stroke-width:0.5;" x1="263" x2="3036" y1="292" y2="292"/>
  <text style="stroke:none;fill:black;font-family:sans-serif;font-size:13;font-weight:bold;" transform="matrix(1 0 0 1 263 322)">Weight/Scale Variations</text>
  <text style="stroke:none;fill:black;font-family:sans-serif;font-size:13;text-anchor:middle;" transform="matrix(1 0 0 1 559.711 322)">Ultralight</text>
  <text style="stroke:none;fill:black;font-family:sans-serif;font-size:13;text-anchor:middle;" transform="matrix(1 0 0 1 856.422 322)">Thin</text>
  <text style="stroke:none;fill:black;font-family:sans-serif;font-size:13;text-anchor:middle;" transform="matrix(1 0 0 1 1153.13 322)">Light</text>
  <text style="stroke:none;fill:black;font-family:sans-serif;font-size:13;text-anchor:middle;" transform="matrix(1 0 0 1 1449.84 322)">Regular</text>
  <text style="stroke:none;fill:black;font-family:sans-serif;font-size:13;text-anchor:middle;" transform="matrix(1 0 0 1 1746.56 322)">Medium</text>
  <text style="stroke:none;fill:black;font-family:sans-serif;font-size:13;text-anchor:middle;" transform="matrix(1 0 0 1 2043.27 322)">Semibold</text>
  <text style="stroke:none;fill:black;font-family:sans-serif;font-size:13;text-anchor:middle;" transform="matrix(1 0 0 1 2339.98 322)">Bold</text>
  <text style="stroke:none;fill:black;font-family:sans-serif;font-size:13;text-anchor:middle;" transform="matrix(1 0 0 1 2636.69 322)">Heavy</text>
  <text style="stroke:none;fill:black;font-family:sans-serif;font-size:13;text-anchor:middle;" transform="matrix(1 0 0 1 2933.4 322)">Black</text>
  <line style="fill:none;stroke:black;opacity:1;stroke-width:0.5;" x1="263" x2="3036" y1="1903" y2="1903"/>
  <g transform="matrix(1 0 0 1 263 1933)">
   <path d="M9.24805 0.830078Q10.8691 0.830078 12.2949 0.214844Q13.7207-0.400391 14.8096-1.49414Q15.8984-2.58789 16.5186-4.01367Q17.1387-5.43945 17.1387-7.05078Q17.1387-8.66211 16.5186-10.0879Q15.8984-11.5137 14.8047-12.6074Q13.7109-13.7012 12.2852-14.3164Q10.8594-14.9316 9.23828-14.9316Q7.62695-14.9316 6.20117-14.3164Q4.77539-13.7012 3.69141-12.6074Q2.60742-11.5137 1.9873-10.0879Q1.36719-8.66211 1.36719-7.05078Q1.36719-5.43945 1.9873-4.01367Q2.60742-2.58789 3.69629-1.49414Q4.78516-0.400391 6.21094 0.214844Q7.63672 0.830078 9.24805 0.830078ZM9.24805-0.654297Q7.91992-0.654297 6.7627-1.14746Q5.60547-1.64062 4.73145-2.51953Q3.85742-3.39844 3.36426-4.56055Q2.87109-5.72266 2.87109-7.05078Q2.87109-8.37891 3.35938-9.54102Q3.84766-10.7031 4.72168-11.582Q5.5957-12.4609 6.75293-12.9541Q7.91016-13.4473 9.23828-13.4473Q10.5762-13.4473 11.7334-12.9541Q12.8906-12.4609 13.7695-11.582Q14.6484-10.7031 15.1465-9.54102Q15.6445-8.37891 15.6445-7.05078Q15.6445-5.72266 15.1514-4.56055Q14.6582-3.39844 13.7842-2.51953Q12.9102-1.64062 11.748-1.14746Q10.5859-0.654297 9.24805-0.654297ZM5.6543-7.05078Q5.6543-6.72852 5.85938-6.52832Q6.06445-6.32812 6.40625-6.32812L8.51562-6.32812L8.51562-4.20898Q8.51562-3.88672 8.71094-3.67676Q8.90625-3.4668 9.23828-3.4668Q9.56055-3.4668 9.77051-3.67676Q9.98047-3.88672 9.98047-4.20898L9.98047-6.32812L12.0898-6.32812Q12.4219-6.32812 12.627-6.52832Q12.832-6.72852 12.832-7.05078Q12.832-7.38281 12.627-7.58789Q12.4219-7.79297 12.0898-7.79297L9.98047-7.79297L9.98047-9.90234Q9.98047-10.2344 9.77051-10.4443Q9.56055-10.6543 9.23828-10.6543Q8.90625-10.6543 8.71094-10.4443Q8.51562-10.2344 8.51562-9.90234L8.51562-7.79297L6.40625-7.79297Q6.06445-7.79297 5.85938-7.58789Q5.6543-7.38281 5.6543-7.05078Z"/>
  </g>
  <g transform="matrix(1 0 0 1 281.867 1933)">
   <path d="M11.709 2.91016Q13.75 2.91016 15.5518 2.12891Q17.3535 1.34766 18.7305-0.0292969Q20.1074-1.40625 20.8887-3.20801Q21.6699-5.00977 21.6699-7.05078Q21.6699-9.0918 20.8887-10.8936Q20.1074-12.6953 18.7305-14.0723Q17.3535-15.4492 15.5469-16.2305Q13.7402-17.0117 11.6992-17.0117Q9.6582-17.0117 7.85645-16.2305Q6.05469-15.4492 4.68262-14.0723Q3.31055-12.6953 2.5293-10.8936Q1.74805-9.0918 1.74805-7.05078Q1.74805-5.00977 2.5293-3.20801Q3.31055-1.40625 4.6875-0.0292969Q6.06445 1.34766 7.86621 2.12891Q9.66797 2.91016 11.709 2.91016ZM11.709 1.25Q9.98047 1.25 8.47656 0.605469Q6.97266-0.0390625 5.83496-1.17676Q4.69727-2.31445 4.05762-3.81836Q3.41797-5.32227 3.41797-7.05078Q3.41797-8.7793 4.05762-10.2832Q4.69727-11.7871 5.83008-12.9297Q6.96289-14.0723 8.4668-14.7119Q9.9707-15.3516 11.6992-15.3516Q13.4277-15.3516 14.9316-14.7119Q16.4355-14.0723 17.5781-12.9297Q18.7207-11.7871 19.3652-10.2832Q20.0098-8.7793 20.0098-7.05078Q20.0098-5.32227 19.3701-3.81836Q18.7305-2.31445 17.5928-1.17676Q16.4551-0.0390625 14.9463 0.605469Q13.4375 1.25 11.709 1.25ZM7.17773-7.05078Q7.17773-6.69922 7.41211-6.47461Q7.64648-6.25 8.01758-6.25L10.8887-6.25L10.8887-3.36914Q10.8887-2.99805 11.1133-2.76855Q11.3379-2.53906 11.6895-2.53906Q12.0605-2.53906 12.29-2.76855Q12.5195-2.99805 12.5195-3.36914L12.5195-6.25L15.4004-6.25Q15.7715-6.25 16.001-6.47461Q16.2305-6.69922 16.2305-7.05078Q16.2305-7.42188 16.001-7.65137Q15.7715-7.88086 15.4004-7.88086L12.5195-7.88086L12.5195-10.752Q12.5195-11.1328 12.29-11.3623Q12.0605-11.5918 11.6895-11.5918Q11.3379-11.5918 11.1133-11.3574Q10.8887-11.123 10.8887-10.752L10.8887-7.88086L8.01758-7.88086Q7.63672-7.88086 7.40723-7.65137Q7.17773-7.42188 7.17773-7.05078Z"/>
  </g>
  <g transform="matrix(1 0 0 1 305.646 1933)">
   <path d="M14.9707 5.66406Q17.0605 5.66406 18.96 5.01465Q20.8594 4.36523 22.4512 3.19336Q24.043 2.02148 25.2197 0.429688Q26.3965-1.16211 27.0459-3.06641Q27.6953-4.9707 27.6953-7.05078Q27.6953-9.14062 27.0459-11.04Q26.3965-12.9395 25.2197-14.5312Q24.043-16.123 22.4512-17.2998Q20.8594-18.4766 18.9551-19.126Q17.0508-19.7754 14.9609-19.7754Q12.8711-19.7754 10.9717-19.126Q9.07227-18.4766 7.48535-17.2998Q5.89844-16.123 4.72168-14.5312Q3.54492-12.9395 2.90039-11.04Q2.25586-9.14062 2.25586-7.05078Q2.25586-4.9707 2.90527-3.06641Q3.55469-1.16211 4.72656 0.429688Q5.89844 2.02148 7.49023 3.19336Q9.08203 4.36523 10.9814 5.01465Q12.8809 5.66406 14.9707 5.66406ZM14.9707 3.84766Q13.1641 3.84766 11.5283 3.2959Q9.89258 2.74414 8.53516 1.74805Q7.17773 0.751953 6.17676-0.610352Q5.17578-1.97266 4.62891-3.6084Q4.08203-5.24414 4.08203-7.05078Q4.08203-8.86719 4.62891-10.5029Q5.17578-12.1387 6.17188-13.501Q7.16797-14.8633 8.52539-15.8594Q9.88281-16.8555 11.5186-17.4023Q13.1543-17.9492 14.9609-17.9492Q16.7773-17.9492 18.4131-17.4023Q20.0488-16.8555 21.4111-15.8594Q22.7734-14.8633 23.7695-13.501Q24.7656-12.1387 25.3174-10.5029Q25.8691-8.86719 25.8691-7.05078Q25.8789-5.24414 25.332-3.6084Q24.7852-1.97266 23.7842-0.610352Q22.7832 0.751953 21.4209 1.74805Q20.0586 2.74414 18.4229 3.2959Q16.7871 3.84766 14.9707 3.84766ZM9.19922-7.05078Q9.19922-6.66992 9.45801-6.4209Q9.7168-6.17188 10.1172-6.17188L14.0625-6.17188L14.0625-2.2168Q14.0625-1.81641 14.3115-1.55762Q14.5605-1.29883 14.9512-1.29883Q15.3516-1.29883 15.6104-1.55273Q15.8691-1.80664 15.8691-2.2168L15.8691-6.17188L19.8242-6.17188Q20.2246-6.17188 20.4785-6.4209Q20.7324-6.66992 20.7324-7.05078Q20.7324-7.46094 20.4785-7.71484Q20.2246-7.96875 19.8242-7.96875L15.8691-7.96875L15.8691-11.9141Q15.8691-12.3242 15.6104-12.583Q15.3516-12.8418 14.9512-12.8418Q14.5605-12.8418 14.3115-12.583Q14.0625-12.3242 14.0625-11.9141L14.0625-7.96875L10.1172-7.96875Q9.70703-7.96875 9.45312-7.71484Q9.19922-7.46094 9.19922-7.05078Z"/>
  </g>
  <text style="stroke:none;fill:black;font-family:sans-serif;font-size:13;font-weight:bold;" transform="matrix(1 0 0 1 263 1953)">Design Variations</text>
  <text style="stroke:none;fill:black;font-family:sans-serif;font-size:13;" transform="matrix(1 0 0 1 263 1971)">Symbols are supported in up to nine weights and three scales.</text>
  <text style="stroke:none;fill:black;font-family:sans-serif;font-size:13;" transform="matrix(1 0 0 1 263 1989)">For optimal layout with text and other symbols, vertically align</text>
  <text style="stroke:none;fill:black;font-family:sans-serif;font-size:13;" transform="matrix(1 0 0 1 263 2007)">symbols with the adjacent text.</text>
  <line style="fill:none;stroke:#00AEEF;stroke-width:0.5;opacity:1.0;" x1="776" x2="776" y1="1919" y2="1933"/>
  <g transform="matrix(1 0 0 1 776 1933)">
   <path d="M3.31055 0.15625Q3.70117 0.15625 3.91602-0.00976562Q4.13086-0.175781 4.26758-0.585938L5.52734-4.0332L11.2891-4.0332L12.5488-0.585938Q12.6855-0.175781 12.9004-0.00976562Q13.1152 0.15625 13.4961 0.15625Q13.8867 0.15625 14.1162-0.0585938Q14.3457-0.273438 14.3457-0.644531Q14.3457-0.869141 14.2383-1.17188L9.6582-13.3691Q9.48242-13.8184 9.17969-14.043Q8.87695-14.2676 8.4082-14.2676Q7.5-14.2676 7.17773-13.3789L2.59766-1.16211Q2.49023-0.859375 2.49023-0.634766Q2.49023-0.263672 2.70996-0.0537109Q2.92969 0.15625 3.31055 0.15625ZM6.00586-5.51758L8.37891-12.0898L8.42773-12.0898L10.8008-5.51758Z"/>
  </g>
  <line style="fill:none;stroke:#00AEEF;stroke-width:0.5;opacity:1.0;" x1="793.197" x2="793.197" y1="1919" y2="1933"/>
  <text style="stroke:none;fill:black;font-family:sans-serif;font-size:13;font-weight:bold;" transform="matrix(1 0 0 1 776 1953)">Margins</text>
  <text style="stroke:none;fill:black;font-family:sans-serif;font-size:13;" transform="matrix(1 0 0 1 776 1971)">Leading and trailing margins on the left and right side of each symbol</text>
  <text style="stroke:none;fill:black;font-family:sans-serif;font-size:13;" transform="matrix(1 0 0 1 776 1989)">can be adjusted by modifying the x-location of the margin guidelines.</text>
  <text style="stroke:none;fill:black;font-family:sans-serif;font-size:13;" transform="matrix(1 0 0 1 776 2007)">Modifications are automatically applied proportionally to all</text>
  <text style="stroke:none;fill:black;font-family:sans-serif;font-size:13;" transform="matrix(1 0 0 1 776 2025)">scales and weights.</text>
  <g transform="matrix(1 0 0 1 1289 1933)">
   <path d="M2.8418 1.86523L4.54102 3.57422Q5.18555 4.22852 5.90332 4.17969Q6.62109 4.13086 7.31445 3.35938L18.0078-8.42773L17.041-9.4043L6.42578 2.27539Q6.16211 2.57812 5.89355 2.61719Q5.625 2.65625 5.27344 2.30469L4.10156 1.14258Q3.75 0.791016 3.79395 0.522461Q3.83789 0.253906 4.14062-0.0195312L15.6152-10.8203L14.6387-11.7871L3.04688-0.898438Q2.30469-0.214844 2.25098 0.498047Q2.19727 1.21094 2.8418 1.86523ZM9.25781-16.3281Q8.94531-16.0254 8.90625-15.6348Q8.86719-15.2441 9.04297-14.9512Q9.21875-14.6777 9.55566-14.541Q9.89258-14.4043 10.3809-14.5215Q11.4746-14.7754 12.5977-14.7314Q13.7207-14.6875 14.7949-13.9844L14.209-12.5293Q13.9551-11.9043 14.0674-11.4404Q14.1797-10.9766 14.5801-10.5664L16.875-8.25195Q17.2363-7.88086 17.5781-7.82227Q17.9199-7.76367 18.3398-7.8418L19.4043-8.03711L20.0684-7.36328L20.0293-6.80664Q20-6.43555 20.1221-6.12305Q20.2441-5.81055 20.6055-5.44922L21.3672-4.70703Q21.7285-4.3457 22.1533-4.33105Q22.5781-4.31641 22.9297-4.66797L25.8398-7.58789Q26.1914-7.93945 26.1816-8.35449Q26.1719-8.76953 25.8105-9.13086L25.0391-9.89258Q24.6875-10.2539 24.3799-10.3857Q24.0723-10.5176 23.7109-10.4883L23.1348-10.4395L22.4902-11.0742L22.7344-12.1973Q22.832-12.6172 22.6953-12.9834Q22.5586-13.3496 22.1191-13.7891L19.9219-15.9766Q18.6719-17.2168 17.2607-17.8369Q15.8496-18.457 14.4189-18.4814Q12.9883-18.5059 11.665-17.959Q10.3418-17.4121 9.25781-16.3281ZM10.752-15.957Q11.6602-16.6211 12.7002-16.9043Q13.7402-17.1875 14.8047-17.085Q15.8691-16.9824 16.8701-16.5137Q17.8711-16.0449 18.7012-15.2051L21.1328-12.793Q21.3086-12.6172 21.3525-12.4512Q21.3965-12.2852 21.3379-12.0312L21.0156-10.5469L22.5195-9.0625L23.5059-9.12109Q23.6914-9.13086 23.7891-9.09668Q23.8867-9.0625 24.0332-8.91602L24.6094-8.33984L22.168-5.89844L21.5918-6.47461Q21.4453-6.62109 21.4062-6.71875Q21.3672-6.81641 21.377-7.01172L21.4453-7.98828L19.9512-9.47266L18.4277-9.21875Q18.1836-9.16992 18.042-9.2041Q17.9004-9.23828 17.7148-9.41406L15.7129-11.416Q15.5176-11.5918 15.4932-11.7529Q15.4688-11.9141 15.5859-12.1875L16.4648-14.2773Q15.293-15.3711 13.8281-15.791Q12.3633-16.2109 10.8398-15.7617Q10.7227-15.7324 10.6885-15.8057Q10.6543-15.8789 10.752-15.957Z"/>
  </g>
  <text style="stroke:none;fill:black;font-family:sans-serif;font-size:13;font-weight:bold;" transform="matrix(1 0 0 1 1289 1953)">Exporting</text>
  <text style="stroke:none;fill:black;font-family:sans-serif;font-size:13;" transform="matrix(1 0 0 1 1289 1971)">Symbols should be outlined when exporting to ensure the</text>
  <text style="stroke:none;fill:black;font-family:sans-serif;font-size:13;" transform="matrix(1 0 0 1 1289 1989)">design is preserved when submitting to Xcode.</text>
  <text id="template-version" style="stroke:none;fill:black;font-family:sans-serif;font-size:13;text-anchor:end;" transform="matrix(1 0 0 1 3036 1933)">Template v.2.0</text>
  <text style="stroke:none;fill:black;font-family:sans-serif;font-size:13;text-anchor:end;" transform="matrix(1 0 0 1 3036 1951)">Requires Xcode 12 or greater</text>
  <text id="descriptive-name" style="stroke:none;fill:black;font-family:sans-serif;font-size:13;text-anchor:end;" transform="matrix(1 0 0 1 3036 1969)">Generated from capslock</text>
  <text style="stroke:none;fill:black;font-family:sans-serif;font-size:13;text-anchor:end;" transform="matrix(1 0 0 1 3036 1987)">Typeset at 100 points</text>
  <text style="stroke:none;fill:black;font-family:sans-serif;font-size:13;" transform="matrix(1 0 0 1 263 726)">Small</text>
  <text style="stroke:none;fill:black;font-family:sans-serif;font-size:13;" transform="matrix(1 0 0 1 263 1156)">Medium</text>
  <text style="stroke:none;fill:black;font-family:sans-serif;font-size:13;" transform="matrix(1 0 0 1 263 1586)">Large</text>
 </g>
 <g id="Guides">
  <g id="H-reference" style="fill:#27AAE1;stroke:none;" transform="matrix(1 0 0 1 339 696)">
   <path d="M0.993347 0L3.6377 0L29.3282-67.1326L30.0301-67.1326L30.0301-70.459L28.1227-70.459ZM11.6882-24.4797L46.9818-24.4797L46.2311-26.7288L12.4382-26.7288ZM55.1193 0L57.7637 0L30.6381-70.459L29.4327-70.459L29.4327-67.1326Z"/>
  </g>
  <line id="Baseline-S" style="fill:none;stroke:#27AAE1;opacity:1;stroke-width:0.5;" x1="263" x2="3036" y1="696" y2="696"/>
  <line id="Capline-S" style="fill:none;stroke:#27AAE1;opacity:1;stroke-width:0.5;" x1="263" x2="3036" y1="625.541" y2="625.541"/>
  <g id="H-reference" style="fill:#27AAE1;stroke:none;" transform="matrix(1 0 0 1 339 1126)">
   <path d="M0.993347 0L3.6377 0L29.3282-67.1326L30.0301-67.1326L30.0301-70.459L28.1227-70.459ZM11.6882-24.4797L46.9818-24.4797L46.2311-26.7288L12.4382-26.7288ZM55.1193 0L57.7637 0L30.6381-70.459L29.4327-70.459L29.4327-67.1326Z"/>
  </g>
  <line id="Baseline-M" style="fill:none;stroke:#27AAE1;opacity:1;stroke-width:0.5;" x1="263" x2="3036" y1="1126" y2="1126"/>
  <line id="Capline-M" style="fill:none;stroke:#27AAE1;opacity:1;stroke-width:0.5;" x1="263" x2="3036" y1="1055.54" y2="1055.54"/>
  <g id="H-reference" style="fill:#27AAE1;stroke:none;" transform="matrix(1 0 0 1 339 1556)">
   <path d="M0.993347 0L3.6377 0L29.3282-67.1326L30.0301-67.1326L30.0301-70.459L28.1227-70.459ZM11.6882-24.4797L46.9818-24.4797L46.2311-26.7288L12.4382-26.7288ZM55.1193 0L57.7637 0L30.6381-70.459L29.4327-70.459L29.4327-67.1326Z"/>
  </g>
  <line id="Baseline-L" style="fill:none;stroke:#27AAE1;opacity:1;stroke-width:0.5;" x1="263" x2="3036" y1="1556" y2="1556"/>
  <line id="Capline-L" style="fill:none;stroke:#27AAE1;opacity:1;stroke-width:0.5;" x1="263" x2="3036" y1="1485.54" y2="1485.54"/>
  <line id="left-margin" style="fill:none;stroke:#00AEEF;stroke-width:0.5;opacity:1.0;" x1="1388.56" x2="1388.56" y1="1030.79" y2="1150.12"/>
  <line id="right-margin" style="fill:none;stroke:#00AEEF;stroke-width:0.5;opacity:1.0;" x1="1511.13" x2="1511.13" y1="1030.79" y2="1150.12"/>
 </g>
 <g id="Symbols">
  <g id="Black-L" transform="matrix(1 0 0 1 2850.35 1556)">
   <path d="M57.3106-7.73268L108.794-7.73268Q115.922-7.73268 119.816-11.4643Q123.709-15.1959 123.709-22.1209L123.709-30.454L141.705-30.454Q146.597-30.454 149.917-33.2265Q153.238-35.999 153.238-40.3758Q153.238-42.8484 152.002-45.3696Q150.767-47.8908 148.278-49.9442L95.0507-94.8663Q91.3213-97.9445 88.6609-99.152Q86.0005-100.359 83.0414-100.359Q80.1043-100.359 77.4439-99.152Q74.7835-97.9445 71.0541-94.8663L17.8257-49.9234Q15.3167-47.8284 14.0919-45.3384Q12.8672-42.8484 12.8672-40.3758Q12.8672-35.999 16.1871-33.2265Q19.5069-30.454 24.399-30.454L42.3747-30.454L42.3747-22.1209Q42.3747-15.1959 46.2781-11.4643Q50.1814-7.73268 57.3106-7.73268ZM63.4635-23.9051Q62.6596-23.9051 62.1022-24.4509Q61.5449-24.9967 61.5449-25.8005L61.5449-44.3843Q61.5449-45.5858 61.1524-45.9893Q60.7598-46.3929 59.5571-46.3929L41.0151-46.3929Q40.573-46.3929 40.573-46.8069Q40.573-47.1174 41.1743-47.6006L82.3097-80.7179Q82.7429-81.0111 83.0998-81.0111Q83.5371-81.0111 83.8911-80.7179L124.989-47.6006Q125.59-47.1174 125.59-46.8069Q125.59-46.3929 125.148-46.3929L106.663-46.3929Q105.462-46.3929 105.069-45.9893Q104.676-45.5858 104.676-44.3843L104.676-25.8005Q104.676-25.0175 104.119-24.4613Q103.562-23.9051 102.758-23.9051ZM56.7536 39.5304L109.203 39.5304Q115.796 39.5304 119.802 35.7025Q123.808 31.8746 123.808 25.1441L123.808 14.7643Q123.808 8.44266 119.802 4.40493Q115.796 0.367201 109.203 0.367201L56.7536 0.367201Q50.1984 0.367201 46.163 4.41535Q42.1277 8.46349 42.1277 14.7643L42.1277 25.1441Q42.1277 31.8538 46.163 35.6921Q50.1984 39.5304 56.7536 39.5304ZM63.0887 23.4285Q61.3373 23.4285 61.3373 21.6611L61.3373 18.2461Q61.3373 17.4702 61.8256 16.9593Q62.314 16.4483 63.0887 16.4483L102.847 16.4483Q103.643 16.4483 104.131 16.9593Q104.619 17.4702 104.619 18.2461L104.619 21.6611Q104.619 23.4285 102.847 23.4285Z"/>
  </g>
  <g id="Heavy-L" transform="matrix(1 0 0 1 2554.61 1556)">
   <path d="M57.7435-7.97354L106.41-7.97354Q113.362-7.97354 117.122-11.6557Q120.883-15.3379 120.883-22.0394L120.883-31.0827L140.36-31.0827Q144.986-31.0827 148.136-33.6926Q151.286-36.3026 151.286-40.4543Q151.286-42.8519 150.093-45.1938Q148.9-47.5358 146.518-49.5179L93.0474-95.1156Q89.7193-97.8845 87.264-99.0493Q84.8088-100.214 82.0587-100.214Q79.3445-100.214 76.8892-99.0493Q74.434-97.8845 71.1058-95.1156L17.6298-49.4878Q15.2234-47.4453 14.0453-45.1486Q12.8672-42.8519 12.8672-40.4543Q12.8672-36.3026 16.0144-33.6926Q19.1616-31.0827 23.7877-31.0827L43.2403-31.0827L43.2403-22.0394Q43.2403-15.3379 47.0132-11.6557Q50.7861-7.97354 57.7435-7.97354ZM62.6585-22.4357Q61.613-22.4357 60.9076-23.1205Q60.2022-23.8052 60.2022-24.8506L60.2022-43.3379Q60.2022-44.5217 59.7978-44.944Q59.3934-45.3662 58.204-45.3662L37.5385-45.3662Q37.0165-45.3662 37.0165-45.8245Q37.0165-46.1609 37.5703-46.62L81.1361-82.4845Q81.6841-82.9019 82.1033-82.9019Q82.603-82.9019 83.0762-82.4845L126.628-46.62Q127.181-46.1609 127.181-45.8245Q127.181-45.3662 126.659-45.3662L106.033-45.3662Q104.849-45.3662 104.442-44.944Q104.035-44.5217 104.035-43.3379L104.035-24.8506Q104.035-23.8354 103.332-23.1356Q102.629-22.4357 101.584-22.4357ZM56.7097 37.4886L107.221 37.4886Q113.498 37.4886 117.24 33.8943Q120.982 30.3 120.982 23.9037L120.982 13.908Q120.982 7.82411 117.24 4.04834Q113.498 0.272579 107.221 0.272579L56.7097 0.272579Q50.4474 0.272579 46.6829 4.06346Q42.9183 7.85434 42.9183 13.908L42.9183 23.9037Q42.9183 30.2697 46.6829 33.8792Q50.4474 37.4886 56.7097 37.4886ZM61.8449 23.2089Q59.7009 23.2089 59.7009 21.0571L59.7009 16.7489Q59.7009 15.7674 60.2849 15.1448Q60.8689 14.5221 61.8449 14.5221L102.056 14.5221Q103.062 14.5221 103.646 15.1448Q104.23 15.7674 104.23 16.7489L104.23 21.0571Q104.23 23.2089 102.056 23.2089Z"/>
  </g>
  <g id="Bold-L" transform="matrix(1 0 0 1 2259.07 1556)">
   <path d="M58.0056-8.21352L103.809-8.21352Q110.449-8.21352 114.022-11.7896Q117.595-15.3657 117.595-21.7233L117.595-31.7992L138.901-31.7992Q143.152-31.7992 146.05-34.1833Q148.948-36.5673 148.948-40.3976Q148.948-42.6657 147.827-44.7736Q146.706-46.8816 144.485-48.7492L90.6699-95.1696Q87.7666-97.6141 85.5649-98.7175Q83.3632-99.821 80.8818-99.821Q78.4517-99.821 76.25-98.7175Q74.0483-97.6141 71.145-95.1696L17.317-48.7114Q15.0709-46.7677 13.9691-44.7167Q12.8672-42.6657 12.8672-40.3976Q12.8672-36.5673 15.7583-34.1833Q18.6494-31.7992 22.9005-31.7992L44.1818-31.7992L44.1818-21.7233Q44.1818-15.3657 47.7672-11.7896Q51.3527-8.21352 58.0056-8.21352ZM61.4957-20.5029Q60.1505-20.5029 59.2607-21.3605Q58.3709-22.2182 58.3709-23.5631L58.3709-41.9424Q58.3709-43.0958 57.9586-43.5337Q57.5464-43.9716 56.3799-43.9716L33.28-43.9716Q32.6285-43.9716 32.6285-44.5059Q32.6285-44.8955 33.1507-45.3463L79.6466-84.4956Q80.3925-85.1188 80.911-85.1188Q81.5099-85.1188 82.1888-84.4956L128.693-45.3463Q129.216-44.8955 129.216-44.5059Q129.216-43.9716 128.564-43.9716L105.48-43.9716Q104.327-43.9716 103.908-43.5337Q103.489-43.0958 103.489-41.9424L103.489-23.5631Q103.489-22.2561 102.606-21.3795Q101.723-20.5029 100.378-20.5029ZM56.4919 34.886L105.03 34.886Q110.871 34.886 114.279 31.5985Q117.687 28.3111 117.687 22.3744L117.687 12.9072Q117.687 7.17498 114.279 3.72572Q110.871 0.276459 105.03 0.276459L56.4919 0.276459Q50.643 0.276459 47.2202 3.74477Q43.7974 7.21308 43.7974 12.9072L43.7974 22.3744Q43.7974 28.273 47.2202 31.5795Q50.643 34.886 56.4919 34.886ZM60.226 22.8803Q57.6054 22.8803 57.6054 20.2744L57.6054 14.9939Q57.6054 13.7662 58.3084 13.0052Q59.0114 12.2443 60.226 12.2443L101.258 12.2443Q102.511 12.2443 103.214 13.0052Q103.917 13.7662 103.917 14.9939L103.917 20.2744Q103.917 22.8803 101.258 22.8803Z"/>
  </g>
  <g id="Semibold-L" transform="matrix(1 0 0 1 1963.17 1556)">
   <path d="M58.1863-8.37896L102.017-8.37896Q108.441-8.37896 111.885-11.8819Q115.329-15.3848 115.329-21.5054L115.329-32.2933L137.896-32.2933Q141.888-32.2933 144.612-34.5215Q147.336-36.7497 147.336-40.3586Q147.336-42.5373 146.265-44.484Q145.194-46.4306 143.083-48.2193L89.0309-95.2068Q86.4204-97.4276 84.3935-98.4888Q82.3666-99.5501 80.0705-99.5501Q77.8362-99.5501 75.8093-98.4888Q73.7824-97.4276 71.172-95.2068L17.1013-48.1761Q14.9658-46.3007 13.9165-44.419Q12.8672-42.5373 12.8672-40.3586Q12.8672-36.7497 15.5818-34.5215Q18.2963-32.2933 22.2888-32.2933L44.8309-32.2933L44.8309-21.5054Q44.8309-15.3848 48.2871-11.8819Q51.7433-8.37896 58.1863-8.37896ZM60.694-19.1704Q59.1423-19.1704 58.1254-20.1472Q57.1085-21.1241 57.1085-22.6755L57.1085-40.9804Q57.1085-42.1128 56.6907-42.5614Q56.273-43.0101 55.1223-43.0101L30.3443-43.0101Q29.6034-43.0101 29.6034-43.5969Q29.6034-44.0232 30.1039-44.4682L78.6197-85.882Q79.5021-86.6471 80.0891-86.6471Q80.7564-86.6471 81.5771-85.882L130.118-44.4682Q130.618-44.0232 130.618-43.5969Q130.618-43.0101 129.877-43.0101L105.099-43.0101Q103.967-43.0101 103.54-42.5614Q103.113-42.1128 103.113-40.9804L103.113-22.6755Q103.113-21.1673 102.105-20.1688Q101.098-19.1704 99.5459-19.1704ZM56.3418 33.0918L103.52 33.0918Q109.06 33.0918 112.237 30.0158Q115.415 26.9399 115.415 21.32L115.415 12.2173Q115.415 6.72747 112.237 3.5033Q109.06 0.279134 103.52 0.279134L56.3418 0.279134Q50.7779 0.279134 47.5907 3.52506Q44.4035 6.77099 44.4035 12.2173L44.4035 21.32Q44.4035 26.8964 47.5907 29.9941Q50.7779 33.0918 56.3418 33.0918ZM59.11 22.6537Q56.1607 22.6537 56.1607 19.7348L56.1607 13.7839Q56.1607 12.3865 56.9458 11.5303Q57.7309 10.674 59.11 10.674L100.709 10.674Q102.131 10.674 102.916 11.5303Q103.702 12.3865 103.702 13.7839L103.702 19.7348Q103.702 22.6537 100.709 22.6537Z"/>
  </g>
  <g id="Medium-L" transform="matrix(1 0 0 1 1667.07 1556)">
   <path d="M58.3233-8.50441L100.657-8.50441Q106.919-8.50441 110.264-11.9518Q113.61-15.3993 113.61-21.3402L113.61-32.6678L137.133-32.6678Q140.93-32.6678 143.521-34.778Q146.113-36.8881 146.113-40.3289Q146.113-42.44 145.08-44.2643Q144.047-46.0887 142.02-47.8176L87.7881-95.235Q85.3997-97.2863 83.5053-98.3154Q81.611-99.3446 79.4553-99.3446Q77.3695-99.3446 75.4751-98.3154Q73.5808-97.2863 71.1924-95.235L16.9378-47.7703Q14.8861-45.9465 13.8766-44.1932Q12.8672-42.44 12.8672-40.3289Q12.8672-36.8881 15.4479-34.778Q18.0286-32.6678 21.825-32.6678L45.323-32.6678L45.323-21.3402Q45.323-15.3993 48.6813-11.9518Q52.0395-8.50441 58.3233-8.50441ZM60.0862-18.1601Q58.3778-18.1601 57.2645-19.2273Q56.1512-20.2945 56.1512-22.0025L56.1512-40.251Q56.1512-41.3675 55.7294-41.8243Q55.3075-42.281 54.1688-42.281L28.1183-42.281Q27.3097-42.281 27.3097-42.9077Q27.3097-43.3618 27.7936-43.8025L77.8411-86.9332Q78.827-87.806 79.4658-87.806Q80.185-87.806 81.1132-86.9332L131.197-43.8025Q131.681-43.3618 131.681-42.9077Q131.681-42.281 130.873-42.281L104.81-42.281Q103.694-42.281 103.261-41.8243Q102.828-41.3675 102.828-40.251L102.828-22.0025Q102.828-20.3417 101.726-19.2509Q100.624-18.1601 98.9153-18.1601ZM56.2279 31.7313L102.375 31.7313Q107.686 31.7313 110.69 28.8158Q113.693 25.9002 113.693 20.5206L113.693 11.6942Q113.693 6.38815 110.69 3.33466Q107.686 0.281163 102.375 0.281163L56.2279 0.281163Q50.8802 0.281163 47.8716 3.35848Q44.863 6.43579 44.863 11.6942L44.863 20.5206Q44.863 25.8526 47.8716 28.792Q50.8802 31.7313 56.2279 31.7313ZM58.2638 22.4819Q55.0653 22.4819 55.0653 19.3257L55.0653 12.8665Q55.0653 11.3404 55.9127 10.4119Q56.76 9.48332 58.2638 9.48332L100.292 9.48332Q101.843 9.48332 102.691 10.4119Q103.538 11.3404 103.538 12.8665L103.538 19.3257Q103.538 22.4819 100.292 22.4819Z"/>
  </g>
  <g id="Regular-L" transform="matrix(1 0 0 1 1371.15 1556)">
   <path d="M58.502-8.66803L98.8841-8.66803Q104.933-8.66803 108.151-12.0431Q111.369-15.4182 111.369-21.1246L111.369-33.1564L136.139-33.1564Q139.679-33.1564 142.099-35.1125Q144.519-37.0685 144.519-40.2903Q144.519-42.3131 143.535-43.9778Q142.551-45.6426 140.634-47.2935L86.167-95.2718Q84.0683-97.1019 82.3469-98.0893Q80.6254-99.0767 78.6529-99.0767Q76.7608-99.0767 75.0393-98.0893Q73.3178-97.1019 71.2191-95.2718L16.7245-47.2409Q14.7821-45.4845 13.8247-43.8988Q12.8672-42.3131 12.8672-40.2903Q12.8672-37.0685 15.2733-35.1125Q17.6794-33.1564 21.2201-33.1564L45.965-33.1564L45.965-21.1246Q45.965-15.4182 49.1954-12.0431Q52.4259-8.66803 58.502-8.66803ZM59.2934-16.8422Q57.3806-16.8422 56.1416-18.0273Q54.9026-19.2124 54.9026-21.1246L54.9026-39.2995Q54.9026-40.3953 54.4754-40.8627Q54.0482-41.3301 52.9251-41.3301L25.2148-41.3301Q24.3178-41.3301 24.3178-42.0087Q24.3178-42.499 24.7803-42.934L76.8255-88.3044Q77.9464-89.3175 78.6529-89.3175Q79.4397-89.3175 80.5081-88.3044L132.606-42.934Q133.068-42.499 133.068-42.0087Q133.068-41.3301 132.171-41.3301L104.434-41.3301Q103.338-41.3301 102.897-40.8627Q102.456-40.3953 102.456-39.2995L102.456-21.1246Q102.456-19.2649 101.231-18.0536Q100.006-16.8422 98.0928-16.8422ZM56.0794 29.9568L100.882 29.9568Q105.895 29.9568 108.671 27.2505Q111.446 24.5442 111.446 19.4778L111.446 11.0119Q111.446 5.94556 108.671 3.11468Q105.895 0.283808 100.882 0.283808L56.0794 0.283808Q51.0135 0.283808 48.238 3.14119Q45.4624 5.99856 45.4624 11.0119L45.4624 19.4778Q45.4624 24.4912 48.238 27.224Q51.0135 29.9568 56.0794 29.9568ZM57.16 22.2579Q53.6366 22.2579 53.6366 18.792L53.6366 11.6698Q53.6366 9.97597 54.5651 8.95312Q55.4936 7.93026 57.16 7.93026L99.7487 7.93026Q101.468 7.93026 102.396 8.95312Q103.325 9.97597 103.325 11.6698L103.325 18.792Q103.325 22.2579 99.7487 22.2579Z"/>
  </g>
  <g id="Light-L" transform="matrix(1 0 0 1 1074.99 1556)">
   <path d="M56.918-8.458L99.3613-8.458Q104.589-8.458 107.531-11.4706Q110.472-14.4831 110.472-19.5214L110.472-33.252L136.463-33.252Q139.45-33.252 141.431-34.893Q143.412-36.534 143.412-39.2597Q143.412-40.958 142.61-42.3842Q141.807-43.8104 140.176-45.2131L85.1938-93.6685Q82.9233-95.6515 81.3735-96.5434Q79.8238-97.4352 78.0994-97.4352Q76.4555-97.4352 74.9058-96.5434Q73.356-95.6515 71.0854-93.6685L16.0566-45.1798Q14.4387-43.7097 13.6529-42.3338Q12.8672-40.958 12.8672-39.2597Q12.8672-36.534 14.8249-34.893Q16.7826-33.252 19.7698-33.252L45.7742-33.252L45.7742-19.5214Q45.7742-14.4831 48.7088-11.4706Q51.6435-8.458 56.918-8.458ZM57.423-14.781Q55.3002-14.781 53.9277-16.0902Q52.5551-17.3994 52.5551-19.5214L52.5551-37.6963Q52.5551-38.7157 52.166-39.1449Q51.777-39.5742 50.7112-39.5742L22.581-39.5742Q21.3979-39.5742 21.3979-40.4436Q21.3979-41.1058 22.013-41.6745L75.5659-88.5526Q77.1829-90.0428 78.0994-90.0428Q79.0963-90.0428 80.68-88.5526L134.266-41.6745Q134.881-41.1058 134.881-40.4436Q134.881-39.5742 133.698-39.5742L105.522-39.5742Q104.502-39.5742 104.09-39.1449Q103.677-38.7157 103.677-37.6963L103.677-19.5214Q103.677-17.4327 102.328-16.1069Q100.979-14.781 98.8563-14.781ZM54.877 27.6856L101.073 27.6856Q105.494 27.6856 107.993 25.3038Q110.492 22.922 110.492 18.4661L110.492 10.7066Q110.492 6.25082 107.993 3.65852Q105.494 1.06621 101.073 1.06621L54.877 1.06621Q50.4219 1.06621 47.9231 3.67556Q45.4242 6.28491 45.4242 10.7066L45.4242 18.4661Q45.4242 22.8879 47.9231 25.2868Q50.4219 27.6856 54.877 27.6856ZM55.5378 21.6662Q51.7473 21.6662 51.7473 18.0285L51.7473 11.0971Q51.7473 9.28881 52.7615 8.17056Q53.7758 7.05231 55.5378 7.05231L100.378 7.05231Q102.174 7.05231 103.188 8.17056Q104.203 9.28881 104.203 11.0971L104.203 18.0285Q104.203 21.6662 100.378 21.6662Z"/>
  </g>
  <g id="Thin-L" transform="matrix(1 0 0 1 779.015 1556)">
   <path d="M54.823-8.18022L99.9923-8.18022Q104.135-8.18022 106.71-10.7133Q109.286-13.2465 109.286-17.4009L109.286-33.3783L136.892-33.3783Q139.148-33.3783 140.548-34.6027Q141.948-35.827 141.948-37.8967Q141.948-39.1657 141.386-40.2764Q140.823-41.3871 139.571-42.4615L83.9067-91.5481Q81.4088-93.7334 80.0862-94.4988Q78.7635-95.2643 77.3674-95.2643Q76.0518-95.2643 74.7291-94.4988Q73.4065-93.7334 70.9086-91.5481L15.1732-42.4537Q13.9845-41.3624 13.4258-40.2641Q12.8672-39.1657 12.8672-37.8967Q12.8672-35.827 14.2318-34.6027Q15.5964-33.3783 17.8516-33.3783L45.5219-33.3783L45.5219-17.4009Q45.5219-13.2465 48.0653-10.7133Q50.6087-8.18022 54.823-8.18022ZM54.9492-12.055Q52.5487-12.055 50.9995-13.5283Q49.4503-15.0015 49.4503-17.4009L49.4503-35.5758Q49.4503-36.4943 49.1117-36.8731Q48.7731-37.2519 47.7833-37.2519L19.0975-37.2519Q17.5361-37.2519 17.5361-38.3736Q17.5361-39.2631 18.3531-40.0087L73.9001-88.8808Q76.1732-91.0021 77.3674-91.0021Q78.6421-91.0021 80.9073-88.8808L136.462-40.0087Q137.279-39.2631 137.279-38.3736Q137.279-37.2519 135.718-37.2519L106.961-37.2519Q106.042-37.2519 105.667-36.8731Q105.292-36.4943 105.292-35.5758L105.292-17.4009Q105.292-15.0094 103.78-13.5322Q102.267-12.055 99.866-12.055ZM53.2866 24.6818L101.325 24.6818Q104.964 24.6818 107.097 22.7291Q109.23 20.7765 109.23 17.1281L109.23 10.3029Q109.23 6.65456 107.097 4.37778Q104.964 2.101 101.325 2.101L53.2866 2.101Q49.6395 2.101 47.5066 4.38231Q45.3738 6.66363 45.3738 10.3029L45.3738 17.1281Q45.3738 20.7674 47.5066 22.7246Q49.6395 24.6818 53.2866 24.6818ZM53.3923 20.8838Q49.2485 20.8838 49.2485 17.0187L49.2485 10.3397Q49.2485 8.37998 50.3762 7.13556Q51.5039 5.89114 53.3923 5.89114L101.211 5.89114Q103.108 5.89114 104.236 7.13556Q105.364 8.37998 105.364 10.3397L105.364 17.0187Q105.364 20.8838 101.211 20.8838Z"/>
  </g>
  <g id="Ultralight-L" transform="matrix(1 0 0 1 482.678 1556)">
   <path d="M53.7499-8.03794L100.316-8.03794Q103.903-8.03794 106.29-10.3255Q108.678-12.6131 108.678-16.3148L108.678-33.4431L137.112-33.4431Q138.992-33.4431 140.095-34.454Q141.198-35.4649 141.198-37.1985Q141.198-38.2478 140.759-39.1969Q140.319-40.146 139.261-41.0522L83.2475-90.462Q80.6331-92.7509 79.4268-93.4516Q78.2205-94.1524 76.9925-94.1524Q75.845-94.1524 74.6386-93.4516Q73.4323-92.7509 70.818-90.462L14.7207-41.0574Q13.7519-40.1601 13.3095-39.2039Q12.8672-38.2478 12.8672-37.1985Q12.8672-35.4649 13.928-34.454Q14.9888-33.4431 16.8691-33.4431L45.3926-33.4431L45.3926-16.3148Q45.3926-12.6131 47.7356-10.3255Q50.0787-8.03794 53.7499-8.03794ZM53.6822-10.6587Q51.1394-10.6587 49.4997-12.216Q47.8601-13.7734 47.8601-16.3148L47.8601-34.4897Q47.8601-35.3565 47.5473-35.7094Q47.2346-36.0624 46.2836-36.0624L17.3132-36.0624Q15.5582-36.0624 15.5582-37.3133Q15.5582-38.3193 16.4785-39.1554L73.0469-89.049Q75.656-91.4935 76.9925-91.4935Q78.4095-91.4935 81.0238-89.049L137.587-39.1554Q138.507-38.3193 138.507-37.3133Q138.507-36.0624 136.752-36.0624L107.698-36.0624Q106.831-36.0624 106.475-35.7094Q106.12-35.3565 106.12-34.4897L106.12-16.3148Q106.12-13.7682 104.523-12.2134Q102.926-10.6587 100.383-10.6587ZM52.4721 23.1432L101.454 23.1432Q104.693 23.1432 106.638 21.4104Q108.583 19.6776 108.583 16.4428L108.583 10.0961Q108.583 6.86135 106.638 4.74618Q104.693 2.63101 101.454 2.63101L52.4721 2.63101Q49.2387 2.63101 47.2933 4.7443Q45.3479 6.8576 45.3479 10.0961L45.3479 16.4428Q45.3479 19.6813 47.2933 21.4123Q49.2387 23.1432 52.4721 23.1432ZM52.2934 20.483Q47.9686 20.483 47.9686 16.5016L47.9686 9.95177Q47.9686 7.91448 49.1545 6.60544Q50.3403 5.29639 52.2934 5.29639L101.638 5.29639Q103.586 5.29639 104.772 6.60544Q105.959 7.91448 105.959 9.95177L105.959 16.5016Q105.959 20.483 101.638 20.483Z"/>
  </g>
  <g id="Black-M" transform="matrix(1 0 0 1 2868.29 1126)">
   <path d="M43.8142-13.6911L86.4014-13.6911Q91.9639-13.6911 95.0572-16.5755Q98.1505-19.4599 98.1505-24.9266L98.1505-31.0025L110.984-31.0025Q114.928-31.0025 117.587-33.2474Q120.247-35.4923 120.247-39.0094Q120.247-40.9457 119.278-43.0207Q118.31-45.0957 116.328-46.7141L75.2297-81.0012Q71.9721-83.6725 69.758-84.6318Q67.5438-85.5911 65.1052-85.5911Q62.6718-85.5911 60.4577-84.6318Q58.2435-83.6725 54.986-81.0012L13.8882-46.7086Q11.9001-45.0792 10.9344-43.0124Q9.96875-40.9457 9.96875-39.0094Q9.96875-35.4923 12.6285-33.2474Q15.2882-31.0025 19.2318-31.0025L32.0597-31.0025L32.0597-24.9266Q32.0597-19.4599 35.1558-16.5755Q38.252-13.6911 43.8142-13.6911ZM49.6063-27.4397Q49.1626-27.4397 48.84-27.7598Q48.5173-28.08 48.5173-28.5237L48.5173-43.0042Q48.5173-43.9399 48.2286-44.2313Q47.9398-44.5226 47.0044-44.5226L34.4071-44.5226Q34.0946-44.5226 34.0946-44.8313Q34.0946-45.0728 34.6218-45.4861L64.6068-68.9866Q64.911-69.1716 65.1623-69.1716Q65.4759-69.1716 65.7175-68.9866L95.6509-45.4861Q96.1781-45.0728 96.1781-44.8313Q96.1781-44.5226 95.8656-44.5226L83.3257-44.5226Q82.39-44.5226 82.1014-44.2313Q81.8128-43.9399 81.8128-43.0042L81.8128-28.5237Q81.8128-28.0855 81.49-27.7626Q81.1672-27.4397 80.7236-27.4397ZM43.8443 24.1372L86.3335 24.1372Q91.6328 24.1372 94.9258 21.0148Q98.2188 17.8923 98.2188 12.4734L98.2188 4.1974Q98.2188-0.821878 94.9258-4.1429Q91.6328-7.46392 86.3335-7.46392L43.8443-7.46392Q38.5966-7.46392 35.275-4.14015Q31.9534-0.816389 31.9534 4.1974L31.9534 12.4734Q31.9534 17.8868 35.275 21.012Q38.5966 24.1372 43.8443 24.1372ZM49.7266 10.3239Q48.671 10.3239 48.671 9.26168L48.671 7.40937Q48.671 6.96953 48.9787 6.65672Q49.2865 6.34391 49.7266 6.34391L80.4457 6.34391Q80.8913 6.34391 81.199 6.65672Q81.5068 6.96953 81.5068 7.40937L81.5068 9.26168Q81.5068 10.3239 80.4457 10.3239Z"/>
  </g>
  <g id="Heavy-M" transform="matrix(1 0 0 1 2572.48 1126)">
   <path d="M44.3836-13.9459L84.0264-13.9459Q89.4924-13.9459 92.4813-16.8155Q95.4701-19.685 95.4701-24.9948L95.4701-31.6081L109.64-31.6081Q113.374-31.6081 115.908-33.7233Q118.441-35.8384 118.441-39.1812Q118.441-41.074 117.497-42.9958Q116.553-44.9176 114.649-46.4893L73.361-81.3928Q70.5117-83.7476 68.4822-84.674Q66.4527-85.6003 64.1956-85.6003Q61.9572-85.6003 59.9277-84.674Q57.8983-83.7476 55.0489-81.3928L13.7583-46.4729Q11.8406-44.8684 10.9047-42.9712Q9.96875-41.074 9.96875-39.1812Q9.96875-35.8384 12.501-33.7233Q15.0333-31.6081 18.768-31.6081L32.9234-31.6081L32.9234-24.9948Q32.9234-19.685 35.9194-16.8155Q38.9153-13.9459 44.3836-13.9459ZM48.9919-26.1933Q48.3314-26.1933 47.8764-26.638Q47.4213-27.0826 47.4213-27.743L47.4213-42.1292Q47.4213-43.0546 47.1174-43.3678Q46.8136-43.681 45.8858-43.681L31.2515-43.681Q30.8872-43.681 30.8872-44.0153Q30.8872-44.2663 31.354-44.6436L63.5757-70.6907Q63.9463-70.9531 64.2393-70.9531Q64.5945-70.9531 64.9051-70.6907L97.0995-44.6436Q97.5664-44.2663 97.5664-44.0153Q97.5664-43.681 97.2021-43.681L82.6091-43.681Q81.6836-43.681 81.3786-43.3678Q81.0736-43.0546 81.0736-42.1292L81.0736-27.743Q81.0736-27.099 80.6197-26.6462Q80.1657-26.1933 79.5053-26.1933ZM43.9122 22.3507L84.3783 22.3507Q89.4231 22.3507 92.4837 19.4267Q95.5443 16.5027 95.5443 11.3542L95.5443 3.38844Q95.5443-1.45472 92.4837-4.54166Q89.4231-7.62859 84.3783-7.62859L43.9122-7.62859Q38.8946-7.62859 35.8122-4.53344Q32.7299-1.43829 32.7299 3.38844L32.7299 11.3542Q32.7299 16.4863 35.8122 19.4185Q38.8946 22.3507 43.9122 22.3507ZM48.6604 10.1638Q47.2456 10.1638 47.2456 8.74168L47.2456 5.99865Q47.2456 5.3683 47.6389 4.95513Q48.0323 4.54195 48.6604 4.54195L79.6138 4.54195Q80.2582 4.54195 80.6516 4.95513Q81.045 5.3683 81.045 5.99865L81.045 8.74168Q81.045 10.1638 79.6138 10.1638Z"/>
  </g>
  <g id="Bold-M" transform="matrix(1 0 0 1 2276.78 1126)">
   <path d="M45.0204-14.231L81.3696-14.231Q86.7277-14.231 89.5997-17.0839Q92.4718-19.9368 92.4718-25.0711L92.4718-32.2857L108.136-32.2857Q111.637-32.2857 114.029-34.2557Q116.421-36.2256 116.421-39.3735Q116.421-41.2176 115.504-42.968Q114.587-44.7184 112.772-46.2378L71.2707-81.8308Q68.8779-83.8318 67.0551-84.7211Q65.2322-85.6105 63.1781-85.6105Q61.1578-85.6105 59.3349-84.7211Q57.5121-83.8318 55.1193-81.8308L13.613-46.2092Q11.7741-44.6326 10.8714-42.9251Q9.96875-41.2176 9.96875-39.3735Q9.96875-36.2256 12.3584-34.2557Q14.7481-32.2857 18.2492-32.2857L33.8897-32.2857L33.8897-25.0711Q33.8897-19.9368 36.7735-17.0839Q39.6572-14.231 45.0204-14.231ZM48.3046-24.7992Q47.4017-24.7992 46.7984-25.383Q46.1952-25.9668 46.1952-26.8696L46.1952-41.1503Q46.1952-42.0643 45.8745-42.402Q45.5537-42.7396 44.6346-42.7396L27.7215-42.7396Q27.2993-42.7396 27.2993-43.1024Q27.2993-43.3641 27.6985-43.7012L62.4222-72.597Q62.8672-72.946 63.2067-72.946Q63.6085-72.946 63.9963-72.597L98.72-43.7012Q99.1193-43.3641 99.1193-43.1024Q99.1193-42.7396 98.6971-42.7396L81.8074-42.7396Q80.8934-42.7396 80.5701-42.402Q80.2468-42.0643 80.2468-41.1503L80.2468-26.8696Q80.2468-25.9953 79.6461-25.3972Q79.0455-24.7992 78.1426-24.7992ZM43.9883 20.3523L82.1911 20.3523Q86.9513 20.3523 89.7518 17.6502Q92.5524 14.9482 92.5524 10.1022L92.5524 2.48351Q92.5524-2.16264 89.7518-4.98772Q86.9513-7.81281 82.1911-7.81281L43.9883-7.81281Q39.228-7.81281 36.4132-4.97339Q33.5984-2.13397 33.5984 2.48351L33.5984 10.1022Q33.5984 14.9195 36.4132 17.6359Q39.228 20.3523 43.9883 20.3523ZM47.4676 9.9847Q45.651 9.9847 45.651 8.15999L45.651 4.42055Q45.651 3.5771 46.1402 3.05165Q46.6293 2.5262 47.4676 2.5262L78.6831 2.5262Q79.5501 2.5262 80.0392 3.05165Q80.5284 3.5771 80.5284 4.42055L80.5284 8.15999Q80.5284 9.9847 78.6831 9.9847Z"/>
  </g>
  <g id="Semibold-M" transform="matrix(1 0 0 1 1980.77 1126)">
   <path d="M45.4595-14.4275L79.538-14.4275Q84.8218-14.4275 87.6132-17.2689Q90.4047-20.1104 90.4047-25.1236L90.4047-32.7528L107.099-32.7528Q110.439-32.7528 112.734-34.6227Q115.029-36.4925 115.029-39.506Q115.029-41.3166 114.131-42.9488Q113.232-44.581 111.478-46.0644L69.8297-82.1328Q67.7517-83.8898 66.0713-84.7537Q64.3908-85.6176 62.4767-85.6176Q60.6067-85.6176 58.9263-84.7537Q57.2458-83.8898 55.1678-82.1328L13.5128-46.0274Q11.7282-44.47 10.8485-42.8933Q9.96875-41.3166 9.96875-39.506Q9.96875-36.4925 12.2602-34.6227Q14.5516-32.7528 17.8915-32.7528L34.5558-32.7528L34.5558-25.1236Q34.5558-20.1104 37.3623-17.2689Q40.1687-14.4275 45.4595-14.4275ZM47.8308-23.838Q46.7607-23.838 46.0553-24.5178Q45.35-25.1975 45.35-26.2675L45.35-40.4755Q45.35-41.3816 45.0176-41.7361Q44.6852-42.0905 43.772-42.0905L25.2879-42.0905Q24.8258-42.0905 24.8258-42.4731Q24.8258-42.7422 25.1785-43.0515L61.6271-73.9112Q62.1233-74.3199 62.4948-74.3199Q62.9287-74.3199 63.3698-73.9112L99.8372-43.0515Q100.19-42.7422 100.19-42.4731Q100.19-42.0905 99.7277-42.0905L81.2548-42.0905Q80.3486-42.0905 80.0127-41.7361Q79.6767-41.3816 79.6767-40.4755L79.6767-26.2675Q79.6767-25.2345 78.9749-24.5363Q78.2732-23.838 77.2031-23.838ZM44.0407 18.9746L80.6832 18.9746Q85.2472 18.9746 87.8685 16.4256Q90.4898 13.8765 90.4898 9.2391L90.4898 1.85965Q90.4898-2.65068 87.8685-5.29524Q85.2472-7.9398 80.6832-7.9398L44.0407-7.9398Q39.4579-7.9398 36.8275-5.27669Q34.1972-2.61358 34.1972 1.85965L34.1972 9.2391Q34.1972 13.8394 36.8275 16.407Q39.4579 18.9746 44.0407 18.9746ZM46.6454 9.86123Q44.5518 9.86123 44.5518 7.75897L44.5518 3.33262Q44.5518 2.34225 45.1069 1.7394Q45.662 1.13655 46.6454 1.13655L78.0416 1.13655Q79.0619 1.13655 79.6171 1.7394Q80.1723 2.34225 80.1723 3.33262L80.1723 7.75897Q80.1723 9.86123 78.0416 9.86123Z"/>
  </g>
  <g id="Medium-M" transform="matrix(1 0 0 1 1684.58 1126)">
   <path d="M45.7924-14.5765L78.1492-14.5765Q83.3766-14.5765 86.107-17.4093Q88.8374-20.242 88.8374-25.1635L88.8374-33.107L106.313-33.107Q109.531-33.107 111.752-34.9009Q113.973-36.6949 113.973-39.6065Q113.973-41.3917 113.089-42.9343Q112.205-44.4769 110.496-45.933L68.737-82.3618Q66.8977-83.9337 65.3253-84.7783Q63.7528-85.623 61.9448-85.623Q60.1888-85.623 58.6164-84.7783Q57.044-83.9337 55.2046-82.3618L13.4369-45.8896Q11.6934-44.3467 10.8311-42.8692Q9.96875-41.3917 9.96875-39.6065Q9.96875-36.6949 12.1856-34.9009Q14.4025-33.107 17.6203-33.107L35.0609-33.107L35.0609-25.1635Q35.0609-20.242 37.8087-17.4093Q40.5565-14.5765 45.7924-14.5765ZM47.4715-23.1092Q46.2746-23.1092 45.4918-23.8617Q44.7091-24.6143 44.7091-25.811L44.7091-39.9638Q44.7091-40.864 44.3678-41.2312Q44.0266-41.5984 43.1179-41.5984L23.4427-41.5984Q22.9503-41.5984 22.9503-41.9959Q22.9503-42.2706 23.2676-42.5588L61.0241-74.9077Q61.5592-75.3616 61.9551-75.3616Q62.4133-75.3616 62.8947-74.9077L100.684-42.5588Q101.002-42.2706 101.002-41.9959Q101.002-41.5984 100.509-41.5984L80.8358-41.5984Q79.9356-41.5984 79.59-41.2312Q79.2445-40.864 79.2445-39.9638L79.2445-25.811Q79.2445-24.6576 78.466-23.8834Q77.6876-23.1092 76.4907-23.1092ZM44.0805 17.9299L79.5399 17.9299Q83.9551 17.9299 86.4405 15.4969Q88.9258 13.064 88.9258 8.58466L88.9258 1.38662Q88.9258-3.02073 86.4405-5.52841Q83.9551-8.0361 79.5399-8.0361L44.0805-8.0361Q39.6321-8.0361 37.1417-5.50666Q34.6512-2.97723 34.6512 1.38662L34.6512 8.58466Q34.6512 13.0205 37.1417 15.4752Q39.6321 17.9299 44.0805 17.9299ZM46.0219 9.76761Q43.7183 9.76761 43.7183 7.4549L43.7183 2.50771Q43.7183 1.40594 44.3235 0.744399Q44.9286 0.0828595 46.0219 0.0828595L77.5551 0.0828595Q78.6917 0.0828595 79.297 0.744399Q79.9022 1.40594 79.9022 2.50771L79.9022 7.4549Q79.9022 9.76761 77.5551 9.76761Z"/>
  </g>
  <g id="Regular-M" transform="matrix(1 0 0 1 1388.56 1126)">
   <path d="M46.2266-14.7709L76.3378-14.7709Q81.4916-14.7709 84.1423-17.5923Q86.793-20.4136 86.793-25.2155L86.793-33.5689L105.287-33.5689Q108.346-33.5689 110.471-35.2639Q112.596-36.9589 112.596-39.7376Q112.596-41.4896 111.73-42.9154Q110.865-44.3411 109.216-45.7615L67.3118-82.6604Q65.7838-83.9911 64.3522-84.8105Q62.9207-85.63 61.2511-85.63Q59.6437-85.63 58.2122-84.8105Q56.7807-83.9911 55.2526-82.6604L13.3378-45.7098Q11.648-44.1859 10.8084-42.8378Q9.96875-41.4896 9.96875-39.7376Q9.96875-36.9589 12.0884-35.2639Q14.2081-33.5689 17.2666-33.5689L35.7197-33.5689L35.7197-25.2155Q35.7197-20.4136 38.3911-17.5923Q41.0624-14.7709 46.2266-14.7709ZM47.0029-22.1587Q45.6407-22.1587 44.7569-23.0061Q43.8731-23.8535 43.8731-25.2155L43.8731-39.2964Q43.8731-40.1887 43.5204-40.5726Q43.1676-40.9565 42.2648-40.9565L21.0359-40.9565Q20.5039-40.9565 20.5039-41.3735Q20.5039-41.6554 20.7752-41.9163L60.2377-76.2074Q60.8234-76.7204 61.2511-76.7204Q61.741-76.7204 62.2751-76.2074L101.789-41.9163Q102.06-41.6554 102.06-41.3735Q102.06-40.9565 101.529-40.9565L80.2892-40.9565Q79.3968-40.9565 79.0387-40.5726Q78.6807-40.1887 78.6807-39.2964L78.6807-25.2155Q78.6807-23.9051 77.8022-23.0319Q76.9237-22.1587 75.5615-22.1587ZM44.1323 16.5673L78.0486 16.5673Q82.2698 16.5673 84.5779 14.2857Q86.8859 12.0041 86.8859 7.73104L86.8859 0.769618Q86.8859-3.50341 84.5779-5.83255Q82.2698-8.1617 78.0486-8.1617L44.1323-8.1617Q39.8595-8.1617 37.5514-5.80663Q35.2434-3.45156 35.2434 0.769618L35.2434 7.73104Q35.2434 11.9522 37.5514 14.2598Q39.8595 16.5673 44.1323 16.5673ZM45.2087 9.6455Q42.6311 9.6455 42.6311 7.05829L42.6311 1.43174Q42.6311 0.184661 43.3016-0.553429Q43.972-1.29152 45.2087-1.29152L76.9206-1.29152Q78.2089-1.29152 78.8795-0.553429Q79.55 0.184661 79.55 1.43174L79.55 7.05829Q79.55 9.6455 76.9206 9.6455Z"/>
  </g>
  <g id="Light-M" transform="matrix(1 0 0 1 1092.35 1126)">
   <path d="M44.8065-14.5826L76.7656-14.5826Q81.1837-14.5826 83.5863-17.079Q85.9889-19.5753 85.9889-23.7781L85.9889-33.6546L105.578-33.6546Q108.141-33.6546 109.872-35.0671Q111.603-36.4796 111.603-38.8136Q111.603-40.2747 110.9-41.4866Q110.197-42.6984 108.806-43.8963L66.4393-81.223Q64.7572-82.6908 63.4796-83.4246Q62.202-84.1583 60.7549-84.1583Q59.3701-84.1583 58.0925-83.4246Q56.8149-82.6908 55.1328-81.223L12.7389-43.8619Q11.3401-42.5947 10.6544-41.4347Q9.96875-40.2747 9.96875-38.8136Q9.96875-36.4796 11.6864-35.0671Q13.404-33.6546 15.9663-33.6546L35.5487-33.6546L35.5487-23.7781Q35.5487-19.5753 37.9548-17.079Q40.3609-14.5826 44.8065-14.5826ZM45.326-20.3107Q43.7755-20.3107 42.772-21.2694Q41.7684-22.228 41.7684-23.7781L41.7684-37.8589Q41.7684-38.6829 41.4499-39.0326Q41.1314-39.3822 40.28-39.3822L18.6745-39.3822Q17.8861-39.3822 17.8861-39.9703Q17.8861-40.4063 18.2942-40.787L59.1084-76.4299Q60.1389-77.3707 60.7549-77.3707Q61.4331-77.3707 62.4292-76.4299L103.278-40.787Q103.686-40.4063 103.686-39.9703Q103.686-39.3822 102.898-39.3822L81.2646-39.3822Q80.4406-39.3822 80.1082-39.0326Q79.7757-38.6829 79.7757-37.8589L79.7757-23.7781Q79.7757-22.2625 78.7861-21.2866Q77.7965-20.3107 76.246-20.3107ZM43.0542 14.5311L78.2197 14.5311Q81.9105 14.5311 83.9704 12.5404Q86.0304 10.5497 86.0304 6.82403L86.0304 0.495933Q86.0304-3.22972 83.9704-5.34498Q81.9105-7.46024 78.2197-7.46024L43.0542-7.46024Q39.3291-7.46024 37.2691-5.32754Q35.2091-3.19484 35.2091 0.495933L35.2091 6.82403Q35.2091 10.5148 37.2691 12.5229Q39.3291 14.5311 43.0542 14.5311ZM43.7543 9.11509Q40.9373 9.11509 40.9373 6.37379L40.9373 0.918288Q40.9373-0.431418 41.6846-1.25503Q42.432-2.07865 43.7543-2.07865L77.4852-2.07865Q78.8419-2.07865 79.5895-1.25503Q80.3371-0.431418 80.3371 0.918288L80.3371 6.37379Q80.3371 9.11509 77.4852 9.11509Z"/>
  </g>
  <g id="Thin-M" transform="matrix(1 0 0 1 796.293 1126)">
   <path d="M42.9282-14.3336L77.3313-14.3336Q80.7765-14.3336 82.851-16.4001Q84.9255-18.4666 84.9255-21.877L84.9255-33.7679L105.963-33.7679Q107.869-33.7679 109.08-34.8069Q110.291-35.8458 110.291-37.5916Q110.291-38.6679 109.803-39.5969Q109.315-40.5258 108.263-41.4294L65.2853-79.3219Q63.3994-80.971 62.3254-81.5915Q61.2514-82.212 60.0986-82.212Q59.0081-82.212 57.9341-81.5915Q56.8601-80.971 54.9742-79.3219L11.9469-41.4178Q10.9329-40.4901 10.4508-39.579Q9.96875-38.6679 9.96875-37.5916Q9.96875-35.8458 11.1546-34.8069Q12.3405-33.7679 14.2465-33.7679L35.3224-33.7679L35.3224-21.877Q35.3224-18.4666 37.3778-16.4001Q39.4332-14.3336 42.9282-14.3336ZM43.1082-17.8666Q41.3086-17.8666 40.1467-18.9725Q38.9848-20.0783 38.9848-21.877L38.9848-35.9578Q38.9848-36.6913 38.7116-36.9957Q38.4383-37.3002 37.655-37.3002L15.5514-37.3002Q14.4238-37.3002 14.4238-38.1144Q14.4238-38.7543 15.0129-39.2935L57.6149-76.7242Q59.2336-78.2308 60.0986-78.2308Q61.0259-78.2308 62.633-76.7242L105.247-39.2935Q105.836-38.7543 105.836-38.1144Q105.836-37.3002 104.708-37.3002L82.5547-37.3002Q81.8212-37.3002 81.5226-36.9957Q81.224-36.6913 81.224-35.9578L81.224-21.877Q81.224-20.0899 80.0874-18.9783Q78.9509-17.8666 77.1513-17.8666ZM41.6284 11.838L78.4459 11.838Q81.4352 11.838 83.167 10.2321Q84.8988 8.62615 84.8988 5.62443L84.8988 0.133962Q84.8988-2.86775 83.167-4.70012Q81.4352-6.5325 78.4459-6.5325L41.6284-6.5325Q38.6275-6.5325 36.8957-4.6939Q35.1639-2.8553 35.1639 0.133962L35.1639 5.62443Q35.1639 8.61369 36.8957 10.2258Q38.6275 11.838 41.6284 11.838ZM41.8307 8.41358Q38.697 8.41358 38.697 5.46848L38.697 0.239213Q38.697-1.24623 39.5461-2.18296Q40.3951-3.1197 41.8307-3.1197L78.232-3.1197Q79.6792-3.1197 80.5287-2.18296Q81.3782-1.24623 81.3782 0.239213L81.3782 5.46848Q81.3782 8.41358 78.232 8.41358Z"/>
  </g>
  <g id="Ultralight-M" transform="matrix(1 0 0 1 499.918 1126)">
   <path d="M41.9661-14.206L77.6211-14.206Q80.5679-14.206 82.4743-16.0524Q84.3808-17.8987 84.3808-20.9032L84.3808-33.826L106.16-33.826Q107.73-33.826 108.674-34.6736Q109.618-35.5212 109.618-36.9657Q109.618-37.8449 109.241-38.629Q108.863-39.413 107.985-40.1659L64.6942-78.3482Q62.7039-80.0902 61.7343-80.6526Q60.7646-81.2151 59.7625-81.2151Q58.8227-81.2151 57.853-80.6526Q56.8833-80.0902 54.893-78.3482L11.5413-40.166Q10.7243-39.4122 10.3465-38.6286Q9.96875-37.8449 9.96875-36.9657Q9.96875-35.5212 10.8823-34.6736Q11.7958-33.826 13.3657-33.826L35.2066-33.826L35.2066-20.9032Q35.2066-17.8987 37.0823-16.0524Q38.958-14.206 41.9661-14.206ZM41.9722-16.6148Q40.0451-16.6148 38.8021-17.796Q37.5591-18.9772 37.5591-20.9032L37.5591-34.9841Q37.5591-35.6712 37.309-35.9525Q37.0589-36.2337 36.3104-36.2337L13.9517-36.2337Q12.6504-36.2337 12.6504-37.1639Q12.6504-37.9081 13.3323-38.5286L56.85-76.875Q58.7699-78.6713 59.7625-78.6713Q60.8173-78.6713 62.7374-76.875L106.255-38.5286Q106.937-37.9081 106.937-37.1639Q106.937-36.2337 105.636-36.2337L83.2155-36.2337Q82.5284-36.2337 82.2471-35.9525Q81.9658-35.6712 81.9658-34.9841L81.9658-20.9032Q81.9658-18.9771 80.754-17.7959Q79.5421-16.6148 77.615-16.6148ZM40.8981 10.4586L78.5618 10.4586Q81.1918 10.4586 82.7555 9.04975Q84.3193 7.64092 84.3193 5.01L84.3193-0.0514378Q84.3193-2.68235 82.7555-4.36983Q81.1918-6.05731 78.5618-6.05731L40.8981-6.05731Q38.2682-6.05731 36.7045-4.36935Q35.1407-2.68139 35.1407-0.0514378L35.1407 5.01Q35.1407 7.63996 36.7045 9.04927Q38.2682 10.4586 40.8981 10.4586ZM40.8455 8.05427Q37.5495 8.05427 37.5495 5.00479L37.5495-0.108606Q37.5495-1.66358 38.4507-2.65825Q39.3519-3.65292 40.8455-3.65292L78.6145-3.65292Q80.108-3.65292 81.0097-2.65825Q81.9114-1.66358 81.9114-0.108606L81.9114 5.00479Q81.9114 8.05427 78.6145 8.05427Z"/>
  </g>
  <g id="Black-S" transform="matrix(1 0 0 1 2882.13 696)">
   <path d="M34.082-18.2617L68.457-18.2617Q72.8027-18.2617 75.2441-20.5078Q77.6855-22.7539 77.6855-27.0508L77.6855-31.7383L87.4023-31.7383Q90.5273-31.7383 92.627-33.5205Q94.7266-35.3027 94.7266-38.0859Q94.7266-39.5996 93.9697-41.2598Q93.2129-42.9199 91.6504-44.1895L59.4727-70.8984Q56.7871-73.0957 55.0049-73.8525Q53.2227-74.6094 51.2695-74.6094Q49.3164-74.6094 47.5342-73.8525Q45.752-73.0957 43.0664-70.8984L10.8887-44.1895Q9.32617-42.9199 8.56934-41.2598Q7.8125-39.5996 7.8125-38.0859Q7.8125-35.3027 9.91211-33.5205Q12.0117-31.7383 15.1367-31.7383L24.8535-31.7383L24.8535-27.0508Q24.8535-22.7539 27.2949-20.5078Q29.7363-18.2617 34.082-18.2617ZM38.9648-29.3945Q38.6719-29.3945 38.4521-29.6143Q38.2324-29.834 38.2324-30.127L38.2324-41.5039Q38.2324-42.2363 38.0127-42.4561Q37.793-42.6758 37.0605-42.6758L27.7832-42.6758Q27.5391-42.6758 27.5391-42.9199Q27.5391-43.1152 27.9785-43.457L50.8789-61.1816Q51.123-61.3281 51.3184-61.3281Q51.5625-61.3281 51.7578-61.1816L74.6094-43.457Q75.0488-43.1152 75.0488-42.9199Q75.0488-42.6758 74.8047-42.6758L65.5762-42.6758Q64.8438-42.6758 64.624-42.4561Q64.4043-42.2363 64.4043-41.5039L64.4043-30.127Q64.4043-29.834 64.1846-29.6143Q63.9648-29.3945 63.6719-29.3945ZM34.2773 11.7188L68.2617 11.7188Q72.4609 11.7188 75.0977 9.22852Q77.7344 6.73828 77.7344 2.44141L77.7344-4.10156Q77.7344-8.05664 75.0977-10.7178Q72.4609-13.3789 68.2617-13.3789L34.2773-13.3789Q30.127-13.3789 27.4658-10.7178Q24.8047-8.05664 24.8047-4.10156L24.8047 2.44141Q24.8047 6.73828 27.4658 9.22852Q30.127 11.7188 34.2773 11.7188ZM39.209 0.488281Q38.4766 0.488281 38.4766-0.244141L38.4766-1.41602Q38.4766-1.70898 38.6963-1.92871Q38.916-2.14844 39.209-2.14844L63.3301-2.14844Q63.623-2.14844 63.8428-1.92871Q64.0625-1.70898 64.0625-1.41602L64.0625-0.244141Q64.0625 0.488281 63.3301 0.488281Z"/>
  </g>
  <g id="Heavy-S" transform="matrix(1 0 0 1 2586.13 696)">
   <path d="M34.7505-18.5037L66.3711-18.5037Q70.7283-18.5037 73.1121-20.7786Q75.4959-23.0535 75.4959-27.2928L75.4959-32.2454L86.2153-32.2454Q89.2251-32.2454 91.2671-33.9527Q93.3091-35.66 93.3091-38.351Q93.3091-39.8647 92.5522-41.4211Q91.7954-42.9775 90.2675-44.2356L57.986-71.417Q55.6692-73.3262 54.0253-74.0657Q52.3814-74.8053 50.555-74.8053Q48.7402-74.8053 47.0962-74.0657Q45.4523-73.3262 43.1356-71.417L10.8541-44.224Q9.31465-42.943 8.56357-41.4038Q7.8125-39.8647 7.8125-38.351Q7.8125-35.66 9.85449-33.9527Q11.8965-32.2454 14.9062-32.2454L25.6141-32.2454L25.6141-27.2928Q25.6141-23.0535 28.0037-20.7786Q30.3932-18.5037 34.7505-18.5037ZM38.6537-28.5648Q38.1994-28.5648 37.8817-28.8767Q37.564-29.1886 37.564-29.6429L37.564-40.9392Q37.564-41.6716 37.327-41.9144Q37.09-42.1572 36.3576-42.1572L25.3861-42.1572Q25.1304-42.1572 25.1304-42.4013Q25.1304-42.5851 25.5008-42.8808L50.1413-62.6107Q50.3855-62.7687 50.5923-62.7687Q50.848-62.7687 51.0433-62.6107L75.6581-42.8808Q76.0284-42.5851 76.0284-42.4013Q76.0284-42.1572 75.7727-42.1572L64.8386-42.1572Q64.1062-42.1572 63.8692-41.9144Q63.6322-41.6716 63.6322-40.9392L63.6322-29.6429Q63.6322-29.2001 63.3145-28.8825Q62.9968-28.5648 62.5425-28.5648ZM34.4733 10.4511L66.5676 10.4511Q70.617 10.4511 73.0866 8.09336Q75.5563 5.73565 75.5563 1.60012L75.5563-4.75846Q75.5563-8.63286 73.0866-11.1211Q70.617-13.6094 66.5676-13.6094L34.4733-13.6094Q30.4496-13.6094 27.9614-11.1154Q25.4731-8.62134 25.4731-4.75846L25.4731 1.60012Q25.4731 5.72413 27.9614 8.08759Q30.4496 10.4511 34.4733 10.4511ZM38.4829 0.419134Q37.4739 0.419134 37.4739-0.601399L37.4739-2.55694Q37.4739-2.99972 37.757-3.29436Q38.0402-3.589 38.4829-3.589L62.5464-3.589Q63.0007-3.589 63.2838-3.29436Q63.5669-2.99972 63.5669-2.55694L63.5669-0.601399Q63.5669 0.419134 62.5464 0.419134Z"/>
  </g>
  <g id="Bold-S" transform="matrix(1 0 0 1 2290.21 696)">
   <path d="M35.498-18.7744L64.0381-18.7744Q68.4082-18.7744 70.7275-21.0815Q73.0469-23.3887 73.0469-27.5635L73.0469-32.8125L84.8877-32.8125Q87.7686-32.8125 89.7461-34.436Q91.7236-36.0596 91.7236-38.6475Q91.7236-40.1611 90.9668-41.6016Q90.21-43.042 88.7207-44.2871L56.3232-71.9971Q54.4189-73.584 52.9297-74.3042Q51.4404-75.0244 49.7559-75.0244Q48.0957-75.0244 46.6064-74.3042Q45.1172-73.584 43.2129-71.9971L10.8154-44.2627Q9.30176-42.9688 8.55713-41.5649Q7.8125-40.1611 7.8125-38.6475Q7.8125-36.0596 9.79004-34.436Q11.7676-32.8125 14.6484-32.8125L26.4648-32.8125L26.4648-27.5635Q26.4648-23.3887 28.7964-21.0815Q31.1279-18.7744 35.498-18.7744ZM38.3057-27.6367Q37.6709-27.6367 37.2437-28.0518Q36.8164-28.4668 36.8164-29.1016L36.8164-40.3076Q36.8164-41.04 36.5601-41.3086Q36.3037-41.5771 35.5713-41.5771L22.7051-41.5771Q22.4365-41.5771 22.4365-41.8213Q22.4365-41.9922 22.7295-42.2363L49.3164-64.209Q49.5605-64.3799 49.7803-64.3799Q50.0488-64.3799 50.2441-64.209L76.8311-42.2363Q77.124-41.9922 77.124-41.8213Q77.124-41.5771 76.8555-41.5771L64.0137-41.5771Q63.2812-41.5771 63.0249-41.3086Q62.7686-41.04 62.7686-40.3076L62.7686-29.1016Q62.7686-28.4912 62.3413-28.064Q61.9141-27.6367 61.2793-27.6367ZM34.6924 9.0332L64.6729 9.0332Q68.5547 9.0332 70.8374 6.82373Q73.1201 4.61426 73.1201 0.65918L73.1201-5.49316Q73.1201-9.27734 70.8374-11.5723Q68.5547-13.8672 64.6729-13.8672L34.6924-13.8672Q30.8105-13.8672 28.5156-11.5601Q26.2207-9.25293 26.2207-5.49316L26.2207 0.65918Q26.2207 4.58984 28.5156 6.81152Q30.8105 9.0332 34.6924 9.0332ZM37.6709 0.341797Q36.3525 0.341797 36.3525-1.00098L36.3525-3.83301Q36.3525-4.44336 36.7065-4.82178Q37.0605-5.2002 37.6709-5.2002L61.6699-5.2002Q62.3047-5.2002 62.6587-4.82178Q63.0127-4.44336 63.0127-3.83301L63.0127-1.00098Q63.0127 0.341797 61.6699 0.341797Z"/>
  </g>
  <g id="Semibold-S" transform="matrix(1 0 0 1 1994.05 696)">
   <path d="M36.0135-18.961L62.4296-18.961Q66.8086-18.961 69.0835-21.2904Q71.3584-23.6197 71.3584-27.7501L71.3584-33.2035L83.9724-33.2035Q86.7644-33.2035 88.6975-34.7693Q90.6306-36.3351 90.6306-38.8519Q90.6306-40.3655 89.8737-41.726Q89.1169-43.0864 87.6543-44.3227L55.1769-72.397Q53.5569-73.7617 52.1743-74.4686Q50.7917-75.1755 49.2049-75.1755Q47.6514-75.1755 46.2687-74.4686Q44.8861-73.7617 43.2662-72.397L10.7888-44.2894Q9.29287-42.9865 8.55269-41.676Q7.8125-40.3655 7.8125-38.8519Q7.8125-36.3351 9.74561-34.7693Q11.6787-33.2035 14.4707-33.2035L27.0514-33.2035L27.0514-27.7501Q27.0514-23.6197 29.3429-21.2904Q31.6345-18.961 36.0135-18.961ZM38.0657-26.9969Q37.3065-26.9969 36.8038-27.483Q36.301-27.9691 36.301-28.7283L36.301-39.8722Q36.301-40.6046 36.0313-40.8909Q35.7616-41.1772 35.0292-41.1772L20.8566-41.1772Q20.5792-41.1772 20.5792-41.4214Q20.5792-41.5834 20.8188-41.792L48.7477-65.3109Q48.9918-65.4907 49.2204-65.4907Q49.4979-65.4907 49.6932-65.3109L77.6397-41.792Q77.8794-41.5834 77.8794-41.4214Q77.8794-41.1772 77.602-41.1772L63.4449-41.1772Q62.7125-41.1772 62.4428-40.8909Q62.1731-40.6046 62.1731-39.8722L62.1731-28.7283Q62.1731-28.0024 61.6704-27.4997Q61.1676-26.9969 60.4084-26.9969ZM34.8435 8.05566L63.3665 8.05566Q67.1328 8.05566 69.2867 5.94839Q71.4405 3.84111 71.4405 0.0104492L71.4405-5.99971Q71.4405-9.72168 69.2867-11.8833Q67.1328-14.0449 63.3665-14.0449L34.8435-14.0449Q31.0594-14.0449 28.8978-11.8667Q26.7361-9.68838 26.7361-5.99971L26.7361 0.0104492Q26.7361 3.80781 28.8978 5.93174Q31.0594 8.05566 34.8435 8.05566ZM37.111 0.288477Q35.5794 0.288477 35.5794-1.27646L35.5794-4.71279Q35.5794-5.43867 35.9823-5.87485Q36.3852-6.31104 37.111-6.31104L61.0656-6.31104Q61.8248-6.31104 62.2277-5.87485Q62.6306-5.43867 62.6306-4.71279L62.6306-1.27646Q62.6306 0.288477 61.0656 0.288477Z"/>
  </g>
  <g id="Medium-S" transform="matrix(1 0 0 1 1697.75 696)">
   <path d="M36.4043-19.1025L61.21-19.1025Q65.5957-19.1025 67.8369-21.4487Q70.0781-23.7949 70.0781-27.8916L70.0781-33.5L83.2783-33.5Q86.0029-33.5 87.9023-35.022Q89.8018-36.5439 89.8018-39.0068Q89.8018-40.5205 89.0449-41.8203Q88.2881-43.1201 86.8457-44.3496L54.3076-72.7002Q52.9033-73.8965 51.6016-74.5933Q50.2998-75.29 48.7871-75.29Q47.3145-75.29 46.0127-74.5933Q44.7109-73.8965 43.3066-72.7002L10.7686-44.3096Q9.28613-43 8.54932-41.7603Q7.8125-40.5205 7.8125-39.0068Q7.8125-36.5439 9.71191-35.022Q11.6113-33.5 14.3359-33.5L27.4961-33.5L27.4961-27.8916Q27.4961-23.7949 29.7573-21.4487Q32.0186-19.1025 36.4043-19.1025ZM37.8838-26.5117Q37.0303-26.5117 36.4702-27.0518Q35.9102-27.5918 35.9102-28.4453L35.9102-39.542Q35.9102-40.2744 35.6304-40.5742Q35.3506-40.874 34.6182-40.874L19.4551-40.874Q19.1709-40.874 19.1709-41.1182Q19.1709-41.2734 19.3701-41.4551L48.3164-66.1465Q48.5605-66.333 48.7959-66.333Q49.0801-66.333 49.2754-66.1465L78.2529-41.4551Q78.4521-41.2734 78.4521-41.1182Q78.4521-40.874 78.168-40.874L63.0137-40.874Q62.2812-40.874 62.0015-40.5742Q61.7217-40.2744 61.7217-39.542L61.7217-28.4453Q61.7217-27.6318 61.1616-27.0718Q60.6016-26.5117 59.748-26.5117ZM34.958 7.31445L62.376 7.31445Q66.0547 7.31445 68.1108 5.28467Q70.167 3.25488 70.167-0.481445L70.167-6.38379Q70.167-10.0586 68.1108-12.1191Q66.0547-14.1797 62.376-14.1797L34.958-14.1797Q31.248-14.1797 29.1875-12.0991Q27.127-10.0186 27.127-6.38379L27.127-0.481445Q27.127 3.21484 29.1875 5.26465Q31.248 7.31445 34.958 7.31445ZM36.6865 0.248047Q34.9932 0.248047 34.9932-1.48535L34.9932-5.37988Q34.9932-6.19336 35.4331-6.67334Q35.873-7.15332 36.6865-7.15332L60.6074-7.15332Q61.4609-7.15332 61.9009-6.67334Q62.3408-6.19336 62.3408-5.37988L62.3408-1.48535Q62.3408 0.248047 60.6074 0.248047Z"/>
  </g>
  <g id="Regular-S" transform="matrix(1 0 0 1 1401.58 696)">
   <path d="M36.9141-19.2871L59.6191-19.2871Q64.0137-19.2871 66.2109-21.6553Q68.4082-24.0234 68.4082-28.0762L68.4082-33.8867L82.373-33.8867Q85.0098-33.8867 86.8652-35.3516Q88.7207-36.8164 88.7207-39.209Q88.7207-40.7227 87.9639-41.9434Q87.207-43.1641 85.791-44.3848L53.1738-73.0957Q52.0508-74.0723 50.8545-74.7559Q49.6582-75.4395 48.2422-75.4395Q46.875-75.4395 45.6787-74.7559Q44.4824-74.0723 43.3594-73.0957L10.7422-44.3359Q9.27734-43.0176 8.54492-41.8701Q7.8125-40.7227 7.8125-39.209Q7.8125-36.8164 9.66797-35.3516Q11.5234-33.8867 14.1602-33.8867L28.0762-33.8867L28.0762-28.0762Q28.0762-24.0234 30.2979-21.6553Q32.5195-19.2871 36.9141-19.2871ZM37.6465-25.8789Q36.6699-25.8789 36.0352-26.4893Q35.4004-27.0996 35.4004-28.0762L35.4004-39.1113Q35.4004-39.8438 35.1074-40.1611Q34.8145-40.4785 34.082-40.4785L17.627-40.4785Q17.334-40.4785 17.334-40.7227Q17.334-40.8691 17.4805-41.0156L47.7539-67.2363Q47.998-67.4316 48.2422-67.4316Q48.5352-67.4316 48.7305-67.2363L79.0527-41.0156Q79.1992-40.8691 79.1992-40.7227Q79.1992-40.4785 78.9062-40.4785L62.4512-40.4785Q61.7188-40.4785 61.4258-40.1611Q61.1328-39.8438 61.1328-39.1113L61.1328-28.0762Q61.1328-27.1484 60.498-26.5137Q59.8633-25.8789 58.8867-25.8789ZM35.1074 6.34766L61.084 6.34766Q64.6484 6.34766 66.5771 4.41895Q68.5059 2.49023 68.5059-1.12305L68.5059-6.88477Q68.5059-10.498 66.5771-12.4268Q64.6484-14.3555 61.084-14.3555L35.1074-14.3555Q31.4941-14.3555 29.5654-12.4023Q27.6367-10.4492 27.6367-6.88477L27.6367-1.12305Q27.6367 2.44141 29.5654 4.39453Q31.4941 6.34766 35.1074 6.34766ZM36.1328 0.195312Q34.2285 0.195312 34.2285-1.75781L34.2285-6.25Q34.2285-7.17773 34.7168-7.71484Q35.2051-8.25195 36.1328-8.25195L60.0098-8.25195Q60.9863-8.25195 61.4746-7.71484Q61.9629-7.17773 61.9629-6.25L61.9629-1.75781Q61.9629 0.195312 60.0098 0.195312Z"/>
  </g>
  <g id="Light-S" transform="matrix(1 0 0 1 1105.31 696)">
   <path d="M35.6578-19.1205L59.9976-19.1205Q63.7413-19.1205 65.7191-21.2012Q67.6969-23.2819 67.6969-26.8046L67.6969-33.9625L82.6304-33.9625Q84.8282-33.9625 86.3355-35.1775Q87.8428-36.3925 87.8428-38.3916Q87.8428-39.6479 87.2298-40.6794Q86.6168-41.7109 85.4279-42.7348L52.402-71.8241Q51.1426-72.922 50.0825-73.5298Q49.0224-74.1376 47.8032-74.1376Q46.6329-74.1376 45.5728-73.5298Q44.5127-72.922 43.2533-71.8241L10.2125-42.7012Q9.00497-41.61 8.40874-40.6289Q7.8125-39.6479 7.8125-38.3916Q7.8125-36.3925 9.31231-35.1775Q10.8121-33.9625 13.0099-33.9625L27.9249-33.9625L27.9249-26.8046Q27.9249-23.2819 29.9119-21.2012Q31.899-19.1205 35.6578-19.1205ZM36.1631-24.2442Q35.0199-24.2442 34.2793-24.953Q33.5386-25.6617 33.5386-26.8046L33.5386-37.8398Q33.5386-38.5117 33.2759-38.7988Q33.0132-39.0859 32.3263-39.0859L15.538-39.0859Q15.0182-39.0859 15.0182-39.4814Q15.0182-39.7641 15.2857-40.0167L46.755-67.4332Q47.3925-68.0069 47.8032-68.0069Q48.2628-68.0069 48.8668-67.4332L80.3696-40.0167Q80.6371-39.7641 80.6371-39.4814Q80.6371-39.0859 80.1173-39.0859L63.3141-39.0859Q62.6422-39.0859 62.3718-38.7988Q62.1015-38.5117 62.1015-37.8398L62.1015-26.8046Q62.1015-25.6953 61.3684-24.9697Q60.6354-24.2442 59.4922-24.2442ZM34.1537 4.54636L61.2353 4.54636Q64.3305 4.54636 66.0398 2.87501Q67.749 1.20366 67.749-1.9254L67.749-7.12687Q67.749-10.2559 66.0398-11.9954Q64.3305-13.7349 61.2353-13.7349L34.1537-13.7349Q31.0249-13.7349 29.3157-11.9785Q27.6065-10.2221 27.6065-7.12687L27.6065-1.9254Q27.6065 1.16984 29.3157 2.8581Q31.0249 4.54636 34.1537 4.54636ZM34.8462-0.273895Q32.7301-0.273895 32.7301-2.36333L32.7301-6.7042Q32.7301-7.72273 33.2864-8.33549Q33.8427-8.94826 34.8462-8.94826L60.5092-8.94826Q61.5463-8.94826 62.1028-8.33549Q62.6592-7.72273 62.6592-6.7042L62.6592-2.36333Q62.6592-0.273895 60.5092-0.273895Z"/>
  </g>
  <g id="Thin-S" transform="matrix(1 0 0 1 809.175 696)">
   <path d="M33.9962-18.9002L60.498-18.9002Q63.3811-18.9002 65.0686-20.6006Q66.7561-22.3011 66.7561-25.1229L66.7561-34.0627L82.9708-34.0627Q84.588-34.0627 85.6349-34.9473Q86.6817-35.8318 86.6817-37.3106Q86.6817-38.2265 86.2589-39.0078Q85.8361-39.789 84.9475-40.5525L51.3812-70.1424Q49.9415-71.4007 49.0615-71.9083Q48.1815-72.4159 47.2227-72.4159Q46.3127-72.4159 45.4327-71.9083Q44.5527-71.4007 43.1131-70.1424L9.51184-40.5392Q8.64474-39.7483 8.22862-38.9874Q7.8125-38.2265 7.8125-37.3106Q7.8125-35.8318 8.84193-34.9473Q9.87135-34.0627 11.4886-34.0627L27.7247-34.0627L27.7247-25.1229Q27.7247-22.3011 29.4015-20.6006Q31.0783-18.9002 33.9962-18.9002ZM34.2011-22.0821Q32.8377-22.0821 31.9569-22.9211Q31.0761-23.76 31.0761-25.1229L31.0761-36.158Q31.0761-36.7499 30.8535-36.997Q30.6308-37.244 30.0041-37.244L12.7752-37.244Q11.9554-37.244 11.9554-37.8396Q11.9554-38.3027 12.383-38.6955L45.4338-67.6935Q46.5917-68.7677 47.2227-68.7677Q47.9026-68.7677 49.0471-67.6935L82.1112-38.6955Q82.5388-38.3027 82.5388-37.8396Q82.5388-37.244 81.719-37.244L64.4553-37.244Q63.8634-37.244 63.623-36.997Q63.3826-36.7499 63.3826-36.158L63.3826-25.1229Q63.3826-23.7734 62.5196-22.9278Q61.6565-22.0821 60.2931-22.0821ZM32.8924 2.16399L61.4354 2.16399Q63.9101 2.16399 65.3291 0.833031Q66.748-0.497929 66.748-2.98659L66.748-7.44708Q66.748-9.93574 65.3291-11.425Q63.9101-12.9143 61.4354-12.9143L32.8924-12.9143Q30.4044-12.9143 28.9854-11.418Q27.5664-9.92176 27.5664-7.44708L27.5664-2.98659Q27.5664-0.511908 28.9854 0.826042Q30.4044 2.16399 32.8924 2.16399ZM33.1446-0.89446Q30.7483-0.89446 30.7483-3.16418L30.7483-7.30492Q30.7483-8.44352 31.3946-9.15636Q32.0409-9.86919 33.1446-9.86919L61.1698-9.86919Q62.287-9.86919 62.9335-9.15636Q63.5801-8.44352 63.5801-7.30492L63.5801-3.16418Q63.5801-0.89446 61.1698-0.89446Z"/>
  </g>
  <g id="Ultralight-S" transform="matrix(1 0 0 1 512.761 696)">
   <path d="M33.1451-18.7874L60.7544-18.7874Q63.1966-18.7874 64.7354-20.293Q66.2743-21.7987 66.2743-24.2615L66.2743-34.1141L83.1451-34.1141Q84.465-34.1141 85.276-34.8293Q86.087-35.5446 86.087-36.7569Q86.087-37.4985 85.7616-38.1516Q85.4362-38.8046 84.7015-39.4348L50.8583-69.281Q49.3263-70.6215 48.5386-71.0777Q47.7509-71.534 46.9254-71.534Q46.1487-71.534 45.3609-71.0777Q44.5732-70.6215 43.0412-69.281L9.15298-39.4318Q8.46024-38.7947 8.13637-38.1466Q7.8125-37.4985 7.8125-36.7569Q7.8125-35.5446 8.601-34.8293Q9.3895-34.1141 10.7094-34.1141L27.6222-34.1141L27.6222-24.2615Q27.6222-21.7987 29.1401-20.293Q30.658-18.7874 33.1451-18.7874ZM33.1963-20.9747Q31.72-20.9747 30.7674-21.8803Q29.8149-22.7859 29.8149-24.2615L29.8149-35.2966Q29.8149-35.8475 29.6127-36.0741Q29.4106-36.3007 28.8147-36.3007L11.3602-36.3007Q10.3867-36.3007 10.3867-36.9987Q10.3867-37.5542 10.8963-38.0188L44.7571-67.8268Q46.1815-69.1574 46.9254-69.1574Q47.718-69.1574 49.1394-67.8268L83.0032-38.0188Q83.5129-37.5542 83.5129-36.9987Q83.5129-36.3007 82.5394-36.3007L65.0398-36.3007Q64.489-36.3007 64.2639-36.0741Q64.0388-35.8475 64.0388-35.2966L64.0388-24.2615Q64.0388-22.789 63.1092-21.8819Q62.1796-20.9747 60.7033-20.9747ZM32.2464 0.943756L61.5379 0.943756Q63.6948 0.943756 64.9651-0.21286Q66.2354-1.36948 66.2354-3.53012L66.2354-7.61108Q66.2354-9.77173 64.9651-11.1328Q63.6948-12.4939 61.5379-12.4939L32.2464-12.4939Q30.0865-12.4939 28.8162-11.1309Q27.5459-9.76791 27.5459-7.61108L27.5459-3.53012Q27.5459-1.37329 28.8162-0.214767Q30.0865 0.943756 32.2464 0.943756ZM32.2731-1.21231Q29.7333-1.21231 29.7333-3.57437L29.7333-7.61261Q29.7333-8.81271 30.4256-9.5768Q31.118-10.3409 32.2731-10.3409L61.5082-10.3409Q62.6663-10.3409 63.3591-9.5768Q64.0518-8.81271 64.0518-7.61261L64.0518-3.57437Q64.0518-1.21231 61.5082-1.21231Z"/>
  </g>
 </g>
</svg>
