<?xml version="1.0" encoding="UTF-8"?>
<!--Generator: Apple Native CoreSVG 175.5-->
<!DOCTYPE svg
PUBLIC "-//W3C//DTD SVG 1.1//EN"
       "http://www.w3.org/Graphics/SVG/1.1/DTD/svg11.dtd">
<svg version="1.1" xmlns="http://www.w3.org/2000/svg" xmlns:xlink="http://www.w3.org/1999/xlink" width="12.7334" height="12.7397">
 <g>
  <rect height="12.7397" opacity="0" width="12.7334" x="0" y="0"/>
  <path d="M6.3667 9.59766C8.13135 9.59766 9.604 8.13135 9.604 6.3667C9.604 4.5957 8.13135 3.12939 6.3667 3.12939C4.60205 3.12939 3.13574 4.5957 3.13574 6.3667C3.13574 8.13135 4.60205 9.59766 6.3667 9.59766ZM6.3667 8.63281C5.12891 8.63281 4.10059 7.60449 4.10059 6.3667C4.10059 5.12891 5.12891 4.09424 6.3667 4.09424C7.60449 4.09424 8.63916 5.12256 8.63916 6.3667C8.63916 7.60449 7.60449 8.63281 6.3667 8.63281ZM0.742676 7.10938C1.14893 7.10938 1.48535 6.77295 1.48535 6.3667C1.48535 5.9541 1.14893 5.62402 0.742676 5.62402C0.336426 5.62402 0 5.9541 0 6.3667C0 6.77295 0.336426 7.10938 0.742676 7.10938ZM2.38672 3.12939C2.79932 3.12939 3.12939 2.79297 3.12939 2.38672C3.12939 1.98047 2.79932 1.64404 2.38672 1.64404C1.98047 1.64404 1.64404 1.98047 1.64404 2.38672C1.64404 2.79297 1.98047 3.12939 2.38672 3.12939ZM6.3667 1.48535C6.77295 1.48535 7.10938 1.14893 7.10938 0.742676C7.10938 0.336426 6.77295 0 6.3667 0C5.96045 0 5.62402 0.336426 5.62402 0.742676C5.62402 1.14893 5.96045 1.48535 6.3667 1.48535ZM10.3467 3.12939C10.7529 3.12939 11.0894 2.79297 11.0894 2.38672C11.0894 1.98047 10.7529 1.64404 10.3467 1.64404C9.94043 1.64404 9.604 1.98047 9.604 2.38672C9.604 2.79297 9.94043 3.12939 10.3467 3.12939ZM11.9907 7.10938C12.397 7.10938 12.7334 6.77295 12.7334 6.3667C12.7334 5.9541 12.397 5.62402 11.9907 5.62402C11.5845 5.62402 11.248 5.9541 11.248 6.3667C11.248 6.77295 11.5845 7.10938 11.9907 7.10938ZM10.3467 11.0894C10.7529 11.0894 11.0894 10.7529 11.0894 10.3467C11.0894 9.93408 10.7529 9.604 10.3467 9.604C9.94043 9.604 9.604 9.93408 9.604 10.3467C9.604 10.7529 9.94043 11.0894 10.3467 11.0894ZM6.3667 12.7334C6.77295 12.7334 7.10938 12.397 7.10938 11.9907C7.10938 11.5781 6.77295 11.248 6.3667 11.248C5.96045 11.248 5.62402 11.5781 5.62402 11.9907C5.62402 12.397 5.96045 12.7334 6.3667 12.7334ZM2.38672 11.0894C2.79932 11.0894 3.12939 10.7529 3.12939 10.3467C3.12939 9.93408 2.79932 9.604 2.38672 9.604C1.98047 9.604 1.64404 9.93408 1.64404 10.3467C1.64404 10.7529 1.98047 11.0894 2.38672 11.0894Z" fill="#000000" fill-opacity="0.85"/>
 </g>
</svg>
