<?xml version="1.0" encoding="UTF-8"?>
<!--Generator: Apple Native CoreSVG 175.5-->
<!DOCTYPE svg
PUBLIC "-//W3C//DTD SVG 1.1//EN"
       "http://www.w3.org/Graphics/SVG/1.1/DTD/svg11.dtd">
<svg version="1.1" xmlns="http://www.w3.org/2000/svg" xmlns:xlink="http://www.w3.org/1999/xlink" width="7.68701" height="11.2036">
 <g>
  <rect height="11.2036" opacity="0" width="7.68701" x="0" y="0"/>
  <path d="M1.29492 8.18213L3.11035 8.18213C3.16748 8.18213 3.21826 8.20117 3.2627 8.23926L6.12549 10.8037C6.43018 11.0767 6.66504 11.2036 6.96973 11.2036C7.38232 11.2036 7.68701 10.9053 7.68701 10.4927L7.68701 0.755371C7.68701 0.342773 7.38232 0.00634766 6.95703 0.00634766C6.65234 0.00634766 6.46191 0.145996 6.12549 0.444336L3.2627 2.9834C3.21826 3.02148 3.16748 3.04053 3.11035 3.04053L1.29492 3.04053C0.431641 3.04053 0 3.47852 0 4.39893L0 6.83008C0 7.75049 0.431641 8.18213 1.29492 8.18213ZM1.33936 7.25537C1.09814 7.25537 0.990234 7.14746 0.990234 6.9126L0.990234 4.31641C0.990234 4.0752 1.09814 3.96729 1.33936 3.96729L3.37061 3.96729C3.53564 3.96729 3.65625 3.93555 3.80225 3.80225L6.50635 1.3457C6.53809 1.31396 6.57617 1.29492 6.61426 1.29492C6.65869 1.29492 6.69678 1.32666 6.69678 1.38379L6.69678 9.81982C6.69678 9.87695 6.65869 9.91504 6.61426 9.91504C6.58252 9.91504 6.54443 9.896 6.5127 9.86426L3.80225 7.42041C3.65625 7.29346 3.53564 7.25537 3.37061 7.25537Z" fill="#000000" fill-opacity="0.85"/>
 </g>
</svg>
