<?xml version="1.0" encoding="UTF-8"?>
<!--Generator: Apple Native CoreSVG 175-->
<!DOCTYPE svg
PUBLIC "-//W3C//DTD SVG 1.1//EN"
       "http://www.w3.org/Graphics/SVG/1.1/DTD/svg11.dtd">
<svg version="1.1" xmlns="http://www.w3.org/2000/svg" xmlns:xlink="http://www.w3.org/1999/xlink" width="3300" height="2200">
 <!--glyph: "uni100287.medium", point size: 100.0, font version: "17.1d1e1", template writer version: "65.1"-->
 <g id="Notes">
  <rect height="2200" id="artboard" style="fill:white;opacity:1" width="3300" x="0" y="0"/>
  <line style="fill:none;stroke:black;opacity:1;stroke-width:0.5;" x1="263" x2="3036" y1="292" y2="292"/>
  <text style="stroke:none;fill:black;font-family:sans-serif;font-size:13;font-weight:bold;" transform="matrix(1 0 0 1 263 322)">Weight/Scale Variations</text>
  <text style="stroke:none;fill:black;font-family:sans-serif;font-size:13;text-anchor:middle;" transform="matrix(1 0 0 1 559.711 322)">Ultralight</text>
  <text style="stroke:none;fill:black;font-family:sans-serif;font-size:13;text-anchor:middle;" transform="matrix(1 0 0 1 856.422 322)">Thin</text>
  <text style="stroke:none;fill:black;font-family:sans-serif;font-size:13;text-anchor:middle;" transform="matrix(1 0 0 1 1153.13 322)">Light</text>
  <text style="stroke:none;fill:black;font-family:sans-serif;font-size:13;text-anchor:middle;" transform="matrix(1 0 0 1 1449.84 322)">Regular</text>
  <text style="stroke:none;fill:black;font-family:sans-serif;font-size:13;text-anchor:middle;" transform="matrix(1 0 0 1 1746.56 322)">Medium</text>
  <text style="stroke:none;fill:black;font-family:sans-serif;font-size:13;text-anchor:middle;" transform="matrix(1 0 0 1 2043.27 322)">Semibold</text>
  <text style="stroke:none;fill:black;font-family:sans-serif;font-size:13;text-anchor:middle;" transform="matrix(1 0 0 1 2339.98 322)">Bold</text>
  <text style="stroke:none;fill:black;font-family:sans-serif;font-size:13;text-anchor:middle;" transform="matrix(1 0 0 1 2636.69 322)">Heavy</text>
  <text style="stroke:none;fill:black;font-family:sans-serif;font-size:13;text-anchor:middle;" transform="matrix(1 0 0 1 2933.4 322)">Black</text>
  <line style="fill:none;stroke:black;opacity:1;stroke-width:0.5;" x1="263" x2="3036" y1="1903" y2="1903"/>
  <g transform="matrix(1 0 0 1 263 1933)">
   <path d="M9.24805 0.830078Q10.8691 0.830078 12.2949 0.214844Q13.7207-0.400391 14.8096-1.49414Q15.8984-2.58789 16.5186-4.01367Q17.1387-5.43945 17.1387-7.05078Q17.1387-8.66211 16.5186-10.0879Q15.8984-11.5137 14.8047-12.6074Q13.7109-13.7012 12.2852-14.3164Q10.8594-14.9316 9.23828-14.9316Q7.62695-14.9316 6.20117-14.3164Q4.77539-13.7012 3.69141-12.6074Q2.60742-11.5137 1.9873-10.0879Q1.36719-8.66211 1.36719-7.05078Q1.36719-5.43945 1.9873-4.01367Q2.60742-2.58789 3.69629-1.49414Q4.78516-0.400391 6.21094 0.214844Q7.63672 0.830078 9.24805 0.830078ZM9.24805-0.654297Q7.91992-0.654297 6.7627-1.14746Q5.60547-1.64062 4.73145-2.51953Q3.85742-3.39844 3.36426-4.56055Q2.87109-5.72266 2.87109-7.05078Q2.87109-8.37891 3.35938-9.54102Q3.84766-10.7031 4.72168-11.582Q5.5957-12.4609 6.75293-12.9541Q7.91016-13.4473 9.23828-13.4473Q10.5762-13.4473 11.7334-12.9541Q12.8906-12.4609 13.7695-11.582Q14.6484-10.7031 15.1465-9.54102Q15.6445-8.37891 15.6445-7.05078Q15.6445-5.72266 15.1514-4.56055Q14.6582-3.39844 13.7842-2.51953Q12.9102-1.64062 11.748-1.14746Q10.5859-0.654297 9.24805-0.654297ZM5.6543-7.05078Q5.6543-6.72852 5.85938-6.52832Q6.06445-6.32812 6.40625-6.32812L8.51562-6.32812L8.51562-4.20898Q8.51562-3.88672 8.71094-3.67676Q8.90625-3.4668 9.23828-3.4668Q9.56055-3.4668 9.77051-3.67676Q9.98047-3.88672 9.98047-4.20898L9.98047-6.32812L12.0898-6.32812Q12.4219-6.32812 12.627-6.52832Q12.832-6.72852 12.832-7.05078Q12.832-7.38281 12.627-7.58789Q12.4219-7.79297 12.0898-7.79297L9.98047-7.79297L9.98047-9.90234Q9.98047-10.2344 9.77051-10.4443Q9.56055-10.6543 9.23828-10.6543Q8.90625-10.6543 8.71094-10.4443Q8.51562-10.2344 8.51562-9.90234L8.51562-7.79297L6.40625-7.79297Q6.06445-7.79297 5.85938-7.58789Q5.6543-7.38281 5.6543-7.05078Z"/>
  </g>
  <g transform="matrix(1 0 0 1 281.867 1933)">
   <path d="M11.709 2.91016Q13.75 2.91016 15.5518 2.12891Q17.3535 1.34766 18.7305-0.0292969Q20.1074-1.40625 20.8887-3.20801Q21.6699-5.00977 21.6699-7.05078Q21.6699-9.0918 20.8887-10.8936Q20.1074-12.6953 18.7305-14.0723Q17.3535-15.4492 15.5469-16.2305Q13.7402-17.0117 11.6992-17.0117Q9.6582-17.0117 7.85645-16.2305Q6.05469-15.4492 4.68262-14.0723Q3.31055-12.6953 2.5293-10.8936Q1.74805-9.0918 1.74805-7.05078Q1.74805-5.00977 2.5293-3.20801Q3.31055-1.40625 4.6875-0.0292969Q6.06445 1.34766 7.86621 2.12891Q9.66797 2.91016 11.709 2.91016ZM11.709 1.25Q9.98047 1.25 8.47656 0.605469Q6.97266-0.0390625 5.83496-1.17676Q4.69727-2.31445 4.05762-3.81836Q3.41797-5.32227 3.41797-7.05078Q3.41797-8.7793 4.05762-10.2832Q4.69727-11.7871 5.83008-12.9297Q6.96289-14.0723 8.4668-14.7119Q9.9707-15.3516 11.6992-15.3516Q13.4277-15.3516 14.9316-14.7119Q16.4355-14.0723 17.5781-12.9297Q18.7207-11.7871 19.3652-10.2832Q20.0098-8.7793 20.0098-7.05078Q20.0098-5.32227 19.3701-3.81836Q18.7305-2.31445 17.5928-1.17676Q16.4551-0.0390625 14.9463 0.605469Q13.4375 1.25 11.709 1.25ZM7.17773-7.05078Q7.17773-6.69922 7.41211-6.47461Q7.64648-6.25 8.01758-6.25L10.8887-6.25L10.8887-3.36914Q10.8887-2.99805 11.1133-2.76855Q11.3379-2.53906 11.6895-2.53906Q12.0605-2.53906 12.29-2.76855Q12.5195-2.99805 12.5195-3.36914L12.5195-6.25L15.4004-6.25Q15.7715-6.25 16.001-6.47461Q16.2305-6.69922 16.2305-7.05078Q16.2305-7.42188 16.001-7.65137Q15.7715-7.88086 15.4004-7.88086L12.5195-7.88086L12.5195-10.752Q12.5195-11.1328 12.29-11.3623Q12.0605-11.5918 11.6895-11.5918Q11.3379-11.5918 11.1133-11.3574Q10.8887-11.123 10.8887-10.752L10.8887-7.88086L8.01758-7.88086Q7.63672-7.88086 7.40723-7.65137Q7.17773-7.42188 7.17773-7.05078Z"/>
  </g>
  <g transform="matrix(1 0 0 1 305.646 1933)">
   <path d="M14.9707 5.66406Q17.0605 5.66406 18.96 5.01465Q20.8594 4.36523 22.4512 3.19336Q24.043 2.02148 25.2197 0.429688Q26.3965-1.16211 27.0459-3.06641Q27.6953-4.9707 27.6953-7.05078Q27.6953-9.14062 27.0459-11.04Q26.3965-12.9395 25.2197-14.5312Q24.043-16.123 22.4512-17.2998Q20.8594-18.4766 18.9551-19.126Q17.0508-19.7754 14.9609-19.7754Q12.8711-19.7754 10.9717-19.126Q9.07227-18.4766 7.48535-17.2998Q5.89844-16.123 4.72168-14.5312Q3.54492-12.9395 2.90039-11.04Q2.25586-9.14062 2.25586-7.05078Q2.25586-4.9707 2.90527-3.06641Q3.55469-1.16211 4.72656 0.429688Q5.89844 2.02148 7.49023 3.19336Q9.08203 4.36523 10.9814 5.01465Q12.8809 5.66406 14.9707 5.66406ZM14.9707 3.84766Q13.1641 3.84766 11.5283 3.2959Q9.89258 2.74414 8.53516 1.74805Q7.17773 0.751953 6.17676-0.610352Q5.17578-1.97266 4.62891-3.6084Q4.08203-5.24414 4.08203-7.05078Q4.08203-8.86719 4.62891-10.5029Q5.17578-12.1387 6.17188-13.501Q7.16797-14.8633 8.52539-15.8594Q9.88281-16.8555 11.5186-17.4023Q13.1543-17.9492 14.9609-17.9492Q16.7773-17.9492 18.4131-17.4023Q20.0488-16.8555 21.4111-15.8594Q22.7734-14.8633 23.7695-13.501Q24.7656-12.1387 25.3174-10.5029Q25.8691-8.86719 25.8691-7.05078Q25.8789-5.24414 25.332-3.6084Q24.7852-1.97266 23.7842-0.610352Q22.7832 0.751953 21.4209 1.74805Q20.0586 2.74414 18.4229 3.2959Q16.7871 3.84766 14.9707 3.84766ZM9.19922-7.05078Q9.19922-6.66992 9.45801-6.4209Q9.7168-6.17188 10.1172-6.17188L14.0625-6.17188L14.0625-2.2168Q14.0625-1.81641 14.3115-1.55762Q14.5605-1.29883 14.9512-1.29883Q15.3516-1.29883 15.6104-1.55273Q15.8691-1.80664 15.8691-2.2168L15.8691-6.17188L19.8242-6.17188Q20.2246-6.17188 20.4785-6.4209Q20.7324-6.66992 20.7324-7.05078Q20.7324-7.46094 20.4785-7.71484Q20.2246-7.96875 19.8242-7.96875L15.8691-7.96875L15.8691-11.9141Q15.8691-12.3242 15.6104-12.583Q15.3516-12.8418 14.9512-12.8418Q14.5605-12.8418 14.3115-12.583Q14.0625-12.3242 14.0625-11.9141L14.0625-7.96875L10.1172-7.96875Q9.70703-7.96875 9.45312-7.71484Q9.19922-7.46094 9.19922-7.05078Z"/>
  </g>
  <text style="stroke:none;fill:black;font-family:sans-serif;font-size:13;font-weight:bold;" transform="matrix(1 0 0 1 263 1953)">Design Variations</text>
  <text style="stroke:none;fill:black;font-family:sans-serif;font-size:13;" transform="matrix(1 0 0 1 263 1971)">Symbols are supported in up to nine weights and three scales.</text>
  <text style="stroke:none;fill:black;font-family:sans-serif;font-size:13;" transform="matrix(1 0 0 1 263 1989)">For optimal layout with text and other symbols, vertically align</text>
  <text style="stroke:none;fill:black;font-family:sans-serif;font-size:13;" transform="matrix(1 0 0 1 263 2007)">symbols with the adjacent text.</text>
  <line style="fill:none;stroke:#00AEEF;stroke-width:0.5;opacity:1.0;" x1="776" x2="776" y1="1919" y2="1933"/>
  <g transform="matrix(1 0 0 1 776 1933)">
   <path d="M3.31055 0.15625Q3.70117 0.15625 3.91602-0.00976562Q4.13086-0.175781 4.26758-0.585938L5.52734-4.0332L11.2891-4.0332L12.5488-0.585938Q12.6855-0.175781 12.9004-0.00976562Q13.1152 0.15625 13.4961 0.15625Q13.8867 0.15625 14.1162-0.0585938Q14.3457-0.273438 14.3457-0.644531Q14.3457-0.869141 14.2383-1.17188L9.6582-13.3691Q9.48242-13.8184 9.17969-14.043Q8.87695-14.2676 8.4082-14.2676Q7.5-14.2676 7.17773-13.3789L2.59766-1.16211Q2.49023-0.859375 2.49023-0.634766Q2.49023-0.263672 2.70996-0.0537109Q2.92969 0.15625 3.31055 0.15625ZM6.00586-5.51758L8.37891-12.0898L8.42773-12.0898L10.8008-5.51758Z"/>
  </g>
  <line style="fill:none;stroke:#00AEEF;stroke-width:0.5;opacity:1.0;" x1="793.197" x2="793.197" y1="1919" y2="1933"/>
  <text style="stroke:none;fill:black;font-family:sans-serif;font-size:13;font-weight:bold;" transform="matrix(1 0 0 1 776 1953)">Margins</text>
  <text style="stroke:none;fill:black;font-family:sans-serif;font-size:13;" transform="matrix(1 0 0 1 776 1971)">Leading and trailing margins on the left and right side of each symbol</text>
  <text style="stroke:none;fill:black;font-family:sans-serif;font-size:13;" transform="matrix(1 0 0 1 776 1989)">can be adjusted by modifying the x-location of the margin guidelines.</text>
  <text style="stroke:none;fill:black;font-family:sans-serif;font-size:13;" transform="matrix(1 0 0 1 776 2007)">Modifications are automatically applied proportionally to all</text>
  <text style="stroke:none;fill:black;font-family:sans-serif;font-size:13;" transform="matrix(1 0 0 1 776 2025)">scales and weights.</text>
  <g transform="matrix(1 0 0 1 1289 1933)">
   <path d="M2.8418 1.86523L4.54102 3.57422Q5.18555 4.22852 5.90332 4.17969Q6.62109 4.13086 7.31445 3.35938L18.0078-8.42773L17.041-9.4043L6.42578 2.27539Q6.16211 2.57812 5.89355 2.61719Q5.625 2.65625 5.27344 2.30469L4.10156 1.14258Q3.75 0.791016 3.79395 0.522461Q3.83789 0.253906 4.14062-0.0195312L15.6152-10.8203L14.6387-11.7871L3.04688-0.898438Q2.30469-0.214844 2.25098 0.498047Q2.19727 1.21094 2.8418 1.86523ZM9.25781-16.3281Q8.94531-16.0254 8.90625-15.6348Q8.86719-15.2441 9.04297-14.9512Q9.21875-14.6777 9.55566-14.541Q9.89258-14.4043 10.3809-14.5215Q11.4746-14.7754 12.5977-14.7314Q13.7207-14.6875 14.7949-13.9844L14.209-12.5293Q13.9551-11.9043 14.0674-11.4404Q14.1797-10.9766 14.5801-10.5664L16.875-8.25195Q17.2363-7.88086 17.5781-7.82227Q17.9199-7.76367 18.3398-7.8418L19.4043-8.03711L20.0684-7.36328L20.0293-6.80664Q20-6.43555 20.1221-6.12305Q20.2441-5.81055 20.6055-5.44922L21.3672-4.70703Q21.7285-4.3457 22.1533-4.33105Q22.5781-4.31641 22.9297-4.66797L25.8398-7.58789Q26.1914-7.93945 26.1816-8.35449Q26.1719-8.76953 25.8105-9.13086L25.0391-9.89258Q24.6875-10.2539 24.3799-10.3857Q24.0723-10.5176 23.7109-10.4883L23.1348-10.4395L22.4902-11.0742L22.7344-12.1973Q22.832-12.6172 22.6953-12.9834Q22.5586-13.3496 22.1191-13.7891L19.9219-15.9766Q18.6719-17.2168 17.2607-17.8369Q15.8496-18.457 14.4189-18.4814Q12.9883-18.5059 11.665-17.959Q10.3418-17.4121 9.25781-16.3281ZM10.752-15.957Q11.6602-16.6211 12.7002-16.9043Q13.7402-17.1875 14.8047-17.085Q15.8691-16.9824 16.8701-16.5137Q17.8711-16.0449 18.7012-15.2051L21.1328-12.793Q21.3086-12.6172 21.3525-12.4512Q21.3965-12.2852 21.3379-12.0312L21.0156-10.5469L22.5195-9.0625L23.5059-9.12109Q23.6914-9.13086 23.7891-9.09668Q23.8867-9.0625 24.0332-8.91602L24.6094-8.33984L22.168-5.89844L21.5918-6.47461Q21.4453-6.62109 21.4062-6.71875Q21.3672-6.81641 21.377-7.01172L21.4453-7.98828L19.9512-9.47266L18.4277-9.21875Q18.1836-9.16992 18.042-9.2041Q17.9004-9.23828 17.7148-9.41406L15.7129-11.416Q15.5176-11.5918 15.4932-11.7529Q15.4688-11.9141 15.5859-12.1875L16.4648-14.2773Q15.293-15.3711 13.8281-15.791Q12.3633-16.2109 10.8398-15.7617Q10.7227-15.7324 10.6885-15.8057Q10.6543-15.8789 10.752-15.957Z"/>
  </g>
  <text style="stroke:none;fill:black;font-family:sans-serif;font-size:13;font-weight:bold;" transform="matrix(1 0 0 1 1289 1953)">Exporting</text>
  <text style="stroke:none;fill:black;font-family:sans-serif;font-size:13;" transform="matrix(1 0 0 1 1289 1971)">Symbols should be outlined when exporting to ensure the</text>
  <text style="stroke:none;fill:black;font-family:sans-serif;font-size:13;" transform="matrix(1 0 0 1 1289 1989)">design is preserved when submitting to Xcode.</text>
  <text id="template-version" style="stroke:none;fill:black;font-family:sans-serif;font-size:13;text-anchor:end;" transform="matrix(1 0 0 1 3036 1933)">Template v.3.0</text>
  <text style="stroke:none;fill:black;font-family:sans-serif;font-size:13;text-anchor:end;" transform="matrix(1 0 0 1 3036 1951)">Requires Xcode 13 or greater</text>
  <text id="descriptive-name" style="stroke:none;fill:black;font-family:sans-serif;font-size:13;text-anchor:end;" transform="matrix(1 0 0 1 3036 1969)">Generated from playpause</text>
  <text style="stroke:none;fill:black;font-family:sans-serif;font-size:13;text-anchor:end;" transform="matrix(1 0 0 1 3036 1987)">Typeset at 100 points</text>
  <text style="stroke:none;fill:black;font-family:sans-serif;font-size:13;" transform="matrix(1 0 0 1 263 726)">Small</text>
  <text style="stroke:none;fill:black;font-family:sans-serif;font-size:13;" transform="matrix(1 0 0 1 263 1156)">Medium</text>
  <text style="stroke:none;fill:black;font-family:sans-serif;font-size:13;" transform="matrix(1 0 0 1 263 1586)">Large</text>
 </g>
 <g id="Guides">
  <g id="H-reference" style="fill:#27AAE1;stroke:none;" transform="matrix(1 0 0 1 339 696)">
   <path d="M0.993347 0L3.6377 0L29.3282-67.1326L30.0301-67.1326L30.0301-70.459L28.1227-70.459ZM11.6882-24.4797L46.9818-24.4797L46.2311-26.7288L12.4382-26.7288ZM55.1193 0L57.7637 0L30.6381-70.459L29.4327-70.459L29.4327-67.1326Z"/>
  </g>
  <line id="Baseline-S" style="fill:none;stroke:#27AAE1;opacity:1;stroke-width:0.5;" x1="263" x2="3036" y1="696" y2="696"/>
  <line id="Capline-S" style="fill:none;stroke:#27AAE1;opacity:1;stroke-width:0.5;" x1="263" x2="3036" y1="625.541" y2="625.541"/>
  <g id="H-reference" style="fill:#27AAE1;stroke:none;" transform="matrix(1 0 0 1 339 1126)">
   <path d="M0.993347 0L3.6377 0L29.3282-67.1326L30.0301-67.1326L30.0301-70.459L28.1227-70.459ZM11.6882-24.4797L46.9818-24.4797L46.2311-26.7288L12.4382-26.7288ZM55.1193 0L57.7637 0L30.6381-70.459L29.4327-70.459L29.4327-67.1326Z"/>
  </g>
  <line id="Baseline-M" style="fill:none;stroke:#27AAE1;opacity:1;stroke-width:0.5;" x1="263" x2="3036" y1="1126" y2="1126"/>
  <line id="Capline-M" style="fill:none;stroke:#27AAE1;opacity:1;stroke-width:0.5;" x1="263" x2="3036" y1="1055.54" y2="1055.54"/>
  <g id="H-reference" style="fill:#27AAE1;stroke:none;" transform="matrix(1 0 0 1 339 1556)">
   <path d="M0.993347 0L3.6377 0L29.3282-67.1326L30.0301-67.1326L30.0301-70.459L28.1227-70.459ZM11.6882-24.4797L46.9818-24.4797L46.2311-26.7288L12.4382-26.7288ZM55.1193 0L57.7637 0L30.6381-70.459L29.4327-70.459L29.4327-67.1326Z"/>
  </g>
  <line id="Baseline-L" style="fill:none;stroke:#27AAE1;opacity:1;stroke-width:0.5;" x1="263" x2="3036" y1="1556" y2="1556"/>
  <line id="Capline-L" style="fill:none;stroke:#27AAE1;opacity:1;stroke-width:0.5;" x1="263" x2="3036" y1="1485.54" y2="1485.54"/>
  <line id="left-margin-Regular-M" style="fill:none;stroke:#00AEEF;stroke-width:0.5;opacity:1.0;" x1="1374.57" x2="1374.57" y1="1030.79" y2="1150.12"/>
  <line id="right-margin-Regular-M" style="fill:none;stroke:#00AEEF;stroke-width:0.5;opacity:1.0;" x1="1525.12" x2="1525.12" y1="1030.79" y2="1150.12"/>
 </g>
 <g id="Symbols">
  <g id="Black-L" transform="matrix(1 0 0 1 2820.12 1556)">
   <path d="M147.21 21.3325Q152.5 21.3325 155.924 17.9768Q159.349 14.6211 159.349 9.58572L159.349-80.0227Q159.349-85.0581 155.924-88.4138Q152.5-91.7694 147.21-91.7694Q141.921-91.7694 138.497-88.4138Q135.072-85.0581 135.072-80.0227L135.072 9.58572Q135.072 14.6211 138.497 17.9768Q141.921 21.3325 147.21 21.3325ZM198.361 21.3325Q203.63 21.3325 207.055 17.9768Q210.479 14.6211 210.479 9.58572L210.479-80.0227Q210.479-85.0581 207.055-88.4138Q203.63-91.7694 198.361-91.7694Q193.071-91.7694 189.647-88.4138Q186.222-85.0581 186.222-80.0227L186.222 9.58572Q186.222 14.6211 189.647 17.9768Q193.071 21.3325 198.361 21.3325ZM29.7314 19.3443Q32.3152 19.3443 34.7203 18.7125Q37.1255 18.0808 39.5709 16.6296L105.148-21.6649Q109.397-24.1092 112.085-27.3929Q114.774-30.6767 114.774-35.3073Q114.774-39.9379 112.144-43.0458Q109.515-46.1538 105.148-48.7356L39.5709-87.0094Q37.0659-88.4605 34.6321-89.0923Q32.1984-89.7241 29.6146-89.7241Q24.1014-89.7241 20.0927-85.7735Q16.084-81.823 16.084-74.5482L16.084 4.16843Q16.084 11.3849 20.1511 15.3646Q24.2182 19.3443 29.7314 19.3443ZM36.4059-4.15266Q36.129-4.15266 35.9498-4.34651Q35.7706-4.54035 35.7706-4.87921L35.7706-65.5005Q35.7706-65.8394 35.9498-66.0339Q36.129-66.2283 36.4644-66.2283Q36.674-66.2283 36.8446-66.1941Q37.0153-66.1599 37.2529-65.971L88.9332-35.9795Q89.3969-35.7354 89.3969-35.2489Q89.3969-34.76 88.9332-34.4587L37.2529-4.40873Q37.0749-4.27829 36.8452-4.21548Q36.6156-4.15266 36.4059-4.15266Z"/>
  </g>
  <g id="Heavy-L" transform="matrix(1 0 0 1 2527.36 1556)">
   <path d="M143.249 20.1903Q147.785 20.1903 150.748 17.2865Q153.712 14.3828 153.712 10.0555L153.712-80.4786Q153.712-84.8059 150.748-87.7097Q147.785-90.6135 143.249-90.6135Q138.718-90.6135 135.755-87.7097Q132.791-84.8059 132.791-80.4786L132.791 10.0555Q132.791 14.3828 135.755 17.2865Q138.718 20.1903 143.249 20.1903ZM192.151 20.1903Q196.656 20.1903 199.62 17.2865Q202.583 14.3828 202.583 10.0555L202.583-80.4786Q202.583-84.8059 199.62-87.7097Q196.656-90.6135 192.151-90.6135Q187.615-90.6135 184.651-87.7097Q181.688-84.8059 181.688-80.4786L181.688 10.0555Q181.688 14.3828 184.651 17.2865Q187.615 20.1903 192.151 20.1903ZM28.5909 18.0686Q30.9971 18.0686 33.2264 17.446Q35.4556 16.8234 37.7658 15.4533L103.054-22.747Q107.036-25.0517 109.435-28.0903Q111.833-31.1289 111.833-35.2842Q111.833-39.4393 109.482-42.3413Q107.131-45.2433 103.054-47.6673L37.7658-85.8374Q35.4053-87.2075 33.1566-87.8302Q30.9079-88.4528 28.5017-88.4528Q23.444-88.4528 19.764-84.8029Q16.084-81.1529 16.084-74.3888L16.084 4.0046Q16.084 10.7242 19.8086 14.3964Q23.5333 18.0686 28.5909 18.0686ZM34.2662-2.4464Q33.8983-2.4464 33.6242-2.70808Q33.3501-2.96977 33.3501-3.49342L33.3501-66.8907Q33.3501-67.4144 33.6242-67.6789Q33.8983-67.9434 34.3108-67.9434Q34.5657-67.9434 34.786-67.8841Q35.0063-67.8248 35.325-67.6001L89.0535-36.2382Q89.7582-35.8623 89.7582-35.2396Q89.7582-34.6055 89.0535-34.1906L35.325-2.78409Q35.0565-2.60397 34.7888-2.52519Q34.5211-2.4464 34.2662-2.4464Z"/>
  </g>
  <g id="Bold-L" transform="matrix(1 0 0 1 2235.32 1556)">
   <path d="M138.48 18.7466Q142.109 18.7466 144.511 16.3926Q146.913 14.0385 146.913 10.5649L146.913-80.9726Q146.913-84.4463 144.511-86.8003Q142.109-89.1544 138.48-89.1544Q134.865-89.1544 132.463-86.8003Q130.061-84.4463 130.061-80.9726L130.061 10.5649Q130.061 14.0385 132.463 16.3926Q134.865 18.7466 138.48 18.7466ZM184.839 18.7466Q188.429 18.7466 190.832 16.3926Q193.234 14.0385 193.234 10.5649L193.234-80.9726Q193.234-84.4463 190.832-86.8003Q188.429-89.1544 184.839-89.1544Q181.211-89.1544 178.808-86.8003Q176.406-84.4463 176.406-80.9726L176.406 10.5649Q176.406 14.0385 178.808 16.3926Q181.211 18.7466 184.839 18.7466ZM27.192 16.4783Q29.3754 16.4783 31.3932 15.8672Q33.411 15.2562 35.5298 14.001L100.561-24.1288Q104.169-26.2346 106.217-28.9548Q108.266-31.675 108.266-35.261Q108.266-38.8469 106.253-41.4729Q104.24-44.0989 100.561-46.3009L35.5298-84.3926Q33.3684-85.6478 31.3427-86.259Q29.317-86.8702 27.1336-86.8702Q22.6445-86.8702 19.3642-83.5966Q16.084-80.323 16.084-74.1891L16.084 3.79723Q16.084 9.90213 19.3935 13.1902Q22.7029 16.4783 27.192 16.4783ZM31.6451-0.355696Q31.1619-0.355696 30.7576-0.709331Q30.3533-1.06297 30.3533-1.84684L30.3533-68.5448Q30.3533-69.3289 30.7576-69.6891Q31.1619-70.0493 31.6743-70.0493Q31.9905-70.0493 32.2797-69.9593Q32.5688-69.8692 33.0025-69.5911L89.2443-36.5757Q90.2561-36.0309 90.2561-35.2318Q90.2561-34.406 89.2443-33.8452L33.0025-0.800757Q32.6114-0.551664 32.2863-0.45368Q31.9613-0.355696 31.6451-0.355696Z"/>
  </g>
  <g id="Semibold-L" transform="matrix(1 0 0 1 1941.83 1556)">
   <path d="M135.193 17.7514Q138.196 17.7514 140.211 15.7763Q142.226 13.8012 142.226 10.916L142.226-81.3132Q142.226-84.1983 140.211-86.1734Q138.196-88.1485 135.193-88.1485Q132.209-88.1485 130.193-86.1734Q128.178-84.1983 128.178-81.3132L128.178 10.916Q128.178 13.8012 130.193 15.7763Q132.209 17.7514 135.193 17.7514ZM179.798 17.7514Q182.758 17.7514 184.773 15.7763Q186.789 13.8012 186.789 10.916L186.789-81.3132Q186.789-84.1983 184.773-86.1734Q182.758-88.1485 179.798-88.1485Q176.796-88.1485 174.78-86.1734Q172.765-84.1983 172.765-81.3132L172.765 10.916Q172.765 13.8012 174.78 15.7763Q176.796 17.7514 179.798 17.7514ZM26.2276 15.382Q28.2574 15.382 30.1294 14.7789Q32.0014 14.1757 33.9883 12.9997L98.8424-25.0814Q102.192-27.05 103.999-29.5507Q105.806-32.0514 105.806-35.2451Q105.806-38.4384 104.027-40.8742Q102.247-43.31 98.8424-45.359L33.9883-83.3966Q31.9642-84.5726 30.0922-85.1759Q28.2203-85.7792 26.1905-85.7792Q22.0933-85.7792 19.0887-82.765Q16.084-79.7509 16.084-74.0515L16.084 3.65427Q16.084 9.33541 19.1072 12.3587Q22.1305 15.382 26.2276 15.382ZM29.8381 1.08562Q29.2755 1.08562 28.7814 0.668598Q28.2873 0.251576 28.2873-0.711697L28.2873-69.6852Q28.2873-70.6488 28.7814-71.075Q29.2755-71.5011 29.8567-71.5011Q30.2151-71.5011 30.5518-71.3899Q30.8885-71.2786 31.4013-70.9637L89.3758-36.8084Q90.5993-36.1472 90.5993-35.2265Q90.5993-34.2685 89.3758-33.6071L31.4013 0.566541Q30.9257 0.863186 30.5611 0.974403Q30.1965 1.08562 29.8381 1.08562Z"/>
  </g>
  <g id="Medium-L" transform="matrix(1 0 0 1 1647.56 1556)">
   <path d="M132.701 16.9967Q135.229 16.9967 136.951 15.309Q138.673 13.6212 138.673 11.1823L138.673-81.5714Q138.673-84.0103 136.951-85.6981Q135.229-87.3858 132.701-87.3858Q130.195-87.3858 128.473-85.6981Q126.751-84.0103 126.751-81.5714L126.751 11.1823Q126.751 13.6212 128.473 15.309Q130.195 16.9967 132.701 16.9967ZM175.976 16.9967Q178.457 16.9967 180.179 15.309Q181.901 13.6212 181.901 11.1823L181.901-81.5714Q181.901-84.0103 180.179-85.6981Q178.457-87.3858 175.976-87.3858Q173.448-87.3858 171.726-85.6981Q170.004-84.0103 170.004-81.5714L170.004 11.1823Q170.004 13.6212 171.726 15.309Q173.448 16.9967 175.976 16.9967ZM25.4963 14.5507Q27.4097 14.5507 29.1712 13.9536Q30.9326 13.3565 32.8195 12.2405L97.5394-25.8037Q100.692-27.6683 102.317-30.0026Q103.941-32.3368 103.941-35.233Q103.941-38.1287 102.339-40.4203Q100.736-42.7118 97.5394-44.6447L32.8195-82.6414Q30.8995-83.7573 29.1441-84.3546Q27.3887-84.9519 25.4753-84.9519Q21.6754-84.9519 18.8797-82.1345Q16.084-79.317 16.084-73.9471L16.084 3.54587Q16.084 8.9057 18.8902 11.7282Q21.6964 14.5507 25.4963 14.5507ZM28.468 2.17849Q27.8451 2.17849 27.283 1.7134Q26.7208 1.24832 26.7208 0.149014L26.7208-70.5498Q26.7208-71.6495 27.283-72.1257Q27.8451-72.602 28.4785-72.602Q28.869-72.602 29.2417-72.4746Q29.6144-72.3473 30.1873-72.0045L89.4756-36.9848Q90.8596-36.2354 90.8596-35.2224Q90.8596-34.1642 89.4756-33.4266L30.1873 1.60328Q29.6476 1.93599 29.253 2.05724Q28.8585 2.17849 28.468 2.17849Z"/>
  </g>
  <g id="Regular-L" transform="matrix(1 0 0 1 1354.04 1556)">
   <path d="M129.45 16.0124Q131.359 16.0124 132.698 14.6995Q134.037 13.3865 134.037 11.5296L134.037-81.9082Q134.037-83.7651 132.698-85.078Q131.359-86.391 129.45-86.391Q127.568-86.391 126.228-85.078Q124.889-83.7651 124.889-81.9082L124.889 11.5296Q124.889 13.3865 126.228 14.6995Q127.568 16.0124 129.45 16.0124ZM170.991 16.0124Q172.848 16.0124 174.187 14.6995Q175.527 13.3865 175.527 11.5296L175.527-81.9082Q175.527-83.7651 174.187-85.078Q172.848-86.391 170.991-86.391Q169.082-86.391 167.742-85.078Q166.403-83.7651 166.403-81.9082L166.403 11.5296Q166.403 13.3865 167.742 14.6995Q169.082 16.0124 170.991 16.0124ZM24.5425 13.4664Q26.304 13.4664 27.9213 12.8772Q29.5386 12.288 31.295 11.2503L95.8398-26.7459Q98.7371-28.4748 100.123-30.592Q101.509-32.7091 101.509-35.2172Q101.509-37.7247 100.137-39.8282Q98.7645-41.9316 95.8398-43.7131L31.295-81.6563Q29.5107-82.6939 27.9073-83.2834Q26.304-83.8728 24.5425-83.8728Q21.1303-83.8728 18.6071-81.312Q16.084-78.7512 16.084-73.8109L16.084 3.40448Q16.084 8.34521 18.6071 10.9058Q21.1303 13.4664 24.5425 13.4664ZM26.6808 3.60396Q25.9794 3.60396 25.3285 3.07619Q24.6776 2.54841 24.6776 1.27168L24.6776-71.6777Q24.6776-72.9549 25.3285-73.4963Q25.9794-74.0378 26.6808-74.0378Q27.1131-74.0378 27.5328-73.8895Q27.9525-73.7413 28.6037-73.362L89.6057-37.2149Q91.1991-36.3504 91.1991-35.2172Q91.1991-34.0282 89.6057-33.1911L28.6037 2.95556Q27.9804 3.33529 27.5468 3.46963Q27.1131 3.60396 26.6808 3.60396Z"/>
  </g>
  <g id="Light-L" transform="matrix(1 0 0 1 1059.17 1556)">
   <path d="M127.045 14.8292Q128.496 14.8292 129.511 13.8311Q130.526 12.8331 130.526 11.4152L130.526-81.7937Q130.526-83.2116 129.511-84.2097Q128.496-85.2078 127.045-85.2078Q125.64-85.2078 124.625-84.2097Q123.61-83.2116 123.61-81.7937L123.61 11.4152Q123.61 12.8331 124.625 13.8311Q125.64 14.8292 127.045 14.8292ZM168.395 14.8292Q169.813 14.8292 170.828 13.8311Q171.843 12.8331 171.843 11.4152L171.843-81.7937Q171.843-83.2116 170.828-84.2097Q169.813-85.2078 168.395-85.2078Q166.944-85.2078 165.929-84.2097Q164.914-83.2116 164.914-81.7937L164.914 11.4152Q164.914 12.8331 165.929 13.8311Q166.944 14.8292 168.395 14.8292ZM23.6646 12.3021Q25.2542 12.3021 26.7666 11.7225Q28.279 11.1429 29.7491 10.2771L94.7711-27.9672Q97.1149-29.391 98.3194-31.1932Q99.5239-32.9955 99.5239-35.2364Q99.5239-37.4766 98.3426-39.2556Q97.1612-41.0347 94.7711-42.4917L29.7491-80.702Q28.2319-81.5678 26.743-82.1478Q25.2542-82.7278 23.6646-82.7278Q20.6724-82.7278 18.3782-80.4531Q16.084-78.1785 16.084-73.6583L16.084 3.23261Q16.084 7.7536 18.3782 10.0278Q20.6724 12.3021 23.6646 12.3021ZM25.0587 4.90166Q24.2617 4.90166 23.439 4.25941Q22.6164 3.61716 22.6164 1.95885L22.6164-72.3837Q22.6164-74.0428 23.439-74.7083Q24.2617-75.3737 25.0587-75.3737Q25.5672-75.3737 26.0823-75.2063Q26.5974-75.039 27.4205-74.5645L90.0065-37.5583Q91.867-36.5412 91.867-35.2364Q91.867-33.8374 90.0065-32.8666L27.4205 4.13878Q26.6446 4.61406 26.1059 4.75786Q25.5672 4.90166 25.0587 4.90166Z"/>
  </g>
  <g id="Thin-L" transform="matrix(1 0 0 1 764.894 1556)">
   <path d="M123.865 13.2643Q124.71 13.2643 125.295 12.6827Q125.881 12.1011 125.881 11.2638L125.881-81.6423Q125.881-82.4797 125.295-83.0613Q124.71-83.6429 123.865-83.6429Q123.091-83.6429 122.505-83.0613Q121.919-82.4797 121.919-81.6423L121.919 11.2638Q121.919 12.1011 122.505 12.6827Q123.091 13.2643 123.865 13.2643ZM164.962 13.2643Q165.8 13.2643 166.386 12.6827Q166.972 12.1011 166.972 11.2638L166.972-81.6423Q166.972-82.4797 166.386-83.0613Q165.8-83.6429 164.962-83.6429Q164.117-83.6429 163.531-83.0613Q162.945-82.4797 162.945-81.6423L162.945 11.2638Q162.945 12.1011 163.531 12.6827Q164.117 13.2643 164.962 13.2643ZM22.5034 10.7622Q23.8657 10.7622 25.2394 10.1953Q26.6132 9.62847 27.7045 8.99L93.3575-29.5826Q94.9694-30.6026 95.9341-31.9884Q96.8988-33.3742 96.8988-35.2618Q96.8988-37.1483 95.9698-38.4984Q95.0408-39.8485 93.3575-40.8764L27.7045-79.4399Q26.5406-80.0784 25.2031-80.6459Q23.8657-81.2133 22.5034-81.2133Q20.0668-81.2133 18.0754-79.3172Q16.084-77.4211 16.084-73.4564L16.084 3.00529Q16.084 6.97115 18.0754 8.86668Q20.0668 10.7622 22.5034 10.7622ZM22.9132 6.61796Q21.9898 6.61796 20.9401 5.82431Q19.8903 5.03066 19.8903 2.86768L19.8903-73.3176Q19.8903-75.4818 20.9401-76.3111Q21.9898-77.1404 22.9132-77.1404Q23.5227-77.1404 24.164-76.9479Q24.8052-76.7553 25.8556-76.1548L90.5366-38.0125Q92.7504-36.7935 92.7504-35.2618Q92.7504-33.5851 90.5366-32.4374L25.8556 5.70368Q24.8778 6.30535 24.2002 6.46165Q23.5227 6.61796 22.9132 6.61796Z"/>
  </g>
  <g id="Ultralight-L" transform="matrix(1 0 0 1 469.431 1556)">
   <path d="M122.236 12.4628Q122.771 12.4628 123.136 12.0945Q123.502 11.7262 123.502 11.1862L123.502-81.5648Q123.502-82.1047 123.136-82.473Q122.771-82.8413 122.236-82.8413Q121.785-82.8413 121.419-82.473Q121.052-82.1047 121.052-81.5648L121.052 11.1862Q121.052 11.7262 121.419 12.0945Q121.785 12.4628 122.236 12.4628ZM163.204 12.4628Q163.744 12.4628 164.11 12.0945Q164.477 11.7262 164.477 11.1862L164.477-81.5648Q164.477-82.1047 164.11-82.473Q163.744-82.8413 163.204-82.8413Q162.669-82.8413 162.303-82.473Q161.936-82.1047 161.936-81.5648L161.936 11.1862Q161.936 11.7262 162.303 12.0945Q162.669 12.4628 163.204 12.4628ZM21.9087 9.97349Q23.1545 9.97349 24.4572 9.41314Q25.76 8.85279 26.6573 8.33074L92.6336-30.41Q93.8705-31.2232 94.7124-32.3957Q95.5542-33.5681 95.5542-35.2749Q95.5542-36.9802 94.7544-38.1106Q93.9547-39.241 92.6336-40.049L26.6573-78.7935Q25.6744-79.3155 24.4144-79.8766Q23.1545-80.4376 21.9087-80.4376Q19.7566-80.4376 17.9203-78.7354Q16.084-77.0331 16.084-73.353L16.084 2.88886Q16.084 6.57038 17.9203 8.27193Q19.7566 9.97349 21.9087 9.97349ZM21.8143 7.49704Q20.8262 7.49704 19.6601 6.62585Q18.4941 5.75465 18.4941 3.33318L18.4941-73.7959Q18.4941-76.2188 19.6601-77.1321Q20.8262-78.0454 21.8143-78.0454Q22.4755-78.0454 23.1814-77.8399Q23.8873-77.6343 25.054-76.9694L90.8081-38.2452Q93.2028-36.9227 93.2028-35.2749Q93.2028-33.4558 90.8081-32.2176L25.054 6.50522Q23.9729 7.17161 23.2242 7.33433Q22.4755 7.49704 21.8143 7.49704Z"/>
  </g>
  <g id="Black-M" transform="matrix(1 0 0 1 2842.49 1126)">
   <path d="M117.128 9.41276Q121.812 9.41276 124.818 6.46724Q127.823 3.52172 127.823-0.928478L127.823-69.5253Q127.823-73.9755 124.818-76.921Q121.812-79.8665 117.128-79.8665Q112.444-79.8665 109.438-76.921Q106.433-73.9755 106.433-69.5253L106.433-0.928478Q106.433 3.52172 109.438 6.46724Q112.444 9.41276 117.128 9.41276ZM158.665 9.41276Q163.343 9.41276 166.349 6.46724Q169.354 3.52172 169.354-0.928478L169.354-69.5253Q169.354-73.9755 166.349-76.921Q163.343-79.8665 158.665-79.8665Q153.981-79.8665 150.975-76.921Q147.97-73.9755 147.97-69.5253L147.97-0.928478Q147.97 3.52172 150.975 6.46724Q153.981 9.41276 158.665 9.41276ZM23.8954 7.9897Q26.0265 7.9897 28.0268 7.49372Q30.0271 6.99774 31.9991 5.82703L83.1177-23.9559Q86.5629-25.9282 88.8706-28.6403Q91.1783-31.3524 91.1783-35.3122Q91.1783-39.2721 88.9276-41.813Q86.6768-44.354 83.1177-46.4459L31.9991-76.2234Q29.9703-77.3941 27.9413-77.8901Q25.9123-78.3861 23.7812-78.3861Q19.1752-78.3861 15.8181-75.1059Q12.4609-71.8258 12.4609-65.8076L12.4609-4.58876Q12.4609 1.37228 15.8752 4.68099Q19.2894 7.9897 23.8954 7.9897ZM29.8244-12.4436Q29.6752-12.4436 29.5946-12.5509Q29.514-12.6583 29.514-12.8137L29.514-57.5827Q29.514-57.7381 29.5946-57.8453Q29.6752-57.9526 29.8815-57.9526Q30.0154-57.9526 30.1178-57.945Q30.2203-57.9375 30.358-57.8091L68.8512-35.6348Q69.0395-35.5383 69.0395-35.2552Q69.0395-34.9726 68.8512-34.8187L30.358-12.5873Q30.2771-12.516 30.1177-12.4798Q29.9583-12.4436 29.8244-12.4436Z"/>
  </g>
  <g id="Heavy-M" transform="matrix(1 0 0 1 2549.47 1126)">
   <path d="M113.478 8.40534Q117.467 8.40534 120.052 5.87256Q122.636 3.33977 122.636-0.458723L122.636-69.9816Q122.636-73.7801 120.052-76.3129Q117.467-78.8456 113.478-78.8456Q109.491-78.8456 106.906-76.3129Q104.321-73.7801 104.321-69.9816L104.321-0.458723Q104.321 3.33977 106.906 5.87256Q109.491 8.40534 113.478 8.40534ZM152.833 8.40534Q156.806 8.40534 159.39 5.87256Q161.975 3.33977 161.975-0.458723L161.975-69.9816Q161.975-73.7801 159.39-76.3129Q156.806-78.8456 152.833-78.8456Q148.843-78.8456 146.259-76.3129Q143.674-73.7801 143.674-69.9816L143.674-0.458723Q143.674 3.33977 146.259 5.87256Q148.843 8.40534 152.833 8.40534ZM22.8615 6.85006Q24.8348 6.85006 26.6729 6.36211Q28.5109 5.87416 30.3772 4.7669L81.1689-24.9011Q84.4052-26.7651 86.4461-29.2666Q88.4869-31.7681 88.4869-35.2879Q88.4869-38.8076 86.4908-41.1771Q84.4947-43.5467 81.1689-45.5143L30.3772-75.1658Q28.465-76.2731 26.6063-76.7611Q24.7476-77.249 22.7742-77.249Q18.5749-77.249 15.5179-74.2363Q12.4609-71.2235 12.4609-65.6659L12.4609-4.73306Q12.4609 0.780986 15.5615 3.81552Q18.6621 6.85006 22.8615 6.85006ZM27.8823-10.8953Q27.6529-10.8953 27.4954-11.0584Q27.3379-11.2216 27.3379-11.5224L27.3379-58.8765Q27.3379-59.1774 27.4954-59.3417Q27.6529-59.5059 27.9259-59.5059Q28.097-59.5059 28.2392-59.4756Q28.3814-59.4453 28.5825-59.2907L68.9318-35.856Q69.3311-35.6447 69.3311-35.2443Q69.3311-34.8392 68.9318-34.5866L28.5825-11.1083Q28.4273-10.9972 28.2403-10.9463Q28.0534-10.8953 27.8823-10.8953Z"/>
  </g>
  <g id="Bold-M" transform="matrix(1 0 0 1 2256.89 1126)">
   <path d="M109.394 7.27839Q112.606 7.27839 114.72 5.20732Q116.834 3.13624 116.834 0.0667648L116.834-70.492Q116.834-73.5615 114.72-75.6325Q112.606-77.7036 109.394-77.7036Q106.187-77.7036 104.073-75.6325Q101.959-73.5615 101.959-70.492L101.959 0.0667648Q101.959 3.13624 104.073 5.20732Q106.187 7.27839 109.394 7.27839ZM146.309 7.27839Q149.493 7.27839 151.607 5.20732Q153.721 3.13624 153.721 0.0667648L153.721-70.492Q153.721-73.5615 151.607-75.6325Q149.493-77.7036 146.309-77.7036Q143.097-77.7036 140.983-75.6325Q138.869-73.5615 138.869-70.492L138.869 0.0667648Q138.869 3.13624 140.983 5.20732Q143.097 7.27839 146.309 7.27839ZM21.7049 5.57521Q23.5018 5.57521 25.1583 5.09624Q26.8148 4.61727 28.5628 3.58098L78.9889-25.9584Q81.9916-27.7013 83.7339-29.9672Q85.4762-32.233 85.4762-35.2606Q85.4762-38.2881 83.765-40.4658Q82.0537-42.6435 78.9889-44.472L28.5628-73.9828Q26.7811-75.019 25.1129-75.4981Q23.4447-75.9771 21.6478-75.9771Q17.9033-75.9771 15.1821-73.2635Q12.4609-70.5499 12.4609-65.5074L12.4609-4.89448Q12.4609 0.119534 15.2107 2.84737Q17.9604 5.57521 21.7049 5.57521ZM25.7098-9.16332Q25.3907-9.16332 25.1472-9.38884Q24.9036-9.61436 24.9036-10.0779L24.9036-60.3239Q24.9036-60.7875 25.1472-61.0156Q25.3907-61.2436 25.7383-61.2436Q25.951-61.2436 26.1376-61.1879Q26.3242-61.1321 26.5964-60.9481L69.022-36.1034Q69.6573-35.7637 69.6573-35.2321Q69.6573-34.6901 69.022-34.3269L26.5964-9.45375Q26.358-9.29823 26.1402-9.23077Q25.9224-9.16332 25.7098-9.16332Z"/>
  </g>
  <g id="Semibold-M" transform="matrix(1 0 0 1 1963.02 1126)">
   <path d="M106.579 6.50148Q109.256 6.50148 111.045 4.74871Q112.834 2.99593 112.834 0.429033L112.834-70.8439Q112.834-73.4108 111.045-75.1635Q109.256-76.9163 106.579-76.9163Q103.91-76.9163 102.12-75.1635Q100.331-73.4108 100.331-70.8439L100.331 0.429033Q100.331 2.99593 102.12 4.74871Q103.91 6.50148 106.579 6.50148ZM141.811 6.50148Q144.451 6.50148 146.24 4.74871Q148.03 2.99593 148.03 0.429033L148.03-70.8439Q148.03-73.4108 146.24-75.1635Q144.451-76.9163 141.811-76.9163Q139.135-76.9163 137.345-75.1635Q135.556-73.4108 135.556-70.8439L135.556 0.429033Q135.556 2.99593 137.345 4.74871Q139.135 6.50148 141.811 6.50148ZM20.9076 4.69634Q22.5828 4.69634 24.1142 4.22356Q25.6455 3.75078 27.3119 2.76342L77.4861-26.6873Q80.3276-28.3467 81.8641-30.4501Q83.4007-32.5536 83.4007-35.2418Q83.4007-37.9299 81.8858-39.9754Q80.3709-42.0209 77.4861-43.7535L27.3119-73.1671Q25.6202-74.1545 24.0833-74.6273Q22.5465-75.1002 20.8713-75.1002Q17.4404-75.1002 14.9506-72.5928Q12.4609-70.0854 12.4609-65.3981L12.4609-5.00576Q12.4609-0.336467 14.9688 2.17994Q17.4767 4.69634 20.9076 4.69634ZM24.2121-7.96931Q23.8311-7.96931 23.5283-8.23783Q23.2255-8.50635 23.2255-9.08207L23.2255-61.3217Q23.2255-61.8975 23.5283-62.1695Q23.8311-62.4416 24.2302-62.4416Q24.4715-62.4416 24.6888-62.3683Q24.9061-62.2949 25.2271-62.0907L69.0842-36.274Q69.8822-35.8458 69.8822-35.2237Q69.8822-34.5872 69.0842-34.1479L25.2271-8.31313Q24.9314-8.12696 24.6924-8.04813Q24.4534-7.96931 24.2121-7.96931Z"/>
  </g>
  <g id="Medium-M" transform="matrix(1 0 0 1 1668.47 1126)">
   <path d="M104.445 5.91239Q106.715 5.91239 108.258 4.40097Q109.802 2.88954 109.802 0.70372L109.802-71.1107Q109.802-73.2965 108.258-74.8079Q106.715-76.3193 104.445-76.3193Q102.183-76.3193 100.639-74.8079Q99.0958-73.2965 99.0958-71.1107L99.0958 0.70372Q99.0958 2.88954 100.639 4.40097Q102.183 5.91239 104.445 5.91239ZM138.401 5.91239Q140.628 5.91239 142.172 4.40097Q143.715 2.88954 143.715 0.70372L143.715-71.1107Q143.715-73.2965 142.172-74.8079Q140.628-76.3193 138.401-76.3193Q136.131-76.3193 134.587-74.8079Q133.044-73.2965 133.044-71.1107L133.044 0.70372Q133.044 2.88954 134.587 4.40097Q136.131 5.91239 138.401 5.91239ZM20.303 4.02994Q21.8859 4.02994 23.3224 3.56185Q24.7589 3.09376 26.3635 2.14351L76.3465-27.24Q79.0659-28.836 80.4464-30.8163Q81.8269-32.7966 81.8269-35.2276Q81.8269-37.6583 80.4609-39.6036Q79.095-41.5488 76.3465-43.2087L26.3635-72.5487Q24.74-73.499 23.3027-73.9671Q21.8654-74.4353 20.2825-74.4353Q17.0893-74.4353 14.7751-72.0843Q12.4609-69.7333 12.4609-65.3152L12.4609-5.09013Q12.4609-0.682226 14.7854 1.67386Q17.1099 4.02994 20.303 4.02994ZM23.0764-7.06396Q22.6486-7.06396 22.3008-7.36509Q21.953-7.66622 21.953-8.32698L21.953-62.0782Q21.953-62.7391 22.3008-63.0445Q22.6486-63.3499 23.0867-63.3499Q23.3498-63.3499 23.5903-63.2633Q23.8308-63.1766 24.1889-62.9571L69.1314-36.4033Q70.0527-35.908 70.0527-35.2173Q70.0527-34.5092 69.1314-34.0122L24.1889-7.44827Q23.8497-7.23885 23.5946-7.15141Q23.3395-7.06396 23.0764-7.06396Z"/>
  </g>
  <g id="Regular-M" transform="matrix(1 0 0 1 1374.57 1126)">
   <path d="M101.66 5.14402Q103.401 5.14402 104.623 3.94739Q105.846 2.75077 105.846 1.06201L105.846-71.4587Q105.846-73.1474 104.623-74.3441Q103.401-75.5407 101.66-75.5407Q99.9303-75.5407 98.7078-74.3441Q97.4852-73.1474 97.4852-71.4587L97.4852 1.06201Q97.4852 2.75077 98.7078 3.94739Q99.9303 5.14402 101.66 5.14402ZM133.953 5.14402Q135.642 5.14402 136.864 3.94739Q138.087 2.75077 138.087 1.06201L138.087-71.4587Q138.087-73.1474 136.864-74.3441Q135.642-75.5407 133.953-75.5407Q132.213-75.5407 130.99-74.3441Q129.768-73.1474 129.768-71.4587L129.768 1.06201Q129.768 2.75077 130.99 3.94739Q132.213 5.14402 133.953 5.14402ZM19.5144 3.16073Q20.977 3.16073 22.2898 2.69876Q23.6025 2.23679 25.1264 1.33493L74.8601-27.9609Q77.4202-29.4743 78.5972-31.294Q79.7742-33.1137 79.7742-35.209Q79.7742-37.3041 78.6024-39.1185Q77.4306-40.933 74.8601-42.4981L25.1264-71.7421Q23.5919-72.6439 22.2845-73.106Q20.977-73.568 19.5144-73.568Q16.6314-73.568 14.5462-71.421Q12.4609-69.2739 12.4609-65.2071L12.4609-5.20019Q12.4609-1.13322 14.5462 1.01376Q16.6314 3.16073 19.5144 3.16073ZM21.5952-5.88308Q21.1062-5.88308 20.6998-6.22673Q20.2933-6.57039 20.2933-7.34208L20.2933-63.0651Q20.2933-63.8369 20.6998-64.1858Q21.1062-64.5347 21.5952-64.5347Q21.8866-64.5347 22.1574-64.4307Q22.4282-64.3267 22.8347-64.0871L69.1929-36.572Q70.2751-35.9892 70.2751-35.209Q70.2751-34.4075 69.1929-33.8352L22.8347-6.32019Q22.4388-6.08045 22.1627-5.98176Q21.8866-5.88308 21.5952-5.88308Z"/>
  </g>
  <g id="Light-M" transform="matrix(1 0 0 1 1079.51 1126)">
   <path d="M99.5045 4.0832Q100.834 4.0832 101.766 3.16889Q102.697 2.25457 102.697 0.959376L102.697-71.3561Q102.697-72.6513 101.766-73.5656Q100.834-74.4799 99.5045-74.4799Q98.2023-74.4799 97.2705-73.5656Q96.3387-72.6513 96.3387-71.3561L96.3387 0.959376Q96.3387 2.25457 97.2705 3.16889Q98.2023 4.0832 99.5045 4.0832ZM131.626 4.0832Q132.921 4.0832 133.853 3.16889Q134.785 2.25457 134.785 0.959376L134.785-71.3561Q134.785-72.6513 133.853-73.5656Q132.921-74.4799 131.626-74.4799Q130.296-74.4799 129.365-73.5656Q128.433-72.6513 128.433-71.3561L128.433 0.959376Q128.433 2.25457 129.365 3.16889Q130.296 4.0832 131.626 4.0832ZM18.7273 2.11687Q20.0358 2.11687 21.2545 1.66353Q22.4733 1.21019 23.7405 0.462419L73.9019-29.0559Q75.9658-30.2957 76.9802-31.833Q77.9947-33.3704 77.9947-35.2262Q77.9947-37.0816 76.9939-38.6052Q75.9932-40.1289 73.9019-41.4031L23.7405-70.8865Q22.4454-71.6343 21.2406-72.0879Q20.0358-72.5414 18.7273-72.5414Q16.2209-72.5414 14.3409-70.651Q12.4609-68.7605 12.4609-65.0703L12.4609-5.35428Q12.4609-1.66362 14.3409 0.226623Q16.2209 2.11687 18.7273 2.11687ZM20.1408-4.71963Q19.5662-4.71963 19.0058-5.16591Q18.4454-5.6122 18.4454-6.726L18.4454-63.6981Q18.4454-64.8124 19.0058-65.2724Q19.5662-65.7324 20.1408-65.7324Q20.5006-65.7324 20.857-65.6112Q21.2133-65.4901 21.7739-65.1652L69.5522-36.8799Q70.8739-36.1602 70.8739-35.2262Q70.8739-34.2365 69.5522-33.5442L21.7739-5.25937Q21.2412-4.93396 20.8709-4.82679Q20.5006-4.71963 20.1408-4.71963Z"/>
  </g>
  <g id="Thin-M" transform="matrix(1 0 0 1 784.983 1126)">
   <path d="M96.6532 2.68018Q97.4395 2.68018 97.9862 2.13925Q98.5329 1.59831 98.5329 0.823637L98.5329-71.2203Q98.5329-71.995 97.9862-72.5359Q97.4395-73.0769 96.6532-73.0769Q95.9167-73.0769 95.3696-72.5359Q94.8224-71.995 94.8224-71.2203L94.8224 0.823637Q94.8224 1.59831 95.3696 2.13925Q95.9167 2.68018 96.6532 2.68018ZM128.548 2.68018Q129.323 2.68018 129.87 2.13925Q130.417 1.59831 130.417 0.823637L130.417-71.2203Q130.417-71.995 129.87-72.5359Q129.323-73.0769 128.548-73.0769Q127.762-73.0769 127.215-72.5359Q126.667-71.995 126.667-71.2203L126.667 0.823637Q126.667 1.59831 127.215 2.13925Q127.762 2.68018 128.548 2.68018ZM17.6863 0.736287Q18.791 0.736287 19.8854 0.294351Q20.9798-0.147585 21.9074-0.691553L72.6347-30.5042Q74.0423-31.382 74.8417-32.546Q75.6411-33.7099 75.6411-35.249Q75.6411-36.7873 74.8666-37.9264Q74.0921-39.0654 72.6347-39.9548L21.9074-69.755Q20.9291-70.2989 19.86-70.7413Q18.791-71.1837 17.6863-71.1837Q15.6779-71.1837 14.0694-69.6325Q12.4609-68.0814 12.4609-64.8893L12.4609-5.55808Q12.4609-2.36513 14.0694-0.814423Q15.6779 0.736287 17.6863 0.736287ZM18.2173-3.18087Q17.5293-3.18087 16.7653-3.7629Q16.0013-4.34493 16.0013-5.91119L16.0013-64.5353Q16.0013-66.1025 16.7653-66.7094Q17.5293-67.3164 18.2173-67.3164Q18.6676-67.3164 19.137-67.1726Q19.6065-67.0289 20.3709-66.591L70.0275-37.2871Q71.6659-36.3865 71.6659-35.249Q71.6659-34.0102 70.0275-33.1594L20.3709-3.85636Q19.6572-3.41764 19.1624-3.29925Q18.6676-3.18087 18.2173-3.18087Z"/>
  </g>
  <g id="Ultralight-M" transform="matrix(1 0 0 1 489.391 1126)">
   <path d="M95.1928 1.96156Q95.7007 1.96156 96.0504 1.61187Q96.4001 1.26218 96.4001 0.754112L96.4001-71.1508Q96.4001-71.6589 96.0504-72.0085Q95.7007-72.3582 95.1928-72.3582Q94.7461-72.3582 94.3959-72.0085Q94.0458-71.6589 94.0458-71.1508L94.0458 0.754112Q94.0458 1.26218 94.3959 1.61187Q94.7461 1.96156 95.1928 1.96156ZM126.972 1.96156Q127.48 1.96156 127.83 1.61187Q128.18 1.26218 128.18 0.754112L128.18-71.1508Q128.18-71.6589 127.83-72.0085Q127.48-72.3582 126.972-72.3582Q126.464-72.3582 126.113-72.0085Q125.763-71.6589 125.763-71.1508L125.763 0.754112Q125.763 1.26218 126.113 1.61187Q126.464 1.96156 126.972 1.96156ZM17.153 0.0291586Q18.1534 0.0291586 19.1841-0.406935Q20.2148-0.843028 20.9685-1.28261L71.9856-31.246Q73.057-31.9384 73.7463-32.9111Q74.4356-33.8838 74.4356-35.2607Q74.4356-36.6366 73.777-37.5786Q73.1184-38.5207 71.9856-39.213L20.9685-69.1754Q20.1524-69.615 19.1529-70.0516Q18.1534-70.4882 17.153-70.4882Q15.3998-70.4882 13.9304-69.1109Q12.4609-67.7336 12.4609-64.7966L12.4609-5.66247Q12.4609-2.72444 13.9304-1.34764Q15.3998 0.0291586 17.153 0.0291586ZM17.232-2.39273Q16.4861-2.39273 15.6178-3.04428Q14.7495-3.69583 14.7495-5.49385L14.7495-64.9642Q14.7495-66.7632 15.6178-67.4455Q16.4861-68.1277 17.232-68.1277Q17.7287-68.1277 18.2561-67.9724Q18.7835-67.817 19.6523-67.3213L70.2709-37.4957Q72.0716-36.5023 72.0716-35.2607Q72.0716-33.8944 70.2709-32.9624L19.6523-3.13774Q18.8459-2.64099 18.2873-2.51686Q17.7287-2.39273 17.232-2.39273Z"/>
  </g>
  <g id="Black-S" transform="matrix(1 0 0 1 2861.13 696)">
   <path d="M92.7734 0Q96.6309 0 99.0967-2.41699Q101.562-4.83398 101.562-8.49609L101.562-61.9629Q101.562-65.625 99.0967-68.042Q96.6309-70.459 92.7734-70.459Q88.916-70.459 86.4502-68.042Q83.9844-65.625 83.9844-61.9629L83.9844-8.49609Q83.9844-4.83398 86.4502-2.41699Q88.916 0 92.7734 0ZM125.977 0Q129.834 0 132.3-2.41699Q134.766-4.83398 134.766-8.49609L134.766-61.9629Q134.766-65.625 132.3-68.042Q129.834-70.459 125.977-70.459Q122.119-70.459 119.653-68.042Q117.188-65.625 117.188-61.9629L117.188-8.49609Q117.188-4.83398 119.653-2.41699Q122.119 0 125.977 0ZM18.9941-1.07422Q20.7031-1.07422 22.3145-1.46484Q23.9258-1.85547 25.4883-2.7832L65.6738-26.1719Q68.4082-27.7344 70.2881-29.9072Q72.168-32.0801 72.168-35.3027Q72.168-38.5254 70.3369-40.5518Q68.5059-42.5781 65.6738-44.2383L25.4883-67.627Q23.877-68.5547 22.2412-68.9453Q20.6055-69.3359 18.8965-69.3359Q15.1855-69.3359 12.4756-66.6992Q9.76562-64.0625 9.76562-59.2285L9.76562-11.1816Q9.76562-6.39648 12.5244-3.73535Q15.2832-1.07422 18.9941-1.07422ZM23.877-17.7734Q23.7793-17.7734 23.7305-17.8467Q23.6816-17.9199 23.6816-18.0176L23.6816-52.3926Q23.6816-52.4902 23.7305-52.5635Q23.7793-52.6367 23.9258-52.6367Q24.0234-52.6367 24.0967-52.6367Q24.1699-52.6367 24.2676-52.5391L53.9551-35.498Q54.0527-35.4492 54.0527-35.2539Q54.0527-35.0586 53.9551-34.9609L24.2676-17.8711Q24.2188-17.8223 24.0967-17.7979Q23.9746-17.7734 23.877-17.7734Z"/>
  </g>
  <g id="Heavy-S" transform="matrix(1 0 0 1 2567.37 696)">
   <path d="M89.9269-0.726041Q93.2427-0.726041 95.3858-2.82611Q97.5289-4.92618 97.5289-8.08121L97.5289-62.3662Q97.5289-65.5213 95.3858-67.6213Q93.2427-69.7214 89.9269-69.7214Q86.6111-69.7214 84.468-67.6213Q82.3249-65.5213 82.3249-62.3662L82.3249-8.08121Q82.3249-4.92618 84.468-2.82611Q86.6111-0.726041 89.9269-0.726041ZM121.286-0.726041Q124.59-0.726041 126.733-2.82611Q128.877-4.92618 128.877-8.08121L128.877-62.3662Q128.877-65.5213 126.733-67.6213Q124.59-69.7214 121.286-69.7214Q117.97-69.7214 115.827-67.6213Q113.684-65.5213 113.684-62.3662L113.684-8.08121Q113.684-4.92618 115.827-2.82611Q117.97-0.726041 121.286-0.726041ZM18.2105-1.9155Q19.8042-1.9155 21.2888-2.30037Q22.7733-2.68523 24.2782-3.57839L64.1295-26.8403Q66.7487-28.3452 68.4211-30.374Q70.0936-32.4028 70.0936-35.2797Q70.0936-38.1566 68.4584-40.0735Q66.8233-41.9904 64.1295-43.5814L24.2782-66.8318Q22.736-67.7249 21.2328-68.1098Q19.7296-68.4947 18.1359-68.4947Q14.7246-68.4947 12.2451-66.0538Q9.76562-63.613 9.76562-59.1248L9.76562-11.2854Q9.76562-6.83441 12.2824-4.37496Q14.7992-1.9155 18.2105-1.9155ZM22.4018-16.5979Q22.2465-16.5979 22.1516-16.7058Q22.0567-16.8136 22.0567-16.9919L22.0567-53.4183Q22.0567-53.5966 22.1516-53.7044Q22.2465-53.8122 22.4391-53.8122Q22.5598-53.8122 22.6561-53.7949Q22.7524-53.7776 22.8846-53.6685L53.9781-35.6479Q54.2256-35.5184 54.2256-35.2424Q54.2256-34.9664 53.9781-34.7996L22.8846-16.7417Q22.7897-16.6698 22.6561-16.6339Q22.5225-16.5979 22.4018-16.5979Z"/>
  </g>
  <g id="Bold-S" transform="matrix(1 0 0 1 2273.95 696)">
   <path d="M86.7432-1.53809Q89.4531-1.53809 91.2354-3.28369Q93.0176-5.0293 93.0176-7.61719L93.0176-62.8174Q93.0176-65.4053 91.2354-67.1509Q89.4531-68.8965 86.7432-68.8965Q84.0332-68.8965 82.251-67.1509Q80.4688-65.4053 80.4688-62.8174L80.4688-7.61719Q80.4688-5.0293 82.251-3.28369Q84.0332-1.53809 86.7432-1.53809ZM116.04-1.53809Q118.726-1.53809 120.508-3.28369Q122.29-5.0293 122.29-7.61719L122.29-62.8174Q122.29-65.4053 120.508-67.1509Q118.726-68.8965 116.04-68.8965Q113.33-68.8965 111.548-67.1509Q109.766-65.4053 109.766-62.8174L109.766-7.61719Q109.766-5.0293 111.548-3.28369Q113.33-1.53809 116.04-1.53809ZM17.334-2.85645Q18.7988-2.85645 20.1416-3.23486Q21.4844-3.61328 22.9248-4.46777L62.4023-27.5879Q64.8926-29.0283 66.333-30.896Q67.7734-32.7637 67.7734-35.2539Q67.7734-37.7441 66.3574-39.5386Q64.9414-41.333 62.4023-42.8467L22.9248-65.9424Q21.46-66.7969 20.105-67.1753Q18.75-67.5537 17.2852-67.5537Q14.209-67.5537 11.9873-65.332Q9.76562-63.1104 9.76562-59.0088L9.76562-11.4014Q9.76562-7.32422 12.0117-5.09033Q14.2578-2.85645 17.334-2.85645ZM20.752-15.2832Q20.5322-15.2832 20.3857-15.4297Q20.2393-15.5762 20.2393-15.8447L20.2393-54.5654Q20.2393-54.834 20.3857-54.9805Q20.5322-55.127 20.7764-55.127Q20.9229-55.127 21.0449-55.0903Q21.167-55.0537 21.3379-54.9316L54.0039-35.8154Q54.4189-35.5957 54.4189-35.2295Q54.4189-34.8633 54.0039-34.6191L21.3379-15.4785Q21.1914-15.3809 21.0449-15.332Q20.8984-15.2832 20.752-15.2832Z"/>
  </g>
  <g id="Semibold-S" transform="matrix(1 0 0 1 1979.51 696)">
   <path d="M84.5481-2.09795Q86.8404-2.09795 88.3738-3.59917Q89.9072-5.10039 89.9072-7.29727L89.9072-63.1284Q89.9072-65.3253 88.3738-66.8265Q86.8404-68.3277 84.5481-68.3277Q82.2559-68.3277 80.7225-66.8265Q79.1891-65.3253 79.1891-63.1284L79.1891-7.29727Q79.1891-5.10039 80.7225-3.59917Q82.2559-2.09795 84.5481-2.09795ZM112.423-2.09795Q114.682-2.09795 116.216-3.59917Q117.749-5.10039 117.749-7.29727L117.749-63.1284Q117.749-65.3253 116.216-66.8265Q114.682-68.3277 112.423-68.3277Q110.131-68.3277 108.597-66.8265Q107.064-65.3253 107.064-63.1284L107.064-7.29727Q107.064-5.10039 108.597-3.59917Q110.131-2.09795 112.423-2.09795ZM16.7297-3.50518Q18.1057-3.50518 19.3507-3.87915Q20.5957-4.25312 21.9917-5.08096L61.2115-28.1033Q63.6129-29.4993 64.8934-31.2559Q66.1738-33.0125 66.1738-35.2361Q66.1738-37.4598 64.9089-39.1698Q63.6439-40.8798 61.2115-42.3401L21.9917-65.3292Q20.5802-66.157 19.3274-66.531Q18.0746-66.905 16.6986-66.905Q13.8535-66.905 11.8096-64.8344Q9.76562-62.7638 9.76562-58.9288L9.76562-11.4813Q9.76562-7.66191 11.8251-5.58354Q13.8846-3.50518 16.7297-3.50518ZM19.6145-14.3768Q19.3503-14.3768 19.1683-14.5499Q18.9862-14.723 18.9862-15.0538L18.9862-55.3563Q18.9862-55.6871 19.1683-55.8603Q19.3503-56.0334 19.63-56.0334Q19.7942-56.0334 19.9341-55.9834Q20.0739-55.9335 20.2715-55.8025L54.0217-35.931Q54.5522-35.649 54.5522-35.2206Q54.5522-34.7922 54.0217-34.4947L20.2715-14.6076Q20.0895-14.4922 19.9341-14.4345Q19.7787-14.3768 19.6145-14.3768Z"/>
  </g>
  <g id="Medium-S" transform="matrix(1 0 0 1 1684.52 696)">
   <path d="M82.8838-2.52246Q84.8594-2.52246 86.2041-3.83838Q87.5488-5.1543 87.5488-7.05469L87.5488-63.3643Q87.5488-65.2646 86.2041-66.5806Q84.8594-67.8965 82.8838-67.8965Q80.9082-67.8965 79.5635-66.5806Q78.2188-65.2646 78.2188-63.3643L78.2188-7.05469Q78.2188-5.1543 79.5635-3.83838Q80.9082-2.52246 82.8838-2.52246ZM109.681-2.52246Q111.616-2.52246 112.961-3.83838Q114.306-5.1543 114.306-7.05469L114.306-63.3643Q114.306-65.2646 112.961-66.5806Q111.616-67.8965 109.681-67.8965Q107.705-67.8965 106.36-66.5806Q105.016-65.2646 105.016-63.3643L105.016-7.05469Q105.016-5.1543 106.36-3.83838Q107.705-2.52246 109.681-2.52246ZM16.2715-3.99707Q17.5801-3.99707 18.751-4.36768Q19.9219-4.73828 21.2842-5.5459L60.3086-28.4941Q62.6426-29.8564 63.8018-31.5288Q64.9609-33.2012 64.9609-35.2227Q64.9609-37.2441 63.8105-38.8901Q62.6602-40.5361 60.3086-41.9561L21.2842-64.8643Q19.9131-65.6719 18.7378-66.0425Q17.5625-66.4131 16.2539-66.4131Q13.584-66.4131 11.6748-64.457Q9.76562-62.501 9.76562-58.8682L9.76562-11.542Q9.76562-7.91797 11.6836-5.95752Q13.6016-3.99707 16.2715-3.99707ZM18.752-13.6895Q18.4541-13.6895 18.2451-13.8828Q18.0361-14.0762 18.0361-14.4541L18.0361-55.9561Q18.0361-56.334 18.2451-56.5273Q18.4541-56.7207 18.7607-56.7207Q18.9385-56.7207 19.0918-56.6606Q19.2451-56.6006 19.4629-56.4629L54.0352-36.0186Q54.6533-35.6895 54.6533-35.2139Q54.6533-34.7383 54.0352-34.4004L19.4629-13.9473Q19.2539-13.8184 19.0918-13.7539Q18.9297-13.6895 18.752-13.6895Z"/>
  </g>
  <g id="Regular-S" transform="matrix(1 0 0 1 1390.05 696)">
   <path d="M80.7129-3.07617Q82.2754-3.07617 83.374-4.15039Q84.4727-5.22461 84.4727-6.73828L84.4727-63.6719Q84.4727-65.1855 83.374-66.2598Q82.2754-67.334 80.7129-67.334Q79.1504-67.334 78.0518-66.2598Q76.9531-65.1855 76.9531-63.6719L76.9531-6.73828Q76.9531-5.22461 78.0518-4.15039Q79.1504-3.07617 80.7129-3.07617ZM106.104-3.07617Q107.617-3.07617 108.716-4.15039Q109.814-5.22461 109.814-6.73828L109.814-63.6719Q109.814-65.1855 108.716-66.2598Q107.617-67.334 106.104-67.334Q104.541-67.334 103.442-66.2598Q102.344-65.1855 102.344-63.6719L102.344-6.73828Q102.344-5.22461 103.442-4.15039Q104.541-3.07617 106.104-3.07617ZM15.6738-4.63867Q16.8945-4.63867 17.9688-5.00488Q19.043-5.37109 20.3613-6.15234L59.1309-29.0039Q61.377-30.3223 62.3779-31.8848Q63.3789-33.4473 63.3789-35.2051Q63.3789-36.9629 62.3779-38.5254Q61.377-40.0879 59.1309-41.4551L20.3613-64.2578Q19.043-65.0391 17.9688-65.4053Q16.8945-65.7715 15.6738-65.7715Q13.2324-65.7715 11.499-63.9648Q9.76562-62.1582 9.76562-58.7891L9.76562-11.6211Q9.76562-8.25195 11.499-6.44531Q13.2324-4.63867 15.6738-4.63867ZM17.627-12.793Q17.2852-12.793 17.041-13.0127Q16.7969-13.2324 16.7969-13.6719L16.7969-56.7383Q16.7969-57.1777 17.041-57.3975Q17.2852-57.6172 17.627-57.6172Q17.8223-57.6172 17.9932-57.5439Q18.1641-57.4707 18.4082-57.3242L54.0527-36.1328Q54.7852-35.7422 54.7852-35.2051Q54.7852-34.668 54.0527-34.2773L18.4082-13.0859Q18.1641-12.9395 17.9932-12.8662Q17.8223-12.793 17.627-12.793Z"/>
  </g>
  <g id="Light-S" transform="matrix(1 0 0 1 1094.8 696)">
   <path d="M78.8058-4.01459Q80.0049-4.01459 80.8462-4.83907Q81.6874-5.66355 81.6874-6.82907L81.6874-63.5811Q81.6874-64.7466 80.8462-65.5711Q80.0049-66.3956 78.8058-66.3956Q77.6217-66.3956 76.7803-65.5711Q75.9389-64.7466 75.9389-63.5811L75.9389-6.82907Q75.9389-5.66355 76.7803-4.83907Q77.6217-4.01459 78.8058-4.01459ZM104.045-4.01459Q105.21-4.01459 106.052-4.83907Q106.893-5.66355 106.893-6.82907L106.893-63.5811Q106.893-64.7466 106.052-65.5711Q105.21-66.3956 104.045-66.3956Q102.846-66.3956 102.004-65.5711Q101.163-64.7466 101.163-63.5811L101.163-6.82907Q101.163-5.66355 102.004-4.83907Q102.846-4.01459 104.045-4.01459ZM14.9775-5.56208Q16.0619-5.56208 17.053-5.92066Q18.044-6.27925 19.1353-6.92418L58.2832-29.9726Q60.0904-31.0488 60.9475-32.3616Q61.8047-33.6744 61.8047-35.2203Q61.8047-36.7661 60.955-38.0713Q60.1054-39.3766 58.2832-40.4864L19.1353-63.501Q18.0288-64.1459 17.0453-64.5046Q16.0619-64.8633 14.9775-64.8633Q12.8693-64.8633 11.3174-63.2837Q9.76562-61.704 9.76562-58.668L9.76562-11.7574Q9.76562-8.72116 11.3174-7.14162Q12.8693-5.56208 14.9775-5.56208ZM16.3404-11.7638Q15.9228-11.7638 15.5425-12.0743Q15.1622-12.3848 15.1622-13.1269L15.1622-57.2983Q15.1622-58.0406 15.5425-58.3586Q15.9228-58.6767 16.3404-58.6767Q16.5962-58.6767 16.8428-58.5883Q17.0893-58.4999 17.4698-58.2779L54.3706-36.4052Q55.3149-35.8935 55.3149-35.2203Q55.3149-34.5167 54.3706-34.02L17.4698-12.1475Q17.1046-11.9253 16.8504-11.8445Q16.5962-11.7638 16.3404-11.7638Z"/>
  </g>
  <g id="Thin-S" transform="matrix(1 0 0 1 800.025 696)">
   <path d="M76.2835-5.25572Q77.002-5.25572 77.5028-5.74991Q78.0037-6.24409 78.0037-6.94915L78.0037-63.461Q78.0037-64.1661 77.5028-64.6603Q77.002-65.1544 76.2835-65.1544Q75.5999-65.1544 75.0987-64.6603Q74.5976-64.1661 74.5976-63.461L74.5976-6.94915Q74.5976-6.24409 75.0987-5.74991Q75.5999-5.25572 76.2835-5.25572ZM101.322-5.25572Q102.027-5.25572 102.528-5.74991Q103.03-6.24409 103.03-6.94915L103.03-63.461Q103.03-64.1661 102.528-64.6603Q102.027-65.1544 101.322-65.1544Q100.604-65.1544 100.102-64.6603Q99.6013-64.1661 99.6013-63.461L99.6013-6.94915Q99.6013-6.24409 100.102-5.74991Q100.604-5.25572 101.322-5.25572ZM14.0566-6.78337Q14.9607-6.78337 15.8418-7.13186Q16.7228-7.48035 17.5137-7.94501L57.1622-31.2537Q58.3888-32.0098 59.0557-32.9923Q59.7227-33.9747 59.7227-35.2405Q59.7227-36.5057 59.0732-37.4708Q58.4236-38.4358 57.1622-39.2052L17.5137-62.5Q16.6874-62.9647 15.8241-63.3134Q14.9607-63.6622 14.0566-63.6622Q12.389-63.6622 11.0773-62.3828Q9.76562-61.1033 9.76562-58.5079L9.76562-11.9377Q9.76562-9.34173 11.0773-8.06255Q12.389-6.78337 14.0566-6.78337ZM14.6388-10.4026Q14.121-10.4026 13.5605-10.8331Q13.0001-11.2637 13.0001-12.4061L13.0001-58.0389Q13.0001-59.1819 13.5605-59.6299Q14.121-60.0779 14.6388-60.0779Q14.9747-60.0779 15.3213-59.9695Q15.6679-59.8611 16.2287-59.5392L54.7911-36.7654Q56.0155-36.0936 56.0155-35.2405Q56.0155-34.3165 54.7911-33.6796L16.2287-10.9064Q15.7034-10.5839 15.339-10.4932Q14.9747-10.4026 14.6388-10.4026Z"/>
  </g>
  <g id="Ultralight-S" transform="matrix(1 0 0 1 504.303 696)">
   <path d="M74.9916-5.89142Q75.4639-5.89142 75.7904-6.21643Q76.1169-6.54144 76.1169-7.01065L76.1169-63.3995Q76.1169-63.8687 75.7904-64.1937Q75.4639-64.5187 74.9916-64.5187Q74.5644-64.5187 74.2374-64.1937Q73.9105-63.8687 73.9105-63.3995L73.9105-7.01065Q73.9105-6.54144 74.2374-6.21643Q74.5644-5.89142 74.9916-5.89142ZM99.9275-5.89142Q100.397-5.89142 100.724-6.21643Q101.051-6.54144 101.051-7.01065L101.051-63.3995Q101.051-63.8687 100.724-64.1937Q100.397-64.5187 99.9275-64.5187Q99.4553-64.5187 99.1283-64.1937Q98.8014-63.8687 98.8014-63.3995L98.8014-7.01065Q98.8014-6.54144 99.1283-6.21643Q99.4553-5.89142 99.9275-5.89142ZM13.5849-7.40891Q14.3967-7.40891 15.2214-7.75223Q16.0461-8.09555 16.6832-8.46786L56.588-31.9099Q57.5172-32.502 58.0868-33.3153Q58.6563-34.1286 58.6563-35.2509Q58.6563-36.3724 58.1093-37.1632Q57.5623-37.9539 56.588-38.549L16.6832-61.9873Q16.0004-62.3596 15.1985-62.7033Q14.3967-63.047 13.5849-63.047Q12.1429-63.047 10.9543-61.9213Q9.76562-60.7956 9.76562-58.4259L9.76562-12.03Q9.76562-9.65958 10.9543-8.53424Q12.1429-7.40891 13.5849-7.40891ZM13.7672-9.70535Q13.1981-9.70535 12.5454-10.1974Q11.8927-10.6895 11.8927-12.0369L11.8927-58.4183Q11.8927-59.7664 12.5454-60.281Q13.1981-60.7956 13.7672-60.7956Q14.1441-60.7956 14.542-60.677Q14.9399-60.5583 15.593-60.1852L55.0064-36.9499Q56.3744-36.1961 56.3744-35.2509Q56.3744-34.214 55.0064-33.5052L15.593-10.2707Q14.9857-9.89685 14.5649-9.8011Q14.1441-9.70535 13.7672-9.70535Z"/>
  </g>
 </g>
</svg>
