<?xml version="1.0" encoding="UTF-8"?>
<!--Generator: Apple Native CoreSVG 175-->
<!DOCTYPE svg
PUBLIC "-//W3C//DTD SVG 1.1//EN"
       "http://www.w3.org/Graphics/SVG/1.1/DTD/svg11.dtd">
<svg version="1.1" xmlns="http://www.w3.org/2000/svg" xmlns:xlink="http://www.w3.org/1999/xlink" width="3300" height="2200">
 <!--glyph: "uni100287.medium", point size: 100.0, font version: "17.1d1e1", template writer version: "65.1"-->
 <g id="Notes">
  <rect height="2200" id="artboard" style="fill:white;opacity:1" width="3300" x="0" y="0"/>
  <line style="fill:none;stroke:black;opacity:1;stroke-width:0.5;" x1="263" x2="3036" y1="292" y2="292"/>
  <text style="stroke:none;fill:black;font-family:sans-serif;font-size:13;font-weight:bold;" transform="matrix(1 0 0 1 263 322)">Weight/Scale Variations</text>
  <text style="stroke:none;fill:black;font-family:sans-serif;font-size:13;text-anchor:middle;" transform="matrix(1 0 0 1 559.711 322)">Ultralight</text>
  <text style="stroke:none;fill:black;font-family:sans-serif;font-size:13;text-anchor:middle;" transform="matrix(1 0 0 1 856.422 322)">Thin</text>
  <text style="stroke:none;fill:black;font-family:sans-serif;font-size:13;text-anchor:middle;" transform="matrix(1 0 0 1 1153.13 322)">Light</text>
  <text style="stroke:none;fill:black;font-family:sans-serif;font-size:13;text-anchor:middle;" transform="matrix(1 0 0 1 1449.84 322)">Regular</text>
  <text style="stroke:none;fill:black;font-family:sans-serif;font-size:13;text-anchor:middle;" transform="matrix(1 0 0 1 1746.56 322)">Medium</text>
  <text style="stroke:none;fill:black;font-family:sans-serif;font-size:13;text-anchor:middle;" transform="matrix(1 0 0 1 2043.27 322)">Semibold</text>
  <text style="stroke:none;fill:black;font-family:sans-serif;font-size:13;text-anchor:middle;" transform="matrix(1 0 0 1 2339.98 322)">Bold</text>
  <text style="stroke:none;fill:black;font-family:sans-serif;font-size:13;text-anchor:middle;" transform="matrix(1 0 0 1 2636.69 322)">Heavy</text>
  <text style="stroke:none;fill:black;font-family:sans-serif;font-size:13;text-anchor:middle;" transform="matrix(1 0 0 1 2933.4 322)">Black</text>
  <line style="fill:none;stroke:black;opacity:1;stroke-width:0.5;" x1="263" x2="3036" y1="1903" y2="1903"/>
  <g transform="matrix(1 0 0 1 263 1933)">
   <path d="M9.24805 0.830078Q10.8691 0.830078 12.2949 0.214844Q13.7207-0.400391 14.8096-1.49414Q15.8984-2.58789 16.5186-4.01367Q17.1387-5.43945 17.1387-7.05078Q17.1387-8.66211 16.5186-10.0879Q15.8984-11.5137 14.8047-12.6074Q13.7109-13.7012 12.2852-14.3164Q10.8594-14.9316 9.23828-14.9316Q7.62695-14.9316 6.20117-14.3164Q4.77539-13.7012 3.69141-12.6074Q2.60742-11.5137 1.9873-10.0879Q1.36719-8.66211 1.36719-7.05078Q1.36719-5.43945 1.9873-4.01367Q2.60742-2.58789 3.69629-1.49414Q4.78516-0.400391 6.21094 0.214844Q7.63672 0.830078 9.24805 0.830078ZM9.24805-0.654297Q7.91992-0.654297 6.7627-1.14746Q5.60547-1.64062 4.73145-2.51953Q3.85742-3.39844 3.36426-4.56055Q2.87109-5.72266 2.87109-7.05078Q2.87109-8.37891 3.35938-9.54102Q3.84766-10.7031 4.72168-11.582Q5.5957-12.4609 6.75293-12.9541Q7.91016-13.4473 9.23828-13.4473Q10.5762-13.4473 11.7334-12.9541Q12.8906-12.4609 13.7695-11.582Q14.6484-10.7031 15.1465-9.54102Q15.6445-8.37891 15.6445-7.05078Q15.6445-5.72266 15.1514-4.56055Q14.6582-3.39844 13.7842-2.51953Q12.9102-1.64062 11.748-1.14746Q10.5859-0.654297 9.24805-0.654297ZM5.6543-7.05078Q5.6543-6.72852 5.85938-6.52832Q6.06445-6.32812 6.40625-6.32812L8.51562-6.32812L8.51562-4.20898Q8.51562-3.88672 8.71094-3.67676Q8.90625-3.4668 9.23828-3.4668Q9.56055-3.4668 9.77051-3.67676Q9.98047-3.88672 9.98047-4.20898L9.98047-6.32812L12.0898-6.32812Q12.4219-6.32812 12.627-6.52832Q12.832-6.72852 12.832-7.05078Q12.832-7.38281 12.627-7.58789Q12.4219-7.79297 12.0898-7.79297L9.98047-7.79297L9.98047-9.90234Q9.98047-10.2344 9.77051-10.4443Q9.56055-10.6543 9.23828-10.6543Q8.90625-10.6543 8.71094-10.4443Q8.51562-10.2344 8.51562-9.90234L8.51562-7.79297L6.40625-7.79297Q6.06445-7.79297 5.85938-7.58789Q5.6543-7.38281 5.6543-7.05078Z"/>
  </g>
  <g transform="matrix(1 0 0 1 281.867 1933)">
   <path d="M11.709 2.91016Q13.75 2.91016 15.5518 2.12891Q17.3535 1.34766 18.7305-0.0292969Q20.1074-1.40625 20.8887-3.20801Q21.6699-5.00977 21.6699-7.05078Q21.6699-9.0918 20.8887-10.8936Q20.1074-12.6953 18.7305-14.0723Q17.3535-15.4492 15.5469-16.2305Q13.7402-17.0117 11.6992-17.0117Q9.6582-17.0117 7.85645-16.2305Q6.05469-15.4492 4.68262-14.0723Q3.31055-12.6953 2.5293-10.8936Q1.74805-9.0918 1.74805-7.05078Q1.74805-5.00977 2.5293-3.20801Q3.31055-1.40625 4.6875-0.0292969Q6.06445 1.34766 7.86621 2.12891Q9.66797 2.91016 11.709 2.91016ZM11.709 1.25Q9.98047 1.25 8.47656 0.605469Q6.97266-0.0390625 5.83496-1.17676Q4.69727-2.31445 4.05762-3.81836Q3.41797-5.32227 3.41797-7.05078Q3.41797-8.7793 4.05762-10.2832Q4.69727-11.7871 5.83008-12.9297Q6.96289-14.0723 8.4668-14.7119Q9.9707-15.3516 11.6992-15.3516Q13.4277-15.3516 14.9316-14.7119Q16.4355-14.0723 17.5781-12.9297Q18.7207-11.7871 19.3652-10.2832Q20.0098-8.7793 20.0098-7.05078Q20.0098-5.32227 19.3701-3.81836Q18.7305-2.31445 17.5928-1.17676Q16.4551-0.0390625 14.9463 0.605469Q13.4375 1.25 11.709 1.25ZM7.17773-7.05078Q7.17773-6.69922 7.41211-6.47461Q7.64648-6.25 8.01758-6.25L10.8887-6.25L10.8887-3.36914Q10.8887-2.99805 11.1133-2.76855Q11.3379-2.53906 11.6895-2.53906Q12.0605-2.53906 12.29-2.76855Q12.5195-2.99805 12.5195-3.36914L12.5195-6.25L15.4004-6.25Q15.7715-6.25 16.001-6.47461Q16.2305-6.69922 16.2305-7.05078Q16.2305-7.42188 16.001-7.65137Q15.7715-7.88086 15.4004-7.88086L12.5195-7.88086L12.5195-10.752Q12.5195-11.1328 12.29-11.3623Q12.0605-11.5918 11.6895-11.5918Q11.3379-11.5918 11.1133-11.3574Q10.8887-11.123 10.8887-10.752L10.8887-7.88086L8.01758-7.88086Q7.63672-7.88086 7.40723-7.65137Q7.17773-7.42188 7.17773-7.05078Z"/>
  </g>
  <g transform="matrix(1 0 0 1 305.646 1933)">
   <path d="M14.9707 5.66406Q17.0605 5.66406 18.96 5.01465Q20.8594 4.36523 22.4512 3.19336Q24.043 2.02148 25.2197 0.429688Q26.3965-1.16211 27.0459-3.06641Q27.6953-4.9707 27.6953-7.05078Q27.6953-9.14062 27.0459-11.04Q26.3965-12.9395 25.2197-14.5312Q24.043-16.123 22.4512-17.2998Q20.8594-18.4766 18.9551-19.126Q17.0508-19.7754 14.9609-19.7754Q12.8711-19.7754 10.9717-19.126Q9.07227-18.4766 7.48535-17.2998Q5.89844-16.123 4.72168-14.5312Q3.54492-12.9395 2.90039-11.04Q2.25586-9.14062 2.25586-7.05078Q2.25586-4.9707 2.90527-3.06641Q3.55469-1.16211 4.72656 0.429688Q5.89844 2.02148 7.49023 3.19336Q9.08203 4.36523 10.9814 5.01465Q12.8809 5.66406 14.9707 5.66406ZM14.9707 3.84766Q13.1641 3.84766 11.5283 3.2959Q9.89258 2.74414 8.53516 1.74805Q7.17773 0.751953 6.17676-0.610352Q5.17578-1.97266 4.62891-3.6084Q4.08203-5.24414 4.08203-7.05078Q4.08203-8.86719 4.62891-10.5029Q5.17578-12.1387 6.17188-13.501Q7.16797-14.8633 8.52539-15.8594Q9.88281-16.8555 11.5186-17.4023Q13.1543-17.9492 14.9609-17.9492Q16.7773-17.9492 18.4131-17.4023Q20.0488-16.8555 21.4111-15.8594Q22.7734-14.8633 23.7695-13.501Q24.7656-12.1387 25.3174-10.5029Q25.8691-8.86719 25.8691-7.05078Q25.8789-5.24414 25.332-3.6084Q24.7852-1.97266 23.7842-0.610352Q22.7832 0.751953 21.4209 1.74805Q20.0586 2.74414 18.4229 3.2959Q16.7871 3.84766 14.9707 3.84766ZM9.19922-7.05078Q9.19922-6.66992 9.45801-6.4209Q9.7168-6.17188 10.1172-6.17188L14.0625-6.17188L14.0625-2.2168Q14.0625-1.81641 14.3115-1.55762Q14.5605-1.29883 14.9512-1.29883Q15.3516-1.29883 15.6104-1.55273Q15.8691-1.80664 15.8691-2.2168L15.8691-6.17188L19.8242-6.17188Q20.2246-6.17188 20.4785-6.4209Q20.7324-6.66992 20.7324-7.05078Q20.7324-7.46094 20.4785-7.71484Q20.2246-7.96875 19.8242-7.96875L15.8691-7.96875L15.8691-11.9141Q15.8691-12.3242 15.6104-12.583Q15.3516-12.8418 14.9512-12.8418Q14.5605-12.8418 14.3115-12.583Q14.0625-12.3242 14.0625-11.9141L14.0625-7.96875L10.1172-7.96875Q9.70703-7.96875 9.45312-7.71484Q9.19922-7.46094 9.19922-7.05078Z"/>
  </g>
  <text style="stroke:none;fill:black;font-family:sans-serif;font-size:13;font-weight:bold;" transform="matrix(1 0 0 1 263 1953)">Design Variations</text>
  <text style="stroke:none;fill:black;font-family:sans-serif;font-size:13;" transform="matrix(1 0 0 1 263 1971)">Symbols are supported in up to nine weights and three scales.</text>
  <text style="stroke:none;fill:black;font-family:sans-serif;font-size:13;" transform="matrix(1 0 0 1 263 1989)">For optimal layout with text and other symbols, vertically align</text>
  <text style="stroke:none;fill:black;font-family:sans-serif;font-size:13;" transform="matrix(1 0 0 1 263 2007)">symbols with the adjacent text.</text>
  <line style="fill:none;stroke:#00AEEF;stroke-width:0.5;opacity:1.0;" x1="776" x2="776" y1="1919" y2="1933"/>
  <g transform="matrix(1 0 0 1 776 1933)">
   <path d="M3.31055 0.15625Q3.70117 0.15625 3.91602-0.00976562Q4.13086-0.175781 4.26758-0.585938L5.52734-4.0332L11.2891-4.0332L12.5488-0.585938Q12.6855-0.175781 12.9004-0.00976562Q13.1152 0.15625 13.4961 0.15625Q13.8867 0.15625 14.1162-0.0585938Q14.3457-0.273438 14.3457-0.644531Q14.3457-0.869141 14.2383-1.17188L9.6582-13.3691Q9.48242-13.8184 9.17969-14.043Q8.87695-14.2676 8.4082-14.2676Q7.5-14.2676 7.17773-13.3789L2.59766-1.16211Q2.49023-0.859375 2.49023-0.634766Q2.49023-0.263672 2.70996-0.0537109Q2.92969 0.15625 3.31055 0.15625ZM6.00586-5.51758L8.37891-12.0898L8.42773-12.0898L10.8008-5.51758Z"/>
  </g>
  <line style="fill:none;stroke:#00AEEF;stroke-width:0.5;opacity:1.0;" x1="793.197" x2="793.197" y1="1919" y2="1933"/>
  <text style="stroke:none;fill:black;font-family:sans-serif;font-size:13;font-weight:bold;" transform="matrix(1 0 0 1 776 1953)">Margins</text>
  <text style="stroke:none;fill:black;font-family:sans-serif;font-size:13;" transform="matrix(1 0 0 1 776 1971)">Leading and trailing margins on the left and right side of each symbol</text>
  <text style="stroke:none;fill:black;font-family:sans-serif;font-size:13;" transform="matrix(1 0 0 1 776 1989)">can be adjusted by modifying the x-location of the margin guidelines.</text>
  <text style="stroke:none;fill:black;font-family:sans-serif;font-size:13;" transform="matrix(1 0 0 1 776 2007)">Modifications are automatically applied proportionally to all</text>
  <text style="stroke:none;fill:black;font-family:sans-serif;font-size:13;" transform="matrix(1 0 0 1 776 2025)">scales and weights.</text>
  <g transform="matrix(1 0 0 1 1289 1933)">
   <path d="M2.8418 1.86523L4.54102 3.57422Q5.18555 4.22852 5.90332 4.17969Q6.62109 4.13086 7.31445 3.35938L18.0078-8.42773L17.041-9.4043L6.42578 2.27539Q6.16211 2.57812 5.89355 2.61719Q5.625 2.65625 5.27344 2.30469L4.10156 1.14258Q3.75 0.791016 3.79395 0.522461Q3.83789 0.253906 4.14062-0.0195312L15.6152-10.8203L14.6387-11.7871L3.04688-0.898438Q2.30469-0.214844 2.25098 0.498047Q2.19727 1.21094 2.8418 1.86523ZM9.25781-16.3281Q8.94531-16.0254 8.90625-15.6348Q8.86719-15.2441 9.04297-14.9512Q9.21875-14.6777 9.55566-14.541Q9.89258-14.4043 10.3809-14.5215Q11.4746-14.7754 12.5977-14.7314Q13.7207-14.6875 14.7949-13.9844L14.209-12.5293Q13.9551-11.9043 14.0674-11.4404Q14.1797-10.9766 14.5801-10.5664L16.875-8.25195Q17.2363-7.88086 17.5781-7.82227Q17.9199-7.76367 18.3398-7.8418L19.4043-8.03711L20.0684-7.36328L20.0293-6.80664Q20-6.43555 20.1221-6.12305Q20.2441-5.81055 20.6055-5.44922L21.3672-4.70703Q21.7285-4.3457 22.1533-4.33105Q22.5781-4.31641 22.9297-4.66797L25.8398-7.58789Q26.1914-7.93945 26.1816-8.35449Q26.1719-8.76953 25.8105-9.13086L25.0391-9.89258Q24.6875-10.2539 24.3799-10.3857Q24.0723-10.5176 23.7109-10.4883L23.1348-10.4395L22.4902-11.0742L22.7344-12.1973Q22.832-12.6172 22.6953-12.9834Q22.5586-13.3496 22.1191-13.7891L19.9219-15.9766Q18.6719-17.2168 17.2607-17.8369Q15.8496-18.457 14.4189-18.4814Q12.9883-18.5059 11.665-17.959Q10.3418-17.4121 9.25781-16.3281ZM10.752-15.957Q11.6602-16.6211 12.7002-16.9043Q13.7402-17.1875 14.8047-17.085Q15.8691-16.9824 16.8701-16.5137Q17.8711-16.0449 18.7012-15.2051L21.1328-12.793Q21.3086-12.6172 21.3525-12.4512Q21.3965-12.2852 21.3379-12.0312L21.0156-10.5469L22.5195-9.0625L23.5059-9.12109Q23.6914-9.13086 23.7891-9.09668Q23.8867-9.0625 24.0332-8.91602L24.6094-8.33984L22.168-5.89844L21.5918-6.47461Q21.4453-6.62109 21.4062-6.71875Q21.3672-6.81641 21.377-7.01172L21.4453-7.98828L19.9512-9.47266L18.4277-9.21875Q18.1836-9.16992 18.042-9.2041Q17.9004-9.23828 17.7148-9.41406L15.7129-11.416Q15.5176-11.5918 15.4932-11.7529Q15.4688-11.9141 15.5859-12.1875L16.4648-14.2773Q15.293-15.3711 13.8281-15.791Q12.3633-16.2109 10.8398-15.7617Q10.7227-15.7324 10.6885-15.8057Q10.6543-15.8789 10.752-15.957Z"/>
  </g>
  <text style="stroke:none;fill:black;font-family:sans-serif;font-size:13;font-weight:bold;" transform="matrix(1 0 0 1 1289 1953)">Exporting</text>
  <text style="stroke:none;fill:black;font-family:sans-serif;font-size:13;" transform="matrix(1 0 0 1 1289 1971)">Symbols should be outlined when exporting to ensure the</text>
  <text style="stroke:none;fill:black;font-family:sans-serif;font-size:13;" transform="matrix(1 0 0 1 1289 1989)">design is preserved when submitting to Xcode.</text>
  <text id="template-version" style="stroke:none;fill:black;font-family:sans-serif;font-size:13;text-anchor:end;" transform="matrix(1 0 0 1 3036 1933)">Template v.2.0</text>
  <text style="stroke:none;fill:black;font-family:sans-serif;font-size:13;text-anchor:end;" transform="matrix(1 0 0 1 3036 1951)">Requires Xcode 12 or greater</text>
  <text id="descriptive-name" style="stroke:none;fill:black;font-family:sans-serif;font-size:13;text-anchor:end;" transform="matrix(1 0 0 1 3036 1969)">Generated from playpause</text>
  <text style="stroke:none;fill:black;font-family:sans-serif;font-size:13;text-anchor:end;" transform="matrix(1 0 0 1 3036 1987)">Typeset at 100 points</text>
  <text style="stroke:none;fill:black;font-family:sans-serif;font-size:13;" transform="matrix(1 0 0 1 263 726)">Small</text>
  <text style="stroke:none;fill:black;font-family:sans-serif;font-size:13;" transform="matrix(1 0 0 1 263 1156)">Medium</text>
  <text style="stroke:none;fill:black;font-family:sans-serif;font-size:13;" transform="matrix(1 0 0 1 263 1586)">Large</text>
 </g>
 <g id="Guides">
  <g id="H-reference" style="fill:#27AAE1;stroke:none;" transform="matrix(1 0 0 1 339 696)">
   <path d="M0.976562 0L3.66211 0L29.3457-67.1387L30.0293-67.1387L30.0293-70.459L28.125-70.459ZM11.6699-24.4629L46.9727-24.4629L46.2402-26.709L12.4512-26.709ZM55.127 0L57.7637 0L30.6152-70.459L29.4434-70.459L29.4434-67.1387Z"/>
  </g>
  <line id="Baseline-S" style="fill:none;stroke:#27AAE1;opacity:1;stroke-width:0.5;" x1="263" x2="3036" y1="696" y2="696"/>
  <line id="Capline-S" style="fill:none;stroke:#27AAE1;opacity:1;stroke-width:0.5;" x1="263" x2="3036" y1="625.541" y2="625.541"/>
  <g id="H-reference" style="fill:#27AAE1;stroke:none;" transform="matrix(1 0 0 1 339 1126)">
   <path d="M0.976562 0L3.66211 0L29.3457-67.1387L30.0293-67.1387L30.0293-70.459L28.125-70.459ZM11.6699-24.4629L46.9727-24.4629L46.2402-26.709L12.4512-26.709ZM55.127 0L57.7637 0L30.6152-70.459L29.4434-70.459L29.4434-67.1387Z"/>
  </g>
  <line id="Baseline-M" style="fill:none;stroke:#27AAE1;opacity:1;stroke-width:0.5;" x1="263" x2="3036" y1="1126" y2="1126"/>
  <line id="Capline-M" style="fill:none;stroke:#27AAE1;opacity:1;stroke-width:0.5;" x1="263" x2="3036" y1="1055.54" y2="1055.54"/>
  <g id="H-reference" style="fill:#27AAE1;stroke:none;" transform="matrix(1 0 0 1 339 1556)">
   <path d="M0.976562 0L3.66211 0L29.3457-67.1387L30.0293-67.1387L30.0293-70.459L28.125-70.459ZM11.6699-24.4629L46.9727-24.4629L46.2402-26.709L12.4512-26.709ZM55.127 0L57.7637 0L30.6152-70.459L29.4434-70.459L29.4434-67.1387Z"/>
  </g>
  <line id="Baseline-L" style="fill:none;stroke:#27AAE1;opacity:1;stroke-width:0.5;" x1="263" x2="3036" y1="1556" y2="1556"/>
  <line id="Capline-L" style="fill:none;stroke:#27AAE1;opacity:1;stroke-width:0.5;" x1="263" x2="3036" y1="1485.54" y2="1485.54"/>
  <line id="left-margin" style="fill:none;stroke:#00AEEF;stroke-width:0.5;opacity:1.0;" x1="1374.57" x2="1374.57" y1="1030.79" y2="1150.12"/>
  <line id="right-margin" style="fill:none;stroke:#00AEEF;stroke-width:0.5;opacity:1.0;" x1="1525.12" x2="1525.12" y1="1030.79" y2="1150.12"/>
 </g>
 <g id="Symbols">
  <g id="Black-L" transform="matrix(1 0 0 1 2820.12 1556)">
   <path d="M147.21 21.332Q152.5 21.332 155.925 17.9765Q159.349 14.6211 159.349 9.58518L159.349-80.0221Q159.349-85.058 155.925-88.4135Q152.5-91.769 147.21-91.769Q141.921-91.769 138.497-88.4135Q135.073-85.058 135.073-80.0221L135.073 9.58518Q135.073 14.6211 138.497 17.9765Q141.921 21.332 147.21 21.332ZM198.362 21.332Q203.63 21.332 207.055 17.9765Q210.48 14.6211 210.48 9.58518L210.48-80.0221Q210.48-85.058 207.055-88.4135Q203.63-91.769 198.362-91.769Q193.072-91.769 189.647-88.4135Q186.222-85.058 186.222-80.0221L186.222 9.58518Q186.222 14.6211 189.647 17.9765Q193.072 21.332 198.362 21.332ZM29.7311 19.3439Q32.3154 19.3439 34.7207 18.7122Q37.126 18.0805 39.5713 16.6302L105.148-21.6656Q109.397-24.1096 112.085-27.3932Q114.773-30.6768 114.773-35.3074Q114.773-39.938 112.144-43.0457Q109.515-46.1534 105.148-48.735L39.5713-87.01Q37.0663-88.4604 34.6324-89.0921Q32.1986-89.7238 29.6143-89.7238Q24.1018-89.7238 20.0929-85.7734Q16.084-81.8229 16.084-74.5488L16.084 4.16891Q16.084 11.3847 20.1513 15.3643Q24.2186 19.3439 29.7311 19.3439ZM36.406-4.15296Q36.1287-4.15296 35.9499-4.34671Q35.7711-4.54045 35.7711-4.87983L35.7711-65.5Q35.7711-65.8394 35.9499-66.0338Q36.1287-66.2282 36.4644-66.2282Q36.6744-66.2282 36.8449-66.1939Q37.0153-66.1596 37.2525-65.9716L88.9338-35.9798Q89.3975-35.735 89.3975-35.249Q89.3975-34.7603 88.9338-34.4584L37.2525-4.40829Q37.075-4.2787 36.8455-4.21583Q36.616-4.15296 36.406-4.15296Z"/>
  </g>
  <g id="Heavy-L" transform="matrix(1 0 0 1 2527.35 1556)">
   <path d="M143.25 20.1882Q147.788 20.1882 150.75 17.2854Q153.712 14.3826 153.712 10.0529L153.712-80.4761Q153.712-84.8058 150.75-87.7086Q147.788-90.6114 143.25-90.6114Q138.718-90.6114 135.756-87.7086Q132.793-84.8058 132.793-80.4761L132.793 10.0529Q132.793 14.3826 135.756 17.2854Q138.718 20.1882 143.25 20.1882ZM192.153 20.1882Q196.656 20.1882 199.621 17.2854Q202.586 14.3826 202.586 10.0529L202.586-80.4761Q202.586-84.8058 199.621-87.7086Q196.656-90.6114 192.153-90.6114Q187.616-90.6114 184.65-87.7086Q181.685-84.8058 181.685-80.4761L181.685 10.0529Q181.685 14.3826 184.65 17.2854Q187.616 20.1882 192.153 20.1882ZM28.5896 18.067Q30.998 18.067 33.228 17.4446Q35.4579 16.8221 37.7678 15.4559L103.054-22.75Q107.037-25.0539 109.434-28.0916Q111.832-31.1292 111.832-35.2846Q111.832-39.4399 109.482-42.3407Q107.132-45.2415 103.054-47.6644L37.7678-85.8405Q35.4072-87.2067 33.158-87.8292Q30.9088-88.4516 28.5004-88.4516Q23.4459-88.4516 19.765-84.802Q16.084-81.1524 16.084-74.3915L16.084 4.00686Q16.084 10.7231 19.8096 14.3951Q23.5352 18.067 28.5896 18.067ZM34.2665-2.44781Q33.8965-2.44781 33.6246-2.70903Q33.3527-2.97024 33.3527-3.49634L33.3527-66.8883Q33.3527-67.4144 33.6246-67.6786Q33.8965-67.9428 34.3111-67.9428Q34.5677-67.9428 34.7871-67.8831Q35.0065-67.8234 35.323-67.6026L89.0563-36.2398Q89.761-35.8605 89.761-35.2399Q89.761-34.6073 89.0563-34.1895L35.323-2.78202Q35.0571-2.60586 34.7901-2.52684Q34.5231-2.44781 34.2665-2.44781Z"/>
  </g>
  <g id="Bold-L" transform="matrix(1 0 0 1 2235.32 1556)">
   <path d="M138.483 18.7417Q142.116 18.7417 144.515 16.3899Q146.915 14.0381 146.915 10.5589L146.915-80.9666Q146.915-84.4458 144.515-86.7977Q142.116-89.1495 138.483-89.1495Q134.864-89.1495 132.465-86.7977Q130.065-84.4458 130.065-80.9666L130.065 10.5589Q130.065 14.0381 132.465 16.3899Q134.864 18.7417 138.483 18.7417ZM184.846 18.7417Q188.428 18.7417 190.834 16.3899Q193.241 14.0381 193.241 10.5589L193.241-80.9666Q193.241-84.4458 190.834-86.7977Q188.428-89.1495 184.846-89.1495Q181.213-89.1495 178.806-86.7977Q176.399-84.4458 176.399-80.9666L176.399 10.5589Q176.399 14.0381 178.806 16.3899Q181.213 18.7417 184.846 18.7417ZM27.1889 16.4745Q29.3776 16.4745 31.397 15.8639Q33.4163 15.2533 35.5345 14.007L100.562-24.1357Q104.169-26.2397 106.215-28.9577Q108.262-31.6756 108.262-35.2619Q108.262-38.8482 106.252-41.4714Q104.242-44.0947 100.562-46.2941L35.5345-84.3998Q33.3729-85.6461 31.346-86.2567Q29.3192-86.8673 27.1305-86.8673Q22.649-86.8673 19.3665-83.5945Q16.084-80.3217 16.084-74.1954L16.084 3.80256Q16.084 9.89968 19.3957 13.1871Q22.7074 16.4745 27.1889 16.4745ZM31.6458-0.35903Q31.1577-0.35903 30.7586-0.711554Q30.3595-1.06408 30.3595-1.85373L30.3595-68.5391Q30.3595-69.3287 30.7586-69.6883Q31.1577-70.048 31.675-70.048Q31.9951-70.048 32.2822-69.9569Q32.5693-69.8659 32.9976-69.5969L89.251-36.5795Q90.2626-36.0267 90.2626-35.2327Q90.2626-34.4103 89.251-33.8425L32.9976-0.795867Q32.6127-0.55611 32.2893-0.45757Q31.9659-0.35903 31.6458-0.35903Z"/>
  </g>
  <g id="Semibold-L" transform="matrix(1 0 0 1 1941.83 1556)">
   <path d="M135.197 17.7445Q138.206 17.7445 140.217 15.7726Q142.229 13.8006 142.229 10.9077L142.229-81.3048Q142.229-84.1977 140.217-86.1697Q138.206-88.1417 135.197-88.1417Q132.207-88.1417 130.196-86.1697Q128.184-84.1977 128.184-81.3048L128.184 10.9077Q128.184 13.8006 130.196 15.7726Q132.207 17.7445 135.197 17.7445ZM179.808 17.7445Q182.755 17.7445 184.777 15.7726Q186.798 13.8006 186.798 10.9077L186.798-81.3048Q186.798-84.1977 184.777-86.1697Q182.755-88.1417 179.808-88.1417Q176.799-88.1417 174.777-86.1697Q172.756-84.1977 172.756-81.3048L172.756 10.9077Q172.756 13.8006 174.777 15.7726Q176.799 17.7445 179.808 17.7445ZM26.2233 15.3767Q28.2605 15.3767 30.1347 14.7742Q32.0089 14.1717 33.9949 13.0081L98.844-25.0911Q102.192-27.0572 103.997-29.5548Q105.801-32.0523 105.801-35.2463Q105.801-38.4403 104.025-40.8722Q102.249-43.3041 98.844-45.3494L33.9949-83.4066Q31.9704-84.5701 30.0969-85.1726Q28.2234-85.7751 26.1861-85.7751Q22.0995-85.7751 19.0918-82.7621Q16.084-79.749 16.084-74.0602L16.084 3.66172Q16.084 9.33199 19.1103 12.3543Q22.1367 15.3767 26.2233 15.3767ZM29.839 1.08096Q29.2696 1.08096 28.7828 0.665493Q28.296 0.250024 28.296-0.721323L28.296-69.6771Q28.296-70.6485 28.7828-71.0739Q29.2696-71.4993 29.8576-71.4993Q30.2216-71.4993 30.5554-71.3866Q30.8891-71.274 31.3945-70.9718L89.3852-36.8136Q90.6083-36.1413 90.6083-35.2277Q90.6083-34.2744 89.3852-33.6034L31.3945 0.573373Q30.9276 0.856976 30.5653 0.968969Q30.2031 1.08096 29.839 1.08096Z"/>
  </g>
  <g id="Medium-L" transform="matrix(1 0 0 1 1647.56 1556)">
   <path d="M132.705 16.9884Q135.241 16.9884 136.958 15.3045Q138.676 13.6205 138.676 11.1721L138.676-81.5612Q138.676-84.0096 136.958-85.6935Q135.241-87.3775 132.705-87.3775Q130.193-87.3775 128.475-85.6935Q126.758-84.0096 126.758-81.5612L126.758 11.1721Q126.758 13.6205 128.475 15.3045Q130.193 16.9884 132.705 16.9884ZM175.988 16.9884Q178.454 16.9884 180.184 15.3045Q181.913 13.6205 181.913 11.1721L181.913-81.5612Q181.913-84.0096 180.184-85.6935Q178.454-87.3775 175.988-87.3775Q173.452-87.3775 171.722-85.6935Q169.993-84.0096 169.993-81.5612L169.993 11.1721Q169.993 13.6205 171.722 15.3045Q173.452 16.9884 175.988 16.9884ZM25.4911 14.5443Q27.4135 14.5443 29.1776 13.9479Q30.9417 13.3516 32.8274 12.2507L97.5413-25.8154Q100.694-27.677 102.314-30.0075Q103.934-32.338 103.934-35.2345Q103.934-38.131 102.337-40.4178Q100.739-42.7047 97.5413-44.633L32.8274-82.6535Q30.907-83.7543 29.1497-84.3507Q27.3924-84.947 25.47-84.947Q21.6829-84.947 18.8835-82.1309Q16.084-79.3148 16.084-73.9576L16.084 3.55493Q16.084 8.90155 18.894 11.7229Q21.704 14.5443 25.4911 14.5443ZM28.4691 2.17282Q27.838 2.17282 27.2847 1.70963Q26.7314 1.24643 26.7314 0.137315L26.7314-70.54Q26.7314-71.6491 27.2847-72.1244Q27.838-72.5997 28.4796-72.5997Q28.8769-72.5997 29.246-72.4707Q29.6152-72.3417 30.179-72.0143L89.4869-36.9912Q90.8705-36.2282 90.8705-35.2239Q90.8705-34.1714 89.4869-33.422L30.179 1.61159Q29.6498 1.92844 29.2581 2.05063Q28.8664 2.17282 28.4691 2.17282Z"/>
  </g>
  <g id="Regular-L" transform="matrix(1 0 0 1 1354.03 1556)">
   <path d="M129.455 16.0022Q131.374 16.0022 132.708 14.6939Q134.041 13.3856 134.041 11.5171L134.041-81.8957Q134.041-83.7642 132.708-85.0725Q131.374-86.3808 129.455-86.3808Q127.565-86.3808 126.232-85.0725Q124.898-83.7642 124.898-81.8957L124.898 11.5171Q124.898 13.3856 126.232 14.6939Q127.565 16.0022 129.455 16.0022ZM171.005 16.0022Q172.844 16.0022 174.193 14.6939Q175.541 13.3856 175.541 11.5171L175.541-81.8957Q175.541-83.7642 174.193-85.0725Q172.844-86.3808 171.005-86.3808Q169.086-86.3808 167.738-85.0725Q166.389-83.7642 166.389-81.8957L166.389 11.5171Q166.389 13.3856 167.738 14.6939Q169.086 16.0022 171.005 16.0022ZM24.536 13.4585Q26.3086 13.4585 27.9292 12.8702Q29.5497 12.2819 31.3047 11.2629L95.8421-26.7603Q98.7385-28.4855 100.119-30.598Q101.5-32.7105 101.5-35.219Q101.5-37.7275 100.134-39.8252Q98.7682-41.9228 95.8421-43.6987L31.3047-81.6712Q29.52-82.6902 27.9143-83.2785Q26.3086-83.8668 24.536-83.8668Q21.1395-83.8668 18.6118-81.3076Q16.084-78.7484 16.084-73.8239L16.084 3.41563Q16.084 8.3401 18.6118 10.8993Q21.1395 13.4585 24.536 13.4585ZM26.6822 3.59699Q25.9706 3.59699 25.3306 3.07154Q24.6906 2.54609 24.6906 1.25728L24.6906-71.6656Q24.6906-72.9544 25.3306-73.4947Q25.9706-74.035 26.6822-74.035Q27.1229-74.035 27.5382-73.8847Q27.9535-73.7343 28.5935-73.3741L89.6196-37.2228Q91.2125-36.3415 91.2125-35.219Q91.2125-34.037 89.6196-33.1855L28.5935 2.96578Q27.9832 3.32599 27.553 3.46149Q27.1229 3.59699 26.6822 3.59699Z"/>
  </g>
  <g id="Light-L" transform="matrix(1 0 0 1 1059.16 1556)">
   <path d="M127.054 14.8119Q128.521 14.8119 129.527 13.8217Q130.532 12.8315 130.532 11.394L130.532-81.7725Q130.532-83.2101 129.527-84.2003Q128.521-85.1905 127.054-85.1905Q125.636-85.1905 124.631-84.2003Q123.626-83.2101 123.626-81.7725L123.626 11.394Q123.626 12.8315 124.631 13.8217Q125.636 14.8119 127.054 14.8119ZM168.42 14.8119Q169.807 14.8119 170.837 13.8217Q171.868 12.8315 171.868 11.394L171.868-81.7725Q171.868-83.2101 170.837-84.2003Q169.807-85.1905 168.42-85.1905Q166.952-85.1905 165.922-84.2003Q164.891-83.2101 164.891-81.7725L164.891 11.394Q164.891 12.8315 165.922 13.8217Q166.952 14.8119 168.42 14.8119ZM23.6536 12.2887Q25.262 12.2887 26.7799 11.7107Q28.2979 11.1327 29.7656 10.2983L94.775-27.9916Q97.1173-29.409 98.3135-31.2034Q99.5098-32.9978 99.5098-35.2395Q99.5098-37.4813 98.3387-39.2505Q97.1675-41.0198 94.775-42.4674L29.7656-80.7272Q28.2476-81.5615 26.7548-82.1395Q25.262-82.7176 23.6536-82.7176Q20.6881-82.7176 18.386-80.4457Q16.084-78.1738 16.084-73.6803L16.084 3.25146Q16.084 7.74496 18.386 10.0168Q20.6881 12.2887 23.6536 12.2887ZM25.061 4.88988Q24.2468 4.88988 23.4426 4.25155Q22.6384 3.61323 22.6384 1.9345L22.6384-72.3633Q22.6384-74.0421 23.4426-74.7055Q24.2468-75.369 25.061-75.369Q25.5837-75.369 26.0914-75.1981Q26.599-75.0272 27.4032-74.5849L90.0301-37.5717Q91.8898-36.5262 91.8898-35.2395Q91.8898-33.8523 90.0301-32.8571L27.4032 4.15605Q26.6493 4.59836 26.1165 4.74412Q25.5837 4.88988 25.061 4.88988Z"/>
  </g>
  <g id="Thin-L" transform="matrix(1 0 0 1 764.876 1556)">
   <path d="M123.878 13.2377Q124.749 13.2377 125.32 12.6682Q125.891 12.0987 125.891 11.2311L125.891-81.6097Q125.891-82.4772 125.32-83.0467Q124.749-83.6162 123.878-83.6162Q123.085-83.6162 122.514-83.0467Q121.943-82.4772 121.943-81.6097L121.943 11.2311Q121.943 12.0987 122.514 12.6682Q123.085 13.2377 123.878 13.2377ZM165 13.2377Q165.79 13.2377 166.4 12.6682Q167.009 12.0987 167.009 11.2311L167.009-81.6097Q167.009-82.4772 166.4-83.0467Q165.79-83.6162 165-83.6162Q164.129-83.6162 163.519-83.0467Q162.91-82.4772 162.91-81.6097L162.91 11.2311Q162.91 12.0987 163.519 12.6682Q164.129 13.2377 165 13.2377ZM22.4865 10.7416Q23.8778 10.7416 25.26 10.1772Q26.6422 9.61275 27.7299 9.02265L93.3636-29.6201Q94.973-30.6304 95.925-32.0041Q96.877-33.3778 96.877-35.2667Q96.877-37.1556 95.9637-38.4906Q95.0504-39.8256 93.3636-40.8389L27.7299-79.4786Q26.5648-80.0687 25.2213-80.6332Q23.8778-81.1976 22.4865-81.1976Q20.0909-81.1976 18.0875-79.3057Q16.084-77.4138 16.084-73.4903L16.084 3.03432Q16.084 6.95784 18.0875 8.84974Q20.0909 10.7416 22.4865 10.7416ZM22.9168 6.59982Q21.9668 6.59982 20.9455 5.81222Q19.9242 5.02461 19.9242 2.83019L19.9242-73.2862Q19.9242-75.4806 20.9455-76.3069Q21.9668-77.1332 22.9168-77.1332Q23.5481-77.1332 24.1779-76.9352Q24.8076-76.7371 25.829-76.1863L90.5729-38.0331Q92.7854-36.7705 92.7854-35.2667Q92.7854-33.608 90.5729-32.4229L25.829 5.73029Q24.885 6.28116 24.2166 6.44049Q23.5481 6.59982 22.9168 6.59982Z"/>
  </g>
  <g id="Ultralight-L" transform="matrix(1 0 0 1 469.409 1556)">
   <path d="M122.252 12.4314Q122.816 12.4314 123.165 12.0773Q123.513 11.7233 123.513 11.1477L123.513-81.5263Q123.513-82.1019 123.165-82.4559Q122.816-82.8099 122.252-82.8099Q121.778-82.8099 121.429-82.4559Q121.081-82.1019 121.081-81.5263L121.081 11.1477Q121.081 11.7233 121.429 12.0773Q121.778 12.4314 122.252 12.4314ZM163.248 12.4314Q163.732 12.4314 164.127 12.0773Q164.521 11.7233 164.521 11.1477L164.521-81.5263Q164.521-82.1019 164.127-82.4559Q163.732-82.8099 163.248-82.8099Q162.683-82.8099 162.289-82.4559Q161.895-82.1019 161.895-81.5263L161.895 11.1477Q161.895 11.7233 162.289 12.0773Q162.683 12.4314 163.248 12.4314ZM21.8887 9.94923Q23.1688 9.94923 24.4815 9.39174Q25.7942 8.83424 26.6873 8.36926L92.6407-30.4542Q93.8748-31.256 94.7017-32.4142Q95.5285-33.5724 95.5285-35.2806Q95.5285-36.9887 94.7473-38.1013Q93.9661-39.2139 92.6407-40.0048L26.6873-78.8391Q25.7029-79.3041 24.4358-79.8616Q23.1688-80.4191 21.8887-80.4191Q19.7851-80.4191 17.9345-78.7218Q16.084-77.0246 16.084-73.393L16.084 2.9231Q16.084 6.55468 17.9345 8.25196Q19.7851 9.94923 21.8887 9.94923ZM21.8185 7.47564Q20.7991 7.47564 19.6665 6.61158Q18.534 5.74752 18.534 3.28895L18.534-73.7588Q18.534-76.2174 19.6665-77.1271Q20.7991-78.0368 21.8185-78.0368Q22.5054-78.0368 23.1978-77.8249Q23.8901-77.6129 25.0227-77.0065L90.8509-38.2694Q93.2442-36.8956 93.2442-35.2806Q93.2442-33.4829 90.8509-32.2004L25.0227 6.5366Q23.9814 7.14308 23.2434 7.30936Q22.5054 7.47564 21.8185 7.47564Z"/>
  </g>
  <g id="Black-M" transform="matrix(1 0 0 1 2842.49 1126)">
   <path d="M117.128 9.41287Q121.812 9.41287 124.817 6.4673Q127.823 3.52173 127.823-0.92835L127.823-69.5254Q127.823-73.9755 124.817-76.9211Q121.812-79.8666 117.128-79.8666Q112.444-79.8666 109.438-76.9211Q106.433-73.9755 106.433-69.5254L106.433-0.92835Q106.433 3.52173 109.438 6.4673Q112.444 9.41287 117.128 9.41287ZM158.665 9.41287Q163.343 9.41287 166.349 6.4673Q169.354 3.52173 169.354-0.92835L169.354-69.5254Q169.354-73.9755 166.349-76.9211Q163.343-79.8666 158.665-79.8666Q153.981-79.8666 150.975-76.9211Q147.97-73.9755 147.97-69.5254L147.97-0.92835Q147.97 3.52173 150.975 6.4673Q153.981 9.41287 158.665 9.41287ZM23.8954 7.98978Q26.0265 7.98978 28.0267 7.49379Q30.027 6.99781 31.999 5.8269L83.1177-23.9558Q86.5629-25.9281 88.8706-28.6402Q91.1784-31.3524 91.1784-35.3122Q91.1784-39.272 88.9276-41.8131Q86.6768-44.3541 83.1177-46.4461L31.999-76.2233Q29.9702-77.3942 27.9413-77.8902Q25.9123-78.3862 23.7813-78.3862Q19.1751-78.3862 15.818-75.106Q12.4609-71.8258 12.4609-65.8075L12.4609-4.58887Q12.4609 1.37234 15.8751 4.68106Q19.2893 7.98978 23.8954 7.98978ZM29.8244-12.4435Q29.6752-12.4435 29.5945-12.5509Q29.5138-12.6583 29.5138-12.8136L29.5138-57.5828Q29.5138-57.7381 29.5945-57.8453Q29.6752-57.9526 29.8815-57.9526Q30.0153-57.9526 30.1178-57.9451Q30.2203-57.9376 30.3581-57.809L68.851-35.6347Q69.0394-35.5384 69.0394-35.2551Q69.0394-34.9725 68.851-34.8188L30.3581-12.5874Q30.2771-12.5159 30.1176-12.4797Q29.9582-12.4435 29.8244-12.4435Z"/>
  </g>
  <g id="Heavy-M" transform="matrix(1 0 0 1 2549.47 1126)">
   <path d="M113.478 8.4045Q117.468 8.4045 120.052 5.8721Q122.637 3.3397 122.637-0.459755L122.637-69.9805Q122.637-73.78 120.052-76.3124Q117.468-78.8448 113.478-78.8448Q109.49-78.8448 106.906-76.3124Q104.322-73.78 104.322-69.9805L104.322-0.459755Q104.322 3.3397 106.906 5.8721Q109.49 8.4045 113.478 8.4045ZM152.834 8.4045Q156.806 8.4045 159.391 5.8721Q161.976 3.3397 161.976-0.459755L161.976-69.9805Q161.976-73.78 159.391-76.3124Q156.806-78.8448 152.834-78.8448Q148.844-78.8448 146.258-76.3124Q143.673-73.78 143.673-69.9805L143.673-0.459755Q143.673 3.3397 146.258 5.8721Q148.844 8.4045 152.834 8.4045ZM22.8609 6.84941Q24.8352 6.84941 26.6735 6.36154Q28.5118 5.87366 30.378 4.76793L81.1691-24.9023Q84.4054-26.7659 86.4458-29.2671Q88.4862-31.7682 88.4862-35.288Q88.4862-38.8079 86.4906-41.1769Q84.495-43.5459 81.1691-45.5131L30.378-75.1671Q28.4658-76.2728 26.6069-76.7607Q24.748-77.2485 22.7737-77.2485Q18.5756-77.2485 15.5183-74.2359Q12.4609-71.2233 12.4609-65.667L12.4609-4.73214Q12.4609 0.780565 15.5619 3.81499Q18.6629 6.84941 22.8609 6.84941ZM27.8824-10.8959Q27.6522-10.8959 27.4956-11.0588Q27.339-11.2218 27.339-11.5236L27.339-58.8755Q27.339-59.1774 27.4956-59.3415Q27.6522-59.5057 27.926-59.5057Q28.0978-59.5057 28.2396-59.4752Q28.3814-59.4448 28.5817-59.2917L68.9329-35.8566Q69.3322-35.644 69.3322-35.2444Q69.3322-34.84 68.9329-34.5861L28.5817-11.1074Q28.4275-10.998 28.2408-10.9469Q28.0542-10.8959 27.8824-10.8959Z"/>
  </g>
  <g id="Bold-M" transform="matrix(1 0 0 1 2256.89 1126)">
   <path d="M109.395 7.27649Q112.609 7.27649 114.722 5.20628Q116.835 3.13607 116.835 0.0644358L116.835-70.4897Q116.835-73.5613 114.722-75.6315Q112.609-77.7017 109.395-77.7017Q106.187-77.7017 104.074-75.6315Q101.961-73.5613 101.961-70.4897L101.961 0.0644358Q101.961 3.13607 104.074 5.20628Q106.187 7.27649 109.395 7.27649ZM146.312 7.27649Q149.492 7.27649 151.608 5.20628Q153.723 3.13607 153.723 0.0644358L153.723-70.4897Q153.723-73.5613 151.608-75.6315Q149.492-77.7017 146.312-77.7017Q143.098-77.7017 140.982-75.6315Q138.866-73.5613 138.866-70.4897L138.866 0.0644358Q138.866 3.13607 140.982 5.20628Q143.098 7.27649 146.312 7.27649ZM21.7037 5.57375Q23.5026 5.57375 25.1598 5.09495Q26.8169 4.61615 28.5646 3.58331L78.9894-25.9611Q81.9918-27.7032 83.7332-29.9683Q85.4747-32.2333 85.4747-35.261Q85.4747-38.2886 83.7646-40.4652Q82.0544-42.6419 78.9894-44.4694L28.5646-73.9855Q26.7828-75.0183 25.1142-75.4971Q23.4455-75.9759 21.6466-75.9759Q17.905-75.9759 15.183-73.2626Q12.4609-70.5493 12.4609-65.5098L12.4609-4.89241Q12.4609 0.118585 15.2115 2.84617Q17.9621 5.57375 21.7037 5.57375ZM25.71-9.16461Q25.389-9.16461 25.1476-9.3897Q24.9061-9.61479 24.9061-10.0806L24.9061-60.3216Q24.9061-60.7874 25.1476-61.0153Q25.389-61.2431 25.7386-61.2431Q25.9528-61.2431 26.1386-61.187Q26.3244-61.1308 26.5945-60.9503L69.0246-36.1049Q69.6598-35.7621 69.6598-35.2324Q69.6598-34.6917 69.0246-34.3259L26.5945-9.45185Q26.3585-9.29995 26.1414-9.23228Q25.9242-9.16461 25.71-9.16461Z"/>
  </g>
  <g id="Semibold-M" transform="matrix(1 0 0 1 1963.02 1126)">
   <path d="M106.58 6.49885Q109.259 6.49885 111.047 4.74727Q112.835 2.99569 112.835 0.42581L112.835-70.8406Q112.835-73.4105 111.047-75.1621Q109.259-76.9137 106.58-76.9137Q103.909-76.9137 102.121-75.1621Q100.333-73.4105 100.333-70.8406L100.333 0.42581Q100.333 2.99569 102.121 4.74727Q103.909 6.49885 106.58 6.49885ZM141.815 6.49885Q144.45 6.49885 146.242 4.74727Q148.034 2.99569 148.034 0.42581L148.034-70.8406Q148.034-73.4105 146.242-75.1621Q144.45-76.9137 141.815-76.9137Q139.136-76.9137 137.344-75.1621Q135.552-73.4105 135.552-70.8406L135.552 0.42581Q135.552 2.99569 137.344 4.74727Q139.136 6.49885 141.815 6.49885ZM20.9059 4.69431Q22.584 4.69431 24.1162 4.22177Q25.6484 3.74922 27.3144 2.76664L77.4867-26.691Q80.3279-28.3494 81.8632-30.4517Q83.3985-32.554 83.3985-35.2423Q83.3985-37.9306 81.8852-39.9746Q80.3719-42.0186 77.4867-43.7498L27.3144-73.171Q25.6226-74.1535 24.0851-74.6261Q22.5477-75.0986 20.8696-75.0986Q17.4427-75.0986 14.9518-72.5917Q12.4609-70.0847 12.4609-65.4014L12.4609-5.00289Q12.4609-0.33778 14.97 2.17826Q17.4791 4.69431 20.9059 4.69431ZM24.2124-7.9711Q23.8289-7.9711 23.5289-8.23903Q23.2288-8.50695 23.2288-9.08577L23.2288-61.3185Q23.2288-61.8974 23.5289-62.1691Q23.8289-62.4409 24.2306-62.4409Q24.4741-62.4409 24.6902-62.367Q24.9063-62.2931 25.2245-62.0938L69.0878-36.276Q69.8857-35.8435 69.8857-35.2241Q69.8857-34.5895 69.0878-34.1465L25.2245-8.31051Q24.9321-8.12934 24.694-8.05022Q24.4559-7.9711 24.2124-7.9711Z"/>
  </g>
  <g id="Medium-M" transform="matrix(1 0 0 1 1668.47 1126)">
   <path d="M104.446 5.90921Q106.719 5.90921 108.261 4.39923Q109.803 2.88925 109.803 0.699818L109.803-71.1068Q109.803-73.2962 108.261-74.8062Q106.719-76.3162 104.446-76.3162Q102.182-76.3162 100.64-74.8062Q99.0987-73.2962 99.0987-71.1068L99.0987 0.699818Q99.0987 2.88925 100.64 4.39923Q102.182 5.90921 104.446 5.90921ZM138.406 5.90921Q140.627 5.90921 142.173 4.39923Q143.72 2.88925 143.72 0.699818L143.72-71.1068Q143.72-73.2962 142.173-74.8062Q140.627-76.3162 138.406-76.3162Q136.132-76.3162 134.586-74.8062Q133.04-73.2962 133.04-71.1068L133.04 0.699818Q133.04 2.88925 134.586 4.39923Q136.132 5.90921 138.406 5.90921ZM20.301 4.02748Q21.8874 4.02748 23.3249 3.55968Q24.7624 3.09189 26.3665 2.14741L76.3472-27.2445Q79.0663-28.8393 80.4453-30.8182Q81.8243-32.7971 81.8243-35.2281Q81.8243-37.6592 80.4602-39.6026Q79.0961-41.546 76.3472-43.2042L26.3665-72.5533Q24.7429-73.4978 23.3049-73.9656Q21.8668-74.4334 20.2804-74.4334Q17.0922-74.4334 14.7766-72.0829Q12.4609-69.7324 12.4609-65.3193L12.4609-5.08667Q12.4609-0.683816 14.7868 1.67183Q17.1128 4.02748 20.301 4.02748ZM23.0769-7.06613Q22.6459-7.06613 22.3015-7.36654Q21.9571-7.66694 21.9571-8.33146L21.9571-62.0745Q21.9571-62.739 22.3015-63.044Q22.6459-63.349 23.0871-63.349Q23.3528-63.349 23.5919-63.2618Q23.8311-63.1745 24.1857-62.9608L69.1357-36.4057Q70.0569-35.9053 70.0569-35.2179Q70.0569-34.512 69.1357-34.0105L24.1857-7.44509Q23.8506-7.24174 23.5966-7.15393Q23.3425-7.06613 23.0769-7.06613Z"/>
  </g>
  <g id="Regular-M" transform="matrix(1 0 0 1 1374.57 1126)">
   <path d="M101.662 5.14012Q103.406 5.14012 104.627 3.94527Q105.847 2.75042 105.847 1.05722L105.847-71.4539Q105.847-73.1471 104.627-74.3419Q103.406-75.5368 101.662-75.5368Q99.9294-75.5368 98.7091-74.3419Q97.4888-73.1471 97.4888-71.4539L97.4888 1.05722Q97.4888 2.75042 98.7091 3.94527Q99.9294 5.14012 101.662 5.14012ZM133.959 5.14012Q135.64 5.14012 136.866 3.94527Q138.092 2.75042 138.092 1.05722L138.092-71.4539Q138.092-73.1471 136.866-74.3419Q135.64-75.5368 133.959-75.5368Q132.214-75.5368 130.988-74.3419Q129.762-73.1471 129.762-71.4539L129.762 1.05722Q129.762 2.75042 130.988 3.94527Q132.214 5.14012 133.959 5.14012ZM19.512 3.15771Q20.9788 3.15771 22.2928 2.6961Q23.6068 2.23449 25.1302 1.33972L74.861-27.9664Q77.4207-29.4784 78.5959-31.2963Q79.771-33.1142 79.771-35.2097Q79.771-37.3052 78.6015-39.1174Q77.4321-40.9296 74.861-42.4926L25.1302-71.7477Q23.5954-72.6425 22.2871-73.1041Q20.9788-73.5657 19.512-73.5657Q16.635-73.5657 14.548-71.4193Q12.4609-69.2729 12.4609-65.2121L12.4609-5.19594Q12.4609-1.13517 14.548 1.01127Q16.635 3.15771 19.512 3.15771ZM21.5957-5.88573Q21.1029-5.88573 20.7006-6.22851Q20.2983-6.57128 20.2983-7.34758L20.2983-63.0604Q20.2983-63.8367 20.7006-64.1852Q21.1029-64.5336 21.5957-64.5336Q21.8903-64.5336 22.1594-64.4288Q22.4286-64.324 22.8308-64.0917L69.1982-36.575Q70.2803-35.9858 70.2803-35.2097Q70.2803-34.4109 69.1982-33.833L22.8308-6.31629Q22.4399-6.08399 22.1651-5.98486Q21.8903-5.88573 21.5957-5.88573Z"/>
  </g>
  <g id="Light-M" transform="matrix(1 0 0 1 1079.5 1126)">
   <path d="M99.5096 4.07298Q100.849 4.07298 101.775 3.16331Q102.701 2.25364 102.701 0.946827L102.701-71.3435Q102.701-72.6503 101.775-73.56Q100.849-74.4697 99.5096-74.4697Q98.1999-74.4697 97.274-73.56Q96.348-72.6503 96.348-71.3435L96.348 0.946827Q96.348 2.25364 97.274 3.16331Q98.1999 4.07298 99.5096 4.07298ZM131.64 4.07298Q132.917 4.07298 133.858 3.16331Q134.799 2.25364 134.799 0.946827L134.799-71.3435Q134.799-72.6503 133.858-73.56Q132.917-74.4697 131.64-74.4697Q130.301-74.4697 129.36-73.56Q128.419-72.6503 128.419-71.3435L128.419 0.946827Q128.419 2.25364 129.36 3.16331Q130.301 4.07298 131.64 4.07298ZM18.7208 2.10897Q20.0405 2.10897 21.2624 1.65656Q22.4844 1.20414 23.7502 0.474967L73.9043-29.0703Q75.9672-30.3064 76.9767-31.8391Q77.9863-33.3718 77.9863-35.2281Q77.9863-37.0844 76.9916-38.6022Q75.9969-40.1201 73.9043-41.3887L23.7502-70.9014Q22.4547-71.6306 21.2476-72.083Q20.0405-72.5354 18.7208-72.5354Q16.2302-72.5354 14.3456-70.6465Q12.4609-68.7577 12.4609-65.0833L12.4609-5.34313Q12.4609-1.66874 14.3456 0.220116Q16.2302 2.10897 18.7208 2.10897ZM20.1422-4.7266Q19.5573-4.7266 19.0079-5.17056Q18.4584-5.61453 18.4584-6.74041L18.4584-63.686Q18.4584-64.8119 19.0079-65.2707Q19.5573-65.7296 20.1422-65.7296Q20.5104-65.7296 20.8623-65.6064Q21.2142-65.4832 21.7637-65.1773L69.5662-36.8878Q70.8874-36.1514 70.8874-35.2281Q70.8874-34.2453 69.5662-33.5386L21.7637-5.24915Q21.244-4.94326 20.8772-4.83493Q20.5104-4.7266 20.1422-4.7266Z"/>
  </g>
  <g id="Thin-M" transform="matrix(1 0 0 1 784.97 1126)">
   <path d="M96.6625 2.66159Q97.4665 2.66159 98.0031 2.12911Q98.5397 1.59662 98.5397 0.800822L98.5397-71.1975Q98.5397-71.9933 98.0031-72.5258Q97.4665-73.0583 96.6625-73.0583Q95.9125-73.0583 95.3759-72.5258Q94.8393-71.9933 94.8393-71.1975L94.8393 0.800822Q94.8393 1.59662 95.3759 2.12911Q95.9125 2.66159 96.6625 2.66159ZM128.574 2.66159Q129.316 2.66159 129.88 2.12911Q130.443 1.59662 130.443 0.800822L130.443-71.1975Q130.443-71.9933 129.88-72.5258Q129.316-73.0583 128.574-73.0583Q127.77-73.0583 127.207-72.5258Q126.643-71.9933 126.643-71.1975L126.643 0.800822Q126.643 1.59662 127.207 2.12911Q127.77 2.66159 128.574 2.66159ZM17.6744 0.721922Q18.7994 0.721922 19.8997 0.281676Q21-0.15857 21.9252-0.668738L72.6389-30.5304Q74.0448-31.4014 74.8353-32.5569Q75.6259-33.7125 75.6259-35.2524Q75.6259-36.7924 74.8624-37.9209Q74.0989-39.0494 72.6389-39.9286L21.9252-69.782Q20.946-70.2922 19.8727-70.7324Q18.7994-71.1727 17.6744-71.1727Q15.6948-71.1727 14.0779-69.6245Q12.4609-68.0763 12.4609-64.913L12.4609-5.5378Q12.4609-2.37443 14.0779-0.826253Q15.6948 0.721922 17.6744 0.721922ZM18.2198-3.19355Q17.5133-3.19355 16.7691-3.77135Q16.025-4.34915 16.025-5.93738L16.025-64.5134Q16.025-66.1016 16.7691-66.7064Q17.5133-67.3113 18.2198-67.3113Q18.6853-67.3113 19.1467-67.1638Q19.6082-67.0162 20.3523-66.613L70.0529-37.3015Q71.6904-36.3704 71.6904-35.2524Q71.6904-34.0263 70.0529-33.1493L20.3523-3.83777Q19.6622-3.43454 19.1738-3.31404Q18.6853-3.19355 18.2198-3.19355Z"/>
  </g>
  <g id="Ultralight-M" transform="matrix(1 0 0 1 489.375 1126)">
   <path d="M95.2042 1.93869Q95.734 1.93869 96.0712 1.59939Q96.4084 1.2601 96.4084 0.726039L96.4084-71.1227Q96.4084-71.6568 96.0712-71.9961Q95.734-72.3354 95.2042-72.3354Q94.7409-72.3354 94.4037-71.9961Q94.0666-71.6568 94.0666-71.1227L94.0666 0.726039Q94.0666 1.2601 94.4037 1.59939Q94.7409 1.93869 95.2042 1.93869ZM127.004 1.93869Q127.471 1.93869 127.842 1.59939Q128.212 1.2601 128.212 0.726039L128.212-71.1227Q128.212-71.6568 127.842-71.9961Q127.471-72.3354 127.004-72.3354Q126.474-72.3354 126.103-71.9961Q125.733-71.6568 125.733-71.1227L125.733 0.726039Q125.733 1.2601 126.103 1.59939Q126.474 1.93869 127.004 1.93869ZM17.1385 0.0114833Q18.1638 0.0114833 19.2018-0.422531Q20.2397-0.856545 20.9904-1.25454L71.9908-31.2782Q73.0602-31.9623 73.7385-32.9246Q74.4169-33.887 74.4169-35.2649Q74.4169-36.6428 73.7718-37.5719Q73.1267-38.5009 71.9908-39.1808L20.9904-69.2087Q20.1732-69.6067 19.1685-70.0407Q18.1638-70.4747 17.1385-70.4747Q15.4206-70.4747 13.9408-69.101Q12.4609-67.7273 12.4609-64.8257L12.4609-5.63751Q12.4609-2.73588 13.9408-1.3622Q15.4206 0.0114833 17.1385 0.0114833ZM17.2352-2.40832Q16.4663-2.40832 15.6224-3.05468Q14.7786-3.70103 14.7786-5.52608L14.7786-64.9371Q14.7786-66.7622 15.6224-67.4418Q16.4663-68.1214 17.2352-68.1214Q17.7505-68.1214 18.268-67.9614Q18.7856-67.8014 19.6294-67.3484L70.3021-37.5133Q72.1018-36.4826 72.1018-35.2649Q72.1018-33.9141 70.3021-32.9499L19.6294-3.11486Q18.8521-2.66178 18.3013-2.53505Q17.7505-2.40832 17.2352-2.40832Z"/>
  </g>
  <g id="Black-S" transform="matrix(1 0 0 1 2861.13 696)">
   <path d="M92.7734 0Q96.6309 0 99.0967-2.41699Q101.562-4.83398 101.562-8.49609L101.562-61.9629Q101.562-65.625 99.0967-68.042Q96.6309-70.459 92.7734-70.459Q88.916-70.459 86.4502-68.042Q83.9844-65.625 83.9844-61.9629L83.9844-8.49609Q83.9844-4.83398 86.4502-2.41699Q88.916 0 92.7734 0ZM125.977 0Q129.834 0 132.3-2.41699Q134.766-4.83398 134.766-8.49609L134.766-61.9629Q134.766-65.625 132.3-68.042Q129.834-70.459 125.977-70.459Q122.119-70.459 119.653-68.042Q117.188-65.625 117.188-61.9629L117.188-8.49609Q117.188-4.83398 119.653-2.41699Q122.119 0 125.977 0ZM18.9941-1.07422Q20.7031-1.07422 22.3145-1.46484Q23.9258-1.85547 25.4883-2.7832L65.6738-26.1719Q68.4082-27.7344 70.2881-29.9072Q72.168-32.0801 72.168-35.3027Q72.168-38.5254 70.3369-40.5518Q68.5059-42.5781 65.6738-44.2383L25.4883-67.627Q23.877-68.5547 22.2412-68.9453Q20.6055-69.3359 18.8965-69.3359Q15.1855-69.3359 12.4756-66.6992Q9.76562-64.0625 9.76562-59.2285L9.76562-11.1816Q9.76562-6.39648 12.5244-3.73535Q15.2832-1.07422 18.9941-1.07422ZM23.877-17.7734Q23.7793-17.7734 23.7305-17.8467Q23.6816-17.9199 23.6816-18.0176L23.6816-52.3926Q23.6816-52.4902 23.7305-52.5635Q23.7793-52.6367 23.9258-52.6367Q24.0234-52.6367 24.0967-52.6367Q24.1699-52.6367 24.2676-52.5391L53.9551-35.498Q54.0527-35.4492 54.0527-35.2539Q54.0527-35.0586 53.9551-34.9609L24.2676-17.8711Q24.2188-17.8223 24.0967-17.7979Q23.9746-17.7734 23.877-17.7734Z"/>
  </g>
  <g id="Heavy-S" transform="matrix(1 0 0 1 2567.37 696)">
   <path d="M89.9269-0.726041Q93.2427-0.726041 95.3858-2.82611Q97.5289-4.92618 97.5289-8.08121L97.5289-62.3662Q97.5289-65.5213 95.3858-67.6213Q93.2427-69.7214 89.9269-69.7214Q86.6111-69.7214 84.468-67.6213Q82.3249-65.5213 82.3249-62.3662L82.3249-8.08121Q82.3249-4.92618 84.468-2.82611Q86.6111-0.726041 89.9269-0.726041ZM121.286-0.726041Q124.59-0.726041 126.733-2.82611Q128.877-4.92618 128.877-8.08121L128.877-62.3662Q128.877-65.5213 126.733-67.6213Q124.59-69.7214 121.286-69.7214Q117.97-69.7214 115.827-67.6213Q113.684-65.5213 113.684-62.3662L113.684-8.08121Q113.684-4.92618 115.827-2.82611Q117.97-0.726041 121.286-0.726041ZM18.2105-1.9155Q19.8042-1.9155 21.2888-2.30037Q22.7733-2.68523 24.2782-3.57839L64.1295-26.8403Q66.7487-28.3452 68.4211-30.374Q70.0936-32.4028 70.0936-35.2797Q70.0936-38.1566 68.4584-40.0735Q66.8233-41.9904 64.1295-43.5814L24.2782-66.8318Q22.736-67.7249 21.2328-68.1098Q19.7296-68.4947 18.1359-68.4947Q14.7246-68.4947 12.2451-66.0538Q9.76562-63.613 9.76562-59.1248L9.76562-11.2854Q9.76562-6.83441 12.2824-4.37496Q14.7992-1.9155 18.2105-1.9155ZM22.4018-16.5979Q22.2465-16.5979 22.1516-16.7058Q22.0567-16.8136 22.0567-16.9919L22.0567-53.4183Q22.0567-53.5966 22.1516-53.7044Q22.2465-53.8122 22.4391-53.8122Q22.5598-53.8122 22.6561-53.7949Q22.7524-53.7776 22.8846-53.6685L53.9781-35.6479Q54.2256-35.5184 54.2256-35.2424Q54.2256-34.9664 53.9781-34.7996L22.8846-16.7417Q22.7897-16.6698 22.6561-16.6339Q22.5225-16.5979 22.4018-16.5979Z"/>
  </g>
  <g id="Bold-S" transform="matrix(1 0 0 1 2273.95 696)">
   <path d="M86.7432-1.53809Q89.4531-1.53809 91.2354-3.28369Q93.0176-5.0293 93.0176-7.61719L93.0176-62.8174Q93.0176-65.4053 91.2354-67.1509Q89.4531-68.8965 86.7432-68.8965Q84.0332-68.8965 82.251-67.1509Q80.4688-65.4053 80.4688-62.8174L80.4688-7.61719Q80.4688-5.0293 82.251-3.28369Q84.0332-1.53809 86.7432-1.53809ZM116.04-1.53809Q118.726-1.53809 120.508-3.28369Q122.29-5.0293 122.29-7.61719L122.29-62.8174Q122.29-65.4053 120.508-67.1509Q118.726-68.8965 116.04-68.8965Q113.33-68.8965 111.548-67.1509Q109.766-65.4053 109.766-62.8174L109.766-7.61719Q109.766-5.0293 111.548-3.28369Q113.33-1.53809 116.04-1.53809ZM17.334-2.85645Q18.7988-2.85645 20.1416-3.23486Q21.4844-3.61328 22.9248-4.46777L62.4023-27.5879Q64.8926-29.0283 66.333-30.896Q67.7734-32.7637 67.7734-35.2539Q67.7734-37.7441 66.3574-39.5386Q64.9414-41.333 62.4023-42.8467L22.9248-65.9424Q21.46-66.7969 20.105-67.1753Q18.75-67.5537 17.2852-67.5537Q14.209-67.5537 11.9873-65.332Q9.76562-63.1104 9.76562-59.0088L9.76562-11.4014Q9.76562-7.32422 12.0117-5.09033Q14.2578-2.85645 17.334-2.85645ZM20.752-15.2832Q20.5322-15.2832 20.3857-15.4297Q20.2393-15.5762 20.2393-15.8447L20.2393-54.5654Q20.2393-54.834 20.3857-54.9805Q20.5322-55.127 20.7764-55.127Q20.9229-55.127 21.0449-55.0903Q21.167-55.0537 21.3379-54.9316L54.0039-35.8154Q54.4189-35.5957 54.4189-35.2295Q54.4189-34.8633 54.0039-34.6191L21.3379-15.4785Q21.1914-15.3809 21.0449-15.332Q20.8984-15.2832 20.752-15.2832Z"/>
  </g>
  <g id="Semibold-S" transform="matrix(1 0 0 1 1979.51 696)">
   <path d="M84.5481-2.09795Q86.8404-2.09795 88.3738-3.59917Q89.9072-5.10039 89.9072-7.29727L89.9072-63.1284Q89.9072-65.3253 88.3738-66.8265Q86.8404-68.3277 84.5481-68.3277Q82.2559-68.3277 80.7225-66.8265Q79.1891-65.3253 79.1891-63.1284L79.1891-7.29727Q79.1891-5.10039 80.7225-3.59917Q82.2559-2.09795 84.5481-2.09795ZM112.423-2.09795Q114.682-2.09795 116.216-3.59917Q117.749-5.10039 117.749-7.29727L117.749-63.1284Q117.749-65.3253 116.216-66.8265Q114.682-68.3277 112.423-68.3277Q110.131-68.3277 108.597-66.8265Q107.064-65.3253 107.064-63.1284L107.064-7.29727Q107.064-5.10039 108.597-3.59917Q110.131-2.09795 112.423-2.09795ZM16.7297-3.50518Q18.1057-3.50518 19.3507-3.87915Q20.5957-4.25312 21.9917-5.08096L61.2115-28.1033Q63.6129-29.4993 64.8934-31.2559Q66.1738-33.0125 66.1738-35.2361Q66.1738-37.4598 64.9089-39.1698Q63.6439-40.8798 61.2115-42.3401L21.9917-65.3292Q20.5802-66.157 19.3274-66.531Q18.0746-66.905 16.6986-66.905Q13.8535-66.905 11.8096-64.8344Q9.76562-62.7638 9.76562-58.9288L9.76562-11.4813Q9.76562-7.66191 11.8251-5.58354Q13.8846-3.50518 16.7297-3.50518ZM19.6145-14.3768Q19.3503-14.3768 19.1683-14.5499Q18.9862-14.723 18.9862-15.0538L18.9862-55.3563Q18.9862-55.6871 19.1683-55.8603Q19.3503-56.0334 19.63-56.0334Q19.7942-56.0334 19.9341-55.9834Q20.0739-55.9335 20.2715-55.8025L54.0217-35.931Q54.5522-35.649 54.5522-35.2206Q54.5522-34.7922 54.0217-34.4947L20.2715-14.6076Q20.0895-14.4922 19.9341-14.4345Q19.7787-14.3768 19.6145-14.3768Z"/>
  </g>
  <g id="Medium-S" transform="matrix(1 0 0 1 1684.52 696)">
   <path d="M82.8838-2.52246Q84.8594-2.52246 86.2041-3.83838Q87.5488-5.1543 87.5488-7.05469L87.5488-63.3643Q87.5488-65.2646 86.2041-66.5806Q84.8594-67.8965 82.8838-67.8965Q80.9082-67.8965 79.5635-66.5806Q78.2188-65.2646 78.2188-63.3643L78.2188-7.05469Q78.2188-5.1543 79.5635-3.83838Q80.9082-2.52246 82.8838-2.52246ZM109.681-2.52246Q111.616-2.52246 112.961-3.83838Q114.306-5.1543 114.306-7.05469L114.306-63.3643Q114.306-65.2646 112.961-66.5806Q111.616-67.8965 109.681-67.8965Q107.705-67.8965 106.36-66.5806Q105.016-65.2646 105.016-63.3643L105.016-7.05469Q105.016-5.1543 106.36-3.83838Q107.705-2.52246 109.681-2.52246ZM16.2715-3.99707Q17.5801-3.99707 18.751-4.36768Q19.9219-4.73828 21.2842-5.5459L60.3086-28.4941Q62.6426-29.8564 63.8018-31.5288Q64.9609-33.2012 64.9609-35.2227Q64.9609-37.2441 63.8105-38.8901Q62.6602-40.5361 60.3086-41.9561L21.2842-64.8643Q19.9131-65.6719 18.7378-66.0425Q17.5625-66.4131 16.2539-66.4131Q13.584-66.4131 11.6748-64.457Q9.76562-62.501 9.76562-58.8682L9.76562-11.542Q9.76562-7.91797 11.6836-5.95752Q13.6016-3.99707 16.2715-3.99707ZM18.752-13.6895Q18.4541-13.6895 18.2451-13.8828Q18.0361-14.0762 18.0361-14.4541L18.0361-55.9561Q18.0361-56.334 18.2451-56.5273Q18.4541-56.7207 18.7607-56.7207Q18.9385-56.7207 19.0918-56.6606Q19.2451-56.6006 19.4629-56.4629L54.0352-36.0186Q54.6533-35.6895 54.6533-35.2139Q54.6533-34.7383 54.0352-34.4004L19.4629-13.9473Q19.2539-13.8184 19.0918-13.7539Q18.9297-13.6895 18.752-13.6895Z"/>
  </g>
  <g id="Regular-S" transform="matrix(1 0 0 1 1390.05 696)">
   <path d="M80.7129-3.07617Q82.2754-3.07617 83.374-4.15039Q84.4727-5.22461 84.4727-6.73828L84.4727-63.6719Q84.4727-65.1855 83.374-66.2598Q82.2754-67.334 80.7129-67.334Q79.1504-67.334 78.0518-66.2598Q76.9531-65.1855 76.9531-63.6719L76.9531-6.73828Q76.9531-5.22461 78.0518-4.15039Q79.1504-3.07617 80.7129-3.07617ZM106.104-3.07617Q107.617-3.07617 108.716-4.15039Q109.814-5.22461 109.814-6.73828L109.814-63.6719Q109.814-65.1855 108.716-66.2598Q107.617-67.334 106.104-67.334Q104.541-67.334 103.442-66.2598Q102.344-65.1855 102.344-63.6719L102.344-6.73828Q102.344-5.22461 103.442-4.15039Q104.541-3.07617 106.104-3.07617ZM15.6738-4.63867Q16.8945-4.63867 17.9688-5.00488Q19.043-5.37109 20.3613-6.15234L59.1309-29.0039Q61.377-30.3223 62.3779-31.8848Q63.3789-33.4473 63.3789-35.2051Q63.3789-36.9629 62.3779-38.5254Q61.377-40.0879 59.1309-41.4551L20.3613-64.2578Q19.043-65.0391 17.9688-65.4053Q16.8945-65.7715 15.6738-65.7715Q13.2324-65.7715 11.499-63.9648Q9.76562-62.1582 9.76562-58.7891L9.76562-11.6211Q9.76562-8.25195 11.499-6.44531Q13.2324-4.63867 15.6738-4.63867ZM17.627-12.793Q17.2852-12.793 17.041-13.0127Q16.7969-13.2324 16.7969-13.6719L16.7969-56.7383Q16.7969-57.1777 17.041-57.3975Q17.2852-57.6172 17.627-57.6172Q17.8223-57.6172 17.9932-57.5439Q18.1641-57.4707 18.4082-57.3242L54.0527-36.1328Q54.7852-35.7422 54.7852-35.2051Q54.7852-34.668 54.0527-34.2773L18.4082-13.0859Q18.1641-12.9395 17.9932-12.8662Q17.8223-12.793 17.627-12.793Z"/>
  </g>
  <g id="Light-S" transform="matrix(1 0 0 1 1094.8 696)">
   <path d="M78.8086-4.02018Q80.013-4.02018 80.8512-4.84212Q81.6895-5.66406 81.6895-6.83594L81.6895-63.5742Q81.6895-64.7461 80.8512-65.568Q80.013-66.39 78.8086-66.39Q77.6204-66.39 76.7822-65.568Q75.944-64.7461 75.944-63.5742L75.944-6.83594Q75.944-5.66406 76.7822-4.84212Q77.6204-4.02018 78.8086-4.02018ZM104.053-4.02018Q105.208-4.02018 106.055-4.84212Q106.901-5.66406 106.901-6.83594L106.901-63.5742Q106.901-64.7461 106.055-65.568Q105.208-66.39 104.053-66.39Q102.848-66.39 102.002-65.568Q101.156-64.7461 101.156-63.5742L101.156-6.83594Q101.156-5.66406 102.002-4.84212Q102.848-4.02018 104.053-4.02018ZM14.974-5.56641Q16.0645-5.56641 17.0573-5.92448Q18.0501-6.28255 19.1406-6.91732L58.2845-29.9805Q60.0911-31.0547 60.9456-32.3649Q61.8001-33.6751 61.8001-35.2214Q61.8001-36.7676 60.9538-38.0697Q60.1074-39.3717 58.2845-40.4785L19.1406-63.5091Q18.0339-64.1439 17.0492-64.502Q16.0645-64.86 14.974-64.86Q12.8743-64.86 11.32-63.2812Q9.76562-61.7025 9.76562-58.6751L9.76562-11.7513Q9.76562-8.72396 11.32-7.14518Q12.8743-5.56641 14.974-5.56641ZM16.3411-11.7676Q15.918-11.7676 15.5436-12.0768Q15.1693-12.3861 15.1693-13.1348L15.1693-57.2917Q15.1693-58.0404 15.5436-58.3577Q15.918-58.6751 16.3411-58.6751Q16.6016-58.6751 16.8457-58.5856Q17.0898-58.4961 17.4642-58.2845L54.3783-36.4095Q55.3223-35.8887 55.3223-35.2214Q55.3223-34.5215 54.3783-34.0169L17.4642-12.1419Q17.1061-11.9303 16.8538-11.849Q16.6016-11.7676 16.3411-11.7676Z"/>
  </g>
  <g id="Thin-S" transform="matrix(1 0 0 1 800.015 696)">
   <path d="M76.29-5.26871Q77.0209-5.26871 77.5146-5.75699Q78.0084-6.24527 78.0084-6.9651L78.0084-63.4451Q78.0084-64.1649 77.5146-64.6532Q77.0209-65.1414 76.29-65.1414Q75.597-65.1414 75.1032-64.6532Q74.6094-64.1649 74.6094-63.4451L74.6094-6.9651Q74.6094-6.24527 75.1032-5.75699Q75.597-5.26871 76.29-5.26871ZM101.34-5.26871Q102.022-5.26871 102.535-5.75699Q103.048-6.24527 103.048-6.9651L103.048-63.4451Q103.048-64.1649 102.535-64.6532Q102.022-65.1414 101.34-65.1414Q100.61-65.1414 100.097-64.6532Q99.5842-64.1649 99.5842-63.4451L99.5842-6.9651Q99.5842-6.24527 100.097-5.75699Q100.61-5.26871 101.34-5.26871ZM14.0483-6.79341Q14.9666-6.79341 15.8518-7.14072Q16.737-7.48803 17.5261-7.92906L57.1651-31.2721Q58.3906-32.0234 59.0513-32.9999Q59.7121-33.9765 59.7121-35.2429Q59.7121-36.5093 59.0702-37.4669Q58.4284-38.4246 57.1651-39.1869L17.5261-62.5189Q16.6992-62.9599 15.8329-63.3072Q14.9666-63.6545 14.0483-63.6545Q12.4008-63.6545 11.0832-62.3771Q9.76562-61.0997 9.76562-58.5244L9.76562-11.9235Q9.76562-9.34822 11.0832-8.07082Q12.4008-6.79341 14.0483-6.79341ZM14.6406-10.4114Q14.1098-10.4114 13.5632-10.8391Q13.0166-11.2667 13.0166-12.4244L13.0166-58.0236Q13.0166-59.1813 13.5632-59.6278Q14.1098-60.0743 14.6406-60.0743Q14.9871-60.0743 15.3281-59.9633Q15.6691-59.8523 16.2157-59.5546L54.8088-36.7755Q56.0326-36.0824 56.0326-35.2429Q56.0326-34.3277 54.8088-33.6725L16.2157-10.8934Q15.7069-10.5957 15.347-10.5036Q14.9871-10.4114 14.6406-10.4114Z"/>
  </g>
  <g id="Ultralight-S" transform="matrix(1 0 0 1 504.291 696)">
   <path d="M75-5.9082Q75.4883-5.9082 75.8057-6.22559Q76.123-6.54297 76.123-7.03125L76.123-63.3789Q76.123-63.8672 75.8057-64.1846Q75.4883-64.502 75-64.502Q74.5605-64.502 74.2432-64.1846Q73.9258-63.8672 73.9258-63.3789L73.9258-7.03125Q73.9258-6.54297 74.2432-6.22559Q74.5605-5.9082 75-5.9082ZM99.9512-5.9082Q100.391-5.9082 100.732-6.22559Q101.074-6.54297 101.074-7.03125L101.074-63.3789Q101.074-63.8672 100.732-64.1846Q100.391-64.502 99.9512-64.502Q99.4629-64.502 99.1211-64.1846Q98.7793-63.8672 98.7793-63.3789L98.7793-7.03125Q98.7793-6.54297 99.1211-6.22559Q99.4629-5.9082 99.9512-5.9082ZM13.5742-7.42188Q14.4043-7.42188 15.2344-7.76367Q16.0645-8.10547 16.6992-8.44727L56.5918-31.9336Q57.5195-32.5195 58.0811-33.3252Q58.6426-34.1309 58.6426-35.2539Q58.6426-36.377 58.1055-37.1582Q57.5684-37.9395 56.5918-38.5254L16.6992-62.0117Q16.0156-62.3535 15.21-62.6953Q14.4043-63.0371 13.5742-63.0371Q12.1582-63.0371 10.9619-61.9141Q9.76562-60.791 9.76562-58.4473L9.76562-12.0117Q9.76562-9.66797 10.9619-8.54492Q12.1582-7.42188 13.5742-7.42188ZM13.7695-9.7168Q13.1836-9.7168 12.5488-10.2051Q11.9141-10.6934 11.9141-12.0605L11.9141-58.3984Q11.9141-59.7656 12.5488-60.2783Q13.1836-60.791 13.7695-60.791Q14.1602-60.791 14.5508-60.6689Q14.9414-60.5469 15.5762-60.2051L55.0293-36.9629Q56.3965-36.1816 56.3965-35.2539Q56.3965-34.2285 55.0293-33.4961L15.5762-10.2539Q14.9902-9.91211 14.5752-9.81445Q14.1602-9.7168 13.7695-9.7168Z"/>
  </g>
 </g>
</svg>
