<?xml version="1.0" encoding="UTF-8"?>
<!--Generator: Apple Native CoreSVG 175-->
<!DOCTYPE svg
PUBLIC "-//W3C//DTD SVG 1.1//EN"
       "http://www.w3.org/Graphics/SVG/1.1/DTD/svg11.dtd">
<svg version="1.1" xmlns="http://www.w3.org/2000/svg" xmlns:xlink="http://www.w3.org/1999/xlink" width="3300" height="2200">
 <!--glyph: "uni10014D.medium", point size: 100.0, font version: "17.1d1e1", template writer version: "65.1"-->
 <g id="Notes">
  <rect height="2200" id="artboard" style="fill:white;opacity:1" width="3300" x="0" y="0"/>
  <line style="fill:none;stroke:black;opacity:1;stroke-width:0.5;" x1="263" x2="3036" y1="292" y2="292"/>
  <text style="stroke:none;fill:black;font-family:sans-serif;font-size:13;font-weight:bold;" transform="matrix(1 0 0 1 263 322)">Weight/Scale Variations</text>
  <text style="stroke:none;fill:black;font-family:sans-serif;font-size:13;text-anchor:middle;" transform="matrix(1 0 0 1 559.711 322)">Ultralight</text>
  <text style="stroke:none;fill:black;font-family:sans-serif;font-size:13;text-anchor:middle;" transform="matrix(1 0 0 1 856.422 322)">Thin</text>
  <text style="stroke:none;fill:black;font-family:sans-serif;font-size:13;text-anchor:middle;" transform="matrix(1 0 0 1 1153.13 322)">Light</text>
  <text style="stroke:none;fill:black;font-family:sans-serif;font-size:13;text-anchor:middle;" transform="matrix(1 0 0 1 1449.84 322)">Regular</text>
  <text style="stroke:none;fill:black;font-family:sans-serif;font-size:13;text-anchor:middle;" transform="matrix(1 0 0 1 1746.56 322)">Medium</text>
  <text style="stroke:none;fill:black;font-family:sans-serif;font-size:13;text-anchor:middle;" transform="matrix(1 0 0 1 2043.27 322)">Semibold</text>
  <text style="stroke:none;fill:black;font-family:sans-serif;font-size:13;text-anchor:middle;" transform="matrix(1 0 0 1 2339.98 322)">Bold</text>
  <text style="stroke:none;fill:black;font-family:sans-serif;font-size:13;text-anchor:middle;" transform="matrix(1 0 0 1 2636.69 322)">Heavy</text>
  <text style="stroke:none;fill:black;font-family:sans-serif;font-size:13;text-anchor:middle;" transform="matrix(1 0 0 1 2933.4 322)">Black</text>
  <line style="fill:none;stroke:black;opacity:1;stroke-width:0.5;" x1="263" x2="3036" y1="1903" y2="1903"/>
  <g transform="matrix(1 0 0 1 263 1933)">
   <path d="M9.24805 0.830078Q10.8691 0.830078 12.2949 0.214844Q13.7207-0.400391 14.8096-1.49414Q15.8984-2.58789 16.5186-4.01367Q17.1387-5.43945 17.1387-7.05078Q17.1387-8.66211 16.5186-10.0879Q15.8984-11.5137 14.8047-12.6074Q13.7109-13.7012 12.2852-14.3164Q10.8594-14.9316 9.23828-14.9316Q7.62695-14.9316 6.20117-14.3164Q4.77539-13.7012 3.69141-12.6074Q2.60742-11.5137 1.9873-10.0879Q1.36719-8.66211 1.36719-7.05078Q1.36719-5.43945 1.9873-4.01367Q2.60742-2.58789 3.69629-1.49414Q4.78516-0.400391 6.21094 0.214844Q7.63672 0.830078 9.24805 0.830078ZM9.24805-0.654297Q7.91992-0.654297 6.7627-1.14746Q5.60547-1.64062 4.73145-2.51953Q3.85742-3.39844 3.36426-4.56055Q2.87109-5.72266 2.87109-7.05078Q2.87109-8.37891 3.35938-9.54102Q3.84766-10.7031 4.72168-11.582Q5.5957-12.4609 6.75293-12.9541Q7.91016-13.4473 9.23828-13.4473Q10.5762-13.4473 11.7334-12.9541Q12.8906-12.4609 13.7695-11.582Q14.6484-10.7031 15.1465-9.54102Q15.6445-8.37891 15.6445-7.05078Q15.6445-5.72266 15.1514-4.56055Q14.6582-3.39844 13.7842-2.51953Q12.9102-1.64062 11.748-1.14746Q10.5859-0.654297 9.24805-0.654297ZM5.6543-7.05078Q5.6543-6.72852 5.85938-6.52832Q6.06445-6.32812 6.40625-6.32812L8.51562-6.32812L8.51562-4.20898Q8.51562-3.88672 8.71094-3.67676Q8.90625-3.4668 9.23828-3.4668Q9.56055-3.4668 9.77051-3.67676Q9.98047-3.88672 9.98047-4.20898L9.98047-6.32812L12.0898-6.32812Q12.4219-6.32812 12.627-6.52832Q12.832-6.72852 12.832-7.05078Q12.832-7.38281 12.627-7.58789Q12.4219-7.79297 12.0898-7.79297L9.98047-7.79297L9.98047-9.90234Q9.98047-10.2344 9.77051-10.4443Q9.56055-10.6543 9.23828-10.6543Q8.90625-10.6543 8.71094-10.4443Q8.51562-10.2344 8.51562-9.90234L8.51562-7.79297L6.40625-7.79297Q6.06445-7.79297 5.85938-7.58789Q5.6543-7.38281 5.6543-7.05078Z"/>
  </g>
  <g transform="matrix(1 0 0 1 281.867 1933)">
   <path d="M11.709 2.91016Q13.75 2.91016 15.5518 2.12891Q17.3535 1.34766 18.7305-0.0292969Q20.1074-1.40625 20.8887-3.20801Q21.6699-5.00977 21.6699-7.05078Q21.6699-9.0918 20.8887-10.8936Q20.1074-12.6953 18.7305-14.0723Q17.3535-15.4492 15.5469-16.2305Q13.7402-17.0117 11.6992-17.0117Q9.6582-17.0117 7.85645-16.2305Q6.05469-15.4492 4.68262-14.0723Q3.31055-12.6953 2.5293-10.8936Q1.74805-9.0918 1.74805-7.05078Q1.74805-5.00977 2.5293-3.20801Q3.31055-1.40625 4.6875-0.0292969Q6.06445 1.34766 7.86621 2.12891Q9.66797 2.91016 11.709 2.91016ZM11.709 1.25Q9.98047 1.25 8.47656 0.605469Q6.97266-0.0390625 5.83496-1.17676Q4.69727-2.31445 4.05762-3.81836Q3.41797-5.32227 3.41797-7.05078Q3.41797-8.7793 4.05762-10.2832Q4.69727-11.7871 5.83008-12.9297Q6.96289-14.0723 8.4668-14.7119Q9.9707-15.3516 11.6992-15.3516Q13.4277-15.3516 14.9316-14.7119Q16.4355-14.0723 17.5781-12.9297Q18.7207-11.7871 19.3652-10.2832Q20.0098-8.7793 20.0098-7.05078Q20.0098-5.32227 19.3701-3.81836Q18.7305-2.31445 17.5928-1.17676Q16.4551-0.0390625 14.9463 0.605469Q13.4375 1.25 11.709 1.25ZM7.17773-7.05078Q7.17773-6.69922 7.41211-6.47461Q7.64648-6.25 8.01758-6.25L10.8887-6.25L10.8887-3.36914Q10.8887-2.99805 11.1133-2.76855Q11.3379-2.53906 11.6895-2.53906Q12.0605-2.53906 12.29-2.76855Q12.5195-2.99805 12.5195-3.36914L12.5195-6.25L15.4004-6.25Q15.7715-6.25 16.001-6.47461Q16.2305-6.69922 16.2305-7.05078Q16.2305-7.42188 16.001-7.65137Q15.7715-7.88086 15.4004-7.88086L12.5195-7.88086L12.5195-10.752Q12.5195-11.1328 12.29-11.3623Q12.0605-11.5918 11.6895-11.5918Q11.3379-11.5918 11.1133-11.3574Q10.8887-11.123 10.8887-10.752L10.8887-7.88086L8.01758-7.88086Q7.63672-7.88086 7.40723-7.65137Q7.17773-7.42188 7.17773-7.05078Z"/>
  </g>
  <g transform="matrix(1 0 0 1 305.646 1933)">
   <path d="M14.9707 5.66406Q17.0605 5.66406 18.96 5.01465Q20.8594 4.36523 22.4512 3.19336Q24.043 2.02148 25.2197 0.429688Q26.3965-1.16211 27.0459-3.06641Q27.6953-4.9707 27.6953-7.05078Q27.6953-9.14062 27.0459-11.04Q26.3965-12.9395 25.2197-14.5312Q24.043-16.123 22.4512-17.2998Q20.8594-18.4766 18.9551-19.126Q17.0508-19.7754 14.9609-19.7754Q12.8711-19.7754 10.9717-19.126Q9.07227-18.4766 7.48535-17.2998Q5.89844-16.123 4.72168-14.5312Q3.54492-12.9395 2.90039-11.04Q2.25586-9.14062 2.25586-7.05078Q2.25586-4.9707 2.90527-3.06641Q3.55469-1.16211 4.72656 0.429688Q5.89844 2.02148 7.49023 3.19336Q9.08203 4.36523 10.9814 5.01465Q12.8809 5.66406 14.9707 5.66406ZM14.9707 3.84766Q13.1641 3.84766 11.5283 3.2959Q9.89258 2.74414 8.53516 1.74805Q7.17773 0.751953 6.17676-0.610352Q5.17578-1.97266 4.62891-3.6084Q4.08203-5.24414 4.08203-7.05078Q4.08203-8.86719 4.62891-10.5029Q5.17578-12.1387 6.17188-13.501Q7.16797-14.8633 8.52539-15.8594Q9.88281-16.8555 11.5186-17.4023Q13.1543-17.9492 14.9609-17.9492Q16.7773-17.9492 18.4131-17.4023Q20.0488-16.8555 21.4111-15.8594Q22.7734-14.8633 23.7695-13.501Q24.7656-12.1387 25.3174-10.5029Q25.8691-8.86719 25.8691-7.05078Q25.8789-5.24414 25.332-3.6084Q24.7852-1.97266 23.7842-0.610352Q22.7832 0.751953 21.4209 1.74805Q20.0586 2.74414 18.4229 3.2959Q16.7871 3.84766 14.9707 3.84766ZM9.19922-7.05078Q9.19922-6.66992 9.45801-6.4209Q9.7168-6.17188 10.1172-6.17188L14.0625-6.17188L14.0625-2.2168Q14.0625-1.81641 14.3115-1.55762Q14.5605-1.29883 14.9512-1.29883Q15.3516-1.29883 15.6104-1.55273Q15.8691-1.80664 15.8691-2.2168L15.8691-6.17188L19.8242-6.17188Q20.2246-6.17188 20.4785-6.4209Q20.7324-6.66992 20.7324-7.05078Q20.7324-7.46094 20.4785-7.71484Q20.2246-7.96875 19.8242-7.96875L15.8691-7.96875L15.8691-11.9141Q15.8691-12.3242 15.6104-12.583Q15.3516-12.8418 14.9512-12.8418Q14.5605-12.8418 14.3115-12.583Q14.0625-12.3242 14.0625-11.9141L14.0625-7.96875L10.1172-7.96875Q9.70703-7.96875 9.45312-7.71484Q9.19922-7.46094 9.19922-7.05078Z"/>
  </g>
  <text style="stroke:none;fill:black;font-family:sans-serif;font-size:13;font-weight:bold;" transform="matrix(1 0 0 1 263 1953)">Design Variations</text>
  <text style="stroke:none;fill:black;font-family:sans-serif;font-size:13;" transform="matrix(1 0 0 1 263 1971)">Symbols are supported in up to nine weights and three scales.</text>
  <text style="stroke:none;fill:black;font-family:sans-serif;font-size:13;" transform="matrix(1 0 0 1 263 1989)">For optimal layout with text and other symbols, vertically align</text>
  <text style="stroke:none;fill:black;font-family:sans-serif;font-size:13;" transform="matrix(1 0 0 1 263 2007)">symbols with the adjacent text.</text>
  <line style="fill:none;stroke:#00AEEF;stroke-width:0.5;opacity:1.0;" x1="776" x2="776" y1="1919" y2="1933"/>
  <g transform="matrix(1 0 0 1 776 1933)">
   <path d="M3.31055 0.15625Q3.70117 0.15625 3.91602-0.00976562Q4.13086-0.175781 4.26758-0.585938L5.52734-4.0332L11.2891-4.0332L12.5488-0.585938Q12.6855-0.175781 12.9004-0.00976562Q13.1152 0.15625 13.4961 0.15625Q13.8867 0.15625 14.1162-0.0585938Q14.3457-0.273438 14.3457-0.644531Q14.3457-0.869141 14.2383-1.17188L9.6582-13.3691Q9.48242-13.8184 9.17969-14.043Q8.87695-14.2676 8.4082-14.2676Q7.5-14.2676 7.17773-13.3789L2.59766-1.16211Q2.49023-0.859375 2.49023-0.634766Q2.49023-0.263672 2.70996-0.0537109Q2.92969 0.15625 3.31055 0.15625ZM6.00586-5.51758L8.37891-12.0898L8.42773-12.0898L10.8008-5.51758Z"/>
  </g>
  <line style="fill:none;stroke:#00AEEF;stroke-width:0.5;opacity:1.0;" x1="793.197" x2="793.197" y1="1919" y2="1933"/>
  <text style="stroke:none;fill:black;font-family:sans-serif;font-size:13;font-weight:bold;" transform="matrix(1 0 0 1 776 1953)">Margins</text>
  <text style="stroke:none;fill:black;font-family:sans-serif;font-size:13;" transform="matrix(1 0 0 1 776 1971)">Leading and trailing margins on the left and right side of each symbol</text>
  <text style="stroke:none;fill:black;font-family:sans-serif;font-size:13;" transform="matrix(1 0 0 1 776 1989)">can be adjusted by modifying the x-location of the margin guidelines.</text>
  <text style="stroke:none;fill:black;font-family:sans-serif;font-size:13;" transform="matrix(1 0 0 1 776 2007)">Modifications are automatically applied proportionally to all</text>
  <text style="stroke:none;fill:black;font-family:sans-serif;font-size:13;" transform="matrix(1 0 0 1 776 2025)">scales and weights.</text>
  <g transform="matrix(1 0 0 1 1289 1933)">
   <path d="M2.8418 1.86523L4.54102 3.57422Q5.18555 4.22852 5.90332 4.17969Q6.62109 4.13086 7.31445 3.35938L18.0078-8.42773L17.041-9.4043L6.42578 2.27539Q6.16211 2.57812 5.89355 2.61719Q5.625 2.65625 5.27344 2.30469L4.10156 1.14258Q3.75 0.791016 3.79395 0.522461Q3.83789 0.253906 4.14062-0.0195312L15.6152-10.8203L14.6387-11.7871L3.04688-0.898438Q2.30469-0.214844 2.25098 0.498047Q2.19727 1.21094 2.8418 1.86523ZM9.25781-16.3281Q8.94531-16.0254 8.90625-15.6348Q8.86719-15.2441 9.04297-14.9512Q9.21875-14.6777 9.55566-14.541Q9.89258-14.4043 10.3809-14.5215Q11.4746-14.7754 12.5977-14.7314Q13.7207-14.6875 14.7949-13.9844L14.209-12.5293Q13.9551-11.9043 14.0674-11.4404Q14.1797-10.9766 14.5801-10.5664L16.875-8.25195Q17.2363-7.88086 17.5781-7.82227Q17.9199-7.76367 18.3398-7.8418L19.4043-8.03711L20.0684-7.36328L20.0293-6.80664Q20-6.43555 20.1221-6.12305Q20.2441-5.81055 20.6055-5.44922L21.3672-4.70703Q21.7285-4.3457 22.1533-4.33105Q22.5781-4.31641 22.9297-4.66797L25.8398-7.58789Q26.1914-7.93945 26.1816-8.35449Q26.1719-8.76953 25.8105-9.13086L25.0391-9.89258Q24.6875-10.2539 24.3799-10.3857Q24.0723-10.5176 23.7109-10.4883L23.1348-10.4395L22.4902-11.0742L22.7344-12.1973Q22.832-12.6172 22.6953-12.9834Q22.5586-13.3496 22.1191-13.7891L19.9219-15.9766Q18.6719-17.2168 17.2607-17.8369Q15.8496-18.457 14.4189-18.4814Q12.9883-18.5059 11.665-17.959Q10.3418-17.4121 9.25781-16.3281ZM10.752-15.957Q11.6602-16.6211 12.7002-16.9043Q13.7402-17.1875 14.8047-17.085Q15.8691-16.9824 16.8701-16.5137Q17.8711-16.0449 18.7012-15.2051L21.1328-12.793Q21.3086-12.6172 21.3525-12.4512Q21.3965-12.2852 21.3379-12.0312L21.0156-10.5469L22.5195-9.0625L23.5059-9.12109Q23.6914-9.13086 23.7891-9.09668Q23.8867-9.0625 24.0332-8.91602L24.6094-8.33984L22.168-5.89844L21.5918-6.47461Q21.4453-6.62109 21.4062-6.71875Q21.3672-6.81641 21.377-7.01172L21.4453-7.98828L19.9512-9.47266L18.4277-9.21875Q18.1836-9.16992 18.042-9.2041Q17.9004-9.23828 17.7148-9.41406L15.7129-11.416Q15.5176-11.5918 15.4932-11.7529Q15.4688-11.9141 15.5859-12.1875L16.4648-14.2773Q15.293-15.3711 13.8281-15.791Q12.3633-16.2109 10.8398-15.7617Q10.7227-15.7324 10.6885-15.8057Q10.6543-15.8789 10.752-15.957Z"/>
  </g>
  <text style="stroke:none;fill:black;font-family:sans-serif;font-size:13;font-weight:bold;" transform="matrix(1 0 0 1 1289 1953)">Exporting</text>
  <text style="stroke:none;fill:black;font-family:sans-serif;font-size:13;" transform="matrix(1 0 0 1 1289 1971)">Symbols should be outlined when exporting to ensure the</text>
  <text style="stroke:none;fill:black;font-family:sans-serif;font-size:13;" transform="matrix(1 0 0 1 1289 1989)">design is preserved when submitting to Xcode.</text>
  <text id="template-version" style="stroke:none;fill:black;font-family:sans-serif;font-size:13;text-anchor:end;" transform="matrix(1 0 0 1 3036 1933)">Template v.2.0</text>
  <text style="stroke:none;fill:black;font-family:sans-serif;font-size:13;text-anchor:end;" transform="matrix(1 0 0 1 3036 1951)">Requires Xcode 12 or greater</text>
  <text id="descriptive-name" style="stroke:none;fill:black;font-family:sans-serif;font-size:13;text-anchor:end;" transform="matrix(1 0 0 1 3036 1969)">Generated from questionmark</text>
  <text style="stroke:none;fill:black;font-family:sans-serif;font-size:13;text-anchor:end;" transform="matrix(1 0 0 1 3036 1987)">Typeset at 100 points</text>
  <text style="stroke:none;fill:black;font-family:sans-serif;font-size:13;" transform="matrix(1 0 0 1 263 726)">Small</text>
  <text style="stroke:none;fill:black;font-family:sans-serif;font-size:13;" transform="matrix(1 0 0 1 263 1156)">Medium</text>
  <text style="stroke:none;fill:black;font-family:sans-serif;font-size:13;" transform="matrix(1 0 0 1 263 1586)">Large</text>
 </g>
 <g id="Guides">
  <g id="H-reference" style="fill:#27AAE1;stroke:none;" transform="matrix(1 0 0 1 339 696)">
   <path d="M0.976562 0L3.66211 0L29.3457-67.1387L30.0293-67.1387L30.0293-70.459L28.125-70.459ZM11.6699-24.4629L46.9727-24.4629L46.2402-26.709L12.4512-26.709ZM55.127 0L57.7637 0L30.6152-70.459L29.4434-70.459L29.4434-67.1387Z"/>
  </g>
  <line id="Baseline-S" style="fill:none;stroke:#27AAE1;opacity:1;stroke-width:0.5;" x1="263" x2="3036" y1="696" y2="696"/>
  <line id="Capline-S" style="fill:none;stroke:#27AAE1;opacity:1;stroke-width:0.5;" x1="263" x2="3036" y1="625.541" y2="625.541"/>
  <g id="H-reference" style="fill:#27AAE1;stroke:none;" transform="matrix(1 0 0 1 339 1126)">
   <path d="M0.976562 0L3.66211 0L29.3457-67.1387L30.0293-67.1387L30.0293-70.459L28.125-70.459ZM11.6699-24.4629L46.9727-24.4629L46.2402-26.709L12.4512-26.709ZM55.127 0L57.7637 0L30.6152-70.459L29.4434-70.459L29.4434-67.1387Z"/>
  </g>
  <line id="Baseline-M" style="fill:none;stroke:#27AAE1;opacity:1;stroke-width:0.5;" x1="263" x2="3036" y1="1126" y2="1126"/>
  <line id="Capline-M" style="fill:none;stroke:#27AAE1;opacity:1;stroke-width:0.5;" x1="263" x2="3036" y1="1055.54" y2="1055.54"/>
  <g id="H-reference" style="fill:#27AAE1;stroke:none;" transform="matrix(1 0 0 1 339 1556)">
   <path d="M0.976562 0L3.66211 0L29.3457-67.1387L30.0293-67.1387L30.0293-70.459L28.125-70.459ZM11.6699-24.4629L46.9727-24.4629L46.2402-26.709L12.4512-26.709ZM55.127 0L57.7637 0L30.6152-70.459L29.4434-70.459L29.4434-67.1387Z"/>
  </g>
  <line id="Baseline-L" style="fill:none;stroke:#27AAE1;opacity:1;stroke-width:0.5;" x1="263" x2="3036" y1="1556" y2="1556"/>
  <line id="Capline-L" style="fill:none;stroke:#27AAE1;opacity:1;stroke-width:0.5;" x1="263" x2="3036" y1="1485.54" y2="1485.54"/>
  <line id="left-margin" style="fill:none;stroke:#00AEEF;stroke-width:0.5;opacity:1.0;" x1="1410.85" x2="1410.85" y1="1030.79" y2="1150.12"/>
  <line id="right-margin" style="fill:none;stroke:#00AEEF;stroke-width:0.5;opacity:1.0;" x1="1488.84" x2="1488.84" y1="1030.79" y2="1150.12"/>
 </g>
 <g id="Symbols">
  <g id="Black-L" transform="matrix(1 0 0 1 2877.46 1556)">
   <path d="M52.0361-11.4226Q56.5859-11.4226 59.5429-13.5227Q62.4999-15.6228 63.5513-19.6238Q63.6097-19.8505 63.6681-20.1733Q63.7265-20.4962 63.7849-20.7229Q64.3897-23.5108 65.7134-25.557Q67.0372-27.6033 69.9628-29.8282Q72.8885-32.053 78.2158-35.1866Q87.0923-40.498 91.449-46.9315Q95.8057-53.365 95.8057-62.2617Q95.8057-72.2808 90.7117-79.506Q85.6177-86.7312 76.5417-90.6305Q67.4658-94.5299 55.4738-94.5299Q42.1666-94.5299 32.4571-89.8235Q22.7477-85.1172 18.5476-77.3095Q17.3321-75.0823 16.708-72.6663Q16.084-70.2503 16.084-67.8463Q16.0256-62.6057 19.3214-59.4028Q22.6172-56.1999 28.212-56.1999Q32.3185-56.1999 35.5766-58.1784Q38.8347-60.1569 40.5047-63.6988Q42.5734-68.6589 45.9975-70.82Q49.4217-72.9812 54.1217-72.9812Q57.896-72.9812 60.8702-71.5757Q63.8444-70.1702 65.6097-67.6489Q67.3749-65.1277 67.3749-61.7567Q67.3749-58.1306 66.0749-55.5064Q64.7748-52.8822 61.7319-50.4336Q58.6889-47.9849 53.518-44.8796Q49.2796-42.3443 46.1261-39.394Q42.9727-36.4436 41.2478-32.8719Q39.523-29.3002 39.523-24.7857Q39.523-24.4917 39.523-24.1692Q39.523-23.8467 39.523-23.4956Q39.523-18.0721 42.9783-14.7474Q46.4337-11.4226 52.0361-11.4226ZM52.3697 25.8448Q58.6363 25.8448 63.0522 21.671Q67.4681 17.4972 67.4681 11.5057Q67.4681 5.55312 63.0522 1.38971Q58.6363-2.7737 52.3697-2.7737Q46.1458-2.7737 41.7488 1.38971Q37.3518 5.55312 37.3518 11.5057Q37.3518 17.4972 41.7488 21.671Q46.1458 25.8448 52.3697 25.8448Z"/>
  </g>
  <g id="Heavy-L" transform="matrix(1 0 0 1 2582.15 1556)">
   <path d="M50.8385-10.9141Q55.0197-10.9141 57.625-12.9604Q60.2303-15.0066 61.0336-18.7178Q61.0782-19.0528 61.1228-19.4473Q61.1674-19.8418 61.212-20.1769Q61.688-23.2974 62.9866-25.5566Q64.2852-27.8157 67.1953-30.1639Q70.1055-32.5121 75.3839-35.7297Q84.1025-41.1224 88.5445-47.5958Q92.9866-54.0692 92.9866-62.9769Q92.9866-72.8459 88.0135-79.9236Q83.0404-87.0012 74.2767-90.809Q65.513-94.6169 54.1204-94.6169Q41.4281-94.6169 31.973-89.8364Q22.5178-85.056 18.3851-76.9261Q17.2299-74.7222 16.6569-72.3879Q16.084-70.0536 16.084-67.8031Q16.0394-63.2145 18.8915-60.3934Q21.7437-57.5724 26.6447-57.5724Q30.3111-57.5724 33.1484-59.3789Q35.9857-61.1854 37.411-64.4028Q39.5458-70.3594 43.5394-72.9686Q47.5331-75.5778 52.9987-75.5778Q57.3599-75.5778 60.8284-73.9632Q64.2969-72.3486 66.3508-69.4401Q68.4048-66.5316 68.4048-62.6051Q68.4048-58.7769 67.0016-55.9655Q65.5984-53.1541 62.536-50.5926Q59.4735-48.0312 54.5375-44.9591Q50.1038-42.1873 46.793-39.0532Q43.4822-35.9191 41.6582-32.1509Q39.8342-28.3826 39.8342-23.6252Q39.8342-23.1502 39.8342-22.6559Q39.8342-22.1616 39.8342-21.6479Q39.8342-16.8361 42.8412-13.8751Q45.8482-10.9141 50.8385-10.9141ZM51.0946 25.6386Q56.7316 25.6386 60.6824 21.8587Q64.6333 18.0789 64.6333 12.68Q64.6333 7.30194 60.6824 3.53699Q56.7316-0.227964 51.0946-0.227964Q45.5232-0.227964 41.5798 3.53699Q37.6363 7.30194 37.6363 12.68Q37.6363 18.0789 41.5798 21.8587Q45.5232 25.6386 51.0946 25.6386Z"/>
  </g>
  <g id="Bold-L" transform="matrix(1 0 0 1 2287.17 1556)">
   <path d="M49.3578-10.2877Q53.0201-10.2877 55.186-12.2118Q57.3519-14.136 57.8775-17.4308Q57.9067-17.9359 57.9359-18.4625Q57.9651-18.989 57.9943-19.4941Q58.3234-23.0213 59.5952-25.5474Q60.867-28.0735 63.7714-30.5884Q66.6758-33.1033 71.9281-36.4409Q80.5248-41.9819 85.0263-48.4742Q89.5279-54.9664 89.5279-63.8346Q89.5279-73.4781 84.7175-80.3806Q79.907-87.2831 71.5314-90.9958Q63.1558-94.7084 52.471-94.7084Q40.4553-94.7084 31.3133-89.7919Q22.1714-84.8753 18.1716-76.3735Q17.0955-74.2014 16.5897-71.9829Q16.084-69.7645 16.084-67.7203Q16.0548-63.9387 18.3632-61.5966Q20.6716-59.2545 24.7101-59.2545Q27.8181-59.2545 30.1343-60.8312Q32.4505-62.4078 33.5789-65.2074Q35.7359-72.3567 40.4487-75.5966Q45.1615-78.8364 51.6216-78.8364Q56.7027-78.8364 60.773-76.9448Q64.8433-75.0532 67.249-71.6438Q69.6547-68.2344 69.6547-63.6088Q69.6547-59.5575 68.1404-56.5151Q66.6261-53.4726 63.5218-50.7374Q60.4175-48.0023 55.6694-44.9043Q50.9741-41.8245 47.5088-38.4863Q44.0436-35.1482 42.1447-31.1788Q40.2457-27.2094 40.2457-22.1917Q40.2457-21.4797 40.2457-20.7601Q40.2457-20.0405 40.2457-19.3134Q40.2457-15.2807 42.7007-12.7842Q45.1557-10.2877 49.3578-10.2877ZM49.5388 25.3331Q54.3821 25.3331 57.7524 22.0573Q61.1226 18.7814 61.1226 14.1289Q61.1226 9.48274 57.7524 6.2254Q54.3821 2.96806 49.5388 2.96806Q44.7836 2.96806 41.4094 6.2254Q38.0353 9.48274 38.0353 14.1289Q38.0353 18.7814 41.4094 22.0573Q44.7836 25.3331 49.5388 25.3331Z"/>
  </g>
  <g id="Semibold-L" transform="matrix(1 0 0 1 1991.65 1556)">
   <path d="M48.3371-9.85591Q51.6415-9.85591 53.5045-11.6958Q55.3674-13.5357 55.7018-16.5436Q55.7203-17.166 55.7389-17.7835Q55.7575-18.401 55.7761-19.0234Q56.0038-22.831 57.2571-25.5411Q58.5105-28.2512 61.4109-30.881Q64.3113-33.5108 69.5457-36.9312Q78.0583-42.5745 82.6009-49.0797Q87.1436-55.5849 87.1436-64.4259Q87.1436-73.914 82.4452-80.6957Q77.7469-87.4775 69.6388-91.1245Q61.5308-94.7715 51.334-94.7715Q39.7847-94.7715 30.8586-89.7612Q21.9325-84.7508 18.0245-75.9925Q17.0028-73.8423 16.5434-71.7037Q16.084-69.5652 16.084-67.6631Q16.0654-64.438 17.9989-62.4261Q19.9325-60.4142 23.3764-60.4142Q26.0994-60.4142 28.0563-61.8324Q30.0133-63.2506 30.9371-65.7622Q33.1094-73.7336 38.318-77.4083Q43.5266-81.083 50.6722-81.083Q56.2496-81.083 60.7348-79.0003Q65.22-76.9177 67.8682-73.163Q70.5163-69.4084 70.5163-64.3007Q70.5163-60.0957 68.9255-56.8939Q67.3347-53.6922 64.2014-50.8373Q61.0682-47.9824 56.4497-44.8664Q51.574-41.5744 48.0023-38.0956Q44.4306-34.6167 42.48-30.5086Q40.5294-26.4005 40.5294-21.2035Q40.5294-20.328 40.5294-19.4531Q40.5294-18.5783 40.5294-17.7041Q40.5294-14.2085 42.6039-12.0322Q44.6784-9.85591 48.3371-9.85591ZM48.4661 25.1225Q52.7624 25.1225 55.7324 22.1941Q58.7024 19.2658 58.7024 15.1277Q58.7024 10.9862 55.7324 8.07878Q52.7624 5.17139 48.4661 5.17139Q44.2737 5.17139 41.292 8.07878Q38.3103 10.9862 38.3103 15.1277Q38.3103 19.2658 41.292 22.1941Q44.2737 25.1225 48.4661 25.1225Z"/>
  </g>
  <g id="Medium-L" transform="matrix(1 0 0 1 1695.85 1556)">
   <path d="M47.5631-9.52848Q50.5963-9.52848 52.2295-11.3045Q53.8628-13.0806 54.052-15.8709Q54.0625-16.5821 54.073-17.2687Q54.0836-17.9552 54.0941-18.6665Q54.245-22.6867 55.4844-25.5363Q56.7238-28.386 59.6211-31.1029Q62.5185-33.8199 67.7393-37.303Q76.1882-43.0238 80.7619-49.5389Q85.3356-56.0539 85.3356-64.8742Q85.3356-74.2444 80.7223-80.9346Q76.1089-87.6248 68.2038-91.2221Q60.2986-94.8194 50.4718-94.8194Q39.2762-94.8194 30.5138-89.7379Q21.7515-84.6564 17.9129-75.7036Q16.9325-73.57 16.5082-71.4921Q16.084-69.4141 16.084-67.6198Q16.0735-64.8165 17.7228-63.055Q19.3721-61.2934 22.3652-61.2934Q24.7962-61.2934 26.4808-62.5915Q28.1653-63.8896 28.934-66.1828Q31.1178-74.7776 36.7023-78.782Q42.2869-82.7863 49.9524-82.7863Q55.906-82.7863 60.7058-80.5589Q65.5056-78.3314 68.3377-74.3149Q71.1697-70.2985 71.1697-64.8254Q71.1697-60.5037 69.5208-57.1812Q67.8719-53.8587 64.7168-50.913Q61.5616-47.9673 57.0414-44.8377Q52.0289-41.3848 48.3765-37.7993Q44.724-34.2137 42.7343-30.0005Q40.7445-25.7872 40.7445-20.4542Q40.7445-19.4548 40.7445-18.4622Q40.7445-17.4695 40.7445-16.4838Q40.7445-13.3954 42.5305-11.462Q44.3165-9.52848 47.5631-9.52848ZM47.6529 24.9628Q51.5343 24.9628 54.2008 22.2979Q56.8673 19.633 56.8673 15.8851Q56.8673 12.1261 54.2008 9.48409Q51.5343 6.84204 47.6529 6.84204Q43.8871 6.84204 41.203 9.48409Q38.5189 12.1261 38.5189 15.8851Q38.5189 19.633 41.203 22.2979Q43.8871 24.9628 47.6529 24.9628Z"/>
  </g>
  <g id="Regular-L" transform="matrix(1 0 0 1 1400.31 1556)">
   <path d="M46.5535-9.1014Q49.2329-9.1014 50.5665-10.7942Q51.9002-12.487 51.9002-14.9934Q51.9002-15.8206 51.9002-16.5972Q51.9002-17.3738 51.9002-18.201Q51.9509-22.4984 53.172-25.5301Q54.3932-28.5618 57.2866-31.3924Q60.1801-34.223 65.3831-37.7878Q73.7488-43.6099 78.3631-50.1378Q82.9774-56.6656 82.9774-65.459Q82.9774-74.6755 78.475-81.2462Q73.9725-87.817 66.332-91.3494Q58.6915-94.8818 49.3473-94.8818Q38.6129-94.8818 30.0641-89.7075Q21.5153-84.5332 17.7674-75.3268Q16.8409-73.2149 16.4624-71.2159Q16.084-69.217 16.084-67.5633Q16.084-65.3103 17.3625-63.8753Q18.6411-62.4403 21.0461-62.4403Q23.0964-62.4403 24.4257-63.5817Q25.7549-64.7231 26.3212-66.7315Q28.5202-76.1394 34.595-80.5738Q40.6699-85.0082 49.0134-85.0082Q55.4579-85.0082 60.668-82.5918Q65.8782-80.1754 68.95-75.8175Q72.0219-71.4595 72.0219-65.5097Q72.0219-61.0359 70.2973-57.5559Q68.5726-54.0758 65.3889-51.0117Q62.2052-47.9476 57.8131-44.8003Q52.6223-41.1374 48.8645-37.4128Q45.1068-33.6881 43.0659-29.3377Q41.025-24.9873 41.025-19.4768Q41.025-18.3158 41.025-17.1696Q41.025-16.0234 41.025-14.8921Q41.025-12.3349 42.4347-10.7182Q43.8444-9.1014 46.5535-9.1014ZM46.592 24.7546Q49.9324 24.7546 52.203 22.4333Q54.4736 20.112 54.4736 16.873Q54.4736 13.613 52.203 11.3171Q49.9324 9.02115 46.592 9.02115Q43.3828 9.02115 41.0868 11.3171Q38.7909 13.613 38.7909 16.873Q38.7909 20.112 41.0868 22.4333Q43.3828 24.7546 46.592 24.7546Z"/>
  </g>
  <g id="Light-L" transform="matrix(1 0 0 1 1104.69 1556)">
   <path d="M45.5479-8.69096Q47.468-8.69096 48.4733-9.94253Q49.4786-11.1941 49.4786-13.0438Q49.4786-14.2199 49.4786-15.3659Q49.4786-16.5118 49.4786-17.6879Q49.5087-22.2316 50.7402-25.4685Q51.9716-28.7054 54.9471-31.7412Q57.9227-34.7771 63.3309-38.5266Q72.0866-44.7591 76.4443-51.1023Q80.8021-57.4454 80.8021-65.8694Q80.8021-74.6755 76.4946-81.1744Q72.1871-87.6733 64.8236-91.2571Q57.4601-94.8408 48.3827-94.8408Q37.5663-94.8408 29.2227-89.2868Q20.8791-83.7328 17.5416-74.4443Q16.6972-72.3735 16.3906-70.549Q16.084-68.7244 16.084-67.3171Q16.084-65.6181 17.0239-64.5525Q17.9639-63.4869 19.7533-63.4869Q21.3315-63.4869 22.3016-64.3615Q23.2717-65.2361 23.6739-66.8546Q25.5034-76.8166 32.1632-82.1745Q38.8229-87.5324 48.1515-87.5324Q55.0475-87.5324 60.6065-84.8082Q66.1655-82.084 69.4426-77.2437Q72.7196-72.4035 72.7196-65.8996Q72.7196-61.4463 71.0258-57.8124Q69.332-54.1784 66.0046-50.7757Q62.6772-47.373 57.7516-43.7742Q52.2529-39.8035 48.649-36.0891Q45.0452-32.3747 43.2609-28.1577Q41.4765-23.9406 41.4765-18.5123Q41.4765-17.105 41.4765-15.7228Q41.4765-14.3406 41.4765-12.9835Q41.4765-11.1036 42.5271-9.89729Q43.5776-8.69096 45.5479-8.69096ZM45.6685 24.221Q48.3727 24.221 50.2124 22.3512Q52.052 20.4814 52.052 17.8375Q52.052 15.2138 50.2124 13.359Q48.3727 11.5043 45.6685 11.5043Q43.0749 11.5043 41.2202 13.359Q39.3655 15.2138 39.3655 17.8375Q39.3655 20.4814 41.2202 22.3512Q43.0749 24.221 45.6685 24.221Z"/>
  </g>
  <g id="Thin-L" transform="matrix(1 0 0 1 809.418 1556)">
   <path d="M44.218-8.14812Q45.1338-8.14812 45.7048-8.81614Q46.2758-9.48416 46.2758-10.4653Q46.2758-12.1029 46.2758-13.7374Q46.2758-15.3719 46.2758-17.0094Q46.2788-21.8788 47.5238-25.3871Q48.7688-28.8954 51.8529-32.2027Q54.937-35.5099 60.6167-39.5038Q69.8881-46.2791 73.9066-52.378Q77.9251-58.4768 77.9251-66.4123Q77.9251-74.6755 73.8754-81.0794Q69.8257-87.4834 62.8287-91.1349Q55.8316-94.7865 47.1071-94.7865Q36.182-94.7865 28.1098-88.7304Q20.0377-82.6743 17.2431-73.2772Q16.5072-71.2607 16.2956-69.6669Q16.084-68.073 16.084-66.9914Q16.084-66.0253 16.5761-65.4482Q17.0682-64.8712 18.0433-64.8712Q18.9973-64.8712 19.4925-65.3929Q19.9876-65.9147 20.1725-67.0175Q21.5136-77.7123 28.9468-84.2915Q36.3801-90.8708 47.0115-90.8708Q54.5046-90.8708 60.525-87.7395Q66.5455-84.6082 70.094-79.1301Q73.6425-73.652 73.6425-66.4153Q73.6425-61.9892 71.9893-58.1517Q70.3362-54.3141 66.8189-50.4636Q63.3015-46.613 57.6701-42.4171Q51.7643-38.0393 48.3641-34.3384Q44.9638-30.6376 43.5187-26.597Q42.0737-22.5564 42.0737-17.2366Q42.0737-15.5036 42.0737-13.8093Q42.0737-12.1149 42.0737-10.4593Q42.0737-9.47511 42.6492-8.81161Q43.2247-8.14812 44.218-8.14812ZM44.4472 23.5153Q46.3099 23.5153 47.5796 22.2426Q48.8493 20.9699 48.8493 19.1132Q48.8493 17.3308 47.5796 16.0597Q46.3099 14.7885 44.4472 14.7885Q42.6678 14.7885 41.3966 16.0597Q40.1255 17.3308 40.1255 19.1132Q40.1255 20.9699 41.3966 22.2426Q42.6678 23.5153 44.4472 23.5153Z"/>
  </g>
  <g id="Ultralight-L" transform="matrix(1 0 0 1 513.443 1556)">
   <path d="M43.5368-7.87008Q43.9382-7.87008 44.2868-8.23921Q44.6354-8.60834 44.6354-9.14465Q44.6354-11.0185 44.6354-12.9032Q44.6354-14.788 44.6354-16.6618Q44.6245-21.6981 45.8765-25.3454Q47.1284-28.9927 50.2681-32.439Q53.4078-35.8853 59.2265-40.0042Q68.762-47.0576 72.6067-53.0313Q76.4515-59.0051 76.4515-66.6903Q76.4515-74.6755 72.5339-81.0308Q68.6163-87.386 61.8069-91.0724Q54.9975-94.7587 46.4537-94.7587Q35.473-94.7587 27.5399-88.4454Q19.6067-82.1321 17.0901-72.6794Q16.4099-70.6907 16.2469-69.2151Q16.084-67.7394 16.084-66.8245Q16.084-66.2338 16.3467-65.907Q16.6094-65.5802 17.1675-65.5802Q17.8018-65.5802 18.0536-65.9212Q18.3054-66.2622 18.3792-67.1009Q19.47-78.171 27.2995-85.3759Q35.1289-92.5808 46.4277-92.5808Q54.2266-92.5808 60.4833-89.2409Q66.7401-85.9011 70.4276-80.0963Q74.1151-74.2915 74.1151-66.6794Q74.1151-62.2672 72.4829-58.3254Q70.8506-54.3836 67.2359-50.3037Q63.6212-46.2237 57.6284-41.722Q51.5141-37.1356 48.2181-33.4418Q44.9221-29.7479 43.6508-25.7976Q42.3795-21.8474 42.3795-16.5832Q42.3795-14.6834 42.3795-12.8292Q42.3795-10.975 42.3795-9.16642Q42.3795-8.64099 42.7117-8.25554Q43.044-7.87008 43.5368-7.87008ZM43.8216 23.1538Q45.2534 23.1538 46.2311 22.187Q47.2088 21.2202 47.2088 19.7666Q47.2088 18.4152 46.2311 17.4429Q45.2534 16.4706 43.8216 16.4706Q42.4593 16.4706 41.487 17.4429Q40.5147 18.4152 40.5147 19.7666Q40.5147 21.2202 41.487 22.187Q42.4593 23.1538 43.8216 23.1538Z"/>
  </g>
  <g id="Black-M" transform="matrix(1 0 0 1 2888.99 1126)">
   <path d="M41.2076-17.1667Q44.9465-17.1667 47.4951-18.7803Q50.0438-20.3938 51.0715-23.6536Q51.1286-23.7835 51.1857-24.022Q51.2428-24.2605 51.2999-24.3904Q51.8764-26.2977 52.925-27.7279Q53.9736-29.1581 56.2646-30.8036Q58.5557-32.4491 62.7529-34.8296Q69.8184-38.9304 73.0856-43.8553Q76.3528-48.7802 76.3528-55.6133Q76.3528-63.449 72.3287-69.1638Q68.3047-74.8785 61.0424-77.9851Q53.78-81.0917 44.0105-81.0917Q33.161-81.0917 25.448-77.4577Q17.735-73.8237 14.4787-68.0406Q13.4962-66.3007 12.9786-64.3823Q12.4609-62.4638 12.4609-60.5029Q12.4038-55.9574 15.2926-53.1979Q18.1814-50.4384 23.0289-50.4384Q26.5245-50.4384 29.3617-52.0829Q32.1989-53.7274 33.6809-56.6976Q35.1766-59.7589 37.4192-61.1733Q39.6618-62.5877 42.7787-62.5877Q45.2595-62.5877 47.1863-61.6368Q49.1131-60.6859 50.2603-59.0001Q51.4076-57.3143 51.4076-55.105Q51.4076-52.4721 50.4932-50.5791Q49.5788-48.6861 47.2186-46.8401Q44.8584-44.9941 40.5781-42.4984Q37.4205-40.6959 35.1335-38.5694Q32.8465-36.4429 31.6301-33.8628Q30.4138-31.2827 30.4138-28.005Q30.4138-27.8994 30.4138-27.7652Q30.4138-27.631 30.4138-27.4681Q30.4138-22.8324 33.4275-19.9996Q36.4412-17.1667 41.2076-17.1667ZM41.5437 12.1922Q46.8537 12.1922 50.6161 8.6812Q54.3785 5.1702 54.3785 0.0996596Q54.3785-4.91961 50.6161-8.42784Q46.8537-11.9361 41.5437-11.9361Q36.2445-11.9361 32.5079-8.42784Q28.7712-4.91961 28.7712 0.0996596Q28.7712 5.1702 32.5079 8.6812Q36.2445 12.1922 41.5437 12.1922Z"/>
  </g>
  <g id="Heavy-M" transform="matrix(1 0 0 1 2593.56 1126)">
   <path d="M40.1296-16.7075Q43.5782-16.7075 45.8133-18.3091Q48.0485-19.9107 48.8337-22.9478Q48.8773-23.1513 48.9209-23.4259Q48.9646-23.7004 49.0082-23.9039Q49.4606-26.1138 50.4837-27.7331Q51.5067-29.3525 53.7751-31.0996Q56.0434-32.8467 60.1738-35.2924Q67.049-39.4347 70.4233-44.4157Q73.7976-49.3967 73.7976-56.2747Q73.7976-64.0015 69.8738-69.5786Q65.9499-75.1557 58.9673-78.1681Q51.9846-81.1805 42.7763-81.1805Q32.5357-81.1805 25.0523-77.5091Q17.5689-73.8377 14.3406-67.7472Q13.4096-66.0262 12.9353-64.1716Q12.4609-62.317 12.4609-60.4834Q12.4173-56.5242 14.9037-54.1039Q17.39-51.6836 21.616-51.6836Q24.725-51.6836 27.184-53.1845Q29.6429-54.6855 30.9007-57.3744Q32.4953-61.3588 35.2407-63.126Q37.9861-64.8932 41.7604-64.8932Q44.7734-64.8932 47.1511-63.7663Q49.5288-62.6394 50.9394-60.6195Q52.35-58.5996 52.35-55.8983Q52.35-53.066 51.3319-51.0042Q50.3139-48.9424 47.9479-47.0173Q45.5819-45.0923 41.5804-42.6708Q38.2604-40.6654 35.8053-38.3584Q33.3503-36.0513 32.0133-33.2668Q30.6764-30.4822 30.6764-26.9595Q30.6764-26.6997 30.6764-26.4193Q30.6764-26.1389 30.6764-25.8379Q30.6764-21.7377 33.2849-19.2226Q35.8934-16.7075 40.1296-16.7075ZM40.3824 12.0399Q45.1355 12.0399 48.4831 8.87232Q51.8307 5.70478 51.8307 1.15863Q51.8307-3.35769 48.4831-6.51711Q45.1355-9.67652 40.3824-9.67652Q35.6642-9.67652 32.3303-6.51711Q28.9964-3.35769 28.9964 1.15863Q28.9964 5.70478 32.3303 8.87232Q35.6642 12.0399 40.3824 12.0399Z"/>
  </g>
  <g id="Bold-M" transform="matrix(1 0 0 1 2298.28 1126)">
   <path d="M38.9238-16.1938Q42.0475-16.1938 43.932-17.782Q45.8165-19.3702 46.3304-22.1582Q46.3589-22.4441 46.3875-22.759Q46.416-23.0738 46.4445-23.3598Q46.7583-25.908 47.7527-27.739Q48.7471-29.57 50.9901-31.4307Q53.233-33.2915 57.2887-35.8101Q63.951-39.9988 67.4451-45.0426Q70.9392-50.0864 70.9392-57.0145Q70.9392-64.6195 67.1275-70.0426Q63.3158-75.4658 56.646-78.3728Q49.9762-81.2798 41.3957-81.2798Q31.8362-81.2798 24.6097-77.5666Q17.3832-73.8535 14.1862-67.419Q13.3127-65.7193 12.8868-63.936Q12.4609-62.1528 12.4609-60.4616Q12.4324-57.1582 14.4685-55.1173Q16.5047-53.0764 20.0355-53.0764Q22.712-53.0764 24.7479-54.4168Q26.7837-55.7572 27.7908-58.1314Q29.4958-63.1485 32.8036-65.3104Q36.1115-67.4722 40.6213-67.4722Q44.2295-67.4722 47.1117-66.1484Q49.994-64.8246 51.6991-62.431Q53.4042-60.0374 53.4042-56.7858Q53.4042-53.7305 52.2702-51.4798Q51.1361-49.2291 48.7637-47.2156Q46.3912-45.2021 42.7017-42.8638Q39.1999-40.6313 36.5568-38.1223Q33.9138-35.6133 32.442-32.6Q30.9702-29.5868 30.9702-25.7899Q30.9702-25.3576 30.9702-24.9137Q30.9702-24.4698 30.9702-24.0144Q30.9702-20.5131 33.1254-18.3534Q35.2806-16.1938 38.9238-16.1938ZM39.0834 11.8695Q43.2136 11.8695 46.0971 9.08612Q48.9807 6.30279 48.9807 2.34325Q48.9807-1.61045 46.0971-4.37967Q43.2136-7.14889 39.0834-7.14889Q35.0152-7.14889 32.1318-4.37967Q29.2484-1.61045 29.2484 2.34325Q29.2484 6.30279 32.1318 9.08612Q35.0152 11.8695 39.0834 11.8695Z"/>
  </g>
  <g id="Semibold-M" transform="matrix(1 0 0 1 2002.55 1126)">
   <path d="M38.0925-15.8396Q40.9923-15.8396 42.635-17.4187Q44.2778-18.9977 44.6046-21.6138Q44.6227-21.9566 44.6409-22.2992Q44.659-22.6418 44.6772-22.9846Q44.8953-25.7661 45.87-27.743Q46.8447-29.7199 49.0701-31.659Q51.2956-33.5982 55.2997-36.167Q61.8152-40.3877 65.392-45.4748Q68.9687-50.5618 68.9687-57.5245Q68.9687-65.0455 65.2343-70.3626Q61.4999-75.6796 55.0458-78.514Q48.5916-81.3483 40.444-81.3483Q31.354-81.3483 24.3045-77.6063Q17.2551-73.8643 14.0798-67.1927Q13.2459-65.5076 12.8534-63.7736Q12.4609-62.0395 12.4609-60.4465Q12.4428-57.5953 14.1686-55.816Q15.8943-54.0367 18.9459-54.0367Q21.3243-54.0367 23.0684-55.2664Q24.8125-56.4961 25.6468-58.6533Q27.4279-64.3824 31.1235-66.8163Q34.8192-69.2502 39.836-69.2502Q43.8546-69.2502 47.0846-67.7907Q50.3146-66.3311 52.2228-63.6799Q54.131-61.0286 54.131-57.3976Q54.131-54.1886 52.917-51.8076Q51.703-49.4267 49.3261-47.3523Q46.9491-45.2779 43.4747-42.9967Q39.8475-40.6078 37.0749-37.9596Q34.3024-35.3114 32.7375-32.1404Q31.1727-28.9694 31.1727-24.9836Q31.1727-24.4323 31.1727-23.8757Q31.1727-23.3192 31.1727-22.7573Q31.1727-19.6689 33.0155-17.7543Q34.8582-15.8396 38.0925-15.8396ZM38.1878 11.752Q41.8886 11.752 44.4523 9.23351Q47.0159 6.71505 47.0159 3.15992Q47.0159-0.40592 44.4523-2.90613Q41.8886-5.40635 38.1878-5.40635Q34.5677-5.40635 31.9949-2.90613Q29.422-0.40592 29.422 3.15992Q29.422 6.71505 31.9949 9.23351Q34.5677 11.752 38.1878 11.752Z"/>
  </g>
  <g id="Medium-M" transform="matrix(1 0 0 1 1706.59 1126)">
   <path d="M37.4621-15.5711Q40.1922-15.5711 41.6516-17.1431Q43.111-18.7152 43.296-21.2011Q43.3063-21.587 43.3166-21.9506Q43.3268-22.3143 43.3371-22.7002Q43.4827-25.6585 44.4424-27.7461Q45.4022-29.8336 47.6144-31.8321Q49.8266-33.8307 53.7916-36.4376Q60.1958-40.6826 63.8352-45.8025Q67.4746-50.9223 67.4746-57.9113Q67.4746-65.3686 63.7988-70.6051Q60.123-75.8417 53.8324-78.621Q47.5418-81.4003 39.7223-81.4003Q30.9884-81.4003 24.0732-77.6364Q17.158-73.8725 13.999-67.0212Q13.1952-65.3472 12.8281-63.6504Q12.4609-61.9537 12.4609-60.4351Q12.4507-57.9267 13.9411-56.3457Q15.4316-54.7648 18.1197-54.7648Q20.272-54.7648 21.795-55.9105Q23.3179-57.0563 24.0211-59.0491Q25.86-65.3179 29.8496-67.9581Q33.8393-70.5983 39.2406-70.5983Q43.5703-70.5983 47.064-69.0359Q50.5577-67.4735 52.6199-64.6268Q54.682-61.7801 54.682-57.8615Q54.682-54.5359 53.4074-52.0562Q52.1328-49.5766 49.7525-47.4559Q47.3722-45.3353 44.0608-43.0976Q40.3386-40.59 37.4678-37.8362Q34.597-35.0824 32.9616-31.7919Q31.3263-28.5014 31.3263-24.3723Q31.3263-23.7308 31.3263-23.0887Q31.3263-22.4467 31.3263-21.8041Q31.3263-19.0287 32.9321-17.2999Q34.5379-15.5711 37.4621-15.5711ZM37.5088 11.6629Q40.8839 11.6629 43.205 9.34527Q45.5261 7.02764 45.5261 3.77915Q45.5261 0.507407 43.205-1.78884Q40.8839-4.08508 37.5088-4.08508Q34.2284-4.08508 31.8911-1.78884Q29.5537 0.507407 29.5537 3.77915Q29.5537 7.02764 31.8911 9.34527Q34.2284 11.6629 37.5088 11.6629Z"/>
  </g>
  <g id="Regular-M" transform="matrix(1 0 0 1 1410.85 1126)">
   <path d="M36.64-15.2208Q39.1485-15.2208 40.3689-16.7838Q41.5892-18.3467 41.5892-20.6627Q41.5892-21.1048 41.5892-21.4959Q41.5892-21.8871 41.5892-22.3292Q41.6401-25.5182 42.5804-27.75Q43.5206-29.9819 45.7155-32.0579Q47.9104-34.134 51.8245-36.7906Q58.0836-41.0673 61.8046-46.2299Q65.5257-51.3925 65.5257-58.4157Q65.5257-65.7899 61.9264-70.9215Q58.327-76.0531 52.2497-78.7606Q46.1724-81.468 38.781-81.468Q30.5114-81.468 23.7714-77.6756Q17.0313-73.8832 13.8938-66.7974Q13.1292-65.1379 12.7951-63.4898Q12.4609-61.8417 12.4609-60.4202Q12.4609-58.3589 13.6444-57.0367Q14.8279-55.7144 17.0421-55.7144Q18.8995-55.7144 20.134-56.7507Q21.3684-57.7871 21.9007-59.5652Q23.8149-66.5382 28.188-69.4474Q32.5612-72.3567 38.4639-72.3567Q43.1995-72.3567 47.0372-70.6601Q50.8748-68.9634 53.1378-65.8619Q55.4008-62.7605 55.4008-58.4666Q55.4008-54.9889 54.0471-52.3805Q52.6934-49.7721 50.3087-47.5911Q47.924-45.4102 44.8253-43.2291Q40.9792-40.5668 37.9802-37.6753Q34.9812-34.7838 33.2539-31.3373Q31.5265-27.8908 31.5265-23.5749Q31.5265-22.8157 31.5265-22.0622Q31.5265-21.3087 31.5265-20.5608Q31.5265-18.1938 32.8233-16.7073Q34.1201-15.2208 36.64-15.2208ZM36.6231 11.5467Q39.5735 11.5467 41.5782 9.49104Q43.5829 7.43537 43.5829 4.58684Q43.5829 1.6987 41.5782-0.331495Q39.5735-2.36169 36.6231-2.36169Q33.7859-2.36169 31.7557-0.331495Q29.7255 1.6987 29.7255 4.58684Q29.7255 7.43537 31.7557 9.49104Q33.7859 11.5467 36.6231 11.5467Z"/>
  </g>
  <g id="Light-M" transform="matrix(1 0 0 1 1115.12 1126)">
   <path d="M35.7384-14.8529Q37.5662-14.8529 38.4922-16.0202Q39.4181-17.1875 39.4181-18.9148Q39.4181-19.6697 39.4181-20.392Q39.4181-21.1143 39.4181-21.8692Q39.4507-25.279 40.4001-27.6948Q41.3495-30.1107 43.618-32.3707Q45.8865-34.6307 49.9846-37.4529Q56.5933-42.0976 60.0843-47.0947Q63.5754-52.0917 63.5754-58.7837Q63.5754-65.7899 60.1509-70.8571Q56.7263-75.9243 50.8974-78.6778Q45.0685-81.4312 37.9163-81.4312Q29.5731-81.4312 23.017-77.2984Q16.4609-73.1657 13.6914-66.0062Q13.0004-64.3835 12.7307-62.8918Q12.4609-61.4001 12.4609-60.1994Q12.4609-58.6349 13.3409-57.6439Q14.2208-56.6528 15.8829-56.6528Q17.3172-56.6528 18.2297-57.4499Q19.1422-58.247 19.5272-59.6756Q21.1102-67.1453 26.0077-70.8826Q30.9052-74.6198 37.6912-74.6198Q42.8315-74.6198 46.982-72.6471Q51.1324-70.6745 53.5794-67.1407Q56.0263-63.6068 56.0263-58.8162Q56.0263-55.3569 54.7003-52.6105Q53.3742-49.8641 50.8607-47.3795Q48.3472-44.895 44.7701-42.3092Q40.648-39.3708 37.787-36.4885Q34.926-33.6062 33.4287-30.2794Q31.9313-26.9525 31.9313-22.7101Q31.9313-21.7301 31.9313-20.765Q31.9313-19.7999 31.9313-18.8497Q31.9313-17.0899 32.9061-15.9714Q33.8809-14.8529 35.7384-14.8529ZM35.7951 11.0683Q38.1752 11.0683 39.7935 9.41745Q41.4119 7.76655 41.4119 5.4516Q41.4119 3.13382 39.7935 1.49921Q38.1752-0.135413 35.7951-0.135413Q33.5099-0.135413 31.8753 1.49921Q30.2407 3.13382 30.2407 5.4516Q30.2407 7.76655 31.8753 9.41745Q33.5099 11.0683 35.7951 11.0683Z"/>
  </g>
  <g id="Thin-M" transform="matrix(1 0 0 1 819.694 1126)">
   <path d="M34.5461-14.3662Q35.4735-14.3662 36.0101-15.0103Q36.5467-15.6545 36.5467-16.6031Q36.5467-17.7716 36.5467-18.932Q36.5467-20.0923 36.5467-21.2608Q36.5549-24.9627 37.5165-27.6218Q38.4781-30.281 40.8439-32.7844Q43.2098-35.2878 47.5511-38.329Q54.6222-43.4603 57.8091-48.2384Q60.996-53.0164 60.996-59.2703Q60.996-65.7899 57.8026-70.772Q54.6092-75.754 49.1088-78.5683Q43.6084-81.3826 36.7726-81.3826Q28.332-81.3826 22.0193-76.7996Q15.7066-72.2166 13.4237-64.9599Q12.83-63.3858 12.6455-62.1009Q12.4609-60.8161 12.4609-59.9074Q12.4609-58.9999 12.9393-58.4469Q13.4178-57.8938 14.3499-57.8938Q15.2244-57.8938 15.7111-58.3746Q16.1977-58.8554 16.3881-59.8216Q17.5331-67.9484 23.1241-72.7806Q28.7152-77.6129 36.6691-77.6129Q42.3448-77.6129 46.909-75.2752Q51.4731-72.9376 54.1634-68.8319Q56.8537-64.7262 56.8537-59.2786Q56.8537-55.8436 55.5641-52.9147Q54.2745-49.9857 51.5907-47.0997Q48.9069-44.2136 44.6971-41.0925Q40.21-37.7891 37.5315-34.919Q34.853-32.0488 33.6598-28.8801Q32.4667-25.7114 32.4667-21.5664Q32.4667-20.2944 32.4667-19.0495Q32.4667-17.8045 32.4667-16.5866Q32.4667-15.6298 33.0156-14.998Q33.5646-14.3662 34.5461-14.3662ZM34.7001 10.4357Q36.3258 10.4357 37.4331 9.32011Q38.5404 8.20456 38.5404 6.5953Q38.5404 5.03189 37.4331 3.92046Q36.3258 2.80902 34.7001 2.80902Q33.1449 2.80902 32.0334 3.92046Q30.922 5.03189 30.922 6.5953Q30.922 8.20456 32.0334 9.32011Q33.1449 10.4357 34.7001 10.4357Z"/>
  </g>
  <g id="Ultralight-M" transform="matrix(1 0 0 1 523.643 1126)">
   <path d="M33.9353-14.1169Q34.4016-14.1169 34.7388-14.4931Q35.0759-14.8693 35.0759-15.419Q35.0759-16.7994 35.0759-18.1841Q35.0759-19.5688 35.0759-20.9492Q35.0717-24.8007 36.0395-27.5845Q37.0074-30.3682 39.4231-32.9963Q41.8387-35.6243 46.3048-38.7777Q53.6126-44.1583 56.6437-48.8242Q59.6748-53.49 59.6748-59.5196Q59.6748-65.7899 56.5999-70.7283Q53.5249-75.6667 48.1927-78.5122Q42.8606-81.3576 36.1868-81.3576Q27.6964-81.3576 21.5083-76.5441Q15.3202-71.7305 13.2866-64.4239Q12.7428-62.8748 12.6019-61.6959Q12.4609-60.5169 12.4609-59.7578Q12.4609-59.1869 12.7337-58.8582Q13.0064-58.5295 13.5647-58.5295Q14.1526-58.5295 14.4211-58.8482Q14.6896-59.167 14.7803-59.8964Q15.7009-68.3597 21.6472-73.7528Q27.5934-79.1459 36.1457-79.1459Q42.0955-79.1459 46.8716-76.6213Q51.6476-74.0967 54.4625-69.6981Q57.2775-65.2995 57.2775-59.5154Q57.2775-56.0929 56.0066-53.0705Q54.7357-50.048 51.9646-46.9563Q49.1936-43.8646 44.6597-40.4693Q39.9856-36.9789 37.4006-34.1151Q34.8156-31.2512 33.7782-28.1635Q32.7409-25.0758 32.7409-20.9806Q32.7409-19.5591 32.7409-18.1708Q32.7409-16.7825 32.7409-15.4275Q32.7409-14.882 33.0717-14.4994Q33.4025-14.1169 33.9353-14.1169ZM34.1392 10.1116Q35.3785 10.1116 36.2241 9.27026Q37.0697 8.42891 37.0697 7.1811Q37.0697 6.00407 36.2241 5.16061Q35.3785 4.31715 34.1392 4.31715Q32.9579 4.31715 32.1145 5.16061Q31.271 6.00407 31.271 7.1811Q31.271 8.42891 32.1145 9.27026Q32.9579 10.1116 34.1392 10.1116Z"/>
  </g>
  <g id="Black-S" transform="matrix(1 0 0 1 2898.27 696)">
   <path d="M32.5684-21.1914Q35.5469-21.1914 37.6221-22.4365Q39.6973-23.6816 40.5762-26.2695Q40.625-26.3672 40.6738-26.5625Q40.7227-26.7578 40.7715-26.8555Q41.2598-28.2715 42.0898-29.3457Q42.9199-30.4199 44.7266-31.6895Q46.5332-32.959 49.8535-34.8145Q55.4688-38.0371 57.9834-41.8701Q60.498-45.7031 60.498-51.0254Q60.498-57.1777 57.3242-61.6943Q54.1504-66.2109 48.3887-68.6768Q42.627-71.1426 34.8145-71.1426Q26.123-71.1426 20.0195-68.2861Q13.916-65.4297 11.377-60.9863Q10.5957-59.6191 10.1807-58.1055Q9.76562-56.5918 9.76562-55.0293Q9.7168-51.3184 12.085-49.0723Q14.4531-46.8262 18.4082-46.8262Q21.2402-46.8262 23.5596-48.1445Q25.8789-49.4629 27.0996-51.8555Q28.2227-54.0039 29.8584-55.0537Q31.4941-56.1035 33.7891-56.1035Q35.5957-56.1035 36.9873-55.3955Q38.3789-54.6875 39.209-53.4424Q40.0391-52.1973 40.0391-50.5859Q40.0391-48.584 39.3555-47.1436Q38.6719-45.7031 36.8164-44.2627Q34.9609-42.8223 31.4941-40.8203Q29.0527-39.4531 27.3193-37.8418Q25.5859-36.2305 24.6826-34.2773Q23.7793-32.3242 23.7793-29.834Q23.7793-29.7852 23.7793-29.7119Q23.7793-29.6387 23.7793-29.541Q23.7793-25.7812 26.2451-23.4863Q28.7109-21.1914 32.5684-21.1914ZM32.8613 1.95312Q37.1582 1.95312 40.21-0.878906Q43.2617-3.71094 43.2617-7.8125Q43.2617-11.8652 40.21-14.6973Q37.1582-17.5293 32.8613-17.5293Q28.5645-17.5293 25.5371-14.6973Q22.5098-11.8652 22.5098-7.8125Q22.5098-3.71094 25.5371-0.878906Q28.5645 1.95312 32.8613 1.95312Z"/>
  </g>
  <g id="Heavy-S" transform="matrix(1 0 0 1 2602.53 696)">
   <path d="M31.7616-20.8457Q34.5788-20.8457 36.4235-22.1311Q38.2682-23.4166 38.9397-25.8892Q38.977-26.0099 39.0143-26.1937Q39.0516-26.3775 39.0889-26.4982Q39.4735-28.1447 40.2805-29.3572Q41.0875-30.5697 42.8654-31.9027Q44.6432-33.2356 47.8828-35.1256Q53.2906-38.3367 55.9263-42.2389Q58.5619-46.1411 58.5619-51.544Q58.5619-57.6502 55.4515-62.0574Q52.341-66.4645 46.7868-68.8439Q41.2325-71.2232 33.8694-71.2232Q25.7082-71.2232 19.7775-68.3783Q13.8469-65.5334 11.2848-60.8365Q10.5381-59.4808 10.1519-58.0017Q9.76562-56.5227 9.76562-55.0408Q9.72832-51.7678 11.7911-49.7695Q13.8539-47.7712 17.348-47.7712Q19.9034-47.7712 21.9404-48.9973Q23.9774-50.2235 25.0252-52.4202Q26.275-55.2946 28.2738-56.5404Q30.2725-57.7861 33.0169-57.7861Q35.2269-57.7861 36.9643-56.9628Q38.7016-56.1396 39.7333-54.664Q40.7651-53.1884 40.7651-51.2198Q40.7651-49.045 39.9893-47.4778Q39.2135-45.9106 37.3696-44.4413Q35.5256-42.9721 32.3585-41.0854Q29.8133-39.5799 27.9186-37.813Q26.0239-36.0461 24.988-33.9028Q23.9522-31.7595 23.9522-29.0503Q23.9522-28.8978 23.9522-28.7266Q23.9522-28.5554 23.9522-28.3655Q23.9522-24.9861 26.1126-22.9159Q28.273-20.8457 31.7616-20.8457ZM31.9739 1.88398Q35.8675 1.88398 38.6138-0.706039Q41.3602-3.29606 41.3602-7.01731Q41.3602-10.7128 38.6138-13.297Q35.8675-15.8813 31.9739-15.8813Q28.1035-15.8813 25.37-13.297Q22.6365-10.7128 22.6365-7.01731Q22.6365-3.29606 25.37-0.706039Q28.1035 1.88398 31.9739 1.88398Z"/>
  </g>
  <g id="Bold-S" transform="matrix(1 0 0 1 2306.9 696)">
   <path d="M30.8594-20.459Q33.4961-20.459 35.083-21.7896Q36.6699-23.1201 37.1094-25.4639Q37.1338-25.6104 37.1582-25.7812Q37.1826-25.9521 37.207-26.0986Q37.4756-28.0029 38.2568-29.3701Q39.0381-30.7373 40.7837-32.1411Q42.5293-33.5449 45.6787-35.4736Q50.8545-38.6719 53.6255-42.6514Q56.3965-46.6309 56.3965-52.124Q56.3965-58.1787 53.3569-62.4634Q50.3174-66.748 44.9951-69.0308Q39.6729-71.3135 32.8125-71.3135Q25.2441-71.3135 19.5068-68.4814Q13.7695-65.6494 11.1816-60.6689Q10.4736-59.3262 10.1196-57.8857Q9.76562-56.4453 9.76562-55.0537Q9.74121-52.2705 11.4624-50.5493Q13.1836-48.8281 16.1621-48.8281Q18.4082-48.8281 20.1294-49.9512Q21.8506-51.0742 22.7051-53.0518Q24.0967-56.7383 26.5015-58.2031Q28.9062-59.668 32.1533-59.668Q34.8145-59.668 36.9385-58.7158Q39.0625-57.7637 40.3198-56.0303Q41.5771-54.2969 41.5771-51.9287Q41.5771-49.5605 40.6982-47.8516Q39.8193-46.1426 37.9883-44.6411Q36.1572-43.1396 33.3252-41.3818Q30.6641-39.7217 28.5889-37.7808Q26.5137-35.8398 25.3296-33.4839Q24.1455-31.1279 24.1455-28.1738Q24.1455-27.9053 24.1455-27.6245Q24.1455-27.3438 24.1455-27.0508Q24.1455-24.0967 25.9644-22.2778Q27.7832-20.459 30.8594-20.459ZM30.9814 1.80664Q34.4238 1.80664 36.8286-0.512695Q39.2334-2.83203 39.2334-6.12793Q39.2334-9.42383 36.8286-11.731Q34.4238-14.0381 30.9814-14.0381Q27.5879-14.0381 25.1831-11.731Q22.7783-9.42383 22.7783-6.12793Q22.7783-2.83203 25.1831-0.512695Q27.5879 1.80664 30.9814 1.80664Z"/>
  </g>
  <g id="Semibold-S" transform="matrix(1 0 0 1 2010.93 696)">
   <path d="M30.2373-20.1924Q32.7496-20.1924 34.1588-21.5541Q35.568-22.9157 35.8475-25.1706Q35.863-25.3349 35.8785-25.4969Q35.894-25.6589 35.9096-25.8231Q36.0981-27.9052 36.8616-29.379Q37.6251-30.8528 39.3485-32.3055Q41.0719-33.7582 44.1591-35.7136Q49.1749-38.9029 52.0392-42.9357Q54.9035-46.9686 54.9035-52.5239Q54.9035-58.5431 51.9128-62.7433Q48.9222-66.9436 43.7599-69.1596Q38.5976-71.3757 32.0838-71.3757Q24.9242-71.3757 19.3202-68.5525Q13.7162-65.7294 11.1105-60.5534Q10.4292-59.2195 10.0974-57.8058Q9.76562-56.392 9.76562-55.0626Q9.7501-52.6171 11.2358-51.087Q12.7215-49.5568 15.3445-49.5568Q17.3773-49.5568 18.8808-50.6088Q20.3843-51.6607 21.1055-53.4872Q22.5948-57.7336 25.2795-59.3495Q27.9643-60.9654 31.5579-60.9654Q34.5301-60.9654 36.9207-59.9244Q39.3113-58.8834 40.7242-56.9723Q42.137-55.0611 42.137-52.4175Q42.137-49.916 41.187-48.1093Q40.237-46.3025 38.4148-44.7789Q36.5927-43.2552 33.9917-41.5862Q31.2506-39.8194 29.051-37.7585Q26.8514-35.6977 25.5651-33.1951Q24.2788-30.6925 24.2788-27.5695Q24.2788-27.221 24.2788-26.8647Q24.2788-26.5084 24.2788-26.1443Q24.2788-23.4835 25.8622-21.8379Q27.4455-20.1924 30.2373-20.1924ZM30.2972 1.75332Q33.4285 1.75332 35.5978-0.379395Q37.7671-2.51211 37.7671-5.51475Q37.7671-8.53516 35.5978-10.6512Q33.4285-12.7673 30.2972-12.7673Q27.2324-12.7673 25.0542-10.6512Q22.8761-8.53516 22.8761-5.51475Q22.8761-2.51211 25.0542-0.379395Q27.2324 1.75332 30.2972 1.75332Z"/>
  </g>
  <g id="Medium-S" transform="matrix(1 0 0 1 1714.79 696)">
   <path d="M29.7656-19.9902Q32.1836-19.9902 33.458-21.3755Q34.7324-22.7607 34.8906-24.9482Q34.8994-25.126 34.9082-25.2812Q34.917-25.4365 34.9258-25.6143Q35.0537-27.8311 35.8037-29.3857Q36.5537-30.9404 38.2603-32.4302Q39.9668-33.9199 43.0068-35.8955Q47.9014-39.0781 50.8364-43.1514Q53.7715-47.2246 53.7715-52.8271Q53.7715-58.8193 50.8179-62.9556Q47.8643-67.0918 42.8232-69.2573Q37.7822-71.4229 31.5312-71.4229Q24.6816-71.4229 19.1787-68.6064Q13.6758-65.79 11.0566-60.4658Q10.3955-59.1387 10.0806-57.7451Q9.76562-56.3516 9.76562-55.0693Q9.75684-52.8799 11.064-51.4946Q12.3711-50.1094 14.7246-50.1094Q16.5957-50.1094 17.9341-51.1074Q19.2725-52.1055 19.8926-53.8174Q21.4561-58.4883 24.353-60.2188Q27.25-61.9492 31.1064-61.9492Q34.3145-61.9492 36.9072-60.8408Q39.5-59.7324 41.0308-57.6865Q42.5615-55.6406 42.5615-52.7881Q42.5615-50.1855 41.5576-48.3047Q40.5537-46.4238 38.7383-44.8833Q36.9229-43.3428 34.4971-41.7412Q31.6953-39.8936 29.4014-37.7417Q27.1074-35.5898 25.7437-32.9761Q24.3799-30.3623 24.3799-27.1113Q24.3799-26.7021 24.3799-26.2886Q24.3799-25.875 24.3799-25.457Q24.3799-23.0186 25.7847-21.5044Q27.1895-19.9902 29.7656-19.9902ZM29.7783 1.71289Q32.6738 1.71289 34.6646-0.27832Q36.6553-2.26953 36.6553-5.0498Q36.6553-7.86133 34.6646-9.83252Q32.6738-11.8037 29.7783-11.8037Q26.9629-11.8037 24.9565-9.83252Q22.9502-7.86133 22.9502-5.0498Q22.9502-2.26953 24.9565-0.27832Q26.9629 1.71289 29.7783 1.71289Z"/>
  </g>
  <g id="Regular-S" transform="matrix(1 0 0 1 1418.81 696)">
   <path d="M29.1504-19.7266Q31.4453-19.7266 32.5439-21.1426Q33.6426-22.5586 33.6426-24.6582Q33.6426-24.8535 33.6426-25Q33.6426-25.1465 33.6426-25.3418Q33.6914-27.7344 34.4238-29.3945Q35.1562-31.0547 36.8408-32.5928Q38.5254-34.1309 41.5039-36.1328Q46.2402-39.3066 49.2676-43.4326Q52.2949-47.5586 52.2949-53.2227Q52.2949-59.1797 49.3896-63.2324Q46.4844-67.2852 41.6016-69.3848Q36.7188-71.4844 30.8105-71.4844Q24.3652-71.4844 18.9941-68.6768Q13.623-65.8691 10.9863-60.3516Q10.3516-59.0332 10.0586-57.666Q9.76562-56.2988 9.76562-55.0781Q9.76562-53.2227 10.8398-52.0264Q11.9141-50.8301 13.916-50.8301Q15.5762-50.8301 16.6992-51.7578Q17.8223-52.6855 18.3105-54.248Q19.9707-59.4727 23.1445-61.3525Q26.3184-63.2324 30.5176-63.2324Q34.0332-63.2324 36.8896-62.0361Q39.7461-60.8398 41.4307-58.6182Q43.1152-56.3965 43.1152-53.2715Q43.1152-50.5371 42.041-48.5596Q40.9668-46.582 39.1602-45.0195Q37.3535-43.457 35.1562-41.9434Q32.2754-39.9902 29.8584-37.7197Q27.4414-35.4492 25.9766-32.6904Q24.5117-29.9316 24.5117-26.5137Q24.5117-26.0254 24.5117-25.5371Q24.5117-25.0488 24.5117-24.5605Q24.5117-22.4121 25.6836-21.0693Q26.8555-19.7266 29.1504-19.7266ZM29.1016 1.66016Q31.6895 1.66016 33.4473-0.146484Q35.2051-1.95312 35.2051-4.44336Q35.2051-6.98242 33.4473-8.76465Q31.6895-10.5469 29.1016-10.5469Q26.6113-10.5469 24.8291-8.76465Q23.0469-6.98242 23.0469-4.44336Q23.0469-1.95312 24.8291-0.146484Q26.6113 1.66016 29.1016 1.66016Z"/>
  </g>
  <g id="Light-S" transform="matrix(1 0 0 1 1122.97 696)">
   <path d="M28.3529-19.401Q30.0456-19.401 30.8838-20.4671Q31.722-21.5332 31.722-23.112Q31.722-23.584 31.722-24.0234Q31.722-24.4629 31.722-24.9349Q31.7546-27.5228 32.4951-29.3457Q33.2357-31.1686 34.9854-32.8695Q36.735-34.5703 39.8763-36.7188Q44.9219-40.2181 47.7458-44.1976Q50.5697-48.1771 50.5697-53.5482Q50.5697-59.1797 47.819-63.1755Q45.0684-67.1712 40.4053-69.3115Q35.7422-71.4518 30.0456-71.4518Q23.5352-71.4518 18.3268-68.3431Q13.1185-65.2344 10.8073-59.6517Q10.2376-58.3659 10.0016-57.137Q9.76562-55.9082 9.76562-54.8828Q9.76562-53.4668 10.5713-52.5635Q11.377-51.6602 12.8906-51.6602Q14.1764-51.6602 15.0146-52.3763Q15.8529-53.0924 16.2109-54.3457Q17.5781-60.0098 21.2158-62.6221Q24.8535-65.2344 29.834-65.2344Q33.7077-65.2344 36.8408-63.7939Q39.974-62.3535 41.8213-59.7493Q43.6686-57.1452 43.6686-53.5807Q43.6686-50.8626 42.6188-48.763Q41.569-46.6634 39.6484-44.8324Q37.7279-43.0013 35.1074-41.1296Q31.9824-38.9323 29.6875-36.6699Q27.3926-34.4076 26.1312-31.7546Q24.8698-29.1016 24.8698-25.7487Q24.8698-25.0651 24.8698-24.3896Q24.8698-23.7142 24.8698-23.0469Q24.8698-21.4355 25.7568-20.4183Q26.6439-19.401 28.3529-19.401ZM28.3691 1.23698Q30.4525 1.23698 31.8685-0.211589Q33.2845-1.66016 33.2845-3.67839Q33.2845-5.71289 31.8685-7.14518Q30.4525-8.57747 28.3691-8.57747Q26.3672-8.57747 24.9349-7.14518Q23.5026-5.71289 23.5026-3.67839Q23.5026-1.66016 24.9349-0.211589Q26.3672 1.23698 28.3691 1.23698Z"/>
  </g>
  <g id="Thin-S" transform="matrix(1 0 0 1 827.395 696)">
   <path d="M27.2981-18.9705Q28.1943-18.9705 28.6881-19.5738Q29.1819-20.177 29.1819-21.067Q29.1819-21.9049 29.1819-22.7319Q29.1819-23.5588 29.1819-24.3967Q29.1929-27.2429 29.9442-29.2811Q30.6956-31.3193 32.5313-33.2354Q34.3671-35.1515 37.7237-37.4937Q43.1782-41.4236 45.7331-45.2093Q48.2879-48.9951 48.2879-53.9787Q48.2879-59.1797 45.7417-63.1001Q43.1956-67.0205 38.8231-69.2147Q34.4506-71.4088 29.0338-71.4088Q22.4373-71.4088 17.4442-67.9018Q12.4512-64.3948 10.5705-58.7261Q10.0869-57.4833 9.92629-56.4374Q9.76562-55.3916 9.76562-54.6245Q9.76562-53.7897 10.2161-53.2738Q10.6666-52.758 11.5345-52.758Q12.3252-52.758 12.7867-53.1943Q13.2482-53.6306 13.434-54.4749Q14.4137-60.7201 18.6649-64.3011Q22.9161-67.8821 28.9299-67.8821Q33.2772-67.8821 36.7762-66.1188Q40.2753-64.3555 42.3379-61.2454Q44.4005-58.1354 44.4005-53.9897Q44.4005-51.2932 43.383-49.0321Q42.3655-46.771 40.2942-44.5848Q38.223-42.3986 35.0428-40.0532Q31.5949-37.5331 29.4615-35.2815Q27.328-33.0299 26.3357-30.5168Q25.3434-28.0037 25.3434-24.737Q25.3434-23.795 25.3434-22.872Q25.3434-21.949 25.3434-21.0449Q25.3434-20.144 25.8537-19.5572Q26.364-18.9705 27.2981-18.9705ZM27.4005 0.677293Q28.8165 0.677293 29.7804-0.297694Q30.7444-1.27268 30.7444-2.66665Q30.7444-4.03383 29.7804-5.00331Q28.8165-5.97278 27.4005-5.97278Q26.0443-5.97278 25.0748-5.00331Q24.1053-4.03383 24.1053-2.66665Q24.1053-1.27268 25.0748-0.297694Q26.0443 0.677293 27.4005 0.677293Z"/>
  </g>
  <g id="Ultralight-S" transform="matrix(1 0 0 1 531.269 696)">
   <path d="M26.7578-18.75Q27.2461-18.75 27.5635-19.1162Q27.8809-19.4824 27.8809-20.0195Q27.8809-21.0449 27.8809-22.0703Q27.8809-23.0957 27.8809-24.1211Q27.8809-27.0996 28.6377-29.248Q29.3945-31.3965 31.2744-33.4229Q33.1543-35.4492 36.6211-37.8906Q42.2852-42.041 44.7021-45.7275Q47.1191-49.4141 47.1191-54.1992Q47.1191-59.1797 44.6777-63.0615Q42.2363-66.9434 38.0127-69.165Q33.7891-71.3867 28.5156-71.3867Q21.875-71.3867 16.9922-67.6758Q12.1094-63.9648 10.4492-58.252Q10.0098-57.0312 9.8877-56.0791Q9.76562-55.127 9.76562-54.4922Q9.76562-53.9551 10.0342-53.6377Q10.3027-53.3203 10.8398-53.3203Q11.377-53.3203 11.6455-53.6133Q11.9141-53.9062 12.0117-54.541Q12.793-61.084 17.3584-65.1611Q21.9238-69.2383 28.4668-69.2383Q33.0566-69.2383 36.7432-67.3096Q40.4297-65.3809 42.6025-62.0117Q44.7754-58.6426 44.7754-54.1992Q44.7754-51.5137 43.7744-49.1699Q42.7734-46.8262 40.625-44.458Q38.4766-42.0898 35.0098-39.502Q31.3965-36.8164 29.3457-34.5703Q27.2949-32.3242 26.4404-29.8828Q25.5859-27.4414 25.5859-24.2188Q25.5859-23.1445 25.5859-22.0947Q25.5859-21.0449 25.5859-20.0195Q25.5859-19.4824 25.9033-19.1162Q26.2207-18.75 26.7578-18.75ZM26.9043 0.390625Q27.9785 0.390625 28.7109-0.341797Q29.4434-1.07422 29.4434-2.14844Q29.4434-3.17383 28.7109-3.90625Q27.9785-4.63867 26.9043-4.63867Q25.8789-4.63867 25.1465-3.90625Q24.4141-3.17383 24.4141-2.14844Q24.4141-1.07422 25.1465-0.341797Q25.8789 0.390625 26.9043 0.390625Z"/>
  </g>
 </g>
</svg>
