<?xml version="1.0" encoding="UTF-8"?>
<!--Generator: Apple Native CoreSVG 149-->
<!DOCTYPE svg
PUBLIC "-//W3C//DTD SVG 1.1//EN"
       "http://www.w3.org/Graphics/SVG/1.1/DTD/svg11.dtd">
<svg version="1.1" xmlns="http://www.w3.org/2000/svg" xmlns:xlink="http://www.w3.org/1999/xlink" width="3300" height="2200">
 <!--glyph: "uni10014D.medium", point size: 100.000000, font version: "Version 16.0d18e1", template writer version: "8"-->
 <g id="Notes">
  <rect height="2200" id="artboard" style="fill:white;opacity:1" width="3300" x="0" y="0"/>
  <line id="" style="fill:none;stroke:black;opacity:1;stroke-width:0.5;" x1="263" x2="3036" y1="292" y2="292"/>
  <text style="stroke:none;fill:black;font-family:-apple-system,&quot;SF Pro Display&quot;,&quot;SF Pro Text&quot;,Helvetica,sans-serif;font-weight:bold;" transform="matrix(1 0 0 1 263 322)">Weight/Scale Variations</text>
  <text style="stroke:none;fill:black;font-family:-apple-system,&quot;SF Pro Display&quot;,&quot;SF Pro Text&quot;,Helvetica,sans-serif;text-anchor:middle;" transform="matrix(1 0 0 1 559.711 322)">Ultralight</text>
  <text style="stroke:none;fill:black;font-family:-apple-system,&quot;SF Pro Display&quot;,&quot;SF Pro Text&quot;,Helvetica,sans-serif;text-anchor:middle;" transform="matrix(1 0 0 1 856.422 322)">Thin</text>
  <text style="stroke:none;fill:black;font-family:-apple-system,&quot;SF Pro Display&quot;,&quot;SF Pro Text&quot;,Helvetica,sans-serif;text-anchor:middle;" transform="matrix(1 0 0 1 1153.13 322)">Light</text>
  <text style="stroke:none;fill:black;font-family:-apple-system,&quot;SF Pro Display&quot;,&quot;SF Pro Text&quot;,Helvetica,sans-serif;text-anchor:middle;" transform="matrix(1 0 0 1 1449.84 322)">Regular</text>
  <text style="stroke:none;fill:black;font-family:-apple-system,&quot;SF Pro Display&quot;,&quot;SF Pro Text&quot;,Helvetica,sans-serif;text-anchor:middle;" transform="matrix(1 0 0 1 1746.56 322)">Medium</text>
  <text style="stroke:none;fill:black;font-family:-apple-system,&quot;SF Pro Display&quot;,&quot;SF Pro Text&quot;,Helvetica,sans-serif;text-anchor:middle;" transform="matrix(1 0 0 1 2043.27 322)">Semibold</text>
  <text style="stroke:none;fill:black;font-family:-apple-system,&quot;SF Pro Display&quot;,&quot;SF Pro Text&quot;,Helvetica,sans-serif;text-anchor:middle;" transform="matrix(1 0 0 1 2339.98 322)">Bold</text>
  <text style="stroke:none;fill:black;font-family:-apple-system,&quot;SF Pro Display&quot;,&quot;SF Pro Text&quot;,Helvetica,sans-serif;text-anchor:middle;" transform="matrix(1 0 0 1 2636.69 322)">Heavy</text>
  <text style="stroke:none;fill:black;font-family:-apple-system,&quot;SF Pro Display&quot;,&quot;SF Pro Text&quot;,Helvetica,sans-serif;text-anchor:middle;" transform="matrix(1 0 0 1 2933.4 322)">Black</text>
  <line id="" style="fill:none;stroke:black;opacity:1;stroke-width:0.5;" x1="263" x2="3036" y1="1903" y2="1903"/>
  <g id="" transform="matrix(1 0 0 1 263 1933)">
   <path d="M9.24805 0.830078C13.5547 0.830078 17.1387-2.74414 17.1387-7.05078C17.1387-11.3574 13.5449-14.9316 9.23828-14.9316C4.94141-14.9316 1.36719-11.3574 1.36719-7.05078C1.36719-2.74414 4.95117 0.830078 9.24805 0.830078ZM9.24805-0.654297C5.70312-0.654297 2.87109-3.49609 2.87109-7.05078C2.87109-10.6055 5.69336-13.4473 9.23828-13.4473C12.793-13.4473 15.6348-10.6055 15.6445-7.05078C15.6543-3.49609 12.8027-0.654297 9.24805-0.654297ZM6.39648-6.31836L8.50586-6.31836L8.50586-4.19922C8.50586-3.75977 8.79883-3.45703 9.22852-3.45703C9.67773-3.45703 9.9707-3.75977 9.9707-4.19922L9.9707-6.31836L12.0996-6.31836C12.5391-6.31836 12.8418-6.61133 12.8418-7.04102C12.8418-7.48047 12.5391-7.7832 12.0996-7.7832L9.9707-7.7832L9.9707-9.89258C9.9707-10.3418 9.67773-10.6445 9.22852-10.6445C8.79883-10.6445 8.50586-10.3418 8.50586-9.89258L8.50586-7.7832L6.39648-7.7832C5.94727-7.7832 5.64453-7.48047 5.64453-7.04102C5.64453-6.61133 5.94727-6.31836 6.39648-6.31836Z"/>
  </g>
  <g id="" transform="matrix(1 0 0 1 281.506 1933)">
   <path d="M11.709 2.91016C17.1582 2.91016 21.6699-1.61133 21.6699-7.05078C21.6699-12.5 17.1484-17.0117 11.6992-17.0117C6.25977-17.0117 1.74805-12.5 1.74805-7.05078C1.74805-1.61133 6.26953 2.91016 11.709 2.91016ZM11.709 1.25C7.09961 1.25 3.41797-2.44141 3.41797-7.05078C3.41797-11.6602 7.08984-15.3516 11.6992-15.3516C16.3086-15.3516 20-11.6602 20.0098-7.05078C20.0195-2.44141 16.3184 1.25 11.709 1.25ZM7.98828-6.23047L10.8789-6.23047L10.8789-3.32031C10.8789-2.83203 11.2109-2.5 11.6895-2.5C12.1777-2.5 12.5195-2.83203 12.5195-3.32031L12.5195-6.23047L15.4297-6.23047C15.918-6.23047 16.25-6.5625 16.25-7.04102C16.25-7.5293 15.918-7.87109 15.4297-7.87109L12.5195-7.87109L12.5195-10.7617C12.5195-11.2695 12.1777-11.6016 11.6895-11.6016C11.2109-11.6016 10.8789-11.2598 10.8789-10.7617L10.8789-7.87109L7.98828-7.87109C7.48047-7.87109 7.14844-7.5293 7.14844-7.04102C7.14844-6.5625 7.49023-6.23047 7.98828-6.23047Z"/>
  </g>
  <g id="" transform="matrix(1 0 0 1 304.924 1933)">
   <path d="M14.9707 5.66406C21.9336 5.66406 27.6953-0.0976562 27.6953-7.05078C27.6953-14.0137 21.9238-19.7754 14.9609-19.7754C8.00781-19.7754 2.25586-14.0137 2.25586-7.05078C2.25586-0.0976562 8.01758 5.66406 14.9707 5.66406ZM14.9707 3.84766C8.93555 3.84766 4.08203-1.01562 4.08203-7.05078C4.08203-13.0957 8.92578-17.9492 14.9609-17.9492C21.0059-17.9492 25.8594-13.0957 25.8691-7.05078C25.8789-1.01562 21.0156 3.84766 14.9707 3.84766ZM10.0586-6.14258L14.0625-6.14258L14.0625-2.12891C14.0625-1.5918 14.4336-1.2207 14.9512-1.2207C15.4883-1.2207 15.8594-1.5918 15.8594-2.12891L15.8594-6.14258L19.8828-6.14258C20.4102-6.14258 20.791-6.51367 20.791-7.03125C20.791-7.56836 20.4199-7.94922 19.8828-7.94922L15.8594-7.94922L15.8594-11.9531C15.8594-12.5098 15.4883-12.8809 14.9512-12.8809C14.4336-12.8809 14.0625-12.5 14.0625-11.9531L14.0625-7.94922L10.0586-7.94922C9.50195-7.94922 9.13086-7.56836 9.13086-7.03125C9.13086-6.51367 9.51172-6.14258 10.0586-6.14258Z"/>
  </g>
  <text style="stroke:none;fill:black;font-family:-apple-system,&quot;SF Pro Display&quot;,&quot;SF Pro Text&quot;,Helvetica,sans-serif;font-weight:bold;" transform="matrix(1 0 0 1 263 1953)">Design Variations</text>
  <text style="stroke:none;fill:black;font-family:-apple-system,&quot;SF Pro Display&quot;,&quot;SF Pro Text&quot;,Helvetica,sans-serif;" transform="matrix(1 0 0 1 263 1971)">Symbols are supported in up to nine weights and three scales.</text>
  <text style="stroke:none;fill:black;font-family:-apple-system,&quot;SF Pro Display&quot;,&quot;SF Pro Text&quot;,Helvetica,sans-serif;" transform="matrix(1 0 0 1 263 1989)">For optimal layout with text and other symbols, vertically align</text>
  <text style="stroke:none;fill:black;font-family:-apple-system,&quot;SF Pro Display&quot;,&quot;SF Pro Text&quot;,Helvetica,sans-serif;" transform="matrix(1 0 0 1 263 2007)">symbols with the adjacent text.</text>
  <line id="" style="fill:none;stroke:#00AEEF;stroke-width:0.5;opacity:1.0;" x1="776" x2="776" y1="1919" y2="1933"/>
  <g id="" transform="matrix(1 0 0 1 776 1933)">
   <path d="M3.31055 0.126953C3.82812 0.126953 4.08203-0.0683594 4.26758-0.605469L5.52734-4.0625L11.2891-4.0625L12.5488-0.605469C12.7344-0.0683594 12.9883 0.126953 13.4961 0.126953C14.0137 0.126953 14.3457-0.185547 14.3457-0.673828C14.3457-0.839844 14.3164-0.986328 14.2383-1.20117L9.6582-13.3887C9.43359-13.9941 9.0332-14.2871 8.4082-14.2871C7.80273-14.2871 7.39258-13.9941 7.17773-13.3984L2.59766-1.19141C2.51953-0.976562 2.49023-0.830078 2.49023-0.664062C2.49023-0.175781 2.80273 0.126953 3.31055 0.126953ZM6.00586-5.53711L8.37891-12.1094L8.42773-12.1094L10.8008-5.53711Z"/>
  </g>
  <line id="" style="fill:none;stroke:#00AEEF;stroke-width:0.5;opacity:1.0;" x1="792.836" x2="792.836" y1="1919" y2="1933"/>
  <text style="stroke:none;fill:black;font-family:-apple-system,&quot;SF Pro Display&quot;,&quot;SF Pro Text&quot;,Helvetica,sans-serif;font-weight:bold;" transform="matrix(1 0 0 1 776 1953)">Margins</text>
  <text style="stroke:none;fill:black;font-family:-apple-system,&quot;SF Pro Display&quot;,&quot;SF Pro Text&quot;,Helvetica,sans-serif;" transform="matrix(1 0 0 1 776 1971)">Leading and trailing margins on the left and right side of each symbol</text>
  <text style="stroke:none;fill:black;font-family:-apple-system,&quot;SF Pro Display&quot;,&quot;SF Pro Text&quot;,Helvetica,sans-serif;" transform="matrix(1 0 0 1 776 1989)">can be adjusted by modifying the x-location of the margin guidelines.</text>
  <text style="stroke:none;fill:black;font-family:-apple-system,&quot;SF Pro Display&quot;,&quot;SF Pro Text&quot;,Helvetica,sans-serif;" transform="matrix(1 0 0 1 776 2007)">Modifications are automatically applied proportionally to all</text>
  <text style="stroke:none;fill:black;font-family:-apple-system,&quot;SF Pro Display&quot;,&quot;SF Pro Text&quot;,Helvetica,sans-serif;" transform="matrix(1 0 0 1 776 2025)">scales and weights.</text>
  <g id="" transform="matrix(1 0 0 1 1289 1933)">
   <path d="M2.8418 1.86523L4.54102 3.57422C5.40039 4.44336 6.38672 4.38477 7.31445 3.35938L17.4902-7.85156C17.7539-7.76367 18.0273-7.7832 18.3398-7.8418L19.4043-8.03711L20.0684-7.36328L20.0293-6.80664C19.9902-6.30859 20.1172-5.92773 20.6055-5.44922L21.3672-4.70703C21.8457-4.22852 22.4609-4.19922 22.9297-4.66797L25.8398-7.58789C26.3086-8.05664 26.2891-8.65234 25.8105-9.13086L25.0391-9.89258C24.5605-10.3711 24.1895-10.5273 23.7109-10.4883L23.1348-10.4395L22.4902-11.0742L22.7344-12.1973C22.8613-12.7637 22.7051-13.2031 22.1191-13.7891L19.9219-15.9766C16.582-19.2969 12.1484-19.2188 9.25781-16.3281C8.83789-15.918 8.80859-15.3418 9.04297-14.9512C9.27734-14.5898 9.73633-14.3555 10.3809-14.5215C11.8457-14.8633 13.3691-14.9219 14.7949-13.9844L14.209-12.5293C14.0137-12.0508 13.9844-11.6504 14.1113-11.2891L3.04688-0.898438C2.06055 0.0195312 1.98242 0.996094 2.8418 1.86523ZM10.752-15.957C13.1836-17.7344 16.4746-17.4316 18.7012-15.2051L21.1328-12.793C21.3672-12.5586 21.4062-12.373 21.3379-12.0312L21.0156-10.5469L22.5195-9.0625L23.5059-9.12109C23.7598-9.13086 23.8379-9.11133 24.0332-8.91602L24.6094-8.33984L22.168-5.89844L21.5918-6.47461C21.3965-6.66992 21.3672-6.74805 21.377-7.01172L21.4453-7.98828L19.9512-9.47266L18.4277-9.21875C18.1055-9.15039 17.959-9.17969 17.7148-9.41406L15.7129-11.416C15.459-11.6504 15.4297-11.8164 15.5859-12.1875L16.4648-14.2773C14.9023-15.7324 12.8711-16.3574 10.8398-15.7617C10.6836-15.7227 10.625-15.8496 10.752-15.957ZM5.27344 2.30469L4.10156 1.14258C3.63281 0.683594 3.74023 0.341797 4.14062-0.0195312L14.9512-10.1953L16.416-8.71094L6.42578 2.27539C6.07422 2.67578 5.74219 2.77344 5.27344 2.30469Z"/>
  </g>
  <text style="stroke:none;fill:black;font-family:-apple-system,&quot;SF Pro Display&quot;,&quot;SF Pro Text&quot;,Helvetica,sans-serif;font-weight:bold;" transform="matrix(1 0 0 1 1289 1953)">Exporting</text>
  <text style="stroke:none;fill:black;font-family:-apple-system,&quot;SF Pro Display&quot;,&quot;SF Pro Text&quot;,Helvetica,sans-serif;" transform="matrix(1 0 0 1 1289 1971)">Symbols should be outlined when exporting to ensure the</text>
  <text style="stroke:none;fill:black;font-family:-apple-system,&quot;SF Pro Display&quot;,&quot;SF Pro Text&quot;,Helvetica,sans-serif;" transform="matrix(1 0 0 1 1289 1989)">design is preserved when submitting to Xcode.</text>
  <text id="template-version" style="stroke:none;fill:black;font-family:-apple-system,&quot;SF Pro Display&quot;,&quot;SF Pro Text&quot;,Helvetica,sans-serif;text-anchor:end;" transform="matrix(1 0 0 1 3036 1933)">Template v.2.0</text>
  <text style="stroke:none;fill:black;font-family:-apple-system,&quot;SF Pro Display&quot;,&quot;SF Pro Text&quot;,Helvetica,sans-serif;text-anchor:end;" transform="matrix(1 0 0 1 3036 1951)">Requires Xcode 12 or greater</text>
  <text style="stroke:none;fill:black;font-family:-apple-system,&quot;SF Pro Display&quot;,&quot;SF Pro Text&quot;,Helvetica,sans-serif;text-anchor:end;" transform="matrix(1 0 0 1 3036 1969)">Generated from questionmark</text>
  <text style="stroke:none;fill:black;font-family:-apple-system,&quot;SF Pro Display&quot;,&quot;SF Pro Text&quot;,Helvetica,sans-serif;text-anchor:end;" transform="matrix(1 0 0 1 3036 1987)">Typeset at 100 points</text>
  <text style="stroke:none;fill:black;font-family:-apple-system,&quot;SF Pro Display&quot;,&quot;SF Pro Text&quot;,Helvetica,sans-serif;" transform="matrix(1 0 0 1 263 726)">Small</text>
  <text style="stroke:none;fill:black;font-family:-apple-system,&quot;SF Pro Display&quot;,&quot;SF Pro Text&quot;,Helvetica,sans-serif;" transform="matrix(1 0 0 1 263 1156)">Medium</text>
  <text style="stroke:none;fill:black;font-family:-apple-system,&quot;SF Pro Display&quot;,&quot;SF Pro Text&quot;,Helvetica,sans-serif;" transform="matrix(1 0 0 1 263 1586)">Large</text>
 </g>
 <g id="Guides">
  <g id="H-reference" style="fill:#27AAE1;stroke:none;" transform="matrix(1 0 0 1 339 696)">
   <path d="M0.976562 0L3.66211 0L12.9883-24.4629L45.752-24.4629L55.127 0L57.7637 0L30.6152-70.459L28.125-70.459ZM29.3457-67.1387L29.4434-67.1387L44.873-26.709L13.8672-26.709Z"/>
  </g>
  <line id="Baseline-S" style="fill:none;stroke:#27AAE1;opacity:1;stroke-width:0.5;" x1="263" x2="3036" y1="696" y2="696"/>
  <line id="Capline-S" style="fill:none;stroke:#27AAE1;opacity:1;stroke-width:0.5;" x1="263" x2="3036" y1="625.541" y2="625.541"/>
  <g id="H-reference" style="fill:#27AAE1;stroke:none;" transform="matrix(1 0 0 1 339 1126)">
   <path d="M0.976562 0L3.66211 0L12.9883-24.4629L45.752-24.4629L55.127 0L57.7637 0L30.6152-70.459L28.125-70.459ZM29.3457-67.1387L29.4434-67.1387L44.873-26.709L13.8672-26.709Z"/>
  </g>
  <line id="Baseline-M" style="fill:none;stroke:#27AAE1;opacity:1;stroke-width:0.5;" x1="263" x2="3036" y1="1126" y2="1126"/>
  <line id="Capline-M" style="fill:none;stroke:#27AAE1;opacity:1;stroke-width:0.5;" x1="263" x2="3036" y1="1055.54" y2="1055.54"/>
  <g id="H-reference" style="fill:#27AAE1;stroke:none;" transform="matrix(1 0 0 1 339 1556)">
   <path d="M0.976562 0L3.66211 0L12.9883-24.4629L45.752-24.4629L55.127 0L57.7637 0L30.6152-70.459L28.125-70.459ZM29.3457-67.1387L29.4434-67.1387L44.873-26.709L13.8672-26.709Z"/>
  </g>
  <line id="Baseline-L" style="fill:none;stroke:#27AAE1;opacity:1;stroke-width:0.5;" x1="263" x2="3036" y1="1556" y2="1556"/>
  <line id="Capline-L" style="fill:none;stroke:#27AAE1;opacity:1;stroke-width:0.5;" x1="263" x2="3036" y1="1485.54" y2="1485.54"/>
  <line id="left-margin" style="fill:none;stroke:#00AEEF;stroke-width:0.5;opacity:1.0;" x1="1410.86" x2="1410.86" y1="1030.79" y2="1150.12"/>
  <line id="right-margin" style="fill:none;stroke:#00AEEF;stroke-width:0.5;opacity:1.0;" x1="1488.83" x2="1488.83" y1="1030.79" y2="1150.12"/>
 </g>
 <g id="Symbols">
  <g id="Black-L" transform="matrix(1 0 0 1 2877.35 1556)">
   <path d="M52.1484-11.4746C58.3496-11.4746 62.4512-14.4043 63.8184-19.873C63.916-20.1172 64.0137-20.5566 64.0625-20.8008C65.2344-26.2695 67.8711-28.8086 78.4668-35.1074C90.2344-42.0898 96.0449-50.293 96.0449-62.207C96.0449-82.2754 79.6387-94.5312 55.5664-94.5312C37.8418-94.5312 24.2188-87.793 18.5547-77.4414C16.8945-74.4141 16.0645-71.1426 16.0645-67.8711C16.0156-60.8398 20.8008-56.0547 28.3691-56.0547C33.8867-56.0547 38.5742-58.8379 40.8203-63.6719C43.6035-70.2148 48.0957-72.6562 54.1992-72.6562C61.6211-72.6562 67.2852-68.2129 67.2852-61.7188C67.2852-54.4434 63.7207-51.123 53.5156-45.0195C45.1172-39.9414 39.4531-33.8867 39.4531-24.9023L39.4531-23.7305C39.4531-16.3574 44.5801-11.4746 52.1484-11.4746ZM52.4902 25.8789C60.8887 25.8789 67.7734 19.4824 67.7734 11.377C67.7734 3.32031 60.8887-3.07617 52.4902-3.07617C44.0918-3.07617 37.2559 3.32031 37.2559 11.377C37.2559 19.4824 44.0918 25.8789 52.4902 25.8789Z"/>
  </g>
  <g id="Heavy-L" transform="matrix(1 0 0 1 2582.17 1556)">
   <path d="M50.8301-10.8887C56.3965-10.8887 59.9609-13.7207 61.0352-18.75C61.084-19.1406 61.1328-19.7266 61.1816-20.166C62.1094-26.416 64.7949-29.248 75.3418-35.7422C86.9629-42.9199 92.9688-51.0742 92.9688-62.9883C92.9688-82.6172 76.9043-94.6289 54.1016-94.6289C37.207-94.6289 23.877-87.7441 18.3594-76.9531C16.7969-73.9258 16.0645-70.8008 16.0645-67.8223C16.0156-61.7188 20.0684-57.5684 26.6113-57.5684C31.4941-57.5684 35.498-60.0586 37.4023-64.4043C40.1855-72.3633 45.6543-75.5859 52.9785-75.5859C61.6699-75.5859 68.4082-70.3613 68.4082-62.5977C68.4082-54.9316 64.4043-51.123 54.4922-44.9707C45.6543-39.3555 39.8438-33.1055 39.8438-23.6328L39.8438-21.6309C39.8438-15.1855 44.1895-10.8887 50.8301-10.8887ZM51.0742 25.6348C58.5449 25.6348 64.5996 19.873 64.5996 12.6953C64.5996 5.46875 58.5449-0.244141 51.0742-0.244141C43.6523-0.244141 37.5977 5.46875 37.5977 12.6953C37.5977 19.873 43.6523 25.6348 51.0742 25.6348Z"/>
  </g>
  <g id="Bold-L" transform="matrix(1 0 0 1 2287.19 1556)">
   <path d="M49.3164-10.3027C54.248-10.3027 57.1777-12.9883 57.8613-17.4316C57.9102-18.0664 57.959-18.8477 57.959-19.4824C58.5938-26.5625 61.4258-29.7363 71.9238-36.4258C83.3984-43.7988 89.502-52.002 89.502-63.8672C89.502-83.0078 73.877-94.7266 52.4414-94.7266C36.4258-94.7266 23.4863-87.6953 18.1641-76.416C16.6992-73.4375 16.0645-70.459 16.0645-67.7246C16.0156-62.6953 19.2871-59.2773 24.707-59.2773C28.8086-59.2773 32.0801-61.4258 33.5938-65.2344C36.4258-74.7559 42.9688-78.8574 51.6113-78.8574C61.7188-78.8574 69.6289-72.7539 69.6289-63.623C69.6289-55.4688 65.1855-51.123 55.6641-44.9219C46.2891-38.6719 40.2344-32.1777 40.2344-22.168L40.2344-19.2871C40.2344-13.916 43.75-10.3027 49.3164-10.3027ZM49.5605 25.3418C55.9082 25.3418 61.1328 20.3613 61.1328 14.1113C61.1328 7.91016 55.9082 2.97852 49.5605 2.97852C43.1641 2.97852 37.9883 7.91016 37.9883 14.1113C37.9883 20.3613 43.1641 25.3418 49.5605 25.3418Z"/>
  </g>
  <g id="Semibold-L" transform="matrix(1 0 0 1 1991.68 1556)">
   <path d="M48.291-9.86328C52.7344-9.86328 55.2246-12.5 55.7129-16.5527C55.7129-17.334 55.7617-18.2129 55.7617-18.9941C56.2012-26.6602 59.082-30.0781 69.5312-36.9141C80.9082-44.4336 87.1094-52.6367 87.1094-64.4531C87.1094-83.3008 71.7773-94.7754 51.3184-94.7754C35.9375-94.7754 23.1934-87.6465 18.0176-76.0254C16.6504-73.0957 16.0645-70.2148 16.0645-67.6758C16.0645-63.3789 18.75-60.4004 23.3398-60.4004C26.9531-60.4004 29.6875-62.4023 30.9082-65.7715C33.7891-76.3672 41.1133-81.1035 50.6348-81.1035C61.7676-81.1035 70.5078-74.4141 70.5078-64.3066C70.5078-55.8594 65.7227-51.123 56.4453-44.873C46.6797-38.2324 40.5273-31.543 40.5273-21.1914L40.5273-17.6758C40.5273-12.9883 43.4082-9.86328 48.291-9.86328ZM48.4863 25.0977C54.1016 25.0977 58.6914 20.6543 58.6914 15.1367C58.6914 9.57031 54.1016 5.17578 48.4863 5.17578C42.8711 5.17578 38.2812 9.57031 38.2812 15.1367C38.2812 20.6543 42.8711 25.0977 48.4863 25.0977Z"/>
  </g>
  <g id="Medium-L" transform="matrix(1 0 0 1 1695.87 1556)">
   <path d="M47.5586-9.52148C51.6113-9.52148 53.8086-12.1094 54.0527-15.8691C54.0527-16.7969 54.0527-17.7734 54.1016-18.6523C54.3945-26.709 57.3242-30.3223 67.7246-37.3047C79.0039-44.9219 85.3027-53.0762 85.3027-64.8926C85.3027-83.4961 70.166-94.8242 50.4395-94.8242C35.5469-94.8242 22.998-87.6465 17.9199-75.7324C16.6016-72.8027 16.0645-70.0195 16.0645-67.627C16.0645-63.8672 18.3594-61.2793 22.3633-61.2793C25.5859-61.2793 27.9297-63.1348 28.9062-66.2109C31.8359-77.6367 39.6973-82.7637 49.9023-82.7637C61.8164-82.7637 71.1426-75.6836 71.1426-64.8438C71.1426-56.1523 66.1133-51.123 57.0312-44.8242C47.0215-37.8906 40.7227-31.1035 40.7227-20.459L40.7227-16.4551C40.7227-12.3535 43.2129-9.52148 47.5586-9.52148ZM47.6562 24.9512C52.7344 24.9512 56.8359 20.8984 56.8359 15.8691C56.8359 10.8398 52.7344 6.83594 47.6562 6.83594C42.627 6.83594 38.4766 10.8398 38.4766 15.8691C38.4766 20.8984 42.627 24.9512 47.6562 24.9512Z"/>
  </g>
  <g id="Regular-L" transform="matrix(1 0 0 1 1400.36 1556)">
   <path d="M46.5332-9.08203C50.1465-9.08203 51.9043-11.5723 51.9043-14.9902L51.9043-18.1641C52.002-26.8066 54.9805-30.6152 65.332-37.793C76.5625-45.5566 82.9102-53.7109 82.9102-65.4785C82.9102-83.7891 68.0664-94.873 49.3164-94.873C35.0098-94.873 22.7539-87.5977 17.7734-75.3418C16.5527-72.4609 16.0645-69.7754 16.0645-67.5781C16.0645-64.5508 17.8223-62.4512 20.9961-62.4512C23.7305-62.4512 25.5371-64.0625 26.3184-66.748C29.248-79.248 37.8418-85.0098 48.9746-85.0098C61.8652-85.0098 72.0215-77.2949 72.0215-65.5273C72.0215-56.543 66.6504-51.123 57.8125-44.7754C47.4609-37.4512 41.0156-30.4688 41.0156-19.4824L41.0156-14.8438C41.0156-11.4258 42.8711-9.08203 46.5332-9.08203ZM46.582 24.7559C50.9766 24.7559 54.4434 21.1914 54.4434 16.8945C54.4434 12.5 50.9766 9.0332 46.582 9.0332C42.2852 9.0332 38.7207 12.5 38.7207 16.8945C38.7207 21.1914 42.2852 24.7559 46.582 24.7559Z"/>
  </g>
  <g id="Light-L" transform="matrix(1 0 0 1 1104.72 1556)">
   <path d="M45.5078-8.69141C48.1445-8.69141 49.4629-10.5469 49.4629-13.0371L49.4629-17.6758C49.5117-26.7578 52.5391-31.0059 63.2812-38.5254C75-46.8262 80.7617-54.6387 80.7617-65.918C80.7617-83.3496 66.6016-94.8242 48.3398-94.8242C33.9355-94.8242 21.9727-86.8164 17.5293-74.4629C16.4551-71.6309 16.0645-69.1895 16.0645-67.2852C16.0645-65.0391 17.3828-63.5254 19.7266-63.5254C21.8262-63.5254 23.1445-64.6973 23.6328-66.8457C26.123-80.127 35.6934-87.5 48.1445-87.5C61.8652-87.5 72.7051-78.8086 72.7051-65.918C72.7051-57.0312 67.627-51.0254 57.7148-43.75C46.7773-35.8398 41.4551-29.3457 41.4551-18.5059L41.4551-12.9395C41.4551-10.4492 42.8711-8.69141 45.5078-8.69141ZM45.6543 24.2188C49.1699 24.2188 52.0508 21.3379 52.0508 17.8711C52.0508 14.3555 49.1699 11.4746 45.6543 11.4746C42.1875 11.4746 39.3066 14.3555 39.3066 17.8711C39.3066 21.3379 42.1875 24.2188 45.6543 24.2188Z"/>
  </g>
  <g id="Thin-L" transform="matrix(1 0 0 1 809.45 1556)">
   <path d="M44.1895-8.1543C45.459-8.1543 46.2891-9.13086 46.2891-10.4492L46.2891-17.041C46.2891-26.6602 49.3164-31.4453 60.5469-39.502C72.998-48.4863 77.8809-55.8594 77.8809-66.5039C77.8809-82.7637 64.5996-94.7754 47.0703-94.7754C32.5195-94.7754 20.9961-85.791 17.1875-73.291C16.3574-70.5566 16.0645-68.457 16.0645-66.9434C16.0645-65.6738 16.7969-64.8926 17.9688-64.8926C19.2383-64.8926 19.873-65.5762 20.1172-66.9922C21.9727-81.2988 32.8125-90.8203 47.0215-90.8203C61.8164-90.8203 73.6328-80.7617 73.6328-66.4062C73.6328-57.6172 68.9453-50.8301 57.666-42.3828C45.8984-33.6914 42.041-27.8809 42.041-17.1875L42.041-10.4492C42.041-9.08203 42.8711-8.1543 44.1895-8.1543ZM44.4336 23.5352C46.8262 23.5352 48.8281 21.5332 48.8281 19.1406C48.8281 16.748 46.8262 14.7461 44.4336 14.7461C42.0898 14.7461 40.0879 16.748 40.0879 19.1406C40.0879 21.5332 42.0898 23.5352 44.4336 23.5352Z"/>
  </g>
  <g id="Ultralight-L" transform="matrix(1 0 0 1 513.495 1556)">
   <path d="M43.457-7.86133C44.0918-7.86133 44.6289-8.39844 44.6289-9.13086L44.6289-16.6992C44.6289-26.6602 47.6562-31.6895 59.1309-40.0391C71.9238-49.3652 76.3672-56.4941 76.3672-66.7969C76.3672-82.5195 63.5742-94.7754 46.3867-94.7754C31.7871-94.7754 20.459-85.2539 17.041-72.7051C16.2598-69.9707 16.0645-68.0664 16.0645-66.7969C16.0645-65.9668 16.5039-65.625 17.0898-65.625C17.9199-65.625 18.2617-66.0645 18.3105-67.0898C19.873-81.8848 31.3477-92.5293 46.4355-92.5293C61.8164-92.5293 74.1211-81.7383 74.1211-66.6992C74.1211-57.959 69.6289-50.7324 57.6172-41.6992C45.459-32.5684 42.334-27.0996 42.334-16.5527L42.334-9.13086C42.334-8.39844 42.8223-7.86133 43.457-7.86133ZM43.8477 23.1934C45.6543 23.1934 47.2168 21.6309 47.2168 19.8242C47.2168 18.0176 45.6543 16.4551 43.8477 16.4551C41.9922 16.4551 40.4785 18.0176 40.4785 19.8242C40.4785 21.6309 41.9922 23.1934 43.8477 23.1934Z"/>
  </g>
  <g id="Black-M" transform="matrix(1 0 0 1 2888.45 1126)">
   <path d="M41.6504-17.334C46.7285-17.334 50.4395-19.3848 52.002-23.8281C52.0508-24.0234 52.1973-24.4141 52.2461-24.6094C53.4668-28.0762 55.3711-29.8828 63.8672-34.668C73.4375-40.1367 77.4414-46.2891 77.4414-55.3223C77.4414-70.9961 64.5996-81.0547 44.5312-81.0547C29.6875-81.0547 18.7988-75.6348 14.502-68.1152C13.1348-65.7715 12.4512-63.1836 12.4512-60.498C12.4023-54.1504 16.7969-49.9023 23.6328-49.9023C28.4668-49.9023 32.7637-52.2461 34.8633-56.3965C36.6699-59.9121 39.3555-61.6699 43.2129-61.6699C47.6562-61.6699 50.9766-58.6914 50.9766-54.7363C50.9766-49.707 49.0234-47.4609 40.0879-42.334C33.8867-38.8184 30.3223-34.668 30.3223-28.418L30.3223-28.125C30.3223-21.6309 35.0586-17.334 41.6504-17.334ZM42.041 12.2559C49.4141 12.2559 55.4688 6.68945 55.4688-0.341797C55.4688-7.32422 49.4141-12.8418 42.041-12.8418C34.668-12.8418 28.7109-7.32422 28.7109-0.341797C28.7109 6.68945 34.668 12.2559 42.041 12.2559Z"/>
  </g>
  <g id="Heavy-M" transform="matrix(1 0 0 1 2593.13 1126)">
   <path d="M40.4785-16.8457C45.166-16.8457 48.3398-18.9453 49.5117-23.0957C49.5605-23.3398 49.6582-23.7793 49.707-24.0723C50.6836-28.2227 52.6855-30.2246 61.0352-35.1562C70.3125-40.7227 74.6582-46.9238 74.6582-56.0547C74.6582-71.4844 62.0117-81.1523 43.1641-81.1523C29.248-81.1523 18.6523-75.7812 14.3555-67.8223C13.0859-65.4785 12.4512-62.9883 12.4512-60.498C12.4023-54.9805 16.1621-51.2695 22.0703-51.2695C26.3672-51.2695 30.0293-53.418 31.7871-57.1289C33.7891-62.0605 37.3047-64.209 42.0898-64.209C47.7051-64.209 52.0508-60.6445 52.0508-55.6152C52.0508-50.0977 49.5117-47.5098 41.2109-42.5293C34.6191-38.5742 30.6152-34.082 30.6152-27.2949L30.6152-26.3184C30.6152-20.6055 34.6191-16.8457 40.4785-16.8457ZM40.7715 12.0605C47.3145 12.0605 52.6367 7.12891 52.6367 0.830078C52.6367-5.41992 47.3145-10.3516 40.7715-10.3516C34.2285-10.3516 28.9551-5.41992 28.9551 0.830078C28.9551 7.12891 34.2285 12.0605 40.7715 12.0605Z"/>
  </g>
  <g id="Bold-M" transform="matrix(1 0 0 1 2298.01 1126)">
   <path d="M39.1602-16.2598C43.3594-16.2598 46.0449-18.457 46.7773-22.2656C46.8262-22.6074 46.875-23.0957 46.9238-23.4375C47.5586-28.418 49.707-30.6641 57.8613-35.7422C66.7969-41.3086 71.4844-47.6562 71.4844-56.8848C71.4844-72.0215 59.1309-81.25 41.6504-81.25C28.7109-81.25 18.457-75.9277 14.209-67.4805C12.9883-65.1367 12.4512-62.7441 12.4512-60.4492C12.4023-55.9082 15.4297-52.832 20.3125-52.832C23.9746-52.832 26.9531-54.6875 28.3691-57.959C30.5664-64.4043 34.9609-67.041 40.8203-67.041C47.8027-67.041 53.2227-62.8418 53.2227-56.5918C53.2227-50.5859 50.0488-47.5586 42.4316-42.7734C35.498-38.3301 30.9082-33.4473 30.9082-26.0254L30.9082-24.3164C30.9082-19.4824 34.1309-16.2598 39.1602-16.2598ZM39.3555 11.8652C44.9707 11.8652 49.5117 7.56836 49.5117 2.14844C49.5117-3.27148 44.9707-7.61719 39.3555-7.61719C33.7402-7.61719 29.1992-3.27148 29.1992 2.14844C29.1992 7.56836 33.7402 11.8652 39.3555 11.8652Z"/>
  </g>
  <g id="Semibold-M" transform="matrix(1 0 0 1 2002.4 1126)">
   <path d="M38.2324-15.8691C42.1387-15.8691 44.4336-18.1152 44.873-21.6797C44.9219-22.1191 44.9707-22.6074 44.9707-23.0469C45.4102-28.5156 47.6074-30.957 55.6641-36.1328C64.4043-41.748 69.2871-48.1445 69.2871-57.4707C69.2871-72.4121 57.1289-81.3477 40.625-81.3477C28.3691-81.3477 18.3105-76.0742 14.1113-67.2363C12.9883-64.9414 12.4512-62.5977 12.4512-60.4492C12.4512-56.543 14.9414-53.8574 19.1406-53.8574C22.3633-53.8574 24.8535-55.6152 26.0254-58.5449C28.3203-66.0156 33.3496-68.9453 39.9414-68.9453C47.8516-68.9453 54.0039-64.3555 54.0039-57.2754C54.0039-50.9277 50.4395-47.5586 43.3105-42.9199C36.084-38.1836 31.1523-32.959 31.1523-25.1465L31.1523-22.9492C31.1523-18.75 33.8379-15.8691 38.2324-15.8691ZM38.3789 11.7676C43.3594 11.7676 47.3633 7.86133 47.3633 3.02734C47.3633-1.80664 43.3594-5.66406 38.3789-5.66406C33.3984-5.66406 29.3945-1.80664 29.3945 3.02734C29.3945 7.86133 33.3984 11.7676 38.3789 11.7676Z"/>
  </g>
  <g id="Medium-M" transform="matrix(1 0 0 1 1706.49 1126)">
   <path d="M37.5488-15.5762C41.2109-15.5762 43.1641-17.8711 43.457-21.2402C43.457-21.7285 43.5059-22.2168 43.5059-22.7051C43.7988-28.6133 46.0449-31.2012 54.0039-36.4258C62.5977-42.0898 67.6758-48.5352 67.6758-57.8613C67.6758-72.7051 55.5664-81.3965 39.8438-81.3965C28.0762-81.3965 18.2129-76.123 14.0137-67.041C12.9395-64.7949 12.4512-62.5 12.4512-60.4492C12.4512-57.0312 14.5508-54.6875 18.2129-54.6875C21.1426-54.6875 23.291-56.2988 24.2188-58.9844C26.6602-67.2363 32.1289-70.459 39.3066-70.459C47.9004-70.459 54.6387-65.5273 54.6387-57.8125C54.6387-51.1719 50.6836-47.6074 43.9453-43.0664C36.5723-38.0371 31.2988-32.6172 31.2988-24.4629L31.2988-21.875C31.2988-18.1641 33.5938-15.5762 37.5488-15.5762ZM37.5977 11.6699C42.0898 11.6699 45.7031 8.10547 45.7031 3.71094C45.7031-0.732422 42.0898-4.24805 37.5977-4.24805C33.1543-4.24805 29.541-0.732422 29.541 3.71094C29.541 8.10547 33.1543 11.6699 37.5977 11.6699Z"/>
  </g>
  <g id="Regular-M" transform="matrix(1 0 0 1 1410.86 1126)">
   <path d="M36.6211-15.1855C40.0391-15.1855 41.6016-17.5293 41.6016-20.6543L41.6016-22.3145C41.6992-28.7598 43.9941-31.4453 51.8066-36.8164C60.2051-42.4805 65.5273-49.0234 65.5273-58.4473C65.5273-73.0957 53.6133-81.4941 38.7695-81.4941C27.7344-81.4941 18.0664-76.2695 13.916-66.8457C12.8906-64.5508 12.4512-62.3047 12.4512-60.4492C12.4512-57.666 14.0625-55.7129 17.041-55.7129C19.5312-55.7129 21.1914-57.1777 21.9238-59.5703C24.4141-68.8477 30.5664-72.3633 38.4277-72.3633C47.9492-72.3633 55.4199-66.9922 55.4199-58.4961C55.4199-51.5137 51.0742-47.6074 44.8242-43.2129C37.1582-37.8906 31.543-32.1777 31.543-23.584L31.543-20.5078C31.543-17.3828 33.252-15.1855 36.6211-15.1855ZM36.6211 11.5234C40.5273 11.5234 43.6035 8.39844 43.6035 4.58984C43.6035 0.732422 40.5273-2.34375 36.6211-2.34375C32.8125-2.34375 29.6875 0.732422 29.6875 4.58984C29.6875 8.39844 32.8125 11.5234 36.6211 11.5234Z"/>
  </g>
  <g id="Light-M" transform="matrix(1 0 0 1 1115.12 1126)">
   <path d="M35.7422-14.8438C38.2324-14.8438 39.4043-16.5527 39.4043-18.8965L39.4043-21.875C39.502-28.7109 41.8457-31.7871 49.9512-37.4512C58.8379-43.6523 63.5742-49.8535 63.5742-58.8379C63.5742-72.7051 52.2461-81.4453 37.8906-81.4453C26.8066-81.4453 17.3828-75.5859 13.6719-66.0156C12.793-63.8184 12.4512-61.8164 12.4512-60.2051C12.4512-58.1055 13.6719-56.6895 15.8691-56.6895C17.7734-56.6895 18.9941-57.7637 19.5312-59.668C21.6309-69.6289 28.6133-74.6094 37.6953-74.6094C47.9492-74.6094 56.0547-68.3105 56.0547-58.8379C56.0547-51.9043 51.9531-47.5098 44.7754-42.2852C36.5234-36.4258 31.9336-31.2012 31.9336-22.7051L31.9336-18.8477C31.9336-16.4551 33.252-14.8438 35.7422-14.8438ZM35.791 11.084C38.916 11.084 41.4062 8.54492 41.4062 5.46875C41.4062 2.39258 38.916-0.146484 35.791-0.146484C32.7637-0.146484 30.2246 2.39258 30.2246 5.46875C30.2246 8.54492 32.7637 11.084 35.791 11.084Z"/>
  </g>
  <g id="Thin-M" transform="matrix(1 0 0 1 819.703 1126)">
   <path d="M34.5215-14.3555C35.8398-14.3555 36.5723-15.2832 36.5723-16.6016L36.5723-21.2891C36.5723-28.6133 38.916-32.1777 47.5098-38.3301C56.9824-45.166 60.9863-50.9277 60.9863-59.3262C60.9863-72.2168 50.4883-81.3965 36.7676-81.3965C25.5371-81.3965 16.5039-74.6582 13.3789-64.9902C12.6953-62.8418 12.4512-61.1328 12.4512-59.9121C12.4512-58.6914 13.1348-57.9102 14.3066-57.9102C15.4785-57.9102 16.1133-58.5938 16.3574-59.8145C17.9199-70.6543 26.0742-77.5879 36.6699-77.5879C47.9004-77.5879 56.8848-70.0684 56.8848-59.2773C56.8848-52.4414 53.1738-47.3633 44.7266-41.0645C35.7422-34.4727 32.4707-29.834 32.4707-21.5332L32.4707-16.5527C32.4707-15.2832 33.2031-14.3555 34.5215-14.3555ZM34.7168 10.4492C36.8164 10.4492 38.5254 8.74023 38.5254 6.64062C38.5254 4.54102 36.8164 2.83203 34.7168 2.83203C32.6172 2.83203 30.9082 4.54102 30.9082 6.64062C30.9082 8.74023 32.6172 10.4492 34.7168 10.4492Z"/>
  </g>
  <g id="Ultralight-M" transform="matrix(1 0 0 1 523.652 1126)">
   <path d="M33.8867-14.1113C34.6191-14.1113 35.0586-14.6484 35.0586-15.4297L35.0586-20.9473C35.0586-28.6133 37.4512-32.4219 46.2402-38.7695C56.0547-45.8984 59.668-51.5137 59.668-59.5703C59.668-71.9727 49.5605-81.3965 36.1328-81.3965C24.8535-81.3965 16.0156-74.1699 13.2324-64.4531C12.6465-62.3535 12.4512-60.791 12.4512-59.7656C12.4512-58.9844 12.8418-58.5449 13.5254-58.5449C14.3066-58.5449 14.6484-58.9844 14.7461-59.8633C16.0156-71.1914 24.7559-79.1504 36.1328-79.1504C47.9004-79.1504 57.2754-70.9961 57.2754-59.5215C57.2754-52.7344 53.7598-47.2656 44.6777-40.4297C35.3516-33.4961 32.7148-29.1504 32.7148-20.9473L32.7148-15.4297C32.7148-14.6484 33.2031-14.1113 33.8867-14.1113ZM34.1797 10.1562C35.7422 10.1562 37.0605 8.78906 37.0605 7.22656C37.0605 5.66406 35.7422 4.29688 34.1797 4.29688C32.5684 4.29688 31.25 5.66406 31.25 7.22656C31.25 8.78906 32.5684 10.1562 34.1797 10.1562Z"/>
  </g>
  <g id="Black-S" transform="matrix(1 0 0 1 2898.27 696)">
   <path d="M32.5684-21.1914C36.5234-21.1914 39.4043-22.8027 40.5762-26.2695C40.625-26.416 40.7227-26.709 40.7715-26.8555C41.6992-29.6387 43.2129-31.0547 49.8535-34.8145C57.3242-39.1113 60.498-43.9453 60.498-51.0254C60.498-63.2812 50.4395-71.1426 34.8145-71.1426C23.2422-71.1426 14.7461-66.8945 11.377-60.9863C10.3027-59.1309 9.76562-57.1289 9.76562-55.0293C9.7168-50.0977 13.1348-46.8262 18.4082-46.8262C22.168-46.8262 25.4883-48.6328 27.0996-51.8555C28.5645-54.7363 30.7129-56.1035 33.7891-56.1035C37.3535-56.1035 40.0391-53.7598 40.0391-50.5859C40.0391-46.582 38.4277-44.8242 31.4941-40.8203C26.6113-38.0371 23.7793-34.7656 23.7793-29.834L23.7793-29.541C23.7793-24.5117 27.4414-21.1914 32.5684-21.1914ZM32.8613 1.95312C38.5742 1.95312 43.2617-2.34375 43.2617-7.8125C43.2617-13.2324 38.5742-17.5293 32.8613-17.5293C27.1484-17.5293 22.5098-13.2324 22.5098-7.8125C22.5098-2.34375 27.1484 1.95312 32.8613 1.95312Z"/>
  </g>
  <g id="Heavy-S" transform="matrix(1 0 0 1 2602.53 696)">
   <path d="M31.7871-20.8496C35.498-20.8496 38.0371-22.5586 38.9648-25.8789C38.9648-26.0742 39.0625-26.3184 39.1113-26.5137C39.8438-29.7852 41.4062-31.2988 47.9004-35.1074C55.0781-39.4043 58.5449-44.3359 58.5449-51.5625C58.5449-63.7207 48.584-71.2402 33.8867-71.2402C22.998-71.2402 14.6973-67.0898 11.2793-60.8398C10.2539-58.9844 9.76562-57.0312 9.76562-55.0293C9.7168-50.6836 12.6953-47.7539 17.334-47.7539C20.752-47.7539 23.6328-49.4629 25.0488-52.4414C26.6602-56.25 29.3457-57.7637 33.0078-57.7637C37.4023-57.7637 40.7715-55.127 40.7715-51.2207C40.7715-46.875 38.7207-44.873 32.373-41.0645C27.2461-38.0371 23.9746-34.4238 23.9746-29.0527L23.9746-28.3691C23.9746-23.8281 27.0996-20.8496 31.7871-20.8496ZM31.9824 1.85547C37.1582 1.85547 41.3574-2.05078 41.3574-7.03125C41.3574-11.9629 37.1582-15.8691 31.9824-15.8691C26.8066-15.8691 22.6562-11.9629 22.6562-7.03125C22.6562-2.05078 26.8066 1.85547 31.9824 1.85547Z"/>
  </g>
  <g id="Bold-S" transform="matrix(1 0 0 1 2306.9 696)">
   <path d="M30.8594-20.459C34.375-20.459 36.5234-22.3145 37.1094-25.4883C37.1582-25.6348 37.207-25.9277 37.207-26.0742C37.7441-29.8828 39.4043-31.5918 45.7031-35.498C52.5879-39.7461 56.3965-44.7754 56.3965-52.1484C56.3965-64.1602 46.5332-71.2891 32.8125-71.2891C22.7051-71.2891 14.5996-67.2852 11.1816-60.6934C10.2051-58.8379 9.76562-56.9336 9.76562-55.0781C9.76562-51.3672 12.1582-48.8281 16.1621-48.8281C19.1406-48.8281 21.582-50.3906 22.7051-53.0762C24.5605-57.959 27.7832-59.668 32.1289-59.668C37.4512-59.668 41.6016-56.6406 41.6016-51.9531C41.6016-47.168 39.0137-44.9219 33.3008-41.4062C28.0273-38.0371 24.1699-34.0332 24.1699-28.1738L24.1699-27.0508C24.1699-23.0957 26.7578-20.459 30.8594-20.459ZM31.0059 1.80664C35.5469 1.80664 39.2578-1.70898 39.2578-6.15234C39.2578-10.5469 35.5469-14.0137 31.0059-14.0137C26.4648-14.0137 22.7539-10.5469 22.7539-6.15234C22.7539-1.70898 26.4648 1.80664 31.0059 1.80664Z"/>
  </g>
  <g id="Semibold-S" transform="matrix(1 0 0 1 2010.94 696)">
   <path d="M30.2246-20.166C33.5938-20.166 35.498-22.1191 35.8398-25.1953C35.8887-25.3906 35.8887-25.6348 35.9375-25.8301C36.2793-29.9805 37.9883-31.7871 44.1406-35.6934C50.8301-39.9414 54.8828-45.1172 54.8828-52.5391C54.8828-64.502 45.1172-71.3867 32.0801-71.3867C22.5586-71.3867 14.5508-67.4316 11.1328-60.5469C10.2051-58.7402 9.76562-56.8359 9.76562-55.0781C9.76562-51.8066 11.8164-49.5605 15.332-49.5605C18.0664-49.5605 20.166-51.0254 21.1426-53.5156C23.0957-59.1309 26.7578-60.9863 31.543-60.9863C37.5-60.9863 42.1387-57.666 42.1387-52.4414C42.1387-47.4121 39.209-44.9219 33.9844-41.6016C28.5156-38.0371 24.2676-33.7891 24.2676-27.5879L24.2676-26.123C24.2676-22.6074 26.5137-20.166 30.2246-20.166ZM30.3223 1.75781C34.4238 1.75781 37.793-1.51367 37.793-5.51758C37.793-9.57031 34.4238-12.7441 30.3223-12.7441C26.2207-12.7441 22.8516-9.57031 22.8516-5.51758C22.8516-1.51367 26.2207 1.75781 30.3223 1.75781Z"/>
  </g>
  <g id="Medium-S" transform="matrix(1 0 0 1 1714.79 696)">
   <path d="M29.7852-19.9707C33.0078-19.9707 34.668-22.0215 34.9121-24.9512C34.9121-25.1465 34.9121-25.3906 34.9121-25.5859C35.1562-30.0781 36.9141-31.9336 43.0176-35.8887C49.5605-40.1367 53.7598-45.3125 53.7598-52.832C53.7598-64.7461 44.043-71.4355 31.543-71.4355C22.4121-71.4355 14.5508-67.5781 11.084-60.498C10.1562-58.6914 9.76562-56.7871 9.76562-55.0781C9.76562-52.1484 11.5723-50.0977 14.7461-50.0977C17.2363-50.0977 19.0918-51.5137 19.9219-53.8086C21.9727-60.0586 25.9277-61.9629 31.1035-61.9629C37.5488-61.9629 42.5781-58.4473 42.5781-52.7832C42.5781-47.5586 39.4043-44.9707 34.4727-41.748C28.9062-37.9883 24.4141-33.5938 24.4141-27.0996L24.4141-25.4395C24.4141-22.2168 26.3184-19.9707 29.7852-19.9707ZM29.7852 1.70898C33.5938 1.70898 36.6699-1.31836 36.6699-5.07812C36.6699-8.83789 33.5938-11.8164 29.7852-11.8164C26.0254-11.8164 22.9492-8.83789 22.9492-5.07812C22.9492-1.31836 26.0254 1.70898 29.7852 1.70898Z"/>
  </g>
  <g id="Regular-S" transform="matrix(1 0 0 1 1418.81 696)">
   <path d="M29.1504-19.7266C32.2266-19.7266 33.6426-21.8262 33.6426-24.6582L33.6426-25.3418C33.7402-30.1758 35.5469-32.1289 41.5039-36.1328C47.8516-40.3809 52.2949-45.6543 52.2949-53.2227C52.2949-65.0879 42.6758-71.4844 30.8105-71.4844C22.2168-71.4844 14.502-67.7246 10.9863-60.3516C10.1562-58.5938 9.76562-56.6895 9.76562-55.0781C9.76562-52.5879 11.2305-50.8301 13.916-50.8301C16.1133-50.8301 17.6758-52.1484 18.3105-54.248C20.5078-61.1816 24.9023-63.2324 30.5176-63.2324C37.5977-63.2324 43.1152-59.4727 43.1152-53.2715C43.1152-47.7539 39.5996-45.0195 35.1562-41.9434C29.3945-37.9883 24.5117-33.3496 24.5117-26.5137L24.5117-24.5605C24.5117-21.6797 26.0742-19.7266 29.1504-19.7266ZM29.1016 1.66016C32.5195 1.66016 35.2051-1.12305 35.2051-4.44336C35.2051-7.86133 32.5195-10.5469 29.1016-10.5469C25.7812-10.5469 23.0469-7.86133 23.0469-4.44336C23.0469-1.12305 25.7812 1.66016 29.1016 1.66016Z"/>
  </g>
  <g id="Light-S" transform="matrix(1 0 0 1 1122.98 696)">
   <path d="M28.3691-19.3848C30.6641-19.3848 31.7383-20.9961 31.7383-23.1445L31.7383-24.9023C31.7871-30.127 33.5938-32.4219 39.8438-36.7188C46.6309-41.3574 50.5371-46.3867 50.5371-53.5645C50.5371-64.7461 41.4551-71.4355 30.0293-71.4355C21.3867-71.4355 13.916-67.0898 10.791-59.668C10.0586-57.9102 9.76562-56.25 9.76562-54.8828C9.76562-52.9785 10.8887-51.6602 12.8906-51.6602C14.5996-51.6602 15.7227-52.6855 16.2109-54.3457C18.0176-61.9141 23.1934-65.2344 29.834-65.2344C37.5977-65.2344 43.6523-60.6445 43.6523-53.5645C43.6523-48.1445 40.3809-44.9219 35.1074-41.1133C28.8574-36.7188 24.8535-32.4219 24.8535-25.7324L24.8535-23.0469C24.8535-20.8984 26.0742-19.3848 28.3691-19.3848ZM28.3691 1.2207C31.1035 1.2207 33.3008-0.976562 33.3008-3.66211C33.3008-6.39648 31.1035-8.59375 28.3691-8.59375C25.6836-8.59375 23.4863-6.39648 23.4863-3.66211C23.4863-0.976562 25.6836 1.2207 28.3691 1.2207Z"/>
  </g>
  <g id="Thin-S" transform="matrix(1 0 0 1 827.394 696)">
   <path d="M27.2949-18.9941C28.5156-18.9941 29.1992-19.873 29.1992-21.0938L29.1992-24.4141C29.1992-30.0781 31.0547-32.7637 37.6953-37.5C45.0195-42.7246 48.291-47.3145 48.291-54.0039C48.291-64.3066 39.8926-71.4355 29.0039-71.4355C20.2637-71.4355 13.0859-66.3086 10.5469-58.7402C9.96094-57.0312 9.76562-55.6641 9.76562-54.6387C9.76562-53.4668 10.4004-52.7832 11.5234-52.7832C12.5488-52.7832 13.1836-53.3691 13.4277-54.4434C14.7461-62.793 20.8984-67.8711 28.9551-67.8711C37.5488-67.8711 44.3848-62.207 44.3848-54.0039C44.3848-48.6328 41.4062-44.7754 35.0586-40.0391C28.1738-35.0098 25.3418-31.25 25.3418-24.707L25.3418-21.0449C25.3418-19.8242 26.0254-18.9941 27.2949-18.9941ZM27.4414 0.683594C29.248 0.683594 30.7617-0.830078 30.7617-2.63672C30.7617-4.49219 29.248-6.00586 27.4414-6.00586C25.5859-6.00586 24.0723-4.49219 24.0723-2.63672C24.0723-0.830078 25.5859 0.683594 27.4414 0.683594Z"/>
  </g>
  <g id="Ultralight-S" transform="matrix(1 0 0 1 531.269 696)">
   <path d="M26.7578-18.75C27.4414-18.75 27.8809-19.2871 27.8809-20.0195L27.8809-24.1211C27.8809-30.0293 29.7363-32.959 36.5723-37.8906C44.1895-43.4082 47.1191-47.8516 47.1191-54.248C47.1191-64.0625 39.1113-71.3867 28.4668-71.3867C19.6777-71.3867 12.6953-65.8691 10.4492-58.252C9.91211-56.5918 9.76562-55.3223 9.76562-54.4922C9.76562-53.7598 10.1562-53.3203 10.791-53.3203C11.5234-53.3203 11.8652-53.7109 12.0117-54.541C13.0859-63.2812 19.7266-69.2383 28.4668-69.2383C37.5488-69.2383 44.7754-62.9883 44.7754-54.1992C44.7754-48.877 41.9434-44.6777 35.0098-39.502C27.832-34.1309 25.5859-30.6641 25.5859-24.1699L25.5859-20.0195C25.5859-19.2871 26.0254-18.75 26.7578-18.75ZM26.9043 0.390625C28.2715 0.390625 29.4434-0.732422 29.4434-2.09961C29.4434-3.51562 28.2715-4.63867 26.9043-4.63867C25.5371-4.63867 24.4141-3.51562 24.4141-2.09961C24.4141-0.732422 25.5371 0.390625 26.9043 0.390625Z"/>
  </g>
 </g>
</svg>
