<?xml version="1.0" encoding="UTF-8"?>
<!--Generator: Apple Native CoreSVG 175.5-->
<!DOCTYPE svg
PUBLIC "-//W3C//DTD SVG 1.1//EN"
       "http://www.w3.org/Graphics/SVG/1.1/DTD/svg11.dtd">
<svg version="1.1" xmlns="http://www.w3.org/2000/svg" xmlns:xlink="http://www.w3.org/1999/xlink" width="14.6141" height="18.0464">
 <g>
  <rect height="18.0464" opacity="0" width="14.6141" x="0" y="0"/>
  <path d="M9.52783 4.52588C9.62939 4.52588 9.71191 4.45605 9.71826 4.3418C9.90234 2.8501 9.97217 2.81201 11.4893 2.55811C11.6162 2.54541 11.686 2.48193 11.686 2.37402C11.686 2.27246 11.6162 2.20898 11.5146 2.18994C9.98486 1.89795 9.90234 1.9043 9.71826 0.412598C9.71191 0.29834 9.62939 0.228516 9.52783 0.228516C9.43262 0.228516 9.35645 0.29834 9.3501 0.40625C9.14697 1.92334 9.10254 1.96777 7.54736 2.18994C7.4458 2.20264 7.37598 2.27246 7.37598 2.37402C7.37598 2.47559 7.4458 2.54541 7.54736 2.55811C9.10254 2.86279 9.14062 2.85645 9.3501 4.35449C9.35645 4.45605 9.43262 4.52588 9.52783 4.52588ZM5.28125 2.81201C5.35107 2.81201 5.4082 2.77393 5.42725 2.69141C5.59863 1.73926 5.59863 1.73291 6.55713 1.55518C6.63965 1.53613 6.69043 1.48535 6.69043 1.40918C6.69043 1.32666 6.63965 1.27588 6.55713 1.25684C5.59863 1.06641 5.62402 1.06006 5.42725 0.126953C5.4082 0.0444336 5.35742 0 5.28125 0C5.20508 0 5.14795 0.0507812 5.13525 0.126953C4.93213 1.06006 4.96387 1.06641 3.99902 1.25684C3.9165 1.27588 3.86572 1.33301 3.86572 1.40918C3.86572 1.479 3.9165 1.53613 3.99902 1.55518C4.96387 1.74561 4.95117 1.73926 5.13525 2.69141C5.14795 2.76758 5.20508 2.81201 5.28125 2.81201ZM1.82178 16.9355C1.91699 16.9355 1.96777 16.8784 1.98047 16.7896C2.20898 15.5454 2.20264 15.52 3.50391 15.2725C3.59912 15.2471 3.6499 15.2026 3.6499 15.1074C3.6499 15.0122 3.59912 14.9678 3.50391 14.9487C2.20898 14.6885 2.24072 14.6631 1.98047 13.4253C1.96777 13.3364 1.91699 13.2793 1.82178 13.2793C1.73291 13.2793 1.68848 13.3364 1.66309 13.4253C1.40283 14.6631 1.45361 14.6885 0.145996 14.9487C0.0571289 14.9678 0 15.0122 0 15.1074C0 15.2026 0.0571289 15.2471 0.145996 15.2725C1.45361 15.5264 1.42822 15.5454 1.66309 16.7896C1.68848 16.8784 1.73291 16.9355 1.82178 16.9355ZM11.5845 15.1201C13.165 13.5459 13.4189 11.5781 12.3335 9.29932L10.9053 6.28418C10.8037 6.07471 10.6831 5.90332 10.5498 5.77002C10.0737 5.29395 9.38184 5.31934 8.9248 5.78271C8.61377 6.0874 8.51855 6.55078 8.72168 7.05859L9.14697 8.06787C9.15332 8.09326 9.15967 8.11865 9.14062 8.1377C9.11523 8.16309 9.08984 8.15674 9.06445 8.13135L5.46533 4.53223C4.93848 4.00537 4.28467 4.00537 3.7832 4.50684C3.59912 4.69092 3.49756 4.91943 3.49121 5.16064C2.9707 4.76074 2.39307 4.77344 1.94238 5.22412C1.51074 5.65576 1.49805 6.25244 1.87256 6.76025C1.64404 6.76025 1.42822 6.86182 1.26318 7.02686C0.793457 7.49023 0.8125 8.125 1.30762 8.62646L1.80908 9.12158C1.56152 9.11523 1.31396 9.22949 1.11719 9.42627C0.653809 9.88965 0.679199 10.5562 1.18066 11.0576L5.04004 14.917C7.14111 17.0181 9.68652 17.0181 11.5845 15.1201ZM10.9434 14.5234C9.3501 16.1104 7.36328 16.0596 5.56055 14.2505L1.83447 10.5308C1.64404 10.3403 1.63135 10.0864 1.82178 9.896C2.00586 9.71191 2.27246 9.71191 2.46289 9.90234L4.75439 12.2002C4.92578 12.3652 5.16699 12.3398 5.31299 12.1938C5.46533 12.0415 5.49072 11.7939 5.32568 11.6289L1.89795 8.19482C1.70752 8.00439 1.69482 7.75049 1.87891 7.56641C2.06299 7.38232 2.32959 7.38232 2.52637 7.57275L5.72559 10.772C5.89062 10.937 6.13818 10.918 6.28418 10.7656C6.43652 10.6133 6.46191 10.3657 6.29688 10.2007L2.53906 6.44287C2.34863 6.25244 2.33594 5.98584 2.52637 5.80176C2.7041 5.61768 2.9707 5.63037 3.16748 5.8208L6.92529 9.57861C7.07764 9.73096 7.3252 9.72461 7.47754 9.57227C7.63623 9.41357 7.64893 9.16602 7.49023 9.00732L4.29102 5.80176C4.10059 5.61133 4.09424 5.35107 4.27832 5.16699C4.46875 4.97656 4.72266 4.98291 4.91943 5.17969L9.3374 9.59766C9.55957 9.81982 9.81982 9.81982 10.0103 9.62939C10.1689 9.4707 10.2388 9.26123 10.1118 8.9375L9.31836 6.84912C9.21045 6.56982 9.30566 6.33496 9.52783 6.2334C9.7627 6.12549 9.97217 6.2334 10.1182 6.53809L11.5908 9.65479C12.5747 11.7368 12.1938 13.2666 10.9434 14.5234ZM5.4082 3.93555C5.21777 4.11328 5.12256 4.34814 5.10986 4.58936L5.90967 5.23047C5.71924 5.04639 5.71289 4.77979 5.90332 4.58936C6.0874 4.40527 6.34766 4.41797 6.53809 4.6084L8.69629 6.7666L9.21045 6.08105L7.08398 3.96094C6.55713 3.43408 5.90967 3.43408 5.4082 3.93555ZM13.2031 14.5552C14.7837 12.9746 15.0376 11.0068 13.9585 8.72803L12.5239 5.70654C12.2637 5.14795 11.8257 4.85596 11.3052 4.85596C10.8926 4.85596 10.188 5.1416 10.188 5.97314C10.188 6.04297 10.188 6.11279 10.2007 6.18896L10.9497 6.39844C10.9116 6.31592 10.8862 6.2334 10.8862 6.12549C10.8862 5.92236 11.0576 5.71924 11.3306 5.71924C11.502 5.71924 11.6797 5.83984 11.7749 6.04297L13.2158 9.0835C14.1997 11.1592 13.8252 12.7017 12.562 13.9458C12.0542 14.4536 11.502 14.7964 10.9307 14.9614L10.0039 15.939C11.1465 15.9707 12.2573 15.501 13.2031 14.5552Z" fill="#000000" fill-opacity="0.85"/>
 </g>
</svg>
