<?xml version="1.0" encoding="UTF-8"?>
<!--Generator: Apple Native CoreSVG 175.5-->
<!DOCTYPE svg
PUBLIC "-//W3C//DTD SVG 1.1//EN"
       "http://www.w3.org/Graphics/SVG/1.1/DTD/svg11.dtd">
<svg version="1.1" xmlns="http://www.w3.org/2000/svg" xmlns:xlink="http://www.w3.org/1999/xlink" width="10.5498" height="13.1587">
 <g>
  <rect height="13.1587" opacity="0" width="10.5498" x="0" y="0"/>
  <path d="M5.2749 13.1587C5.37646 13.1587 5.5415 13.1206 5.7002 13.0317C9.31201 11.0068 10.5498 10.1499 10.5498 7.83301L10.5498 2.97705C10.5498 2.31055 10.2642 2.10107 9.72461 1.87256C8.97559 1.56152 6.55713 0.691895 5.80811 0.431641C5.63672 0.374512 5.45264 0.336426 5.2749 0.336426C5.09717 0.336426 4.91309 0.387207 4.74805 0.431641C3.99902 0.647461 1.57422 1.56787 0.825195 1.87256C0.291992 2.09473 0 2.31055 0 2.97705L0 7.83301C0 10.1499 1.24414 11.0005 4.84961 13.0317C5.01465 13.1206 5.17334 13.1587 5.2749 13.1587ZM5.2749 12.0098C5.17334 12.0098 5.07178 11.9717 4.88135 11.8574C1.94873 10.0801 1.00928 9.55957 1.00928 7.59814L1.00928 3.17383C1.00928 2.95801 1.04736 2.87549 1.2251 2.80566C2.18994 2.4248 4.0625 1.79639 5.021 1.41553C5.12256 1.37109 5.20508 1.3584 5.2749 1.3584C5.34473 1.3584 5.42725 1.37744 5.52881 1.41553C6.4873 1.79639 8.34717 2.46924 9.33105 2.80566C9.50244 2.86914 9.54053 2.95801 9.54053 3.17383L9.54053 7.59814C9.54053 9.55957 8.60107 10.0737 5.66846 11.8574C5.48438 11.9717 5.37646 12.0098 5.2749 12.0098ZM5.2749 7.58545C5.57324 7.58545 5.75098 7.41406 5.75732 7.08398L5.85254 3.73242C5.85889 3.40869 5.60498 3.16748 5.26855 3.16748C4.92578 3.16748 4.68457 3.40234 4.69092 3.72607L4.77344 7.08398C4.77979 7.40771 4.95752 7.58545 5.2749 7.58545ZM5.2749 9.64844C5.63672 9.64844 5.9541 9.35645 5.9541 8.98828C5.9541 8.62012 5.64307 8.32812 5.2749 8.32812C4.90039 8.32812 4.58936 8.62646 4.58936 8.98828C4.58936 9.3501 4.90674 9.64844 5.2749 9.64844Z" fill="#000000" fill-opacity="0.85"/>
 </g>
</svg>
