<?xml version="1.0" encoding="UTF-8"?>
<!--Generator: Apple Native CoreSVG 175-->
<!DOCTYPE svg
PUBLIC "-//W3C//DTD SVG 1.1//EN"
       "http://www.w3.org/Graphics/SVG/1.1/DTD/svg11.dtd">
<svg version="1.1" xmlns="http://www.w3.org/2000/svg" xmlns:xlink="http://www.w3.org/1999/xlink" width="3300" height="2200">
 <!--glyph: "uni10005C.medium", point size: 100.0, font version: "17.1d1e1", template writer version: "65.1"-->
 <g id="Notes">
  <rect height="2200" id="artboard" style="fill:white;opacity:1" width="3300" x="0" y="0"/>
  <line style="fill:none;stroke:black;opacity:1;stroke-width:0.5;" x1="263" x2="3036" y1="292" y2="292"/>
  <text style="stroke:none;fill:black;font-family:sans-serif;font-size:13;font-weight:bold;" transform="matrix(1 0 0 1 263 322)">Weight/Scale Variations</text>
  <text style="stroke:none;fill:black;font-family:sans-serif;font-size:13;text-anchor:middle;" transform="matrix(1 0 0 1 559.711 322)">Ultralight</text>
  <text style="stroke:none;fill:black;font-family:sans-serif;font-size:13;text-anchor:middle;" transform="matrix(1 0 0 1 856.422 322)">Thin</text>
  <text style="stroke:none;fill:black;font-family:sans-serif;font-size:13;text-anchor:middle;" transform="matrix(1 0 0 1 1153.13 322)">Light</text>
  <text style="stroke:none;fill:black;font-family:sans-serif;font-size:13;text-anchor:middle;" transform="matrix(1 0 0 1 1449.84 322)">Regular</text>
  <text style="stroke:none;fill:black;font-family:sans-serif;font-size:13;text-anchor:middle;" transform="matrix(1 0 0 1 1746.56 322)">Medium</text>
  <text style="stroke:none;fill:black;font-family:sans-serif;font-size:13;text-anchor:middle;" transform="matrix(1 0 0 1 2043.27 322)">Semibold</text>
  <text style="stroke:none;fill:black;font-family:sans-serif;font-size:13;text-anchor:middle;" transform="matrix(1 0 0 1 2339.98 322)">Bold</text>
  <text style="stroke:none;fill:black;font-family:sans-serif;font-size:13;text-anchor:middle;" transform="matrix(1 0 0 1 2636.69 322)">Heavy</text>
  <text style="stroke:none;fill:black;font-family:sans-serif;font-size:13;text-anchor:middle;" transform="matrix(1 0 0 1 2933.4 322)">Black</text>
  <line style="fill:none;stroke:black;opacity:1;stroke-width:0.5;" x1="263" x2="3036" y1="1903" y2="1903"/>
  <g transform="matrix(1 0 0 1 263 1933)">
   <path d="M9.24805 0.830078Q10.8691 0.830078 12.2949 0.214844Q13.7207-0.400391 14.8096-1.49414Q15.8984-2.58789 16.5186-4.01367Q17.1387-5.43945 17.1387-7.05078Q17.1387-8.66211 16.5186-10.0879Q15.8984-11.5137 14.8047-12.6074Q13.7109-13.7012 12.2852-14.3164Q10.8594-14.9316 9.23828-14.9316Q7.62695-14.9316 6.20117-14.3164Q4.77539-13.7012 3.69141-12.6074Q2.60742-11.5137 1.9873-10.0879Q1.36719-8.66211 1.36719-7.05078Q1.36719-5.43945 1.9873-4.01367Q2.60742-2.58789 3.69629-1.49414Q4.78516-0.400391 6.21094 0.214844Q7.63672 0.830078 9.24805 0.830078ZM9.24805-0.654297Q7.91992-0.654297 6.7627-1.14746Q5.60547-1.64062 4.73145-2.51953Q3.85742-3.39844 3.36426-4.56055Q2.87109-5.72266 2.87109-7.05078Q2.87109-8.37891 3.35938-9.54102Q3.84766-10.7031 4.72168-11.582Q5.5957-12.4609 6.75293-12.9541Q7.91016-13.4473 9.23828-13.4473Q10.5762-13.4473 11.7334-12.9541Q12.8906-12.4609 13.7695-11.582Q14.6484-10.7031 15.1465-9.54102Q15.6445-8.37891 15.6445-7.05078Q15.6445-5.72266 15.1514-4.56055Q14.6582-3.39844 13.7842-2.51953Q12.9102-1.64062 11.748-1.14746Q10.5859-0.654297 9.24805-0.654297ZM5.6543-7.05078Q5.6543-6.72852 5.85938-6.52832Q6.06445-6.32812 6.40625-6.32812L8.51562-6.32812L8.51562-4.20898Q8.51562-3.88672 8.71094-3.67676Q8.90625-3.4668 9.23828-3.4668Q9.56055-3.4668 9.77051-3.67676Q9.98047-3.88672 9.98047-4.20898L9.98047-6.32812L12.0898-6.32812Q12.4219-6.32812 12.627-6.52832Q12.832-6.72852 12.832-7.05078Q12.832-7.38281 12.627-7.58789Q12.4219-7.79297 12.0898-7.79297L9.98047-7.79297L9.98047-9.90234Q9.98047-10.2344 9.77051-10.4443Q9.56055-10.6543 9.23828-10.6543Q8.90625-10.6543 8.71094-10.4443Q8.51562-10.2344 8.51562-9.90234L8.51562-7.79297L6.40625-7.79297Q6.06445-7.79297 5.85938-7.58789Q5.6543-7.38281 5.6543-7.05078Z"/>
  </g>
  <g transform="matrix(1 0 0 1 281.867 1933)">
   <path d="M11.709 2.91016Q13.75 2.91016 15.5518 2.12891Q17.3535 1.34766 18.7305-0.0292969Q20.1074-1.40625 20.8887-3.20801Q21.6699-5.00977 21.6699-7.05078Q21.6699-9.0918 20.8887-10.8936Q20.1074-12.6953 18.7305-14.0723Q17.3535-15.4492 15.5469-16.2305Q13.7402-17.0117 11.6992-17.0117Q9.6582-17.0117 7.85645-16.2305Q6.05469-15.4492 4.68262-14.0723Q3.31055-12.6953 2.5293-10.8936Q1.74805-9.0918 1.74805-7.05078Q1.74805-5.00977 2.5293-3.20801Q3.31055-1.40625 4.6875-0.0292969Q6.06445 1.34766 7.86621 2.12891Q9.66797 2.91016 11.709 2.91016ZM11.709 1.25Q9.98047 1.25 8.47656 0.605469Q6.97266-0.0390625 5.83496-1.17676Q4.69727-2.31445 4.05762-3.81836Q3.41797-5.32227 3.41797-7.05078Q3.41797-8.7793 4.05762-10.2832Q4.69727-11.7871 5.83008-12.9297Q6.96289-14.0723 8.4668-14.7119Q9.9707-15.3516 11.6992-15.3516Q13.4277-15.3516 14.9316-14.7119Q16.4355-14.0723 17.5781-12.9297Q18.7207-11.7871 19.3652-10.2832Q20.0098-8.7793 20.0098-7.05078Q20.0098-5.32227 19.3701-3.81836Q18.7305-2.31445 17.5928-1.17676Q16.4551-0.0390625 14.9463 0.605469Q13.4375 1.25 11.709 1.25ZM7.17773-7.05078Q7.17773-6.69922 7.41211-6.47461Q7.64648-6.25 8.01758-6.25L10.8887-6.25L10.8887-3.36914Q10.8887-2.99805 11.1133-2.76855Q11.3379-2.53906 11.6895-2.53906Q12.0605-2.53906 12.29-2.76855Q12.5195-2.99805 12.5195-3.36914L12.5195-6.25L15.4004-6.25Q15.7715-6.25 16.001-6.47461Q16.2305-6.69922 16.2305-7.05078Q16.2305-7.42188 16.001-7.65137Q15.7715-7.88086 15.4004-7.88086L12.5195-7.88086L12.5195-10.752Q12.5195-11.1328 12.29-11.3623Q12.0605-11.5918 11.6895-11.5918Q11.3379-11.5918 11.1133-11.3574Q10.8887-11.123 10.8887-10.752L10.8887-7.88086L8.01758-7.88086Q7.63672-7.88086 7.40723-7.65137Q7.17773-7.42188 7.17773-7.05078Z"/>
  </g>
  <g transform="matrix(1 0 0 1 305.646 1933)">
   <path d="M14.9707 5.66406Q17.0605 5.66406 18.96 5.01465Q20.8594 4.36523 22.4512 3.19336Q24.043 2.02148 25.2197 0.429688Q26.3965-1.16211 27.0459-3.06641Q27.6953-4.9707 27.6953-7.05078Q27.6953-9.14062 27.0459-11.04Q26.3965-12.9395 25.2197-14.5312Q24.043-16.123 22.4512-17.2998Q20.8594-18.4766 18.9551-19.126Q17.0508-19.7754 14.9609-19.7754Q12.8711-19.7754 10.9717-19.126Q9.07227-18.4766 7.48535-17.2998Q5.89844-16.123 4.72168-14.5312Q3.54492-12.9395 2.90039-11.04Q2.25586-9.14062 2.25586-7.05078Q2.25586-4.9707 2.90527-3.06641Q3.55469-1.16211 4.72656 0.429688Q5.89844 2.02148 7.49023 3.19336Q9.08203 4.36523 10.9814 5.01465Q12.8809 5.66406 14.9707 5.66406ZM14.9707 3.84766Q13.1641 3.84766 11.5283 3.2959Q9.89258 2.74414 8.53516 1.74805Q7.17773 0.751953 6.17676-0.610352Q5.17578-1.97266 4.62891-3.6084Q4.08203-5.24414 4.08203-7.05078Q4.08203-8.86719 4.62891-10.5029Q5.17578-12.1387 6.17188-13.501Q7.16797-14.8633 8.52539-15.8594Q9.88281-16.8555 11.5186-17.4023Q13.1543-17.9492 14.9609-17.9492Q16.7773-17.9492 18.4131-17.4023Q20.0488-16.8555 21.4111-15.8594Q22.7734-14.8633 23.7695-13.501Q24.7656-12.1387 25.3174-10.5029Q25.8691-8.86719 25.8691-7.05078Q25.8789-5.24414 25.332-3.6084Q24.7852-1.97266 23.7842-0.610352Q22.7832 0.751953 21.4209 1.74805Q20.0586 2.74414 18.4229 3.2959Q16.7871 3.84766 14.9707 3.84766ZM9.19922-7.05078Q9.19922-6.66992 9.45801-6.4209Q9.7168-6.17188 10.1172-6.17188L14.0625-6.17188L14.0625-2.2168Q14.0625-1.81641 14.3115-1.55762Q14.5605-1.29883 14.9512-1.29883Q15.3516-1.29883 15.6104-1.55273Q15.8691-1.80664 15.8691-2.2168L15.8691-6.17188L19.8242-6.17188Q20.2246-6.17188 20.4785-6.4209Q20.7324-6.66992 20.7324-7.05078Q20.7324-7.46094 20.4785-7.71484Q20.2246-7.96875 19.8242-7.96875L15.8691-7.96875L15.8691-11.9141Q15.8691-12.3242 15.6104-12.583Q15.3516-12.8418 14.9512-12.8418Q14.5605-12.8418 14.3115-12.583Q14.0625-12.3242 14.0625-11.9141L14.0625-7.96875L10.1172-7.96875Q9.70703-7.96875 9.45312-7.71484Q9.19922-7.46094 9.19922-7.05078Z"/>
  </g>
  <text style="stroke:none;fill:black;font-family:sans-serif;font-size:13;font-weight:bold;" transform="matrix(1 0 0 1 263 1953)">Design Variations</text>
  <text style="stroke:none;fill:black;font-family:sans-serif;font-size:13;" transform="matrix(1 0 0 1 263 1971)">Symbols are supported in up to nine weights and three scales.</text>
  <text style="stroke:none;fill:black;font-family:sans-serif;font-size:13;" transform="matrix(1 0 0 1 263 1989)">For optimal layout with text and other symbols, vertically align</text>
  <text style="stroke:none;fill:black;font-family:sans-serif;font-size:13;" transform="matrix(1 0 0 1 263 2007)">symbols with the adjacent text.</text>
  <line style="fill:none;stroke:#00AEEF;stroke-width:0.5;opacity:1.0;" x1="776" x2="776" y1="1919" y2="1933"/>
  <g transform="matrix(1 0 0 1 776 1933)">
   <path d="M3.31055 0.15625Q3.70117 0.15625 3.91602-0.00976562Q4.13086-0.175781 4.26758-0.585938L5.52734-4.0332L11.2891-4.0332L12.5488-0.585938Q12.6855-0.175781 12.9004-0.00976562Q13.1152 0.15625 13.4961 0.15625Q13.8867 0.15625 14.1162-0.0585938Q14.3457-0.273438 14.3457-0.644531Q14.3457-0.869141 14.2383-1.17188L9.6582-13.3691Q9.48242-13.8184 9.17969-14.043Q8.87695-14.2676 8.4082-14.2676Q7.5-14.2676 7.17773-13.3789L2.59766-1.16211Q2.49023-0.859375 2.49023-0.634766Q2.49023-0.263672 2.70996-0.0537109Q2.92969 0.15625 3.31055 0.15625ZM6.00586-5.51758L8.37891-12.0898L8.42773-12.0898L10.8008-5.51758Z"/>
  </g>
  <line style="fill:none;stroke:#00AEEF;stroke-width:0.5;opacity:1.0;" x1="793.197" x2="793.197" y1="1919" y2="1933"/>
  <text style="stroke:none;fill:black;font-family:sans-serif;font-size:13;font-weight:bold;" transform="matrix(1 0 0 1 776 1953)">Margins</text>
  <text style="stroke:none;fill:black;font-family:sans-serif;font-size:13;" transform="matrix(1 0 0 1 776 1971)">Leading and trailing margins on the left and right side of each symbol</text>
  <text style="stroke:none;fill:black;font-family:sans-serif;font-size:13;" transform="matrix(1 0 0 1 776 1989)">can be adjusted by modifying the x-location of the margin guidelines.</text>
  <text style="stroke:none;fill:black;font-family:sans-serif;font-size:13;" transform="matrix(1 0 0 1 776 2007)">Modifications are automatically applied proportionally to all</text>
  <text style="stroke:none;fill:black;font-family:sans-serif;font-size:13;" transform="matrix(1 0 0 1 776 2025)">scales and weights.</text>
  <g transform="matrix(1 0 0 1 1289 1933)">
   <path d="M2.8418 1.86523L4.54102 3.57422Q5.18555 4.22852 5.90332 4.17969Q6.62109 4.13086 7.31445 3.35938L18.0078-8.42773L17.041-9.4043L6.42578 2.27539Q6.16211 2.57812 5.89355 2.61719Q5.625 2.65625 5.27344 2.30469L4.10156 1.14258Q3.75 0.791016 3.79395 0.522461Q3.83789 0.253906 4.14062-0.0195312L15.6152-10.8203L14.6387-11.7871L3.04688-0.898438Q2.30469-0.214844 2.25098 0.498047Q2.19727 1.21094 2.8418 1.86523ZM9.25781-16.3281Q8.94531-16.0254 8.90625-15.6348Q8.86719-15.2441 9.04297-14.9512Q9.21875-14.6777 9.55566-14.541Q9.89258-14.4043 10.3809-14.5215Q11.4746-14.7754 12.5977-14.7314Q13.7207-14.6875 14.7949-13.9844L14.209-12.5293Q13.9551-11.9043 14.0674-11.4404Q14.1797-10.9766 14.5801-10.5664L16.875-8.25195Q17.2363-7.88086 17.5781-7.82227Q17.9199-7.76367 18.3398-7.8418L19.4043-8.03711L20.0684-7.36328L20.0293-6.80664Q20-6.43555 20.1221-6.12305Q20.2441-5.81055 20.6055-5.44922L21.3672-4.70703Q21.7285-4.3457 22.1533-4.33105Q22.5781-4.31641 22.9297-4.66797L25.8398-7.58789Q26.1914-7.93945 26.1816-8.35449Q26.1719-8.76953 25.8105-9.13086L25.0391-9.89258Q24.6875-10.2539 24.3799-10.3857Q24.0723-10.5176 23.7109-10.4883L23.1348-10.4395L22.4902-11.0742L22.7344-12.1973Q22.832-12.6172 22.6953-12.9834Q22.5586-13.3496 22.1191-13.7891L19.9219-15.9766Q18.6719-17.2168 17.2607-17.8369Q15.8496-18.457 14.4189-18.4814Q12.9883-18.5059 11.665-17.959Q10.3418-17.4121 9.25781-16.3281ZM10.752-15.957Q11.6602-16.6211 12.7002-16.9043Q13.7402-17.1875 14.8047-17.085Q15.8691-16.9824 16.8701-16.5137Q17.8711-16.0449 18.7012-15.2051L21.1328-12.793Q21.3086-12.6172 21.3525-12.4512Q21.3965-12.2852 21.3379-12.0312L21.0156-10.5469L22.5195-9.0625L23.5059-9.12109Q23.6914-9.13086 23.7891-9.09668Q23.8867-9.0625 24.0332-8.91602L24.6094-8.33984L22.168-5.89844L21.5918-6.47461Q21.4453-6.62109 21.4062-6.71875Q21.3672-6.81641 21.377-7.01172L21.4453-7.98828L19.9512-9.47266L18.4277-9.21875Q18.1836-9.16992 18.042-9.2041Q17.9004-9.23828 17.7148-9.41406L15.7129-11.416Q15.5176-11.5918 15.4932-11.7529Q15.4688-11.9141 15.5859-12.1875L16.4648-14.2773Q15.293-15.3711 13.8281-15.791Q12.3633-16.2109 10.8398-15.7617Q10.7227-15.7324 10.6885-15.8057Q10.6543-15.8789 10.752-15.957Z"/>
  </g>
  <text style="stroke:none;fill:black;font-family:sans-serif;font-size:13;font-weight:bold;" transform="matrix(1 0 0 1 1289 1953)">Exporting</text>
  <text style="stroke:none;fill:black;font-family:sans-serif;font-size:13;" transform="matrix(1 0 0 1 1289 1971)">Symbols should be outlined when exporting to ensure the</text>
  <text style="stroke:none;fill:black;font-family:sans-serif;font-size:13;" transform="matrix(1 0 0 1 1289 1989)">design is preserved when submitting to Xcode.</text>
  <text id="template-version" style="stroke:none;fill:black;font-family:sans-serif;font-size:13;text-anchor:end;" transform="matrix(1 0 0 1 3036 1933)">Template v.3.0</text>
  <text style="stroke:none;fill:black;font-family:sans-serif;font-size:13;text-anchor:end;" transform="matrix(1 0 0 1 3036 1951)">Requires Xcode 13 or greater</text>
  <text id="descriptive-name" style="stroke:none;fill:black;font-family:sans-serif;font-size:13;text-anchor:end;" transform="matrix(1 0 0 1 3036 1969)">Generated from questionmark.circle</text>
  <text style="stroke:none;fill:black;font-family:sans-serif;font-size:13;text-anchor:end;" transform="matrix(1 0 0 1 3036 1987)">Typeset at 100 points</text>
  <text style="stroke:none;fill:black;font-family:sans-serif;font-size:13;" transform="matrix(1 0 0 1 263 726)">Small</text>
  <text style="stroke:none;fill:black;font-family:sans-serif;font-size:13;" transform="matrix(1 0 0 1 263 1156)">Medium</text>
  <text style="stroke:none;fill:black;font-family:sans-serif;font-size:13;" transform="matrix(1 0 0 1 263 1586)">Large</text>
 </g>
 <g id="Guides">
  <g id="H-reference" style="fill:#27AAE1;stroke:none;" transform="matrix(1 0 0 1 339 696)">
   <path d="M0.993347 0L3.6377 0L29.3282-67.1326L30.0301-67.1326L30.0301-70.459L28.1227-70.459ZM11.6882-24.4797L46.9818-24.4797L46.2311-26.7288L12.4382-26.7288ZM55.1193 0L57.7637 0L30.6381-70.459L29.4327-70.459L29.4327-67.1326Z"/>
  </g>
  <line id="Baseline-S" style="fill:none;stroke:#27AAE1;opacity:1;stroke-width:0.5;" x1="263" x2="3036" y1="696" y2="696"/>
  <line id="Capline-S" style="fill:none;stroke:#27AAE1;opacity:1;stroke-width:0.5;" x1="263" x2="3036" y1="625.541" y2="625.541"/>
  <g id="H-reference" style="fill:#27AAE1;stroke:none;" transform="matrix(1 0 0 1 339 1126)">
   <path d="M0.993347 0L3.6377 0L29.3282-67.1326L30.0301-67.1326L30.0301-70.459L28.1227-70.459ZM11.6882-24.4797L46.9818-24.4797L46.2311-26.7288L12.4382-26.7288ZM55.1193 0L57.7637 0L30.6381-70.459L29.4327-70.459L29.4327-67.1326Z"/>
  </g>
  <line id="Baseline-M" style="fill:none;stroke:#27AAE1;opacity:1;stroke-width:0.5;" x1="263" x2="3036" y1="1126" y2="1126"/>
  <line id="Capline-M" style="fill:none;stroke:#27AAE1;opacity:1;stroke-width:0.5;" x1="263" x2="3036" y1="1055.54" y2="1055.54"/>
  <g id="H-reference" style="fill:#27AAE1;stroke:none;" transform="matrix(1 0 0 1 339 1556)">
   <path d="M0.993347 0L3.6377 0L29.3282-67.1326L30.0301-67.1326L30.0301-70.459L28.1227-70.459ZM11.6882-24.4797L46.9818-24.4797L46.2311-26.7288L12.4382-26.7288ZM55.1193 0L57.7637 0L30.6381-70.459L29.4327-70.459L29.4327-67.1326Z"/>
  </g>
  <line id="Baseline-L" style="fill:none;stroke:#27AAE1;opacity:1;stroke-width:0.5;" x1="263" x2="3036" y1="1556" y2="1556"/>
  <line id="Capline-L" style="fill:none;stroke:#27AAE1;opacity:1;stroke-width:0.5;" x1="263" x2="3036" y1="1485.54" y2="1485.54"/>
  <line id="left-margin-Regular-M" style="fill:none;stroke:#00AEEF;stroke-width:0.5;opacity:1.0;" x1="1391.32" x2="1391.32" y1="1030.79" y2="1150.12"/>
  <line id="right-margin-Regular-M" style="fill:none;stroke:#00AEEF;stroke-width:0.5;opacity:1.0;" x1="1508.37" x2="1508.37" y1="1030.79" y2="1150.12"/>
 </g>
 <g id="Symbols">
  <g id="Black-L" transform="matrix(1 0 0 1 2854.19 1556)">
   <path d="M79.1953 32.7252Q93.2356 32.7252 105.521 27.4303Q117.806 22.1354 127.174 12.7571Q136.542 3.37874 141.848-8.90649Q147.154-21.1917 147.154-35.2113Q147.154-49.2309 141.848-61.5161Q136.542-73.8013 127.164-83.1796Q117.785-92.558 105.5-97.8529Q93.2149-103.148 79.1746-103.148Q65.1563-103.148 52.8704-97.8529Q40.5846-92.558 31.2276-83.1796Q21.8707-73.8013 16.5647-61.5161Q11.2588-49.2309 11.2588-35.2113Q11.2588-21.1917 16.5647-8.90649Q21.8707 3.37874 31.238 12.7571Q40.6053 22.1354 52.8912 27.4303Q65.177 32.7252 79.1953 32.7252ZM79.1953 12.5777Q69.2941 12.5777 60.6256 8.86047Q51.9572 5.14327 45.4197-1.40458Q38.8822-7.95243 35.1644-16.6312Q31.4465-25.3101 31.4465-35.2113Q31.4465-45.1125 35.154-53.7913Q38.8615-62.4702 45.399-69.018Q51.9365-75.5659 60.6049-79.2831Q69.2734-83.0003 79.1746-83.0003Q89.0966-83.0003 97.7657-79.2831Q106.435-75.5659 112.982-69.018Q119.529-62.4702 123.257-53.7913Q126.986-45.1125 126.986-35.2113Q126.986-25.3101 123.268-16.6312Q119.551-7.95243 113.014-1.40458Q106.476 5.14327 97.7974 8.86047Q89.1186 12.5777 79.1953 12.5777ZM77.4452-24.2522Q80.7911-24.2522 83.0616-25.6667Q85.3322-27.0813 85.8578-29.2685Q85.9162-29.4163 85.9454-29.631Q85.9746-29.8456 86.033-29.9558Q86.6171-31.7556 88.4871-33.2704Q90.357-34.7851 92.686-36.2413Q97.6645-39.3206 99.9366-42.392Q102.209-45.4634 102.209-50.4542Q102.209-58.403 95.6599-63.2896Q89.1111-68.1763 79.522-68.1763Q71.4891-68.1763 65.8172-65.2827Q60.1452-62.3891 58.0681-57.7272Q57.1988-55.7995 57.1988-53.7848Q57.1988-51.0059 59.1591-48.954Q61.1194-46.902 64.2737-46.902Q66.3987-46.902 68.0619-47.6206Q69.7252-48.3392 70.9291-49.9103L71.458-50.5713Q72.912-52.5034 74.4049-53.2279Q75.8979-53.9524 77.6052-53.9524Q79.8244-53.9524 81.3374-52.569Q82.8504-51.1856 82.8504-49.3695Q82.8504-47.0275 80.9496-45.5161Q79.0488-44.0047 75.4847-41.5547Q72.2551-39.2732 70.2441-36.9466Q68.2331-34.6199 68.2331-31.4481Q68.2331-31.3574 68.2331-31.3173Q68.2331-31.2772 68.2331-31.1878Q68.2331-24.2522 77.4452-24.2522ZM77.4609-3.18581Q81.5268-3.18581 84.1604-5.36967Q86.7939-7.55353 86.7939-11.3846Q86.7939-15.178 84.1604-17.38Q81.5268-19.5821 77.4609-19.5821Q73.4533-19.5821 70.7322-17.3989Q68.0111-15.2156 68.0111-11.3846Q68.0111-7.57426 70.7322-5.38003Q73.4533-3.18581 77.4609-3.18581Z"/>
  </g>
  <g id="Heavy-L" transform="matrix(1 0 0 1 2558.42 1556)">
   <path d="M78.2511 31.7672Q92.088 31.7672 104.202 26.5464Q116.316 21.3256 125.559 12.0677Q134.802 2.8099 140.04-9.30402Q145.279-21.4179 145.279-35.2251Q145.279-49.0322 140.04-61.1461Q134.802-73.2601 125.544-82.5179Q116.286-91.7758 104.172-96.9966Q92.0582-102.217 78.2213-102.217Q64.4202-102.217 52.3033-96.9966Q40.1863-91.7758 30.9613-82.5179Q21.7362-73.2601 16.4975-61.1461Q11.2588-49.0322 11.2588-35.2251Q11.2588-21.4179 16.4975-9.30402Q21.7362 2.8099 30.9761 12.0677Q40.2161 21.3256 52.333 26.5464Q64.45 31.7672 78.2511 31.7672ZM78.2511 14.0252Q68.0447 14.0252 59.1149 10.2016Q50.1851 6.37791 43.4463-0.375708Q36.7076-7.12933 32.8809-16.074Q29.0543-25.0188 29.0543-35.2251Q29.0543-45.4314 32.8661-54.3761Q36.6778-63.3208 43.4166-70.0745Q50.1553-76.8281 59.0851-80.6517Q68.015-84.4754 78.2213-84.4754Q88.4574-84.4754 97.3902-80.6517Q106.323-76.8281 113.074-70.0745Q119.824-63.3208 123.666-54.3761Q127.507-45.4314 127.507-35.2251Q127.507-25.0188 123.684-16.074Q119.86-7.12933 113.121-0.375708Q106.383 6.37791 97.4379 10.2016Q88.4932 14.0252 78.2511 14.0252ZM76.6255-23.7802Q79.7058-23.7802 81.7354-25.1539Q83.765-26.5276 84.1666-28.6112Q84.2112-28.7785 84.2335-28.9963Q84.2558-29.214 84.3004-29.3664Q84.7467-31.3602 86.5498-32.9811Q88.353-34.6021 90.9129-36.2384Q95.8097-39.3096 98.2175-42.4311Q100.625-45.5527 100.625-50.6691Q100.625-58.53 94.2384-63.232Q87.8514-67.9341 78.65-67.9341Q70.6237-67.9341 65.0984-64.9383Q59.573-61.9426 57.695-57.3434Q56.9093-55.5188 56.9093-53.6101Q56.9093-51.0175 58.7114-49.2036Q60.5135-47.3897 63.2752-47.3897Q65.2695-47.3897 66.7845-48.0894Q68.2995-48.789 69.4004-50.2626L70.0463-51.0967Q71.5103-53.2522 73.2518-54.2154Q74.9933-55.1786 77.1058-55.1786Q79.8526-55.1786 81.6341-53.5732Q83.4156-51.9679 83.4156-49.7226Q83.4156-47.1691 81.4945-45.5166Q79.5735-43.8641 75.8612-41.3167Q72.584-38.9929 70.5307-36.5517Q68.4773-34.1105 68.4773-30.6192Q68.4773-30.4905 68.4773-30.4036Q68.4773-30.3167 68.4773-30.194Q68.4773-23.7802 76.6255-23.7802ZM76.6045-3.30731Q80.3374-3.30731 82.8081-5.40922Q85.2789-7.51113 85.2789-11.0594Q85.2789-14.5929 82.8081-16.6992Q80.3374-18.8055 76.6045-18.8055Q72.9163-18.8055 70.3786-16.7066Q67.8409-14.6078 67.8409-11.0594Q67.8409-7.5409 70.3786-5.42411Q72.9163-3.30731 76.6045-3.30731Z"/>
  </g>
  <g id="Bold-L" transform="matrix(1 0 0 1 2262.89 1556)">
   <path d="M77.0653 30.566Q90.6516 30.566 102.549 25.4396Q114.447 20.3133 123.533 11.2089Q132.619 2.10448 137.771-9.79333Q142.923-21.6912 142.923-35.2405Q142.923-48.7898 137.771-60.6877Q132.619-72.5855 123.515-81.6899Q114.41-90.7942 102.512-95.9206Q90.6146-101.047 77.0283-101.047Q63.4932-101.047 51.5882-95.9206Q39.6833-90.7942 30.623-81.6899Q21.5627-72.5855 16.4108-60.6877Q11.2588-48.7898 11.2588-35.2405Q11.2588-21.6912 16.4108-9.79333Q21.5627 2.10448 30.6415 11.2089Q39.7203 20.3133 51.6252 25.4396Q63.5301 30.566 77.0653 30.566ZM77.0653 15.8201Q66.4831 15.8201 57.2278 11.8629Q47.9725 7.90583 40.9827 0.897553Q33.9929-6.11072 30.0287-15.3845Q26.0645-24.6583 26.0645-35.2405Q26.0645-45.8227 30.0102-55.0965Q33.9559-64.3703 40.9457-71.3786Q47.9355-78.3868 57.1908-82.3439Q66.4461-86.3011 77.0283-86.3011Q87.6474-86.3011 96.9099-82.3439Q106.172-78.3868 113.173-71.3786Q120.175-64.3703 124.157-55.0965Q128.14-45.8227 128.14-35.2405Q128.14-24.6583 124.183-15.3845Q120.226-6.11072 113.236 0.897553Q106.246 7.90583 96.9725 11.8629Q87.6986 15.8201 77.0653 15.8201ZM75.5876-23.2752Q78.3017-23.2752 80.0244-24.5701Q81.7471-25.8651 82.0099-27.7868Q82.0391-27.996 82.0537-28.2316Q82.0683-28.4671 82.0975-28.6841Q82.3895-30.9121 84.1151-32.6619Q85.8407-34.4117 88.682-36.2668Q93.5045-39.3491 96.0254-42.5195Q98.5463-45.69 98.5463-50.8893Q98.5463-58.5571 92.4007-63.0367Q86.255-67.5163 77.522-67.5163Q69.5405-67.5163 64.2137-64.3862Q58.8869-61.256 57.2604-56.6983Q56.5855-55.0264 56.5855-53.242Q56.5855-50.9038 58.1732-49.3836Q59.7609-47.8634 62.0461-47.8634Q63.8568-47.8634 65.1829-48.5303Q66.509-49.1972 67.4572-50.5446L68.1878-51.5434Q69.5941-54.0005 71.6639-55.3128Q73.7338-56.6251 76.4033-56.6251Q79.8092-56.6251 81.9285-54.7456Q84.0478-52.8661 84.0478-50.1062Q84.0478-47.3132 82.1128-45.4841Q80.1777-43.655 76.2766-40.9813Q72.9175-38.593 70.8413-36.0294Q68.765-33.4658 68.765-29.6574Q68.765-29.4632 68.765-29.3081Q68.765-29.1531 68.765-28.9731Q68.765-23.2752 75.5876-23.2752ZM75.5286-3.56699Q78.8456-3.56699 81.0984-5.54845Q83.3511-7.52991 83.3511-10.7159Q83.3511-13.9096 81.0984-15.8801Q78.8456-17.8505 75.5286-17.8505Q72.2408-17.8505 69.9442-15.8762Q67.6477-13.9018 67.6477-10.7159Q67.6477-7.5669 69.9442-5.56695Q72.2408-3.56699 75.5286-3.56699Z"/>
  </g>
  <g id="Semibold-L" transform="matrix(1 0 0 1 1966.99 1556)">
   <path d="M76.2478 29.7379Q89.6614 29.7379 101.41 24.6766Q113.159 19.6153 122.137 10.6168Q131.114 1.61818 136.206-10.1307Q141.299-21.8795 141.299-35.2511Q141.299-48.6228 136.206-60.3716Q131.114-72.1204 122.116-81.119Q113.117-90.1176 101.368-95.1789Q89.6194-100.24 76.2058-100.24Q62.854-100.24 51.0953-95.1789Q39.3365-90.1176 30.3898-81.119Q21.4432-72.1204 16.351-60.3716Q11.2588-48.6228 11.2588-35.2511Q11.2588-21.8795 16.351-10.1307Q21.4432 1.61818 30.4108 10.6168Q39.3785 19.6153 51.1372 24.6766Q62.896 29.7379 76.2478 29.7379ZM76.2478 17.0574Q65.4065 17.0574 55.9268 13.0083Q46.4471 8.95916 39.2843 1.77533Q32.1214-5.4085 28.0624-14.9092Q24.0033-24.4099 24.0033-35.2511Q24.0033-46.0924 28.0414-55.5931Q32.0795-65.0938 39.2423-72.2776Q46.4052-79.4614 55.8848-83.5105Q65.3645-87.5597 76.2058-87.5597Q87.089-87.5597 96.5787-83.5105Q106.068-79.4614 113.242-72.2776Q120.416-65.0938 124.496-55.5931Q128.576-46.0924 128.576-35.2511Q128.576-24.4099 124.527-14.9092Q120.478-5.4085 113.315 1.77533Q106.152 8.95916 96.6516 13.0083Q87.1509 17.0574 76.2478 17.0574ZM74.8721-22.927Q77.3337-22.927 78.8448-24.1677Q80.3559-25.4083 80.5231-27.2185Q80.5416-27.4566 80.5509-27.7044Q80.5602-27.9523 80.5788-28.2138Q80.7645-30.6031 82.4366-32.4418Q84.1087-34.2805 87.1441-36.2864Q91.9154-39.3763 94.5142-42.5805Q97.113-45.7846 97.113-51.0411Q97.113-58.5757 91.1338-62.902Q85.1545-67.2284 76.7444-67.2284Q68.7938-67.2284 63.6038-64.0055Q58.4139-60.7827 56.9607-56.2536Q56.3623-54.6869 56.3623-52.9883Q56.3623-50.8255 57.8022-49.5077Q59.242-48.19 61.1987-48.19Q62.8829-48.19 64.0788-48.8343Q65.2747-49.4786 66.1175-50.7389L66.9066-51.8514Q68.273-54.5164 70.5693-56.0694Q72.8655-57.6223 75.919-57.6223Q79.7793-57.6223 82.1315-55.5538Q84.4836-53.4852 84.4836-50.3706Q84.4836-47.4125 82.539-45.4617Q80.5943-43.5108 76.5629-40.7502Q73.1474-38.3173 71.0554-35.6693Q68.9633-33.0213 68.9633-28.9944Q68.9633-28.755 68.9633-28.5529Q68.9633-28.3508 68.9633-28.1313Q68.9633-22.927 74.8721-22.927ZM74.7868-3.74602Q77.8172-3.74602 79.9196-5.64443Q82.0221-7.54285 82.0221-10.479Q82.0221-13.4386 79.9196-15.3154Q77.8172-17.1922 74.7868-17.1922Q71.7751-17.1922 69.6448-15.3037Q67.5145-13.4152 67.5145-10.479Q67.5145-7.58482 69.6448-5.66542Q71.7751-3.74602 74.7868-3.74602Z"/>
  </g>
  <g id="Medium-L" transform="matrix(1 0 0 1 1670.9 1556)">
   <path d="M75.6279 29.11Q88.9106 29.11 100.546 24.0981Q112.182 19.0862 121.078 10.1678Q129.973 1.24944 135.02-10.3864Q140.067-22.0223 140.067-35.2592Q140.067-48.4961 135.02-60.1319Q129.973-71.7678 121.055-80.6862Q112.137-89.6045 100.501-94.6164Q88.8648-99.6283 75.5822-99.6283Q62.3695-99.6283 50.7215-94.6164Q39.0736-89.6045 30.213-80.6862Q21.3525-71.7678 16.3056-60.1319Q11.2588-48.4961 11.2588-35.2592Q11.2588-22.0223 16.3056-10.3864Q21.3525 1.24944 30.2359 10.1678Q39.1193 19.0862 50.7673 24.0981Q62.4152 29.11 75.6279 29.11ZM75.6279 17.9956Q64.5902 17.9956 54.9404 13.8767Q45.2905 9.75784 37.9965 2.4409Q30.7024-4.87605 26.5714-14.5488Q22.4405-24.2215 22.4405-35.2592Q22.4405-46.2969 26.5486-55.9696Q30.6567-65.6423 37.9507-72.9593Q45.2448-80.2762 54.8946-84.3951Q64.5445-88.514 75.5822-88.514Q86.6657-88.514 96.3276-84.3951Q105.989-80.2762 113.294-72.9593Q120.599-65.6423 124.753-55.9696Q128.907-46.2969 128.907-35.2592Q128.907-24.2215 124.788-14.5488Q120.669-4.87605 113.375 2.4409Q106.081 9.75784 96.4083 13.8767Q86.7356 17.9956 75.6279 17.9956ZM74.3296-22.6631Q76.5998-22.6631 77.9504-23.8625Q79.3011-25.062 79.3957-26.7875Q79.4062-27.0475 79.4115-27.3047Q79.4167-27.5619 79.4272-27.8571Q79.5324-30.3689 81.1639-32.275Q82.7955-34.181 85.9779-36.3012Q90.7105-39.397 93.3683-42.6267Q96.0262-45.8564 96.0262-51.1562Q96.0262-58.5898 90.1731-62.7999Q84.3201-67.01 76.1548-67.01Q68.2276-67.01 63.1414-63.7169Q58.0552-60.4238 56.7335-55.9163Q56.193-54.4296 56.193-52.7959Q56.193-50.7661 57.5208-49.6018Q58.8486-48.4376 60.5561-48.4376Q62.1444-48.4376 63.2415-49.0648Q64.3387-49.6919 65.1017-50.8863L65.9352-52.0849Q67.2714-54.9076 69.7393-56.643Q72.2071-58.3784 75.5518-58.3784Q79.7567-58.3784 82.2854-56.1666Q84.8141-53.9547 84.8141-50.5711Q84.8141-47.4879 82.8621-45.4447Q80.9102-43.4015 76.78-40.5749Q73.3217-38.1083 71.2177-35.3963Q69.1137-32.6843 69.1137-28.4916Q69.1137-28.218 69.1137-27.9803Q69.1137-27.7426 69.1137-27.4931Q69.1137-22.6631 74.3296-22.6631ZM74.2244-3.88176Q77.0374-3.88176 79.0259-5.71721Q81.0143-7.55266 81.0143-10.2994Q81.0143-13.0814 79.0259-14.8872Q77.0374-16.6929 74.2244-16.6929Q71.422-16.6929 69.4177-14.8696Q67.4135-13.0462 67.4135-10.2994Q67.4135-7.59841 69.4177-5.74008Q71.422-3.88176 74.2244-3.88176Z"/>
  </g>
  <g id="Regular-L" transform="matrix(1 0 0 1 1374.99 1556)">
   <path d="M74.8194 28.2909Q87.9312 28.2909 99.4198 23.3434Q110.908 18.3959 119.697 9.58221Q128.485 0.768476 133.473-10.7201Q138.46-22.2086 138.46-35.2697Q138.46-48.3308 133.473-59.8193Q128.485-71.3079 119.671-80.1216Q110.858-88.9353 99.3691-93.8828Q87.8805-98.8303 74.7687-98.8303Q61.7374-98.8303 50.234-93.8828Q38.7306-88.9353 29.9824-80.1216Q21.2342-71.3079 16.2465-59.8193Q11.2588-48.3308 11.2588-35.2697Q11.2588-22.2086 16.2465-10.7201Q21.2342 0.768476 30.0077 9.58221Q38.7813 18.3959 50.2847 23.3434Q61.7881 28.2909 74.8194 28.2909ZM74.8194 19.2194Q63.5255 19.2194 53.6537 15.0095Q43.7819 10.7996 36.3167 3.30903Q28.8515-4.18154 24.6267-14.0786Q20.402-23.9757 20.402-35.2697Q20.402-46.5637 24.6014-56.4608Q28.8008-66.3579 36.266-73.8484Q43.7313-81.339 53.603-85.5489Q63.4748-89.7588 74.7687-89.7588Q86.1134-89.7588 96-85.5489Q105.887-81.339 113.362-73.8484Q120.838-66.3579 125.088-56.4608Q129.338-46.5637 129.338-35.2697Q129.338-23.9757 125.128-14.0786Q120.918-4.18154 113.453 3.30903Q105.988 10.7996 96.0909 15.0095Q86.1938 19.2194 74.8194 19.2194ZM73.6219-22.3187Q75.6425-22.3187 76.7839-23.4645Q77.9252-24.6103 77.9252-26.2254Q77.9252-26.514 77.9252-26.7833Q77.9252-27.0526 77.9252-27.3919Q77.9252-30.0633 79.5039-32.0573Q81.0826-34.0513 84.4568-36.3206Q89.1388-39.4239 91.8737-42.687Q94.6086-45.9501 94.6086-51.3064Q94.6086-58.6082 88.9201-62.6667Q83.2317-66.7252 75.3857-66.7252Q67.4891-66.7252 62.5382-63.3404Q57.5874-59.9557 56.4372-55.4765Q55.9723-54.0938 55.9723-52.5449Q55.9723-50.6885 57.1539-49.7246Q58.3354-48.7606 59.7181-48.7606Q61.1811-48.7606 62.1495-49.3654Q63.1179-49.9702 63.7768-51.0785L64.6681-52.3895Q65.9649-55.4178 68.6566-57.3913Q71.3484-59.3647 75.0728-59.3647Q79.7271-59.3647 82.4861-56.9659Q85.2451-54.5671 85.2451-50.8326Q85.2451-47.5861 83.2836-45.4225Q81.3221-43.2589 77.0632-40.3462Q73.549-37.8356 71.4294-35.0402Q69.3098-32.2447 69.3098-27.8359Q69.3098-27.5176 69.3098-27.2334Q69.3098-26.9492 69.3098-26.6606Q69.3098-22.3187 73.6219-22.3187ZM73.4908-4.05881Q76.0203-4.05881 77.8601-5.81214Q79.6999-7.56546 79.6999-10.0652Q79.6999-12.6156 77.8601-14.3287Q76.0203-16.0418 73.4908-16.0418Q70.9614-16.0418 69.1216-14.3033Q67.2817-12.5649 67.2817-10.0652Q67.2817-7.61614 69.1216-5.83748Q70.9614-4.05881 73.4908-4.05881Z"/>
  </g>
  <g id="Light-L" transform="matrix(1 0 0 1 1079.2 1556)">
   <path d="M73.8959 27.3674Q86.8436 27.3674 98.1577 22.502Q109.472 17.6366 118.137 8.95629Q126.802 0.275949 131.708-11.0381Q136.614-22.3522 136.614-35.2697Q136.614-48.1872 131.708-59.5013Q126.802-70.8154 118.122-79.4957Q109.442-88.176 98.1275-93.0414Q86.8134-97.9069 73.8658-97.9069Q60.9986-97.9069 49.6594-93.0414Q38.3201-88.176 29.6951-79.4957Q21.07-70.8154 16.1644-59.5013Q11.2588-48.1872 11.2588-35.2697Q11.2588-22.3522 16.1644-11.0381Q21.07 0.275949 29.7102 8.95629Q38.3503 17.6366 49.6895 22.502Q61.0287 27.3674 73.8959 27.3674ZM73.8959 20.4712Q62.3557 20.4712 52.2479 16.1587Q42.1402 11.8462 34.4903 4.18122Q26.8403-3.48379 22.5027-13.6066Q18.1651-23.7295 18.1651-35.2697Q18.1651-46.8099 22.4876-56.9328Q26.8102-67.0556 34.4601-74.7206Q42.11-82.3856 52.2178-86.6981Q62.3255-91.0106 73.8658-91.0106Q85.4362-91.0106 95.5691-86.6981Q105.702-82.3856 113.342-74.7206Q120.982-67.0556 125.334-56.9328Q129.687-46.8099 129.687-35.2697Q129.687-23.7295 125.375-13.6066Q121.062-3.48379 113.412 4.18122Q105.762 11.8462 95.6394 16.1587Q85.5166 20.4712 73.8959 20.4712ZM72.76-22.4829Q74.288-22.4829 75.1626-23.3927Q76.0372-24.3025 76.0372-25.5892Q76.0372-26.0215 76.0372-26.3934Q76.0372-26.7653 76.0372-27.2277Q76.0372-30.0223 77.5953-32.0881Q79.1535-34.1539 82.6919-36.5463Q87.497-39.7933 89.9549-43.0051Q92.4127-46.2168 92.4127-51.1627Q92.4127-57.7874 87.1553-61.733Q81.8978-65.6786 74.2981-65.6786Q66.6682-65.6786 61.9636-62.1502Q57.259-58.6218 56.3141-53.9373Q55.9723-52.8215 55.9723-51.3136Q55.9723-49.7856 56.8871-49.0165Q57.8019-48.2475 58.9177-48.2475Q60.114-48.2475 60.9182-48.7703Q61.7224-49.293 62.1145-50.2781L62.6775-51.3839Q63.4817-54.7816 66.5326-57.3399Q69.5835-59.8983 74.0467-59.8983Q79.1936-59.8983 82.2193-57.3148Q85.2451-54.7313 85.2451-50.7505Q85.2451-47.4835 83.3452-45.1865Q81.4453-42.8895 77.0222-39.8537Q73.3028-37.2199 71.3576-34.4656Q69.4124-31.7112 69.4124-27.5896Q69.4124-27.1071 69.4124-26.7101Q69.4124-26.313 69.4124-25.8807Q69.4124-22.4829 72.76-22.4829ZM72.6494-4.94126Q74.8711-4.94126 76.4543-6.48936Q78.0376-8.03746 78.0376-10.2088Q78.0376-12.4104 76.4543-13.9183Q74.8711-15.4261 72.6494-15.4261Q70.4278-15.4261 68.8445-13.9032Q67.2612-12.3802 67.2612-10.2088Q67.2612-8.06762 68.8445-6.50444Q70.4278-4.94126 72.6494-4.94126Z"/>
  </g>
  <g id="Thin-L" transform="matrix(1 0 0 1 783.716 1556)">
   <path d="M72.6746 26.1461Q85.405 26.1461 96.4884 21.3892Q107.572 16.6324 116.074 8.12846Q124.577-0.375458 129.374-11.4588Q134.171-22.5422 134.171-35.2697Q134.171-47.9972 129.374-59.0806Q124.577-70.1639 116.073-78.6679Q107.569-87.1718 96.4854-91.9286Q85.402-96.6855 72.6715-96.6855Q60.0215-96.6855 48.8994-91.9286Q37.7773-87.1718 29.3151-78.6679Q20.8529-70.1639 16.0558-59.0806Q11.2588-47.9972 11.2588-35.2697Q11.2588-22.5422 16.0558-11.4588Q20.8529-0.375458 29.3166 8.12846Q37.7803 16.6324 48.9024 21.3892Q60.0245 26.1461 72.6746 26.1461ZM72.6746 22.1269Q60.8086 22.1269 50.3887 17.6787Q39.9688 13.2305 32.0746 5.33475Q24.1804-2.56097 19.6935-12.9824Q15.2066-23.4038 15.2066-35.2697Q15.2066-47.1356 19.692-57.557Q24.1774-67.9784 32.0716-75.8742Q39.9658-83.7699 50.3857-88.2181Q60.8056-92.6663 72.6715-92.6663Q84.5405-92.6663 94.9991-88.2181Q105.458-83.7699 113.315-75.8742Q121.172-67.9784 125.66-57.557Q130.149-47.1356 130.149-35.2697Q130.149-23.4038 125.7-12.9824Q121.252-2.56097 113.358 5.33475Q105.464 13.2305 95.0423 17.6787Q84.6209 22.1269 72.6746 22.1269ZM71.62-22.7001Q72.4967-22.7001 73.0184-23.2977Q73.5402-23.8953 73.5402-24.7478Q73.5402-25.37 73.5402-25.8777Q73.5402-26.3853 73.5402-27.0106Q73.5402-29.968 75.0711-32.1288Q76.6021-34.2896 80.3577-36.8449Q85.3257-40.2818 87.4171-43.4258Q89.5086-46.5697 89.5086-50.9727Q89.5086-56.7017 84.821-60.498Q80.1335-64.2943 72.8595-64.2943Q65.5825-64.2943 61.2036-60.5759Q56.8247-56.8575 56.1512-51.9017Q55.9723-51.1387 55.9723-49.6851Q55.9723-48.5913 56.5342-48.0802Q57.0962-47.569 57.8592-47.569Q58.7026-47.569 59.2897-47.9831Q59.8768-48.3973 59.916-49.2196L60.0447-50.054Q60.1975-53.9402 63.7234-57.2721Q67.2493-60.6039 72.6896-60.6039Q78.4879-60.6039 81.8665-57.7762Q85.2451-54.9484 85.2451-50.642Q85.2451-47.3478 83.4266-44.8744Q81.6081-42.401 76.9679-39.2023Q72.9771-36.4057 71.2626-33.7056Q69.5481-31.0055 69.5481-27.2639Q69.5481-26.5643 69.5481-26.0179Q69.5481-25.4716 69.5481-24.8494Q69.5481-22.7001 71.62-22.7001ZM71.5366-6.10836Q73.3511-6.10836 74.5951-7.38504Q75.8391-8.66173 75.8391-10.3988Q75.8391-12.1389 74.5951-13.3754Q73.3511-14.6119 71.5366-14.6119Q69.7221-14.6119 68.4781-13.3739Q67.2341-12.1359 67.2341-10.3988Q67.2341-8.66474 68.4781-7.38655Q69.7221-6.10836 71.5366-6.10836Z"/>
  </g>
  <g id="Ultralight-L" transform="matrix(1 0 0 1 487.631 1556)">
   <path d="M72.049 25.5205Q84.6682 25.5205 95.6335 20.8192Q106.599 16.118 115.018 7.70445Q123.437-0.709105 128.178-11.6743Q132.92-22.6395 132.92-35.2697Q132.92-47.8999 128.178-58.8651Q123.437-69.8303 115.023-78.2439Q106.61-86.6574 95.6443-91.3586Q84.6791-96.0599 72.0598-96.0599Q59.521-96.0599 48.5101-91.3586Q37.4993-86.6574 29.1205-78.2439Q20.7417-69.8303 16.0002-58.8651Q11.2588-47.8999 11.2588-35.2697Q11.2588-22.6395 16.0002-11.6743Q20.7417-0.709105 29.115 7.70445Q37.4884 16.118 48.4992 20.8192Q59.5101 25.5205 72.049 25.5205ZM72.049 22.9749Q60.0162 22.9749 49.4364 18.4572Q38.8567 13.9395 30.8374 5.92558Q22.818-2.0883 18.2546-12.6626Q13.6913-23.2369 13.6913-35.2697Q13.6913-47.3025 18.2601-57.8768Q22.8289-68.4511 30.8482-76.465Q38.8676-84.4789 49.4473-88.9966Q60.0271-93.5143 72.0598-93.5143Q84.0817-93.5143 94.7071-88.9966Q105.333-84.4789 113.301-76.465Q121.269-68.4511 125.827-57.8768Q130.385-47.3025 130.385-35.2697Q130.385-23.2369 125.867-12.6626Q121.349-2.0883 113.33 5.92558Q105.311 13.9395 94.7365 18.4572Q84.1621 22.9749 72.049 22.9749ZM71.0362-22.8113Q71.5791-22.8113 71.9201-23.249Q72.2612-23.6868 72.2612-24.3169Q72.2612-25.0364 72.2612-25.6136Q72.2612-26.1907 72.2612-26.8994Q72.2612-29.9402 73.7783-32.1497Q75.2954-34.3591 79.1622-36.9978Q84.2135-40.5321 86.1173-43.6412Q88.021-46.7504 88.021-50.8754Q88.021-56.1456 83.6255-59.8655Q79.2299-63.5853 72.1227-63.5853Q65.0264-63.5853 60.8144-59.7696Q56.6023-55.9539 56.0678-50.859Q55.9723-50.2767 55.9723-48.851Q55.9723-47.9796 56.3535-47.6005Q56.7347-47.2214 57.317-47.2214Q57.9797-47.2214 58.4556-47.58Q58.9314-47.9385 58.7899-48.6774L58.6962-49.3728Q58.5154-53.5093 62.2846-57.2373Q66.0537-60.9654 71.9945-60.9654Q78.1264-60.9654 81.6858-58.0125Q85.2451-55.0597 85.2451-50.5864Q85.2451-47.2783 83.4683-44.7145Q81.6915-42.1507 76.9401-38.8686Q72.8103-35.9886 71.214-33.3163Q69.6177-30.644 69.6177-27.0971Q69.6177-26.2862 69.6177-25.6634Q69.6177-25.0406 69.6177-24.3211Q69.6177-22.8113 71.0362-22.8113ZM70.9666-6.70615Q72.5726-6.70615 73.6428-7.84381Q74.7131-8.98147 74.7131-10.4961Q74.7131-11.9999 73.6428-13.0974Q72.5726-14.1948 70.9666-14.1948Q69.3607-14.1948 68.2904-13.1028Q67.2202-12.0108 67.2202-10.4961Q67.2202-8.97059 68.2904-7.83837Q69.3607-6.70615 70.9666-6.70615Z"/>
  </g>
  <g id="Black-M" transform="matrix(1 0 0 1 2871.36 1126)">
   <path d="M62.0423 18.1161Q73.0725 18.1161 82.714 13.9613Q92.3555 9.80654 99.704 2.45531Q107.052-4.89592 111.21-14.5374Q115.367-24.1789 115.367-35.2035Q115.367-46.2282 111.21-55.8697Q107.052-65.5112 99.7012-72.8624Q92.35-80.2136 82.7085-84.3684Q73.067-88.5232 62.0368-88.5232Q51.0119-88.5232 41.3705-84.3684Q31.7292-80.2136 24.3833-72.8624Q17.0375-65.5112 12.8801-55.8697Q8.72266-46.2282 8.72266-35.2035Q8.72266-24.1789 12.8801-14.5374Q17.0375-4.89592 24.3861 2.45531Q31.7347 9.80654 41.376 13.9613Q51.0174 18.1161 62.0423 18.1161ZM62.0423 0.734266Q54.6003 0.734266 48.0771-2.06802Q41.554-4.87031 36.637-9.78999Q31.7201-14.7097 28.918-21.2356Q26.1159-27.7615 26.1159-35.2035Q26.1159-42.6456 28.9152-49.1715Q31.7146-55.6974 36.6315-60.6171Q41.5485-65.5368 48.0716-68.3391Q54.5948-71.1414 62.0368-71.1414Q69.4844-71.1414 76.0074-68.3391Q82.5304-65.5368 87.4502-60.6171Q92.3701-55.6974 95.175-49.1715Q97.9799-42.6456 97.9799-35.2035Q97.9799-27.7615 95.1776-21.2356Q92.3753-14.7097 87.4584-9.78999Q82.5414-4.87031 76.0155-2.06802Q69.4896 0.734266 62.0423 0.734266ZM60.5878-27.1528Q63.3415-27.1528 65.2715-28.2518Q67.2015-29.3509 67.7154-31.0899Q67.7725-31.2071 67.801-31.3847Q67.8296-31.5623 67.8867-31.628Q68.4576-32.8725 69.961-33.9644Q71.4643-35.0564 73.0924-36.0464Q77.0364-38.4586 78.6425-40.788Q80.2486-43.1175 80.2486-46.8206Q80.2486-52.9625 75.0943-56.8918Q69.9401-60.8211 62.2111-60.8211Q56.0181-60.8211 51.5312-58.6477Q47.0443-56.4742 45.2917-52.7807Q44.5631-51.2347 44.5631-49.5883Q44.5631-47.3199 46.1817-45.5519Q47.8002-43.7839 50.5452-43.7839Q52.2677-43.7839 53.6614-44.3459Q55.0552-44.9079 56.0404-46.192L56.3051-46.5276Q57.3562-47.8826 58.3479-48.318Q59.3397-48.7534 60.4141-48.7534Q61.7468-48.7534 62.7244-47.8473Q63.702-46.9412 63.702-45.8697Q63.702-44.2342 62.2551-43.1665Q60.8081-42.0988 58.1521-40.2678Q55.663-38.5198 54.165-36.8213Q52.667-35.1227 52.667-32.9789Q52.667-32.919 52.667-32.9129Q52.667-32.9067 52.667-32.8466Q52.667-27.1528 60.5878-27.1528ZM60.6342-10.419Q64.0288-10.419 66.1742-12.1536Q68.3196-13.8881 68.3196-17.0547Q68.3196-20.1697 66.1742-21.9302Q64.0288-23.6907 60.6342-23.6907Q57.2966-23.6907 55.0655-21.956Q52.8345-20.2213 52.8345-17.0547Q52.8345-13.8937 55.0655-12.1564Q57.2966-10.419 60.6342-10.419Z"/>
  </g>
  <g id="Heavy-M" transform="matrix(1 0 0 1 2575.48 1126)">
   <path d="M61.2045 17.2648Q72.0509 17.2648 81.541 13.1749Q91.0312 9.08498 98.2688 1.83921Q105.506-5.40657 109.606-14.8967Q113.705-24.3868 113.705-35.217Q113.705-46.0473 109.606-55.5374Q105.506-65.0275 98.2607-72.2733Q91.0149-79.519 81.5248-83.6089Q72.0347-87.6988 61.1882-87.6988Q50.3604-87.6988 40.8691-83.6089Q31.3778-79.519 24.1495-72.2733Q16.9211-65.0275 12.8219-55.5374Q8.72266-46.0473 8.72266-35.217Q8.72266-24.3868 12.8219-14.8967Q16.9211-5.40657 24.1576 1.83921Q31.394 9.08498 40.8853 13.1749Q50.3767 17.2648 61.2045 17.2648ZM61.2045 2.03385Q53.4869 2.03385 46.73-0.86303Q39.9731-3.75991 34.8765-8.86466Q29.7798-13.9694 26.8817-20.7344Q23.9836-27.4994 23.9836-35.217Q23.9836-42.9346 26.8736-49.6996Q29.7636-56.4646 34.8602-61.5694Q39.9568-66.6741 46.7137-69.571Q53.4706-72.4679 61.1882-72.4679Q68.922-72.4679 75.6802-69.571Q82.4383-66.6741 87.5418-61.5694Q92.6453-56.4646 95.5516-49.6996Q98.4578-42.9346 98.4578-35.217Q98.4578-27.4994 95.5609-20.7344Q92.664-13.9694 87.5674-8.86466Q82.4708-3.75991 75.7057-0.86303Q68.9407 2.03385 61.2045 2.03385ZM59.8659-26.6762Q62.4055-26.6762 64.1246-27.7571Q65.8436-28.838 66.2362-30.5061Q66.2799-30.6291 66.3017-30.8002Q66.3235-30.9713 66.3671-31.067Q66.8033-32.4897 68.2433-33.6788Q69.6832-34.868 71.5219-36.0228Q75.3747-38.4137 77.139-40.797Q78.9034-43.1802 78.9034-47.0439Q78.9034-53.1625 73.8675-56.9217Q68.8316-60.6809 61.459-60.6809Q55.2479-60.6809 50.8816-58.4208Q46.5152-56.1608 44.9384-52.5475Q44.2801-51.0777 44.2801-49.5312Q44.2801-47.4145 45.7686-45.8613Q47.2571-44.3081 49.643-44.3081Q51.2623-44.3081 52.5263-44.8591Q53.7903-45.41 54.6993-46.6103L55.1087-47.134Q56.215-48.6733 57.4166-49.2881Q58.6181-49.9028 60.0206-49.9028Q61.8236-49.9028 63.039-48.7968Q64.2545-47.6908 64.2545-46.2225Q64.2545-44.3822 62.7821-43.1888Q61.3097-41.9954 58.5239-40.0805Q56.0073-38.3026 54.4518-36.4883Q52.8963-34.6739 52.8963-32.1913Q52.8963-32.1094 52.8963-32.068Q52.8963-32.0265 52.8963-31.9471Q52.8963-26.6762 59.8659-26.6762ZM59.8746-10.4564Q62.9721-10.4564 64.982-12.1298Q66.992-13.8032 66.992-16.7236Q66.992-19.6167 64.982-21.3026Q62.9721-22.9884 59.8746-22.9884Q56.8209-22.9884 54.7454-21.3163Q52.67-19.6441 52.67-16.7236Q52.67-13.8194 54.7454-12.1379Q56.8209-10.4564 59.8746-10.4564Z"/>
  </g>
  <g id="Bold-M" transform="matrix(1 0 0 1 2279.69 1126)">
   <path d="M60.2672 16.3124Q70.9082 16.3124 80.2289 12.2951Q89.5497 8.27781 96.6634 1.15Q103.777-5.9778 107.811-15.2986Q111.845-24.6193 111.845-35.2321Q111.845-45.8449 107.811-55.1656Q103.777-64.4864 96.6493-71.6142Q89.5215-78.742 80.2007-82.7593Q70.8799-86.7766 60.2389-86.7766Q49.6317-86.7766 40.3082-82.7593Q30.9846-78.742 23.8878-71.6142Q16.791-64.4864 12.7568-55.1656Q8.72266-45.8449 8.72266-35.2321Q8.72266-24.6193 12.7568-15.2986Q16.791-5.9778 23.902 1.15Q31.0129 8.27781 40.3364 12.2951Q49.6599 16.3124 60.2672 16.3124ZM60.2672 3.48763Q52.2414 3.48763 45.223 0.484927Q38.2046-2.51777 32.907-7.82954Q27.6093-13.1413 24.6039-20.1738Q21.5984-27.2063 21.5984-35.2321Q21.5984-43.2579 24.5897-50.2904Q27.5811-57.3229 32.8787-62.6347Q38.1764-67.9464 45.1948-70.9491Q52.2131-73.9518 60.2389-73.9518Q68.293-73.9518 75.3141-70.9491Q82.3352-67.9464 87.6443-62.6347Q92.9533-57.3229 95.9728-50.2904Q98.9924-43.2579 98.9924-35.2321Q98.9924-27.2063 95.9897-20.1738Q92.987-13.1413 87.6894-7.82954Q82.3917-2.51777 75.3592 0.484927Q68.3267 3.48763 60.2672 3.48763ZM59.0585-26.1431Q61.3584-26.1431 62.8415-27.2037Q64.3247-28.2643 64.5816-29.853Q64.6102-29.9825 64.6244-30.1464Q64.6387-30.3103 64.6672-30.4395Q64.9527-32.0615 66.3218-33.3594Q67.6908-34.6573 69.7652-35.9963Q73.5158-38.3636 75.4572-40.8069Q77.3986-43.2503 77.3986-47.2937Q77.3986-53.3861 72.4951-56.9551Q67.5917-60.524 60.6177-60.524Q54.3862-60.524 50.1548-58.1671Q45.9234-55.8101 44.5431-52.2867Q43.9636-50.9021 43.9636-49.4672Q43.9636-47.5203 45.3066-46.2074Q46.6496-44.8944 48.6337-44.8944Q50.1377-44.8944 51.2565-45.4331Q52.3753-45.9718 53.1991-47.0783L53.7703-47.8124Q54.9385-49.5577 56.3747-50.3732Q57.811-51.1887 59.5805-51.1887Q61.9094-51.1887 63.391-49.859Q64.8725-48.5294 64.8725-46.6172Q64.8725-44.5477 63.3717-43.2137Q61.8708-41.8798 58.9398-39.871Q56.3924-38.0596 54.7726-36.1158Q53.1529-34.1719 53.1529-31.3103Q53.1529-31.2038 53.1529-31.1228Q53.1529-31.0418 53.1529-30.9409Q53.1529-26.1431 59.0585-26.1431ZM59.025-10.4982Q61.7899-10.4982 63.6484-12.1032Q65.5069-13.7081 65.5069-16.3533Q65.5069-18.9981 63.6484-20.6004Q61.7899-22.2028 59.025-22.2028Q56.2887-22.2028 54.3874-20.6006Q52.4861-18.9984 52.4861-16.3533Q52.4861-13.7363 54.3874-12.1173Q56.2887-10.4982 59.025-10.4982Z"/>
  </g>
  <g id="Semibold-M" transform="matrix(1 0 0 1 1983.62 1126)">
   <path d="M59.621 15.6559Q70.1203 15.6559 79.3244 11.6886Q88.5284 7.72135 95.5566 0.674869Q102.585-6.37161 106.574-15.5756Q110.564-24.7797 110.564-35.2425Q110.564-45.7053 106.574-54.9093Q102.585-64.1134 95.5384-71.1598Q88.4919-78.2063 79.2879-82.1736Q70.0838-86.1408 59.5845-86.1408Q49.1293-86.1408 39.9215-82.1736Q30.7136-78.2063 23.7075-71.1598Q16.7013-64.1134 12.712-54.9093Q8.72266-45.7053 8.72266-35.2425Q8.72266-24.7797 12.712-15.5756Q16.7013-6.37161 23.7257 0.674869Q30.7501 7.72135 39.958 11.6886Q49.1658 15.6559 59.621 15.6559ZM59.621 4.48985Q51.3827 4.48985 44.1841 1.4142Q36.9855-1.66145 31.5492-7.11594Q26.113-12.5704 23.0335-19.7873Q19.954-27.0042 19.954-35.2425Q19.954-43.4808 23.0153-50.6977Q26.0765-57.9145 31.5127-63.369Q36.9489-68.8235 44.1476-71.8992Q51.3462-74.9748 59.5845-74.9748Q67.8593-74.9748 75.0618-71.8992Q82.2642-68.8235 87.7149-63.369Q93.1655-57.9145 96.2633-50.6977Q99.361-43.4808 99.361-35.2425Q99.361-27.0042 96.2853-19.7873Q93.2097-12.5704 87.7735-7.11594Q82.3372-1.66145 75.1203 1.4142Q67.9035 4.48985 59.621 4.48985ZM58.5018-25.7756Q60.6365-25.7756 61.957-26.8222Q63.2775-27.8688 63.4409-29.4028Q63.4591-29.5368 63.4681-29.6956Q63.4772-29.8545 63.4954-30.0068Q63.6769-31.7662 64.9971-33.1391Q66.3173-34.512 68.5541-35.9781Q72.2342-38.329 74.2977-40.8138Q76.3612-43.2987 76.3612-47.4659Q76.3612-53.5403 71.549-56.9781Q66.7368-60.4159 60.0377-60.4159Q53.7923-60.4159 49.6538-57.9922Q45.5154-55.5684 44.2706-52.1069Q43.7454-50.7811 43.7454-49.4232Q43.7454-47.5933 44.9881-46.446Q46.2308-45.2987 47.9379-45.2987Q49.3624-45.2987 50.3811-45.8288Q51.3998-46.359 52.1649-47.4008L52.8476-48.28Q54.0584-50.1674 55.6565-51.1213Q57.2545-52.0751 59.277-52.0751Q61.9686-52.0751 63.6336-50.5913Q65.2985-49.1075 65.2985-46.8893Q65.2985-44.6618 63.7781-43.2309Q62.2576-41.8 59.2265-39.7266Q56.6579-37.8921 54.9938-35.859Q53.3297-33.8258 53.3297-30.7029Q53.3297-30.5795 53.3297-30.4712Q53.3297-30.363 53.3297-30.2472Q53.3297-25.7756 58.5018-25.7756ZM58.4393-10.527Q60.9749-10.527 62.729-12.0848Q64.483-13.6425 64.483-16.0979Q64.483-18.5716 62.729-20.1164Q60.9749-21.6612 58.4393-21.6612Q55.9218-21.6612 54.1405-20.1072Q52.3593-18.5533 52.3593-16.0979Q52.3593-13.6791 54.1405-12.103Q55.9218-10.527 58.4393-10.527Z"/>
  </g>
  <g id="Medium-M" transform="matrix(1 0 0 1 1687.4 1126)">
   <path d="M59.1311 15.158Q69.523 15.158 78.6385 11.2287Q87.754 7.29942 94.7174 0.314603Q101.681-6.67021 105.636-15.7857Q109.591-24.9012 109.591-35.2504Q109.591-45.5995 105.636-54.715Q101.681-63.8305 94.696-70.8153Q87.7112-77.8002 78.5957-81.7295Q69.4802-85.6588 59.0883-85.6588Q48.7484-85.6588 39.6283-81.7295Q30.5081-77.8002 23.5707-70.8153Q16.6333-63.8305 12.678-54.715Q8.72266-45.5995 8.72266-35.2504Q8.72266-24.9012 12.678-15.7857Q16.6333-6.67021 23.5921 0.314603Q30.5509 7.29942 39.671 11.2287Q48.7912 15.158 59.1311 15.158ZM59.1311 5.24978Q50.7316 5.24978 43.3963 2.11881Q36.061-1.01215 30.5197-6.57486Q24.9784-12.1376 21.8428-19.4943Q18.7072-26.8509 18.7072-35.2504Q18.7072-43.6498 21.8214-51.0065Q24.9356-58.3632 30.4769-63.9259Q36.0183-69.4886 43.3536-72.6195Q50.6889-75.7505 59.0883-75.7505Q67.5305-75.7505 74.8704-72.6195Q82.2103-69.4886 87.7684-63.9259Q93.3265-58.3632 96.4835-51.0065Q99.6405-43.6498 99.6405-35.2504Q99.6405-26.8509 96.5095-19.4943Q93.3785-12.1376 87.8372-6.57486Q82.2959-1.01215 74.9392 2.11881Q67.5825 5.24978 59.1311 5.24978ZM58.0797-25.4969Q60.0892-25.4969 61.2863-26.5329Q62.4835-27.5689 62.576-29.0614Q62.5863-29.1988 62.5914-29.3539Q62.5965-29.509 62.6068-29.6788Q62.7096-31.5424 63.9927-32.9721Q65.2758-34.4019 67.6358-35.9642Q71.2625-38.3028 73.4186-40.819Q75.5746-43.3353 75.5746-47.5965Q75.5746-53.6573 70.8316-56.9956Q66.0887-60.3339 59.5979-60.3339Q53.3419-60.3339 49.2739-57.8595Q45.206-55.3851 44.0639-51.9706Q43.5799-50.6893 43.5799-49.3897Q43.5799-47.6487 44.7465-46.6269Q45.9132-45.6052 47.4103-45.6052Q48.7745-45.6052 49.7173-46.1289Q50.6601-46.6527 51.3807-47.6454L52.148-48.6346Q53.3911-50.6297 55.1119-51.6885Q56.8326-52.7473 59.0469-52.7473Q62.0135-52.7473 63.8175-51.1466Q65.6216-49.5459 65.6216-47.0956Q65.6216-44.7483 64.0863-43.2439Q62.5509-41.7396 59.4439-39.6171Q56.8593-37.7651 55.1615-35.6642Q53.4638-33.5634 53.4638-30.2424Q53.4638-30.1061 53.4638-29.9772Q53.4638-29.8483 53.4638-29.7212Q53.4638-25.4969 58.0797-25.4969ZM57.9952-10.5489Q60.357-10.5489 62.0319-12.0709Q63.7067-13.5929 63.7067-15.9043Q63.7067-18.2483 62.0319-19.7494Q60.357-21.2505 57.9952-21.2505Q55.6436-21.2505 53.9534-19.7331Q52.2631-18.2158 52.2631-15.9043Q52.2631-13.6356 53.9534-12.0923Q55.6436-10.5489 57.9952-10.5489Z"/>
  </g>
  <g id="Regular-M" transform="matrix(1 0 0 1 1391.32 1126)">
   <path d="M58.492 14.5087Q68.7438 14.5087 77.7439 10.6289Q86.7439 6.74907 93.6228-0.155309Q100.502-7.05969 104.413-16.0597Q108.324-25.0598 108.324-35.2606Q108.324-45.4615 104.413-54.4616Q100.502-63.4616 93.5973-70.366Q86.693-77.2704 77.6929-81.1502Q68.6929-85.03 58.441-85.03Q48.2515-85.03 39.2458-81.1502Q30.2401-77.2704 23.3923-70.366Q16.5446-63.4616 12.6336-54.4616Q8.72266-45.4615 8.72266-35.2606Q8.72266-25.0598 12.6336-16.0597Q16.5446-7.05969 23.4178-0.155309Q30.291 6.74907 39.2968 10.6289Q48.3025 14.5087 58.492 14.5087ZM58.492 6.24099Q49.8824 6.24099 42.3688 3.03788Q34.8553-0.165238 29.1769-5.86909Q23.4985-11.573 20.2897-19.112Q17.0809-26.6511 17.0809-35.2606Q17.0809-43.8702 20.2642-51.4093Q23.4476-58.9483 29.1259-64.6522Q34.8043-70.3561 42.3179-73.5592Q49.8315-76.7623 58.441-76.7623Q67.1016-76.7623 74.6208-73.5592Q82.1401-70.3561 87.8383-64.6522Q93.5364-58.9483 96.7707-51.4093Q100.005-43.8702 100.005-35.2606Q100.005-26.6511 96.8019-19.112Q93.5988-11.573 87.9204-5.86909Q82.242-0.165238 74.7029 3.03788Q67.1639 6.24099 58.492 6.24099ZM57.5292-25.1334Q59.3752-25.1334 60.4115-26.1556Q61.4478-27.1778 61.4478-28.6162Q61.4478-28.7579 61.4478-28.9081Q61.4478-29.0583 61.4478-29.2509Q61.4478-31.2505 62.6826-32.7543Q63.9173-34.2582 66.438-35.9462Q69.9951-38.2686 72.2718-40.8259Q74.5486-43.3831 74.5486-47.7668Q74.5486-53.8098 69.8959-57.0184Q65.2432-60.227 59.0243-60.227Q52.7544-60.227 48.7784-57.6865Q44.8025-55.1461 43.7944-51.7928Q43.3641-50.5695 43.3641-49.3461Q43.3641-47.7208 44.4315-46.8629Q45.499-46.0049 46.7222-46.0049Q48.0077-46.0049 48.8515-46.5203Q49.6953-47.0357 50.3578-47.9645L51.2354-49.0971Q52.5208-51.2328 54.4015-52.4284Q56.2823-53.624 58.7468-53.624Q62.072-53.624 64.0575-51.8708Q66.043-50.1176 66.043-47.3647Q66.043-44.8611 64.4882-43.2609Q62.9335-41.6607 59.7275-39.4743Q57.1219-37.5994 55.3803-35.4103Q53.6388-33.2211 53.6388-29.6417Q53.6388-29.4886 53.6388-29.3328Q53.6388-29.1769 53.6388-29.0352Q53.6388-25.1334 57.5292-25.1334ZM57.4159-10.5774Q59.551-10.5774 61.1226-12.0527Q62.6941-13.528 62.6941-15.6518Q62.6941-17.8265 61.1226-19.2707Q59.551-20.7148 57.4159-20.7148Q55.2808-20.7148 53.7092-19.2452Q52.1377-17.7755 52.1377-15.6518Q52.1377-13.579 53.7092-12.0782Q55.2808-10.5774 57.4159-10.5774Z"/>
  </g>
  <g id="Light-M" transform="matrix(1 0 0 1 1095.44 1126)">
   <path d="M57.664 13.6807Q67.7687 13.6807 76.6123 9.87453Q85.456 6.06831 92.2245-0.716478Q98.993-7.50127 102.83-16.3449Q106.668-25.1886 106.668-35.2606Q106.668-45.3327 102.83-54.1764Q98.993-63.02 92.2082-69.8048Q85.4234-76.5896 76.5798-80.3958Q67.7361-84.202 57.6315-84.202Q47.5892-84.202 38.7306-80.3958Q29.8721-76.5896 23.1348-69.8048Q16.3974-63.02 12.56-54.1764Q8.72266-45.3327 8.72266-35.2606Q8.72266-25.1886 12.56-16.3449Q16.3974-7.50127 23.151-0.716478Q29.9047 6.06831 38.7632 9.87453Q47.6217 13.6807 57.664 13.6807ZM57.664 7.36333Q48.8337 7.36333 41.1085 4.06822Q33.3833 0.773111 27.5394-5.08714Q21.6954-10.9474 18.3854-18.6888Q15.0755-26.4303 15.0755-35.2606Q15.0755-44.091 18.3692-51.8325Q21.6629-59.5739 27.5068-65.4342Q33.3508-71.2944 41.076-74.5895Q48.8011-77.8846 57.6315-77.8846Q66.4944-77.8846 74.2345-74.5895Q81.9745-71.2944 87.8199-65.4342Q93.6652-59.5739 96.9915-51.8325Q100.318-44.091 100.318-35.2606Q100.318-26.4303 97.0227-18.6888Q93.7275-10.9474 87.8836-5.08714Q82.0396 0.773111 74.2982 4.06822Q66.5567 7.36333 57.664 7.36333ZM56.7564-25.2806Q58.1609-25.2806 58.958-26.0912Q59.7551-26.9018 59.7551-28.0458Q59.7551-28.3163 59.7551-28.5585Q59.7551-28.8007 59.7551-29.1037Q59.7551-31.2137 60.9715-32.7819Q62.1878-34.3502 64.8557-36.1486Q68.5232-38.5998 70.5515-41.111Q72.5799-43.6223 72.5799-47.638Q72.5799-53.0738 68.3136-56.1812Q64.0473-59.2886 58.0491-59.2886Q52.0184-59.2886 48.2633-56.6194Q44.5081-53.9501 43.684-50.4128Q43.3641-49.4288 43.3641-48.2422Q43.3641-46.9113 44.1923-46.2281Q45.0206-45.545 46.0046-45.545Q47.051-45.545 47.7476-45.9867Q48.4442-46.4285 48.8675-47.2469L49.4507-48.1956Q50.2945-50.6624 52.4972-52.3824Q54.7-54.1024 57.8268-54.1024Q61.5936-54.1024 63.8183-52.1836Q66.043-50.2648 66.043-47.2911Q66.043-44.7691 64.5434-43.0493Q63.0439-41.3295 59.6907-39.0327Q56.9011-37.0474 55.3159-34.8951Q53.7308-32.7428 53.7308-29.4209Q53.7308-29.1206 53.7308-28.8636Q53.7308-28.6065 53.7308-28.336Q53.7308-25.2806 56.7564-25.2806ZM56.6615-11.3686Q58.5206-11.3686 59.8622-12.6599Q61.2038-13.9512 61.2038-15.7806Q61.2038-17.6425 59.8622-18.9027Q58.5206-20.1628 56.6615-20.1628Q54.8024-20.1628 53.4609-18.8864Q52.1193-17.6099 52.1193-15.7806Q52.1193-13.9838 53.4609-12.6762Q54.8024-11.3686 56.6615-11.3686Z"/>
  </g>
  <g id="Thin-M" transform="matrix(1 0 0 1 799.828 1126)">
   <path d="M56.569 12.5857Q66.479 12.5857 75.1158 8.87683Q83.7526 5.16794 90.3751-1.45867Q96.9976-8.08529 100.738-16.7221Q104.478-25.3589 104.478-35.2606Q104.478-45.1624 100.738-53.7992Q96.9976-62.436 90.371-69.0626Q83.7444-75.6892 75.1076-79.3981Q66.4707-83.107 56.5608-83.107Q46.7131-83.107 38.0493-79.3981Q29.3854-75.6892 22.7941-69.0626Q16.2027-62.436 12.4627-53.7992Q8.72266-45.1624 8.72266-35.2606Q8.72266-25.3589 12.4627-16.7221Q16.2027-8.08529 22.7982-1.45867Q29.3936 5.16794 38.0575 8.87683Q46.7214 12.5857 56.569 12.5857ZM56.569 8.84771Q47.4466 8.84771 39.4416 5.43093Q31.4366 2.01415 25.3736-4.05293Q19.3107-10.12 15.8668-18.1291Q12.423-26.1383 12.423-35.2606Q12.423-44.383 15.8627-52.3921Q19.3024-60.4013 25.3654-66.4684Q31.4284-72.5354 39.4334-75.9522Q47.4384-79.369 56.5608-79.369Q65.6914-79.369 73.7234-75.9522Q81.7555-72.5354 87.7955-66.4684Q93.8356-60.4013 97.2835-52.3921Q100.731-44.383 100.731-35.2606Q100.731-26.1383 97.3147-18.1291Q93.8979-10.12 87.8349-4.05293Q81.7719 2.01415 73.7628 5.43093Q65.7537 8.84771 56.569 8.84771ZM55.7344-25.4753Q56.5548-25.4753 57.0356-26.006Q57.5164-26.5368 57.5164-27.2914Q57.5164-27.7323 57.5164-28.0961Q57.5164-28.46 57.5164-28.9091Q57.5164-31.165 58.7084-32.8184Q59.9004-34.4719 62.7629-36.4162Q66.5765-39.0378 68.2763-41.4882Q69.9761-43.9387 69.9761-47.4676Q69.9761-52.1004 66.2208-55.074Q62.4656-58.0476 56.7594-58.0476Q51.0451-58.0476 47.5819-55.208Q44.1187-52.3684 43.538-48.5878Q43.3641-47.9201 43.3641-46.7821Q43.3641-45.8406 43.876-45.3886Q44.3879-44.9366 45.0556-44.9366Q45.7856-44.9366 46.2875-45.281Q46.7895-45.6255 46.8964-46.2979L47.0903-47.0032Q47.3501-49.908 49.9787-52.3215Q52.6073-54.735 56.6101-54.735Q60.961-54.735 63.502-52.5973Q66.043-50.4595 66.043-47.1937Q66.043-44.6475 64.6164-42.7695Q63.1899-40.8915 59.642-38.4487Q56.6091-36.3174 55.2307-34.2137Q53.8524-32.1101 53.8524-29.1289Q53.8524-28.634 53.8524-28.2431Q53.8524-27.8522 53.8524-27.4113Q53.8524-25.4753 55.7344-25.4753ZM55.6638-12.4149Q57.1579-12.4149 58.1953-13.4629Q59.2327-14.5109 59.2327-15.9509Q59.2327-17.3992 58.1953-18.416Q57.1579-19.4328 55.6638-19.4328Q54.1697-19.4328 53.1323-18.4119Q52.0949-17.3909 52.0949-15.9509Q52.0949-14.5191 53.1323-13.467Q54.1697-12.4149 55.6638-12.4149Z"/>
  </g>
  <g id="Ultralight-M" transform="matrix(1 0 0 1 503.679 1126)">
   <path d="M56.0081 12.0248Q65.8184 12.0248 74.3492 8.36581Q82.8801 4.70678 89.4278-1.83882Q95.9756-8.38442 99.6657-16.9153Q103.356-25.4462 103.356-35.2606Q103.356-45.0751 99.6657-53.606Q95.9756-62.1369 89.43-68.6825Q82.8844-75.2281 74.3535-78.8871Q65.8226-82.5461 56.0124-82.5461Q46.2644-82.5461 37.7003-78.8871Q29.1361-75.2281 22.6196-68.6825Q16.103-62.1369 12.4128-53.606Q8.72266-45.0751 8.72266-35.2606Q8.72266-25.4462 12.4128-16.9153Q16.103-8.38442 22.6175-1.83882Q29.1319 4.70678 37.6961 8.36581Q46.2602 12.0248 56.0081 12.0248ZM56.0081 9.60801Q46.7362 9.60801 38.5878 6.12891Q30.4395 2.64981 24.2644-3.52322Q18.0892-9.69625 14.5768-17.8425Q11.0645-25.9887 11.0645-35.2606Q11.0645-44.5326 14.579-52.6788Q18.0934-60.825 24.2686-66.9981Q30.4437-73.1711 38.5921-76.6502Q46.7404-80.1293 56.0124-80.1293Q65.2801-80.1293 73.4617-76.6502Q81.6433-73.1711 87.7831-66.9981Q93.9228-60.825 97.4331-52.6788Q100.943-44.5326 100.943-35.2606Q100.943-25.9887 97.4642-17.8425Q93.9851-9.69625 87.81-3.52322Q81.6348 2.64981 73.4886 6.12891Q65.3424 9.60801 56.0081 9.60801ZM55.2109-25.575Q55.7322-25.575 56.051-25.9624Q56.3697-26.3498 56.3697-26.9051Q56.3697-27.4332 56.3697-27.8593Q56.3697-28.2855 56.3697-28.8094Q56.3697-31.1401 57.5493-32.8371Q58.7288-34.5342 61.691-36.5534Q65.5794-39.2621 67.1109-41.6814Q68.6425-44.1007 68.6425-47.3804Q68.6425-51.6019 65.1489-54.5069Q61.6554-57.4119 56.0988-57.4119Q50.5465-57.4119 47.2329-54.4851Q43.9193-51.5582 43.4632-47.653Q43.3641-47.1473 43.3641-46.0343Q43.3641-45.2922 43.714-44.9586Q44.0638-44.625 44.5695-44.625Q45.1375-44.625 45.5397-44.9196Q45.9419-45.2142 45.8868-45.8118L45.8813-46.3925Q45.8419-49.5217 48.6887-52.2904Q51.5354-55.0591 55.9869-55.0591Q60.6369-55.0591 63.3399-52.8091Q66.043-50.5592 66.043-47.1439Q66.043-44.5852 64.6538-42.6262Q63.2647-40.6672 59.6171-38.1496Q56.4595-35.9435 55.1871-33.8647Q53.9147-31.786 53.9147-28.9793Q53.9147-28.3847 53.9147-27.9252Q53.9147-27.4658 53.9147-26.9377Q53.9147-25.575 55.2109-25.575ZM55.1528-12.9509Q56.46-12.9509 57.3416-13.8742Q58.2232-14.7976 58.2232-16.0382Q58.2232-17.2745 57.3416-18.1667Q56.46-19.0589 55.1528-19.0589Q53.8457-19.0589 52.9641-18.1688Q52.0825-17.2788 52.0825-16.0382Q52.0825-14.7933 52.9641-13.8721Q53.8457-12.9509 55.1528-12.9509Z"/>
  </g>
  <g id="Black-S" transform="matrix(1 0 0 1 2884.57 696)">
   <path d="M48.8281 6.78711Q57.5195 6.78711 65.1123 3.51562Q72.7051 0.244141 78.4912-5.54199Q84.2773-11.3281 87.5488-18.9209Q90.8203-26.5137 90.8203-35.2051Q90.8203-43.8965 87.5488-51.4893Q84.2773-59.082 78.4912-64.8682Q72.7051-70.6543 65.1123-73.9258Q57.5195-77.1973 48.8281-77.1973Q40.1367-77.1973 32.5439-73.9258Q24.9512-70.6543 19.165-64.8682Q13.3789-59.082 10.1074-51.4893Q6.83594-43.8965 6.83594-35.2051Q6.83594-26.5137 10.1074-18.9209Q13.3789-11.3281 19.165-5.54199Q24.9512 0.244141 32.5439 3.51562Q40.1367 6.78711 48.8281 6.78711ZM48.8281-7.37305Q43.0664-7.37305 38.0127-9.5459Q32.959-11.7188 29.1504-15.5273Q25.3418-19.3359 23.1689-24.3896Q20.9961-29.4434 20.9961-35.2051Q20.9961-40.9668 23.1689-46.0205Q25.3418-51.0742 29.1504-54.8828Q32.959-58.6914 38.0127-60.8643Q43.0664-63.0371 48.8281-63.0371Q54.5898-63.0371 59.6436-60.8643Q64.6973-58.6914 68.5059-54.8828Q72.3145-51.0742 74.4873-46.0205Q76.6602-40.9668 76.6602-35.2051Q76.6602-29.4434 74.4873-24.3896Q72.3145-19.3359 68.5059-15.5273Q64.6973-11.7188 59.6436-9.5459Q54.5898-7.37305 48.8281-7.37305ZM47.6562-29.0527Q49.8535-29.0527 51.416-29.9072Q52.9785-30.7617 53.418-32.1289Q53.4668-32.2266 53.4912-32.373Q53.5156-32.5195 53.5645-32.5684Q54.0527-33.4961 55.249-34.3262Q56.4453-35.1562 57.666-35.8887Q60.791-37.793 61.9873-39.5996Q63.1836-41.4062 63.1836-44.2383Q63.1836-49.0234 59.1309-52.1484Q55.0781-55.2734 48.9258-55.2734Q44.0918-55.2734 40.5518-53.5889Q37.0117-51.9043 35.5957-48.9746Q35.0098-47.7539 35.0098-46.4355Q35.0098-44.6289 36.3037-43.1885Q37.5977-41.748 39.8438-41.748Q41.2109-41.748 42.334-42.1875Q43.457-42.627 44.2383-43.6523L44.3848-43.8477Q45.166-44.873 45.8984-45.1904Q46.6309-45.5078 47.4121-45.5078Q48.3398-45.5078 49.0479-44.8486Q49.7559-44.1895 49.7559-43.457Q49.7559-42.2363 48.6328-41.4307Q47.5098-40.625 45.459-39.209Q43.5059-37.8418 42.3584-36.5479Q41.2109-35.2539 41.2109-33.6914Q41.2109-33.6426 41.2109-33.6426Q41.2109-33.6426 41.2109-33.5938Q41.2109-29.0527 47.6562-29.0527ZM47.7051-15.8203Q50.4395-15.8203 52.1484-17.1875Q53.8574-18.5547 53.8574-21.0938Q53.8574-23.584 52.1484-24.9756Q50.4395-26.3672 47.7051-26.3672Q45.0195-26.3672 43.2373-25Q41.4551-23.6328 41.4551-21.0938Q41.4551-18.5547 43.2373-17.1875Q45.0195-15.8203 47.7051-15.8203Z"/>
  </g>
  <g id="Heavy-S" transform="matrix(1 0 0 1 2588.47 696)">
   <path d="M48.2173 6.16479Q56.7704 6.16479 64.2537 2.9394Q71.737-0.285985 77.4425-5.99721Q83.1479-11.7084 86.3791-19.1917Q89.6102-26.675 89.6102-35.2166Q89.6102-43.7582 86.3791-51.2415Q83.1479-58.7248 77.4367-64.436Q71.7255-70.1472 64.2422-73.3726Q56.7589-76.598 48.2058-76.598Q39.6642-76.598 32.1809-73.3726Q24.6976-70.1472 18.9979-64.436Q13.2982-58.7248 10.0671-51.2415Q6.83594-43.7582 6.83594-35.2166Q6.83594-26.675 10.0671-19.1917Q13.2982-11.7084 19.0037-5.99721Q24.7092-0.285985 32.1924 2.9394Q39.6757 6.16479 48.2173 6.16479ZM48.2173-6.40499Q42.2482-6.40499 37.0216-8.64699Q31.795-10.889 27.8539-14.8359Q23.9128-18.7828 21.6708-24.0151Q19.4288-29.2474 19.4288-35.2166Q19.4288-41.1858 21.665-46.4181Q23.9012-51.6504 27.8424-55.5973Q31.7835-59.5442 37.0101-61.7862Q42.2366-64.0282 48.2058-64.0282Q54.1865-64.0282 59.4131-61.7862Q64.6396-59.5442 68.5865-55.5973Q72.5334-51.6504 74.7812-46.4181Q77.0289-41.1858 77.0289-35.2166Q77.0289-29.2474 74.7869-24.0151Q72.5449-18.7828 68.6038-14.8359Q64.6627-10.889 59.4304-8.64699Q54.198-6.40499 48.2173-6.40499ZM47.1376-28.6263Q49.2081-28.6263 50.6208-29.4923Q52.0335-30.3584 52.3692-31.7025Q52.4065-31.7886 52.4252-31.9178Q52.4438-32.047 52.4812-32.1074Q52.8542-33.1734 53.9986-34.0784Q55.143-34.9834 56.5251-35.8426Q59.5579-37.7123 60.9213-39.5708Q62.2847-41.4293 62.2847-44.4457Q62.2847-49.2885 58.2838-52.281Q54.2829-55.2734 48.4072-55.2734Q43.5271-55.2734 40.062-53.5312Q36.5968-51.7891 35.3076-48.9516Q34.7678-47.7654 34.7678-46.5277Q34.7678-44.8133 35.981-43.5342Q37.1943-42.2551 39.1638-42.2551Q40.4734-42.2551 41.5042-42.6946Q42.5351-43.134 43.2818-44.1018L43.5896-44.4815Q44.4745-45.6221 45.3453-46.026Q46.216-46.4298 47.1931-46.4298Q48.4666-46.4298 49.3475-45.6208Q50.2284-44.8118 50.2284-43.7682Q50.2284-42.3746 49.0765-41.4768Q47.9246-40.5789 45.7817-39.1053Q43.8285-37.7266 42.6119-36.3289Q41.3953-34.9312 41.3953-33.046Q41.3953-32.9972 41.3953-32.9799Q41.3953-32.9626 41.3953-32.9138Q41.3953-28.6263 47.1376-28.6263ZM47.1519-15.7512Q49.6673-15.7512 51.2899-17.0895Q52.9124-18.4279 52.9124-20.7941Q52.9124-23.1345 51.2899-24.4858Q49.6673-25.8371 47.1519-25.8371Q44.6738-25.8371 42.9953-24.4987Q41.3168-23.1603 41.3168-20.7941Q41.3168-18.4394 42.9953-17.0953Q44.6738-15.7512 47.1519-15.7512Z"/>
  </g>
  <g id="Bold-S" transform="matrix(1 0 0 1 2292.43 696)">
   <path d="M47.5342 5.46875Q55.9326 5.46875 63.2935 2.29492Q70.6543-0.878906 76.2695-6.50635Q81.8848-12.1338 85.0708-19.4946Q88.2568-26.8555 88.2568-35.2295Q88.2568-43.6035 85.0708-50.9644Q81.8848-58.3252 76.2573-63.9526Q70.6299-69.5801 63.269-72.7539Q55.9082-75.9277 47.5098-75.9277Q39.1357-75.9277 31.7749-72.7539Q24.4141-69.5801 18.811-63.9526Q13.208-58.3252 10.022-50.9644Q6.83594-43.6035 6.83594-35.2295Q6.83594-26.8555 10.022-19.4946Q13.208-12.1338 18.8232-6.50635Q24.4385-0.878906 31.7993 2.29492Q39.1602 5.46875 47.5342 5.46875ZM47.5342-5.32227Q41.333-5.32227 35.9131-7.6416Q30.4932-9.96094 26.4038-14.0625Q22.3145-18.1641 19.9951-23.5962Q17.6758-29.0283 17.6758-35.2295Q17.6758-41.4307 19.9829-46.8628Q22.29-52.2949 26.3794-56.3965Q30.4688-60.498 35.8887-62.8174Q41.3086-65.1367 47.5098-65.1367Q53.7354-65.1367 59.1553-62.8174Q64.5752-60.498 68.6768-56.3965Q72.7783-52.2949 75.1099-46.8628Q77.4414-41.4307 77.4414-35.2295Q77.4414-29.0283 75.1221-23.5962Q72.8027-18.1641 68.7134-14.0625Q64.624-9.96094 59.1919-7.6416Q53.7598-5.32227 47.5342-5.32227ZM46.5576-28.1494Q48.4863-28.1494 49.7314-29.0283Q50.9766-29.9072 51.1963-31.2256Q51.2207-31.2988 51.2329-31.4087Q51.2451-31.5186 51.2695-31.5918Q51.5137-32.8125 52.6001-33.8013Q53.6865-34.79 55.249-35.791Q58.1787-37.6221 59.729-39.5386Q61.2793-41.4551 61.2793-44.6777Q61.2793-49.585 57.3364-52.4292Q53.3936-55.2734 47.8271-55.2734Q42.8955-55.2734 39.5142-53.4668Q36.1328-51.6602 34.9854-48.9258Q34.4971-47.7783 34.4971-46.6309Q34.4971-45.0195 35.6201-43.9209Q36.7432-42.8223 38.4033-42.8223Q39.6484-42.8223 40.5762-43.2617Q41.5039-43.7012 42.2119-44.6045L42.7002-45.1904Q43.7012-46.46 44.7266-46.9604Q45.752-47.4609 46.9482-47.4609Q48.6084-47.4609 49.6826-46.4844Q50.7568-45.5078 50.7568-44.1162Q50.7568-42.5293 49.5728-41.5283Q48.3887-40.5273 46.1426-38.9893Q44.1895-37.5977 42.8955-36.084Q41.6016-34.5703 41.6016-32.3242Q41.6016-32.2754 41.6016-32.2388Q41.6016-32.2021 41.6016-32.1533Q41.6016-28.1494 46.5576-28.1494ZM46.5332-15.6738Q48.8037-15.6738 50.3296-16.98Q51.8555-18.2861 51.8555-20.459Q51.8555-22.6318 50.3296-23.938Q48.8037-25.2441 46.5332-25.2441Q44.2871-25.2441 42.7246-23.938Q41.1621-22.6318 41.1621-20.459Q41.1621-18.3105 42.7246-16.9922Q44.2871-15.6738 46.5332-15.6738Z"/>
  </g>
  <g id="Semibold-S" transform="matrix(1 0 0 1 1996.19 696)">
   <path d="M47.0632 4.98887Q55.355 4.98887 62.6314 1.85059Q69.9078-1.2877 75.4608-6.85737Q81.0139-12.4271 84.1688-19.7035Q87.3237-26.9799 87.3237-35.2384Q87.3237-43.4969 84.1688-50.7733Q81.0139-58.0497 75.4442-63.6194Q69.8745-69.1891 62.5981-72.3273Q55.3217-75.4656 47.0299-75.4656Q38.7714-75.4656 31.495-72.3273Q24.2186-69.1891 18.6822-63.6194Q13.1458-58.0497 9.99087-50.7733Q6.83594-43.4969 6.83594-35.2384Q6.83594-26.9799 9.99087-19.7035Q13.1458-12.4271 18.6988-6.85737Q24.2519-1.2877 31.5283 1.85059Q38.8047 4.98887 47.0632 4.98887ZM47.0632-4.57578Q40.7021-4.57578 35.1488-6.94844Q29.5956-9.32109 25.4041-13.5293Q21.2125-17.7375 18.8398-23.3074Q16.4672-28.8772 16.4672-35.2384Q16.4672-41.5995 18.8232-47.1694Q21.1792-52.7393 25.3708-56.9475Q29.5623-61.1557 35.1155-63.5283Q40.6688-65.901 47.0299-65.901Q53.4243-65.901 58.9775-63.5283Q64.5308-61.1557 68.739-56.9475Q72.9472-52.7393 75.3365-47.1694Q77.7258-41.5995 77.7258-35.2384Q77.7258-28.8772 75.3531-23.3074Q72.9805-17.7375 68.7889-13.5293Q64.5974-9.32109 59.0275-6.94844Q53.4576-4.57578 47.0632-4.57578ZM46.1577-27.8206Q47.9887-27.8206 49.1183-28.7084Q50.2479-29.5962 50.3876-30.8968Q50.4031-30.9611 50.4109-31.0577Q50.4187-31.1542 50.4342-31.2363Q50.5895-32.5637 51.6359-33.6102Q52.6823-34.6567 54.3692-35.7555Q57.2278-37.5599 58.907-39.5164Q60.5861-41.4729 60.5861-44.8377Q60.5861-49.7894 56.6833-52.5314Q52.7804-55.2734 47.4272-55.2734Q42.4601-55.2734 39.1365-53.4224Q35.8129-51.5713 34.7632-48.908Q34.3104-47.7872 34.3104-46.702Q34.3104-45.1617 35.3713-44.1875Q36.4321-43.2133 37.879-43.2133Q39.0797-43.2133 39.9363-43.6527Q40.793-44.0922 41.4743-44.9511L42.087-45.6792Q43.168-47.0376 44.3-47.6047Q45.432-48.1719 46.7794-48.1719Q48.7062-48.1719 49.9137-47.0798Q51.1212-45.9877 51.1212-44.3562Q51.1212-42.6359 49.9149-41.5639Q48.7086-40.4918 46.3914-38.9093Q44.4383-37.5088 43.091-35.9151Q41.7437-34.3215 41.7437-31.8266Q41.7437-31.7777 41.7437-31.7278Q41.7437-31.6778 41.7437-31.629Q41.7437-27.8206 46.1577-27.8206ZM46.1066-15.6205Q48.2083-15.6205 49.6675-16.9044Q51.1268-18.1884 51.1268-20.2279Q51.1268-22.2853 49.6675-23.5603Q48.2083-24.8354 46.1066-24.8354Q44.0205-24.8354 42.538-23.5514Q41.0555-22.2675 41.0555-20.2279Q41.0555-18.2217 42.538-16.9211Q44.0205-15.6205 46.1066-15.6205Z"/>
  </g>
  <g id="Medium-S" transform="matrix(1 0 0 1 1699.83 696)">
   <path d="M46.7061 4.625Q54.917 4.625 62.1294 1.51367Q69.3418-1.59766 74.8477-7.12354Q80.3535-12.6494 83.4849-19.8618Q86.6162-27.0742 86.6162-35.2451Q86.6162-43.416 83.4849-50.6284Q80.3535-57.8408 74.8276-63.3667Q69.3018-68.8926 62.0894-72.0039Q54.877-75.1152 46.666-75.1152Q38.4951-75.1152 31.2827-72.0039Q24.0703-68.8926 18.5845-63.3667Q13.0986-57.8408 9.96729-50.6284Q6.83594-43.416 6.83594-35.2451Q6.83594-27.0742 9.96729-19.8618Q13.0986-12.6494 18.6045-7.12354Q24.1104-1.59766 31.3228 1.51367Q38.5352 4.625 46.7061 4.625ZM46.7061-4.00977Q40.2236-4.00977 34.5693-6.42285Q28.915-8.83594 24.646-13.125Q20.377-17.4141 17.9639-23.0884Q15.5508-28.7627 15.5508-35.2451Q15.5508-41.7275 17.9438-47.4019Q20.3369-53.0762 24.606-57.3652Q28.875-61.6543 34.5293-64.0674Q40.1836-66.4805 46.666-66.4805Q53.1885-66.4805 58.8428-64.0674Q64.4971-61.6543 68.7861-57.3652Q73.0752-53.0762 75.5083-47.4019Q77.9414-41.7275 77.9414-35.2451Q77.9414-28.7627 75.5283-23.0884Q73.1152-17.4141 68.8462-13.125Q64.5771-8.83594 58.9028-6.42285Q53.2285-4.00977 46.7061-4.00977ZM45.8545-27.5713Q47.6113-27.5713 48.6533-28.4658Q49.6953-29.3604 49.7744-30.6475Q49.7832-30.7051 49.7876-30.7915Q49.792-30.8779 49.8008-30.9668Q49.8887-32.375 50.9048-33.4653Q51.9209-34.5557 53.7021-35.7285Q56.5068-37.5127 58.2837-39.4995Q60.0605-41.4863 60.0605-44.959Q60.0605-49.9443 56.188-52.6089Q52.3154-55.2734 47.124-55.2734Q42.1299-55.2734 38.8501-53.3887Q35.5703-51.5039 34.5947-48.8945Q34.1689-47.7939 34.1689-46.7559Q34.1689-45.2695 35.1826-44.3896Q36.1963-43.5098 37.4814-43.5098Q38.6484-43.5098 39.4512-43.9492Q40.2539-44.3887 40.915-45.2139L41.6221-46.0498Q42.7637-47.4756 43.9766-48.0933Q45.1895-48.7109 46.6514-48.7109Q48.7803-48.7109 50.0889-47.5312Q51.3975-46.3516 51.3975-44.5381Q51.3975-42.7168 50.1743-41.5908Q48.9512-40.4648 46.5801-38.8486Q44.627-37.4414 43.2393-35.7871Q41.8516-34.1328 41.8516-31.4492Q41.8516-31.4004 41.8516-31.3403Q41.8516-31.2803 41.8516-31.2314Q41.8516-27.5713 45.8545-27.5713ZM45.7832-15.5801Q47.7568-15.5801 49.1655-16.8472Q50.5742-18.1143 50.5742-20.0527Q50.5742-22.0225 49.1655-23.2739Q47.7568-24.5254 45.7832-24.5254Q43.8184-24.5254 42.3965-23.2583Q40.9746-21.9912 40.9746-20.0527Q40.9746-18.1543 42.3965-16.8672Q43.8184-15.5801 45.7832-15.5801Z"/>
  </g>
  <g id="Regular-S" transform="matrix(1 0 0 1 1403.58 696)">
   <path d="M46.2402 4.15039Q54.3457 4.15039 61.4746 1.07422Q68.6035-2.00195 74.0479-7.4707Q79.4922-12.9395 82.5928-20.0684Q85.6934-27.1973 85.6934-35.2539Q85.6934-43.3105 82.5928-50.4395Q79.4922-57.5684 74.0234-63.0371Q68.5547-68.5059 61.4258-71.582Q54.2969-74.6582 46.1914-74.6582Q38.1348-74.6582 31.0059-71.582Q23.877-68.5059 18.457-63.0371Q13.0371-57.5684 9.93652-50.4395Q6.83594-43.3105 6.83594-35.2539Q6.83594-27.1973 9.93652-20.0684Q13.0371-12.9395 18.4814-7.4707Q23.9258-2.00195 31.0547 1.07422Q38.1836 4.15039 46.2402 4.15039ZM46.2402-3.27148Q39.5996-3.27148 33.8135-5.7373Q28.0273-8.20312 23.6572-12.5977Q19.2871-16.9922 16.8213-22.8027Q14.3555-28.6133 14.3555-35.2539Q14.3555-41.8945 16.7969-47.7051Q19.2383-53.5156 23.6084-57.9102Q27.9785-62.3047 33.7646-64.7705Q39.5508-67.2363 46.1914-67.2363Q52.8809-67.2363 58.667-64.7705Q64.4531-62.3047 68.8477-57.9102Q73.2422-53.5156 75.7324-47.7051Q78.2227-41.8945 78.2227-35.2539Q78.2227-28.6133 75.7568-22.8027Q73.291-16.9922 68.9209-12.5977Q64.5508-8.20312 58.7402-5.7373Q52.9297-3.27148 46.2402-3.27148ZM45.459-27.2461Q47.1191-27.2461 48.0469-28.1494Q48.9746-29.0527 48.9746-30.3223Q48.9746-30.3711 48.9746-30.4443Q48.9746-30.5176 48.9746-30.6152Q48.9746-32.1289 49.9512-33.2764Q50.9277-34.4238 52.832-35.6934Q55.5664-37.4512 57.4707-39.4775Q59.375-41.5039 59.375-45.1172Q59.375-50.1465 55.542-52.71Q51.709-55.2734 46.7285-55.2734Q41.6992-55.2734 38.4766-53.3447Q35.2539-51.416 34.375-48.877Q33.9844-47.8027 33.9844-46.8262Q33.9844-45.4102 34.9365-44.6533Q35.8887-43.8965 36.9629-43.8965Q38.0859-43.8965 38.8184-44.3359Q39.5508-44.7754 40.1855-45.5566L41.0156-46.5332Q42.2363-48.0469 43.5547-48.7305Q44.873-49.4141 46.4844-49.4141Q48.877-49.4141 50.3174-48.1201Q51.7578-46.8262 51.7578-44.7754Q51.7578-42.8223 50.5127-41.626Q49.2676-40.4297 46.8262-38.7695Q44.873-37.3535 43.4326-35.6201Q41.9922-33.8867 41.9922-30.957Q41.9922-30.9082 41.9922-30.835Q41.9922-30.7617 41.9922-30.7129Q41.9922-27.2461 45.459-27.2461ZM45.3613-15.5273Q47.168-15.5273 48.5107-16.7725Q49.8535-18.0176 49.8535-19.8242Q49.8535-21.6797 48.5107-22.9004Q47.168-24.1211 45.3613-24.1211Q43.5547-24.1211 42.2119-22.876Q40.8691-21.6309 40.8691-19.8242Q40.8691-18.0664 42.2119-16.7969Q43.5547-15.5273 45.3613-15.5273Z"/>
  </g>
  <g id="Light-S" transform="matrix(1 0 0 1 1107.6 696)">
   <path d="M45.5078 3.41797Q53.4831 3.41797 60.4736 0.406901Q67.4642-2.60417 72.8109-7.96712Q78.1576-13.3301 81.193-20.3206Q84.2285-27.3112 84.2285-35.2539Q84.2285-43.1966 81.193-50.1872Q78.1576-57.1777 72.7946-62.5407Q67.4316-67.9036 60.4411-70.9147Q53.4505-73.9258 45.4753-73.9258Q37.5488-73.9258 30.5501-70.9147Q23.5514-67.9036 18.2292-62.5407Q12.9069-57.1777 9.87142-50.1872Q6.83594-43.1966 6.83594-35.2539Q6.83594-27.3112 9.87142-20.3206Q12.9069-13.3301 18.2454-7.96712Q23.584-2.60417 30.5827 0.406901Q37.5814 3.41797 45.5078 3.41797ZM45.5078-2.27865Q38.6719-2.27865 32.6986-4.82585Q26.7253-7.37305 22.2087-11.9059Q17.6921-16.4388 15.1367-22.4284Q12.5814-28.418 12.5814-35.2539Q12.5814-42.0898 15.1204-48.0794Q17.6595-54.069 22.1761-58.6019Q26.6927-63.1348 32.666-65.682Q38.6393-68.2292 45.4753-68.2292Q52.3438-68.2292 58.3252-65.682Q64.3066-63.1348 68.8314-58.6019Q73.3561-54.069 75.9277-48.0794Q78.4993-42.0898 78.4993-35.2539Q78.4993-28.418 75.9521-22.4284Q73.4049-16.4388 68.8883-11.9059Q64.3717-7.37305 58.3822-4.82585Q52.3926-2.27865 45.5078-2.27865ZM44.7754-27.3763Q46.0449-27.3763 46.7611-28.0924Q47.4772-28.8086 47.4772-29.8177Q47.4772-29.9805 47.4772-30.1351Q47.4772-30.2897 47.4772-30.485Q47.4772-32.0964 48.4375-33.3008Q49.3978-34.5052 51.4323-35.8724Q54.2643-37.7441 55.9489-39.7298Q57.6335-41.7155 57.6335-45.0033Q57.6335-49.4954 54.1423-51.9694Q50.651-54.4434 45.8659-54.4434Q41.0482-54.4434 38.0208-52.4007Q34.9935-50.3581 34.2773-47.6562Q33.9844-46.7936 33.9844-45.8496Q33.9844-44.694 34.7249-44.0918Q35.4655-43.4896 36.3281-43.4896Q37.2396-43.4896 37.8418-43.8639Q38.444-44.2383 38.8672-44.9219L39.4368-45.7357Q40.2669-47.5423 41.8701-48.6898Q43.4733-49.8372 45.6706-49.8372Q48.4538-49.8372 50.1058-48.3968Q51.7578-46.9564 51.7578-44.7103Q51.7578-42.7409 50.5615-41.4388Q49.3652-40.1367 46.7936-38.3789Q44.6777-36.8652 43.3757-35.1644Q42.0736-33.4635 42.0736-30.7617Q42.0736-30.5827 42.0736-30.4199Q42.0736-30.2572 42.0736-30.0944Q42.0736-27.3763 44.7754-27.3763ZM44.694-16.2272Q46.2565-16.2272 47.3958-17.3096Q48.5352-18.3919 48.5352-19.9382Q48.5352-21.5169 47.3958-22.5749Q46.2565-23.6328 44.694-23.6328Q43.1315-23.6328 41.9922-22.5586Q40.8529-21.4844 40.8529-19.9382Q40.8529-18.4245 41.9922-17.3258Q43.1315-16.2272 44.694-16.2272Z"/>
  </g>
  <g id="Thin-S" transform="matrix(1 0 0 1 811.863 696)">
   <path d="M44.5391 2.44928Q52.3422 2.44928 59.1498-0.47568Q65.9573-3.40064 71.1749-8.62368Q76.3924-13.8467 79.3418-20.6543Q82.2911-27.4619 82.2911-35.2539Q82.2911-43.0459 79.3418-49.8535Q76.3924-56.6611 71.1694-61.8841Q65.9463-67.1072 59.1387-70.0321Q52.3311-72.9571 44.5281-72.9571Q36.7739-72.9571 29.9474-70.0321Q23.1209-67.1072 17.9278-61.8841Q12.7347-56.6611 9.78531-49.8535Q6.83594-43.0459 6.83594-35.2539Q6.83594-27.4619 9.78531-20.6543Q12.7347-13.8467 17.9333-8.62368Q23.1319-3.40064 29.9584-0.47568Q36.7849 2.44928 44.5391 2.44928ZM44.5391-0.965537Q37.4449-0.965537 31.224-3.62037Q25.0032-6.2752 20.2928-10.9911Q15.5825-15.7069 12.9087-21.9333Q10.235-28.1597 10.235-35.2539Q10.235-42.3482 12.9032-48.5745Q15.5714-54.8009 20.2818-59.5168Q24.9921-64.2326 31.213-66.8874Q37.4338-69.5423 44.5281-69.5423Q51.6334-69.5423 57.8731-66.8874Q64.1129-64.2326 68.8099-59.5168Q73.5068-54.8009 76.1861-48.5745Q78.8653-42.3482 78.8653-35.2539Q78.8653-28.1597 76.2105-21.9333Q73.5556-15.7069 68.8453-10.9911Q64.135-6.2752 57.9086-3.62037Q51.6822-0.965537 44.5391-0.965537ZM43.8713-27.5485Q44.6242-27.5485 45.0605-28.0171Q45.4968-28.4857 45.4968-29.1504Q45.4968-29.4638 45.4968-29.7261Q45.4968-29.9883 45.4968-30.3128Q45.4968-32.0533 46.4355-33.3331Q47.3743-34.6128 49.581-36.1092Q52.5422-38.1316 53.9362-40.0635Q55.3301-41.9953 55.3301-44.8526Q55.3301-48.6344 52.291-50.99Q49.2518-53.3455 44.725-53.3455Q40.1871-53.3455 37.4181-51.1522Q34.6491-48.9589 34.1482-46.0418Q33.9844-45.459 33.9844-44.558Q33.9844-43.7468 34.4451-43.3491Q34.9058-42.9514 35.4886-42.9514Q36.1202-42.9514 36.5502-43.2397Q36.9802-43.5279 37.1236-44.0823L37.3488-44.6809Q37.6622-46.875 39.6421-48.636Q41.622-50.3969 44.5943-50.3969Q47.8941-50.3969 49.826-48.7628Q51.7578-47.1286 51.7578-44.6242Q51.7578-42.6333 50.6261-41.1912Q49.4944-39.7492 46.7506-37.8623Q44.4194-36.2194 43.3003-34.5616Q42.1812-32.9039 42.1812-30.5034Q42.1812-30.1522 42.1812-29.871Q42.1812-29.5898 42.1812-29.2764Q42.1812-27.5485 43.8713-27.5485ZM43.8114-17.1528Q45.051-17.1528 45.9213-18.0199Q46.7915-18.887 46.7915-20.0888Q46.7915-21.3017 45.9213-22.1443Q45.051-22.987 43.8114-22.987Q42.5718-22.987 41.7016-22.1388Q40.8313-21.2906 40.8313-20.0888Q40.8313-18.8981 41.7016-18.0255Q42.5718-17.1528 43.8114-17.1528Z"/>
  </g>
  <g id="Ultralight-S" transform="matrix(1 0 0 1 515.649 696)">
   <path d="M44.043 1.95312Q51.7578 1.95312 58.4717-0.927734Q65.1855-3.80859 70.3369-8.95996Q75.4883-14.1113 78.3936-20.8252Q81.2988-27.5391 81.2988-35.2539Q81.2988-42.9688 78.3936-49.6826Q75.4883-56.3965 70.3369-61.5479Q65.1855-66.6992 58.4717-69.5801Q51.7578-72.4609 44.043-72.4609Q36.377-72.4609 29.6387-69.5801Q22.9004-66.6992 17.7734-61.5479Q12.6465-56.3965 9.74121-49.6826Q6.83594-42.9688 6.83594-35.2539Q6.83594-27.5391 9.74121-20.8252Q12.6465-14.1113 17.7734-8.95996Q22.9004-3.80859 29.6387-0.927734Q36.377 1.95312 44.043 1.95312ZM44.043-0.292969Q36.8164-0.292969 30.4688-3.00293Q24.1211-5.71289 19.3115-10.5225Q14.502-15.332 11.7676-21.6797Q9.0332-28.0273 9.0332-35.2539Q9.0332-42.4805 11.7676-48.8281Q14.502-55.1758 19.3115-59.9854Q24.1211-64.7949 30.4688-67.5049Q36.8164-70.2148 44.043-70.2148Q51.2695-70.2148 57.6416-67.5049Q64.0137-64.7949 68.7988-59.9854Q73.584-55.1758 76.3184-48.8281Q79.0527-42.4805 79.0527-35.2539Q79.0527-28.0273 76.3428-21.6797Q73.6328-15.332 68.8232-10.5225Q64.0137-5.71289 57.666-3.00293Q51.3184-0.292969 44.043-0.292969ZM43.4082-27.6367Q43.8965-27.6367 44.1895-27.9785Q44.4824-28.3203 44.4824-28.8086Q44.4824-29.1992 44.4824-29.5166Q44.4824-29.834 44.4824-30.2246Q44.4824-32.0312 45.4102-33.3496Q46.3379-34.668 48.6328-36.2305Q51.6602-38.3301 52.9053-40.2344Q54.1504-42.1387 54.1504-44.7754Q54.1504-48.1934 51.3428-50.4883Q48.5352-52.7832 44.1406-52.7832Q39.7461-52.7832 37.1094-50.5127Q34.4727-48.2422 34.082-45.2148Q33.9844-44.7754 33.9844-43.8965Q33.9844-43.2617 34.3018-42.9688Q34.6191-42.6758 35.0586-42.6758Q35.5469-42.6758 35.8887-42.9199Q36.2305-43.1641 36.2305-43.6523L36.2793-44.1406Q36.3281-46.5332 38.501-48.6084Q40.6738-50.6836 44.043-50.6836Q47.6074-50.6836 49.6826-48.9502Q51.7578-47.2168 51.7578-44.5801Q51.7578-42.5781 50.6592-41.0645Q49.5605-39.5508 46.7285-37.5977Q44.2871-35.8887 43.2617-34.2529Q42.2363-32.6172 42.2363-30.3711Q42.2363-29.9316 42.2363-29.5898Q42.2363-29.248 42.2363-28.8574Q42.2363-27.6367 43.4082-27.6367ZM43.3594-17.627Q44.4336-17.627 45.166-18.3838Q45.8984-19.1406 45.8984-20.166Q45.8984-21.1914 45.166-21.9238Q44.4336-22.6562 43.3594-22.6562Q42.2852-22.6562 41.5527-21.9238Q40.8203-21.1914 40.8203-20.166Q40.8203-19.1406 41.5527-18.3838Q42.2852-17.627 43.3594-17.627Z"/>
  </g>
 </g>
</svg>
