<?xml version="1.0" encoding="UTF-8"?>
<!--Generator: Apple Native CoreSVG 175-->
<!DOCTYPE svg
PUBLIC "-//W3C//DTD SVG 1.1//EN"
       "http://www.w3.org/Graphics/SVG/1.1/DTD/svg11.dtd">
<svg version="1.1" xmlns="http://www.w3.org/2000/svg" xmlns:xlink="http://www.w3.org/1999/xlink" width="3300" height="2200">
 <!--glyph: "uni1000EC.medium", point size: 100.0, font version: "17.1d1e1", template writer version: "65.1"-->
 <g id="Notes">
  <rect height="2200" id="artboard" style="fill:white;opacity:1" width="3300" x="0" y="0"/>
  <line style="fill:none;stroke:black;opacity:1;stroke-width:0.5;" x1="263" x2="3036" y1="292" y2="292"/>
  <text style="stroke:none;fill:black;font-family:sans-serif;font-size:13;font-weight:bold;" transform="matrix(1 0 0 1 263 322)">Weight/Scale Variations</text>
  <text style="stroke:none;fill:black;font-family:sans-serif;font-size:13;text-anchor:middle;" transform="matrix(1 0 0 1 559.711 322)">Ultralight</text>
  <text style="stroke:none;fill:black;font-family:sans-serif;font-size:13;text-anchor:middle;" transform="matrix(1 0 0 1 856.422 322)">Thin</text>
  <text style="stroke:none;fill:black;font-family:sans-serif;font-size:13;text-anchor:middle;" transform="matrix(1 0 0 1 1153.13 322)">Light</text>
  <text style="stroke:none;fill:black;font-family:sans-serif;font-size:13;text-anchor:middle;" transform="matrix(1 0 0 1 1449.84 322)">Regular</text>
  <text style="stroke:none;fill:black;font-family:sans-serif;font-size:13;text-anchor:middle;" transform="matrix(1 0 0 1 1746.56 322)">Medium</text>
  <text style="stroke:none;fill:black;font-family:sans-serif;font-size:13;text-anchor:middle;" transform="matrix(1 0 0 1 2043.27 322)">Semibold</text>
  <text style="stroke:none;fill:black;font-family:sans-serif;font-size:13;text-anchor:middle;" transform="matrix(1 0 0 1 2339.98 322)">Bold</text>
  <text style="stroke:none;fill:black;font-family:sans-serif;font-size:13;text-anchor:middle;" transform="matrix(1 0 0 1 2636.69 322)">Heavy</text>
  <text style="stroke:none;fill:black;font-family:sans-serif;font-size:13;text-anchor:middle;" transform="matrix(1 0 0 1 2933.4 322)">Black</text>
  <line style="fill:none;stroke:black;opacity:1;stroke-width:0.5;" x1="263" x2="3036" y1="1903" y2="1903"/>
  <g transform="matrix(1 0 0 1 263 1933)">
   <path d="M9.24805 0.830078Q10.8691 0.830078 12.2949 0.214844Q13.7207-0.400391 14.8096-1.49414Q15.8984-2.58789 16.5186-4.01367Q17.1387-5.43945 17.1387-7.05078Q17.1387-8.66211 16.5186-10.0879Q15.8984-11.5137 14.8047-12.6074Q13.7109-13.7012 12.2852-14.3164Q10.8594-14.9316 9.23828-14.9316Q7.62695-14.9316 6.20117-14.3164Q4.77539-13.7012 3.69141-12.6074Q2.60742-11.5137 1.9873-10.0879Q1.36719-8.66211 1.36719-7.05078Q1.36719-5.43945 1.9873-4.01367Q2.60742-2.58789 3.69629-1.49414Q4.78516-0.400391 6.21094 0.214844Q7.63672 0.830078 9.24805 0.830078ZM9.24805-0.654297Q7.91992-0.654297 6.7627-1.14746Q5.60547-1.64062 4.73145-2.51953Q3.85742-3.39844 3.36426-4.56055Q2.87109-5.72266 2.87109-7.05078Q2.87109-8.37891 3.35938-9.54102Q3.84766-10.7031 4.72168-11.582Q5.5957-12.4609 6.75293-12.9541Q7.91016-13.4473 9.23828-13.4473Q10.5762-13.4473 11.7334-12.9541Q12.8906-12.4609 13.7695-11.582Q14.6484-10.7031 15.1465-9.54102Q15.6445-8.37891 15.6445-7.05078Q15.6445-5.72266 15.1514-4.56055Q14.6582-3.39844 13.7842-2.51953Q12.9102-1.64062 11.748-1.14746Q10.5859-0.654297 9.24805-0.654297ZM5.6543-7.05078Q5.6543-6.72852 5.85938-6.52832Q6.06445-6.32812 6.40625-6.32812L8.51562-6.32812L8.51562-4.20898Q8.51562-3.88672 8.71094-3.67676Q8.90625-3.4668 9.23828-3.4668Q9.56055-3.4668 9.77051-3.67676Q9.98047-3.88672 9.98047-4.20898L9.98047-6.32812L12.0898-6.32812Q12.4219-6.32812 12.627-6.52832Q12.832-6.72852 12.832-7.05078Q12.832-7.38281 12.627-7.58789Q12.4219-7.79297 12.0898-7.79297L9.98047-7.79297L9.98047-9.90234Q9.98047-10.2344 9.77051-10.4443Q9.56055-10.6543 9.23828-10.6543Q8.90625-10.6543 8.71094-10.4443Q8.51562-10.2344 8.51562-9.90234L8.51562-7.79297L6.40625-7.79297Q6.06445-7.79297 5.85938-7.58789Q5.6543-7.38281 5.6543-7.05078Z"/>
  </g>
  <g transform="matrix(1 0 0 1 281.867 1933)">
   <path d="M11.709 2.91016Q13.75 2.91016 15.5518 2.12891Q17.3535 1.34766 18.7305-0.0292969Q20.1074-1.40625 20.8887-3.20801Q21.6699-5.00977 21.6699-7.05078Q21.6699-9.0918 20.8887-10.8936Q20.1074-12.6953 18.7305-14.0723Q17.3535-15.4492 15.5469-16.2305Q13.7402-17.0117 11.6992-17.0117Q9.6582-17.0117 7.85645-16.2305Q6.05469-15.4492 4.68262-14.0723Q3.31055-12.6953 2.5293-10.8936Q1.74805-9.0918 1.74805-7.05078Q1.74805-5.00977 2.5293-3.20801Q3.31055-1.40625 4.6875-0.0292969Q6.06445 1.34766 7.86621 2.12891Q9.66797 2.91016 11.709 2.91016ZM11.709 1.25Q9.98047 1.25 8.47656 0.605469Q6.97266-0.0390625 5.83496-1.17676Q4.69727-2.31445 4.05762-3.81836Q3.41797-5.32227 3.41797-7.05078Q3.41797-8.7793 4.05762-10.2832Q4.69727-11.7871 5.83008-12.9297Q6.96289-14.0723 8.4668-14.7119Q9.9707-15.3516 11.6992-15.3516Q13.4277-15.3516 14.9316-14.7119Q16.4355-14.0723 17.5781-12.9297Q18.7207-11.7871 19.3652-10.2832Q20.0098-8.7793 20.0098-7.05078Q20.0098-5.32227 19.3701-3.81836Q18.7305-2.31445 17.5928-1.17676Q16.4551-0.0390625 14.9463 0.605469Q13.4375 1.25 11.709 1.25ZM7.17773-7.05078Q7.17773-6.69922 7.41211-6.47461Q7.64648-6.25 8.01758-6.25L10.8887-6.25L10.8887-3.36914Q10.8887-2.99805 11.1133-2.76855Q11.3379-2.53906 11.6895-2.53906Q12.0605-2.53906 12.29-2.76855Q12.5195-2.99805 12.5195-3.36914L12.5195-6.25L15.4004-6.25Q15.7715-6.25 16.001-6.47461Q16.2305-6.69922 16.2305-7.05078Q16.2305-7.42188 16.001-7.65137Q15.7715-7.88086 15.4004-7.88086L12.5195-7.88086L12.5195-10.752Q12.5195-11.1328 12.29-11.3623Q12.0605-11.5918 11.6895-11.5918Q11.3379-11.5918 11.1133-11.3574Q10.8887-11.123 10.8887-10.752L10.8887-7.88086L8.01758-7.88086Q7.63672-7.88086 7.40723-7.65137Q7.17773-7.42188 7.17773-7.05078Z"/>
  </g>
  <g transform="matrix(1 0 0 1 305.646 1933)">
   <path d="M14.9707 5.66406Q17.0605 5.66406 18.96 5.01465Q20.8594 4.36523 22.4512 3.19336Q24.043 2.02148 25.2197 0.429688Q26.3965-1.16211 27.0459-3.06641Q27.6953-4.9707 27.6953-7.05078Q27.6953-9.14062 27.0459-11.04Q26.3965-12.9395 25.2197-14.5312Q24.043-16.123 22.4512-17.2998Q20.8594-18.4766 18.9551-19.126Q17.0508-19.7754 14.9609-19.7754Q12.8711-19.7754 10.9717-19.126Q9.07227-18.4766 7.48535-17.2998Q5.89844-16.123 4.72168-14.5312Q3.54492-12.9395 2.90039-11.04Q2.25586-9.14062 2.25586-7.05078Q2.25586-4.9707 2.90527-3.06641Q3.55469-1.16211 4.72656 0.429688Q5.89844 2.02148 7.49023 3.19336Q9.08203 4.36523 10.9814 5.01465Q12.8809 5.66406 14.9707 5.66406ZM14.9707 3.84766Q13.1641 3.84766 11.5283 3.2959Q9.89258 2.74414 8.53516 1.74805Q7.17773 0.751953 6.17676-0.610352Q5.17578-1.97266 4.62891-3.6084Q4.08203-5.24414 4.08203-7.05078Q4.08203-8.86719 4.62891-10.5029Q5.17578-12.1387 6.17188-13.501Q7.16797-14.8633 8.52539-15.8594Q9.88281-16.8555 11.5186-17.4023Q13.1543-17.9492 14.9609-17.9492Q16.7773-17.9492 18.4131-17.4023Q20.0488-16.8555 21.4111-15.8594Q22.7734-14.8633 23.7695-13.501Q24.7656-12.1387 25.3174-10.5029Q25.8691-8.86719 25.8691-7.05078Q25.8789-5.24414 25.332-3.6084Q24.7852-1.97266 23.7842-0.610352Q22.7832 0.751953 21.4209 1.74805Q20.0586 2.74414 18.4229 3.2959Q16.7871 3.84766 14.9707 3.84766ZM9.19922-7.05078Q9.19922-6.66992 9.45801-6.4209Q9.7168-6.17188 10.1172-6.17188L14.0625-6.17188L14.0625-2.2168Q14.0625-1.81641 14.3115-1.55762Q14.5605-1.29883 14.9512-1.29883Q15.3516-1.29883 15.6104-1.55273Q15.8691-1.80664 15.8691-2.2168L15.8691-6.17188L19.8242-6.17188Q20.2246-6.17188 20.4785-6.4209Q20.7324-6.66992 20.7324-7.05078Q20.7324-7.46094 20.4785-7.71484Q20.2246-7.96875 19.8242-7.96875L15.8691-7.96875L15.8691-11.9141Q15.8691-12.3242 15.6104-12.583Q15.3516-12.8418 14.9512-12.8418Q14.5605-12.8418 14.3115-12.583Q14.0625-12.3242 14.0625-11.9141L14.0625-7.96875L10.1172-7.96875Q9.70703-7.96875 9.45312-7.71484Q9.19922-7.46094 9.19922-7.05078Z"/>
  </g>
  <text style="stroke:none;fill:black;font-family:sans-serif;font-size:13;font-weight:bold;" transform="matrix(1 0 0 1 263 1953)">Design Variations</text>
  <text style="stroke:none;fill:black;font-family:sans-serif;font-size:13;" transform="matrix(1 0 0 1 263 1971)">Symbols are supported in up to nine weights and three scales.</text>
  <text style="stroke:none;fill:black;font-family:sans-serif;font-size:13;" transform="matrix(1 0 0 1 263 1989)">For optimal layout with text and other symbols, vertically align</text>
  <text style="stroke:none;fill:black;font-family:sans-serif;font-size:13;" transform="matrix(1 0 0 1 263 2007)">symbols with the adjacent text.</text>
  <line style="fill:none;stroke:#00AEEF;stroke-width:0.5;opacity:1.0;" x1="776" x2="776" y1="1919" y2="1933"/>
  <g transform="matrix(1 0 0 1 776 1933)">
   <path d="M3.31055 0.15625Q3.70117 0.15625 3.91602-0.00976562Q4.13086-0.175781 4.26758-0.585938L5.52734-4.0332L11.2891-4.0332L12.5488-0.585938Q12.6855-0.175781 12.9004-0.00976562Q13.1152 0.15625 13.4961 0.15625Q13.8867 0.15625 14.1162-0.0585938Q14.3457-0.273438 14.3457-0.644531Q14.3457-0.869141 14.2383-1.17188L9.6582-13.3691Q9.48242-13.8184 9.17969-14.043Q8.87695-14.2676 8.4082-14.2676Q7.5-14.2676 7.17773-13.3789L2.59766-1.16211Q2.49023-0.859375 2.49023-0.634766Q2.49023-0.263672 2.70996-0.0537109Q2.92969 0.15625 3.31055 0.15625ZM6.00586-5.51758L8.37891-12.0898L8.42773-12.0898L10.8008-5.51758Z"/>
  </g>
  <line style="fill:none;stroke:#00AEEF;stroke-width:0.5;opacity:1.0;" x1="793.197" x2="793.197" y1="1919" y2="1933"/>
  <text style="stroke:none;fill:black;font-family:sans-serif;font-size:13;font-weight:bold;" transform="matrix(1 0 0 1 776 1953)">Margins</text>
  <text style="stroke:none;fill:black;font-family:sans-serif;font-size:13;" transform="matrix(1 0 0 1 776 1971)">Leading and trailing margins on the left and right side of each symbol</text>
  <text style="stroke:none;fill:black;font-family:sans-serif;font-size:13;" transform="matrix(1 0 0 1 776 1989)">can be adjusted by modifying the x-location of the margin guidelines.</text>
  <text style="stroke:none;fill:black;font-family:sans-serif;font-size:13;" transform="matrix(1 0 0 1 776 2007)">Modifications are automatically applied proportionally to all</text>
  <text style="stroke:none;fill:black;font-family:sans-serif;font-size:13;" transform="matrix(1 0 0 1 776 2025)">scales and weights.</text>
  <g transform="matrix(1 0 0 1 1289 1933)">
   <path d="M2.8418 1.86523L4.54102 3.57422Q5.18555 4.22852 5.90332 4.17969Q6.62109 4.13086 7.31445 3.35938L18.0078-8.42773L17.041-9.4043L6.42578 2.27539Q6.16211 2.57812 5.89355 2.61719Q5.625 2.65625 5.27344 2.30469L4.10156 1.14258Q3.75 0.791016 3.79395 0.522461Q3.83789 0.253906 4.14062-0.0195312L15.6152-10.8203L14.6387-11.7871L3.04688-0.898438Q2.30469-0.214844 2.25098 0.498047Q2.19727 1.21094 2.8418 1.86523ZM9.25781-16.3281Q8.94531-16.0254 8.90625-15.6348Q8.86719-15.2441 9.04297-14.9512Q9.21875-14.6777 9.55566-14.541Q9.89258-14.4043 10.3809-14.5215Q11.4746-14.7754 12.5977-14.7314Q13.7207-14.6875 14.7949-13.9844L14.209-12.5293Q13.9551-11.9043 14.0674-11.4404Q14.1797-10.9766 14.5801-10.5664L16.875-8.25195Q17.2363-7.88086 17.5781-7.82227Q17.9199-7.76367 18.3398-7.8418L19.4043-8.03711L20.0684-7.36328L20.0293-6.80664Q20-6.43555 20.1221-6.12305Q20.2441-5.81055 20.6055-5.44922L21.3672-4.70703Q21.7285-4.3457 22.1533-4.33105Q22.5781-4.31641 22.9297-4.66797L25.8398-7.58789Q26.1914-7.93945 26.1816-8.35449Q26.1719-8.76953 25.8105-9.13086L25.0391-9.89258Q24.6875-10.2539 24.3799-10.3857Q24.0723-10.5176 23.7109-10.4883L23.1348-10.4395L22.4902-11.0742L22.7344-12.1973Q22.832-12.6172 22.6953-12.9834Q22.5586-13.3496 22.1191-13.7891L19.9219-15.9766Q18.6719-17.2168 17.2607-17.8369Q15.8496-18.457 14.4189-18.4814Q12.9883-18.5059 11.665-17.959Q10.3418-17.4121 9.25781-16.3281ZM10.752-15.957Q11.6602-16.6211 12.7002-16.9043Q13.7402-17.1875 14.8047-17.085Q15.8691-16.9824 16.8701-16.5137Q17.8711-16.0449 18.7012-15.2051L21.1328-12.793Q21.3086-12.6172 21.3525-12.4512Q21.3965-12.2852 21.3379-12.0312L21.0156-10.5469L22.5195-9.0625L23.5059-9.12109Q23.6914-9.13086 23.7891-9.09668Q23.8867-9.0625 24.0332-8.91602L24.6094-8.33984L22.168-5.89844L21.5918-6.47461Q21.4453-6.62109 21.4062-6.71875Q21.3672-6.81641 21.377-7.01172L21.4453-7.98828L19.9512-9.47266L18.4277-9.21875Q18.1836-9.16992 18.042-9.2041Q17.9004-9.23828 17.7148-9.41406L15.7129-11.416Q15.5176-11.5918 15.4932-11.7529Q15.4688-11.9141 15.5859-12.1875L16.4648-14.2773Q15.293-15.3711 13.8281-15.791Q12.3633-16.2109 10.8398-15.7617Q10.7227-15.7324 10.6885-15.8057Q10.6543-15.8789 10.752-15.957Z"/>
  </g>
  <text style="stroke:none;fill:black;font-family:sans-serif;font-size:13;font-weight:bold;" transform="matrix(1 0 0 1 1289 1953)">Exporting</text>
  <text style="stroke:none;fill:black;font-family:sans-serif;font-size:13;" transform="matrix(1 0 0 1 1289 1971)">Symbols should be outlined when exporting to ensure the</text>
  <text style="stroke:none;fill:black;font-family:sans-serif;font-size:13;" transform="matrix(1 0 0 1 1289 1989)">design is preserved when submitting to Xcode.</text>
  <text id="template-version" style="stroke:none;fill:black;font-family:sans-serif;font-size:13;text-anchor:end;" transform="matrix(1 0 0 1 3036 1933)">Template v.3.0</text>
  <text style="stroke:none;fill:black;font-family:sans-serif;font-size:13;text-anchor:end;" transform="matrix(1 0 0 1 3036 1951)">Requires Xcode 13 or greater</text>
  <text id="descriptive-name" style="stroke:none;fill:black;font-family:sans-serif;font-size:13;text-anchor:end;" transform="matrix(1 0 0 1 3036 1969)">Generated from questionmark.square</text>
  <text style="stroke:none;fill:black;font-family:sans-serif;font-size:13;text-anchor:end;" transform="matrix(1 0 0 1 3036 1987)">Typeset at 100 points</text>
  <text style="stroke:none;fill:black;font-family:sans-serif;font-size:13;" transform="matrix(1 0 0 1 263 726)">Small</text>
  <text style="stroke:none;fill:black;font-family:sans-serif;font-size:13;" transform="matrix(1 0 0 1 263 1156)">Medium</text>
  <text style="stroke:none;fill:black;font-family:sans-serif;font-size:13;" transform="matrix(1 0 0 1 263 1586)">Large</text>
 </g>
 <g id="Guides">
  <g id="H-reference" style="fill:#27AAE1;stroke:none;" transform="matrix(1 0 0 1 339 696)">
   <path d="M0.993347 0L3.6377 0L29.3282-67.1326L30.0301-67.1326L30.0301-70.459L28.1227-70.459ZM11.6882-24.4797L46.9818-24.4797L46.2311-26.7288L12.4382-26.7288ZM55.1193 0L57.7637 0L30.6381-70.459L29.4327-70.459L29.4327-67.1326Z"/>
  </g>
  <line id="Baseline-S" style="fill:none;stroke:#27AAE1;opacity:1;stroke-width:0.5;" x1="263" x2="3036" y1="696" y2="696"/>
  <line id="Capline-S" style="fill:none;stroke:#27AAE1;opacity:1;stroke-width:0.5;" x1="263" x2="3036" y1="625.541" y2="625.541"/>
  <g id="H-reference" style="fill:#27AAE1;stroke:none;" transform="matrix(1 0 0 1 339 1126)">
   <path d="M0.993347 0L3.6377 0L29.3282-67.1326L30.0301-67.1326L30.0301-70.459L28.1227-70.459ZM11.6882-24.4797L46.9818-24.4797L46.2311-26.7288L12.4382-26.7288ZM55.1193 0L57.7637 0L30.6381-70.459L29.4327-70.459L29.4327-67.1326Z"/>
  </g>
  <line id="Baseline-M" style="fill:none;stroke:#27AAE1;opacity:1;stroke-width:0.5;" x1="263" x2="3036" y1="1126" y2="1126"/>
  <line id="Capline-M" style="fill:none;stroke:#27AAE1;opacity:1;stroke-width:0.5;" x1="263" x2="3036" y1="1055.54" y2="1055.54"/>
  <g id="H-reference" style="fill:#27AAE1;stroke:none;" transform="matrix(1 0 0 1 339 1556)">
   <path d="M0.993347 0L3.6377 0L29.3282-67.1326L30.0301-67.1326L30.0301-70.459L28.1227-70.459ZM11.6882-24.4797L46.9818-24.4797L46.2311-26.7288L12.4382-26.7288ZM55.1193 0L57.7637 0L30.6381-70.459L29.4327-70.459L29.4327-67.1326Z"/>
  </g>
  <line id="Baseline-L" style="fill:none;stroke:#27AAE1;opacity:1;stroke-width:0.5;" x1="263" x2="3036" y1="1556" y2="1556"/>
  <line id="Capline-L" style="fill:none;stroke:#27AAE1;opacity:1;stroke-width:0.5;" x1="263" x2="3036" y1="1485.54" y2="1485.54"/>
  <line id="left-margin-Regular-M" style="fill:none;stroke:#00AEEF;stroke-width:0.5;opacity:1.0;" x1="1392.45" x2="1392.45" y1="1030.79" y2="1150.12"/>
  <line id="right-margin-Regular-M" style="fill:none;stroke:#00AEEF;stroke-width:0.5;opacity:1.0;" x1="1507.24" x2="1507.24" y1="1030.79" y2="1150.12"/>
 </g>
 <g id="Symbols">
  <g id="Black-L" transform="matrix(1 0 0 1 2855.72 1556)">
   <path d="M39.8559 26.4225L115.512 26.4225Q126.881 26.4225 133.083 20.23Q139.284 14.0375 139.284 2.71277L139.284-73.0901Q139.284-84.4148 133.083-90.6066Q126.881-96.7985 115.512-96.7985L39.8559-96.7985Q28.5079-96.7985 22.2959-90.6073Q16.084-84.4161 16.084-73.0901L16.084 2.71277Q16.084 14.0401 22.2959 20.2313Q28.5079 26.4225 39.8559 26.4225ZM42.5866 6.42133Q39.3787 6.42133 37.7216 4.87256Q36.0645 3.3238 36.0645-0.121591L36.0645-70.2544Q36.0645-73.7375 37.7216-75.2674Q39.3787-76.7973 42.5866-76.7973L112.782-76.7973Q116.045-76.7973 117.675-75.2674Q119.304-73.7375 119.304-70.2544L119.304-0.121591Q119.304 3.3238 117.675 4.87256Q116.045 6.42133 112.782 6.42133ZM75.9444-24.2522Q79.2903-24.2522 81.5608-25.6667Q83.8314-27.0813 84.357-29.2685Q84.4154-29.4163 84.4446-29.631Q84.4738-29.8456 84.5322-29.9558Q85.1163-31.7556 86.9862-33.2704Q88.8562-34.7851 91.1852-36.2413Q96.1636-39.3206 98.4358-42.392Q100.708-45.4634 100.708-50.4542Q100.708-58.403 94.1591-63.2896Q87.6103-68.1763 78.0212-68.1763Q69.9883-68.1763 64.3163-65.2827Q58.6444-62.3891 56.5673-57.7272Q55.698-55.7995 55.698-53.7848Q55.698-51.0059 57.6583-48.954Q59.6186-46.902 62.7729-46.902Q64.8978-46.902 66.5611-47.6206Q68.2244-48.3392 69.4283-49.9103L69.9572-50.5713Q71.4111-52.5034 72.9041-53.2279Q74.3971-53.9524 76.1043-53.9524Q78.3236-53.9524 79.8366-52.569Q81.3496-51.1856 81.3496-49.3695Q81.3496-47.0275 79.4488-45.5161Q77.548-44.0047 73.9839-41.5547Q70.7543-39.2732 68.7433-36.9466Q66.7322-34.6199 66.7322-31.4481Q66.7322-31.3574 66.7322-31.3173Q66.7322-31.2772 66.7322-31.1878Q66.7322-24.2522 75.9444-24.2522ZM75.9601-3.18581Q80.026-3.18581 82.6595-5.36967Q85.2931-7.55353 85.2931-11.3846Q85.2931-15.178 82.6595-17.38Q80.026-19.5821 75.9601-19.5821Q71.9525-19.5821 69.2314-17.3989Q66.5102-15.2156 66.5102-11.3846Q66.5102-7.57426 69.2314-5.38003Q71.9525-3.18581 75.9601-3.18581Z"/>
  </g>
  <g id="Heavy-L" transform="matrix(1 0 0 1 2559.92 1556)">
   <path d="M38.8328 25.5158L114.704 25.5158Q125.682 25.5158 131.567 19.6396Q137.452 13.7633 137.452 2.85629L137.452-73.2288Q137.452-84.1358 131.567-90.0091Q125.682-95.8823 114.704-95.8823L38.8328-95.8823Q27.8839-95.8823 21.984-90.0121Q16.084-84.1419 16.084-73.2288L16.084 2.85629Q16.084 13.7754 21.984 19.6456Q27.8839 25.5158 38.8328 25.5158ZM40.957 7.98818Q37.3499 7.98818 35.4659 6.20086Q33.5818 4.41354 33.5818 0.583243L33.5818-70.9497Q33.5818-74.7949 35.4659-76.5748Q37.3499-78.3547 40.957-78.3547L112.579-78.3547Q116.219-78.3547 118.087-76.5748Q119.954-74.7949 119.954-70.9497L119.954 0.583243Q119.954 4.41354 118.087 6.20086Q116.219 7.98818 112.579 7.98818ZM75.1574-23.7802Q78.2377-23.7802 80.2673-25.1539Q82.2969-26.5276 82.6985-28.6112Q82.7432-28.7785 82.7655-28.9963Q82.7878-29.214 82.8324-29.3664Q83.2786-31.3602 85.0818-32.9811Q86.885-34.6021 89.4449-36.2384Q94.3416-39.3096 96.7495-42.4311Q99.1574-45.5527 99.1574-50.6691Q99.1574-58.53 92.7703-63.232Q86.3833-67.9341 77.182-67.9341Q69.1557-67.9341 63.6303-64.9383Q58.105-61.9426 56.2269-57.3434Q55.4413-55.5188 55.4413-53.6101Q55.4413-51.0175 57.2434-49.2036Q59.0455-47.3897 61.8072-47.3897Q63.8015-47.3897 65.3165-48.0894Q66.8315-48.789 67.9324-50.2626L68.5782-51.0967Q70.0423-53.2522 71.7837-54.2154Q73.5252-55.1786 75.6378-55.1786Q78.3845-55.1786 80.166-53.5732Q81.9476-51.9679 81.9476-49.7226Q81.9476-47.1691 80.0265-45.5166Q78.1055-43.8641 74.3932-41.3167Q71.116-38.9929 69.0627-36.5517Q67.0093-34.1105 67.0093-30.6192Q67.0093-30.4905 67.0093-30.4036Q67.0093-30.3167 67.0093-30.194Q67.0093-23.7802 75.1574-23.7802ZM75.1365-3.30731Q78.8693-3.30731 81.3401-5.40922Q83.8109-7.51113 83.8109-11.0594Q83.8109-14.5929 81.3401-16.6992Q78.8693-18.8055 75.1365-18.8055Q71.4483-18.8055 68.9106-16.7066Q66.3729-14.6078 66.3729-11.0594Q66.3729-7.5409 68.9106-5.42411Q71.4483-3.30731 75.1365-3.30731Z"/>
  </g>
  <g id="Bold-L" transform="matrix(1 0 0 1 2264.35 1556)">
   <path d="M37.5443 24.3864L113.709 24.3864Q124.174 24.3864 129.672 18.8927Q135.17 13.3991 135.17 3.03698L135.17-73.4013Q135.17-83.7634 129.672-89.2499Q124.174-94.7365 113.709-94.7365L37.5443-94.7365Q27.1168-94.7365 21.6004-89.257Q16.084-83.7776 16.084-73.4013L16.084 3.03698Q16.084 13.4275 21.6004 18.9069Q27.1168 24.3864 37.5443 24.3864ZM38.9901 9.91361Q34.8616 9.91361 32.6907 7.82346Q30.5198 5.73331 30.5198 1.40624L30.5198-71.7564Q30.5198-76.0756 32.6907-78.1697Q34.8616-80.2637 38.9901-80.2637L112.264-80.2637Q116.393-80.2637 118.564-78.1697Q120.734-76.0756 120.734-71.7564L120.734 1.40624Q120.734 5.73331 118.564 7.82346Q116.393 9.91361 112.264 9.91361ZM74.1677-23.2752Q76.8818-23.2752 78.6045-24.5701Q80.3272-25.8651 80.59-27.7868Q80.6192-27.996 80.6338-28.2316Q80.6484-28.4671 80.6776-28.6841Q80.9697-30.9121 82.6953-32.6619Q84.4208-34.4117 87.2622-36.2668Q92.0847-39.3491 94.6056-42.5195Q97.1264-45.69 97.1264-50.8893Q97.1264-58.5571 90.9808-63.0367Q84.8352-67.5163 76.1022-67.5163Q68.1207-67.5163 62.7939-64.3862Q57.467-61.256 55.8405-56.6983Q55.1657-55.0264 55.1657-53.242Q55.1657-50.9038 56.7533-49.3836Q58.341-47.8634 60.6262-47.8634Q62.4369-47.8634 63.7631-48.5303Q65.0892-49.1972 66.0373-50.5446L66.768-51.5434Q68.1742-54.0005 70.2441-55.3128Q72.3139-56.6251 74.9835-56.6251Q78.3894-56.6251 80.5086-54.7456Q82.6279-52.8661 82.6279-50.1062Q82.6279-47.3132 80.6929-45.4841Q78.7579-43.655 74.8567-40.9813Q71.4976-38.593 69.4214-36.0294Q67.3452-33.4658 67.3452-29.6574Q67.3452-29.4632 67.3452-29.3081Q67.3452-29.1531 67.3452-28.9731Q67.3452-23.2752 74.1677-23.2752ZM74.1087-3.56699Q77.4257-3.56699 79.6785-5.54845Q81.9312-7.52991 81.9312-10.7159Q81.9312-13.9096 79.6785-15.8801Q77.4257-17.8505 74.1087-17.8505Q70.8209-17.8505 68.5244-15.8762Q66.2278-13.9018 66.2278-10.7159Q66.2278-7.5669 68.5244-5.56695Q70.8209-3.56699 74.1087-3.56699Z"/>
  </g>
  <g id="Semibold-L" transform="matrix(1 0 0 1 1968.43 1556)">
   <path d="M36.6561 23.6077L113.024 23.6077Q123.134 23.6077 128.365 18.3778Q133.596 13.1479 133.596 3.16154L133.596-73.5202Q133.596-83.5066 128.365-88.7266Q123.134-93.9466 113.024-93.9466L36.6561-93.9466Q26.588-93.9466 21.336-88.7365Q16.084-83.5265 16.084-73.5202L16.084 3.16154Q16.084 13.1877 21.336 18.3977Q26.588 23.6077 36.6561 23.6077ZM37.6342 11.241Q33.1463 11.241 30.7775 8.94207Q28.4088 6.64315 28.4088 1.97361L28.4088-72.3124Q28.4088-76.9586 30.7775-79.2692Q33.1463-81.5798 37.6342-81.5798L112.046-81.5798Q116.513-81.5798 118.892-79.2692Q121.272-76.9586 121.272-72.3124L121.272 1.97361Q121.272 6.64315 118.892 8.94207Q116.513 11.241 112.046 11.241ZM73.4855-22.927Q75.9471-22.927 77.4582-24.1677Q78.9693-25.4083 79.1364-27.2185Q79.155-27.4566 79.1643-27.7044Q79.1736-27.9523 79.1921-28.2138Q79.3779-30.6031 81.05-32.4418Q82.7221-34.2805 85.7574-36.2864Q90.5288-39.3763 93.1275-42.5805Q95.7263-45.7846 95.7263-51.0411Q95.7263-58.5757 89.7471-62.902Q83.7679-67.2284 75.3578-67.2284Q67.4072-67.2284 62.2172-64.0055Q57.0272-60.7827 55.5741-56.2536Q54.9757-54.6869 54.9757-52.9883Q54.9757-50.8255 56.4155-49.5077Q57.8554-48.19 59.812-48.19Q61.4962-48.19 62.6921-48.8343Q63.888-49.4786 64.7309-50.7389L65.52-51.8514Q66.8864-54.5164 69.1826-56.0694Q71.4789-57.6223 74.5324-57.6223Q78.3927-57.6223 80.7448-55.5538Q83.097-53.4852 83.097-50.3706Q83.097-47.4125 81.1523-45.4617Q79.2077-43.5108 75.1763-40.7502Q71.7607-38.3173 69.6687-35.6693Q67.5767-33.0213 67.5767-28.9944Q67.5767-28.755 67.5767-28.5529Q67.5767-28.3508 67.5767-28.1313Q67.5767-22.927 73.4855-22.927ZM73.4002-3.74602Q76.4305-3.74602 78.533-5.64443Q80.6354-7.54285 80.6354-10.479Q80.6354-13.4386 78.533-15.3154Q76.4305-17.1922 73.4002-17.1922Q70.3884-17.1922 68.2581-15.3037Q66.1278-13.4152 66.1278-10.479Q66.1278-7.58482 68.2581-5.66542Q70.3884-3.74602 73.4002-3.74602Z"/>
  </g>
  <g id="Medium-L" transform="matrix(1 0 0 1 1672.31 1556)">
   <path d="M35.9826 23.0174L112.505 23.0174Q122.346 23.0174 127.375 17.9874Q132.403 12.9575 132.403 3.25599L132.403-73.6104Q132.403-83.3119 127.375-88.3298Q122.346-93.3476 112.505-93.3476L35.9826-93.3476Q26.187-93.3476 21.1355-88.3419Q16.084-83.3361 16.084-73.6104L16.084 3.25599Q16.084 13.0058 21.1355 18.0116Q26.187 23.0174 35.9826 23.0174ZM36.606 12.2475Q31.8456 12.2475 29.3269 9.79025Q26.8081 7.33303 26.8081 2.40381L26.8081-72.7341Q26.8081-77.628 29.3269-80.1029Q31.8456-82.5777 36.606-82.5777L111.881-82.5777Q116.604-82.5777 119.141-80.1029Q121.679-77.628 121.679-72.7341L121.679 2.40381Q121.679 7.33303 119.141 9.79025Q116.604 12.2475 111.881 12.2475ZM72.9681-22.6631Q75.2383-22.6631 76.589-23.8625Q77.9396-25.062 78.0343-26.7875Q78.0448-27.0475 78.05-27.3047Q78.0553-27.5619 78.0658-27.8571Q78.1709-30.3689 79.8025-32.275Q81.434-34.181 84.6165-36.3012Q89.349-39.397 92.0069-42.6267Q94.6647-45.8564 94.6647-51.1562Q94.6647-58.5898 88.8117-62.7999Q82.9586-67.01 74.7933-67.01Q66.8661-67.01 61.7799-63.7169Q56.6937-60.4238 55.3721-55.9163Q54.8316-54.4296 54.8316-52.7959Q54.8316-50.7661 56.1594-49.6018Q57.4871-48.4376 59.1947-48.4376Q60.7829-48.4376 61.8801-49.0648Q62.9773-49.6919 63.7403-50.8863L64.5737-52.0849Q65.9099-54.9076 68.3778-56.643Q70.8457-58.3784 74.1904-58.3784Q78.3952-58.3784 80.9239-56.1666Q83.4526-53.9547 83.4526-50.5711Q83.4526-47.4879 81.5007-45.4447Q79.5487-43.4015 75.4186-40.5749Q71.9602-38.1083 69.8562-35.3963Q67.7522-32.6843 67.7522-28.4916Q67.7522-28.218 67.7522-27.9803Q67.7522-27.7426 67.7522-27.4931Q67.7522-22.6631 72.9681-22.6631ZM72.863-3.88176Q75.6759-3.88176 77.6644-5.71721Q79.6529-7.55266 79.6529-10.2994Q79.6529-13.0814 77.6644-14.8872Q75.6759-16.6929 72.863-16.6929Q70.0605-16.6929 68.0563-14.8696Q66.052-13.0462 66.052-10.2994Q66.052-7.59841 68.0563-5.74008Q70.0605-3.88176 72.863-3.88176Z"/>
  </g>
  <g id="Regular-L" transform="matrix(1 0 0 1 1376.38 1556)">
   <path d="M35.1041 22.2473L111.827 22.2473Q121.318 22.2473 126.082 17.4782Q130.847 12.7092 130.847 3.37919L130.847-73.728Q130.847-83.058 126.082-87.8122Q121.318-92.5664 111.827-92.5664L35.1041-92.5664Q25.664-92.5664 20.874-87.8271Q16.084-83.0877 16.084-73.728L16.084 3.37919Q16.084 12.7686 20.874 17.508Q25.664 22.2473 35.1041 22.2473ZM35.265 13.5603Q30.1491 13.5603 27.4347 10.8966Q24.7203 8.23287 24.7203 2.96494L24.7203-73.284Q24.7203-78.5013 27.4347-81.1903Q30.1491-83.8794 35.265-83.8794L111.666-83.8794Q116.722-83.8794 119.467-81.1903Q122.211-78.5013 122.211-73.284L122.211 2.96494Q122.211 8.23287 119.467 10.8966Q116.722 13.5603 111.666 13.5603ZM72.2933-22.3187Q74.3139-22.3187 75.4553-23.4645Q76.5966-24.6103 76.5966-26.2254Q76.5966-26.514 76.5966-26.7833Q76.5966-27.0526 76.5966-27.3919Q76.5966-30.0633 78.1753-32.0573Q79.7539-34.0513 83.1282-36.3206Q87.8102-39.4239 90.5451-42.687Q93.28-45.9501 93.28-51.3064Q93.28-58.6082 87.5915-62.6667Q81.9031-66.7252 74.0571-66.7252Q66.1605-66.7252 61.2096-63.3404Q56.2588-59.9557 55.1086-55.4765Q54.6437-54.0938 54.6437-52.5449Q54.6437-50.6885 55.8252-49.7246Q57.0068-48.7606 58.3895-48.7606Q59.8525-48.7606 60.8209-49.3654Q61.7893-49.9702 62.4482-51.0785L63.3395-52.3895Q64.6363-55.4178 67.328-57.3913Q70.0198-59.3647 73.7442-59.3647Q78.3985-59.3647 81.1575-56.9659Q83.9165-54.5671 83.9165-50.8326Q83.9165-47.5861 81.955-45.4225Q79.9935-43.2589 75.7346-40.3462Q72.2204-37.8356 70.1008-35.0402Q67.9812-32.2447 67.9812-27.8359Q67.9812-27.5176 67.9812-27.2334Q67.9812-26.9492 67.9812-26.6606Q67.9812-22.3187 72.2933-22.3187ZM72.1622-4.05881Q74.6917-4.05881 76.5315-5.81214Q78.3713-7.56546 78.3713-10.0652Q78.3713-12.6156 76.5315-14.3287Q74.6917-16.0418 72.1622-16.0418Q69.6328-16.0418 67.7929-14.3033Q65.9531-12.5649 65.9531-10.0652Q65.9531-7.61614 67.7929-5.83748Q69.6328-4.05881 72.1622-4.05881Z"/>
  </g>
  <g id="Light-L" transform="matrix(1 0 0 1 1080.5 1556)">
   <path d="M34.078 21.4264L111.191 21.4264Q120.127 21.4264 124.656 16.8626Q129.185 12.2987 129.185 3.52284L129.185-73.8511Q129.185-82.627 124.656-87.1657Q120.127-91.7045 111.191-91.7045L34.078-91.7045Q25.1715-91.7045 20.6277-87.1909Q16.084-82.6773 16.084-73.8511L16.084 3.52284Q16.084 12.3992 20.6277 16.9128Q25.1715 21.4264 34.078 21.4264ZM34.2389 14.7916Q28.5894 14.7916 25.639 11.8714Q22.6887 8.95114 22.6887 3.21121L22.6887-73.4893Q22.6887-79.199 25.639-82.1343Q28.5894-85.0696 34.2389-85.0696L111.03-85.0696Q116.579-85.0696 119.579-82.1343Q122.58-79.199 122.58-73.4893L122.58 3.21121Q122.58 8.95114 119.579 11.8714Q116.579 14.7916 111.03 14.7916ZM71.5135-22.4829Q73.0415-22.4829 73.9161-23.3927Q74.7907-24.3025 74.7907-25.5892Q74.7907-26.0215 74.7907-26.3934Q74.7907-26.7653 74.7907-27.2277Q74.7907-30.0223 76.3488-32.0881Q77.907-34.1539 81.4454-36.5463Q86.2505-39.7933 88.7084-43.0051Q91.1662-46.2168 91.1662-51.1627Q91.1662-57.7874 85.9087-61.733Q80.6512-65.6786 73.0515-65.6786Q65.4217-65.6786 60.7171-62.1502Q56.0125-58.6218 55.0675-53.9373Q54.7257-52.8215 54.7257-51.3136Q54.7257-49.7856 55.6406-49.0165Q56.5554-48.2475 57.6712-48.2475Q58.8675-48.2475 59.6717-48.7703Q60.4759-49.293 60.868-50.2781L61.4309-51.3839Q62.2352-54.7816 65.2861-57.3399Q68.337-59.8983 72.8002-59.8983Q77.9471-59.8983 80.9728-57.3148Q83.9986-54.7313 83.9986-50.7505Q83.9986-47.4835 82.0987-45.1865Q80.1987-42.8895 75.7757-39.8537Q72.0563-37.2199 70.1111-34.4656Q68.1659-31.7112 68.1659-27.5896Q68.1659-27.1071 68.1659-26.7101Q68.1659-26.313 68.1659-25.8807Q68.1659-22.4829 71.5135-22.4829ZM71.4029-4.94126Q73.6245-4.94126 75.2078-6.48936Q76.7911-8.03746 76.7911-10.2088Q76.7911-12.4104 75.2078-13.9183Q73.6245-15.4261 71.4029-15.4261Q69.1813-15.4261 67.598-13.9032Q66.0147-12.3802 66.0147-10.2088Q66.0147-8.06762 67.598-6.50444Q69.1813-4.94126 71.4029-4.94126Z"/>
  </g>
  <g id="Thin-L" transform="matrix(1 0 0 1 784.884 1556)">
   <path d="M32.7209 20.3407L110.349 20.3407Q118.553 20.3407 122.77 16.0483Q126.986 11.7559 126.986 3.71284L126.986-74.014Q126.986-82.057 122.77-86.3108Q118.553-90.5645 110.349-90.5645L32.7209-90.5645Q24.5201-90.5645 20.302-86.3495Q16.084-82.1344 16.084-74.014L16.084 3.71284Q16.084 11.9107 20.302 16.1257Q24.5201 20.3407 32.7209 20.3407ZM32.8818 16.4201Q26.5266 16.4201 23.2641 13.1606Q20.0016 9.9011 20.0016 3.53691L20.0016-73.7607Q20.0016-80.1218 23.2641-83.3829Q26.5266-86.6439 32.8818-86.6439L110.188-86.6439Q116.389-86.6439 119.729-83.3829Q123.069-80.1218 123.069-73.7607L123.069 3.53691Q123.069 9.9011 119.729 13.1606Q116.389 16.4201 110.188 16.4201ZM70.4821-22.7001Q71.3587-22.7001 71.8805-23.2977Q72.4022-23.8953 72.4022-24.7478Q72.4022-25.37 72.4022-25.8777Q72.4022-26.3853 72.4022-27.0106Q72.4022-29.968 73.9332-32.1288Q75.4642-34.2896 79.2198-36.8449Q84.1877-40.2818 86.2792-43.4258Q88.3706-46.5697 88.3706-50.9727Q88.3706-56.7017 83.6831-60.498Q78.9956-64.2943 71.7216-64.2943Q64.4446-64.2943 60.0657-60.5759Q55.6868-56.8575 55.0133-51.9017Q54.8343-51.1387 54.8343-49.6851Q54.8343-48.5913 55.3963-48.0802Q55.9582-47.569 56.7212-47.569Q57.5647-47.569 58.1517-47.9831Q58.7388-48.3973 58.778-49.2196L58.9067-50.054Q59.0596-53.9402 62.5855-57.2721Q66.1113-60.6039 71.5517-60.6039Q77.3499-60.6039 80.7285-57.7762Q84.1072-54.9484 84.1072-50.642Q84.1072-47.3478 82.2887-44.8744Q80.4702-42.401 75.83-39.2023Q71.8391-36.4057 70.1247-33.7056Q68.4102-31.0055 68.4102-27.2639Q68.4102-26.5643 68.4102-26.0179Q68.4102-25.4716 68.4102-24.8494Q68.4102-22.7001 70.4821-22.7001ZM70.3987-6.10836Q72.2132-6.10836 73.4572-7.38504Q74.7012-8.66173 74.7012-10.3988Q74.7012-12.1389 73.4572-13.3754Q72.2132-14.6119 70.3987-14.6119Q68.5842-14.6119 67.3401-13.3739Q66.0961-12.1359 66.0961-10.3988Q66.0961-8.66474 67.3401-7.38655Q68.5842-6.10836 70.3987-6.10836Z"/>
  </g>
  <g id="Ultralight-L" transform="matrix(1 0 0 1 488.735 1556)">
   <path d="M32.0258 19.7847L109.918 19.7847Q117.747 19.7847 121.803 15.6313Q125.86 11.4778 125.86 3.81015L125.86-74.0974Q125.86-81.7651 121.803-85.8729Q117.747-89.9806 109.918-89.9806L32.0258-89.9806Q24.1864-89.9806 20.1352-85.9185Q16.084-81.8564 16.084-74.0974L16.084 3.81015Q16.084 11.6604 20.1352 15.7226Q24.1864 19.7847 32.0258 19.7847ZM32.1867 17.2542Q25.4701 17.2542 22.0477 13.8209Q18.6253 10.3877 18.6253 3.70373L18.6253-73.8997Q18.6253-80.5945 22.0477-84.0223Q25.4701-87.4502 32.1867-87.4502L109.757-87.4502Q116.291-87.4502 119.805-84.0223Q123.319-80.5945 123.319-73.8997L123.319 3.70373Q123.319 10.3877 119.805 13.8209Q116.291 17.2542 109.757 17.2542ZM69.9538-22.8113Q70.4968-22.8113 70.8378-23.249Q71.1788-23.6868 71.1788-24.3169Q71.1788-25.0364 71.1788-25.6136Q71.1788-26.1907 71.1788-26.8994Q71.1788-29.9402 72.6959-32.1497Q74.213-34.3591 78.0798-36.9978Q83.1312-40.5321 85.0349-43.6412Q86.9387-46.7504 86.9387-50.8754Q86.9387-56.1456 82.5431-59.8655Q78.1476-63.5853 71.0404-63.5853Q63.9441-63.5853 59.732-59.7696Q55.52-55.9539 54.9855-50.859Q54.8899-50.2767 54.8899-48.851Q54.8899-47.9796 55.2712-47.6005Q55.6524-47.2214 56.2347-47.2214Q56.8974-47.2214 57.3732-47.58Q57.8491-47.9385 57.7076-48.6774L57.6139-49.3728Q57.433-53.5093 61.2022-57.2373Q64.9714-60.9654 70.9122-60.9654Q77.0441-60.9654 80.6034-58.0125Q84.1628-55.0597 84.1628-50.5864Q84.1628-47.2783 82.386-44.7145Q80.6092-42.1507 75.8578-38.8686Q71.7279-35.9886 70.1316-33.3163Q68.5353-30.644 68.5353-27.0971Q68.5353-26.2862 68.5353-25.6634Q68.5353-25.0406 68.5353-24.3211Q68.5353-22.8113 69.9538-22.8113ZM69.8843-6.70615Q71.4903-6.70615 72.5605-7.84381Q73.6307-8.98147 73.6307-10.4961Q73.6307-11.9999 72.5605-13.0974Q71.4903-14.1948 69.8843-14.1948Q68.2783-14.1948 67.2081-13.1028Q66.1378-12.0108 66.1378-10.4961Q66.1378-8.97059 67.2081-7.83837Q68.2783-6.70615 69.8843-6.70615Z"/>
  </g>
  <g id="Black-M" transform="matrix(1 0 0 1 2872.54 1126)">
   <path d="M31.6183 13.203L90.1012 13.203Q99.1693 13.203 104.214 8.16134Q109.259 3.11973 109.259-5.93791L109.259-64.4591Q109.259-73.5167 104.214-78.5585Q99.1693-83.6003 90.1012-83.6003L31.6183-83.6003Q22.5558-83.6003 17.5084-78.5583Q12.4609-73.5164 12.4609-64.4591L12.4609-5.93791Q12.4609 3.11912 17.5084 8.16104Q22.5558 13.203 31.6183 13.203ZM34.2552-4.14063Q32.0406-4.14063 30.9198-5.17025Q29.799-6.19988 29.799-8.60232L29.799-61.795Q29.799-64.249 30.9198-65.2528Q32.0406-66.2567 34.2552-66.2567L87.4644-66.2567Q89.7367-66.2567 90.8286-65.2528Q91.9206-64.249 91.9206-61.795L91.9206-8.60232Q91.9206-6.19988 90.8286-5.17025Q89.7367-4.14063 87.4644-4.14063ZM59.408-27.1528Q62.1617-27.1528 64.0917-28.2518Q66.0217-29.3509 66.5356-31.0899Q66.5927-31.2071 66.6212-31.3847Q66.6498-31.5623 66.7069-31.628Q67.2778-32.8725 68.7812-33.9644Q70.2845-35.0564 71.9126-36.0464Q75.8566-38.4586 77.4627-40.788Q79.0688-43.1175 79.0688-46.8206Q79.0688-52.9625 73.9145-56.8918Q68.7603-60.8211 61.0313-60.8211Q54.8383-60.8211 50.3514-58.6477Q45.8645-56.4742 44.1119-52.7807Q43.3833-51.2347 43.3833-49.5883Q43.3833-47.3199 45.0019-45.5519Q46.6204-43.7839 49.3654-43.7839Q51.0879-43.7839 52.4816-44.3459Q53.8754-44.9079 54.8606-46.192L55.1253-46.5276Q56.1764-47.8826 57.1681-48.318Q58.1599-48.7534 59.2343-48.7534Q60.567-48.7534 61.5446-47.8473Q62.5222-46.9412 62.5222-45.8697Q62.5222-44.2342 61.0753-43.1665Q59.6283-42.0988 56.9723-40.2678Q54.4832-38.5198 52.9852-36.8213Q51.4872-35.1227 51.4872-32.9789Q51.4872-32.919 51.4872-32.9129Q51.4872-32.9067 51.4872-32.8466Q51.4872-27.1528 59.408-27.1528ZM59.4544-10.419Q62.849-10.419 64.9944-12.1536Q67.1398-13.8881 67.1398-17.0547Q67.1398-20.1697 64.9944-21.9302Q62.849-23.6907 59.4544-23.6907Q56.1168-23.6907 53.8857-21.956Q51.6547-20.2213 51.6547-17.0547Q51.6547-13.8937 53.8857-12.1564Q56.1168-10.419 59.4544-10.419Z"/>
  </g>
  <g id="Heavy-M" transform="matrix(1 0 0 1 2576.65 1126)">
   <path d="M30.7128 12.3923L89.3692 12.3923Q98.107 12.3923 102.864 7.64094Q107.621 2.88957 107.621-5.81086L107.621-64.5834Q107.621-73.2838 102.864-78.0339Q98.107-82.7841 89.3692-82.7841L30.7128-82.7841Q21.9913-82.7841 17.2261-78.0352Q12.4609-73.2862 12.4609-64.5834L12.4609-5.81086Q12.4609 2.89446 17.2261 7.64338Q21.9913 12.3923 30.7128 12.3923ZM32.7568-2.72252Q30.2012-2.72252 28.8804-3.96168Q27.5595-5.20084 27.5595-7.93601L27.5595-62.4558Q27.5595-65.2183 28.8804-66.4438Q30.2012-67.6693 32.7568-67.6693L87.3253-67.6693Q89.9196-67.6693 91.221-66.4438Q92.5225-65.2183 92.5225-62.4558L92.5225-7.93601Q92.5225-5.20084 91.221-3.96168Q89.9196-2.72252 87.3253-2.72252ZM58.7106-26.6762Q61.2501-26.6762 62.9692-27.7571Q64.6883-28.838 65.0809-30.5061Q65.1245-30.6291 65.1463-30.8002Q65.1681-30.9713 65.2118-31.067Q65.648-32.4897 67.0879-33.6788Q68.5279-34.868 70.3666-36.0228Q74.2193-38.4137 75.9837-40.797Q77.748-43.1802 77.748-47.0439Q77.748-53.1625 72.7122-56.9217Q67.6763-60.6809 60.3036-60.6809Q54.0925-60.6809 49.7262-58.4208Q45.3599-56.1608 43.783-52.5475Q43.1248-51.0777 43.1248-49.5312Q43.1248-47.4145 44.6133-45.8613Q46.1018-44.3081 48.4876-44.3081Q50.107-44.3081 51.371-44.8591Q52.6349-45.41 53.544-46.6103L53.9533-47.134Q55.0597-48.6733 56.2612-49.2881Q57.4628-49.9028 58.8653-49.9028Q60.6683-49.9028 61.8837-48.7968Q63.0992-47.6908 63.0992-46.2225Q63.0992-44.3822 61.6268-43.1888Q60.1544-41.9954 57.3686-40.0805Q54.8519-38.3026 53.2965-36.4883Q51.741-34.6739 51.741-32.1913Q51.741-32.1094 51.741-32.068Q51.741-32.0265 51.741-31.9471Q51.741-26.6762 58.7106-26.6762ZM58.7193-10.4564Q61.8167-10.4564 63.8267-12.1298Q65.8367-13.8032 65.8367-16.7236Q65.8367-19.6167 63.8267-21.3026Q61.8167-22.9884 58.7193-22.9884Q55.6655-22.9884 53.5901-21.3163Q51.5147-19.6441 51.5147-16.7236Q51.5147-13.8194 53.5901-12.1379Q55.6655-10.4564 58.7193-10.4564Z"/>
  </g>
  <g id="Bold-M" transform="matrix(1 0 0 1 2280.85 1126)">
   <path d="M29.6999 11.4855L88.5504 11.4855Q96.9187 11.4855 101.354 7.05878Q105.789 2.6321 105.789-5.66875L105.789-64.7224Q105.789-73.0233 101.354-77.4472Q96.9187-81.8711 88.5504-81.8711L29.6999-81.8711Q21.3597-81.8711 16.9103-77.4499Q12.4609-73.0288 12.4609-64.7224L12.4609-5.66875Q12.4609 2.64314 16.9103 7.0643Q21.3597 11.4855 29.6999 11.4855ZM31.0806-1.13616Q28.1436-1.13616 26.5989-2.60972Q25.0543-4.08328 25.0543-7.19066L25.0543-63.195Q25.0543-66.3027 26.5989-67.7761Q28.1436-69.2495 31.0806-69.2495L87.1696-69.2495Q90.1241-69.2495 91.66-67.7761Q93.1959-66.3027 93.1959-63.195L93.1959-7.19066Q93.1959-4.08328 91.66-2.60972Q90.1241-1.13616 87.1696-1.13616ZM57.9305-26.1431Q60.2304-26.1431 61.7136-27.2037Q63.1967-28.2643 63.4537-29.853Q63.4822-29.9825 63.4965-30.1464Q63.5107-30.3103 63.5393-30.4395Q63.8248-32.0615 65.1938-33.3594Q66.5629-34.6573 68.6372-35.9963Q72.3878-38.3636 74.3292-40.8069Q76.2706-43.2503 76.2706-47.2937Q76.2706-53.3861 71.3672-56.9551Q66.4637-60.524 59.4897-60.524Q53.2583-60.524 49.0269-58.1671Q44.7954-55.8101 43.4151-52.2867Q42.8356-50.9021 42.8356-49.4672Q42.8356-47.5203 44.1786-46.2074Q45.5216-44.8944 47.5057-44.8944Q49.0097-44.8944 50.1285-45.4331Q51.2473-45.9718 52.0711-47.0783L52.6423-47.8124Q53.8105-49.5577 55.2468-50.3732Q56.683-51.1887 58.4525-51.1887Q60.7815-51.1887 62.263-49.859Q63.7445-48.5294 63.7445-46.6172Q63.7445-44.5477 62.2437-43.2137Q60.7429-41.8798 57.8119-39.871Q55.2645-38.0596 53.6447-36.1158Q52.0249-34.1719 52.0249-31.3103Q52.0249-31.2038 52.0249-31.1228Q52.0249-31.0418 52.0249-30.9409Q52.0249-26.1431 57.9305-26.1431ZM57.8971-10.4982Q60.662-10.4982 62.5204-12.1032Q64.3789-13.7081 64.3789-16.3533Q64.3789-18.9981 62.5204-20.6004Q60.662-22.2028 57.8971-22.2028Q55.1607-22.2028 53.2594-20.6006Q51.3581-18.9984 51.3581-16.3533Q51.3581-13.7363 53.2594-12.1173Q55.1607-10.4982 57.8971-10.4982Z"/>
  </g>
  <g id="Semibold-M" transform="matrix(1 0 0 1 1984.77 1126)">
   <path d="M29.0015 10.8603L87.9858 10.8603Q96.0995 10.8603 100.313 6.65745Q104.526 2.45461 104.526-5.57077L104.526-64.8183Q104.526-72.8436 100.313-77.0427Q96.0995-81.2417 87.9858-81.2417L29.0015-81.2417Q20.9244-81.2417 16.6926-77.0465Q12.4609-72.8513 12.4609-64.8183L12.4609-5.57077Q12.4609 2.46989 16.6926 6.66509Q20.9244 10.8603 29.0015 10.8603ZM29.925-0.0425279Q26.725-0.0425279 25.0262-1.67768Q23.3273-3.31284 23.3273-6.67681L23.3273-63.7046Q23.3273-67.0502 25.0262-68.6945Q26.725-70.3389 29.925-70.3389L87.0623-70.3389Q90.2652-70.3389 91.9626-68.6945Q93.6601-67.0502 93.6601-63.7046L93.6601-6.67681Q93.6601-3.31284 91.9626-1.67768Q90.2652-0.0425279 87.0623-0.0425279ZM57.3927-25.7756Q59.5274-25.7756 60.8479-26.8222Q62.1684-27.8688 62.3318-29.4028Q62.35-29.5368 62.3591-29.6956Q62.3681-29.8545 62.3863-30.0068Q62.5679-31.7662 63.888-33.1391Q65.2082-34.512 67.445-35.9781Q71.1252-38.329 73.1886-40.8138Q75.2521-43.2987 75.2521-47.4659Q75.2521-53.5403 70.4399-56.9781Q65.6277-60.4159 58.9286-60.4159Q52.6832-60.4159 48.5447-57.9922Q44.4063-55.5684 43.1615-52.1069Q42.6363-50.7811 42.6363-49.4232Q42.6363-47.5933 43.879-46.446Q45.1217-45.2987 46.8288-45.2987Q48.2533-45.2987 49.272-45.8288Q50.2907-46.359 51.0558-47.4008L51.7385-48.28Q52.9494-50.1674 54.5474-51.1213Q56.1455-52.0751 58.1679-52.0751Q60.8595-52.0751 62.5245-50.5913Q64.1895-49.1075 64.1895-46.8893Q64.1895-44.6618 62.669-43.2309Q61.1486-41.8 58.1174-39.7266Q55.5489-37.8921 53.8848-35.859Q52.2207-33.8258 52.2207-30.7029Q52.2207-30.5795 52.2207-30.4712Q52.2207-30.363 52.2207-30.2472Q52.2207-25.7756 57.3927-25.7756ZM57.3302-10.527Q59.8659-10.527 61.6199-12.0848Q63.374-13.6425 63.374-16.0979Q63.374-18.5716 61.6199-20.1164Q59.8659-21.6612 57.3302-21.6612Q54.8127-21.6612 53.0315-20.1072Q51.2502-18.5533 51.2502-16.0979Q51.2502-13.6791 53.0315-12.103Q54.8127-10.527 57.3302-10.527Z"/>
  </g>
  <g id="Medium-M" transform="matrix(1 0 0 1 1688.54 1126)">
   <path d="M28.472 10.3863L87.5578 10.3863Q95.4783 10.3863 99.5236 6.35315Q103.569 2.32003 103.569-5.49648L103.569-64.8909Q103.569-72.7075 99.5236-76.736Q95.4783-80.7644 87.5578-80.7644L28.472-80.7644Q20.5942-80.7644 16.5276-76.7406Q12.4609-72.7167 12.4609-64.8909L12.4609-5.49648Q12.4609 2.33852 16.5276 6.36239Q20.5942 10.3863 28.472 10.3863ZM29.0488 0.786706Q25.6495 0.786706 23.8336-0.970977Q22.0177-2.72866 22.0177-6.28719L22.0177-64.091Q22.0177-67.617 23.8336-69.391Q25.6495-71.1649 29.0488-71.1649L86.981-71.1649Q90.3721-71.1649 92.1921-69.391Q94.0121-67.617 94.0121-64.091L94.0121-6.28719Q94.0121-2.72866 92.1921-0.970977Q90.3721 0.786706 86.981 0.786706ZM56.9849-25.4969Q58.9944-25.4969 60.1916-26.5329Q61.3887-27.5689 61.4812-29.0614Q61.4915-29.1988 61.4966-29.3539Q61.5018-29.509 61.5121-29.6788Q61.6148-31.5424 62.8979-32.9721Q64.181-34.4019 66.541-35.9642Q70.1678-38.3028 72.3238-40.819Q74.4798-43.3353 74.4798-47.5965Q74.4798-53.6573 69.7368-56.9956Q64.9939-60.3339 58.5031-60.3339Q52.2471-60.3339 48.1792-57.8595Q44.1112-55.3851 42.9692-51.9706Q42.4851-50.6893 42.4851-49.3897Q42.4851-47.6487 43.6518-46.6269Q44.8184-45.6052 46.3156-45.6052Q47.6797-45.6052 48.6225-46.1289Q49.5653-46.6527 50.2859-47.6454L51.0532-48.6346Q52.2964-50.6297 54.0171-51.6885Q55.7379-52.7473 57.9521-52.7473Q60.9187-52.7473 62.7228-51.1466Q64.5268-49.5459 64.5268-47.0956Q64.5268-44.7483 62.9915-43.2439Q61.4562-41.7396 58.3492-39.6171Q55.7645-37.7651 54.0668-35.6642Q52.3691-33.5634 52.3691-30.2424Q52.3691-30.1061 52.3691-29.9772Q52.3691-29.8483 52.3691-29.7212Q52.3691-25.4969 56.9849-25.4969ZM56.9004-10.5489Q59.2622-10.5489 60.9371-12.0709Q62.6119-13.5929 62.6119-15.9043Q62.6119-18.2483 60.9371-19.7494Q59.2622-21.2505 56.9004-21.2505Q54.5489-21.2505 52.8586-19.7331Q51.1683-18.2158 51.1683-15.9043Q51.1683-13.6356 52.8586-12.0923Q54.5489-10.5489 56.9004-10.5489Z"/>
  </g>
  <g id="Regular-M" transform="matrix(1 0 0 1 1392.45 1126)">
   <path d="M27.7814 9.76797L86.9995 9.76797Q94.6681 9.76797 98.494 5.95622Q102.32 2.14448 102.32-5.39959L102.32-64.9857Q102.32-72.5298 98.494-76.3359Q94.6681-80.142 86.9995-80.142L27.7814-80.142Q20.1637-80.142 16.3123-76.3416Q12.4609-72.5412 12.4609-64.9857L12.4609-5.39959Q12.4609 2.16717 16.3123 5.96757Q20.1637 9.76797 27.7814 9.76797ZM27.906 1.86832Q24.2465 1.86832 22.2781-0.0491846Q20.3096-1.96668 20.3096-5.77899L20.3096-64.595Q20.3096-68.3563 22.2781-70.2993Q24.2465-72.2423 27.906-72.2423L86.8749-72.2423Q90.5116-72.2423 92.4914-70.2993Q94.4712-68.3563 94.4712-64.595L94.4712-5.77899Q94.4712-1.96668 92.4914-0.0491846Q90.5116 1.86832 86.8749 1.86832ZM56.4531-25.1334Q58.2991-25.1334 59.3354-26.1556Q60.3717-27.1778 60.3717-28.6162Q60.3717-28.7579 60.3717-28.9081Q60.3717-29.0583 60.3717-29.2509Q60.3717-31.2505 61.6065-32.7543Q62.8412-34.2582 65.3619-35.9462Q68.919-38.2686 71.1957-40.8259Q73.4725-43.3831 73.4725-47.7668Q73.4725-53.8098 68.8198-57.0184Q64.1671-60.227 57.9482-60.227Q51.6783-60.227 47.7023-57.6865Q43.7264-55.1461 42.7183-51.7928Q42.288-50.5695 42.288-49.3461Q42.288-47.7208 43.3554-46.8629Q44.4229-46.0049 45.6461-46.0049Q46.9316-46.0049 47.7754-46.5203Q48.6192-47.0357 49.2817-47.9645L50.1593-49.0971Q51.4447-51.2328 53.3254-52.4284Q55.2062-53.624 57.6707-53.624Q60.9959-53.624 62.9814-51.8708Q64.9669-50.1176 64.9669-47.3647Q64.9669-44.8611 63.4121-43.2609Q61.8574-41.6607 58.6514-39.4743Q56.0458-37.5994 54.3042-35.4103Q52.5627-33.2211 52.5627-29.6417Q52.5627-29.4886 52.5627-29.3328Q52.5627-29.1769 52.5627-29.0352Q52.5627-25.1334 56.4531-25.1334ZM56.3398-10.5774Q58.4749-10.5774 60.0465-12.0527Q61.618-13.528 61.618-15.6518Q61.618-17.8265 60.0465-19.2707Q58.4749-20.7148 56.3398-20.7148Q54.2047-20.7148 52.6331-19.2452Q51.0616-17.7755 51.0616-15.6518Q51.0616-13.579 52.6331-12.0782Q54.2047-10.5774 56.3398-10.5774Z"/>
  </g>
  <g id="Light-M" transform="matrix(1 0 0 1 1096.49 1126)">
   <path d="M26.8614 9.03201L86.4291 9.03201Q93.601 9.03201 97.2153 5.40425Q100.83 1.7765 100.83-5.27079L100.83-65.0961Q100.83-72.1434 97.2153-75.7563Q93.601-79.3692 86.4291-79.3692L26.8614-79.3692Q19.7221-79.3692 16.0915-75.7712Q12.4609-72.1732 12.4609-65.0961L12.4609-5.27079Q12.4609 1.83599 16.0915 5.434Q19.7221 9.03201 26.8614 9.03201ZM26.986 2.97226Q22.8482 2.97226 20.6682 0.824768Q18.4881-1.32272 18.4881-5.55821L18.4881-64.779Q18.4881-68.9819 20.6682-71.1457Q22.8482-73.3094 26.986-73.3094L86.3045-73.3094Q90.3828-73.3094 92.5926-71.1457Q94.8024-68.9819 94.8024-64.779L94.8024-5.55821Q94.8024-1.32272 92.5926 0.824768Q90.3828 2.97226 86.3045 2.97226ZM55.7539-25.2806Q57.1584-25.2806 57.9555-26.0912Q58.7526-26.9018 58.7526-28.0458Q58.7526-28.3163 58.7526-28.5585Q58.7526-28.8007 58.7526-29.1037Q58.7526-31.2137 59.969-32.7819Q61.1853-34.3502 63.8532-36.1486Q67.5207-38.5998 69.549-41.111Q71.5774-43.6223 71.5774-47.638Q71.5774-53.0738 67.3111-56.1812Q63.0448-59.2886 57.0466-59.2886Q51.0159-59.2886 47.2607-56.6194Q43.5056-53.9501 42.6815-50.4128Q42.3616-49.4288 42.3616-48.2422Q42.3616-46.9113 43.1898-46.2281Q44.0181-45.545 45.0021-45.545Q46.0484-45.545 46.7451-45.9867Q47.4417-46.4285 47.865-47.2469L48.4482-48.1956Q49.292-50.6624 51.4947-52.3824Q53.6975-54.1024 56.8243-54.1024Q60.5911-54.1024 62.8158-52.1836Q65.0405-50.2648 65.0405-47.2911Q65.0405-44.7691 63.5409-43.0493Q62.0414-41.3295 58.6882-39.0327Q55.8986-37.0474 54.3134-34.8951Q52.7282-32.7428 52.7282-29.4209Q52.7282-29.1206 52.7282-28.8636Q52.7282-28.6065 52.7282-28.336Q52.7282-25.2806 55.7539-25.2806ZM55.659-11.3686Q57.5181-11.3686 58.8597-12.6599Q60.2013-13.9512 60.2013-15.7806Q60.2013-17.6425 58.8597-18.9027Q57.5181-20.1628 55.659-20.1628Q53.7999-20.1628 52.4583-18.8864Q51.1168-17.6099 51.1168-15.7806Q51.1168-13.9838 52.4583-12.6762Q53.7999-11.3686 55.659-11.3686Z"/>
  </g>
  <g id="Thin-M" transform="matrix(1 0 0 1 800.76 1126)">
   <path d="M25.6447 8.05864L85.6747 8.05864Q92.1896 8.05864 95.5241 4.67423Q98.8585 1.28982 98.8585-5.10045L98.8585-65.2421Q98.8585-71.6324 95.5241-74.9898Q92.1896-78.3472 85.6747-78.3472L25.6447-78.3472Q19.1381-78.3472 15.7995-75.0168Q12.4609-71.6865 12.4609-65.2421L12.4609-5.10045Q12.4609 1.39797 15.7995 4.72831Q19.1381 8.05864 25.6447 8.05864ZM25.7693 4.43231Q20.9988 4.43231 18.5389 1.98064Q16.079-0.471023 16.079-5.2662L16.079-65.0223Q16.079-69.8093 18.5389-72.2651Q20.9988-74.7208 25.7693-74.7208L85.5501-74.7208Q90.2125-74.7208 92.7264-72.2651Q95.2404-69.8093 95.2404-65.0223L95.2404-5.2662Q95.2404-0.471023 92.7264 1.98064Q90.2125 4.43231 85.5501 4.43231ZM54.8292-25.4753Q55.6497-25.4753 56.1304-26.006Q56.6112-26.5368 56.6112-27.2914Q56.6112-27.7323 56.6112-28.0961Q56.6112-28.46 56.6112-28.9091Q56.6112-31.165 57.8032-32.8184Q58.9952-34.4719 61.8578-36.4162Q65.6713-39.0378 67.3711-41.4882Q69.0709-43.9387 69.0709-47.4676Q69.0709-52.1004 65.3157-55.074Q61.5604-58.0476 55.8543-58.0476Q50.1399-58.0476 46.6767-55.208Q43.2136-52.3684 42.6329-48.5878Q42.4589-47.9201 42.4589-46.7821Q42.4589-45.8406 42.9708-45.3886Q43.4827-44.9366 44.1504-44.9366Q44.8804-44.9366 45.3823-45.281Q45.8843-45.6255 45.9912-46.2979L46.1852-47.0032Q46.4449-49.908 49.0735-52.3215Q51.7021-54.735 55.705-54.735Q60.0558-54.735 62.5968-52.5973Q65.1378-50.4595 65.1378-47.1937Q65.1378-44.6475 63.7113-42.7695Q62.2847-40.8915 58.7369-38.4487Q55.7039-36.3174 54.3256-34.2137Q52.9473-32.1101 52.9473-29.1289Q52.9473-28.634 52.9473-28.2431Q52.9473-27.8522 52.9473-27.4113Q52.9473-25.4753 54.8292-25.4753ZM54.7587-12.4149Q56.2528-12.4149 57.2902-13.4629Q58.3276-14.5109 58.3276-15.9509Q58.3276-17.3992 57.2902-18.416Q56.2528-19.4328 54.7587-19.4328Q53.2646-19.4328 52.2272-18.4119Q51.1898-17.3909 51.1898-15.9509Q51.1898-14.5191 52.2272-13.467Q53.2646-12.4149 54.7587-12.4149Z"/>
  </g>
  <g id="Ultralight-M" transform="matrix(1 0 0 1 504.553 1126)">
   <path d="M25.0215 7.56009L85.2884 7.56009Q91.4667 7.56009 94.6578 4.30031Q97.8489 1.04054 97.8489-5.01321L97.8489-65.3169Q97.8489-71.3707 94.6578-74.5972Q91.4667-77.8237 85.2884-77.8237L25.0215-77.8237Q18.8389-77.8237 15.6499-74.6305Q12.4609-71.4372 12.4609-65.3169L12.4609-5.01321Q12.4609 1.17363 15.6499 4.36686Q18.8389 7.56009 25.0215 7.56009ZM25.1461 5.18014Q20.0516 5.18014 17.4483 2.57267Q14.8451-0.034789 14.8451-5.11663L14.8451-65.147Q14.8451-70.233 17.4483-72.8384Q20.0516-75.4437 25.1461-75.4437L85.1638-75.4437Q90.1252-75.4437 92.795-72.8384Q95.4648-70.233 95.4648-65.147L95.4648-5.11663Q95.4648-0.034789 92.795 2.57267Q90.1252 5.18014 85.1638 5.18014ZM54.3556-25.575Q54.8769-25.575 55.1957-25.9624Q55.5144-26.3498 55.5144-26.9051Q55.5144-27.4332 55.5144-27.8593Q55.5144-28.2855 55.5144-28.8094Q55.5144-31.1401 56.6939-32.8371Q57.8735-34.5342 60.8357-36.5534Q64.724-39.2621 66.2556-41.6814Q67.7872-44.1007 67.7872-47.3804Q67.7872-51.6019 64.2936-54.5069Q60.8001-57.4119 55.2435-57.4119Q49.6912-57.4119 46.3776-54.4851Q43.064-51.5582 42.6079-47.653Q42.5087-47.1473 42.5087-46.0343Q42.5087-45.2922 42.8586-44.9586Q43.2085-44.625 43.7142-44.625Q44.2821-44.625 44.6844-44.9196Q45.0866-45.2142 45.0315-45.8118L45.026-46.3925Q44.9866-49.5217 47.8333-52.2904Q50.6801-55.0591 55.1316-55.0591Q59.7816-55.0591 62.4846-52.8091Q65.1877-50.5592 65.1877-47.1439Q65.1877-44.5852 63.7985-42.6262Q62.4094-40.6672 58.7618-38.1496Q55.6042-35.9435 54.3318-33.8647Q53.0594-31.786 53.0594-28.9793Q53.0594-28.3847 53.0594-27.9252Q53.0594-27.4658 53.0594-26.9377Q53.0594-25.575 54.3556-25.575ZM54.2975-12.9509Q55.6046-12.9509 56.4862-13.8742Q57.3678-14.7976 57.3678-16.0382Q57.3678-17.2745 56.4862-18.1667Q55.6046-19.0589 54.2975-19.0589Q52.9904-19.0589 52.1088-18.1688Q51.2272-17.2788 51.2272-16.0382Q51.2272-14.7933 52.1088-13.8721Q52.9904-12.9509 54.2975-12.9509Z"/>
  </g>
  <g id="Black-S" transform="matrix(1 0 0 1 2885.5 696)">
   <path d="M25 2.92969L70.8008 2.92969Q77.9785 2.92969 82.0068-1.09863Q86.0352-5.12695 86.0352-12.3047L86.0352-58.1055Q86.0352-65.2832 82.0068-69.3115Q77.9785-73.3398 70.8008-73.3398L25-73.3398Q17.8223-73.3398 13.7939-69.3115Q9.76562-65.2832 9.76562-58.1055L9.76562-12.3047Q9.76562-5.12695 13.7939-1.09863Q17.8223 2.92969 25 2.92969ZM27.2461-11.2305Q25.5859-11.2305 24.7559-11.9873Q23.9258-12.7441 23.9258-14.5508L23.9258-55.8594Q23.9258-57.7148 24.7559-58.4473Q25.5859-59.1797 27.2461-59.1797L68.5547-59.1797Q70.2637-59.1797 71.0693-58.4473Q71.875-57.7148 71.875-55.8594L71.875-14.5508Q71.875-12.7441 71.0693-11.9873Q70.2637-11.2305 68.5547-11.2305ZM46.7285-29.0527Q48.9258-29.0527 50.4883-29.9072Q52.0508-30.7617 52.4902-32.1289Q52.5391-32.2266 52.5635-32.373Q52.5879-32.5195 52.6367-32.5684Q53.125-33.4961 54.3213-34.3262Q55.5176-35.1562 56.7383-35.8887Q59.8633-37.793 61.0596-39.5996Q62.2559-41.4062 62.2559-44.2383Q62.2559-49.0234 58.2031-52.1484Q54.1504-55.2734 47.998-55.2734Q43.1641-55.2734 39.624-53.5889Q36.084-51.9043 34.668-48.9746Q34.082-47.7539 34.082-46.4355Q34.082-44.6289 35.376-43.1885Q36.6699-41.748 38.916-41.748Q40.2832-41.748 41.4062-42.1875Q42.5293-42.627 43.3105-43.6523L43.457-43.8477Q44.2383-44.873 44.9707-45.1904Q45.7031-45.5078 46.4844-45.5078Q47.4121-45.5078 48.1201-44.8486Q48.8281-44.1895 48.8281-43.457Q48.8281-42.2363 47.7051-41.4307Q46.582-40.625 44.5312-39.209Q42.5781-37.8418 41.4307-36.5479Q40.2832-35.2539 40.2832-33.6914Q40.2832-33.6426 40.2832-33.6426Q40.2832-33.6426 40.2832-33.5938Q40.2832-29.0527 46.7285-29.0527ZM46.7773-15.8203Q49.5117-15.8203 51.2207-17.1875Q52.9297-18.5547 52.9297-21.0938Q52.9297-23.584 51.2207-24.9756Q49.5117-26.3672 46.7773-26.3672Q44.0918-26.3672 42.3096-25Q40.5273-23.6328 40.5273-21.0938Q40.5273-18.5547 42.3096-17.1875Q44.0918-15.8203 46.7773-15.8203Z"/>
  </g>
  <g id="Heavy-S" transform="matrix(1 0 0 1 2589.39 696)">
   <path d="M24.3431 2.33042L70.2476 2.33042Q77.2064 2.33042 81.0157-1.47318Q84.8251-5.27677 84.8251-12.2125L84.8251-58.1977Q84.8251-65.1334 81.0157-68.937Q77.2064-72.7406 70.2476-72.7406L24.3431-72.7406Q17.3959-72.7406 13.5807-68.937Q9.76562-65.1334 9.76562-58.1977L9.76562-12.2125Q9.76562-5.27677 13.5807-1.47318Q17.3959 2.33042 24.3431 2.33042ZM26.0821-10.1587Q24.1915-10.1587 23.2173-11.0653Q22.2432-11.972 22.2432-14.0091L22.2432-56.401Q22.2432-58.4639 23.2173-59.3577Q24.1915-60.2515 26.0821-60.2515L68.5086-60.2515Q70.4365-60.2515 71.392-59.3577Q72.3475-58.4639 72.3475-56.401L72.3475-14.0091Q72.3475-11.972 71.392-11.0653Q70.4365-10.1587 68.5086-10.1587ZM46.2214-28.6263Q48.2919-28.6263 49.7046-29.4923Q51.1173-30.3584 51.453-31.7025Q51.4903-31.7886 51.509-31.9178Q51.5276-32.047 51.5649-32.1074Q51.938-33.1734 53.0824-34.0784Q54.2268-34.9834 55.6089-35.8426Q58.6417-37.7123 60.0051-39.5708Q61.3685-41.4293 61.3685-44.4457Q61.3685-49.2885 57.3676-52.281Q53.3667-55.2734 47.491-55.2734Q42.6109-55.2734 39.1458-53.5312Q35.6806-51.7891 34.3914-48.9516Q33.8515-47.7654 33.8515-46.5277Q33.8515-44.8133 35.0648-43.5342Q36.2781-42.2551 38.2476-42.2551Q39.5572-42.2551 40.588-42.6946Q41.6189-43.134 42.3655-44.1018L42.6734-44.4815Q43.5583-45.6221 44.4291-46.026Q45.2998-46.4298 46.2769-46.4298Q47.5504-46.4298 48.4313-45.6208Q49.3122-44.8118 49.3122-43.7682Q49.3122-42.3746 48.1603-41.4768Q47.0084-40.5789 44.8655-39.1053Q42.9123-37.7266 41.6957-36.3289Q40.4791-34.9312 40.4791-33.046Q40.4791-32.9972 40.4791-32.9799Q40.4791-32.9626 40.4791-32.9138Q40.4791-28.6263 46.2214-28.6263ZM46.2357-15.7512Q48.7511-15.7512 50.3737-17.0895Q51.9962-18.4279 51.9962-20.7941Q51.9962-23.1345 50.3737-24.4858Q48.7511-25.8371 46.2357-25.8371Q43.7576-25.8371 42.0791-24.4987Q40.4006-23.1603 40.4006-20.7941Q40.4006-18.4394 42.0791-17.0953Q43.7576-15.7512 46.2357-15.7512Z"/>
  </g>
  <g id="Bold-S" transform="matrix(1 0 0 1 2293.36 696)">
   <path d="M23.6084 1.66016L69.6289 1.66016Q76.3428 1.66016 79.9072-1.89209Q83.4717-5.44434 83.4717-12.1094L83.4717-58.3008Q83.4717-64.9658 79.9072-68.5181Q76.3428-72.0703 69.6289-72.0703L23.6084-72.0703Q16.9189-72.0703 13.3423-68.5181Q9.76562-64.9658 9.76562-58.3008L9.76562-12.1094Q9.76562-5.44434 13.3423-1.89209Q16.9189 1.66016 23.6084 1.66016ZM24.7803-8.95996Q22.6318-8.95996 21.4966-10.0342Q20.3613-11.1084 20.3613-13.4033L20.3613-57.0068Q20.3613-59.3018 21.4966-60.376Q22.6318-61.4502 24.7803-61.4502L68.457-61.4502Q70.6299-61.4502 71.7529-60.376Q72.876-59.3018 72.876-57.0068L72.876-13.4033Q72.876-11.1084 71.7529-10.0342Q70.6299-8.95996 68.457-8.95996ZM45.6543-28.1494Q47.583-28.1494 48.8281-29.0283Q50.0732-29.9072 50.293-31.2256Q50.3174-31.2988 50.3296-31.4087Q50.3418-31.5186 50.3662-31.5918Q50.6104-32.8125 51.6968-33.8013Q52.7832-34.79 54.3457-35.791Q57.2754-37.6221 58.8257-39.5386Q60.376-41.4551 60.376-44.6777Q60.376-49.585 56.4331-52.4292Q52.4902-55.2734 46.9238-55.2734Q41.9922-55.2734 38.6108-53.4668Q35.2295-51.6602 34.082-48.9258Q33.5938-47.7783 33.5938-46.6309Q33.5938-45.0195 34.7168-43.9209Q35.8398-42.8223 37.5-42.8223Q38.7451-42.8223 39.6729-43.2617Q40.6006-43.7012 41.3086-44.6045L41.7969-45.1904Q42.7979-46.46 43.8232-46.9604Q44.8486-47.4609 46.0449-47.4609Q47.7051-47.4609 48.7793-46.4844Q49.8535-45.5078 49.8535-44.1162Q49.8535-42.5293 48.6694-41.5283Q47.4854-40.5273 45.2393-38.9893Q43.2861-37.5977 41.9922-36.084Q40.6982-34.5703 40.6982-32.3242Q40.6982-32.2754 40.6982-32.2388Q40.6982-32.2021 40.6982-32.1533Q40.6982-28.1494 45.6543-28.1494ZM45.6299-15.6738Q47.9004-15.6738 49.4263-16.98Q50.9521-18.2861 50.9521-20.459Q50.9521-22.6318 49.4263-23.938Q47.9004-25.2441 45.6299-25.2441Q43.3838-25.2441 41.8213-23.938Q40.2588-22.6318 40.2588-20.459Q40.2588-18.3105 41.8213-16.9922Q43.3838-15.6738 45.6299-15.6738Z"/>
  </g>
  <g id="Semibold-S" transform="matrix(1 0 0 1 1997.11 696)">
   <path d="M23.1019 1.19805L69.2023 1.19805Q75.7474 1.19805 79.143-2.18091Q82.5386-5.55986 82.5386-12.0383L82.5386-58.3719Q82.5386-64.8503 79.143-68.2292Q75.7474-71.6082 69.2023-71.6082L23.1019-71.6082Q16.5901-71.6082 13.1779-68.2292Q9.76562-64.8503 9.76562-58.3719L9.76562-12.0383Q9.76562-5.55986 13.1779-2.18091Q16.5901 1.19805 23.1019 1.19805ZM23.8827-8.1335Q21.5565-8.1335 20.3102-9.32324Q19.0639-10.513 19.0639-12.9856L19.0639-57.4245Q19.0639-59.8794 20.3102-61.078Q21.5565-62.2767 23.8827-62.2767L68.4215-62.2767Q70.7632-62.2767 72.0018-61.078Q73.2403-59.8794 73.2403-57.4245L73.2403-12.9856Q73.2403-10.513 72.0018-9.32324Q70.7632-8.1335 68.4215-8.1335ZM45.2633-27.8206Q47.0942-27.8206 48.2238-28.7084Q49.3534-29.5962 49.4932-30.8968Q49.5087-30.9611 49.5165-31.0577Q49.5242-31.1542 49.5397-31.2363Q49.695-32.5637 50.7415-33.6102Q51.7879-34.6567 53.4748-35.7555Q56.3334-37.5599 58.0125-39.5164Q59.6917-41.4729 59.6917-44.8377Q59.6917-49.7894 55.7888-52.5314Q51.8859-55.2734 46.5328-55.2734Q41.5656-55.2734 38.242-53.4224Q34.9185-51.5713 33.8687-48.908Q33.416-47.7872 33.416-46.702Q33.416-45.1617 34.4769-44.1875Q35.5377-43.2133 36.9846-43.2133Q38.1853-43.2133 39.0419-43.6527Q39.8985-44.0922 40.5799-44.9511L41.1926-45.6792Q42.2735-47.0376 43.4056-47.6047Q44.5376-48.1719 45.885-48.1719Q47.8117-48.1719 49.0192-47.0798Q50.2268-45.9877 50.2268-44.3562Q50.2268-42.6359 49.0205-41.5639Q47.8142-40.4918 45.497-38.9093Q43.5438-37.5088 42.1966-35.9151Q40.8493-34.3215 40.8493-31.8266Q40.8493-31.7777 40.8493-31.7278Q40.8493-31.6778 40.8493-31.629Q40.8493-27.8206 45.2633-27.8206ZM45.2122-15.6205Q47.3139-15.6205 48.7731-16.9044Q50.2323-18.1884 50.2323-20.2279Q50.2323-22.2853 48.7731-23.5603Q47.3139-24.8354 45.2122-24.8354Q43.1261-24.8354 41.6436-23.5514Q40.161-22.2675 40.161-20.2279Q40.161-18.2217 41.6436-16.9211Q43.1261-15.6205 45.2122-15.6205Z"/>
  </g>
  <g id="Medium-S" transform="matrix(1 0 0 1 1700.76 696)">
   <path d="M22.7178 0.847656L68.8789 0.847656Q75.2959 0.847656 78.5635-2.3999Q81.8311-5.64746 81.8311-11.9844L81.8311-58.4258Q81.8311-64.7627 78.5635-68.0103Q75.2959-71.2578 68.8789-71.2578L22.7178-71.2578Q16.3408-71.2578 13.0532-68.0103Q9.76562-64.7627 9.76562-58.4258L9.76562-11.9844Q9.76562-5.64746 13.0532-2.3999Q16.3408 0.847656 22.7178 0.847656ZM23.2021-7.50684Q20.7412-7.50684 19.4106-8.78418Q18.0801-10.0615 18.0801-12.6689L18.0801-57.7412Q18.0801-60.3174 19.4106-61.6104Q20.7412-62.9033 23.2021-62.9033L68.3945-62.9033Q70.8643-62.9033 72.1904-61.6104Q73.5166-60.3174 73.5166-57.7412L73.5166-12.6689Q73.5166-10.0615 72.1904-8.78418Q70.8643-7.50684 68.3945-7.50684ZM44.9668-27.5713Q46.7236-27.5713 47.7656-28.4658Q48.8076-29.3604 48.8867-30.6475Q48.8955-30.7051 48.8999-30.7915Q48.9043-30.8779 48.9131-30.9668Q49.001-32.375 50.0171-33.4653Q51.0332-34.5557 52.8145-35.7285Q55.6191-37.5127 57.396-39.4995Q59.1729-41.4863 59.1729-44.959Q59.1729-49.9443 55.3003-52.6089Q51.4277-55.2734 46.2363-55.2734Q41.2422-55.2734 37.9624-53.3887Q34.6826-51.5039 33.707-48.8945Q33.2812-47.7939 33.2812-46.7559Q33.2812-45.2695 34.2949-44.3896Q35.3086-43.5098 36.5938-43.5098Q37.7607-43.5098 38.5635-43.9492Q39.3662-44.3887 40.0273-45.2139L40.7344-46.0498Q41.876-47.4756 43.0889-48.0933Q44.3018-48.7109 45.7637-48.7109Q47.8926-48.7109 49.2012-47.5312Q50.5098-46.3516 50.5098-44.5381Q50.5098-42.7168 49.2866-41.5908Q48.0635-40.4648 45.6924-38.8486Q43.7393-37.4414 42.3516-35.7871Q40.9639-34.1328 40.9639-31.4492Q40.9639-31.4004 40.9639-31.3403Q40.9639-31.2803 40.9639-31.2314Q40.9639-27.5713 44.9668-27.5713ZM44.8955-15.5801Q46.8691-15.5801 48.2778-16.8472Q49.6865-18.1143 49.6865-20.0527Q49.6865-22.0225 48.2778-23.2739Q46.8691-24.5254 44.8955-24.5254Q42.9307-24.5254 41.5088-23.2583Q40.0869-21.9912 40.0869-20.0527Q40.0869-18.1543 41.5088-16.8672Q42.9307-15.5801 44.8955-15.5801Z"/>
  </g>
  <g id="Regular-S" transform="matrix(1 0 0 1 1404.51 696)">
   <path d="M22.2168 0.390625L68.457 0.390625Q74.707 0.390625 77.8076-2.68555Q80.9082-5.76172 80.9082-11.9141L80.9082-58.4961Q80.9082-64.6484 77.8076-67.7246Q74.707-70.8008 68.457-70.8008L22.2168-70.8008Q16.0156-70.8008 12.8906-67.7246Q9.76562-64.6484 9.76562-58.4961L9.76562-11.9141Q9.76562-5.76172 12.8906-2.68555Q16.0156 0.390625 22.2168 0.390625ZM22.3145-6.68945Q19.6777-6.68945 18.2373-8.08105Q16.7969-9.47266 16.7969-12.2559L16.7969-58.1543Q16.7969-60.8887 18.2373-62.3047Q19.6777-63.7207 22.3145-63.7207L68.3594-63.7207Q70.9961-63.7207 72.4365-62.3047Q73.877-60.8887 73.877-58.1543L73.877-12.2559Q73.877-9.47266 72.4365-8.08105Q70.9961-6.68945 68.3594-6.68945ZM44.5801-27.2461Q46.2402-27.2461 47.168-28.1494Q48.0957-29.0527 48.0957-30.3223Q48.0957-30.3711 48.0957-30.4443Q48.0957-30.5176 48.0957-30.6152Q48.0957-32.1289 49.0723-33.2764Q50.0488-34.4238 51.9531-35.6934Q54.6875-37.4512 56.5918-39.4775Q58.4961-41.5039 58.4961-45.1172Q58.4961-50.1465 54.6631-52.71Q50.8301-55.2734 45.8496-55.2734Q40.8203-55.2734 37.5977-53.3447Q34.375-51.416 33.4961-48.877Q33.1055-47.8027 33.1055-46.8262Q33.1055-45.4102 34.0576-44.6533Q35.0098-43.8965 36.084-43.8965Q37.207-43.8965 37.9395-44.3359Q38.6719-44.7754 39.3066-45.5566L40.1367-46.5332Q41.3574-48.0469 42.6758-48.7305Q43.9941-49.4141 45.6055-49.4141Q47.998-49.4141 49.4385-48.1201Q50.8789-46.8262 50.8789-44.7754Q50.8789-42.8223 49.6338-41.626Q48.3887-40.4297 45.9473-38.7695Q43.9941-37.3535 42.5537-35.6201Q41.1133-33.8867 41.1133-30.957Q41.1133-30.9082 41.1133-30.835Q41.1133-30.7617 41.1133-30.7129Q41.1133-27.2461 44.5801-27.2461ZM44.4824-15.5273Q46.2891-15.5273 47.6318-16.7725Q48.9746-18.0176 48.9746-19.8242Q48.9746-21.6797 47.6318-22.9004Q46.2891-24.1211 44.4824-24.1211Q42.6758-24.1211 41.333-22.876Q39.9902-21.6309 39.9902-19.8242Q39.9902-18.0664 41.333-16.7969Q42.6758-15.5273 44.4824-15.5273Z"/>
  </g>
  <g id="Light-S" transform="matrix(1 0 0 1 1108.45 696)">
   <path d="M21.403-0.260417L67.9525-0.260417Q73.763-0.260417 76.6764-3.17383Q79.5898-6.08724 79.5898-11.8001L79.5898-58.5938Q79.5898-64.3066 76.6764-67.2119Q73.763-70.1172 67.9525-70.1172L21.403-70.1172Q15.625-70.1172 12.6953-67.2201Q9.76562-64.3229 9.76562-58.5938L9.76562-11.8001Q9.76562-6.05469 12.6953-3.15755Q15.625-0.260417 21.403-0.260417ZM21.5007-5.71289Q18.4408-5.71289 16.8132-7.30794Q15.1855-8.90299 15.1855-12.0605L15.1855-58.3171Q15.1855-61.4421 16.8132-63.0534Q18.4408-64.6647 21.5007-64.6647L67.8548-64.6647Q70.8822-64.6647 72.526-63.0534Q74.1699-61.4421 74.1699-58.3171L74.1699-12.0605Q74.1699-8.90299 72.526-7.30794Q70.8822-5.71289 67.8548-5.71289ZM43.9616-27.3763Q45.2311-27.3763 45.9473-28.0924Q46.6634-28.8086 46.6634-29.8177Q46.6634-29.9805 46.6634-30.1351Q46.6634-30.2897 46.6634-30.485Q46.6634-32.0964 47.6237-33.3008Q48.584-34.5052 50.6185-35.8724Q53.4505-37.7441 55.1351-39.7298Q56.8197-41.7155 56.8197-45.0033Q56.8197-49.4954 53.3285-51.9694Q49.8372-54.4434 45.0521-54.4434Q40.2344-54.4434 37.207-52.4007Q34.1797-50.3581 33.4635-47.6562Q33.1706-46.7936 33.1706-45.8496Q33.1706-44.694 33.9111-44.0918Q34.6517-43.4896 35.5143-43.4896Q36.4258-43.4896 37.028-43.8639Q37.6302-44.2383 38.0534-44.9219L38.623-45.7357Q39.4531-47.5423 41.0563-48.6898Q42.6595-49.8372 44.8568-49.8372Q47.64-49.8372 49.292-48.3968Q50.944-46.9564 50.944-44.7103Q50.944-42.7409 49.7477-41.4388Q48.5514-40.1367 45.9798-38.3789Q43.8639-36.8652 42.5618-35.1644Q41.2598-33.4635 41.2598-30.7617Q41.2598-30.5827 41.2598-30.4199Q41.2598-30.2572 41.2598-30.0944Q41.2598-27.3763 43.9616-27.3763ZM43.8802-16.2272Q45.4427-16.2272 46.582-17.3096Q47.7214-18.3919 47.7214-19.9382Q47.7214-21.5169 46.582-22.5749Q45.4427-23.6328 43.8802-23.6328Q42.3177-23.6328 41.1784-22.5586Q40.0391-21.4844 40.0391-19.9382Q40.0391-18.4245 41.1784-17.3258Q42.3177-16.2272 43.8802-16.2272Z"/>
  </g>
  <g id="Thin-S" transform="matrix(1 0 0 1 812.615 696)">
   <path d="M20.3267-1.12147L67.2852-1.12147Q72.5145-1.12147 75.1803-3.81962Q77.8462-6.51777 77.8462-11.6494L77.8462-58.7229Q77.8462-63.8546 75.1803-66.5338Q72.5145-69.2131 67.2852-69.2131L20.3267-69.2131Q15.1084-69.2131 12.437-66.5527Q9.76562-63.8924 9.76562-58.7229L9.76562-11.6494Q9.76562-6.44216 12.437-3.78182Q15.1084-1.12147 20.3267-1.12147ZM20.4243-4.42131Q16.8048-4.42131 14.9296-6.28544Q13.0544-8.14957 13.0544-11.8022L13.0544-58.5323Q13.0544-62.174 14.9296-64.0436Q16.8048-65.9132 20.4243-65.9132L67.1875-65.9132Q70.7315-65.9132 72.6444-64.0436Q74.5574-62.174 74.5574-58.5323L74.5574-11.8022Q74.5574-8.14957 72.6444-6.28544Q70.7315-4.42131 67.1875-4.42131ZM43.1436-27.5485Q43.8965-27.5485 44.3328-28.0171Q44.7691-28.4857 44.7691-29.1504Q44.7691-29.4638 44.7691-29.7261Q44.7691-29.9883 44.7691-30.3128Q44.7691-32.0533 45.7079-33.3331Q46.6466-34.6128 48.8533-36.1092Q51.8145-38.1316 53.2085-40.0635Q54.6024-41.9953 54.6024-44.8526Q54.6024-48.6344 51.5633-50.99Q48.5241-53.3455 43.9973-53.3455Q39.4594-53.3455 36.6904-51.1522Q33.9214-48.9589 33.4205-46.0418Q33.2567-45.459 33.2567-44.558Q33.2567-43.7468 33.7174-43.3491Q34.1781-42.9514 34.7609-42.9514Q35.3925-42.9514 35.8225-43.2397Q36.2525-43.5279 36.3959-44.0823L36.6211-44.6809Q36.9345-46.875 38.9144-48.636Q40.8943-50.3969 43.8666-50.3969Q47.1664-50.3969 49.0983-48.7628Q51.0301-47.1286 51.0301-44.6242Q51.0301-42.6333 49.8984-41.1912Q48.7667-39.7492 46.0229-37.8623Q43.6917-36.2194 42.5726-34.5616Q41.4535-32.9039 41.4535-30.5034Q41.4535-30.1522 41.4535-29.871Q41.4535-29.5898 41.4535-29.2764Q41.4535-27.5485 43.1436-27.5485ZM43.0837-17.1528Q44.3233-17.1528 45.1936-18.0199Q46.0638-18.887 46.0638-20.0888Q46.0638-21.3017 45.1936-22.1443Q44.3233-22.987 43.0837-22.987Q41.8441-22.987 40.9739-22.1388Q40.1036-21.2906 40.1036-20.0888Q40.1036-18.8981 40.9739-18.0255Q41.8441-17.1528 43.0837-17.1528Z"/>
  </g>
  <g id="Ultralight-S" transform="matrix(1 0 0 1 516.35 696)">
   <path d="M19.7754-1.5625L66.9434-1.5625Q71.875-1.5625 74.4141-4.15039Q76.9531-6.73828 76.9531-11.5723L76.9531-58.7891Q76.9531-63.623 74.4141-66.1865Q71.875-68.75 66.9434-68.75L19.7754-68.75Q14.8438-68.75 12.3047-66.2109Q9.76562-63.6719 9.76562-58.7891L9.76562-11.5723Q9.76562-6.64062 12.3047-4.10156Q14.8438-1.5625 19.7754-1.5625ZM19.873-3.75977Q15.9668-3.75977 13.9648-5.76172Q11.9629-7.76367 11.9629-11.6699L11.9629-58.6426Q11.9629-62.5488 13.9648-64.5508Q15.9668-66.5527 19.873-66.5527L66.8457-66.5527Q70.6543-66.5527 72.7051-64.5508Q74.7559-62.5488 74.7559-58.6426L74.7559-11.6699Q74.7559-7.76367 72.7051-5.76172Q70.6543-3.75977 66.8457-3.75977ZM42.7246-27.6367Q43.2129-27.6367 43.5059-27.9785Q43.7988-28.3203 43.7988-28.8086Q43.7988-29.1992 43.7988-29.5166Q43.7988-29.834 43.7988-30.2246Q43.7988-32.0312 44.7266-33.3496Q45.6543-34.668 47.9492-36.2305Q50.9766-38.3301 52.2217-40.2344Q53.4668-42.1387 53.4668-44.7754Q53.4668-48.1934 50.6592-50.4883Q47.8516-52.7832 43.457-52.7832Q39.0625-52.7832 36.4258-50.5127Q33.7891-48.2422 33.3984-45.2148Q33.3008-44.7754 33.3008-43.8965Q33.3008-43.2617 33.6182-42.9688Q33.9355-42.6758 34.375-42.6758Q34.8633-42.6758 35.2051-42.9199Q35.5469-43.1641 35.5469-43.6523L35.5957-44.1406Q35.6445-46.5332 37.8174-48.6084Q39.9902-50.6836 43.3594-50.6836Q46.9238-50.6836 48.999-48.9502Q51.0742-47.2168 51.0742-44.5801Q51.0742-42.5781 49.9756-41.0645Q48.877-39.5508 46.0449-37.5977Q43.6035-35.8887 42.5781-34.2529Q41.5527-32.6172 41.5527-30.3711Q41.5527-29.9316 41.5527-29.5898Q41.5527-29.248 41.5527-28.8574Q41.5527-27.6367 42.7246-27.6367ZM42.6758-17.627Q43.75-17.627 44.4824-18.3838Q45.2148-19.1406 45.2148-20.166Q45.2148-21.1914 44.4824-21.9238Q43.75-22.6562 42.6758-22.6562Q41.6016-22.6562 40.8691-21.9238Q40.1367-21.1914 40.1367-20.166Q40.1367-19.1406 40.8691-18.3838Q41.6016-17.627 42.6758-17.627Z"/>
  </g>
 </g>
</svg>
