<?xml version="1.0" encoding="UTF-8"?>
<!--Generator: Apple Native CoreSVG 175.5-->
<!DOCTYPE svg
PUBLIC "-//W3C//DTD SVG 1.1//EN"
       "http://www.w3.org/Graphics/SVG/1.1/DTD/svg11.dtd">
<svg version="1.1" xmlns="http://www.w3.org/2000/svg" xmlns:xlink="http://www.w3.org/1999/xlink" width="12.9492" height="12.9556">
 <g>
  <rect height="12.9556" opacity="0" width="12.9492" x="0" y="0"/>
  <path d="M6.47461 12.5938C8.23926 12.5938 9.68018 9.98486 9.68018 6.4873C9.68018 2.9707 8.24561 0.361816 6.47461 0.361816C4.70361 0.361816 3.26904 2.9707 3.26904 6.4873C3.26904 9.98486 4.70996 12.5938 6.47461 12.5938ZM6.47461 1.12988C7.71875 1.12988 8.82959 3.60547 8.82959 6.4873C8.82959 9.31836 7.71875 11.8193 6.47461 11.8193C5.23047 11.8193 4.11963 9.31836 4.11963 6.4873C4.11963 3.60547 5.23047 1.12988 6.47461 1.12988ZM6.06201 0.450684L6.06201 12.4731L6.89355 12.4731L6.89355 0.450684ZM6.47461 8.86133C4.51953 8.86133 2.78662 9.37549 1.89795 10.1943L2.53906 10.7212C3.37695 10.0547 4.7417 9.69287 6.47461 9.69287C8.20752 9.69287 9.57227 10.0547 10.4102 10.7212L11.0513 10.1943C10.1626 9.37549 8.42969 8.86133 6.47461 8.86133ZM12.3335 6.05566L0.615723 6.05566L0.615723 6.88721L12.3335 6.88721ZM6.47461 4.11963C8.42969 4.11963 10.1626 3.60547 11.0513 2.78662L10.4102 2.25977C9.57227 2.91992 8.20752 3.28809 6.47461 3.28809C4.7417 3.28809 3.37695 2.91992 2.53906 2.25977L1.89795 2.78662C2.78662 3.60547 4.51953 4.11963 6.47461 4.11963ZM6.47461 12.9492C10.0166 12.9492 12.9492 10.0103 12.9492 6.47461C12.9492 2.93262 10.0103 0 6.46826 0C2.93262 0 0 2.93262 0 6.47461C0 10.0103 2.93896 12.9492 6.47461 12.9492ZM6.47461 12.0859C3.40869 12.0859 0.863281 9.54053 0.863281 6.47461C0.863281 3.40869 3.40234 0.863281 6.46826 0.863281C9.53418 0.863281 12.0859 3.40869 12.0859 6.47461C12.0859 9.54053 9.54053 12.0859 6.47461 12.0859Z" fill="#000000" fill-opacity="0.85"/>
 </g>
</svg>
