<?xml version="1.0" encoding="UTF-8"?>
<!--Generator: Apple Native CoreSVG 175-->
<!DOCTYPE svg
PUBLIC "-//W3C//DTD SVG 1.1//EN"
       "http://www.w3.org/Graphics/SVG/1.1/DTD/svg11.dtd">
<svg version="1.1" xmlns="http://www.w3.org/2000/svg" xmlns:xlink="http://www.w3.org/1999/xlink" width="3300" height="2200">
 <!--glyph: "uni1002A0.medium", point size: 100.0, font version: "17.1d1e1", template writer version: "65.1"-->
 <g id="Notes">
  <rect height="2200" id="artboard" style="fill:white;opacity:1" width="3300" x="0" y="0"/>
  <line style="fill:none;stroke:black;opacity:1;stroke-width:0.5;" x1="263" x2="3036" y1="292" y2="292"/>
  <text style="stroke:none;fill:black;font-family:sans-serif;font-size:13;font-weight:bold;" transform="matrix(1 0 0 1 263 322)">Weight/Scale Variations</text>
  <text style="stroke:none;fill:black;font-family:sans-serif;font-size:13;text-anchor:middle;" transform="matrix(1 0 0 1 559.711 322)">Ultralight</text>
  <text style="stroke:none;fill:black;font-family:sans-serif;font-size:13;text-anchor:middle;" transform="matrix(1 0 0 1 856.422 322)">Thin</text>
  <text style="stroke:none;fill:black;font-family:sans-serif;font-size:13;text-anchor:middle;" transform="matrix(1 0 0 1 1153.13 322)">Light</text>
  <text style="stroke:none;fill:black;font-family:sans-serif;font-size:13;text-anchor:middle;" transform="matrix(1 0 0 1 1449.84 322)">Regular</text>
  <text style="stroke:none;fill:black;font-family:sans-serif;font-size:13;text-anchor:middle;" transform="matrix(1 0 0 1 1746.56 322)">Medium</text>
  <text style="stroke:none;fill:black;font-family:sans-serif;font-size:13;text-anchor:middle;" transform="matrix(1 0 0 1 2043.27 322)">Semibold</text>
  <text style="stroke:none;fill:black;font-family:sans-serif;font-size:13;text-anchor:middle;" transform="matrix(1 0 0 1 2339.98 322)">Bold</text>
  <text style="stroke:none;fill:black;font-family:sans-serif;font-size:13;text-anchor:middle;" transform="matrix(1 0 0 1 2636.69 322)">Heavy</text>
  <text style="stroke:none;fill:black;font-family:sans-serif;font-size:13;text-anchor:middle;" transform="matrix(1 0 0 1 2933.4 322)">Black</text>
  <line style="fill:none;stroke:black;opacity:1;stroke-width:0.5;" x1="263" x2="3036" y1="1903" y2="1903"/>
  <g transform="matrix(1 0 0 1 263 1933)">
   <path d="M9.24805 0.830078Q10.8691 0.830078 12.2949 0.214844Q13.7207-0.400391 14.8096-1.49414Q15.8984-2.58789 16.5186-4.01367Q17.1387-5.43945 17.1387-7.05078Q17.1387-8.66211 16.5186-10.0879Q15.8984-11.5137 14.8047-12.6074Q13.7109-13.7012 12.2852-14.3164Q10.8594-14.9316 9.23828-14.9316Q7.62695-14.9316 6.20117-14.3164Q4.77539-13.7012 3.69141-12.6074Q2.60742-11.5137 1.9873-10.0879Q1.36719-8.66211 1.36719-7.05078Q1.36719-5.43945 1.9873-4.01367Q2.60742-2.58789 3.69629-1.49414Q4.78516-0.400391 6.21094 0.214844Q7.63672 0.830078 9.24805 0.830078ZM9.24805-0.654297Q7.91992-0.654297 6.7627-1.14746Q5.60547-1.64062 4.73145-2.51953Q3.85742-3.39844 3.36426-4.56055Q2.87109-5.72266 2.87109-7.05078Q2.87109-8.37891 3.35938-9.54102Q3.84766-10.7031 4.72168-11.582Q5.5957-12.4609 6.75293-12.9541Q7.91016-13.4473 9.23828-13.4473Q10.5762-13.4473 11.7334-12.9541Q12.8906-12.4609 13.7695-11.582Q14.6484-10.7031 15.1465-9.54102Q15.6445-8.37891 15.6445-7.05078Q15.6445-5.72266 15.1514-4.56055Q14.6582-3.39844 13.7842-2.51953Q12.9102-1.64062 11.748-1.14746Q10.5859-0.654297 9.24805-0.654297ZM5.6543-7.05078Q5.6543-6.72852 5.85938-6.52832Q6.06445-6.32812 6.40625-6.32812L8.51562-6.32812L8.51562-4.20898Q8.51562-3.88672 8.71094-3.67676Q8.90625-3.4668 9.23828-3.4668Q9.56055-3.4668 9.77051-3.67676Q9.98047-3.88672 9.98047-4.20898L9.98047-6.32812L12.0898-6.32812Q12.4219-6.32812 12.627-6.52832Q12.832-6.72852 12.832-7.05078Q12.832-7.38281 12.627-7.58789Q12.4219-7.79297 12.0898-7.79297L9.98047-7.79297L9.98047-9.90234Q9.98047-10.2344 9.77051-10.4443Q9.56055-10.6543 9.23828-10.6543Q8.90625-10.6543 8.71094-10.4443Q8.51562-10.2344 8.51562-9.90234L8.51562-7.79297L6.40625-7.79297Q6.06445-7.79297 5.85938-7.58789Q5.6543-7.38281 5.6543-7.05078Z"/>
  </g>
  <g transform="matrix(1 0 0 1 281.867 1933)">
   <path d="M11.709 2.91016Q13.75 2.91016 15.5518 2.12891Q17.3535 1.34766 18.7305-0.0292969Q20.1074-1.40625 20.8887-3.20801Q21.6699-5.00977 21.6699-7.05078Q21.6699-9.0918 20.8887-10.8936Q20.1074-12.6953 18.7305-14.0723Q17.3535-15.4492 15.5469-16.2305Q13.7402-17.0117 11.6992-17.0117Q9.6582-17.0117 7.85645-16.2305Q6.05469-15.4492 4.68262-14.0723Q3.31055-12.6953 2.5293-10.8936Q1.74805-9.0918 1.74805-7.05078Q1.74805-5.00977 2.5293-3.20801Q3.31055-1.40625 4.6875-0.0292969Q6.06445 1.34766 7.86621 2.12891Q9.66797 2.91016 11.709 2.91016ZM11.709 1.25Q9.98047 1.25 8.47656 0.605469Q6.97266-0.0390625 5.83496-1.17676Q4.69727-2.31445 4.05762-3.81836Q3.41797-5.32227 3.41797-7.05078Q3.41797-8.7793 4.05762-10.2832Q4.69727-11.7871 5.83008-12.9297Q6.96289-14.0723 8.4668-14.7119Q9.9707-15.3516 11.6992-15.3516Q13.4277-15.3516 14.9316-14.7119Q16.4355-14.0723 17.5781-12.9297Q18.7207-11.7871 19.3652-10.2832Q20.0098-8.7793 20.0098-7.05078Q20.0098-5.32227 19.3701-3.81836Q18.7305-2.31445 17.5928-1.17676Q16.4551-0.0390625 14.9463 0.605469Q13.4375 1.25 11.709 1.25ZM7.17773-7.05078Q7.17773-6.69922 7.41211-6.47461Q7.64648-6.25 8.01758-6.25L10.8887-6.25L10.8887-3.36914Q10.8887-2.99805 11.1133-2.76855Q11.3379-2.53906 11.6895-2.53906Q12.0605-2.53906 12.29-2.76855Q12.5195-2.99805 12.5195-3.36914L12.5195-6.25L15.4004-6.25Q15.7715-6.25 16.001-6.47461Q16.2305-6.69922 16.2305-7.05078Q16.2305-7.42188 16.001-7.65137Q15.7715-7.88086 15.4004-7.88086L12.5195-7.88086L12.5195-10.752Q12.5195-11.1328 12.29-11.3623Q12.0605-11.5918 11.6895-11.5918Q11.3379-11.5918 11.1133-11.3574Q10.8887-11.123 10.8887-10.752L10.8887-7.88086L8.01758-7.88086Q7.63672-7.88086 7.40723-7.65137Q7.17773-7.42188 7.17773-7.05078Z"/>
  </g>
  <g transform="matrix(1 0 0 1 305.646 1933)">
   <path d="M14.9707 5.66406Q17.0605 5.66406 18.96 5.01465Q20.8594 4.36523 22.4512 3.19336Q24.043 2.02148 25.2197 0.429688Q26.3965-1.16211 27.0459-3.06641Q27.6953-4.9707 27.6953-7.05078Q27.6953-9.14062 27.0459-11.04Q26.3965-12.9395 25.2197-14.5312Q24.043-16.123 22.4512-17.2998Q20.8594-18.4766 18.9551-19.126Q17.0508-19.7754 14.9609-19.7754Q12.8711-19.7754 10.9717-19.126Q9.07227-18.4766 7.48535-17.2998Q5.89844-16.123 4.72168-14.5312Q3.54492-12.9395 2.90039-11.04Q2.25586-9.14062 2.25586-7.05078Q2.25586-4.9707 2.90527-3.06641Q3.55469-1.16211 4.72656 0.429688Q5.89844 2.02148 7.49023 3.19336Q9.08203 4.36523 10.9814 5.01465Q12.8809 5.66406 14.9707 5.66406ZM14.9707 3.84766Q13.1641 3.84766 11.5283 3.2959Q9.89258 2.74414 8.53516 1.74805Q7.17773 0.751953 6.17676-0.610352Q5.17578-1.97266 4.62891-3.6084Q4.08203-5.24414 4.08203-7.05078Q4.08203-8.86719 4.62891-10.5029Q5.17578-12.1387 6.17188-13.501Q7.16797-14.8633 8.52539-15.8594Q9.88281-16.8555 11.5186-17.4023Q13.1543-17.9492 14.9609-17.9492Q16.7773-17.9492 18.4131-17.4023Q20.0488-16.8555 21.4111-15.8594Q22.7734-14.8633 23.7695-13.501Q24.7656-12.1387 25.3174-10.5029Q25.8691-8.86719 25.8691-7.05078Q25.8789-5.24414 25.332-3.6084Q24.7852-1.97266 23.7842-0.610352Q22.7832 0.751953 21.4209 1.74805Q20.0586 2.74414 18.4229 3.2959Q16.7871 3.84766 14.9707 3.84766ZM9.19922-7.05078Q9.19922-6.66992 9.45801-6.4209Q9.7168-6.17188 10.1172-6.17188L14.0625-6.17188L14.0625-2.2168Q14.0625-1.81641 14.3115-1.55762Q14.5605-1.29883 14.9512-1.29883Q15.3516-1.29883 15.6104-1.55273Q15.8691-1.80664 15.8691-2.2168L15.8691-6.17188L19.8242-6.17188Q20.2246-6.17188 20.4785-6.4209Q20.7324-6.66992 20.7324-7.05078Q20.7324-7.46094 20.4785-7.71484Q20.2246-7.96875 19.8242-7.96875L15.8691-7.96875L15.8691-11.9141Q15.8691-12.3242 15.6104-12.583Q15.3516-12.8418 14.9512-12.8418Q14.5605-12.8418 14.3115-12.583Q14.0625-12.3242 14.0625-11.9141L14.0625-7.96875L10.1172-7.96875Q9.70703-7.96875 9.45312-7.71484Q9.19922-7.46094 9.19922-7.05078Z"/>
  </g>
  <text style="stroke:none;fill:black;font-family:sans-serif;font-size:13;font-weight:bold;" transform="matrix(1 0 0 1 263 1953)">Design Variations</text>
  <text style="stroke:none;fill:black;font-family:sans-serif;font-size:13;" transform="matrix(1 0 0 1 263 1971)">Symbols are supported in up to nine weights and three scales.</text>
  <text style="stroke:none;fill:black;font-family:sans-serif;font-size:13;" transform="matrix(1 0 0 1 263 1989)">For optimal layout with text and other symbols, vertically align</text>
  <text style="stroke:none;fill:black;font-family:sans-serif;font-size:13;" transform="matrix(1 0 0 1 263 2007)">symbols with the adjacent text.</text>
  <line style="fill:none;stroke:#00AEEF;stroke-width:0.5;opacity:1.0;" x1="776" x2="776" y1="1919" y2="1933"/>
  <g transform="matrix(1 0 0 1 776 1933)">
   <path d="M3.31055 0.15625Q3.70117 0.15625 3.91602-0.00976562Q4.13086-0.175781 4.26758-0.585938L5.52734-4.0332L11.2891-4.0332L12.5488-0.585938Q12.6855-0.175781 12.9004-0.00976562Q13.1152 0.15625 13.4961 0.15625Q13.8867 0.15625 14.1162-0.0585938Q14.3457-0.273438 14.3457-0.644531Q14.3457-0.869141 14.2383-1.17188L9.6582-13.3691Q9.48242-13.8184 9.17969-14.043Q8.87695-14.2676 8.4082-14.2676Q7.5-14.2676 7.17773-13.3789L2.59766-1.16211Q2.49023-0.859375 2.49023-0.634766Q2.49023-0.263672 2.70996-0.0537109Q2.92969 0.15625 3.31055 0.15625ZM6.00586-5.51758L8.37891-12.0898L8.42773-12.0898L10.8008-5.51758Z"/>
  </g>
  <line style="fill:none;stroke:#00AEEF;stroke-width:0.5;opacity:1.0;" x1="793.197" x2="793.197" y1="1919" y2="1933"/>
  <text style="stroke:none;fill:black;font-family:sans-serif;font-size:13;font-weight:bold;" transform="matrix(1 0 0 1 776 1953)">Margins</text>
  <text style="stroke:none;fill:black;font-family:sans-serif;font-size:13;" transform="matrix(1 0 0 1 776 1971)">Leading and trailing margins on the left and right side of each symbol</text>
  <text style="stroke:none;fill:black;font-family:sans-serif;font-size:13;" transform="matrix(1 0 0 1 776 1989)">can be adjusted by modifying the x-location of the margin guidelines.</text>
  <text style="stroke:none;fill:black;font-family:sans-serif;font-size:13;" transform="matrix(1 0 0 1 776 2007)">Modifications are automatically applied proportionally to all</text>
  <text style="stroke:none;fill:black;font-family:sans-serif;font-size:13;" transform="matrix(1 0 0 1 776 2025)">scales and weights.</text>
  <g transform="matrix(1 0 0 1 1289 1933)">
   <path d="M2.8418 1.86523L4.54102 3.57422Q5.18555 4.22852 5.90332 4.17969Q6.62109 4.13086 7.31445 3.35938L18.0078-8.42773L17.041-9.4043L6.42578 2.27539Q6.16211 2.57812 5.89355 2.61719Q5.625 2.65625 5.27344 2.30469L4.10156 1.14258Q3.75 0.791016 3.79395 0.522461Q3.83789 0.253906 4.14062-0.0195312L15.6152-10.8203L14.6387-11.7871L3.04688-0.898438Q2.30469-0.214844 2.25098 0.498047Q2.19727 1.21094 2.8418 1.86523ZM9.25781-16.3281Q8.94531-16.0254 8.90625-15.6348Q8.86719-15.2441 9.04297-14.9512Q9.21875-14.6777 9.55566-14.541Q9.89258-14.4043 10.3809-14.5215Q11.4746-14.7754 12.5977-14.7314Q13.7207-14.6875 14.7949-13.9844L14.209-12.5293Q13.9551-11.9043 14.0674-11.4404Q14.1797-10.9766 14.5801-10.5664L16.875-8.25195Q17.2363-7.88086 17.5781-7.82227Q17.9199-7.76367 18.3398-7.8418L19.4043-8.03711L20.0684-7.36328L20.0293-6.80664Q20-6.43555 20.1221-6.12305Q20.2441-5.81055 20.6055-5.44922L21.3672-4.70703Q21.7285-4.3457 22.1533-4.33105Q22.5781-4.31641 22.9297-4.66797L25.8398-7.58789Q26.1914-7.93945 26.1816-8.35449Q26.1719-8.76953 25.8105-9.13086L25.0391-9.89258Q24.6875-10.2539 24.3799-10.3857Q24.0723-10.5176 23.7109-10.4883L23.1348-10.4395L22.4902-11.0742L22.7344-12.1973Q22.832-12.6172 22.6953-12.9834Q22.5586-13.3496 22.1191-13.7891L19.9219-15.9766Q18.6719-17.2168 17.2607-17.8369Q15.8496-18.457 14.4189-18.4814Q12.9883-18.5059 11.665-17.959Q10.3418-17.4121 9.25781-16.3281ZM10.752-15.957Q11.6602-16.6211 12.7002-16.9043Q13.7402-17.1875 14.8047-17.085Q15.8691-16.9824 16.8701-16.5137Q17.8711-16.0449 18.7012-15.2051L21.1328-12.793Q21.3086-12.6172 21.3525-12.4512Q21.3965-12.2852 21.3379-12.0312L21.0156-10.5469L22.5195-9.0625L23.5059-9.12109Q23.6914-9.13086 23.7891-9.09668Q23.8867-9.0625 24.0332-8.91602L24.6094-8.33984L22.168-5.89844L21.5918-6.47461Q21.4453-6.62109 21.4062-6.71875Q21.3672-6.81641 21.377-7.01172L21.4453-7.98828L19.9512-9.47266L18.4277-9.21875Q18.1836-9.16992 18.042-9.2041Q17.9004-9.23828 17.7148-9.41406L15.7129-11.416Q15.5176-11.5918 15.4932-11.7529Q15.4688-11.9141 15.5859-12.1875L16.4648-14.2773Q15.293-15.3711 13.8281-15.791Q12.3633-16.2109 10.8398-15.7617Q10.7227-15.7324 10.6885-15.8057Q10.6543-15.8789 10.752-15.957Z"/>
  </g>
  <text style="stroke:none;fill:black;font-family:sans-serif;font-size:13;font-weight:bold;" transform="matrix(1 0 0 1 1289 1953)">Exporting</text>
  <text style="stroke:none;fill:black;font-family:sans-serif;font-size:13;" transform="matrix(1 0 0 1 1289 1971)">Symbols should be outlined when exporting to ensure the</text>
  <text style="stroke:none;fill:black;font-family:sans-serif;font-size:13;" transform="matrix(1 0 0 1 1289 1989)">design is preserved when submitting to Xcode.</text>
  <text id="template-version" style="stroke:none;fill:black;font-family:sans-serif;font-size:13;text-anchor:end;" transform="matrix(1 0 0 1 3036 1933)">Template v.3.0</text>
  <text style="stroke:none;fill:black;font-family:sans-serif;font-size:13;text-anchor:end;" transform="matrix(1 0 0 1 3036 1951)">Requires Xcode 13 or greater</text>
  <text id="descriptive-name" style="stroke:none;fill:black;font-family:sans-serif;font-size:13;text-anchor:end;" transform="matrix(1 0 0 1 3036 1969)">Generated from speaker</text>
  <text style="stroke:none;fill:black;font-family:sans-serif;font-size:13;text-anchor:end;" transform="matrix(1 0 0 1 3036 1987)">Typeset at 100 points</text>
  <text style="stroke:none;fill:black;font-family:sans-serif;font-size:13;" transform="matrix(1 0 0 1 263 726)">Small</text>
  <text style="stroke:none;fill:black;font-family:sans-serif;font-size:13;" transform="matrix(1 0 0 1 263 1156)">Medium</text>
  <text style="stroke:none;fill:black;font-family:sans-serif;font-size:13;" transform="matrix(1 0 0 1 263 1586)">Large</text>
 </g>
 <g id="Guides">
  <g id="H-reference" style="fill:#27AAE1;stroke:none;" transform="matrix(1 0 0 1 339 696)">
   <path d="M0.993347 0L3.6377 0L29.3282-67.1326L30.0301-67.1326L30.0301-70.459L28.1227-70.459ZM11.6882-24.4797L46.9818-24.4797L46.2311-26.7288L12.4382-26.7288ZM55.1193 0L57.7637 0L30.6381-70.459L29.4327-70.459L29.4327-67.1326Z"/>
  </g>
  <line id="Baseline-S" style="fill:none;stroke:#27AAE1;opacity:1;stroke-width:0.5;" x1="263" x2="3036" y1="696" y2="696"/>
  <line id="Capline-S" style="fill:none;stroke:#27AAE1;opacity:1;stroke-width:0.5;" x1="263" x2="3036" y1="625.541" y2="625.541"/>
  <g id="H-reference" style="fill:#27AAE1;stroke:none;" transform="matrix(1 0 0 1 339 1126)">
   <path d="M0.993347 0L3.6377 0L29.3282-67.1326L30.0301-67.1326L30.0301-70.459L28.1227-70.459ZM11.6882-24.4797L46.9818-24.4797L46.2311-26.7288L12.4382-26.7288ZM55.1193 0L57.7637 0L30.6381-70.459L29.4327-70.459L29.4327-67.1326Z"/>
  </g>
  <line id="Baseline-M" style="fill:none;stroke:#27AAE1;opacity:1;stroke-width:0.5;" x1="263" x2="3036" y1="1126" y2="1126"/>
  <line id="Capline-M" style="fill:none;stroke:#27AAE1;opacity:1;stroke-width:0.5;" x1="263" x2="3036" y1="1055.54" y2="1055.54"/>
  <g id="H-reference" style="fill:#27AAE1;stroke:none;" transform="matrix(1 0 0 1 339 1556)">
   <path d="M0.993347 0L3.6377 0L29.3282-67.1326L30.0301-67.1326L30.0301-70.459L28.1227-70.459ZM11.6882-24.4797L46.9818-24.4797L46.2311-26.7288L12.4382-26.7288ZM55.1193 0L57.7637 0L30.6381-70.459L29.4327-70.459L29.4327-67.1326Z"/>
  </g>
  <line id="Baseline-L" style="fill:none;stroke:#27AAE1;opacity:1;stroke-width:0.5;" x1="263" x2="3036" y1="1556" y2="1556"/>
  <line id="Capline-L" style="fill:none;stroke:#27AAE1;opacity:1;stroke-width:0.5;" x1="263" x2="3036" y1="1485.54" y2="1485.54"/>
  <line id="left-margin-Regular-M" style="fill:none;stroke:#00AEEF;stroke-width:0.5;opacity:1.0;" x1="1400.21" x2="1400.21" y1="1030.79" y2="1150.12"/>
  <line id="right-margin-Regular-M" style="fill:none;stroke:#00AEEF;stroke-width:0.5;opacity:1.0;" x1="1499.48" x2="1499.48" y1="1030.79" y2="1150.12"/>
 </g>
 <g id="Symbols">
  <g id="Black-L" transform="matrix(1 0 0 1 2862.75 1556)">
   <path d="M38.9978-4.32522L56.2565-4.32522Q56.817-4.32522 57.2119-3.95234L82.2988 18.4843Q85.4299 21.2414 88.0894 22.5717Q90.7488 23.902 93.9831 23.902Q98.893 23.902 102.235 20.5769Q105.577 17.2517 105.577 12.3223L105.577-82.5991Q105.577-87.5286 102.235-90.9064Q98.893-94.2841 93.9415-94.2841Q90.8824-94.2841 88.2464-92.9798Q85.6104-91.6755 82.2988-88.7415L57.2119-66.4751Q56.7026-66.0462 56.2565-66.0462L38.9978-66.0462Q30.3166-66.0462 25.7331-61.2545Q21.1496-56.4627 21.1496-47.4021L21.1496-22.9448Q21.1496-13.905 25.7331-9.11513Q30.3166-4.32522 38.9978-4.32522ZM42.1807-22.0278Q41.2588-22.0278 40.7151-22.6019Q40.1713-23.1761 40.1713-24.0396L40.1713-46.3294Q40.1713-47.2525 40.7151-47.7975Q41.2588-48.3424 42.1807-48.3424L60.3159-48.3424Q61.819-48.3424 62.9318-48.7219Q64.0447-49.1014 65.1122-50.1272L84.7533-68.1711Q84.9189-68.3343 85.162-68.4287Q85.405-68.5231 85.6511-68.5231Q86.5769-68.5231 86.5769-67.5377L86.5769-2.80805Q86.5769-1.74222 85.6731-1.74222Q85.1662-1.74222 84.7545-2.17233L65.1122-20.243Q63.2029-22.0278 60.3159-22.0278Z"/>
  </g>
  <g id="Heavy-L" transform="matrix(1 0 0 1 2567.78 1556)">
   <path d="M37.1688-5.65652L54.6614-5.65652Q55.3074-5.65652 55.7702-5.22958L81.6915 17.9603Q84.5876 20.5183 87.0518 21.7532Q89.516 22.9881 92.5049 22.9881Q96.9449 22.9881 99.9519 19.9916Q102.959 16.9952 102.959 12.5306L102.959-82.7695Q102.959-87.2341 99.9519-90.3088Q96.9449-93.3835 92.4445-93.3835Q89.5895-93.3835 87.1812-92.1423Q84.773-90.9011 81.6915-88.1747L55.7702-65.1487Q55.2294-64.6884 54.6614-64.6884L37.1688-64.6884Q29.0827-64.6884 24.8517-60.2698Q20.6206-55.8512 20.6206-47.3752L20.6206-22.9226Q20.6206-14.4769 24.8517-10.0667Q29.0827-5.65652 37.1688-5.65652ZM39.7004-21.2116Q38.5602-21.2116 37.9456-21.8541Q37.3309-22.4967 37.3309-23.5923L37.3309-46.7414Q37.3309-47.8872 37.9456-48.5075Q38.5602-49.1277 39.7004-49.1277L58.296-49.1277Q59.7479-49.1277 60.8329-49.4912Q61.9179-49.8547 62.9991-50.8756L84.422-70.4994Q84.6053-70.6715 84.855-70.7838Q85.1047-70.8961 85.3684-70.8961Q86.2843-70.8961 86.2843-69.93L86.2843-0.456596Q86.2843 0.589993 85.4042 0.589993Q84.8747 0.589993 84.4277 0.123994L62.9991-19.4637Q61.0993-21.2116 58.296-21.2116Z"/>
  </g>
  <g id="Bold-L" transform="matrix(1 0 0 1 2273.34 1556)">
   <path d="M34.7828-7.30101L52.6121-7.30101Q53.3806-7.30101 53.9352-6.79754L80.8864 17.3073Q83.4606 19.597 85.6716 20.7091Q87.8827 21.8212 90.5568 21.8212Q94.4203 21.8212 97.0087 19.2245Q99.597 16.6278 99.597 12.7395L99.597-82.9547Q99.597-86.843 97.0087-89.5413Q94.4203-92.2396 90.4808-92.2396Q87.8943-92.2396 85.7703-91.0864Q83.6462-89.9332 80.8864-87.4977L53.9352-63.5044Q53.3486-62.9982 52.6121-62.9982L34.7828-62.9982Q27.4642-62.9982 23.6823-59.0518Q19.9003-55.1054 19.9003-47.404L19.9003-22.8174Q19.9003-15.154 23.6823-11.2275Q27.4642-7.30101 34.7828-7.30101ZM36.5672-20.2049Q35.1506-20.2049 34.4513-20.9319Q33.7521-21.659 33.7521-23.0465L33.7521-47.2263Q33.7521-48.6561 34.4513-49.3686Q35.1506-50.0812 36.5672-50.0812L55.6645-50.0812Q57.0697-50.0812 58.1275-50.4254Q59.1854-50.7696 60.2821-51.7903L83.8507-73.3288Q84.0645-73.5161 84.3256-73.6552Q84.5868-73.7942 84.881-73.7942Q85.7965-73.7942 85.7965-72.8364L85.7965 2.396Q85.7965 3.43447 84.9322 3.43447Q84.372 3.43447 83.8641 2.91491L60.2821-18.4955Q58.3901-20.2049 55.6645-20.2049Z"/>
  </g>
  <g id="Semibold-L" transform="matrix(1 0 0 1 1978.19 1556)">
   <path d="M33.138-8.43471L51.1994-8.43471Q52.0522-8.43471 52.6703-7.87849L80.3313 16.8571Q82.6837 18.9618 84.7202 19.9893Q86.7567 21.0168 89.2138 21.0168Q92.6799 21.0168 94.9797 18.6957Q97.2794 16.3746 97.2794 12.8836L97.2794-83.0824Q97.2794-86.5734 94.9797-89.0122Q92.6799-91.4509 89.1271-91.4509Q86.7256-91.4509 84.7975-90.3584Q82.8694-89.2659 80.3313-87.0311L52.6703-62.3708Q52.052-61.833 51.1994-61.833L33.138-61.833Q26.3485-61.833 22.8761-58.2122Q19.4038-54.5913 19.4038-47.4238L19.4038-22.7448Q19.4038-15.6208 22.8761-12.0277Q26.3485-8.43471 33.138-8.43471ZM34.4072-19.5109Q32.8-19.5109 32.0424-20.2962Q31.2849-21.0815 31.2849-22.6702L31.2849-47.5606Q31.2849-49.1861 32.0424-49.9623Q32.8-50.7385 34.4072-50.7385L53.8503-50.7385Q55.2234-50.7385 56.2625-51.0695Q57.3016-51.4004 58.4089-52.421L83.4569-75.2794Q83.6916-75.4772 83.9607-75.6347Q84.2297-75.7921 84.5449-75.7921Q85.4602-75.7921 85.4602-74.84L85.4602 4.36256Q85.4602 5.39543 84.6068 5.39543Q84.0254 5.39543 83.4755 4.83896L58.4089-17.8281Q56.5224-19.5109 53.8503-19.5109Z"/>
  </g>
  <g id="Medium-L" transform="matrix(1 0 0 1 1682.67 1556)">
   <path d="M31.8908-9.29433L50.1282-9.29433Q51.045-9.29433 51.7111-8.6981L79.9105 16.5158Q82.0946 18.4802 83.9987 19.4435Q85.9029 20.4068 88.1955 20.4068Q91.3603 20.4068 93.4412 18.2947Q95.5221 16.1826 95.5221 12.9928L95.5221-83.1792Q95.5221-86.369 93.4412-88.611Q91.3603-90.8529 88.1006-90.8529Q85.8395-90.8529 84.06-89.8064Q82.2805-88.7599 79.9105-86.6772L51.7111-61.5113Q51.0689-60.9495 50.1282-60.9495L31.8908-60.9495Q25.5024-60.9495 22.2649-57.5755Q19.0273-54.2015 19.0273-47.4388L19.0273-22.6898Q19.0273-15.9747 22.2649-12.6345Q25.5024-9.29433 31.8908-9.29433ZM32.7694-18.9846Q31.0177-18.9846 30.2159-19.8141Q29.4141-20.6437 29.4141-22.3849L29.4141-47.8141Q29.4141-49.588 30.2159-50.4125Q31.0177-51.2369 32.7694-51.2369L52.4748-51.2369Q53.8234-51.2369 54.8484-51.5578Q55.8733-51.8787 56.9886-52.8991L83.1583-76.7584Q83.4089-76.9642 83.684-77.1356Q83.959-77.307 84.2901-77.307Q85.2051-77.307 85.2051-76.3592L85.2051 5.85369Q85.2051 6.88232 84.36 6.88232Q83.7627 6.88232 83.1809 6.29785L56.9886-17.322Q55.1062-18.9846 52.4748-18.9846Z"/>
  </g>
  <g id="Regular-L" transform="matrix(1 0 0 1 1387.5 1556)">
   <path d="M30.264-10.4156L48.7309-10.4156Q49.7312-10.4156 50.46-9.76717L79.3615 16.0706Q81.3262 17.8521 83.0577 18.7317Q84.7892 19.6112 86.8673 19.6112Q89.639 19.6112 91.4344 17.7717Q93.2299 15.9321 93.2299 13.1353L93.2299-83.3055Q93.2299-86.1023 91.4344-88.0876Q89.639-90.073 86.7618-90.073Q84.6837-90.073 83.0979-89.0865Q81.5122-88.1 79.3615-86.2157L50.46-60.3902Q49.7865-59.7971 48.7309-59.7971L30.264-59.7971Q24.3989-59.7971 21.4675-56.7451Q18.5362-53.6931 18.5362-47.4584L18.5362-22.6181Q18.5362-16.4364 21.4675-13.426Q24.3989-10.4156 30.264-10.4156ZM30.6331-18.2982Q28.693-18.2982 27.8335-19.1854Q26.974-20.0725 26.974-22.0127L26.974-48.1447Q26.974-50.1123 27.8335-50.9996Q28.693-51.887 30.6331-51.887L50.6805-51.887Q51.9974-51.887 53.0038-52.1948Q54.0102-52.5025 55.1361-53.5228L82.7688-78.6876Q83.0402-78.9037 83.323-79.0934Q83.6059-79.283 83.9577-79.283Q84.8725-79.283 84.8725-78.3408L84.8725 7.79865Q84.8725 8.82173 84.0381 8.82173Q83.4199 8.82173 82.7966 8.20075L55.1361-16.662Q53.259-18.2982 50.6805-18.2982Z"/>
  </g>
  <g id="Light-L" transform="matrix(1 0 0 1 1093.14 1556)">
   <path d="M27.8401-11.5225L46.8416-11.5225Q48.0327-11.5225 48.876-10.7596L78.4646 15.5934Q80.0093 17.0504 81.4928 17.8155Q82.9762 18.5806 84.768 18.5806Q87.177 18.5806 88.6576 16.97Q90.1381 15.3594 90.1381 12.9634L90.1381-83.2674Q90.1381-85.6633 88.6576-87.3816Q87.177-89.0998 84.7006-89.0998Q82.9089-89.0998 81.533-88.2372Q80.1571-87.3747 78.4646-85.9104L48.876-59.2452Q48.1261-58.5757 46.8416-58.5757L27.8401-58.5757Q22.7004-58.5757 20.1602-55.9149Q17.6201-53.2541 17.6201-47.8782L17.6201-22.0454Q17.6201-16.7035 20.1602-14.113Q22.7004-11.5225 27.8401-11.5225ZM28.0756-17.6303Q25.9065-17.6303 25.0088-18.5747Q24.1112-19.5191 24.1112-21.6882L24.1112-48.3166Q24.1112-50.532 25.0088-51.4768Q25.9065-52.4216 28.0756-52.4216L48.0277-52.4216Q49.421-52.4216 50.4559-52.7197Q51.4908-53.0178 52.6167-54.0763L81.3373-80.2909Q81.6851-80.5452 81.9966-80.7824Q82.3082-81.0197 82.7363-81.0197Q83.7275-81.0197 83.7275-79.9822L83.7275 9.38268Q83.7275 10.5013 82.8168 10.5013Q82.1604 10.5013 81.3845 9.78478L52.6167-15.9748Q50.7207-17.6303 48.0277-17.6303Z"/>
  </g>
  <g id="Thin-L" transform="matrix(1 0 0 1 799.533 1556)">
   <path d="M24.6344-12.9864L44.3429-12.9864Q45.7863-12.9864 46.781-12.0722L77.2785 14.9624Q78.2676 15.9902 79.423 16.6039Q80.5784 17.2176 81.9914 17.2176Q83.9208 17.2176 84.9849 15.9098Q86.049 14.602 86.049 12.7361L86.049-83.2169Q86.049-85.0828 84.9849-86.4477Q83.9208-87.8127 81.9745-87.8127Q80.5615-87.8127 79.4632-87.114Q78.3649-86.4154 77.2785-85.5067L46.781-57.7307Q45.9302-56.9604 44.3429-56.9604L24.6344-56.9604Q20.454-56.9604 18.4312-54.8169Q16.4084-52.6735 16.4084-48.4333L16.4084-21.288Q16.4084-17.0568 18.4312-15.0216Q20.454-12.9864 24.6344-12.9864ZM24.693-16.7469Q22.2211-16.7469 21.273-17.767Q20.3249-18.7871 20.3249-21.259L20.3249-48.5439Q20.3249-51.0872 21.273-52.1078Q22.2211-53.1285 24.693-53.1285L44.5192-53.1285Q46.0134-53.1285 47.086-53.4139Q48.1587-53.6993 49.2846-54.8083L79.4442-82.4114Q79.8929-82.7161 80.2424-83.0163Q80.5919-83.3166 81.121-83.3166Q82.213-83.3166 82.213-82.1532L82.213 11.4777Q82.213 12.7227 81.2014 12.7227Q80.4945 12.7227 79.5168 11.8798L49.2846-15.066Q47.3636-16.7469 44.5192-16.7469Z"/>
  </g>
  <g id="Ultralight-L" transform="matrix(1 0 0 1 504.412 1556)">
   <path d="M22.9925-13.7363L43.063-13.7363Q44.6357-13.7363 45.7079-12.7445L76.6709 14.6392Q77.3754 15.4472 78.3629 15.9833Q79.3503 16.5195 80.5693 16.5195Q82.253 16.5195 83.1038 15.3667Q83.9546 14.214 83.9546 12.6197L83.9546-83.191Q83.9546-84.7854 83.1038-85.9694Q82.253-87.1534 80.5782-87.1534Q79.3592-87.1534 78.4031-86.5387Q77.4469-85.924 76.6709-85.2999L45.7079-56.955Q44.8054-56.133 43.063-56.133L22.9925-56.133Q19.3034-56.133 17.5456-54.2546Q15.7878-52.3762 15.7878-48.7176L15.7878-20.9Q15.7878-17.2377 17.5456-15.487Q19.3034-13.7363 22.9925-13.7363ZM22.9605-16.2945Q20.3335-16.2945 19.3595-17.3533Q18.3855-18.4122 18.3855-21.0392L18.3855-48.6603Q18.3855-51.3715 19.3595-52.4311Q20.3335-53.4906 22.9605-53.4906L42.7222-53.4906Q44.268-53.4906 45.36-53.7695Q46.452-54.0484 47.5779-55.1832L78.4745-83.4974Q78.9749-83.8281 79.3439-84.1605Q79.7128-84.493 80.2936-84.493Q81.4373-84.493 81.4373-83.2651L81.4373 12.5508Q81.4373 13.8605 80.374 13.8605Q79.6413 13.8605 78.5601 12.9529L47.5779-14.6005Q45.6441-16.2945 42.7222-16.2945Z"/>
  </g>
  <g id="Black-M" transform="matrix(1 0 0 1 2877.49 1126)">
   <path d="M31.4568-10.2925L44.6991-10.2925Q45.0857-10.2925 45.3489-10.0345L64.1607 6.77046Q66.7316 9.03367 68.9262 10.1308Q71.1208 11.2279 73.7987 11.2279Q77.9573 11.2279 80.7913 8.4004Q83.6253 5.57285 83.6253 1.40851L83.6253-71.7772Q83.6253-75.9415 80.7913-78.7826Q77.9573-81.6238 73.7877-81.6238Q71.2811-81.6238 69.0716-80.5758Q66.862-79.5278 64.1607-77.1333L45.3489-60.4215Q44.971-60.1059 44.6991-60.1059L31.4568-60.1059Q24.3178-60.1059 20.5169-56.1259Q16.7161-52.1459 16.7161-44.7402L16.7161-25.6536Q16.7161-18.2533 20.5169-14.2729Q24.3178-10.2925 31.4568-10.2925ZM34.4642-25.6125Q33.9067-25.6125 33.5411-26.0064Q33.1756-26.4002 33.1756-26.9006L33.1756-43.4983Q33.1756-44.0556 33.5411-44.4209Q33.9067-44.7861 34.4642-44.7861L48.1058-44.7861Q49.3247-44.7861 50.2146-45.0926Q51.1046-45.399 51.9198-46.2032L65.7527-58.9669Q65.8762-59.0909 66.0626-59.1551Q66.2491-59.2193 66.4349-59.2193Q67.171-59.2193 67.171-58.4264L67.171-11.9175Q67.171-11.0623 66.4401-11.0623Q66.0616-11.0623 65.7524-11.3776L51.9198-24.1954Q50.43-25.6125 48.1058-25.6125Z"/>
  </g>
  <g id="Heavy-M" transform="matrix(1 0 0 1 2582.26 1126)">
   <path d="M29.8924-11.4918L43.3141-11.4918Q43.7667-11.4918 44.0856-11.1916L63.6498 6.30229Q66.0297 8.40076 68.0563 9.41519Q70.0829 10.4296 72.5473 10.4296Q76.28 10.4296 78.8158 7.90224Q81.3516 5.37485 81.3516 1.62803L81.3516-71.9472Q81.3516-75.694 78.8158-78.2636Q76.28-80.8331 72.5145-80.8331Q70.1809-80.8331 68.1747-79.8354Q66.1684-78.8377 63.6498-76.6073L44.0856-59.2305Q43.684-58.8913 43.3141-58.8913L29.8924-58.8913Q23.2683-58.8913 19.7759-55.2399Q16.2834-51.5886 16.2834-44.6751L16.2834-25.6847Q16.2834-18.7876 19.7759-15.1397Q23.2683-11.4918 29.8924-11.4918ZM32.2756-24.8763Q31.5256-24.8763 31.0944-25.3317Q30.6631-25.787 30.6631-26.4933L30.6631-43.8852Q30.6631-44.6373 31.0944-45.0709Q31.5256-45.5045 32.2756-45.5045L46.3759-45.5045Q47.5377-45.5045 48.3978-45.7962Q49.2579-46.0879 50.0866-46.8837L65.5609-61.0951Q65.6946-61.2242 65.8849-61.3016Q66.0753-61.3789 66.2713-61.3789Q66.9907-61.3789 66.9907-60.6136L66.9907-9.76496Q66.9907-8.93736 66.29-8.93736Q65.8929-8.93736 65.5632-9.27895L50.0866-23.497Q48.6077-24.8763 46.3759-24.8763Z"/>
  </g>
  <g id="Bold-M" transform="matrix(1 0 0 1 2287.21 1126)">
   <path d="M28.1424-12.8334L41.7648-12.8334Q42.2912-12.8334 42.6725-12.4859L63.0782 5.77858Q65.2445 7.69276 67.0832 8.61466Q68.9218 9.53657 71.1474 9.53657Q74.4037 9.53657 76.6059 7.34497Q78.8082 5.15337 78.8082 1.87359L78.8082-72.1375Q78.8082-75.4172 76.6059-77.683Q74.4037-79.9487 71.0901-79.9487Q68.9502-79.9487 67.1714-79.0072Q65.3926-78.0658 63.0782-76.019L42.6725-57.8983Q42.2444-57.5325 41.7648-57.5325L28.1424-57.5325Q22.0943-57.5325 18.9469-54.2488Q15.7994-50.9651 15.7994-44.6024L15.7994-25.7194Q15.7994-19.3854 18.9469-16.1094Q22.0943-12.8334 28.1424-12.8334ZM29.8272-24.0527Q28.8621-24.0527 28.3573-24.5769Q27.8524-25.1012 27.8524-26.0377L27.8524-44.3179Q27.8524-45.2881 28.3573-45.7981Q28.8621-46.3081 29.8272-46.3081L44.4409-46.3081Q45.5387-46.3081 46.3654-46.5833Q47.1921-46.8585 48.0359-47.645L65.3464-63.4758Q65.4915-63.6107 65.6862-63.7027Q65.8808-63.7946 66.0882-63.7946Q66.7889-63.7946 66.7889-63.0603L66.7889-7.35699Q66.7889-6.56029 66.122-6.56029Q65.7042-6.56029 65.3516-6.93128L48.0359-22.7157Q46.5692-24.0527 44.4409-24.0527Z"/>
  </g>
  <g id="Semibold-M" transform="matrix(1 0 0 1 1991.64 1126)">
   <path d="M26.9359-13.7583L40.6967-13.7583Q41.274-13.7583 41.6983-13.3782L62.6842 5.41754Q64.7031 7.20466 66.4123 8.06279Q68.1214 8.92091 70.1823 8.92091Q73.1102 8.92091 75.0824 6.96079Q77.0547 5.00067 77.0547 2.04288L77.0547-72.2686Q77.0547-75.2264 75.0824-77.2827Q73.1102-79.339 70.1082-79.339Q68.1018-79.339 66.4798-78.4363Q64.8577-77.5336 62.6842-75.6133L41.6983-56.9798Q41.2519-56.5958 40.6967-56.5958L26.9359-56.5958Q21.2849-56.5958 18.3754-53.5655Q15.4658-50.5352 15.4658-44.5522L15.4658-25.7434Q15.4658-19.7975 18.3754-16.7779Q21.2849-13.7583 26.9359-13.7583ZM28.1393-23.4848Q27.0259-23.4848 26.4703-24.0566Q25.9148-24.6283 25.9148-25.7236L25.9148-44.6162Q25.9148-45.7367 26.4703-46.2995Q27.0259-46.8622 28.1393-46.8622L43.1069-46.8622Q44.1606-46.8622 44.9643-47.126Q45.768-47.3898 46.6221-48.1698L65.1985-65.117Q65.3515-65.2558 65.5491-65.358Q65.7467-65.4601 65.9621-65.4601Q66.6498-65.4601 66.6498-64.7471L66.6498-5.69696Q66.6498-4.92156 66.0062-4.92156Q65.574-4.92156 65.2057-5.31281L46.6221-22.1771Q45.1639-23.4848 43.1069-23.4848Z"/>
  </g>
  <g id="Medium-M" transform="matrix(1 0 0 1 1695.79 1126)">
   <path d="M26.0212-14.4596L39.8869-14.4596Q40.5028-14.4596 40.9597-14.0547L62.3855 5.14378Q64.2927 6.83457 65.9036 7.64433Q67.5145 8.45409 69.4505 8.45409Q72.1294 8.45409 73.9273 6.66949Q75.7251 4.8849 75.7251 2.17124L75.7251-72.368Q75.7251-75.0817 73.9273-76.9792Q72.1294-78.8766 69.3637-78.8766Q67.4585-78.8766 65.9553-78.0034Q64.4521-77.1301 62.3855-75.3058L40.9597-56.2834Q40.4994-55.8855 39.8869-55.8855L26.0212-55.8855Q20.6712-55.8855 17.942-53.0474Q15.2128-50.2093 15.2128-44.5142L15.2128-25.7615Q15.2128-20.1099 17.942-17.2848Q20.6712-14.4596 26.0212-14.4596ZM26.8595-23.0543Q25.6336-23.0543 25.0396-23.6621Q24.4456-24.2698 24.4456-25.4854L24.4456-44.8424Q24.4456-46.0769 25.0396-46.6796Q25.6336-47.2822 26.8595-47.2822L42.0954-47.2822Q43.1157-47.2822 43.9019-47.5374Q44.6881-47.7926 45.5501-48.5677L65.0864-66.3615Q65.2454-66.5033 65.4452-66.6131Q65.6451-66.7228 65.8664-66.7228Q66.5444-66.7228 66.5444-66.026L66.5444-4.43825Q66.5444-3.679 65.9184-3.679Q65.4754-3.679 65.095-4.08562L45.5501-21.7687Q44.0983-23.0543 42.0954-23.0543Z"/>
  </g>
  <g id="Regular-M" transform="matrix(1 0 0 1 1400.21 1126)">
   <path d="M24.828-15.3743L38.8305-15.3743Q39.4967-15.3743 39.9962-14.9372L61.9958 4.78671Q63.7573 6.35184 65.2401 7.09852Q66.7229 7.8452 68.4961 7.8452Q70.8501 7.8452 72.4205 6.28954Q73.991 4.73388 73.991 2.33867L73.991-72.4978Q73.991-74.893 72.4205-76.5833Q70.8501-78.2736 68.3925-78.2736Q66.6194-78.2736 65.2713-77.4387Q63.9231-76.6038 61.9958-74.9046L39.9962-55.3751Q39.5178-54.9591 38.8305-54.9591L24.828-54.9591Q19.8708-54.9591 17.3768-52.3716Q14.8828-49.7842 14.8828-44.4646L14.8828-25.7853Q14.8828-20.5175 17.3768-17.9459Q19.8708-15.3743 24.828-15.3743ZM25.1902-22.4928Q23.8175-22.4928 23.1734-23.1474Q22.5292-23.8021 22.5292-25.1748L22.5292-45.1375Q22.5292-46.5206 23.1734-47.1754Q23.8175-47.8302 25.1902-47.8302L40.776-47.8302Q41.7528-47.8302 42.5162-48.0741Q43.2796-48.318 44.1519-49.0867L64.9401-67.9847Q65.1069-68.1304 65.3097-68.2502Q65.5125-68.37 65.7416-68.37Q66.4068-68.37 66.4068-67.6943L66.4068-2.79645Q66.4068-2.05828 65.8039-2.05828Q65.3467-2.05828 64.9507-2.48493L44.1519-21.236Q42.7084-22.4928 40.776-22.4928Z"/>
  </g>
  <g id="Light-M" transform="matrix(1 0 0 1 1105.6 1126)">
   <path d="M22.6549-16.3667L37.1367-16.3667Q37.9739-16.3667 38.576-15.827L61.1917 4.35893Q62.5766 5.63313 63.837 6.27718Q65.0975 6.92122 66.6139 6.92122Q68.6427 6.92122 69.9309 5.57083Q71.219 4.22044 71.219 2.18458L71.219-72.4635Q71.219-74.4994 69.9309-75.9502Q68.6427-77.4011 66.5446-77.4011Q65.0282-77.4011 63.8682-76.6773Q62.7082-75.9535 61.1917-74.6309L38.576-54.3485Q38.0292-53.864 37.1367-53.864L22.6549-53.864Q18.348-53.864 16.2047-51.6273Q14.0615-49.3906 14.0615-44.8409L14.0615-25.2718Q14.0615-20.757 16.2047-18.5619Q18.348-16.3667 22.6549-16.3667ZM22.8972-21.8939Q21.3193-21.8939 20.6409-22.5999Q19.9626-23.3059 19.9626-24.8839L19.9626-45.2916Q19.9626-46.8969 20.6409-47.6032Q21.3193-48.3094 22.8972-48.3094L38.3977-48.3094Q39.4428-48.3094 40.2319-48.5447Q41.0209-48.78 41.8931-49.5829L63.6568-69.4221Q63.892-69.602 64.1205-69.7645Q64.349-69.927 64.6465-69.927Q65.3802-69.927 65.3802-69.1659L65.3802-1.37628Q65.3802-0.552432 64.7089-0.552432Q64.2174-0.552432 63.6847-1.06476L41.8931-20.6199Q40.4327-21.8939 38.3977-21.8939Z"/>
  </g>
  <g id="Thin-M" transform="matrix(1 0 0 1 811.674 1126)">
   <path d="M19.7808-17.6793L34.8964-17.6793Q35.9599-17.6793 36.6977-17.0038L60.1282 3.79316Q61.015 4.68258 61.9814 5.19088Q62.9477 5.69919 64.1246 5.69919Q65.7234 5.69919 66.6382 4.62027Q67.5529 3.54136 67.5529 1.98078L67.5529-72.4183Q67.5529-73.9789 66.6382-75.113Q65.7234-76.2471 64.1005-76.2471Q62.9236-76.2471 62.0125-75.6703Q61.1014-75.0934 60.1282-74.2689L36.6977-52.9907Q36.0605-52.4158 34.8964-52.4158L19.7808-52.4158Q16.3339-52.4158 14.6545-50.6429Q12.9752-48.8701 12.9752-45.3386L12.9752-24.5927Q12.9752-21.0737 14.6545-19.3765Q16.3339-17.6793 19.7808-17.6793ZM19.8646-21.1019Q18.0152-21.1019 17.2916-21.8758Q16.568-22.6497 16.568-24.4991L16.568-45.4954Q16.568-47.3946 17.2916-48.1689Q18.0152-48.9432 19.8646-48.9432L35.2521-48.9432Q36.3878-48.9432 37.2106-49.1671Q38.0335-49.391 38.9058-50.2392L61.9595-71.3232Q62.2852-71.5484 62.5477-71.7673Q62.8103-71.9863 63.1983-71.9863Q64.0224-71.9863 64.0224-71.1122L64.0224 0.502013Q64.0224 1.43917 63.2606 1.43917Q62.7239 1.43917 62.0102 0.813537L38.9058-19.8051Q37.4229-21.1019 35.2521-21.1019Z"/>
  </g>
  <g id="Ultralight-M" transform="matrix(1 0 0 1 516.389 1126)">
   <path d="M18.3087-18.3515L33.7489-18.3515Q34.9283-18.3515 35.7356-17.6065L59.5835 3.50338Q60.2152 4.19571 61.0309 4.63449Q61.8466 5.07327 62.8496 5.07327Q64.2281 5.07327 64.9517 4.13341Q65.6752 3.19354 65.6752 1.8764L65.6752-72.3951Q65.6752-73.7123 64.9517-74.6842Q64.2281-75.6561 62.8487-75.6561Q61.8457-75.6561 61.0621-75.1545Q60.2784-74.6529 59.5835-74.0835L35.7356-52.2953Q35.0521-51.674 33.7489-51.674L18.3087-51.674Q15.3024-51.674 13.8606-50.1387Q12.4188-48.6035 12.4188-45.5935L12.4188-24.2449Q12.4188-21.2359 13.8606-19.7937Q15.3024-18.3515 18.3087-18.3515ZM18.3113-20.6963Q16.3228-20.6963 15.576-21.5049Q14.8293-22.3135 14.8293-24.302L14.8293-45.5998Q14.8293-47.6496 15.576-48.4587Q16.3228-49.2679 18.3113-49.2679L33.6409-49.2679Q34.823-49.2679 35.6632-49.4859Q36.5034-49.7039 37.3756-50.5753L61.0901-72.297Q61.4622-72.5453 61.7422-72.7931Q62.0221-73.041 62.4565-73.041Q63.327-73.041 63.327-72.1092L63.327 1.46407Q63.327 2.45926 62.5188 2.45926Q61.9589 2.45926 61.1525 1.77559L37.3756-19.3878Q35.8813-20.6963 33.6409-20.6963Z"/>
  </g>
  <g id="Black-S" transform="matrix(1 0 0 1 2889.26 696)">
   <path d="M25-15.3809L35.3516-15.3809Q35.6445-15.3809 35.8398-15.1855L50.3906-2.19727Q52.4414-0.390625 54.1992 0.488281Q55.957 1.36719 58.1055 1.36719Q61.4746 1.36719 63.7695-0.927734Q66.0645-3.22266 66.0645-6.5918L66.0645-63.8184Q66.0645-67.1875 63.7695-69.4824Q61.4746-71.7773 58.1055-71.7773Q56.1035-71.7773 54.3213-70.9473Q52.5391-70.1172 50.3906-68.2129L35.8398-55.2734Q35.5469-55.0293 35.3516-55.0293L25-55.0293Q19.2871-55.0293 16.2354-51.8311Q13.1836-48.6328 13.1836-42.7246L13.1836-27.6855Q13.1836-21.7773 16.2354-18.5791Q19.2871-15.3809 25-15.3809ZM27.5391-27.8809Q27.1484-27.8809 26.8799-28.1738Q26.6113-28.4668 26.6113-28.8086L26.6113-41.6016Q26.6113-41.9922 26.8799-42.2607Q27.1484-42.5293 27.5391-42.5293L38.0859-42.5293Q39.0625-42.5293 39.7705-42.7734Q40.4785-43.0176 41.1133-43.6523L51.5137-53.2715Q51.6113-53.3691 51.7578-53.418Q51.9043-53.4668 52.0508-53.4668Q52.6367-53.4668 52.6367-52.832L52.6367-17.5293Q52.6367-16.8457 52.0508-16.8457Q51.7578-16.8457 51.5137-17.0898L41.1133-26.7578Q39.9414-27.8809 38.0859-27.8809Z"/>
  </g>
  <g id="Heavy-S" transform="matrix(1 0 0 1 2593.55 696)">
   <path d="M23.9397-16.2798L34.3835-16.2798Q34.711-16.2798 34.9409-16.0614L50.0564-2.543Q51.992-0.840079 53.6345-0.0187952Q55.2771 0.802489 57.2757 0.802489Q60.3222 0.802489 62.3981-1.26194Q64.4741-3.32638 64.4741-6.38436L64.4741-63.9682Q64.4741-67.0262 62.3981-69.1194Q60.3222-71.2126 57.2527-71.2126Q55.3659-71.2126 53.7335-70.4114Q52.1011-69.6101 50.0564-67.798L34.9409-54.3861Q34.6364-54.1304 34.3835-54.1304L23.9397-54.1304Q18.5841-54.1304 15.7513-51.1684Q12.9185-48.2064 12.9185-42.6209L12.9185-27.7777Q12.9185-22.2037 15.7513-19.2418Q18.5841-16.2798 23.9397-16.2798ZM25.9602-27.3277Q25.4313-27.3277 25.1109-27.6668Q24.7905-28.0058 24.7905-28.4974L24.7905-41.9127Q24.7905-42.4416 25.1109-42.7621Q25.4313-43.0825 25.9602-43.0825L36.9104-43.0825Q37.8294-43.0825 38.5086-43.3151Q39.1878-43.5477 39.8341-44.1709L51.5137-54.908Q51.6113-55.0056 51.7578-55.0602Q51.9043-55.1148 52.0508-55.1148Q52.6137-55.1148 52.6137-54.5146L52.6137-15.8698Q52.6137-15.2208 52.0623-15.2208Q51.7578-15.2208 51.5137-15.4764L39.8341-26.2392Q38.6737-27.3277 36.9104-27.3277Z"/>
  </g>
  <g id="Bold-S" transform="matrix(1 0 0 1 2297.95 696)">
   <path d="M22.7539-17.2852L33.3008-17.2852Q33.667-17.2852 33.9355-17.041L49.6826-2.92969Q51.4893-1.34277 53.0029-0.585938Q54.5166 0.170898 56.3477 0.170898Q59.0332 0.170898 60.8643-1.63574Q62.6953-3.44238 62.6953-6.15234L62.6953-64.1357Q62.6953-66.8457 60.8643-68.7134Q59.0332-70.5811 56.2988-70.5811Q54.541-70.5811 53.0762-69.812Q51.6113-69.043 49.6826-67.334L33.9355-53.3936Q33.6182-53.125 33.3008-53.125L22.7539-53.125Q17.7979-53.125 15.21-50.4272Q12.6221-47.7295 12.6221-42.5049L12.6221-27.8809Q12.6221-22.6807 15.21-19.9829Q17.7979-17.2852 22.7539-17.2852ZM24.1943-26.709Q23.5107-26.709 23.1323-27.0996Q22.7539-27.4902 22.7539-28.1494L22.7539-42.2607Q22.7539-42.9443 23.1323-43.3228Q23.5107-43.7012 24.1943-43.7012L35.5957-43.7012Q36.4502-43.7012 37.0972-43.9209Q37.7441-44.1406 38.4033-44.751L51.5137-56.7383Q51.6113-56.8359 51.7578-56.897Q51.9043-56.958 52.0508-56.958Q52.5879-56.958 52.5879-56.3965L52.5879-14.0137Q52.5879-13.4033 52.0752-13.4033Q51.7578-13.4033 51.5137-13.6719L38.4033-25.6592Q37.2559-26.709 35.5957-26.709Z"/>
  </g>
  <g id="Semibold-S" transform="matrix(1 0 0 1 2002.01 696)">
   <path d="M21.9363-17.9783L32.5543-17.9783Q32.9472-17.9783 33.2424-17.7164L49.4249-3.19629Q51.1427-1.68936 52.5675-0.976953Q53.9923-0.264551 55.7078-0.264551Q58.1445-0.264551 59.8067-1.89346Q61.4689-3.52236 61.4689-5.99238L61.4689-64.2513Q61.4689-66.7213 59.8067-68.4334Q58.1445-70.1456 55.6412-70.1456Q53.9723-70.1456 52.6229-69.3988Q51.2736-68.652 49.4249-67.0141L33.2424-52.7093Q32.9161-52.4318 32.5543-52.4318L21.9363-52.4318Q17.2558-52.4318 14.8367-49.9163Q12.4177-47.4007 12.4177-42.4249L12.4177-27.952Q12.4177-23.0095 14.8367-20.4939Q17.2558-17.9783 21.9363-17.9783ZM22.9769-26.2824Q22.1866-26.2824 21.7682-26.7086Q21.3498-27.1348 21.3498-27.9095L21.3498-42.5007Q21.3498-43.2909 21.7682-43.7093Q22.1866-44.1277 22.9769-44.1277L34.6893-44.1277Q35.4993-44.1277 36.1241-44.3386Q36.7488-44.5494 37.4169-45.1509L51.5137-58.0002Q51.6113-58.0979 51.7578-58.1633Q51.9043-58.2288 52.0508-58.2288Q52.5701-58.2288 52.5701-57.6939L52.5701-12.734Q52.5701-12.1503 52.0841-12.1503Q51.7578-12.1503 51.5137-12.4277L37.4169-25.2593Q36.2783-26.2824 34.6893-26.2824Z"/>
  </g>
  <g id="Medium-S" transform="matrix(1 0 0 1 1705.88 696)">
   <path d="M21.3164-18.5039L31.9883-18.5039Q32.4014-18.5039 32.7168-18.2285L49.2295-3.39844Q50.8799-1.95215 52.2373-1.27344Q53.5947-0.594727 55.2227-0.594727Q57.4707-0.594727 59.0049-2.08887Q60.5391-3.58301 60.5391-5.87109L60.5391-64.3389Q60.5391-66.627 59.0049-68.2212Q57.4707-69.8154 55.1426-69.8154Q53.541-69.8154 52.2793-69.0854Q51.0176-68.3555 49.2295-66.7715L32.7168-52.1904Q32.3838-51.9062 31.9883-51.9062L21.3164-51.9062Q16.8447-51.9062 14.5537-49.5288Q12.2627-47.1514 12.2627-42.3643L12.2627-28.0059Q12.2627-23.2588 14.5537-20.8813Q16.8447-18.5039 21.3164-18.5039ZM22.0537-25.959Q21.1826-25.959 20.7339-26.4121Q20.2852-26.8652 20.2852-27.7275L20.2852-42.6826Q20.2852-43.5537 20.7339-44.0024Q21.1826-44.4512 22.0537-44.4512L34.002-44.4512Q34.7783-44.4512 35.3862-44.6553Q35.9941-44.8594 36.6689-45.4541L51.5137-58.957Q51.6113-59.0547 51.7578-59.1235Q51.9043-59.1924 52.0508-59.1924Q52.5566-59.1924 52.5566-58.6777L52.5566-11.7637Q52.5566-11.2002 52.0908-11.2002Q51.7578-11.2002 51.5137-11.4844L36.6689-24.9561Q35.5371-25.959 34.002-25.959Z"/>
  </g>
  <g id="Regular-S" transform="matrix(1 0 0 1 1409.93 696)">
   <path d="M20.5078-19.1895L31.25-19.1895Q31.6895-19.1895 32.0312-18.8965L48.9746-3.66211Q50.5371-2.29492 51.8066-1.66016Q53.0762-1.02539 54.5898-1.02539Q56.5918-1.02539 57.959-2.34375Q59.3262-3.66211 59.3262-5.71289L59.3262-64.4531Q59.3262-66.5039 57.959-67.9443Q56.5918-69.3848 54.4922-69.3848Q52.9785-69.3848 51.8311-68.6768Q50.6836-67.9688 48.9746-66.4551L32.0312-51.5137Q31.6895-51.2207 31.25-51.2207L20.5078-51.2207Q16.3086-51.2207 14.1846-49.0234Q12.0605-46.8262 12.0605-42.2852L12.0605-28.0762Q12.0605-23.584 14.1846-21.3867Q16.3086-19.1895 20.5078-19.1895ZM20.8496-25.5371Q19.873-25.5371 19.3848-26.0254Q18.8965-26.5137 18.8965-27.4902L18.8965-42.9199Q18.8965-43.8965 19.3848-44.3848Q19.873-44.873 20.8496-44.873L33.1055-44.873Q33.8379-44.873 34.4238-45.0684Q35.0098-45.2637 35.6934-45.8496L51.5137-60.2051Q51.6113-60.3027 51.7578-60.376Q51.9043-60.4492 52.0508-60.4492Q52.5391-60.4492 52.5391-59.9609L52.5391-10.498Q52.5391-9.96094 52.0996-9.96094Q51.7578-9.96094 51.5137-10.2539L35.6934-24.5605Q34.5703-25.5371 33.1055-25.5371Z"/>
  </g>
  <g id="Light-S" transform="matrix(1 0 0 1 1115.08 696)">
   <path d="M18.5855-20.0673L29.7516-20.0673Q30.3424-20.0673 30.7749-19.6836L48.2633-4.04053Q49.4926-2.9307 50.5655-2.38673Q51.6383-1.84275 52.9249-1.84275Q54.6392-1.84275 55.7566-2.97953Q56.8741-4.11631 56.8741-5.8492L56.8741-64.4229Q56.8741-66.1558 55.7566-67.3843Q54.6392-68.6129 52.8575-68.6129Q51.5709-68.6129 50.5899-68.0032Q49.6089-67.3935 48.2633-66.213L30.7749-50.6055Q30.3726-50.252 29.7516-50.252L18.5855-50.252Q14.9615-50.252 13.1477-48.365Q11.334-46.478 11.334-42.6181L11.334-27.622Q11.334-23.7958 13.1477-21.9316Q14.9615-20.0673 18.5855-20.0673ZM18.8212-25.0074Q17.6631-25.0074 17.1445-25.5411Q16.626-26.0747 16.626-27.2329L16.626-43.0562Q16.626-44.2294 17.1445-44.7632Q17.6631-45.297 18.8212-45.297L31.0015-45.297Q31.7945-45.297 32.4031-45.4847Q33.0116-45.6724 33.6952-46.2886L50.3784-61.4766Q50.5366-61.6046 50.7058-61.7156Q50.8751-61.8266 51.0821-61.8266Q51.6309-61.8266 51.6309-61.2628L51.6309-9.24174Q51.6309-8.62885 51.1309-8.62885Q50.7589-8.62885 50.3937-8.9976L33.6952-24.0156Q32.5572-25.0074 31.0015-25.0074Z"/>
  </g>
  <g id="Thin-S" transform="matrix(1 0 0 1 820.829 696)">
   <path d="M16.043-21.2284L27.7698-21.2284Q28.5607-21.2284 29.1134-20.7246L47.3225-4.54102Q48.1113-3.77158 48.9239-3.34768Q49.7366-2.92378 50.7228-2.92378Q52.0567-2.92378 52.8438-3.82041Q53.631-4.71703 53.631-6.02949L53.631-64.3828Q53.631-65.6953 52.8438-66.6437Q52.0567-67.5921 50.6954-67.5921Q49.7092-67.5921 48.9483-67.1124Q48.1875-66.6327 47.3225-65.8928L29.1134-49.4044Q28.631-48.9709 27.7698-48.9709L16.043-48.9709Q13.1799-48.9709 11.7764-47.4942Q10.373-46.0176 10.373-43.0583L10.373-27.0212Q10.373-24.076 11.7764-22.6522Q13.1799-21.2284 16.043-21.2284ZM16.1385-24.3068Q14.7402-24.3068 14.1816-24.9005Q13.623-25.4942 13.623-26.8925L13.623-43.2365Q13.623-44.6697 14.1816-45.2637Q14.7402-45.8577 16.1385-45.8577L28.2189-45.8577Q29.0919-45.8577 29.7304-46.0353Q30.3689-46.2129 31.0525-46.8691L48.877-63.1584Q49.1152-63.3263 49.3145-63.4873Q49.5139-63.6482 49.8009-63.6482Q50.4298-63.6482 50.4298-62.9845L50.4298-7.58017Q50.4298-6.86705 49.8498-6.86705Q49.4377-6.86705 48.9124-7.33603L31.0525-23.2948Q29.8946-24.3068 28.2189-24.3068Z"/>
  </g>
  <g id="Ultralight-S" transform="matrix(1 0 0 1 525.38 696)">
   <path d="M14.7408-21.8231L26.7548-21.8231Q27.6482-21.8231 28.2623-21.2578L46.8407-4.79736Q47.4037-4.20227 48.0831-3.83987Q48.7625-3.47748 49.5949-3.47748Q50.7339-3.47748 51.3519-4.2511Q51.9699-5.02472 51.9699-6.12183L51.9699-64.3623Q51.9699-65.4594 51.3519-66.2643Q50.7339-67.0692 49.588-67.0692Q48.7556-67.0692 48.1075-66.6561Q47.4594-66.243 46.8407-65.7288L28.2623-48.7892Q27.739-48.3147 26.7548-48.3147L14.7408-48.3147Q12.2673-48.3147 11.0741-47.0482Q9.88083-45.7817 9.88083-43.2838L9.88083-26.7136Q9.88083-24.2195 11.0741-23.0213Q12.2673-21.8231 14.7408-21.8231ZM14.7644-23.9479Q13.2431-23.9479 12.664-24.5724Q12.085-25.1968 12.085-26.7181L12.085-43.3289Q12.085-44.8952 12.664-45.52Q13.2431-46.1449 14.7644-46.1449L26.7937-46.1449Q27.7077-46.1449 28.3615-46.3173Q29.0154-46.4897 29.6989-47.1664L48.1079-64.0198Q48.3871-64.2082 48.6019-64.3948Q48.8167-64.5813 49.1447-64.5813Q49.8146-64.5813 49.8146-63.8664L49.8146-6.72913Q49.8146-5.96466 49.1936-5.96466Q48.761-5.96466 48.1537-6.48499L29.6989-22.9256Q28.5309-23.9479 26.7937-23.9479Z"/>
  </g>
 </g>
</svg>
