<?xml version="1.0" encoding="UTF-8"?>
<!--Generator: Apple Native CoreSVG 175.5-->
<!DOCTYPE svg
PUBLIC "-//W3C//DTD SVG 1.1//EN"
       "http://www.w3.org/Graphics/SVG/1.1/DTD/svg11.dtd">
<svg version="1.1" xmlns="http://www.w3.org/2000/svg" xmlns:xlink="http://www.w3.org/1999/xlink" width="8.66455" height="12.7778">
 <g>
  <rect height="12.7778" opacity="0" width="8.66455" x="0" y="0"/>
  <path d="M1.42822 12.4478L7.23633 12.4478C8.16943 12.4478 8.66455 11.9399 8.66455 10.937L8.66455 6.56348C8.66455 5.56689 8.16943 5.05908 7.23633 5.05908L1.42822 5.05908C0.495117 5.05908 0 5.56689 0 6.56348L0 10.937C0 11.9399 0.495117 12.4478 1.42822 12.4478ZM1.45996 11.4893C1.18701 11.4893 1.02832 11.3179 1.02832 11.0068L1.02832 6.49365C1.02832 6.18262 1.18701 6.01758 1.45996 6.01758L7.20459 6.01758C7.48389 6.01758 7.63623 6.18262 7.63623 6.49365L7.63623 11.0068C7.63623 11.3179 7.48389 11.4893 7.20459 11.4893ZM1.11084 5.54785L2.12012 5.54785L2.12012 3.40869C2.12012 1.80273 3.14209 0.958496 4.3291 0.958496C5.51611 0.958496 6.55078 1.80273 6.55078 3.40869L6.55078 5.54785L7.55371 5.54785L7.55371 3.54199C7.55371 1.15527 5.99219 0 4.3291 0C2.67236 0 1.11084 1.15527 1.11084 3.54199Z" fill="#000000" fill-opacity="0.85"/>
 </g>
</svg>
