<?xml version="1.0" encoding="UTF-8"?>
<!--Generator: Apple Native CoreSVG 175-->
<!DOCTYPE svg
PUBLIC "-//W3C//DTD SVG 1.1//EN"
       "http://www.w3.org/Graphics/SVG/1.1/DTD/svg11.dtd">
<svg version="1.1" xmlns="http://www.w3.org/2000/svg" xmlns:xlink="http://www.w3.org/1999/xlink" width="3300" height="2200">
 <!--glyph: "uni1001EE.medium", point size: 100.0, font version: "17.1d1e1", template writer version: "65.1"-->
 <g id="Notes">
  <rect height="2200" id="artboard" style="fill:white;opacity:1" width="3300" x="0" y="0"/>
  <line style="fill:none;stroke:black;opacity:1;stroke-width:0.5;" x1="263" x2="3036" y1="292" y2="292"/>
  <text style="stroke:none;fill:black;font-family:sans-serif;font-size:13;font-weight:bold;" transform="matrix(1 0 0 1 263 322)">Weight/Scale Variations</text>
  <text style="stroke:none;fill:black;font-family:sans-serif;font-size:13;text-anchor:middle;" transform="matrix(1 0 0 1 559.711 322)">Ultralight</text>
  <text style="stroke:none;fill:black;font-family:sans-serif;font-size:13;text-anchor:middle;" transform="matrix(1 0 0 1 856.422 322)">Thin</text>
  <text style="stroke:none;fill:black;font-family:sans-serif;font-size:13;text-anchor:middle;" transform="matrix(1 0 0 1 1153.13 322)">Light</text>
  <text style="stroke:none;fill:black;font-family:sans-serif;font-size:13;text-anchor:middle;" transform="matrix(1 0 0 1 1449.84 322)">Regular</text>
  <text style="stroke:none;fill:black;font-family:sans-serif;font-size:13;text-anchor:middle;" transform="matrix(1 0 0 1 1746.56 322)">Medium</text>
  <text style="stroke:none;fill:black;font-family:sans-serif;font-size:13;text-anchor:middle;" transform="matrix(1 0 0 1 2043.27 322)">Semibold</text>
  <text style="stroke:none;fill:black;font-family:sans-serif;font-size:13;text-anchor:middle;" transform="matrix(1 0 0 1 2339.98 322)">Bold</text>
  <text style="stroke:none;fill:black;font-family:sans-serif;font-size:13;text-anchor:middle;" transform="matrix(1 0 0 1 2636.69 322)">Heavy</text>
  <text style="stroke:none;fill:black;font-family:sans-serif;font-size:13;text-anchor:middle;" transform="matrix(1 0 0 1 2933.4 322)">Black</text>
  <line style="fill:none;stroke:black;opacity:1;stroke-width:0.5;" x1="263" x2="3036" y1="1903" y2="1903"/>
  <g transform="matrix(1 0 0 1 263 1933)">
   <path d="M9.24805 0.830078Q10.8691 0.830078 12.2949 0.214844Q13.7207-0.400391 14.8096-1.49414Q15.8984-2.58789 16.5186-4.01367Q17.1387-5.43945 17.1387-7.05078Q17.1387-8.66211 16.5186-10.0879Q15.8984-11.5137 14.8047-12.6074Q13.7109-13.7012 12.2852-14.3164Q10.8594-14.9316 9.23828-14.9316Q7.62695-14.9316 6.20117-14.3164Q4.77539-13.7012 3.69141-12.6074Q2.60742-11.5137 1.9873-10.0879Q1.36719-8.66211 1.36719-7.05078Q1.36719-5.43945 1.9873-4.01367Q2.60742-2.58789 3.69629-1.49414Q4.78516-0.400391 6.21094 0.214844Q7.63672 0.830078 9.24805 0.830078ZM9.24805-0.654297Q7.91992-0.654297 6.7627-1.14746Q5.60547-1.64062 4.73145-2.51953Q3.85742-3.39844 3.36426-4.56055Q2.87109-5.72266 2.87109-7.05078Q2.87109-8.37891 3.35938-9.54102Q3.84766-10.7031 4.72168-11.582Q5.5957-12.4609 6.75293-12.9541Q7.91016-13.4473 9.23828-13.4473Q10.5762-13.4473 11.7334-12.9541Q12.8906-12.4609 13.7695-11.582Q14.6484-10.7031 15.1465-9.54102Q15.6445-8.37891 15.6445-7.05078Q15.6445-5.72266 15.1514-4.56055Q14.6582-3.39844 13.7842-2.51953Q12.9102-1.64062 11.748-1.14746Q10.5859-0.654297 9.24805-0.654297ZM5.6543-7.05078Q5.6543-6.72852 5.85938-6.52832Q6.06445-6.32812 6.40625-6.32812L8.51562-6.32812L8.51562-4.20898Q8.51562-3.88672 8.71094-3.67676Q8.90625-3.4668 9.23828-3.4668Q9.56055-3.4668 9.77051-3.67676Q9.98047-3.88672 9.98047-4.20898L9.98047-6.32812L12.0898-6.32812Q12.4219-6.32812 12.627-6.52832Q12.832-6.72852 12.832-7.05078Q12.832-7.38281 12.627-7.58789Q12.4219-7.79297 12.0898-7.79297L9.98047-7.79297L9.98047-9.90234Q9.98047-10.2344 9.77051-10.4443Q9.56055-10.6543 9.23828-10.6543Q8.90625-10.6543 8.71094-10.4443Q8.51562-10.2344 8.51562-9.90234L8.51562-7.79297L6.40625-7.79297Q6.06445-7.79297 5.85938-7.58789Q5.6543-7.38281 5.6543-7.05078Z"/>
  </g>
  <g transform="matrix(1 0 0 1 281.867 1933)">
   <path d="M11.709 2.91016Q13.75 2.91016 15.5518 2.12891Q17.3535 1.34766 18.7305-0.0292969Q20.1074-1.40625 20.8887-3.20801Q21.6699-5.00977 21.6699-7.05078Q21.6699-9.0918 20.8887-10.8936Q20.1074-12.6953 18.7305-14.0723Q17.3535-15.4492 15.5469-16.2305Q13.7402-17.0117 11.6992-17.0117Q9.6582-17.0117 7.85645-16.2305Q6.05469-15.4492 4.68262-14.0723Q3.31055-12.6953 2.5293-10.8936Q1.74805-9.0918 1.74805-7.05078Q1.74805-5.00977 2.5293-3.20801Q3.31055-1.40625 4.6875-0.0292969Q6.06445 1.34766 7.86621 2.12891Q9.66797 2.91016 11.709 2.91016ZM11.709 1.25Q9.98047 1.25 8.47656 0.605469Q6.97266-0.0390625 5.83496-1.17676Q4.69727-2.31445 4.05762-3.81836Q3.41797-5.32227 3.41797-7.05078Q3.41797-8.7793 4.05762-10.2832Q4.69727-11.7871 5.83008-12.9297Q6.96289-14.0723 8.4668-14.7119Q9.9707-15.3516 11.6992-15.3516Q13.4277-15.3516 14.9316-14.7119Q16.4355-14.0723 17.5781-12.9297Q18.7207-11.7871 19.3652-10.2832Q20.0098-8.7793 20.0098-7.05078Q20.0098-5.32227 19.3701-3.81836Q18.7305-2.31445 17.5928-1.17676Q16.4551-0.0390625 14.9463 0.605469Q13.4375 1.25 11.709 1.25ZM7.17773-7.05078Q7.17773-6.69922 7.41211-6.47461Q7.64648-6.25 8.01758-6.25L10.8887-6.25L10.8887-3.36914Q10.8887-2.99805 11.1133-2.76855Q11.3379-2.53906 11.6895-2.53906Q12.0605-2.53906 12.29-2.76855Q12.5195-2.99805 12.5195-3.36914L12.5195-6.25L15.4004-6.25Q15.7715-6.25 16.001-6.47461Q16.2305-6.69922 16.2305-7.05078Q16.2305-7.42188 16.001-7.65137Q15.7715-7.88086 15.4004-7.88086L12.5195-7.88086L12.5195-10.752Q12.5195-11.1328 12.29-11.3623Q12.0605-11.5918 11.6895-11.5918Q11.3379-11.5918 11.1133-11.3574Q10.8887-11.123 10.8887-10.752L10.8887-7.88086L8.01758-7.88086Q7.63672-7.88086 7.40723-7.65137Q7.17773-7.42188 7.17773-7.05078Z"/>
  </g>
  <g transform="matrix(1 0 0 1 305.646 1933)">
   <path d="M14.9707 5.66406Q17.0605 5.66406 18.96 5.01465Q20.8594 4.36523 22.4512 3.19336Q24.043 2.02148 25.2197 0.429688Q26.3965-1.16211 27.0459-3.06641Q27.6953-4.9707 27.6953-7.05078Q27.6953-9.14062 27.0459-11.04Q26.3965-12.9395 25.2197-14.5312Q24.043-16.123 22.4512-17.2998Q20.8594-18.4766 18.9551-19.126Q17.0508-19.7754 14.9609-19.7754Q12.8711-19.7754 10.9717-19.126Q9.07227-18.4766 7.48535-17.2998Q5.89844-16.123 4.72168-14.5312Q3.54492-12.9395 2.90039-11.04Q2.25586-9.14062 2.25586-7.05078Q2.25586-4.9707 2.90527-3.06641Q3.55469-1.16211 4.72656 0.429688Q5.89844 2.02148 7.49023 3.19336Q9.08203 4.36523 10.9814 5.01465Q12.8809 5.66406 14.9707 5.66406ZM14.9707 3.84766Q13.1641 3.84766 11.5283 3.2959Q9.89258 2.74414 8.53516 1.74805Q7.17773 0.751953 6.17676-0.610352Q5.17578-1.97266 4.62891-3.6084Q4.08203-5.24414 4.08203-7.05078Q4.08203-8.86719 4.62891-10.5029Q5.17578-12.1387 6.17188-13.501Q7.16797-14.8633 8.52539-15.8594Q9.88281-16.8555 11.5186-17.4023Q13.1543-17.9492 14.9609-17.9492Q16.7773-17.9492 18.4131-17.4023Q20.0488-16.8555 21.4111-15.8594Q22.7734-14.8633 23.7695-13.501Q24.7656-12.1387 25.3174-10.5029Q25.8691-8.86719 25.8691-7.05078Q25.8789-5.24414 25.332-3.6084Q24.7852-1.97266 23.7842-0.610352Q22.7832 0.751953 21.4209 1.74805Q20.0586 2.74414 18.4229 3.2959Q16.7871 3.84766 14.9707 3.84766ZM9.19922-7.05078Q9.19922-6.66992 9.45801-6.4209Q9.7168-6.17188 10.1172-6.17188L14.0625-6.17188L14.0625-2.2168Q14.0625-1.81641 14.3115-1.55762Q14.5605-1.29883 14.9512-1.29883Q15.3516-1.29883 15.6104-1.55273Q15.8691-1.80664 15.8691-2.2168L15.8691-6.17188L19.8242-6.17188Q20.2246-6.17188 20.4785-6.4209Q20.7324-6.66992 20.7324-7.05078Q20.7324-7.46094 20.4785-7.71484Q20.2246-7.96875 19.8242-7.96875L15.8691-7.96875L15.8691-11.9141Q15.8691-12.3242 15.6104-12.583Q15.3516-12.8418 14.9512-12.8418Q14.5605-12.8418 14.3115-12.583Q14.0625-12.3242 14.0625-11.9141L14.0625-7.96875L10.1172-7.96875Q9.70703-7.96875 9.45312-7.71484Q9.19922-7.46094 9.19922-7.05078Z"/>
  </g>
  <text style="stroke:none;fill:black;font-family:sans-serif;font-size:13;font-weight:bold;" transform="matrix(1 0 0 1 263 1953)">Design Variations</text>
  <text style="stroke:none;fill:black;font-family:sans-serif;font-size:13;" transform="matrix(1 0 0 1 263 1971)">Symbols are supported in up to nine weights and three scales.</text>
  <text style="stroke:none;fill:black;font-family:sans-serif;font-size:13;" transform="matrix(1 0 0 1 263 1989)">For optimal layout with text and other symbols, vertically align</text>
  <text style="stroke:none;fill:black;font-family:sans-serif;font-size:13;" transform="matrix(1 0 0 1 263 2007)">symbols with the adjacent text.</text>
  <line style="fill:none;stroke:#00AEEF;stroke-width:0.5;opacity:1.0;" x1="776" x2="776" y1="1919" y2="1933"/>
  <g transform="matrix(1 0 0 1 776 1933)">
   <path d="M3.31055 0.15625Q3.70117 0.15625 3.91602-0.00976562Q4.13086-0.175781 4.26758-0.585938L5.52734-4.0332L11.2891-4.0332L12.5488-0.585938Q12.6855-0.175781 12.9004-0.00976562Q13.1152 0.15625 13.4961 0.15625Q13.8867 0.15625 14.1162-0.0585938Q14.3457-0.273438 14.3457-0.644531Q14.3457-0.869141 14.2383-1.17188L9.6582-13.3691Q9.48242-13.8184 9.17969-14.043Q8.87695-14.2676 8.4082-14.2676Q7.5-14.2676 7.17773-13.3789L2.59766-1.16211Q2.49023-0.859375 2.49023-0.634766Q2.49023-0.263672 2.70996-0.0537109Q2.92969 0.15625 3.31055 0.15625ZM6.00586-5.51758L8.37891-12.0898L8.42773-12.0898L10.8008-5.51758Z"/>
  </g>
  <line style="fill:none;stroke:#00AEEF;stroke-width:0.5;opacity:1.0;" x1="793.197" x2="793.197" y1="1919" y2="1933"/>
  <text style="stroke:none;fill:black;font-family:sans-serif;font-size:13;font-weight:bold;" transform="matrix(1 0 0 1 776 1953)">Margins</text>
  <text style="stroke:none;fill:black;font-family:sans-serif;font-size:13;" transform="matrix(1 0 0 1 776 1971)">Leading and trailing margins on the left and right side of each symbol</text>
  <text style="stroke:none;fill:black;font-family:sans-serif;font-size:13;" transform="matrix(1 0 0 1 776 1989)">can be adjusted by modifying the x-location of the margin guidelines.</text>
  <text style="stroke:none;fill:black;font-family:sans-serif;font-size:13;" transform="matrix(1 0 0 1 776 2007)">Modifications are automatically applied proportionally to all</text>
  <text style="stroke:none;fill:black;font-family:sans-serif;font-size:13;" transform="matrix(1 0 0 1 776 2025)">scales and weights.</text>
  <g transform="matrix(1 0 0 1 1289 1933)">
   <path d="M2.8418 1.86523L4.54102 3.57422Q5.18555 4.22852 5.90332 4.17969Q6.62109 4.13086 7.31445 3.35938L18.0078-8.42773L17.041-9.4043L6.42578 2.27539Q6.16211 2.57812 5.89355 2.61719Q5.625 2.65625 5.27344 2.30469L4.10156 1.14258Q3.75 0.791016 3.79395 0.522461Q3.83789 0.253906 4.14062-0.0195312L15.6152-10.8203L14.6387-11.7871L3.04688-0.898438Q2.30469-0.214844 2.25098 0.498047Q2.19727 1.21094 2.8418 1.86523ZM9.25781-16.3281Q8.94531-16.0254 8.90625-15.6348Q8.86719-15.2441 9.04297-14.9512Q9.21875-14.6777 9.55566-14.541Q9.89258-14.4043 10.3809-14.5215Q11.4746-14.7754 12.5977-14.7314Q13.7207-14.6875 14.7949-13.9844L14.209-12.5293Q13.9551-11.9043 14.0674-11.4404Q14.1797-10.9766 14.5801-10.5664L16.875-8.25195Q17.2363-7.88086 17.5781-7.82227Q17.9199-7.76367 18.3398-7.8418L19.4043-8.03711L20.0684-7.36328L20.0293-6.80664Q20-6.43555 20.1221-6.12305Q20.2441-5.81055 20.6055-5.44922L21.3672-4.70703Q21.7285-4.3457 22.1533-4.33105Q22.5781-4.31641 22.9297-4.66797L25.8398-7.58789Q26.1914-7.93945 26.1816-8.35449Q26.1719-8.76953 25.8105-9.13086L25.0391-9.89258Q24.6875-10.2539 24.3799-10.3857Q24.0723-10.5176 23.7109-10.4883L23.1348-10.4395L22.4902-11.0742L22.7344-12.1973Q22.832-12.6172 22.6953-12.9834Q22.5586-13.3496 22.1191-13.7891L19.9219-15.9766Q18.6719-17.2168 17.2607-17.8369Q15.8496-18.457 14.4189-18.4814Q12.9883-18.5059 11.665-17.959Q10.3418-17.4121 9.25781-16.3281ZM10.752-15.957Q11.6602-16.6211 12.7002-16.9043Q13.7402-17.1875 14.8047-17.085Q15.8691-16.9824 16.8701-16.5137Q17.8711-16.0449 18.7012-15.2051L21.1328-12.793Q21.3086-12.6172 21.3525-12.4512Q21.3965-12.2852 21.3379-12.0312L21.0156-10.5469L22.5195-9.0625L23.5059-9.12109Q23.6914-9.13086 23.7891-9.09668Q23.8867-9.0625 24.0332-8.91602L24.6094-8.33984L22.168-5.89844L21.5918-6.47461Q21.4453-6.62109 21.4062-6.71875Q21.3672-6.81641 21.377-7.01172L21.4453-7.98828L19.9512-9.47266L18.4277-9.21875Q18.1836-9.16992 18.042-9.2041Q17.9004-9.23828 17.7148-9.41406L15.7129-11.416Q15.5176-11.5918 15.4932-11.7529Q15.4688-11.9141 15.5859-12.1875L16.4648-14.2773Q15.293-15.3711 13.8281-15.791Q12.3633-16.2109 10.8398-15.7617Q10.7227-15.7324 10.6885-15.8057Q10.6543-15.8789 10.752-15.957Z"/>
  </g>
  <text style="stroke:none;fill:black;font-family:sans-serif;font-size:13;font-weight:bold;" transform="matrix(1 0 0 1 1289 1953)">Exporting</text>
  <text style="stroke:none;fill:black;font-family:sans-serif;font-size:13;" transform="matrix(1 0 0 1 1289 1971)">Symbols should be outlined when exporting to ensure the</text>
  <text style="stroke:none;fill:black;font-family:sans-serif;font-size:13;" transform="matrix(1 0 0 1 1289 1989)">design is preserved when submitting to Xcode.</text>
  <text id="template-version" style="stroke:none;fill:black;font-family:sans-serif;font-size:13;text-anchor:end;" transform="matrix(1 0 0 1 3036 1933)">Template v.2.0</text>
  <text style="stroke:none;fill:black;font-family:sans-serif;font-size:13;text-anchor:end;" transform="matrix(1 0 0 1 3036 1951)">Requires Xcode 12 or greater</text>
  <text id="descriptive-name" style="stroke:none;fill:black;font-family:sans-serif;font-size:13;text-anchor:end;" transform="matrix(1 0 0 1 3036 1969)">Generated from light.max</text>
  <text style="stroke:none;fill:black;font-family:sans-serif;font-size:13;text-anchor:end;" transform="matrix(1 0 0 1 3036 1987)">Typeset at 100 points</text>
  <text style="stroke:none;fill:black;font-family:sans-serif;font-size:13;" transform="matrix(1 0 0 1 263 726)">Small</text>
  <text style="stroke:none;fill:black;font-family:sans-serif;font-size:13;" transform="matrix(1 0 0 1 263 1156)">Medium</text>
  <text style="stroke:none;fill:black;font-family:sans-serif;font-size:13;" transform="matrix(1 0 0 1 263 1586)">Large</text>
 </g>
 <g id="Guides">
  <g id="H-reference" style="fill:#27AAE1;stroke:none;" transform="matrix(1 0 0 1 339 696)">
   <path d="M0.976562 0L3.66211 0L29.3457-67.1387L30.0293-67.1387L30.0293-70.459L28.125-70.459ZM11.6699-24.4629L46.9727-24.4629L46.2402-26.709L12.4512-26.709ZM55.127 0L57.7637 0L30.6152-70.459L29.4434-70.459L29.4434-67.1387Z"/>
  </g>
  <line id="Baseline-S" style="fill:none;stroke:#27AAE1;opacity:1;stroke-width:0.5;" x1="263" x2="3036" y1="696" y2="696"/>
  <line id="Capline-S" style="fill:none;stroke:#27AAE1;opacity:1;stroke-width:0.5;" x1="263" x2="3036" y1="625.541" y2="625.541"/>
  <g id="H-reference" style="fill:#27AAE1;stroke:none;" transform="matrix(1 0 0 1 339 1126)">
   <path d="M0.976562 0L3.66211 0L29.3457-67.1387L30.0293-67.1387L30.0293-70.459L28.125-70.459ZM11.6699-24.4629L46.9727-24.4629L46.2402-26.709L12.4512-26.709ZM55.127 0L57.7637 0L30.6152-70.459L29.4434-70.459L29.4434-67.1387Z"/>
  </g>
  <line id="Baseline-M" style="fill:none;stroke:#27AAE1;opacity:1;stroke-width:0.5;" x1="263" x2="3036" y1="1126" y2="1126"/>
  <line id="Capline-M" style="fill:none;stroke:#27AAE1;opacity:1;stroke-width:0.5;" x1="263" x2="3036" y1="1055.54" y2="1055.54"/>
  <g id="H-reference" style="fill:#27AAE1;stroke:none;" transform="matrix(1 0 0 1 339 1556)">
   <path d="M0.976562 0L3.66211 0L29.3457-67.1387L30.0293-67.1387L30.0293-70.459L28.125-70.459ZM11.6699-24.4629L46.9727-24.4629L46.2402-26.709L12.4512-26.709ZM55.127 0L57.7637 0L30.6152-70.459L29.4434-70.459L29.4434-67.1387Z"/>
  </g>
  <line id="Baseline-L" style="fill:none;stroke:#27AAE1;opacity:1;stroke-width:0.5;" x1="263" x2="3036" y1="1556" y2="1556"/>
  <line id="Capline-L" style="fill:none;stroke:#27AAE1;opacity:1;stroke-width:0.5;" x1="263" x2="3036" y1="1485.54" y2="1485.54"/>
  <line id="left-margin" style="fill:none;stroke:#00AEEF;stroke-width:0.5;opacity:1.0;" x1="1379.77" x2="1379.77" y1="1030.79" y2="1150.12"/>
  <line id="right-margin" style="fill:none;stroke:#00AEEF;stroke-width:0.5;opacity:1.0;" x1="1519.91" x2="1519.91" y1="1030.79" y2="1150.12"/>
 </g>
 <g id="Symbols">
  <g id="Black-L" transform="matrix(1 0 0 1 2829.44 1556)">
   <path d="M20.9288 12.8246L42.6703 12.8246Q46.6574 12.8246 49.4891 9.99223Q52.3208 7.15988 52.3208 3.25195Q52.3208-0.635253 49.4489-3.49681Q46.577-6.35836 42.6703-6.35836L20.9288-6.35836Q17.0403-6.35836 14.1495-3.52601Q11.2588-0.69366 11.2588 3.25195Q11.2588 7.13786 14.1495 9.98122Q17.0403 12.8246 20.9288 12.8246ZM65.5393-31.683Q68.3029-34.4466 68.3023-38.4714Q68.3016-42.4961 65.5381-45.2597L50.246-60.6542Q47.4253-63.4542 43.4193-63.4639Q39.4134-63.4736 36.5889-60.6736Q33.8266-57.9685 33.8564-53.9334Q33.8863-49.8983 36.6486-47.1347L51.9991-31.7401Q54.8211-28.9182 58.7978-28.9188Q62.7745-28.9194 65.5393-31.683ZM104.02-45.2558Q107.966-45.2558 110.779-48.0888Q113.593-50.9218 113.593-54.809L113.593-76.5492Q113.593-80.5156 110.75-83.4063Q107.907-86.2971 104.02-86.2971Q100.133-86.2971 97.261-83.4063Q94.3891-80.5156 94.3891-76.5492L94.3891-54.809Q94.3891-50.9218 97.261-48.0888Q100.133-45.2558 104.02-45.2558ZM142.384-31.683Q145.127-28.9182 149.113-28.9182Q153.1-28.9182 155.902-31.7414L171.254-47.1347Q174.018-49.897 174.046-53.9321Q174.075-57.9672 171.313-60.6736Q168.51-63.4749 164.494-63.4645Q160.479-63.4542 157.678-60.6529L142.384-45.2597Q139.619-42.4961 139.619-38.472Q139.619-34.4479 142.384-31.683ZM165.234 12.8246L186.995 12.8246Q190.942 12.8246 193.803 9.98122Q196.665 7.13786 196.665 3.25195Q196.665-0.69366 193.803-3.52601Q190.942-6.35836 186.995-6.35836L165.234-6.35836Q161.347-6.35836 158.474-3.49681Q155.601-0.635253 155.601 3.25195Q155.601 7.15988 158.464 9.99223Q161.326 12.8246 165.234 12.8246ZM78.8857 15.0063L129.038 15.0063Q133.821 15.0063 137.288 11.5315Q140.755 8.0567 140.755 3.27267Q140.755-1.54903 137.298-4.99465Q133.841-8.44027 129.038-8.44027L78.8857-8.44027Q74.0809-8.44027 70.6249-4.99465Q67.1689-1.54903 67.1689 3.27267Q67.1689 8.0567 70.6249 11.5315Q74.0809 15.0063 78.8857 15.0063Z"/>
  </g>
  <g id="Heavy-L" transform="matrix(1 0 0 1 2535.92 1556)">
   <path d="M19.8681 11.1639L41.3091 11.1639Q44.8742 11.1639 47.3977 8.63734Q49.9212 6.11079 49.9212 2.62008Q49.9212-0.840857 47.3575-3.38972Q44.7937-5.93859 41.3091-5.93859L19.8681-5.93859Q16.4011-5.93859 13.83-3.41204Q11.2588-0.88548 11.2588 2.62008Q11.2588 6.07499 13.83 8.61945Q16.4011 11.1639 19.8681 11.1639ZM63.2224-32.2335Q65.6894-34.7005 65.6864-38.2805Q65.6834-41.8604 63.2163-44.3275L48.1349-59.5251Q45.6293-62.001 42.0568-62.0128Q38.4842-62.0247 35.9605-59.5488Q33.4995-57.1264 33.5248-53.5316Q33.5501-49.9367 36.0112-47.4697L51.1372-32.272Q53.6489-29.7604 57.1991-29.7634Q60.7493-29.7664 63.2224-32.2335ZM100.813-45.847Q104.318-45.847 106.837-48.3766Q109.357-50.9061 109.357-54.3671L109.357-75.802Q109.357-79.3373 106.815-81.9085Q104.274-84.4797 100.813-84.4797Q97.3518-84.4797 94.7881-81.9085Q92.2244-79.3373 92.2244-75.802L92.2244-54.3671Q92.2244-50.9061 94.7881-48.3766Q97.3518-45.847 100.813-45.847ZM138.314-32.2335Q140.751-29.7604 144.313-29.7604Q147.875-29.7604 150.363-32.2781L165.495-47.4697Q167.962-49.9307 167.982-53.5255Q168.001-57.1203 165.54-59.5488Q163.052-62.0307 159.468-62.0158Q155.883-62.001 153.401-59.519L138.314-44.3275Q135.841-41.8604 135.841-38.2835Q135.841-34.7065 138.314-32.2335ZM160.204 11.1639L181.668 11.1639Q185.18 11.1639 187.729 8.61945Q190.278 6.07499 190.278 2.62008Q190.278-0.88548 187.729-3.41204Q185.18-5.93859 181.668-5.93859L160.204-5.93859Q156.743-5.93859 154.176-3.38972Q151.609-0.840857 151.609 2.62008Q151.609 6.11079 154.161 8.63734Q156.713 11.1639 160.204 11.1639ZM75.9089 12.8447L125.627 12.8447Q129.781 12.8447 132.809 9.82729Q135.837 6.80989 135.837 2.64985Q135.837-1.52506 132.824-4.52015Q129.811-7.51524 125.627-7.51524L75.9089-7.51524Q71.7191-7.51524 68.7091-4.52015Q65.6992-1.52506 65.6992 2.64985Q65.6992 6.80989 68.7091 9.82729Q71.7191 12.8447 75.9089 12.8447Z"/>
  </g>
  <g id="Bold-L" transform="matrix(1 0 0 1 2242.79 1556)">
   <path d="M18.5233 9.26878L39.7633 9.26878Q42.7844 9.26878 44.9143 7.13179Q47.0441 4.9948 47.0441 2.03989Q47.0441-0.878021 44.8741-3.02961Q42.704-5.18121 39.7633-5.18121L18.5233-5.18121Q15.5912-5.18121 13.425-3.04422Q11.2588-0.907225 11.2588 2.03989Q11.2588 4.94358 13.425 7.10618Q15.5912 9.26878 18.5233 9.26878ZM60.5211-32.8319Q62.6104-34.9212 62.6033-37.9345Q62.5962-40.9478 60.5069-43.0371L45.5633-58.1123Q43.4591-60.1796 40.4419-60.191Q37.4247-60.2024 35.2777-58.1351Q33.2026-56.075 33.2244-53.0432Q33.2461-50.0114 35.3211-47.9221L50.2939-32.8469Q52.4124-30.7284 55.415-30.7355Q58.4176-30.7426 60.5211-32.8319ZM97.2191-46.5659Q100.166-46.5659 102.307-48.71Q104.448-50.8541 104.448-53.772L104.448-74.9978Q104.448-77.9819 102.293-80.1481Q100.137-82.3143 97.2191-82.3143Q94.3012-82.3143 92.1311-80.1481Q89.961-77.9819 89.961-74.9978L89.961-53.772Q89.961-50.8541 92.1311-48.71Q94.3012-46.5659 97.2191-46.5659ZM133.859-32.8319Q135.911-30.7284 138.925-30.7284Q141.939-30.7284 144.035-32.8611L159.022-47.9221Q161.111-49.9972 161.118-53.029Q161.126-56.0608 159.051-58.1351Q156.955-60.2166 153.927-60.1981Q150.898-60.1796 148.817-58.0981L133.859-43.0371Q131.755-40.9478 131.755-37.9416Q131.755-34.9354 133.859-32.8319ZM154.594 9.26878L175.857 9.26878Q178.818 9.26878 180.969 7.10618Q183.121 4.94358 183.121 2.03989Q183.121-0.907225 180.969-3.04422Q178.818-5.18121 175.857-5.18121L154.594-5.18121Q151.676-5.18121 149.499-3.02961Q147.321-0.878021 147.321 2.03989Q147.321 4.9948 149.48 7.13179Q151.639 9.26878 154.594 9.26878ZM72.5042 10.3863L121.876 10.3863Q125.254 10.3863 127.742 7.92806Q130.23 5.46984 130.23 2.07688Q130.23-1.30828 127.761-3.75191Q125.291-6.19554 121.876-6.19554L72.5042-6.19554Q69.0742-6.19554 66.6121-3.75191Q64.15-1.30828 64.15 2.07688Q64.15 5.46984 66.6121 7.92806Q69.0742 10.3863 72.5042 10.3863Z"/>
  </g>
  <g id="Semibold-L" transform="matrix(1 0 0 1 1948.54 1556)">
   <path d="M17.5962 7.9623L38.6976 7.9623Q41.3437 7.9623 43.2022 6.09387Q45.0607 4.22544 45.0607 1.63991Q45.0607-0.903642 43.162-2.78136Q41.2633-4.65907 38.6976-4.65907L17.5962-4.65907Q15.0328-4.65907 13.1458-2.79064Q11.2588-0.922215 11.2588 1.63991Q11.2588 4.16359 13.1458 6.06294Q15.0328 7.9623 17.5962 7.9623ZM58.6589-33.2445Q60.4878-35.0734 60.4778-37.6961Q60.4679-40.3187 58.639-42.1476L43.7905-57.1384Q41.9629-58.924 39.3286-58.935Q36.6942-58.9461 34.807-57.1605Q32.998-55.3502 33.0172-52.7065Q33.0364-50.0629 34.8454-48.234L49.7125-33.2432Q51.56-31.3958 54.1851-31.4057Q56.8102-31.4156 58.6589-33.2445ZM94.7417-47.0615Q97.3038-47.0615 99.1839-48.9399Q101.064-50.8182 101.064-53.3618L101.064-74.4433Q101.064-77.0474 99.1746-78.9344Q97.2852-80.8214 94.7417-80.8214Q92.1981-80.8214 90.2994-78.9344Q88.4007-77.0474 88.4007-74.4433L88.4007-53.3618Q88.4007-50.8182 90.2994-48.9399Q92.1981-47.0615 94.7417-47.0615ZM130.787-33.2445Q132.574-31.3958 135.21-31.3958Q137.846-31.3958 139.672-33.2631L154.559-48.234Q156.388-50.043 156.387-52.6867Q156.386-55.3303 154.577-57.1605Q152.752-58.966 150.107-58.945Q147.461-58.924 145.656-57.1185L130.787-42.1476Q128.939-40.3187 128.939-37.706Q128.939-35.0933 130.787-33.2445ZM150.726 7.9623L171.85 7.9623Q174.432 7.9623 176.31 6.06294Q178.187 4.16359 178.187 1.63991Q178.187-0.922215 176.31-2.79064Q174.432-4.65907 171.85-4.65907L150.726-4.65907Q148.183-4.65907 146.274-2.78136Q144.366-0.903642 144.366 1.63991Q144.366 4.22544 146.253 6.09387Q148.141 7.9623 150.726 7.9623ZM70.1569 8.69148L119.289 8.69148Q122.134 8.69148 124.249 6.61875Q126.364 4.54601 126.364 1.68188Q126.364-1.15884 124.27-3.22229Q122.175-5.28574 119.289-5.28574L70.1569-5.28574Q67.2508-5.28574 65.1664-3.22229Q63.082-1.15884 63.082 1.68188Q63.082 4.54601 65.1664 6.61875Q67.2508 8.69148 70.1569 8.69148Z"/>
  </g>
  <g id="Medium-L" transform="matrix(1 0 0 1 1653.7 1556)">
   <path d="M16.8933 6.97166L37.8896 6.97166Q40.2513 6.97166 41.904 5.30687Q43.5568 3.64208 43.5568 1.33663Q43.5568-0.923069 41.8638-2.59312Q40.1709-4.26317 37.8896-4.26317L16.8933-4.26317Q14.6094-4.26317 12.9341-2.59838Q11.2588-0.933582 11.2588 1.33663Q11.2588 3.57217 12.9341 5.27192Q14.6094 6.97166 16.8933 6.97166ZM57.2469-33.5573Q58.8783-35.1887 58.8662-37.5152Q58.8541-39.8417 57.2227-41.4731L42.4463-56.3999Q40.8285-57.9719 38.4844-57.9827Q36.1403-57.9935 34.4501-56.4215Q32.8428-54.8006 32.8602-52.4513Q32.8775-50.1019 34.4847-48.4705L49.2717-33.5437Q50.9137-31.9018 53.2525-31.9139Q55.5913-31.9259 57.2469-33.5573ZM92.8632-47.4373Q95.1334-47.4373 96.8158-49.1142Q98.4982-50.791 98.4982-53.0507L98.4982-74.0229Q98.4982-76.3389 96.8105-78.0142Q95.1229-79.6895 92.8632-79.6895Q90.6035-79.6895 88.9105-78.0142Q87.2176-76.3389 87.2176-74.0229L87.2176-53.0507Q87.2176-50.791 88.9105-49.1142Q90.6035-47.4373 92.8632-47.4373ZM128.458-33.5573Q130.044-31.9018 132.394-31.9018Q134.743-31.9018 136.364-33.5679L151.175-48.4705Q152.806-50.0778 152.799-52.4271Q152.793-54.7765 151.185-56.4215Q149.565-58.0177 147.21-57.9948Q144.855-57.9719 143.259-56.3758L128.458-41.4731Q126.803-39.8417 126.803-37.5273Q126.803-35.2129 128.458-33.5573ZM147.794 6.97166L168.812 6.97166Q171.106 6.97166 172.776 5.27192Q174.447 3.57217 174.447 1.33663Q174.447-0.933582 172.776-2.59838Q171.106-4.26317 168.812-4.26317L147.794-4.26317Q145.534-4.26317 143.829-2.59312Q142.124-0.923069 142.124 1.33663Q142.124 3.64208 143.807 5.30687Q145.489 6.97166 147.794 6.97166ZM68.3772 7.4064L117.328 7.4064Q119.767 7.4064 121.6 5.62597Q123.433 3.84553 123.433 1.38238Q123.433-1.04553 121.623-2.82071Q119.813-4.59589 117.328-4.59589L68.3772-4.59589Q65.8683-4.59589 64.0702-2.82071Q62.2722-1.04553 62.2722 1.38238Q62.2722 3.84553 64.0702 5.62597Q65.8683 7.4064 68.3772 7.4064Z"/>
  </g>
  <g id="Regular-L" transform="matrix(1 0 0 1 1359.43 1556)">
   <path d="M15.9763 5.67954L36.8357 5.67954Q38.8265 5.67954 40.2108 4.28035Q41.5951 2.88117 41.5951 0.941042Q41.5951-0.948408 40.1706-2.34759Q38.7461-3.74677 36.8357-3.74677L15.9763-3.74677Q14.0572-3.74677 12.658-2.34759Q11.2588-0.948408 11.2588 0.941042Q11.2588 2.80075 12.658 4.24014Q14.0572 5.67954 15.9763 5.67954ZM55.4051-33.9654Q56.779-35.3392 56.7641-37.2794Q56.7492-39.2195 55.3754-40.5933L40.6929-55.4367Q39.3488-56.7301 37.3833-56.7406Q35.4179-56.751 33.9845-55.4576Q32.6404-54.0838 32.6553-52.1183Q32.6702-50.1528 34.0143-48.779L48.6968-33.9357Q50.0706-32.5618 52.0361-32.5767Q54.0016-32.5916 55.4051-33.9654ZM90.4129-47.9275Q92.3024-47.9275 93.7269-49.3415Q95.1514-50.7556 95.1514-52.645L95.1514-73.4746Q95.1514-75.4147 93.7269-76.8139Q92.3024-78.2131 90.4129-78.2131Q88.5235-78.2131 87.099-76.8139Q85.6744-75.4147 85.6744-73.4746L85.6744-52.645Q85.6744-50.7556 87.099-49.3415Q88.5235-47.9275 90.4129-47.9275ZM125.421-33.9654Q126.744-32.5618 128.72-32.5618Q130.696-32.5618 132.049-33.9654L146.761-48.779Q148.135-50.1231 148.12-52.0886Q148.105-54.054 146.761-55.4576Q145.408-56.7808 143.432-56.7554Q141.456-56.7301 140.133-55.4069L125.421-40.5933Q124.017-39.2195 124.017-37.2942Q124.017-35.369 125.421-33.9654ZM143.969 5.67954L164.85 5.67954Q166.769 5.67954 168.168 4.24014Q169.567 2.80075 169.567 0.941042Q169.567-0.948408 168.168-2.34759Q166.769-3.74677 164.85-3.74677L143.969-3.74677Q142.08-3.74677 140.64-2.34759Q139.201-0.948408 139.201 0.941042Q139.201 2.88117 140.615 4.28035Q142.029 5.67954 143.969 5.67954ZM66.0558 5.73022L114.77 5.73022Q116.681 5.73022 118.145 4.33104Q119.61 2.93185 119.61 0.991723Q119.61-0.897727 118.171-2.29691Q116.731-3.69609 114.77-3.69609L66.0558-3.69609Q64.0649-3.69609 62.6404-2.29691Q61.2159-0.897727 61.2159 0.991723Q61.2159 2.93185 62.6404 4.33104Q64.0649 5.73022 66.0558 5.73022Z"/>
  </g>
  <g id="Light-L" transform="matrix(1 0 0 1 1062.76 1556)">
   <path d="M14.8476 5.41275L36.6715 5.41275Q38.1493 5.41275 39.1847 4.35218Q40.2201 3.29161 40.2201 1.84401Q40.2201 0.426564 39.1445-0.634006Q38.0688-1.69457 36.6715-1.69457L14.8476-1.69457Q13.3799-1.69457 12.3194-0.634006Q11.2588 0.426564 11.2588 1.84401Q11.2588 3.21119 12.3194 4.31197Q13.3799 5.41275 14.8476 5.41275ZM54.6253-33.8423Q55.6708-34.8877 55.6457-36.3354Q55.6205-37.783 54.575-38.8284L39.1948-54.3695Q38.1996-55.3346 36.7369-55.3246Q35.2742-55.3145 34.1282-54.3494Q33.133-53.3039 33.1581-51.8413Q33.1832-50.3786 34.1785-49.3331L49.5587-33.792Q50.6042-32.7465 52.0669-32.7716Q53.5296-32.7968 54.6253-33.8423ZM90.3719-48.3379Q91.7893-48.3379 92.865-49.4236Q93.9406-50.5093 93.9406-51.9267L93.9406-73.7004Q93.9406-75.148 92.865-76.2085Q91.7893-77.2691 90.3719-77.2691Q88.9544-77.2691 87.8788-76.2085Q86.8031-75.148 86.8031-73.7004L86.8031-51.9267Q86.8031-50.5093 87.8788-49.4236Q88.9544-48.3379 90.3719-48.3379ZM126.118-33.8423Q127.134-32.7465 128.586-32.7465Q130.039-32.7465 131.105-33.8423L146.535-49.3331Q147.581-50.3283 147.556-51.791Q147.53-53.2537 146.535-54.3494Q145.47-55.3648 144.017-55.3497Q142.564-55.3346 141.549-54.3193L126.118-38.8284Q125.023-37.783 125.023-36.3605Q125.023-34.938 126.118-33.8423ZM144.092 5.41275L165.896 5.41275Q167.364 5.41275 168.424 4.31197Q169.485 3.21119 169.485 1.84401Q169.485 0.426564 168.424-0.634006Q167.364-1.69457 165.896-1.69457L144.092-1.69457Q142.675-1.69457 141.574-0.634006Q140.473 0.426564 140.473 1.84401Q140.473 3.29161 141.559 4.35218Q142.645 5.41275 144.092 5.41275ZM65.5222 5.44291L115.222 5.44291Q116.619 5.44291 117.735 4.38234Q118.851 3.32177 118.851 1.87417Q118.851 0.456723 117.75-0.603846Q116.649-1.66442 115.222-1.66442L65.5222-1.66442Q64.0444-1.66442 62.9688-0.603846Q61.8931 0.456723 61.8931 1.87417Q61.8931 3.32177 62.9688 4.38234Q64.0444 5.44291 65.5222 5.44291Z"/>
  </g>
  <g id="Thin-L" transform="matrix(1 0 0 1 766.105 1556)">
   <path d="M13.3548 5.05991L36.4544 5.05991Q37.2536 5.05991 37.8276 4.44718Q38.4016 3.83445 38.4016 3.03825Q38.4016 2.24507 37.7874 1.63235Q37.1732 1.01962 36.4544 1.01962L13.3548 1.01962Q12.4842 1.01962 11.8715 1.63235Q11.2588 2.24507 11.2588 3.03825Q11.2588 3.75403 11.8715 4.40697Q12.4842 5.05991 13.3548 5.05991ZM53.5939-33.6794Q54.2051-34.2906 54.1664-35.0868Q54.1277-35.883 53.5165-36.4942L37.2134-52.9582Q36.6796-53.4889 35.8819-53.4518Q35.0842-53.4146 34.3182-52.8838Q33.7844-52.2725 33.8231-51.4748Q33.8618-50.6771 34.3956-50.0659L50.6987-33.602Q51.3099-32.9908 52.1076-33.0295Q52.9053-33.0682 53.5939-33.6794ZM90.3176-48.8807Q91.1108-48.8807 91.725-49.5322Q92.3393-50.1836 92.3393-50.9768L92.3393-73.9989Q92.3393-74.7951 91.725-75.4078Q91.1108-76.0206 90.3176-76.0206Q89.5244-76.0206 88.9102-75.4078Q88.296-74.7951 88.296-73.9989L88.296-50.9768Q88.296-50.1836 88.9102-49.5322Q89.5244-48.8807 90.3176-48.8807ZM127.041-33.6794Q127.65-32.9908 128.41-32.9908Q129.171-32.9908 129.856-33.6794L146.237-50.0659Q146.848-50.5997 146.809-51.3974Q146.77-52.1951 146.237-52.8838Q145.551-53.492 144.79-53.4905Q144.03-53.4889 143.422-52.8807L127.041-36.4942Q126.353-35.883 126.353-35.1255Q126.353-34.368 127.041-33.6794ZM144.255 5.05991L167.28 5.05991Q168.151 5.05991 168.764 4.40697Q169.376 3.75403 169.376 3.03825Q169.376 2.24507 168.764 1.63235Q168.151 1.01962 167.28 1.01962L144.255 1.01962Q143.462 1.01962 142.809 1.63235Q142.156 2.24507 142.156 3.03825Q142.156 3.83445 142.808 4.44718Q143.459 5.05991 144.255 5.05991ZM64.8165 5.06292L115.819 5.06292Q116.538 5.06292 117.192 4.4502Q117.846 3.83747 117.846 3.04127Q117.846 2.24809 117.193 1.63537Q116.541 1.02264 115.819 1.02264L64.8165 1.02264Q64.0173 1.02264 63.403 1.63537Q62.7888 2.24809 62.7888 3.04127Q62.7888 3.83747 63.403 4.4502Q64.0173 5.06292 64.8165 5.06292Z"/>
  </g>
  <g id="Ultralight-L" transform="matrix(1 0 0 1 469.421 1556)">
   <path d="M12.5902 4.87918L36.3431 4.87918Q36.7948 4.87918 37.1325 4.49584Q37.4702 4.11249 37.4702 3.64994Q37.4702 3.17651 37.0923 2.79316Q36.7144 2.40982 36.3431 2.40982L12.5902 2.40982Q12.0255 2.40982 11.6421 2.79316Q11.2588 3.17651 11.2588 3.64994Q11.2588 4.03207 11.6421 4.45563Q12.0255 4.87918 12.5902 4.87918ZM53.0656-33.596Q53.4544-33.9848 53.4088-34.4473Q53.3631-34.9099 52.9743-35.2987L36.1986-52.2352Q35.9011-52.5436 35.444-52.4925Q34.9869-52.4414 34.4155-52.1331Q34.118-51.7443 34.1637-51.2872Q34.2093-50.8301 34.5068-50.4413L51.2825-33.5047Q51.6713-33.1159 52.1284-33.1616Q52.5855-33.2072 53.0656-33.596ZM90.2898-49.1588Q90.7632-49.1588 91.1411-49.5878Q91.519-50.0168 91.519-50.4902L91.519-74.1518Q91.519-74.6144 91.1411-74.9977Q90.7632-75.3811 90.2898-75.3811Q89.8164-75.3811 89.4385-74.9977Q89.0606-74.6144 89.0606-74.1518L89.0606-50.4902Q89.0606-50.0168 89.4385-49.5878Q89.8164-49.1588 90.2898-49.1588ZM127.514-33.596Q127.914-33.1159 128.32-33.1159Q128.726-33.1159 129.217-33.596L146.084-50.4413Q146.472-50.7388 146.427-51.1959Q146.381-51.653 146.084-52.1331Q145.593-52.5327 145.187-52.5382Q144.781-52.5436 144.381-52.1439L127.514-35.2987Q127.034-34.9099 127.034-34.493Q127.034-34.0761 127.514-33.596ZM144.339 4.87918L167.989 4.87918Q168.554 4.87918 168.937 4.45563Q169.321 4.03207 169.321 3.64994Q169.321 3.17651 168.937 2.79316Q168.554 2.40982 167.989 2.40982L144.339 2.40982Q143.865 2.40982 143.442 2.79316Q143.018 3.17651 143.018 3.64994Q143.018 4.11249 143.447 4.49584Q143.876 4.87918 144.339 4.87918ZM64.455 4.86829L116.125 4.86829Q116.496 4.86829 116.914 4.48495Q117.332 4.10161 117.332 3.63906Q117.332 3.16562 116.908 2.78228Q116.485 2.39893 116.125 2.39893L64.455 2.39893Q64.0034 2.39893 63.6255 2.78228Q63.2476 3.16562 63.2476 3.63906Q63.2476 4.10161 63.6255 4.48495Q64.0034 4.86829 64.455 4.86829Z"/>
  </g>
  <g id="Black-M" transform="matrix(1 0 0 1 2850.12 1126)">
   <path d="M16.9731 3.3911L34.2061 3.3911Q37.5882 3.3911 39.9997 0.979827Q42.4111-1.43145 42.4111-4.75092Q42.4111-8.06489 39.9685-10.5047Q37.5259-12.9445 34.2061-12.9445L16.9731-12.9445Q13.6594-12.9445 11.191-10.5333Q8.72266-8.12199 8.72266-4.75092Q8.72266-1.43665 11.191 0.977222Q13.6594 3.3911 16.9731 3.3911ZM52.6617-31.9922Q55.0131-34.3436 55.0133-37.7772Q55.0134-41.2109 52.662-43.5623L40.539-55.7529Q38.1301-58.1562 34.7223-58.1591Q31.3144-58.162 28.9065-55.7587Q26.5547-53.4644 26.5831-50.028Q26.6115-46.5915 28.9633-44.2401L41.1434-32.0496Q43.5519-29.641 46.9312-29.6409Q50.3106-29.6407 52.6617-31.9922ZM83.3397-42.5448Q86.7108-42.5448 89.0963-44.9559Q91.4818-47.367 91.4818-50.681L91.4818-67.9144Q91.4818-71.291 89.0677-73.7593Q86.6537-76.2277 83.3397-76.2277Q80.0258-76.2277 77.5832-73.7593Q75.1406-71.291 75.1406-67.9144L75.1406-50.681Q75.1406-47.367 77.5832-44.9559Q80.0258-42.5448 83.3397-42.5448ZM113.904-31.9922Q116.249-29.641 119.632-29.641Q123.014-29.641 125.417-32.0493L137.597-44.2401Q139.948-46.5918 139.977-50.0283Q140.005-53.4647 137.654-55.7587Q135.251-58.1617 131.84-58.159Q128.429-58.1562 126.026-55.7532L113.904-43.5623Q111.552-41.2109 111.552-37.7771Q111.552-34.3433 113.904-31.9922ZM132.353 3.3911L149.592 3.3911Q152.963 3.3911 155.403 0.977222Q157.843-1.43665 157.843-4.75092Q157.843-8.12199 155.403-10.5333Q152.963-12.9445 149.592-12.9445L132.353-12.9445Q129.039-12.9445 126.597-10.5047Q124.155-8.06489 124.155-4.75092Q124.155-1.43145 126.594 0.979827Q129.034 3.3911 132.353 3.3911ZM63.6021 5.50918L102.963 5.50918Q107.139 5.50918 110.156 2.46984Q113.172-0.569487 113.172-4.74541Q113.172-8.97292 110.158-11.9837Q107.145-14.9945 102.963-14.9945L63.6021-14.9945Q59.4206-14.9945 56.4071-11.9837Q53.3935-8.97292 53.3935-4.74541Q53.3935-0.569487 56.4071 2.46984Q59.4206 5.50918 63.6021 5.50918Z"/>
  </g>
  <g id="Heavy-M" transform="matrix(1 0 0 1 2556.52 1126)">
   <path d="M16.0403 1.79229L32.8906 1.79229Q35.9075 1.79229 38.0498-0.351287Q40.1922-2.49486 40.1922-5.45191Q40.1922-8.39273 38.0187-10.5581Q35.8452-12.7235 32.8906-12.7235L16.0403-12.7235Q13.097-12.7235 10.9099-10.5799Q8.72266-8.43635 8.72266-5.45191Q8.72266-2.51355 10.9099-0.360629Q13.097 1.79229 16.0403 1.79229ZM50.4686-32.5416Q52.5605-34.6334 52.5592-37.6777Q52.558-40.722 50.4662-42.8139L38.6135-54.7476Q36.4805-56.8643 33.4499-56.8712Q30.4193-56.8781 28.2789-54.7613Q26.1895-52.7131 26.2126-49.6607Q26.2356-46.6083 28.325-44.5165L40.2213-32.5828Q42.3568-30.4473 45.3656-30.4485Q48.3744-30.4498 50.4686-32.5416ZM80.2081-43.0849Q83.1925-43.0849 85.3224-45.2297Q87.4523-47.3745 87.4523-50.3153L87.4523-67.1631Q87.4523-70.1638 85.3006-72.351Q83.1489-74.5382 80.2081-74.5382Q77.2673-74.5382 75.0938-72.351Q72.9203-70.1638 72.9203-67.1631L72.9203-50.3153Q72.9203-47.3745 75.0938-45.2297Q77.2673-43.0849 80.2081-43.0849ZM109.86-32.5416Q111.936-30.4473 114.952-30.4473Q117.967-30.4473 120.089-32.5852L131.988-44.5165Q134.08-46.6059 134.1-49.6583Q134.121-52.7107 132.031-54.7613Q129.91-56.8806 126.872-56.8724Q123.835-56.8643 121.715-54.7451L109.86-42.8139Q107.766-40.722 107.766-37.679Q107.766-34.6359 109.86-32.5416ZM127.425 1.79229L144.289 1.79229Q147.276 1.79229 149.441-0.360629Q151.606-2.51355 151.606-5.45191Q151.606-8.43635 149.441-10.5799Q147.276-12.7235 144.289-12.7235L127.425-12.7235Q124.484-12.7235 122.309-10.5581Q120.134-8.39273 120.134-5.45191Q120.134-2.49486 122.301-0.351287Q124.468 1.79229 127.425 1.79229ZM60.7413 3.42253L99.5877 3.42253Q103.197 3.42253 105.816 0.799113Q108.435-1.8243 108.435-5.43568Q108.435-9.07443 105.824-11.676Q103.213-14.2776 99.5877-14.2776L60.7413-14.2776Q57.1137-14.2776 54.504-11.676Q51.8942-9.07443 51.8942-5.43568Q51.8942-1.8243 54.504 0.799113Q57.1137 3.42253 60.7413 3.42253Z"/>
  </g>
  <g id="Bold-M" transform="matrix(1 0 0 1 2263.3 1126)">
   <path d="M14.9969 0.00378738L31.4189 0.00378738Q34.0273 0.00378738 35.8687-1.84033Q37.71-3.68445 37.71-6.23607Q37.71-8.75946 35.8375-10.6179Q33.965-12.4762 31.4189-12.4762L14.9969-12.4762Q12.468-12.4762 10.5953-10.6321Q8.72266-8.78801 8.72266-6.23607Q8.72266-3.7182 10.5953-1.85721Q12.468 0.00378738 14.9969 0.00378738ZM48.0154-33.1562Q49.8168-34.9577 49.8141-37.5664Q49.8113-40.1751 48.0099-41.9766L36.4596-53.6229Q34.6351-55.4192 32.0265-55.4305Q29.418-55.4419 27.5769-53.6456Q25.781-51.8727 25.798-49.2499Q25.8151-46.6271 27.611-44.8256L39.1898-33.1793Q41.0198-31.3493 43.6141-31.352Q46.2084-31.3548 48.0154-33.1562ZM76.7049-43.689Q79.2568-43.689 81.1008-45.5359Q82.9448-47.3828 82.9448-49.9062L82.9448-66.3227Q82.9448-68.9028 81.0865-70.7755Q79.2283-72.6482 76.7049-72.6482Q74.1815-72.6482 72.309-70.7755Q70.4365-68.9028 70.4365-66.3227L70.4365-49.9062Q70.4365-47.3828 72.309-45.5359Q74.1815-43.689 76.7049-43.689ZM105.337-33.1562Q107.111-31.3493 109.716-31.3493Q112.322-31.3493 114.129-33.1848L125.713-44.8256Q127.515-46.6215 127.526-49.2444Q127.538-51.8672 125.742-53.6456Q123.935-55.4474 121.315-55.4333Q118.695-55.4192 116.893-53.6174L105.337-41.9766Q103.53-40.1751 103.53-37.5692Q103.53-34.9632 105.337-33.1562ZM121.911 0.00378738L138.356 0.00378738Q140.913 0.00378738 142.772-1.85721Q144.63-3.7182 144.63-6.23607Q144.63-8.78801 142.772-10.6321Q140.913-12.4762 138.356-12.4762L121.911-12.4762Q119.388-12.4762 117.512-10.6179Q115.637-8.75946 115.637-6.23607Q115.637-3.68445 117.498-1.84033Q119.359 0.00378738 121.911 0.00378738ZM57.5411 1.08831L95.8116 1.08831Q98.7859 1.08831 100.961-1.06984Q103.136-3.22799 103.136-6.20783Q103.136-9.18799 100.975-11.3319Q98.8141-13.4757 95.8116-13.4757L57.5411-13.4757Q54.5331-13.4757 52.3751-11.3319Q50.2171-9.18799 50.2171-6.20783Q50.2171-3.22799 52.3751-1.06984Q54.5331 1.08831 57.5411 1.08831Z"/>
  </g>
  <g id="Semibold-M" transform="matrix(1 0 0 1 1968.99 1126)">
   <path d="M14.2776-1.22919L30.4044-1.22919Q32.7312-1.22919 34.365-2.86687Q35.9989-4.50454 35.9989-6.77666Q35.9989-9.01228 34.3339-10.659Q32.6689-12.3058 30.4044-12.3058L14.2776-12.3058Q12.0343-12.3058 10.3785-10.6681Q8.72266-9.03044 8.72266-6.77666Q8.72266-4.54869 10.3785-2.88894Q12.0343-1.22919 14.2776-1.22919ZM46.3241-33.58Q47.9254-35.1812 47.9216-37.4897Q47.9178-39.7981 46.3165-41.3994L34.9747-52.8476Q33.3629-54.4229 31.0453-54.4373Q28.7277-54.4518 27.093-52.8765Q25.4994-51.2934 25.5122-48.9667Q25.5251-46.64 27.1188-45.0387L38.4787-33.5905Q40.0982-31.9711 42.4067-31.9749Q44.7152-31.9787 46.3241-33.58ZM74.2898-44.1055Q76.5436-44.1055 78.1905-45.747Q79.8373-47.3885 79.8373-49.6241L79.8373-65.7433Q79.8373-68.0336 78.1814-69.6894Q76.5254-71.3452 74.2898-71.3452Q72.0542-71.3452 70.3892-69.6894Q68.7242-68.0336 68.7242-65.7433L68.7242-49.6241Q68.7242-47.3885 70.3892-45.747Q72.0542-44.1055 74.2898-44.1055ZM102.219-33.58Q103.784-31.9711 106.107-31.9711Q108.43-31.9711 110.02-33.5981L121.388-45.0387Q122.989-46.6324 122.995-48.959Q123-51.2857 121.406-52.8765Q119.816-54.4594 117.484-54.4411Q115.152-54.4229 113.569-52.84L102.219-41.3994Q100.61-39.7981 100.61-37.4935Q100.61-35.1889 102.219-33.58ZM118.11-1.22919L134.266-1.22919Q136.527-1.22919 138.174-2.88894Q139.821-4.54869 139.821-6.77666Q139.821-9.03044 138.174-10.6681Q136.527-12.3058 134.266-12.3058L118.11-12.3058Q115.874-12.3058 114.206-10.659Q112.537-9.01228 112.537-6.77666Q112.537-4.50454 114.187-2.86687Q115.838-1.22919 118.11-1.22919ZM55.335-0.520891L93.2084-0.520891Q95.7452-0.520891 97.6139-2.35829Q99.4825-4.19568 99.4825-6.74016Q99.4825-9.26628 97.6321-11.0946Q95.7817-12.9229 93.2084-12.9229L55.335-12.9229Q52.754-12.9229 50.9074-11.0946Q49.0608-9.26628 49.0608-6.74016Q49.0608-4.19568 50.9074-2.35829Q52.754-0.520891 55.335-0.520891Z"/>
  </g>
  <g id="Medium-M" transform="matrix(1 0 0 1 1674.11 1126)">
   <path d="M13.7322-2.16409L29.6351-2.16409Q31.7484-2.16409 33.2249-3.64523Q34.7014-5.12637 34.7014-7.18656Q34.7014-9.20398 33.1937-10.6903Q31.686-12.1765 29.6351-12.1765L13.7322-12.1765Q11.7055-12.1765 10.2141-10.6954Q8.72266-9.21426 8.72266-7.18656Q8.72266-5.1784 10.2141-3.67124Q11.7055-2.16409 13.7322-2.16409ZM45.0417-33.9012Q46.4912-35.3507 46.4866-37.4315Q46.482-39.5122 45.0325-40.9617L33.8488-52.2597Q32.3983-53.6675 30.3013-53.6842Q28.2043-53.701 26.726-52.2933Q25.2858-50.8541 25.2956-48.7519Q25.3053-46.6498 26.7455-45.2003L37.9396-33.9023Q39.3993-32.4425 41.4912-32.4471Q43.583-32.4518 45.0417-33.9012ZM72.4586-44.4213Q74.4863-44.4213 75.9837-45.9071Q77.4811-47.3929 77.4811-49.4103L77.4811-65.304Q77.4811-67.3744 75.9786-68.8659Q74.476-70.3573 72.4586-70.3573Q70.4412-70.3573 68.9335-68.8659Q67.4259-67.3744 67.4259-65.304L67.4259-49.4103Q67.4259-47.3929 68.9335-45.9071Q70.4412-44.4213 72.4586-44.4213ZM99.8549-33.9012Q101.262-32.4425 103.37-32.4425Q105.479-32.4425 106.905-33.9115L118.108-45.2003Q119.558-46.6406 119.558-48.7427Q119.559-50.8448 118.119-52.2933Q116.692-53.7102 114.579-53.6889Q112.465-53.6675 111.048-52.2505L99.8549-40.9617Q98.3962-39.5122 98.3962-37.4361Q98.3962-35.36 99.8549-33.9012ZM115.228-2.16409L131.165-2.16409Q133.201-2.16409 134.688-3.67124Q136.174-5.1784 136.174-7.18656Q136.174-9.21426 134.688-10.6954Q133.201-12.1765 131.165-12.1765L115.228-12.1765Q113.211-12.1765 111.698-10.6903Q110.186-9.20398 110.186-7.18656Q110.186-5.12637 111.677-3.64523Q113.168-2.16409 115.228-2.16409ZM53.6621-1.74105L91.2345-1.74105Q93.4396-1.74105 95.0761-3.33524Q96.7126-4.92943 96.7126-7.14379Q96.7126-9.32564 95.0975-10.9147Q93.4824-12.5037 91.2345-12.5037L53.6621-12.5037Q51.405-12.5037 49.7946-10.9147Q48.1841-9.32564 48.1841-7.14379Q48.1841-4.92943 49.7946-3.33524Q51.405-1.74105 53.6621-1.74105Z"/>
  </g>
  <g id="Regular-M" transform="matrix(1 0 0 1 1379.77 1126)">
   <path d="M13.0207-3.38352L28.6317-3.38352Q30.4664-3.38352 31.7377-4.66049Q33.009-5.93745 33.009-7.72122Q33.009-9.45403 31.7066-10.731Q30.4041-12.008 28.6317-12.008L13.0207-12.008Q11.2766-12.008 9.99962-10.731Q8.72266-9.45403 8.72266-7.72122Q8.72266-5.99975 9.99962-4.69164Q11.2766-3.38352 13.0207-3.38352ZM43.3691-34.3203Q44.6206-35.5718 44.6149-37.3556Q44.6092-39.1393 43.3577-40.3908L32.3802-51.493Q31.1401-52.6821 29.3308-52.7019Q27.5216-52.7217 26.2474-51.5326Q25.0072-50.2811 25.0129-48.4718Q25.0186-46.6626 26.2587-45.4111L37.2363-34.309Q38.4878-33.0575 40.297-33.0632Q42.1062-33.0688 43.3691-34.3203ZM70.0701-44.8333Q71.8029-44.8333 73.1053-46.1159Q74.4078-47.3985 74.4078-49.1313L74.4078-64.731Q74.4078-66.5147 73.1053-67.7917Q71.8029-69.0686 70.0701-69.0686Q68.3373-69.0686 67.0348-67.7917Q65.7324-66.5147 65.7324-64.731L65.7324-49.1313Q65.7324-47.3985 67.0348-46.1159Q68.3373-44.8333 70.0701-44.8333ZM96.7711-34.3203Q97.9716-33.0575 99.8007-33.0575Q101.63-33.0575 102.842-34.3203L113.83-45.4111Q115.082-46.6512 115.076-48.4605Q115.071-50.2697 113.83-51.5326Q112.619-52.7331 110.79-52.7076Q108.96-52.6821 107.76-51.4816L96.7711-40.3908Q95.5083-39.1393 95.5083-37.3612Q95.5083-35.5831 96.7711-34.3203ZM111.469-3.38352L127.119-3.38352Q128.864-3.38352 130.141-4.69164Q131.418-5.99975 131.418-7.72122Q131.418-9.45403 130.141-10.731Q128.864-12.008 127.119-12.008L111.469-12.008Q109.736-12.008 108.428-10.731Q107.12-9.45403 107.12-7.72122Q107.12-5.93745 108.402-4.66049Q109.685-3.38352 111.469-3.38352ZM51.4802-3.33256L88.6599-3.33256Q90.4324-3.33256 91.766-4.60953Q93.0996-5.88649 93.0996-7.67026Q93.0996-9.40307 91.7914-10.68Q90.4833-11.957 88.6599-11.957L51.4802-11.957Q49.6455-11.957 48.343-10.68Q47.0406-9.40307 47.0406-7.67026Q47.0406-5.88649 48.343-4.60953Q49.6455-3.33256 51.4802-3.33256Z"/>
  </g>
  <g id="Light-M" transform="matrix(1 0 0 1 1083.1 1126)">
   <path d="M12.0088-3.62271L28.4845-3.62271Q29.8593-3.62271 30.8178-4.59609Q31.7763-5.56947 31.7763-6.91166Q31.7763-8.22129 30.7866-9.19467Q29.797-10.1681 28.4845-10.1681L12.0088-10.1681Q10.6694-10.1681 9.69604-9.19467Q8.72266-8.22129 8.72266-6.91166Q8.72266-5.63177 9.69604-4.62724Q10.6694-3.62271 12.0088-3.62271ZM42.6699-34.2099Q43.627-35.167 43.6121-36.5092Q43.5973-37.8514 42.6402-38.8085L31.0371-50.5362Q30.1097-51.431 28.7512-51.4324Q27.3928-51.4338 26.3762-50.539Q25.4488-49.5819 25.4637-48.2235Q25.4786-46.865 26.4059-45.9079L38.009-34.1802Q38.9661-33.2231 40.3246-33.2379Q41.6831-33.2528 42.6699-34.2099ZM70.0333-45.2012Q71.3429-45.2012 72.3326-46.1895Q73.3222-47.1777 73.3222-48.4874L73.3222-64.9333Q73.3222-66.2755 72.3326-67.2489Q71.3429-68.2223 70.0333-68.2223Q68.7237-68.2223 67.734-67.2489Q66.7443-66.2755 66.7443-64.9333L66.7443-48.4874Q66.7443-47.1777 67.734-46.1895Q68.7237-45.2012 70.0333-45.2012ZM97.3967-34.2099Q98.3212-33.2231 99.6811-33.2231Q101.041-33.2231 101.995-34.2099L113.628-45.9079Q114.585-46.8352 114.57-48.1937Q114.555-49.5522 113.628-50.539Q112.674-51.4636 111.314-51.4473Q109.954-51.431 109.03-50.5065L97.3967-38.8085Q96.4098-37.8514 96.4098-36.5241Q96.4098-35.1968 97.3967-34.2099ZM111.579-3.62271L128.058-3.62271Q129.397-3.62271 130.371-4.62724Q131.344-5.63177 131.344-6.91166Q131.344-8.22129 130.371-9.19467Q129.397-10.1681 128.058-10.1681L111.579-10.1681Q110.27-10.1681 109.265-9.19467Q108.261-8.22129 108.261-6.91166Q108.261-5.56947 109.249-4.59609Q110.237-3.62271 111.579-3.62271ZM51.0018-3.59015L89.0647-3.59015Q90.3772-3.59015 91.398-4.56353Q92.4188-5.53691 92.4188-6.8791Q92.4188-8.18873 91.4143-9.16211Q90.4097-10.1355 89.0647-10.1355L51.0018-10.1355Q49.6271-10.1355 48.6374-9.16211Q47.6478-8.18873 47.6478-6.8791Q47.6478-5.53691 48.6374-4.56353Q49.6271-3.59015 51.0018-3.59015Z"/>
  </g>
  <g id="Thin-M" transform="matrix(1 0 0 1 786.438 1126)">
   <path d="M10.6704-3.93906L28.2898-3.93906Q29.0562-3.93906 29.6011-4.51092Q30.1459-5.08279 30.1459-5.84096Q30.1459-6.5909 29.5699-7.16277Q28.9939-7.73463 28.2898-7.73463L10.6704-7.73463Q9.86639-7.73463 9.29452-7.16277Q8.72266-6.5909 8.72266-5.84096Q8.72266-5.14509 9.29452-4.54207Q9.86639-3.93906 10.6704-3.93906ZM41.7452-34.0639Q42.313-34.6317 42.2859-35.3898Q42.2589-36.148 41.6911-36.7158L29.2607-49.2708Q28.747-49.7763 27.9847-49.7534Q27.2224-49.7304 26.5465-49.225Q26.0328-48.6572 26.0599-47.8949Q26.0869-47.1327 26.6006-46.5649L39.0311-34.0098Q39.5988-33.4421 40.3611-33.4691Q41.1234-33.4962 41.7452-34.0639ZM69.9846-45.6879Q70.7346-45.6879 71.3105-46.2868Q71.8865-46.8857 71.8865-47.6357L71.8865-65.201Q71.8865-65.9592 71.3105-66.5311Q70.7346-67.1029 69.9846-67.1029Q69.2347-67.1029 68.6587-66.5311Q68.0827-65.9592 68.0827-65.201L68.0827-47.6357Q68.0827-46.8857 68.6587-46.2868Q69.2347-45.6879 69.9846-45.6879ZM98.224-34.0639Q98.7835-33.4421 99.5229-33.4421Q100.262-33.4421 100.876-34.0639L113.36-46.5649Q113.928-47.0786 113.901-47.8409Q113.874-48.6031 113.36-49.225Q112.747-49.7845 112.007-49.7804Q111.268-49.7763 110.709-49.2168L98.224-36.7158Q97.6022-36.148 97.6022-35.4169Q97.6022-34.6857 98.224-34.0639ZM111.725-3.93906L129.299-3.93906Q130.103-3.93906 130.675-4.54207Q131.247-5.14509 131.247-5.84096Q131.247-6.5909 130.675-7.16277Q130.103-7.73463 129.299-7.73463L111.725-7.73463Q110.975-7.73463 110.372-7.16277Q109.769-6.5909 109.769-5.84096Q109.769-5.08279 110.368-4.51092Q110.967-3.93906 111.725-3.93906ZM50.3692-3.93083L89.6001-3.93083Q90.3042-3.93083 90.9113-4.50269Q91.5184-5.07456 91.5184-5.83273Q91.5184-6.58268 90.9154-7.15454Q90.3124-7.72641 89.6001-7.72641L50.3692-7.72641Q49.6028-7.72641 49.0268-7.15454Q48.4508-6.58268 48.4508-5.83273Q48.4508-5.07456 49.0268-4.50269Q49.6028-3.93083 50.3692-3.93083Z"/>
  </g>
  <g id="Ultralight-M" transform="matrix(1 0 0 1 489.751 1126)">
   <path d="M9.9849-4.10109L28.1901-4.10109Q28.6449-4.10109 28.9779-4.4673Q29.3108-4.83351 29.3108-5.29255Q29.3108-5.75583 28.9467-6.12204Q28.5826-6.48825 28.1901-6.48825L9.9849-6.48825Q9.45508-6.48825 9.08887-6.12204Q8.72266-5.75583 8.72266-5.29255Q8.72266-4.89581 9.08887-4.49845Q9.45508-4.10109 9.9849-4.10109ZM41.2716-33.9891Q41.6399-34.3575 41.6066-34.8165Q41.5734-35.2755 41.205-35.6439L28.3508-48.6227Q28.049-48.9287 27.5921-48.8933Q27.1352-48.858 26.6338-48.5519Q26.332-48.1836 26.3652-47.7267Q26.3985-47.2698 26.7003-46.9014L39.5545-33.9226Q39.9229-33.5543 40.3798-33.5875Q40.8367-33.6208 41.2716-33.9891ZM69.9597-45.9372Q70.423-45.9372 70.7871-46.3367Q71.1512-46.7362 71.1512-47.1994L71.1512-65.3381Q71.1512-65.7972 70.7871-66.1634Q70.423-66.5296 69.9597-66.5296Q69.4964-66.5296 69.1323-66.1634Q68.7682-65.7972 68.7682-65.3381L68.7682-47.1994Q68.7682-46.7362 69.1323-46.3367Q69.4964-45.9372 69.9597-45.9372ZM98.6478-33.9891Q99.0204-33.5543 99.4419-33.5543Q99.8634-33.5543 100.303-33.9891L113.223-46.9014Q113.592-47.2032 113.558-47.6601Q113.525-48.1171 113.223-48.5519Q112.784-48.9245 112.363-48.9266Q111.941-48.9287 111.569-48.5562L98.6478-35.6439Q98.2129-35.2755 98.2129-34.8498Q98.2129-34.424 98.6478-33.9891ZM111.8-4.10109L129.934-4.10109Q130.464-4.10109 130.831-4.49845Q131.197-4.89581 131.197-5.29255Q131.197-5.75583 130.831-6.12204Q130.464-6.48825 129.934-6.48825L111.8-6.48825Q111.337-6.48825 110.939-6.12204Q110.542-5.75583 110.542-5.29255Q110.542-4.83351 110.942-4.4673Q111.341-4.10109 111.8-4.10109ZM50.0451-4.10532L89.8743-4.10532Q90.2668-4.10532 90.662-4.47153Q91.0573-4.83775 91.0573-5.29679Q91.0573-5.76006 90.6599-6.12628Q90.2625-6.49249 89.8743-6.49249L50.0451-6.49249Q49.5903-6.49249 49.2262-6.12628Q48.8621-5.76006 48.8621-5.29679Q48.8621-4.83775 49.2262-4.47153Q49.5903-4.10532 50.0451-4.10532Z"/>
  </g>
  <g id="Black-S" transform="matrix(1 0 0 1 2867.19 696)">
   <path d="M13.5254-4.49219L27.1973-4.49219Q29.9316-4.49219 31.8848-6.44531Q33.8379-8.39844 33.8379-11.084Q33.8379-13.7695 31.8604-15.7471Q29.8828-17.7246 27.1973-17.7246L13.5254-17.7246Q10.8398-17.7246 8.83789-15.7715Q6.83594-13.8184 6.83594-11.084Q6.83594-8.39844 8.83789-6.44531Q10.8398-4.49219 13.5254-4.49219ZM41.8945-32.5195Q43.7988-34.4238 43.7988-37.207Q43.7988-39.9902 41.8945-41.8945L32.2754-51.5625Q30.3223-53.5156 27.5635-53.5156Q24.8047-53.5156 22.8516-51.5625Q20.9473-49.707 20.9717-46.9238Q20.9961-44.1406 22.9004-42.2363L32.5684-32.5684Q34.5215-30.6152 37.2559-30.6152Q39.9902-30.6152 41.8945-32.5195ZM66.2598-40.8203Q68.9941-40.8203 70.9229-42.7734Q72.8516-44.7266 72.8516-47.4121L72.8516-61.084Q72.8516-63.8184 70.8984-65.8203Q68.9453-67.8223 66.2598-67.8223Q63.5742-67.8223 61.5967-65.8203Q59.6191-63.8184 59.6191-61.084L59.6191-47.4121Q59.6191-44.7266 61.5967-42.7734Q63.5742-40.8203 66.2598-40.8203ZM90.5273-32.5195Q92.4316-30.6152 95.166-30.6152Q97.9004-30.6152 99.8535-32.5684L109.521-42.2363Q111.426-44.1406 111.45-46.9238Q111.475-49.707 109.57-51.5625Q107.617-53.5156 104.858-53.5156Q102.1-53.5156 100.146-51.5625L90.5273-41.8945Q88.623-39.9902 88.623-37.207Q88.623-34.4238 90.5273-32.5195ZM105.225-4.49219L118.896-4.49219Q121.631-4.49219 123.608-6.44531Q125.586-8.39844 125.586-11.084Q125.586-13.8184 123.608-15.7715Q121.631-17.7246 118.896-17.7246L105.225-17.7246Q102.539-17.7246 100.562-15.7471Q98.584-13.7695 98.584-11.084Q98.584-8.39844 100.562-6.44531Q102.539-4.49219 105.225-4.49219ZM50.6836-2.68555L81.7383-2.68555Q85.1562-2.68555 87.6221-5.17578Q90.0879-7.66602 90.0879-11.084Q90.0879-14.5508 87.6221-17.0166Q85.1562-19.4824 81.7383-19.4824L50.6836-19.4824Q47.2656-19.4824 44.7998-17.0166Q42.334-14.5508 42.334-11.084Q42.334-7.66602 44.7998-5.17578Q47.2656-2.68555 50.6836-2.68555Z"/>
  </g>
  <g id="Heavy-S" transform="matrix(1 0 0 1 2573.14 696)">
   <path d="M12.857-5.82903L26.0909-5.82903Q28.5718-5.82903 30.3347-7.592Q32.0977-9.35497 32.0977-11.787Q32.0977-14.2075 30.3103-15.9891Q28.5229-17.7707 26.0909-17.7707L12.857-17.7707Q10.4365-17.7707 8.63621-16.0077Q6.83594-14.2448 6.83594-11.787Q6.83594-9.36649 8.63621-7.59776Q10.4365-5.82903 12.857-5.82903ZM40.1082-33.0036Q41.8281-34.7235 41.8281-37.2301Q41.8281-39.7367 40.1082-41.4566L30.8003-50.8249Q29.043-52.5706 26.5493-52.5764Q24.0556-52.5821 22.2984-50.8365Q20.5785-49.1539 20.5971-46.6415Q20.6158-44.1291 22.3357-42.4092L31.681-33.0409Q33.4382-31.2837 35.9133-31.2837Q38.3883-31.2837 40.1082-33.0036ZM63.5861-41.2352Q66.0439-41.2352 67.794-42.9982Q69.544-44.7611 69.544-47.1816L69.544-60.4156Q69.544-62.8849 67.7753-64.6852Q66.0066-66.4854 63.5861-66.4854Q61.1656-66.4854 59.3782-64.6852Q57.5908-62.8849 57.5908-60.4156L57.5908-47.1816Q57.5908-44.7611 59.3782-42.9982Q61.1656-41.2352 63.5861-41.2352ZM86.9893-33.0036Q88.6977-31.2837 91.1786-31.2837Q93.6594-31.2837 95.4051-33.0409L104.75-42.4092Q106.47-44.1291 106.489-46.6415Q106.508-49.1539 104.788-50.8365Q103.042-52.5821 100.542-52.5764Q98.043-52.5706 96.2973-50.8249L86.9893-41.4566Q85.2694-39.7367 85.2694-37.2301Q85.2694-34.7235 86.9893-33.0036ZM100.995-5.82903L114.241-5.82903Q116.698-5.82903 118.48-7.59776Q120.262-9.36649 120.262-11.787Q120.262-14.2448 118.48-16.0077Q116.698-17.7707 114.241-17.7707L100.995-17.7707Q98.5746-17.7707 96.7873-15.9891Q94.9999-14.2075 94.9999-11.787Q94.9999-9.35497 96.7815-7.592Q98.5631-5.82903 100.995-5.82903ZM48.298-4.43727L78.7995-4.43727Q81.7911-4.43727 83.9573-6.61058Q86.1235-8.78389 86.1235-11.7755Q86.1235-14.7928 83.9631-16.9475Q81.8026-19.1021 78.7995-19.1021L48.298-19.1021Q45.2949-19.1021 43.1345-16.9475Q40.9741-14.7928 40.9741-11.7755Q40.9741-8.78389 43.1345-6.61058Q45.2949-4.43727 48.298-4.43727Z"/>
  </g>
  <g id="Bold-S" transform="matrix(1 0 0 1 2279.41 696)">
   <path d="M12.1094-7.32422L24.8535-7.32422Q27.0508-7.32422 28.6011-8.87451Q30.1514-10.4248 30.1514-12.5732Q30.1514-14.6973 28.5767-16.2598Q27.002-17.8223 24.8535-17.8223L12.1094-17.8223Q9.98535-17.8223 8.41064-16.272Q6.83594-14.7217 6.83594-12.5732Q6.83594-10.4492 8.41064-8.88672Q9.98535-7.32422 12.1094-7.32422ZM38.1104-33.5449Q39.624-35.0586 39.624-37.2559Q39.624-39.4531 38.1104-40.9668L29.1504-50Q27.6123-51.5137 25.415-51.5259Q23.2178-51.5381 21.6797-50.0244Q20.166-48.5352 20.1782-46.3257Q20.1904-44.1162 21.7041-42.6025L30.6885-33.5693Q32.2266-32.0312 34.4116-32.0312Q36.5967-32.0312 38.1104-33.5449ZM60.5957-41.6992Q62.7441-41.6992 64.2944-43.2495Q65.8447-44.7998 65.8447-46.9238L65.8447-59.668Q65.8447-61.8408 64.2822-63.4155Q62.7197-64.9902 60.5957-64.9902Q58.4717-64.9902 56.897-63.4155Q55.3223-61.8408 55.3223-59.668L55.3223-46.9238Q55.3223-44.7998 56.897-43.2495Q58.4717-41.6992 60.5957-41.6992ZM83.0322-33.5449Q84.5215-32.0312 86.7188-32.0312Q88.916-32.0312 90.4297-33.5693L99.4141-42.6025Q100.928-44.1162 100.94-46.3257Q100.952-48.5352 99.4385-50.0244Q97.9248-51.5381 95.7153-51.5259Q93.5059-51.5137 91.9922-50L83.0322-40.9668Q81.5186-39.4531 81.5186-37.2559Q81.5186-35.0586 83.0322-33.5449ZM96.2646-7.32422L109.033-7.32422Q111.182-7.32422 112.744-8.88672Q114.307-10.4492 114.307-12.5732Q114.307-14.7217 112.744-16.272Q111.182-17.8223 109.033-17.8223L96.2646-17.8223Q94.1406-17.8223 92.5659-16.2598Q90.9912-14.6973 90.9912-12.5732Q90.9912-10.4248 92.5537-8.87451Q94.1162-7.32422 96.2646-7.32422ZM45.6299-6.39648L75.5127-6.39648Q78.0273-6.39648 79.8584-8.21533Q81.6895-10.0342 81.6895-12.5488Q81.6895-15.0635 79.8706-16.8701Q78.0518-18.6768 75.5127-18.6768L45.6299-18.6768Q43.0908-18.6768 41.272-16.8701Q39.4531-15.0635 39.4531-12.5488Q39.4531-10.0342 41.272-8.21533Q43.0908-6.39648 45.6299-6.39648Z"/>
  </g>
  <g id="Semibold-S" transform="matrix(1 0 0 1 1984.75 696)">
   <path d="M11.5939-8.35508L24.0004-8.35508Q26.0021-8.35508 27.4058-9.75874Q28.8095-11.1624 28.8095-13.1153Q28.8095-15.035 27.3814-16.4464Q25.9533-17.8578 24.0004-17.8578L11.5939-17.8578Q9.67432-17.8578 8.25513-16.4542Q6.83594-15.0505 6.83594-13.1153Q6.83594-11.1957 8.25513-9.77539Q9.67432-8.35508 11.5939-8.35508ZM36.7329-33.9182Q38.1044-35.2896 38.1044-37.2736Q38.1044-39.2576 36.7329-40.6291L28.0129-49.4312Q26.6259-50.785 24.633-50.8016Q22.6401-50.8183 21.2531-49.4646Q19.8816-48.1086 19.8894-46.108Q19.8972-44.1073 21.2687-42.7358L30.0042-33.9337Q31.3912-32.5467 33.3763-32.5467Q35.3614-32.5467 36.7329-33.9182ZM58.534-42.0191Q60.4691-42.0191 61.8817-43.4228Q63.2942-44.8265 63.2942-46.7461L63.2942-59.1525Q63.2942-61.121 61.8739-62.5402Q60.4536-63.9594 58.534-63.9594Q56.6144-63.9594 55.1863-62.5402Q53.7582-61.121 53.7582-59.1525L53.7582-46.7461Q53.7582-44.8265 55.1863-43.4228Q56.6144-42.0191 58.534-42.0191ZM80.304-33.9182Q81.6422-32.5467 83.6439-32.5467Q85.6457-32.5467 86.9994-33.9337L95.735-42.7358Q97.1064-44.1073 97.1142-46.108Q97.122-48.1086 95.7505-49.4646Q94.3968-50.8183 92.3873-50.8016Q90.3777-50.785 89.024-49.4312L80.304-40.6291Q78.9325-39.2576 78.9325-37.2736Q78.9325-35.2896 80.304-33.9182ZM93.0032-8.35508L105.443-8.35508Q107.378-8.35508 108.79-9.77539Q110.201-11.1957 110.201-13.1153Q110.201-15.0505 108.79-16.4542Q107.378-17.8578 105.443-17.8578L93.0032-17.8578Q91.0836-17.8578 89.6555-16.4464Q88.2274-15.035 88.2274-13.1153Q88.2274-11.1624 89.6389-9.75874Q91.0503-8.35508 93.0032-8.35508ZM43.7903-7.74727L73.2466-7.74727Q75.4324-7.74727 77.0324-9.32173Q78.6324-10.8962 78.6324-13.082Q78.6324-15.2501 77.0491-16.8168Q75.4657-18.3835 73.2466-18.3835L43.7903-18.3835Q41.5712-18.3835 39.9878-16.8168Q38.4045-15.2501 38.4045-13.082Q38.4045-10.8962 39.9878-9.32173Q41.5712-7.74727 43.7903-7.74727Z"/>
  </g>
  <g id="Medium-S" transform="matrix(1 0 0 1 1689.59 696)">
   <path d="M11.2031-9.13672L23.3535-9.13672Q25.207-9.13672 26.4995-10.4292Q27.792-11.7217 27.792-13.5264Q27.792-15.291 26.4751-16.5879Q25.1582-17.8848 23.3535-17.8848L11.2031-17.8848Q9.43848-17.8848 8.13721-16.5923Q6.83594-15.2998 6.83594-13.5264Q6.83594-11.7617 8.13721-10.4492Q9.43848-9.13672 11.2031-9.13672ZM35.6885-34.2012Q36.9521-35.4648 36.9521-37.2871Q36.9521-39.1094 35.6885-40.373L27.1504-49Q25.8779-50.2324 24.04-50.2524Q22.2021-50.2725 20.9297-49.04Q19.666-47.7852 19.6704-45.9429Q19.6748-44.1006 20.9385-42.8369L29.4854-34.21Q30.7578-32.9375 32.5913-32.9375Q34.4248-32.9375 35.6885-34.2012ZM56.9707-42.2617Q58.7441-42.2617 60.0522-43.5542Q61.3604-44.8467 61.3604-46.6113L61.3604-58.7617Q61.3604-60.5752 60.0479-61.8765Q58.7354-63.1777 56.9707-63.1777Q55.2061-63.1777 53.8892-61.8765Q52.5723-60.5752 52.5723-58.7617L52.5723-46.6113Q52.5723-44.8467 53.8892-43.5542Q55.2061-42.2617 56.9707-42.2617ZM78.2354-34.2012Q79.459-32.9375 81.3125-32.9375Q83.166-32.9375 84.3984-34.21L92.9453-42.8369Q94.209-44.1006 94.2134-45.9429Q94.2178-47.7852 92.9541-49.04Q91.7217-50.2725 89.8638-50.2524Q88.0059-50.2324 86.7734-49L78.2354-40.373Q76.9717-39.1094 76.9717-37.2871Q76.9717-35.4648 78.2354-34.2012ZM90.5303-9.13672L102.721-9.13672Q104.494-9.13672 105.791-10.4492Q107.088-11.7617 107.088-13.5264Q107.088-15.2998 105.791-16.5923Q104.494-17.8848 102.721-17.8848L90.5303-17.8848Q88.7656-17.8848 87.4487-16.5879Q86.1318-15.291 86.1318-13.5264Q86.1318-11.7217 87.4287-10.4292Q88.7256-9.13672 90.5303-9.13672ZM42.3955-8.77148L71.5283-8.77148Q73.4648-8.77148 74.8896-10.1606Q76.3145-11.5498 76.3145-13.4863Q76.3145-15.3916 74.9097-16.7764Q73.5049-18.1611 71.5283-18.1611L42.3955-18.1611Q40.4189-18.1611 39.0142-16.7764Q37.6094-15.3916 37.6094-13.4863Q37.6094-11.5498 39.0142-10.1606Q40.4189-8.77148 42.3955-8.77148Z"/>
  </g>
  <g id="Regular-S" transform="matrix(1 0 0 1 1394.91 696)">
   <path d="M10.6934-10.1562L22.5098-10.1562Q24.1699-10.1562 25.3174-11.3037Q26.4648-12.4512 26.4648-14.0625Q26.4648-15.625 25.293-16.7725Q24.1211-17.9199 22.5098-17.9199L10.6934-17.9199Q9.13086-17.9199 7.9834-16.7725Q6.83594-15.625 6.83594-14.0625Q6.83594-12.5 7.9834-11.3281Q9.13086-10.1562 10.6934-10.1562ZM34.3262-34.5703Q35.4492-35.6934 35.4492-37.3047Q35.4492-38.916 34.3262-40.0391L26.0254-48.4375Q24.9023-49.5117 23.2666-49.5361Q21.6309-49.5605 20.5078-48.4863Q19.3848-47.3633 19.3848-45.7275Q19.3848-44.0918 20.5078-42.9688L28.8086-34.5703Q29.9316-33.4473 31.5674-33.4473Q33.2031-33.4473 34.3262-34.5703ZM54.9316-42.5781Q56.4941-42.5781 57.666-43.7256Q58.8379-44.873 58.8379-46.4355L58.8379-58.252Q58.8379-59.8633 57.666-61.0107Q56.4941-62.1582 54.9316-62.1582Q53.3691-62.1582 52.1973-61.0107Q51.0254-59.8633 51.0254-58.252L51.0254-46.4355Q51.0254-44.873 52.1973-43.7256Q53.3691-42.5781 54.9316-42.5781ZM75.5371-34.5703Q76.6113-33.4473 78.2715-33.4473Q79.9316-33.4473 81.0059-34.5703L89.3066-42.9688Q90.4297-44.0918 90.4297-45.7275Q90.4297-47.3633 89.3066-48.4863Q88.2324-49.5605 86.5723-49.5361Q84.9121-49.5117 83.8379-48.4375L75.5371-40.0391Q74.4141-38.916 74.4141-37.3047Q74.4141-35.6934 75.5371-34.5703ZM87.3047-10.1562L99.1699-10.1562Q100.732-10.1562 101.88-11.3281Q103.027-12.5 103.027-14.0625Q103.027-15.625 101.88-16.7725Q100.732-17.9199 99.1699-17.9199L87.3047-17.9199Q85.7422-17.9199 84.5703-16.7725Q83.3984-15.625 83.3984-14.0625Q83.3984-12.4512 84.5459-11.3037Q85.6934-10.1562 87.3047-10.1562ZM40.5762-10.1074L69.2871-10.1074Q70.8984-10.1074 72.0947-11.2549Q73.291-12.4023 73.291-14.0137Q73.291-15.5762 72.1191-16.7236Q70.9473-17.8711 69.2871-17.8711L40.5762-17.8711Q38.916-17.8711 37.7441-16.7236Q36.5723-15.5762 36.5723-14.0137Q36.5723-12.4023 37.7441-11.2549Q38.916-10.1074 40.5762-10.1074Z"/>
  </g>
  <g id="Light-S" transform="matrix(1 0 0 1 1098.23 696)">
   <path d="M9.79818-10.3678L22.3796-10.3678Q23.6328-10.3678 24.5036-11.2467Q25.3743-12.1257 25.3743-13.3464Q25.3743-14.5345 24.4792-15.4134Q23.584-16.2923 22.3796-16.2923L9.79818-16.2923Q8.59375-16.2923 7.71484-15.4134Q6.83594-14.5345 6.83594-13.3464Q6.83594-12.1745 7.71484-11.2712Q8.59375-10.3678 9.79818-10.3678ZM33.7077-34.4727Q34.5703-35.3353 34.5622-36.556Q34.554-37.7767 33.6914-38.6393L24.8372-47.5911Q23.9909-48.4049 22.7539-48.4131Q21.5169-48.4212 20.6217-47.6074Q19.7754-46.7448 19.7835-45.5078Q19.7917-44.2708 20.638-43.4082L29.4922-34.4564Q30.3548-33.5938 31.5918-33.6019Q32.8288-33.61 33.7077-34.4727ZM54.8991-42.9036Q56.0872-42.9036 56.9824-43.7907Q57.8776-44.6777 57.8776-45.8659L57.8776-58.431Q57.8776-59.6517 56.9824-60.5306Q56.0872-61.4095 54.8991-61.4095Q53.7109-61.4095 52.8158-60.5306Q51.9206-59.6517 51.9206-58.431L51.9206-45.8659Q51.9206-44.6777 52.8158-43.7907Q53.7109-42.9036 54.8991-42.9036ZM76.0905-34.4727Q76.9206-33.5938 78.1657-33.5938Q79.4108-33.5938 80.2572-34.4727L89.1276-43.4082Q89.9902-44.2546 89.9821-45.4915Q89.974-46.7285 89.1276-47.6074Q88.2812-48.4375 87.0361-48.4212Q85.791-48.4049 84.9609-47.5749L76.0905-38.6393Q75.2116-37.7767 75.2116-36.5641Q75.2116-35.3516 76.0905-34.4727ZM87.4023-10.3678L100-10.3678Q101.204-10.3678 102.083-11.2712Q102.962-12.1745 102.962-13.3464Q102.962-14.5345 102.083-15.4134Q101.204-16.2923 100-16.2923L87.4023-16.2923Q86.2142-16.2923 85.3109-15.4134Q84.4076-14.5345 84.4076-13.3464Q84.4076-12.1257 85.2946-11.2467Q86.1816-10.3678 87.4023-10.3678ZM40.153-10.3353L69.6452-10.3353Q70.8496-10.3353 71.7692-11.2142Q72.6888-12.0931 72.6888-13.3138Q72.6888-14.502 71.7855-15.3809Q70.8822-16.2598 69.6452-16.2598L40.153-16.2598Q38.8997-16.2598 38.0046-15.3809Q37.1094-14.502 37.1094-13.3138Q37.1094-12.0931 38.0046-11.2142Q38.8997-10.3353 40.153-10.3353Z"/>
  </g>
  <g id="Thin-S" transform="matrix(1 0 0 1 801.566 696)">
   <path d="M8.61423-10.6477L22.2073-10.6477Q22.9224-10.6477 23.4273-11.1714Q23.9321-11.6951 23.9321-12.3992Q23.9321-13.0922 23.4028-13.616Q22.8736-14.1397 22.2073-14.1397L8.61423-14.1397Q7.88338-14.1397 7.35966-13.616Q6.83594-13.0922 6.83594-12.3992Q6.83594-11.744 7.35966-11.1958Q7.88338-10.6477 8.61423-10.6477ZM32.8897-34.3435Q33.4079-34.8617 33.389-35.5658Q33.3701-36.2698 32.8519-36.7881L23.2658-46.4718Q22.7854-46.9412 22.0758-46.9278Q21.3662-46.9144 20.7724-46.445Q20.292-45.9268 20.3109-45.2172Q20.3298-44.5076 20.8102-43.9894L30.3963-34.3057Q30.9145-33.7875 31.6241-33.8064Q32.3337-33.8253 32.8897-34.3435ZM54.856-43.3342Q55.5491-43.3342 56.0783-43.8768Q56.6075-44.4194 56.6075-45.1125L56.6075-58.6678Q56.6075-59.3718 56.0783-59.8956Q55.5491-60.4193 54.856-60.4193Q54.163-60.4193 53.6338-59.8956Q53.1045-59.3718 53.1045-58.6678L53.1045-45.1125Q53.1045-44.4194 53.6338-43.8768Q54.163-43.3342 54.856-43.3342ZM76.8224-34.3435Q77.3296-33.7875 78.0258-33.7875Q78.722-33.7875 79.2669-34.3435L88.8908-43.9894Q89.409-44.4698 89.3901-45.1794Q89.3712-45.889 88.8908-46.445Q88.3458-46.9522 87.6496-46.9467Q86.9534-46.9412 86.4463-46.434L76.8224-36.7881Q76.2664-36.2698 76.2664-35.5847Q76.2664-34.8995 76.8224-34.3435ZM87.5315-10.6477L101.098-10.6477Q101.829-10.6477 102.352-11.1958Q102.876-11.744 102.876-12.3992Q102.876-13.0922 102.352-13.616Q101.829-14.1397 101.098-14.1397L87.5315-14.1397Q86.8385-14.1397 86.2903-13.616Q85.7422-13.0922 85.7422-12.3992Q85.7422-11.6951 86.2848-11.1714Q86.8274-10.6477 87.5315-10.6477ZM39.5933-10.6367L70.1188-10.6367Q70.785-10.6367 71.3387-11.1604Q71.8923-11.6841 71.8923-12.3882Q71.8923-13.0812 71.3442-13.6049Q70.7961-14.1287 70.1188-14.1287L39.5933-14.1287Q38.8782-14.1287 38.349-13.6049Q37.8197-13.0812 37.8197-12.3882Q37.8197-11.6841 38.349-11.1604Q38.8782-10.6367 39.5933-10.6367Z"/>
  </g>
  <g id="Ultralight-S" transform="matrix(1 0 0 1 504.877 696)">
   <path d="M8.00781-10.791L22.1191-10.791Q22.5586-10.791 22.876-11.1328Q23.1934-11.4746 23.1934-11.9141Q23.1934-12.3535 22.8516-12.6953Q22.5098-13.0371 22.1191-13.0371L8.00781-13.0371Q7.51953-13.0371 7.17773-12.6953Q6.83594-12.3535 6.83594-11.9141Q6.83594-11.5234 7.17773-11.1572Q7.51953-10.791 8.00781-10.791ZM32.4707-34.2773Q32.8125-34.6191 32.7881-35.0586Q32.7637-35.498 32.4219-35.8398L22.4609-45.8984Q22.168-46.1914 21.7285-46.167Q21.2891-46.1426 20.8496-45.8496Q20.5566-45.5078 20.5811-45.0684Q20.6055-44.6289 20.8984-44.2871L30.8594-34.2285Q31.2012-33.8867 31.6406-33.9111Q32.0801-33.9355 32.4707-34.2773ZM54.834-43.5547Q55.2734-43.5547 55.6152-43.9209Q55.957-44.2871 55.957-44.7266L55.957-58.7891Q55.957-59.2285 55.6152-59.5703Q55.2734-59.9121 54.834-59.9121Q54.3945-59.9121 54.0527-59.5703Q53.7109-59.2285 53.7109-58.7891L53.7109-44.7266Q53.7109-44.2871 54.0527-43.9209Q54.3945-43.5547 54.834-43.5547ZM77.1973-34.2773Q77.5391-33.8867 77.9541-33.8867Q78.3691-33.8867 78.7598-34.2773L88.7695-44.2871Q89.1113-44.5801 89.0869-45.0195Q89.0625-45.459 88.7695-45.8496Q88.3789-46.1914 87.9639-46.1914Q87.5488-46.1914 87.207-45.8496L77.1973-35.8398Q76.8066-35.498 76.8066-35.083Q76.8066-34.668 77.1973-34.2773ZM87.5977-10.791L101.66-10.791Q102.148-10.791 102.49-11.1572Q102.832-11.5234 102.832-11.9141Q102.832-12.3535 102.49-12.6953Q102.148-13.0371 101.66-13.0371L87.5977-13.0371Q87.1582-13.0371 86.792-12.6953Q86.4258-12.3535 86.4258-11.9141Q86.4258-11.4746 86.792-11.1328Q87.1582-10.791 87.5977-10.791ZM39.3066-10.791L70.3613-10.791Q70.752-10.791 71.1182-11.1328Q71.4844-11.4746 71.4844-11.9141Q71.4844-12.3535 71.1182-12.6953Q70.752-13.0371 70.3613-13.0371L39.3066-13.0371Q38.8672-13.0371 38.5254-12.6953Q38.1836-12.3535 38.1836-11.9141Q38.1836-11.4746 38.5254-11.1328Q38.8672-10.791 39.3066-10.791Z"/>
  </g>
 </g>
</svg>
