<?xml version="1.0" encoding="UTF-8"?>
<!--Generator: Apple Native CoreSVG 175.5-->
<!DOCTYPE svg
PUBLIC "-//W3C//DTD SVG 1.1//EN"
       "http://www.w3.org/Graphics/SVG/1.1/DTD/svg11.dtd">
<svg version="1.1" xmlns="http://www.w3.org/2000/svg" xmlns:xlink="http://www.w3.org/1999/xlink" width="12.4033" height="12.5239">
 <g>
  <rect height="12.5239" opacity="0" width="12.4033" x="0" y="0"/>
  <path d="M0 5.06543C0 7.8584 2.27246 10.1309 5.06543 10.1309C6.16992 10.1309 7.1792 9.77539 8.01074 9.17871L11.1338 12.3081C11.2798 12.4541 11.4702 12.5239 11.6733 12.5239C12.105 12.5239 12.4033 12.2002 12.4033 11.7749C12.4033 11.5718 12.3271 11.3877 12.1938 11.2544L9.08984 8.13135C9.74365 7.28076 10.1309 6.2207 10.1309 5.06543C10.1309 2.27246 7.8584 0 5.06543 0C2.27246 0 0 2.27246 0 5.06543ZM1.08545 5.06543C1.08545 2.86914 2.86914 1.08545 5.06543 1.08545C7.26172 1.08545 9.04541 2.86914 9.04541 5.06543C9.04541 7.26172 7.26172 9.04541 5.06543 9.04541C2.86914 9.04541 1.08545 7.26172 1.08545 5.06543Z" fill="#000000" fill-opacity="0.85"/>
 </g>
</svg>
