<?xml version="1.0" encoding="UTF-8"?>
<!--Generator: Apple Native CoreSVG 175.5-->
<!DOCTYPE svg
PUBLIC "-//W3C//DTD SVG 1.1//EN"
       "http://www.w3.org/Graphics/SVG/1.1/DTD/svg11.dtd">
<svg version="1.1" xmlns="http://www.w3.org/2000/svg" xmlns:xlink="http://www.w3.org/1999/xlink" width="17.4751" height="9.98486">
 <g>
  <rect height="9.98486" opacity="0" width="17.4751" x="0" y="0"/>
  <path d="M7.83936 9.98486C8.33447 9.98486 8.75342 9.604 8.75342 8.89941L8.75342 1.09814C8.75342 0.393555 8.33447 0.0126953 7.83936 0.0126953C7.5791 0.0126953 7.36963 0.0952148 7.10938 0.247559L0.641113 4.05615C0.19043 4.32275 0 4.63379 0 4.99561C0 5.36377 0.19043 5.6748 0.641113 5.94141L7.10938 9.75C7.36328 9.90234 7.5791 9.98486 7.83936 9.98486ZM7.56006 8.81055C7.51562 8.81055 7.46484 8.79785 7.40771 8.75977L1.37109 5.17969C1.28223 5.12891 1.23145 5.08447 1.23145 4.99561C1.23145 4.91309 1.28223 4.86865 1.37109 4.81787L7.40771 1.23779C7.47119 1.20605 7.51562 1.18701 7.56006 1.18701C7.65527 1.18701 7.73145 1.24414 7.73145 1.37744L7.73145 8.62012C7.73145 8.75342 7.65527 8.81055 7.56006 8.81055ZM16.561 9.98486C17.0562 9.98486 17.4751 9.604 17.4751 8.89941L17.4751 1.09814C17.4751 0.393555 17.0562 0.0126953 16.561 0.0126953C16.3008 0.0126953 16.0913 0.0952148 15.8311 0.247559L9.36279 4.05615C8.91211 4.32275 8.72168 4.63379 8.72168 4.99561C8.72168 5.36377 8.91211 5.6748 9.36279 5.94141L15.8311 9.75C16.085 9.90234 16.3008 9.98486 16.561 9.98486ZM16.2817 8.81055C16.2437 8.81055 16.1929 8.79785 16.1294 8.75977L10.0928 5.17969C10.0039 5.12891 9.95947 5.08447 9.95947 4.99561C9.95947 4.91309 10.0039 4.86865 10.0928 4.81787L16.1294 1.23779C16.1929 1.20605 16.2437 1.18701 16.2817 1.18701C16.377 1.18701 16.4531 1.24414 16.4531 1.37744L16.4531 8.62012C16.4531 8.75342 16.377 8.81055 16.2817 8.81055Z" fill="#000000" fill-opacity="0.85"/>
 </g>
</svg>
