<?xml version="1.0" encoding="UTF-8"?>
<!--Generator: Apple Native CoreSVG 175.5-->
<!DOCTYPE svg
PUBLIC "-//W3C//DTD SVG 1.1//EN"
       "http://www.w3.org/Graphics/SVG/1.1/DTD/svg11.dtd">
<svg version="1.1" xmlns="http://www.w3.org/2000/svg" xmlns:xlink="http://www.w3.org/1999/xlink" width="17.0371" height="12.2686">
 <g>
  <rect height="12.2686" opacity="0" width="17.0371" x="0" y="0"/>
  <path d="M1.28857 8.71462L3.11035 8.71462C3.16748 8.71462 3.21826 8.73366 3.2627 8.77175L6.12549 11.3362C6.43018 11.6092 6.66504 11.7361 6.96973 11.7361C7.37598 11.7361 7.68701 11.4378 7.68701 11.0252L7.68701 1.28786C7.68701 0.875264 7.37598 0.538839 6.95703 0.538839C6.65234 0.538839 6.45557 0.678487 6.12549 0.976827L3.2627 3.51589C3.21826 3.55398 3.16748 3.57302 3.11035 3.57302L1.28857 3.57302C0.425293 3.57302 0 4.01101 0 4.93142L0 7.36257C0 8.28298 0.431641 8.71462 1.28857 8.71462ZM1.33301 7.78786C1.09814 7.78786 0.990234 7.67995 0.990234 7.44509L0.990234 4.8489C0.990234 4.60769 1.09814 4.49978 1.33301 4.49978L3.36426 4.49978C3.5293 4.49978 3.65625 4.46804 3.80225 4.33474L6.50635 1.87819C6.53809 1.84646 6.56982 1.82741 6.61426 1.82741C6.65869 1.82741 6.69678 1.85915 6.69678 1.91628L6.69678 10.3523C6.69678 10.4094 6.65869 10.4475 6.61426 10.4475C6.58252 10.4475 6.54443 10.4285 6.50635 10.3967L3.80225 7.9529C3.65625 7.82595 3.5293 7.78786 3.36426 7.78786ZM9.83252 8.83523C10.042 8.98122 10.3403 8.93679 10.5117 8.68923C11.0005 8.04812 11.2925 7.10232 11.2925 6.13112C11.2925 5.15993 11.0005 4.22048 10.5117 3.57302C10.3403 3.32546 10.042 3.27468 9.83252 3.42702C9.57227 3.60476 9.53418 3.92214 9.73096 4.18239C10.0991 4.69021 10.3086 5.3948 10.3086 6.13112C10.3086 6.86745 10.0928 7.56569 9.73096 8.07985C9.54053 8.34646 9.57227 8.65114 9.83252 8.83523ZM12.1812 10.492C12.416 10.6507 12.708 10.5935 12.8794 10.3523C13.6919 9.23513 14.168 7.69899 14.168 6.13112C14.168 4.56325 13.6982 3.01442 12.8794 1.90993C12.708 1.66872 12.416 1.61159 12.1812 1.77028C11.9463 1.92898 11.9082 2.22732 12.0923 2.48757C12.7842 3.46511 13.1841 4.77907 13.1841 6.13112C13.1841 7.48317 12.7715 8.78444 12.0923 9.77468C11.9146 10.0349 11.9463 10.3333 12.1812 10.492ZM14.5615 12.1741C14.7773 12.3328 15.0884 12.2693 15.2598 12.0154C16.3706 10.4094 17.0371 8.37185 17.0371 6.13112C17.0371 3.88405 16.3516 1.85915 15.2598 0.246846C15.0884-0.0134075 14.7773-0.0705364 14.5615 0.088155C14.3203 0.253194 14.2886 0.551534 14.46 0.811788C15.4438 2.2654 16.0659 4.09353 16.0659 6.13112C16.0659 8.16237 15.4438 10.0032 14.46 11.4505C14.2886 11.7107 14.3203 12.0091 14.5615 12.1741Z" fill="#000000" fill-opacity="0.85"/>
 </g>
</svg>
