<?xml version="1.0" encoding="UTF-8"?>
<!--Generator: Apple Native CoreSVG 175-->
<!DOCTYPE svg
PUBLIC "-//W3C//DTD SVG 1.1//EN"
       "http://www.w3.org/Graphics/SVG/1.1/DTD/svg11.dtd">
<svg version="1.1" xmlns="http://www.w3.org/2000/svg" xmlns:xlink="http://www.w3.org/1999/xlink" width="3300" height="2200">
 <!--glyph: "uni10028B.medium", point size: 100.0, font version: "17.1d1e1", template writer version: "65.1"-->
 <g id="Notes">
  <rect height="2200" id="artboard" style="fill:white;opacity:1" width="3300" x="0" y="0"/>
  <line style="fill:none;stroke:black;opacity:1;stroke-width:0.5;" x1="263" x2="3036" y1="292" y2="292"/>
  <text style="stroke:none;fill:black;font-family:sans-serif;font-size:13;font-weight:bold;" transform="matrix(1 0 0 1 263 322)">Weight/Scale Variations</text>
  <text style="stroke:none;fill:black;font-family:sans-serif;font-size:13;text-anchor:middle;" transform="matrix(1 0 0 1 559.711 322)">Ultralight</text>
  <text style="stroke:none;fill:black;font-family:sans-serif;font-size:13;text-anchor:middle;" transform="matrix(1 0 0 1 856.422 322)">Thin</text>
  <text style="stroke:none;fill:black;font-family:sans-serif;font-size:13;text-anchor:middle;" transform="matrix(1 0 0 1 1153.13 322)">Light</text>
  <text style="stroke:none;fill:black;font-family:sans-serif;font-size:13;text-anchor:middle;" transform="matrix(1 0 0 1 1449.84 322)">Regular</text>
  <text style="stroke:none;fill:black;font-family:sans-serif;font-size:13;text-anchor:middle;" transform="matrix(1 0 0 1 1746.56 322)">Medium</text>
  <text style="stroke:none;fill:black;font-family:sans-serif;font-size:13;text-anchor:middle;" transform="matrix(1 0 0 1 2043.27 322)">Semibold</text>
  <text style="stroke:none;fill:black;font-family:sans-serif;font-size:13;text-anchor:middle;" transform="matrix(1 0 0 1 2339.98 322)">Bold</text>
  <text style="stroke:none;fill:black;font-family:sans-serif;font-size:13;text-anchor:middle;" transform="matrix(1 0 0 1 2636.69 322)">Heavy</text>
  <text style="stroke:none;fill:black;font-family:sans-serif;font-size:13;text-anchor:middle;" transform="matrix(1 0 0 1 2933.4 322)">Black</text>
  <line style="fill:none;stroke:black;opacity:1;stroke-width:0.5;" x1="263" x2="3036" y1="1903" y2="1903"/>
  <g transform="matrix(1 0 0 1 263 1933)">
   <path d="M9.24805 0.830078Q10.8691 0.830078 12.2949 0.214844Q13.7207-0.400391 14.8096-1.49414Q15.8984-2.58789 16.5186-4.01367Q17.1387-5.43945 17.1387-7.05078Q17.1387-8.66211 16.5186-10.0879Q15.8984-11.5137 14.8047-12.6074Q13.7109-13.7012 12.2852-14.3164Q10.8594-14.9316 9.23828-14.9316Q7.62695-14.9316 6.20117-14.3164Q4.77539-13.7012 3.69141-12.6074Q2.60742-11.5137 1.9873-10.0879Q1.36719-8.66211 1.36719-7.05078Q1.36719-5.43945 1.9873-4.01367Q2.60742-2.58789 3.69629-1.49414Q4.78516-0.400391 6.21094 0.214844Q7.63672 0.830078 9.24805 0.830078ZM9.24805-0.654297Q7.91992-0.654297 6.7627-1.14746Q5.60547-1.64062 4.73145-2.51953Q3.85742-3.39844 3.36426-4.56055Q2.87109-5.72266 2.87109-7.05078Q2.87109-8.37891 3.35938-9.54102Q3.84766-10.7031 4.72168-11.582Q5.5957-12.4609 6.75293-12.9541Q7.91016-13.4473 9.23828-13.4473Q10.5762-13.4473 11.7334-12.9541Q12.8906-12.4609 13.7695-11.582Q14.6484-10.7031 15.1465-9.54102Q15.6445-8.37891 15.6445-7.05078Q15.6445-5.72266 15.1514-4.56055Q14.6582-3.39844 13.7842-2.51953Q12.9102-1.64062 11.748-1.14746Q10.5859-0.654297 9.24805-0.654297ZM5.6543-7.05078Q5.6543-6.72852 5.85938-6.52832Q6.06445-6.32812 6.40625-6.32812L8.51562-6.32812L8.51562-4.20898Q8.51562-3.88672 8.71094-3.67676Q8.90625-3.4668 9.23828-3.4668Q9.56055-3.4668 9.77051-3.67676Q9.98047-3.88672 9.98047-4.20898L9.98047-6.32812L12.0898-6.32812Q12.4219-6.32812 12.627-6.52832Q12.832-6.72852 12.832-7.05078Q12.832-7.38281 12.627-7.58789Q12.4219-7.79297 12.0898-7.79297L9.98047-7.79297L9.98047-9.90234Q9.98047-10.2344 9.77051-10.4443Q9.56055-10.6543 9.23828-10.6543Q8.90625-10.6543 8.71094-10.4443Q8.51562-10.2344 8.51562-9.90234L8.51562-7.79297L6.40625-7.79297Q6.06445-7.79297 5.85938-7.58789Q5.6543-7.38281 5.6543-7.05078Z"/>
  </g>
  <g transform="matrix(1 0 0 1 281.867 1933)">
   <path d="M11.709 2.91016Q13.75 2.91016 15.5518 2.12891Q17.3535 1.34766 18.7305-0.0292969Q20.1074-1.40625 20.8887-3.20801Q21.6699-5.00977 21.6699-7.05078Q21.6699-9.0918 20.8887-10.8936Q20.1074-12.6953 18.7305-14.0723Q17.3535-15.4492 15.5469-16.2305Q13.7402-17.0117 11.6992-17.0117Q9.6582-17.0117 7.85645-16.2305Q6.05469-15.4492 4.68262-14.0723Q3.31055-12.6953 2.5293-10.8936Q1.74805-9.0918 1.74805-7.05078Q1.74805-5.00977 2.5293-3.20801Q3.31055-1.40625 4.6875-0.0292969Q6.06445 1.34766 7.86621 2.12891Q9.66797 2.91016 11.709 2.91016ZM11.709 1.25Q9.98047 1.25 8.47656 0.605469Q6.97266-0.0390625 5.83496-1.17676Q4.69727-2.31445 4.05762-3.81836Q3.41797-5.32227 3.41797-7.05078Q3.41797-8.7793 4.05762-10.2832Q4.69727-11.7871 5.83008-12.9297Q6.96289-14.0723 8.4668-14.7119Q9.9707-15.3516 11.6992-15.3516Q13.4277-15.3516 14.9316-14.7119Q16.4355-14.0723 17.5781-12.9297Q18.7207-11.7871 19.3652-10.2832Q20.0098-8.7793 20.0098-7.05078Q20.0098-5.32227 19.3701-3.81836Q18.7305-2.31445 17.5928-1.17676Q16.4551-0.0390625 14.9463 0.605469Q13.4375 1.25 11.709 1.25ZM7.17773-7.05078Q7.17773-6.69922 7.41211-6.47461Q7.64648-6.25 8.01758-6.25L10.8887-6.25L10.8887-3.36914Q10.8887-2.99805 11.1133-2.76855Q11.3379-2.53906 11.6895-2.53906Q12.0605-2.53906 12.29-2.76855Q12.5195-2.99805 12.5195-3.36914L12.5195-6.25L15.4004-6.25Q15.7715-6.25 16.001-6.47461Q16.2305-6.69922 16.2305-7.05078Q16.2305-7.42188 16.001-7.65137Q15.7715-7.88086 15.4004-7.88086L12.5195-7.88086L12.5195-10.752Q12.5195-11.1328 12.29-11.3623Q12.0605-11.5918 11.6895-11.5918Q11.3379-11.5918 11.1133-11.3574Q10.8887-11.123 10.8887-10.752L10.8887-7.88086L8.01758-7.88086Q7.63672-7.88086 7.40723-7.65137Q7.17773-7.42188 7.17773-7.05078Z"/>
  </g>
  <g transform="matrix(1 0 0 1 305.646 1933)">
   <path d="M14.9707 5.66406Q17.0605 5.66406 18.96 5.01465Q20.8594 4.36523 22.4512 3.19336Q24.043 2.02148 25.2197 0.429688Q26.3965-1.16211 27.0459-3.06641Q27.6953-4.9707 27.6953-7.05078Q27.6953-9.14062 27.0459-11.04Q26.3965-12.9395 25.2197-14.5312Q24.043-16.123 22.4512-17.2998Q20.8594-18.4766 18.9551-19.126Q17.0508-19.7754 14.9609-19.7754Q12.8711-19.7754 10.9717-19.126Q9.07227-18.4766 7.48535-17.2998Q5.89844-16.123 4.72168-14.5312Q3.54492-12.9395 2.90039-11.04Q2.25586-9.14062 2.25586-7.05078Q2.25586-4.9707 2.90527-3.06641Q3.55469-1.16211 4.72656 0.429688Q5.89844 2.02148 7.49023 3.19336Q9.08203 4.36523 10.9814 5.01465Q12.8809 5.66406 14.9707 5.66406ZM14.9707 3.84766Q13.1641 3.84766 11.5283 3.2959Q9.89258 2.74414 8.53516 1.74805Q7.17773 0.751953 6.17676-0.610352Q5.17578-1.97266 4.62891-3.6084Q4.08203-5.24414 4.08203-7.05078Q4.08203-8.86719 4.62891-10.5029Q5.17578-12.1387 6.17188-13.501Q7.16797-14.8633 8.52539-15.8594Q9.88281-16.8555 11.5186-17.4023Q13.1543-17.9492 14.9609-17.9492Q16.7773-17.9492 18.4131-17.4023Q20.0488-16.8555 21.4111-15.8594Q22.7734-14.8633 23.7695-13.501Q24.7656-12.1387 25.3174-10.5029Q25.8691-8.86719 25.8691-7.05078Q25.8789-5.24414 25.332-3.6084Q24.7852-1.97266 23.7842-0.610352Q22.7832 0.751953 21.4209 1.74805Q20.0586 2.74414 18.4229 3.2959Q16.7871 3.84766 14.9707 3.84766ZM9.19922-7.05078Q9.19922-6.66992 9.45801-6.4209Q9.7168-6.17188 10.1172-6.17188L14.0625-6.17188L14.0625-2.2168Q14.0625-1.81641 14.3115-1.55762Q14.5605-1.29883 14.9512-1.29883Q15.3516-1.29883 15.6104-1.55273Q15.8691-1.80664 15.8691-2.2168L15.8691-6.17188L19.8242-6.17188Q20.2246-6.17188 20.4785-6.4209Q20.7324-6.66992 20.7324-7.05078Q20.7324-7.46094 20.4785-7.71484Q20.2246-7.96875 19.8242-7.96875L15.8691-7.96875L15.8691-11.9141Q15.8691-12.3242 15.6104-12.583Q15.3516-12.8418 14.9512-12.8418Q14.5605-12.8418 14.3115-12.583Q14.0625-12.3242 14.0625-11.9141L14.0625-7.96875L10.1172-7.96875Q9.70703-7.96875 9.45312-7.71484Q9.19922-7.46094 9.19922-7.05078Z"/>
  </g>
  <text style="stroke:none;fill:black;font-family:sans-serif;font-size:13;font-weight:bold;" transform="matrix(1 0 0 1 263 1953)">Design Variations</text>
  <text style="stroke:none;fill:black;font-family:sans-serif;font-size:13;" transform="matrix(1 0 0 1 263 1971)">Symbols are supported in up to nine weights and three scales.</text>
  <text style="stroke:none;fill:black;font-family:sans-serif;font-size:13;" transform="matrix(1 0 0 1 263 1989)">For optimal layout with text and other symbols, vertically align</text>
  <text style="stroke:none;fill:black;font-family:sans-serif;font-size:13;" transform="matrix(1 0 0 1 263 2007)">symbols with the adjacent text.</text>
  <line style="fill:none;stroke:#00AEEF;stroke-width:0.5;opacity:1.0;" x1="776" x2="776" y1="1919" y2="1933"/>
  <g transform="matrix(1 0 0 1 776 1933)">
   <path d="M3.31055 0.15625Q3.70117 0.15625 3.91602-0.00976562Q4.13086-0.175781 4.26758-0.585938L5.52734-4.0332L11.2891-4.0332L12.5488-0.585938Q12.6855-0.175781 12.9004-0.00976562Q13.1152 0.15625 13.4961 0.15625Q13.8867 0.15625 14.1162-0.0585938Q14.3457-0.273438 14.3457-0.644531Q14.3457-0.869141 14.2383-1.17188L9.6582-13.3691Q9.48242-13.8184 9.17969-14.043Q8.87695-14.2676 8.4082-14.2676Q7.5-14.2676 7.17773-13.3789L2.59766-1.16211Q2.49023-0.859375 2.49023-0.634766Q2.49023-0.263672 2.70996-0.0537109Q2.92969 0.15625 3.31055 0.15625ZM6.00586-5.51758L8.37891-12.0898L8.42773-12.0898L10.8008-5.51758Z"/>
  </g>
  <line style="fill:none;stroke:#00AEEF;stroke-width:0.5;opacity:1.0;" x1="793.197" x2="793.197" y1="1919" y2="1933"/>
  <text style="stroke:none;fill:black;font-family:sans-serif;font-size:13;font-weight:bold;" transform="matrix(1 0 0 1 776 1953)">Margins</text>
  <text style="stroke:none;fill:black;font-family:sans-serif;font-size:13;" transform="matrix(1 0 0 1 776 1971)">Leading and trailing margins on the left and right side of each symbol</text>
  <text style="stroke:none;fill:black;font-family:sans-serif;font-size:13;" transform="matrix(1 0 0 1 776 1989)">can be adjusted by modifying the x-location of the margin guidelines.</text>
  <text style="stroke:none;fill:black;font-family:sans-serif;font-size:13;" transform="matrix(1 0 0 1 776 2007)">Modifications are automatically applied proportionally to all</text>
  <text style="stroke:none;fill:black;font-family:sans-serif;font-size:13;" transform="matrix(1 0 0 1 776 2025)">scales and weights.</text>
  <g transform="matrix(1 0 0 1 1289 1933)">
   <path d="M2.8418 1.86523L4.54102 3.57422Q5.18555 4.22852 5.90332 4.17969Q6.62109 4.13086 7.31445 3.35938L18.0078-8.42773L17.041-9.4043L6.42578 2.27539Q6.16211 2.57812 5.89355 2.61719Q5.625 2.65625 5.27344 2.30469L4.10156 1.14258Q3.75 0.791016 3.79395 0.522461Q3.83789 0.253906 4.14062-0.0195312L15.6152-10.8203L14.6387-11.7871L3.04688-0.898438Q2.30469-0.214844 2.25098 0.498047Q2.19727 1.21094 2.8418 1.86523ZM9.25781-16.3281Q8.94531-16.0254 8.90625-15.6348Q8.86719-15.2441 9.04297-14.9512Q9.21875-14.6777 9.55566-14.541Q9.89258-14.4043 10.3809-14.5215Q11.4746-14.7754 12.5977-14.7314Q13.7207-14.6875 14.7949-13.9844L14.209-12.5293Q13.9551-11.9043 14.0674-11.4404Q14.1797-10.9766 14.5801-10.5664L16.875-8.25195Q17.2363-7.88086 17.5781-7.82227Q17.9199-7.76367 18.3398-7.8418L19.4043-8.03711L20.0684-7.36328L20.0293-6.80664Q20-6.43555 20.1221-6.12305Q20.2441-5.81055 20.6055-5.44922L21.3672-4.70703Q21.7285-4.3457 22.1533-4.33105Q22.5781-4.31641 22.9297-4.66797L25.8398-7.58789Q26.1914-7.93945 26.1816-8.35449Q26.1719-8.76953 25.8105-9.13086L25.0391-9.89258Q24.6875-10.2539 24.3799-10.3857Q24.0723-10.5176 23.7109-10.4883L23.1348-10.4395L22.4902-11.0742L22.7344-12.1973Q22.832-12.6172 22.6953-12.9834Q22.5586-13.3496 22.1191-13.7891L19.9219-15.9766Q18.6719-17.2168 17.2607-17.8369Q15.8496-18.457 14.4189-18.4814Q12.9883-18.5059 11.665-17.959Q10.3418-17.4121 9.25781-16.3281ZM10.752-15.957Q11.6602-16.6211 12.7002-16.9043Q13.7402-17.1875 14.8047-17.085Q15.8691-16.9824 16.8701-16.5137Q17.8711-16.0449 18.7012-15.2051L21.1328-12.793Q21.3086-12.6172 21.3525-12.4512Q21.3965-12.2852 21.3379-12.0312L21.0156-10.5469L22.5195-9.0625L23.5059-9.12109Q23.6914-9.13086 23.7891-9.09668Q23.8867-9.0625 24.0332-8.91602L24.6094-8.33984L22.168-5.89844L21.5918-6.47461Q21.4453-6.62109 21.4062-6.71875Q21.3672-6.81641 21.377-7.01172L21.4453-7.98828L19.9512-9.47266L18.4277-9.21875Q18.1836-9.16992 18.042-9.2041Q17.9004-9.23828 17.7148-9.41406L15.7129-11.416Q15.5176-11.5918 15.4932-11.7529Q15.4688-11.9141 15.5859-12.1875L16.4648-14.2773Q15.293-15.3711 13.8281-15.791Q12.3633-16.2109 10.8398-15.7617Q10.7227-15.7324 10.6885-15.8057Q10.6543-15.8789 10.752-15.957Z"/>
  </g>
  <text style="stroke:none;fill:black;font-family:sans-serif;font-size:13;font-weight:bold;" transform="matrix(1 0 0 1 1289 1953)">Exporting</text>
  <text style="stroke:none;fill:black;font-family:sans-serif;font-size:13;" transform="matrix(1 0 0 1 1289 1971)">Symbols should be outlined when exporting to ensure the</text>
  <text style="stroke:none;fill:black;font-family:sans-serif;font-size:13;" transform="matrix(1 0 0 1 1289 1989)">design is preserved when submitting to Xcode.</text>
  <text id="template-version" style="stroke:none;fill:black;font-family:sans-serif;font-size:13;text-anchor:end;" transform="matrix(1 0 0 1 3036 1933)">Template v.3.0</text>
  <text style="stroke:none;fill:black;font-family:sans-serif;font-size:13;text-anchor:end;" transform="matrix(1 0 0 1 3036 1951)">Requires Xcode 13 or greater</text>
  <text id="descriptive-name" style="stroke:none;fill:black;font-family:sans-serif;font-size:13;text-anchor:end;" transform="matrix(1 0 0 1 3036 1969)">Generated from forward</text>
  <text style="stroke:none;fill:black;font-family:sans-serif;font-size:13;text-anchor:end;" transform="matrix(1 0 0 1 3036 1987)">Typeset at 100 points</text>
  <text style="stroke:none;fill:black;font-family:sans-serif;font-size:13;" transform="matrix(1 0 0 1 263 726)">Small</text>
  <text style="stroke:none;fill:black;font-family:sans-serif;font-size:13;" transform="matrix(1 0 0 1 263 1156)">Medium</text>
  <text style="stroke:none;fill:black;font-family:sans-serif;font-size:13;" transform="matrix(1 0 0 1 263 1586)">Large</text>
 </g>
 <g id="Guides">
  <g id="H-reference" style="fill:#27AAE1;stroke:none;" transform="matrix(1 0 0 1 339 696)">
   <path d="M0.993347 0L3.6377 0L29.3282-67.1326L30.0301-67.1326L30.0301-70.459L28.1227-70.459ZM11.6882-24.4797L46.9818-24.4797L46.2311-26.7288L12.4382-26.7288ZM55.1193 0L57.7637 0L30.6381-70.459L29.4327-70.459L29.4327-67.1326Z"/>
  </g>
  <line id="Baseline-S" style="fill:none;stroke:#27AAE1;opacity:1;stroke-width:0.5;" x1="263" x2="3036" y1="696" y2="696"/>
  <line id="Capline-S" style="fill:none;stroke:#27AAE1;opacity:1;stroke-width:0.5;" x1="263" x2="3036" y1="625.541" y2="625.541"/>
  <g id="H-reference" style="fill:#27AAE1;stroke:none;" transform="matrix(1 0 0 1 339 1126)">
   <path d="M0.993347 0L3.6377 0L29.3282-67.1326L30.0301-67.1326L30.0301-70.459L28.1227-70.459ZM11.6882-24.4797L46.9818-24.4797L46.2311-26.7288L12.4382-26.7288ZM55.1193 0L57.7637 0L30.6381-70.459L29.4327-70.459L29.4327-67.1326Z"/>
  </g>
  <line id="Baseline-M" style="fill:none;stroke:#27AAE1;opacity:1;stroke-width:0.5;" x1="263" x2="3036" y1="1126" y2="1126"/>
  <line id="Capline-M" style="fill:none;stroke:#27AAE1;opacity:1;stroke-width:0.5;" x1="263" x2="3036" y1="1055.54" y2="1055.54"/>
  <g id="H-reference" style="fill:#27AAE1;stroke:none;" transform="matrix(1 0 0 1 339 1556)">
   <path d="M0.993347 0L3.6377 0L29.3282-67.1326L30.0301-67.1326L30.0301-70.459L28.1227-70.459ZM11.6882-24.4797L46.9818-24.4797L46.2311-26.7288L12.4382-26.7288ZM55.1193 0L57.7637 0L30.6381-70.459L29.4327-70.459L29.4327-67.1326Z"/>
  </g>
  <line id="Baseline-L" style="fill:none;stroke:#27AAE1;opacity:1;stroke-width:0.5;" x1="263" x2="3036" y1="1556" y2="1556"/>
  <line id="Capline-L" style="fill:none;stroke:#27AAE1;opacity:1;stroke-width:0.5;" x1="263" x2="3036" y1="1485.54" y2="1485.54"/>
  <line id="left-margin-Regular-M" style="fill:none;stroke:#00AEEF;stroke-width:0.5;opacity:1.0;" x1="1375.78" x2="1375.78" y1="1030.79" y2="1150.12"/>
  <line id="right-margin-Regular-M" style="fill:none;stroke:#00AEEF;stroke-width:0.5;opacity:1.0;" x1="1523.91" x2="1523.91" y1="1030.79" y2="1150.12"/>
 </g>
 <g id="Symbols">
  <g id="Black-L" transform="matrix(1 0 0 1 2826.02 1556)">
   <path d="M29.7311 18.5872Q32.3154 18.5872 34.7207 17.9555Q37.126 17.3238 39.5713 15.8722L105.148-22.4015Q109.397-24.8651 112.085-28.1493Q114.773-31.4335 114.773-36.0641Q114.773-40.6947 112.144-43.8024Q109.515-46.9101 105.148-49.4723L39.5713-87.7667Q37.0663-89.1964 34.6324-89.8384Q32.1986-90.4805 29.6143-90.4805Q24.1018-90.4805 20.0929-86.5301Q16.084-82.5796 16.084-75.2847L16.084 3.41091Q16.084 10.6279 20.1513 14.6076Q24.2186 18.5872 29.7311 18.5872ZM36.406-4.90839Q36.1287-4.90839 35.9499-5.10278Q35.7711-5.29717 35.7711-5.63654L35.7711-66.258Q35.7711-66.5961 35.9499-66.7899Q36.1287-66.9836 36.4644-66.9836Q36.6744-66.9836 36.8449-66.9499Q37.0153-66.9163 37.2525-66.7283L88.9338-36.7366Q89.3975-36.4918 89.3975-36.0057Q89.3975-35.5171 88.9338-35.2151L37.2525-5.165Q37.075-5.03541 36.8455-4.9719Q36.616-4.90839 36.406-4.90839ZM128.099 18.5872Q130.683 18.5872 133.088 17.9555Q135.494 17.3238 137.939 15.8722L203.516-22.4015Q207.765-24.8651 210.453-28.1493Q213.141-31.4335 213.141-36.0641Q213.141-40.6947 210.512-43.8024Q207.883-46.9101 203.516-49.4723L137.939-87.7667Q135.434-89.1964 133-89.8384Q130.566-90.4805 127.982-90.4805Q122.47-90.4805 118.461-86.5301Q114.452-82.5796 114.452-75.2847L114.452 3.41091Q114.452 10.6279 118.519 14.6076Q122.586 18.5872 128.099 18.5872ZM134.774-4.90839Q134.496-4.90839 134.318-5.10278Q134.139-5.29717 134.139-5.63654L134.139-66.258Q134.139-66.5961 134.318-66.7899Q134.496-66.9836 134.832-66.9836Q135.042-66.9836 135.213-66.9499Q135.383-66.9163 135.62-66.7283L187.302-36.7366Q187.765-36.4918 187.765-36.0057Q187.765-35.5171 187.302-35.2151L135.62-5.165Q135.443-5.03541 135.213-4.9719Q134.984-4.90839 134.774-4.90839Z"/>
  </g>
  <g id="Heavy-L" transform="matrix(1 0 0 1 2532.24 1556)">
   <path d="M28.5896 17.499Q30.998 17.499 33.228 16.8766Q35.4579 16.2541 37.7678 14.8818L103.054-23.2882Q107.037-25.6159 109.434-28.6566Q111.832-31.6973 111.832-35.8526Q111.832-40.0079 109.482-42.9087Q107.132-45.8095 103.054-48.2087L37.7678-86.4085Q35.4072-87.745 33.158-88.3823Q30.9088-89.0196 28.5004-89.0196Q23.4459-89.0196 19.765-85.37Q16.084-81.7204 16.084-74.9297L16.084 3.4328Q16.084 10.1551 19.8096 13.8271Q23.5352 17.499 28.5896 17.499ZM34.2665-3.0098Q33.8965-3.0098 33.6246-3.27403Q33.3527-3.53827 33.3527-4.06436L33.3527-67.4623Q33.3527-67.9824 33.6246-68.2436Q33.8965-68.5048 34.3111-68.5048Q34.5677-68.5048 34.7871-68.4481Q35.0065-68.3914 35.323-68.1706L89.0563-36.8078Q89.761-36.4285 89.761-35.808Q89.761-35.1753 89.0563-34.7575L35.323-3.35004Q35.0571-3.17388 34.7901-3.09184Q34.5231-3.0098 34.2665-3.0098ZM124.016 17.499Q126.424 17.499 128.654 16.8766Q130.884 16.2541 133.194 14.8818L198.48-23.2882Q202.463-25.6159 204.86-28.6566Q207.258-31.6973 207.258-35.8526Q207.258-40.0079 204.908-42.9087Q202.558-45.8095 198.48-48.2087L133.194-86.4085Q130.833-87.745 128.584-88.3823Q126.335-89.0196 123.926-89.0196Q118.872-89.0196 115.191-85.37Q111.51-81.7204 111.51-74.9297L111.51 3.4328Q111.51 10.1551 115.236 13.8271Q118.961 17.499 124.016 17.499ZM129.693-3.0098Q129.323-3.0098 129.051-3.27403Q128.779-3.53827 128.779-4.06436L128.779-67.4623Q128.779-67.9824 129.051-68.2436Q129.323-68.5048 129.737-68.5048Q129.994-68.5048 130.213-68.4481Q130.432-68.3914 130.749-68.1706L184.482-36.8078Q185.187-36.4285 185.187-35.808Q185.187-35.1753 184.482-34.7575L130.749-3.35004Q130.483-3.17388 130.216-3.09184Q129.949-3.0098 129.693-3.0098Z"/>
  </g>
  <g id="Bold-L" transform="matrix(1 0 0 1 2239.1 1556)">
   <path d="M27.1889 16.1234Q29.3776 16.1234 31.397 15.5127Q33.4163 14.9021 35.5345 13.6416L100.562-24.4499Q104.169-26.5767 106.215-29.3017Q108.262-32.0268 108.262-35.6131Q108.262-39.1994 106.252-41.8226Q104.242-44.4459 100.562-46.6225L35.5345-84.751Q33.3729-85.9603 31.346-86.5894Q29.3192-87.2185 27.1305-87.2185Q22.649-87.2185 19.3665-83.9457Q16.084-80.6729 16.084-74.5096L16.084 3.43714Q16.084 9.54849 19.3957 12.8359Q22.7074 16.1234 27.1889 16.1234ZM31.6458-0.695995Q31.1577-0.695995 30.7586-1.05563Q30.3595-1.41527 30.3595-2.20492L30.3595-68.9045Q30.3595-69.6799 30.7586-70.0324Q31.1577-70.385 31.675-70.385Q31.9951-70.385 32.2822-70.301Q32.5693-70.2171 32.9976-69.9481L89.251-36.9307Q90.2626-36.3779 90.2626-35.5839Q90.2626-34.7614 89.251-34.1937L32.9976-1.14706Q32.6127-0.9073 32.2893-0.801648Q31.9659-0.695995 31.6458-0.695995ZM119.045 16.1234Q121.234 16.1234 123.253 15.5127Q125.272 14.9021 127.391 13.6416L192.418-24.4499Q196.025-26.5767 198.072-29.3017Q200.118-32.0268 200.118-35.6131Q200.118-39.1994 198.108-41.8226Q196.098-44.4459 192.418-46.6225L127.391-84.751Q125.229-85.9603 123.202-86.5894Q121.175-87.2185 118.987-87.2185Q114.505-87.2185 111.223-83.9457Q107.94-80.6729 107.94-74.5096L107.94 3.43714Q107.94 9.54849 111.252 12.8359Q114.563 16.1234 119.045 16.1234ZM123.502-0.695995Q123.014-0.695995 122.615-1.05563Q122.216-1.41527 122.216-2.20492L122.216-68.9045Q122.216-69.6799 122.615-70.0324Q123.014-70.385 123.531-70.385Q123.851-70.385 124.138-70.301Q124.425-70.2171 124.854-69.9481L181.107-36.9307Q182.119-36.3779 182.119-35.5839Q182.119-34.7614 181.107-34.1937L124.854-1.14706Q124.469-0.9073 124.145-0.801648Q123.822-0.695995 123.502-0.695995Z"/>
  </g>
  <g id="Semibold-L" transform="matrix(1 0 0 1 1944.85 1556)">
   <path d="M26.2233 15.175Q28.2605 15.175 30.1347 14.5725Q32.0089 13.97 33.9949 12.7865L98.844-25.2508Q102.192-27.239 103.997-29.7465Q105.801-32.254 105.801-35.448Q105.801-38.642 104.025-41.0739Q102.249-43.5058 98.844-45.529L33.9949-83.6083Q31.9704-84.7299 30.0969-85.3534Q28.2234-85.9768 26.1861-85.9768Q22.0995-85.9768 19.0918-82.9638Q16.084-79.9507 16.084-74.2199L16.084 3.44014Q16.084 9.13029 19.1103 12.1526Q22.1367 15.175 26.2233 15.175ZM29.839 0.899127Q29.2696 0.899127 28.7828 0.473722Q28.296 0.0483161 28.296-0.92303L28.296-69.8987Q28.296-70.8502 28.7828-71.2656Q29.2696-71.6811 29.8576-71.6811Q30.2216-71.6811 30.5554-71.5784Q30.8891-71.4757 31.3945-71.1735L89.3852-37.0154Q90.6083-36.343 90.6083-35.4294Q90.6083-34.4761 89.3852-33.8051L31.3945 0.371665Q30.9276 0.655269 30.5653 0.777198Q30.2031 0.899127 29.839 0.899127ZM115.618 15.175Q117.655 15.175 119.53 14.5725Q121.404 13.97 123.39 12.7865L188.239-25.2508Q191.587-27.239 193.391-29.7465Q195.196-32.254 195.196-35.448Q195.196-38.642 193.42-41.0739Q191.644-43.5058 188.239-45.529L123.39-83.6083Q121.365-84.7299 119.492-85.3534Q117.618-85.9768 115.581-85.9768Q111.494-85.9768 108.487-82.9638Q105.479-79.9507 105.479-74.2199L105.479 3.44014Q105.479 9.13029 108.505 12.1526Q111.532 15.175 115.618 15.175ZM119.234 0.899127Q118.665 0.899127 118.178 0.473722Q117.691 0.0483161 117.691-0.92303L117.691-69.8987Q117.691-70.8502 118.178-71.2656Q118.665-71.6811 119.253-71.6811Q119.617-71.6811 119.95-71.5784Q120.284-71.4757 120.789-71.1735L178.78-37.0154Q180.003-36.343 180.003-35.4294Q180.003-34.4761 178.78-33.8051L120.789 0.371665Q120.323 0.655269 119.96 0.777198Q119.598 0.899127 119.234 0.899127Z"/>
  </g>
  <g id="Medium-L" transform="matrix(1 0 0 1 1650 1556)">
   <path d="M25.4911 14.4559Q27.4135 14.4559 29.1776 13.8596Q30.9417 13.2632 32.8274 12.1382L97.5413-25.858Q100.694-27.7412 102.314-30.0838Q103.934-32.4263 103.934-35.3228Q103.934-38.2193 102.337-40.5062Q100.739-42.793 97.5413-44.6998L32.8274-82.7418Q30.907-83.7969 29.1497-84.4161Q27.3924-85.0354 25.47-85.0354Q21.6829-85.0354 18.8835-82.2192Q16.084-79.4031 16.084-74.0003L16.084 3.44241Q16.084 8.81318 18.894 11.6345Q21.704 14.4559 25.4911 14.4559ZM28.4691 2.10862Q27.838 2.10862 27.2847 1.63334Q26.7314 1.15807 26.7314 0.0489516L26.7314-70.6526Q26.7314-71.7375 27.2847-72.2007Q27.838-72.6639 28.4796-72.6639Q28.8769-72.6639 29.246-72.547Q29.6152-72.43 30.179-72.1027L89.4869-37.0796Q90.8705-36.3166 90.8705-35.3123Q90.8705-34.2597 89.4869-33.5104L30.179 1.52322Q29.6498 1.84007 29.2581 1.97434Q28.8664 2.10862 28.4691 2.10862ZM113.02 14.4559Q114.942 14.4559 116.706 13.8596Q118.471 13.2632 120.356 12.1382L185.07-25.858Q188.222-27.7412 189.843-30.0838Q191.463-32.4263 191.463-35.3228Q191.463-38.2193 189.865-40.5062Q188.268-42.793 185.07-44.6998L120.356-82.7418Q118.436-83.7969 116.679-84.4161Q114.921-85.0354 112.999-85.0354Q109.212-85.0354 106.412-82.2192Q103.613-79.4031 103.613-74.0003L103.613 3.44241Q103.613 8.81318 106.423 11.6345Q109.233 14.4559 113.02 14.4559ZM115.998 2.10862Q115.367 2.10862 114.814 1.63334Q114.26 1.15807 114.26 0.0489516L114.26-70.6526Q114.26-71.7375 114.814-72.2007Q115.367-72.6639 116.008-72.6639Q116.406-72.6639 116.775-72.547Q117.144-72.43 117.708-72.1027L177.016-37.0796Q178.399-36.3166 178.399-35.3123Q178.399-34.2597 177.016-33.5104L117.708 1.52322Q117.179 1.84007 116.787 1.97434Q116.395 2.10862 115.998 2.10862Z"/>
  </g>
  <g id="Regular-L" transform="matrix(1 0 0 1 1355.72 1556)">
   <path d="M24.536 13.518Q26.3086 13.518 27.9292 12.9297Q29.5497 12.3414 31.3047 11.2926L95.8421-26.6501Q98.7385-28.3963 100.119-30.5237Q101.5-32.651 101.5-35.1595Q101.5-37.6681 100.134-39.7657Q98.7682-41.8633 95.8421-43.6183L31.3047-81.6117Q29.52-82.5801 27.9143-83.1937Q26.3086-83.8073 24.536-83.8073Q21.1395-83.8073 18.6118-81.2481Q16.084-78.6889 16.084-73.7138L16.084 3.44537Q16.084 8.39957 18.6118 10.9588Q21.1395 13.518 24.536 13.518ZM26.6822 3.68621Q25.9706 3.68621 25.3306 3.14589Q24.6906 2.60557 24.6906 1.31675L24.6906-71.6358Q24.6906-72.8949 25.3306-73.4204Q25.9706-73.9458 26.6822-73.9458Q27.1229-73.9458 27.5382-73.8103Q27.9535-73.6748 28.5935-73.3146L89.6196-37.1633Q91.2125-36.2821 91.2125-35.1595Q91.2125-33.9775 89.6196-33.126L28.5935 3.02526Q27.9832 3.38547 27.553 3.53584Q27.1229 3.68621 26.6822 3.68621ZM109.631 13.518Q111.403 13.518 113.024 12.9297Q114.644 12.3414 116.399 11.2926L180.937-26.6501Q183.833-28.3963 185.214-30.5237Q186.595-32.651 186.595-35.1595Q186.595-37.6681 185.229-39.7657Q183.863-41.8633 180.937-43.6183L116.399-81.6117Q114.615-82.5801 113.009-83.1937Q111.403-83.8073 109.631-83.8073Q106.234-83.8073 103.707-81.2481Q101.179-78.6889 101.179-73.7138L101.179 3.44537Q101.179 8.39957 103.707 10.9588Q106.234 13.518 109.631 13.518ZM111.777 3.68621Q111.065 3.68621 110.425 3.14589Q109.785 2.60557 109.785 1.31675L109.785-71.6358Q109.785-72.8949 110.425-73.4204Q111.065-73.9458 111.777-73.9458Q112.218-73.9458 112.633-73.8103Q113.048-73.6748 113.688-73.3146L174.714-37.1633Q176.307-36.2821 176.307-35.1595Q176.307-33.9775 174.714-33.126L113.688 3.02526Q113.078 3.38547 112.648 3.53584Q112.218 3.68621 111.777 3.68621Z"/>
  </g>
  <g id="Light-L" transform="matrix(1 0 0 1 1061.01 1556)">
   <path d="M23.6536 12.3893Q25.262 12.3893 26.7799 11.8112Q28.2979 11.2332 29.7656 10.3486L94.775-27.8609Q97.1173-29.2582 98.3135-31.0778Q99.5098-32.8973 99.5098-35.139Q99.5098-37.3808 98.3387-39.15Q97.1675-40.9193 94.775-42.387L29.7656-80.6266Q28.2476-81.4308 26.7548-82.0239Q25.262-82.617 23.6536-82.617Q20.6881-82.617 18.386-80.3452Q16.084-78.0733 16.084-73.5496L16.084 3.30172Q16.084 7.84548 18.386 10.1174Q20.6881 12.3893 23.6536 12.3893ZM25.061 5.04066Q24.2468 5.04066 23.4426 4.37721Q22.6384 3.71375 22.6384 2.03502L22.6384-72.3131Q22.6384-73.9415 23.4426-74.5799Q24.2468-75.2182 25.061-75.2182Q25.5837-75.2182 26.0914-75.0724Q26.599-74.9267 27.4032-74.4844L90.0301-37.4712Q91.8898-36.4257 91.8898-35.139Q91.8898-33.7518 90.0301-32.7566L27.4032 4.25658Q26.6493 4.69888 26.1165 4.86977Q25.5837 5.04066 25.061 5.04066ZM106.758 12.3893Q108.366 12.3893 109.884 11.8112Q111.402 11.2332 112.87 10.3486L177.879-27.8609Q180.221-29.2582 181.418-31.0778Q182.614-32.8973 182.614-35.139Q182.614-37.3808 181.443-39.15Q180.272-40.9193 177.879-42.387L112.87-80.6266Q111.352-81.4308 109.859-82.0239Q108.366-82.617 106.758-82.617Q103.792-82.617 101.49-80.3452Q99.1881-78.0733 99.1881-73.5496L99.1881 3.30172Q99.1881 7.84548 101.49 10.1174Q103.792 12.3893 106.758 12.3893ZM108.165 5.04066Q107.351 5.04066 106.547 4.37721Q105.743 3.71375 105.743 2.03502L105.743-72.3131Q105.743-73.9415 106.547-74.5799Q107.351-75.2182 108.165-75.2182Q108.688-75.2182 109.195-75.0724Q109.703-74.9267 110.507-74.4844L173.134-37.4712Q174.994-36.4257 174.994-35.139Q174.994-33.7518 173.134-32.7566L110.507 4.25658Q109.753 4.69888 109.221 4.86977Q108.688 5.04066 108.165 5.04066Z"/>
  </g>
  <g id="Thin-L" transform="matrix(1 0 0 1 766.954 1556)">
   <path d="M22.4865 10.8965Q23.8778 10.8965 25.26 10.332Q26.6422 9.76755 27.7299 9.10006L93.3636-29.4623Q94.973-30.3982 95.925-31.8106Q96.877-33.223 96.877-35.1119Q96.877-37.0008 95.9637-38.3358Q95.0504-39.6708 93.3636-40.7585L27.7299-79.3238Q26.5648-79.9109 25.2213-80.4769Q23.8778-81.0428 22.4865-81.0428Q20.0909-81.0428 18.0875-79.1509Q16.084-77.259 16.084-73.3325L16.084 3.11172Q16.084 7.11265 18.0875 9.00455Q20.0909 10.8965 22.4865 10.8965ZM22.9168 6.83203Q21.9668 6.83203 20.9455 6.00572Q19.9242 5.17942 19.9242 2.98499L19.9242-73.2088Q19.9242-75.3258 20.9455-76.1134Q21.9668-76.901 22.9168-76.901Q23.5481-76.901 24.1779-76.7417Q24.8076-76.5823 25.829-76.0314L90.5729-37.8783Q92.7854-36.6157 92.7854-35.1119Q92.7854-33.4532 90.5729-32.2681L25.829 5.88509Q24.885 6.43596 24.2166 6.634Q23.5481 6.83203 22.9168 6.83203ZM102.958 10.8965Q104.349 10.8965 105.731 10.332Q107.114 9.76755 108.201 9.10006L173.835-29.4623Q175.444-30.3982 176.396-31.8106Q177.348-33.223 177.348-35.1119Q177.348-37.0008 176.435-38.3358Q175.522-39.6708 173.835-40.7585L108.201-79.3238Q107.036-79.9109 105.693-80.4769Q104.349-81.0428 102.958-81.0428Q100.562-81.0428 98.5588-79.1509Q96.5553-77.259 96.5553-73.3325L96.5553 3.11172Q96.5553 7.11265 98.5588 9.00455Q100.562 10.8965 102.958 10.8965ZM103.388 6.83203Q102.438 6.83203 101.417 6.00572Q100.396 5.17942 100.396 2.98499L100.396-73.2088Q100.396-75.3258 101.417-76.1134Q102.438-76.901 103.388-76.901Q104.019-76.901 104.649-76.7417Q105.279-76.5823 106.3-76.0314L171.044-37.8783Q173.257-36.6157 173.257-35.1119Q173.257-33.4532 171.044-32.2681L106.3 5.88509Q105.356 6.43596 104.688 6.634Q104.019 6.83203 103.388 6.83203Z"/>
  </g>
  <g id="Ultralight-L" transform="matrix(1 0 0 1 471.6 1556)">
   <path d="M21.8887 10.1318Q23.1688 10.1318 24.4815 9.57435Q25.7942 9.01685 26.6873 8.46056L92.6407-30.2825Q93.8748-30.9821 94.7017-32.1859Q95.5285-33.3898 95.5285-35.098Q95.5285-36.8061 94.7473-37.9187Q93.9661-39.0313 92.6407-39.9243L26.6873-78.6565Q25.7029-79.1324 24.4358-79.6844Q23.1688-80.2365 21.8887-80.2365Q19.7851-80.2365 17.9345-78.5392Q16.084-76.8419 16.084-73.2212L16.084 3.01441Q16.084 6.73729 17.9345 8.43457Q19.7851 10.1318 21.8887 10.1318ZM21.8185 7.74956Q20.7991 7.74956 19.6665 6.83984Q18.534 5.93012 18.534 3.47156L18.534-73.6675Q18.534-76.0348 19.6665-76.8988Q20.7991-77.7629 21.8185-77.7629Q22.5054-77.7629 23.1978-77.5966Q23.8901-77.4303 25.0227-76.8239L90.8509-38.0868Q93.2442-36.713 93.2442-35.098Q93.2442-33.3003 90.8509-32.0178L25.0227 6.71921Q23.9814 7.32569 23.2434 7.53762Q22.5054 7.74956 21.8185 7.74956ZM101.012 10.1318Q102.292 10.1318 103.604 9.57435Q104.917 9.01685 105.81 8.46056L171.764-30.2825Q172.998-30.9821 173.825-32.1859Q174.651-33.3898 174.651-35.098Q174.651-36.8061 173.87-37.9187Q173.089-39.0313 171.764-39.9243L105.81-78.6565Q104.826-79.1324 103.559-79.6844Q102.292-80.2365 101.012-80.2365Q98.908-80.2365 97.0574-78.5392Q95.2068-76.8419 95.2068-73.2212L95.2068 3.01441Q95.2068 6.73729 97.0574 8.43457Q98.908 10.1318 101.012 10.1318ZM100.941 7.74956Q99.9219 7.74956 98.7894 6.83984Q97.6569 5.93012 97.6569 3.47156L97.6569-73.6675Q97.6569-76.0348 98.7894-76.8988Q99.9219-77.7629 100.941-77.7629Q101.628-77.7629 102.321-77.5966Q103.013-77.4303 104.146-76.8239L169.974-38.0868Q172.367-36.713 172.367-35.098Q172.367-33.3003 169.974-32.0178L104.146 6.71921Q103.104 7.32569 102.366 7.53762Q101.628 7.74956 100.941 7.74956Z"/>
  </g>
  <g id="Black-M" transform="matrix(1 0 0 1 2847.95 1126)">
   <path d="M23.8954 7.24692Q26.0265 7.24692 28.0267 6.75093Q30.027 6.25494 31.999 5.08435L83.1177-24.6931Q86.5629-26.6712 88.8706-29.3833Q91.1784-32.0953 91.1784-36.0551Q91.1784-40.0149 88.9276-42.5559Q86.6768-45.097 83.1177-47.1831L31.999-76.9661Q29.9702-78.1315 27.9413-78.6303Q25.9123-79.129 23.7813-79.129Q19.1751-79.129 15.818-75.8488Q12.4609-72.5687 12.4609-66.5449L12.4609-5.33143Q12.4609 0.629474 15.8751 3.9382Q19.2893 7.24692 23.8954 7.24692ZM29.8244-13.1867Q29.6752-13.1867 29.5945-13.2939Q29.5138-13.4012 29.5138-13.5565L29.5138-58.3253Q29.5138-58.4809 29.5945-58.5883Q29.6752-58.6957 29.8815-58.6957Q30.0153-58.6957 30.1178-58.6881Q30.2203-58.6804 30.3581-58.5518L68.851-36.3776Q69.0394-36.2812 69.0394-35.998Q69.0394-35.7154 68.851-35.5616L30.3581-13.3303Q30.2771-13.2588 30.1176-13.2227Q29.9582-13.1867 29.8244-13.1867ZM102.364 7.24692Q104.495 7.24692 106.495 6.75093Q108.495 6.25494 110.467 5.08435L161.586-24.6931Q165.031-26.6712 167.339-29.3833Q169.647-32.0953 169.647-36.0551Q169.647-40.0149 167.396-42.5559Q165.145-45.097 161.586-47.1831L110.467-76.9661Q108.438-78.1315 106.409-78.6303Q104.38-79.129 102.249-79.129Q97.6433-79.129 94.2862-75.8488Q90.9291-72.5687 90.9291-66.5449L90.9291-5.33143Q90.9291 0.629474 94.3433 3.9382Q97.7575 7.24692 102.364 7.24692ZM108.293-13.1867Q108.143-13.1867 108.063-13.2939Q107.982-13.4012 107.982-13.5565L107.982-58.3253Q107.982-58.4809 108.063-58.5883Q108.143-58.6957 108.35-58.6957Q108.483-58.6957 108.586-58.6881Q108.688-58.6804 108.826-58.5518L147.319-36.3776Q147.508-36.2812 147.508-35.998Q147.508-35.7154 147.319-35.5616L108.826-13.3303Q108.745-13.2588 108.586-13.2227Q108.426-13.1867 108.293-13.1867Z"/>
  </g>
  <g id="Heavy-M" transform="matrix(1 0 0 1 2553.93 1126)">
   <path d="M22.8609 6.28722Q24.8352 6.28722 26.6735 5.79935Q28.5118 5.31147 30.378 4.20329L81.1691-25.4482Q84.4054-27.3257 86.4458-29.828Q88.4862-32.3304 88.4862-35.8502Q88.4862-39.3701 86.4906-41.7391Q84.495-44.1081 81.1691-46.0615L30.378-75.7292Q28.4658-76.8187 26.6069-77.3147Q24.748-77.8107 22.7737-77.8107Q18.5756-77.8107 15.5183-74.7981Q12.4609-71.7855 12.4609-66.2129L12.4609-5.29678Q12.4609 0.218374 15.5619 3.2528Q18.6629 6.28722 22.8609 6.28722ZM27.8824-11.4556Q27.6522-11.4556 27.4956-11.6198Q27.339-11.784 27.339-12.0858L27.339-59.4401Q27.339-59.7395 27.4956-59.9025Q27.6522-60.0655 27.926-60.0655Q28.0978-60.0655 28.2396-60.0362Q28.3814-60.007 28.5817-59.8539L68.9329-36.4188Q69.3322-36.2062 69.3322-35.8066Q69.3322-35.4021 68.9329-35.1483L28.5817-11.6696Q28.4275-11.5602 28.2408-11.5079Q28.0542-11.4556 27.8824-11.4556ZM98.637 6.28722Q100.611 6.28722 102.45 5.79935Q104.288 5.31147 106.154 4.20329L156.945-25.4482Q160.181-27.3257 162.222-29.828Q164.262-32.3304 164.262-35.8502Q164.262-39.3701 162.267-41.7391Q160.271-44.1081 156.945-46.0615L106.154-75.7292Q104.242-76.8187 102.383-77.3147Q100.524-77.8107 98.5498-77.8107Q94.3517-77.8107 91.2944-74.7981Q88.237-71.7855 88.237-66.2129L88.237-5.29678Q88.237 0.218374 91.338 3.2528Q94.4389 6.28722 98.637 6.28722ZM103.658-11.4556Q103.428-11.4556 103.272-11.6198Q103.115-11.784 103.115-12.0858L103.115-59.4401Q103.115-59.7395 103.272-59.9025Q103.428-60.0655 103.702-60.0655Q103.874-60.0655 104.016-60.0362Q104.157-60.007 104.358-59.8539L144.709-36.4188Q145.108-36.2062 145.108-35.8066Q145.108-35.4021 144.709-35.1483L104.358-11.6696Q104.204-11.5602 104.017-11.5079Q103.83-11.4556 103.658-11.4556Z"/>
  </g>
  <g id="Bold-M" transform="matrix(1 0 0 1 2260.22 1126)">
   <path d="M21.7037 5.21366Q23.5026 5.21366 25.1598 4.73486Q26.8169 4.25606 28.5646 3.21771L78.9894-26.2929Q81.9918-28.0578 83.7332-30.3256Q85.4747-32.5934 85.4747-35.621Q85.4747-38.6487 83.7646-40.8253Q82.0544-43.002 78.9894-44.8067L28.5646-74.3456Q26.7828-75.3502 25.1142-75.8431Q23.4455-76.336 21.6466-76.336Q17.905-76.336 15.183-73.6227Q12.4609-70.9094 12.4609-65.8416L12.4609-5.25801Q12.4609-0.2415 15.2115 2.48608Q17.9621 5.21366 21.7037 5.21366ZM25.71-9.51918Q25.389-9.51918 25.1476-9.74703Q24.9061-9.97488 24.9061-10.4407L24.9061-60.6872Q24.9061-61.1475 25.1476-61.3726Q25.389-61.5977 25.7386-61.5977Q25.9528-61.5977 26.1386-61.5443Q26.3244-61.4909 26.5945-61.3104L69.0246-36.4649Q69.6598-36.1222 69.6598-35.5925Q69.6598-35.0518 69.0246-34.686L26.5945-9.81194Q26.3585-9.66004 26.1414-9.58961Q25.9242-9.51918 25.71-9.51918ZM94.4682 5.21366Q96.2672 5.21366 97.9243 4.73486Q99.5814 4.25606 101.329 3.21771L151.754-26.2929Q154.756-28.0578 156.498-30.3256Q158.239-32.5934 158.239-35.621Q158.239-38.6487 156.529-40.8253Q154.819-43.002 151.754-44.8067L101.329-74.3456Q99.5473-75.3502 97.8787-75.8431Q96.2101-76.336 94.4111-76.336Q90.6696-76.336 87.9475-73.6227Q85.2255-70.9094 85.2255-65.8416L85.2255-5.25801Q85.2255-0.2415 87.9761 2.48608Q90.7267 5.21366 94.4682 5.21366ZM98.4746-9.51918Q98.1536-9.51918 97.9121-9.74703Q97.6706-9.97488 97.6706-10.4407L97.6706-60.6872Q97.6706-61.1475 97.9121-61.3726Q98.1536-61.5977 98.5031-61.5977Q98.7173-61.5977 98.9031-61.5443Q99.0889-61.4909 99.359-61.3104L141.789-36.4649Q142.424-36.1222 142.424-35.5925Q142.424-35.0518 141.789-34.686L99.359-9.81194Q99.123-9.66004 98.9059-9.58961Q98.6888-9.51918 98.4746-9.51918Z"/>
  </g>
  <g id="Semibold-M" transform="matrix(1 0 0 1 1965.58 1126)">
   <path d="M20.9059 4.47355Q22.584 4.47355 24.1162 4.00101Q25.6484 3.52847 27.3144 2.53825L77.4867-26.8752Q80.3279-28.5625 81.8632-30.6686Q83.3985-32.7747 83.3985-35.463Q83.3985-38.1514 81.8852-40.1954Q80.3719-42.2394 77.4867-43.9417L27.3144-73.3917Q25.6226-74.3378 24.0851-74.8286Q22.5477-75.3194 20.8696-75.3194Q17.4427-75.3194 14.9518-72.8124Q12.4609-70.3055 12.4609-65.5857L12.4609-5.23129Q12.4609-0.558535 14.97 1.95751Q17.4791 4.47355 20.9059 4.47355ZM24.2124-8.18422Q23.8289-8.18422 23.5289-8.45596Q23.2288-8.72771 23.2288-9.30653L23.2288-61.5469Q23.2288-62.1181 23.5289-62.386Q23.8289-62.654 24.2306-62.654Q24.4741-62.654 24.6902-62.5839Q24.9063-62.5139 25.2245-62.3146L69.0878-36.4967Q69.8857-36.0643 69.8857-35.4449Q69.8857-34.8102 69.0878-34.3672L25.2245-8.53126Q24.9321-8.3501 24.694-8.26716Q24.4559-8.18422 24.2124-8.18422ZM91.5943 4.47355Q93.2723 4.47355 94.8046 4.00101Q96.3368 3.52847 98.0028 2.53825L148.175-26.8752Q151.016-28.5625 152.552-30.6686Q154.087-32.7747 154.087-35.463Q154.087-38.1514 152.574-40.1954Q151.06-42.2394 148.175-43.9417L98.0028-73.3917Q96.311-74.3378 94.7735-74.8286Q93.236-75.3194 91.558-75.3194Q88.1311-75.3194 85.6402-72.8124Q83.1493-70.3055 83.1493-65.5857L83.1493-5.23129Q83.1493-0.558535 85.6584 1.95751Q88.1674 4.47355 91.5943 4.47355ZM94.9008-8.18422Q94.5172-8.18422 94.2172-8.45596Q93.9172-8.72771 93.9172-9.30653L93.9172-61.5469Q93.9172-62.1181 94.2172-62.386Q94.5172-62.654 94.919-62.654Q95.1624-62.654 95.3786-62.5839Q95.5947-62.5139 95.9129-62.3146L139.776-36.4967Q140.574-36.0643 140.574-35.4449Q140.574-34.8102 139.776-34.3672L95.9129-8.53126Q95.6205-8.3501 95.3824-8.26716Q95.1443-8.18422 94.9008-8.18422Z"/>
  </g>
  <g id="Medium-M" transform="matrix(1 0 0 1 1670.44 1126)">
   <path d="M20.301 3.91238Q21.8874 3.91238 23.3249 3.44458Q24.7624 2.97678 26.3665 2.02306L76.3472-27.3168Q79.0663-28.9452 80.4453-30.9287Q81.8243-32.9122 81.8243-35.3433Q81.8243-37.7743 80.4602-39.7177Q79.0961-41.6611 76.3472-43.2858L26.3665-72.6685Q24.7429-73.5701 23.3049-74.0593Q21.8668-74.5485 20.2804-74.5485Q17.0922-74.5485 14.7766-72.198Q12.4609-69.8475 12.4609-65.3916L12.4609-5.21102Q12.4609-0.798924 14.7868 1.55673Q17.1128 3.91238 20.301 3.91238ZM23.0769-7.17199Q22.6459-7.17199 22.3015-7.47702Q21.9571-7.78205 21.9571-8.44657L21.9571-62.1988Q21.9571-62.8541 22.3015-63.1545Q22.6459-63.4549 23.0871-63.4549Q23.3528-63.4549 23.5919-63.3722Q23.8311-63.2896 24.1857-63.0759L69.1357-36.5209Q70.0569-36.0204 70.0569-35.333Q70.0569-34.6271 69.1357-34.1256L24.1857-7.5602Q23.8506-7.35685 23.5966-7.26442Q23.3425-7.17199 23.0769-7.17199ZM89.4151 3.91238Q91.0015 3.91238 92.4391 3.44458Q93.8766 2.97678 95.4807 2.02306L145.461-27.3168Q148.18-28.9452 149.559-30.9287Q150.938-32.9122 150.938-35.3433Q150.938-37.7743 149.574-39.7177Q148.21-41.6611 145.461-43.2858L95.4807-72.6685Q93.857-73.5701 92.419-74.0593Q90.981-74.5485 89.3946-74.5485Q86.2064-74.5485 83.8907-72.198Q81.5751-69.8475 81.5751-65.3916L81.5751-5.21102Q81.5751-0.798924 83.901 1.55673Q86.2269 3.91238 89.4151 3.91238ZM92.191-7.17199Q91.76-7.17199 91.4156-7.47702Q91.0712-7.78205 91.0712-8.44657L91.0712-62.1988Q91.0712-62.8541 91.4156-63.1545Q91.76-63.4549 92.2013-63.4549Q92.467-63.4549 92.7061-63.3722Q92.9452-63.2896 93.2999-63.0759L138.25-36.5209Q139.171-36.0204 139.171-35.333Q139.171-34.6271 138.25-34.1256L93.2999-7.5602Q92.9648-7.35685 92.7107-7.26442Q92.4567-7.17199 92.191-7.17199Z"/>
  </g>
  <g id="Regular-M" transform="matrix(1 0 0 1 1375.78 1126)">
   <path d="M19.512 3.1804Q20.9788 3.1804 22.2928 2.71879Q23.6068 2.25718 25.1302 1.35107L74.861-27.8927Q77.4207-29.4444 78.5959-31.2679Q79.771-33.0915 79.771-35.187Q79.771-37.2825 78.6015-39.0947Q77.4321-40.9069 74.861-42.4303L25.1302-71.7251Q23.5954-72.5689 22.2871-73.056Q20.9788-73.543 19.512-73.543Q16.635-73.543 14.548-71.3966Q12.4609-69.2502 12.4609-65.1384L12.4609-5.18459Q12.4609-1.11248 14.548 1.03396Q16.635 3.1804 19.512 3.1804ZM21.5957-5.8517Q21.1029-5.8517 20.7006-6.20014Q20.2983-6.54858 20.2983-7.32489L20.2983-63.0491Q20.2983-63.8141 20.7006-64.1568Q21.1029-64.4996 21.5957-64.4996Q21.8903-64.4996 22.1594-64.4005Q22.4286-64.3013 22.8308-64.069L69.1982-36.5523Q70.2803-35.9631 70.2803-35.187Q70.2803-34.3882 69.1982-33.8103L22.8308-6.2936Q22.4399-6.0613 22.1651-5.9565Q21.8903-5.8517 21.5957-5.8517ZM86.5728 3.1804Q88.0396 3.1804 89.3536 2.71879Q90.6676 2.25718 92.191 1.35107L141.922-27.8927Q144.482-29.4444 145.657-31.2679Q146.832-33.0915 146.832-35.187Q146.832-37.2825 145.662-39.0947Q144.493-40.9069 141.922-42.4303L92.191-71.7251Q90.6563-72.5689 89.348-73.056Q88.0396-73.543 86.5728-73.543Q83.6958-73.543 81.6088-71.3966Q79.5218-69.2502 79.5218-65.1384L79.5218-5.18459Q79.5218-1.11248 81.6088 1.03396Q83.6958 3.1804 86.5728 3.1804ZM88.6565-5.8517Q88.1637-5.8517 87.7614-6.20014Q87.3591-6.54858 87.3591-7.32489L87.3591-63.0491Q87.3591-63.8141 87.7614-64.1568Q88.1637-64.4996 88.6565-64.4996Q88.9511-64.4996 89.2203-64.4005Q89.4894-64.3013 89.8917-64.069L136.259-36.5523Q137.341-35.9631 137.341-35.187Q137.341-34.3882 136.259-33.8103L89.8917-6.2936Q89.5007-6.0613 89.2259-5.9565Q88.9511-5.8517 88.6565-5.8517Z"/>
  </g>
  <g id="Light-M" transform="matrix(1 0 0 1 1080.87 1126)">
   <path d="M18.7208 2.16846Q20.0405 2.16846 21.2624 1.71605Q22.4844 1.26363 23.7502 0.504712L73.9043-28.9783Q75.9672-30.2171 76.9767-31.7647Q77.9863-33.3123 77.9863-35.1686Q77.9863-37.0249 76.9916-38.5427Q75.9969-40.0606 73.9043-41.3264L23.7502-70.8419Q22.4547-71.5385 21.2476-72.0072Q20.0405-72.4759 18.7208-72.4759Q16.2302-72.4759 14.3456-70.5871Q12.4609-68.6982 12.4609-64.9912L12.4609-5.31339Q12.4609-1.60925 14.3456 0.279605Q16.2302 2.16846 18.7208 2.16846ZM20.1422-4.63736Q19.5573-4.63736 19.0079-5.0962Q18.4584-5.55504 18.4584-6.68092L18.4584-63.6563Q18.4584-64.7524 19.0079-65.1964Q19.5573-65.6403 20.1422-65.6403Q20.5104-65.6403 20.8623-65.532Q21.2142-65.4237 21.7637-65.1178L69.5662-36.8283Q70.8874-36.0919 70.8874-35.1686Q70.8874-34.1858 69.5662-33.4792L21.7637-5.18966Q21.244-4.88377 20.8772-4.76057Q20.5104-4.63736 20.1422-4.63736ZM83.9969 2.16846Q85.3166 2.16846 86.5386 1.71605Q87.7606 1.26363 89.0264 0.504712L139.18-28.9783Q141.243-30.2171 142.253-31.7647Q143.262-33.3123 143.262-35.1686Q143.262-37.0249 142.268-38.5427Q141.273-40.0606 139.18-41.3264L89.0264-70.8419Q87.7308-71.5385 86.5237-72.0072Q85.3166-72.4759 83.9969-72.4759Q81.5063-72.4759 79.6217-70.5871Q77.7371-68.6982 77.7371-64.9912L77.7371-5.31339Q77.7371-1.60925 79.6217 0.279605Q81.5063 2.16846 83.9969 2.16846ZM85.4183-4.63736Q84.8335-4.63736 84.284-5.0962Q83.7345-5.55504 83.7345-6.68092L83.7345-63.6563Q83.7345-64.7524 84.284-65.1964Q84.8335-65.6403 85.4183-65.6403Q85.7865-65.6403 86.1384-65.532Q86.4904-65.4237 87.0398-65.1178L134.842-36.8283Q136.164-36.0919 136.164-35.1686Q136.164-34.1858 134.842-33.4792L87.0398-5.18966Q86.5201-4.88377 86.1533-4.76057Q85.7865-4.63736 85.4183-4.63736Z"/>
  </g>
  <g id="Thin-M" transform="matrix(1 0 0 1 786.532 1126)">
   <path d="M17.6744 0.830079Q18.7994 0.830079 19.8997 0.389833Q21-0.0504127 21.9252-0.61466L72.6389-30.414Q74.0448-31.2392 74.8353-32.4217Q75.6259-33.6043 75.6259-35.1443Q75.6259-36.6842 74.8624-37.8127Q74.0989-38.9412 72.6389-39.8663L21.9252-69.6739Q20.946-70.1758 19.8727-70.6202Q18.7994-71.0645 17.6744-71.0645Q15.6948-71.0645 14.0779-69.5163Q12.4609-67.9682 12.4609-64.7966L12.4609-5.48373Q12.4609-2.26627 14.0779-0.718096Q15.6948 0.830079 17.6744 0.830079ZM18.2198-3.03131Q17.5133-3.03131 16.7691-3.63615Q16.025-4.24099 16.025-5.82923L16.025-64.4593Q16.025-65.9935 16.7691-66.5713Q17.5133-67.1491 18.2198-67.1491Q18.6853-67.1491 19.1467-67.0286Q19.6082-66.9081 20.3523-66.5048L70.0529-37.1933Q71.6904-36.2622 71.6904-35.1443Q71.6904-33.9181 70.0529-33.0411L20.3523-3.72961Q19.6622-3.32638 19.1738-3.17885Q18.6853-3.03131 18.2198-3.03131ZM80.5901 0.830079Q81.7151 0.830079 82.8154 0.389833Q83.9158-0.0504127 84.8409-0.61466L135.555-30.414Q136.961-31.2392 137.751-32.4217Q138.542-33.6043 138.542-35.1443Q138.542-36.6842 137.778-37.8127Q137.015-38.9412 135.555-39.8663L84.8409-69.6739Q83.8617-70.1758 82.7884-70.6202Q81.7151-71.0645 80.5901-71.0645Q78.6106-71.0645 76.9936-69.5163Q75.3767-67.9682 75.3767-64.7966L75.3767-5.48373Q75.3767-2.26627 76.9936-0.718096Q78.6106 0.830079 80.5901 0.830079ZM81.1355-3.03131Q80.429-3.03131 79.6848-3.63615Q78.9407-4.24099 78.9407-5.82923L78.9407-64.4593Q78.9407-65.9935 79.6848-66.5713Q80.429-67.1491 81.1355-67.1491Q81.601-67.1491 82.0625-67.0286Q82.5239-66.9081 83.268-66.5048L132.969-37.1933Q134.606-36.2622 134.606-35.1443Q134.606-33.9181 132.969-33.0411L83.268-3.72961Q82.578-3.32638 82.0895-3.17885Q81.601-3.03131 81.1355-3.03131Z"/>
  </g>
  <g id="Ultralight-M" transform="matrix(1 0 0 1 491.038 1126)">
   <path d="M17.1385 0.144568Q18.1638 0.144568 19.2018-0.289446Q20.2397-0.72346 20.9904-1.188L71.9908-31.1493Q73.0602-31.7626 73.7385-32.7583Q74.4169-33.7539 74.4169-35.1318Q74.4169-36.5097 73.7718-37.4388Q73.1267-38.3679 71.9908-39.1185L20.9904-69.0756Q20.1732-69.4778 19.1685-69.9097Q18.1638-70.3416 17.1385-70.3416Q15.4206-70.3416 13.9408-68.9679Q12.4609-67.5943 12.4609-64.6969L12.4609-5.57097Q12.4609-2.60279 13.9408-1.22911Q15.4206 0.144568 17.1385 0.144568ZM17.2352-2.2087Q16.4663-2.2087 15.6224-2.88832Q14.7786-3.56795 14.7786-5.39299L14.7786-64.8706Q14.7786-66.6291 15.6224-67.2755Q16.4663-67.9218 17.2352-67.9218Q17.7505-67.9218 18.268-67.7951Q18.7856-67.6684 19.6294-67.2153L70.3021-37.3803Q72.1018-36.3495 72.1018-35.1318Q72.1018-33.781 70.3021-32.8168L19.6294-2.98178Q18.8521-2.5287 18.3013-2.3687Q17.7505-2.2087 17.2352-2.2087ZM78.8452 0.144568Q79.8705 0.144568 80.9085-0.289446Q81.9465-0.72346 82.6971-1.188L133.698-31.1493Q134.767-31.7626 135.445-32.7583Q136.124-33.7539 136.124-35.1318Q136.124-36.5097 135.479-37.4388Q134.833-38.3679 133.698-39.1185L82.6971-69.0756Q81.8799-69.4778 80.8752-69.9097Q79.8705-70.3416 78.8452-70.3416Q77.1274-70.3416 75.6475-68.9679Q74.1677-67.5943 74.1677-64.6969L74.1677-5.57097Q74.1677-2.60279 75.6475-1.22911Q77.1274 0.144568 78.8452 0.144568ZM78.9419-2.2087Q78.173-2.2087 77.3292-2.88832Q76.4853-3.56795 76.4853-5.39299L76.4853-64.8706Q76.4853-66.6291 77.3292-67.2755Q78.173-67.9218 78.9419-67.9218Q79.4573-67.9218 79.9748-67.7951Q80.4923-67.6684 81.3361-67.2153L132.009-37.3803Q133.808-36.3495 133.808-35.1318Q133.808-33.781 132.009-32.8168L81.3361-2.98178Q80.5588-2.5287 80.008-2.3687Q79.4573-2.2087 78.9419-2.2087Z"/>
  </g>
  <g id="Black-S" transform="matrix(1 0 0 1 2865.72 696)">
   <path d="M18.9941-1.70898Q20.7031-1.70898 22.3145-2.09961Q23.9258-2.49023 25.4883-3.41797L65.6738-26.8066Q68.4082-28.3691 70.2881-30.542Q72.168-32.7148 72.168-35.9375Q72.168-39.1602 70.3369-41.1865Q68.5059-43.2129 65.6738-44.873L25.4883-68.2617Q23.877-69.1895 22.2412-69.5801Q20.6055-69.9707 18.8965-69.9707Q15.1855-69.9707 12.4756-67.334Q9.76562-64.6973 9.76562-59.8633L9.76562-11.8164Q9.76562-7.03125 12.5244-4.37012Q15.2832-1.70898 18.9941-1.70898ZM23.877-18.4082Q23.7793-18.4082 23.7305-18.4814Q23.6816-18.5547 23.6816-18.6523L23.6816-53.0273Q23.6816-53.125 23.7305-53.1982Q23.7793-53.2715 23.9258-53.2715Q24.0234-53.2715 24.0967-53.2715Q24.1699-53.2715 24.2676-53.1738L53.9551-36.1328Q54.0527-36.084 54.0527-35.8887Q54.0527-35.6934 53.9551-35.5957L24.2676-18.5059Q24.2188-18.457 24.0967-18.4326Q23.9746-18.4082 23.877-18.4082ZM81.2012-1.70898Q82.9102-1.70898 84.5215-2.09961Q86.1328-2.49023 87.6953-3.41797L127.881-26.8066Q130.615-28.3691 132.495-30.542Q134.375-32.7148 134.375-35.9375Q134.375-39.1602 132.544-41.1865Q130.713-43.2129 127.881-44.873L87.6953-68.2617Q86.084-69.1895 84.4482-69.5801Q82.8125-69.9707 81.1035-69.9707Q77.3926-69.9707 74.6826-67.334Q71.9727-64.6973 71.9727-59.8633L71.9727-11.8164Q71.9727-7.03125 74.7314-4.37012Q77.4902-1.70898 81.2012-1.70898ZM86.084-18.4082Q85.9863-18.4082 85.9375-18.4814Q85.8887-18.5547 85.8887-18.6523L85.8887-53.0273Q85.8887-53.125 85.9375-53.1982Q85.9863-53.2715 86.1328-53.2715Q86.2305-53.2715 86.3037-53.2715Q86.377-53.2715 86.4746-53.1738L116.162-36.1328Q116.26-36.084 116.26-35.8887Q116.26-35.6934 116.162-35.5957L86.4746-18.5059Q86.4258-18.457 86.3037-18.4326Q86.1816-18.4082 86.084-18.4082Z"/>
  </g>
  <g id="Heavy-S" transform="matrix(1 0 0 1 2571.08 696)">
   <path d="M18.2105-2.40045Q19.8042-2.40045 21.2888-2.78532Q22.7733-3.17018 24.2782-4.06334L64.1295-27.3137Q66.7487-28.8301 68.4211-30.8589Q70.0936-32.8877 70.0936-35.7646Q70.0936-38.6416 68.4584-40.5584Q66.8233-42.4753 64.1295-44.0548L24.2782-67.3167Q22.736-68.1983 21.2328-68.589Q19.7296-68.9796 18.1359-68.9796Q14.7246-68.9796 12.2451-66.5388Q9.76562-64.098 9.76562-59.5982L9.76562-11.7703Q9.76562-7.31936 12.2824-4.85991Q14.7992-2.40045 18.2105-2.40045ZM22.4018-17.0829Q22.2465-17.0829 22.1516-17.1907Q22.0567-17.2985 22.0567-17.4768L22.0567-53.9032Q22.0567-54.0815 22.1516-54.1893Q22.2465-54.2972 22.4391-54.2972Q22.5598-54.2972 22.6561-54.2799Q22.7524-54.2626 22.8846-54.1534L53.9781-36.1328Q54.2256-36.0033 54.2256-35.7273Q54.2256-35.4513 53.9781-35.2845L22.8846-17.2266Q22.7897-17.1548 22.6561-17.1188Q22.5225-17.0829 22.4018-17.0829ZM78.3431-2.40045Q79.9368-2.40045 81.4214-2.78532Q82.906-3.17018 84.4108-4.06334L124.262-27.3137Q126.881-28.8301 128.554-30.8589Q130.226-32.8877 130.226-35.7646Q130.226-38.6416 128.591-40.5584Q126.956-42.4753 124.262-44.0548L84.4108-67.3167Q82.8687-68.1983 81.3654-68.589Q79.8622-68.9796 78.2685-68.9796Q74.8572-68.9796 72.3777-66.5388Q69.8983-64.098 69.8983-59.5982L69.8983-11.7703Q69.8983-7.31936 72.415-4.85991Q74.9318-2.40045 78.3431-2.40045ZM82.5344-17.0829Q82.3792-17.0829 82.2842-17.1907Q82.1893-17.2985 82.1893-17.4768L82.1893-53.9032Q82.1893-54.0815 82.2842-54.1893Q82.3792-54.2972 82.5718-54.2972Q82.6925-54.2972 82.7887-54.2799Q82.885-54.2626 83.0173-54.1534L114.111-36.1328Q114.358-36.0033 114.358-35.7273Q114.358-35.4513 114.111-35.2845L83.0173-17.2266Q82.9223-17.1548 82.7887-17.1188Q82.6552-17.0829 82.5344-17.0829Z"/>
  </g>
  <g id="Bold-S" transform="matrix(1 0 0 1 2276.68 696)">
   <path d="M17.334-3.17383Q18.7988-3.17383 20.1416-3.55225Q21.4844-3.93066 22.9248-4.78516L62.4023-27.8809Q64.8926-29.3457 66.333-31.2134Q67.7734-33.0811 67.7734-35.5713Q67.7734-38.0615 66.3574-39.856Q64.9414-41.6504 62.4023-43.1396L22.9248-66.2598Q21.46-67.0898 20.105-67.4805Q18.75-67.8711 17.2852-67.8711Q14.209-67.8711 11.9873-65.6494Q9.76562-63.4277 9.76562-59.3018L9.76562-11.7188Q9.76562-7.6416 12.0117-5.40771Q14.2578-3.17383 17.334-3.17383ZM20.752-15.6006Q20.5322-15.6006 20.3857-15.7471Q20.2393-15.8936 20.2393-16.1621L20.2393-54.8828Q20.2393-55.1514 20.3857-55.2979Q20.5322-55.4443 20.7764-55.4443Q20.9229-55.4443 21.0449-55.4077Q21.167-55.3711 21.3379-55.249L54.0039-36.1328Q54.4189-35.9131 54.4189-35.5469Q54.4189-35.1807 54.0039-34.9365L21.3379-15.7959Q21.1914-15.6982 21.0449-15.6494Q20.8984-15.6006 20.752-15.6006ZM75.1465-3.17383Q76.6113-3.17383 77.9541-3.55225Q79.2969-3.93066 80.7373-4.78516L120.215-27.8809Q122.705-29.3457 124.146-31.2134Q125.586-33.0811 125.586-35.5713Q125.586-38.0615 124.17-39.856Q122.754-41.6504 120.215-43.1396L80.7373-66.2598Q79.2725-67.0898 77.9175-67.4805Q76.5625-67.8711 75.0977-67.8711Q72.0215-67.8711 69.7998-65.6494Q67.5781-63.4277 67.5781-59.3018L67.5781-11.7188Q67.5781-7.6416 69.8242-5.40771Q72.0703-3.17383 75.1465-3.17383ZM78.5645-15.6006Q78.3447-15.6006 78.1982-15.7471Q78.0518-15.8936 78.0518-16.1621L78.0518-54.8828Q78.0518-55.1514 78.1982-55.2979Q78.3447-55.4443 78.5889-55.4443Q78.7354-55.4443 78.8574-55.4077Q78.9795-55.3711 79.1504-55.249L111.816-36.1328Q112.231-35.9131 112.231-35.5469Q112.231-35.1807 111.816-34.9365L79.1504-15.7959Q79.0039-15.6982 78.8574-15.6494Q78.7109-15.6006 78.5645-15.6006Z"/>
  </g>
  <g id="Semibold-S" transform="matrix(1 0 0 1 1981.57 696)">
   <path d="M16.7297-3.70703Q18.1057-3.70703 19.3507-4.08101Q20.5957-4.45498 21.9917-5.28281L61.2115-28.2719Q63.6129-29.7012 64.8934-31.4578Q66.1738-33.2144 66.1738-35.438Q66.1738-37.6616 64.9089-39.3716Q63.6439-41.0816 61.2115-42.5087L21.9917-65.5311Q20.5802-66.3256 19.3274-66.7162Q18.0746-67.1068 16.6986-67.1068Q13.8535-67.1068 11.8096-65.0362Q9.76562-62.9656 9.76562-59.0974L9.76562-11.6832Q9.76562-7.86377 11.8251-5.7854Q13.8846-3.70703 16.7297-3.70703ZM19.6145-14.5786Q19.3503-14.5786 19.1683-14.7518Q18.9862-14.9249 18.9862-15.2557L18.9862-55.5582Q18.9862-55.889 19.1683-56.0621Q19.3503-56.2353 19.63-56.2353Q19.7942-56.2353 19.9341-56.1853Q20.0739-56.1354 20.2715-56.0044L54.0217-36.1328Q54.5522-35.8509 54.5522-35.4225Q54.5522-34.994 54.0217-34.6966L20.2715-14.8095Q20.0895-14.694 19.9341-14.6363Q19.7787-14.5786 19.6145-14.5786ZM72.9426-3.70703Q74.3186-3.70703 75.5636-4.08101Q76.8086-4.45498 78.2046-5.28281L117.424-28.2719Q119.826-29.7012 121.106-31.4578Q122.387-33.2144 122.387-35.438Q122.387-37.6616 121.122-39.3716Q119.857-41.0816 117.424-42.5087L78.2046-65.5311Q76.7931-66.3256 75.5403-66.7162Q74.2875-67.1068 72.9115-67.1068Q70.0664-67.1068 68.0225-65.0362Q65.9785-62.9656 65.9785-59.0974L65.9785-11.6832Q65.9785-7.86377 68.038-5.7854Q70.0975-3.70703 72.9426-3.70703ZM75.8273-14.5786Q75.5632-14.5786 75.3812-14.7518Q75.1991-14.9249 75.1991-15.2557L75.1991-55.5582Q75.1991-55.889 75.3812-56.0621Q75.5632-56.2353 75.8429-56.2353Q76.0071-56.2353 76.147-56.1853Q76.2868-56.1354 76.4844-56.0044L110.235-36.1328Q110.765-35.8509 110.765-35.4225Q110.765-34.994 110.235-34.6966L76.4844-14.8095Q76.3023-14.694 76.147-14.6363Q75.9916-14.5786 75.8273-14.5786Z"/>
  </g>
  <g id="Medium-S" transform="matrix(1 0 0 1 1686.07 696)">
   <path d="M16.2715-4.11133Q17.5801-4.11133 18.751-4.48193Q19.9219-4.85254 21.2842-5.66016L60.3086-28.5684Q62.6426-29.9707 63.8018-31.6431Q64.9609-33.3154 64.9609-35.3369Q64.9609-37.3584 63.8105-39.0044Q62.6602-40.6504 60.3086-42.0303L21.2842-64.9785Q19.9131-65.7461 18.7378-66.1367Q17.5625-66.5273 16.2539-66.5273Q13.584-66.5273 11.6748-64.5713Q9.76562-62.6152 9.76562-58.9424L9.76562-11.6562Q9.76562-8.03223 11.6836-6.07178Q13.6016-4.11133 16.2715-4.11133ZM18.752-13.8037Q18.4541-13.8037 18.2451-13.9971Q18.0361-14.1904 18.0361-14.5684L18.0361-56.0703Q18.0361-56.4482 18.2451-56.6416Q18.4541-56.835 18.7607-56.835Q18.9385-56.835 19.0918-56.7749Q19.2451-56.7148 19.4629-56.5771L54.0352-36.1328Q54.6533-35.8037 54.6533-35.3281Q54.6533-34.8525 54.0352-34.5146L19.4629-14.0615Q19.2539-13.9326 19.0918-13.8682Q18.9297-13.8037 18.752-13.8037ZM71.2715-4.11133Q72.5801-4.11133 73.751-4.48193Q74.9219-4.85254 76.2842-5.66016L115.309-28.5684Q117.643-29.9707 118.802-31.6431Q119.961-33.3154 119.961-35.3369Q119.961-37.3584 118.811-39.0044Q117.66-40.6504 115.309-42.0303L76.2842-64.9785Q74.9131-65.7461 73.7378-66.1367Q72.5625-66.5273 71.2539-66.5273Q68.584-66.5273 66.6748-64.5713Q64.7656-62.6152 64.7656-58.9424L64.7656-11.6562Q64.7656-8.03223 66.6836-6.07178Q68.6016-4.11133 71.2715-4.11133ZM73.752-13.8037Q73.4541-13.8037 73.2451-13.9971Q73.0361-14.1904 73.0361-14.5684L73.0361-56.0703Q73.0361-56.4482 73.2451-56.6416Q73.4541-56.835 73.7607-56.835Q73.9385-56.835 74.0918-56.7749Q74.2451-56.7148 74.4629-56.5771L109.035-36.1328Q109.653-35.8037 109.653-35.3281Q109.653-34.8525 109.035-34.5146L74.4629-14.0615Q74.2539-13.9326 74.0918-13.8682Q73.9297-13.8037 73.752-13.8037Z"/>
  </g>
  <g id="Regular-S" transform="matrix(1 0 0 1 1390.93 696)">
   <path d="M15.6738-4.63867Q16.8945-4.63867 17.9688-5.00488Q19.043-5.37109 20.3613-6.15234L59.1309-28.9551Q61.377-30.3223 62.3779-31.8848Q63.3789-33.4473 63.3789-35.2051Q63.3789-36.9629 62.3779-38.5254Q61.377-40.0879 59.1309-41.4062L20.3613-64.2578Q19.043-64.9902 17.9688-65.3809Q16.8945-65.7715 15.6738-65.7715Q13.2324-65.7715 11.499-63.9648Q9.76562-62.1582 9.76562-58.7402L9.76562-11.6211Q9.76562-8.25195 11.499-6.44531Q13.2324-4.63867 15.6738-4.63867ZM17.627-12.793Q17.2852-12.793 17.041-13.0127Q16.7969-13.2324 16.7969-13.6719L16.7969-56.7383Q16.7969-57.1777 17.041-57.3975Q17.2852-57.6172 17.627-57.6172Q17.8223-57.6172 17.9932-57.5439Q18.1641-57.4707 18.4082-57.3242L54.0527-36.1328Q54.7852-35.7422 54.7852-35.2051Q54.7852-34.668 54.0527-34.2773L18.4082-13.0859Q18.1641-12.9395 17.9932-12.8662Q17.8223-12.793 17.627-12.793ZM69.0918-4.63867Q70.3125-4.63867 71.3867-5.00488Q72.4609-5.37109 73.7793-6.15234L112.549-28.9551Q114.795-30.3223 115.796-31.8848Q116.797-33.4473 116.797-35.2051Q116.797-36.9629 115.796-38.5254Q114.795-40.0879 112.549-41.4062L73.7793-64.2578Q72.4609-64.9902 71.3867-65.3809Q70.3125-65.7715 69.0918-65.7715Q66.6504-65.7715 64.917-63.9648Q63.1836-62.1582 63.1836-58.7402L63.1836-11.6211Q63.1836-8.25195 64.917-6.44531Q66.6504-4.63867 69.0918-4.63867ZM71.0449-12.793Q70.7031-12.793 70.459-13.0127Q70.2148-13.2324 70.2148-13.6719L70.2148-56.7383Q70.2148-57.1777 70.459-57.3975Q70.7031-57.6172 71.0449-57.6172Q71.2402-57.6172 71.4111-57.5439Q71.582-57.4707 71.8262-57.3242L107.471-36.1328Q108.203-35.7422 108.203-35.2051Q108.203-34.668 107.471-34.2773L71.8262-13.0859Q71.582-12.9395 71.4111-12.8662Q71.2402-12.793 71.0449-12.793Z"/>
  </g>
  <g id="Light-S" transform="matrix(1 0 0 1 1095.81 696)">
   <path d="M14.974-5.53385Q16.0645-5.53385 17.0573-5.89193Q18.0501-6.25 19.1406-6.90104L58.2845-29.9154Q60.0911-31.0059 60.9456-32.3242Q61.8001-33.6426 61.8001-35.1888Q61.8001-36.735 60.9538-38.0371Q60.1074-39.3392 58.2845-40.4297L19.1406-63.4766Q18.0339-64.0788 17.0492-64.4531Q16.0645-64.8275 14.974-64.8275Q12.8743-64.8275 11.32-63.2487Q9.76562-61.6699 9.76562-58.61L9.76562-11.735Q9.76562-8.69141 11.32-7.11263Q12.8743-5.53385 14.974-5.53385ZM16.3411-11.7188Q15.918-11.7188 15.5436-12.0361Q15.1693-12.3535 15.1693-13.1022L15.1693-57.2754Q15.1693-58.0078 15.5436-58.3171Q15.918-58.6263 16.3411-58.6263Q16.6016-58.6263 16.8457-58.5449Q17.0898-58.4635 17.4642-58.252L54.3783-36.377Q55.3223-35.8561 55.3223-35.1888Q55.3223-34.4889 54.3783-33.9844L17.4642-12.1094Q17.1061-11.8978 16.8538-11.8083Q16.6016-11.7188 16.3411-11.7188ZM66.8132-5.53385Q67.9036-5.53385 68.8965-5.89193Q69.8893-6.25 70.9798-6.90104L110.124-29.9154Q111.93-31.0059 112.785-32.3242Q113.639-33.6426 113.639-35.1888Q113.639-36.735 112.793-38.0371Q111.947-39.3392 110.124-40.4297L70.9798-63.4766Q69.873-64.0788 68.8883-64.4531Q67.9036-64.8275 66.8132-64.8275Q64.7135-64.8275 63.1592-63.2487Q61.6048-61.6699 61.6048-58.61L61.6048-11.735Q61.6048-8.69141 63.1592-7.11263Q64.7135-5.53385 66.8132-5.53385ZM68.1803-11.7188Q67.7572-11.7188 67.3828-12.0361Q67.0085-12.3535 67.0085-13.1022L67.0085-57.2754Q67.0085-58.0078 67.3828-58.3171Q67.7572-58.6263 68.1803-58.6263Q68.4408-58.6263 68.6849-58.5449Q68.929-58.4635 69.3034-58.252L106.217-36.377Q107.161-35.8561 107.161-35.1888Q107.161-34.4889 106.217-33.9844L69.3034-12.1094Q68.9453-11.8978 68.693-11.8083Q68.4408-11.7188 68.1803-11.7188Z"/>
  </g>
  <g id="Thin-S" transform="matrix(1 0 0 1 801.202 696)">
   <path d="M14.0483-6.7178Q14.9666-6.7178 15.8518-7.06511Q16.737-7.41242 17.5261-7.89126L57.1651-31.1854Q58.3906-31.91 59.0513-32.9054Q59.7121-33.9009 59.7121-35.1673Q59.7121-36.4337 59.0702-37.3913Q58.4284-38.349 57.1651-39.1381L17.5261-62.4433Q16.6992-62.8733 15.8329-63.2261Q14.9666-63.5789 14.0483-63.5789Q12.4008-63.5789 11.0832-62.3015Q9.76562-61.0241 9.76562-58.4378L9.76562-11.8857Q9.76562-9.27262 11.0832-7.99521Q12.4008-6.7178 14.0483-6.7178ZM14.6406-10.298Q14.1098-10.298 13.5632-10.7446Q13.0166-11.1911 13.0166-12.3488L13.0166-57.9858Q13.0166-59.1057 13.5632-59.5333Q14.1098-59.9609 14.6406-59.9609Q14.9871-59.9609 15.3281-59.8688Q15.6691-59.7767 16.2157-59.479L54.8088-36.6998Q56.0326-36.0068 56.0326-35.1673Q56.0326-34.2521 54.8088-33.5969L16.2157-10.8178Q15.7069-10.5201 15.347-10.4091Q14.9871-10.298 14.6406-10.298ZM63.7995-6.7178Q64.7177-6.7178 65.6029-7.06511Q66.4882-7.41242 67.2773-7.89126L106.916-31.1854Q108.142-31.91 108.802-32.9054Q109.463-33.9009 109.463-35.1673Q109.463-36.4337 108.821-37.3913Q108.179-38.349 106.916-39.1381L67.2773-62.4433Q66.4504-62.8733 65.584-63.2261Q64.7177-63.5789 63.7995-63.5789Q62.1519-63.5789 60.8343-62.3015Q59.5168-61.0241 59.5168-58.4378L59.5168-11.8857Q59.5168-9.27262 60.8343-7.99521Q62.1519-6.7178 63.7995-6.7178ZM64.3917-10.298Q63.8609-10.298 63.3143-10.7446Q62.7678-11.1911 62.7678-12.3488L62.7678-57.9858Q62.7678-59.1057 63.3143-59.5333Q63.8609-59.9609 64.3917-59.9609Q64.7382-59.9609 65.0792-59.8688Q65.4202-59.7767 65.9668-59.479L104.56-36.6998Q105.784-36.0068 105.784-35.1673Q105.784-34.2521 104.56-33.5969L65.9668-10.8178Q65.458-10.5201 65.0981-10.4091Q64.7382-10.298 64.3917-10.298Z"/>
  </g>
  <g id="Ultralight-S" transform="matrix(1 0 0 1 505.568 696)">
   <path d="M13.5742-7.32422Q14.4043-7.32422 15.2344-7.66602Q16.0645-8.00781 16.6992-8.39844L56.5918-31.8359Q57.5195-32.373 58.0811-33.2031Q58.6426-34.0332 58.6426-35.1562Q58.6426-36.2793 58.1055-37.0605Q57.5684-37.8418 56.5918-38.4766L16.6992-61.9141Q16.0156-62.2559 15.21-62.5977Q14.4043-62.9395 13.5742-62.9395Q12.1582-62.9395 10.9619-61.8164Q9.76562-60.6934 9.76562-58.3496L9.76562-11.9629Q9.76562-9.57031 10.9619-8.44727Q12.1582-7.32422 13.5742-7.32422ZM13.7695-9.57031Q13.1836-9.57031 12.5488-10.083Q11.9141-10.5957 11.9141-11.9629L11.9141-58.3496Q11.9141-59.668 12.5488-60.1562Q13.1836-60.6445 13.7695-60.6445Q14.1602-60.6445 14.5508-60.5469Q14.9414-60.4492 15.5762-60.1074L55.0293-36.8652Q56.3965-36.084 56.3965-35.1562Q56.3965-34.1309 55.0293-33.3984L15.5762-10.1562Q14.9902-9.81445 14.5752-9.69238Q14.1602-9.57031 13.7695-9.57031ZM62.2559-7.32422Q63.0859-7.32422 63.916-7.66602Q64.7461-8.00781 65.3809-8.39844L105.273-31.8359Q106.201-32.373 106.763-33.2031Q107.324-34.0332 107.324-35.1562Q107.324-36.2793 106.787-37.0605Q106.25-37.8418 105.273-38.4766L65.3809-61.9141Q64.6973-62.2559 63.8916-62.5977Q63.0859-62.9395 62.2559-62.9395Q60.8398-62.9395 59.6436-61.8164Q58.4473-60.6934 58.4473-58.3496L58.4473-11.9629Q58.4473-9.57031 59.6436-8.44727Q60.8398-7.32422 62.2559-7.32422ZM62.4512-9.57031Q61.8652-9.57031 61.2305-10.083Q60.5957-10.5957 60.5957-11.9629L60.5957-58.3496Q60.5957-59.668 61.2305-60.1562Q61.8652-60.6445 62.4512-60.6445Q62.8418-60.6445 63.2324-60.5469Q63.623-60.4492 64.2578-60.1074L103.711-36.8652Q105.078-36.084 105.078-35.1562Q105.078-34.1309 103.711-33.3984L64.2578-10.1562Q63.6719-9.81445 63.2568-9.69238Q62.8418-9.57031 62.4512-9.57031Z"/>
  </g>
 </g>
</svg>
