<?xml version="1.0" encoding="UTF-8"?>
<!--Generator: Apple Native CoreSVG 175.5-->
<!DOCTYPE svg
PUBLIC "-//W3C//DTD SVG 1.1//EN"
       "http://www.w3.org/Graphics/SVG/1.1/DTD/svg11.dtd">
<svg version="1.1" xmlns="http://www.w3.org/2000/svg" xmlns:xlink="http://www.w3.org/1999/xlink" width="9.0835" height="14.4917">
 <g>
  <rect height="14.4917" opacity="0" width="9.0835" x="0" y="0"/>
  <path d="M0 6.70947C0 9.19775 1.64404 10.9434 4.0625 11.1465L4.0625 12.6255L1.70752 12.6255C1.44092 12.6255 1.2251 12.8413 1.2251 13.1079C1.2251 13.3745 1.44092 13.584 1.70752 13.584L7.37598 13.584C7.64258 13.584 7.8584 13.3745 7.8584 13.1079C7.8584 12.8413 7.64258 12.6255 7.37598 12.6255L5.021 12.6255L5.021 11.1465C7.4458 10.9434 9.0835 9.19775 9.0835 6.70947L9.0835 5.4209C9.0835 5.1543 8.87402 4.94482 8.60742 4.94482C8.34082 4.94482 8.125 5.1543 8.125 5.4209L8.125 6.67139C8.125 8.83594 6.71582 10.2705 4.54492 10.2705C2.36768 10.2705 0.958496 8.83594 0.958496 6.67139L0.958496 5.4209C0.958496 5.1543 0.749023 4.94482 0.476074 4.94482C0.209473 4.94482 0 5.1543 0 5.4209ZM2.23438 6.48096C2.23438 7.94092 3.17383 8.96924 4.54492 8.96924C5.90967 8.96924 6.84912 7.94092 6.84912 6.48096L6.84912 2.48828C6.84912 1.02197 5.90967 0 4.54492 0C3.17383 0 2.23438 1.02197 2.23438 2.48828ZM3.19287 6.48096L3.19287 2.48828C3.19287 1.54883 3.73242 0.945801 4.54492 0.945801C5.35742 0.945801 5.89062 1.54883 5.89062 2.48828L5.89062 6.48096C5.89062 7.42041 5.35742 8.02344 4.54492 8.02344C3.73242 8.02344 3.19287 7.42041 3.19287 6.48096Z" fill="#000000" fill-opacity="0.85"/>
 </g>
</svg>
