<?xml version="1.0" encoding="UTF-8"?>
<!--Generator: Apple Native CoreSVG 175.5-->
<!DOCTYPE svg
PUBLIC "-//W3C//DTD SVG 1.1//EN"
       "http://www.w3.org/Graphics/SVG/1.1/DTD/svg11.dtd">
<svg version="1.1" xmlns="http://www.w3.org/2000/svg" xmlns:xlink="http://www.w3.org/1999/xlink" width="3300" height="2200">
 <!--glyph: "uni100249.medium", point size: 100.0, font version: "18.0d12e2", template writer version: "101"-->
 <g id="Notes">
  <rect height="2200" id="artboard" style="fill:white;opacity:1" width="3300" x="0" y="0"/>
  <line style="fill:none;stroke:black;opacity:1;stroke-width:0.5;" x1="263" x2="3036" y1="292" y2="292"/>
  <text style="stroke:none;fill:black;font-family:sans-serif;font-size:13;font-weight:bold;" transform="matrix(1 0 0 1 263 322)">Weight/Scale Variations</text>
  <text style="stroke:none;fill:black;font-family:sans-serif;font-size:13;text-anchor:middle;" transform="matrix(1 0 0 1 559.711 322)">Ultralight</text>
  <text style="stroke:none;fill:black;font-family:sans-serif;font-size:13;text-anchor:middle;" transform="matrix(1 0 0 1 856.422 322)">Thin</text>
  <text style="stroke:none;fill:black;font-family:sans-serif;font-size:13;text-anchor:middle;" transform="matrix(1 0 0 1 1153.13 322)">Light</text>
  <text style="stroke:none;fill:black;font-family:sans-serif;font-size:13;text-anchor:middle;" transform="matrix(1 0 0 1 1449.84 322)">Regular</text>
  <text style="stroke:none;fill:black;font-family:sans-serif;font-size:13;text-anchor:middle;" transform="matrix(1 0 0 1 1746.56 322)">Medium</text>
  <text style="stroke:none;fill:black;font-family:sans-serif;font-size:13;text-anchor:middle;" transform="matrix(1 0 0 1 2043.27 322)">Semibold</text>
  <text style="stroke:none;fill:black;font-family:sans-serif;font-size:13;text-anchor:middle;" transform="matrix(1 0 0 1 2339.98 322)">Bold</text>
  <text style="stroke:none;fill:black;font-family:sans-serif;font-size:13;text-anchor:middle;" transform="matrix(1 0 0 1 2636.69 322)">Heavy</text>
  <text style="stroke:none;fill:black;font-family:sans-serif;font-size:13;text-anchor:middle;" transform="matrix(1 0 0 1 2933.4 322)">Black</text>
  <line style="fill:none;stroke:black;opacity:1;stroke-width:0.5;" x1="263" x2="3036" y1="1903" y2="1903"/>
  <g transform="matrix(1 0 0 1 263 1933)">
   <path d="M9.24805 0.830078C13.5547 0.830078 17.1387-2.74414 17.1387-7.05078C17.1387-11.3574 13.5449-14.9316 9.23828-14.9316C4.94141-14.9316 1.36719-11.3574 1.36719-7.05078C1.36719-2.74414 4.95117 0.830078 9.24805 0.830078ZM9.24805-0.654297C5.70312-0.654297 2.87109-3.49609 2.87109-7.05078C2.87109-10.6055 5.69336-13.4473 9.23828-13.4473C12.793-13.4473 15.6445-10.6055 15.6445-7.05078C15.6445-3.49609 12.8027-0.654297 9.24805-0.654297ZM5.6543-7.05078C5.6543-6.62109 5.95703-6.32812 6.40625-6.32812L8.50586-6.32812L8.50586-4.20898C8.50586-3.76953 8.79883-3.4668 9.22852-3.4668C9.67773-3.4668 9.9707-3.76953 9.9707-4.20898L9.9707-6.32812L12.0898-6.32812C12.5293-6.32812 12.832-6.62109 12.832-7.05078C12.832-7.49023 12.5293-7.79297 12.0898-7.79297L9.9707-7.79297L9.9707-9.90234C9.9707-10.3516 9.67773-10.6543 9.22852-10.6543C8.79883-10.6543 8.50586-10.3516 8.50586-9.90234L8.50586-7.79297L6.40625-7.79297C5.95703-7.79297 5.6543-7.49023 5.6543-7.05078Z"/>
  </g>
  <g transform="matrix(1 0 0 1 281.867 1933)">
   <path d="M11.709 2.91016C17.1582 2.91016 21.6699-1.61133 21.6699-7.05078C21.6699-12.5 17.1484-17.0117 11.6992-17.0117C6.25977-17.0117 1.74805-12.5 1.74805-7.05078C1.74805-1.61133 6.26953 2.91016 11.709 2.91016ZM11.709 1.25C7.09961 1.25 3.41797-2.44141 3.41797-7.05078C3.41797-11.6602 7.08984-15.3516 11.6992-15.3516C16.3086-15.3516 20.0098-11.6602 20.0098-7.05078C20.0098-2.44141 16.3184 1.25 11.709 1.25ZM7.17773-7.05078C7.17773-6.57227 7.50977-6.25 8.00781-6.25L10.8789-6.25L10.8789-3.36914C10.8789-2.88086 11.2109-2.53906 11.6895-2.53906C12.1777-2.53906 12.5195-2.87109 12.5195-3.36914L12.5195-6.25L15.4004-6.25C15.8887-6.25 16.2305-6.57227 16.2305-7.05078C16.2305-7.53906 15.8887-7.88086 15.4004-7.88086L12.5195-7.88086L12.5195-10.752C12.5195-11.25 12.1777-11.5918 11.6895-11.5918C11.2109-11.5918 10.8789-11.25 10.8789-10.752L10.8789-7.88086L8.00781-7.88086C7.50977-7.88086 7.17773-7.53906 7.17773-7.05078Z"/>
  </g>
  <g transform="matrix(1 0 0 1 305.646 1933)">
   <path d="M14.9707 5.66406C21.9336 5.66406 27.6953-0.0976562 27.6953-7.05078C27.6953-14.0137 21.9238-19.7754 14.9609-19.7754C8.00781-19.7754 2.25586-14.0137 2.25586-7.05078C2.25586-0.0976562 8.01758 5.66406 14.9707 5.66406ZM14.9707 3.84766C8.93555 3.84766 4.08203-1.01562 4.08203-7.05078C4.08203-13.0957 8.92578-17.9492 14.9609-17.9492C21.0059-17.9492 25.8691-13.0957 25.8691-7.05078C25.8691-1.01562 21.0156 3.84766 14.9707 3.84766ZM9.19922-7.05078C9.19922-6.5332 9.57031-6.17188 10.1172-6.17188L14.0625-6.17188L14.0625-2.2168C14.0625-1.67969 14.4336-1.29883 14.9512-1.29883C15.4883-1.29883 15.8594-1.66992 15.8594-2.2168L15.8594-6.17188L19.8145-6.17188C20.3516-6.17188 20.7324-6.5332 20.7324-7.05078C20.7324-7.59766 20.3613-7.96875 19.8145-7.96875L15.8594-7.96875L15.8594-11.9141C15.8594-12.4609 15.4883-12.8418 14.9512-12.8418C14.4336-12.8418 14.0625-12.4609 14.0625-11.9141L14.0625-7.96875L10.1172-7.96875C9.57031-7.96875 9.19922-7.59766 9.19922-7.05078Z"/>
  </g>
  <text style="stroke:none;fill:black;font-family:sans-serif;font-size:13;font-weight:bold;" transform="matrix(1 0 0 1 263 1953)">Design Variations</text>
  <text style="stroke:none;fill:black;font-family:sans-serif;font-size:13;" transform="matrix(1 0 0 1 263 1971)">Symbols are supported in up to nine weights and three scales.</text>
  <text style="stroke:none;fill:black;font-family:sans-serif;font-size:13;" transform="matrix(1 0 0 1 263 1989)">For optimal layout with text and other symbols, vertically align</text>
  <text style="stroke:none;fill:black;font-family:sans-serif;font-size:13;" transform="matrix(1 0 0 1 263 2007)">symbols with the adjacent text.</text>
  <line style="fill:none;stroke:#00AEEF;stroke-width:0.5;opacity:1.0;" x1="776" x2="776" y1="1919" y2="1933"/>
  <g transform="matrix(1 0 0 1 776 1933)">
   <path d="M3.31055 0.15625C3.82812 0.15625 4.08203-0.0390625 4.26758-0.585938L5.52734-4.0332L11.2891-4.0332L12.5488-0.585938C12.7344-0.0390625 12.9883 0.15625 13.4961 0.15625C14.0137 0.15625 14.3457-0.15625 14.3457-0.644531C14.3457-0.810547 14.3164-0.966797 14.2383-1.17188L9.6582-13.3691C9.43359-13.9648 9.0332-14.2676 8.4082-14.2676C7.80273-14.2676 7.39258-13.9746 7.17773-13.3789L2.59766-1.16211C2.51953-0.957031 2.49023-0.800781 2.49023-0.634766C2.49023-0.146484 2.80273 0.15625 3.31055 0.15625ZM6.00586-5.51758L8.37891-12.0898L8.42773-12.0898L10.8008-5.51758Z"/>
  </g>
  <line style="fill:none;stroke:#00AEEF;stroke-width:0.5;opacity:1.0;" x1="793.197" x2="793.197" y1="1919" y2="1933"/>
  <text style="stroke:none;fill:black;font-family:sans-serif;font-size:13;font-weight:bold;" transform="matrix(1 0 0 1 776 1953)">Margins</text>
  <text style="stroke:none;fill:black;font-family:sans-serif;font-size:13;" transform="matrix(1 0 0 1 776 1971)">Leading and trailing margins on the left and right side of each symbol</text>
  <text style="stroke:none;fill:black;font-family:sans-serif;font-size:13;" transform="matrix(1 0 0 1 776 1989)">can be adjusted by modifying the x-location of the margin guidelines.</text>
  <text style="stroke:none;fill:black;font-family:sans-serif;font-size:13;" transform="matrix(1 0 0 1 776 2007)">Modifications are automatically applied proportionally to all</text>
  <text style="stroke:none;fill:black;font-family:sans-serif;font-size:13;" transform="matrix(1 0 0 1 776 2025)">scales and weights.</text>
  <g transform="matrix(1 0 0 1 1289 1933)">
   <path d="M2.8418 1.86523L4.54102 3.57422C5.40039 4.44336 6.38672 4.38477 7.31445 3.35938L18.0078-8.42773L17.041-9.4043L6.42578 2.27539C6.07422 2.67578 5.74219 2.77344 5.27344 2.30469L4.10156 1.14258C3.63281 0.683594 3.74023 0.341797 4.14062-0.0195312L15.6152-10.8203L14.6387-11.7871L3.04688-0.898438C2.06055 0.0195312 1.98242 0.996094 2.8418 1.86523ZM9.25781-16.3281C8.83789-15.918 8.80859-15.3418 9.04297-14.9512C9.27734-14.5898 9.73633-14.3555 10.3809-14.5215C11.8457-14.8633 13.3691-14.9219 14.7949-13.9844L14.209-12.5293C13.8672-11.6992 14.043-11.1133 14.5801-10.5664L16.875-8.25195C17.3633-7.76367 17.7734-7.74414 18.3398-7.8418L19.4043-8.03711L20.0684-7.36328L20.0293-6.80664C19.9902-6.30859 20.1172-5.92773 20.6055-5.44922L21.3672-4.70703C21.8457-4.22852 22.4609-4.19922 22.9297-4.66797L25.8398-7.58789C26.3086-8.05664 26.2891-8.65234 25.8105-9.13086L25.0391-9.89258C24.5605-10.3711 24.1895-10.5273 23.7109-10.4883L23.1348-10.4395L22.4902-11.0742L22.7344-12.1973C22.8613-12.7637 22.7051-13.2031 22.1191-13.7891L19.9219-15.9766C16.582-19.2969 12.1484-19.2188 9.25781-16.3281ZM10.752-15.957C13.1836-17.7344 16.4746-17.4316 18.7012-15.2051L21.1328-12.793C21.3672-12.5586 21.4062-12.373 21.3379-12.0312L21.0156-10.5469L22.5195-9.0625L23.5059-9.12109C23.7598-9.13086 23.8379-9.11133 24.0332-8.91602L24.6094-8.33984L22.168-5.89844L21.5918-6.47461C21.3965-6.66992 21.3672-6.74805 21.377-7.01172L21.4453-7.98828L19.9512-9.47266L18.4277-9.21875C18.1055-9.15039 17.959-9.17969 17.7148-9.41406L15.7129-11.416C15.459-11.6504 15.4297-11.8164 15.5859-12.1875L16.4648-14.2773C14.9023-15.7324 12.8711-16.3574 10.8398-15.7617C10.6836-15.7227 10.625-15.8496 10.752-15.957Z"/>
  </g>
  <text style="stroke:none;fill:black;font-family:sans-serif;font-size:13;font-weight:bold;" transform="matrix(1 0 0 1 1289 1953)">Exporting</text>
  <text style="stroke:none;fill:black;font-family:sans-serif;font-size:13;" transform="matrix(1 0 0 1 1289 1971)">Symbols should be outlined when exporting to ensure the</text>
  <text style="stroke:none;fill:black;font-family:sans-serif;font-size:13;" transform="matrix(1 0 0 1 1289 1989)">design is preserved when submitting to Xcode.</text>
  <text id="template-version" style="stroke:none;fill:black;font-family:sans-serif;font-size:13;text-anchor:end;" transform="matrix(1 0 0 1 3036 1933)">Template v.4.0</text>
  <text style="stroke:none;fill:black;font-family:sans-serif;font-size:13;text-anchor:end;" transform="matrix(1 0 0 1 3036 1951)">Requires Xcode 14 or greater</text>
  <text id="descriptive-name" style="stroke:none;fill:black;font-family:sans-serif;font-size:13;text-anchor:end;" transform="matrix(1 0 0 1 3036 1969)">Generated from calendar</text>
  <text style="stroke:none;fill:black;font-family:sans-serif;font-size:13;text-anchor:end;" transform="matrix(1 0 0 1 3036 1987)">Typeset at 100 points</text>
  <text style="stroke:none;fill:black;font-family:sans-serif;font-size:13;" transform="matrix(1 0 0 1 263 726)">Small</text>
  <text style="stroke:none;fill:black;font-family:sans-serif;font-size:13;" transform="matrix(1 0 0 1 263 1156)">Medium</text>
  <text style="stroke:none;fill:black;font-family:sans-serif;font-size:13;" transform="matrix(1 0 0 1 263 1586)">Large</text>
 </g>
 <g id="Guides">
  <g id="H-reference" style="fill:#27AAE1;stroke:none;" transform="matrix(1 0 0 1 339 696)">
   <path d="M0.993654 0L3.63775 0L29.3281-67.1323L30.0303-67.1323L30.0303-70.459L28.1226-70.459ZM11.6885-24.4799L46.9815-24.4799L46.2315-26.7285L12.4385-26.7285ZM55.1196 0L57.7637 0L30.6382-70.459L29.4326-70.459L29.4326-67.1323Z"/>
  </g>
  <line id="Baseline-S" style="fill:none;stroke:#27AAE1;opacity:1;stroke-width:0.5;" x1="263" x2="3036" y1="696" y2="696"/>
  <line id="Capline-S" style="fill:none;stroke:#27AAE1;opacity:1;stroke-width:0.5;" x1="263" x2="3036" y1="625.541" y2="625.541"/>
  <g id="H-reference" style="fill:#27AAE1;stroke:none;" transform="matrix(1 0 0 1 339 1126)">
   <path d="M0.993654 0L3.63775 0L29.3281-67.1323L30.0303-67.1323L30.0303-70.459L28.1226-70.459ZM11.6885-24.4799L46.9815-24.4799L46.2315-26.7285L12.4385-26.7285ZM55.1196 0L57.7637 0L30.6382-70.459L29.4326-70.459L29.4326-67.1323Z"/>
  </g>
  <line id="Baseline-M" style="fill:none;stroke:#27AAE1;opacity:1;stroke-width:0.5;" x1="263" x2="3036" y1="1126" y2="1126"/>
  <line id="Capline-M" style="fill:none;stroke:#27AAE1;opacity:1;stroke-width:0.5;" x1="263" x2="3036" y1="1055.54" y2="1055.54"/>
  <g id="H-reference" style="fill:#27AAE1;stroke:none;" transform="matrix(1 0 0 1 339 1556)">
   <path d="M0.993654 0L3.63775 0L29.3281-67.1323L30.0303-67.1323L30.0303-70.459L28.1226-70.459ZM11.6885-24.4799L46.9815-24.4799L46.2315-26.7285L12.4385-26.7285ZM55.1196 0L57.7637 0L30.6382-70.459L29.4326-70.459L29.4326-67.1323Z"/>
  </g>
  <line id="Baseline-L" style="fill:none;stroke:#27AAE1;opacity:1;stroke-width:0.5;" x1="263" x2="3036" y1="1556" y2="1556"/>
  <line id="Capline-L" style="fill:none;stroke:#27AAE1;opacity:1;stroke-width:0.5;" x1="263" x2="3036" y1="1485.54" y2="1485.54"/>
  <line id="left-margin-Ultralight-S" style="fill:none;stroke:#00AEEF;stroke-width:0.5;opacity:1.0;" x1="512.504" x2="512.504" y1="600.785" y2="720.121"/>
  <line id="right-margin-Ultralight-S" style="fill:none;stroke:#00AEEF;stroke-width:0.5;opacity:1.0;" x1="606.918" x2="606.918" y1="600.785" y2="720.121"/>
  <line id="left-margin-Regular-S" style="fill:none;stroke:#00AEEF;stroke-width:0.5;opacity:1.0;" x1="1401.8" x2="1401.8" y1="600.785" y2="720.121"/>
  <line id="right-margin-Regular-S" style="fill:none;stroke:#00AEEF;stroke-width:0.5;opacity:1.0;" x1="1497.89" x2="1497.89" y1="600.785" y2="720.121"/>
  <line id="left-margin-Black-S" style="fill:none;stroke:#00AEEF;stroke-width:0.5;opacity:1.0;" x1="2881.11" x2="2881.11" y1="600.785" y2="720.121"/>
  <line id="right-margin-Black-S" style="fill:none;stroke:#00AEEF;stroke-width:0.5;opacity:1.0;" x1="2985.69" x2="2985.69" y1="600.785" y2="720.121"/>
 </g>
 <g id="Symbols">
  <g id="Black-S" transform="matrix(1 0 0 1 2881.11 696)">
   <path d="M25 2.92969L79.5898 2.92969C89.1602 2.92969 94.8242-2.73438 94.8242-12.3047L94.8242-58.1055C94.8242-67.6758 89.1602-73.3398 79.5898-73.3398L25-73.3398C15.4297-73.3398 9.76562-67.6758 9.76562-58.1055L9.76562-12.3047C9.76562-2.73438 15.4297 2.92969 25 2.92969ZM27.2461-11.2305C25-11.2305 23.9258-12.1094 23.9258-14.5508L23.9258-46.0938C23.9258-48.5352 25-49.4141 27.2461-49.4141L77.3438-49.4141C79.5898-49.4141 80.6641-48.5352 80.6641-46.0938L80.6641-14.5508C80.6641-12.1094 79.5898-11.2305 77.3438-11.2305ZM45.4102-38.5742L47.6562-38.5742C49.1211-38.5742 49.6582-39.0625 49.6582-40.5273L49.6582-42.7734C49.6582-44.2383 49.1211-44.7266 47.6562-44.7266L45.4102-44.7266C43.9453-44.7266 43.4082-44.2383 43.4082-42.7734L43.4082-40.5273C43.4082-39.0625 43.9453-38.5742 45.4102-38.5742ZM56.9336-38.5742L59.1797-38.5742C60.6445-38.5742 61.1816-39.0625 61.1816-40.5273L61.1816-42.7734C61.1816-44.2383 60.6445-44.7266 59.1797-44.7266L56.9336-44.7266C55.4688-44.7266 54.9316-44.2383 54.9316-42.7734L54.9316-40.5273C54.9316-39.0625 55.4688-38.5742 56.9336-38.5742ZM68.457-38.5742L70.7031-38.5742C72.168-38.5742 72.7051-39.0625 72.7051-40.5273L72.7051-42.7734C72.7051-44.2383 72.168-44.7266 70.7031-44.7266L68.457-44.7266C66.9922-44.7266 66.4551-44.2383 66.4551-42.7734L66.4551-40.5273C66.4551-39.0625 66.9922-38.5742 68.457-38.5742ZM33.8867-27.2461L36.1328-27.2461C37.5977-27.2461 38.1348-27.7344 38.1348-29.1992L38.1348-31.4453C38.1348-32.9102 37.5977-33.3984 36.1328-33.3984L33.8867-33.3984C32.4219-33.3984 31.8848-32.9102 31.8848-31.4453L31.8848-29.1992C31.8848-27.7344 32.4219-27.2461 33.8867-27.2461ZM45.4102-27.2461L47.6562-27.2461C49.1211-27.2461 49.6582-27.7344 49.6582-29.1992L49.6582-31.4453C49.6582-32.9102 49.1211-33.3984 47.6562-33.3984L45.4102-33.3984C43.9453-33.3984 43.4082-32.9102 43.4082-31.4453L43.4082-29.1992C43.4082-27.7344 43.9453-27.2461 45.4102-27.2461ZM56.9336-27.2461L59.1797-27.2461C60.6445-27.2461 61.1816-27.7344 61.1816-29.1992L61.1816-31.4453C61.1816-32.9102 60.6445-33.3984 59.1797-33.3984L56.9336-33.3984C55.4688-33.3984 54.9316-32.9102 54.9316-31.4453L54.9316-29.1992C54.9316-27.7344 55.4688-27.2461 56.9336-27.2461ZM68.457-27.2461L70.7031-27.2461C72.168-27.2461 72.7051-27.7344 72.7051-29.1992L72.7051-31.4453C72.7051-32.9102 72.168-33.3984 70.7031-33.3984L68.457-33.3984C66.9922-33.3984 66.4551-32.9102 66.4551-31.4453L66.4551-29.1992C66.4551-27.7344 66.9922-27.2461 68.457-27.2461ZM33.8867-15.918L36.1328-15.918C37.5977-15.918 38.1348-16.4062 38.1348-17.8711L38.1348-20.1172C38.1348-21.582 37.5977-22.0703 36.1328-22.0703L33.8867-22.0703C32.4219-22.0703 31.8848-21.582 31.8848-20.1172L31.8848-17.8711C31.8848-16.4062 32.4219-15.918 33.8867-15.918ZM45.4102-15.918L47.6562-15.918C49.1211-15.918 49.6582-16.4062 49.6582-17.8711L49.6582-20.1172C49.6582-21.582 49.1211-22.0703 47.6562-22.0703L45.4102-22.0703C43.9453-22.0703 43.4082-21.582 43.4082-20.1172L43.4082-17.8711C43.4082-16.4062 43.9453-15.918 45.4102-15.918ZM56.9336-15.918L59.1797-15.918C60.6445-15.918 61.1816-16.4062 61.1816-17.8711L61.1816-20.1172C61.1816-21.582 60.6445-22.0703 59.1797-22.0703L56.9336-22.0703C55.4688-22.0703 54.9316-21.582 54.9316-20.1172L54.9316-17.8711C54.9316-16.4062 55.4688-15.918 56.9336-15.918Z"/>
  </g>
  <g id="Regular-S" transform="matrix(1 0 0 1 1401.8 696)">
   <path d="M22.2168 0.390625L73.877 0.390625C82.2266 0.390625 86.3281-3.71094 86.3281-11.9141L86.3281-58.4961C86.3281-66.6992 82.2266-70.8008 73.877-70.8008L22.2168-70.8008C13.916-70.8008 9.76562-66.6992 9.76562-58.4961L9.76562-11.9141C9.76562-3.71094 13.916 0.390625 22.2168 0.390625ZM21.5332-6.68945C18.5059-6.68945 16.7969-8.30078 16.7969-11.4746L16.7969-48.1934C16.7969-51.3672 18.5059-52.9785 21.5332-52.9785L74.5117-52.9785C77.5391-52.9785 79.2969-51.3672 79.2969-48.1934L79.2969-11.4746C79.2969-8.30078 77.5391-6.68945 74.5117-6.68945ZM40.625-39.1602L42.8711-39.1602C44.3359-39.1602 44.8242-39.6484 44.8242-41.0645L44.8242-43.3105C44.8242-44.7266 44.3359-45.2148 42.8711-45.2148L40.625-45.2148C39.209-45.2148 38.7207-44.7266 38.7207-43.3105L38.7207-41.0645C38.7207-39.6484 39.209-39.1602 40.625-39.1602ZM53.2227-39.1602L55.4688-39.1602C56.8848-39.1602 57.373-39.6484 57.373-41.0645L57.373-43.3105C57.373-44.7266 56.8848-45.2148 55.4688-45.2148L53.2227-45.2148C51.7578-45.2148 51.2695-44.7266 51.2695-43.3105L51.2695-41.0645C51.2695-39.6484 51.7578-39.1602 53.2227-39.1602ZM65.7715-39.1602L68.0176-39.1602C69.4336-39.1602 69.9707-39.6484 69.9707-41.0645L69.9707-43.3105C69.9707-44.7266 69.4336-45.2148 68.0176-45.2148L65.7715-45.2148C64.3066-45.2148 63.8184-44.7266 63.8184-43.3105L63.8184-41.0645C63.8184-39.6484 64.3066-39.1602 65.7715-39.1602ZM28.0762-26.8066L30.3223-26.8066C31.7871-26.8066 32.2754-27.2949 32.2754-28.7109L32.2754-30.957C32.2754-32.373 31.7871-32.8613 30.3223-32.8613L28.0762-32.8613C26.6602-32.8613 26.123-32.373 26.123-30.957L26.123-28.7109C26.123-27.2949 26.6602-26.8066 28.0762-26.8066ZM40.625-26.8066L42.8711-26.8066C44.3359-26.8066 44.8242-27.2949 44.8242-28.7109L44.8242-30.957C44.8242-32.373 44.3359-32.8613 42.8711-32.8613L40.625-32.8613C39.209-32.8613 38.7207-32.373 38.7207-30.957L38.7207-28.7109C38.7207-27.2949 39.209-26.8066 40.625-26.8066ZM53.2227-26.8066L55.4688-26.8066C56.8848-26.8066 57.373-27.2949 57.373-28.7109L57.373-30.957C57.373-32.373 56.8848-32.8613 55.4688-32.8613L53.2227-32.8613C51.7578-32.8613 51.2695-32.373 51.2695-30.957L51.2695-28.7109C51.2695-27.2949 51.7578-26.8066 53.2227-26.8066ZM65.7715-26.8066L68.0176-26.8066C69.4336-26.8066 69.9707-27.2949 69.9707-28.7109L69.9707-30.957C69.9707-32.373 69.4336-32.8613 68.0176-32.8613L65.7715-32.8613C64.3066-32.8613 63.8184-32.373 63.8184-30.957L63.8184-28.7109C63.8184-27.2949 64.3066-26.8066 65.7715-26.8066ZM28.0762-14.4531L30.3223-14.4531C31.7871-14.4531 32.2754-14.9414 32.2754-16.3574L32.2754-18.6035C32.2754-20.0195 31.7871-20.5078 30.3223-20.5078L28.0762-20.5078C26.6602-20.5078 26.123-20.0195 26.123-18.6035L26.123-16.3574C26.123-14.9414 26.6602-14.4531 28.0762-14.4531ZM40.625-14.4531L42.8711-14.4531C44.3359-14.4531 44.8242-14.9414 44.8242-16.3574L44.8242-18.6035C44.8242-20.0195 44.3359-20.5078 42.8711-20.5078L40.625-20.5078C39.209-20.5078 38.7207-20.0195 38.7207-18.6035L38.7207-16.3574C38.7207-14.9414 39.209-14.4531 40.625-14.4531ZM53.2227-14.4531L55.4688-14.4531C56.8848-14.4531 57.373-14.9414 57.373-16.3574L57.373-18.6035C57.373-20.0195 56.8848-20.5078 55.4688-20.5078L53.2227-20.5078C51.7578-20.5078 51.2695-20.0195 51.2695-18.6035L51.2695-16.3574C51.2695-14.9414 51.7578-14.4531 53.2227-14.4531Z"/>
  </g>
  <g id="Ultralight-S" transform="matrix(1 0 0 1 512.504 696)">
   <path d="M19.7647-1.562L74.6489-1.562C81.2275-1.562 84.648-5.11864 84.648-11.5508L84.648-58.7686C84.648-65.2007 81.2275-68.7573 74.6489-68.7573L19.7647-68.7573C13.2349-68.7573 9.76562-65.2915 9.76562-58.7686L9.76562-11.5508C9.76562-5.02782 13.2349-1.562 19.7647-1.562ZM19.8076-3.78323C14.646-3.78323 11.9834-6.43898 11.9834-11.6108L11.9834-44.6968C11.9834-49.8687 14.646-52.5698 19.8076-52.5698L74.6025-52.5698C79.5825-52.5698 82.4756-49.8687 82.4756-44.6968L82.4756-11.6108C82.4756-6.43898 79.5825-3.78323 74.6025-3.78323ZM39.3535-39.251L41.5996-39.251C42.565-39.251 42.69-39.376 42.69-40.2925L42.69-42.5386C42.69-43.4097 42.565-43.5347 41.5996-43.5347L39.3535-43.5347C38.437-43.5347 38.312-43.4097 38.312-42.5386L38.312-40.2925C38.312-39.376 38.437-39.251 39.3535-39.251ZM52.814-39.251L55.0601-39.251C56.022-39.251 56.1016-39.376 56.1016-40.2925L56.1016-42.5386C56.1016-43.4097 56.022-43.5347 55.0601-43.5347L52.814-43.5347C51.8486-43.5347 51.7236-43.4097 51.7236-42.5386L51.7236-40.2925C51.7236-39.376 51.8486-39.251 52.814-39.251ZM66.2256-39.251L68.4717-39.251C69.4336-39.251 69.562-39.376 69.562-40.2925L69.562-42.5386C69.562-43.4097 69.4336-43.5347 68.4717-43.5347L66.2256-43.5347C65.2602-43.5347 65.1807-43.4097 65.1807-42.5386L65.1807-40.2925C65.1807-39.376 65.2602-39.251 66.2256-39.251ZM25.9419-26.0347L28.188-26.0347C29.1533-26.0347 29.2783-26.1143 29.2783-27.0308L29.2783-29.2769C29.2783-30.1934 29.1533-30.3184 28.188-30.3184L25.9419-30.3184C24.98-30.3184 24.8516-30.1934 24.8516-29.2769L24.8516-27.0308C24.8516-26.1143 24.98-26.0347 25.9419-26.0347ZM39.3535-26.0347L41.5996-26.0347C42.565-26.0347 42.69-26.1143 42.69-27.0308L42.69-29.2769C42.69-30.1934 42.565-30.3184 41.5996-30.3184L39.3535-30.3184C38.437-30.3184 38.312-30.1934 38.312-29.2769L38.312-27.0308C38.312-26.1143 38.437-26.0347 39.3535-26.0347ZM52.814-26.0347L55.0601-26.0347C56.022-26.0347 56.1016-26.1143 56.1016-27.0308L56.1016-29.2769C56.1016-30.1934 56.022-30.3184 55.0601-30.3184L52.814-30.3184C51.8486-30.3184 51.7236-30.1934 51.7236-29.2769L51.7236-27.0308C51.7236-26.1143 51.8486-26.0347 52.814-26.0347ZM66.2256-26.0347L68.4717-26.0347C69.4336-26.0347 69.562-26.1143 69.562-27.0308L69.562-29.2769C69.562-30.1934 69.4336-30.3184 68.4717-30.3184L66.2256-30.3184C65.2602-30.3184 65.1807-30.1934 65.1807-29.2769L65.1807-27.0308C65.1807-26.1143 65.2602-26.0347 66.2256-26.0347ZM25.9419-12.773L28.188-12.773C29.1533-12.773 29.2783-12.898 29.2783-13.8145L29.2783-16.0606C29.2783-16.9771 29.1533-17.0567 28.188-17.0567L25.9419-17.0567C24.98-17.0567 24.8516-16.9771 24.8516-16.0606L24.8516-13.8145C24.8516-12.898 24.98-12.773 25.9419-12.773ZM39.3535-12.773L41.5996-12.773C42.565-12.773 42.69-12.898 42.69-13.8145L42.69-16.0606C42.69-16.9771 42.565-17.0567 41.5996-17.0567L39.3535-17.0567C38.437-17.0567 38.312-16.9771 38.312-16.0606L38.312-13.8145C38.312-12.898 38.437-12.773 39.3535-12.773ZM52.814-12.773L55.0601-12.773C56.022-12.773 56.1016-12.898 56.1016-13.8145L56.1016-16.0606C56.1016-16.9771 56.022-17.0567 55.0601-17.0567L52.814-17.0567C51.8486-17.0567 51.7236-16.9771 51.7236-16.0606L51.7236-13.8145C51.7236-12.898 51.8486-12.773 52.814-12.773Z"/>
  </g>
 </g>
</svg>
