<?xml version="1.0" encoding="UTF-8"?>
<!--Generator: Apple Native CoreSVG 175.5-->
<!DOCTYPE svg
PUBLIC "-//W3C//DTD SVG 1.1//EN"
       "http://www.w3.org/Graphics/SVG/1.1/DTD/svg11.dtd">
<svg version="1.1" xmlns="http://www.w3.org/2000/svg" xmlns:xlink="http://www.w3.org/1999/xlink" width="12.9492" height="12.9556">
 <g>
  <rect height="12.9556" opacity="0" width="12.9492" x="0" y="0"/>
  <path d="M6.47461 12.9492C10.0166 12.9492 12.9492 10.0103 12.9492 6.47461C12.9492 2.93262 10.0103 0 6.46826 0C2.93262 0 0 2.93262 0 6.47461C0 10.0103 2.93896 12.9492 6.47461 12.9492ZM6.47461 11.8701C3.47852 11.8701 1.08545 9.4707 1.08545 6.47461C1.08545 3.47852 3.47217 1.0791 6.46826 1.0791C9.46436 1.0791 11.8701 3.47852 11.8701 6.47461C11.8701 9.4707 9.4707 11.8701 6.47461 11.8701ZM5.36377 10.0293L7.94727 10.0293C8.20752 10.0293 8.41064 9.83887 8.41064 9.57861C8.41064 9.33105 8.20752 9.13428 7.94727 9.13428L7.16016 9.13428L7.16016 5.90332C7.16016 5.56055 6.98877 5.33203 6.66504 5.33203L5.47168 5.33203C5.21143 5.33203 5.0083 5.52881 5.0083 5.77637C5.0083 6.03662 5.21143 6.22705 5.47168 6.22705L6.15088 6.22705L6.15088 9.13428L5.36377 9.13428C5.10352 9.13428 4.90039 9.33105 4.90039 9.57861C4.90039 9.83887 5.10352 10.0293 5.36377 10.0293ZM6.41748 4.27832C6.88086 4.27832 7.24268 3.91016 7.24268 3.44678C7.24268 2.9834 6.88086 2.61523 6.41748 2.61523C5.96045 2.61523 5.59229 2.9834 5.59229 3.44678C5.59229 3.91016 5.96045 4.27832 6.41748 4.27832Z" fill="#000000" fill-opacity="0.85"/>
 </g>
</svg>
